<?xml version="1.0" standalone="no"?>
<!DOCTYPE svg PUBLIC "-//W3C//DTD SVG 1.1//EN" 
    "http://www.w3.org/Graphics/SVG/1.1/DTD/svg11.dtd">
<svg width="2480px" height="3508px"
    xmlns="http://www.w3.org/2000/svg" version="1.1" viewBox="0 0 2480 3508">
  <g fill="none" stroke="black" stroke-width="1.06299px">
    <path d="M500 1014 L1740 1014" />
    <path d="M1740 1014 L1740 2254" />
    <path d="M1740 2254 L500 2254" />
    <path d="M500 2254 L500 1014" />
    <path d="M523.4051519983427 1004.1042973638367 L1762.7932868518499 1043.053638620716" />
    <path d="M1762.7932868518499 1043.053638620716 L1723.8439455949708 2282.441773474223" />
    <path d="M1723.8439455949708 2282.441773474223 L484.45581074146355 2243.492432217344" />
    <path d="M484.45581074146355 2243.492432217344 L523.4051519983427 1004.1042973638367" />
    <path d="M547.1095864984566 994.94865125017 L1784.6627297495133 1072.8088954665186" />
    <path d="M1784.6627297495133 1072.8088954665186 L1706.8024855331646 2310.362038717575" />
    <path d="M1706.8024855331646 2310.362038717575 L469.24934228210793 2232.501794501227" />
    <path d="M469.24934228210793 2232.501794501227 L547.1095864984566 994.94865125017" />
    <path d="M571.0899100853611 986.5420971763396 L1805.5867461931803 1103.2364056912973" />
    <path d="M1805.5867461931803 1103.2364056912973 L1688.8924376782224 2337.7332417991165" />
    <path d="M1688.8924376782224 2337.7332417991165 L454.39560157040336 2221.0389332841587" />
    <path d="M454.39560157040336 2221.0389332841587 L571.0899100853611 986.5420971763396" />
    <path d="M595.3224570748557 978.8929313962803 L1825.544686704808 1134.3061410160176" />
    <path d="M1825.544686704808 1134.3061410160176 L1670.1314770850709 2364.5283706459704" />
    <path d="M1670.1314770850709 2364.5283706459704 L439.9092474551184 2209.1151610262327" />
    <path d="M439.9092474551184 2209.1151610262327 L595.3224570748557 978.8929313962803" />
    <path d="M619.7833128686925 972.0087027131227 L1844.5168552066634 1165.987439363009" />
    <path d="M1844.5168552066634 1165.987439363009 L1650.5381185567771 2390.72098170098" />
    <path d="M1650.5381185567771 2390.72098170098 L425.80457621880623 2196.7422450510935" />
    <path d="M425.80457621880623 2196.7422450510935 L619.7833128686925 972.0087027131227" />
    <path d="M644.4483375553979 965.8962050294336 L1862.484528458972 1198.249035115732" />
    <path d="M1862.484528458972 1198.249035115732 L1630.1316983726733 2416.2852260193063" />
    <path d="M1630.1316983726733 2416.2852260193063 L412.0955074690994 2183.9323959330077" />
    <path d="M412.0955074690994 2183.9323959330077 L644.4483375553979 965.8962050294336" />
    <path d="M669.2931897334506 960.5614706424564 L1879.4299745374974 1231.0590899741692" />
    <path d="M1879.4299745374974 1231.0590899741692 L1608.9323552057847 2441.195874778216" />
    <path d="M1608.9323552057847 2441.195874778216 L398.7955704017379 2170.698255446503" />
    <path d="M398.7955704017379 2170.698255446503 L669.2931897334506 960.5614706424564" />
    <path d="M694.2933505333064 956.0097642909604 L1895.3364703328089 1264.3852243753804" />
    <path d="M1895.3364703328089 1264.3852243753804 L1586.961010248389 2465.428344174883" />
    <path d="M1586.961010248389 2465.428344174883 L385.91789044888645 2157.052884090463" />
    <path d="M385.91789044888645 2157.052884090463 L694.2933505333064 956.0097642909604" />
    <path d="M719.4241478145616 952.2455779595806 L1910.1883180539708 1298.194549448225" />
    <path d="M1910.1883180539708 1298.194549448225 L1564.2393465653267 2488.958719687634" />
    <path d="M1564.2393465653267 2488.958719687634 L373.4751763259173 2143.00974819899" />
    <path d="M373.4751763259173 2143.00974819899 L719.4241478145616 952.2455779595806" />
    <path d="M744.6607805143776 949.2726264457702 L1923.970860720368 1332.453699470705" />
    <path d="M1923.970860720368 1332.453699470705 L1540.789787695433 2511.7637796766953" />
    <path d="M1540.789787695433 2511.7637796766953 L361.47970748944283 2128.5827066517604" />
    <path d="M361.47970748944283 2128.5827066517604 L744.6607805143776 949.2726264457702" />
    <path d="M769.9783431231353 947.0938436937447 L1936.6704966263746 1367.128864797906" />
    <path d="M1936.6704966263746 1367.128864797906 L1516.6354755222135 2533.8210183011456" />
    <path d="M1516.6354755222135 2533.8210183011456 L349.94332201897396 2113.785997196984" />
    <path d="M349.94332201897396 2113.785997196984 L769.9783431231353 947.0938436937447" />
    <path d="M795.3518502631662 945.7113798990325 L1948.274692764598 1402.185825228033" />
    <path d="M1948.274692764598 1402.185825228033 L1491.8002474355972 2555.108667729465" />
    <path d="M1491.8002474355972 2555.108667729465 L338.87740493416555 2098.6342224004643" />
    <path d="M338.87740493416555 2098.6342224004643 L795.3518502631662 945.7113798990325" />
    <path d="M820.7562613463037 945.1265993864923 L1958.7719971944402 1437.5899837736201" />
    <path d="M1958.7719971944402 1437.5899837736201 L1466.3086128073123 2575.605719621757" />
    <path d="M1466.3086128073123 2575.605719621757 L328.2928769591759 2083.142335234629" />
    <path d="M328.2928769591759 2083.142335234629 L820.7562613463037 945.1265993864923" />
    <path d="M846.1665052859207 945.3400792638885 L1968.152050343785 1473.3064008045785" />
    <path d="M1968.152050343785 1473.3064008045785 L1440.1857288030951 2595.291945862443" />
    <path d="M1440.1857288030951 2595.291945862443 L318.2001837452306 2067.325624321753" />
    <path d="M318.2001837452306 2067.325624321753 L846.1665052859207 945.3400792638885" />
    <path d="M871.5575052390644 946.3516088523559 L1976.4055952326407 1509.2998285293938" />
    <path d="M1976.4055952326407 1509.2998285293938 L1413.4573755556025 2614.14791852297" />
    <path d="M1413.4573755556025 2614.14791852297 L308.60928556202646 2051.199698845932" />
    <path d="M308.60928556202646 2051.199698845932 L871.5575052390644 946.3516088523559" />
    <path d="M896.9042033542739 948.160189894314 L1983.5244866086646 1545.534745780441" />
    <path d="M1983.5244866086646 1545.534745780441 L1386.1499307225376 2632.155029034832" />
    <path d="M1386.1499307225376 2632.155029034832 L299.5296474681469 2034.780473148705" />
    <path d="M299.5296474681469 2034.780473148705 L896.9042033542739 948.160189894314" />
    <path d="M922.1815855006532 950.7640375386271 L1989.501698985543 1581.9753930690877" />
    <path d="M1989.501698985543 1581.9753930690877 L1358.2903434550828 2649.2955065539777" />
    <path d="M1358.2903434550828 2649.2955065539777 L290.9702299701928 2018.0841510235173" />
    <path d="M290.9702299701928 2018.0841510235173 L922.1815855006532 950.7640375386271" />
    <path d="M947.3647059537993 954.1605821020366 L1994.3313335762978 1618.5858078759925" />
    <path d="M1994.3313335762978 1618.5858078759925 L1329.9061078023421 2665.552435498491" />
    <path d="M1329.9061078023421 2665.552435498491 L282.9394801798434 2001.1272097245353" />
    <path d="M282.9394801798434 2001.1272097245353 L947.3647059537993 954.1605821020366" />
    <path d="M972.4287120142197 958.3464716051283 L1998.0086241146764 1655.32986014177" />
    <path d="M1998.0086241146764 1655.32986014177 L1301.0252355780344 2680.9097722422266" />
    <path d="M1301.0252355780344 2680.9097722422266 L275.44532347757774 1983.926383705585" />
    <path d="M275.44532347757774 1983.926383705585 L972.4287120142197 958.3464716051283" />
    <path d="M997.3488685339473 963.317575080331 L2000.529941558882 1692.1712879229976" />
    <path d="M2000.529941558882 1692.1712879229976 L1271.6762287162155 2695.3523609479325" />
    <path d="M1271.6762287162155 2695.3523609479325 L268.4951556912805 1966.4986481052658" />
    <path d="M268.4951556912805 1966.4986481052658 L997.3488685339473 963.317575080331" />
    <path d="M1022.1005823271437 969.0689866486834 L2001.8927976729997 1729.0737331783741" />
    <path d="M2001.8927976729997 1729.0737331783741 L1241.888051143309 2708.86594852423" />
    <path d="M1241.888051143309 2708.86594852423 L262.0958357974529 1948.8612019945397" />
    <path d="M262.0958357974529 1948.8612019945397 L1022.1005823271437 969.0689866486834" />
    <path d="M1046.659426440606 975.5950303613441 L2002.0958474825843 1766.0007776497196" />
    <path d="M2002.0958474825843 1766.0007776497196 L1211.6901001942092 2721.437198691698" />
    <path d="M1211.6901001942092 2721.437198691698 L256.2536791522306 1931.0314514033225" />
    <path d="M256.2536791522306 1931.0314514033225 L1046.659426440606 975.5950303613441" />
    <path d="M1071.001164260219 982.889265801067 L2001.1388906019888 1802.9159788023953" />
    <path d="M2001.1388906019888 1802.9159788023953 L1181.1121776006605 2733.053705144165" />
    <path d="M1181.1121776006605 2733.053705144165 L250.97445125889067 1913.026992142837" />
    <path d="M250.97445125889067 1913.026992142837 L1071.001164260219 982.889265801067" />
    <path d="M1095.1017734295685 990.9444944381171 L1999.0228714321188 1839.782905789691" />
    <path d="M1999.0228714321188 1839.782905789691 L1150.1844600805448 2743.7040037922416" />
    <path d="M1150.1844600805448 2743.7040037922416 L246.26336207799443 1894.8655924406676" />
    <path d="M246.26336207799443 1894.8655924406676 L1095.1017734295685 990.9444944381171" />
    <path d="M1118.9374695571062 999.7527667343493 L1995.7498782284251 1876.5651754056682" />
    <path d="M1995.7498782284251 1876.5651754056682 L1118.9374695571064 2753.377584076987" />
    <path d="M1118.9374695571064 2753.377584076987 L242.12506088578743 1876.5651754056682" />
    <path d="M242.12506088578743 1876.5651754056682 L1118.9374695571062 999.7527667343493" />
    <path d="M1142.4847296884727 1009.3053899884427 L1991.3231410400467 1913.2264879909926" />
    <path d="M1991.3231410400467 1913.2264879909926 L1087.4020430374967 2762.0648993425666" />
    <path d="M1087.4020430374967 2762.0648993425666 L238.5636316859226 1858.1438013400168" />
    <path d="M238.5636316859226 1858.1438013400168 L1142.4847296884727 1009.3053899884427" />
    <path d="M1165.7203155208138 1019.5929369145475 L1985.747028522142 1949.7306632563175" />
    <path d="M1985.747028522142 1949.7306632563175 L1055.6093021803722 2769.757376257646" />
    <path d="M1055.6093021803722 2769.757376257646 L235.5825891790439 1839.6196499158757" />
    <path d="M235.5825891790439 1839.6196499158757 L1165.7203155208138 1019.5929369145475" />
    <path d="M1188.6212963361786 1030.6052549458784 L1979.0270436245537 1986.0416759878572" />
    <path d="M1979.0270436245537 1986.0416759878572 L1023.5906225825754 2776.4474232762323" />
    <path d="M1023.5906225825754 2776.4474232762323 L233.18487529420008 1821.0110022342537" />
    <path d="M233.18487529420008 1821.0110022342537 L1188.6212963361786 1030.6052549458784" />
    <path d="M1211.165071631372 1042.331476254072 L1971.1698181610627 2022.123691599928" />
    <path d="M1971.1698181610627 2022.123691599928 L991.3776028152066 2782.128438129619" />
    <path d="M991.3776028152066 2782.128438129619 L231.3728562855158 1802.3362227837629" />
    <path d="M231.3728562855158 1802.3362227837629 L1211.165071631372 1042.331476254072" />
    <path d="M1233.3293934219198 1054.7600284744203 L1962.1831062645865 2057.941101499355" />
    <path d="M1962.1831062645865 2057.941101499355 L959.0020332396518 2786.7948143420217" />
    <path d="M959.0020332396518 2786.7948143420217 L230.148320396985 1783.6137413170873" />
    <path d="M230.148320396985 1783.6137413170873 L1233.3293934219198 1054.7600284744203" />
    <path d="M1255.0923881981462 1067.8786461263999 L1952.0757767347882 2093.4585582268564" />
    <path d="M1952.0757767347882 2093.4585582268564 L926.4958646343318 2790.4419467634984" />
    <path d="M926.4958646343318 2790.4419467634984 L229.51247609768973 1764.8620346630419" />
    <path d="M229.51247609768973 1764.8620346630419 L1255.0923881981462 1067.8786461263999" />
    <path d="M1276.4325785116857 1081.6743827182177 L1940.8578042856416 2128.641010340716" />
    <path d="M1940.8578042856416 2128.641010340716 L893.8911766631427 2793.0662361146724" />
    <path d="M893.8911766631427 2793.0662361146724 L229.46595088918684 1746.0996084921735" />
    <path d="M229.46595088918684 1746.0996084921735 L1276.4325785116857 1081.6743827182177" />
    <path d="M1297.3289041711303 1096.1336235234369 L1928.540259701591 2163.453737008327" />
    <path d="M1928.540259701591 2163.453737008327 L861.2201462167008 2794.6650925387876" />
    <path d="M861.2201462167008 2794.6650925387876 L230.00879068624022 1727.3449790538975" />
    <path d="M230.00879068624022 1727.3449790538975 L1297.3289041711303 1096.1336235234369" />
    <path d="M1317.7607430258988 1111.2420990170685 L1915.1352989120255 2197.8623822714594" />
    <path d="M1915.1352989120255 2197.8623822714594 L828.5150156576346 2795.2369381575863" />
    <path d="M828.5150156576346 2795.2369381575863 L231.14045977150784 1708.6166549031955" />
    <path d="M231.14045977150784 1708.6166549031955 L1317.7607430258988 1111.2420990170685" />
    <path d="M1337.707931317807 1126.9848989578686 L1900.6561509948447 2231.832988951445" />
    <path d="M1900.6561509948447 2231.832988951445 L795.8080610012689 2794.781208628483" />
    <path d="M795.8080610012689 2794.781208628483 L232.85984132423084 1689.9331186349066" />
    <path d="M232.85984132423084 1689.9331186349066 L1337.707931317807 1126.9848989578686" />
    <path d="M1357.150783580264 1143.3464871029464 L1885.117105120954 2265.3320321608107" />
    <path d="M1885.117105120954 2265.3320321608107 L763.1315600630899 2793.2983537015007" />
    <path d="M763.1315600630899 2793.2983537015007 L235.16523852239982 1671.3128086436366" />
    <path d="M235.16523852239982 1671.3128086436366 L1357.150783580264 1143.3464871029464" />
    <path d="M1376.0701120654508 1160.3107165401618 L1868.5334964525791 2298.326452388298" />
    <path d="M1868.5334964525791 2298.326452388298 L730.5177606044426 2790.7898367754265" />
    <path d="M730.5177606044426 2790.7898367754265 L238.05437621731437 1652.77410092729" />
    <path d="M238.05437621731437 1652.77410092729 L1376.0701120654508 1160.3107165401618" />
    <path d="M1394.4472456803112 1177.8608456231764 L1850.9216910093119 2330.783688124608" />
    <path d="M1850.9216910093119 2330.783688124608 L697.99884850788 2787.2581334536085" />
    <path d="M697.99884850788 2787.2581334536085 L241.52440317887942 1634.3352909521768" />
    <path d="M241.52440317887942 1634.3352909521768 L1394.4472456803112 1177.8608456231764" />
    <path d="M1412.264048412665 1195.9795544934375 L1832.2990695168264 2362.671707996677" />
    <path d="M1832.2990695168264 2362.671707996677 L665.6069160135866 2782.7067291008384" />
    <path d="M665.6069160135866 2782.7067291008384 L245.5718949094254 1616.0145755975987" />
    <path d="M245.5718949094254 1616.0145755975987 L1412.264048412665 1195.9795544934375" />
    <path d="M1429.502937229264 1214.6489621727887 L1812.6840102541987 2393.959042378779" />
    <path d="M1812.6840102541987 2393.959042378779 L633.3739300482085 2777.140115403714" />
    <path d="M633.3739300482085 2777.140115403714 L250.19285702327375 1597.8300351977236" />
    <path d="M250.19285702327375 1597.8300351977236 L1429.502937229264 1214.6489621727887" />
    <path d="M1446.1468994281229 1233.8506442098355 L1792.0958709167671 2424.614814449245" />
    <path d="M1792.0958709167671 2424.614814449245 L601.3317006773578 2770.5637859378894" />
    <path d="M601.3317006773578 2770.5637859378894 L255.3827291887136 1579.79961569848" />
    <path d="M255.3827291887136 1579.79961569848 L1446.1468994281229 1233.8506442098355" />
    <path d="M1462.179509428001 1253.5656508626546 L1770.5549695124212 2454.608770662157" />
    <path d="M1770.5549695124212 2454.608770662157 L569.5118497129185 2762.9842307465774" />
    <path d="M569.5118497129185 2762.9842307465774 L261.1363896284985 1561.9411109470748" />
    <path d="M261.1363896284985 1561.9411109470748 L1462.179509428001 1253.5656508626546" />
    <path d="M1477.5849449784691 1273.774525799901 L1748.0825643101819 2483.911310603948" />
    <path d="M1748.0825643101819 2483.911310603948 L537.9457795061351 2754.4089299356606" />
    <path d="M537.9457795061351 2754.4089299356606 L267.44816017442236 1544.2721451316138" />
    <path d="M267.44816017442236 1544.2721451316138 L1477.5849449784691 1273.774525799901" />
    <path d="M1492.3480027745595 1294.4573253018589 L1724.700832860858 2512.493516205433" />
    <path d="M1724.700832860858 2512.493516205433 L506.664641957284 2744.8463462917316" />
    <path d="M506.664641957284 2744.8463462917316 L274.3118118709856 1526.8101553881572" />
    <path d="M274.3118118709856 1526.8101553881572 L1492.3480027745595 1294.4573253018589" />
    <path d="M1506.4541134605931 1315.5936379424843 L1700.4328501104794 2540.3271802804547" />
    <path d="M1700.4328501104794 2540.3271802804547 L475.69930777250863 2734.3059169303415" />
    <path d="M475.69930777250863 2734.3059169303415 L281.72057112262235 1509.5723745923706" />
    <path d="M281.72057112262235 1509.5723745923706 L1506.4541134605931 1315.5936379424843" />
    <path d="M1519.8893560083743 1337.1626047330187 L1675.3025656281116 2567.3848343629716" />
    <path d="M1675.3025656281116 2567.3848343629716 L445.08033599815894 2722.798043982709" />
    <path d="M445.08033599815894 2722.798043982709 L289.6671263784216 1492.575814352756" />
    <path d="M289.6671263784216 1492.575814352756 L1519.8893560083743 1337.1626047330187" />
    <path d="M1532.6404714555642 1359.1429397072932 L1649.3347799705225 2593.6397758151124" />
    <path d="M1649.3347799705225 2593.6397758151124 L414.83794386270324 2710.3340843300703" />
    <path d="M414.83794386270324 2710.3340843300703 L298.1436353477452 1475.8372482222512" />
    <path d="M298.1436353477452 1475.8372482222512 L1532.6404714555642 1359.1429397072932" />
    <path d="M1544.6948759906786 1381.512950928406 L1622.5551202070271 2619.066094179463" />
    <path d="M1622.5551202070271 2619.066094179463 L385.00197695597035 2696.9263383958114" />
    <path d="M385.00197695597035 2696.9263383958114 L307.14173273962183 1459.3731951447546" />
    <path d="M307.14173273962183 1459.3731951447546 L1544.6948759906786 1381.512950928406" />
    <path d="M1556.0406733717862 1404.2505618960463 L1594.990014628665 2643.6386967495537" />
    <path d="M1594.990014628665 2643.6386967495537 L355.6018797751579 2682.5880380064323" />
    <path d="M355.6018797751579 2682.5880380064323 L316.65253851827896 1443.1999031529251" />
    <path d="M316.65253851827896 1443.1999031529251 L1556.0406733717862 1404.2505618960463" />
  </g>
</svg>