<?xml version="1.0" standalone="no"?>
<!DOCTYPE svg PUBLIC "-//W3C//DTD SVG 1.1//EN" 
    "http://www.w3.org/Graphics/SVG/1.1/DTD/svg11.dtd">
<svg width="2480px" height="3508px"
    xmlns="http://www.w3.org/2000/svg" version="1.1" viewBox="0 0 2480 3508">
  <g fill="none" stroke="black" stroke-width="1.06299px">
    <path d="M738.8571428571429 -501.14285714285717 L1741.1428571428573 -501.14285714285717" />
    <path d="M1741.1428571428573 -501.14285714285717 L1741.1428571428573 501.14285714285717" />
    <path d="M1741.1428571428573 501.14285714285717 L738.8571428571429 501.14285714285717" />
    <path d="M738.8571428571429 501.14285714285717 L738.8571428571429 -501.14285714285717" />
    <path d="M758.9182820786224 -520.4312704021813 L1760.4312704021813 -481.0817179213777" />
    <path d="M1760.4312704021813 -481.0817179213777 L1721.0817179213777 520.4312704021813" />
    <path d="M1721.0817179213777 520.4312704021813 L719.5687295978188 481.0817179213777" />
    <path d="M719.5687295978188 481.0817179213777 L758.9182820786224 -520.4312704021813" />
    <path d="M779.7212144396383 -538.9172163641562 L1778.9172163641563 -460.2787855603618" />
    <path d="M1778.9172163641563 -460.2787855603618 L1700.278785560362 538.9172163641562" />
    <path d="M1700.278785560362 538.9172163641562 L701.082783635844 460.2787855603618" />
    <path d="M701.082783635844 460.2787855603618 L779.7212144396383 -538.9172163641562" />
    <path d="M801.2338633263162 -556.5721910399966 L1796.5721910399966 -438.76613667368383" />
    <path d="M1796.5721910399966 -438.76613667368383 L1678.766136673684 556.5721910399966" />
    <path d="M1678.766136673684 556.5721910399966 L683.4278089600035 438.7661366736839" />
    <path d="M683.4278089600035 438.7661366736839 L801.2338633263162 -556.5721910399966" />
    <path d="M823.423057793341 -573.3689717384104 L1813.3689717384107 -416.57694220665906" />
    <path d="M1813.3689717384107 -416.57694220665906 L1656.5769422066592 573.3689717384106" />
    <path d="M1656.5769422066592 573.3689717384106 L666.6310282615896 416.5769422066591" />
    <path d="M666.6310282615896 416.5769422066591 L823.423057793341 -573.3689717384104" />
    <path d="M846.2545837111494 -589.2816590410157 L1829.281659041016 -393.7454162888506" />
    <path d="M1829.281659041016 -393.7454162888506 L1633.7454162888507 589.2816590410158" />
    <path d="M1633.7454162888507 589.2816590410158 L650.7183409589843 393.74541628885066" />
    <path d="M650.7183409589843 393.74541628885066 L846.2545837111494 -589.2816590410157" />
    <path d="M869.6932365216381 -604.2857167373666 L1844.2857167373668 -370.30676347836186" />
    <path d="M1844.2857167373668 -370.30676347836186 L1610.306763478362 604.2857167373666" />
    <path d="M1610.306763478362 604.2857167373666 L635.7142832626336 370.3067634783619" />
    <path d="M635.7142832626336 370.3067634783619 L869.6932365216381 -604.2857167373666" />
    <path d="M893.7028755210408 -618.3580096580108 L1858.3580096580108 -346.2971244789592" />
    <path d="M1858.3580096580108 -346.2971244789592 L1586.2971244789594 618.3580096580108" />
    <path d="M1586.2971244789594 618.3580096580108 L621.6419903419893 346.2971244789592" />
    <path d="M621.6419903419893 346.2971244789592 L893.7028755210408 -618.3580096580108" />
    <path d="M918.2464795862738 -631.4768393472449 L1871.476839347245 -321.7535204137261" />
    <path d="M1871.476839347245 -321.7535204137261 L1561.7535204137264 631.476839347245" />
    <path d="M1561.7535204137264 631.476839347245 L608.5231606527552 321.75352041372616" />
    <path d="M608.5231606527552 321.75352041372616 L918.2464795862738 -631.4768393472449" />
    <path d="M943.2862042588245 -643.62197752056 L1883.62197752056 -296.71379574117555" />
    <path d="M1883.62197752056 -296.71379574117555 L1536.7137957411758 643.6219775205601" />
    <path d="M1536.7137957411758 643.6219775205601 L596.37802247944 296.71379574117566" />
    <path d="M596.37802247944 296.71379574117566 L943.2862042588245 -643.62197752056" />
    <path d="M968.783440098163 -654.7746972551898 L1894.77469725519 -271.21655990183694" />
    <path d="M1894.77469725519 -271.21655990183694 L1511.2165599018372 654.77469725519" />
    <path d="M1511.2165599018372 654.77469725519 L585.2253027448102 271.21655990183706" />
    <path d="M585.2253027448102 271.21655990183706 L968.783440098163 -654.7746972551898" />
    <path d="M994.6988722147019 -664.917801865669 L1904.9178018656692 -245.30112778529818" />
    <path d="M1904.9178018656692 -245.30112778529818 L1485.3011277852984 664.9178018656692" />
    <path d="M1485.3011277852984 664.9178018656692 L575.0821981343311 245.3011277852983" />
    <path d="M575.0821981343311 245.3011277852983 L994.6988722147019 -664.917801865669" />
    <path d="M1020.9925408905051 -674.035651419875 L1914.0356514198752 -219.00745910949485" />
    <path d="M1914.0356514198752 -219.00745910949485 L1459.0074591094951 674.035651419875" />
    <path d="M1459.0074591094951 674.035651419875 L565.964348580125 219.00745910949496" />
    <path d="M565.964348580125 219.00745910949496 L1020.9925408905051 -674.035651419875" />
    <path d="M1047.623903194278 -682.11418685467 L1922.1141868546702 -192.37609680572197" />
    <path d="M1922.1141868546702 -192.37609680572197 L1432.3760968057222 682.1141868546702" />
    <path d="M1432.3760968057222 682.1141868546702 L557.88581314533 192.37609680572209" />
    <path d="M557.88581314533 192.37609680572209 L1047.623903194278 -682.11418685467" />
    <path d="M1074.5518954956276 -689.1409516539577 L1929.140951653958 -165.4481045043724" />
    <path d="M1929.140951653958 -165.4481045043724 L1405.4481045043726 689.1409516539578" />
    <path d="M1405.4481045043726 689.1409516539578 L550.8590483460423 165.4481045043725" />
    <path d="M550.8590483460423 165.4481045043725 L1074.5518954956276 -689.1409516539577" />
    <path d="M1101.7349967822051 -695.1051110557275 L1935.1051110557278 -138.2650032177948" />
    <path d="M1935.1051110557278 -138.2650032177948 L1378.265003217795 695.1051110557278" />
    <path d="M1378.265003217795 695.1051110557278 L544.8948889442725 138.2650032177949" />
    <path d="M544.8948889442725 138.2650032177949 L1101.7349967822051 -695.1051110557275" />
    <path d="M1129.1312926820972 -699.9974687584731 L1939.9974687584731 -110.86870731790276" />
    <path d="M1939.9974687584731 -110.86870731790276 L1350.868707317903 699.9974687584731" />
    <path d="M1350.868707317903 699.9974687584731 L540.002531241527 110.86870731790287" />
    <path d="M540.002531241527 110.86870731790287 L1129.1312926820972 -699.9974687584731" />
    <path d="M1156.6985400927492 -703.8104811012215 L1943.8104811012217 -83.30145990725072" />
    <path d="M1943.8104811012217 -83.30145990725072 L1323.301459907251 703.8104811012217" />
    <path d="M1323.301459907251 703.8104811012217 L536.1895188987785 83.30145990725083" />
    <path d="M536.1895188987785 83.30145990725083 L1156.6985400927492 -703.8104811012215" />
    <path d="M1184.394232316768 -706.5382686953133 L1946.5382686953135 -55.60576768323199" />
    <path d="M1946.5382686953135 -55.60576768323199 L1295.6057676832322 706.5382686953135" />
    <path d="M1295.6057676832322 706.5382686953135 L533.4617313046867 55.60576768323216" />
    <path d="M533.4617313046867 55.60576768323216 L1184.394232316768 -706.5382686953133" />
    <path d="M1212.1756646041679 -708.176625489992 L1948.1766254899921 -27.824335395832065" />
    <path d="M1948.1766254899921 -27.824335395832065 L1267.8243353958323 708.1766254899921" />
    <path d="M1267.8243353958323 708.1766254899921 L531.8233745100079 27.824335395832236" />
    <path d="M531.8233745100079 27.824335395832236 L1212.1756646041679 -708.176625489992" />
    <path d="M1240 -708.7230252578311 L1948.7230252578313 5.684341886080802e-14" />
    <path d="M1948.7230252578313 5.684341886080802e-14 L1240.0000000000002 708.7230252578313" />
    <path d="M1240.0000000000002 708.7230252578313 L531.2769747421689 1.1368683772161603e-13" />
    <path d="M531.2769747421689 1.1368683772161603e-13 L1240 -708.7230252578311" />
    <path d="M1267.8243353958321 -708.1766254899921 L1948.1766254899921 27.824335395832236" />
    <path d="M1948.1766254899921 27.824335395832236 L1212.175664604168 708.1766254899923" />
    <path d="M1212.175664604168 708.1766254899923 L531.8233745100079 -27.824335395832122" />
    <path d="M531.8233745100079 -27.824335395832122 L1267.8243353958321 -708.1766254899921" />
    <path d="M1295.605767683232 -706.5382686953133 L1946.5382686953135 55.6057676832321" />
    <path d="M1946.5382686953135 55.6057676832321 L1184.394232316768 706.5382686953135" />
    <path d="M1184.394232316768 706.5382686953135 L533.4617313046867 -55.60576768323193" />
    <path d="M533.4617313046867 -55.60576768323193 L1295.605767683232 -706.5382686953133" />
    <path d="M1323.3014599072508 -703.8104811012215 L1943.8104811012217 83.30145990725083" />
    <path d="M1943.8104811012217 83.30145990725083 L1156.6985400927495 703.8104811012217" />
    <path d="M1156.6985400927495 703.8104811012217 L536.1895188987785 -83.30145990725066" />
    <path d="M536.1895188987785 -83.30145990725066 L1323.3014599072508 -703.8104811012215" />
    <path d="M1350.8687073179028 -699.997468758473 L1939.9974687584731 110.86870731790287" />
    <path d="M1939.9974687584731 110.86870731790287 L1129.1312926820974 699.9974687584731" />
    <path d="M1129.1312926820974 699.9974687584731 L540.0025312415269 -110.8687073179027" />
    <path d="M540.0025312415269 -110.8687073179027 L1350.8687073179028 -699.997468758473" />
    <path d="M1378.2650032177949 -695.1051110557275 L1935.1051110557278 138.26500321779497" />
    <path d="M1935.1051110557278 138.26500321779497 L1101.7349967822054 695.1051110557278" />
    <path d="M1101.7349967822054 695.1051110557278 L544.8948889442725 -138.26500321779474" />
    <path d="M544.8948889442725 -138.26500321779474 L1378.2650032177949 -695.1051110557275" />
    <path d="M1405.4481045043724 -689.1409516539577 L1929.140951653958 165.4481045043725" />
    <path d="M1929.140951653958 165.4481045043725 L1074.5518954956278 689.1409516539579" />
    <path d="M1074.5518954956278 689.1409516539579 L550.8590483460423 -165.44810450437234" />
    <path d="M550.8590483460423 -165.44810450437234 L1405.4481045043724 -689.1409516539577" />
    <path d="M1432.376096805722 -682.11418685467 L1922.1141868546702 192.37609680572214" />
    <path d="M1922.1141868546702 192.37609680572214 L1047.6239031942782 682.1141868546703" />
    <path d="M1047.6239031942782 682.1141868546703 L557.88581314533 -192.37609680572191" />
    <path d="M557.88581314533 -192.37609680572191 L1432.376096805722 -682.11418685467" />
    <path d="M1459.007459109495 -674.035651419875 L1914.0356514198752 219.00745910949502" />
    <path d="M1914.0356514198752 219.00745910949502 L1020.9925408905052 674.0356514198751" />
    <path d="M1020.9925408905052 674.0356514198751 L565.964348580125 -219.00745910949485" />
    <path d="M565.964348580125 -219.00745910949485 L1459.007459109495 -674.035651419875" />
    <path d="M1485.3011277852981 -664.9178018656689 L1904.9178018656692 245.30112778529835" />
    <path d="M1904.9178018656692 245.30112778529835 L994.6988722147019 664.9178018656692" />
    <path d="M994.6988722147019 664.9178018656692 L575.0821981343311 -245.30112778529812" />
    <path d="M575.0821981343311 -245.30112778529812 L1485.3011277852981 -664.9178018656689" />
    <path d="M1511.216559901837 -654.7746972551898 L1894.77469725519 271.2165599018372" />
    <path d="M1894.77469725519 271.2165599018372 L968.783440098163 654.7746972551901" />
    <path d="M968.783440098163 654.7746972551901 L585.22530274481 -271.21655990183694" />
    <path d="M585.22530274481 -271.21655990183694 L1511.216559901837 -654.7746972551898" />
    <path d="M1536.7137957411755 -643.62197752056 L1883.62197752056 296.7137957411757" />
    <path d="M1883.62197752056 296.7137957411757 L943.2862042588245 643.6219775205602" />
    <path d="M943.2862042588245 643.6219775205602 L596.37802247944 -296.71379574117555" />
    <path d="M596.37802247944 -296.71379574117555 L1536.7137957411755 -643.62197752056" />
    <path d="M1561.7535204137262 -631.4768393472449 L1871.476839347245 321.7535204137263" />
    <path d="M1871.476839347245 321.7535204137263 L918.246479586274 631.4768393472451" />
    <path d="M918.246479586274 631.4768393472451 L608.5231606527551 -321.75352041372605" />
    <path d="M608.5231606527551 -321.75352041372605 L1561.7535204137262 -631.4768393472449" />
    <path d="M1586.2971244789592 -618.3580096580108 L1858.3580096580108 346.29712447895935" />
    <path d="M1858.3580096580108 346.29712447895935 L893.7028755210408 618.358009658011" />
    <path d="M893.7028755210408 618.358009658011 L621.6419903419892 -346.2971244789591" />
    <path d="M621.6419903419892 -346.2971244789591 L1586.2971244789592 -618.3580096580108" />
    <path d="M1610.306763478362 -604.2857167373664 L1844.2857167373666 370.30676347836203" />
    <path d="M1844.2857167373666 370.30676347836203 L869.6932365216381 604.2857167373667" />
    <path d="M869.6932365216381 604.2857167373667 L635.7142832626334 -370.3067634783618" />
    <path d="M635.7142832626334 -370.3067634783618 L1610.306763478362 -604.2857167373664" />
    <path d="M1633.7454162888507 -589.2816590410157 L1829.2816590410157 393.7454162888508" />
    <path d="M1829.2816590410157 393.7454162888508 L846.2545837111494 589.2816590410159" />
    <path d="M846.2545837111494 589.2816590410159 L650.7183409589842 -393.74541628885055" />
    <path d="M650.7183409589842 -393.74541628885055 L1633.7454162888507 -589.2816590410157" />
    <path d="M1656.5769422066592 -573.3689717384104 L1813.3689717384104 416.5769422066592" />
    <path d="M1813.3689717384104 416.5769422066592 L823.423057793341 573.3689717384107" />
    <path d="M823.423057793341 573.3689717384107 L666.6310282615894 -416.576942206659" />
    <path d="M666.6310282615894 -416.576942206659 L1656.5769422066592 -573.3689717384104" />
    <path d="M1678.7661366736838 -556.5721910399966 L1796.5721910399966 438.766136673684" />
    <path d="M1796.5721910399966 438.766136673684 L801.2338633263162 556.5721910399968" />
    <path d="M801.2338633263162 556.5721910399968 L683.4278089600034 -438.7661366736838" />
    <path d="M683.4278089600034 -438.7661366736838 L1678.7661366736838 -556.5721910399966" />
    <path d="M1700.278785560362 -538.9172163641562 L1778.917216364156 460.278785560362" />
    <path d="M1778.917216364156 460.278785560362 L779.7212144396382 538.9172163641564" />
    <path d="M779.7212144396382 538.9172163641564 L701.0827836358438 -460.27878556036177" />
    <path d="M701.0827836358438 -460.27878556036177 L1700.278785560362 -538.9172163641562" />
    <path d="M1721.0817179213777 -520.4312704021812 L1760.4312704021813 481.0817179213778" />
    <path d="M1760.4312704021813 481.0817179213778 L758.9182820786224 520.4312704021814" />
    <path d="M758.9182820786224 520.4312704021814 L719.5687295978187 -481.08171792137756" />
    <path d="M719.5687295978187 -481.08171792137756 L1721.0817179213777 -520.4312704021812" />
    <path d="M738.8571428571429 1252.857142857143 L1741.1428571428573 1252.857142857143" />
    <path d="M1741.1428571428573 1252.857142857143 L1741.1428571428573 2255.1428571428573" />
    <path d="M1741.1428571428573 2255.1428571428573 L738.8571428571429 2255.1428571428573" />
    <path d="M738.8571428571429 2255.1428571428573 L738.8571428571429 1252.857142857143" />
    <path d="M758.9182820786224 1233.5687295978187 L1760.4312704021813 1272.9182820786223" />
    <path d="M1760.4312704021813 1272.9182820786223 L1721.0817179213777 2274.4312704021813" />
    <path d="M1721.0817179213777 2274.4312704021813 L719.5687295978188 2235.0817179213777" />
    <path d="M719.5687295978188 2235.0817179213777 L758.9182820786224 1233.5687295978187" />
    <path d="M779.7212144396383 1215.082783635844 L1778.9172163641563 1293.7212144396383" />
    <path d="M1778.9172163641563 1293.7212144396383 L1700.278785560362 2292.917216364156" />
    <path d="M1700.278785560362 2292.917216364156 L701.082783635844 2214.278785560362" />
    <path d="M701.082783635844 2214.278785560362 L779.7212144396383 1215.082783635844" />
    <path d="M801.2338633263162 1197.4278089600034 L1796.5721910399966 1315.2338633263162" />
    <path d="M1796.5721910399966 1315.2338633263162 L1678.766136673684 2310.5721910399966" />
    <path d="M1678.766136673684 2310.5721910399966 L683.4278089600035 2192.766136673684" />
    <path d="M683.4278089600035 2192.766136673684 L801.2338633263162 1197.4278089600034" />
    <path d="M823.423057793341 1180.6310282615896 L1813.3689717384107 1337.423057793341" />
    <path d="M1813.3689717384107 1337.423057793341 L1656.5769422066592 2327.3689717384104" />
    <path d="M1656.5769422066592 2327.3689717384104 L666.6310282615896 2170.576942206659" />
    <path d="M666.6310282615896 2170.576942206659 L823.423057793341 1180.6310282615896" />
    <path d="M846.2545837111494 1164.7183409589843 L1829.281659041016 1360.2545837111495" />
    <path d="M1829.281659041016 1360.2545837111495 L1633.7454162888507 2343.2816590410157" />
    <path d="M1633.7454162888507 2343.2816590410157 L650.7183409589843 2147.7454162888507" />
    <path d="M650.7183409589843 2147.7454162888507 L846.2545837111494 1164.7183409589843" />
    <path d="M869.6932365216381 1149.7142832626337 L1844.2857167373668 1383.6932365216383" />
    <path d="M1844.2857167373668 1383.6932365216383 L1610.306763478362 2358.285716737367" />
    <path d="M1610.306763478362 2358.285716737367 L635.7142832626334 2124.306763478362" />
    <path d="M635.7142832626334 2124.306763478362 L869.6932365216381 1149.7142832626337" />
    <path d="M893.7028755210408 1135.6419903419892 L1858.3580096580108 1407.7028755210408" />
    <path d="M1858.3580096580108 1407.7028755210408 L1586.2971244789592 2372.358009658011" />
    <path d="M1586.2971244789592 2372.358009658011 L621.6419903419892 2100.2971244789596" />
    <path d="M621.6419903419892 2100.2971244789596 L893.7028755210408 1135.6419903419892" />
    <path d="M918.2464795862738 1122.5231606527552 L1871.476839347245 1432.2464795862738" />
    <path d="M1871.476839347245 1432.2464795862738 L1561.7535204137262 2385.476839347245" />
    <path d="M1561.7535204137262 2385.476839347245 L608.5231606527551 2075.7535204137266" />
    <path d="M608.5231606527551 2075.7535204137266 L918.2464795862738 1122.5231606527552" />
    <path d="M943.2862042588245 1110.37802247944 L1883.62197752056 1457.2862042588245" />
    <path d="M1883.62197752056 1457.2862042588245 L1536.7137957411755 2397.62197752056" />
    <path d="M1536.7137957411755 2397.62197752056 L596.37802247944 2050.713795741176" />
    <path d="M596.37802247944 2050.713795741176 L943.2862042588245 1110.37802247944" />
    <path d="M968.783440098163 1099.22530274481 L1894.77469725519 1482.783440098163" />
    <path d="M1894.77469725519 1482.783440098163 L1511.2165599018372 2408.7746972551904" />
    <path d="M1511.2165599018372 2408.7746972551904 L585.22530274481 2025.2165599018372" />
    <path d="M585.22530274481 2025.2165599018372 L968.783440098163 1099.22530274481" />
    <path d="M994.6988722147017 1089.082198134331 L1904.9178018656692 1508.6988722147019" />
    <path d="M1904.9178018656692 1508.6988722147019 L1485.3011277852984 2418.9178018656694" />
    <path d="M1485.3011277852984 2418.9178018656694 L575.082198134331 1999.3011277852984" />
    <path d="M575.082198134331 1999.3011277852984 L994.6988722147017 1089.082198134331" />
    <path d="M1020.9925408905051 1079.964348580125 L1914.0356514198752 1534.992540890505" />
    <path d="M1914.0356514198752 1534.992540890505 L1459.007459109495 2428.035651419875" />
    <path d="M1459.007459109495 2428.035651419875 L565.964348580125 1973.0074591094951" />
    <path d="M565.964348580125 1973.0074591094951 L1020.9925408905051 1079.964348580125" />
    <path d="M1047.623903194278 1071.8858131453298 L1922.1141868546702 1561.623903194278" />
    <path d="M1922.1141868546702 1561.623903194278 L1432.3760968057222 2436.11418685467" />
    <path d="M1432.3760968057222 2436.11418685467 L557.8858131453298 1946.3760968057222" />
    <path d="M557.8858131453298 1946.3760968057222 L1047.623903194278 1071.8858131453298" />
    <path d="M1074.5518954956274 1064.8590483460423 L1929.140951653958 1588.5518954956276" />
    <path d="M1929.140951653958 1588.5518954956276 L1405.4481045043726 2443.140951653958" />
    <path d="M1405.4481045043726 2443.140951653958 L550.8590483460422 1919.4481045043726" />
    <path d="M550.8590483460422 1919.4481045043726 L1074.5518954956274 1064.8590483460423" />
    <path d="M1101.7349967822051 1058.8948889442725 L1935.1051110557278 1615.7349967822051" />
    <path d="M1935.1051110557278 1615.7349967822051 L1378.2650032177949 2449.105111055728" />
    <path d="M1378.2650032177949 2449.105111055728 L544.8948889442723 1892.265003217795" />
    <path d="M544.8948889442723 1892.265003217795 L1101.7349967822051 1058.8948889442725" />
    <path d="M1129.1312926820972 1054.0025312415269 L1939.9974687584731 1643.1312926820974" />
    <path d="M1939.9974687584731 1643.1312926820974 L1350.8687073179028 2453.9974687584736" />
    <path d="M1350.8687073179028 2453.9974687584736 L540.0025312415269 1864.868707317903" />
    <path d="M540.0025312415269 1864.868707317903 L1129.1312926820972 1054.0025312415269" />
    <path d="M1156.6985400927492 1050.1895188987785 L1943.8104811012217 1670.6985400927492" />
    <path d="M1943.8104811012217 1670.6985400927492 L1323.3014599072508 2457.8104811012217" />
    <path d="M1323.3014599072508 2457.8104811012217 L536.1895188987784 1837.301459907251" />
    <path d="M536.1895188987784 1837.301459907251 L1156.6985400927492 1050.1895188987785" />
    <path d="M1184.394232316768 1047.4617313046867 L1946.5382686953135 1698.394232316768" />
    <path d="M1946.5382686953135 1698.394232316768 L1295.605767683232 2460.5382686953135" />
    <path d="M1295.605767683232 2460.5382686953135 L533.4617313046865 1809.6057676832322" />
    <path d="M533.4617313046865 1809.6057676832322 L1184.394232316768 1047.4617313046867" />
    <path d="M1212.1756646041677 1045.8233745100079 L1948.1766254899921 1726.1756646041679" />
    <path d="M1948.1766254899921 1726.1756646041679 L1267.8243353958321 2462.176625489992" />
    <path d="M1267.8243353958321 2462.176625489992 L531.8233745100079 1781.8243353958323" />
    <path d="M531.8233745100079 1781.8243353958323 L1212.1756646041677 1045.8233745100079" />
    <path d="M1240 1045.276974742169 L1948.723025257831 1754" />
    <path d="M1948.723025257831 1754 L1240 2462.723025257831" />
    <path d="M1240 2462.723025257831 L531.2769747421688 1754.0000000000002" />
    <path d="M531.2769747421688 1754.0000000000002 L1240 1045.276974742169" />
    <path d="M1267.8243353958321 1045.8233745100079 L1948.1766254899921 1781.8243353958323" />
    <path d="M1948.1766254899921 1781.8243353958323 L1212.1756646041679 2462.176625489992" />
    <path d="M1212.1756646041679 2462.176625489992 L531.8233745100079 1726.175664604168" />
    <path d="M531.8233745100079 1726.175664604168 L1267.8243353958321 1045.8233745100079" />
    <path d="M1295.605767683232 1047.4617313046867 L1946.5382686953135 1809.6057676832322" />
    <path d="M1946.5382686953135 1809.6057676832322 L1184.394232316768 2460.5382686953135" />
    <path d="M1184.394232316768 2460.5382686953135 L533.4617313046865 1698.3942323167682" />
    <path d="M533.4617313046865 1698.3942323167682 L1295.605767683232 1047.4617313046867" />
    <path d="M1323.3014599072508 1050.1895188987785 L1943.8104811012217 1837.3014599072508" />
    <path d="M1943.8104811012217 1837.3014599072508 L1156.6985400927492 2457.8104811012217" />
    <path d="M1156.6985400927492 2457.8104811012217 L536.1895188987783 1670.6985400927495" />
    <path d="M536.1895188987783 1670.6985400927495 L1323.3014599072508 1050.1895188987785" />
    <path d="M1350.8687073179026 1054.0025312415269 L1939.9974687584731 1864.8687073179028" />
    <path d="M1939.9974687584731 1864.8687073179028 L1129.1312926820972 2453.9974687584736" />
    <path d="M1129.1312926820972 2453.9974687584736 L540.0025312415269 1643.1312926820974" />
    <path d="M540.0025312415269 1643.1312926820974 L1350.8687073179026 1054.0025312415269" />
    <path d="M1378.2650032177949 1058.8948889442725 L1935.1051110557278 1892.2650032177949" />
    <path d="M1935.1051110557278 1892.2650032177949 L1101.7349967822051 2449.105111055728" />
    <path d="M1101.7349967822051 2449.105111055728 L544.8948889442722 1615.7349967822054" />
    <path d="M544.8948889442722 1615.7349967822054 L1378.2650032177949 1058.8948889442725" />
    <path d="M1405.4481045043724 1064.8590483460423 L1929.140951653958 1919.4481045043726" />
    <path d="M1929.140951653958 1919.4481045043726 L1074.5518954956276 2443.140951653958" />
    <path d="M1074.5518954956276 2443.140951653958 L550.8590483460421 1588.5518954956278" />
    <path d="M550.8590483460421 1588.5518954956278 L1405.4481045043724 1064.8590483460423" />
    <path d="M1432.376096805722 1071.88581314533 L1922.1141868546702 1946.3760968057222" />
    <path d="M1922.1141868546702 1946.3760968057222 L1047.623903194278 2436.11418685467" />
    <path d="M1047.623903194278 2436.11418685467 L557.8858131453298 1561.6239031942782" />
    <path d="M557.8858131453298 1561.6239031942782 L1432.376096805722 1071.88581314533" />
    <path d="M1459.007459109495 1079.9643485801253 L1914.035651419875 1973.0074591094951" />
    <path d="M1914.035651419875 1973.0074591094951 L1020.9925408905051 2428.035651419875" />
    <path d="M1020.9925408905051 2428.035651419875 L565.9643485801249 1534.9925408905053" />
    <path d="M565.9643485801249 1534.9925408905053 L1459.007459109495 1079.9643485801253" />
    <path d="M1485.3011277852981 1089.082198134331 L1904.917801865669 1999.3011277852984" />
    <path d="M1904.917801865669 1999.3011277852984 L994.6988722147017 2418.9178018656694" />
    <path d="M994.6988722147017 2418.9178018656694 L575.0821981343308 1508.698872214702" />
    <path d="M575.0821981343308 1508.698872214702 L1485.3011277852981 1089.082198134331" />
    <path d="M1511.216559901837 1099.22530274481 L1894.77469725519 2025.2165599018372" />
    <path d="M1894.77469725519 2025.2165599018372 L968.7834400981629 2408.7746972551904" />
    <path d="M968.7834400981629 2408.7746972551904 L585.2253027448099 1482.7834400981633" />
    <path d="M585.2253027448099 1482.7834400981633 L1511.216559901837 1099.22530274481" />
    <path d="M1536.7137957411755 1110.37802247944 L1883.62197752056 2050.713795741176" />
    <path d="M1883.62197752056 2050.713795741176 L943.2862042588243 2397.62197752056" />
    <path d="M943.2862042588243 2397.62197752056 L596.3780224794399 1457.2862042588245" />
    <path d="M596.3780224794399 1457.2862042588245 L1536.7137957411755 1110.37802247944" />
    <path d="M1561.7535204137262 1122.5231606527552 L1871.476839347245 2075.753520413726" />
    <path d="M1871.476839347245 2075.753520413726 L918.2464795862737 2385.476839347245" />
    <path d="M918.2464795862737 2385.476839347245 L608.523160652755 1432.2464795862738" />
    <path d="M608.523160652755 1432.2464795862738 L1561.7535204137262 1122.5231606527552" />
    <path d="M1586.2971244789592 1135.6419903419892 L1858.3580096580108 2100.297124478959" />
    <path d="M1858.3580096580108 2100.297124478959 L893.7028755210407 2372.358009658011" />
    <path d="M893.7028755210407 2372.358009658011 L621.641990341989 1407.7028755210408" />
    <path d="M621.641990341989 1407.7028755210408 L1586.2971244789592 1135.6419903419892" />
    <path d="M1610.306763478362 1149.7142832626337 L1844.2857167373666 2124.306763478362" />
    <path d="M1844.2857167373666 2124.306763478362 L869.693236521638 2358.285716737367" />
    <path d="M869.693236521638 2358.285716737367 L635.7142832626333 1383.6932365216383" />
    <path d="M635.7142832626333 1383.6932365216383 L1610.306763478362 1149.7142832626337" />
    <path d="M1633.7454162888507 1164.7183409589843 L1829.2816590410157 2147.7454162888507" />
    <path d="M1829.2816590410157 2147.7454162888507 L846.2545837111493 2343.281659041016" />
    <path d="M846.2545837111493 2343.281659041016 L650.7183409589841 1360.2545837111495" />
    <path d="M650.7183409589841 1360.2545837111495 L1633.7454162888507 1164.7183409589843" />
    <path d="M1656.5769422066592 1180.6310282615896 L1813.3689717384104 2170.576942206659" />
    <path d="M1813.3689717384104 2170.576942206659 L823.4230577933408 2327.368971738411" />
    <path d="M823.4230577933408 2327.368971738411 L666.6310282615893 1337.423057793341" />
    <path d="M666.6310282615893 1337.423057793341 L1656.5769422066592 1180.6310282615896" />
    <path d="M1678.7661366736838 1197.4278089600034 L1796.5721910399966 2192.766136673684" />
    <path d="M1796.5721910399966 2192.766136673684 L801.2338633263159 2310.572191039997" />
    <path d="M801.2338633263159 2310.572191039997 L683.4278089600033 1315.2338633263162" />
    <path d="M683.4278089600033 1315.2338633263162 L1678.7661366736838 1197.4278089600034" />
    <path d="M1700.2787855603617 1215.082783635844 L1778.917216364156 2214.278785560362" />
    <path d="M1778.917216364156 2214.278785560362 L779.7212144396381 2292.9172163641565" />
    <path d="M779.7212144396381 2292.9172163641565 L701.0827836358436 1293.7212144396383" />
    <path d="M701.0827836358436 1293.7212144396383 L1700.2787855603617 1215.082783635844" />
    <path d="M1721.0817179213775 1233.5687295978187 L1760.4312704021813 2235.0817179213777" />
    <path d="M1760.4312704021813 2235.0817179213777 L758.9182820786223 2274.4312704021813" />
    <path d="M758.9182820786223 2274.4312704021813 L719.5687295978186 1272.9182820786225" />
    <path d="M719.5687295978186 1272.9182820786225 L1721.0817179213775 1233.5687295978187" />
    <path d="M738.8571428571429 3006.8571428571427 L1741.1428571428573 3006.8571428571427" />
    <path d="M1741.1428571428573 3006.8571428571427 L1741.1428571428573 4009.142857142857" />
    <path d="M1741.1428571428573 4009.142857142857 L738.8571428571429 4009.142857142857" />
    <path d="M738.8571428571429 4009.142857142857 L738.8571428571429 3006.8571428571427" />
    <path d="M758.9182820786224 2987.5687295978187 L1760.4312704021813 3026.9182820786223" />
    <path d="M1760.4312704021813 3026.9182820786223 L1721.0817179213777 4028.431270402181" />
    <path d="M1721.0817179213777 4028.431270402181 L719.5687295978188 3989.0817179213773" />
    <path d="M719.5687295978188 3989.0817179213773 L758.9182820786224 2987.5687295978187" />
    <path d="M779.7212144396383 2969.082783635844 L1778.9172163641563 3047.721214439638" />
    <path d="M1778.9172163641563 3047.721214439638 L1700.278785560362 4046.917216364156" />
    <path d="M1700.278785560362 4046.917216364156 L701.082783635844 3968.2787855603615" />
    <path d="M701.082783635844 3968.2787855603615 L779.7212144396383 2969.082783635844" />
    <path d="M801.2338633263162 2951.4278089600034 L1796.5721910399966 3069.233863326316" />
    <path d="M1796.5721910399966 3069.233863326316 L1678.766136673684 4064.572191039996" />
    <path d="M1678.766136673684 4064.572191039996 L683.4278089600035 3946.766136673684" />
    <path d="M683.4278089600035 3946.766136673684 L801.2338633263162 2951.4278089600034" />
    <path d="M823.4230577933411 2934.6310282615896 L1813.3689717384107 3091.423057793341" />
    <path d="M1813.3689717384107 3091.423057793341 L1656.5769422066592 4081.3689717384104" />
    <path d="M1656.5769422066592 4081.3689717384104 L666.6310282615896 3924.5769422066587" />
    <path d="M666.6310282615896 3924.5769422066587 L823.4230577933411 2934.6310282615896" />
    <path d="M846.2545837111495 2918.7183409589843 L1829.281659041016 3114.2545837111493" />
    <path d="M1829.281659041016 3114.2545837111493 L1633.745416288851 4097.281659041016" />
    <path d="M1633.745416288851 4097.281659041016 L650.7183409589843 3901.7454162888503" />
    <path d="M650.7183409589843 3901.7454162888503 L846.2545837111495 2918.7183409589843" />
    <path d="M869.6932365216383 2903.714283262633 L1844.2857167373668 3137.693236521638" />
    <path d="M1844.2857167373668 3137.693236521638 L1610.3067634783622 4112.285716737366" />
    <path d="M1610.3067634783622 4112.285716737366 L635.7142832626337 3878.3067634783615" />
    <path d="M635.7142832626337 3878.3067634783615 L869.6932365216383 2903.714283262633" />
    <path d="M893.7028755210409 2889.641990341989 L1858.358009658011 3161.702875521041" />
    <path d="M1858.358009658011 3161.702875521041 L1586.2971244789594 4126.358009658011" />
    <path d="M1586.2971244789594 4126.358009658011 L621.6419903419894 3854.2971244789587" />
    <path d="M621.6419903419894 3854.2971244789587 L893.7028755210409 2889.641990341989" />
    <path d="M918.246479586274 2876.523160652755 L1871.476839347245 3186.246479586274" />
    <path d="M1871.476839347245 3186.246479586274 L1561.7535204137264 4139.476839347245" />
    <path d="M1561.7535204137264 4139.476839347245 L608.5231606527552 3829.7535204137257" />
    <path d="M608.5231606527552 3829.7535204137257 L918.246479586274 2876.523160652755" />
    <path d="M943.2862042588245 2864.37802247944 L1883.6219775205602 3211.2862042588245" />
    <path d="M1883.6219775205602 3211.2862042588245 L1536.7137957411758 4151.62197752056" />
    <path d="M1536.7137957411758 4151.62197752056 L596.3780224794401 3804.7137957411755" />
    <path d="M596.3780224794401 3804.7137957411755 L943.2862042588245 2864.37802247944" />
    <path d="M968.783440098163 2853.22530274481 L1894.7746972551902 3236.783440098163" />
    <path d="M1894.7746972551902 3236.783440098163 L1511.2165599018372 4162.7746972551895" />
    <path d="M1511.2165599018372 4162.7746972551895 L585.2253027448103 3779.2165599018367" />
    <path d="M585.2253027448103 3779.2165599018367 L968.783440098163 2853.22530274481" />
    <path d="M994.6988722147019 2843.0821981343306 L1904.9178018656694 3262.6988722147016" />
    <path d="M1904.9178018656694 3262.6988722147016 L1485.3011277852986 4172.9178018656685" />
    <path d="M1485.3011277852986 4172.9178018656685 L575.0821981343311 3753.301127785298" />
    <path d="M575.0821981343311 3753.301127785298 L994.6988722147019 2843.0821981343306" />
    <path d="M1020.9925408905051 2833.964348580125 L1914.0356514198752 3288.992540890505" />
    <path d="M1914.0356514198752 3288.992540890505 L1459.0074591094951 4182.035651419875" />
    <path d="M1459.0074591094951 4182.035651419875 L565.9643485801251 3727.007459109495" />
    <path d="M565.9643485801251 3727.007459109495 L1020.9925408905051 2833.964348580125" />
    <path d="M1047.623903194278 2825.88581314533 L1922.1141868546704 3315.623903194278" />
    <path d="M1922.1141868546704 3315.623903194278 L1432.3760968057225 4190.11418685467" />
    <path d="M1432.3760968057225 4190.11418685467 L557.8858131453301 3700.3760968057218" />
    <path d="M557.8858131453301 3700.3760968057218 L1047.623903194278 2825.88581314533" />
    <path d="M1074.5518954956276 2818.859048346042 L1929.140951653958 3342.5518954956274" />
    <path d="M1929.140951653958 3342.5518954956274 L1405.4481045043728 4197.140951653958" />
    <path d="M1405.4481045043728 4197.140951653958 L550.8590483460424 3673.448104504372" />
    <path d="M550.8590483460424 3673.448104504372 L1074.5518954956276 2818.859048346042" />
    <path d="M1101.7349967822051 2812.894888944272 L1935.1051110557278 3369.734996782205" />
    <path d="M1935.1051110557278 3369.734996782205 L1378.2650032177953 4203.105111055727" />
    <path d="M1378.2650032177953 4203.105111055727 L544.8948889442726 3646.265003217795" />
    <path d="M544.8948889442726 3646.265003217795 L1101.7349967822051 2812.894888944272" />
    <path d="M1129.1312926820974 2808.002531241527 L1939.9974687584734 3397.131292682097" />
    <path d="M1939.9974687584734 3397.131292682097 L1350.868707317903 4207.997468758473" />
    <path d="M1350.868707317903 4207.997468758473 L540.0025312415271 3618.8687073179026" />
    <path d="M540.0025312415271 3618.8687073179026 L1129.1312926820974 2808.002531241527" />
    <path d="M1156.6985400927492 2804.1895188987783 L1943.8104811012217 3424.698540092749" />
    <path d="M1943.8104811012217 3424.698540092749 L1323.3014599072512 4211.810481101222" />
    <path d="M1323.3014599072512 4211.810481101222 L536.1895188987787 3591.301459907251" />
    <path d="M536.1895188987787 3591.301459907251 L1156.6985400927492 2804.1895188987783" />
    <path d="M1184.394232316768 2801.4617313046865 L1946.5382686953135 3452.394232316768" />
    <path d="M1946.5382686953135 3452.394232316768 L1295.6057676832324 4214.5382686953135" />
    <path d="M1295.6057676832324 4214.5382686953135 L533.4617313046869 3563.605767683232" />
    <path d="M533.4617313046869 3563.605767683232 L1184.394232316768 2801.4617313046865" />
    <path d="M1212.1756646041679 2799.823374510008 L1948.1766254899924 3480.1756646041677" />
    <path d="M1948.1766254899924 3480.1756646041677 L1267.8243353958326 4216.176625489992" />
    <path d="M1267.8243353958326 4216.176625489992 L531.8233745100081 3535.824335395832" />
    <path d="M531.8233745100081 3535.824335395832 L1212.1756646041679 2799.823374510008" />
    <path d="M1240 2799.276974742169 L1948.7230252578313 3508" />
    <path d="M1948.7230252578313 3508 L1240.0000000000005 4216.723025257831" />
    <path d="M1240.0000000000005 4216.723025257831 L531.2769747421692 3508" />
    <path d="M531.2769747421692 3508 L1240 2799.276974742169" />
    <path d="M1267.8243353958323 2799.823374510008 L1948.1766254899924 3535.8243353958323" />
    <path d="M1948.1766254899924 3535.8243353958323 L1212.175664604168 4216.176625489992" />
    <path d="M1212.175664604168 4216.176625489992 L531.8233745100081 3480.1756646041677" />
    <path d="M531.8233745100081 3480.1756646041677 L1267.8243353958323 2799.823374510008" />
    <path d="M1295.6057676832322 2801.4617313046865 L1946.5382686953135 3563.605767683232" />
    <path d="M1946.5382686953135 3563.605767683232 L1184.3942323167685 4214.5382686953135" />
    <path d="M1184.3942323167685 4214.5382686953135 L533.461731304687 3452.394232316768" />
    <path d="M533.461731304687 3452.394232316768 L1295.6057676832322 2801.4617313046865" />
    <path d="M1323.3014599072508 2804.1895188987783 L1943.8104811012217 3591.301459907251" />
    <path d="M1943.8104811012217 3591.301459907251 L1156.6985400927497 4211.810481101222" />
    <path d="M1156.6985400927497 4211.810481101222 L536.1895188987787 3424.698540092749" />
    <path d="M536.1895188987787 3424.698540092749 L1323.3014599072508 2804.1895188987783" />
    <path d="M1350.8687073179028 2808.002531241527 L1939.9974687584734 3618.8687073179026" />
    <path d="M1939.9974687584734 3618.8687073179026 L1129.1312926820976 4207.997468758473" />
    <path d="M1129.1312926820976 4207.997468758473 L540.0025312415271 3397.131292682097" />
    <path d="M540.0025312415271 3397.131292682097 L1350.8687073179028 2808.002531241527" />
    <path d="M1378.2650032177949 2812.894888944272 L1935.1051110557278 3646.265003217795" />
    <path d="M1935.1051110557278 3646.265003217795 L1101.7349967822056 4203.105111055727" />
    <path d="M1101.7349967822056 4203.105111055727 L544.8948889442727 3369.734996782205" />
    <path d="M544.8948889442727 3369.734996782205 L1378.2650032177949 2812.894888944272" />
    <path d="M1405.4481045043726 2818.859048346042 L1929.140951653958 3673.4481045043726" />
    <path d="M1929.140951653958 3673.4481045043726 L1074.5518954956278 4197.140951653958" />
    <path d="M1074.5518954956278 4197.140951653958 L550.8590483460425 3342.5518954956274" />
    <path d="M550.8590483460425 3342.5518954956274 L1405.4481045043726 2818.859048346042" />
    <path d="M1432.3760968057222 2825.88581314533 L1922.1141868546704 3700.376096805722" />
    <path d="M1922.1141868546704 3700.376096805722 L1047.6239031942782 4190.11418685467" />
    <path d="M1047.6239031942782 4190.11418685467 L557.8858131453302 3315.623903194278" />
    <path d="M557.8858131453302 3315.623903194278 L1432.3760968057222 2825.88581314533" />
    <path d="M1459.0074591094951 2833.9643485801253 L1914.0356514198752 3727.007459109495" />
    <path d="M1914.0356514198752 3727.007459109495 L1020.9925408905054 4182.035651419875" />
    <path d="M1020.9925408905054 4182.035651419875 L565.9643485801254 3288.992540890505" />
    <path d="M565.9643485801254 3288.992540890505 L1459.0074591094951 2833.9643485801253" />
    <path d="M1485.3011277852984 2843.082198134331 L1904.9178018656694 3753.3011277852984" />
    <path d="M1904.9178018656694 3753.3011277852984 L994.6988722147022 4172.917801865669" />
    <path d="M994.6988722147022 4172.917801865669 L575.0821981343313 3262.6988722147016" />
    <path d="M575.0821981343313 3262.6988722147016 L1485.3011277852984 2843.082198134331" />
    <path d="M1511.2165599018372 2853.22530274481 L1894.7746972551902 3779.216559901837" />
    <path d="M1894.7746972551902 3779.216559901837 L968.7834400981634 4162.77469725519" />
    <path d="M968.7834400981634 4162.77469725519 L585.2253027448104 3236.783440098163" />
    <path d="M585.2253027448104 3236.783440098163 L1511.2165599018372 2853.22530274481" />
    <path d="M1536.7137957411758 2864.37802247944 L1883.6219775205602 3804.7137957411755" />
    <path d="M1883.6219775205602 3804.7137957411755 L943.2862042588247 4151.62197752056" />
    <path d="M943.2862042588247 4151.62197752056 L596.3780224794402 3211.2862042588245" />
    <path d="M596.3780224794402 3211.2862042588245 L1536.7137957411758 2864.37802247944" />
    <path d="M1561.7535204137264 2876.523160652755 L1871.476839347245 3829.753520413726" />
    <path d="M1871.476839347245 3829.753520413726 L918.2464795862742 4139.476839347245" />
    <path d="M918.2464795862742 4139.476839347245 L608.5231606527555 3186.246479586274" />
    <path d="M608.5231606527555 3186.246479586274 L1561.7535204137264 2876.523160652755" />
    <path d="M1586.2971244789594 2889.641990341989 L1858.358009658011 3854.297124478959" />
    <path d="M1858.358009658011 3854.297124478959 L893.7028755210412 4126.358009658011" />
    <path d="M893.7028755210412 4126.358009658011 L621.6419903419894 3161.702875521041" />
    <path d="M621.6419903419894 3161.702875521041 L1586.2971244789594 2889.641990341989" />
    <path d="M1610.306763478362 2903.714283262633 L1844.2857167373668 3878.306763478362" />
    <path d="M1844.2857167373668 3878.306763478362 L869.6932365216385 4112.285716737367" />
    <path d="M869.6932365216385 4112.285716737367 L635.7142832626338 3137.693236521638" />
    <path d="M635.7142832626338 3137.693236521638 L1610.306763478362 2903.714283262633" />
    <path d="M1633.7454162888507 2918.7183409589843 L1829.2816590410162 3901.7454162888507" />
    <path d="M1829.2816590410162 3901.7454162888507 L846.2545837111497 4097.281659041016" />
    <path d="M846.2545837111497 4097.281659041016 L650.7183409589845 3114.2545837111493" />
    <path d="M650.7183409589845 3114.2545837111493 L1633.7454162888507 2918.7183409589843" />
    <path d="M1656.5769422066592 2934.6310282615896 L1813.368971738411 3924.576942206659" />
    <path d="M1813.368971738411 3924.576942206659 L823.4230577933413 4081.3689717384104" />
    <path d="M823.4230577933413 4081.3689717384104 L666.6310282615898 3091.423057793341" />
    <path d="M666.6310282615898 3091.423057793341 L1656.5769422066592 2934.6310282615896" />
    <path d="M1678.766136673684 2951.4278089600034 L1796.5721910399968 3946.766136673684" />
    <path d="M1796.5721910399968 3946.766136673684 L801.2338633263164 4064.5721910399966" />
    <path d="M801.2338633263164 4064.5721910399966 L683.4278089600037 3069.233863326316" />
    <path d="M683.4278089600037 3069.233863326316 L1678.766136673684 2951.4278089600034" />
    <path d="M1700.278785560362 2969.082783635844 L1778.9172163641565 3968.278785560362" />
    <path d="M1778.9172163641565 3968.278785560362 L779.7212144396385 4046.917216364156" />
    <path d="M779.7212144396385 4046.917216364156 L701.0827836358441 3047.721214439638" />
    <path d="M701.0827836358441 3047.721214439638 L1700.278785560362 2969.082783635844" />
    <path d="M1721.0817179213777 2987.5687295978187 L1760.4312704021813 3989.0817179213777" />
    <path d="M1760.4312704021813 3989.0817179213777 L758.9182820786227 4028.4312704021813" />
    <path d="M758.9182820786227 4028.4312704021813 L719.568729597819 3026.9182820786223" />
    <path d="M719.568729597819 3026.9182820786223 L1721.0817179213777 2987.5687295978187" />
  </g>
</svg>