<?xml version="1.0" standalone="no"?>
<!DOCTYPE svg PUBLIC "-//W3C//DTD SVG 1.1//EN" 
    "http://www.w3.org/Graphics/SVG/1.1/DTD/svg11.dtd">
<svg width="2480px" height="3508px"
    xmlns="http://www.w3.org/2000/svg" version="1.1" viewBox="0 0 2480 3508">
  <g fill="none" stroke="black" stroke-width="1.06299px">
    <path d="M522 1036 L1958 1036" />
    <path d="M1958 1036 L1958 2472" />
    <path d="M1958 2472 L522 2472" />
    <path d="M522 2472 L522 1036" />
    <path d="M534.6401826996806 1023.5785270557416 L1970.4214729442583 1048.6401826996807" />
    <path d="M1970.4214729442583 1048.6401826996807 L1945.3598173003193 2484.4214729442583" />
    <path d="M1945.3598173003193 2484.4214729442583 L509.5785270557416 2459.3598173003193" />
    <path d="M509.5785270557416 2459.3598173003193 L534.6401826996806 1023.5785270557416" />
    <path d="M547.4952248326849 1011.3795475678935 L1982.6204524321065 1061.495224832685" />
    <path d="M1982.6204524321065 1061.495224832685 L1932.504775167315 2496.6204524321065" />
    <path d="M1932.504775167315 2496.6204524321065 L497.3795475678935 2446.504775167315" />
    <path d="M497.3795475678935 2446.504775167315 L547.4952248326849 1011.3795475678935" />
    <path d="M560.5612106286497 999.4067774637823 L1994.5932225362176 1074.5612106286499" />
    <path d="M1994.5932225362176 1074.5612106286499 L1919.4387893713501 2508.5932225362176" />
    <path d="M1919.4387893713501 2508.5932225362176 L485.4067774637823 2433.43878937135" />
    <path d="M485.4067774637823 2433.43878937135 L560.5612106286497 999.4067774637823" />
    <path d="M573.8341600617282 987.6638637651643 L2006.3361362348357 1087.8341600617282" />
    <path d="M2006.3361362348357 1087.8341600617282 L1906.1658399382718 2520.336136234836" />
    <path d="M1906.1658399382718 2520.336136234836 L473.66386376516425 2420.165839938272" />
    <path d="M473.66386376516425 2420.165839938272 L573.8341600617282 987.6638637651643" />
    <path d="M587.3100300629453 976.1543834773081 L2017.845616522692 1101.3100300629453" />
    <path d="M2017.845616522692 1101.3100300629453 L1892.6899699370547 2531.8456165226917" />
    <path d="M1892.6899699370547 2531.8456165226917 L462.1543834773081 2406.6899699370547" />
    <path d="M462.1543834773081 2406.6899699370547 L587.3100300629453 976.1543834773081" />
    <path d="M600.984715751755 964.8818424994047 L2029.1181575005953 1114.984715751755" />
    <path d="M2029.1181575005953 1114.984715751755 L1879.015284248245 2543.1181575005953" />
    <path d="M1879.015284248245 2543.1181575005953 L450.8818424994047 2393.015284248245" />
    <path d="M450.8818424994047 2393.015284248245 L600.984715751755 964.8818424994047" />
    <path d="M614.8540516864267 953.849674556635 L2040.150325443365 1128.8540516864268" />
    <path d="M2040.150325443365 1128.8540516864268 L1865.1459483135732 2554.150325443365" />
    <path d="M1865.1459483135732 2554.150325443365 L439.849674556635 2379.145948313573" />
    <path d="M439.849674556635 2379.145948313573 L614.8540516864267 953.849674556635" />
    <path d="M628.9138131328795 943.0612401542254 L2050.9387598457747 1142.9138131328796" />
    <path d="M2050.9387598457747 1142.9138131328796 L1851.0861868671204 2564.9387598457747" />
    <path d="M1851.0861868671204 2564.9387598457747 L429.0612401542254 2365.0861868671204" />
    <path d="M429.0612401542254 2365.0861868671204 L628.9138131328795 943.0612401542254" />
    <path d="M643.1597173515768 932.5198255538053 L2061.4801744461947 1157.1597173515768" />
    <path d="M2061.4801744461947 1157.1597173515768 L1836.8402826484232 2575.4801744461947" />
    <path d="M1836.8402826484232 2575.4801744461947 L418.5198255538053 2350.8402826484235" />
    <path d="M418.5198255538053 2350.8402826484235 L643.1597173515768 932.5198255538053" />
    <path d="M657.5874249020907 922.2286417723786 L2071.7713582276215 1171.5874249020908" />
    <path d="M2071.7713582276215 1171.5874249020908 L1822.4125750979092 2585.7713582276215" />
    <path d="M1822.4125750979092 2585.7713582276215 L408.22864177237864 2336.412575097909" />
    <path d="M408.22864177237864 2336.412575097909 L657.5874249020907 922.2286417723786" />
    <path d="M672.1925409649364 912.1908236042182 L2081.809176395782 1186.1925409649364" />
    <path d="M2081.809176395782 1186.1925409649364 L1807.8074590350636 2595.809176395782" />
    <path d="M1807.8074590350636 2595.809176395782 L398.19082360421817 2321.8074590350634" />
    <path d="M398.19082360421817 2321.8074590350634 L672.1925409649364 912.1908236042182" />
    <path d="M686.9706166802787 902.4094286659763 L2091.5905713340235 1200.9706166802787" />
    <path d="M2091.5905713340235 1200.9706166802787 L1793.0293833197213 2605.5905713340235" />
    <path d="M1793.0293833197213 2605.5905713340235 L388.4094286659763 2307.029383319721" />
    <path d="M388.4094286659763 2307.029383319721 L686.9706166802787 902.4094286659763" />
    <path d="M701.9171505030962 892.887436465306 L2101.112563534694 1215.9171505030963" />
    <path d="M2101.112563534694 1215.9171505030963 L1778.0828494969037 2615.112563534694" />
    <path d="M1778.0828494969037 2615.112563534694 L378.887436465306 2292.0828494969037" />
    <path d="M378.887436465306 2292.0828494969037 L701.9171505030962 892.887436465306" />
    <path d="M717.027589574396 883.6277474932731 L2110.372252506727 1231.027589574396" />
    <path d="M2110.372252506727 1231.027589574396 L1762.972410425604 2624.372252506727" />
    <path d="M1762.972410425604 2624.372252506727 L369.6277474932731 2276.972410425604" />
    <path d="M369.6277474932731 2276.972410425604 L717.027589574396 883.6277474932731" />
    <path d="M732.2973311080589 874.6331823408391 L2119.366817659161 1246.2973311080589" />
    <path d="M2119.366817659161 1246.2973311080589 L1747.7026688919411 2633.366817659161" />
    <path d="M1747.7026688919411 2633.366817659161 L360.6331823408391 2261.7026688919414" />
    <path d="M360.6331823408391 2261.7026688919414 L732.2973311080589 874.6331823408391" />
    <path d="M747.7217237928925 865.9064808396816 L2128.0935191603185 1261.7217237928926" />
    <path d="M2128.0935191603185 1261.7217237928926 L1732.2782762071074 2642.0935191603185" />
    <path d="M1732.2782762071074 2642.0935191603185 L351.90648083968165 2246.2782762071074" />
    <path d="M351.90648083968165 2246.2782762071074 L747.7217237928925 865.9064808396816" />
    <path d="M763.2960692094656 857.4503012276156 L2136.5496987723845 1277.2960692094657" />
    <path d="M2136.5496987723845 1277.2960692094657 L1716.7039307905343 2650.5496987723845" />
    <path d="M1716.7039307905343 2650.5496987723845 L343.45030122761557 2230.7039307905343" />
    <path d="M343.45030122761557 2230.7039307905343 L763.2960692094656 857.4503012276156" />
    <path d="M779.0156232612919 849.2672193388676 L2144.7327806611324 1293.015623261292" />
    <path d="M2144.7327806611324 1293.015623261292 L1700.984376738708 2658.7327806611324" />
    <path d="M1700.984376738708 2658.7327806611324 L335.26721933886756 2214.984376738708" />
    <path d="M335.26721933886756 2214.984376738708 L779.0156232612919 849.2672193388676" />
    <path d="M794.8755976199291 841.359727819452 L2152.640272180548 1308.875597619929" />
    <path d="M2152.640272180548 1308.875597619929 L1685.124402380071 2666.640272180548" />
    <path d="M1685.124402380071 2666.640272180548 L327.359727819452 2199.124402380071" />
    <path d="M327.359727819452 2199.124402380071 L794.8755976199291 841.359727819452" />
    <path d="M810.8711611835479 833.7302353678876 L2160.269764632112 1324.8711611835479" />
    <path d="M2160.269764632112 1324.8711611835479 L1669.1288388164521 2674.269764632112" />
    <path d="M1669.1288388164521 2674.269764632112 L319.73023536788764 2183.128838816452" />
    <path d="M319.73023536788764 2183.128838816452 L810.8711611835479 833.7302353678876" />
    <path d="M826.9974415485347 826.3810660014835 L2167.6189339985167 1340.9974415485347" />
    <path d="M2167.6189339985167 1340.9974415485347 L1653.0025584514653 2681.6189339985167" />
    <path d="M1653.0025584514653 2681.6189339985167 L312.38106600148353 2167.002558451465" />
    <path d="M312.38106600148353 2167.002558451465 L826.9974415485347 826.3810660014835" />
    <path d="M843.2495264936715 819.3144583484218 L2174.685541651578 1357.2495264936715" />
    <path d="M2174.685541651578 1357.2495264936715 L1636.7504735063285 2688.685541651578" />
    <path d="M1636.7504735063285 2688.685541651578 L305.3144583484218 2150.7504735063285" />
    <path d="M305.3144583484218 2150.7504735063285 L843.2495264936715 819.3144583484218" />
    <path d="M859.6224654764463 812.5325649658492 L2181.4674350341506 1373.6224654764465" />
    <path d="M2181.4674350341506 1373.6224654764465 L1620.3775345235535 2695.4674350341506" />
    <path d="M1620.3775345235535 2695.4674350341506 L298.53256496584925 2134.3775345235535" />
    <path d="M298.53256496584925 2134.3775345235535 L859.6224654764463 812.5325649658492" />
    <path d="M876.1112711410372 806.037451684188 L2187.962548315812 1390.1112711410372" />
    <path d="M2187.962548315812 1390.1112711410372 L1603.8887288589628 2701.962548315812" />
    <path d="M1603.8887288589628 2701.962548315812 L292.037451684188 2117.888728858963" />
    <path d="M292.037451684188 2117.888728858963 L876.1112711410372 806.037451684188" />
    <path d="M892.7109208375075 799.8310969778631 L2194.168903022137 1406.7109208375075" />
    <path d="M2194.168903022137 1406.7109208375075 L1587.2890791624925 2708.168903022137" />
    <path d="M1587.2890791624925 2708.168903022137 L285.8310969778631 2101.2890791624923" />
    <path d="M285.8310969778631 2101.2890791624923 L892.7109208375075 799.8310969778631" />
    <path d="M909.4163581517556 793.9153913626404 L2200.0846086373595 1423.4163581517555" />
    <path d="M2200.0846086373595 1423.4163581517555 L1570.5836418482445 2714.0846086373595" />
    <path d="M1570.5836418482445 2714.0846086373595 L279.91539136264043 2084.5836418482445" />
    <path d="M279.91539136264043 2084.5836418482445 L909.4163581517556 793.9153913626404" />
    <path d="M926.2224944457464 788.2921368197574 L2205.7078631802424 1440.2224944457464" />
    <path d="M2205.7078631802424 1440.2224944457464 L1553.7775055542536 2719.7078631802424" />
    <path d="M1553.7775055542536 2719.7078631802424 L274.2921368197574 2067.7775055542534" />
    <path d="M274.2921368197574 2067.7775055542534 L926.2224944457464 788.2921368197574" />
    <path d="M943.12421040756 782.9630462470209 L2211.036953752979 1457.12421040756" />
    <path d="M2211.036953752979 1457.12421040756 L1536.87578959244 2725.036953752979" />
    <path d="M1536.87578959244 2725.036953752979 L268.9630462470209 2050.87578959244" />
    <path d="M268.9630462470209 2050.87578959244 L943.12421040756 782.9630462470209" />
    <path d="M960.1163576107839 777.9297429370439 L2216.070257062956 1474.1163576107838" />
    <path d="M2216.070257062956 1474.1163576107838 L1519.8836423892162 2730.070257062956" />
    <path d="M1519.8836423892162 2730.070257062956 L263.9297429370439 2033.8836423892162" />
    <path d="M263.9297429370439 2033.8836423892162 L960.1163576107839 777.9297429370439" />
    <path d="M977.193760082773 773.193760082773 L2220.806239917227 1491.193760082773" />
    <path d="M2220.806239917227 1491.193760082773 L1502.806239917227 2734.806239917227" />
    <path d="M1502.806239917227 2734.806239917227 L259.193760082773 2016.806239917227" />
    <path d="M259.193760082773 2016.806239917227 L977.193760082773 773.193760082773" />
    <path d="M994.3512158813022 768.7565403104644 L2225.2434596895355 1508.3512158813023" />
    <path d="M2225.2434596895355 1508.3512158813023 L1485.6487841186977 2739.2434596895355" />
    <path d="M1485.6487841186977 2739.2434596895355 L254.7565403104644 1999.6487841186977" />
    <path d="M254.7565403104644 1999.6487841186977 L994.3512158813022 768.7565403104644" />
    <path d="M1011.5834986791273 764.619435240245 L2229.380564759755 1525.5834986791274" />
    <path d="M2229.380564759755 1525.5834986791274 L1468.4165013208726 2743.380564759755" />
    <path d="M1468.4165013208726 2743.380564759755 L250.61943524024502 1982.4165013208726" />
    <path d="M250.61943524024502 1982.4165013208726 L1011.5834986791273 764.619435240245" />
    <path d="M1028.885359355975 760.783705074396 L2233.216294925604 1542.885359355975" />
    <path d="M2233.216294925604 1542.885359355975 L1451.114640644025 2747.216294925604" />
    <path d="M1451.114640644025 2747.216294925604 L246.78370507439604 1965.114640644025" />
    <path d="M246.78370507439604 1965.114640644025 L1028.885359355975 760.783705074396" />
    <path d="M1046.2515275974765 757.2505182134838 L2236.7494817865163 1560.2515275974765" />
    <path d="M2236.7494817865163 1560.2515275974765 L1433.7484724025235 2750.7494817865163" />
    <path d="M1433.7484724025235 2750.7494817865163 L243.25051821348382 1947.7484724025235" />
    <path d="M243.25051821348382 1947.7484724025235 L1046.2515275974765 757.2505182134838" />
    <path d="M1063.676713500555 754.0209509004528 L2239.9790490995474 1577.676713500555" />
    <path d="M2239.9790490995474 1577.676713500555 L1416.323286499445 2753.9790490995474" />
    <path d="M1416.323286499445 2753.9790490995474 L240.02095090045282 1930.323286499445" />
    <path d="M240.02095090045282 1930.323286499445 L1063.676713500555 754.0209509004528" />
    <path d="M1081.1556091847833 751.095986892792 L2242.904013107208 1595.1556091847833" />
    <path d="M2242.904013107208 1595.1556091847833 L1398.8443908152167 2756.904013107208" />
    <path d="M1398.8443908152167 2756.904013107208 L237.09598689279198 1912.8443908152167" />
    <path d="M237.09598689279198 1912.8443908152167 L1081.1556091847833 751.095986892792" />
    <path d="M1098.6828904092145 748.476517162873 L2245.5234828371267 1612.6828904092145" />
    <path d="M2245.5234828371267 1612.6828904092145 L1381.3171095907855 2759.5234828371267" />
    <path d="M1381.3171095907855 2759.5234828371267 L234.47651716287305 1895.3171095907855" />
    <path d="M234.47651716287305 1895.3171095907855 L1098.6828904092145 748.476517162873" />
    <path d="M1116.2532181941963 746.1633396265511 L2247.836660373449 1630.2532181941963" />
    <path d="M2247.836660373449 1630.2532181941963 L1363.7467818058037 2761.836660373449" />
    <path d="M1363.7467818058037 2761.836660373449 L232.16333962655108 1877.7467818058037" />
    <path d="M232.16333962655108 1877.7467818058037 L1116.2532181941963 746.1633396265511" />
    <path d="M1133.861240447678 744.1571589001117 L2249.8428410998886 1647.861240447678" />
    <path d="M2249.8428410998886 1647.861240447678 L1346.138759552322 2763.8428410998886" />
    <path d="M1346.138759552322 2763.8428410998886 L230.15715890011165 1860.138759552322" />
    <path d="M230.15715890011165 1860.138759552322 L1133.861240447678 744.1571589001117" />
    <path d="M1151.501593595509 742.4585860856384 L2251.5414139143613 1665.501593595509" />
    <path d="M2251.5414139143613 1665.501593595509 L1328.498406404491 2765.5414139143613" />
    <path d="M1328.498406404491 2765.5414139143613 L228.45858608563844 1842.498406404491" />
    <path d="M228.45858608563844 1842.498406404491 L1151.501593595509 742.4585860856384" />
    <path d="M1169.1689042152339 741.0681385848654 L2252.9318614151343 1683.1689042152339" />
    <path d="M2252.9318614151343 1683.1689042152339 L1310.8310957847661 2766.9318614151343" />
    <path d="M1310.8310957847661 2766.9318614151343 L227.06813858486544 1824.8310957847661" />
    <path d="M227.06813858486544 1824.8310957847661 L1169.1689042152339 741.0681385848654" />
    <path d="M1186.857790672891 739.9862399415707 L2254.0137600584294 1700.857790672891" />
    <path d="M2254.0137600584294 1700.857790672891 L1293.142209327109 2768.0137600584294" />
    <path d="M1293.142209327109 2768.0137600584294 L225.98623994157072 1807.142209327109" />
    <path d="M225.98623994157072 1807.142209327109 L1186.857790672891 739.9862399415707" />
    <path d="M1204.5628647623093 739.2132197125617 L2254.7867802874384 1718.5628647623093" />
    <path d="M2254.7867802874384 1718.5628647623093 L1275.4371352376907 2768.7867802874384" />
    <path d="M1275.4371352376907 2768.7867802874384 L225.21321971256168 1789.4371352376907" />
    <path d="M225.21321971256168 1789.4371352376907 L1204.5628647623093 739.2132197125617" />
    <path d="M1222.2787333464084 738.7493133672886 L2255.250686632711 1736.2787333464084" />
    <path d="M2255.250686632711 1736.2787333464084 L1257.7212666535916 2769.250686632711" />
    <path d="M1257.7212666535916 2769.250686632711 L224.74931336728855 1771.7212666535916" />
    <path d="M224.74931336728855 1771.7212666535916 L1222.2787333464084 738.7493133672886" />
  </g>
</svg>