<?xml version="1.0" standalone="no"?>
<!DOCTYPE svg PUBLIC "-//W3C//DTD SVG 1.1//EN" 
    "http://www.w3.org/Graphics/SVG/1.1/DTD/svg11.dtd">
<svg width="21cm" height="29.7cm"
    xmlns="http://www.w3.org/2000/svg" version="1.1" viewBox="0 0 744.09449 1052.3622">
  <g fill="none" stroke="black" stroke-width="0.03cm">
    <path d="M558.07087 526.1811 L372.04724 712.20472 L186.02362 526.1811 L372.04724 340.15748 L558.07087 526.1811" />
    <path d="M595.27559 526.1811 L372.04724 749.40945 L148.8189 526.1811 L372.04724 302.95276 L595.27559 526.1811" />
    <path d="M632.48031 526.1811 L372.04724 786.61417 L111.61417 526.1811 L372.04724 265.74803 L632.48031 526.1811" />
    <path d="M669.68504 526.1811 L372.04724 823.8189 L74.40945 526.1811 L372.04724 228.54331 L669.68504 526.1811" />
    <path d="M706.88976 526.1811 L372.04724 861.02362 L37.20472 526.1811 L372.04724 191.33858 L706.88976 526.1811" />
    <path d="M708.66142 561.61417 L372.04724 898.22835 L35.43307 561.61417" />
    <path d="M35.43307 490.74803 L372.04724 154.13386 L708.66142 490.74803" />
    <path d="M708.66142 598.8189 L372.04724 935.43307 L35.43307 598.8189" />
    <path d="M35.43307 453.54331 L372.04724 116.92913 L708.66142 453.54331" />
    <path d="M708.66142 636.02362 L372.04724 972.6378 L35.43307 636.02362" />
    <path d="M35.43307 416.33858 L372.04724 79.72441 L708.66142 416.33858" />
    <path d="M708.66142 673.22835 L372.04724 1009.84252 L35.43307 673.22835" />
    <path d="M35.43307 379.13386 L372.04724 42.51969 L708.66142 379.13386" />
    <path d="M708.66142 710.43307 L402.16535 1016.92913" />
    <path d="M341.92913 1016.92913 L35.43307 710.43307" />
    <path d="M35.43307 341.92913 L341.92913 35.43307" />
    <path d="M402.16535 35.43307 L708.66142 341.92913" />
    <path d="M708.66142 747.6378 L439.37008 1016.92913" />
    <path d="M304.72441 1016.92913 L35.43307 747.6378" />
    <path d="M35.43307 304.72441 L304.72441 35.43307" />
    <path d="M439.37008 35.43307 L708.66142 304.72441" />
    <path d="M708.66142 784.84252 L476.5748 1016.92913" />
    <path d="M267.51969 1016.92913 L35.43307 784.84252" />
    <path d="M35.43307 267.51969 L267.51969 35.43307" />
    <path d="M476.5748 35.43307 L708.66142 267.51969" />
    <path d="M708.66142 822.04724 L513.77953 1016.92913" />
    <path d="M230.31496 1016.92913 L35.43307 822.04724" />
    <path d="M35.43307 230.31496 L230.31496 35.43307" />
    <path d="M513.77953 35.43307 L708.66142 230.31496" />
    <path d="M708.66142 859.25197 L550.98425 1016.92913" />
    <path d="M193.11024 1016.92913 L35.43307 859.25197" />
    <path d="M35.43307 193.11024 L193.11024 35.43307" />
    <path d="M550.98425 35.43307 L708.66142 193.11024" />
    <path d="M708.66142 896.45669 L588.18898 1016.92913" />
    <path d="M155.90551 1016.92913 L35.43307 896.45669" />
    <path d="M35.43307 155.90551 L155.90551 35.43307" />
    <path d="M588.18898 35.43307 L708.66142 155.90551" />
    <path d="M708.66142 933.66142 L625.3937 1016.92913" />
    <path d="M118.70079 1016.92913 L35.43307 933.66142" />
    <path d="M35.43307 118.70079 L118.70079 35.43307" />
    <path d="M625.3937 35.43307 L708.66142 118.70079" />
    <path d="M708.66142 970.86614 L662.59843 1016.92913" />
    <path d="M81.49606 1016.92913 L35.43307 970.86614" />
    <path d="M35.43307 81.49606 L81.49606 35.43307" />
    <path d="M662.59843 35.43307 L708.66142 81.49606" />
    <path d="M708.66142 1008.07087 L699.80315 1016.92913" />
    <path d="M44.29134 1016.92913 L35.43307 1008.07087" />
    <path d="M35.43307 44.29134 L44.29134 35.43307" />
    <path d="M699.80315 35.43307 L708.66142 44.29134" />
  </g>
</svg>