<?xml version="1.0" standalone="no"?>
<!DOCTYPE svg PUBLIC "-//W3C//DTD SVG 1.1//EN" 
    "http://www.w3.org/Graphics/SVG/1.1/DTD/svg11.dtd">
<svg width="12cm" height="12cm"
    xmlns="http://www.w3.org/2000/svg" version="1.1" viewBox="0 0 425.19685 425.19685">
  <g fill="none" stroke="black" stroke-width="0.03cm">
    <path d="M70.89223 190.05475 L70.87856 337.17153 L70.89398 346.97461 L70.9878 352.52466 L72.70378 353.65581 L76.72457 354.21507 L95.6892 354.32768 L191.97475 354.31539 L207.54696 354.06698 L209.00315 353.91248 L210.1245 351.98867 L210.96506 344.95553 L211.39109 332.10631 L211.96299 279.74594 L212.46672 233.27959 L212.41403 228.78312 L212.10596 218.29374 L211.51523 215.95948 L210.24591 215.07318 L209.14066 214.32319 L206.27838 212.6933 L105.10687 155.27854 L84.42525 143.58375 L72.90933 137.53473 L71.68402 137.01702 L70.90749 137.0651 L70.89223 190.05475" />
    <path d="M70.89488 76.72679 L70.87677 104.56109 L70.885 129.93395 L70.92518 133.13605 L72.01353 134.72892 L72.68115 135.44599 L75.94588 138.28557 L79.41471 140.49081 L84.74497 143.64009 L131.94185 170.46241 L181.40407 198.51803 L195.11637 206.20314 L207.54198 212.57706 L208.89299 212.81411 L211.03058 211.41397 L213.91413 194.60705 L218.92702 159.97483 L231.39162 73.29513 L229.78671 72.22852 L223.55969 71.06527 L215.41207 70.98032 L192.79848 70.87174 L72.75741 70.9036 L71.03928 72.78652 L70.89488 76.72679" />
    <path d="M220.53809 151.43184 L219.95305 159.18087 L223.25575 160.90543 L230.87049 161.88127 L331.15379 170.92621 L346.77999 172.30714 L352.33166 171.68132 L354.3005 168.65264 L354.30889 79.61277 L354.11971 74.18068 L353.1804 71.58487 L350.61812 71.2581 L337.81682 71.01213 L325.87153 70.91459 L320.342 70.90119 L276.14795 70.88136 L235.88889 70.94259 L232.95925 71.92561 L231.48211 74.64568 L229.20025 88.99589 L224.32145 122.75874 L222.38955 136.16241 L220.91597 146.44861 L220.53809 151.43184" />
    <path d="M280.63145 252.52275 L280.2134 260.33484 L280.29381 260.56282 L291.48987 265.83947 L316.22932 277.15778 L346.63767 291.00114 L352.6194 293.51014 L354.01469 287.81541 L354.25185 285.30833 L354.30025 254.94958 L354.31929 194.69918 L354.18837 180.40263 L353.45118 173.77867 L347.94691 172.83855 L326.84072 170.66295 L316.31214 169.7237 L301.41671 168.49516 L295.09764 168.19698 L294.01469 168.18171 L292.0549 168.68023 L290.69009 170.19299 L289.66262 177.17559 L289.34232 179.73675 L284.25843 221.71573 L280.63145 252.52275" />
    <path d="M276.21706 330.20428 L271.91596 351.82741 L272.43835 352.82926 L273.03565 353.66458 L273.75767 353.85369 L282.935 354.27977 L286.47816 354.29532 L311.19563 354.33065 L351.87987 354.26366 L353.02451 353.01142 L353.90532 351.30225 L354.31839 346.80987 L354.32888 317.18312 L354.22938 305.10186 L354.17396 303.26645 L354.06562 300.32471 L352.99123 295.81719 L352.62176 294.6171 L351.38433 293.36005 L294.57702 267.36352 L290.41299 265.85181 L288.09383 271.57077 L276.21706 330.20428" />
    <path d="M211.5169 322.28631 L211.35502 347.47076 L211.81634 353.41228 L214.01842 354.04158 L219.1916 354.29477 L233.74441 354.29819 L266.45587 353.93795 L268.97244 353.73253 L271.42055 353.00602 L278.55335 318.36766 L279.77035 312.0668 L282.29606 298.37035 L282.88787 293.29668 L282.3516 292.67436 L281.33357 292.24826 L239.68982 289.39207 L212.94003 287.56802 L212.43253 288.25381 L211.72586 307.69295 L211.5169 322.28631" />
    <path d="M248.37194 163.54075 L241.07793 162.95265 L241.47776 167.33816 L243.07068 174.51093 L251.51715 207.98231 L255.91556 225.08839 L256.08572 225.50443 L257.16097 226.35889 L261.98001 228.69518 L282.29009 233.92414 L283.32455 228.91258 L283.99958 223.50107 L290.29253 170.5048 L290.16517 167.52631 L286.69173 166.97252 L248.37194 163.54075" />
    <path d="M244.16992 280.29688 L242.52873 289.40008 L249.44388 289.8837 L280.8761 291.93628 L282.38154 290.98435 L284.61343 288.53526 L286.21041 280.56553 L288.66615 265.9818 L282.19543 234.29545 L276.47407 232.67687 L260.50509 228.36894 L256.25147 227.3846 L255.48308 229.50823 L254.0717 233.8153 L246.51028 268.19906 L245.79469 271.66197 L244.16992 280.29688" />
    <path d="M212.06503 274.94915 L211.96992 283.19942 L212.06956 285.05495 L213.4849 286.11621 L213.99834 286.43984 L218.63175 287.56563 L220.8655 287.77268 L230.93915 288.66276 L232.50531 288.79807 L239.62965 289.27695 L241.22661 288.24214 L242.34247 285.69601 L243.42526 281.66399 L243.91307 279.78509 L249.23902 254.65833 L249.61934 251.31202 L249.36421 249.58736 L244.06 248.87758 L234.42022 247.77231 L216.74883 246.29035 L215.37467 246.85131 L213.07889 247.81409 L212.66769 252.32262 L212.27349 260.38831 L212.06503 274.94915" />
    <path d="M215.14807 186.902 L214.79692 189.4615 L214.99385 191.82367 L215.97145 193.47909 L216.60694 194.37458 L219.35289 194.32365 L247.27641 193.22053 L245.34515 184.57778 L242.28072 172.00311 L239.80012 162.95714 L226.05043 161.4618 L221.03213 161.20071 L219.14474 161.21197 L217.63095 170.82022 L215.14807 186.902" />
    <path d="M212.59238 213.40722 L209.03435 213.63382 L212.63521 242.89467 L213.00198 244.00507 L213.37287 244.56264 L214.73612 245.24777 L215.67254 245.42227 L221.56541 246.18981 L229.35503 246.97321 L230.99852 246.17241 L232.24317 236.47039 L232.47617 234.4742 L233.11394 222.05905 L232.73483 221.34022 L231.77098 220.31462 L225.3307 217.72526 L212.59238 213.40722" />
    <path d="M213.67131 198.21003 L211.51005 211.72831 L214.04997 213.02375 L228.45792 218.60303 L230.67662 216.14221 L232.77117 207.08848 L234.6818 197.7173 L235.08053 194.64919 L234.76359 194.03224 L221.08357 194.38475 L215.27967 194.61762 L214.62697 195.3297 L213.67131 198.21003" />
    <path d="M232.88057 207.36057 L232.17243 212.37389 L233.66613 212.41641 L238.00555 212.47418 L244.98387 212.03954 L251.85776 210.38833 L249.67151 201.35933 L247.83731 194.16394 L246.82547 193.9245 L241.6968 193.54487 L236.97886 193.75823 L236.23903 193.91865 L235.61185 194.82048 L233.90218 202.42369 L232.88057 207.36057" />
    <path d="M243.42403 213.60212 L242.96991 216.66682 L243.17686 220.99747 L244.18755 226.47789 L245.05983 227.92585 L247.86645 230.49575 L250.29636 231.49695 L251.73322 231.55918 L253.55176 230.16504 L254.96289 225.37826 L253.12997 215.44029 L252.30114 213.68103 L250.7671 211.84947 L245.44528 212.23582 L244.51768 212.7051 L243.42403 213.60212" />
    <path d="M233.41297 241.09983 L232.80404 242.11571 L233.45557 244.6609 L234.31939 246.33346 L234.89854 246.70479 L237.51101 247.73956 L245.45726 248.40036 L249.58612 248.59875 L251.30937 242.18122 L250.84088 241.11999 L249.42596 239.9629 L245.13229 239.1536 L239.14077 239.10609 L236.24284 239.55685 L234.27909 240.15322 L233.41297 241.09983" />
    <path d="M241.17642 238.01902 L241.14493 238.74271 L241.41234 238.84158 L249.75281 238.68955 L252.19786 237.53706 L252.86347 235.8327 L253.55354 232.75652 L253.27048 232.54588 L246.41992 231.09751 L244.0809 232.17038 L243.81952 232.32234 L241.69563 235.76404 L241.17642 238.01902" />
    <path d="M233.69152 224.21998 L233.37815 225.22751 L235.23971 226.98941 L240.90391 228.31909 L243.41718 228.35749 L243.45402 225.21147 L242.15199 218.61645 L240.15131 219.55398 L234.34426 222.46461 L233.69152 224.21998" />
    <path d="M234.30007 233.81403 L233.22919 236.06626 L233.83461 237.78398 L235.15479 238.77432 L239.49672 238.87262 L240.39641 237.72068 L241.25703 235.78498 L241.36452 234.47439 L240.89356 234.10151 L240.42209 234.05972 L234.30007 233.81403" />
    <path d="M236.46518 213.15904 L235.61657 215.25768 L239.84153 218.69898 L240.0704 218.70279 L242.08604 216.62628 L241.57414 212.58388 L238.61233 212.7308 L236.46518 213.15904" />
    <path d="M235.62759 217.92708 L232.0495 219.97151 L233.59483 222.55426 L237.28246 220.47194 L237.22854 218.3886 L235.62759 217.92708" />
    <path d="M233.09046 228.89772 L232.98785 231.05076 L234.02693 231.70873 L235.51603 231.95609 L236.91665 229.23344 L235.87139 228.16238 L233.97016 228.40596 L233.09046 228.89772" />
    <path d="M239.98646 229.13855 L239.78134 229.96817 L240.09063 232.21377 L241.25647 231.97408 L242.9076 231.44847 L243.40954 230.95618 L243.71597 229.62434 L239.98646 229.13855" />
    <path d="M238.57414 229.30515 L237.69058 229.78468 L238.01841 230.23676 L239.18902 231.16595 L239.43378 229.91379 L239.16374 229.52314 L238.57414 229.30515" />
    <path d="M238.53738 231.43359 L237.91717 231.16273 L239.99217 232.61669 L238.53738 231.43359" />
    <path d="M237.47189 231.47424 L237.18762 232.08584 L237.19857 232.62176 L237.48116 233.08322 L237.5865 232.80712 L237.65733 232.18362 L237.47189 231.47424" />
    <path d="M231.81547 216.22653 L231.41683 216.75255 L232.09773 217.15528 L232.30901 216.6815 L232.19083 216.12514 L231.81547 216.22653" />
    <path d="M231.40426 218.35657 L231.05758 219.19547 L234.07311 217.79835 L231.40426 218.35657" />
    <path d="M234.7223 215.94047 L233.77629 215.79797 L233.8905 216.86634 L234.80975 216.51748 L234.7223 215.94047" />
    <path d="M233.76634 214.6832 L232.87998 213.09025 L233.10986 214.5318 L233.76634 214.6832" />
  </g>
</svg>