<?xml version="1.0" standalone="no"?>
<!DOCTYPE svg PUBLIC "-//W3C//DTD SVG 1.1//EN" 
    "http://www.w3.org/Graphics/SVG/1.1/DTD/svg11.dtd">
<svg width="2480px" height="3508px"
    xmlns="http://www.w3.org/2000/svg" version="1.1" viewBox="0 0 2480 3508">
  <g fill="none" stroke="black" stroke-width="1.06299px">
    <path d="M50 564 L2430 564" />
    <path d="M2430 564 L2430 2944" />
    <path d="M2430 2944 L50 2944" />
    <path d="M50 2944 L50 564" />
    <path d="M95.3130095844956 568.6419216230499 L2425.3580783769503 609.3130095844956" />
    <path d="M2425.3580783769503 609.3130095844956 L2384.6869904155046 2939.35807837695" />
    <path d="M2384.6869904155046 2939.35807837695 L54.64192162304994 2898.686990415504" />
    <path d="M54.64192162304994 2898.686990415504 L95.3130095844956 568.6419216230499" />
    <path d="M140.094086906955 574.495314827891 L2419.504685172109 654.094086906955" />
    <path d="M2419.504685172109 654.094086906955 L2339.905913093045 2933.504685172109" />
    <path d="M2339.905913093045 2933.504685172109 L60.49531482789098 2853.905913093045" />
    <path d="M60.49531482789098 2853.905913093045 L140.094086906955 574.495314827891" />
    <path d="M184.3148838124257 581.5428982431695 L2412.4571017568305 698.3148838124257" />
    <path d="M2412.4571017568305 698.3148838124257 L2295.6851161875743 2926.4571017568305" />
    <path d="M2295.6851161875743 2926.4571017568305 L67.54289824316947 2809.6851161875743" />
    <path d="M67.54289824316947 2809.6851161875743 L184.3148838124257 581.5428982431695" />
    <path d="M227.94749553667566 589.7667724164919 L2404.233227583508 741.9474955366757" />
    <path d="M2404.233227583508 741.9474955366757 L2252.052504463324 2918.2332275835083" />
    <path d="M2252.052504463324 2918.2332275835083 L75.7667724164919 2766.0525044633246" />
    <path d="M75.7667724164919 2766.0525044633246 L227.94749553667566 589.7667724164919" />
    <path d="M270.9644736032028 599.1484300651955 L2394.8515699348045 784.9644736032028" />
    <path d="M2394.8515699348045 784.9644736032028 L2209.035526396797 2908.8515699348045" />
    <path d="M2209.035526396797 2908.8515699348045 L85.1484300651955 2723.035526396797" />
    <path d="M85.1484300651955 2723.035526396797 L270.9644736032028 599.1484300651955" />
    <path d="M313.33883849683457 609.668766588273 L2384.331233411727 827.3388384968346" />
    <path d="M2384.331233411727 827.3388384968346 L2166.6611615031657 2898.3312334117268" />
    <path d="M2166.6611615031657 2898.3312334117268 L95.668766588273 2680.661161503165" />
    <path d="M95.668766588273 2680.661161503165 L313.33883849683457 609.668766588273" />
    <path d="M355.04409210875224 621.3080908347686 L2372.6919091652317 869.0440921087524" />
    <path d="M2372.6919091652317 869.0440921087524 L2124.955907891248 2886.6919091652317" />
    <path d="M2124.955907891248 2886.6919091652317 L107.30809083476856 2638.955907891248" />
    <path d="M107.30809083476856 2638.955907891248 L355.04409210875224 621.3080908347686" />
    <path d="M396.05422994785977 634.0461361238579 L2359.953863876142 910.0542299478598" />
    <path d="M2359.953863876142 910.0542299478598 L2083.9457700521402 2873.953863876142" />
    <path d="M2083.9457700521402 2873.953863876142 L120.04613612385788 2597.9457700521402" />
    <path d="M120.04613612385788 2597.9457700521402 L396.05422994785977 634.0461361238579" />
    <path d="M436.3437531135161 647.8620715117256 L2346.1379284882746 950.3437531135162" />
    <path d="M2346.1379284882746 950.3437531135162 L2043.656246886484 2860.1379284882746" />
    <path d="M2043.656246886484 2860.1379284882746 L133.86207151172562 2557.656246886484" />
    <path d="M133.86207151172562 2557.656246886484 L436.3437531135161 647.8620715117256" />
    <path d="M475.8876800247484 662.7345133002516 L2331.265486699748 989.8876800247484" />
    <path d="M2331.265486699748 989.8876800247484 L2004.1123199752515 2845.265486699748" />
    <path d="M2004.1123199752515 2845.265486699748 L148.7345133002516 2518.1123199752515" />
    <path d="M148.7345133002516 2518.1123199752515 L475.8876800247484 662.7345133002516" />
    <path d="M514.6615579011695 678.6415367824357 L2315.3584632175643 1028.6615579011695" />
    <path d="M2315.3584632175643 1028.6615579011695 L1965.338442098831 2829.3584632175643" />
    <path d="M1965.338442098831 2829.3584632175643 L164.64153678243565 2479.3384420988305" />
    <path d="M164.64153678243565 2479.3384420988305 L514.6615579011695 678.6415367824357" />
    <path d="M552.6414739909203 695.5606882193833 L2298.4393117806167 1066.6414739909203" />
    <path d="M2298.4393117806167 1066.6414739909203 L1927.35852600908 2812.4393117806167" />
    <path d="M1927.35852600908 2812.4393117806167 L181.56068821938334 2441.35852600908" />
    <path d="M181.56068821938334 2441.35852600908 L552.6414739909203 695.5606882193833" />
    <path d="M589.8040665410672 713.4689970435927 L2280.531002956407 1103.8040665410672" />
    <path d="M2280.531002956407 1103.8040665410672 L1890.1959334589328 2794.531002956407" />
    <path d="M1890.1959334589328 2794.531002956407 L199.4689970435927 2404.195933458933" />
    <path d="M199.4689970435927 2404.195933458933 L589.8040665410672 713.4689970435927" />
    <path d="M626.1265355059901 732.3429882831903 L2261.6570117168094 1140.12653550599" />
    <path d="M2261.6570117168094 1140.12653550599 L1853.8734644940096 2775.65701171681" />
    <path d="M1853.8734644940096 2775.65701171681 L218.34298828319015 2367.87346449401" />
    <path d="M218.34298828319015 2367.87346449401 L626.1265355059901 732.3429882831903" />
    <path d="M661.5866529894041 752.1586952016802 L2241.84130479832 1175.5866529894042" />
    <path d="M2241.84130479832 1175.5866529894042 L1818.4133470105958 2755.84130479832" />
    <path d="M1818.4133470105958 2755.84130479832 L238.1586952016802 2332.4133470105958" />
    <path d="M238.1586952016802 2332.4133470105958 L661.5866529894041 752.1586952016802" />
    <path d="M696.1627734157692 772.8916721476817 L2221.1083278523183 1210.1627734157692" />
    <path d="M2221.1083278523183 1210.1627734157692 L1783.8372265842308 2735.1083278523183" />
    <path d="M1783.8372265842308 2735.1083278523183 L258.8916721476817 2297.837226584231" />
    <path d="M258.8916721476817 2297.837226584231 L696.1627734157692 772.8916721476817" />
    <path d="M729.8338434269546 794.5170076090527 L2199.4829923909474 1243.8338434269544" />
    <path d="M2199.4829923909474 1243.8338434269544 L1750.1661565730456 2713.4829923909474" />
    <path d="M1750.1661565730456 2713.4829923909474 L280.5170076090527 2264.1661565730456" />
    <path d="M280.5170076090527 2264.1661565730456 L729.8338434269546 794.5170076090527" />
    <path d="M762.5794115001347 817.0093374657131 L2176.990662534287 1276.5794115001347" />
    <path d="M2176.990662534287 1276.5794115001347 L1717.4205884998653 2690.990662534287" />
    <path d="M1717.4205884998653 2690.990662534287 L303.0093374657131 2231.420588499865" />
    <path d="M303.0093374657131 2231.420588499865 L762.5794115001347 817.0093374657131" />
    <path d="M794.3796372830153 840.3428584354068 L2153.657141564593 1308.3796372830152" />
    <path d="M2153.657141564593 1308.3796372830152 L1685.6203627169846 2667.6571415645935" />
    <path d="M1685.6203627169846 2667.6571415645935 L326.3428584354067 2199.620362716985" />
    <path d="M326.3428584354067 2199.620362716985 L794.3796372830153 840.3428584354068" />
    <path d="M825.2153006425937 864.4913417065655 L2129.5086582934346 1339.2153006425938" />
    <path d="M2129.5086582934346 1339.2153006425938 L1654.7846993574062 2643.5086582934346" />
    <path d="M1654.7846993574062 2643.5086582934346 L350.49134170656555 2168.784699357406" />
    <path d="M350.49134170656555 2168.784699357406 L825.2153006425937 864.4913417065655" />
    <path d="M855.0678104237875 889.4281467523579 L2104.571853247642 1369.0678104237877" />
    <path d="M2104.571853247642 1369.0678104237877 L1624.9321895762123 2618.571853247642" />
    <path d="M1624.9321895762123 2618.571853247642 L375.42814675235786 2138.9321895762123" />
    <path d="M375.42814675235786 2138.9321895762123 L855.0678104237875 889.4281467523579" />
    <path d="M883.919212914376 915.1262353199484 L2078.873764680052 1397.9192129143757" />
    <path d="M2078.873764680052 1397.9192129143757 L1596.0807870856243 2592.873764680051" />
    <path d="M1596.0807870856243 2592.873764680051 L401.1262353199486 2110.080787085624" />
    <path d="M401.1262353199486 2110.080787085624 L883.919212914376 915.1262353199484" />
    <path d="M911.7522000128218 941.558185588914 L2052.441814411086 1425.752200012822" />
    <path d="M2052.441814411086 1425.752200012822 L1568.2477999871778 2566.4418144110864" />
    <path d="M1568.2477999871778 2566.4418144110864 L427.5581855889137 2082.2477999871785" />
    <path d="M427.5581855889137 2082.2477999871785 L911.7522000128218 941.558185588914" />
    <path d="M938.550117095667 968.6962064926952 L2025.3037935073048 1452.550117095667" />
    <path d="M2025.3037935073048 1452.550117095667 L1541.4498829043328 2539.3037935073053" />
    <path d="M1541.4498829043328 2539.3037935073053 L454.69620649269507 2055.449882904333" />
    <path d="M454.69620649269507 2055.449882904333 L938.550117095667 968.6962064926952" />
    <path d="M964.2969705813082 996.5121521969108 L1997.4878478030892 1478.2969705813082" />
    <path d="M1997.4878478030892 1478.2969705813082 L1515.7030294186918 2511.487847803089" />
    <path d="M1515.7030294186918 2511.487847803089 L482.51215219691085 2029.7030294186918" />
    <path d="M482.51215219691085 2029.7030294186918 L964.2969705813082 996.5121521969108" />
    <path d="M988.9774351870991 1024.9775367282894 L1969.0224632717106 1502.9774351870992" />
    <path d="M1969.0224632717106 1502.9774351870992 L1491.0225648129008 2483.022463271711" />
    <path d="M1491.0225648129008 2483.022463271711 L510.97753672828924 2005.0225648129008" />
    <path d="M510.97753672828924 2005.0225648129008 L988.9774351870991 1024.9775367282894" />
    <path d="M1012.5768608768335 1054.063548747913 L1939.936451252087 1526.5768608768335" />
    <path d="M1939.936451252087 1526.5768608768335 L1467.4231391231667 2453.9364512520865" />
    <path d="M1467.4231391231667 2453.9364512520865 L540.0635487479134 1981.4231391231663" />
    <path d="M540.0635487479134 1981.4231391231663 L1012.5768608768335 1054.063548747913" />
    <path d="M1035.0812794958033 1083.7410664624283 L1910.2589335375715 1549.0812794958033" />
    <path d="M1910.2589335375715 1549.0812794958033 L1444.9187205041965 2424.258933537572" />
    <path d="M1444.9187205041965 2424.258933537572 L569.7410664624281 1958.9187205041972" />
    <path d="M569.7410664624281 1958.9187205041972 L1035.0812794958033 1083.7410664624283" />
    <path d="M1056.477411090748 1113.980672666797 L1880.019327333203 1570.477411090748" />
    <path d="M1880.019327333203 1570.477411090748 L1423.522588909252 2394.0193273332034" />
    <path d="M1423.522588909252 2394.0193273332034 L599.980672666797 1937.5225889092521" />
    <path d="M599.980672666797 1937.5225889092521 L1056.477411090748 1113.980672666797" />
    <path d="M1076.7526699121404 1144.7526699121404 L1849.2473300878596 1590.7526699121404" />
    <path d="M1849.2473300878596 1590.7526699121404 L1403.2473300878596 2363.2473300878596" />
    <path d="M1403.2473300878596 2363.2473300878596 L630.7526699121404 1917.2473300878596" />
    <path d="M630.7526699121404 1917.2473300878596 L1076.7526699121404 1144.7526699121404" />
    <path d="M1095.895170096385 1176.0270957921557 L1817.9729042078443 1609.895170096385" />
    <path d="M1817.9729042078443 1609.895170096385 L1384.104829903615 2331.9729042078443" />
    <path d="M1384.104829903615 2331.9729042078443 L662.0270957921556 1898.1048299036147" />
    <path d="M662.0270957921556 1898.1048299036147 L1095.895170096385 1176.0270957921557" />
    <path d="M1113.8937310256351 1207.7737383415501 L1786.2262616584499 1627.8937310256351" />
    <path d="M1786.2262616584499 1627.8937310256351 L1366.106268974365 2300.2262616584494" />
    <path d="M1366.106268974365 2300.2262616584494 L693.7737383415505 1880.1062689743646" />
    <path d="M693.7737383415505 1880.1062689743646 L1113.8937310256351 1207.7737383415501" />
    <path d="M1130.7378823630645 1239.9621515398965 L1754.0378484601035 1644.7378823630645" />
    <path d="M1754.0378484601035 1644.7378823630645 L1349.2621176369353 2268.0378484601038" />
    <path d="M1349.2621176369353 2268.0378484601038 L725.9621515398961 1863.2621176369357" />
    <path d="M725.9621515398961 1863.2621176369357 L1130.7378823630645 1239.9621515398965" />
    <path d="M1146.4178687615665 1272.5616709142566 L1721.4383290857434 1660.4178687615665" />
    <path d="M1721.4383290857434 1660.4178687615665 L1333.5821312384332 2235.4383290857436" />
    <path d="M1333.5821312384332 2235.4383290857436 L758.5616709142564 1847.5821312384337" />
    <path d="M758.5616709142564 1847.5821312384337 L1146.4178687615665 1272.5616709142566" />
    <path d="M1160.9246542439814 1305.5414292339078 L1688.4585707660922 1674.9246542439814" />
    <path d="M1688.4585707660922 1674.9246542439814 L1319.0753457560186 2202.458570766092" />
    <path d="M1319.0753457560186 2202.458570766092 L791.5414292339078 1833.0753457560186" />
    <path d="M791.5414292339078 1833.0753457560186 L1160.9246542439814 1305.5414292339078" />
    <path d="M1174.2499262530887 1338.870372290443 L1655.129627709557 1688.2499262530887" />
    <path d="M1655.129627709557 1688.2499262530887 L1305.7500737469113 2169.129627709557" />
    <path d="M1305.7500737469113 2169.129627709557 L824.8703722904428 1819.7500737469113" />
    <path d="M824.8703722904428 1819.7500737469113 L1174.2499262530887 1338.870372290443" />
    <path d="M1186.3860993697353 1372.5172747564993 L1621.4827252435007 1700.3860993697353" />
    <path d="M1621.4827252435007 1700.3860993697353 L1293.6139006302647 2135.4827252435007" />
    <path d="M1293.6139006302647 2135.4827252435007 L858.5172747564995 1807.6139006302647" />
    <path d="M858.5172747564995 1807.6139006302647 L1186.3860993697353 1372.5172747564993" />
    <path d="M1197.3263186976085 1406.4507561163427 L1587.5492438836573 1711.3263186976087" />
    <path d="M1587.5492438836573 1711.3263186976087 L1282.6736813023913 2101.5492438836573" />
    <path d="M1282.6736813023913 2101.5492438836573 L892.4507561163425 1796.6736813023915" />
    <path d="M892.4507561163425 1796.6736813023915 L1197.3263186976085 1406.4507561163427" />
    <path d="M1207.0644629132908 1440.639296661483 L1553.360703338517 1721.0644629132908" />
    <path d="M1553.360703338517 1721.0644629132908 L1272.9355370867092 2067.360703338517" />
    <path d="M1272.9355370867092 2067.360703338517 L926.6392966614832 1786.9355370867092" />
    <path d="M926.6392966614832 1786.9355370867092 L1207.0644629132908 1440.639296661483" />
    <path d="M1215.5951469803772 1475.0512535445075 L1518.9487464554925 1729.5951469803772" />
    <path d="M1518.9487464554925 1729.5951469803772 L1264.4048530196228 2032.9487464554925" />
    <path d="M1264.4048530196228 2032.9487464554925 L961.0512535445075 1778.4048530196228" />
    <path d="M961.0512535445075 1778.4048530196228 L1215.5951469803772 1475.0512535445075" />
    <path d="M1222.9137245265717 1509.6548768842604 L1484.3451231157396 1736.9137245265717" />
    <path d="M1484.3451231157396 1736.9137245265717 L1257.0862754734283 1998.3451231157396" />
    <path d="M1257.0862754734283 1998.3451231157396 L995.6548768842603 1771.0862754734283" />
    <path d="M995.6548768842603 1771.0862754734283 L1222.9137245265717 1509.6548768842604" />
    <path d="M1229.0162898828094 1544.4183259155002 L1449.5816740844998 1743.0162898828094" />
    <path d="M1449.5816740844998 1743.0162898828094 L1250.9837101171906 1963.5816740844998" />
    <path d="M1250.9837101171906 1963.5816740844998 L1030.4183259155002 1764.9837101171906" />
    <path d="M1030.4183259155002 1764.9837101171906 L1229.0162898828094 1544.4183259155002" />
    <path d="M1233.8996797835953 1579.3096851761459 L1414.6903148238541 1747.8996797835953" />
    <path d="M1414.6903148238541 1747.8996797835953 L1246.1003202164047 1928.6903148238541" />
    <path d="M1246.1003202164047 1928.6903148238541 L1065.3096851761459 1760.1003202164047" />
    <path d="M1065.3096851761459 1760.1003202164047 L1233.8996797835953 1579.3096851761459" />
    <path d="M1237.5614747278903 1614.2969807251925 L1379.7030192748075 1751.5614747278903" />
    <path d="M1379.7030192748075 1751.5614747278903 L1242.4385252721097 1893.7030192748075" />
    <path d="M1242.4385252721097 1893.7030192748075 L1100.2969807251925 1756.4385252721097" />
    <path d="M1100.2969807251925 1756.4385252721097 L1237.5614747278903 1614.2969807251925" />
    <path d="M1240 1649.348196384391 L1344.651803615609 1754" />
    <path d="M1344.651803615609 1754 L1240 1858.651803615609" />
    <path d="M1240 1858.651803615609 L1135.348196384391 1754" />
    <path d="M1135.348196384391 1754 L1240 1649.348196384391" />
    <path d="M1241.2143263500789 1684.4312899967556 L1309.5687100032444 1755.2143263500789" />
    <path d="M1309.5687100032444 1755.2143263500789 L1238.7856736499211 1823.5687100032444" />
    <path d="M1238.7856736499211 1823.5687100032444 L1170.4312899967556 1752.7856736499211" />
    <path d="M1170.4312899967556 1752.7856736499211 L1241.2143263500789 1684.4312899967556" />
    <path d="M1241.2042703339828 1719.5142096949676 L1274.4857903050324 1755.2042703339828" />
    <path d="M1274.4857903050324 1755.2042703339828 L1238.7957296660172 1788.4857903050324" />
    <path d="M1238.7957296660172 1788.4857903050324 L1205.5142096949676 1752.7957296660172" />
    <path d="M1205.5142096949676 1752.7957296660172 L1241.2042703339828 1719.5142096949676" />
    <path d="M1239.9703943123525 1754.5649101727347 L1239.4350898272653 1753.9703943123525" />
    <path d="M1239.4350898272653 1753.9703943123525 L1240.0296056876475 1753.4350898272653" />
    <path d="M1240.0296056876475 1753.4350898272653 L1240.5649101727347 1754.0296056876475" />
    <path d="M1240.5649101727347 1754.0296056876475 L1239.9703943123525 1754.5649101727347" />
    <path d="M1237.514006108947 1789.5513689521747 L1204.4486310478253 1751.514006108947" />
    <path d="M1204.4486310478253 1751.514006108947 L1242.485993891053 1718.4486310478253" />
    <path d="M1242.485993891053 1718.4486310478253 L1275.5513689521747 1756.485993891053" />
    <path d="M1275.5513689521747 1756.485993891053 L1237.514006108947 1789.5513689521747" />
  </g>
</svg>