<?xml version="1.0" standalone="no"?>
<!DOCTYPE svg PUBLIC "-//W3C//DTD SVG 1.1//EN" 
    "http://www.w3.org/Graphics/SVG/1.1/DTD/svg11.dtd">
<svg width="21cm" height="29.7cm"
    xmlns="http://www.w3.org/2000/svg" version="1.1" viewBox="0 0 744.09449 1052.3622">
  <g fill="none" stroke="black" stroke-width="0.03cm">
    <path d="M38.33017 32.94724 L67.68275 32.74032" />
    <path d="M67.68275 32.74032 L69.66715 71.98898" />
    <path d="M69.66715 71.98898 L36.12536 71.53237" />
    <path d="M36.12536 71.53237 L38.33017 32.94724" />
    <path d="M34.16795 79.31546 L70.71003 77.79801" />
    <path d="M70.71003 77.79801 L67.96747 115.87281" />
    <path d="M67.96747 115.87281 L33.49794 111.21159" />
    <path d="M33.49794 111.21159 L34.16795 79.31546" />
    <path d="M36.97335 119.05576 L72.00354 121.68805" />
    <path d="M72.00354 121.68805 L69.40209 157.25748" />
    <path d="M69.40209 157.25748 L35.41447 155.88689" />
    <path d="M35.41447 155.88689 L36.97335 119.05576" />
    <path d="M36.02925 162.41537 L68.19191 160.67169" />
    <path d="M68.19191 160.67169 L68.72767 200.332" />
    <path d="M68.72767 200.332 L33.77529 196.59536" />
    <path d="M33.77529 196.59536 L36.02925 162.41537" />
    <path d="M38.32511 203.0297 L71.03242 205.67966" />
    <path d="M71.03242 205.67966 L67.72726 243.60586" />
    <path d="M67.72726 243.60586 L34.88415 240.3784" />
    <path d="M34.88415 240.3784 L38.32511 203.0297" />
    <path d="M37.6129 246.09194 L67.6403 245.30859" />
    <path d="M67.6403 245.30859 L68.94298 285.1985" />
    <path d="M68.94298 285.1985 L33.37831 281.13787" />
    <path d="M33.37831 281.13787 L37.6129 246.09194" />
    <path d="M35.49284 290.49162 L69.87381 289.61156" />
    <path d="M69.87381 289.61156 L67.92891 328.49946" />
    <path d="M67.92891 328.49946 L35.41151 325.96266" />
    <path d="M35.41151 325.96266 L35.49284 290.49162" />
    <path d="M33.47376 335.27572 L71.35621 333.57488" />
    <path d="M71.35621 333.57488 L69.01899 370.1759" />
    <path d="M69.01899 370.1759 L38.34534 371.00088" />
    <path d="M38.34534 371.00088 L33.47376 335.27572" />
    <path d="M32.75076 378.75929 L71.80567 376.58278" />
    <path d="M71.80567 376.58278 L70.4526 411.42773" />
    <path d="M70.4526 411.42773 L36.26516 411.81835" />
    <path d="M36.26516 411.81835 L32.75076 378.75929" />
    <path d="M38.10813 415.78918 L67.54984 415.32349" />
    <path d="M67.54984 415.32349 L70.99493 453.41358" />
    <path d="M70.99493 453.41358 L38.41612 456.0919" />
    <path d="M38.41612 456.0919 L38.10813 415.78918" />
    <path d="M37.09849 459.10814 L70.02288 459.82502" />
    <path d="M70.02288 459.82502 L72.33201 494.46436" />
    <path d="M72.33201 494.46436 L38.4463 498.63349" />
    <path d="M38.4463 498.63349 L37.09849 459.10814" />
    <path d="M32.84826 506.1826 L72.70223 505.19942" />
    <path d="M72.70223 505.19942 L67.81924 541.17755" />
    <path d="M67.81924 541.17755 L35.95473 539.08941" />
    <path d="M35.95473 539.08941 L32.84826 506.1826" />
    <path d="M33.26043 548.14864 L68.41471 543.51807" />
    <path d="M68.41471 543.51807 L70.17164 581.77065" />
    <path d="M70.17164 581.77065 L34.51412 580.13306" />
    <path d="M34.51412 580.13306 L33.26043 548.14864" />
    <path d="M37.03267 586.7223 L72.19211 589.62257" />
    <path d="M72.19211 589.62257 L72.49415 621.82845" />
    <path d="M72.49415 621.82845 L35.61265 623.79982" />
    <path d="M35.61265 623.79982 L37.03267 586.7223" />
    <path d="M32.78742 633.82613 L68.9268 628.96161" />
    <path d="M68.9268 628.96161 L70.27505 666.71373" />
    <path d="M70.27505 666.71373 L38.41963 668.69288" />
    <path d="M38.41963 668.69288 L32.78742 633.82613" />
    <path d="M35.17988 673.48521 L71.57583 673.96767" />
    <path d="M71.57583 673.96767 L72.26579 707.14127" />
    <path d="M72.26579 707.14127 L38.60109 711.34322" />
    <path d="M38.60109 711.34322 L35.17988 673.48521" />
    <path d="M36.61466 714.64046 L73.21742 718.46343" />
    <path d="M73.21742 718.46343 L69.40507 752.53054" />
    <path d="M69.40507 752.53054 L37.90829 753.35058" />
    <path d="M37.90829 753.35058 L36.61466 714.64046" />
    <path d="M32.8669 761.27497 L70.34088 757.75758" />
    <path d="M70.34088 757.75758 L71.97663 792.51587" />
    <path d="M71.97663 792.51587 L36.22714 794.46076" />
    <path d="M36.22714 794.46076 L32.8669 761.27497" />
    <path d="M33.67734 802.73745 L72.52666 802.62058" />
    <path d="M72.52666 802.62058 L71.50646 835.55613" />
    <path d="M71.50646 835.55613 L33.34397 833.84956" />
    <path d="M33.34397 833.84956 L33.67734 802.73745" />
    <path d="M33.65686 845.28246 L72.14335 844.68382" />
    <path d="M72.14335 844.68382 L68.37938 880.91847" />
    <path d="M68.37938 880.91847 L33.33687 876.36008" />
    <path d="M33.33687 876.36008 L33.65686 845.28246" />
    <path d="M37.9058 883.6592 L71.88428 886.90711" />
    <path d="M71.88428 886.90711 L69.90074 922.17529" />
    <path d="M69.90074 922.17529 L36.0116 921.82007" />
    <path d="M36.0116 921.82007 L37.9058 883.6592" />
    <path d="M34.24422 929.62105 L71.5084 929.01289" />
    <path d="M71.5084 929.01289 L72.00479 962.56249" />
    <path d="M72.00479 962.56249 L38.18449 966.15768" />
    <path d="M38.18449 966.15768 L34.24422 929.62105" />
    <path d="M79.61078 33.91746 L112.47148 34.56366" />
    <path d="M112.47148 34.56366 L114.03996 70.18691" />
    <path d="M114.03996 70.18691 L75.7526 68.35082" />
    <path d="M75.7526 68.35082 L79.61078 33.91746" />
    <path d="M77.25057 78.68395 L115.75929 80.69787" />
    <path d="M115.75929 80.69787 L114.46725 112.23395" />
    <path d="M114.46725 112.23395 L77.35131 112.76323" />
    <path d="M77.35131 112.76323 L77.25057 78.68395" />
    <path d="M77.39097 121.05264 L115.3106 122.63358" />
    <path d="M115.3106 122.63358 L112.87827 156.39893" />
    <path d="M112.87827 156.39893 L77.36298 155.29541" />
    <path d="M77.36298 155.29541 L77.39097 121.05264" />
    <path d="M77.10877 163.87838 L114.71432 164.42867" />
    <path d="M114.71432 164.42867 L113.51494 198.29514" />
    <path d="M113.51494 198.29514 L78.89544 199.32019" />
    <path d="M78.89544 199.32019 L77.10877 163.87838" />
    <path d="M79.40238 204.17214 L111.9376 204.17334" />
    <path d="M111.9376 204.17334 L114.32584 239.95212" />
    <path d="M114.32584 239.95212 L77.85893 240.85056" />
    <path d="M77.85893 240.85056 L79.40238 204.17214" />
    <path d="M77.89733 248.08709 L113.66227 248.31232" />
    <path d="M113.66227 248.31232 L114.22933 282.57884" />
    <path d="M114.22933 282.57884 L75.47658 280.58063" />
    <path d="M75.47658 280.58063 L77.89733 248.08709" />
    <path d="M80.72957 288.15414 L112.36645 289.58735" />
    <path d="M112.36645 289.58735 L112.78746 326.56306" />
    <path d="M112.78746 326.56306 L78.45232 326.47011" />
    <path d="M78.45232 326.47011 L80.72957 288.15414" />
    <path d="M80.95763 330.50642 L111.39067 331.2787" />
    <path d="M111.39067 331.2787 L113.996 367.87198" />
    <path d="M113.996 367.87198 L75.70262 365.92289" />
    <path d="M75.70262 365.92289 L80.95763 330.50642" />
    <path d="M80.44561 373.40757 L115.34139 377.79065" />
    <path d="M115.34139 377.79065 L110.35642 413.60584" />
    <path d="M110.35642 413.60584 L79.24154 412.22481" />
    <path d="M79.24154 412.22481 L80.44561 373.40757" />
    <path d="M78.64558 417.44351 L113.76777 418.5006" />
    <path d="M113.76777 418.5006 L113.03271 453.88953" />
    <path d="M113.03271 453.88953 L80.62899 455.86525" />
    <path d="M80.62899 455.86525 L78.64558 417.44351" />
    <path d="M79.61523 459.11059 L112.76031 460.02575" />
    <path d="M112.76031 460.02575 L113.12614 496.31893" />
    <path d="M113.12614 496.31893 L75.83724 493.65792" />
    <path d="M75.83724 493.65792 L79.61523 459.11059" />
    <path d="M77.29916 503.82826 L113.12498 502.89255" />
    <path d="M113.12498 502.89255 L114.56123 537.32354" />
    <path d="M114.56123 537.32354 L79.74238 540.20742" />
    <path d="M79.74238 540.20742 L77.29916 503.82826" />
    <path d="M77.95416 545.66789 L113.96185 546.26468" />
    <path d="M113.96185 546.26468 L112.88892 581.5857" />
    <path d="M112.88892 581.5857 L78.63406 581.75842" />
    <path d="M78.63406 581.75842 L77.95416 545.66789" />
    <path d="M78.42152 587.7323 L115.69014 590.84175" />
    <path d="M115.69014 590.84175 L114.32276 622.63272" />
    <path d="M114.32276 622.63272 L75.16486 620.30411" />
    <path d="M75.16486 620.30411 L78.42152 587.7323" />
    <path d="M77.22336 631.46941 L115.42874 633.02015" />
    <path d="M115.42874 633.02015 L110.36375 668.71865" />
    <path d="M110.36375 668.71865 L79.35761 667.44309" />
    <path d="M79.35761 667.44309 L77.22336 631.46941" />
    <path d="M78.02739 673.15403 L114.69287 674.63983" />
    <path d="M114.69287 674.63983 L111.05246 710.72137" />
    <path d="M111.05246 710.72137 L78.01764 708.72607" />
    <path d="M78.01764 708.72607 L78.02739 673.15403" />
    <path d="M79.80219 714.0742 L112.76152 715.14499" />
    <path d="M112.76152 715.14499 L110.29899 753.80475" />
    <path d="M110.29899 753.80475 L75.70125 748.59826" />
    <path d="M75.70125 748.59826 L79.80219 714.0742" />
    <path d="M80.48552 756.05427 L113.85228 758.74679" />
    <path d="M113.85228 758.74679 L113.94429 793.12414" />
    <path d="M113.94429 793.12414 L79.07248 794.75383" />
    <path d="M79.07248 794.75383 L80.48552 756.05427" />
    <path d="M78.21715 800.5269 L110.73227 798.4825" />
    <path d="M110.73227 798.4825 L112.01483 837.49274" />
    <path d="M112.01483 837.49274 L78.92468 837.14178" />
    <path d="M78.92468 837.14178 L78.21715 800.5269" />
    <path d="M75.37832 846.32574 L111.76814 841.82523" />
    <path d="M111.76814 841.82523 L116.12842 875.48652" />
    <path d="M116.12842 875.48652 L80.0808 880.63867" />
    <path d="M80.0808 880.63867 L75.37832 846.32574" />
    <path d="M80.84485 883.34461 L110.11107 883.06927" />
    <path d="M110.11107 883.06927 L115.91035 918.30985" />
    <path d="M115.91035 918.30985 L76.35741 919.50584" />
    <path d="M76.35741 919.50584 L80.84485 883.34461" />
    <path d="M76.75671 929.62933 L110.59297 925.93751" />
    <path d="M110.59297 925.93751 L115.61973 961.21988" />
    <path d="M115.61973 961.21988 L80.73798 966.18281" />
    <path d="M80.73798 966.18281 L76.75671 929.62933" />
    <path d="M120.99806 34.9226 L156.88737 36.47264" />
    <path d="M156.88737 36.47264 L157.17123 69.50275" />
    <path d="M157.17123 69.50275 L119.05123 69.3205" />
    <path d="M119.05123 69.3205 L120.99806 34.9226" />
    <path d="M122.67549 75.99487 L156.47341 78.53947" />
    <path d="M156.47341 78.53947 L153.43951 115.54824" />
    <path d="M153.43951 115.54824 L123.63165 116.06134" />
    <path d="M123.63165 116.06134 L122.67549 75.99487" />
    <path d="M119.15668 121.89411 L153.85055 118.63223" />
    <path d="M153.85055 118.63223 L154.09115 157.55059" />
    <path d="M154.09115 157.55059 L123.28463 158.32878" />
    <path d="M123.28463 158.32878 L119.15668 121.89411" />
    <path d="M120.07153 163.40232 L153.15191 160.61234" />
    <path d="M153.15191 160.61234 L155.12548 199.1723" />
    <path d="M155.12548 199.1723 L119.86915 197.80062" />
    <path d="M119.86915 197.80062 L120.07153 163.40232" />
    <path d="M122.42136 203.757 L156.23915 205.85185" />
    <path d="M156.23915 205.85185 L156.49331 240.3369" />
    <path d="M156.49331 240.3369 L120.51521 240.98755" />
    <path d="M120.51521 240.98755 L122.42136 203.757" />
    <path d="M119.63322 248.9125 L153.47722 245.89808" />
    <path d="M153.47722 245.89808 L153.43942 285.62705" />
    <path d="M153.43942 285.62705 L120.91188 283.89337" />
    <path d="M120.91188 283.89337 L119.63322 248.9125" />
    <path d="M119.8013 291.24877 L154.98957 289.68032" />
    <path d="M154.98957 289.68032 L156.27342 325.60854" />
    <path d="M156.27342 325.60854 L119.3131 324.74353" />
    <path d="M119.3131 324.74353 L119.8013 291.24877" />
    <path d="M119.86748 333.69722 L153.45582 330.92098" />
    <path d="M153.45582 330.92098 L155.22649 369.15788" />
    <path d="M155.22649 369.15788 L118.99237 366.88838" />
    <path d="M118.99237 366.88838 L119.86748 333.69722" />
    <path d="M122.77454 373.55497 L153.71719 373.64428" />
    <path d="M153.71719 373.64428 L155.45865 411.45949" />
    <path d="M155.45865 411.45949 L120.80836 411.35329" />
    <path d="M120.80836 411.35329 L122.77454 373.55497" />
    <path d="M117.85231 421.19219 L153.93208 416.33559" />
    <path d="M153.93208 416.33559 L152.75966 456.20928" />
    <path d="M152.75966 456.20928 L119.83243 452.87929" />
    <path d="M119.83243 452.87929 L117.85231 421.19219" />
    <path d="M123.226 458.25017 L155.05544 459.81881" />
    <path d="M155.05544 459.81881 L154.74467 497.15231" />
    <path d="M154.74467 497.15231 L119.38744 494.90705" />
    <path d="M119.38744 494.90705 L123.226 458.25017" />
    <path d="M121.43469 502.23699 L154.83051 502.1362" />
    <path d="M154.83051 502.1362 L152.98495 541.0857" />
    <path d="M152.98495 541.0857 L118.56142 536.43888" />
    <path d="M118.56142 536.43888 L121.43469 502.23699" />
    <path d="M120.4499 545.69186 L155.40866 545.186" />
    <path d="M155.40866 545.186 L155.02346 581.94253" />
    <path d="M155.02346 581.94253 L119.22016 579.75455" />
    <path d="M119.22016 579.75455 L120.4499 545.69186" />
    <path d="M123.7538 585.42682 L155.33508 587.63635" />
    <path d="M155.33508 587.63635 L155.48334 624.03439" />
    <path d="M155.48334 624.03439 L121.04177 624.17364" />
    <path d="M121.04177 624.17364 L123.7538 585.42682" />
    <path d="M118.10669 633.44344 L155.02337 629.86841" />
    <path d="M155.02337 629.86841 L157.4357 664.46623" />
    <path d="M157.4357 664.46623 L121.53107 667.14057" />
    <path d="M121.53107 667.14057 L118.10669 633.44344" />
    <path d="M121.05802 672.66151 L155.08813 672.44705" />
    <path d="M155.08813 672.44705 L153.43025 710.83093" />
    <path d="M153.43025 710.83093 L118.31544 706.20247" />
    <path d="M118.31544 706.20247 L121.05802 672.66151" />
    <path d="M123.25195 713.34899 L153.98959 714.01998" />
    <path d="M153.98959 714.01998 L156.41612 750.65534" />
    <path d="M156.41612 750.65534 L120.96636 751.66162" />
    <path d="M120.96636 751.66162 L123.25195 713.34899" />
    <path d="M118.30969 760.73416 L157.77739 760.3623" />
    <path d="M157.77739 760.3623 L157.93644 791.40465" />
    <path d="M157.93644 791.40465 L119.38536 792.54249" />
    <path d="M119.38536 792.54249 L118.30969 760.73416" />
    <path d="M118.7728 802.66843 L158.52328 803.86607" />
    <path d="M158.52328 803.86607 L153.12408 838.62095" />
    <path d="M153.12408 838.62095 L120.54887 836.29657" />
    <path d="M120.54887 836.29657 L118.7728 802.66843" />
    <path d="M122.67328 841.35094 L158.11721 845.83756" />
    <path d="M158.11721 845.83756 L156.35562 878.27831" />
    <path d="M156.35562 878.27831 L118.28201 876.23756" />
    <path d="M118.28201 876.23756 L122.67328 841.35094" />
    <path d="M119.53618 886.81536 L157.56655 887.66059" />
    <path d="M157.56655 887.66059 L157.95108 918.94494" />
    <path d="M157.95108 918.94494 L119.20672 919.89645" />
    <path d="M119.20672 919.89645 L119.53618 886.81536" />
    <path d="M121.56878 927.31412 L158.25796 931.06343" />
    <path d="M158.25796 931.06343 L153.42727 965.95132" />
    <path d="M153.42727 965.95132 L118.12029 961.06297" />
    <path d="M118.12029 961.06297 L121.56878 927.31412" />
    <path d="M165.63748 33.13434 L200.87872 38.28623" />
    <path d="M200.87872 38.28623 L196.68441 72.45056" />
    <path d="M196.68441 72.45056 L160.37599 67.78974" />
    <path d="M160.37599 67.78974 L165.63748 33.13434" />
    <path d="M160.74473 80.53018 L200.005 79.68797" />
    <path d="M200.005 79.68797 L197.98087 113.81928" />
    <path d="M197.98087 113.81928 L164.07715 114.40813" />
    <path d="M164.07715 114.40813 L160.74473 80.53018" />
    <path d="M164.88112 118.7663 L198.6038 120.65287" />
    <path d="M198.6038 120.65287 L197.69411 156.6076" />
    <path d="M197.69411 156.6076 L162.81752 155.72916" />
    <path d="M162.81752 155.72916 L164.88112 118.7663" />
    <path d="M163.82783 162.1941 L198.36971 162.93682" />
    <path d="M198.36971 162.93682 L197.57846 199.23327" />
    <path d="M197.57846 199.23327 L163.06251 198.4953" />
    <path d="M163.06251 198.4953 L163.82783 162.1941" />
    <path d="M164.70198 203.95304 L200.57813 207.96547" />
    <path d="M200.57813 207.96547 L200.91788 238.03843" />
    <path d="M200.91788 238.03843 L160.77532 238.40771" />
    <path d="M160.77532 238.40771 L164.70198 203.95304" />
    <path d="M163.9185 247.15121 L200.05691 249.8296" />
    <path d="M200.05691 249.8296 L198.52147 283.36776" />
    <path d="M198.52147 283.36776 L160.80962 280.97233" />
    <path d="M160.80962 280.97233 L163.9185 247.15121" />
    <path d="M166.336 287.7451 L198.82213 290.95721" />
    <path d="M198.82213 290.95721 L198.28184 326.12646" />
    <path d="M198.28184 326.12646 L161.00342 323.74204" />
    <path d="M161.00342 323.74204 L166.336 287.7451" />
    <path d="M163.16755 332.89716 L200.37296 335.26108" />
    <path d="M200.37296 335.26108 L199.91621 366.87533" />
    <path d="M199.91621 366.87533 L164.74637 370.09948" />
    <path d="M164.74637 370.09948 L163.16755 332.89716" />
    <path d="M164.04576 374.59615 L195.24734 372.90174" />
    <path d="M195.24734 372.90174 L196.06605 413.1036" />
    <path d="M196.06605 413.1036 L161.38471 409.255" />
    <path d="M161.38471 409.255 L164.04576 374.59615" />
    <path d="M161.48183 419.76189 L198.56702 418.2532" />
    <path d="M198.56702 418.2532 L198.39356 453.57488" />
    <path d="M198.39356 453.57488 L162.11722 452.62289" />
    <path d="M162.11722 452.62289 L161.48183 419.76189" />
    <path d="M161.98784 461.69467 L200.19341 462.5954" />
    <path d="M200.19341 462.5954 L196.10232 498.11478" />
    <path d="M196.10232 498.11478 L165.14672 497.98257" />
    <path d="M165.14672 497.98257 L161.98784 461.69467" />
    <path d="M162.28678 503.88423 L199.9878 504.86407" />
    <path d="M199.9878 504.86407 L199.33389 537.62478" />
    <path d="M199.33389 537.62478 L162.10708 537.65103" />
    <path d="M162.10708 537.65103 L162.28678 503.88423" />
    <path d="M163.27944 545.38656 L197.0848 544.42341" />
    <path d="M197.0848 544.42341 L200.59215 578.63044" />
    <path d="M200.59215 578.63044 L163.64089 581.72819" />
    <path d="M163.64089 581.72819 L163.27944 545.38656" />
    <path d="M160.24461 591.44958 L196.67274 586.59491" />
    <path d="M196.67274 586.59491 L196.7468 625.15465" />
    <path d="M196.7468 625.15465 L162.26837 622.86744" />
    <path d="M162.26837 622.86744 L160.24461 591.44958" />
    <path d="M165.42111 628.57471 L198.71754 631.00591" />
    <path d="M198.71754 631.00591 L199.19297 665.33914" />
    <path d="M199.19297 665.33914 L161.61099 664.6434" />
    <path d="M161.61099 664.6434 L165.42111 628.57471" />
    <path d="M163.45844 672.774 L197.82824 672.65086" />
    <path d="M197.82824 672.65086 L197.13922 709.86016" />
    <path d="M197.13922 709.86016 L164.85275 710.3444" />
    <path d="M164.85275 710.3444 L163.45844 672.774" />
    <path d="M166.17871 713.05301 L196.20987 713.78047" />
    <path d="M196.20987 713.78047 L200.56571 748.7436" />
    <path d="M200.56571 748.7436 L161.77404 749.87284" />
    <path d="M161.77404 749.87284 L166.17871 713.05301" />
    <path d="M160.4916 761.18487 L200.90186 761.15233" />
    <path d="M200.90186 761.15233 L200.90758 790.80838" />
    <path d="M200.90758 790.80838 L163.35308 794.05454" />
    <path d="M163.35308 794.05454 L160.4916 761.18487" />
    <path d="M162.53103 801.26083 L197.43138 799.84645" />
    <path d="M197.43138 799.84645 L201.02996 833.15986" />
    <path d="M201.02996 833.15986 L160.93007 833.8844" />
    <path d="M160.93007 833.8844 L162.53103 801.26083" />
    <path d="M161.15716 845.3555 L199.99364 845.0286" />
    <path d="M199.99364 845.0286 L200.42936 876.47824" />
    <path d="M200.42936 876.47824 L165.11823 880.63713" />
    <path d="M165.11823 880.63713 L161.15716 845.3555" />
    <path d="M161.25639 887.75215 L196.83571 884.3686" />
    <path d="M196.83571 884.3686 L199.03269 920.63076" />
    <path d="M199.03269 920.63076 L162.43124 920.68061" />
    <path d="M162.43124 920.68061 L161.25639 887.75215" />
    <path d="M161.24609 930.28455 L200.89268 931.21858" />
    <path d="M200.89268 931.21858 L195.73499 966.11195" />
    <path d="M195.73499 966.11195 L164.51737 965.18349" />
    <path d="M164.51737 965.18349 L161.24609 930.28455" />
    <path d="M207.06504 34.00545 L241.0804 35.56963" />
    <path d="M241.0804 35.56963 L241.39056 70.40896" />
    <path d="M241.39056 70.40896 L205.36308 70.71615" />
    <path d="M205.36308 70.71615 L207.06504 34.00545" />
    <path d="M205.30519 78.16182 L242.08948 79.1766" />
    <path d="M242.08948 79.1766 L243.58583 110.27491" />
    <path d="M243.58583 110.27491 L203.36927 110.94569" />
    <path d="M203.36927 110.94569 L205.30519 78.16182" />
    <path d="M205.41286 120.57195 L242.07963 121.68503" />
    <path d="M242.07963 121.68503 L241.01329 155.83684" />
    <path d="M241.01329 155.83684 L205.18617 155.57377" />
    <path d="M205.18617 155.57377 L205.41286 120.57195" />
    <path d="M203.48234 165.28639 L242.51605 164.71693" />
    <path d="M242.51605 164.71693 L239.81426 199.48787" />
    <path d="M239.81426 199.48787 L208.57195 201.02962" />
    <path d="M208.57195 201.02962 L203.48234 165.28639" />
    <path d="M205.97511 205.06032 L240.50145 205.07921" />
    <path d="M240.50145 205.07921 L240.51814 241.36158" />
    <path d="M240.51814 241.36158 L207.74379 242.92555" />
    <path d="M207.74379 242.92555 L205.97511 205.06032" />
    <path d="M208.8469 245.23157 L240.89353 247.9803" />
    <path d="M240.89353 247.9803 L242.8097 281.37882" />
    <path d="M242.8097 281.37882 L206.25711 284.17975" />
    <path d="M206.25711 284.17975 L208.8469 245.23157" />
    <path d="M207.1978 289.01225 L241.02327 290.62991" />
    <path d="M241.02327 290.62991 L241.47209 325.44086" />
    <path d="M241.47209 325.44086 L206.00352 326.46268" />
    <path d="M206.00352 326.46268 L207.1978 289.01225" />
    <path d="M206.11544 332.48714 L238.50463 330.92824" />
    <path d="M238.50463 330.92824 L242.63433 366.63541" />
    <path d="M242.63433 366.63541 L207.74075 370.48221" />
    <path d="M207.74075 370.48221 L206.11544 332.48714" />
    <path d="M204.7196 376.41988 L239.66631 374.39824" />
    <path d="M239.66631 374.39824 L242.59386 409.20451" />
    <path d="M242.59386 409.20451 L205.3363 410.84635" />
    <path d="M205.3363 410.84635 L204.7196 376.41988" />
    <path d="M207.70864 416.15725 L240.02774 417.23829" />
    <path d="M240.02774 417.23829 L241.6826 452.7735" />
    <path d="M241.6826 452.7735 L207.91331 455.65607" />
    <path d="M207.91331 455.65607 L207.70864 416.15725" />
    <path d="M206.13722 460.02585 L243.24165 463.27268" />
    <path d="M243.24165 463.27268 L240.90651 496.10128" />
    <path d="M240.90651 496.10128 L204.14891 494.58611" />
    <path d="M204.14891 494.58611 L206.13722 460.02585" />
    <path d="M208.50549 500.59328 L242.81486 505.24181" />
    <path d="M242.81486 505.24181 L241.98131 537.48172" />
    <path d="M241.98131 537.48172 L202.88997 535.49836" />
    <path d="M202.88997 535.49836 L208.50549 500.59328" />
    <path d="M202.97284 548.63911 L240.96289 545.68732" />
    <path d="M240.96289 545.68732 L238.08807 583.55858" />
    <path d="M238.08807 583.55858 L206.38924 581.93834" />
    <path d="M206.38924 581.93834 L202.97284 548.63911" />
    <path d="M203.88366 589.98275 L243.17599 590.74495" />
    <path d="M243.17599 590.74495 L243.408 620.75586" />
    <path d="M243.408 620.75586 L207.2099 625.17104" />
    <path d="M207.2099 625.17104 L203.88366 589.98275" />
    <path d="M203.66608 632.77051 L241.68144 631.4772" />
    <path d="M241.68144 631.4772 L242.36855 664.59318" />
    <path d="M242.36855 664.59318 L205.21914 665.84415" />
    <path d="M205.21914 665.84415 L203.66608 632.77051" />
    <path d="M206.28247 672.48984 L242.55377 674.99874" />
    <path d="M242.55377 674.99874 L243.72514 705.35434" />
    <path d="M243.72514 705.35434 L208.71815 711.37049" />
    <path d="M208.71815 711.37049 L206.28247 672.48984" />
    <path d="M203.2495 718.34514 L240.45917 715.27528" />
    <path d="M240.45917 715.27528 L238.63243 753.22477" />
    <path d="M238.63243 753.22477 L205.88848 751.54993" />
    <path d="M205.88848 751.54993 L203.2495 718.34514" />
    <path d="M204.36119 759.49845 L242.78219 760.31906" />
    <path d="M242.78219 760.31906 L240.53504 794.10136" />
    <path d="M240.53504 794.10136 L203.40435 791.30615" />
    <path d="M203.40435 791.30615 L204.36119 759.49845" />
    <path d="M203.5506 802.99467 L237.96652 798.24221" />
    <path d="M237.96652 798.24221 L238.84943 838.09304" />
    <path d="M238.84943 838.09304 L206.00188 836.69735" />
    <path d="M206.00188 836.69735 L203.5506 802.99467" />
    <path d="M206.23258 842.61452 L239.10512 841.64117" />
    <path d="M239.10512 841.64117 L240.87013 878.8146" />
    <path d="M240.87013 878.8146 L208.20759 881.07675" />
    <path d="M208.20759 881.07675 L206.23258 842.61452" />
    <path d="M204.7911 886.57807 L240.81254 885.69542" />
    <path d="M240.81254 885.69542 L241.13979 921.06277" />
    <path d="M241.13979 921.06277 L204.46689 920.1493" />
    <path d="M204.46689 920.1493 L204.7911 886.57807" />
    <path d="M203.61157 930.47667 L242.47103 930.01711" />
    <path d="M242.47103 930.01711 L241.27055 963.44776" />
    <path d="M241.27055 963.44776 L207.74061 965.7577" />
    <path d="M207.74061 965.7577 L203.61157 930.47667" />
    <path d="M245.36701 38.57685 L282.73413 34.73158" />
    <path d="M282.73413 34.73158 L284.73159 69.50123" />
    <path d="M284.73159 69.50123 L246.31925 68.96965" />
    <path d="M246.31925 68.96965 L245.36701 38.57685" />
    <path d="M246.29231 79.8824 L281.46376 76.15604" />
    <path d="M281.46376 76.15604 L280.91347 115.61323" />
    <path d="M280.91347 115.61323 L248.72917 114.05705" />
    <path d="M248.72917 114.05705 L246.29231 79.8824" />
    <path d="M250.98569 117.94485 L280.8181 118.17287" />
    <path d="M280.8181 118.17287 L280.91092 158.13485" />
    <path d="M280.91092 158.13485 L248.99887 156.82274" />
    <path d="M248.99887 156.82274 L250.98569 117.94485" />
    <path d="M249.70253 161.46566 L284.75227 164.38107" />
    <path d="M284.75227 164.38107 L282.73727 199.12379" />
    <path d="M282.73727 199.12379 L247.10355 197.44589" />
    <path d="M247.10355 197.44589 L249.70253 161.46566" />
    <path d="M247.24416 206.3358 L286.26853 208.85266" />
    <path d="M286.26853 208.85266 L285.01552 239.24444" />
    <path d="M285.01552 239.24444 L245.7547 238.32861" />
    <path d="M245.7547 238.32861 L247.24416 206.3358" />
    <path d="M249.95695 246.2957 L282.313 246.95034" />
    <path d="M282.313 246.95034 L285.40458 281.28417" />
    <path d="M285.40458 281.28417 L249.46795 284.79298" />
    <path d="M249.46795 284.79298 L249.95695 246.2957" />
    <path d="M246.19577 292.60054 L285.06159 292.30721" />
    <path d="M285.06159 292.30721 L283.18035 326.26398" />
    <path d="M283.18035 326.26398 L247.24916 325.16574" />
    <path d="M247.24916 325.16574 L246.19577 292.60054" />
    <path d="M248.25185 332.85322 L285.27229 335.08534" />
    <path d="M285.27229 335.08534 L285.64935 366.00873" />
    <path d="M285.64935 366.00873 L249.0119 369.43286" />
    <path d="M249.0119 369.43286 L248.25185 332.85322" />
    <path d="M248.39825 375.23124 L282.23953 374.44491" />
    <path d="M282.23953 374.44491 L281.41495 412.85955" />
    <path d="M281.41495 412.85955 L245.79557 408.46131" />
    <path d="M245.79557 408.46131 L248.39825 375.23124" />
    <path d="M249.70488 416.58181 L282.95901 417.61871" />
    <path d="M282.95901 417.61871 L282.23049 454.69685" />
    <path d="M282.23049 454.69685 L250.49421 455.7032" />
    <path d="M250.49421 455.7032 L249.70488 416.58181" />
    <path d="M245.29821 463.87041 L284.95447 462.2572" />
    <path d="M284.95447 462.2572 L281.48842 497.83982" />
    <path d="M281.48842 497.83982 L250.37867 498.13367" />
    <path d="M250.37867 498.13367 L245.29821 463.87041" />
    <path d="M246.49701 504.83027 L282.72528 502.43995" />
    <path d="M282.72528 502.43995 L285.36659 536.45022" />
    <path d="M285.36659 536.45022 L247.65471 538.1977" />
    <path d="M247.65471 538.1977 L246.49701 504.83027" />
    <path d="M250.14757 543.7803 L285.44121 547.89616" />
    <path d="M285.44121 547.89616 L285.35693 578.98206" />
    <path d="M285.35693 578.98206 L249.09121 582.10217" />
    <path d="M249.09121 582.10217 L250.14757 543.7803" />
    <path d="M248.42186 587.80703 L283.8729 588.60695" />
    <path d="M283.8729 588.60695 L284.2214 622.8314" />
    <path d="M284.2214 622.8314 L245.38395 620.50193" />
    <path d="M245.38395 620.50193 L248.42186 587.80703" />
    <path d="M249.04554 629.7496 L284.95619 632.338" />
    <path d="M284.95619 632.338 L284.35125 665.20827" />
    <path d="M284.35125 665.20827 L246.62771 664.61669" />
    <path d="M246.62771 664.61669 L249.04554 629.7496" />
    <path d="M248.78426 672.50629 L284.33953 674.14883" />
    <path d="M284.33953 674.14883 L285.63647 706.18303" />
    <path d="M285.63647 706.18303 L247.43812 708.04747" />
    <path d="M247.43812 708.04747 L248.78426 672.50629" />
    <path d="M249.76159 714.17247 L281.58867 714.05257" />
    <path d="M281.58867 714.05257 L282.67968 751.93266" />
    <path d="M282.67968 751.93266 L250.21075 753.1202" />
    <path d="M250.21075 753.1202 L249.76159 714.17247" />
    <path d="M250.96527 755.75503 L281.1407 756.21516" />
    <path d="M281.1407 756.21516 L286.02894 790.69602" />
    <path d="M286.02894 790.69602 L249.36458 794.94036" />
    <path d="M249.36458 794.94036 L250.96527 755.75503" />
    <path d="M245.63046 803.5696 L285.56332 803.17079" />
    <path d="M285.56332 803.17079 L282.79002 836.87026" />
    <path d="M282.79002 836.87026 L245.96665 833.88081" />
    <path d="M245.96665 833.88081 L245.63046 803.5696" />
    <path d="M248.51328 842.83806 L280.45443 840.73882" />
    <path d="M280.45443 840.73882 L286.00498 875.76836" />
    <path d="M286.00498 875.76836 L245.85896 876.26095" />
    <path d="M245.85896 876.26095 L248.51328 842.83806" />
    <path d="M247.74517 886.1178 L282.56789 884.97334" />
    <path d="M282.56789 884.97334 L285.76039 918.61835" />
    <path d="M285.76039 918.61835 L248.64056 921.84866" />
    <path d="M248.64056 921.84866 L247.74517 886.1178" />
    <path d="M250.93955 925.85259 L281.74596 926.78042" />
    <path d="M281.74596 926.78042 L283.4019 963.84198" />
    <path d="M283.4019 963.84198 L249.59321 965.21431" />
    <path d="M249.59321 965.21431 L250.93955 925.85259" />
    <path d="M289.13791 36.96932 L326.70159 36.1807" />
    <path d="M326.70159 36.1807 L326.90163 69.8986" />
    <path d="M326.90163 69.8986 L288.60186 68.67395" />
    <path d="M288.60186 68.67395 L289.13791 36.96932" />
    <path d="M292.13122 76.50253 L324.43812 76.53113" />
    <path d="M324.43812 76.53113 L326.92978 112.38691" />
    <path d="M326.92978 112.38691 L290.2963 113.12723" />
    <path d="M290.2963 113.12723 L292.13122 76.50253" />
    <path d="M290.70866 120.31635 L328.78422 123.80759" />
    <path d="M328.78422 123.80759 L328.08943 153.51383" />
    <path d="M328.08943 153.51383 L289.37197 154.64201" />
    <path d="M289.37197 154.64201 L290.70866 120.31635" />
    <path d="M290.81748 162.72977 L324.25354 161.41605" />
    <path d="M324.25354 161.41605 L323.32697 200.7329" />
    <path d="M323.32697 200.7329 L289.22311 196.98915" />
    <path d="M289.22311 196.98915 L290.81748 162.72977" />
    <path d="M292.23012 203.97876 L323.20421 203.11237" />
    <path d="M323.20421 203.11237 L327.81275 238.90454" />
    <path d="M327.81275 238.90454 L293.80101 243.68478" />
    <path d="M293.80101 243.68478 L292.23012 203.97876" />
    <path d="M289.71729 248.90663 L323.70058 246.0103" />
    <path d="M323.70058 246.0103 L323.57487 285.58341" />
    <path d="M323.57487 285.58341 L291.22801 284.11647" />
    <path d="M291.22801 284.11647 L289.71729 248.90663" />
    <path d="M290.37477 290.72937 L324.7694 289.41444" />
    <path d="M324.7694 289.41444 L322.66834 328.77072" />
    <path d="M322.66834 328.77072 L290.03642 325.45408" />
    <path d="M290.03642 325.45408 L290.37477 290.72937" />
    <path d="M290.8864 332.74188 L323.81657 331.14092" />
    <path d="M323.81657 331.14092 L325.60908 368.87133" />
    <path d="M325.60908 368.87133 L290.46747 368.41983" />
    <path d="M290.46747 368.41983 L290.8864 332.74188" />
    <path d="M291.6522 374.55406 L327.26748 376.97429" />
    <path d="M327.26748 376.97429 L327.73357 409.08149" />
    <path d="M327.73357 409.08149 L289.54037 409.95154" />
    <path d="M289.54037 409.95154 L291.6522 374.55406" />
    <path d="M292.50423 416.35208 L325.87941 418.00601" />
    <path d="M325.87941 418.00601 L322.77528 456.25425" />
    <path d="M322.77528 456.25425 L288.36608 451.04768" />
    <path d="M288.36608 451.04768 L292.50423 416.35208" />
    <path d="M289.43594 461.82026 L326.67089 461.34427" />
    <path d="M326.67089 461.34427 L322.83656 498.73027" />
    <path d="M322.83656 498.73027 L289.34533 494.76884" />
    <path d="M289.34533 494.76884 L289.43594 461.82026" />
    <path d="M288.14607 505.9373 L323.26028 500.79192" />
    <path d="M323.26028 500.79192 L326.60211 537.94248" />
    <path d="M326.60211 537.94248 L292.36785 540.22965" />
    <path d="M292.36785 540.22965 L288.14607 505.9373" />
    <path d="M292.57014 543.85797 L326.52083 546.22263" />
    <path d="M326.52083 546.22263 L326.9695 580.059" />
    <path d="M326.9695 580.059 L290.5481 581.09928" />
    <path d="M290.5481 581.09928 L292.57014 543.85797" />
    <path d="M289.32023 589.5121 L325.15246 587.39452" />
    <path d="M325.15246 587.39452 L324.40867 625.06852" />
    <path d="M324.40867 625.06852 L289.69521 622.72256" />
    <path d="M289.69521 622.72256 L289.32023 589.5121" />
    <path d="M292.00056 629.36921 L328.12286 633.14368" />
    <path d="M328.12286 633.14368 L324.89268 667.16984" />
    <path d="M324.89268 667.16984 L288.30665 663.56808" />
    <path d="M288.30665 663.56808 L292.00056 629.36921" />
    <path d="M291.31896 672.49248 L324.95755 672.25797" />
    <path d="M324.95755 672.25797 L325.73404 708.90814" />
    <path d="M325.73404 708.90814 L289.85864 707.94068" />
    <path d="M289.85864 707.94068 L291.31896 672.49248" />
    <path d="M290.58272 715.71655 L327.26612 717.13018" />
    <path d="M327.26612 717.13018 L326.85951 750.26029" />
    <path d="M326.85951 750.26029 L291.12126 751.7334" />
    <path d="M291.12126 751.7334 L290.58272 715.71655" />
    <path d="M291.08298 757.75142 L325.5636 757.85682" />
    <path d="M325.5636 757.85682 L326.51124 793.15763" />
    <path d="M326.51124 793.15763 L289.39697 792.46594" />
    <path d="M289.39697 792.46594 L291.08298 757.75142" />
    <path d="M291.33705 800.03494 L327.7104 802.70099" />
    <path d="M327.7104 802.70099 L326.35452 835.8423" />
    <path d="M326.35452 835.8423 L292.51755 837.98941" />
    <path d="M292.51755 837.98941 L291.33705 800.03494" />
    <path d="M290.47752 843.38106 L326.25766 843.58478" />
    <path d="M326.25766 843.58478 L328.63227 875.61938" />
    <path d="M328.63227 875.61938 L292.81647 880.74697" />
    <path d="M292.81647 880.74697 L290.47752 843.38106" />
    <path d="M289.07879 887.43318 L328.50245 888.7681" />
    <path d="M328.50245 888.7681 L328.27358 918.62696" />
    <path d="M328.27358 918.62696 L289.33106 919.94923" />
    <path d="M289.33106 919.94923 L289.07879 887.43318" />
    <path d="M292.12709 926.89971 L328.13481 930.79702" />
    <path d="M328.13481 930.79702 L326.55979 963.18465" />
    <path d="M326.55979 963.18465 L291.0393 964.25456" />
    <path d="M291.0393 964.25456 L292.12709 926.89971" />
    <path d="M330.7371 38.12507 L366.67345 33.77476" />
    <path d="M366.67345 33.77476 L367.73848 71.59987" />
    <path d="M367.73848 71.59987 L336.14025 73.47723" />
    <path d="M336.14025 73.47723 L330.7371 38.12507" />
    <path d="M334.27879 76.82209 L366.68594 76.30469" />
    <path d="M366.68594 76.30469 L366.18856 115.43177" />
    <path d="M366.18856 115.43177 L331.0447 111.09579" />
    <path d="M331.0447 111.09579 L334.27879 76.82209" />
    <path d="M333.1995 120.34473 L365.79408 118.1253" />
    <path d="M365.79408 118.1253 L365.55118 158.43205" />
    <path d="M365.55118 158.43205 L333.20611 156.03973" />
    <path d="M333.20611 156.03973 L333.1995 120.34473" />
    <path d="M331.98243 164.15197 L369.88233 164.48723" />
    <path d="M369.88233 164.48723 L366.62324 200.12457" />
    <path d="M366.62324 200.12457 L331.76655 197.01689" />
    <path d="M331.76655 197.01689 L331.98243 164.15197" />
    <path d="M335.40609 203.45041 L365.31648 202.81617" />
    <path d="M365.31648 202.81617 L369.6746 239.69118" />
    <path d="M369.6746 239.69118 L335.337 242.95235" />
    <path d="M335.337 242.95235 L335.40609 203.45041" />
    <path d="M334.30816 246.87514 L368.85494 248.3896" />
    <path d="M368.85494 248.3896 L367.00955 284.84235" />
    <path d="M367.00955 284.84235 L333.08684 283.48052" />
    <path d="M333.08684 283.48052 L334.30816 246.87514" />
    <path d="M334.53385 289.20012 L366.45928 288.71923" />
    <path d="M366.45928 288.71923 L365.47195 328.56834" />
    <path d="M365.47195 328.56834 L332.96724 325.88001" />
    <path d="M332.96724 325.88001 L334.53385 289.20012" />
    <path d="M334.35632 331.87257 L366.91167 331.61035" />
    <path d="M366.91167 331.61035 L367.60212 369.36202" />
    <path d="M367.60212 369.36202 L336.33582 371.25452" />
    <path d="M336.33582 371.25452 L334.35632 331.87257" />
    <path d="M331.47278 377.34787 L369.97705 377.19782" />
    <path d="M369.97705 377.19782 L365.42154 413.64408" />
    <path d="M365.42154 413.64408 L333.69481 411.62633" />
    <path d="M333.69481 411.62633 L331.47278 377.34787" />
    <path d="M332.65674 418.53427 L365.89699 415.84049" />
    <path d="M365.89699 415.84049 L365.44743 456.14511" />
    <path d="M365.44743 456.14511 L332.57535 453.03352" />
    <path d="M332.57535 453.03352 L332.65674 418.53427" />
    <path d="M333.68153 460.03961 L366.76932 459.05062" />
    <path d="M366.76932 459.05062 L368.00192 496.55117" />
    <path d="M368.00192 496.55117 L335.93153 498.52204" />
    <path d="M335.93153 498.52204 L333.68153 460.03961" />
    <path d="M331.36056 505.04372 L370.71686 505.68168" />
    <path d="M370.71686 505.68168 L370.02669 536.9161" />
    <path d="M370.02669 536.9161 L330.3849 535.4088" />
    <path d="M330.3849 535.4088 L331.36056 505.04372" />
    <path d="M333.58371 545.17088 L368.56465 545.73021" />
    <path d="M368.56465 545.73021 L367.10463 582.39896" />
    <path d="M367.10463 582.39896 L335.50643 583.24139" />
    <path d="M335.50643 583.24139 L333.58371 545.17088" />
    <path d="M331.79738 589.56139 L366.67601 586.53277" />
    <path d="M366.67601 586.53277 L367.0769 624.94241" />
    <path d="M367.0769 624.94241 L333.67284 624.20423" />
    <path d="M333.67284 624.20423 L331.79738 589.56139" />
    <path d="M334.92052 629.03465 L368.55161 630.75646" />
    <path d="M368.55161 630.75646 L370.96439 663.27916" />
    <path d="M370.96439 663.27916 L333.85999 666.89717" />
    <path d="M333.85999 666.89717 L334.92052 629.03465" />
    <path d="M334.45633 671.94363 L369.23415 673.98998" />
    <path d="M369.23415 673.98998 L371.01187 705.73414" />
    <path d="M371.01187 705.73414 L335.8054 711.02699" />
    <path d="M335.8054 711.02699 L334.45633 671.94363" />
    <path d="M335.87888 713.32785 L371.00395 718.66449" />
    <path d="M371.00395 718.66449 L366.48847 752.98962" />
    <path d="M366.48847 752.98962 L334.0776 752.13363" />
    <path d="M334.0776 752.13363 L335.87888 713.32785" />
    <path d="M330.69602 761.01469 L369.31934 759.12251" />
    <path d="M369.31934 759.12251 L370.63232 791.27903" />
    <path d="M370.63232 791.27903 L335.75199 796.0264" />
    <path d="M335.75199 796.0264 L330.69602 761.01469" />
    <path d="M330.67992 803.55601 L365.85174 798.48353" />
    <path d="M365.85174 798.48353 L370.06164 834.5119" />
    <path d="M370.06164 834.5119 L332.82619 835.97237" />
    <path d="M332.82619 835.97237 L330.67992 803.55601" />
    <path d="M333.68653 842.71211 L370.78953 845.93501" />
    <path d="M370.78953 845.93501 L365.22924 881.49762" />
    <path d="M365.22924 881.49762 L331.95134 877.54494" />
    <path d="M331.95134 877.54494 L333.68653 842.71211" />
    <path d="M332.80845 886.09313 L370.48901 888.06436" />
    <path d="M370.48901 888.06436 L367.27456 922.40928" />
    <path d="M367.27456 922.40928 L336.31445 923.99532" />
    <path d="M336.31445 923.99532 L332.80845 886.09313" />
    <path d="M336.28314 925.63317 L371.03712 931.30832" />
    <path d="M371.03712 931.30832 L369.07726 963.18702" />
    <path d="M369.07726 963.18702 L333.50847 964.20658" />
    <path d="M333.50847 964.20658 L336.28314 925.63317" />
    <path d="M373.2846 38.08802 L413.36263 38.13207" />
    <path d="M413.36263 38.13207 L409.02849 72.65829" />
    <path d="M409.02849 72.65829 L374.41116 69.60243" />
    <path d="M374.41116 69.60243 L373.2846 38.08802" />
    <path d="M373.16283 80.77096 L413.51985 80.86405" />
    <path d="M413.51985 80.86405 L412.55418 111.70988" />
    <path d="M412.55418 111.70988 L377.14649 114.81574" />
    <path d="M377.14649 114.81574 L373.16283 80.77096" />
    <path d="M378.09974 118.27697 L410.88726 120.33712" />
    <path d="M410.88726 120.33712 L411.56262 155.3496" />
    <path d="M411.56262 155.3496 L378.2981 158.25092" />
    <path d="M378.2981 158.25092 L378.09974 118.27697" />
    <path d="M378.62499 160.40627 L410.02679 162.04847" />
    <path d="M410.02679 162.04847 L408.36607 200.7331" />
    <path d="M408.36607 200.7331 L376.05746 198.88011" />
    <path d="M376.05746 198.88011 L378.62499 160.40627" />
    <path d="M376.91302 204.28143 L411.01069 205.49889" />
    <path d="M411.01069 205.49889 L409.35987 242.46528" />
    <path d="M409.35987 242.46528 L375.60153 240.95585" />
    <path d="M375.60153 240.95585 L376.91302 204.28143" />
    <path d="M378.29036 245.69188 L411.76389 248.80408" />
    <path d="M411.76389 248.80408 L411.38488 283.09579" />
    <path d="M411.38488 283.09579 L373.81958 281.49567" />
    <path d="M373.81958 281.49567 L378.29036 245.69188" />
    <path d="M375.28102 290.86622 L409.78699 289.39541" />
    <path d="M409.78699 289.39541 L412.53463 324.33174" />
    <path d="M412.53463 324.33174 L376.26334 326.63241" />
    <path d="M376.26334 326.63241 L375.28102 290.86622" />
    <path d="M373.96721 334.8588 L412.8473 335.10521" />
    <path d="M412.8473 335.10521 L408.49065 370.71755" />
    <path d="M408.49065 370.71755 L377.03749 369.84131" />
    <path d="M377.03749 369.84131 L373.96721 334.8588" />
    <path d="M377.42633 373.9279 L413.41329 378.35744" />
    <path d="M413.41329 378.35744 L411.1422 410.90424" />
    <path d="M411.1422 410.90424 L378.03254 413.16759" />
    <path d="M378.03254 413.16759 L377.42633 373.9279" />
    <path d="M378.61318 415.53292 L407.70202 415.31977" />
    <path d="M407.70202 415.31977 L410.9765 453.5903" />
    <path d="M410.9765 453.5903 L373.4458 451.1003" />
    <path d="M373.4458 451.1003 L378.61318 415.53292" />
    <path d="M374.27486 462.0515 L411.54068 461.16253" />
    <path d="M411.54068 461.16253 L411.01314 496.07346" />
    <path d="M411.01314 496.07346 L377.9576 498.14909" />
    <path d="M377.9576 498.14909 L374.27486 462.0515" />
    <path d="M374.77309 504.00666 L411.77982 503.93955" />
    <path d="M411.77982 503.93955 L411.03131 538.57498" />
    <path d="M411.03131 538.57498 L372.95765 535.48297" />
    <path d="M372.95765 535.48297 L374.77309 504.00666" />
    <path d="M378.81506 542.94733 L408.00009 543.09132" />
    <path d="M408.00009 543.09132 L413.46718 578.26272" />
    <path d="M413.46718 578.26272 L378.25174 583.41301" />
    <path d="M378.25174 583.41301 L378.81506 542.94733" />
    <path d="M376.89363 586.97539 L408.38197 585.89304" />
    <path d="M408.38197 585.89304 L412.89232 621.53144" />
    <path d="M412.89232 621.53144 L372.82531 620.33631" />
    <path d="M372.82531 620.33631 L376.89363 586.97539" />
    <path d="M376.63013 629.72679 L410.38131 630.08883" />
    <path d="M410.38131 630.08883 L412.79666 664.17028" />
    <path d="M412.79666 664.17028 L377.73898 668.05643" />
    <path d="M377.73898 668.05643 L376.63013 629.72679" />
    <path d="M372.81076 676.53475 L411.15854 673.3643" />
    <path d="M411.15854 673.3643 L413.65377 705.56554" />
    <path d="M413.65377 705.56554 L374.12355 707.06143" />
    <path d="M374.12355 707.06143 L372.81076 676.53475" />
    <path d="M376.75383 714.65657 L408.06023 713.21374" />
    <path d="M408.06023 713.21374 L407.80766 753.89701" />
    <path d="M407.80766 753.89701 L374.02004 749.4571" />
    <path d="M374.02004 749.4571 L376.75383 714.65657" />
    <path d="M373.23259 760.99206 L410.81143 758.05803" />
    <path d="M410.81143 758.05803 L410.89384 793.82963" />
    <path d="M410.89384 793.82963 L373.88702 791.81499" />
    <path d="M373.88702 791.81499 L373.23259 760.99206" />
    <path d="M375.24903 801.13564 L413.26203 803.35298" />
    <path d="M413.26203 803.35298 L408.27808 838.59425" />
    <path d="M408.27808 838.59425 L376.55413 837.13428" />
    <path d="M376.55413 837.13428 L375.24903 801.13564" />
    <path d="M373.27106 845.98006 L411.45747 843.75183" />
    <path d="M411.45747 843.75183 L411.12545 878.63774" />
    <path d="M411.12545 878.63774 L376.47542 879.58288" />
    <path d="M376.47542 879.58288 L373.27106 845.98006" />
    <path d="M373.65383 888.00302 L413.44635 888.63823" />
    <path d="M413.44635 888.63823 L412.78034 919.30857" />
    <path d="M412.78034 919.30857 L374.0558 919.57886" />
    <path d="M374.0558 919.57886 L373.65383 888.00302" />
    <path d="M377.9712 926.24982 L412.94682 930.50561" />
    <path d="M412.94682 930.50561 L412.91144 961.66493" />
    <path d="M412.91144 961.66493 L378.00745 965.90417" />
    <path d="M378.00745 965.90417 L377.9712 926.24982" />
    <path d="M420.50734 33.32371 L450.61923 32.92748" />
    <path d="M450.61923 32.92748 L450.84042 73.20806" />
    <path d="M450.84042 73.20806 L419.26013 71.94582" />
    <path d="M419.26013 71.94582 L420.50734 33.32371" />
    <path d="M420.99312 75.47736 L453.98371 78.40439" />
    <path d="M453.98371 78.40439 L453.89061 113.03158" />
    <path d="M453.89061 113.03158 L419.3298 114.52668" />
    <path d="M419.3298 114.52668 L420.99312 75.47736" />
    <path d="M416.78581 121.90423 L451.24418 118.43917" />
    <path d="M451.24418 118.43917 L453.5435 155.90531" />
    <path d="M453.5435 155.90531 L416.57439 154.22323" />
    <path d="M416.57439 154.22323 L416.78581 121.90423" />
    <path d="M418.65203 162.46641 L454.32012 163.80459" />
    <path d="M454.32012 163.80459 L453.58931 198.37907" />
    <path d="M453.58931 198.37907 L417.582 197.88071" />
    <path d="M417.582 197.88071 L418.65203 162.46641" />
    <path d="M417.02732 206.66537 L454.80235 206.86746" />
    <path d="M454.80235 206.86746 L453.58418 240.90391" />
    <path d="M453.58418 240.90391 L415.71237 238.16695" />
    <path d="M415.71237 238.16695 L417.02732 206.66537" />
    <path d="M415.35866 251.29786 L454.29454 248.81603" />
    <path d="M454.29454 248.81603 L456.3482 280.12239" />
    <path d="M456.3482 280.12239 L416.9586 282.23268" />
    <path d="M416.9586 282.23268 L415.35866 251.29786" />
    <path d="M416.95274 291.78978 L456.34626 293.89059" />
    <path d="M456.34626 293.89059 L454.71239 324.73236" />
    <path d="M454.71239 324.73236 L419.05886 326.8846" />
    <path d="M419.05886 326.8846 L416.95274 291.78978" />
    <path d="M416.75813 334.53508 L455.45459 335.21499" />
    <path d="M455.45459 335.21499 L454.38145 367.62412" />
    <path d="M454.38145 367.62412 L418.88914 369.25001" />
    <path d="M418.88914 369.25001 L416.75813 334.53508" />
    <path d="M418.16748 375.53349 L450.78428 373.20673" />
    <path d="M450.78428 373.20673 L452.09768 412.35988" />
    <path d="M452.09768 412.35988 L415.3916 407.80381" />
    <path d="M415.3916 407.80381 L418.16748 375.53349" />
    <path d="M416.41519 419.98564 L453.66411 418.23187" />
    <path d="M453.66411 418.23187 L454.19604 452.86559" />
    <path d="M454.19604 452.86559 L415.88971 451.00125" />
    <path d="M415.88971 451.00125 L416.41519 419.98564" />
    <path d="M417.95656 460.78494 L453.55702 460.64365" />
    <path d="M453.55702 460.64365 L453.07746 496.5169" />
    <path d="M453.07746 496.5169 L421.43072 498.85267" />
    <path d="M421.43072 498.85267 L417.95656 460.78494" />
    <path d="M417.09753 504.22382 L455.03681 504.78119" />
    <path d="M455.03681 504.78119 L453.09357 539.02128" />
    <path d="M453.09357 539.02128 L417.18781 537.60951" />
    <path d="M417.18781 537.60951 L417.09753 504.22382" />
    <path d="M415.45061 548.80627 L455.99328 548.51763" />
    <path d="M455.99328 548.51763 L453.31299 581.32973" />
    <path d="M453.31299 581.32973 L417.58056 580.55636" />
    <path d="M417.58056 580.55636 L415.45061 548.80627" />
    <path d="M416.49672 589.96498 L454.99626 589.77226" />
    <path d="M454.99626 589.77226 L451.82271 625.18974" />
    <path d="M451.82271 625.18974 L416.32363 621.63379" />
    <path d="M416.32363 621.63379 L416.49672 589.96498" />
    <path d="M419.21524 629.66864 L450.93331 628.43661" />
    <path d="M450.93331 628.43661 L456.25378 662.93342" />
    <path d="M456.25378 662.93342 L416.94548 664.8948" />
    <path d="M416.94548 664.8948 L419.21524 629.66864" />
    <path d="M416.43653 675.07762 L451.70656 671.56491" />
    <path d="M451.70656 671.56491 L455.9112 705.92377" />
    <path d="M455.9112 705.92377 L417.28138 707.79183" />
    <path d="M417.28138 707.79183 L416.43653 675.07762" />
    <path d="M418.2356 715.62355 L452.54249 714.80081" />
    <path d="M452.54249 714.80081 L452.59829 752.0782" />
    <path d="M452.59829 752.0782 L421.18641 753.79708" />
    <path d="M421.18641 753.79708 L418.2356 715.62355" />
    <path d="M418.22152 758.15712 L454.42025 759.19039" />
    <path d="M454.42025 759.19039 L456.25587 790.48953" />
    <path d="M456.25587 790.48953 L415.35328 790.42681" />
    <path d="M415.35328 790.42681 L418.22152 758.15712" />
    <path d="M420.88458 798.39219 L455.51907 803.01314" />
    <path d="M455.51907 803.01314 L454.38039 835.34183" />
    <path d="M454.38039 835.34183 L418.79431 836.8791" />
    <path d="M418.79431 836.8791 L420.88458 798.39219" />
    <path d="M418.60951 842.8215 L454.88098 844.75438" />
    <path d="M454.88098 844.75438 L456.2575 875.52661" />
    <path d="M456.2575 875.52661 L415.78522 876.05983" />
    <path d="M415.78522 876.05983 L418.60951 842.8215" />
    <path d="M417.74738 886.19721 L451.61401 884.08787" />
    <path d="M451.61401 884.08787 L454.54489 920.19814" />
    <path d="M454.54489 920.19814 L419.03457 922.13828" />
    <path d="M419.03457 922.13828 L417.74738 886.19721" />
    <path d="M417.18148 929.32667 L454.56744 929.43354" />
    <path d="M454.56744 929.43354 L451.07484 965.94383" />
    <path d="M451.07484 965.94383 L417.76459 963.427" />
    <path d="M417.76459 963.427 L417.18148 929.32667" />
    <path d="M461.06272 35.0106 L496.17675 35.54757" />
    <path d="M496.17675 35.54757 L493.39083 73.18503" />
    <path d="M493.39083 73.18503 L460.5142 70.74966" />
    <path d="M460.5142 70.74966 L461.06272 35.0106" />
    <path d="M460.2332 78.35857 L497.47628 79.48902" />
    <path d="M497.47628 79.48902 L498.69963 110.28091" />
    <path d="M498.69963 110.28091 L459.61111 112.30474" />
    <path d="M459.61111 112.30474 L460.2332 78.35857" />
    <path d="M458.67602 122.67043 L498.8611 123.80494" />
    <path d="M498.8611 123.80494 L497.10345 154.80001" />
    <path d="M497.10345 154.80001 L460.11271 155.37274" />
    <path d="M460.11271 155.37274 L458.67602 122.67043" />
    <path d="M458.96573 164.82978 L498.84306 166.29893" />
    <path d="M498.84306 166.29893 L495.51053 198.96094" />
    <path d="M495.51053 198.96094 L460.44506 198.23838" />
    <path d="M460.44506 198.23838 L458.96573 164.82978" />
    <path d="M461.87503 204.34864 L498.0052 207.69499" />
    <path d="M498.0052 207.69499 L496.14862 240.85884" />
    <path d="M496.14862 240.85884 L461.06682 241.37126" />
    <path d="M461.06682 241.37126 L461.87503 204.34864" />
    <path d="M462.10217 246.67254 L498.35618 250.6695" />
    <path d="M498.35618 250.6695 L494.03227 285.28535" />
    <path d="M494.03227 285.28535 L463.31557 285.79357" />
    <path d="M463.31557 285.79357 L462.10217 246.67254" />
    <path d="M459.33218 291.95182 L495.72331 290.21789" />
    <path d="M495.72331 290.21789 L496.85479 325.15537" />
    <path d="M496.85479 325.15537 L460.21726 325.56174" />
    <path d="M460.21726 325.56174 L459.33218 291.95182" />
    <path d="M460.29299 333.41433 L498.03516 335.29204" />
    <path d="M498.03516 335.29204 L492.84002 371.22481" />
    <path d="M492.84002 371.22481 L463.43688 370.92333" />
    <path d="M463.43688 370.92333 L460.29299 333.41433" />
    <path d="M459.74711 376.51972 L493.66594 373.48123" />
    <path d="M493.66594 373.48123 L498.84073 407.72014" />
    <path d="M498.84073 407.72014 L458.67258 408.82127" />
    <path d="M458.67258 408.82127 L459.74711 376.51972" />
    <path d="M461.55392 417.2321 L496.29689 418.34726" />
    <path d="M496.29689 418.34726 L497.84264 451.56367" />
    <path d="M497.84264 451.56367 L463.23248 455.80974" />
    <path d="M463.23248 455.80974 L461.55392 417.2321" />
    <path d="M459.84263 461.45386 L493.22958 458.19096" />
    <path d="M493.22958 458.19096 L494.55313 497.45392" />
    <path d="M494.55313 497.45392 L460.29509 495.72171" />
    <path d="M460.29509 495.72171 L459.84263 461.45386" />
    <path d="M459.77371 504.04935 L496.13246 503.21935" />
    <path d="M496.13246 503.21935 L497.55341 536.95478" />
    <path d="M497.55341 536.95478 L463.9142 541.3469" />
    <path d="M463.9142 541.3469 L459.77371 504.04935" />
    <path d="M463.23984 543.3973 L493.64953 543.5473" />
    <path d="M493.64953 543.5473 L494.32662 582.68312" />
    <path d="M494.32662 582.68312 L461.37364 581.81609" />
    <path d="M461.37364 581.81609 L463.23984 543.3973" />
    <path d="M458.3074 590.86598 L493.92948 586.28612" />
    <path d="M493.92948 586.28612 L496.97222 622.66356" />
    <path d="M496.97222 622.66356 L458.21162 620.81657" />
    <path d="M458.21162 620.81657 L458.3074 590.86598" />
    <path d="M458.42383 633.23177 L498.56417 633.6267" />
    <path d="M498.56417 633.6267 L497.50511 664.57132" />
    <path d="M497.50511 664.57132 L462.66349 667.96479" />
    <path d="M462.66349 667.96479 L458.42383 633.23177" />
    <path d="M462.70562 671.37154 L497.80631 675.16308" />
    <path d="M497.80631 675.16308 L493.23494 711.09642" />
    <path d="M493.23494 711.09642 L463.24942 710.94065" />
    <path d="M463.24942 710.94065 L462.70562 671.37154" />
    <path d="M463.05562 713.61661 L493.24497 713.32044" />
    <path d="M493.24497 713.32044 L497.10472 750.07417" />
    <path d="M497.10472 750.07417 L459.21657 749.64476" />
    <path d="M459.21657 749.64476 L463.05562 713.61661" />
    <path d="M460.41333 758.48698 L493.50197 756.03277" />
    <path d="M493.50197 756.03277 L494.7768 794.89972" />
    <path d="M494.7768 794.89972 L458.07279 790.70599" />
    <path d="M458.07279 790.70599 L460.41333 758.48698" />
    <path d="M461.15172 800.28053 L494.89112 799.68838" />
    <path d="M494.89112 799.68838 L497.13677 835.07727" />
    <path d="M497.13677 835.07727 L459.84188 835.39571" />
    <path d="M459.84188 835.39571 L461.15172 800.28053" />
    <path d="M460.31385 843.6289 L497.65692 845.05938" />
    <path d="M497.65692 845.05938 L497.30891 877.39972" />
    <path d="M497.30891 877.39972 L460.20889 878.30888" />
    <path d="M460.20889 878.30888 L460.31385 843.6289" />
    <path d="M458.26456 888.56102 L493.96262 883.95028" />
    <path d="M493.96262 883.95028 L493.69399 923.34746" />
    <path d="M493.69399 923.34746 L463.1072 923.4309" />
    <path d="M463.1072 923.4309 L458.26456 888.56102" />
    <path d="M460.11709 928.87459 L495.68891 927.98011" />
    <path d="M495.68891 927.98011 L497.66414 962.0185" />
    <path d="M497.66414 962.0185 L459.7388 962.84114" />
    <path d="M459.7388 962.84114 L460.11709 928.87459" />
    <path d="M505.9152 33.04437 L540.25472 37.28032" />
    <path d="M540.25472 37.28032 L538.01812 71.41326" />
    <path d="M538.01812 71.41326 L506.02676 73.33733" />
    <path d="M506.02676 73.33733 L505.9152 33.04437" />
    <path d="M504.40943 76.77675 L540.80405 80.49592" />
    <path d="M540.80405 80.49592 L536.18508 115.49557" />
    <path d="M536.18508 115.49557 L500.41745 110.14694" />
    <path d="M500.41745 110.14694 L504.40943 76.77675" />
    <path d="M501.0737 122.82634 L538.08666 119.98993" />
    <path d="M538.08666 119.98993 L537.42009 156.99637" />
    <path d="M537.42009 156.99637 L502.76355 155.51085" />
    <path d="M502.76355 155.51085 L501.0737 122.82634" />
    <path d="M505.65507 160.7995 L539.67533 164.15676" />
    <path d="M539.67533 164.15676 L535.77161 200.84764" />
    <path d="M535.77161 200.84764 L500.37271 195.12291" />
    <path d="M500.37271 195.12291 L505.65507 160.7995" />
    <path d="M505.8182 203.19561 L537.32495 204.33764" />
    <path d="M537.32495 204.33764 L538.92857 240.5921" />
    <path d="M538.92857 240.5921 L502.32484 240.0798" />
    <path d="M502.32484 240.0798 L505.8182 203.19561" />
    <path d="M503.45506 247.73122 L540.58826 250.29522" />
    <path d="M540.58826 250.29522 L536.77133 285.10717" />
    <path d="M536.77133 285.10717 L502.48982 282.77924" />
    <path d="M502.48982 282.77924 L503.45506 247.73122" />
    <path d="M505.42696 288.53493 L538.5494 290.51797" />
    <path d="M538.5494 290.51797 L539.99501 324.44912" />
    <path d="M539.99501 324.44912 L504.64662 327.36427" />
    <path d="M504.64662 327.36427 L505.42696 288.53493" />
    <path d="M502.11763 334.16679 L538.29267 332.78553" />
    <path d="M538.29267 332.78553 L539.54735 367.48362" />
    <path d="M539.54735 367.48362 L504.31366 369.59609" />
    <path d="M504.31366 369.59609 L502.11763 334.16679" />
    <path d="M502.70599 376.04556 L539.85222 376.95838" />
    <path d="M539.85222 376.95838 L540.36098 409.04566" />
    <path d="M540.36098 409.04566 L503.77303 411.62584" />
    <path d="M503.77303 411.62584 L502.70599 376.04556" />
    <path d="M500.68544 420.97785 L536.675 416.38889" />
    <path d="M536.675 416.38889 L535.84265 455.91297" />
    <path d="M535.84265 455.91297 L500.61631 450.58128" />
    <path d="M500.61631 450.58128 L500.68544 420.97785" />
    <path d="M500.94256 463.15428 L536.83919 459.04327" />
    <path d="M536.83919 459.04327 L540.39901 494.0378" />
    <path d="M540.39901 494.0378 L505.24864 497.93842" />
    <path d="M505.24864 497.93842 L500.94256 463.15428" />
    <path d="M502.4683 503.85819 L536.53842 501.31797" />
    <path d="M536.53842 501.31797 L535.26564 541.36994" />
    <path d="M535.26564 541.36994 L501.21084 536.40385" />
    <path d="M501.21084 536.40385 L502.4683 503.85819" />
    <path d="M504.3542 544.54154 L536.3714 543.70492" />
    <path d="M536.3714 543.70492 L540.87213 578.46932" />
    <path d="M540.87213 578.46932 L502.7155 580.65735" />
    <path d="M502.7155 580.65735 L504.3542 544.54154" />
    <path d="M500.36926 591.49617 L537.9711 587.59782" />
    <path d="M537.9711 587.59782 L537.41782 624.7149" />
    <path d="M537.41782 624.7149 L502.93779 623.40767" />
    <path d="M502.93779 623.40767 L500.36926 591.49617" />
    <path d="M506.22108 628.09607 L536.81958 629.1058" />
    <path d="M536.81958 629.1058 L540.28292 664.25996" />
    <path d="M540.28292 664.25996 L503.1815 666.17356" />
    <path d="M503.1815 666.17356 L506.22108 628.09607" />
    <path d="M505.45109 671.19324 L539.95105 674.71166" />
    <path d="M539.95105 674.71166 L539.03286 708.1995" />
    <path d="M539.03286 708.1995 L506.23594 711.28471" />
    <path d="M506.23594 711.28471 L505.45109 671.19324" />
    <path d="M503.82296 715.09935 L540.70778 718.16552" />
    <path d="M540.70778 718.16552 L541.22203 748.07241" />
    <path d="M541.22203 748.07241 L501.69042 749.59042" />
    <path d="M501.69042 749.59042 L503.82296 715.09935" />
    <path d="M502.33129 759.12571 L536.52402 756.42455" />
    <path d="M536.52402 756.42455 L537.35782 794.84627" />
    <path d="M537.35782 794.84627 L501.71646 792.14101" />
    <path d="M501.71646 792.14101 L502.33129 759.12571" />
    <path d="M501.15424 803.0381 L539.70844 801.98973" />
    <path d="M539.70844 801.98973 L539.8251 834.88408" />
    <path d="M539.8251 834.88408 L500.75524 833.44726" />
    <path d="M500.75524 833.44726 L501.15424 803.0381" />
    <path d="M503.22171 843.23528 L539.6408 844.43256" />
    <path d="M539.6408 844.43256 L540.20994 876.94747" />
    <path d="M540.20994 876.94747 L500.61712 875.77924" />
    <path d="M500.61712 875.77924 L503.22171 843.23528" />
    <path d="M506.49454 883.01995 L538.52433 885.76862" />
    <path d="M538.52433 885.76862 L540.13898 919.55296" />
    <path d="M540.13898 919.55296 L501.04334 918.86675" />
    <path d="M501.04334 918.86675 L506.49454 883.01995" />
    <path d="M502.78504 928.71868 L539.46285 929.2727" />
    <path d="M539.46285 929.2727 L536.7701 965.42314" />
    <path d="M536.7701 965.42314 L505.10924 965.54301" />
    <path d="M505.10924 965.54301 L502.78504 928.71868" />
    <path d="M543.51511 37.88836 L581.06274 35.39354" />
    <path d="M581.06274 35.39354 L579.0923 72.67031" />
    <path d="M579.0923 72.67031 L546.52786 71.68498" />
    <path d="M546.52786 71.68498 L543.51511 37.88836" />
    <path d="M543.35848 80.61417 L581.0865 77.93691" />
    <path d="M581.0865 77.93691 L582.34803 112.04568" />
    <path d="M582.34803 112.04568 L544.57726 112.22191" />
    <path d="M544.57726 112.22191 L543.35848 80.61417" />
    <path d="M545.04393 121.1207 L580.10297 119.52649" />
    <path d="M580.10297 119.52649 L581.03158 155.97601" />
    <path d="M581.03158 155.97601 L543.38538 153.27981" />
    <path d="M543.38538 153.27981 L545.04393 121.1207" />
    <path d="M545.28638 163.3835 L579.79399 161.77395" />
    <path d="M579.79399 161.77395 L580.2099 199.27481" />
    <path d="M580.2099 199.27481 L542.87936 195.10435" />
    <path d="M542.87936 195.10435 L545.28638 163.3835" />
    <path d="M543.53155 207.9457 L579.34322 203.91222" />
    <path d="M579.34322 203.91222 L579.27526 242.60041" />
    <path d="M579.27526 242.60041 L545.34635 240.61594" />
    <path d="M545.34635 240.61594 L543.53155 207.9457" />
    <path d="M547.48987 246.38131 L583.16881 250.37322" />
    <path d="M583.16881 250.37322 L579.00884 285.33559" />
    <path d="M579.00884 285.33559 L544.38703 282.08196" />
    <path d="M544.38703 282.08196 L547.48987 246.38131" />
    <path d="M543.51218 293.01027 L577.92745 287.86447" />
    <path d="M577.92745 287.86447 L578.83844 327.98999" />
    <path d="M578.83844 327.98999 L544.41442 324.63344" />
    <path d="M544.41442 324.63344 L543.51218 293.01027" />
    <path d="M545.68561 333.05456 L578.4151 330.74065" />
    <path d="M578.4151 330.74065 L582.18129 367.35489" />
    <path d="M582.18129 367.35489 L544.12124 366.80698" />
    <path d="M544.12124 366.80698 L545.68561 333.05456" />
    <path d="M546.02488 375.24196 L582.43238 377.02888" />
    <path d="M582.43238 377.02888 L583.38446 408.40032" />
    <path d="M583.38446 408.40032 L546.65825 411.96023" />
    <path d="M546.65825 411.96023 L546.02488 375.24196" />
    <path d="M543.11318 421.10363 L582.98555 420.21901" />
    <path d="M582.98555 420.21901 L581.04644 453.59905" />
    <path d="M581.04644 453.59905 L545.20259 453.06397" />
    <path d="M545.20259 453.06397 L543.11318 421.10363" />
    <path d="M544.9477 461.38218 L581.99306 461.56783" />
    <path d="M581.99306 461.56783 L581.27851 495.88507" />
    <path d="M581.27851 495.88507 L548.60392 498.5763" />
    <path d="M548.60392 498.5763 L544.9477 461.38218" />
    <path d="M542.96616 506.34759 L581.4906 503.54655" />
    <path d="M581.4906 503.54655 L583.43856 535.88744" />
    <path d="M583.43856 535.88744 L544.87825 537.75462" />
    <path d="M544.87825 537.75462 L542.96616 506.34759" />
    <path d="M544.14189 547.34144 L583.10307 547.9268" />
    <path d="M583.10307 547.9268 L583.13428 578.80497" />
    <path d="M583.13428 578.80497 L544.54172 579.89797" />
    <path d="M544.54172 579.89797 L544.14189 547.34144" />
    <path d="M547.7521 586.3265 L580.61524 587.7149" />
    <path d="M580.61524 587.7149 L580.24298 624.44163" />
    <path d="M580.24298 624.44163 L544.02955 621.81418" />
    <path d="M544.02955 621.81418 L547.7521 586.3265" />
    <path d="M546.04787 630.338 L583.27621 633.18958" />
    <path d="M583.27621 633.18958 L581.52966 665.70387" />
    <path d="M581.52966 665.70387 L547.662 667.93192" />
    <path d="M547.662 667.93192 L546.04787 630.338" />
    <path d="M545.76653 673.13164 L583.88022 676.532" />
    <path d="M583.88022 676.532 L579.02729 710.51772" />
    <path d="M579.02729 710.51772 L545.63318 708.62524" />
    <path d="M545.63318 708.62524 L545.76653 673.13164" />
    <path d="M543.55001 718.15799 L583.18191 718.10662" />
    <path d="M583.18191 718.10662 L581.5985 750.67066" />
    <path d="M581.5985 750.67066 L547.99993 753.23893" />
    <path d="M547.99993 753.23893 L543.55001 718.15799" />
    <path d="M543.50052 760.74202 L582.36582 759.62848" />
    <path d="M582.36582 759.62848 L581.50166 793.29228" />
    <path d="M581.50166 793.29228 L545.92784 793.95562" />
    <path d="M545.92784 793.95562 L543.50052 760.74202" />
    <path d="M546.10255 800.36449 L583.016 802.93449" />
    <path d="M583.016 802.93449 L583.27755 833.7378" />
    <path d="M583.27755 833.7378 L545.37503 835.92124" />
    <path d="M545.37503 835.92124 L546.10255 800.36449" />
    <path d="M548.41249 840.93506 L577.80144 840.53115" />
    <path d="M577.80144 840.53115 L580.18587 879.61151" />
    <path d="M580.18587 879.61151 L546.04729 879.11025" />
    <path d="M546.04729 879.11025 L548.41249 840.93506" />
    <path d="M547.89243 883.85306 L578.40727 883.49069" />
    <path d="M578.40727 883.49069 L578.89355 923.22227" />
    <path d="M578.89355 923.22227 L547.0843 922.56991" />
    <path d="M547.0843 922.56991 L547.89243 883.85306" />
    <path d="M544.59919 929.48549 L580.64693 927.90244" />
    <path d="M580.64693 927.90244 L583.32315 961.23713" />
    <path d="M583.32315 961.23713 L547.11977 965.11993" />
    <path d="M547.11977 965.11993 L544.59919 929.48549" />
    <path d="M586.90199 36.82118 L621.39403 33.45552" />
    <path d="M621.39403 33.45552 L623.55921 70.92876" />
    <path d="M623.55921 70.92876 L587.25248 69.8773" />
    <path d="M587.25248 69.8773 L586.90199 36.82118" />
    <path d="M590.27283 76.08945 L624.46401 78.83678" />
    <path d="M624.46401 78.83678 L625.98663 110.65262" />
    <path d="M625.98663 110.65262 L587.79654 112.9845" />
    <path d="M587.79654 112.9845 L590.27283 76.08945" />
    <path d="M587.7716 120.89989 L621.43527 118.52739" />
    <path d="M621.43527 118.52739 L623.10422 156.40862" />
    <path d="M623.10422 156.40862 L585.81792 153.16362" />
    <path d="M585.81792 153.16362 L587.7716 120.89989" />
    <path d="M586.73415 164.57763 L621.74729 161.2976" />
    <path d="M621.74729 161.2976 L620.3347 201.19158" />
    <path d="M620.3347 201.19158 L585.94275 195.84932" />
    <path d="M585.94275 195.84932 L586.73415 164.57763" />
    <path d="M588.18243 205.51836 L626.13037 208.43963" />
    <path d="M626.13037 208.43963 L621.03986 243.19589" />
    <path d="M621.03986 243.19589 L586.65238 239.26169" />
    <path d="M586.65238 239.26169 L588.18243 205.51836" />
    <path d="M589.5128 246.79993 L623.51902 247.92906" />
    <path d="M623.51902 247.92906 L621.11087 285.66155" />
    <path d="M621.11087 285.66155 L590.61524 285.59643" />
    <path d="M590.61524 285.59643 L589.5128 246.79993" />
    <path d="M587.67985 291.07538 L623.87966 290.8126" />
    <path d="M623.87966 290.8126 L621.95407 327.50817" />
    <path d="M621.95407 327.50817 L590.65183 328.14425" />
    <path d="M590.65183 328.14425 L587.67985 291.07538" />
    <path d="M586.16832 335.35385 L624.62855 334.13811" />
    <path d="M624.62855 334.13811 L625.37724 366.55455" />
    <path d="M625.37724 366.55455 L591.40025 371.21652" />
    <path d="M591.40025 371.21652 L586.16832 335.35385" />
    <path d="M590.68283 373.4068 L625.37014 377.53117" />
    <path d="M625.37014 377.53117 L622.07065 412.4497" />
    <path d="M622.07065 412.4497 L591.29117 413.65831" />
    <path d="M591.29117 413.65831 L590.68283 373.4068" />
    <path d="M589.05817 417.28174 L620.78752 415.67046" />
    <path d="M620.78752 415.67046 L625.97618 450.82409" />
    <path d="M625.97618 450.82409 L591.20831 456.11824" />
    <path d="M591.20831 456.11824 L589.05817 417.28174" />
    <path d="M586.47046 462.53411 L620.78503 458.1883" />
    <path d="M620.78503 458.1883 L623.55063 496.13412" />
    <path d="M623.55063 496.13412 L588.99252 496.83164" />
    <path d="M588.99252 496.83164 L586.47046 462.53411" />
    <path d="M586.86135 504.58513 L623.6677 503.19537" />
    <path d="M623.6677 503.19537 L626.29144 535.43204" />
    <path d="M626.29144 535.43204 L585.55026 535.47487" />
    <path d="M585.55026 535.47487 L586.86135 504.58513" />
    <path d="M589.64527 544.32394 L624.62026 546.72721" />
    <path d="M624.62026 546.72721 L626.01412 578.33223" />
    <path d="M626.01412 578.33223 L587.98226 580.89321" />
    <path d="M587.98226 580.89321 L589.64527 544.32394" />
    <path d="M586.20371 590.42681 L621.96214 586.6718" />
    <path d="M621.96214 586.6718 L626.19835 620.60082" />
    <path d="M626.19835 620.60082 L588.85723 624.266" />
    <path d="M588.85723 624.266 L586.20371 590.42681" />
    <path d="M585.39655 634.03306 L622.98712 630.09571" />
    <path d="M622.98712 630.09571 L624.39054 665.33836" />
    <path d="M624.39054 665.33836 L588.0062 665.95705" />
    <path d="M588.0062 665.95705 L585.39655 634.03306" />
    <path d="M589.51542 671.99452 L625.44004 675.2556" />
    <path d="M625.44004 675.2556 L620.57176 711.25873" />
    <path d="M620.57176 711.25873 L586.77838 707.12834" />
    <path d="M586.77838 707.12834 L589.51542 671.99452" />
    <path d="M589.03641 714.93932 L622.83783 714.99709" />
    <path d="M622.83783 714.99709 L625.39084 749.21491" />
    <path d="M625.39084 749.21491 L590.29876 753.06509" />
    <path d="M590.29876 753.06509 L589.03641 714.93932" />
    <path d="M586.97352 759.57295 L622.14398 756.90381" />
    <path d="M622.14398 756.90381 L621.62988 795.49055" />
    <path d="M621.62988 795.49055 L586.35348 791.65171" />
    <path d="M586.35348 791.65171 L586.97352 759.57295" />
    <path d="M588.01701 800.96105 L620.7639 798.3302" />
    <path d="M620.7639 798.3302 L624.71323 835.05751" />
    <path d="M624.71323 835.05751 L589.78775 837.68646" />
    <path d="M589.78775 837.68646 L588.01701 800.96105" />
    <path d="M591.37957 840.60921 L624.97658 844.77414" />
    <path d="M624.97658 844.77414 L626.03545 875.9413" />
    <path d="M626.03545 875.9413 L589.38433 879.85981" />
    <path d="M589.38433 879.85981 L591.37957 840.60921" />
    <path d="M586.81379 887.31809 L623.88434 886.09301" />
    <path d="M623.88434 886.09301 L622.40406 922.39932" />
    <path d="M622.40406 922.39932 L587.65666 920.71103" />
    <path d="M587.65666 920.71103 L586.81379 887.31809" />
    <path d="M585.64184 931.32749 L625.20201 930.08186" />
    <path d="M625.20201 930.08186 L623.94495 963.45062" />
    <path d="M623.94495 963.45062 L589.27843 964.80576" />
    <path d="M589.27843 964.80576 L585.64184 931.32749" />
    <path d="M629.8559 36.32901 L666.02528 35.31738" />
    <path d="M666.02528 35.31738 L665.24728 71.71756" />
    <path d="M665.24728 71.71756 L628.58156 68.44605" />
    <path d="M628.58156 68.44605 L629.8559 36.32901" />
    <path d="M633.73652 75.37165 L663.63679 75.76054" />
    <path d="M663.63679 75.76054 L668.06543 111.22604" />
    <path d="M668.06543 111.22604 L629.98657 112.63303" />
    <path d="M629.98657 112.63303 L633.73652 75.37165" />
    <path d="M628.87077 122.52451 L663.64934 118.28981" />
    <path d="M663.64934 118.28981 L664.58166 157.33891" />
    <path d="M664.58166 157.33891 L630.04129 155.21199" />
    <path d="M630.04129 155.21199 L628.87077 122.52451" />
    <path d="M630.13788 163.58192 L667.55313 164.52616" />
    <path d="M667.55313 164.52616 L664.66291 199.78975" />
    <path d="M664.66291 199.78975 L628.29123 195.62089" />
    <path d="M628.29123 195.62089 L630.13788 163.58192" />
    <path d="M629.11192 207.2675 L668.47345 208.20108" />
    <path d="M668.47345 208.20108 L667.47844 239.49872" />
    <path d="M667.47844 239.49872 L632.52441 242.5911" />
    <path d="M632.52441 242.5911 L629.11192 207.2675" />
    <path d="M633.89967 245.33332 L665.90696 247.7998" />
    <path d="M665.90696 247.7998 L664.82367 284.69114" />
    <path d="M664.82367 284.69114 L633.84403 286.12303" />
    <path d="M633.84403 286.12303 L633.89967 245.33332" />
    <path d="M633.92196 287.83717 L664.74539 289.25712" />
    <path d="M664.74539 289.25712 L668.81149 322.83309" />
    <path d="M668.81149 322.83309 L633.59645 328.46325" />
    <path d="M633.59645 328.46325 L633.92196 287.83717" />
    <path d="M633.79412 330.44821 L668.48786 335.77937" />
    <path d="M668.48786 335.77937 L668.03638 366.38076" />
    <path d="M668.03638 366.38076 L630.00217 367.76808" />
    <path d="M630.00217 367.76808 L633.79412 330.44821" />
    <path d="M628.53376 378.07285 L665.68183 375.14229" />
    <path d="M665.68183 375.14229 L668.84866 407.82031" />
    <path d="M668.84866 407.82031 L629.63538 409.88099" />
    <path d="M629.63538 409.88099 L628.53376 378.07285" />
    <path d="M629.01503 419.98389 L663.27015 415.64315" />
    <path d="M663.27015 415.64315 L665.4686 454.19178" />
    <path d="M665.4686 454.19178 L631.9906 454.73855" />
    <path d="M631.9906 454.73855 L629.01503 419.98389" />
    <path d="M632.1204 459.32266 L667.2343 461.79445" />
    <path d="M667.2343 461.79445 L668.17149 493.76836" />
    <path d="M668.17149 493.76836 L632.92189 498.0289" />
    <path d="M632.92189 498.0289 L632.1204 459.32266" />
    <path d="M628.94061 505.11488 L667.55257 504.68297" />
    <path d="M667.55257 504.68297 L665.30512 539.38153" />
    <path d="M665.30512 539.38153 L632.29272 540.03628" />
    <path d="M632.29272 540.03628 L628.94061 505.11488" />
    <path d="M629.28072 547.2229 L664.14661 543.87715" />
    <path d="M664.14661 543.87715 L668.79642 577.97228" />
    <path d="M668.79642 577.97228 L633.63475 583.60943" />
    <path d="M633.63475 583.60943 L629.28072 547.2229" />
    <path d="M629.92648 589.00732 L663.86328 586.17186" />
    <path d="M663.86328 586.17186 L664.68693 624.96613" />
    <path d="M664.68693 624.96613 L628.28919 620.81499" />
    <path d="M628.28919 620.81499 L629.92648 589.00732" />
    <path d="M632.32464 629.22823 L666.16895 630.73592" />
    <path d="M666.16895 630.73592 L664.76964 667.41495" />
    <path d="M664.76964 667.41495 L630.60471 666.03717" />
    <path d="M630.60471 666.03717 L632.32464 629.22823" />
    <path d="M628.7422 675.44227 L666.0789 673.16574" />
    <path d="M666.0789 673.16574 L663.96161 710.6012" />
    <path d="M663.96161 710.6012 L633.27188 710.89804" />
    <path d="M633.27188 710.89804 L628.7422 675.44227" />
    <path d="M630.76301 715.69385 L665.33276 714.97442" />
    <path d="M665.33276 714.97442 L663.71175 753.31583" />
    <path d="M663.71175 753.31583 L628.71981 748.93871" />
    <path d="M628.71981 748.93871 L630.76301 715.69385" />
    <path d="M629.68934 759.34938 L667.47624 759.7113" />
    <path d="M667.47624 759.7113 L667.99294 791.63209" />
    <path d="M667.99294 791.63209 L628.5095 791.18676" />
    <path d="M628.5095 791.18676 L629.68934 759.34938" />
    <path d="M632.11577 799.48411 L663.84486 798.7559" />
    <path d="M663.84486 798.7559 L663.70221 838.36254" />
    <path d="M663.70221 838.36254 L628.62624 833.85817" />
    <path d="M628.62624 833.85817 L632.11577 799.48411" />
    <path d="M632.90088 841.35774 L663.97782 841.38012" />
    <path d="M663.97782 841.38012 L665.9238 878.95544" />
    <path d="M665.9238 878.95544 L631.52014 879.51606" />
    <path d="M631.52014 879.51606 L632.90088 841.35774" />
    <path d="M632.43159 884.25715 L667.81613 887.6769" />
    <path d="M667.81613 887.6769 L666.40244 920.99524" />
    <path d="M666.40244 920.99524 L628.36385 918.55309" />
    <path d="M628.36385 918.55309 L632.43159 884.25715" />
    <path d="M628.90012 930.36195 L664.58299 926.91418" />
    <path d="M664.58299 926.91418 L666.37426 963.54391" />
    <path d="M666.37426 963.54391 L629.6089 962.60682" />
    <path d="M629.6089 962.60682 L628.90012 930.36195" />
    <path d="M670.89942 38.11862 L710.13343 37.03902" />
    <path d="M710.13343 37.03902 L711.20838 67.88534" />
    <path d="M711.20838 67.88534 L674.46912 72.02553" />
    <path d="M674.46912 72.02553 L670.89942 38.11862" />
    <path d="M676.23812 75.38476 L711.28222 81.03563" />
    <path d="M711.28222 81.03563 L710.62661 111.17351" />
    <path d="M710.62661 111.17351 L672.75419 112.89863" />
    <path d="M672.75419 112.89863 L676.23812 75.38476" />
    <path d="M675.97892 118.09491 L711.45818 123.80301" />
    <path d="M711.45818 123.80301 L711.44032 152.60036" />
    <path d="M711.44032 152.60036 L675.93545 158.25059" />
    <path d="M675.93545 158.25059 L675.97892 118.09491" />
    <path d="M676.27277 160.39905 L706.3131 160.92055" />
    <path d="M706.3131 160.92055 L709.34778 197.71115" />
    <path d="M709.34778 197.71115 L675.15806 200.16445" />
    <path d="M675.15806 200.16445 L676.27277 160.39905" />
    <path d="M671.86676 206.98715 L711.36322 208.70792" />
    <path d="M711.36322 208.70792 L709.01278 240.58641" />
    <path d="M709.01278 240.58641 L672.15285 239.79973" />
    <path d="M672.15285 239.79973 L671.86676 206.98715" />
    <path d="M674.11838 247.18409 L706.11295 245.80609" />
    <path d="M706.11295 245.80609 L710.83038 280.99002" />
    <path d="M710.83038 280.99002 L673.49079 283.72318" />
    <path d="M673.49079 283.72318 L674.11838 247.18409" />
    <path d="M675.64797 288.42444 L709.00853 290.90523" />
    <path d="M709.00853 290.90523 L708.26672 326.37034" />
    <path d="M708.26672 326.37034 L671.73321 324.35071" />
    <path d="M671.73321 324.35071 L675.64797 288.42444" />
    <path d="M672.91226 333.39269 L705.54437 330.42552" />
    <path d="M705.54437 330.42552 L707.6884 369.42623" />
    <path d="M707.6884 369.42623 L673.13449 368.40958" />
    <path d="M673.13449 368.40958 L672.91226 333.39269" />
    <path d="M675.20968 373.80953 L708.78945 375.71951" />
    <path d="M708.78945 375.71951 L711.24476 407.99266" />
    <path d="M711.24476 407.99266 L671.1729 408.69604" />
    <path d="M671.1729 408.69604 L675.20968 373.80953" />
    <path d="M673.18827 418.1504 L710.91336 420.69365" />
    <path d="M710.91336 420.69365 L707.71586 454.44089" />
    <path d="M707.71586 454.44089 L673.57818 453.88637" />
    <path d="M673.57818 453.88637 L673.18827 418.1504" />
    <path d="M672.5488 461.3366 L705.77136 458.14926" />
    <path d="M705.77136 458.14926 L711.1048 493.22358" />
    <path d="M711.1048 493.22358 L674.25178 497.03045" />
    <path d="M674.25178 497.03045 L672.5488 461.3366" />
    <path d="M673.81529 502.5815 L711.16559 506.07174" />
    <path d="M711.16559 506.07174 L710.50444 536.52421" />
    <path d="M710.50444 536.52421 L672.52796 537.85344" />
    <path d="M672.52796 537.85344 L673.81529 502.5815" />
    <path d="M670.88938 548.36823 L706.39005 543.65772" />
    <path d="M706.39005 543.65772 L710.2686 579.33403" />
    <path d="M710.2686 579.33403 L673.06866 580.94122" />
    <path d="M673.06866 580.94122 L670.88938 548.36823" />
    <path d="M670.7633 591.05779 L710.6858 590.47673" />
    <path d="M710.6858 590.47673 L709.06223 623.21195" />
    <path d="M709.06223 623.21195 L672.72632 623.10538" />
    <path d="M672.72632 623.10538 L670.7633 591.05779" />
    <path d="M670.57281 633.83993 L707.93011 630.00637" />
    <path d="M707.93011 630.00637 L709.02049 665.77523" />
    <path d="M709.02049 665.77523 L672.38337 665.25438" />
    <path d="M672.38337 665.25438 L670.57281 633.83993" />
    <path d="M673.54572 672.91656 L705.49428 670.54718" />
    <path d="M705.49428 670.54718 L707.96354 709.33283" />
    <path d="M707.96354 709.33283 L675.41401 710.60559" />
    <path d="M675.41401 710.60559 L673.54572 672.91656" />
    <path d="M673.85597 715.1419 L710.66814 718.01322" />
    <path d="M710.66814 718.01322 L709.29211 750.52711" />
    <path d="M709.29211 750.52711 L671.16699 748.84593" />
    <path d="M671.16699 748.84593 L673.85597 715.1419" />
    <path d="M674.16671 757.37661 L705.32229 755.46496" />
    <path d="M705.32229 755.46496 L710.10676 792.12654" />
    <path d="M710.10676 792.12654 L674.50479 794.89125" />
    <path d="M674.50479 794.89125 L674.16671 757.37661" />
    <path d="M672.07209 802.02459 L710.54676 802.89888" />
    <path d="M710.54676 802.89888 L707.23371 837.54141" />
    <path d="M707.23371 837.54141 L671.15357 833.86802" />
    <path d="M671.15357 833.86802 L672.07209 802.02459" />
    <path d="M675.32998 841.42959 L708.77172 843.41808" />
    <path d="M708.77172 843.41808 L707.04036 880.22484" />
    <path d="M707.04036 880.22484 L671.8938 877.29652" />
    <path d="M671.8938 877.29652 L675.32998 841.42959" />
    <path d="M675.11883 884.11942 L708.69371 885.85912" />
    <path d="M708.69371 885.85912 L708.06204 921.8396" />
    <path d="M708.06204 921.8396 L673.52222 921.54892" />
    <path d="M673.52222 921.54892 L675.11883 884.11942" />
    <path d="M674.86037 926.85259 L707.29227 927.07578" />
    <path d="M707.29227 927.07578 L706.83701 965.43285" />
    <path d="M706.83701 965.43285 L671.29833 961.61176" />
    <path d="M671.29833 961.61176 L674.86037 926.85259" />
  </g>
</svg>