<?xml version="1.0" standalone="no"?>
<!DOCTYPE svg PUBLIC "-//W3C//DTD SVG 1.1//EN" 
    "http://www.w3.org/Graphics/SVG/1.1/DTD/svg11.dtd">
<svg width="2480px" height="3508px"
    xmlns="http://www.w3.org/2000/svg" version="1.1" viewBox="0 0 2480 3508">
  <g fill="none" stroke="black" stroke-width="1.06299px">
    <path d="M206.66666666666663 1134 L1446.6666666666665 1134" />
    <path d="M1446.6666666666665 1134 L1446.6666666666665 2374" />
    <path d="M1446.6666666666665 2374 L206.66666666666663 2374" />
    <path d="M206.66666666666663 2374 L206.66666666666663 1134" />
    <path d="M242.76367514755918 1106.0037691444716 L1482.0083006512377 1149.2791450555728" />
    <path d="M1482.0083006512377 1149.2791450555728 L1438.7329247401365 2388.5237705592517" />
    <path d="M1438.7329247401365 2388.5237705592517 L199.48829923645792 2345.24839464815" />
    <path d="M199.48829923645792 2345.24839464815 L242.76367514755918 1106.0037691444716" />
    <path d="M279.8157486726186 1079.2843602647965 L1516.7951709948006 1165.782387707512" />
    <path d="M1516.7951709948006 1165.782387707512 L1430.2971435520851 2402.761810029694" />
    <path d="M1430.2971435520851 2402.761810029694 L193.3177212299032 2316.263782586979" />
    <path d="M193.3177212299032 2316.263782586979 L279.8157486726186 1079.2843602647965" />
    <path d="M317.77774499768907 1053.8743268448854 L1550.984895254348 1183.4896212967756" />
    <path d="M1550.984895254348 1183.4896212967756 L1421.3696008024576 2416.6967715534347" />
    <path d="M1421.3696008024576 2416.6967715534347 L188.16245054579872 2287.0814771015444" />
    <path d="M188.16245054579872 2287.0814771015444 L317.77774499768907 1053.8743268448854" />
    <path d="M356.6034132778457 1029.8046270963446 L1584.5358185173927 1202.3792722868257" />
    <path d="M1584.5358185173927 1202.3792722868257 L1411.9611733269116 2430.311677526373" />
    <path d="M1411.9611733269116 2430.311677526373 L184.02876808736448 2257.737032335892" />
    <path d="M184.02876808736448 2257.737032335892 L356.6034132778457 1029.8046270963446" />
    <path d="M396.245450416925 1007.104586240665 L1617.407064152063 1222.4283265476586" />
    <path d="M1617.407064152063 1222.4283265476586 L1402.0833238450691 2443.5899402827963" />
    <path d="M1402.0833238450691 2443.5899402827963 L180.92171010993138 2228.266199975803" />
    <path d="M180.92171010993138 2228.266199975803 L396.245450416925 1007.104586240665" />
    <path d="M436.6555586990604 985.8018607809554 L1649.5585836089795 1243.6123573949772" />
    <path d="M1649.5585836089795 1243.6123573949772 L1391.748086994958 2456.5153823048963" />
    <path d="M1391.748086994958 2456.5153823048963 L178.84506208503888 2198.7048856908746" />
    <path d="M178.84506208503888 2198.7048856908746 L436.6555586990604 985.8018607809554" />
    <path d="M477.78450463201057 965.922404806756 L1680.951205214246 1265.905555350344" />
    <path d="M1680.951205214246 1265.905555350344 L1380.9680546706581 2469.0722559325795" />
    <path d="M1380.9680546706581 2469.0722559325795 L177.8013540884226 2169.089105388992" />
    <path d="M177.8013540884226 2169.089105388992 L477.78450463201057 965.922404806756" />
    <path d="M519.5821789305842 947.4904383729754 L1711.5466818940995 1289.2807595860545" />
    <path d="M1711.5466818940995 1289.2807595860545 L1369.7563606810206 2481.24526254957" />
    <path d="M1369.7563606810206 2481.24526254957 L177.7918577175053 2139.4549413364907" />
    <path d="M177.7918577175053 2139.4549413364907 L519.5821789305842 947.4904383729754" />
    <path d="M561.9976575670871 930.5284179914865 L1741.3077377730774 1313.7094910164215" />
    <path d="M1741.3077377730774 1313.7094910164215 L1358.1266647481425 2493.0195712224117" />
    <path d="M1358.1266647481425 2493.0195712224117 L178.81658454215233 2109.838498197477" />
    <path d="M178.81658454215233 2109.838498197477 L561.9976575670871 930.5284179914865" />
    <path d="M604.9792638144038 915.0570092713251 L1770.19811358893 1339.1619869951542" />
    <path d="M1770.19811358893 1339.1619869951542 L1346.093135865101 2504.3808367696806" />
    <path d="M1346.093135865101 2504.3808367696806 L180.87428609057463 2080.2758590458516" />
    <path d="M180.87428609057463 2080.2758590458516 L604.9792638144038 915.0570092713251" />
    <path d="M648.4746312061311 901.0950617408289 L1798.1826108689474 1365.6072375765598" />
    <path d="M1798.1826108689474 1365.6072375765598 L1333.6704350332166 2515.315217239376" />
    <path d="M1333.6704350332166 2515.315217239376 L183.96245537040022 2050.8030414036452" />
    <path d="M183.96245537040022 2050.8030414036452 L648.4746312061311 901.0950617408289" />
    <path d="M692.4307673370502 888.659585882391 L1825.2271348138752 1393.0130232963834" />
    <path d="M1825.2271348138752 1393.0130232963834 L1320.8736973998828 2525.809390773208" />
    <path d="M1320.8736973998828 2525.809390773208 L188.07732992305796 2021.455953359216" />
    <path d="M188.07732992305796 2021.455953359216 L692.4307673370502 888.659585882391" />
    <path d="M736.7941184262086 877.7657324078064 L1851.2987358371756 1421.345954426262" />
    <path d="M1851.2987358371756 1421.345954426262 L1307.7185138187197 2535.8505718372294" />
    <path d="M1307.7185138187197 2535.8505718372294 L193.2138964077526 1992.2703498187734" />
    <path d="M193.2138964077526 1992.2703498187734 L736.7941184262086 877.7657324078064" />
    <path d="M781.5106345639551 868.4267737994642 L1876.3656497090246 1450.5715116539686" />
    <path d="M1876.3656497090246 1450.5715116539686 L1294.22091185452 2545.426526799038" />
    <path d="M1294.22091185452 2545.426526799038 L199.36589670945045 1963.2817889445334" />
    <path d="M199.36589670945045 1963.2817889445334 L781.5106345639551 868.4267737994642" />
    <path d="M826.5258355634269 860.6540881398728 L1900.3973362561308 1480.6540881398726" />
    <path d="M1900.3973362561308 1480.6540881398726 L1280.3973362561308 2554.5255888325764" />
    <path d="M1280.3973362561308 2554.5255888325764 L206.52583556342688 1934.5255888325767" />
    <path d="M206.52583556342688 1934.5255888325767 L826.5258355634269 860.6540881398728" />
    <path d="M871.7848773362664 854.4571452492175 L1923.3645165702344 1511.5570328983915" />
    <path d="M1923.3645165702344 1511.5570328983915 L1266.2646289210604 2563.1366721323598" />
    <path d="M1266.2646289210604 2563.1366721323598 L214.6849896870923 1906.0367844831858" />
    <path d="M214.6849896870923 1906.0367844831858 L871.7848773362664 854.4571452492175" />
    <path d="M917.2326187116944 849.8434951478453 L1945.239208679946 1543.2426954515713" />
    <path d="M1945.239208679946 1543.2426954515713 L1251.8400083762197 2571.2492854198226" />
    <path d="M1251.8400083762197 2571.2492854198226 L223.83341840796822 1877.8500851160968" />
    <path d="M223.83341840796822 1877.8500851160968 L917.2326187116944 849.8434951478453" />
    <path d="M962.8136886175323 846.8187588577257 L1965.994761642467 1575.6724717003924" />
    <path d="M1965.994761642467 1575.6724717003924 L1237.1410487998003 2578.853544725327" />
    <path d="M1237.1410487998003 2578.853544725327 L233.9599757748656 1849.9998318826606" />
    <path d="M233.9599757748656 1849.9998318826606 L962.8136886175323 846.8187588577257" />
    <path d="M1008.4725535413261 845.3866215541038 L1985.6058880136611 1608.8068509579202" />
    <path d="M1985.6058880136611 1608.8068509579202 L1222.185658609845 2585.9401854302555" />
    <path d="M1222.185658609845 2585.9401854302555 L245.0523241375098 1822.519956026439" />
    <path d="M245.0523241375098 1822.519956026439 L1008.4725535413261 845.3866215541038" />
    <path d="M1054.1535851893746 845.5488280756801 L2004.0486946569074 1642.6054640869888" />
    <path d="M2004.0486946569074 1642.6054640869888 L1206.9920586455987 2592.500573554522" />
    <path d="M1206.9920586455987 2592.500573554522 L257.09694917806587 1795.443937543213" />
    <path d="M257.09694917806587 1795.443937543213 L1054.1535851893746 845.5488280756801" />
    <path d="M1099.8011282612388 847.3051807987943 L2021.3007118532075 1677.0271326837783" />
    <path d="M2021.3007118532075 1677.0271326837783 L1191.5787599682233 2598.5267162757473" />
    <path d="M1191.5787599682233 2598.5267162757473 L270.0791763762545 1768.804764390763" />
    <path d="M270.0791763762545 1768.804764390763 L1099.8011282612388 847.3051807987943" />
    <path d="M1145.35956825715 850.653539878198 L2037.3409206770773 1712.0299192473547" />
    <path d="M2037.3409206770773 1712.0299192473547 L1175.9645413079206 2604.011271667282" />
    <path d="M1175.9645413079206 2604.011271667282 L283.98318888799326 1742.6348922981256" />
    <path d="M283.98318888799326 1742.6348922981256 L1145.35956825715 850.653539878198" />
    <path d="M1190.773399235713 855.5898258541288 L2052.1497786048694 1747.5711782740561" />
    <path d="M2052.1497786048694 1747.5711782740561 L1160.1684261849423 2608.947557643213" />
    <path d="M1160.1684261849423 2608.947557643213 L298.7920468157855 1716.9662052232857" />
    <path d="M298.7920468157855 1716.9662052232857 L1190.773399235713 855.5898258541288" />
    <path d="M1235.987291439345 862.1080246225015 L2065.709243324329 1783.6076082144702" />
    <path d="M2065.709243324329 1783.6076082144702 L1144.2096597323603 2613.3295600994543" />
    <path d="M1144.2096597323603 2613.3295600994543 L314.4877078473761 1691.8299765074855" />
    <path d="M314.4877078473761 1691.8299765074855 L1235.987291439345 862.1080246225015" />
    <path d="M1280.9461587050619 870.2001947621679 L2078.0027947163708 1820.0953042297006" />
    <path d="M2078.0027947163708 1820.0953042297006 L1128.107685248838 2617.1519402410095" />
    <path d="M1128.107685248838 2617.1519402410095 L331.0510492375291 1667.2568307734768" />
    <path d="M331.0510492375291 1667.2568307734768 L1280.9461587050619 870.2001947621679" />
    <path d="M1325.5952255784832 879.8564772103166 L2089.015454982299 1856.9898116826516" />
    <path d="M2089.015454982299 1856.9898116826516 L1111.8821205099641 2620.410041086468" />
    <path d="M1111.8821205099641 2620.410041086468 L348.46189110614796 1643.2767066141328" />
    <path d="M348.46189110614796 1643.2767066141328 L1325.5952255784832 879.8564772103166" />
    <path d="M1369.8800940492847 891.0651072742205 L2098.7338068919516 1894.2461802991552" />
    <path d="M2098.7338068919516 1894.2461802991552 L1095.5527338670167 2623.099893141822" />
    <path d="M1095.5527338670167 2623.099893141822 L366.69902102435003 1619.9188201168874" />
    <path d="M366.69902102435003 1619.9188201168874 L1369.8800940492847 891.0651072742205" />
    <path d="M1413.7468098267966 903.8124289647042 L2107.146010130523 1931.8190189329557" />
    <path d="M2107.146010130523 1931.8190189329557 L1079.139420162271 2625.2182192366818" />
    <path d="M1079.139420162271 2625.2182192366818 L385.74021985854495 1597.2116292684304" />
    <path d="M385.74021985854495 1597.2116292684304 L1413.7468098267966 903.8124289647042" />
    <path d="M1457.141928074993 918.0829116338618 L2114.2418157241673 1969.6625508678299" />
    <path d="M2114.2418157241673 1969.6625508678299 L1062.6621764901988 2626.762438517004" />
    <path d="M1062.6621764901988 2626.762438517004 L405.56228884102484 1575.1827992830358" />
    <path d="M405.56228884102484 1575.1827992830358 L1457.141928074993 918.0829116338618" />
    <path d="M1500.0125785267937 933.8591688967604 L2120.0125785267937 2007.730669589464" />
    <path d="M2120.0125785267937 2007.730669589464 L1046.14107783409 2627.730669589464" />
    <path d="M1046.14107783409 2627.730669589464 L426.14107783408997 1553.8591688967604" />
    <path d="M426.14107783408997 1553.8591688967604 L1500.0125785267937 933.8591688967604" />
    <path d="M1542.3065298983415 951.1219798140714 L2124.451267752846 2045.9769949591405" />
    <path d="M2124.451267752846 2045.9769949591405 L1029.5962526077767 2628.1217328136454" />
    <path d="M1029.5962526077767 2628.1217328136454 L447.45151475327214 1533.266717668576" />
    <path d="M447.45151475327214 1533.266717668576 L1542.3065298983415 951.1219798140714" />
    <path d="M1583.9722535247734 969.8503123098242 L2127.5524755432293 2084.354929720791" />
    <path d="M2127.5524755432293 2084.354929720791 L1013.0478581322623 2627.935151739247" />
    <path d="M1013.0478581322623 2627.935151739247 L469.4676361138063 1513.4305343282801" />
    <path d="M469.4676361138063 1513.4305343282801 L1583.9722535247734 969.8503123098242" />
    <path d="M1624.9589861399631 990.0213487957512 L2129.3124235539553 2122.817716272576" />
    <path d="M2129.3124235539553 2122.817716272576 L996.5160560771304 2627.1711536865682" />
    <path d="M996.5160560771304 2627.1711536865682 L492.16261866313823 1494.3747862097434" />
    <path d="M492.16261866313823 1494.3747862097434 L1624.9589861399631 990.0213487957512" />
    <path d="M1665.216791723742 1011.6105139710041 L2129.728967559473 2161.3184936338203" />
    <path d="M2129.728967559473 2161.3184936338203 L980.0209878966563 2625.830669469551" />
    <path d="M980.0209878966563 2625.830669469551 L515.5088120609255 1476.122689806735" />
    <path d="M515.5088120609255 1476.122689806735 L1665.216791723742 1011.6105139710041" />
    <path d="M1704.6966223412446 1034.591504763373 L2128.801600065074 2199.8103545378995" />
    <path d="M2128.801600065074 2199.8103545378995 L963.5827502905477 2623.9153322617285" />
    <path d="M963.5827502905477 2623.9153322617285 L539.4777725667183 1458.6964824872025" />
    <path d="M539.4777725667183 1458.6964824872025 L1704.6966223412446 1034.591504763373" />
    <path d="M1743.3503779002663 1058.9363223755279 L2126.531450925201 2238.246402581518" />
    <path d="M2126.531450925201 2238.246402581518 L947.2213707192107 2621.427475606453" />
    <path d="M947.2213707192107 2621.427475606453 L564.0402976942759 1442.1173954004626" />
    <path d="M564.0402976942759 1442.1173954004626 L1743.3503779002663 1058.9363223755279" />
    <path d="M1781.1309647538123 1084.6153063972395 L2122.9212859668914 2276.5798093607546" />
    <path d="M2122.9212859668914 2276.5798093607546 L930.956783003376 2618.3701305738336" />
    <path d="M930.956783003376 2618.3701305738336 L589.166461790297 1426.4056276103183" />
    <path d="M589.166461790297 1426.4056276103183 L1781.1309647538123 1084.6153063972395" />
    <path d="M1817.9923530764554 1111.5971709420219 L2117.975503620043 2314.7638715242574" />
    <path d="M2117.975503620043 2314.7638715242574 L914.8088030378077 2614.747022067845" />
    <path d="M914.8088030378077 2614.747022067845 L614.8256524942199 1411.5803214856098" />
    <path d="M614.8256524942199 1411.5803214856098 L1817.9923530764554 1111.5971709420219" />
    <path d="M1853.8896329445856 1139.849042764165 L2111.700129558607 2352.7520676740837" />
    <path d="M2111.700129558607 2352.7520676740837 L898.7971046486882 2610.5625642881055" />
    <path d="M898.7971046486882 2610.5625642881055 L640.9866080346666 1397.6595393781865" />
    <path d="M640.9866080346666 1397.6595393781865 L1853.8896329445856 1139.849042764165" />
    <path d="M1888.7790690522359 1169.3365013097205 L2104.1028093592295 2390.4981150448584" />
    <path d="M2104.1028093592295 2390.4981150448584 L882.9411956240915 2605.821855351852" />
    <path d="M882.9411956240915 2605.821855351852 L667.6174553170979 1384.6602416167143" />
    <path d="M667.6174553170979 1384.6602416167143 L1888.7790690522359 1169.3365013097205" />
    <path d="M1922.6181539958147 1200.0236206526456 L2095.192799186296 2427.956025892193" />
    <path d="M2095.192799186296 2427.956025892193 L867.2603939467485 2600.530671082674" />
    <path d="M867.2603939467485 2600.530671082674 L694.6857487562673 1372.5982658431267" />
    <path d="M694.6857487562673 1372.5982658431267 L1922.6181539958147 1200.0236206526456" />
    <path d="M1955.3656600628294 1231.8730132650094 L2084.98095451472 2465.080163521668" />
    <path d="M2084.98095451472 2465.080163521668 L851.7738042580609 2594.6954579735584" />
    <path d="M851.7738042580609 2594.6954579735584 L722.1585098061705 1361.4883077168997" />
    <path d="M722.1585098061705 1361.4883077168997 L1955.3656600628294 1231.8730132650094" />
    <path d="M1986.9816894615046 1264.8458755679367 L2073.4797169042195 2501.8252978901182" />
    <path d="M2073.4797169042195 2501.8252978901182 L836.5002945820378 2588.3233253328335" />
    <path d="M836.5002945820378 2588.3233253328335 L750.0022671393225 1351.343903010652" />
    <path d="M750.0022671393225 1351.343903010652 L1986.9816894615046 1264.8458755679367" />
    <path d="M2017.4277229300933 1298.9020352077905 L2060.703098841195 2538.146660711469" />
    <path d="M2060.703098841195 2538.146660711469 L821.4584733375159 2581.4220366225704" />
    <path d="M821.4584733375159 2581.4220366225704 L778.1830974264145 1342.177411118892" />
    <path d="M778.1830974264145 1342.177411118892 L2017.4277229300933 1298.9020352077905" />
  </g>
</svg>