<?xml version="1.0" standalone="no"?>
<!DOCTYPE svg PUBLIC "-//W3C//DTD SVG 1.1//EN" 
    "http://www.w3.org/Graphics/SVG/1.1/DTD/svg11.dtd">
<svg width="21cm" height="29.7cm"
    xmlns="http://www.w3.org/2000/svg" version="1.1" viewBox="0 0 744.09449 1052.3622">
  <g fill="none" stroke="black" stroke-width="0.03cm">
    <path d="M0 0 L35.43307 35.43307" />
    <path d="M369.10371 533.90708 L368.41984 533.61059 L367.15547 532.84637 L366.05122 531.87346 L365.13383 530.71542 L364.75356 530.07434" />
    <path d="M382.5419 508.37431 L384.05716 509.35824 L386.7534 511.65379 L388.98172 514.3274 L390.71552 517.3084 L391.92817 520.52616 L392.59302 523.91001 L392.68347 527.38929 L392.17289 530.89337 L391.68388 532.63262" />
    <path d="M399.64051 507.95218 L400.83887 509.91017 L402.79408 514.00002 L404.15857 518.26963 L404.92986 522.65655 L405.10549 527.0983 L404.68299 531.53242 L403.65988 535.89644 L402.0337 540.1279 L400.99369 542.1744" />
    <path d="M331.8736 504.87803 L332.66212 503.44989 L334.35446 500.72277 L336.19251 498.16813 L338.16667 495.78634 L340.26734 493.57772 L342.48489 491.54263 L344.80972 489.68142 L347.23223 487.99444 L349.7428 486.48201 L352.33184 485.14451 L354.98972 483.98226 L357.70685 482.99562 L360.47361 482.18494 L363.28039 481.55055 L366.1176 481.09281 L368.97561 480.81206 L371.84483 480.70865 L374.71564 480.78292 L377.57843 481.03523 L380.42361 481.46591 L383.24155 482.07532 L386.02265 482.86379 L388.75731 483.83168 L391.43591 484.97934 L394.04885 486.3071 L396.58652 487.81532 L399.03931 489.50434 L401.39761 491.3745 L403.65181 493.42616 L405.79232 495.65966 L407.80951 498.07535 L409.69378 500.67357 L410.58307 502.04124 L410.58307 502.04124 L411.41621 503.42211 L412.91687 506.21908 L414.20028 509.05609 L415.27071 511.92484 L416.13247 514.81704 L416.78985 517.7244 L417.24714 520.63862 L417.50863 523.55142 L417.57861 526.45448 L417.46138 529.33953 L417.16123 532.19827 L416.68244 535.02239 L416.02932 537.80362 L415.20615 540.53365 L413.66196 544.51457 L411.04793 549.56586 L408.68986 553.1256 L406.93656 555.37429 L405.04325 557.51372 L403.01423 559.53561 L400.8538 561.43166 L398.56625 563.19357 L396.15586 564.81305 L393.62693 566.28181 L390.98375 567.59155 L388.23062 568.73398 L385.37182 569.70081 L382.41166 570.48374 L379.35441 571.07447 L376.20437 571.46471 L374.5959 571.58206" />
    <path d="M415.29719 487.72536 L416.38078 488.9797 L418.42899 491.56653 L420.31679 494.25133 L422.04207 497.02661 L423.60271 499.88488 L424.99658 502.81863 L426.22157 505.82038 L427.27555 508.88262 L428.15641 511.99786 L428.86204 515.1586 L429.3903 518.35735 L429.73908 521.58661 L429.90626 524.83889 L429.88972 528.10669 L429.68734 531.38251 L429.297 534.65887 L429.03069 536.2949" />
    <path d="M393.5759 459.28435 L395.96248 460.09717 L400.57036 461.93323 L404.95529 464.03773 L409.11411 466.39615 L413.0437 468.99396 L416.74094 471.81663 L420.20268 474.84965 L423.42581 478.07848 L426.40719 481.48861 L429.14369 485.0655 L431.63218 488.79463 L433.86954 492.66148 L435.85262 496.65152 L437.57831 500.75023 L439.04346 504.94307 L440.24496 509.21554 L441.17967 513.55309 L441.84446 517.94121 L442.2362 522.36537 L442.35176 526.81104 L442.18802 531.26371 L441.74183 535.70884 L441.01007 540.13191 L439.98962 544.5184 L438.67733 548.85377 L437.07009 553.12351 L435.16476 557.3131 L432.95821 561.40799 L430.4473 565.39368 L427.62892 569.25563 L424.49993 572.97932 L421.0572 576.55022 L419.21721 578.27384 L419.21721 578.27384 L417.65976 579.64284 L414.43 582.23786 L411.05442 584.63706 L407.54183 586.83416 L405.73691 587.85496" />
    <path d="M390.81891 445.66316 L393.69576 446.38536 L399.27604 448.09243 L404.62086 450.13581 L409.72514 452.49877 L414.58381 455.16459 L419.19179 458.11654 L423.544 461.33788 L427.63538 464.8119 L431.46085 468.52187 L435.01533 472.45105 L438.29375 476.58272 L441.29103 480.90015 L444.0021 485.38661 L446.42188 490.02538 L448.5453 494.79973 L450.36729 499.69293 L451.88276 504.68825 L453.08665 509.76897 L453.97388 514.91835 L454.53937 520.11967 L454.77805 525.35621 L454.68485 530.61123 L454.25468 535.868 L453.48248 541.1098 L452.36317 546.31991 L450.89168 551.48158 L449.06293 556.5781 L446.87184 561.59274 L444.31334 566.50877 L441.38236 571.30946 L438.07382 575.97809 L434.38265 580.49792 L432.39199 582.69681 L432.39199 582.69681 L432.10031 583.00665 L431.51219 583.6218 L431.21577 583.92709" />
    <path d="M314.36588 601.76435 L311.48349 599.47561 L306.03937 594.61678 L301.03071 589.40694 L296.46698 583.87504 L292.35768 578.05004 L288.71228 571.96089 L285.54027 565.63655 L282.85114 559.10598 L280.65436 552.39814 L278.95941 545.54198 L277.77579 538.56645 L277.11297 531.50053 L276.98044 524.37315 L277.38768 517.21329 L278.34417 510.04989 L279.8594 502.91191 L280.8295 499.3615" />
    <path d="M380.50946 419.03443 L384.34776 419.40297 L391.85255 420.51143 L399.12013 422.09798 L406.14071 424.14211 L412.90451 426.62331 L419.40176 429.52106 L425.62268 432.81484 L431.55749 436.48416 L437.19642 440.50848 L442.52968 444.8673 L447.54751 449.5401 L452.24011 454.50637 L456.59772 459.7456 L460.61055 465.23727 L464.26884 470.96087 L467.56279 476.89588 L470.48264 483.0218 L473.0186 489.3181 L475.1609 495.76427 L476.89976 502.3398 L478.22541 509.02418 L479.12806 515.79689 L479.59794 522.63742 L479.62526 529.52526 L479.20026 536.43988 L478.31316 543.36079 L476.95417 550.26745 L475.11352 557.13937 L472.78143 563.95602 L469.94812 570.69689 L466.60383 577.34148 L462.73876 583.86925 L460.60788 587.08293 L460.60788 587.08293 L458.554 589.96669 L454.1794 595.50885 L449.46339 600.73822 L444.42328 605.64008 L439.07636 610.19965 L433.43992 614.40221 L427.53126 618.23299 L421.36768 621.67725 L418.1957 623.24983" />
    <path d="M491.47031 515.70255 L491.7751 520.10587 L491.89765 528.92823 L491.71529 533.33831" />
    <path d="M457.81823 626.88986 L454.22202 629.85077 L446.85935 635.31755 L439.29078 640.18471 L431.54156 644.46078 L423.63698 648.15429 L415.60232 651.27378 L407.46286 653.82778 L399.24388 655.82482 L390.97065 657.27343 L382.66845 658.18214 L374.36257 658.55949 L366.07828 658.414 L357.84086 657.75422 L349.67559 656.58867 L341.60776 654.92588 L333.66262 652.77438 L325.86548 650.14272 L318.2416 647.03942 L310.81626 643.473 L303.61475 639.45202 L296.66234 634.98498 L289.98431 630.08044 L283.60594 624.74692 L277.55251 618.99295 L271.8493 612.82706 L266.52159 606.25779 L261.59465 599.29367 L257.09376 591.94323 L253.04421 584.215 L249.47127 576.11751 L246.40022 567.65931 L243.85634 558.84891 L242.78999 554.3143" />
    <path d="M327.15861 663.72663 L322.25198 662.03301 L312.78074 658.21398 L303.77082 653.84417 L295.22855 648.9535 L287.16023 643.57191 L279.57219 637.72932 L272.47075 631.45568 L265.86224 624.7809 L259.75298 617.73492 L254.14928 610.34767 L249.05747 602.64907 L244.48387 594.66908 L240.4348 586.4376 L236.91659 577.98457 L233.93554 569.33993 L231.498 560.53361 L229.61027 551.59553 L228.27867 542.55562 L227.50954 533.44383 L227.30919 524.29007 L227.68394 515.12428 L228.64012 505.97638 L230.18404 496.87632 L232.32202 487.85402 L235.0604 478.93941 L238.40548 470.16242 L242.3636 461.55299 L246.94106 453.14104 L252.1442 444.9565 L257.97934 437.02931 L264.45279 429.3894 L271.57088 422.06669 L275.37364 418.53364 L275.37364 418.53364 L279.29367 415.13118 L287.33667 408.83836 L295.62599 403.22045 L304.13258 398.26796 L312.82733 393.97139 L321.68118 390.32124 L330.66503 387.30805 L339.74982 384.9223 L348.90645 383.15451 L358.10584 381.99519 L367.31892 381.43485 L376.51661 381.46399 L385.66981 382.07314 L394.74945 383.25278 L403.72645 384.99344 L412.57172 387.28563 L421.25619 390.11985 L429.75078 393.48661 L438.02639 397.37642 L446.05396 401.77979 L453.80439 406.68723 L461.24861 412.08925 L468.35753 417.97635 L475.10208 424.33905 L481.45317 431.16786 L487.38173 438.45328 L492.85866 446.18583 L497.85489 454.356 L502.34133 462.95432 L506.28891 471.9713 L509.66854 481.39743 L512.45115 491.22323 L513.60948 496.28304" />
    <path d="M274.65501 649.43271 L272.45265 647.66196 L268.17587 644.04058 L264.0692 640.31609 L260.13203 636.4926 L256.36376 632.57421 L252.7638 628.56504 L249.33154 624.4692 L246.06639 620.29079 L242.96774 616.03392 L240.03498 611.70269 L235.94561 605.07543 L231.06817 596.01719 L226.84353 586.73549 L223.26688 577.26319 L220.33343 567.63316 L218.03837 557.87825 L216.37689 548.03133 L215.3442 538.12527 L214.93549 528.19292 L215.14596 518.26716 L215.9708 508.38085 L217.40521 498.56685 L219.44439 488.85803 L222.08353 479.28724 L225.31783 469.88736 L229.14249 460.69125 L233.5527 451.73177 L238.54366 443.04178 L244.11057 434.65415 L250.24862 426.60175 L256.95301 418.91743 L264.21893 411.63406 L270.034 406.45443 L274.08368 403.14376 L278.27105 399.95181 L282.5955 396.88269 L287.05644 393.94051 L291.65325 391.12938 L296.38534 388.45341 L301.25212 385.9167 L306.25297 383.52336 L311.3873 381.2775 L314.00434 380.21116 L314.00434 380.21116 L316.63903 379.18922 L321.91363 377.29611 L327.19247 375.60188 L332.4723 374.10393 L337.74985 372.79971 L343.02187 371.68664 L348.28511 370.76214 L353.53629 370.02364 L358.77218 369.46856 L363.9895 369.09434 L371.77357 368.86647 L382.05695 369.1716 L392.20746 370.1538 L402.19904 371.79248 L412.00562 374.06706 L421.60115 376.95693 L430.95957 380.44151 L440.05482 384.50021 L448.86083 389.11242 L457.35156 394.25757 L465.50093 399.91506 L473.2829 406.0643 L480.6714 412.68469 L487.64037 419.75564 L494.16376 427.25657 L500.2155 435.16688 L505.76953 443.46597 L510.7998 452.13327 L515.28025 461.14816 L519.18481 470.49007 L522.48743 480.13841 L525.16205 490.07257 L526.74021 497.69837 L527.58249 502.86084 L528.25312 508.08319 L528.74882 513.36283 L529.06636 518.6972 L529.20246 524.08372 L529.15388 529.51982 L528.91735 535.00293 L528.48961 540.53046 L527.86742 546.09986 L527.48238 548.89944" />
    <path d="M371.98471 695.66928 L368.93578 695.64237 L362.89287 695.43535 L356.92505 695.02728 L351.03458 694.42204 L345.22369 693.62352 L339.49462 692.63558 L333.8496 691.46212 L328.29088 690.10701 L322.8207 688.57414 L317.44128 686.86737 L312.15488 684.9906 L306.96372 682.9477 L301.87006 680.74255 L296.87611 678.37904 L291.98414 675.86104 L287.19636 673.19243 L282.51502 670.3771 L277.94236 667.41892 L271.29204 662.7223 L262.82621 655.99639 L254.83538 648.76894 L247.33746 641.07098 L240.35035 632.93356 L233.89197 624.38772 L227.98021 615.46449 L222.63298 606.19493 L217.86819 596.61006 L213.70375 586.74094 L210.15756 576.6186 L207.24752 566.27408 L204.99155 555.73842 L203.40755 545.04267 L202.67129 536.93447 L202.39978 531.49514 L202.30633 526.03324 L202.39318 520.55266 L202.66257 515.05728 L203.11674 509.55098 L203.75793 504.03763 L204.58837 498.52112 L205.61031 493.00533 L206.82598 487.49413 L208.23762 481.99141 L209.84747 476.50105 L211.65777 471.02693 L213.67076 465.57292 L215.88866 460.14291 L218.31373 454.74078 L220.9482 449.37041 L223.79431 444.03567 L225.29743 441.38288 L225.29743 441.38288 L226.43542 439.44331 L228.788 435.61049 L230.00227 433.71774" />
    <path d="M238.16959 649.30973 L235.97498 646.88267 L231.74667 641.96057 L227.7317 636.95166 L223.92863 631.86052 L220.33601 626.69175 L216.95243 621.44993 L213.77643 616.13965 L210.80657 610.7655 L208.04144 605.33206 L205.47958 599.84392 L203.11955 594.30567 L200.95993 588.72189 L198.99928 583.09718 L197.23615 577.43611 L195.66911 571.74329 L194.29672 566.02329 L193.11755 560.2807 L192.13016 554.52011 L191.33311 548.7461 L190.72497 542.96327 L190.30429 537.1762 L190.06964 531.38948 L190.01959 525.6077 L190.15269 519.83544 L190.46751 514.07729 L190.96261 508.33784 L191.63656 502.62167 L192.48791 496.93337 L193.51524 491.27754 L194.7171 485.65875 L196.09205 480.0816 L197.63867 474.55066 L199.3555 469.07054 L201.24112 463.64581 L203.29409 458.28107 L205.51297 452.9809 L207.89632 447.74988 L210.44271 442.59261 L213.15069 437.51368 L216.01884 432.51766 L219.04571 427.60916 L222.22988 422.79274 L225.56989 418.07301 L229.06431 413.45455 L232.71171 408.94195 L236.51065 404.53979 L240.45969 400.25266 L244.5574 396.08515 L248.80234 392.04184 L253.19306 388.12733 L257.72814 384.3462 L262.40614 380.70304 L267.22561 377.20243 L272.18513 373.84897 L277.28325 370.64724 L282.51854 367.60182 L287.88955 364.71731 L293.39487 361.99829 L299.03304 359.44935 L304.80263 357.07507 L310.7022 354.88005 L316.73031 352.86887 L322.88554 351.04612 L329.16643 349.41639 L332.35355 348.67534 L332.35355 348.67534 L335.55275 347.98828 L341.92957 346.78751 L348.2749 345.8149 L354.58549 345.06691 L360.85808 344.54 L367.08943 344.23063 L373.27626 344.13528 L379.41534 344.25039 L385.50341 344.57243 L391.53721 345.09786 L397.51349 345.82315 L403.42899 346.74475 L409.28046 347.85913 L415.06465 349.16274 L420.7783 350.65206 L426.41816 352.32354 L431.98098 354.17364 L437.46349 356.19883 L442.86245 358.39557 L448.1746 360.76032 L453.39668 363.28953 L458.52545 365.97968 L463.55765 368.82723 L468.49003 371.82863 L473.31932 374.98035 L478.04228 378.27884 L482.65565 381.72058 L487.15619 385.30203 L491.54062 389.01963 L495.8057 392.86987 L499.94818 396.84919 L503.96481 400.95406 L507.85231 405.18095 L511.60746 409.52631 L515.22698 413.9866 L518.70762 418.55829 L522.04614 423.23784 L525.23927 428.02171 L528.28376 432.90636 L531.17636 437.88826 L533.91382 442.96386 L536.49287 448.12964 L538.91028 453.38204 L541.16277 458.71753 L543.2471 464.13257 L545.16001 469.62363 L546.89825 475.18716 L548.45857 480.81964 L549.8377 486.51751 L551.03241 492.27725 L552.03942 498.0953 L552.8555 503.96815 L553.47737 509.89224 L553.9018 515.86404 L554.12552 521.88001 L554.14529 527.93661 L553.95784 534.0303 L553.55992 540.15755 L552.94828 546.31482 L552.11967 552.49857 L551.07083 558.70526 L549.7985 564.93135 L548.29944 571.1733 L546.57038 577.42758 L545.61859 580.55824" />
    <path d="M352.68479 719.50523 L349.21001 719.12751 L342.34056 718.20356 L335.57966 717.05883 L328.92942 715.69799 L322.39196 714.12574 L315.96939 712.34674 L309.66381 710.36568 L303.47735 708.18725 L297.4121 705.81611 L291.47019 703.25696 L285.65373 700.51447 L279.96482 697.59333 L274.40558 694.49821 L268.97812 691.23379 L263.68455 687.80476 L258.52699 684.2158 L253.50754 680.47158 L248.62831 676.57679 L243.89142 672.53611 L239.29898 668.35422 L234.8531 664.0358 L230.55589 659.58553 L226.40946 655.00809 L222.41593 650.30817 L218.5774 645.49043 L214.89599 640.55957 L211.37381 635.52027 L208.01298 630.3772 L204.81559 625.13504 L201.78377 619.79848 L198.91962 614.3722 L196.22526 608.86088 L193.7028 603.26919 L191.35434 597.60183 L189.18201 591.86346 L187.18791 586.05877 L185.37416 580.19245 L183.74286 574.26917 L182.29613 568.29361 L181.03607 562.27045 L179.96481 556.20438 L179.08445 550.10007 L178.3971 543.96221 L177.90488 537.79547 L177.60989 531.60455 L177.51425 525.3941 L177.62007 519.16883 L177.92946 512.93341 L178.44454 506.69251 L179.16741 500.45083 L180.10018 494.21304 L181.24497 487.98382 L182.60389 481.76785 L184.17904 475.56981 L185.97255 469.39439 L187.98653 463.24627 L190.22307 457.13012 L192.68431 451.05062 L195.37234 445.01246 L198.28927 439.02032 L201.43723 433.07888 L204.81833 427.19282 L208.43466 421.36681 L212.28835 415.60555 L214.30486 412.75066 L214.30486 412.75066 L216.36937 409.93027 L220.60426 404.44313 L224.97608 399.16038 L229.47971 394.08152 L234.11006 389.20605 L238.862 384.53343 L243.73043 380.06317 L248.71025 375.79476 L253.79633 371.72767 L258.98358 367.8614 L264.26687 364.19544 L269.64111 360.72927 L275.10119 357.46239 L280.64198 354.39428 L286.2584 351.52443 L291.94531 348.85233 L297.69763 346.37746 L303.51023 344.09932 L309.378 342.0174 L315.29585 340.13117 L321.25865 338.44014 L327.2613 336.94378 L333.29869 335.64159 L339.36571 334.53305 L345.45725 333.61765 L351.56821 332.89489 L357.69347 332.36425 L363.82791 332.02521 L369.96645 331.87727 L376.10395 331.91991 L382.23532 332.15263 L388.35545 332.57491 L394.45922 333.18623 L400.54153 333.9861 L406.59727 334.97399 L412.62133 336.14939 L418.60859 337.51179 L424.55395 339.06069 L430.4523 340.79556 L436.29854 342.7159 L442.08754 344.8212 L447.81421 347.11093 L453.47342 349.5846 L459.06009 352.24169 L464.56908 355.08169 L469.9953 358.10409 L475.33363 361.30837 L480.57897 364.69402 L485.72621 368.26053 L490.77023 372.0074 L495.70593 375.9341 L500.5282 380.04013 L505.23193 384.32497 L509.81201 388.78811 L514.26332 393.42905 L518.58077 398.24726 L522.75924 403.24224 L526.79362 408.41348 L530.6788 413.76046 L534.40968 419.28268 L537.98114 424.97961 L541.38807 430.85075 L544.62537 436.89559 L547.68793 443.11362 L549.15208 446.28742" />
    <path d="M527.84042 662.01353 L525.37322 664.79544 L520.34196 670.18602 L515.18599 675.34648 L509.91069 680.27788 L504.52142 684.98127 L499.02353 689.45769 L493.42239 693.7082 L487.72335 697.73384 L481.93178 701.53567 L476.05303 705.11474 L470.09248 708.47209 L464.05548 711.60878 L457.94738 714.52586 L451.77356 717.22438 L445.53937 719.70538 L439.25017 721.96992 L432.91133 724.01905 L426.5282 725.85382 L420.10614 727.47527 L413.65052 728.88447 L407.1667 730.08245 L400.66003 731.07027 L394.13589 731.84899 L387.59962 732.41964 L381.05659 732.78328 L374.51216 732.94096 L367.9717 732.89374 L361.44055 732.64265 L354.92409 732.18875 L348.42767 731.5331 L341.95666 730.67674 L335.51641 729.62072 L329.11229 728.36609 L322.74966 726.9139 L316.43387 725.2652 L310.17029 723.42105 L303.96428 721.38249 L297.8212 719.15057 L291.74641 716.72635 L285.74527 714.11087 L279.82314 711.30518 L273.98539 708.31034 L268.23737 705.12739 L262.58445 701.75739 L257.03198 698.20138 L251.58533 694.46041 L246.24985 690.53554 L241.03091 686.42782 L235.93387 682.13829 L230.96409 677.668 L226.12693 673.01802 L221.42775 668.18938 L216.87191 663.18313 L212.46478 658.00033 L208.2117 652.64203 L204.11805 647.10928 L200.18919 641.40312 L196.43047 635.52461 L192.84726 629.4748 L189.44491 623.25473 L186.2288 616.86547 L183.20427 610.30805 L180.37669 603.58353 L177.75142 596.69296 L176.51633 593.18574 L176.51633 593.18574 L175.45812 590.01463 L173.50167 583.64336 L171.75774 577.23741 L170.22549 570.80164 L168.90404 564.34089 L167.79253 557.86003 L166.89008 551.36392 L166.19583 544.8574 L165.70891 538.34534 L165.42845 531.83259 L165.35359 525.32401 L165.48345 518.82445 L165.81717 512.33878 L166.35389 505.87184 L167.09272 499.42849 L168.03281 493.0136 L169.17329 486.63201 L170.51329 480.28858 L172.05194 473.98817 L173.78837 467.73564 L175.72172 461.53584 L177.85112 455.39363 L180.17569 449.31386 L182.69458 443.30139 L185.40691 437.36108 L188.31182 431.49778 L191.40844 425.71635 L194.6959 420.02165 L198.17332 414.41853 L201.83986 408.91185 L205.69463 403.50647 L209.73677 398.20724 L211.82783 395.59894" />
    <path d="M586.64267 570.35345 L585.88434 573.89585 L584.21233 580.89243 L582.33678 587.76988 L580.26203 594.52641 L577.99237 601.16024 L575.53214 607.66957 L572.88565 614.05263 L570.05721 620.30762 L567.05114 626.43277 L563.87176 632.42627 L560.52338 638.28635 L557.01033 644.01121 L553.33692 649.59908 L549.50746 655.04816 L545.52627 660.35667 L541.39768 665.52282 L537.12599 670.54483 L532.71552 675.4209 L528.1706 680.14925 L523.49553 684.7281 L518.69464 689.15565 L513.77223 693.43013 L508.73264 697.54974 L503.58017 701.51269 L498.31914 705.31721 L492.95388 708.9615 L487.48868 712.44377 L481.92788 715.76225 L476.27579 718.91514 L470.53673 721.90065 L464.71501 724.717 L458.81495 727.36241 L452.84086 729.83508 L446.79708 732.13324 L440.6879 734.25508 L434.51765 736.19883 L428.29064 737.9627 L422.0112 739.5449 L415.68363 740.94365 L409.31226 742.15716 L402.90141 743.18363 L396.45538 744.02129 L389.9785 744.66836 L383.47508 745.12303 L376.94944 745.38352 L370.4059 745.44806 L363.84877 745.31485 L357.28237 744.9821 L350.71103 744.44803 L344.13904 743.71084 L337.57074 742.76877 L331.01043 741.62001 L324.46244 740.26278 L317.93109 738.6953 L311.42068 736.91577 L304.93554 734.92241 L298.47998 732.71344 L292.05832 730.28706 L285.67488 727.64149 L279.33397 724.77495 L273.03991 721.68564 L266.79702 718.37179 L260.60962 714.83159 L254.48201 711.06327 L251.44198 709.09301" />
    <path d="M141.31838 545.01239 L141.01472 540.85893 L140.62209 532.60969 L140.51153 524.44024 L140.678 516.35407 L141.11648 508.35466 L141.82192 500.4455 L142.78931 492.63005 L144.0136 484.9118 L145.48976 477.29423 L147.21277 469.78082 L149.17758 462.37504 L151.37917 455.08039 L153.81251 447.90034 L156.47256 440.83836 L159.35429 433.89795 L162.45267 427.08257 L165.76266 420.39572 L169.27924 413.84086 L172.99737 407.42148 L176.91203 401.14107 L181.01817 395.00309 L185.31077 389.01102 L189.78479 383.16836 L194.4352 377.47858 L199.25697 371.94516 L204.24508 366.57157 L209.39447 361.36131 L214.70013 356.31784 L220.15702 351.44465 L225.76011 346.74523 L231.50437 342.22304 L237.38476 337.88157 L243.39626 333.7243 L249.53382 329.7547 L255.79242 325.97627 L262.16703 322.39247 L268.65262 319.0068 L275.24415 315.82272 L281.93658 312.84372 L288.7249 310.07328 L295.60406 307.51488 L302.56903 305.172 L309.61479 303.04811 L316.73629 301.14671 L323.92852 299.47126 L331.18643 298.02525 L338.50499 296.81217 L345.87917 295.83547 L353.30394 295.09866 L360.77427 294.60521 L368.28512 294.35859 L375.83147 294.3623 L383.40827 294.6198 L391.0105 295.13458 L398.63313 295.91012 L406.27113 296.9499 L413.91945 298.25739 L421.57308 299.83609 L429.22697 301.68946 L436.8761 303.82099 L444.51544 306.23416 L452.13994 308.93245 L459.74458 311.91933 L467.32433 315.1983 L471.1033 316.9484 L471.1033 316.9484 L474.85213 318.76215 L482.1925 322.54675 L489.32273 326.53572 L496.24232 330.72298 L502.95077 335.10241 L509.44759 339.66793 L515.73228 344.41343 L521.80433 349.33282 L527.66326 354.42 L533.30856 359.66888 L538.73974 365.07334 L543.9563 370.6273 L548.95774 376.32466 L553.74357 382.15932 L558.31328 388.12517 L562.66638 394.21614 L566.80237 400.42611 L570.72075 406.74898 L574.42103 413.17867 L577.9027 419.70907 L581.16528 426.33408 L584.20825 433.04761 L587.03114 439.84355 L589.63343 446.71582 L592.01462 453.65831 L594.17424 460.66493 L596.11176 467.72957 L597.8267 474.84614 L599.31856 482.00853 L600.58684 489.21067 L601.63104 496.44643 L602.45067 503.70974 L603.04522 510.99448 L603.41421 518.29457 L603.55713 525.60389 L603.47348 532.91636 L603.16277 540.22588 L602.6245 547.52635 L601.85817 554.81167 L600.86328 562.07574 L599.63934 569.31247 L598.18585 576.51576 L596.50231 583.6795 L594.58822 590.79761 L592.44309 597.86398 L590.06641 604.87252 L587.4577 611.81712 L584.61645 618.6917 L581.54216 625.49014 L578.23434 632.20636 L574.69249 638.83426 L570.91611 645.36774 L566.9047 651.80069 L562.65777 658.12703 L558.17482 664.34065 L553.45535 670.43546 L548.49886 676.40536 L543.30486 682.24424 L537.87284 687.94602 L532.20232 693.5046 L526.29279 698.91387 L520.14375 704.16774 L513.75471 709.26011 L507.12517 714.18488 L503.72005 716.58252" />
    <path d="M267.54361 746.55589 L264.04986 744.86635 L257.18723 741.35143 L250.49182 737.65925 L243.96448 733.79444 L237.60607 729.76162 L231.41748 725.56543 L225.39954 721.21049 L219.55313 716.70144 L213.87911 712.0429 L208.37834 707.23951 L203.05169 702.29589 L197.90001 697.21667 L192.92418 692.00648 L188.12505 686.66996 L183.50348 681.21173 L179.06034 675.63641 L174.79649 669.94865 L170.7128 664.15307 L166.81012 658.2543 L163.08933 652.25696 L159.55127 646.1657 L156.19682 639.98513 L153.02683 633.71989 L150.04218 627.3746 L147.24372 620.9539 L144.63231 614.46242 L142.20882 607.90478 L139.97411 601.28562 L137.92905 594.60956 L136.07449 587.88123 L134.4113 581.10526 L132.94034 574.28629 L131.66248 567.42894 L130.57857 560.53784 L129.68949 553.61763 L128.99608 546.67292 L128.49922 539.70835 L128.19977 532.72855 L128.09859 525.73816 L128.19654 518.74178 L128.49449 511.74407 L128.99329 504.74964 L129.69382 497.76314 L130.59693 490.78917 L131.70349 483.83238 L133.01436 476.8974 L134.5304 469.98885 L136.25247 463.11137 L138.18144 456.26958 L140.31817 449.46811 L142.66353 442.7116 L145.21837 436.00466 L147.98356 429.35194 L150.95996 422.75806 L154.14843 416.22765 L157.54984 409.76534 L161.16505 403.37576 L164.99492 397.06354 L169.04031 390.8333 L173.30209 384.68969 L177.78113 378.63732 L182.47827 372.68083 L187.39439 366.82484 L192.53035 361.07399 L195.18103 358.23944" />
    <path d="M613.97086 610.81119 L612.11218 615.94977 L608.0943 626.0474 L603.68512 635.89956 L598.89591 645.49895 L593.73792 654.83826 L588.22242 663.91019 L582.36066 672.70743 L576.1639 681.22267 L569.64341 689.4486 L562.81044 697.37792 L555.67626 705.00333 L548.25212 712.3175 L540.54929 719.31315 L532.57903 725.98296 L524.35259 732.31963 L515.88124 738.31584 L507.17624 743.9643 L498.24885 749.25769 L489.11033 754.18872 L479.77194 758.75006 L470.24493 762.93442 L460.54058 766.73449 L450.67013 770.14296 L440.64486 773.15253 L430.47602 775.75589 L420.17487 777.94573 L409.75267 779.71475 L399.22069 781.05563 L388.59018 781.96108 L377.8724 782.42379 L367.07862 782.43645 L356.22009 781.99175 L350.77006 781.5956" />
    <path d="M541.86947 317.94921 L545.31927 320.81071 L552.05154 326.68381 L558.55861 332.75159 L564.838 339.0075 L570.88721 345.44498 L576.70373 352.0575 L582.28508 358.83849 L587.62875 365.78142 L592.73224 372.87973 L597.59305 380.12688 L602.2087 387.51632 L606.57667 395.0415 L610.69448 402.69586 L614.55962 410.47287 L618.16959 418.36598 L621.5219 426.36862 L624.61405 434.47427 L627.44354 442.67637 L630.00788 450.96836 L632.30456 459.34371 L634.33108 467.79586 L636.08496 476.31827 L637.56368 484.90438 L638.76476 493.54765 L639.68569 502.24153 L640.32398 510.97947 L640.67713 519.75492 L640.74263 528.56134 L640.518 537.39218 L640.00073 546.24088 L639.18833 555.1009 L638.07829 563.9657 L637.41088 568.39783" />
    <path d="M305.48649 799.28951 L301.45771 798.27612 L293.4679 796.07766 L285.57172 793.65308 L277.77312 791.00573 L270.07602 788.13894 L262.48438 785.05608 L255.00213 781.76048 L247.63321 778.25549 L240.38157 774.54445 L233.25114 770.63071 L226.24587 766.51762 L219.3697 762.20852 L212.62656 757.70675 L206.0204 753.01566 L199.55517 748.1386 L193.23479 743.0789 L187.06321 737.83993 L181.04438 732.42502 L175.18223 726.83751 L169.4807 721.08076 L163.94374 715.1581 L158.57529 709.07289 L153.37927 702.82846 L148.35965 696.42817 L143.52036 689.87536 L138.86533 683.17337 L134.39851 676.32556 L130.12385 669.33525 L126.04527 662.20581 L122.16673 654.94058 L118.49216 647.54289 L115.0255 640.0161 L113.37138 636.20534" />
    <path d="M293.71362 809.03867 L288.63719 807.5865 L278.64673 804.45178 L268.87442 801.01617 L259.32221 797.28717 L249.99204 793.27229 L240.88585 788.97905 L232.00559 784.41494 L223.3532 779.58749 L214.93064 774.50419 L206.73983 769.17256 L198.78274 763.6001 L191.0613 757.79434 L183.57746 751.76277 L176.33316 745.5129 L169.33036 739.05225 L162.57098 732.38832 L156.05699 725.52862 L149.79031 718.48067 L143.77291 711.25196 L138.00672 703.85002 L132.49368 696.28234 L127.23575 688.55645 L122.23487 680.67984 L117.49298 672.66003 L113.01203 664.50453 L108.79396 656.22084 L104.84072 647.81647 L101.15425 639.29894 L97.7365 630.67576 L94.58941 621.95442 L91.71492 613.14245 L89.11499 604.24735 L86.79156 595.27663 L84.74656 586.2378 L82.98196 577.13837 L81.49969 567.98584 L80.30169 558.78774 L79.38991 549.55156 L78.7663 540.28481 L78.43281 530.99501 L78.39136 521.68966 L78.64392 512.37628 L79.19243 503.06237 L80.03882 493.75544 L81.18506 484.46301 L82.63307 475.19257 L84.38481 465.95164 L86.44222 456.74774 L88.80724 447.58836 L91.48182 438.48101 L94.46791 429.43322 L97.76745 420.45248 L101.38239 411.5463 L105.31466 402.7222 L109.56622 393.98768 L114.13901 385.35026 L119.03498 376.81743 L124.25606 368.39672 L129.80421 360.09563 L135.68137 351.92167 L141.88948 343.88234 L148.43049 335.98517 L155.30635 328.23765 L162.51899 320.6473 L166.25222 316.91341 L166.25222 316.91341 L170.04805 313.24318 L177.75802 306.15855 L185.6195 299.41329 L193.62502 293.00533 L201.76709 286.9326 L210.03824 281.19303 L218.43101 275.78455 L226.9379 270.70509 L235.55145 265.95259 L244.26418 261.52496 L253.06861 257.42014 L261.95727 253.63606 L270.92268 250.17065 L279.95738 247.02184 L289.05387 244.18756 L298.20469 241.66573 L307.40236 239.45429 L316.6394 237.55117 L325.90835 235.9543 L335.20171 234.6616 L344.51203 233.67101 L353.83181 232.98046 L363.1536 232.58787 L372.4699 232.49118 L381.77325 232.68831 L391.05617 233.1772 L400.31119 233.95578 L409.53082 235.02196 L418.70759 236.3737 L427.83403 238.0089 L436.90267 239.92551 L445.90602 242.12146 L454.8366 244.59467 L463.68696 247.34307 L472.4496 250.36459 L481.11706 253.65717 L489.68185 257.21872 L498.1365 261.04719 L506.47354 265.1405 L514.6855 269.49659 L522.76488 274.11337 L530.70423 278.98878 L538.49606 284.12076 L546.1329 289.50722 L553.60727 295.14611 L560.9117 301.03534 L568.0387 307.17285 L574.98082 313.55658 L581.73056 320.18444 L588.28046 327.05437 L594.62304 334.16429 L600.75082 341.51215 L606.65632 349.09586 L612.33208 356.91336 L617.77062 364.96258 L622.96445 373.24145 L627.90611 381.74789 L632.58812 390.47984 L637.003 399.43522 L641.14328 408.61197 L645.00148 418.00801 L648.57013 427.62128 L651.84175 437.44971 L654.80887 447.49122 L656.1759 452.59123" />
    <path d="M218.8947 790.9876 L214.15437 788.19225 L204.89792 782.41172 L195.94039 776.38484 L187.28177 770.11968 L178.92206 763.62433 L170.86126 756.90687 L163.09936 749.97539 L155.63634 742.83798 L148.47221 735.50271 L141.60696 727.97768 L135.04058 720.27096 L128.77307 712.39065 L122.80442 704.34482 L117.13463 696.14157 L111.76368 687.78898 L106.69158 679.29512 L101.91831 670.66809 L97.44387 661.91598 L93.26826 653.04686 L89.39147 644.06882 L85.81348 634.98995 L82.53431 625.81832 L79.55393 616.56204 L76.87235 607.22917 L74.48955 597.8278 L72.40554 588.36603 L70.6203 578.85193 L69.13383 569.29359 L67.94612 559.6991 L67.05717 550.07653 L66.46697 540.43397 L66.17552 530.77952 L66.1828 521.12125 L66.48882 511.46724 L67.09357 501.82559 L67.99703 492.20437 L69.19921 482.61168 L70.7001 473.05559 L72.49969 463.5442 L74.59798 454.08558 L76.99495 444.68782 L79.69061 435.35901 L82.68495 426.10723 L85.97796 416.94056 L89.56964 407.8671 L93.45997 398.89492 L97.64896 390.03211 L102.1366 381.28675 L106.92287 372.66694 L112.00778 364.18074 L117.39133 355.83626 L123.07349 347.64157 L129.05427 339.60476 L135.33366 331.73391 L141.91166 324.03711 L148.78825 316.52244 L155.96344 309.19799 L163.43722 302.07185 L171.20957 295.15208 L179.2805 288.4468 L187.64999 281.96406 L196.31805 275.71197 L205.28467 269.69861 L214.54983 263.93206 L219.29437 261.14386 L219.29437 261.14386 L224.08537 258.43629 L233.71968 253.31023 L243.41788 248.56622 L253.17298 244.20022 L262.97797 240.20818 L272.82586 236.58605 L282.70965 233.32978 L292.62234 230.43533 L302.55693 227.89864 L312.50643 225.71568 L322.46383 223.88238 L332.42213 222.39472 L342.37435 221.24863 L352.31347 220.44007 L362.2325 219.96499 L372.12445 219.81935 L381.98231 219.99909 L391.79908 220.50017 L401.56777 221.31854 L411.28138 222.45016 L420.9329 223.89097 L430.51535 225.63693 L440.02172 227.68399 L449.44501 230.02811 L458.77823 232.66523 L468.01437 235.59131 L477.14644 238.80229 L486.16744 242.29414 L495.07037 246.06281 L503.84823 250.10424 L512.49403 254.41439 L521.00076 258.98921 L529.36143 263.82466 L537.56903 268.91668 L545.61658 274.26123 L553.49706 279.85426 L561.20349 285.69172 L568.72886 291.76957 L576.06617 298.08376 L583.20843 304.63024 L590.14864 311.40496 L596.8798 318.40388 L603.39491 325.62294 L609.68697 333.05811 L615.74898 340.70532 L621.57395 348.56054 L627.15487 356.61971 L632.48476 364.8788 L637.5566 373.33374 L642.3634 381.9805 L646.89816 390.81503 L651.15389 399.83327 L655.12358 409.03119 L658.80024 418.40472 L662.17687 427.94984 L665.24646 437.66248 L668.00203 447.53859 L670.43657 457.57415 L672.54308 467.76508 L674.31457 478.10736 L675.74403 488.59692 L676.82447 499.22972 L677.54889 510.00172 L677.91029 520.90886 L677.95267 526.41185" />
    <path d="M517.25438 242.92452 L521.36233 245.06713 L529.44099 249.50081 L537.33579 254.1285 L545.04563 258.94545 L552.56945 263.94693 L559.90615 269.12818 L567.05466 274.48446 L574.01389 280.01104 L580.78278 285.70316 L587.36024 291.5561 L593.74519 297.56509 L599.93655 303.72542 L605.93323 310.03232 L611.73417 316.48106 L617.33828 323.06689 L622.74449 329.78508 L627.9517 336.63087 L632.95885 343.59954 L637.76484 350.68633 L642.36861 357.8865 L646.76908 365.19531 L650.96515 372.60802 L654.95576 380.11989 L658.73983 387.72616 L662.31627 395.42211 L665.684 403.20299 L668.84195 411.06405 L671.78903 419.00055 L674.52417 427.00775 L677.04628 435.08091 L679.35429 443.21529 L681.44711 451.40614 L683.32367 459.64872 L684.98289 467.93828 L686.42369 476.27009 L687.64498 484.63941 L688.64569 493.04148 L689.42473 501.47157 L689.98104 509.92494 L690.31352 518.39684 L690.42111 526.88253 L690.30271 535.37727 L689.95725 543.87631 L689.38365 552.37492 L688.58083 560.86835 L687.54771 569.35185 L686.28321 577.82069 L684.78626 586.27012 L683.05576 594.69541 L681.09064 603.0918 L678.88983 611.45455 L676.45224 619.77893 L673.77679 628.06019 L670.8624 636.29359 L667.708 644.47438 L664.3125 652.59782 L660.67482 660.65918 L656.79389 668.6537 L652.66862 676.57665 L648.29793 684.42328 L643.68075 692.18885 L638.81599 699.86862 L633.70258 707.45785 L628.33944 714.95179 L625.56388 718.66154" />
    <path d="M686.4286 423.55275 L688.32455 429.55347 L691.76582 441.63318 L694.73944 453.80611 L697.24523 466.05887 L699.28302 478.37806 L700.85263 490.7503 L701.95388 503.16219 L702.58661 515.60034 L702.75062 528.05137 L702.44576 540.50187 L701.67183 552.93846 L700.42866 565.34775 L698.71608 577.71635 L696.53391 590.03086 L693.88198 602.2779 L690.7601 614.44406 L689.02288 620.49264" />
    <path d="M693.32383 405.74028 L695.7891 412.53305 L700.27754 426.23261 L704.17614 440.06856 L707.48442 454.02215 L710.20193 468.07465 L712.32822 482.20729 L713.86281 496.40135 L714.80526 510.63807 L715.1551 524.8987 L714.91187 539.1645 L714.07511 553.41673 L712.64436 567.63664 L710.61916 581.80548 L707.99905 595.90451 L704.78358 609.91498 L700.97227 623.81814 L698.84304 630.72363" />
    <path d="M20.6379 580.0339 L19.7226 573.70418 L18.22712 561.10984 L17.17238 548.60716 L16.55106 536.20204 L16.35581 523.90034 L16.57931 511.70795 L17.21422 499.63073 L18.25322 487.67458 L19.68898 475.84535 L21.51415 464.14893 L23.72142 452.5912 L26.30344 441.17803 L29.25289 429.9153 L32.56243 418.80888 L36.22474 407.86465 L40.23248 397.08848 L44.57832 386.48626 L49.25493 376.06386 L54.25498 365.82715 L59.57113 355.78202 L65.19606 345.93433 L71.12244 336.28996 L77.34292 326.8548 L83.85019 317.63471 L90.6369 308.63558 L97.69574 299.86327 L105.01936 291.32368 L112.60043 283.02266 L120.43162 274.9661 L128.50561 267.15987 L136.81506 259.60986 L145.35264 252.32193 L154.11101 245.30197 L163.08285 238.55584 L172.26082 232.08943 L181.6376 225.90862 L191.20585 220.01927 L200.95824 214.42726 L210.88743 209.13848 L220.9861 204.1588 L231.24692 199.49408 L241.66255 195.15022 L252.22567 191.13309 L262.92893 187.44855 L273.76501 184.1025 L284.72659 181.1008 L295.80631 178.44933 L306.99687 176.15397 L318.29091 174.22059 L329.68112 172.65508 L341.16016 171.4633 L352.7207 170.65113 L364.3554 170.22445 L376.05694 170.18914 L387.81799 170.55107 L399.63121 171.31611 L411.48927 172.49015 L423.38484 174.07906 L435.31059 176.08872 L447.25918 178.525 L459.22329 181.39378 L471.19559 184.70094 L483.16874 188.45235 L495.13541 192.65389 L501.11402 194.92529 L501.11402 194.92529 L507.05337 197.29747 L518.70814 202.29952 L530.06314 207.63743 L541.11695 213.30191 L551.86816 219.28367 L562.31533 225.57342 L572.45705 232.16188 L582.29188 239.03976 L591.81842 246.19777 L601.03523 253.62662 L609.94088 261.31704 L618.53397 269.25972 L626.81306 277.44538 L634.77673 285.86474 L642.42355 294.50851 L649.75212 303.3674 L656.76099 312.43212 L663.44875 321.69338 L669.81397 331.1419 L675.85524 340.7684 L681.57112 350.56357 L686.9602 360.51814 L692.02105 370.62282 L696.75224 380.86833 L701.15236 391.24536 L705.21999 401.74464 L708.95369 412.35688 L712.35204 423.07279 L715.41363 433.88309 L718.13702 444.77848 L720.5208 455.74968 L722.56355 466.7874 L724.26383 477.88236 L725.62022 489.02526 L726.63131 500.20682 L727.29567 511.41776 L727.61187 522.64878 L727.57849 533.89059 L727.19411 545.13392 L726.45731 556.36947 L725.36666 567.58795 L723.92074 578.78009 L722.11813 589.93658 L719.95739 601.04814 L717.43712 612.1055 L714.55588 623.09935 L711.31226 634.02041 L707.70482 644.85939 L703.73215 655.60701 L699.39283 666.25398 L694.68542 676.79101 L689.60851 687.20881 L684.16067 697.4981 L678.34048 707.64959 L672.14652 717.65399 L665.57736 727.50201 L658.63158 737.18437 L651.30776 746.69178 L643.60447 756.01495 L635.52029 765.1446 L627.0538 774.07144 L618.20357 782.78617 L608.96818 791.27952 L599.3462 799.54219 L594.38981 803.58412" />
    <path d="M43.72582 692.20911 L40.83637 686.36734 L35.37926 674.55565 L30.35303 662.58295 L25.75993 650.46109 L21.6022 638.2019 L17.88205 625.81725 L14.60174 613.31895 L11.76349 600.71887 L9.36953 588.02884 L7.42211 575.2607 L5.92346 562.4263 L4.8758 549.53749 L4.28137 536.60609 L4.14242 523.64396 L4.46116 510.66294 L5.23985 497.67487 L5.80236 491.1819" />
  </g>
</svg>