<?xml version="1.0" standalone="no"?>
<!DOCTYPE svg PUBLIC "-//W3C//DTD SVG 1.1//EN" 
    "http://www.w3.org/Graphics/SVG/1.1/DTD/svg11.dtd">
<svg width="21cm" height="29.7cm"
    xmlns="http://www.w3.org/2000/svg" version="1.1" viewBox="0 0 744.09449 1052.3622">
  <g fill="none" stroke="black" stroke-width="0.03cm">
    <path d="M373.31639 518.01138 L374.45471 518.26788 L376.47098 519.18165 L378.10638 520.54285 L379.32053 522.24714 L380.07302 524.19021 L380.32345 526.26773 L380.03141 528.37536 L379.15651 530.40879 L378.48786 531.36508 L378.48786 531.36508 L378.2349 531.66454 L377.68816 532.22554 L377.39531 532.48613" />
    <path d="M362.57517 507.80995 L363.90797 507.17883 L366.60439 506.22431 L369.3174 505.66434 L372.01758 505.48002 L374.67553 505.65245 L377.26183 506.16273 L379.74707 506.99195 L382.10183 508.12122 L384.29671 509.53164 L386.30229 511.2043 L388.08916 513.12031 L389.62791 515.26077 L390.88913 517.60678 L391.8434 520.13944 L392.46131 522.83984 L392.71345 525.68909 L392.69317 527.16362 L392.69317 527.16362 L392.63751 527.9868 L392.42801 529.62258 L392.27443 530.43322" />
    <path d="M375.22455 559.09898 L372.86967 559.24618 L368.29664 559.06503 L363.93302 558.28774 L359.81129 556.95987 L355.96394 555.12693 L352.42348 552.83447 L349.2224 550.12801 L346.39318 547.05308 L343.96833 543.65522 L341.98033 539.97997 L340.46169 536.07285 L339.44489 531.97939 L338.96243 527.74513 L339.0468 523.41561 L339.7305 519.03634 L341.04602 514.65287 L341.95087 512.47379 L341.95087 512.47379 L343.00083 510.3608 L345.44423 506.49102 L348.29919 503.10066 L351.51003 500.19507 L355.02107 497.77964 L358.77663 495.85974 L362.72104 494.44075 L366.79861 493.52804 L370.95367 493.12699 L375.13053 493.24296 L379.27352 493.88134 L383.32696 495.04749 L387.23516 496.7468 L390.94245 498.98463 L394.39316 501.76636 L397.53159 505.09737 L398.96631 506.97053" />
    <path d="M328.34759 513.608 L328.8251 512.04809 L329.91954 509.0309 L331.1921 506.1525 L332.63344 503.41519 L334.23423 500.82131 L335.98514 498.37317 L337.87685 496.07308 L339.90001 493.92336 L342.0453 491.92633 L344.30339 490.08431 L346.66495 488.39962 L349.12065 486.87456 L351.66115 485.51147 L354.27713 484.31266 L356.95925 483.28043 L359.69818 482.41713 L362.4846 481.72505 L365.30917 481.20652 L368.16256 480.86385 L371.03544 480.69937 L373.91848 480.71539 L376.80235 480.91422 L379.67771 481.2982 L382.53525 481.86962 L385.36562 482.63082 L388.15949 483.5841 L390.90754 484.73179 L393.60043 486.0762 L396.22883 487.61965 L398.78342 489.36446 L401.25486 491.31295 L403.63382 493.46743 L404.7857 494.62264 L404.7857 494.62264 L405.89787 495.81614 L407.96361 498.27254 L409.8201 500.81381 L411.47 503.4307 L412.91597 506.11396 L414.16067 508.85437 L415.20676 511.64268 L416.05688 514.46965 L416.71371 517.32604 L417.17991 520.20262 L417.45811 523.09014 L417.551 525.97936 L417.46122 528.86104 L417.19144 531.72595 L416.74431 534.56485 L416.12249 537.36849 L415.32864 540.12764 L414.36541 542.83305 L413.23547 545.47549 L411.94148 548.04572 L410.48609 550.5345 L408.87196 552.93258 L407.10175 555.23074 L405.17811 557.41972 L403.10371 559.49029 L400.88121 561.43322 L398.51326 563.23925 L396.00252 564.89916 L393.35165 566.4037 L390.5633 567.74363 L387.64014 568.90971 L384.58483 569.89271 L383.00845 570.31267" />
    <path d="M413.39582 485.68793 L414.86146 487.24052 L417.59615 490.47615 L420.06607 493.87252 L422.268 497.41378 L424.19875 501.08409 L425.85511 504.86758 L427.23388 508.74841 L428.33186 512.71073 L429.14584 516.7387 L429.67262 520.81645 L429.909 524.92814 L429.85178 529.05792 L429.49774 533.18994 L428.84369 537.30834 L427.88643 541.39729 L426.62275 545.44092 L425.875 547.44079" />
    <path d="M406.19568 464.76007 L408.36345 466.01615 L412.52866 468.7347 L416.45961 471.71548 L420.14765 474.94293 L423.58416 478.40147 L426.7605 482.07553 L429.66804 485.94954 L432.29813 490.00794 L434.64216 494.23514 L436.69147 498.61558 L438.43744 503.13369 L439.87144 507.77389 L440.98483 512.52062 L441.76898 517.35831 L442.21525 522.27138 L442.315 527.24427 L442.23224 529.74827" />
    <path d="M449.49954 555.10611 L448.415 557.86684 L446.00759 563.18267 L443.29679 568.22192 L440.29982 572.9817 L437.03394 577.45911 L433.51637 581.65127 L429.76437 585.55528 L425.79516 589.16826 L421.62599 592.4873 L417.2741 595.50953 L412.75673 598.23204 L408.09111 600.65194 L403.2945 602.76635 L398.38412 604.57238 L393.37722 606.06712 L388.29103 607.24769 L383.1428 608.1112 L377.94977 608.65476 L372.72918 608.87547 L367.49826 608.77044 L362.27426 608.33678 L357.07441 607.5716 L351.91596 606.47201 L346.81614 605.03512 L341.7922 603.25803 L336.86138 601.13785 L332.04091 598.6717 L327.34803 595.85667 L322.79999 592.68988 L318.41402 589.16844 L314.20736 585.28945 L310.19726 581.05003 L308.2713 578.79425 L308.2713 578.79425 L306.53758 576.62276 L303.32981 572.18225 L300.46461 567.62348 L297.93758 562.96057 L295.74434 558.20766 L293.88049 553.37889 L292.34165 548.48838 L291.12342 543.55027 L290.22141 538.57868 L289.63124 533.58776 L289.34851 528.59162 L289.36883 523.60441 L289.68781 518.64026 L290.30106 513.7133 L291.20419 508.83765 L292.39281 504.02746 L293.86252 499.29686 L295.60895 494.65997 L297.62769 490.13092 L299.91436 485.72386 L302.46457 481.45291 L305.27392 477.33221 L308.33802 473.37588 L311.6525 469.59806 L315.21294 466.01288 L319.01497 462.63447 L323.05419 459.47697 L327.32621 456.55451 L331.82665 453.88121 L336.5511 451.47121 L341.49519 449.33865 L346.65451 447.49765 L349.31352 446.69091" />
    <path d="M459.12706 488.00948 L459.94387 489.92985 L461.44632 493.8115 L462.77355 497.7428 L463.92519 501.71791 L464.90084 505.73097 L465.70013 509.77611 L466.32268 513.8475 L466.7681 517.93925 L467.03601 522.04554 L467.12603 526.16048 L467.03777 530.27824 L466.77086 534.39295 L466.32492 538.49876 L465.69955 542.5898 L464.89438 546.66024 L463.90903 550.7042 L463.34867 552.71442" />
    <path d="M373.46631 418.71016 L376.51832 418.79264 L382.54849 419.20628 L388.47353 419.9436 L394.28545 420.99514 L399.97628 422.35147 L405.53802 424.00313 L410.96269 425.94068 L416.24232 428.15468 L421.36891 430.63568 L426.33448 433.37422 L431.13105 436.36088 L435.75063 439.58619 L440.18524 443.04072 L444.4269 446.71501 L448.46762 450.59962 L452.29942 454.68511 L455.91431 458.96203 L459.30431 463.42093 L462.46143 468.05237 L465.3777 472.84689 L468.04512 477.79507 L470.45572 482.88743 L472.6015 488.11455 L474.47449 493.46698 L476.0667 498.93526 L477.37015 504.50996 L478.37686 510.18162 L479.07883 515.9408 L479.46809 521.77806 L479.53665 527.68395 L479.27652 533.64902 L478.67973 539.66382 L478.25259 542.68692" />
    <path d="M274.98563 455.81982 L277.56841 452.38082 L282.98756 445.88232 L288.72382 439.88762 L294.75197 434.3941 L301.04681 429.39914 L307.58311 424.90011 L314.33568 420.89439 L321.2793 417.37937 L328.38875 414.35241 L335.63884 411.81089 L343.00434 409.7522 L350.46005 408.17371 L357.98076 407.07279 L365.54125 406.44683 L373.11632 406.2932 L380.68075 406.60927 L388.20933 407.39244 L395.67685 408.64007 L403.05811 410.34954 L410.32789 412.51823 L417.46097 415.14351 L424.43216 418.22277 L431.21623 421.75338 L437.78798 425.73272 L444.1222 430.15817 L450.19367 435.0271 L455.97718 440.33689 L461.44753 446.08491 L466.57951 452.26856 L471.34789 458.88519 L475.72748 465.9322 L479.69305 473.40695 L481.51271 477.30392 L481.51271 477.30392 L482.5109 479.60314 L484.35366 484.23627 L485.9927 488.91084 L487.42938 493.62105 L488.66501 498.36112 L489.70095 503.12524 L490.53851 507.90763 L491.17906 512.70249 L491.62391 517.50404 L491.87441 522.30648 L491.93189 527.10402 L491.7977 531.89087 L491.47316 536.66124 L490.95961 541.40932 L490.2584 546.12934 L489.37086 550.8155 L488.29832 555.46201 L487.04212 560.06308 L485.6036 564.61291 L483.9841 569.10571 L482.18495 573.5357 L480.20749 577.89707 L478.05306 582.18404 L475.72299 586.39082 L473.21862 590.51161 L470.54129 594.54062 L467.69234 598.47206 L464.67309 602.30014 L461.4849 606.01906 L458.12909 609.62304 L454.607 613.10628 L450.91997 616.46299 L449.01502 618.09209" />
    <path d="M503.8065 514.41621 L504.13155 518.92491 L504.31875 527.95982 L504.18075 532.47812" />
    <path d="M296.90126 402.54113 L301.3819 399.92058 L310.44811 395.22024 L319.63186 391.22868 L328.90633 387.9312 L338.24468 385.3131 L347.62009 383.35969 L357.00573 382.05627 L366.37476 381.38816 L375.70035 381.34065 L384.95568 381.89904 L394.11391 383.04866 L403.14822 384.77479 L412.03176 387.06274 L420.73773 389.89783 L429.23927 393.26534 L437.50956 397.1506 L445.52178 401.5389 L453.24909 406.41555 L460.66466 411.76586 L467.74166 417.57512 L474.45326 423.82865 L480.77263 430.51174 L486.67293 437.60971 L492.12735 445.10786 L497.10905 452.9915 L501.59119 461.24592 L505.54696 469.85643 L508.94951 478.80835 L511.77201 488.08696 L513.98765 497.67759 L515.56958 507.56553 L516.49098 517.73609 L516.69559 522.92276 L516.69559 522.92276 L516.72771 527.35437 L516.38859 536.16345 L515.52041 544.88267 L514.13364 553.49081 L512.23878 561.96665 L509.84631 570.28897 L506.96671 578.43655 L503.61048 586.38818 L499.7881 594.12263 L495.51005 601.61869 L490.78682 608.85515 L485.6289 615.81078 L480.04677 622.46436 L474.05092 628.79468 L467.65184 634.78052 L460.86001 640.40066 L457.32009 643.06696" />
    <path d="M214.96464 525.05875 L215.00872 522.23315 L215.23854 516.63383 L215.65423 511.10537 L216.25216 505.64984 L217.02873 500.26927 L217.98034 494.96572 L219.10336 489.74125 L220.3942 484.59789 L221.84924 479.53771 L223.46486 474.56274 L226.18151 467.26457 L230.33208 457.85107 L235.06003 448.81536 L240.33648 440.17383 L246.13254 431.94289 L252.41933 424.13893 L259.16798 416.77835 L266.34959 409.87756 L273.9353 403.45296 L281.89622 397.52095 L290.20346 392.09792 L298.82815 387.20028 L307.7414 382.84443 L316.91434 379.04677 L326.31807 375.8237 L335.92373 373.19162 L345.70243 371.16693 L355.62529 369.76603 L365.66342 369.00533 L375.78794 368.90122 L385.96999 369.4701 L396.18066 370.72838 L403.84008 372.13437 L408.94027 373.29568 L414.03136 374.63856 L419.10976 376.16506 L424.17186 377.87724 L429.21403 379.77714 L434.23268 381.86682 L439.22419 384.14832 L444.18494 386.62369 L449.11134 389.29499 L451.56053 390.70475 L451.56053 390.70475 L453.98553 392.15573 L458.71978 395.15442 L463.29972 398.27864 L467.72539 401.52423 L471.9968 404.88705 L476.11401 408.36294 L480.07702 411.94774 L483.88588 415.63732 L487.54061 419.42751 L491.04124 423.31417 L496.00332 429.31594 L502.08036 437.61719 L507.54155 446.22957 L512.38711 455.11987 L516.61729 464.25487 L520.23232 473.60138 L523.23244 483.12616 L525.61789 492.79602 L527.3889 502.57774 L528.54572 512.4381 L529.08858 522.3439 L529.01772 532.26192 L528.33337 542.15894 L527.03577 552.00177 L525.12516 561.75718 L522.60178 571.39197 L519.46586 580.87291 L515.71765 590.1668 L511.35737 599.24043 L506.38527 608.06058 L500.80158 616.59405 L494.60654 624.80761 L489.55921 630.73787 L486.00339 634.57411 L482.29488 638.31169 L478.43369 641.94646 L474.41985 645.47427 L470.2534 648.89097 L465.93437 652.19241 L461.46277 655.37443 L456.83866 658.43289 L452.06204 661.36363 L449.61656 662.7798" />
    <path d="M538.26838 559.29877 L537.64734 562.28389 L536.26571 568.17038 L534.70153 573.944 L532.95906 579.60331 L531.04253 585.14687 L528.95619 590.57324 L526.70428 595.88098 L524.29105 601.06865 L521.72072 606.13482 L518.99755 611.07805 L516.12578 615.89689 L513.10965 620.58992 L509.9534 625.15568 L506.66128 629.59275 L503.23752 633.89969 L499.68637 638.07504 L496.01207 642.11739 L492.21886 646.02528 L486.31538 651.63188 L478.06749 658.62334 L469.42033 665.05109 L460.40784 670.90364 L451.06395 676.16948 L441.4226 680.83709 L431.51773 684.89497 L421.38327 688.33161 L411.05317 691.1355 L400.56135 693.29513 L389.94176 694.799 L379.22834 695.63559 L368.45501 695.79341 L357.65572 695.26093 L349.55963 694.40165 L344.1718 693.60709 L338.79657 692.63348 L333.43818 691.47938 L328.10087 690.14336 L322.78889 688.62399 L317.50648 686.91981 L312.25787 685.02939 L307.04732 682.9513 L301.87906 680.68409 L296.75734 678.22633 L291.68639 675.57657 L286.67047 672.73339 L281.7138 669.69533 L276.82065 666.46097 L271.99524 663.02886 L267.24181 659.39756 L262.56462 655.56564 L260.25594 653.574 L260.25594 653.574 L257.98126 651.5436 L253.57423 647.40382 L249.35621 643.1624 L245.32634 638.82372 L241.48375 634.39218 L237.82754 629.87217 L234.35686 625.26809 L231.07082 620.58433 L227.96855 615.82528 L225.04918 610.99533 L222.31182 606.09888 L219.75561 601.14032 L217.37966 596.12405 L215.18311 591.05445 L213.16508 585.93592 L211.32469 580.77286 L209.66106 575.56965 L208.17333 570.33069 L206.26962 562.41482 L204.33878 551.77621 L203.09576 541.07367 L202.53355 530.34235 L202.64515 519.61739 L203.42355 508.93393 L204.86176 498.32712 L206.95278 487.8321 L209.68959 477.48402 L213.0652 467.31803 L217.0726 457.36926 L221.7048 447.67286 L226.9548 438.26398 L232.81558 429.17776 L237.60778 422.59599 L240.98981 418.32727 L244.5206 414.15899 L248.19927 410.09553 L252.02495 406.1413 L255.99676 402.30068 L260.11382 398.57806 L264.37528 394.97784 L268.78023 391.50442 L273.32782 388.16218 L278.01717 384.95552 L282.8474 381.88883 L287.81763 378.9665 L292.927 376.19293 L298.17462 373.57252 L303.55962 371.10964 L309.08112 368.80871 L314.73826 366.6741 L317.61741 365.67054" />
    <path d="M192.36029 554.40316 L191.87993 551.16646 L191.09081 544.72574 L190.52736 538.33107 L190.18583 531.98549 L190.0625 525.69202 L190.15361 519.45367 L190.45543 513.27346 L190.96423 507.15442 L191.67625 501.09956 L192.58777 495.11191 L193.69503 489.19449 L194.99431 483.35031 L196.48186 477.5824 L198.15393 471.89378 L200.0068 466.28747 L202.03673 460.76648 L204.23996 455.33385 L206.61277 449.99258 L209.15141 444.7457 L211.85214 439.59624 L214.71123 434.5472 L217.72492 429.60162 L220.8895 424.7625 L224.2012 420.03288 L227.6563 415.41577 L231.25106 410.9142 L234.98172 406.53117 L238.84457 402.26972 L242.83585 398.13287 L246.95182 394.12363 L251.18875 390.24502 L255.54289 386.50007 L260.01051 382.8918 L264.58787 379.42322 L269.27122 376.09736 L274.05683 372.91723 L278.94095 369.88586 L283.91986 367.00627 L288.9898 364.28148 L294.14703 361.71451 L299.38783 359.30838 L304.70844 357.0661 L310.10513 354.99071 L315.57416 353.08522 L321.11179 351.35264 L326.71428 349.79601 L332.37788 348.41834 L338.09887 347.22266 L343.87349 346.21197 L349.69802 345.38931 L355.5687 344.75769 L361.48181 344.32014 L367.43359 344.07967 L373.42032 344.0393 L379.43825 344.20206 L385.48364 344.57097 L391.55275 345.14904 L397.64184 345.93929 L403.74717 346.94476 L409.86501 348.16845 L415.9916 349.61339 L422.12322 351.2826 L428.25613 353.17909 L434.38657 355.3059 L437.44971 356.45661 L437.44971 356.45661 L440.49294 357.65895 L446.46534 360.19592 L452.285 362.90528 L457.9512 365.7823 L463.46318 368.82223 L468.82019 372.02031 L474.02149 375.3718 L479.06634 378.87195 L483.95399 382.51601 L488.68369 386.29923 L493.2547 390.21686 L497.66626 394.26416 L501.91765 398.43636 L506.0081 402.72874 L509.93687 407.13653 L513.70322 411.65499 L517.30641 416.27936 L520.74568 421.0049 L524.02029 425.82687 L527.12949 430.74051 L530.07254 435.74106 L532.84869 440.8238 L535.4572 445.98395 L537.89732 451.21678 L540.1683 456.51754 L542.26941 461.88148 L544.19988 467.30384 L545.95898 472.77989 L547.54597 478.30487 L548.96008 483.87402 L550.20059 489.48261 L551.26674 495.12589 L552.15779 500.7991 L552.87299 506.49749 L553.41159 512.21633 L553.77286 517.95085 L553.95604 523.69631 L553.96038 529.44796 L553.78515 535.20105 L553.4296 540.95084 L552.89297 546.69257 L552.17453 552.42149 L551.27353 558.13286 L550.18922 563.82192 L548.92086 569.48394 L547.4677 575.11415 L545.82899 580.70781 L544.00399 586.26017 L541.99196 591.76649 L539.79214 597.222 L537.4038 602.62197 L534.82618 607.96165 L532.05854 613.23628 L529.10013 618.44112 L525.95022 623.57142 L522.60804 628.62243 L519.07286 633.5894 L515.34393 638.46757 L511.42051 643.25222 L507.30184 647.93857 L502.98719 652.52189 L498.4758 656.99743 L493.76694 661.36043 L488.85985 665.60615 L486.33174 667.68354" />
    <path d="M552.38439 453.87869 L553.87041 457.70139 L556.59248 465.41726 L558.98082 473.21819 L561.03496 481.0935 L562.75438 489.03252 L564.13859 497.02456 L565.18711 505.05895 L565.89942 513.12501 L566.27504 521.21206 L566.31347 529.30942 L566.01421 537.40641 L565.37677 545.49235 L564.40065 553.55657 L563.08535 561.58838 L561.43038 569.57711 L559.43525 577.51208 L558.30997 581.45607" />
    <path d="M165.44841 532.41657 L165.36766 528.6991 L165.39498 521.32542 L165.67015 514.03579 L166.18854 506.8331 L166.94551 499.72021 L167.9364 492.70001 L169.15656 485.77536 L170.60136 478.94913 L172.26614 472.2242 L174.14627 465.60344 L176.23708 459.08972 L178.53394 452.68592 L181.03221 446.3949 L183.72722 440.21955 L186.61435 434.16274 L189.68894 428.22733 L192.94634 422.4162 L196.38191 416.73223 L199.991 411.17828 L203.76897 405.75723 L207.71117 400.47195 L211.81296 395.32531 L216.06968 390.3202 L220.47669 385.45947 L225.02935 380.746 L229.72301 376.18267 L234.55302 371.77235 L239.51474 367.51791 L244.60352 363.42223 L249.81471 359.48817 L255.14366 355.71861 L260.58574 352.11643 L266.1363 348.68448 L271.79068 345.42566 L277.54425 342.34283 L283.39235 339.43886 L289.33034 336.71663 L295.35358 334.17901 L301.45741 331.82887 L307.63719 329.66908 L313.88828 327.70253 L320.20603 325.93207 L326.58579 324.36059 L333.02291 322.99095 L339.51276 321.82604 L346.05068 320.86871 L352.63202 320.12185 L359.25215 319.58833 L365.90641 319.27101 L372.59016 319.17279 L379.29875 319.29651 L386.02754 319.64507 L392.77187 320.22133 L399.52711 321.02816 L406.28861 322.06844 L413.05172 323.34504 L419.81179 324.86083 L426.56418 326.61869 L433.30424 328.62149 L440.02733 330.8721 L446.7288 333.37339 L453.404 336.12824 L460.04829 339.13952 L466.65701 342.4101 L469.94659 344.14353 L469.94659 344.14353 L473.20638 345.93233 L479.57853 349.64283 L485.75394 353.52595 L491.73246 357.57624 L497.51391 361.78823 L503.09815 366.15647 L508.48499 370.67549 L513.67428 375.33984 L518.66585 380.14405 L523.45953 385.08266 L528.05517 390.15022 L532.45259 395.34126 L536.65164 400.65033 L540.65214 406.07196 L544.45393 411.60069 L548.05685 417.23106 L551.46074 422.95762 L554.66542 428.7749 L557.67073 434.67744 L560.47651 440.65978 L563.0826 446.71647 L565.48882 452.84203 L567.69502 459.03102 L569.70103 465.27797 L571.50668 471.57742 L573.11181 477.92392 L574.51625 484.31199 L575.71985 490.73618 L576.72243 497.19103 L577.52383 503.67109 L578.12388 510.17088 L578.52243 516.68495 L578.7193 523.20784 L578.71433 529.73409 L578.50736 536.25824 L578.09822 542.77483 L577.48674 549.2784 L576.67277 555.76348 L575.65613 562.22463 L574.43667 568.65637 L573.01421 575.05325 L571.3886 581.40981 L569.55966 587.72058 L567.52724 593.98012 L565.29117 600.18294 L562.85128 606.32361 L560.2074 612.39665 L557.35938 618.39661 L554.30705 624.31803 L551.05025 630.15544 L547.5888 635.90339 L543.92255 641.55641 L540.05133 647.10905 L535.97497 652.55584 L531.69331 657.89133 L527.20619 663.11005 L522.51344 668.20655 L517.61489 673.17536 L512.51039 678.01103 L507.19976 682.70809 L501.68285 687.26108 L495.95948 691.66455 L490.02949 695.91303 L483.89272 700.00107 L480.74674 701.98321" />
    <path d="M191.21683 402.47679 L193.46966 399.24264 L198.09876 392.94471 L202.88763 386.8736 L207.83049 381.02886 L212.92158 375.41004 L218.15512 370.01671 L223.52533 364.84842 L229.02644 359.90474 L234.65268 355.18521 L240.39828 350.6894 L246.25745 346.41686 L252.22444 342.36716 L258.29346 338.53986 L264.45874 334.9345 L270.7145 331.55065 L277.05498 328.38787 L283.4744 325.44572 L289.96699 322.72374 L296.52697 320.22151 L303.14857 317.93858 L309.82601 315.87451 L316.55353 314.02885 L323.32534 312.40117 L330.13568 310.99102 L336.97877 309.79797 L343.84883 308.82156 L350.74011 308.06136 L357.64681 307.51692 L364.56317 307.18781 L371.48341 307.07358 L378.40176 307.17379 L385.31245 307.488 L392.2097 308.01577 L399.08774 308.75665 L405.9408 309.7102 L412.7631 310.87599 L419.54886 312.25356 L426.29232 313.84248 L432.98771 315.64231 L439.62924 317.65261 L446.21114 319.87292 L452.72765 322.30282 L459.17298 324.94185 L465.54136 327.78958 L471.82703 330.84557 L478.0242 334.10937 L484.1271 337.58055 L490.12997 341.25865 L496.02702 345.14324 L501.81248 349.23388 L507.48058 353.53012 L513.02554 358.03152 L518.44159 362.73765 L523.72297 367.64805 L528.86388 372.7623 L533.85857 378.07993 L538.70126 383.60053 L543.38617 389.32363 L547.90752 395.2488 L552.25956 401.37561 L556.4365 407.7036 L560.43256 414.23233 L564.24198 420.96137 L567.85899 427.89027 L569.59353 431.42953 L569.59353 431.42953 L571.66175 435.86797 L575.48809 444.85257 L578.89984 453.96896 L581.89568 463.20294 L584.47428 472.54032 L586.63432 481.96688 L588.37448 491.46842 L589.69342 501.03075 L590.58983 510.63965 L591.06238 520.28094 L591.10975 529.9404 L590.7306 539.60384 L589.92362 549.25705 L588.68748 558.88584 L587.02085 568.47599 L584.92241 578.0133 L583.71085 582.75771" />
    <path d="M582.7009 622.17831 L580.94196 625.95317 L577.2647 633.3479 L573.38003 640.53549 L569.29404 647.51535 L565.0128 654.28689 L560.54242 660.84954 L555.88898 667.20269 L551.05858 673.34578 L546.0573 679.2782 L540.89123 684.99937 L535.56647 690.50871 L530.0891 695.80564 L524.46521 700.88955 L518.7009 705.75987 L512.80225 710.41601 L506.77535 714.85739 L500.6263 719.08342 L494.36118 723.0935 L487.98609 726.88706 L481.50711 730.46351 L474.93033 733.82226 L468.26185 736.96272 L461.50775 739.88432 L454.67413 742.58645 L447.76706 745.06854 L440.79266 747.33001 L433.757 749.37025 L426.66617 751.18869 L419.52626 752.78474 L412.34337 754.15781 L405.12359 755.30732 L397.87299 756.23268 L390.59769 756.93331 L383.30375 757.40861 L375.99728 757.658 L368.68437 757.6809 L361.3711 757.47672 L354.06356 757.04486 L346.76785 756.38476 L339.49006 755.49581 L332.23626 754.37743 L325.01257 753.02904 L317.82505 751.45004 L310.67982 749.63986 L303.58294 747.59791 L296.54052 745.3236 L289.55865 742.81633 L282.64341 740.07554 L275.80089 737.10063 L269.0372 733.89101 L262.3584 730.44609 L255.7706 726.7653 L249.27989 722.84804 L242.89235 718.69373 L236.61407 714.30178 L230.45115 709.67161 L224.40968 704.80262 L218.49574 699.69424 L212.71542 694.34587 L207.07482 688.75693 L201.58003 682.92684 L196.23713 676.855 L191.05222 670.54082 L186.03138 663.98374 L183.58439 660.61391 L183.58439 660.61391 L181.19474 657.2032 L176.62934 650.32124 L172.34705 643.36322 L168.34531 636.33471 L164.6216 629.24128 L161.17337 622.0885 L157.99809 614.88192 L155.09323 607.62713 L152.45624 600.32968 L150.08459 592.99515 L147.97575 585.6291 L146.12716 578.2371 L144.53631 570.82471 L143.20064 563.39751 L142.11763 555.96106 L141.28473 548.52092 L140.69941 541.08268 L140.35914 533.65188 L140.26136 526.23411 L140.40356 518.83492 L140.78318 511.45989 L141.3977 504.11458 L142.24458 496.80457 L143.32127 489.53541 L144.62525 482.31267 L146.15397 475.14193 L147.9049 468.02874 L149.8755 460.97868 L152.06323 453.99732 L154.46556 447.09022 L157.07995 440.26294 L159.90386 433.52107 L162.93475 426.87015 L166.17009 420.31577 L169.60735 413.86349 L173.24397 407.51887 L177.07744 401.28748 L181.1052 395.1749 L185.32473 389.18668 L189.73348 383.3284 L194.32892 377.60562 L199.10851 372.02391 L204.06971 366.58884 L209.20999 361.30597 L214.52682 356.18087 L220.01764 351.21912 L225.67993 346.42627 L231.51114 341.80789 L237.50875 337.36956 L243.67022 333.11683 L249.99299 329.05528 L256.47455 325.19048 L263.11236 321.52798 L269.90386 318.07336 L276.84654 314.83219 L283.93785 311.81004 L291.17525 309.01246 L298.55621 306.44503 L306.07819 304.11331 L313.73865 302.02288 L321.53506 300.1793 L329.46488 298.58813 L337.52557 297.25495 L345.71459 296.18532 L349.85644 295.75108" />
    <path d="M136.96812 591.17236 L135.83475 586.93363 L133.80157 578.4735 L132.07606 570.04033 L130.65369 561.63873 L129.52993 553.27327 L128.70027 544.94855 L128.16019 536.66918 L127.90516 528.43974 L127.93066 520.26482 L128.23217 512.14902 L128.80517 504.09694 L129.64513 496.11317 L130.74754 488.2023 L132.10788 480.36892 L133.72161 472.61764 L135.58423 464.95303 L137.6912 457.37971 L140.038 449.90226 L142.62013 442.52528 L145.43304 435.25335 L148.47223 428.09108 L151.73316 421.04306 L155.21132 414.11388 L158.90219 407.30814 L162.80124 400.63043 L166.90396 394.08534 L171.20582 387.67747 L175.70229 381.41141 L180.38886 375.29175 L185.26101 369.3231 L190.31421 363.51004 L195.54395 357.85717 L200.94569 352.36908 L206.51492 347.05037 L212.24712 341.90563 L218.13777 336.93945 L224.18234 332.15643 L230.37631 327.56116 L236.71516 323.15823 L243.19437 318.95225 L249.80942 314.9478 L256.55578 311.14948 L263.42894 307.56188 L270.42436 304.18959 L277.53754 301.03722 L284.76395 298.10935 L292.09906 295.41057 L299.53836 292.94549 L307.07732 290.7187 L314.71142 288.73478 L322.43614 286.99834 L330.24696 285.51397 L338.13936 284.28625 L346.10881 283.3198 L354.15079 282.61919 L362.26078 282.18902 L370.43427 282.0339 L378.66672 282.1584 L386.95362 282.56713 L395.29044 283.26468 L403.67267 284.25565 L412.09577 285.54462 L420.55524 287.13619 L429.04654 289.03496 L433.30272 290.10098 L433.30272 290.10098 L437.54026 291.23882 L445.88354 293.7081 L454.04963 296.43035 L462.03682 299.39934 L469.8434 302.60887 L477.46764 306.05272 L484.90783 309.72468 L492.16225 313.61854 L499.22919 317.72808 L506.10692 322.04709 L512.79373 326.56937 L519.28789 331.28869 L525.58771 336.19884 L531.69144 341.29361 L537.59738 346.56678 L543.30382 352.01215 L548.80902 357.62351 L554.11128 363.39463 L559.20887 369.3193 L564.10009 375.39132 L568.7832 381.60447 L573.2565 387.95253 L577.51826 394.4293 L581.56678 401.02855 L585.40032 407.74409 L589.01717 414.56969 L592.41563 421.49914 L595.59395 428.52623 L598.55044 435.64475 L601.28337 442.84848 L603.79103 450.13121 L606.07169 457.48673 L608.12365 464.90882 L609.94517 472.39127 L611.53455 479.92788 L612.89006 487.51241 L614.01 495.13868 L614.89263 502.80045 L615.53625 510.49152 L615.93913 518.20567 L616.09956 525.93669 L616.01583 533.67837 L615.6862 541.4245 L615.10897 549.16886 L614.28242 556.90524 L613.20483 564.62743 L611.87448 572.32921 L610.28965 580.00437 L608.44863 587.6467 L606.3497 595.24998 L603.99115 602.80801 L601.37124 610.31456 L598.48827 617.76343 L595.34052 625.14841 L591.92628 632.46328 L588.24381 639.70182 L584.29141 646.85783 L580.06736 653.92509 L575.56994 660.89739 L570.79743 667.76851 L565.74812 674.53225 L560.42029 681.18239 L554.81221 687.71271 L548.92218 694.11701 L545.87089 697.26996" />
    <path d="M388.14964 781.97399 L383.54572 782.22474 L374.40613 782.48979 L365.36067 782.44424 L356.41309 782.09374 L347.56714 781.44393 L338.82658 780.50045 L330.19513 779.26895 L321.67657 777.75506 L313.27463 775.96443 L304.99306 773.9027 L296.83562 771.57551 L288.80604 768.9885 L280.90809 766.14732 L273.1455 763.0576 L265.52204 759.72499 L258.04143 756.15514 L250.70745 752.35367 L243.52382 748.32624 L236.49431 744.07849 L229.62266 739.61606 L222.91262 734.94458 L216.36793 730.06971 L209.99236 724.99708 L203.78964 719.73233 L197.76352 714.28111 L191.91776 708.64906 L186.2561 702.84182 L180.78229 696.86504 L175.50008 690.72435 L170.41321 684.42539 L165.52545 677.97382 L160.84053 671.37526 L156.3622 664.63537 L152.09422 657.75977 L148.04033 650.75413 L144.20428 643.62407 L140.58982 636.37524 L137.20069 629.01329 L134.04066 621.54384 L131.11346 613.97256 L128.42284 606.30506 L125.97256 598.54701 L123.76635 590.70404 L121.80798 582.78179 L120.10119 574.7859 L118.64972 566.72202 L117.45733 558.59579 L116.52777 550.41284 L115.86478 542.17883 L115.47211 533.89939 L115.35352 525.58017 L115.51274 517.22681 L115.95354 508.84494 L116.67965 500.44021 L117.69483 492.01827 L119.00282 483.58475 L120.60738 475.1453 L122.51225 466.70555 L124.72118 458.27116 L127.23792 449.84776 L130.06622 441.44099 L133.20982 433.0565 L136.67249 424.69992 L140.45795 416.3769 L142.47291 412.22974 L142.47291 412.22974 L144.55771 408.11725 L148.89797 400.06961 L153.46015 392.25879 L158.23748 384.68521 L163.2232 377.3493 L168.41056 370.25148 L173.7928 363.39219 L179.36315 356.77184 L185.11485 350.39086 L191.04114 344.24968 L197.13527 338.34872 L203.39047 332.68841 L209.79998 327.26917 L216.35705 322.09143 L223.05491 317.15562 L229.88679 312.46216 L236.84595 308.01147 L243.92562 303.80398 L251.11904 299.84012 L258.41945 296.12032 L265.82008 292.64499 L273.31419 289.41456 L280.895 286.42947 L288.55577 283.69013 L296.28972 281.19697 L304.0901 278.95041 L311.95014 276.95089 L319.8631 275.19882 L327.8222 273.69464 L335.82068 272.43876 L343.8518 271.43162 L351.90877 270.67364 L359.98486 270.16525 L368.07328 269.90686 L376.1673 269.89891 L384.26013 270.14182 L392.34503 270.63602 L400.41523 271.38193 L408.46398 272.37998 L416.48451 273.63059 L424.47006 275.1342 L432.41387 276.89122 L440.30919 278.90208 L448.14925 281.1672 L455.92728 283.68702 L463.63654 286.46195 L471.27026 289.49243 L478.82168 292.77888 L486.28404 296.32172 L493.65057 300.12138 L500.91453 304.17828 L508.06914 308.49286 L515.10766 313.06553 L522.02331 317.89672 L528.80933 322.98686 L535.45898 328.33638 L541.96548 333.94569 L548.32208 339.81523 L554.52201 345.94542 L560.55852 352.33668 L566.42485 358.98944 L572.11423 365.90413 L577.6199 373.08117 L582.93511 380.52099 L585.51918 384.33958" />
    <path d="M377.48919 257.53543 L382.32105 257.67419 L391.89286 258.19282 L401.3393 259.02776 L410.65693 260.17278 L419.84232 261.62167 L428.89206 263.3682 L437.80271 265.40615 L446.57085 267.7293 L455.19306 270.33143 L463.66591 273.20632 L471.98598 276.34775 L480.14983 279.74949 L488.15405 283.40533 L495.9952 287.30905 L503.66987 291.45443 L511.17463 295.83524 L518.50604 300.44526 L525.6607 305.27828 L532.63516 310.32807 L539.42601 315.58841 L546.02982 321.05309 L552.44316 326.71587 L558.66261 332.57054 L564.68475 338.61089 L570.50615 344.83068 L576.12337 351.2237 L581.53301 357.78372 L586.73162 364.50454 L591.71579 371.37991 L596.4821 378.40364 L601.0271 385.56948 L605.34739 392.87123 L609.43953 400.30266 L613.30011 407.85756 L616.92568 415.52969 L620.31283 423.31285 L623.45814 431.20081 L626.35817 439.18734 L629.0095 447.26623 L631.40871 455.43126 L633.55237 463.67621 L635.43706 471.99485 L637.05935 480.38097 L638.41581 488.82835 L639.50301 497.33075 L640.31755 505.88197 L640.85598 514.47579 L641.11488 523.10597 L641.09083 531.76631 L640.7804 540.45057 L640.18017 549.15255 L639.28671 557.86601 L638.09659 566.58475 L636.60639 575.30253 L634.81269 584.01313 L632.71205 592.71035 L630.30106 601.38794 L627.57629 610.03971 L624.53431 618.65941 L621.17169 627.24084 L617.48502 635.77777 L613.47086 644.26398 L609.1258 652.69326 L604.4464 661.05937 L601.98025 665.2168 L601.98025 665.2168 L599.99096 668.4548 L595.88621 674.82989 L591.61624 681.06844 L587.1847 687.16808 L582.59521 693.1264 L577.8514 698.94103 L572.95693 704.60956 L567.91541 710.12962 L562.73048 715.49881 L557.40578 720.71475 L551.94495 725.77504 L546.35161 730.6773 L540.6294 735.41913 L534.78195 739.99816 L528.8129 744.41198 L522.72589 748.65822 L516.52455 752.73448 L510.2125 756.63837 L503.7934 760.3675 L497.27086 763.91949 L490.64853 767.29194 L483.93005 770.48248 L477.11903 773.4887 L470.21912 776.30822 L463.23396 778.93865 L456.16717 781.3776 L449.0224 783.62269 L441.80327 785.67151 L434.51343 787.5217 L427.15649 789.17084 L419.73611 790.61657 L412.25591 791.85648 L408.49451 792.39851" />
    <path d="M631.17656 635.13309 L629.1772 639.77801 L624.97948 648.88546 L620.52256 657.74893 L615.81383 666.36751 L610.86064 674.74025 L605.67038 682.86623 L600.2504 690.74452 L594.60809 698.37418 L588.75081 705.7543 L582.68593 712.88392 L576.42083 719.76214 L569.96287 726.388 L563.31943 732.76059 L556.49787 738.87898 L549.50557 744.74223 L542.3499 750.34941 L535.03823 755.69959 L527.57792 760.79185 L519.97636 765.62524 L512.24091 770.19885 L504.37893 774.51173 L496.39781 778.56296 L488.30492 782.35162 L480.10761 785.87676 L471.81328 789.13746 L463.42927 792.13278 L454.96297 794.86181 L446.42175 797.32359 L437.81298 799.51722 L429.14402 801.44174 L420.42226 803.09625 L411.65505 804.47979 L402.84977 805.59145 L394.0138 806.43029 L385.15449 806.99539 L376.27923 807.2858 L367.39539 807.30061 L358.51032 807.03888 L349.63141 806.49967 L340.76603 805.68207 L331.92154 804.58514 L323.10532 803.20794 L314.32474 801.54955 L305.58717 799.60904 L296.89998 797.38547 L288.27053 794.87792 L279.70621 792.08546 L271.21438 789.00715 L262.80241 785.64206 L254.47767 781.98927 L246.24754 778.04784 L238.11938 773.81685 L230.10057 769.29536 L222.19847 764.48243 L214.42046 759.37715 L206.77391 753.97858 L199.26619 748.28579 L191.90466 742.29785 L184.69671 736.01383 L177.64969 729.4328 L170.77099 722.55382 L164.06797 715.37597 L157.548 707.89832 L151.21846 700.11994 L148.12739 696.11768 L148.12739 696.11768 L144.24194 690.87433 L136.88495 680.19894 L130.07885 669.28746 L123.82245 658.15852 L118.11457 646.83075 L112.95402 635.32279 L108.33961 623.65325 L104.27016 611.84077 L100.74446 599.90397 L97.76135 587.86149 L95.31963 575.73195 L93.41811 563.53397 L92.05561 551.2862 L91.23093 539.00725 L90.9429 526.71575 L91.19031 514.43034 L91.97199 502.16963 L93.28675 489.95227 L95.1334 477.79687 L97.51075 465.72206 L100.41761 453.74648 L103.8528 441.88875 L107.81513 430.16749 L112.30342 418.60135 L117.31646 407.20894 L122.85308 396.0089 L128.91209 385.01984 L135.4923 374.26041 L142.59252 363.74922 L150.21157 353.50492 L158.34825 343.54611 L167.00139 333.89144 L171.52126 329.18398" />
    <path d="M556.38501 754.57583 L552.24836 757.85715 L543.88235 764.15363 L535.39876 770.09754 L526.80482 775.69168 L518.10777 780.93883 L509.31484 785.8418 L500.43328 790.40337 L491.47032 794.62633 L482.43319 798.51348 L473.32914 802.06761 L464.16541 805.2915 L454.94922 808.18795 L445.68782 810.75976 L436.38844 813.00971 L427.05833 814.94059 L417.70471 816.5552 L408.33483 817.85633 L398.95592 818.84676 L389.57523 819.5293 L380.19998 819.90673 L370.83742 819.98185 L361.49478 819.75744 L352.17929 819.2363 L342.89821 818.42121 L333.65876 817.31498 L324.46818 815.92039 L315.33371 814.24024 L306.26259 812.27731 L297.26205 810.0344 L288.33933 807.5143 L279.50167 804.7198 L270.7563 801.65369 L262.11047 798.31876 L253.5714 794.71781 L245.14635 790.85362 L236.84254 786.729 L228.6672 782.34672 L220.62759 777.70959 L212.73094 772.82039 L204.98447 767.68192 L197.39544 762.29696 L189.97108 756.66831 L182.71862 750.79876 L175.6453 744.6911 L168.75837 738.34812 L162.06505 731.77262 L155.57258 724.96739 L149.28821 717.93521 L143.21917 710.67888 L137.37269 703.2012 L131.75601 695.50494 L126.37638 687.59291 L121.24103 679.4679 L116.35719 671.13269 L111.7321 662.59009 L107.373 653.84287 L103.28713 644.89384 L99.48172 635.74578 L95.96402 626.40148 L92.74125 616.86375 L89.82066 607.13536 L87.20949 597.21911 L84.91496 587.11779 L82.94433 576.8342 L82.08273 571.62493 L82.08273 571.62493 L81.30934 566.40182 L80.03944 556.00841 L79.13366 545.68945 L78.58596 535.44981 L78.39031 525.29436 L78.54068 515.22798 L79.03103 505.25554 L79.85532 495.3819 L81.00751 485.61195 L82.48157 475.95055 L84.27147 466.40257 L86.37116 456.97289 L88.77461 447.66638 L91.47579 438.48791 L94.46865 429.44235 L97.74717 420.53458 L101.3053 411.76946 L105.13701 403.15187 L109.23626 394.68668 L113.59702 386.37876 L118.21325 378.23299 L123.07891 370.25423 L128.18798 362.44736 L133.5344 354.81724 L139.11215 347.36876 L144.91519 340.10678 L150.93748 333.03617 L157.17299 326.16182 L163.61567 319.48858 L170.25951 313.02132 L177.09845 306.76494 L184.12646 300.72428 L191.33751 294.90423 L198.72555 289.30966 L206.28456 283.94544 L214.0085 278.81644 L221.89133 273.92753 L229.92701 269.28359 L238.10951 264.88949 L246.43279 260.75009 L254.89082 256.87028 L263.47755 253.25491 L272.18696 249.90888 L281.01301 246.83703 L289.94965 244.04426 L298.99086 241.53543 L308.1306 239.3154 L317.36283 237.38907 L326.68152 235.76128 L336.08062 234.43693 L345.55411 233.42087 L355.09595 232.71799 L364.70009 232.33315 L374.36051 232.27122 L384.07117 232.53708 L393.82603 233.1356 L403.61906 234.07165 L413.44421 235.3501 L423.29546 236.97583 L433.16677 238.9537 L443.05209 241.28859 L452.9454 243.98537 L462.84066 247.04891 L472.73183 250.48408 L477.674 252.34255" />
    <path d="M474.31312 237.87593 L479.48391 239.75945 L489.63968 243.75404 L499.54649 248.04539 L509.20289 252.62556 L518.60739 257.48659 L527.75853 262.62053 L536.65484 268.01944 L545.29485 273.67537 L553.67709 279.58036 L561.8001 285.72646 L569.6624 292.10573 L577.26252 298.71021 L584.59899 305.53195 L591.67036 312.56301 L598.47514 319.79543 L605.01186 327.22126 L611.27907 334.83256 L617.27528 342.62137 L622.99904 350.57974 L628.44886 358.69972 L633.62329 366.97336 L638.52085 375.39272 L643.14007 383.94984 L647.47949 392.63677 L651.53763 401.44556 L655.31303 410.36827 L658.80422 419.39693 L662.00972 428.52361 L664.92808 437.74034 L667.55781 447.03919 L669.89745 456.41219 L671.94554 465.85141 L673.70059 475.34889 L675.16116 484.89667 L676.32575 494.48682 L677.19291 504.11138 L677.76116 513.76239 L678.02905 523.43191 L677.99509 533.112 L677.65781 542.79469 L677.01576 552.47204 L676.06746 562.1361 L674.81144 571.77891 L673.24623 581.39254 L671.37036 590.96902 L669.18237 600.50041 L666.68078 609.97876 L663.86413 619.39612 L660.73094 628.74453 L657.27975 638.01605 L653.50909 647.20273 L649.41748 656.29661 L645.00347 665.28975 L640.26558 674.1742 L635.20234 682.942 L629.81228 691.58521 L624.09393 700.09587 L618.04583 708.46604 L611.6665 716.68777 L604.95448 724.7531 L597.9083 732.65408 L590.52648 740.38277 L582.80757 747.93122 L574.75008 755.29147 L570.59391 758.89854 L570.59391 758.89854 L566.03867 762.70914 L556.7195 770.05472 L547.13158 777.02699 L537.28628 783.61895 L527.195 789.82358 L516.86911 795.6339 L506.32001 801.0429 L495.55908 806.04359 L490.10273 808.38862" />
    <path d="M258.80624 823.66367 L253.16562 821.45481 L242.02558 816.72158 L231.08332 811.57307 L220.35024 806.01573 L209.83774 800.05603 L199.55721 793.70043 L189.52005 786.95538 L179.73766 779.82736 L174.94556 776.12175" />
    <path d="M674.31172 392.00062 L676.75509 397.64566 L681.31646 409.04504 L685.44274 420.57981 L689.1324 432.23755 L692.38392 444.00582 L695.19577 455.87221 L697.56643 467.82429 L699.49437 479.84963 L700.97806 491.93581 L702.01599 504.07041 L702.60662 516.24101 L702.74844 528.43517 L702.43991 540.64047 L701.67951 552.84449 L700.46572 565.03481 L698.79701 577.199 L697.79158 583.26741" />
    <path d="M127.39996 766.74781 L123.1096 762.31024 L114.82796 753.29682 L106.94305 744.1063 L99.45246 734.74741 L92.35377 725.22891 L85.64455 715.55952 L79.32239 705.74799 L73.38486 695.80306 L67.82955 685.73346 L62.65403 675.54793 L57.85588 665.25522 L53.43269 654.86406 L49.38203 644.38319 L45.70148 633.82135 L42.38862 623.18728 L39.44104 612.48971 L36.8563 601.73739 L34.63199 590.93906 L32.76569 580.10346 L31.25498 569.23931 L30.09744 558.35537 L29.29064 547.46038 L28.83217 536.56306 L28.71961 525.67217 L28.95053 514.79643 L29.52252 503.94459 L30.43315 493.12539 L31.68001 482.34756 L33.26066 471.61985 L35.17271 460.951 L37.41371 450.34973 L39.98125 439.8248 L42.87292 429.38494 L46.08629 419.03889 L49.61893 408.79539 L53.46844 398.66318 L57.63238 388.651 L62.10834 378.76758 L66.8939 369.02167 L71.98664 359.422 L77.38413 349.97732 L83.08396 340.69636 L89.0837 331.58786 L95.38094 322.66056 L101.97326 313.9232 L108.85822 305.38452 L116.03342 297.05326 L123.49643 288.93815 L131.24484 281.04794 L139.27621 273.39136 L147.58814 265.97716 L156.1782 258.81407 L165.04396 251.91084 L174.18302 245.27619 L183.59294 238.91887 L193.27131 232.84762 L203.21571 227.07119 L213.42372 221.59829 L223.89291 216.43769 L234.62087 211.5981 L245.60517 207.08829 L256.8434 202.91697 L268.33313 199.0929 L280.07195 195.62481 L286.03401 194.02699 L286.03401 194.02699 L292.02223 192.53021 L303.96891 189.86481 L315.87059 187.63154 L327.72091 185.82394 L339.51353 184.43554 L351.24207 183.45988 L362.90018 182.89049 L374.48151 182.72091 L385.9797 182.94467 L397.38838 183.5553 L408.70121 184.54634 L419.91181 185.91133 L431.01384 187.64379 L442.00094 189.73726 L452.86674 192.18528 L463.6049 194.98137 L474.20905 198.11908 L484.67283 201.59194 L494.98989 205.39348 L505.15387 209.51724 L515.15841 213.95675 L524.99715 218.70554 L534.66374 223.75715 L544.15181 229.10512 L553.45502 234.74297 L562.56699 240.66425 L571.48138 246.86248 L580.19182 253.3312 L588.69196 260.06394 L596.97544 267.05425 L605.0359 274.29564 L612.86699 281.78167 L620.46234 289.50585 L627.8156 297.46174 L634.92041 305.64285 L641.77041 314.04272 L648.35924 322.65489 L654.68055 331.4729 L660.72798 340.49027 L666.49516 349.70054 L671.97575 359.09725 L677.16339 368.67393 L682.05171 378.42411 L686.63435 388.34133 L690.90497 398.41912 L694.8572 408.65101 L698.48469 419.03055 L701.78107 429.55126 L704.73999 440.20668 L707.35509 450.99035 L709.62002 461.89579 L711.52841 472.91654 L713.0739 484.04614 L714.25015 495.27811 L715.05078 506.606 L715.46945 518.02334 L715.4998 529.52367 L715.13546 541.10051 L714.37008 552.7474 L713.1973 564.45787 L711.61076 576.22547 L709.60411 588.04371 L707.17099 599.90615 L704.30504 611.80631 L702.70777 617.76851" />
    <path d="M143.13928 254.17046 L148.06731 250.094 L158.04227 242.2611 L168.16838 234.85224 L178.43682 227.86422 L188.83874 221.29384 L199.36531 215.1379 L210.00771 209.39319 L220.75709 204.05652 L231.60462 199.12468 L242.54147 194.59447 L253.5588 190.4627 L264.64779 186.72616 L275.79959 183.38165 L287.00537 180.42597 L298.2563 177.85591 L309.54355 175.66829 L320.85828 173.85989 L332.19166 172.42752 L343.53485 171.36797 L354.87903 170.67805 L366.21535 170.35455 L377.53498 170.39427 L388.82909 170.79402 L400.08885 171.55058 L411.30542 172.66076 L422.46996 174.12137 L433.57365 175.92919 L444.60765 178.08102 L455.56313 180.57367 L466.43125 183.40394 L477.20318 186.56862 L487.87008 190.06451 L498.42313 193.88842 L508.85348 198.03714 L519.1523 202.50746 L529.31077 207.2962 L539.32004 212.40014 L549.17129 217.8161 L558.85567 223.54085 L568.36436 229.57122 L577.68852 235.90399 L586.81932 242.53596 L595.74792 249.46393 L604.46549 256.68471 L612.9632 264.19509 L621.2322 271.99186 L629.26368 280.07184 L637.0488 288.43182 L644.57871 297.06859 L651.84459 305.97896 L658.8376 315.15972 L665.54892 324.60768 L671.9697 334.31963 L678.09111 344.29237 L683.90432 354.52271 L689.40049 365.00744 L694.5708 375.74335 L699.4064 386.72726 L703.89847 397.95595 L708.03817 409.42623 L711.81666 421.1349 L715.22511 433.07875 L718.25469 445.25459 L720.89657 457.65921 L722.06936 463.94631 L722.06936 463.94631 L722.84298 468.46257 L724.21302 477.48406 L725.34866 486.48818 L726.25215 495.4717 L726.92571 504.4314 L727.37157 513.36407 L727.59199 522.26649 L727.58919 531.13545 L727.36541 539.96772 L726.92288 548.76008 L726.26385 557.50933 L725.39055 566.21224 L724.30522 574.86559 L723.01009 583.46617 L721.50739 592.01076 L719.79938 600.49614 L717.88827 608.91909 L715.77632 617.27641 L713.46575 625.56486 L710.9588 633.78123 L708.25771 641.92231 L705.36471 649.98487 L702.28205 657.96571 L699.01195 665.86159 L695.55666 673.66931 L691.91841 681.38565 L688.09944 689.00739 L684.10198 696.5313 L679.92827 703.95418 L675.58055 711.27281 L671.06105 718.48397 L666.37201 725.58444 L661.51567 732.571 L656.49426 739.44044 L651.31002 746.18953 L645.96519 752.81507 L640.462 759.31383 L634.80269 765.6826 L628.98949 771.91815 L623.02465 778.01728 L616.91039 783.97676 L610.64896 789.79338 L604.24259 795.46391 L597.69352 800.98515 L591.00398 806.35386 L584.17622 811.56685 L577.21246 816.62088 L570.11494 821.51274 L562.88591 826.23922 L555.52759 830.79709 L548.04223 835.18314 L540.43206 839.39415 L532.69931 843.4269 L524.84623 847.27818 L516.87505 850.94477 L508.788 854.42344 L500.58732 857.71099 L492.27526 860.80419 L483.85404 863.69984 L475.3259 866.3947 L466.69308 868.88556 L457.95782 871.16921 L449.12235 873.24243 L440.1889 875.10199 L435.68614 875.95065" />
    <path d="M515.1071 187.22073 L520.56061 189.5722 L531.28217 194.49323 L541.75515 199.69901 L551.97798 205.18236 L561.94907 210.93606 L571.66685 216.95292 L581.12972 223.22573 L590.33613 229.7473 L599.28448 236.51041 L607.97319 243.50786 L616.40068 250.73246 L624.56539 258.17701 L632.46571 265.83429 L640.10009 273.6971 L647.46692 281.75825 L654.56465 290.01054 L661.39168 298.44675 L667.94643 307.05969 L674.22734 315.84216 L680.23281 324.78695 L685.96127 333.88686 L691.41113 343.13469 L696.58082 352.52324 L701.46876 362.0453 L706.07337 371.69367 L710.39307 381.46115 L714.42627 391.34054 L718.1714 401.32463 L721.62689 411.40623 L724.79114 421.57813 L727.66258 431.83312 L730.23963 442.16401 L732.52071 452.56359 L734.50424 463.02467 L736.18864 473.54003 L737.57233 484.10248 L738.65373 494.70482 L739.43126 505.33984 L739.90335 516.00033 L740.0684 526.67911 L739.92485 537.36896 L739.4711 548.06268 L738.7056 558.75307 L737.62674 569.43293 L736.23295 580.09506 L734.52266 590.73225 L732.49428 601.33731 L730.14624 611.90302 L727.47694 622.42219 L724.48483 632.88761 L721.1683 643.29209 L717.52579 653.62842 L713.55571 663.88939 L709.25649 674.06781 L704.62655 684.15648 L699.66429 694.14818 L694.36816 704.03572 L688.73656 713.8119 L682.76791 723.46952 L676.46064 733.00137 L669.81317 742.40024 L662.82391 751.65895 L655.49129 760.77027 L647.81373 769.72702 L643.8451 774.14518" />
  </g>
</svg>