<?xml version="1.0" standalone="no"?>
<!DOCTYPE svg PUBLIC "-//W3C//DTD SVG 1.1//EN" 
    "http://www.w3.org/Graphics/SVG/1.1/DTD/svg11.dtd">
<svg width="21cm" height="21cm"
    xmlns="http://www.w3.org/2000/svg" version="1.1" viewBox="0 0 744.09449 744.09449">
  <g fill="none" stroke="black" stroke-width="0.03cm">
    <path d="M70.33064 63.47301 L39.38814 71.18785" />
    <path d="M39.38814 71.18785 L31.67331 40.24535" />
    <path d="M31.67331 40.24535 L62.61581 32.53051" />
    <path d="M62.61581 32.53051 L70.33064 63.47301" />
    <path d="M69.9599 99.49941 L38.767 106.12966" />
    <path d="M38.767 106.12966 L32.13674 74.93677" />
    <path d="M32.13674 74.93677 L63.32964 68.30651" />
    <path d="M63.32964 68.30651 L69.9599 99.49941" />
    <path d="M69.56867 135.5125 L38.16338 141.0501" />
    <path d="M38.16338 141.0501 L32.62578 109.64481" />
    <path d="M32.62578 109.64481 L64.03107 104.10721" />
    <path d="M64.03107 104.10721 L69.56867 135.5125" />
    <path d="M69.15743 171.51158 L37.57802 175.94978" />
    <path d="M37.57802 175.94978 L33.13982 144.37036" />
    <path d="M33.13982 144.37036 L64.71924 139.93217" />
    <path d="M64.71924 139.93217 L69.15743 171.51158" />
    <path d="M68.7267 207.49597 L37.01163 210.82936" />
    <path d="M37.01163 210.82936 L33.67824 179.11429" />
    <path d="M33.67824 179.11429 L65.39331 175.7809" />
    <path d="M65.39331 175.7809 L68.7267 207.49597" />
    <path d="M68.27698 243.46499 L36.4649 245.68951" />
    <path d="M36.4649 245.68951 L34.24038 213.87742" />
    <path d="M34.24038 213.87742 L66.05247 211.65291" />
    <path d="M66.05247 211.65291 L68.27698 243.46499" />
    <path d="M67.80884 279.41799 L35.9385 280.53092" />
    <path d="M35.9385 280.53092 L34.82557 248.66059" />
    <path d="M34.82557 248.66059 L66.6959 247.54765" />
    <path d="M66.6959 247.54765 L67.80884 279.41799" />
    <path d="M67.32283 315.35433 L35.43307 315.35433" />
    <path d="M35.43307 315.35433 L35.43307 283.46457" />
    <path d="M35.43307 283.46457 L67.32283 283.46457" />
    <path d="M67.32283 283.46457 L67.32283 315.35433" />
    <path d="M66.81956 351.27341 L34.94922 350.16047" />
    <path d="M34.94922 350.16047 L36.06216 318.29013" />
    <path d="M36.06216 318.29013 L67.9325 319.40307" />
    <path d="M67.9325 319.40307 L66.81956 351.27341" />
    <path d="M66.29963 387.17462 L34.48755 384.9501" />
    <path d="M34.48755 384.9501 L36.71207 353.13802" />
    <path d="M36.71207 353.13802 L68.52415 355.36254" />
    <path d="M68.52415 355.36254 L66.29963 387.17462" />
    <path d="M65.76369 423.05741 L34.04862 419.72402" />
    <path d="M34.04862 419.72402 L37.38201 388.00895" />
    <path d="M37.38201 388.00895 L69.09707 391.34234" />
    <path d="M69.09707 391.34234 L65.76369 423.05741" />
    <path d="M65.21237 458.92121 L33.63295 454.48302" />
    <path d="M33.63295 454.48302 L38.07115 422.9036" />
    <path d="M38.07115 422.9036 L69.65057 427.3418" />
    <path d="M69.65057 427.3418 L65.21237 458.92121" />
    <path d="M64.64636 494.76552 L33.24107 489.22792" />
    <path d="M33.24107 489.22792 L38.77867 457.82263" />
    <path d="M38.77867 457.82263 L70.18396 463.36023" />
    <path d="M70.18396 463.36023 L64.64636 494.76552" />
    <path d="M64.06634 530.58982 L32.87344 523.95956" />
    <path d="M32.87344 523.95956 L39.50369 492.76667" />
    <path d="M39.50369 492.76667 L70.69659 499.39692" />
    <path d="M70.69659 499.39692 L64.06634 530.58982" />
    <path d="M63.47301 566.39364 L32.53051 558.6788" />
    <path d="M32.53051 558.6788 L40.24535 527.7363" />
    <path d="M40.24535 527.7363 L71.18785 535.45113" />
    <path d="M71.18785 535.45113 L63.47301 566.39364" />
    <path d="M62.86712 602.17652 L32.21271 593.38651" />
    <path d="M32.21271 593.38651 L41.00272 562.7321" />
    <path d="M41.00272 562.7321 L71.65713 571.52211" />
    <path d="M71.65713 571.52211 L62.86712 602.17652" />
    <path d="M62.24938 637.93805 L31.92041 628.08357" />
    <path d="M31.92041 628.08357 L41.77489 597.7546" />
    <path d="M41.77489 597.7546 L72.10386 607.60908" />
    <path d="M72.10386 607.60908 L62.24938 637.93805" />
    <path d="M61.62055 673.67782 L31.65398 662.77088" />
    <path d="M31.65398 662.77088 L42.56092 632.8043" />
    <path d="M42.56092 632.8043 L72.5275 643.71124" />
    <path d="M72.5275 643.71124 L61.62055 673.67782" />
    <path d="M60.98141 709.39546 L31.41374 697.44934" />
    <path d="M31.41374 697.44934 L43.35985 667.88167" />
    <path d="M43.35985 667.88167 L72.92753 679.82778" />
    <path d="M72.92753 679.82778 L60.98141 709.39546" />
    <path d="M105.39297 64.06634 L74.20007 70.69659" />
    <path d="M74.20007 70.69659 L67.56982 39.50369" />
    <path d="M67.56982 39.50369 L98.76271 32.87344" />
    <path d="M98.76271 32.87344 L105.39297 64.06634" />
    <path d="M105.00174 100.07943 L73.59645 105.61703" />
    <path d="M73.59645 105.61703 L68.05885 74.21174" />
    <path d="M68.05885 74.21174 L99.46414 68.67414" />
    <path d="M99.46414 68.67414 L105.00174 100.07943" />
    <path d="M104.5905 136.07851 L73.01109 140.51671" />
    <path d="M73.01109 140.51671 L68.57289 108.93729" />
    <path d="M68.57289 108.93729 L100.15231 104.4991" />
    <path d="M100.15231 104.4991 L104.5905 136.07851" />
    <path d="M104.15977 172.0629 L72.4447 175.39629" />
    <path d="M72.4447 175.39629 L69.11131 143.68122" />
    <path d="M69.11131 143.68122 L100.82638 140.34783" />
    <path d="M100.82638 140.34783 L104.15977 172.0629" />
    <path d="M103.71005 208.03192 L71.89797 210.25644" />
    <path d="M71.89797 210.25644 L69.67346 178.44435" />
    <path d="M69.67346 178.44435 L101.48554 176.21984" />
    <path d="M101.48554 176.21984 L103.71005 208.03192" />
    <path d="M103.24191 243.98492 L71.37157 245.09785" />
    <path d="M71.37157 245.09785 L70.25864 213.22752" />
    <path d="M70.25864 213.22752 L102.12897 212.11458" />
    <path d="M102.12897 212.11458 L103.24191 243.98492" />
    <path d="M102.75591 279.92126 L70.86614 279.92126" />
    <path d="M70.86614 279.92126 L70.86614 248.0315" />
    <path d="M70.86614 248.0315 L102.75591 248.0315" />
    <path d="M102.75591 248.0315 L102.75591 279.92126" />
    <path d="M102.25263 315.84034 L70.3823 314.7274" />
    <path d="M70.3823 314.7274 L71.49523 282.85706" />
    <path d="M71.49523 282.85706 L103.36557 283.97" />
    <path d="M103.36557 283.97 L102.25263 315.84034" />
    <path d="M101.73271 351.74155 L69.92062 349.51703" />
    <path d="M69.92062 349.51703 L72.14514 317.70495" />
    <path d="M72.14514 317.70495 L103.95722 319.92947" />
    <path d="M103.95722 319.92947 L101.73271 351.74155" />
    <path d="M101.19676 387.62434 L69.48169 384.29095" />
    <path d="M69.48169 384.29095 L72.81508 352.57588" />
    <path d="M72.81508 352.57588 L104.53015 355.90927" />
    <path d="M104.53015 355.90927 L101.19676 387.62434" />
    <path d="M100.64544 423.48814 L69.06603 419.04995" />
    <path d="M69.06603 419.04995 L73.50422 387.47053" />
    <path d="M73.50422 387.47053 L105.08364 391.90873" />
    <path d="M105.08364 391.90873 L100.64544 423.48814" />
    <path d="M100.07943 459.33245 L68.67414 453.79485" />
    <path d="M68.67414 453.79485 L74.21174 422.38956" />
    <path d="M74.21174 422.38956 L105.61703 427.92716" />
    <path d="M105.61703 427.92716 L100.07943 459.33245" />
    <path d="M99.49941 495.15675 L68.30651 488.52649" />
    <path d="M68.30651 488.52649 L74.93677 457.3336" />
    <path d="M74.93677 457.3336 L106.12966 463.96385" />
    <path d="M106.12966 463.96385 L99.49941 495.15675" />
    <path d="M98.90609 530.96056 L67.96358 523.24573" />
    <path d="M67.96358 523.24573 L75.67842 492.30323" />
    <path d="M75.67842 492.30323 L106.62092 500.01806" />
    <path d="M106.62092 500.01806 L98.90609 530.96056" />
    <path d="M98.30019 566.74345 L67.64578 557.95344" />
    <path d="M67.64578 557.95344 L76.43579 527.29903" />
    <path d="M76.43579 527.29903 L107.0902 536.08904" />
    <path d="M107.0902 536.08904 L98.30019 566.74345" />
    <path d="M97.68245 602.50498 L67.35348 592.6505" />
    <path d="M67.35348 592.6505 L77.20796 562.32153" />
    <path d="M77.20796 562.32153 L107.53693 572.17601" />
    <path d="M107.53693 572.17601 L97.68245 602.50498" />
    <path d="M97.05363 638.24475 L67.08705 627.33781" />
    <path d="M67.08705 627.33781 L77.99399 597.37123" />
    <path d="M77.99399 597.37123 L107.96057 608.27817" />
    <path d="M107.96057 608.27817 L97.05363 638.24475" />
    <path d="M96.41448 673.96238 L66.84681 662.01627" />
    <path d="M66.84681 662.01627 L78.79292 632.44859" />
    <path d="M78.79292 632.44859 L108.3606 644.39471" />
    <path d="M108.3606 644.39471 L96.41448 673.96238" />
    <path d="M95.76579 709.65754 L66.63305 696.68681" />
    <path d="M66.63305 696.68681 L79.60378 667.55406" />
    <path d="M79.60378 667.55406 L108.73653 680.52479" />
    <path d="M108.73653 680.52479 L95.76579 709.65754" />
    <path d="M140.43481 64.64636 L109.02952 70.18396" />
    <path d="M109.02952 70.18396 L103.49192 38.77867" />
    <path d="M103.49192 38.77867 L134.89721 33.24107" />
    <path d="M134.89721 33.24107 L140.43481 64.64636" />
    <path d="M140.02358 100.64544 L108.44416 105.08364" />
    <path d="M108.44416 105.08364 L104.00596 73.50422" />
    <path d="M104.00596 73.50422 L135.58538 69.06603" />
    <path d="M135.58538 69.06603 L140.02358 100.64544" />
    <path d="M139.59284 136.62983 L107.87777 139.96322" />
    <path d="M107.87777 139.96322 L104.54438 108.24815" />
    <path d="M104.54438 108.24815 L136.25945 104.91476" />
    <path d="M136.25945 104.91476 L139.59284 136.62983" />
    <path d="M139.14313 172.59885 L107.33104 174.82337" />
    <path d="M107.33104 174.82337 L105.10653 143.01128" />
    <path d="M105.10653 143.01128 L136.91861 140.78677" />
    <path d="M136.91861 140.78677 L139.14313 172.59885" />
    <path d="M138.67498 208.55185 L106.80464 209.66478" />
    <path d="M106.80464 209.66478 L105.69171 177.79444" />
    <path d="M105.69171 177.79444 L137.56204 176.68151" />
    <path d="M137.56204 176.68151 L138.67498 208.55185" />
    <path d="M138.18898 244.48819 L106.29921 244.48819" />
    <path d="M106.29921 244.48819 L106.29921 212.59843" />
    <path d="M106.29921 212.59843 L138.18898 212.59843" />
    <path d="M138.18898 212.59843 L138.18898 244.48819" />
    <path d="M137.6857 280.40726 L105.81537 279.29433" />
    <path d="M105.81537 279.29433 L106.9283 247.42399" />
    <path d="M106.9283 247.42399 L138.79864 248.53693" />
    <path d="M138.79864 248.53693 L137.6857 280.40726" />
    <path d="M137.16578 316.30848 L105.35369 314.08396" />
    <path d="M105.35369 314.08396 L107.57821 282.27188" />
    <path d="M107.57821 282.27188 L139.39029 284.4964" />
    <path d="M139.39029 284.4964 L137.16578 316.30848" />
    <path d="M136.62983 352.19126 L104.91476 348.85788" />
    <path d="M104.91476 348.85788 L108.24815 317.14281" />
    <path d="M108.24815 317.14281 L139.96322 320.4762" />
    <path d="M139.96322 320.4762 L136.62983 352.19126" />
    <path d="M136.07851 388.05507 L104.4991 383.61687" />
    <path d="M104.4991 383.61687 L108.93729 352.03746" />
    <path d="M108.93729 352.03746 L140.51671 356.47566" />
    <path d="M140.51671 356.47566 L136.07851 388.05507" />
    <path d="M135.5125 423.89938 L104.10721 418.36178" />
    <path d="M104.10721 418.36178 L109.64481 386.95649" />
    <path d="M109.64481 386.95649 L141.0501 392.49409" />
    <path d="M141.0501 392.49409 L135.5125 423.89938" />
    <path d="M134.93248 459.72367 L103.73958 453.09342" />
    <path d="M103.73958 453.09342 L110.36984 421.90052" />
    <path d="M110.36984 421.90052 L141.56273 428.53078" />
    <path d="M141.56273 428.53078 L134.93248 459.72367" />
    <path d="M134.33916 495.52749 L103.39666 487.81266" />
    <path d="M103.39666 487.81266 L111.11149 456.87016" />
    <path d="M111.11149 456.87016 L142.05399 464.58499" />
    <path d="M142.05399 464.58499 L134.33916 495.52749" />
    <path d="M133.73326 531.31038 L103.07885 522.52037" />
    <path d="M103.07885 522.52037 L111.86886 491.86596" />
    <path d="M111.86886 491.86596 L142.52327 500.65597" />
    <path d="M142.52327 500.65597 L133.73326 531.31038" />
    <path d="M133.11552 567.07191 L102.78655 557.21743" />
    <path d="M102.78655 557.21743 L112.64103 526.88846" />
    <path d="M112.64103 526.88846 L142.97 536.74294" />
    <path d="M142.97 536.74294 L133.11552 567.07191" />
    <path d="M132.4867 602.81168 L102.52012 591.90474" />
    <path d="M102.52012 591.90474 L113.42706 561.93816" />
    <path d="M113.42706 561.93816 L143.39364 572.8451" />
    <path d="M143.39364 572.8451 L132.4867 602.81168" />
    <path d="M131.84755 638.52931 L102.27988 626.5832" />
    <path d="M102.27988 626.5832 L114.22599 597.01552" />
    <path d="M114.22599 597.01552 L143.79367 608.96164" />
    <path d="M143.79367 608.96164 L131.84755 638.52931" />
    <path d="M131.19887 674.22447 L102.06612 661.25374" />
    <path d="M102.06612 661.25374 L115.03685 632.12099" />
    <path d="M115.03685 632.12099 L144.1696 645.09172" />
    <path d="M144.1696 645.09172 L131.19887 674.22447" />
    <path d="M130.54143 709.89683 L101.8791 695.91728" />
    <path d="M101.8791 695.91728 L115.85865 667.25495" />
    <path d="M115.85865 667.25495 L144.52098 681.2345" />
    <path d="M144.52098 681.2345 L130.54143 709.89683" />
    <path d="M175.45665 65.21237 L143.87723 69.65057" />
    <path d="M143.87723 69.65057 L139.43903 38.07115" />
    <path d="M139.43903 38.07115 L171.01845 33.63295" />
    <path d="M171.01845 33.63295 L175.45665 65.21237" />
    <path d="M175.02591 101.19676 L143.31084 104.53015" />
    <path d="M143.31084 104.53015 L139.97745 72.81508" />
    <path d="M139.97745 72.81508 L171.69252 69.48169" />
    <path d="M171.69252 69.48169 L175.02591 101.19676" />
    <path d="M174.5762 137.16578 L142.76411 139.39029" />
    <path d="M142.76411 139.39029 L140.5396 107.57821" />
    <path d="M140.5396 107.57821 L172.35168 105.35369" />
    <path d="M172.35168 105.35369 L174.5762 137.16578" />
    <path d="M174.10805 173.11877 L142.23771 174.23171" />
    <path d="M142.23771 174.23171 L141.12478 142.36137" />
    <path d="M141.12478 142.36137 L172.99512 141.24844" />
    <path d="M172.99512 141.24844 L174.10805 173.11877" />
    <path d="M173.62205 209.05512 L141.73228 209.05512" />
    <path d="M141.73228 209.05512 L141.73228 177.16535" />
    <path d="M141.73228 177.16535 L173.62205 177.16535" />
    <path d="M173.62205 177.16535 L173.62205 209.05512" />
    <path d="M173.11877 244.97419 L141.24844 243.86126" />
    <path d="M141.24844 243.86126 L142.36137 211.99092" />
    <path d="M142.36137 211.99092 L174.23171 213.10386" />
    <path d="M174.23171 213.10386 L173.11877 244.97419" />
    <path d="M172.59885 280.87541 L140.78677 278.65089" />
    <path d="M140.78677 278.65089 L143.01128 246.83881" />
    <path d="M143.01128 246.83881 L174.82337 249.06333" />
    <path d="M174.82337 249.06333 L172.59885 280.87541" />
    <path d="M172.0629 316.75819 L140.34783 313.42481" />
    <path d="M140.34783 313.42481 L143.68122 281.70974" />
    <path d="M143.68122 281.70974 L175.39629 285.04313" />
    <path d="M175.39629 285.04313 L172.0629 316.75819" />
    <path d="M171.51158 352.622 L139.93217 348.1838" />
    <path d="M139.93217 348.1838 L144.37036 316.60439" />
    <path d="M144.37036 316.60439 L175.94978 321.04259" />
    <path d="M175.94978 321.04259 L171.51158 352.622" />
    <path d="M170.94557 388.4663 L139.54028 382.92871" />
    <path d="M139.54028 382.92871 L145.07788 351.52342" />
    <path d="M145.07788 351.52342 L176.48317 357.06102" />
    <path d="M176.48317 357.06102 L170.94557 388.4663" />
    <path d="M170.36555 424.2906 L139.17265 417.66035" />
    <path d="M139.17265 417.66035 L145.80291 386.46745" />
    <path d="M145.80291 386.46745 L176.9958 393.09771" />
    <path d="M176.9958 393.09771 L170.36555 424.2906" />
    <path d="M169.77223 460.09442 L138.82973 452.37959" />
    <path d="M138.82973 452.37959 L146.54456 421.43709" />
    <path d="M146.54456 421.43709 L177.48706 429.15192" />
    <path d="M177.48706 429.15192 L169.77223 460.09442" />
    <path d="M169.16633 495.87731 L138.51192 487.0873" />
    <path d="M138.51192 487.0873 L147.30193 456.43289" />
    <path d="M147.30193 456.43289 L177.95634 465.2229" />
    <path d="M177.95634 465.2229 L169.16633 495.87731" />
    <path d="M168.54859 531.63884 L138.21962 521.78436" />
    <path d="M138.21962 521.78436 L148.0741 491.45539" />
    <path d="M148.0741 491.45539 L178.40307 501.30987" />
    <path d="M178.40307 501.30987 L168.54859 531.63884" />
    <path d="M167.91977 567.37861 L137.95319 556.47166" />
    <path d="M137.95319 556.47166 L148.86013 526.50509" />
    <path d="M148.86013 526.50509 L178.82671 537.41203" />
    <path d="M178.82671 537.41203 L167.91977 567.37861" />
    <path d="M167.28062 603.09624 L137.71295 591.15013" />
    <path d="M137.71295 591.15013 L149.65906 561.58245" />
    <path d="M149.65906 561.58245 L179.22674 573.52857" />
    <path d="M179.22674 573.52857 L167.28062 603.09624" />
    <path d="M166.63194 638.7914 L137.49919 625.82066" />
    <path d="M137.49919 625.82066 L150.46992 596.68792" />
    <path d="M150.46992 596.68792 L179.60267 609.65865" />
    <path d="M179.60267 609.65865 L166.63194 638.7914" />
    <path d="M165.9745 674.46376 L137.31217 660.48421" />
    <path d="M137.31217 660.48421 L151.29172 631.82188" />
    <path d="M151.29172 631.82188 L179.95405 645.80143" />
    <path d="M179.95405 645.80143 L165.9745 674.46376" />
    <path d="M165.30911 710.11303 L137.15212 695.14169" />
    <path d="M137.15212 695.14169 L152.12346 666.9847" />
    <path d="M152.12346 666.9847 L180.28045 681.95604" />
    <path d="M180.28045 681.95604 L165.30911 710.11303" />
    <path d="M210.45898 65.76369 L178.74391 69.09707" />
    <path d="M178.74391 69.09707 L175.41053 37.38201" />
    <path d="M175.41053 37.38201 L207.12559 34.04862" />
    <path d="M207.12559 34.04862 L210.45898 65.76369" />
    <path d="M210.00927 101.73271 L178.19719 103.95722" />
    <path d="M178.19719 103.95722 L175.97267 72.14514" />
    <path d="M175.97267 72.14514 L207.78475 69.92062" />
    <path d="M207.78475 69.92062 L210.00927 101.73271" />
    <path d="M209.54112 137.6857 L177.67079 138.79864" />
    <path d="M177.67079 138.79864 L176.55785 106.9283" />
    <path d="M176.55785 106.9283 L208.42819 105.81537" />
    <path d="M208.42819 105.81537 L209.54112 137.6857" />
    <path d="M209.05512 173.62205 L177.16535 173.62205" />
    <path d="M177.16535 173.62205 L177.16535 141.73228" />
    <path d="M177.16535 141.73228 L209.05512 141.73228" />
    <path d="M209.05512 141.73228 L209.05512 173.62205" />
    <path d="M208.55185 209.54112 L176.68151 208.42819" />
    <path d="M176.68151 208.42819 L177.79444 176.55785" />
    <path d="M177.79444 176.55785 L209.66478 177.67079" />
    <path d="M209.66478 177.67079 L208.55185 209.54112" />
    <path d="M208.03192 245.44234 L176.21984 243.21782" />
    <path d="M176.21984 243.21782 L178.44435 211.40574" />
    <path d="M178.44435 211.40574 L210.25644 213.63026" />
    <path d="M210.25644 213.63026 L208.03192 245.44234" />
    <path d="M207.49597 281.32512 L175.7809 277.99174" />
    <path d="M175.7809 277.99174 L179.11429 246.27667" />
    <path d="M179.11429 246.27667 L210.82936 249.61005" />
    <path d="M210.82936 249.61005 L207.49597 281.32512" />
    <path d="M206.94465 317.18893 L175.36524 312.75073" />
    <path d="M175.36524 312.75073 L179.80344 281.17132" />
    <path d="M179.80344 281.17132 L211.38285 285.60952" />
    <path d="M211.38285 285.60952 L206.94465 317.18893" />
    <path d="M206.37864 353.03323 L174.97335 347.49563" />
    <path d="M174.97335 347.49563 L180.51095 316.09035" />
    <path d="M180.51095 316.09035 L211.91624 321.62795" />
    <path d="M211.91624 321.62795 L206.37864 353.03323" />
    <path d="M205.79862 388.85753 L174.60572 382.22728" />
    <path d="M174.60572 382.22728 L181.23598 351.03438" />
    <path d="M181.23598 351.03438 L212.42887 357.66464" />
    <path d="M212.42887 357.66464 L205.79862 388.85753" />
    <path d="M205.2053 424.66135 L174.2628 416.94652" />
    <path d="M174.2628 416.94652 L181.97763 386.00402" />
    <path d="M181.97763 386.00402 L212.92013 393.71885" />
    <path d="M212.92013 393.71885 L205.2053 424.66135" />
    <path d="M204.5994 460.44424 L173.94499 451.65423" />
    <path d="M173.94499 451.65423 L182.735 420.99982" />
    <path d="M182.735 420.99982 L213.38941 429.78983" />
    <path d="M213.38941 429.78983 L204.5994 460.44424" />
    <path d="M203.98166 496.20577 L173.65269 486.35129" />
    <path d="M173.65269 486.35129 L183.50717 456.02232" />
    <path d="M183.50717 456.02232 L213.83614 465.8768" />
    <path d="M213.83614 465.8768 L203.98166 496.20577" />
    <path d="M203.35284 531.94554 L173.38626 521.03859" />
    <path d="M173.38626 521.03859 L184.2932 491.07202" />
    <path d="M184.2932 491.07202 L214.25978 501.97896" />
    <path d="M214.25978 501.97896 L203.35284 531.94554" />
    <path d="M202.71369 567.66317 L173.14602 555.71706" />
    <path d="M173.14602 555.71706 L185.09214 526.14938" />
    <path d="M185.09214 526.14938 L214.65981 538.0955" />
    <path d="M214.65981 538.0955 L202.71369 567.66317" />
    <path d="M202.06501 603.35833 L172.93226 590.38759" />
    <path d="M172.93226 590.38759 L185.90299 561.25484" />
    <path d="M185.90299 561.25484 L215.03574 574.22558" />
    <path d="M215.03574 574.22558 L202.06501 603.35833" />
    <path d="M201.40757 639.03069 L172.74524 625.05114" />
    <path d="M172.74524 625.05114 L186.72479 596.38881" />
    <path d="M186.72479 596.38881 L215.38712 610.36836" />
    <path d="M215.38712 610.36836 L201.40757 639.03069" />
    <path d="M200.74218 674.67996 L172.58519 659.70862" />
    <path d="M172.58519 659.70862 L187.55653 631.55163" />
    <path d="M187.55653 631.55163 L215.71352 646.52297" />
    <path d="M215.71352 646.52297 L200.74218 674.67996" />
    <path d="M200.06965 710.30587 L172.45231 694.36099" />
    <path d="M172.45231 694.36099 L188.39719 666.74364" />
    <path d="M188.39719 666.74364 L216.01453 682.68853" />
    <path d="M216.01453 682.68853 L200.06965 710.30587" />
    <path d="M245.44234 66.29963 L213.63026 68.52415" />
    <path d="M213.63026 68.52415 L211.40574 36.71207" />
    <path d="M211.40574 36.71207 L243.21782 34.48755" />
    <path d="M243.21782 34.48755 L245.44234 66.29963" />
    <path d="M244.97419 102.25263 L213.10386 103.36557" />
    <path d="M213.10386 103.36557 L211.99092 71.49523" />
    <path d="M211.99092 71.49523 L243.86126 70.3823" />
    <path d="M243.86126 70.3823 L244.97419 102.25263" />
    <path d="M244.48819 138.18898 L212.59843 138.18898" />
    <path d="M212.59843 138.18898 L212.59843 106.29921" />
    <path d="M212.59843 106.29921 L244.48819 106.29921" />
    <path d="M244.48819 106.29921 L244.48819 138.18898" />
    <path d="M243.98492 174.10805 L212.11458 172.99512" />
    <path d="M212.11458 172.99512 L213.22752 141.12478" />
    <path d="M213.22752 141.12478 L245.09785 142.23771" />
    <path d="M245.09785 142.23771 L243.98492 174.10805" />
    <path d="M243.46499 210.00927 L211.65291 207.78475" />
    <path d="M211.65291 207.78475 L213.87742 175.97267" />
    <path d="M213.87742 175.97267 L245.68951 178.19719" />
    <path d="M245.68951 178.19719 L243.46499 210.00927" />
    <path d="M242.92904 245.89205 L211.21397 242.55866" />
    <path d="M211.21397 242.55866 L214.54736 210.8436" />
    <path d="M214.54736 210.8436 L246.26243 214.17698" />
    <path d="M246.26243 214.17698 L242.92904 245.89205" />
    <path d="M242.37772 281.75586 L210.79831 277.31766" />
    <path d="M210.79831 277.31766 L215.23651 245.73825" />
    <path d="M215.23651 245.73825 L246.81592 250.17644" />
    <path d="M246.81592 250.17644 L242.37772 281.75586" />
    <path d="M241.81171 317.60016 L210.40642 312.06256" />
    <path d="M210.40642 312.06256 L215.94402 280.65728" />
    <path d="M215.94402 280.65728 L247.34931 286.19488" />
    <path d="M247.34931 286.19488 L241.81171 317.60016" />
    <path d="M241.23169 353.42446 L210.03879 346.79421" />
    <path d="M210.03879 346.79421 L216.66905 315.60131" />
    <path d="M216.66905 315.60131 L247.86194 322.23157" />
    <path d="M247.86194 322.23157 L241.23169 353.42446" />
    <path d="M240.63837 389.22828 L209.69587 381.51345" />
    <path d="M209.69587 381.51345 L217.4107 350.57095" />
    <path d="M217.4107 350.57095 L248.3532 358.28578" />
    <path d="M248.3532 358.28578 L240.63837 389.22828" />
    <path d="M240.03247 425.01117 L209.37806 416.22116" />
    <path d="M209.37806 416.22116 L218.16807 385.56675" />
    <path d="M218.16807 385.56675 L248.82248 394.35676" />
    <path d="M248.82248 394.35676 L240.03247 425.01117" />
    <path d="M239.41473 460.7727 L209.08577 450.91822" />
    <path d="M209.08577 450.91822 L218.94024 420.58925" />
    <path d="M218.94024 420.58925 L249.26921 430.44373" />
    <path d="M249.26921 430.44373 L239.41473 460.7727" />
    <path d="M238.78591 496.51246 L208.81933 485.60552" />
    <path d="M208.81933 485.60552 L219.72628 455.63895" />
    <path d="M219.72628 455.63895 L249.69285 466.54589" />
    <path d="M249.69285 466.54589 L238.78591 496.51246" />
    <path d="M238.14676 532.2301 L208.57909 520.28399" />
    <path d="M208.57909 520.28399 L220.52521 490.71631" />
    <path d="M220.52521 490.71631 L250.09288 502.66243" />
    <path d="M250.09288 502.66243 L238.14676 532.2301" />
    <path d="M237.49808 567.92526 L208.36533 554.95452" />
    <path d="M208.36533 554.95452 L221.33606 525.82177" />
    <path d="M221.33606 525.82177 L250.46881 538.79251" />
    <path d="M250.46881 538.79251 L237.49808 567.92526" />
    <path d="M236.84064 603.59762 L208.17831 589.61806" />
    <path d="M208.17831 589.61806 L222.15786 560.95573" />
    <path d="M222.15786 560.95573 L250.82019 574.93529" />
    <path d="M250.82019 574.93529 L236.84064 603.59762" />
    <path d="M236.17525 639.24689 L208.01826 624.27555" />
    <path d="M208.01826 624.27555 L222.9896 596.11856" />
    <path d="M222.9896 596.11856 L251.14659 611.0899" />
    <path d="M251.14659 611.0899 L236.17525 639.24689" />
    <path d="M235.50272 674.8728 L207.88538 658.92792" />
    <path d="M207.88538 658.92792 L223.83026 631.31057" />
    <path d="M223.83026 631.31057 L251.4476 647.25546" />
    <path d="M251.4476 647.25546 L235.50272 674.8728" />
    <path d="M234.82387 710.47513 L207.77982 693.57613" />
    <path d="M207.77982 693.57613 L224.67882 666.53207" />
    <path d="M224.67882 666.53207 L251.72287 683.43107" />
    <path d="M251.72287 683.43107 L234.82387 710.47513" />
    <path d="M280.40726 66.81956 L248.53693 67.9325" />
    <path d="M248.53693 67.9325 L247.42399 36.06216" />
    <path d="M247.42399 36.06216 L279.29433 34.94922" />
    <path d="M279.29433 34.94922 L280.40726 66.81956" />
    <path d="M279.92126 102.75591 L248.0315 102.75591" />
    <path d="M248.0315 102.75591 L248.0315 70.86614" />
    <path d="M248.0315 70.86614 L279.92126 70.86614" />
    <path d="M279.92126 70.86614 L279.92126 102.75591" />
    <path d="M279.41799 138.67498 L247.54765 137.56204" />
    <path d="M247.54765 137.56204 L248.66059 105.69171" />
    <path d="M248.66059 105.69171 L280.53092 106.80464" />
    <path d="M280.53092 106.80464 L279.41799 138.67498" />
    <path d="M278.89806 174.5762 L247.08598 172.35168" />
    <path d="M247.08598 172.35168 L249.3105 140.5396" />
    <path d="M249.3105 140.5396 L281.12258 142.76411" />
    <path d="M281.12258 142.76411 L278.89806 174.5762" />
    <path d="M278.36211 210.45898 L246.64704 207.12559" />
    <path d="M246.64704 207.12559 L249.98043 175.41053" />
    <path d="M249.98043 175.41053 L281.6955 178.74391" />
    <path d="M281.6955 178.74391 L278.36211 210.45898" />
    <path d="M277.81079 246.32279 L246.23138 241.88459" />
    <path d="M246.23138 241.88459 L250.66958 210.30518" />
    <path d="M250.66958 210.30518 L282.24899 214.74337" />
    <path d="M282.24899 214.74337 L277.81079 246.32279" />
    <path d="M277.24478 282.16709 L245.83949 276.62949" />
    <path d="M245.83949 276.62949 L251.37709 245.22421" />
    <path d="M251.37709 245.22421 L282.78238 250.76181" />
    <path d="M282.78238 250.76181 L277.24478 282.16709" />
    <path d="M276.66476 317.99139 L245.47186 311.36114" />
    <path d="M245.47186 311.36114 L252.10212 280.16824" />
    <path d="M252.10212 280.16824 L283.29502 286.7985" />
    <path d="M283.29502 286.7985 L276.66476 317.99139" />
    <path d="M276.07144 353.79521 L245.12894 346.08038" />
    <path d="M245.12894 346.08038 L252.84377 315.13788" />
    <path d="M252.84377 315.13788 L283.78627 322.85271" />
    <path d="M283.78627 322.85271 L276.07144 353.79521" />
    <path d="M275.46554 389.5781 L244.81113 380.78809" />
    <path d="M244.81113 380.78809 L253.60114 350.13368" />
    <path d="M253.60114 350.13368 L284.25555 358.92369" />
    <path d="M284.25555 358.92369 L275.46554 389.5781" />
    <path d="M274.8478 425.33962 L244.51884 415.48515" />
    <path d="M244.51884 415.48515 L254.37332 385.15618" />
    <path d="M254.37332 385.15618 L284.70228 395.01066" />
    <path d="M284.70228 395.01066 L274.8478 425.33962" />
    <path d="M274.21898 461.07939 L244.2524 450.17245" />
    <path d="M244.2524 450.17245 L255.15935 420.20588" />
    <path d="M255.15935 420.20588 L285.12592 431.11282" />
    <path d="M285.12592 431.11282 L274.21898 461.07939" />
    <path d="M273.57984 496.79703 L244.01216 484.85091" />
    <path d="M244.01216 484.85091 L255.95828 455.28324" />
    <path d="M255.95828 455.28324 L285.52595 467.22936" />
    <path d="M285.52595 467.22936 L273.57984 496.79703" />
    <path d="M272.93115 532.49219 L243.7984 519.52145" />
    <path d="M243.7984 519.52145 L256.76914 490.3887" />
    <path d="M256.76914 490.3887 L285.90188 503.35944" />
    <path d="M285.90188 503.35944 L272.93115 532.49219" />
    <path d="M272.27371 568.16455 L243.61138 554.18499" />
    <path d="M243.61138 554.18499 L257.59093 525.52266" />
    <path d="M257.59093 525.52266 L286.25326 539.50222" />
    <path d="M286.25326 539.50222 L272.27371 568.16455" />
    <path d="M271.60832 603.81381 L243.45133 588.84248" />
    <path d="M243.45133 588.84248 L258.42267 560.68549" />
    <path d="M258.42267 560.68549 L286.57966 575.65682" />
    <path d="M286.57966 575.65682 L271.60832 603.81381" />
    <path d="M270.93579 639.43973 L243.31845 623.49485" />
    <path d="M243.31845 623.49485 L259.26333 595.8775" />
    <path d="M259.26333 595.8775 L286.88068 611.82238" />
    <path d="M286.88068 611.82238 L270.93579 639.43973" />
    <path d="M270.25694 675.04206 L243.21289 658.14306" />
    <path d="M243.21289 658.14306 L260.11189 631.099" />
    <path d="M260.11189 631.099 L287.15594 647.998" />
    <path d="M287.15594 647.998 L270.25694 675.04206" />
    <path d="M269.5726 710.62059 L243.13479 692.78806" />
    <path d="M243.13479 692.78806 L260.96732 666.35025" />
    <path d="M260.96732 666.35025 L287.40513 684.18278" />
    <path d="M287.40513 684.18278 L269.5726 710.62059" />
    <path d="M315.35433 67.32283 L283.46457 67.32283" />
    <path d="M283.46457 67.32283 L283.46457 35.43307" />
    <path d="M283.46457 35.43307 L315.35433 35.43307" />
    <path d="M315.35433 35.43307 L315.35433 67.32283" />
    <path d="M314.85106 103.24191 L282.98072 102.12897" />
    <path d="M282.98072 102.12897 L284.09366 70.25864" />
    <path d="M284.09366 70.25864 L315.96399 71.37157" />
    <path d="M315.96399 71.37157 L314.85106 103.24191" />
    <path d="M314.33113 139.14313 L282.51905 136.91861" />
    <path d="M282.51905 136.91861 L284.74357 105.10653" />
    <path d="M284.74357 105.10653 L316.55565 107.33104" />
    <path d="M316.55565 107.33104 L314.33113 139.14313" />
    <path d="M313.79518 175.02591 L282.08011 171.69252" />
    <path d="M282.08011 171.69252 L285.4135 139.97745" />
    <path d="M285.4135 139.97745 L317.12857 143.31084" />
    <path d="M317.12857 143.31084 L313.79518 175.02591" />
    <path d="M313.24387 210.88972 L281.66445 206.45152" />
    <path d="M281.66445 206.45152 L286.10265 174.87211" />
    <path d="M286.10265 174.87211 L317.68206 179.3103" />
    <path d="M317.68206 179.3103 L313.24387 210.88972" />
    <path d="M312.67785 246.73402 L281.27257 241.19642" />
    <path d="M281.27257 241.19642 L286.81017 209.79114" />
    <path d="M286.81017 209.79114 L318.21545 215.32873" />
    <path d="M318.21545 215.32873 L312.67785 246.73402" />
    <path d="M312.09783 282.55832 L280.90494 275.92807" />
    <path d="M280.90494 275.92807 L287.53519 244.73517" />
    <path d="M287.53519 244.73517 L318.72809 251.36542" />
    <path d="M318.72809 251.36542 L312.09783 282.55832" />
    <path d="M311.50451 318.36214 L280.56201 310.64731" />
    <path d="M280.56201 310.64731 L288.27684 279.70481" />
    <path d="M288.27684 279.70481 L319.21934 287.41964" />
    <path d="M319.21934 287.41964 L311.50451 318.36214" />
    <path d="M310.89861 354.14503 L280.2442 345.35502" />
    <path d="M280.2442 345.35502 L289.03421 314.70061" />
    <path d="M289.03421 314.70061 L319.68862 323.49062" />
    <path d="M319.68862 323.49062 L310.89861 354.14503" />
    <path d="M310.28088 389.90655 L279.95191 380.05207" />
    <path d="M279.95191 380.05207 L289.80639 349.72311" />
    <path d="M289.80639 349.72311 L320.13535 359.57759" />
    <path d="M320.13535 359.57759 L310.28088 389.90655" />
    <path d="M309.65205 425.64632 L279.68548 414.73938" />
    <path d="M279.68548 414.73938 L290.59242 384.77281" />
    <path d="M290.59242 384.77281 L320.55899 395.67975" />
    <path d="M320.55899 395.67975 L309.65205 425.64632" />
    <path d="M309.01291 461.36396 L279.44523 449.41784" />
    <path d="M279.44523 449.41784 L291.39135 419.85017" />
    <path d="M291.39135 419.85017 L320.95902 431.79629" />
    <path d="M320.95902 431.79629 L309.01291 461.36396" />
    <path d="M308.36422 497.05912 L279.23147 484.08838" />
    <path d="M279.23147 484.08838 L292.20221 454.95563" />
    <path d="M292.20221 454.95563 L321.33495 467.92637" />
    <path d="M321.33495 467.92637 L308.36422 497.05912" />
    <path d="M307.70678 532.73148 L279.04445 518.75192" />
    <path d="M279.04445 518.75192 L293.024 490.08959" />
    <path d="M293.024 490.08959 L321.68633 504.06915" />
    <path d="M321.68633 504.06915 L307.70678 532.73148" />
    <path d="M307.04139 568.38074 L278.8844 553.40941" />
    <path d="M278.8844 553.40941 L293.85574 525.25242" />
    <path d="M293.85574 525.25242 L322.01273 540.22375" />
    <path d="M322.01273 540.22375 L307.04139 568.38074" />
    <path d="M306.36886 604.00666 L278.75152 588.06178" />
    <path d="M278.75152 588.06178 L294.6964 560.44443" />
    <path d="M294.6964 560.44443 L322.31375 576.38931" />
    <path d="M322.31375 576.38931 L306.36886 604.00666" />
    <path d="M305.69001 639.60899 L278.64596 622.70999" />
    <path d="M278.64596 622.70999 L295.54496 595.66593" />
    <path d="M295.54496 595.66593 L322.58902 612.56493" />
    <path d="M322.58902 612.56493 L305.69001 639.60899" />
    <path d="M305.00567 675.18752 L278.56786 657.35499" />
    <path d="M278.56786 657.35499 L296.40039 630.91718" />
    <path d="M296.40039 630.91718 L322.8382 648.74971" />
    <path d="M322.8382 648.74971 L305.00567 675.18752" />
    <path d="M304.31667 710.74208 L278.51731 691.99775" />
    <path d="M278.51731 691.99775 L297.26164 666.19839" />
    <path d="M297.26164 666.19839 L323.061 684.94272" />
    <path d="M323.061 684.94272 L304.31667 710.74208" />
    <path d="M350.28413 67.80884 L318.41379 66.6959" />
    <path d="M318.41379 66.6959 L319.52673 34.82557" />
    <path d="M319.52673 34.82557 L351.39707 35.9385" />
    <path d="M351.39707 35.9385 L350.28413 67.80884" />
    <path d="M349.7642 103.71005 L317.95212 101.48554" />
    <path d="M317.95212 101.48554 L320.17664 69.67346" />
    <path d="M320.17664 69.67346 L351.98872 71.89797" />
    <path d="M351.98872 71.89797 L349.7642 103.71005" />
    <path d="M349.22825 139.59284 L317.51319 136.25945" />
    <path d="M317.51319 136.25945 L320.84657 104.54438" />
    <path d="M320.84657 104.54438 L352.56164 107.87777" />
    <path d="M352.56164 107.87777 L349.22825 139.59284" />
    <path d="M348.67694 175.45665 L317.09752 171.01845" />
    <path d="M317.09752 171.01845 L321.53572 139.43903" />
    <path d="M321.53572 139.43903 L353.11513 143.87723" />
    <path d="M353.11513 143.87723 L348.67694 175.45665" />
    <path d="M348.11092 211.30095 L316.70564 205.76335" />
    <path d="M316.70564 205.76335 L322.24324 174.35806" />
    <path d="M322.24324 174.35806 L353.64852 179.89566" />
    <path d="M353.64852 179.89566 L348.11092 211.30095" />
    <path d="M347.5309 247.12525 L316.33801 240.495" />
    <path d="M316.33801 240.495 L322.96826 209.3021" />
    <path d="M322.96826 209.3021 L354.16116 215.93235" />
    <path d="M354.16116 215.93235 L347.5309 247.12525" />
    <path d="M346.93758 282.92907 L315.99508 275.21424" />
    <path d="M315.99508 275.21424 L323.70991 244.27174" />
    <path d="M323.70991 244.27174 L354.65241 251.98657" />
    <path d="M354.65241 251.98657 L346.93758 282.92907" />
    <path d="M346.33168 318.71196 L315.67728 309.92194" />
    <path d="M315.67728 309.92194 L324.46729 279.26754" />
    <path d="M324.46729 279.26754 L355.12169 288.05755" />
    <path d="M355.12169 288.05755 L346.33168 318.71196" />
    <path d="M345.71395 354.47348 L315.38498 344.619" />
    <path d="M315.38498 344.619 L325.23946 314.29004" />
    <path d="M325.23946 314.29004 L355.56842 324.14452" />
    <path d="M355.56842 324.14452 L345.71395 354.47348" />
    <path d="M345.08512 390.21325 L315.11855 379.30631" />
    <path d="M315.11855 379.30631 L326.02549 349.33973" />
    <path d="M326.02549 349.33973 L355.99206 360.24668" />
    <path d="M355.99206 360.24668 L345.08512 390.21325" />
    <path d="M344.44598 425.93089 L314.8783 413.98477" />
    <path d="M314.8783 413.98477 L326.82442 384.4171" />
    <path d="M326.82442 384.4171 L356.39209 396.36321" />
    <path d="M356.39209 396.36321 L344.44598 425.93089" />
    <path d="M343.79729 461.62605 L314.66454 448.65531" />
    <path d="M314.66454 448.65531 L327.63528 419.52256" />
    <path d="M327.63528 419.52256 L356.76803 432.4933" />
    <path d="M356.76803 432.4933 L343.79729 461.62605" />
    <path d="M343.13985 497.2984 L314.47752 483.31885" />
    <path d="M314.47752 483.31885 L328.45707 454.65652" />
    <path d="M328.45707 454.65652 L357.1194 468.63607" />
    <path d="M357.1194 468.63607 L343.13985 497.2984" />
    <path d="M342.47446 532.94767 L314.31747 517.97634" />
    <path d="M314.31747 517.97634 L329.28881 489.81935" />
    <path d="M329.28881 489.81935 L357.4458 504.79068" />
    <path d="M357.4458 504.79068 L342.47446 532.94767" />
    <path d="M341.80193 568.57359 L314.18459 552.62871" />
    <path d="M314.18459 552.62871 L330.12947 525.01136" />
    <path d="M330.12947 525.01136 L357.74682 540.95624" />
    <path d="M357.74682 540.95624 L341.80193 568.57359" />
    <path d="M341.12309 604.17592 L314.07903 587.27692" />
    <path d="M314.07903 587.27692 L330.97803 560.23286" />
    <path d="M330.97803 560.23286 L358.02209 577.13186" />
    <path d="M358.02209 577.13186 L341.12309 604.17592" />
    <path d="M340.43874 639.75445 L314.00093 621.92192" />
    <path d="M314.00093 621.92192 L331.83346 595.48411" />
    <path d="M331.83346 595.48411 L358.27127 613.31664" />
    <path d="M358.27127 613.31664 L340.43874 639.75445" />
    <path d="M339.74974 675.30901 L313.95038 656.56468" />
    <path d="M313.95038 656.56468 L332.69471 630.76531" />
    <path d="M332.69471 630.76531 L358.49407 649.50965" />
    <path d="M358.49407 649.50965 L339.74974 675.30901" />
    <path d="M339.05692 710.83945 L313.92744 691.20615" />
    <path d="M313.92744 691.20615 L333.56074 666.07667" />
    <path d="M333.56074 666.07667 L358.69022 685.70997" />
    <path d="M358.69022 685.70997 L339.05692 710.83945" />
    <path d="M385.19727 68.27698 L353.38519 66.05247" />
    <path d="M353.38519 66.05247 L355.60971 34.24038" />
    <path d="M355.60971 34.24038 L387.42179 36.4649" />
    <path d="M387.42179 36.4649 L385.19727 68.27698" />
    <path d="M384.66132 104.15977 L352.94626 100.82638" />
    <path d="M352.94626 100.82638 L356.27964 69.11131" />
    <path d="M356.27964 69.11131 L387.99471 72.4447" />
    <path d="M387.99471 72.4447 L384.66132 104.15977" />
    <path d="M384.11001 140.02358 L352.53059 135.58538" />
    <path d="M352.53059 135.58538 L356.96879 104.00596" />
    <path d="M356.96879 104.00596 L388.5482 108.44416" />
    <path d="M388.5482 108.44416 L384.11001 140.02358" />
    <path d="M383.54399 175.86788 L352.13871 170.33028" />
    <path d="M352.13871 170.33028 L357.67631 138.92499" />
    <path d="M357.67631 138.92499 L389.08159 144.46259" />
    <path d="M389.08159 144.46259 L383.54399 175.86788" />
    <path d="M382.96397 211.69218 L351.77108 205.06192" />
    <path d="M351.77108 205.06192 L358.40133 173.86903" />
    <path d="M358.40133 173.86903 L389.59423 180.49928" />
    <path d="M389.59423 180.49928 L382.96397 211.69218" />
    <path d="M382.37065 247.496 L351.42815 239.78117" />
    <path d="M351.42815 239.78117 L359.14298 208.83866" />
    <path d="M359.14298 208.83866 L390.08548 216.5535" />
    <path d="M390.08548 216.5535 L382.37065 247.496" />
    <path d="M381.76475 283.27888 L351.11035 274.48887" />
    <path d="M351.11035 274.48887 L359.90036 243.83447" />
    <path d="M359.90036 243.83447 L390.55476 252.62448" />
    <path d="M390.55476 252.62448 L381.76475 283.27888" />
    <path d="M381.14702 319.04041 L350.81805 309.18593" />
    <path d="M350.81805 309.18593 L360.67253 278.85697" />
    <path d="M360.67253 278.85697 L391.0015 288.71144" />
    <path d="M391.0015 288.71144 L381.14702 319.04041" />
    <path d="M380.51819 354.78018 L350.55162 343.87324" />
    <path d="M350.55162 343.87324 L361.45856 313.90666" />
    <path d="M361.45856 313.90666 L391.42513 324.81361" />
    <path d="M391.42513 324.81361 L380.51819 354.78018" />
    <path d="M379.87905 390.49782 L350.31137 378.5517" />
    <path d="M350.31137 378.5517 L362.25749 348.98403" />
    <path d="M362.25749 348.98403 L391.82516 360.93014" />
    <path d="M391.82516 360.93014 L379.87905 390.49782" />
    <path d="M379.23036 426.19297 L350.09761 413.22224" />
    <path d="M350.09761 413.22224 L363.06835 384.08949" />
    <path d="M363.06835 384.08949 L392.2011 397.06023" />
    <path d="M392.2011 397.06023 L379.23036 426.19297" />
    <path d="M378.57292 461.86533 L349.91059 447.88578" />
    <path d="M349.91059 447.88578 L363.89015 419.22345" />
    <path d="M363.89015 419.22345 L392.55248 433.203" />
    <path d="M392.55248 433.203 L378.57292 461.86533" />
    <path d="M377.90753 497.5146 L349.75054 482.54326" />
    <path d="M349.75054 482.54326 L364.72188 454.38627" />
    <path d="M364.72188 454.38627 L392.87887 469.35761" />
    <path d="M392.87887 469.35761 L377.90753 497.5146" />
    <path d="M377.23501 533.14052 L349.61766 517.19564" />
    <path d="M349.61766 517.19564 L365.56254 489.57829" />
    <path d="M365.56254 489.57829 L393.17989 505.52317" />
    <path d="M393.17989 505.52317 L377.23501 533.14052" />
    <path d="M376.55616 568.74284 L349.5121 551.84384" />
    <path d="M349.5121 551.84384 L366.4111 524.79979" />
    <path d="M366.4111 524.79979 L393.45516 541.69879" />
    <path d="M393.45516 541.69879 L376.55616 568.74284" />
    <path d="M375.87181 604.32138 L349.434 586.48885" />
    <path d="M349.434 586.48885 L367.26653 560.05103" />
    <path d="M367.26653 560.05103 L393.70434 577.88356" />
    <path d="M393.70434 577.88356 L375.87181 604.32138" />
    <path d="M375.18281 639.87594 L349.38345 621.1316" />
    <path d="M349.38345 621.1316 L368.12778 595.33224" />
    <path d="M368.12778 595.33224 L393.92714 614.07658" />
    <path d="M393.92714 614.07658 L375.18281 639.87594" />
    <path d="M374.48999 675.40638 L349.36051 655.77308" />
    <path d="M349.36051 655.77308 L368.99381 630.6436" />
    <path d="M368.99381 630.6436 L394.12329 650.2769" />
    <path d="M394.12329 650.2769 L374.48999 675.40638" />
    <path d="M373.79419 710.91258 L349.36522 690.41424" />
    <path d="M349.36522 690.41424 L369.86356 665.98526" />
    <path d="M369.86356 665.98526 L394.29254 686.4836" />
    <path d="M394.29254 686.4836 L373.79419 710.91258" />
    <path d="M420.0944 68.7267 L388.37933 65.39331" />
    <path d="M388.37933 65.39331 L391.71271 33.67824" />
    <path d="M391.71271 33.67824 L423.42778 37.01163" />
    <path d="M423.42778 37.01163 L420.0944 68.7267" />
    <path d="M419.54308 104.5905 L387.96366 100.15231" />
    <path d="M387.96366 100.15231 L392.40186 68.57289" />
    <path d="M392.40186 68.57289 L423.98128 73.01109" />
    <path d="M423.98128 73.01109 L419.54308 104.5905" />
    <path d="M418.97706 140.43481 L387.57178 134.89721" />
    <path d="M387.57178 134.89721 L393.10938 103.49192" />
    <path d="M393.10938 103.49192 L424.51466 109.02952" />
    <path d="M424.51466 109.02952 L418.97706 140.43481" />
    <path d="M418.39704 176.25911 L387.20415 169.62885" />
    <path d="M387.20415 169.62885 L393.8344 138.43596" />
    <path d="M393.8344 138.43596 L425.0273 145.06621" />
    <path d="M425.0273 145.06621 L418.39704 176.25911" />
    <path d="M417.80372 212.06293 L386.86122 204.34809" />
    <path d="M386.86122 204.34809 L394.57605 173.40559" />
    <path d="M394.57605 173.40559 L425.51856 181.12043" />
    <path d="M425.51856 181.12043 L417.80372 212.06293" />
    <path d="M417.19783 247.84581 L386.54342 239.0558" />
    <path d="M386.54342 239.0558 L395.33343 208.40139" />
    <path d="M395.33343 208.40139 L425.98784 217.1914" />
    <path d="M425.98784 217.1914 L417.19783 247.84581" />
    <path d="M416.58009 283.60734 L386.25112 273.75286" />
    <path d="M386.25112 273.75286 L396.1056 243.42389" />
    <path d="M396.1056 243.42389 L426.43457 253.27837" />
    <path d="M426.43457 253.27837 L416.58009 283.60734" />
    <path d="M415.95126 319.34711 L385.98469 308.44017" />
    <path d="M385.98469 308.44017 L396.89163 278.47359" />
    <path d="M396.89163 278.47359 L426.85821 289.38053" />
    <path d="M426.85821 289.38053 L415.95126 319.34711" />
    <path d="M415.31212 355.06475 L385.74444 343.11863" />
    <path d="M385.74444 343.11863 L397.69056 313.55096" />
    <path d="M397.69056 313.55096 L427.25823 325.49707" />
    <path d="M427.25823 325.49707 L415.31212 355.06475" />
    <path d="M414.66343 390.7599 L385.53068 377.78917" />
    <path d="M385.53068 377.78917 L398.50142 348.65642" />
    <path d="M398.50142 348.65642 L427.63417 361.62715" />
    <path d="M427.63417 361.62715 L414.66343 390.7599" />
    <path d="M414.00599 426.43226 L385.34366 412.45271" />
    <path d="M385.34366 412.45271 L399.32322 383.79038" />
    <path d="M399.32322 383.79038 L427.98555 397.76993" />
    <path d="M427.98555 397.76993 L414.00599 426.43226" />
    <path d="M413.34061 462.08153 L385.18361 447.11019" />
    <path d="M385.18361 447.11019 L400.15495 418.9532" />
    <path d="M400.15495 418.9532 L428.31194 433.92454" />
    <path d="M428.31194 433.92454 L413.34061 462.08153" />
    <path d="M412.66808 497.70745 L385.05073 481.76256" />
    <path d="M385.05073 481.76256 L400.99561 454.14522" />
    <path d="M400.99561 454.14522 L428.61296 470.0901" />
    <path d="M428.61296 470.0901 L412.66808 497.70745" />
    <path d="M411.98923 533.30977 L384.94517 516.41077" />
    <path d="M384.94517 516.41077 L401.84417 489.36672" />
    <path d="M401.84417 489.36672 L428.88823 506.26572" />
    <path d="M428.88823 506.26572 L411.98923 533.30977" />
    <path d="M411.30489 568.88831 L384.86707 551.05578" />
    <path d="M384.86707 551.05578 L402.6996 524.61796" />
    <path d="M402.6996 524.61796 L429.13741 542.45049" />
    <path d="M429.13741 542.45049 L411.30489 568.88831" />
    <path d="M410.61588 604.44287 L384.81652 585.69853" />
    <path d="M384.81652 585.69853 L403.56085 559.89917" />
    <path d="M403.56085 559.89917 L429.36022 578.64351" />
    <path d="M429.36022 578.64351 L410.61588 604.44287" />
    <path d="M409.92306 639.97331 L384.79358 620.34001" />
    <path d="M384.79358 620.34001 L404.42688 595.21053" />
    <path d="M404.42688 595.21053 L429.55636 614.84383" />
    <path d="M429.55636 614.84383 L409.92306 639.97331" />
    <path d="M409.22726 675.47951 L384.79829 654.98116" />
    <path d="M384.79829 654.98116 L405.29663 630.55219" />
    <path d="M405.29663 630.55219 L429.72561 651.05053" />
    <path d="M429.72561 651.05053 L409.22726 675.47951" />
    <path d="M408.52934 710.96138 L384.83062 689.62297" />
    <path d="M384.83062 689.62297 L406.16904 665.92425" />
    <path d="M406.16904 665.92425 L429.86775 687.26267" />
    <path d="M429.86775 687.26267 L408.52934 710.96138" />
    <path d="M454.97615 69.15743 L423.39673 64.71924" />
    <path d="M423.39673 64.71924 L427.83493 33.13982" />
    <path d="M427.83493 33.13982 L459.41435 37.57802" />
    <path d="M459.41435 37.57802 L454.97615 69.15743" />
    <path d="M454.41014 105.00174 L423.00485 99.46414" />
    <path d="M423.00485 99.46414 L428.54245 68.05885" />
    <path d="M428.54245 68.05885 L459.94774 73.59645" />
    <path d="M459.94774 73.59645 L454.41014 105.00174" />
    <path d="M453.83012 140.82604 L422.63722 134.19578" />
    <path d="M422.63722 134.19578 L429.26747 103.00289" />
    <path d="M429.26747 103.00289 L460.46037 109.63314" />
    <path d="M460.46037 109.63314 L453.83012 140.82604" />
    <path d="M453.23679 176.62986 L422.29429 168.91502" />
    <path d="M422.29429 168.91502 L430.00913 137.97252" />
    <path d="M430.00913 137.97252 L460.95163 145.68735" />
    <path d="M460.95163 145.68735 L453.23679 176.62986" />
    <path d="M452.6309 212.41274 L421.97649 203.62273" />
    <path d="M421.97649 203.62273 L430.7665 172.96832" />
    <path d="M430.7665 172.96832 L461.42091 181.75833" />
    <path d="M461.42091 181.75833 L452.6309 212.41274" />
    <path d="M452.01316 248.17427 L421.68419 238.31979" />
    <path d="M421.68419 238.31979 L431.53867 207.99082" />
    <path d="M431.53867 207.99082 L461.86764 217.8453" />
    <path d="M461.86764 217.8453 L452.01316 248.17427" />
    <path d="M451.38433 283.91404 L421.41776 273.0071" />
    <path d="M421.41776 273.0071 L432.3247 243.04052" />
    <path d="M432.3247 243.04052 L462.29128 253.94746" />
    <path d="M462.29128 253.94746 L451.38433 283.91404" />
    <path d="M450.74519 319.63168 L421.17752 307.68556" />
    <path d="M421.17752 307.68556 L433.12363 278.11789" />
    <path d="M433.12363 278.11789 L462.69131 290.064" />
    <path d="M462.69131 290.064 L450.74519 319.63168" />
    <path d="M450.0965 355.32683 L420.96375 342.3561" />
    <path d="M420.96375 342.3561 L433.93449 313.22335" />
    <path d="M433.93449 313.22335 L463.06724 326.19408" />
    <path d="M463.06724 326.19408 L450.0965 355.32683" />
    <path d="M449.43906 390.99919 L420.77673 377.01964" />
    <path d="M420.77673 377.01964 L434.75629 348.35731" />
    <path d="M434.75629 348.35731 L463.41862 362.33686" />
    <path d="M463.41862 362.33686 L449.43906 390.99919" />
    <path d="M448.77368 426.64846 L420.61669 411.67712" />
    <path d="M420.61669 411.67712 L435.58802 383.52013" />
    <path d="M435.58802 383.52013 L463.74501 398.49147" />
    <path d="M463.74501 398.49147 L448.77368 426.64846" />
    <path d="M448.10115 462.27438 L420.4838 446.32949" />
    <path d="M420.4838 446.32949 L436.42868 418.71215" />
    <path d="M436.42868 418.71215 L464.04603 434.65703" />
    <path d="M464.04603 434.65703 L448.10115 462.27438" />
    <path d="M447.4223 497.8767 L420.37824 480.9777" />
    <path d="M420.37824 480.9777 L437.27725 453.93365" />
    <path d="M437.27725 453.93365 L464.3213 470.83265" />
    <path d="M464.3213 470.83265 L447.4223 497.8767" />
    <path d="M446.73796 533.45524 L420.30014 515.62271" />
    <path d="M420.30014 515.62271 L438.13267 489.18489" />
    <path d="M438.13267 489.18489 L464.57049 507.01742" />
    <path d="M464.57049 507.01742 L446.73796 533.45524" />
    <path d="M446.04895 569.0098 L420.24959 550.26546" />
    <path d="M420.24959 550.26546 L438.99393 524.4661" />
    <path d="M438.99393 524.4661 L464.79329 543.21043" />
    <path d="M464.79329 543.21043 L446.04895 569.0098" />
    <path d="M445.35613 604.54024 L420.22665 584.90694" />
    <path d="M420.22665 584.90694 L439.85995 559.77746" />
    <path d="M439.85995 559.77746 L464.98943 579.41076" />
    <path d="M464.98943 579.41076 L445.35613 604.54024" />
    <path d="M444.66033 640.04644 L420.23136 619.54809" />
    <path d="M420.23136 619.54809 L440.7297 595.11912" />
    <path d="M440.7297 595.11912 L465.15868 615.61746" />
    <path d="M465.15868 615.61746 L444.66033 640.04644" />
    <path d="M443.96241 675.52831 L420.26369 654.1899" />
    <path d="M420.26369 654.1899 L441.60211 630.49118" />
    <path d="M441.60211 630.49118 L465.30082 651.8296" />
    <path d="M465.30082 651.8296 L443.96241 675.52831" />
    <path d="M443.2632 710.9858 L420.32363 688.83331" />
    <path d="M420.32363 688.83331 L442.47612 665.89373" />
    <path d="M442.47612 665.89373 L465.41569 688.04622" />
    <path d="M465.41569 688.04622 L443.2632 710.9858" />
    <path d="M489.84321 69.56867 L458.43792 64.03107" />
    <path d="M458.43792 64.03107 L463.97552 32.62578" />
    <path d="M463.97552 32.62578 L495.38081 38.16338" />
    <path d="M495.38081 38.16338 L489.84321 69.56867" />
    <path d="M489.26319 105.39297 L458.07029 98.76271" />
    <path d="M458.07029 98.76271 L464.70054 67.56982" />
    <path d="M464.70054 67.56982 L495.89344 74.20007" />
    <path d="M495.89344 74.20007 L489.26319 105.39297" />
    <path d="M488.66987 141.19679 L457.72736 133.48195" />
    <path d="M457.72736 133.48195 L465.4422 102.53945" />
    <path d="M465.4422 102.53945 L496.3847 110.25428" />
    <path d="M496.3847 110.25428 L488.66987 141.19679" />
    <path d="M488.06397 176.97967 L457.40956 168.18966" />
    <path d="M457.40956 168.18966 L466.19957 137.53525" />
    <path d="M466.19957 137.53525 L496.85398 146.32526" />
    <path d="M496.85398 146.32526 L488.06397 176.97967" />
    <path d="M487.44623 212.7412 L457.11726 202.88672" />
    <path d="M457.11726 202.88672 L466.97174 172.55775" />
    <path d="M466.97174 172.55775 L497.30071 182.41223" />
    <path d="M497.30071 182.41223 L487.44623 212.7412" />
    <path d="M486.81741 248.48097 L456.85083 237.57403" />
    <path d="M456.85083 237.57403 L467.75777 207.60745" />
    <path d="M467.75777 207.60745 L497.72435 218.51439" />
    <path d="M497.72435 218.51439 L486.81741 248.48097" />
    <path d="M486.17826 284.1986 L456.61059 272.25249" />
    <path d="M456.61059 272.25249 L468.5567 242.68481" />
    <path d="M468.5567 242.68481 L498.12438 254.63093" />
    <path d="M498.12438 254.63093 L486.17826 284.1986" />
    <path d="M485.52957 319.89376 L456.39682 306.92303" />
    <path d="M456.39682 306.92303 L469.36756 277.79028" />
    <path d="M469.36756 277.79028 L498.50031 290.76101" />
    <path d="M498.50031 290.76101 L485.52957 319.89376" />
    <path d="M484.87214 355.56612 L456.20981 341.58657" />
    <path d="M456.20981 341.58657 L470.18936 312.92424" />
    <path d="M470.18936 312.92424 L498.85169 326.90379" />
    <path d="M498.85169 326.90379 L484.87214 355.56612" />
    <path d="M484.20675 391.21539 L456.04976 376.24405" />
    <path d="M456.04976 376.24405 L471.02109 348.08706" />
    <path d="M471.02109 348.08706 L499.17808 363.0584" />
    <path d="M499.17808 363.0584 L484.20675 391.21539" />
    <path d="M483.53422 426.8413 L455.91687 410.89642" />
    <path d="M455.91687 410.89642 L471.86175 383.27908" />
    <path d="M471.86175 383.27908 L499.4791 399.22396" />
    <path d="M499.4791 399.22396 L483.53422 426.8413" />
    <path d="M482.85537 462.44363 L455.81132 445.54463" />
    <path d="M455.81132 445.54463 L472.71032 418.50058" />
    <path d="M472.71032 418.50058 L499.75437 435.39958" />
    <path d="M499.75437 435.39958 L482.85537 462.44363" />
    <path d="M482.17103 498.02216 L455.73321 480.18963" />
    <path d="M455.73321 480.18963 L473.56574 453.75182" />
    <path d="M473.56574 453.75182 L500.00356 471.58435" />
    <path d="M500.00356 471.58435 L482.17103 498.02216" />
    <path d="M481.48202 533.57672 L455.68266 514.83239" />
    <path d="M455.68266 514.83239 L474.427 489.03303" />
    <path d="M474.427 489.03303 L500.22636 507.77736" />
    <path d="M500.22636 507.77736 L481.48202 533.57672" />
    <path d="M480.7892 569.10717 L455.65973 549.47387" />
    <path d="M455.65973 549.47387 L475.29302 524.34439" />
    <path d="M475.29302 524.34439 L500.4225 543.97769" />
    <path d="M500.4225 543.97769 L480.7892 569.10717" />
    <path d="M480.0934 604.61337 L455.66443 584.11502" />
    <path d="M455.66443 584.11502 L476.16277 559.68605" />
    <path d="M476.16277 559.68605 L500.59175 580.18439" />
    <path d="M500.59175 580.18439 L480.0934 604.61337" />
    <path d="M479.39548 640.09524 L455.69676 618.75683" />
    <path d="M455.69676 618.75683 L477.03518 595.05811" />
    <path d="M477.03518 595.05811 L500.73389 616.39653" />
    <path d="M500.73389 616.39653 L479.39548 640.09524" />
    <path d="M478.69627 675.55273 L455.7567 653.40024" />
    <path d="M455.7567 653.40024 L477.90919 630.46066" />
    <path d="M477.90919 630.46066 L500.84876 652.61315" />
    <path d="M500.84876 652.61315 L478.69627 675.55273" />
    <path d="M477.99664 710.9858 L455.84415 688.04622" />
    <path d="M455.84415 688.04622 L478.78373 665.89373" />
    <path d="M478.78373 665.89373 L500.93622 688.83331" />
    <path d="M500.93622 688.83331 L477.99664 710.9858" />
    <path d="M524.69626 69.9599 L493.50336 63.32964" />
    <path d="M493.50336 63.32964 L500.13362 32.13674" />
    <path d="M500.13362 32.13674 L531.32651 38.767" />
    <path d="M531.32651 38.767 L524.69626 69.9599" />
    <path d="M524.10294 105.76371 L493.16043 98.04888" />
    <path d="M493.16043 98.04888 L500.87527 67.10638" />
    <path d="M500.87527 67.10638 L531.81777 74.82121" />
    <path d="M531.81777 74.82121 L524.10294 105.76371" />
    <path d="M523.49704 141.5466 L492.84263 132.75659" />
    <path d="M492.84263 132.75659 L501.63264 102.10218" />
    <path d="M501.63264 102.10218 L532.28705 110.89219" />
    <path d="M532.28705 110.89219 L523.49704 141.5466" />
    <path d="M522.8793 177.30813 L492.55033 167.45365" />
    <path d="M492.55033 167.45365 L502.40481 137.12468" />
    <path d="M502.40481 137.12468 L532.73378 146.97916" />
    <path d="M532.73378 146.97916 L522.8793 177.30813" />
    <path d="M522.25048 213.0479 L492.2839 202.14096" />
    <path d="M492.2839 202.14096 L503.19084 172.17438" />
    <path d="M503.19084 172.17438 L533.15742 183.08132" />
    <path d="M533.15742 183.08132 L522.25048 213.0479" />
    <path d="M521.61133 248.76553 L492.04366 236.81942" />
    <path d="M492.04366 236.81942 L503.98977 207.25174" />
    <path d="M503.98977 207.25174 L533.55745 219.19786" />
    <path d="M533.55745 219.19786 L521.61133 248.76553" />
    <path d="M520.96264 284.46069 L491.8299 271.48996" />
    <path d="M491.8299 271.48996 L504.80063 242.35721" />
    <path d="M504.80063 242.35721 L533.93338 255.32794" />
    <path d="M533.93338 255.32794 L520.96264 284.46069" />
    <path d="M520.30521 320.13305 L491.64288 306.1535" />
    <path d="M491.64288 306.1535 L505.62243 277.49117" />
    <path d="M505.62243 277.49117 L534.28476 291.47072" />
    <path d="M534.28476 291.47072 L520.30521 320.13305" />
    <path d="M519.63982 355.78232 L491.48283 340.81098" />
    <path d="M491.48283 340.81098 L506.45416 312.65399" />
    <path d="M506.45416 312.65399 L534.61115 327.62533" />
    <path d="M534.61115 327.62533 L519.63982 355.78232" />
    <path d="M518.96729 391.40823 L491.34994 375.46335" />
    <path d="M491.34994 375.46335 L507.29483 347.84601" />
    <path d="M507.29483 347.84601 L534.91217 363.79089" />
    <path d="M534.91217 363.79089 L518.96729 391.40823" />
    <path d="M518.28844 427.01056 L491.24439 410.11156" />
    <path d="M491.24439 410.11156 L508.14339 383.06751" />
    <path d="M508.14339 383.06751 L535.18744 399.96651" />
    <path d="M535.18744 399.96651 L518.28844 427.01056" />
    <path d="M517.6041 462.58909 L491.16629 444.75656" />
    <path d="M491.16629 444.75656 L508.99881 418.31875" />
    <path d="M508.99881 418.31875 L535.43663 436.15128" />
    <path d="M535.43663 436.15128 L517.6041 462.58909" />
    <path d="M516.9151 498.14365 L491.11573 479.39932" />
    <path d="M491.11573 479.39932 L509.86007 453.59996" />
    <path d="M509.86007 453.59996 L535.65943 472.34429" />
    <path d="M535.65943 472.34429 L516.9151 498.14365" />
    <path d="M516.22227 533.67409 L491.0928 514.0408" />
    <path d="M491.0928 514.0408 L510.7261 488.91132" />
    <path d="M510.7261 488.91132 L535.85557 508.54462" />
    <path d="M535.85557 508.54462 L516.22227 533.67409" />
    <path d="M515.52647 569.1803 L491.0975 548.68195" />
    <path d="M491.0975 548.68195 L511.59584 524.25298" />
    <path d="M511.59584 524.25298 L536.02482 544.75132" />
    <path d="M536.02482 544.75132 L515.52647 569.1803" />
    <path d="M514.82855 604.66217 L491.12984 583.32375" />
    <path d="M491.12984 583.32375 L512.46825 559.62504" />
    <path d="M512.46825 559.62504 L536.16696 580.96346" />
    <path d="M536.16696 580.96346 L514.82855 604.66217" />
    <path d="M514.12934 640.11966 L491.18977 617.96717" />
    <path d="M491.18977 617.96717 L513.34226 595.02759" />
    <path d="M513.34226 595.02759 L536.28183 617.18008" />
    <path d="M536.28183 617.18008 L514.12934 640.11966" />
    <path d="M513.42971 675.55273 L491.27722 652.61315" />
    <path d="M491.27722 652.61315 L514.2168 630.46066" />
    <path d="M514.2168 630.46066 L536.36929 653.40024" />
    <path d="M536.36929 653.40024 L513.42971 675.55273" />
    <path d="M512.73051 710.96138 L491.39209 687.26267" />
    <path d="M491.39209 687.26267 L515.0908 665.92425" />
    <path d="M515.0908 665.92425 L536.42922 689.62297" />
    <path d="M536.42922 689.62297 L512.73051 710.96138" />
    <path d="M559.53601 70.33064 L528.59351 62.61581" />
    <path d="M528.59351 62.61581 L536.30834 31.67331" />
    <path d="M536.30834 31.67331 L567.25084 39.38814" />
    <path d="M567.25084 39.38814 L559.53601 70.33064" />
    <path d="M558.93011 106.11353 L528.2757 97.32352" />
    <path d="M528.2757 97.32352 L537.06571 66.66911" />
    <path d="M537.06571 66.66911 L567.72012 75.45912" />
    <path d="M567.72012 75.45912 L558.93011 106.11353" />
    <path d="M558.31237 141.87506 L527.9834 132.02058" />
    <path d="M527.9834 132.02058 L537.83788 101.69161" />
    <path d="M537.83788 101.69161 L568.16685 111.54609" />
    <path d="M568.16685 111.54609 L558.31237 141.87506" />
    <path d="M557.68355 177.61483 L527.71697 166.70788" />
    <path d="M527.71697 166.70788 L538.62391 136.74131" />
    <path d="M538.62391 136.74131 L568.59049 147.64825" />
    <path d="M568.59049 147.64825 L557.68355 177.61483" />
    <path d="M557.0444 213.33246 L527.47673 201.38635" />
    <path d="M527.47673 201.38635 L539.42284 171.81867" />
    <path d="M539.42284 171.81867 L568.99052 183.76479" />
    <path d="M568.99052 183.76479 L557.0444 213.33246" />
    <path d="M556.39572 249.02762 L527.26297 236.05688" />
    <path d="M527.26297 236.05688 L540.2337 206.92414" />
    <path d="M540.2337 206.92414 L569.36645 219.89487" />
    <path d="M569.36645 219.89487 L556.39572 249.02762" />
    <path d="M555.73828 284.69998 L527.07595 270.72043" />
    <path d="M527.07595 270.72043 L541.0555 242.0581" />
    <path d="M541.0555 242.0581 L569.71783 256.03765" />
    <path d="M569.71783 256.03765 L555.73828 284.69998" />
    <path d="M555.07289 320.34925 L526.9159 305.37791" />
    <path d="M526.9159 305.37791 L541.88724 277.22092" />
    <path d="M541.88724 277.22092 L570.04423 292.19226" />
    <path d="M570.04423 292.19226 L555.07289 320.34925" />
    <path d="M554.40036 355.97516 L526.78301 340.03028" />
    <path d="M526.78301 340.03028 L542.7279 312.41294" />
    <path d="M542.7279 312.41294 L570.34524 328.35782" />
    <path d="M570.34524 328.35782 L554.40036 355.97516" />
    <path d="M553.72151 391.57749 L526.67746 374.67849" />
    <path d="M526.67746 374.67849 L543.57646 347.63444" />
    <path d="M543.57646 347.63444 L570.62051 364.53344" />
    <path d="M570.62051 364.53344 L553.72151 391.57749" />
    <path d="M553.03717 427.15602 L526.59936 409.32349" />
    <path d="M526.59936 409.32349 L544.43189 382.88568" />
    <path d="M544.43189 382.88568 L570.8697 400.71821" />
    <path d="M570.8697 400.71821 L553.03717 427.15602" />
    <path d="M552.34817 462.71058 L526.54881 443.96625" />
    <path d="M526.54881 443.96625 L545.29314 418.16689" />
    <path d="M545.29314 418.16689 L571.0925 436.91122" />
    <path d="M571.0925 436.91122 L552.34817 462.71058" />
    <path d="M551.65534 498.24102 L526.52587 478.60772" />
    <path d="M526.52587 478.60772 L546.15917 453.47825" />
    <path d="M546.15917 453.47825 L571.28864 473.11155" />
    <path d="M571.28864 473.11155 L551.65534 498.24102" />
    <path d="M550.95955 533.74723 L526.53057 513.24888" />
    <path d="M526.53057 513.24888 L547.02891 488.8199" />
    <path d="M547.02891 488.8199 L571.45789 509.31825" />
    <path d="M571.45789 509.31825 L550.95955 533.74723" />
    <path d="M550.26162 569.2291 L526.56291 547.89068" />
    <path d="M526.56291 547.89068 L547.90132 524.19197" />
    <path d="M547.90132 524.19197 L571.60004 545.53039" />
    <path d="M571.60004 545.53039 L550.26162 569.2291" />
    <path d="M549.56241 604.68659 L526.62284 582.5341" />
    <path d="M526.62284 582.5341 L548.77533 559.59452" />
    <path d="M548.77533 559.59452 L571.71491 581.74701" />
    <path d="M571.71491 581.74701 L549.56241 604.68659" />
    <path d="M548.86278 640.11966 L526.71029 617.18008" />
    <path d="M526.71029 617.18008 L549.64987 595.02759" />
    <path d="M549.64987 595.02759 L571.80236 617.96717" />
    <path d="M571.80236 617.96717 L548.86278 640.11966" />
    <path d="M548.16358 675.52831 L526.82516 651.8296" />
    <path d="M526.82516 651.8296 L550.52387 630.49118" />
    <path d="M550.52387 630.49118 L571.86229 654.1899" />
    <path d="M571.86229 654.1899 L548.16358 675.52831" />
    <path d="M547.46565 710.91258 L526.96731 686.4836" />
    <path d="M526.96731 686.4836 L551.39628 665.98526" />
    <path d="M551.39628 665.98526 L571.89463 690.41424" />
    <path d="M571.89463 690.41424 L547.46565 710.91258" />
    <path d="M594.36318 70.68046 L563.70877 61.89045" />
    <path d="M563.70877 61.89045 L572.49878 31.23604" />
    <path d="M572.49878 31.23604 L603.15319 40.02605" />
    <path d="M603.15319 40.02605 L594.36318 70.68046" />
    <path d="M593.74544 106.44199 L563.41647 96.58751" />
    <path d="M563.41647 96.58751 L573.27095 66.25854" />
    <path d="M573.27095 66.25854 L603.59992 76.11302" />
    <path d="M603.59992 76.11302 L593.74544 106.44199" />
    <path d="M593.11662 142.18176 L563.15004 131.27481" />
    <path d="M563.15004 131.27481 L574.05698 101.30824" />
    <path d="M574.05698 101.30824 L604.02356 112.21518" />
    <path d="M604.02356 112.21518 L593.11662 142.18176" />
    <path d="M592.47747 177.89939 L562.9098 165.95328" />
    <path d="M562.9098 165.95328 L574.85591 136.3856" />
    <path d="M574.85591 136.3856 L604.42359 148.33172" />
    <path d="M604.42359 148.33172 L592.47747 177.89939" />
    <path d="M591.82879 213.59455 L562.69604 200.62381" />
    <path d="M562.69604 200.62381 L575.66677 171.49107" />
    <path d="M575.66677 171.49107 L604.79952 184.4618" />
    <path d="M604.79952 184.4618 L591.82879 213.59455" />
    <path d="M591.17135 249.26691 L562.50902 235.28736" />
    <path d="M562.50902 235.28736 L576.48857 206.62503" />
    <path d="M576.48857 206.62503 L605.1509 220.60458" />
    <path d="M605.1509 220.60458 L591.17135 249.26691" />
    <path d="M590.50596 284.91618 L562.34897 269.94484" />
    <path d="M562.34897 269.94484 L577.32031 241.78785" />
    <path d="M577.32031 241.78785 L605.4773 256.75919" />
    <path d="M605.4773 256.75919 L590.50596 284.91618" />
    <path d="M589.83343 320.54209 L562.21609 304.59721" />
    <path d="M562.21609 304.59721 L578.16097 276.97986" />
    <path d="M578.16097 276.97986 L605.77831 292.92475" />
    <path d="M605.77831 292.92475 L589.83343 320.54209" />
    <path d="M589.15458 356.14442 L562.11053 339.24542" />
    <path d="M562.11053 339.24542 L579.00953 312.20137" />
    <path d="M579.00953 312.20137 L606.05358 329.10037" />
    <path d="M606.05358 329.10037 L589.15458 356.14442" />
    <path d="M588.47024 391.72295 L562.03243 373.89042" />
    <path d="M562.03243 373.89042 L579.86496 347.45261" />
    <path d="M579.86496 347.45261 L606.30277 365.28514" />
    <path d="M606.30277 365.28514 L588.47024 391.72295" />
    <path d="M587.78124 427.27751 L561.98188 408.53318" />
    <path d="M561.98188 408.53318 L580.72621 382.73382" />
    <path d="M580.72621 382.73382 L606.52557 401.47815" />
    <path d="M606.52557 401.47815 L587.78124 427.27751" />
    <path d="M587.08841 462.80795 L561.95894 443.17465" />
    <path d="M561.95894 443.17465 L581.59224 418.04518" />
    <path d="M581.59224 418.04518 L606.72171 437.67848" />
    <path d="M606.72171 437.67848 L587.08841 462.80795" />
    <path d="M586.39262 498.31416 L561.96364 477.81581" />
    <path d="M561.96364 477.81581 L582.46199 453.38683" />
    <path d="M582.46199 453.38683 L606.89096 473.88518" />
    <path d="M606.89096 473.88518 L586.39262 498.31416" />
    <path d="M585.69469 533.79603 L561.99598 512.45761" />
    <path d="M561.99598 512.45761 L583.33439 488.7589" />
    <path d="M583.33439 488.7589 L607.03311 510.09732" />
    <path d="M607.03311 510.09732 L585.69469 533.79603" />
    <path d="M584.99548 569.25352 L562.05591 547.10103" />
    <path d="M562.05591 547.10103 L584.2084 524.16145" />
    <path d="M584.2084 524.16145 L607.14798 546.31394" />
    <path d="M607.14798 546.31394 L584.99548 569.25352" />
    <path d="M584.29585 604.68659 L562.14336 581.74701" />
    <path d="M562.14336 581.74701 L585.08294 559.59452" />
    <path d="M585.08294 559.59452 L607.23543 582.5341" />
    <path d="M607.23543 582.5341 L584.29585 604.68659" />
    <path d="M583.59665 640.09524 L562.25823 616.39653" />
    <path d="M562.25823 616.39653 L585.95694 595.05811" />
    <path d="M585.95694 595.05811 L607.29536 618.75683" />
    <path d="M607.29536 618.75683 L583.59665 640.09524" />
    <path d="M582.89872 675.47951 L562.40038 651.05053" />
    <path d="M562.40038 651.05053 L586.82935 630.55219" />
    <path d="M586.82935 630.55219 L607.3277 654.98116" />
    <path d="M607.3277 654.98116 L582.89872 675.47951" />
    <path d="M582.20292 710.83945 L562.56962 685.70997" />
    <path d="M562.56962 685.70997 L587.6991 666.07667" />
    <path d="M587.6991 666.07667 L607.3324 691.20615" />
    <path d="M607.3324 691.20615 L582.20292 710.83945" />
    <path d="M629.17851 71.00892 L598.84955 61.15444" />
    <path d="M598.84955 61.15444 L608.70402 30.82547" />
    <path d="M608.70402 30.82547 L639.03299 40.67995" />
    <path d="M639.03299 40.67995 L629.17851 71.00892" />
    <path d="M628.54969 106.74868 L598.58311 95.84174" />
    <path d="M598.58311 95.84174 L609.49005 65.87517" />
    <path d="M609.49005 65.87517 L639.45663 76.78211" />
    <path d="M639.45663 76.78211 L628.54969 106.74868" />
    <path d="M627.91054 142.46632 L598.34287 130.52021" />
    <path d="M598.34287 130.52021 L610.28899 100.95253" />
    <path d="M610.28899 100.95253 L639.85666 112.89865" />
    <path d="M639.85666 112.89865 L627.91054 142.46632" />
    <path d="M627.26186 178.16148 L598.12911 165.19074" />
    <path d="M598.12911 165.19074 L611.09984 136.05799" />
    <path d="M611.09984 136.05799 L640.23259 149.02873" />
    <path d="M640.23259 149.02873 L627.26186 178.16148" />
    <path d="M626.60442 213.83384 L597.94209 199.85429" />
    <path d="M597.94209 199.85429 L611.92164 171.19196" />
    <path d="M611.92164 171.19196 L640.58397 185.17151" />
    <path d="M640.58397 185.17151 L626.60442 213.83384" />
    <path d="M625.93903 249.48311 L597.78204 234.51177" />
    <path d="M597.78204 234.51177 L612.75338 206.35478" />
    <path d="M612.75338 206.35478 L640.91037 221.32612" />
    <path d="M640.91037 221.32612 L625.93903 249.48311" />
    <path d="M625.2665 285.10902 L597.64916 269.16414" />
    <path d="M597.64916 269.16414 L613.59404 241.54679" />
    <path d="M613.59404 241.54679 L641.21138 257.49168" />
    <path d="M641.21138 257.49168 L625.2665 285.10902" />
    <path d="M624.58765 320.71135 L597.5436 303.81235" />
    <path d="M597.5436 303.81235 L614.4426 276.76829" />
    <path d="M614.4426 276.76829 L641.48665 293.66729" />
    <path d="M641.48665 293.66729 L624.58765 320.71135" />
    <path d="M623.90331 356.28988 L597.4655 338.45735" />
    <path d="M597.4655 338.45735 L615.29803 312.01954" />
    <path d="M615.29803 312.01954 L641.73584 329.85207" />
    <path d="M641.73584 329.85207 L623.90331 356.28988" />
    <path d="M623.21431 391.84444 L597.41495 373.10011" />
    <path d="M597.41495 373.10011 L616.15928 347.30075" />
    <path d="M616.15928 347.30075 L641.95864 366.04508" />
    <path d="M641.95864 366.04508 L623.21431 391.84444" />
    <path d="M622.52149 427.37488 L597.39201 407.74158" />
    <path d="M597.39201 407.74158 L617.02531 382.61211" />
    <path d="M617.02531 382.61211 L642.15478 402.24541" />
    <path d="M642.15478 402.24541 L622.52149 427.37488" />
    <path d="M621.82569 462.88108 L597.39671 442.38274" />
    <path d="M597.39671 442.38274 L617.89506 417.95376" />
    <path d="M617.89506 417.95376 L642.32403 438.45211" />
    <path d="M642.32403 438.45211 L621.82569 462.88108" />
    <path d="M621.12776 498.36296 L597.42905 477.02454" />
    <path d="M597.42905 477.02454 L618.76746 453.32583" />
    <path d="M618.76746 453.32583 L642.46618 474.66425" />
    <path d="M642.46618 474.66425 L621.12776 498.36296" />
    <path d="M620.42856 533.82045 L597.48898 511.66796" />
    <path d="M597.48898 511.66796 L619.64147 488.72838" />
    <path d="M619.64147 488.72838 L642.58105 510.88087" />
    <path d="M642.58105 510.88087 L620.42856 533.82045" />
    <path d="M619.72892 569.25352 L597.57643 546.31394" />
    <path d="M597.57643 546.31394 L620.51601 524.16145" />
    <path d="M620.51601 524.16145 L642.6685 547.10103" />
    <path d="M642.6685 547.10103 L619.72892 569.25352" />
    <path d="M619.02972 604.66217 L597.6913 580.96346" />
    <path d="M597.6913 580.96346 L621.39002 559.62504" />
    <path d="M621.39002 559.62504 L642.72843 583.32375" />
    <path d="M642.72843 583.32375 L619.02972 604.66217" />
    <path d="M618.33179 640.04644 L597.83345 615.61746" />
    <path d="M597.83345 615.61746 L622.26242 595.11912" />
    <path d="M622.26242 595.11912 L642.76077 619.54809" />
    <path d="M642.76077 619.54809 L618.33179 640.04644" />
    <path d="M617.63599 675.40638 L598.0027 650.2769" />
    <path d="M598.0027 650.2769 L623.13217 630.6436" />
    <path d="M623.13217 630.6436 L642.76547 655.77308" />
    <path d="M642.76547 655.77308 L617.63599 675.40638" />
    <path d="M616.94317 710.74208 L598.19884 684.94272" />
    <path d="M598.19884 684.94272 L623.9982 666.19839" />
    <path d="M623.9982 666.19839 L642.74253 691.99775" />
    <path d="M642.74253 691.99775 L616.94317 710.74208" />
    <path d="M663.98276 71.31561 L634.01618 60.40867" />
    <path d="M634.01618 60.40867 L644.92313 30.4421" />
    <path d="M644.92313 30.4421 L674.8897 41.34904" />
    <path d="M674.8897 41.34904 L663.98276 71.31561" />
    <path d="M663.34361 107.03325 L633.77594 95.08713" />
    <path d="M633.77594 95.08713 L645.72206 65.51946" />
    <path d="M645.72206 65.51946 L675.28973 77.46558" />
    <path d="M675.28973 77.46558 L663.34361 107.03325" />
    <path d="M662.69493 142.72841 L633.56218 129.75767" />
    <path d="M633.56218 129.75767 L646.53291 100.62492" />
    <path d="M646.53291 100.62492 L675.66566 113.59566" />
    <path d="M675.66566 113.59566 L662.69493 142.72841" />
    <path d="M662.03749 178.40077 L633.37516 164.42121" />
    <path d="M633.37516 164.42121 L647.35471 135.75888" />
    <path d="M647.35471 135.75888 L676.01704 149.73844" />
    <path d="M676.01704 149.73844 L662.03749 178.40077" />
    <path d="M661.3721 214.05004 L633.21511 199.0787" />
    <path d="M633.21511 199.0787 L648.18645 170.92171" />
    <path d="M648.18645 170.92171 L676.34344 185.89305" />
    <path d="M676.34344 185.89305 L661.3721 214.05004" />
    <path d="M660.69957 249.67595 L633.08223 233.73107" />
    <path d="M633.08223 233.73107 L649.02711 206.11372" />
    <path d="M649.02711 206.11372 L676.64445 222.05861" />
    <path d="M676.64445 222.05861 L660.69957 249.67595" />
    <path d="M660.02072 285.27828 L632.97667 268.37928" />
    <path d="M632.97667 268.37928 L649.87567 241.33522" />
    <path d="M649.87567 241.33522 L676.91972 258.23422" />
    <path d="M676.91972 258.23422 L660.02072 285.27828" />
    <path d="M659.33638 320.85681 L632.89857 303.02428" />
    <path d="M632.89857 303.02428 L650.7311 276.58647" />
    <path d="M650.7311 276.58647 L677.16891 294.419" />
    <path d="M677.16891 294.419 L659.33638 320.85681" />
    <path d="M658.64738 356.41137 L632.84802 337.66704" />
    <path d="M632.84802 337.66704 L651.59235 311.86768" />
    <path d="M651.59235 311.86768 L677.39171 330.61201" />
    <path d="M677.39171 330.61201 L658.64738 356.41137" />
    <path d="M657.95456 391.94181 L632.82508 372.30851" />
    <path d="M632.82508 372.30851 L652.45838 347.17904" />
    <path d="M652.45838 347.17904 L677.58786 366.81233" />
    <path d="M677.58786 366.81233 L657.95456 391.94181" />
    <path d="M657.25876 427.44801 L632.82978 406.94967" />
    <path d="M632.82978 406.94967 L653.32813 382.52069" />
    <path d="M653.32813 382.52069 L677.7571 403.01904" />
    <path d="M677.7571 403.01904 L657.25876 427.44801" />
    <path d="M656.56083 462.92989 L632.86212 441.59147" />
    <path d="M632.86212 441.59147 L654.20054 417.89276" />
    <path d="M654.20054 417.89276 L677.89925 439.23118" />
    <path d="M677.89925 439.23118 L656.56083 462.92989" />
    <path d="M655.86163 498.38738 L632.92205 476.23488" />
    <path d="M632.92205 476.23488 L655.07454 453.29531" />
    <path d="M655.07454 453.29531 L678.01412 475.4478" />
    <path d="M678.01412 475.4478 L655.86163 498.38738" />
    <path d="M655.162 533.82045 L633.0095 510.88087" />
    <path d="M633.0095 510.88087 L655.94908 488.72838" />
    <path d="M655.94908 488.72838 L678.10157 511.66796" />
    <path d="M678.10157 511.66796 L655.162 533.82045" />
    <path d="M654.46279 569.2291 L633.12437 545.53039" />
    <path d="M633.12437 545.53039 L656.82309 524.19197" />
    <path d="M656.82309 524.19197 L678.1615 547.89068" />
    <path d="M678.1615 547.89068 L654.46279 569.2291" />
    <path d="M653.76486 604.61337 L633.26652 580.18439" />
    <path d="M633.26652 580.18439 L657.6955 559.68605" />
    <path d="M657.6955 559.68605 L678.19384 584.11502" />
    <path d="M678.19384 584.11502 L653.76486 604.61337" />
    <path d="M653.06907 639.97331 L633.43577 614.84383" />
    <path d="M633.43577 614.84383 L658.56524 595.21053" />
    <path d="M658.56524 595.21053 L678.19854 620.34001" />
    <path d="M678.19854 620.34001 L653.06907 639.97331" />
    <path d="M652.37624 675.30901 L633.63191 649.50965" />
    <path d="M633.63191 649.50965 L659.43127 630.76531" />
    <path d="M659.43127 630.76531 L678.1756 656.56468" />
    <path d="M678.1756 656.56468 L652.37624 675.30901" />
    <path d="M651.68724 710.62059 L633.85471 684.18278" />
    <path d="M633.85471 684.18278 L660.29252 666.35025" />
    <path d="M660.29252 666.35025 L678.12505 692.78806" />
    <path d="M678.12505 692.78806 L651.68724 710.62059" />
    <path d="M698.77669 71.60018 L669.20901 59.65406" />
    <path d="M669.20901 59.65406 L681.15513 30.08639" />
    <path d="M681.15513 30.08639 L710.7228 42.03251" />
    <path d="M710.7228 42.03251 L698.77669 71.60018" />
    <path d="M698.128 107.29534 L668.99525 94.3246" />
    <path d="M668.99525 94.3246 L681.96599 65.19185" />
    <path d="M681.96599 65.19185 L711.09873 78.16259" />
    <path d="M711.09873 78.16259 L698.128 107.29534" />
    <path d="M697.47056 142.9677 L668.80823 128.98814" />
    <path d="M668.80823 128.98814 L682.78778 100.32581" />
    <path d="M682.78778 100.32581 L711.45011 114.30537" />
    <path d="M711.45011 114.30537 L697.47056 142.9677" />
    <path d="M696.80517 178.61696 L668.64818 163.64563" />
    <path d="M668.64818 163.64563 L683.61952 135.48864" />
    <path d="M683.61952 135.48864 L711.77651 150.45997" />
    <path d="M711.77651 150.45997 L696.80517 178.61696" />
    <path d="M696.13264 214.24288 L668.5153 198.298" />
    <path d="M668.5153 198.298 L684.46018 170.68065" />
    <path d="M684.46018 170.68065 L712.07753 186.62553" />
    <path d="M712.07753 186.62553 L696.13264 214.24288" />
    <path d="M695.45379 249.84521 L668.40974 232.94621" />
    <path d="M668.40974 232.94621 L685.30874 205.90215" />
    <path d="M685.30874 205.90215 L712.35279 222.80115" />
    <path d="M712.35279 222.80115 L695.45379 249.84521" />
    <path d="M694.76945 285.42374 L668.33164 267.59121" />
    <path d="M668.33164 267.59121 L686.16417 241.1534" />
    <path d="M686.16417 241.1534 L712.60198 258.98593" />
    <path d="M712.60198 258.98593 L694.76945 285.42374" />
    <path d="M694.08045 320.9783 L668.28109 302.23397" />
    <path d="M668.28109 302.23397 L687.02542 276.43461" />
    <path d="M687.02542 276.43461 L712.82478 295.17894" />
    <path d="M712.82478 295.17894 L694.08045 320.9783" />
    <path d="M693.38763 356.50874 L668.25815 336.87544" />
    <path d="M668.25815 336.87544 L687.89145 311.74596" />
    <path d="M687.89145 311.74596 L713.02093 331.37926" />
    <path d="M713.02093 331.37926 L693.38763 356.50874" />
    <path d="M692.69183 392.01494 L668.26285 371.5166" />
    <path d="M668.26285 371.5166 L688.7612 347.08762" />
    <path d="M688.7612 347.08762 L713.19017 367.58597" />
    <path d="M713.19017 367.58597 L692.69183 392.01494" />
    <path d="M691.9939 427.49682 L668.29519 406.1584" />
    <path d="M668.29519 406.1584 L689.63361 382.45969" />
    <path d="M689.63361 382.45969 L713.33232 403.7981" />
    <path d="M713.33232 403.7981 L691.9939 427.49682" />
    <path d="M691.2947 462.9543 L668.35512 440.80181" />
    <path d="M668.35512 440.80181 L690.50761 417.86224" />
    <path d="M690.50761 417.86224 L713.44719 440.01473" />
    <path d="M713.44719 440.01473 L691.2947 462.9543" />
    <path d="M690.59507 498.38738 L668.44258 475.4478" />
    <path d="M668.44258 475.4478 L691.38215 453.29531" />
    <path d="M691.38215 453.29531 L713.53464 476.23488" />
    <path d="M713.53464 476.23488 L690.59507 498.38738" />
    <path d="M689.89586 533.79603 L668.55744 510.09732" />
    <path d="M668.55744 510.09732 L692.25616 488.7589" />
    <path d="M692.25616 488.7589 L713.59457 512.45761" />
    <path d="M713.59457 512.45761 L689.89586 533.79603" />
    <path d="M689.19793 569.1803 L668.69959 544.75132" />
    <path d="M668.69959 544.75132 L693.12857 524.25298" />
    <path d="M693.12857 524.25298 L713.62691 548.68195" />
    <path d="M713.62691 548.68195 L689.19793 569.1803" />
    <path d="M688.50214 604.54024 L668.86884 579.41076" />
    <path d="M668.86884 579.41076 L693.99831 559.77746" />
    <path d="M693.99831 559.77746 L713.63161 584.90694" />
    <path d="M713.63161 584.90694 L688.50214 604.54024" />
    <path d="M687.80931 639.87594 L669.06498 614.07658" />
    <path d="M669.06498 614.07658 L694.86434 595.33224" />
    <path d="M694.86434 595.33224 L713.60867 621.1316" />
    <path d="M713.60867 621.1316 L687.80931 639.87594" />
    <path d="M687.12031 675.18752 L669.28778 648.74971" />
    <path d="M669.28778 648.74971 L695.72559 630.91718" />
    <path d="M695.72559 630.91718 L713.55812 657.35499" />
    <path d="M713.55812 657.35499 L687.12031 675.18752" />
    <path d="M686.43597 710.47513 L669.53697 683.43107" />
    <path d="M669.53697 683.43107 L696.58102 666.53207" />
    <path d="M696.58102 666.53207 L713.48002 693.57613" />
    <path d="M713.48002 693.57613 L686.43597 710.47513" />
  </g>
</svg>