<?xml version="1.0" encoding="UTF-8" standalone="no"?>
<svg
   width="21cm"
   height="29.7cm"
   version="1.1"
   viewBox="0 0 744.09449 1052.3622"
   id="svg41850"
   sodipodi:docname="2022.01.09-19.15.39-1.svg"
   xmlns:inkscape="http://www.inkscape.org/namespaces/inkscape"
   xmlns:sodipodi="http://sodipodi.sourceforge.net/DTD/sodipodi-0.dtd"
   xmlns="http://www.w3.org/2000/svg"
   xmlns:svg="http://www.w3.org/2000/svg">
  <defs
     id="defs41854" />
  <sodipodi:namedview
     id="namedview41852"
     pagecolor="#ffffff"
     bordercolor="#666666"
     borderopacity="1.0"
     inkscape:pageshadow="2"
     inkscape:pageopacity="0.0"
     inkscape:pagecheckerboard="0"
     inkscape:document-units="cm"
     showgrid="false"
     inkscape:zoom="0.64052327"
     inkscape:cx="164.70908"
     inkscape:cy="579.99454"
     inkscape:window-width="1296"
     inkscape:window-height="969"
     inkscape:window-x="0"
     inkscape:window-y="23"
     inkscape:window-maximized="0"
     inkscape:current-layer="svg41850" />
  <g
     fill="none"
     stroke="#000000"
     stroke-width="0.03cm"
     id="g41848"
     transform="matrix(0.92616947,0,0,0.92616947,27.468445,33.925669)">
    <path
       d="M 35.43307,70.86614 70.86614,35.43307"
       id="path40784" />
    <path
       d="M 35.43307,88.58268 H 70.86614"
       id="path40786" />
    <path
       d="m 53.14961,106.29921 v 35.43307"
       id="path40788" />
    <path
       d="M 35.43307,159.44882 H 70.86614"
       id="path40790" />
    <path
       d="M 35.43307,194.88189 H 70.86614"
       id="path40792" />
    <path
       d="M 53.14961,212.59843 V 248.0315"
       id="path40794" />
    <path
       d="M 35.43307,283.46457 70.86614,248.0315"
       id="path40796" />
    <path
       d="M 35.43307,318.89764 70.86614,283.46457"
       id="path40798" />
    <path
       d="M 35.43307,336.61417 H 70.86614"
       id="path40800" />
    <path
       d="M 35.43307,372.04724 H 70.86614"
       id="path40802" />
    <path
       d="m 53.14961,389.76378 v 35.43307"
       id="path40804" />
    <path
       d="m 53.14961,425.19685 v 35.43307"
       id="path40806" />
    <path
       d="m 53.14961,460.62992 v 35.43307"
       id="path40808" />
    <path
       d="M 35.43307,513.77953 H 70.86614"
       id="path40810" />
    <path
       d="m 53.14961,531.49606 v 35.43307"
       id="path40812" />
    <path
       d="M 35.43307,602.3622 70.86614,566.92913"
       id="path40814" />
    <path
       d="m 53.14961,602.3622 v 35.43308"
       id="path40816" />
    <path
       d="M 35.43307,673.22835 70.86614,637.79528"
       id="path40818" />
    <path
       d="m 53.14961,673.22835 v 35.43307"
       id="path40820" />
    <path
       d="M 35.43307,744.09449 70.86614,708.66142"
       id="path40822" />
    <path
       d="m 35.43307,744.09449 35.43307,35.43307"
       id="path40824" />
    <path
       d="M 35.43307,797.24409 H 70.86614"
       id="path40826" />
    <path
       d="M 35.43307,832.67717 H 70.86614"
       id="path40828" />
    <path
       d="m 53.14961,850.3937 v 35.43307"
       id="path40830" />
    <path
       d="M 35.43307,903.54331 H 70.86614"
       id="path40832" />
    <path
       d="M 35.43307,956.69291 70.86614,921.25984"
       id="path40834" />
    <path
       d="M 35.43307,992.12598 70.86614,956.69291"
       id="path40836" />
    <path
       d="m 35.43307,992.12598 35.43307,35.43312"
       id="path40838" />
    <path
       d="M 88.58268,35.43307 V 70.86614"
       id="path40840" />
    <path
       d="M 70.86614,106.29921 106.29921,70.86614"
       id="path40842" />
    <path
       d="m 88.58268,106.29921 v 35.43307"
       id="path40844" />
    <path
       d="m 88.58268,141.73228 v 35.43307"
       id="path40846" />
    <path
       d="m 70.86614,194.88189 h 35.43307"
       id="path40848" />
    <path
       d="m 70.86614,230.31496 h 35.43307"
       id="path40850" />
    <path
       d="m 88.58268,248.0315 v 35.43307"
       id="path40852" />
    <path
       d="m 70.86614,318.89764 35.43307,-35.43307"
       id="path40854" />
    <path
       d="m 70.86614,318.89764 35.43307,35.43307"
       id="path40856" />
    <path
       d="m 70.86614,389.76378 35.43307,-35.43307"
       id="path40858" />
    <path
       d="m 70.86614,425.19685 35.43307,-35.43307"
       id="path40860" />
    <path
       d="m 70.86614,425.19685 35.43307,35.43307"
       id="path40862" />
    <path
       d="m 88.58268,460.62992 v 35.43307"
       id="path40864" />
    <path
       d="m 70.86614,531.49606 35.43307,-35.43307"
       id="path40866" />
    <path
       d="m 70.86614,549.2126 h 35.43307"
       id="path40868" />
    <path
       d="m 70.86614,602.3622 35.43307,-35.43307"
       id="path40870" />
    <path
       d="m 70.86614,602.3622 35.43307,35.43308"
       id="path40872" />
    <path
       d="m 70.86614,637.79528 35.43307,35.43307"
       id="path40874" />
    <path
       d="m 88.58268,673.22835 v 35.43307"
       id="path40876" />
    <path
       d="m 70.86614,708.66142 35.43307,35.43307"
       id="path40878" />
    <path
       d="m 70.86614,761.81102 h 35.43307"
       id="path40880" />
    <path
       d="m 70.86614,779.52756 35.43307,35.43307"
       id="path40882" />
    <path
       d="m 70.86614,814.96063 35.43307,35.43307"
       id="path40884" />
    <path
       d="m 70.86614,850.3937 35.43307,35.43307"
       id="path40886" />
    <path
       d="m 70.86614,903.54331 h 35.43307"
       id="path40888" />
    <path
       d="m 70.86614,921.25984 35.43307,35.43307"
       id="path40890" />
    <path
       d="m 70.86614,992.12598 35.43307,-35.43307"
       id="path40892" />
    <path
       d="m 70.86614,1009.8425 h 35.43307"
       id="path40894" />
    <path
       d="m 106.29921,35.43307 35.43307,35.43307"
       id="path40896" />
    <path
       d="m 106.29921,88.58268 h 35.43307"
       id="path40898" />
    <path
       d="m 106.29921,141.73228 35.43307,-35.43307"
       id="path40900" />
    <path
       d="m 106.29921,159.44882 h 35.43307"
       id="path40902" />
    <path
       d="m 106.29921,194.88189 h 35.43307"
       id="path40904" />
    <path
       d="m 106.29921,212.59843 35.43307,35.43307"
       id="path40906" />
    <path
       d="m 124.01575,248.0315 v 35.43307"
       id="path40908" />
    <path
       d="m 124.01575,283.46457 v 35.43307"
       id="path40910" />
    <path
       d="m 106.29921,354.33071 35.43307,-35.43307"
       id="path40912" />
    <path
       d="m 106.29921,372.04724 h 35.43307"
       id="path40914" />
    <path
       d="m 106.29921,425.19685 35.43307,-35.43307"
       id="path40916" />
    <path
       d="m 106.29921,442.91339 h 35.43307"
       id="path40918" />
    <path
       d="m 106.29921,478.34646 h 35.43307"
       id="path40920" />
    <path
       d="m 106.29921,513.77953 h 35.43307"
       id="path40922" />
    <path
       d="m 106.29921,566.92913 35.43307,-35.43307"
       id="path40924" />
    <path
       d="m 106.29921,566.92913 35.43307,35.43307"
       id="path40926" />
    <path
       d="m 106.29921,620.07874 h 35.43307"
       id="path40928" />
    <path
       d="m 106.29921,655.51181 h 35.43307"
       id="path40930" />
    <path
       d="m 124.01575,673.22835 v 35.43307"
       id="path40932" />
    <path
       d="m 106.29921,744.09449 35.43307,-35.43307"
       id="path40934" />
    <path
       d="m 106.29921,744.09449 35.43307,35.43307"
       id="path40936" />
    <path
       d="m 106.29921,814.96063 35.43307,-35.43307"
       id="path40938" />
    <path
       d="m 106.29921,814.96063 35.43307,35.43307"
       id="path40940" />
    <path
       d="m 106.29921,850.3937 35.43307,35.43307"
       id="path40942" />
    <path
       d="m 106.29921,903.54331 h 35.43307"
       id="path40944" />
    <path
       d="m 106.29921,956.69291 35.43307,-35.43307"
       id="path40946" />
    <path
       d="m 124.01575,956.69291 v 35.43307"
       id="path40948" />
    <path
       d="m 106.29921,1009.8425 h 35.43307"
       id="path40950" />
    <path
       d="M 159.44882,35.43307 V 70.86614"
       id="path40952" />
    <path
       d="m 159.44882,70.86614 v 35.43307"
       id="path40954" />
    <path
       d="m 141.73228,106.29921 35.43307,35.43307"
       id="path40956" />
    <path
       d="m 159.44882,141.73228 v 35.43307"
       id="path40958" />
    <path
       d="m 141.73228,194.88189 h 35.43307"
       id="path40960" />
    <path
       d="M 159.44882,212.59843 V 248.0315"
       id="path40962" />
    <path
       d="m 141.73228,265.74803 h 35.43307"
       id="path40964" />
    <path
       d="m 159.44882,283.46457 v 35.43307"
       id="path40966" />
    <path
       d="m 159.44882,318.89764 v 35.43307"
       id="path40968" />
    <path
       d="m 159.44882,354.33071 v 35.43307"
       id="path40970" />
    <path
       d="m 141.73228,425.19685 35.43307,-35.43307"
       id="path40972" />
    <path
       d="m 141.73228,460.62992 35.43307,-35.43307"
       id="path40974" />
    <path
       d="m 159.44882,460.62992 v 35.43307"
       id="path40976" />
    <path
       d="m 159.44882,496.06299 v 35.43307"
       id="path40978" />
    <path
       d="m 141.73228,531.49606 35.43307,35.43307"
       id="path40980" />
    <path
       d="M 159.44882,566.92913 V 602.3622"
       id="path40982" />
    <path
       d="m 141.73228,620.07874 h 35.43307"
       id="path40984" />
    <path
       d="m 141.73228,655.51181 h 35.43307"
       id="path40986" />
    <path
       d="m 141.73228,690.94488 h 35.43307"
       id="path40988" />
    <path
       d="m 141.73228,726.37795 h 35.43307"
       id="path40990" />
    <path
       d="m 141.73228,779.52756 35.43307,-35.43307"
       id="path40992" />
    <path
       d="m 141.73228,814.96063 35.43307,-35.43307"
       id="path40994" />
    <path
       d="m 141.73228,850.3937 35.43307,-35.43307"
       id="path40996" />
    <path
       d="m 141.73228,850.3937 35.43307,35.43307"
       id="path40998" />
    <path
       d="m 159.44882,885.82677 v 35.43307"
       id="path41000" />
    <path
       d="m 141.73228,938.97638 h 35.43307"
       id="path41002" />
    <path
       d="m 141.73228,956.69291 35.43307,35.43307"
       id="path41004" />
    <path
       d="m 141.73228,992.12598 35.43307,35.43312"
       id="path41006" />
    <path
       d="m 177.16535,35.43307 35.43308,35.43307"
       id="path41008" />
    <path
       d="M 177.16535,106.29921 212.59843,70.86614"
       id="path41010" />
    <path
       d="m 177.16535,106.29921 35.43308,35.43307"
       id="path41012" />
    <path
       d="m 177.16535,141.73228 35.43308,35.43307"
       id="path41014" />
    <path
       d="m 177.16535,177.16535 35.43308,35.43308"
       id="path41016" />
    <path
       d="m 177.16535,212.59843 35.43308,35.43307"
       id="path41018" />
    <path
       d="m 194.88189,248.0315 v 35.43307"
       id="path41020" />
    <path
       d="m 177.16535,283.46457 35.43308,35.43307"
       id="path41022" />
    <path
       d="m 177.16535,354.33071 35.43308,-35.43307"
       id="path41024" />
    <path
       d="m 177.16535,354.33071 35.43308,35.43307"
       id="path41026" />
    <path
       d="m 194.88189,389.76378 v 35.43307"
       id="path41028" />
    <path
       d="m 177.16535,460.62992 35.43308,-35.43307"
       id="path41030" />
    <path
       d="m 177.16535,496.06299 35.43308,-35.43307"
       id="path41032" />
    <path
       d="m 177.16535,531.49606 35.43308,-35.43307"
       id="path41034" />
    <path
       d="m 177.16535,549.2126 h 35.43308"
       id="path41036" />
    <path
       d="M 194.88189,566.92913 V 602.3622"
       id="path41038" />
    <path
       d="m 194.88189,602.3622 v 35.43308"
       id="path41040" />
    <path
       d="m 194.88189,637.79528 v 35.43307"
       id="path41042" />
    <path
       d="m 177.16535,690.94488 h 35.43308"
       id="path41044" />
    <path
       d="m 177.16535,708.66142 35.43308,35.43307"
       id="path41046" />
    <path
       d="m 177.16535,744.09449 35.43308,35.43307"
       id="path41048" />
    <path
       d="m 177.16535,797.24409 h 35.43308"
       id="path41050" />
    <path
       d="m 177.16535,814.96063 35.43308,35.43307"
       id="path41052" />
    <path
       d="m 177.16535,868.11024 h 35.43308"
       id="path41054" />
    <path
       d="m 194.88189,885.82677 v 35.43307"
       id="path41056" />
    <path
       d="m 194.88189,921.25984 v 35.43307"
       id="path41058" />
    <path
       d="m 177.16535,992.12598 35.43308,-35.43307"
       id="path41060" />
    <path
       d="m 177.16535,1027.5591 35.43308,-35.43312"
       id="path41062" />
    <path
       d="M 230.31496,35.43307 V 70.86614"
       id="path41064" />
    <path
       d="M 212.59843,106.29921 248.0315,70.86614"
       id="path41066" />
    <path
       d="m 212.59843,106.29921 35.43307,35.43307"
       id="path41068" />
    <path
       d="M 212.59843,159.44882 H 248.0315"
       id="path41070" />
    <path
       d="M 212.59843,194.88189 H 248.0315"
       id="path41072" />
    <path
       d="M 212.59843,248.0315 248.0315,212.59843"
       id="path41074" />
    <path
       d="M 212.59843,265.74803 H 248.0315"
       id="path41076" />
    <path
       d="M 212.59843,301.1811 H 248.0315"
       id="path41078" />
    <path
       d="M 212.59843,354.33071 248.0315,318.89764"
       id="path41080" />
    <path
       d="m 212.59843,354.33071 35.43307,35.43307"
       id="path41082" />
    <path
       d="m 212.59843,389.76378 35.43307,35.43307"
       id="path41084" />
    <path
       d="m 212.59843,425.19685 35.43307,35.43307"
       id="path41086" />
    <path
       d="m 230.31496,460.62992 v 35.43307"
       id="path41088" />
    <path
       d="M 212.59843,531.49606 248.0315,496.06299"
       id="path41090" />
    <path
       d="m 230.31496,531.49606 v 35.43307"
       id="path41092" />
    <path
       d="M 212.59843,566.92913 248.0315,602.3622"
       id="path41094" />
    <path
       d="M 212.59843,637.79528 248.0315,602.3622"
       id="path41096" />
    <path
       d="m 230.31496,637.79528 v 35.43307"
       id="path41098" />
    <path
       d="m 230.31496,673.22835 v 35.43307"
       id="path41100" />
    <path
       d="M 212.59843,744.09449 248.0315,708.66142"
       id="path41102" />
    <path
       d="M 212.59843,779.52756 248.0315,744.09449"
       id="path41104" />
    <path
       d="M 212.59843,814.96063 248.0315,779.52756"
       id="path41106" />
    <path
       d="M 230.31496,814.96063 V 850.3937"
       id="path41108" />
    <path
       d="m 230.31496,850.3937 v 35.43307"
       id="path41110" />
    <path
       d="m 212.59843,885.82677 35.43307,35.43307"
       id="path41112" />
    <path
       d="M 212.59843,956.69291 248.0315,921.25984"
       id="path41114" />
    <path
       d="M 212.59843,992.12598 248.0315,956.69291"
       id="path41116" />
    <path
       d="M 212.59843,1027.5591 248.0315,992.12598"
       id="path41118" />
    <path
       d="m 248.0315,53.14961 h 35.43307"
       id="path41120" />
    <path
       d="m 265.74803,70.86614 v 35.43307"
       id="path41122" />
    <path
       d="m 265.74803,106.29921 v 35.43307"
       id="path41124" />
    <path
       d="m 248.0315,141.73228 35.43307,35.43307"
       id="path41126" />
    <path
       d="m 248.0315,212.59843 35.43307,-35.43308"
       id="path41128" />
    <path
       d="m 248.0315,248.0315 35.43307,-35.43307"
       id="path41130" />
    <path
       d="m 248.0315,265.74803 h 35.43307"
       id="path41132" />
    <path
       d="m 248.0315,318.89764 35.43307,-35.43307"
       id="path41134" />
    <path
       d="m 248.0315,354.33071 35.43307,-35.43307"
       id="path41136" />
    <path
       d="m 248.0315,389.76378 35.43307,-35.43307"
       id="path41138" />
    <path
       d="m 248.0315,425.19685 35.43307,-35.43307"
       id="path41140" />
    <path
       d="m 248.0315,425.19685 35.43307,35.43307"
       id="path41142" />
    <path
       d="m 248.0315,460.62992 35.43307,35.43307"
       id="path41144" />
    <path
       d="m 248.0315,531.49606 35.43307,-35.43307"
       id="path41146" />
    <path
       d="m 248.0315,566.92913 35.43307,-35.43307"
       id="path41148" />
    <path
       d="m 248.0315,584.64567 h 35.43307"
       id="path41150" />
    <path
       d="M 248.0315,637.79528 283.46457,602.3622"
       id="path41152" />
    <path
       d="m 265.74803,637.79528 v 35.43307"
       id="path41154" />
    <path
       d="m 248.0315,690.94488 h 35.43307"
       id="path41156" />
    <path
       d="m 248.0315,708.66142 35.43307,35.43307"
       id="path41158" />
    <path
       d="m 248.0315,779.52756 35.43307,-35.43307"
       id="path41160" />
    <path
       d="m 248.0315,779.52756 35.43307,35.43307"
       id="path41162" />
    <path
       d="M 265.74803,814.96063 V 850.3937"
       id="path41164" />
    <path
       d="m 265.74803,850.3937 v 35.43307"
       id="path41166" />
    <path
       d="m 265.74803,885.82677 v 35.43307"
       id="path41168" />
    <path
       d="m 248.0315,921.25984 35.43307,35.43307"
       id="path41170" />
    <path
       d="m 265.74803,956.69291 v 35.43307"
       id="path41172" />
    <path
       d="m 248.0315,1027.5591 35.43307,-35.43312"
       id="path41174" />
    <path
       d="M 301.1811,35.43307 V 70.86614"
       id="path41176" />
    <path
       d="m 301.1811,70.86614 v 35.43307"
       id="path41178" />
    <path
       d="m 283.46457,124.01575 h 35.43307"
       id="path41180" />
    <path
       d="m 283.46457,159.44882 h 35.43307"
       id="path41182" />
    <path
       d="m 301.1811,177.16535 v 35.43308"
       id="path41184" />
    <path
       d="m 283.46457,212.59843 35.43307,35.43307"
       id="path41186" />
    <path
       d="m 283.46457,248.0315 35.43307,35.43307"
       id="path41188" />
    <path
       d="m 283.46457,283.46457 35.43307,35.43307"
       id="path41190" />
    <path
       d="m 301.1811,318.89764 v 35.43307"
       id="path41192" />
    <path
       d="m 301.1811,354.33071 v 35.43307"
       id="path41194" />
    <path
       d="m 301.1811,389.76378 v 35.43307"
       id="path41196" />
    <path
       d="m 283.46457,460.62992 35.43307,-35.43307"
       id="path41198" />
    <path
       d="m 301.1811,460.62992 v 35.43307"
       id="path41200" />
    <path
       d="m 283.46457,496.06299 35.43307,35.43307"
       id="path41202" />
    <path
       d="m 283.46457,566.92913 35.43307,-35.43307"
       id="path41204" />
    <path
       d="m 283.46457,566.92913 35.43307,35.43307"
       id="path41206" />
    <path
       d="m 283.46457,620.07874 h 35.43307"
       id="path41208" />
    <path
       d="m 283.46457,655.51181 h 35.43307"
       id="path41210" />
    <path
       d="m 283.46457,673.22835 35.43307,35.43307"
       id="path41212" />
    <path
       d="m 283.46457,708.66142 35.43307,35.43307"
       id="path41214" />
    <path
       d="m 283.46457,761.81102 h 35.43307"
       id="path41216" />
    <path
       d="m 301.1811,779.52756 v 35.43307"
       id="path41218" />
    <path
       d="m 283.46457,832.67717 h 35.43307"
       id="path41220" />
    <path
       d="m 301.1811,850.3937 v 35.43307"
       id="path41222" />
    <path
       d="m 301.1811,885.82677 v 35.43307"
       id="path41224" />
    <path
       d="m 301.1811,921.25984 v 35.43307"
       id="path41226" />
    <path
       d="m 301.1811,956.69291 v 35.43307"
       id="path41228" />
    <path
       d="m 283.46457,992.12598 35.43307,35.43312"
       id="path41230" />
    <path
       d="m 318.89764,35.43307 35.43307,35.43307"
       id="path41232" />
    <path
       d="M 318.89764,106.29921 354.33071,70.86614"
       id="path41234" />
    <path
       d="m 318.89764,141.73228 35.43307,-35.43307"
       id="path41236" />
    <path
       d="m 318.89764,159.44882 h 35.43307"
       id="path41238" />
    <path
       d="m 318.89764,194.88189 h 35.43307"
       id="path41240" />
    <path
       d="m 318.89764,230.31496 h 35.43307"
       id="path41242" />
    <path
       d="M 318.89764,283.46457 354.33071,248.0315"
       id="path41244" />
    <path
       d="m 336.61417,283.46457 v 35.43307"
       id="path41246" />
    <path
       d="m 318.89764,336.61417 h 35.43307"
       id="path41248" />
    <path
       d="m 318.89764,354.33071 35.43307,35.43307"
       id="path41250" />
    <path
       d="m 318.89764,425.19685 35.43307,-35.43307"
       id="path41252" />
    <path
       d="m 318.89764,442.91339 h 35.43307"
       id="path41254" />
    <path
       d="m 318.89764,460.62992 35.43307,35.43307"
       id="path41256" />
    <path
       d="m 318.89764,513.77953 h 35.43307"
       id="path41258" />
    <path
       d="m 318.89764,531.49606 35.43307,35.43307"
       id="path41260" />
    <path
       d="m 318.89764,602.3622 35.43307,-35.43307"
       id="path41262" />
    <path
       d="m 336.61417,602.3622 v 35.43308"
       id="path41264" />
    <path
       d="m 318.89764,637.79528 35.43307,35.43307"
       id="path41266" />
    <path
       d="m 318.89764,690.94488 h 35.43307"
       id="path41268" />
    <path
       d="m 336.61417,708.66142 v 35.43307"
       id="path41270" />
    <path
       d="m 318.89764,761.81102 h 35.43307"
       id="path41272" />
    <path
       d="m 318.89764,814.96063 35.43307,-35.43307"
       id="path41274" />
    <path
       d="M 336.61417,814.96063 V 850.3937"
       id="path41276" />
    <path
       d="M 318.89764,885.82677 354.33071,850.3937"
       id="path41278" />
    <path
       d="m 318.89764,921.25984 35.43307,-35.43307"
       id="path41280" />
    <path
       d="m 318.89764,938.97638 h 35.43307"
       id="path41282" />
    <path
       d="m 318.89764,956.69291 35.43307,35.43307"
       id="path41284" />
    <path
       d="m 318.89764,1027.5591 35.43307,-35.43312"
       id="path41286" />
    <path
       d="M 372.04724,35.43307 V 70.86614"
       id="path41288" />
    <path
       d="m 354.33071,88.58268 h 35.43307"
       id="path41290" />
    <path
       d="m 354.33071,124.01575 h 35.43307"
       id="path41292" />
    <path
       d="m 372.04724,141.73228 v 35.43307"
       id="path41294" />
    <path
       d="m 372.04724,177.16535 v 35.43308"
       id="path41296" />
    <path
       d="m 354.33071,248.0315 35.43307,-35.43307"
       id="path41298" />
    <path
       d="m 372.04724,248.0315 v 35.43307"
       id="path41300" />
    <path
       d="m 354.33071,283.46457 35.43307,35.43307"
       id="path41302" />
    <path
       d="m 354.33071,318.89764 35.43307,35.43307"
       id="path41304" />
    <path
       d="m 354.33071,372.04724 h 35.43307"
       id="path41306" />
    <path
       d="m 354.33071,389.76378 35.43307,35.43307"
       id="path41308" />
    <path
       d="m 354.33071,425.19685 35.43307,35.43307"
       id="path41310" />
    <path
       d="m 354.33071,478.34646 h 35.43307"
       id="path41312" />
    <path
       d="m 354.33071,531.49606 35.43307,-35.43307"
       id="path41314" />
    <path
       d="m 354.33071,531.49606 35.43307,35.43307"
       id="path41316" />
    <path
       d="m 354.33071,566.92913 35.43307,35.43307"
       id="path41318" />
    <path
       d="M 354.33071,637.79528 389.76378,602.3622"
       id="path41320" />
    <path
       d="m 372.04724,637.79528 v 35.43307"
       id="path41322" />
    <path
       d="m 354.33071,690.94488 h 35.43307"
       id="path41324" />
    <path
       d="m 372.04724,708.66142 v 35.43307"
       id="path41326" />
    <path
       d="m 372.04724,744.09449 v 35.43307"
       id="path41328" />
    <path
       d="m 354.33071,779.52756 35.43307,35.43307"
       id="path41330" />
    <path
       d="m 354.33071,832.67717 h 35.43307"
       id="path41332" />
    <path
       d="m 354.33071,868.11024 h 35.43307"
       id="path41334" />
    <path
       d="m 354.33071,903.54331 h 35.43307"
       id="path41336" />
    <path
       d="m 354.33071,938.97638 h 35.43307"
       id="path41338" />
    <path
       d="m 372.04724,956.69291 v 35.43307"
       id="path41340" />
    <path
       d="m 372.04724,992.12598 v 35.43312"
       id="path41342" />
    <path
       d="m 389.76378,53.14961 h 35.43307"
       id="path41344" />
    <path
       d="m 389.76378,70.86614 35.43307,35.43307"
       id="path41346" />
    <path
       d="m 389.76378,124.01575 h 35.43307"
       id="path41348" />
    <path
       d="m 389.76378,141.73228 35.43307,35.43307"
       id="path41350" />
    <path
       d="m 389.76378,177.16535 35.43307,35.43308"
       id="path41352" />
    <path
       d="m 389.76378,248.0315 35.43307,-35.43307"
       id="path41354" />
    <path
       d="m 389.76378,265.74803 h 35.43307"
       id="path41356" />
    <path
       d="m 407.48031,283.46457 v 35.43307"
       id="path41358" />
    <path
       d="m 389.76378,354.33071 35.43307,-35.43307"
       id="path41360" />
    <path
       d="m 389.76378,372.04724 h 35.43307"
       id="path41362" />
    <path
       d="m 389.76378,389.76378 35.43307,35.43307"
       id="path41364" />
    <path
       d="m 389.76378,442.91339 h 35.43307"
       id="path41366" />
    <path
       d="m 407.48031,460.62992 v 35.43307"
       id="path41368" />
    <path
       d="m 389.76378,531.49606 35.43307,-35.43307"
       id="path41370" />
    <path
       d="m 407.48031,531.49606 v 35.43307"
       id="path41372" />
    <path
       d="m 389.76378,602.3622 35.43307,-35.43307"
       id="path41374" />
    <path
       d="m 389.76378,602.3622 35.43307,35.43308"
       id="path41376" />
    <path
       d="m 389.76378,655.51181 h 35.43307"
       id="path41378" />
    <path
       d="m 407.48031,673.22835 v 35.43307"
       id="path41380" />
    <path
       d="m 389.76378,726.37795 h 35.43307"
       id="path41382" />
    <path
       d="m 389.76378,744.09449 35.43307,35.43307"
       id="path41384" />
    <path
       d="m 389.76378,797.24409 h 35.43307"
       id="path41386" />
    <path
       d="m 389.76378,832.67717 h 35.43307"
       id="path41388" />
    <path
       d="m 389.76378,868.11024 h 35.43307"
       id="path41390" />
    <path
       d="m 407.48031,885.82677 v 35.43307"
       id="path41392" />
    <path
       d="m 389.76378,938.97638 h 35.43307"
       id="path41394" />
    <path
       d="m 389.76378,956.69291 35.43307,35.43307"
       id="path41396" />
    <path
       d="m 389.76378,1027.5591 35.43307,-35.43312"
       id="path41398" />
    <path
       d="m 425.19685,53.14961 h 35.43307"
       id="path41400" />
    <path
       d="m 425.19685,88.58268 h 35.43307"
       id="path41402" />
    <path
       d="m 425.19685,124.01575 h 35.43307"
       id="path41404" />
    <path
       d="m 425.19685,159.44882 h 35.43307"
       id="path41406" />
    <path
       d="m 425.19685,212.59843 35.43307,-35.43308"
       id="path41408" />
    <path
       d="m 425.19685,248.0315 35.43307,-35.43307"
       id="path41410" />
    <path
       d="M 425.19685,283.46457 460.62992,248.0315"
       id="path41412" />
    <path
       d="m 425.19685,318.89764 35.43307,-35.43307"
       id="path41414" />
    <path
       d="m 425.19685,336.61417 h 35.43307"
       id="path41416" />
    <path
       d="m 425.19685,372.04724 h 35.43307"
       id="path41418" />
    <path
       d="m 425.19685,425.19685 35.43307,-35.43307"
       id="path41420" />
    <path
       d="m 425.19685,425.19685 35.43307,35.43307"
       id="path41422" />
    <path
       d="m 425.19685,496.06299 35.43307,-35.43307"
       id="path41424" />
    <path
       d="m 425.19685,496.06299 35.43307,35.43307"
       id="path41426" />
    <path
       d="m 425.19685,549.2126 h 35.43307"
       id="path41428" />
    <path
       d="M 442.91339,566.92913 V 602.3622"
       id="path41430" />
    <path
       d="m 425.19685,620.07874 h 35.43307"
       id="path41432" />
    <path
       d="m 442.91339,637.79528 v 35.43307"
       id="path41434" />
    <path
       d="m 442.91339,673.22835 v 35.43307"
       id="path41436" />
    <path
       d="m 442.91339,708.66142 v 35.43307"
       id="path41438" />
    <path
       d="m 442.91339,744.09449 v 35.43307"
       id="path41440" />
    <path
       d="m 425.19685,779.52756 35.43307,35.43307"
       id="path41442" />
    <path
       d="m 425.19685,814.96063 35.43307,35.43307"
       id="path41444" />
    <path
       d="m 425.19685,850.3937 35.43307,35.43307"
       id="path41446" />
    <path
       d="m 425.19685,903.54331 h 35.43307"
       id="path41448" />
    <path
       d="m 442.91339,921.25984 v 35.43307"
       id="path41450" />
    <path
       d="m 425.19685,974.40945 h 35.43307"
       id="path41452" />
    <path
       d="m 425.19685,1009.8425 h 35.43307"
       id="path41454" />
    <path
       d="M 460.62992,70.86614 496.06299,35.43307"
       id="path41456" />
    <path
       d="M 460.62992,106.29921 496.06299,70.86614"
       id="path41458" />
    <path
       d="m 460.62992,106.29921 35.43307,35.43307"
       id="path41460" />
    <path
       d="m 460.62992,177.16535 35.43307,-35.43307"
       id="path41462" />
    <path
       d="m 460.62992,177.16535 35.43307,35.43308"
       id="path41464" />
    <path
       d="m 460.62992,248.0315 35.43307,-35.43307"
       id="path41466" />
    <path
       d="M 460.62992,283.46457 496.06299,248.0315"
       id="path41468" />
    <path
       d="m 460.62992,283.46457 35.43307,35.43307"
       id="path41470" />
    <path
       d="m 460.62992,318.89764 35.43307,35.43307"
       id="path41472" />
    <path
       d="m 460.62992,372.04724 h 35.43307"
       id="path41474" />
    <path
       d="m 478.34646,389.76378 v 35.43307"
       id="path41476" />
    <path
       d="m 478.34646,425.19685 v 35.43307"
       id="path41478" />
    <path
       d="m 460.62992,478.34646 h 35.43307"
       id="path41480" />
    <path
       d="m 478.34646,496.06299 v 35.43307"
       id="path41482" />
    <path
       d="m 460.62992,566.92913 35.43307,-35.43307"
       id="path41484" />
    <path
       d="m 460.62992,584.64567 h 35.43307"
       id="path41486" />
    <path
       d="M 460.62992,637.79528 496.06299,602.3622"
       id="path41488" />
    <path
       d="m 460.62992,637.79528 35.43307,35.43307"
       id="path41490" />
    <path
       d="m 460.62992,673.22835 35.43307,35.43307"
       id="path41492" />
    <path
       d="m 460.62992,708.66142 35.43307,35.43307"
       id="path41494" />
    <path
       d="m 460.62992,744.09449 35.43307,35.43307"
       id="path41496" />
    <path
       d="m 460.62992,814.96063 35.43307,-35.43307"
       id="path41498" />
    <path
       d="m 460.62992,850.3937 35.43307,-35.43307"
       id="path41500" />
    <path
       d="m 460.62992,868.11024 h 35.43307"
       id="path41502" />
    <path
       d="m 460.62992,903.54331 h 35.43307"
       id="path41504" />
    <path
       d="m 460.62992,921.25984 35.43307,35.43307"
       id="path41506" />
    <path
       d="m 460.62992,956.69291 35.43307,35.43307"
       id="path41508" />
    <path
       d="m 460.62992,1009.8425 h 35.43307"
       id="path41510" />
    <path
       d="M 513.77953,35.43307 V 70.86614"
       id="path41512" />
    <path
       d="m 496.06299,88.58268 h 35.43307"
       id="path41514" />
    <path
       d="m 496.06299,124.01575 h 35.43307"
       id="path41516" />
    <path
       d="m 496.06299,177.16535 35.43307,-35.43307"
       id="path41518" />
    <path
       d="m 496.06299,194.88189 h 35.43307"
       id="path41520" />
    <path
       d="m 496.06299,230.31496 h 35.43307"
       id="path41522" />
    <path
       d="m 496.06299,248.0315 35.43307,35.43307"
       id="path41524" />
    <path
       d="m 496.06299,301.1811 h 35.43307"
       id="path41526" />
    <path
       d="m 496.06299,354.33071 35.43307,-35.43307"
       id="path41528" />
    <path
       d="m 513.77953,354.33071 v 35.43307"
       id="path41530" />
    <path
       d="m 513.77953,389.76378 v 35.43307"
       id="path41532" />
    <path
       d="m 496.06299,425.19685 35.43307,35.43307"
       id="path41534" />
    <path
       d="m 496.06299,460.62992 35.43307,35.43307"
       id="path41536" />
    <path
       d="m 496.06299,513.77953 h 35.43307"
       id="path41538" />
    <path
       d="m 496.06299,566.92913 35.43307,-35.43307"
       id="path41540" />
    <path
       d="m 496.06299,566.92913 35.43307,35.43307"
       id="path41542" />
    <path
       d="m 513.77953,602.3622 v 35.43308"
       id="path41544" />
    <path
       d="m 496.06299,673.22835 35.43307,-35.43307"
       id="path41546" />
    <path
       d="m 496.06299,673.22835 35.43307,35.43307"
       id="path41548" />
    <path
       d="m 513.77953,708.66142 v 35.43307"
       id="path41550" />
    <path
       d="m 496.06299,744.09449 35.43307,35.43307"
       id="path41552" />
    <path
       d="m 496.06299,814.96063 35.43307,-35.43307"
       id="path41554" />
    <path
       d="M 513.77953,814.96063 V 850.3937"
       id="path41556" />
    <path
       d="M 496.06299,885.82677 531.49606,850.3937"
       id="path41558" />
    <path
       d="m 496.06299,921.25984 35.43307,-35.43307"
       id="path41560" />
    <path
       d="m 513.77953,921.25984 v 35.43307"
       id="path41562" />
    <path
       d="m 513.77953,956.69291 v 35.43307"
       id="path41564" />
    <path
       d="m 496.06299,992.12598 35.43307,35.43312"
       id="path41566" />
    <path
       d="M 549.2126,35.43307 V 70.86614"
       id="path41568" />
    <path
       d="M 531.49606,106.29921 566.92913,70.86614"
       id="path41570" />
    <path
       d="m 531.49606,141.73228 35.43307,-35.43307"
       id="path41572" />
    <path
       d="m 549.2126,141.73228 v 35.43307"
       id="path41574" />
    <path
       d="m 531.49606,177.16535 35.43307,35.43308"
       id="path41576" />
    <path
       d="m 531.49606,212.59843 35.43307,35.43307"
       id="path41578" />
    <path
       d="m 549.2126,248.0315 v 35.43307"
       id="path41580" />
    <path
       d="m 549.2126,283.46457 v 35.43307"
       id="path41582" />
    <path
       d="m 531.49606,336.61417 h 35.43307"
       id="path41584" />
    <path
       d="m 549.2126,354.33071 v 35.43307"
       id="path41586" />
    <path
       d="m 531.49606,425.19685 35.43307,-35.43307"
       id="path41588" />
    <path
       d="m 549.2126,425.19685 v 35.43307"
       id="path41590" />
    <path
       d="m 531.49606,478.34646 h 35.43307"
       id="path41592" />
    <path
       d="m 531.49606,496.06299 35.43307,35.43307"
       id="path41594" />
    <path
       d="m 531.49606,549.2126 h 35.43307"
       id="path41596" />
    <path
       d="m 531.49606,602.3622 35.43307,-35.43307"
       id="path41598" />
    <path
       d="M 531.49606,637.79528 566.92913,602.3622"
       id="path41600" />
    <path
       d="m 549.2126,637.79528 v 35.43307"
       id="path41602" />
    <path
       d="m 531.49606,708.66142 35.43307,-35.43307"
       id="path41604" />
    <path
       d="m 549.2126,708.66142 v 35.43307"
       id="path41606" />
    <path
       d="m 531.49606,744.09449 35.43307,35.43307"
       id="path41608" />
    <path
       d="m 531.49606,814.96063 35.43307,-35.43307"
       id="path41610" />
    <path
       d="m 531.49606,850.3937 35.43307,-35.43307"
       id="path41612" />
    <path
       d="m 531.49606,850.3937 35.43307,35.43307"
       id="path41614" />
    <path
       d="m 531.49606,885.82677 35.43307,35.43307"
       id="path41616" />
    <path
       d="m 531.49606,938.97638 h 35.43307"
       id="path41618" />
    <path
       d="m 531.49606,992.12598 35.43307,-35.43307"
       id="path41620" />
    <path
       d="m 531.49606,1009.8425 h 35.43307"
       id="path41622" />
    <path
       d="M 566.92913,70.86614 602.3622,35.43307"
       id="path41624" />
    <path
       d="M 566.92913,106.29921 602.3622,70.86614"
       id="path41626" />
    <path
       d="m 566.92913,106.29921 35.43307,35.43307"
       id="path41628" />
    <path
       d="M 566.92913,177.16535 602.3622,141.73228"
       id="path41630" />
    <path
       d="m 566.92913,177.16535 35.43307,35.43308"
       id="path41632" />
    <path
       d="M 566.92913,212.59843 602.3622,248.0315"
       id="path41634" />
    <path
       d="M 566.92913,283.46457 602.3622,248.0315"
       id="path41636" />
    <path
       d="M 566.92913,301.1811 H 602.3622"
       id="path41638" />
    <path
       d="M 566.92913,336.61417 H 602.3622"
       id="path41640" />
    <path
       d="M 566.92913,389.76378 602.3622,354.33071"
       id="path41642" />
    <path
       d="m 584.64567,389.76378 v 35.43307"
       id="path41644" />
    <path
       d="m 584.64567,425.19685 v 35.43307"
       id="path41646" />
    <path
       d="m 566.92913,460.62992 35.43307,35.43307"
       id="path41648" />
    <path
       d="M 566.92913,513.77953 H 602.3622"
       id="path41650" />
    <path
       d="M 566.92913,549.2126 H 602.3622"
       id="path41652" />
    <path
       d="M 566.92913,584.64567 H 602.3622"
       id="path41654" />
    <path
       d="m 566.92913,602.3622 35.43307,35.43308"
       id="path41656" />
    <path
       d="m 566.92913,637.79528 35.43307,35.43307"
       id="path41658" />
    <path
       d="M 566.92913,708.66142 602.3622,673.22835"
       id="path41660" />
    <path
       d="m 566.92913,708.66142 35.43307,35.43307"
       id="path41662" />
    <path
       d="m 566.92913,744.09449 35.43307,35.43307"
       id="path41664" />
    <path
       d="m 584.64567,779.52756 v 35.43307"
       id="path41666" />
    <path
       d="M 566.92913,814.96063 602.3622,850.3937"
       id="path41668" />
    <path
       d="m 566.92913,850.3937 35.43307,35.43307"
       id="path41670" />
    <path
       d="m 584.64567,885.82677 v 35.43307"
       id="path41672" />
    <path
       d="M 566.92913,938.97638 H 602.3622"
       id="path41674" />
    <path
       d="M 566.92913,974.40945 H 602.3622"
       id="path41676" />
    <path
       d="m 566.92913,992.12598 35.43307,35.43312"
       id="path41678" />
    <path
       d="m 602.3622,35.43307 35.43308,35.43307"
       id="path41680" />
    <path
       d="M 602.3622,106.29921 637.79528,70.86614"
       id="path41682" />
    <path
       d="m 602.3622,124.01575 h 35.43308"
       id="path41684" />
    <path
       d="m 602.3622,141.73228 35.43308,35.43307"
       id="path41686" />
    <path
       d="m 602.3622,177.16535 35.43308,35.43308"
       id="path41688" />
    <path
       d="m 602.3622,248.0315 35.43308,-35.43307"
       id="path41690" />
    <path
       d="m 620.07874,248.0315 v 35.43307"
       id="path41692" />
    <path
       d="m 602.3622,318.89764 35.43308,-35.43307"
       id="path41694" />
    <path
       d="m 602.3622,336.61417 h 35.43308"
       id="path41696" />
    <path
       d="m 620.07874,354.33071 v 35.43307"
       id="path41698" />
    <path
       d="m 602.3622,425.19685 35.43308,-35.43307"
       id="path41700" />
    <path
       d="m 602.3622,460.62992 35.43308,-35.43307"
       id="path41702" />
    <path
       d="m 602.3622,496.06299 35.43308,-35.43307"
       id="path41704" />
    <path
       d="m 602.3622,531.49606 35.43308,-35.43307"
       id="path41706" />
    <path
       d="m 620.07874,531.49606 v 35.43307"
       id="path41708" />
    <path
       d="m 602.3622,602.3622 35.43308,-35.43307"
       id="path41710" />
    <path
       d="m 602.3622,602.3622 35.43308,35.43308"
       id="path41712" />
    <path
       d="m 602.3622,673.22835 35.43308,-35.43307"
       id="path41714" />
    <path
       d="m 602.3622,708.66142 35.43308,-35.43307"
       id="path41716" />
    <path
       d="m 602.3622,744.09449 35.43308,-35.43307"
       id="path41718" />
    <path
       d="m 602.3622,744.09449 35.43308,35.43307"
       id="path41720" />
    <path
       d="m 602.3622,779.52756 35.43308,35.43307"
       id="path41722" />
    <path
       d="m 602.3622,850.3937 35.43308,-35.43307"
       id="path41724" />
    <path
       d="M 602.3622,885.82677 637.79528,850.3937"
       id="path41726" />
    <path
       d="m 620.07874,885.82677 v 35.43307"
       id="path41728" />
    <path
       d="m 602.3622,956.69291 35.43308,-35.43307"
       id="path41730" />
    <path
       d="m 620.07874,956.69291 v 35.43307"
       id="path41732" />
    <path
       d="m 620.07874,992.12598 v 35.43312"
       id="path41734" />
    <path
       d="M 637.79528,70.86614 673.22835,35.43307"
       id="path41736" />
    <path
       d="m 655.51181,70.86614 v 35.43307"
       id="path41738" />
    <path
       d="m 637.79528,124.01575 h 35.43307"
       id="path41740" />
    <path
       d="m 637.79528,177.16535 35.43307,-35.43307"
       id="path41742" />
    <path
       d="m 637.79528,212.59843 35.43307,-35.43308"
       id="path41744" />
    <path
       d="m 637.79528,248.0315 35.43307,-35.43307"
       id="path41746" />
    <path
       d="m 655.51181,248.0315 v 35.43307"
       id="path41748" />
    <path
       d="m 637.79528,318.89764 35.43307,-35.43307"
       id="path41750" />
    <path
       d="m 637.79528,336.61417 h 35.43307"
       id="path41752" />
    <path
       d="m 637.79528,372.04724 h 35.43307"
       id="path41754" />
    <path
       d="m 655.51181,389.76378 v 35.43307"
       id="path41756" />
    <path
       d="m 637.79528,460.62992 35.43307,-35.43307"
       id="path41758" />
    <path
       d="m 637.79528,496.06299 35.43307,-35.43307"
       id="path41760" />
    <path
       d="m 655.51181,496.06299 v 35.43307"
       id="path41762" />
    <path
       d="m 637.79528,566.92913 35.43307,-35.43307"
       id="path41764" />
    <path
       d="m 637.79528,566.92913 35.43307,35.43307"
       id="path41766" />
    <path
       d="M 637.79528,637.79528 673.22835,602.3622"
       id="path41768" />
    <path
       d="m 637.79528,655.51181 h 35.43307"
       id="path41770" />
    <path
       d="m 655.51181,673.22835 v 35.43307"
       id="path41772" />
    <path
       d="m 655.51181,708.66142 v 35.43307"
       id="path41774" />
    <path
       d="m 655.51181,744.09449 v 35.43307"
       id="path41776" />
    <path
       d="m 637.79528,814.96063 35.43307,-35.43307"
       id="path41778" />
    <path
       d="M 655.51181,814.96063 V 850.3937"
       id="path41780" />
    <path
       d="m 637.79528,868.11024 h 35.43307"
       id="path41782" />
    <path
       d="m 637.79528,903.54331 h 35.43307"
       id="path41784" />
    <path
       d="m 637.79528,938.97638 h 35.43307"
       id="path41786" />
    <path
       d="m 637.79528,956.69291 35.43307,35.43307"
       id="path41788" />
    <path
       d="m 655.51181,992.12598 v 35.43312"
       id="path41790" />
    <path
       d="M 690.94488,35.43307 V 70.86614"
       id="path41792" />
    <path
       d="m 690.94488,70.86614 v 35.43307"
       id="path41794" />
    <path
       d="m 673.22835,106.29921 35.43307,35.43307"
       id="path41796" />
    <path
       d="m 690.94488,141.73228 v 35.43307"
       id="path41798" />
    <path
       d="m 673.22835,177.16535 35.43307,35.43308"
       id="path41800" />
    <path
       d="m 673.22835,230.31496 h 35.43307"
       id="path41802" />
    <path
       d="m 673.22835,265.74803 h 35.43307"
       id="path41804" />
    <path
       d="m 673.22835,283.46457 35.43307,35.43307"
       id="path41806" />
    <path
       d="m 673.22835,354.33071 35.43307,-35.43307"
       id="path41808" />
    <path
       d="m 673.22835,389.76378 35.43307,-35.43307"
       id="path41810" />
    <path
       d="m 690.94488,389.76378 v 35.43307"
       id="path41812" />
    <path
       d="m 673.22835,442.91339 h 35.43307"
       id="path41814" />
    <path
       d="m 673.22835,460.62992 35.43307,35.43307"
       id="path41816" />
    <path
       d="m 690.94488,496.06299 v 35.43307"
       id="path41818" />
    <path
       d="m 673.22835,549.2126 h 35.43307"
       id="path41820" />
    <path
       d="M 690.94488,566.92913 V 602.3622"
       id="path41822" />
    <path
       d="m 673.22835,602.3622 35.43307,35.43308"
       id="path41824" />
    <path
       d="m 673.22835,673.22835 35.43307,-35.43307"
       id="path41826" />
    <path
       d="m 673.22835,690.94488 h 35.43307"
       id="path41828" />
    <path
       d="m 673.22835,744.09449 35.43307,-35.43307"
       id="path41830" />
    <path
       d="m 673.22835,761.81102 h 35.43307"
       id="path41832" />
    <path
       d="m 690.94488,779.52756 v 35.43307"
       id="path41834" />
    <path
       d="m 673.22835,850.3937 35.43307,-35.43307"
       id="path41836" />
    <path
       d="m 690.94488,850.3937 v 35.43307"
       id="path41838" />
    <path
       d="m 673.22835,921.25984 35.43307,-35.43307"
       id="path41840" />
    <path
       d="m 673.22835,921.25984 35.43307,35.43307"
       id="path41842" />
    <path
       d="m 673.22835,992.12598 35.43307,-35.43307"
       id="path41844" />
    <path
       d="m 673.22835,1027.5591 35.43307,-35.43312"
       id="path41846" />
  </g>
  <WCB
     layer="0"
     node="0"
     lastpath="0"
     lastpathnc="0"
     lastknownposx="0"
     lastknownposy="0"
     pausedposx="0"
     pausedposy="0"
     randseed="0"
     row="0"
     application="Axidraw" />
</svg>
