<?xml version="1.0" standalone="no"?>
<!DOCTYPE svg PUBLIC "-//W3C//DTD SVG 1.1//EN" 
    "http://www.w3.org/Graphics/SVG/1.1/DTD/svg11.dtd">
<svg width="10cm" height="15cm"
    xmlns="http://www.w3.org/2000/svg" version="1.1" viewBox="0 0 354.33071 531.49606">
  <g fill="none" stroke="black" stroke-width="0.03cm">
    <path d="M43.4321 35.61875 L74.0865 44.40876" />
    <path d="M74.0865 44.40876 L65.29649 75.06317" />
    <path d="M65.29649 75.06317 L34.64209 66.27316" />
    <path d="M34.64209 66.27316 L43.4321 35.61875" />
    <path d="M44.04983 70.72337 L74.3788 80.57785" />
    <path d="M74.3788 80.57785 L64.52432 110.90681" />
    <path d="M64.52432 110.90681 L34.19535 101.05234" />
    <path d="M34.19535 101.05234 L44.04983 70.72337" />
    <path d="M44.67866 105.84974 L74.64523 116.75668" />
    <path d="M74.64523 116.75668 L63.73829 146.72326" />
    <path d="M63.73829 146.72326 L33.77172 135.81632" />
    <path d="M33.77172 135.81632 L44.67866 105.84974" />
    <path d="M45.3178 140.99825 L74.88548 152.94436" />
    <path d="M74.88548 152.94436 L62.93936 182.51204" />
    <path d="M62.93936 182.51204 L33.37169 170.56592" />
    <path d="M33.37169 170.56592 L45.3178 140.99825" />
    <path d="M45.96649 176.16923 L75.09924 189.13997" />
    <path d="M75.09924 189.13997 L62.1285 218.27271" />
    <path d="M62.1285 218.27271 L32.99575 205.30198" />
    <path d="M32.99575 205.30198 L45.96649 176.16923" />
    <path d="M46.62393 211.36301 L75.28626 225.34257" />
    <path d="M75.28626 225.34257 L61.3067 254.0049" />
    <path d="M61.3067 254.0049 L32.64438 240.02534" />
    <path d="M32.64438 240.02534 L46.62393 211.36301" />
    <path d="M47.28932 246.57989 L75.44631 261.55122" />
    <path d="M75.44631 261.55122 L60.47497 289.70821" />
    <path d="M60.47497 289.70821 L32.31798 274.73688" />
    <path d="M32.31798 274.73688 L47.28932 246.57989" />
    <path d="M47.96184 281.82011 L75.57919 297.76499" />
    <path d="M75.57919 297.76499 L59.63431 325.38234" />
    <path d="M59.63431 325.38234 L32.01696 309.43746" />
    <path d="M32.01696 309.43746 L47.96184 281.82011" />
    <path d="M48.64069 317.08393 L75.68475 333.98293" />
    <path d="M75.68475 333.98293 L58.78575 361.02698" />
    <path d="M58.78575 361.02698 L31.74169 344.12798" />
    <path d="M31.74169 344.12798 L48.64069 317.08393" />
    <path d="M49.32504 352.37154 L75.76285 370.20407" />
    <path d="M75.76285 370.20407 L57.93032 396.64188" />
    <path d="M57.93032 396.64188 L31.49251 378.80935" />
    <path d="M31.49251 378.80935 L49.32504 352.37154" />
    <path d="M50.01404 387.68312 L75.8134 406.42745" />
    <path d="M75.8134 406.42745 L57.06907 432.22681" />
    <path d="M57.06907 432.22681 L31.26971 413.48248" />
    <path d="M31.26971 413.48248 L50.01404 387.68312" />
    <path d="M50.70686 423.01882 L75.83634 442.65212" />
    <path d="M75.83634 442.65212 L56.20304 467.78159" />
    <path d="M56.20304 467.78159 L31.07356 448.1483" />
    <path d="M31.07356 448.1483 L50.70686 423.01882" />
    <path d="M51.40266 458.37876 L75.83164 478.8771" />
    <path d="M75.83164 478.8771 L55.33329 503.30608" />
    <path d="M55.33329 503.30608 L30.90431 482.80773" />
    <path d="M30.90431 482.80773 L51.40266 458.37876" />
    <path d="M79.4829 35.2903 L109.81187 45.14478" />
    <path d="M109.81187 45.14478 L99.95739 75.47374" />
    <path d="M99.95739 75.47374 L69.62843 65.61926" />
    <path d="M69.62843 65.61926 L79.4829 35.2903" />
    <path d="M80.11173 70.41667 L110.0783 81.32361" />
    <path d="M110.0783 81.32361 L99.17136 111.29019" />
    <path d="M99.17136 111.29019 L69.20479 100.38325" />
    <path d="M69.20479 100.38325 L80.11173 70.41667" />
    <path d="M80.75087 105.56517 L110.31855 117.51129" />
    <path d="M110.31855 117.51129 L98.37243 147.07896" />
    <path d="M98.37243 147.07896 L68.80476 135.13285" />
    <path d="M68.80476 135.13285 L80.75087 105.56517" />
    <path d="M81.39956 140.73616 L110.53231 153.70689" />
    <path d="M110.53231 153.70689 L97.56157 182.83964" />
    <path d="M97.56157 182.83964 L68.42882 169.86891" />
    <path d="M68.42882 169.86891 L81.39956 140.73616" />
    <path d="M82.057 175.92994 L110.71933 189.90949" />
    <path d="M110.71933 189.90949 L96.73978 218.57182" />
    <path d="M96.73978 218.57182 L68.07745 204.59227" />
    <path d="M68.07745 204.59227 L82.057 175.92994" />
    <path d="M82.72239 211.14682 L110.87938 226.11815" />
    <path d="M110.87938 226.11815 L95.90804 254.27514" />
    <path d="M95.90804 254.27514 L67.75105 239.30381" />
    <path d="M67.75105 239.30381 L82.72239 211.14682" />
    <path d="M83.39492 246.38704 L111.01226 262.33192" />
    <path d="M111.01226 262.33192 L95.06738 289.94927" />
    <path d="M95.06738 289.94927 L67.45003 274.00439" />
    <path d="M67.45003 274.00439 L83.39492 246.38704" />
    <path d="M84.07376 281.65086 L111.11782 298.54986" />
    <path d="M111.11782 298.54986 L94.21882 325.59391" />
    <path d="M94.21882 325.59391 L67.17476 308.69491" />
    <path d="M67.17476 308.69491 L84.07376 281.65086" />
    <path d="M84.75811 316.93847 L111.19592 334.771" />
    <path d="M111.19592 334.771 L93.36339 361.20881" />
    <path d="M93.36339 361.20881 L66.92558 343.37628" />
    <path d="M66.92558 343.37628 L84.75811 316.93847" />
    <path d="M85.44711 352.25005 L111.24647 370.99438" />
    <path d="M111.24647 370.99438 L92.50214 396.79374" />
    <path d="M92.50214 396.79374 L66.70278 378.04941" />
    <path d="M66.70278 378.04941 L85.44711 352.25005" />
    <path d="M86.13993 387.58575 L111.26941 407.21905" />
    <path d="M111.26941 407.21905 L91.63611 432.34852" />
    <path d="M91.63611 432.34852 L66.50663 412.71522" />
    <path d="M66.50663 412.71522 L86.13993 387.58575" />
    <path d="M86.83573 422.94569 L111.26471 443.44403" />
    <path d="M111.26471 443.44403 L90.76636 467.87301" />
    <path d="M90.76636 467.87301 L66.33738 447.37466" />
    <path d="M66.33738 447.37466 L86.83573 422.94569" />
    <path d="M87.53366 458.32995 L111.23237 479.66837" />
    <path d="M111.23237 479.66837 L89.89395 503.36708" />
    <path d="M89.89395 503.36708 L66.19524 482.02867" />
    <path d="M66.19524 482.02867 L87.53366 458.32995" />
    <path d="M115.5448 34.9836 L145.51138 45.89054" />
    <path d="M145.51138 45.89054 L134.60443 75.85712" />
    <path d="M134.60443 75.85712 L104.63786 64.95017" />
    <path d="M104.63786 64.95017 L115.5448 34.9836" />
    <path d="M116.18394 70.1321 L145.75162 82.07822" />
    <path d="M145.75162 82.07822 L133.8055 111.64589" />
    <path d="M133.8055 111.64589 L104.23783 99.69978" />
    <path d="M104.23783 99.69978 L116.18394 70.1321" />
    <path d="M116.83263 105.30309 L145.96538 118.27382" />
    <path d="M145.96538 118.27382 L132.99464 147.40657" />
    <path d="M132.99464 147.40657 L103.8619 134.43584" />
    <path d="M103.8619 134.43584 L116.83263 105.30309" />
    <path d="M117.49007 140.49687 L146.1524 154.47642" />
    <path d="M146.1524 154.47642 L132.17285 183.13875" />
    <path d="M132.17285 183.13875 L103.51052 169.1592" />
    <path d="M103.51052 169.1592 L117.49007 140.49687" />
    <path d="M118.15546 175.71374 L146.31245 190.68508" />
    <path d="M146.31245 190.68508 L131.34111 218.84207" />
    <path d="M131.34111 218.84207 L103.18412 203.87073" />
    <path d="M103.18412 203.87073 L118.15546 175.71374" />
    <path d="M118.82799 210.95397 L146.44533 226.89885" />
    <path d="M146.44533 226.89885 L130.50045 254.5162" />
    <path d="M130.50045 254.5162 L102.8831 238.57132" />
    <path d="M102.8831 238.57132 L118.82799 210.95397" />
    <path d="M119.50684 246.21779 L146.55089 263.11679" />
    <path d="M146.55089 263.11679 L129.65189 290.16084" />
    <path d="M129.65189 290.16084 L102.60784 273.26184" />
    <path d="M102.60784 273.26184 L119.50684 246.21779" />
    <path d="M120.19118 281.50539 L146.62899 299.33792" />
    <path d="M146.62899 299.33792 L128.79646 325.77574" />
    <path d="M128.79646 325.77574 L102.35865 307.94321" />
    <path d="M102.35865 307.94321 L120.19118 281.50539" />
    <path d="M120.88018 316.81698 L146.67954 335.56131" />
    <path d="M146.67954 335.56131 L127.93521 361.36067" />
    <path d="M127.93521 361.36067 L102.13585 342.61634" />
    <path d="M102.13585 342.61634 L120.88018 316.81698" />
    <path d="M121.573 352.15268 L146.70248 371.78598" />
    <path d="M146.70248 371.78598 L127.06918 396.91545" />
    <path d="M127.06918 396.91545 L101.9397 377.28215" />
    <path d="M101.9397 377.28215 L121.573 352.15268" />
    <path d="M122.2688 387.51262 L146.69778 408.01096" />
    <path d="M146.69778 408.01096 L126.19943 432.43994" />
    <path d="M126.19943 432.43994 L101.77046 411.94159" />
    <path d="M101.77046 411.94159 L122.2688 387.51262" />
    <path d="M122.96673 422.89688 L146.66544 444.2353" />
    <path d="M146.66544 444.2353 L125.32702 467.93401" />
    <path d="M125.32702 467.93401 L101.62831 446.5956" />
    <path d="M101.62831 446.5956 L122.96673 422.89688" />
    <path d="M123.66593 458.30554 L146.60551 480.45803" />
    <path d="M146.60551 480.45803 L124.45302 503.39761" />
    <path d="M124.45302 503.39761 L101.51344 481.24511" />
    <path d="M101.51344 481.24511 L123.66593 458.30554" />
    <path d="M151.61702 34.69903 L181.18469 46.64515" />
    <path d="M181.18469 46.64515 L169.23857 76.21282" />
    <path d="M169.23857 76.21282 L139.6709 64.26671" />
    <path d="M139.6709 64.26671 L151.61702 34.69903" />
    <path d="M152.2657 69.87002 L181.39845 82.84075" />
    <path d="M181.39845 82.84075 L168.42772 111.9735" />
    <path d="M168.42772 111.9735 L139.29497 99.00277" />
    <path d="M139.29497 99.00277 L152.2657 69.87002" />
    <path d="M152.92314 105.0638 L181.58547 119.04335" />
    <path d="M181.58547 119.04335 L167.60592 147.70568" />
    <path d="M167.60592 147.70568 L138.94359 133.72613" />
    <path d="M138.94359 133.72613 L152.92314 105.0638" />
    <path d="M153.58853 140.28067 L181.74552 155.25201" />
    <path d="M181.74552 155.25201 L166.77418 183.409" />
    <path d="M166.77418 183.409 L138.61719 168.43766" />
    <path d="M138.61719 168.43766 L153.58853 140.28067" />
    <path d="M154.26106 175.5209 L181.8784 191.46578" />
    <path d="M181.8784 191.46578 L165.93352 219.08313" />
    <path d="M165.93352 219.08313 L138.31618 203.13825" />
    <path d="M138.31618 203.13825 L154.26106 175.5209" />
    <path d="M154.93991 210.78471 L181.98396 227.68371" />
    <path d="M181.98396 227.68371 L165.08496 254.72777" />
    <path d="M165.08496 254.72777 L138.04091 237.82877" />
    <path d="M138.04091 237.82877 L154.93991 210.78471" />
    <path d="M155.62425 246.07232 L182.06206 263.90485" />
    <path d="M182.06206 263.90485 L164.22953 290.34267" />
    <path d="M164.22953 290.34267 L137.79172 272.51014" />
    <path d="M137.79172 272.51014 L155.62425 246.07232" />
    <path d="M156.31325 281.38391 L182.11261 300.12824" />
    <path d="M182.11261 300.12824 L163.36828 325.9276" />
    <path d="M163.36828 325.9276 L137.56892 307.18327" />
    <path d="M137.56892 307.18327 L156.31325 281.38391" />
    <path d="M157.00607 316.71961 L182.13555 336.35291" />
    <path d="M182.13555 336.35291 L162.50225 361.48238" />
    <path d="M162.50225 361.48238 L137.37277 341.84908" />
    <path d="M137.37277 341.84908 L157.00607 316.71961" />
    <path d="M157.70187 352.07955 L182.13085 372.57789" />
    <path d="M182.13085 372.57789 L161.6325 397.00687" />
    <path d="M161.6325 397.00687 L137.20353 376.50852" />
    <path d="M137.20353 376.50852 L157.70187 352.07955" />
    <path d="M158.3998 387.46381 L182.09851 408.80223" />
    <path d="M182.09851 408.80223 L160.76009 432.50094" />
    <path d="M160.76009 432.50094 L137.06138 411.16253" />
    <path d="M137.06138 411.16253 L158.3998 387.46381" />
    <path d="M159.099 422.87247 L182.03858 445.02496" />
    <path d="M182.03858 445.02496 L159.88609 467.96453" />
    <path d="M159.88609 467.96453 L136.94651 445.81204" />
    <path d="M136.94651 445.81204 L159.099 422.87247" />
    <path d="M159.79863 458.30554 L181.95113 481.24511" />
    <path d="M181.95113 481.24511 L159.01155 503.39761" />
    <path d="M159.01155 503.39761 L136.85906 480.45803" />
    <path d="M136.85906 480.45803 L159.79863 458.30554" />
    <path d="M187.69877 34.43695 L216.83152 47.40768" />
    <path d="M216.83152 47.40768 L203.86079 76.54043" />
    <path d="M203.86079 76.54043 L174.72804 63.5697" />
    <path d="M174.72804 63.5697 L187.69877 34.43695" />
    <path d="M188.35621 69.63073 L217.01854 83.61028" />
    <path d="M217.01854 83.61028 L203.03899 112.27261" />
    <path d="M203.03899 112.27261 L174.37666 98.29306" />
    <path d="M174.37666 98.29306 L188.35621 69.63073" />
    <path d="M189.0216 104.8476 L217.17859 119.81894" />
    <path d="M217.17859 119.81894 L202.20725 147.97593" />
    <path d="M202.20725 147.97593 L174.05026 133.00459" />
    <path d="M174.05026 133.00459 L189.0216 104.8476" />
    <path d="M189.69413 140.08783 L217.31147 156.03271" />
    <path d="M217.31147 156.03271 L201.36659 183.65006" />
    <path d="M201.36659 183.65006 L173.74925 167.70517" />
    <path d="M173.74925 167.70517 L189.69413 140.08783" />
    <path d="M190.37298 175.35164 L217.41703 192.25064" />
    <path d="M217.41703 192.25064 L200.51803 219.2947" />
    <path d="M200.51803 219.2947 L173.47398 202.3957" />
    <path d="M173.47398 202.3957 L190.37298 175.35164" />
    <path d="M191.05732 210.63925 L217.49513 228.47178" />
    <path d="M217.49513 228.47178 L199.6626 254.9096" />
    <path d="M199.6626 254.9096 L173.22479 237.07707" />
    <path d="M173.22479 237.07707 L191.05732 210.63925" />
    <path d="M191.74632 245.95083 L217.54568 264.69517" />
    <path d="M217.54568 264.69517 L198.80135 290.49453" />
    <path d="M198.80135 290.49453 L173.00199 271.7502" />
    <path d="M173.00199 271.7502 L191.74632 245.95083" />
    <path d="M192.43914 281.28654 L217.56862 300.91983" />
    <path d="M217.56862 300.91983 L197.93532 326.04931" />
    <path d="M197.93532 326.04931 L172.80585 306.41601" />
    <path d="M172.80585 306.41601 L192.43914 281.28654" />
    <path d="M193.13494 316.64647 L217.56392 337.14482" />
    <path d="M217.56392 337.14482 L197.06557 361.5738" />
    <path d="M197.06557 361.5738 L172.6366 341.07545" />
    <path d="M172.6366 341.07545 L193.13494 316.64647" />
    <path d="M193.83287 352.03074 L217.53158 373.36916" />
    <path d="M217.53158 373.36916 L196.19317 397.06787" />
    <path d="M196.19317 397.06787 L172.49445 375.72945" />
    <path d="M172.49445 375.72945 L193.83287 352.03074" />
    <path d="M194.53207 387.4394 L217.47165 409.59189" />
    <path d="M217.47165 409.59189 L195.31916 432.53146" />
    <path d="M195.31916 432.53146 L172.37958 410.37897" />
    <path d="M172.37958 410.37897 L194.53207 387.4394" />
    <path d="M195.23171 422.87247 L217.3842 445.81204" />
    <path d="M217.3842 445.81204 L194.44462 467.96453" />
    <path d="M194.44462 467.96453 L172.29213 445.02496" />
    <path d="M172.29213 445.02496 L195.23171 422.87247" />
    <path d="M195.93091 458.32995 L217.26933 482.02867" />
    <path d="M217.26933 482.02867 L193.57061 503.36708" />
    <path d="M193.57061 503.36708 L172.2322 479.66837" />
    <path d="M172.2322 479.66837 L195.93091 458.32995" />
    <path d="M223.78928 34.19766 L252.45161 48.17721" />
    <path d="M252.45161 48.17721 L238.47206 76.83954" />
    <path d="M238.47206 76.83954 L209.80973 62.85999" />
    <path d="M209.80973 62.85999 L223.78928 34.19766" />
    <path d="M224.45467 69.41453 L252.61166 84.38587" />
    <path d="M252.61166 84.38587 L237.64032 112.54286" />
    <path d="M237.64032 112.54286 L209.48333 97.57152" />
    <path d="M209.48333 97.57152 L224.45467 69.41453" />
    <path d="M225.1272 104.65476 L252.74454 120.59964" />
    <path d="M252.74454 120.59964 L236.79966 148.21699" />
    <path d="M236.79966 148.21699 L209.18232 132.2721" />
    <path d="M209.18232 132.2721 L225.1272 104.65476" />
    <path d="M225.80605 139.91857 L252.8501 156.81757" />
    <path d="M252.8501 156.81757 L235.9511 183.86163" />
    <path d="M235.9511 183.86163 L208.90705 166.96263" />
    <path d="M208.90705 166.96263 L225.80605 139.91857" />
    <path d="M226.49039 175.20618 L252.9282 193.03871" />
    <path d="M252.9282 193.03871 L235.09567 219.47652" />
    <path d="M235.09567 219.47652 L208.65786 201.64399" />
    <path d="M208.65786 201.64399 L226.49039 175.20618" />
    <path d="M227.17939 210.51776 L252.97875 229.2621" />
    <path d="M252.97875 229.2621 L234.23442 255.06146" />
    <path d="M234.23442 255.06146 L208.43506 236.31712" />
    <path d="M208.43506 236.31712 L227.17939 210.51776" />
    <path d="M227.87221 245.85346 L253.00169 265.48676" />
    <path d="M253.00169 265.48676 L233.36839 290.61624" />
    <path d="M233.36839 290.61624 L208.23892 270.98294" />
    <path d="M208.23892 270.98294 L227.87221 245.85346" />
    <path d="M228.56801 281.2134 L252.99699 301.71175" />
    <path d="M252.99699 301.71175 L232.49864 326.14073" />
    <path d="M232.49864 326.14073 L208.06967 305.64238" />
    <path d="M208.06967 305.64238 L228.56801 281.2134" />
    <path d="M229.26594 316.59767 L252.96465 337.93609" />
    <path d="M252.96465 337.93609 L231.62624 361.6348" />
    <path d="M231.62624 361.6348 L207.92752 340.29638" />
    <path d="M207.92752 340.29638 L229.26594 316.59767" />
    <path d="M229.96515 352.00633 L252.90472 374.15882" />
    <path d="M252.90472 374.15882 L230.75223 397.09839" />
    <path d="M230.75223 397.09839 L207.81265 374.9459" />
    <path d="M207.81265 374.9459 L229.96515 352.00633" />
    <path d="M230.66478 387.4394 L252.81727 410.37897" />
    <path d="M252.81727 410.37897 L229.87769 432.53146" />
    <path d="M229.87769 432.53146 L207.7252 409.59189" />
    <path d="M207.7252 409.59189 L230.66478 387.4394" />
    <path d="M231.36398 422.89688 L252.7024 446.5956" />
    <path d="M252.7024 446.5956 L229.00369 467.93401" />
    <path d="M229.00369 467.93401 L207.66527 444.2353" />
    <path d="M207.66527 444.2353 L231.36398 422.89688" />
    <path d="M232.06191 458.37876 L252.56025 482.80773" />
    <path d="M252.56025 482.80773 L228.13128 503.30608" />
    <path d="M228.13128 503.30608 L207.63293 478.8771" />
    <path d="M207.63293 478.8771 L232.06191 458.37876" />
    <path d="M259.88774 33.98146 L288.04473 48.9528" />
    <path d="M288.04473 48.9528 L273.07339 77.10979" />
    <path d="M273.07339 77.10979 L244.9164 62.13845" />
    <path d="M244.9164 62.13845 L259.88774 33.98146" />
    <path d="M260.56027 69.22169 L288.17762 85.16657" />
    <path d="M288.17762 85.16657 L272.23273 112.78391" />
    <path d="M272.23273 112.78391 L244.61539 96.83903" />
    <path d="M244.61539 96.83903 L260.56027 69.22169" />
    <path d="M261.23912 104.4855 L288.28317 121.3845" />
    <path d="M288.28317 121.3845 L271.38417 148.42856" />
    <path d="M271.38417 148.42856 L244.34012 131.52956" />
    <path d="M244.34012 131.52956 L261.23912 104.4855" />
    <path d="M261.92346 139.77311 L288.36127 157.60564" />
    <path d="M288.36127 157.60564 L270.52874 184.04345" />
    <path d="M270.52874 184.04345 L244.09093 166.21092" />
    <path d="M244.09093 166.21092 L261.92346 139.77311" />
    <path d="M262.61246 175.08469 L288.41182 193.82903" />
    <path d="M288.41182 193.82903 L269.66749 219.62839" />
    <path d="M269.66749 219.62839 L243.86813 200.88405" />
    <path d="M243.86813 200.88405 L262.61246 175.08469" />
    <path d="M263.30529 210.42039 L288.43476 230.05369" />
    <path d="M288.43476 230.05369 L268.80146 255.18317" />
    <path d="M268.80146 255.18317 L243.67199 235.54987" />
    <path d="M243.67199 235.54987 L263.30529 210.42039" />
    <path d="M264.00108 245.78033 L288.43006 266.27868" />
    <path d="M288.43006 266.27868 L267.93172 290.70765" />
    <path d="M267.93172 290.70765 L243.50274 270.20931" />
    <path d="M243.50274 270.20931 L264.00108 245.78033" />
    <path d="M264.69901 281.1646 L288.39772 302.50302" />
    <path d="M288.39772 302.50302 L267.05931 326.20173" />
    <path d="M267.05931 326.20173 L243.36059 304.86331" />
    <path d="M243.36059 304.86331 L264.69901 281.1646" />
    <path d="M265.39822 316.57325 L288.33779 338.72575" />
    <path d="M288.33779 338.72575 L266.1853 361.66532" />
    <path d="M266.1853 361.66532 L243.24572 339.51283" />
    <path d="M243.24572 339.51283 L265.39822 316.57325" />
    <path d="M266.09785 352.00633 L288.25034 374.9459" />
    <path d="M288.25034 374.9459 L265.31076 397.09839" />
    <path d="M265.31076 397.09839 L243.15827 374.15882" />
    <path d="M243.15827 374.15882 L266.09785 352.00633" />
    <path d="M266.79705 387.46381 L288.13547 411.16253" />
    <path d="M288.13547 411.16253 L264.43676 432.50094" />
    <path d="M264.43676 432.50094 L243.09834 408.80223" />
    <path d="M243.09834 408.80223 L266.79705 387.46381" />
    <path d="M267.49498 422.94569 L287.99332 447.37466" />
    <path d="M287.99332 447.37466 L263.56435 467.87301" />
    <path d="M263.56435 467.87301 L243.066 443.44403" />
    <path d="M243.066 443.44403 L267.49498 422.94569" />
    <path d="M268.19078 458.45189 L287.82408 483.58137" />
    <path d="M287.82408 483.58137 L262.6946 503.21467" />
    <path d="M262.6946 503.21467 L243.0613 478.08519" />
    <path d="M243.0613 478.08519 L268.19078 458.45189" />
    <path d="M295.99334 33.78862 L323.61069 49.7335" />
    <path d="M323.61069 49.7335 L307.6658 77.35084" />
    <path d="M307.6658 77.35084 L280.04846 61.40596" />
    <path d="M280.04846 61.40596 L295.99334 33.78862" />
    <path d="M296.67219 69.05243 L323.71624 85.95143" />
    <path d="M323.71624 85.95143 L306.81724 112.99548" />
    <path d="M306.81724 112.99548 L279.77319 96.09648" />
    <path d="M279.77319 96.09648 L296.67219 69.05243" />
    <path d="M297.35653 104.34004 L323.79434 122.17257" />
    <path d="M323.79434 122.17257 L305.96182 148.61038" />
    <path d="M305.96182 148.61038 L279.524 130.77785" />
    <path d="M279.524 130.77785 L297.35653 104.34004" />
    <path d="M298.04553 139.65162 L323.8449 158.39595" />
    <path d="M323.8449 158.39595 L305.10056 184.19532" />
    <path d="M305.10056 184.19532 L279.3012 165.45098" />
    <path d="M279.3012 165.45098 L298.04553 139.65162" />
    <path d="M298.73836 174.98732 L323.86783 194.62062" />
    <path d="M323.86783 194.62062 L304.23453 219.7501" />
    <path d="M304.23453 219.7501 L279.10506 200.1168" />
    <path d="M279.10506 200.1168 L298.73836 174.98732" />
    <path d="M299.43416 210.34726 L323.86313 230.84561" />
    <path d="M323.86313 230.84561 L303.36479 255.27458" />
    <path d="M303.36479 255.27458 L278.93581 234.77624" />
    <path d="M278.93581 234.77624 L299.43416 210.34726" />
    <path d="M300.13208 245.73153 L323.83079 267.06995" />
    <path d="M323.83079 267.06995 L302.49238 290.76866" />
    <path d="M302.49238 290.76866 L278.79366 269.43024" />
    <path d="M278.79366 269.43024 L300.13208 245.73153" />
    <path d="M300.83129 281.14018 L323.77086 303.29267" />
    <path d="M323.77086 303.29267 L301.61837 326.23225" />
    <path d="M301.61837 326.23225 L278.6788 304.07976" />
    <path d="M278.6788 304.07976 L300.83129 281.14018" />
    <path d="M301.53092 316.57325 L323.68341 339.51283" />
    <path d="M323.68341 339.51283 L300.74383 361.66532" />
    <path d="M300.74383 361.66532 L278.59134 338.72575" />
    <path d="M278.59134 338.72575 L301.53092 316.57325" />
    <path d="M302.23012 352.03074 L323.56854 375.72945" />
    <path d="M323.56854 375.72945 L299.86983 397.06787" />
    <path d="M299.86983 397.06787 L278.53141 373.36916" />
    <path d="M278.53141 373.36916 L302.23012 352.03074" />
    <path d="M302.92805 387.51262 L323.42639 411.94159" />
    <path d="M323.42639 411.94159 L298.99742 432.43994" />
    <path d="M298.99742 432.43994 L278.49907 408.01096" />
    <path d="M278.49907 408.01096 L302.92805 387.51262" />
    <path d="M303.62385 423.01882 L323.25715 448.1483" />
    <path d="M323.25715 448.1483 L298.12767 467.78159" />
    <path d="M298.12767 467.78159 L278.49437 442.65212" />
    <path d="M278.49437 442.65212 L303.62385 423.01882" />
    <path d="M304.31667 458.54926 L323.061 484.34862" />
    <path d="M323.061 484.34862 L297.26164 503.09295" />
    <path d="M297.26164 503.09295 L278.51731 477.29359" />
    <path d="M278.51731 477.29359 L304.31667 458.54926" />
  </g>
</svg>