<?xml version="1.0" standalone="no"?>
<!DOCTYPE svg PUBLIC "-//W3C//DTD SVG 1.1//EN" 
    "http://www.w3.org/Graphics/SVG/1.1/DTD/svg11.dtd">
<svg width="2480px" height="3508px"
    xmlns="http://www.w3.org/2000/svg" version="1.1" viewBox="0 0 2480 3508">
  <g fill="none" stroke="black" stroke-width="1.06299px">
    <path d="M620 1134 L1860 1134" />
    <path d="M1860 1134 L1860 2374" />
    <path d="M1860 2374 L620 2374" />
    <path d="M620 2374 L620 1134" />
    <path d="M648.9952745442115 1112.861833888791 L1888.2399000478902 1156.1372097998922" />
    <path d="M1888.2399000478902 1156.1372097998922 L1844.964524136789 2395.381835303571" />
    <path d="M1844.964524136789 2395.381835303571 L605.7198986331102 2352.10645939247" />
    <path d="M605.7198986331102 2352.10645939247 L648.9952745442115 1112.861833888791" />
    <path d="M678.7105973090918 1092.7484650655865 L1915.6900196312738 1179.2464925083018" />
    <path d="M1915.6900196312738 1179.2464925083018 L1829.1919921885583 2416.225914830484" />
    <path d="M1829.1919921885583 2416.225914830484 L592.2125698663764 2329.7278873877685" />
    <path d="M592.2125698663764 2329.7278873877685 L678.7105973090918 1092.7484650655865" />
    <path d="M709.1097647511464 1073.6843985720707 L1942.3169150078052 1203.299693023961" />
    <path d="M1942.3169150078052 1203.299693023961 L1812.701620555915 2436.50684328062" />
    <path d="M1812.701620555915 2436.50684328062 L579.4944702992561 2306.8915488287294" />
    <path d="M579.4944702992561 2306.8915488287294 L709.1097647511464 1073.6843985720707" />
    <path d="M740.15574016748 1055.6928610366717 L1968.0881454070272 1228.2675062271528" />
    <path d="M1968.0881454070272 1228.2675062271528 L1795.5135002165462 2456.1999114667" />
    <path d="M1795.5135002165462 2456.1999114667 L567.5810949769989 2283.625266276219" />
    <path d="M567.5810949769989 2283.625266276219 L740.15574016748 1055.6928610366717" />
    <path d="M771.8106988193139 1038.7957723764926 L1992.972312554452 1254.1195126834864" />
    <path d="M1992.972312554452 1254.1195126834864 L1777.648572247458 2475.281126418624" />
    <path d="M1777.648572247458 2475.281126418624 L556.4869585123203 2259.9573861116305" />
    <path d="M556.4869585123203 2259.9573861116305 L771.8106988193139 1038.7957723764926" />
    <path d="M804.036074015603 1023.0137190912686 L2016.939098925522 1280.82421570529" />
    <path d="M2016.939098925522 1280.82421570529 L1759.1286023115008 2493.727240615209" />
    <path d="M1759.1286023115008 2493.727240615209 L546.2255774015815 2235.9167440011875" />
    <path d="M546.2255774015815 2235.9167440011875 L804.036074015603 1023.0137190912686" />
    <path d="M836.7926041006098 1008.3659291818889 L2039.9593046828454 1308.3490797254767" />
    <path d="M2039.9593046828454 1308.3490797254767 L1739.9761541392572 2511.5157803077127" />
    <path d="M1739.9761541392572 2511.5157803077127 L536.8094535570218 2211.5326297641245" />
    <path d="M536.8094535570218 2211.5326297641245 L836.7926041006098 1008.3659291818889" />
    <path d="M870.0403802881817 994.8702487240389 L2062.004883251697 1336.660569937118" />
    <path d="M2062.004883251697 1336.660569937118 L1720.214562038618 2528.6250729006333" />
    <path d="M1720.214562038618 2528.6250729006333 L528.2500590751027 2186.8347516875547" />
    <path d="M528.2500590751027 2186.8347516875547 L870.0403802881817 994.8702487240389" />
    <path d="M903.7388952844617 982.5431201255067 L2083.048975490452 1365.7241931504416" />
    <path d="M2083.048975490452 1365.7241931504416 L1699.867902465517 2545.034273356432" />
    <path d="M1699.867902465517 2545.034273356432 L520.5578222595269 2161.853200331497" />
    <path d="M520.5578222595269 2161.853200331497 L903.7388952844617 982.5431201255067" />
    <path d="M937.8470926397852 971.3995620936405 L2103.0659424143114 1395.5045398174698" />
    <path d="M2103.0659424143114 1395.5045398174698 L1678.9609646904823 2560.7233895919962" />
    <path d="M1678.9609646904823 2560.7233895919962 L513.7421149159559 2136.6184118681667" />
    <path d="M513.7421149159559 2136.6184118681667 L937.8470926397852 971.3995620936405" />
    <path d="M972.3234167696396 961.4531513373689 L2122.031396432456 1425.9653271731" />
    <path d="M2122.031396432456 1425.9653271731 L1657.519220596725 2575.6733068359163" />
    <path d="M1657.519220596725 2575.6733068359163 L507.8112409339087 2111.1611310001854" />
    <path d="M507.8112409339087 2111.1611310001854 L972.3234167696396 961.4531513373689" />
    <path d="M1007.1258635837437 952.7160060260712 L2139.9222310605687 1457.0694434400634" />
    <path d="M2139.9222310605687 1457.0694434400634 L1635.5687936465765 2589.865810916888" />
    <path d="M1635.5687936465765 2589.865810916888 L502.7724261697514 2085.512373502896" />
    <path d="M502.7724261697514 2085.512373502896 L1007.1258635837437 952.7160060260712" />
    <path d="M1042.2120316615599 945.198771025455 L2156.7166490725267 1488.778993043911" />
    <path d="M2156.7166490725267 1488.778993043911 L1613.136427054071 2603.2836104548783" />
    <path d="M1613.136427054071 2603.2836104548783 L498.6318096431039 2059.7033884364223" />
    <path d="M498.6318096431039 2059.7033884364223 L1042.2120316615599 945.198771025455" />
    <path d="M1077.5391739118957 938.9106049284276 L2172.394189056965 1521.0553427829323" />
    <path d="M2172.394189056965 1521.0553427829323 L1590.2494512024605 2615.9103579280018" />
    <path d="M1590.2494512024605 2615.9103579280018 L495.3944360573911 2033.765620073497" />
    <path d="M495.3944360573911 2033.765620073497 L1077.5391739118957 938.9106049284276" />
    <path d="M1113.064249653648 933.8591688967604 L2186.935750346352 1553.8591688967601" />
    <path d="M2186.935750346352 1553.8591688967601 L1566.935750346352 2627.730669589464" />
    <path d="M1566.935750346352 2627.730669589464 L493.06424965364795 2007.7306695894642" />
    <path d="M493.06424965364795 2007.7306695894642 L1113.064249653648 933.8591688967604" />
    <path d="M1148.743977054244 930.0506173271438 L2200.323616288212 1587.1505049763177" />
    <path d="M2200.323616288212 1587.1505049763177 L1543.2237286390382 2638.730144210286" />
    <path d="M1543.2237286390382 2638.730144210286 L491.64408940506985 1981.6302565611118" />
    <path d="M491.64408940506985 1981.6302565611118 L1148.743977054244 930.0506173271438" />
    <path d="M1184.5348858618868 927.4895903530028 L2212.541475830138 1620.888790656729" />
    <path d="M2212.541475830138 1620.888790656729 L1519.142275526412 2648.8953806249806" />
    <path d="M1519.142275526412 2648.8953806249806 L491.1356855581605 1955.4961803212545" />
    <path d="M491.1356855581605 1955.4961803212545 L1184.5348858618868 927.4895903530028" />
    <path d="M1220.3933703673606 926.1792081912097 L2223.5744433922955 1655.0329210338764" />
    <path d="M2223.5744433922955 1655.0329210338764 L1494.7207305496286 2658.2139940588113" />
    <path d="M1494.7207305496286 2658.2139940588113 L491.5396575246939 1929.3602812161446" />
    <path d="M491.5396575246939 1929.3602812161446 L1220.3933703673606 926.1792081912097" />
    <path d="M1256.2757425308723 926.1210673405799 L2233.409077003207 1689.5412967443963" />
    <path d="M2233.409077003207 1689.5412967443963 L1469.9888475993912 2666.6746312167315" />
    <path d="M1469.9888475993912 2666.6746312167315 L492.85551312705593 1903.2544018129151" />
    <path d="M492.85551312705593 1903.2544018129151 L1256.2757425308723 926.1210673405799" />
    <path d="M1292.1382852091956 927.3152386367838 L2242.0333946767287 1724.3718746480922" />
    <path d="M2242.0333946767287 1724.3718746480922 L1444.97675866542 2674.2669841156253" />
    <path d="M1444.97675866542 2674.2669841156253 L495.08164919788715 1877.2103481043164" />
    <path d="M495.08164919788715 1877.2103481043164 L1292.1382852091956 927.3152386367838" />
    <path d="M1327.9373054182793 929.7602671660447 L2249.4368890102483 1759.482219051029" />
    <path d="M2249.4368890102483 1759.482219051029 L1419.714937125264 2680.9818026429975" />
    <path d="M1419.714937125264 2680.9818026429975 L498.2153535332951 1851.2598507580135" />
    <path d="M498.2153535332951 1851.2598507580135 L1327.9373054182793 929.7602671660447" />
    <path d="M1363.629187566414 933.4531740377276 L2255.610539986342 1794.8295534068843" />
    <path d="M2255.610539986342 1794.8295534068843 L1394.234160617185 2686.810905826812" />
    <path d="M1394.234160617185 2686.810905826812 L502.2528081972574 1825.4345264576552" />
    <path d="M502.2528081972574 1825.4345264576552 L1363.629187566414 933.4531740377276" />
    <path d="M1399.1704465931155 938.3894600136584 L2260.546825962272 1830.3708124335858" />
    <path d="M2260.546825962272 1830.3708124335858 L1368.565473542345 2691.7471918027427" />
    <path d="M1368.565473542345 2691.7471918027427 L507.1890941731881 1799.765839382815" />
    <path d="M507.1890941731881 1799.765839382815 L1399.1704465931155 938.3894600136584" />
    <path d="M1434.517780948971 944.5631109897517 L2264.2397328339553 1866.0626945817207" />
    <path d="M2264.2397328339553 1866.0626945817207 L1342.7401492419865 2695.784646466705" />
    <path d="M1342.7401492419865 2695.784646466705 L513.0181973570022 1774.285062874736" />
    <path d="M513.0181973570022 1774.285062874736 L1434.517780948971 944.5631109897517" />
    <path d="M1469.6281253519076 951.9666053232713 L2266.6847613632162 1901.8617147908042" />
    <path d="M2266.6847613632162 1901.8617147908042 L1316.7896518956836 2698.918350802113" />
    <path d="M1316.7896518956836 2698.918350802113 L519.7330158843748 1749.0232413345802" />
    <path d="M519.7330158843748 1749.0232413345802 L1469.6281253519076 951.9666053232713" />
    <path d="M1504.4587032556037 960.5909229967926 L2267.87893265942 1937.7242574691277" />
    <path d="M2267.87893265942 1937.7242574691277 L1290.7455981870849 2701.144486872944" />
    <path d="M1290.7455981870849 2701.144486872944 L527.3253687832687 1724.0111524006088" />
    <path d="M527.3253687832687 1724.0111524006088 L1504.4587032556037 960.5909229967926" />
    <path d="M1538.9670789661234 970.4255566077046 L2267.82079180879 1973.6066296326394" />
    <path d="M2267.82079180879 1973.6066296326394 L1264.6397187838556 2702.460342475306" />
    <path d="M1264.6397187838556 2702.460342475306 L535.7860059411887 1699.2792694503714" />
    <path d="M535.7860059411887 1699.2792694503714 L1538.9670789661234 970.4255566077046" />
    <path d="M1573.111209343271 981.4585241698618 L2266.5104096469972 2009.4651141381132" />
    <path d="M2266.5104096469972 2009.4651141381132 L1238.5038196787455 2702.8643144418393" />
    <path d="M1238.5038196787455 2702.8643144418393 L545.1046193750194 1674.857724473588" />
    <path d="M545.1046193750194 1674.857724473588 L1573.111209343271 981.4585241698618" />
    <path d="M1606.8494950236823 993.6763837117878 L2263.9493826728562 2045.256022945756" />
    <path d="M2263.9493826728562 2045.256022945756 L1212.3697434388882 2702.3559105949303" />
    <path d="M1212.3697434388882 2702.3559105949303 L555.269855789714 1650.7762713609618" />
    <path d="M555.269855789714 1650.7762713609618 L1606.8494950236823 993.6763837117878" />
    <path d="M1640.1408311032396 1007.064249653648 L2260.1408311032396 2080.9357503463516" />
    <path d="M2260.1408311032396 2080.9357503463516 L1186.269330410536 2700.935750346352" />
    <path d="M1186.269330410536 2700.935750346352 L566.2693304105358 1627.0642496536482" />
    <path d="M566.2693304105358 1627.0642496536482 L1640.1408311032396 1007.064249653648" />
    <path d="M1672.9446572170677 1021.6058109430348 L2255.0893950715727 2116.460826088104" />
    <path d="M2255.0893950715727 2116.460826088104 L1160.2343799265032 2698.6055639426086" />
    <path d="M1160.2343799265032 2698.6055639426086 L578.0896420719984 1603.7505487975395" />
    <path d="M578.0896420719984 1603.7505487975395 L1672.9446572170677 1021.6058109430348" />
    <path d="M1705.221006956089 1037.283350927473 L2248.8012289745448 2151.78796833844" />
    <path d="M2248.8012289745448 2151.78796833844 L1134.2966115635777 2695.368190356896" />
    <path d="M1134.2966115635777 2695.368190356896 L590.7163895451218 1580.863572945929" />
    <path d="M590.7163895451218 1580.863572945929 L1705.221006956089 1037.283350927473" />
    <path d="M1736.9305565599366 1054.0777689394313 L2241.283993973929 2186.8741364162565" />
    <path d="M2241.283993973929 2186.8741364162565 L1108.4876264971037 2691.2275738302487" />
    <path d="M1108.4876264971037 2691.2275738302487 L604.1341890831116 1558.4312063534235" />
    <path d="M604.1341890831116 1558.4312063534235 L1736.9305565599366 1054.0777689394313" />
    <path d="M1768.0346728269 1071.968603567544 L2232.546848662631 2221.6765832303604" />
    <path d="M2232.546848662631 2221.6765832303604 L1082.8388689998146 2686.1887590660913" />
    <path d="M1082.8388689998146 2686.1887590660913 L618.3266931640838 1536.480779403275" />
    <path d="M618.3266931640838 1536.480779403275 L1768.0346728269 1071.968603567544" />
    <path d="M1798.4954601825302 1090.9340575856884 L2222.6004379063597 2256.1529073602146" />
    <path d="M2222.6004379063597 2256.1529073602146 L1057.3815881318333 2680.257885084044" />
    <path d="M1057.3815881318333 2680.257885084044 L633.2766104080039 1515.0390353095177" />
    <path d="M633.2766104080039 1515.0390353095177 L1798.4954601825302 1090.9340575856884" />
    <path d="M1828.2758068495584 1110.951024509548 L2211.456879874493 2290.2611047155383" />
    <path d="M2211.456879874493 2290.2611047155383 L1032.146799668503 2673.442177740473" />
    <path d="M1032.146799668503 2673.442177740473 L648.9657266435681 1494.132097534483" />
    <path d="M648.9657266435681 1494.132097534483 L1828.2758068495584 1110.951024509548" />
    <path d="M1857.339430062882 1131.995116748303 L2199.129751275961 2323.9596197118185" />
    <path d="M2199.129751275961 2323.9596197118185 L1007.1652483124456 2665.749940924897" />
    <path d="M1007.1652483124456 2665.749940924897 L665.3749270993666 1473.785437961382" />
    <path d="M665.3749270993666 1473.785437961382 L1857.339430062882 1131.995116748303" />
    <path d="M1885.6509202745233 1154.0406953171546 L2185.634070818111 2357.20739589939" />
    <path d="M2185.634070818111 2357.20739589939 L982.4673702358755 2657.1905464429783" />
    <path d="M982.4673702358755 2657.1905464429783 L682.4842196922875 1454.0238458607428" />
    <path d="M682.4842196922875 1454.0238458607428 L1885.6509202745233 1154.0406953171546" />
    <path d="M1913.1757842947097 1177.060901074478 L2170.9862809087317 2389.9639259843966" />
    <path d="M2170.9862809087317 2389.9639259843966 L958.0832559988125 2647.7744225984184" />
    <path d="M958.0832559988125 2647.7744225984184 L700.2727593847908 1434.8713976884997" />
    <path d="M700.2727593847908 1434.8713976884997 L1913.1757842947097 1177.060901074478" />
    <path d="M1939.8804873165136 1201.027687445548 L2155.2042276235074 2422.189301180686" />
    <path d="M2155.2042276235074 2422.189301180686 L934.0426138883695 2637.51304148768" />
    <path d="M934.0426138883695 2637.51304148768 L718.7188735813758 1416.351427752542" />
    <path d="M718.7188735813758 1416.351427752542 L1939.8804873165136 1201.027687445548" />
    <path d="M1965.7324937728472 1225.9118545929728 L2138.3071389633283 2453.84425983252" />
    <path d="M2138.3071389633283 2453.84425983252 L910.374733723781 2626.418905023001" />
    <path d="M910.374733723781 2626.418905023001 L737.8000885332999 1398.4864997834538" />
    <path d="M737.8000885332999 1398.4864997834538 L1965.7324937728472 1225.9118545929728" />
    <path d="M1990.700306976039 1251.6830849921948 L2120.3156014279293 2484.8902352488535" />
    <path d="M2120.3156014279293 2484.8902352488535 L887.1084511712704 2614.505529700744" />
    <path d="M887.1084511712704 2614.505529700744 L757.4931567193801 1381.298379444085" />
    <path d="M757.4931567193801 1381.298379444085 L1990.700306976039 1251.6830849921948" />
    <path d="M2014.7535074916982 1278.3099803687264 L2101.2515349344135 2515.2894026909084" />
    <path d="M2101.2515349344135 2515.2894026909084 L864.2721126122315 2601.7874301336237" />
    <path d="M864.2721126122315 2601.7874301336237 L777.7740851695162 1364.8080078114417" />
    <path d="M777.7740851695162 1364.8080078114417 L2014.7535074916982 1278.3099803687264" />
    <path d="M2037.8627902001078 1305.7600999521098 L2081.138166111209 2545.0047254557885" />
    <path d="M2081.138166111209 2545.0047254557885 L841.8935406075304 2588.2801013668895" />
    <path d="M841.8935406075304 2588.2801013668895 L798.6181646964292 1349.035475863211" />
    <path d="M798.6181646964292 1349.035475863211 L2037.8627902001078 1305.7600999521098" />
  </g>
</svg>