<?xml version="1.0" standalone="no"?>
<!DOCTYPE svg PUBLIC "-//W3C//DTD SVG 1.1//EN" 
    "http://www.w3.org/Graphics/SVG/1.1/DTD/svg11.dtd">
<svg width="21cm" height="29.7cm"
    xmlns="http://www.w3.org/2000/svg" version="1.1" viewBox="0 0 744.09449 1052.3622">
  <g fill="none" stroke="black" stroke-width="0.03cm">
    <path d="M0 0 L35.43307 35.43307" />
    <path d="M368.52718 527.44518 L368.38269 526.93747 L368.30929 525.93875 L368.49605 524.99448 L368.91028 524.14329 L369.51929 523.42382 L370.29037 522.87468 L371.19082 522.53452 L372.18795 522.44195 L372.71255 522.50059 L372.71255 522.50059 L373.42575 522.70355 L374.62427 523.46998 L375.44118 524.6087 L375.78315 525.98961 L375.74687 526.73024" />
    <path d="M373.62338 541.05848 L373.17068 541.09949 L372.2628 541.14018 L371.80825 541.13982" />
    <path d="M349.87152 512.26394 L350.91736 510.71624 L353.24111 507.93642 L355.83745 505.57601 L358.66211 503.63338 L361.67083 502.1069 L364.81937 500.99493 L368.06348 500.29583 L371.35889 500.00799 L374.66135 500.12977 L377.92661 500.65953 L381.11042 501.59565 L384.16851 502.93649 L387.05664 504.68042 L389.73056 506.82581 L392.146 509.37102 L394.25872 512.31443 L395.18772 513.93495 L395.18772 513.93495 L395.98295 515.56553 L397.20592 518.87164 L397.95635 522.20822 L398.25519 525.53993 L398.12337 528.83141 L397.58183 532.04732 L396.65151 535.15232 L395.35335 538.11104 L393.70828 540.88815 L391.73726 543.44829 L389.46121 545.75612 L386.90108 547.77628 L384.0778 549.47344 L381.01232 550.81224 L377.72557 551.75734 L374.23849 552.27338 L372.42637 552.35946" />
    <path d="M407.42131 514.03396 L407.95761 515.72532 L408.78524 519.16699 L409.28342 522.66758 L409.44881 526.2035 L409.40566 527.97733" />
    <path d="M420.16989 519.23024 L420.43286 521.39203 L420.66727 525.7379 L420.63835 527.91543" />
    <path d="M389.13806 468.83103 L390.82075 469.35876 L394.1015 470.54441 L397.267 471.89778 L400.31431 473.41188 L403.24048 475.0797 L406.0426 476.89423 L408.7177 478.84848 L411.26288 480.93544 L413.67517 483.14811 L415.95166 485.47948 L419.10532 489.18377 L422.80745 494.47293 L425.91348 500.11082 L428.39992 506.04141 L430.24328 512.20869 L431.42006 518.55661 L431.85108 523.40239 L431.91788 526.66018 L431.80483 529.93161 L431.50898 533.20969 L431.02741 536.4874 L430.35716 539.75774 L429.49532 543.01371 L428.43893 546.24831 L427.18507 549.45453 L425.7308 552.62536 L424.92759 554.19532" />
    <path d="M320.68182 477.07365 L322.4745 475.26092 L326.17836 471.87867 L330.02807 468.81775 L334.00904 466.07459 L338.10666 463.64562 L342.30634 461.5273 L346.59349 459.71605 L350.9535 458.20831 L355.37177 457.00053 L359.83373 456.08914 L364.32475 455.47057 L368.83026 455.14127 L373.33565 455.09768 L377.82632 455.33623 L382.28768 455.85336 L386.70514 456.64552 L391.06409 457.70913 L395.34993 459.04064 L399.54808 460.63648 L403.64394 462.4931 L407.6229 464.60693 L411.47038 466.97441 L415.17177 469.59197 L418.71247 472.45607 L422.0779 475.56313 L425.25346 478.90959 L428.22454 482.49189 L430.97655 486.30648 L433.4949 490.34978 L435.76498 494.61824 L437.77221 499.10829 L439.50198 503.81638 L440.25826 506.25107 L440.25826 506.25107 L440.7568 508.04227 L441.60816 511.62937 L442.2679 515.21797 L442.73923 518.80237 L443.02535 522.37685 L443.12945 525.93569 L442.95136 531.23212 L442.10675 538.18597 L440.59176 544.9744 L438.43201 551.55169 L435.6531 557.87212 L432.28068 563.88999 L428.34035 569.55955 L423.85773 574.83511 L418.85846 579.67093 L413.36814 584.02131 L408.94357 586.93801 L405.85375 588.70696 L402.65559 590.32883 L399.35228 591.79791 L395.94702 593.10848 L392.44302 594.25483 L390.655 594.76463" />
    <path d="M453.76459 516.54551 L453.99474 518.75298 L454.27594 523.17931 L454.31825 527.61274 L454.1216 532.04363 L453.93362 534.25509" />
    <path d="M283.17125 555.23352 L282.18302 552.02785 L280.5623 545.63022 L279.40487 539.26314 L278.69755 532.94131 L278.42713 526.67946 L278.5804 520.49231 L279.14416 514.39456 L280.10522 508.40093 L281.45036 502.52613 L283.16639 496.78489 L285.2401 491.19192 L287.65829 485.76193 L290.40776 480.50964 L293.47531 475.44976 L296.84772 470.59701 L300.51182 465.9661 L304.45437 461.57175 L308.6622 457.42868 L313.12209 453.5516 L317.82084 449.95522 L322.74525 446.65426 L327.88212 443.66344 L333.21825 440.99746 L338.74042 438.67105 L344.43545 436.69893 L350.29012 435.0958 L356.29124 433.87638 L362.4256 433.05539 L368.68 432.64754 L375.04124 432.66755 L381.49611 433.13013 L388.03142 434.05 L391.32511 434.68602 L391.32511 434.68602 L394.12466 435.31932 L399.59607 436.81565 L404.89246 438.60834 L410.00812 440.68546 L414.93734 443.03511 L419.67441 445.64535 L424.21361 448.50427 L428.54925 451.59994 L432.6756 454.92044 L436.58696 458.45385 L440.27762 462.18825 L443.74186 466.11171 L446.97397 470.21232 L449.96826 474.47816 L452.71899 478.89729 L455.22047 483.45781 L457.46699 488.14778 L459.45282 492.95529 L461.17227 497.86842 L462.61962 502.87524 L463.78916 507.96383 L464.67519 513.12227 L465.27198 518.33864 L465.57383 523.60102 L465.57504 528.89748 L465.26988 534.2161 L464.65265 539.54497 L463.71764 544.87216 L462.45913 550.18574 L460.87142 555.47381 L458.9488 560.72443 L456.68556 565.92568 L455.42442 568.50407" />
    <path d="M419.144 432.64449 L421.35317 433.78945 L425.65808 436.21582 L429.80947 438.81841 L433.80462 441.59031 L437.64081 444.52464 L441.31531 447.61449 L444.8254 450.85297 L448.16836 454.23318 L451.34145 457.74824 L454.34197 461.39123 L457.16718 465.15527 L459.81437 469.03346 L462.2808 473.01891 L464.56376 477.10472 L466.66052 481.28399 L468.56837 485.54983 L470.28456 489.89535 L471.80639 494.31364 L473.13113 498.79781 L474.25606 503.34097 L475.17844 507.93621 L475.89557 512.57666 L476.40471 517.2554 L476.70315 521.96554 L476.78815 526.70019 L476.657 531.45245 L476.30697 536.21543 L475.73534 540.98223 L474.93938 545.74595 L473.91638 550.4997 L472.66361 555.23658 L471.17834 559.94971 L470.34767 562.2952" />
    <path d="M314.5786 626.8815 L311.39411 624.9989 L305.28475 620.99675 L299.52315 616.69369 L294.1112 612.10778 L289.05078 607.25705 L284.3438 602.15953 L279.99213 596.83327 L275.99769 591.2963 L272.36234 585.56666 L269.088 579.66239 L266.17654 573.60153 L263.62986 567.40211 L261.44986 561.08218 L259.63842 554.65976 L258.19743 548.15291 L257.1288 541.57966 L256.4344 534.95804 L256.11613 528.30609 L256.17588 521.64186 L256.61555 514.98338 L257.43702 508.34868 L258.64218 501.75581 L260.23294 495.22281 L262.21118 488.76771 L264.57878 482.40855 L267.33765 476.16337 L270.48968 470.05021 L274.03675 464.0871 L277.98076 458.29208 L282.3236 452.6832 L287.06716 447.27849 L292.21334 442.09598 L294.938 439.59369" />
    <path d="M428.32827 412.14833 L432.38457 414.23634 L440.14554 418.74514 L447.43619 423.6753 L454.25478 428.99999 L460.59955 434.69239 L466.46876 440.72565 L471.86065 447.07295 L476.77348 453.70746 L481.20549 460.60235 L485.15494 467.73079 L488.62008 475.06595 L491.59915 482.581 L494.09041 490.24912 L496.09211 498.04346 L497.6025 505.93721 L498.61982 513.90352 L499.14233 521.91558 L499.16828 529.94655 L498.69592 537.9696 L497.7235 545.9579 L496.24926 553.88463 L494.27147 561.72295 L491.78837 569.44603 L488.7982 577.02704 L485.29923 584.43915 L481.2897 591.65554 L476.76786 598.64937 L471.73196 605.39382 L466.18025 611.86205 L460.11098 618.02723 L453.5224 623.86254 L446.41277 629.34113 L442.66201 631.93829 L442.66201 631.93829 L440.23363 633.52003 L435.27254 636.51509 L432.74177 637.92725" />
    <path d="M508.47766 549.36252 L507.56338 554.24232 L505.27831 563.73887 L502.40743 572.87619 L498.97818 581.64412 L495.01799 590.03246 L490.55429 598.03104 L485.6145 605.62969 L480.22607 612.81822 L474.41643 619.58645 L468.213 625.92422 L461.64322 631.82134 L454.73452 637.26762 L447.51433 642.25291 L440.01009 646.767 L432.24922 650.79974 L424.25916 654.34093 L416.06734 657.38041 L407.70119 659.90798 L399.18814 661.91348 L390.55563 663.38673 L381.83108 664.31755 L373.04193 664.69575 L364.21561 664.51117 L355.37955 663.75362 L346.56119 662.41293 L337.78795 660.47891 L329.08727 657.94139 L320.48658 654.79019 L312.0133 651.01513 L303.69488 646.60604 L295.55875 641.55273 L287.63233 635.84503 L283.75634 632.7426 L283.75634 632.7426 L279.98745 629.51091 L272.90573 622.7837 L266.42801 615.72879 L260.5494 608.37501 L255.26498 600.75121 L250.56985 592.88624 L246.45912 584.80894 L242.92789 576.54816 L239.97124 568.13274 L237.58429 559.59153 L235.76213 550.95338 L234.49986 542.24712 L233.79257 533.50162 L233.63537 524.7457 L234.02335 516.00823 L234.95162 507.31803 L236.41527 498.70397 L238.4094 490.19488 L240.92911 481.81962 L243.96949 473.60702 L247.52566 465.58593 L251.5927 457.7852 L256.16571 450.23367 L261.23979 442.9602 L266.81005 435.99362 L272.87158 429.36278 L279.41948 423.09653 L286.44884 417.22371 L293.95477 411.77317 L301.93237 406.77376 L310.37673 402.25431 L319.28295 398.24368 L323.90773 396.43819" />
    <path d="M472.377 415.20369 L475.39144 418.00331 L481.13515 423.78522 L486.4986 429.79756 L491.48172 436.02455 L496.08443 442.45041 L500.30667 449.05937 L504.14837 455.83563 L507.60946 462.76343 L510.68988 469.82699 L513.38955 477.01052 L515.70842 484.29825 L517.64641 491.67441 L519.20345 499.1232 L520.37947 506.62886 L521.17442 514.1756 L521.58822 521.74765 L521.6208 529.32923 L521.27209 536.90455 L520.54203 544.45785 L519.43055 551.97334 L517.93758 559.43524 L516.06306 566.82777 L513.80691 574.13516 L511.16907 581.34163 L508.14947 588.4314 L504.74804 595.38869 L500.96472 602.19772 L496.79943 608.84272 L492.25212 615.30789 L487.3227 621.57748 L482.01112 627.63569 L476.3173 633.46676 L473.32704 636.29217" />
    <path d="M299.21924 382.78887 L301.80981 381.50057 L307.01037 379.0772 L312.23385 376.85618 L317.47669 374.8352 L322.73534 373.01193 L328.00622 371.38407 L333.28578 369.94928 L338.57045 368.70524 L343.85667 367.64965 L349.14089 366.78018 L354.41953 366.0945 L359.68905 365.59031 L367.5684 365.16922 L378.009 365.22129 L388.34895 365.95754 L398.55978 367.35939 L408.61297 369.40829 L418.48003 372.0857 L428.13248 375.37304 L437.54182 379.25176 L446.67955 383.70331 L455.51719 388.70913 L464.02622 394.25065 L472.17817 400.30934 L479.94454 406.86662 L487.29683 413.90395 L494.20655 421.40276 L500.64521 429.3445 L506.58431 437.7106 L511.99536 446.48253 L516.84985 455.64171 L521.11931 465.16959 L523.92033 472.5463 L525.59002 477.56966 L527.09741 482.67475 L528.43895 487.85927 L529.61108 493.12088 L530.61024 498.45727 L531.43286 503.86612 L532.07539 509.3451 L532.53426 514.89191 L532.80591 520.50421 L532.88677 526.1797 L532.77329 531.91605 L532.64256 534.80632 L532.64256 534.80632 L532.42605 538.18105 L531.78613 544.87709 L530.87474 551.49677 L529.69712 558.0339 L528.25851 564.48231 L526.56416 570.83583 L524.6193 577.08827 L522.42918 583.23346 L519.99905 589.26523 L517.33414 595.17739 L514.4397 600.96378 L511.32098 606.61821 L507.98322 612.13452 L504.43165 617.50651 L500.67153 622.72803 L496.70809 627.79288 L492.54659 632.6949 L488.19225 637.42791 L483.65034 641.98573 L478.92608 646.36218 L474.02473 650.5511 L468.95152 654.54629 L463.7117 658.3416 L458.31052 661.93084 L452.75321 665.30783 L447.04502 668.4664 L441.19119 671.40037 L435.19696 674.10357 L429.06759 676.56982 L422.80831 678.79294 L416.42436 680.76676 L409.92099 682.4851 L406.62616 683.24653" />
    <path d="M469.46344 667.99203 L466.89758 669.72288 L461.72369 673.02485 L456.49701 676.11544 L451.22163 678.99663 L445.90167 681.67038 L440.54123 684.13863 L435.14441 686.40335 L429.71531 688.4665 L424.25804 690.33003 L418.7767 691.99591 L413.2754 693.4661 L407.75824 694.74254 L402.22931 695.8272 L396.69274 696.72204 L391.15261 697.42902 L385.61304 697.95009 L380.07812 698.28722 L374.55197 698.44236 L369.03867 698.41747 L363.54235 698.21451 L355.33866 697.58047 L344.49808 696.13011 L333.79925 694.00273 L323.27498 691.21398 L312.95811 687.77953 L302.88146 683.71506 L293.07786 679.03624 L283.58015 673.75872 L274.42115 667.89817 L265.63368 661.47028 L257.25059 654.49069 L249.3047 646.97509 L243.65194 640.99605 L240.03716 636.85067 L236.55014 632.58011 L233.19499 628.18631 L229.97582 623.67124 L226.89672 619.03685 L223.96181 614.28511 L221.17517 609.41796 L218.54093 604.43738 L216.06318 599.34531 L213.74602 594.14372 L211.59356 588.83456 L209.60991 583.4198 L207.79916 577.90138 L206.16542 572.28128 L204.71279 566.56145 L203.44538 560.74384 L202.36729 554.83042 L201.48263 548.82315 L200.79549 542.72397 L200.52728 539.64054 L200.52728 539.64054 L200.25418 535.52974 L200.00367 527.30625 L200.14611 519.09186 L200.67992 510.90056 L201.60351 502.74633 L202.9153 494.64315 L204.61371 486.605 L206.69714 478.64585 L207.88276 474.70028" />
    <path d="M225.60088 415.99708 L227.60526 413.37941 L231.71076 408.29109 L235.94121 403.39832 L240.29182 398.70052 L244.75778 394.19709 L249.33428 389.88745 L254.01651 385.77101 L258.79966 381.84718 L263.67893 378.11539 L268.6495 374.57503 L273.70658 371.22553 L278.84534 368.0663 L284.06099 365.09676 L289.34872 362.3163 L294.70371 359.72436 L300.12116 357.32034 L305.59627 355.10365 L311.12421 353.07371 L316.7002 351.22993 L322.31941 349.57173 L327.97704 348.09851 L333.66829 346.8097 L339.38834 345.7047 L345.13239 344.78293 L350.89562 344.0438 L356.67324 343.48673 L362.46043 343.11113 L368.25238 342.9164 L374.04429 342.90197 L379.83135 343.06725 L385.60875 343.41165 L391.37168 343.93459 L397.11534 344.63547 L402.83492 345.51371 L408.5256 346.56873 L414.18259 347.79994 L419.80107 349.20674 L425.37624 350.78857 L430.90328 352.54482 L436.3774 354.47491 L441.79377 356.57825 L447.1476 358.85426 L452.43408 361.30236 L457.64839 363.92194 L462.78574 366.71244 L467.8413 369.67326 L472.81029 372.80381 L477.68787 376.1035 L482.46926 379.57176 L487.14964 383.208 L491.7242 387.01162 L496.18813 390.98204 L500.53663 395.11867 L504.76489 399.42093 L508.86811 403.88824 L512.84146 408.51999 L516.68015 413.31562 L520.37937 418.27452 L523.9343 423.39612 L527.34015 428.67982 L530.5921 434.12505 L533.68535 439.73121 L536.61509 445.49771 L539.3765 451.42398 L540.69259 454.44684 L540.69259 454.44684 L541.85735 457.2491 L544.04041 462.8907 L546.02864 468.57785 L547.82257 474.30591 L549.42276 480.07022 L550.82975 485.86614 L552.04408 491.68901 L553.06629 497.53419 L553.89693 503.39703 L554.53654 509.27288 L554.98566 515.1571 L555.24485 521.04502 L555.31463 526.93201 L555.19556 532.81342 L554.88818 538.68459 L554.39303 544.54087 L553.71065 550.37763 L552.8416 556.1902 L551.7864 561.97394 L550.54562 567.72421 L549.11978 573.43635 L547.50944 579.10571 L545.71513 584.72764 L543.7374 590.2975 L541.5768 595.81063 L539.23386 601.2624 L536.70913 606.64814 L534.00316 611.96321 L531.11649 617.20296 L528.04965 622.36274 L524.8032 627.43791 L521.37768 632.42381 L519.59794 634.88183" />
    <path d="M509.50616 388.59222 L513.09826 392.277 L519.95779 399.89426 L526.37821 407.82561 L532.35204 416.05167 L537.87182 424.55305 L542.93005 433.31038 L547.51928 442.30426 L551.63201 451.51531 L555.26078 460.92415 L558.3981 470.5114 L561.03651 480.25766 L563.16853 490.14356 L564.78667 500.14971 L565.88347 510.25673 L566.45145 520.44523 L566.48313 530.69582 L566.29552 535.83835" />
    <path d="M311.00045 722.6228 L307.47593 721.49475 L300.54569 719.0808 L293.77483 716.46083 L287.16456 713.64013 L280.71607 710.624 L274.43057 707.41776 L268.30924 704.0267 L262.3533 700.45613 L256.56393 696.71135 L250.94234 692.79766 L245.48972 688.72036 L240.20728 684.48476 L235.09621 680.09617 L230.15771 675.55987 L225.39298 670.88119 L220.80322 666.06541 L216.38962 661.11784 L212.15339 656.04379 L208.09573 650.84856 L204.21782 645.53745 L200.52088 640.11577 L197.0061 634.58881 L193.67468 628.96188 L190.52781 623.24028 L187.56671 617.42932 L184.79255 611.5343 L182.20655 605.56051 L179.8099 599.51328 L177.6038 593.39789 L175.58945 587.21965 L173.76805 580.98386 L172.14079 574.69583 L170.70888 568.36085 L169.47351 561.98424 L168.43589 555.5713 L167.5972 549.12732 L166.95866 542.65761 L166.52145 536.16747 L166.28678 529.66221 L166.25584 523.14713 L166.42984 516.62753 L166.80997 510.10872 L167.39743 503.59599 L168.19343 497.09466 L169.19915 490.61002 L170.4158 484.14737 L171.84457 477.71202 L173.48667 471.30928 L175.34329 464.94444 L177.41563 458.62281 L179.70489 452.34969 L182.21227 446.13038 L184.93897 439.97019 L187.88619 433.87442 L191.05512 427.84837 L194.44696 421.89735 L198.06292 416.02666 L201.90418 410.24159 L205.97196 404.54747 L210.26744 398.94957 L214.79183 393.45322 L219.54633 388.06371 L224.53212 382.78635 L229.75043 377.62643 L232.44714 375.09217 L232.44714 375.09217 L235.18632 372.60388 L240.74198 367.80909 L246.39637 363.25534 L252.14431 358.94103 L257.98059 354.86454 L263.90003 351.02425 L269.89744 347.41856 L275.96762 344.04584 L282.10538 340.90449 L288.30553 337.9929 L294.56288 335.30944 L300.87224 332.85251 L307.22841 330.62049 L313.6262 328.61177 L320.06043 326.82474 L326.52589 325.25778 L333.01741 323.90928 L339.52978 322.77762 L346.05781 321.86119 L352.59632 321.15839 L359.14011 320.66758 L365.68399 320.38717 L372.22276 320.31554 L378.75125 320.45108 L385.26424 320.79216 L391.75656 321.33718 L398.22301 322.08453 L404.65839 323.03259 L411.05752 324.17975 L417.41521 325.52439 L423.72626 327.0649 L429.98549 328.79967 L436.18769 330.72709 L442.32768 332.84553 L448.40027 335.1534 L454.40026 337.64906 L460.32247 340.33092 L466.16169 343.19736 L471.91275 346.24676 L477.57044 349.47751 L483.12958 352.88799 L488.58497 356.4766 L493.93143 360.24172 L499.16375 364.18174 L504.27676 368.29504 L509.26525 372.58001 L514.12404 377.03504 L518.84793 381.65851 L523.43173 386.44881 L527.87025 391.40433 L532.1583 396.52345 L536.29069 401.80456 L540.26222 407.24604 L544.0677 412.84629 L547.70195 418.60369 L551.15976 424.51662 L554.43596 430.58348 L557.52533 436.80264 L560.42271 443.1725 L563.12288 449.69145 L565.62067 456.35786 L567.91087 463.17013 L569.9883 470.12664 L571.84777 477.22578 L572.69415 480.82833" />
    <path d="M155.30367 535.15168 L155.17526 531.2513 L155.11732 523.51261 L155.32048 515.85922 L155.77991 508.29421 L156.49076 500.82064 L157.4482 493.44159 L158.64737 486.16012 L160.08345 478.97931 L161.75157 471.90223 L163.64692 464.93193 L165.76463 458.0715 L168.09987 451.324 L170.6478 444.6925 L173.40357 438.18007 L176.36234 431.78979 L179.51928 425.52471 L182.86953 419.38791 L186.40825 413.38247 L190.13061 407.51144 L194.03175 401.7779 L198.10684 396.18491 L202.35104 390.73555 L206.7595 385.43289 L211.32739 380.28 L216.04985 375.27994 L220.92204 370.43579 L225.93913 365.75061 L231.09627 361.22747 L236.38862 356.86945 L241.81134 352.67961 L247.35958 348.66102 L253.0285 344.81675 L258.81327 341.14988 L264.70903 337.66346 L270.71094 334.36058 L276.81417 331.24429 L283.01387 328.31768 L289.30519 325.5838 L295.6833 323.04573 L302.14336 320.70654 L308.68052 318.5693 L315.28993 316.63707 L321.96676 314.91293 L328.70617 313.39994 L335.5033 312.10118 L342.35333 311.01971 L349.2514 310.15861 L356.19268 309.52094 L363.17232 309.10977 L370.18549 308.92818 L377.22732 308.97922 L384.293 309.26598 L391.37767 309.79152 L398.47648 310.55891 L405.58461 311.57122 L412.6972 312.83152 L419.80942 314.34287 L426.91642 316.10836 L434.01336 318.13104 L441.09539 320.41399 L448.15768 322.96028 L455.19538 325.77297 L462.20365 328.85514 L469.17765 332.20985 L472.65028 333.99037 L472.65028 333.99037 L476.09231 335.82936 L482.82319 339.64852 L489.34964 343.65116 L495.67142 347.83154 L501.78829 352.18394 L507.70002 356.70263 L513.40636 361.38188 L518.90709 366.21596 L524.20197 371.19915 L529.29075 376.32571 L534.1732 381.58992 L538.84908 386.98605 L543.31817 392.50837 L547.58021 398.15115 L551.63497 403.90867 L555.48222 409.77519 L559.12172 415.74499 L562.55323 421.81234 L565.77651 427.9715 L568.79133 434.21677 L571.59745 440.54239 L574.19463 446.94266 L576.58264 453.41182 L578.76123 459.94417 L580.73018 466.53397 L582.48925 473.1755 L584.03819 479.86301 L585.37677 486.5908 L586.50475 493.35312 L587.4219 500.14425 L588.12798 506.95846 L588.62275 513.79003 L588.90598 520.63321 L588.97742 527.4823 L588.83684 534.33155 L588.48401 541.17525 L587.91869 548.00765 L587.14063 554.82304 L586.14961 561.61568 L584.94538 568.37984 L583.52771 575.10981 L581.89636 581.79984 L580.05109 588.44422 L577.99168 595.03721 L575.71787 601.57308 L573.22943 608.04612 L570.52613 614.45057 L567.60773 620.78073 L564.47399 627.03086 L561.12468 633.19524 L557.55955 639.26812 L553.77837 645.2438 L549.78091 651.11653 L545.56692 656.88059 L541.13617 662.53026 L536.48843 668.05979 L531.62344 673.46347 L526.54099 678.73557 L521.24083 683.87036 L515.72272 688.86211 L509.98642 693.70509 L504.03171 698.39357 L497.85834 702.92182 L491.46607 707.28413 L488.18778 709.40126" />
    <path d="M361.07681 298.2954 L365.17793 298.13272 L373.31631 298.01693 L381.36682 298.17635 L389.3262 298.60592 L397.19119 299.30056 L404.95852 300.2552 L412.62494 301.46477 L420.18718 302.9242 L427.64198 304.62841 L434.98607 306.57235 L442.2162 308.75093 L449.32909 311.15908 L456.3215 313.79174 L463.19015 316.64383 L469.93179 319.71029 L476.54314 322.98603 L483.02096 326.466 L489.36197 330.14511 L495.56291 334.01831 L501.62052 338.08051 L507.53155 342.32665 L513.29272 346.75165 L518.90077 351.35045 L524.35244 356.11798 L529.64447 361.04915 L534.7736 366.13891 L539.73656 371.38218 L544.5301 376.77389 L549.15094 382.30897 L553.59582 387.98235 L557.8615 393.78896 L561.94469 399.72372 L565.84214 405.78157 L569.55058 411.95744 L573.06676 418.24624 L576.38742 424.64292 L579.50928 431.14241 L582.42908 437.73962 L585.14357 444.42949 L587.64948 451.20696 L589.94355 458.06694 L592.02252 465.00437 L593.88312 472.01418 L595.52209 479.09129 L596.93617 486.23063 L598.12209 493.42714 L599.0766 500.67575 L599.79643 507.97137 L600.27832 515.30895 L600.51901 522.68341 L600.51523 530.08967 L600.26372 537.52267 L599.76122 544.97735 L599.00447 552.44861 L597.9902 559.93141 L596.71515 567.42065 L595.17606 574.91129 L593.36966 582.39823 L591.29271 589.87642 L588.94192 597.34077 L586.31404 604.78623 L583.40581 612.20771 L580.21396 619.60016 L576.73523 626.95849 L574.88727 630.62328 L574.88727 630.62328 L573.02594 634.16205 L569.13421 641.11388 L565.02194 647.89513 L560.69496 654.50222 L556.15914 660.93159 L551.42032 667.17966 L546.48437 673.24287 L541.35713 679.11763 L536.04446 684.80038 L530.55222 690.28755 L524.88624 695.57556 L519.0524 700.66085 L513.05654 705.53984 L506.90451 710.20896 L500.60217 714.66464 L494.15537 718.90331 L487.56997 722.92139 L480.85181 726.71533 L474.00676 730.28153 L467.04066 733.61645 L459.95937 736.71649 L452.76874 739.57809 L445.47462 742.19768 L438.08288 744.57169 L430.59936 746.69654 L423.02991 748.56867 L415.38039 750.18451 L407.65665 751.54047 L399.86455 752.633 L392.00993 753.45851 L384.09866 754.01345 L376.13658 754.29422 L372.13832 754.33069" />
    <path d="M477.67267 311.37583 L481.3994 313.24664 L488.69955 317.14044 L495.79486 321.23232 L502.68476 325.51648 L509.36871 329.98711 L515.84616 334.6384 L522.11656 339.46454 L528.17936 344.45974 L534.03401 349.61818 L539.67996 354.93405 L545.11666 360.40155 L550.34357 366.01487 L555.36012 371.76821 L560.16578 377.65575 L564.75999 383.6717 L569.1422 389.81024 L573.31186 396.06557 L577.26843 402.43188 L581.01136 408.90336 L584.54008 415.47422 L587.85407 422.13863 L590.95275 428.89079 L593.8356 435.7249 L596.50205 442.63516 L598.95155 449.61574 L601.18356 456.66086 L603.19753 463.76469 L604.99291 470.92143 L606.56915 478.12528 L607.92569 485.37043 L609.06199 492.65108 L609.97751 499.9614 L610.67168 507.29561 L611.14396 514.64789 L611.3938 522.01244 L611.42066 529.38344 L611.22397 536.7551 L610.8032 544.1216 L610.15778 551.47713 L609.28718 558.8159 L608.19085 566.1321 L606.86822 573.41991 L605.31876 580.67353 L603.54192 587.88716 L601.53713 595.05499 L599.30387 602.1712 L596.84156 609.23 L594.14968 616.22558 L591.22766 623.15212 L588.07495 630.00383 L584.69102 636.7749 L581.0753 643.45952 L577.22724 650.05187 L573.14631 656.54617 L568.83194 662.9366 L564.28359 669.21734 L559.50072 675.38261 L554.48276 681.42658 L549.22917 687.34345 L543.7394 693.12742 L538.0129 698.77268 L532.04912 704.27342 L525.84752 709.62384 L519.40753 714.81812 L516.09798 717.3549" />
    <path d="M502.48592 740.14693 L498.61703 742.46085 L490.83061 746.85303 L482.98415 750.93361 L475.08348 754.70579 L467.13441 758.17272 L459.14274 761.33759 L451.1143 764.20357 L443.05489 766.77383 L434.97033 769.05155 L426.86644 771.03989 L418.74902 772.74204 L410.62388 774.16116 L402.49685 775.30043 L394.37373 776.16303 L386.26034 776.75213 L378.16248 777.07089 L370.08598 777.1225 L362.03664 776.91013 L354.02029 776.43695 L346.04272 775.70613 L338.10976 774.72085 L330.22721 773.48429 L322.4009 771.99961 L314.63662 770.26999 L306.94021 768.2986 L299.31746 766.08862 L291.77419 763.64322 L284.31622 760.96558 L276.94936 758.05886 L269.67942 754.92624 L262.51221 751.5709 L255.45355 747.99601 L248.50925 744.20474 L241.68512 740.20026 L234.98697 735.98576 L228.42063 731.5644 L221.99189 726.93935 L215.70658 722.11379 L209.57051 717.0909 L203.58949 711.87385 L197.76933 706.4658 L192.11585 700.86994 L186.63486 695.08944 L181.33216 689.12747 L176.21359 682.9872 L171.28494 676.67182 L166.55203 670.18449 L162.02068 663.52838 L157.6967 656.70667 L153.58589 649.72254 L149.69408 642.57915 L146.02707 635.27968 L142.59068 627.82731 L139.39072 620.22521 L136.43301 612.47655 L133.72336 604.5845 L131.26757 596.55224 L129.07147 588.38294 L127.14087 580.07978 L125.48157 571.64593 L124.0994 563.08456 L123.00016 554.39885 L122.18968 545.59197 L121.67375 536.66709 L121.52806 532.1614 L121.52806 532.1614 L121.45859 527.65388 L121.54807 518.71455 L121.93741 509.87903 L122.62094 501.15076 L123.59303 492.53319 L124.848 484.02977 L126.38021 475.64395 L128.18401 467.37917 L130.25372 459.23888 L132.58372 451.22652 L135.16832 443.34556 L138.00189 435.59942 L141.07877 427.99157 L144.3933 420.52544 L147.93983 413.20449 L151.71269 406.03216 L155.70625 399.0119 L159.91484 392.14716 L164.33281 385.44138 L168.95449 378.89801 L173.77425 372.5205 L178.78642 366.3123 L183.98535 360.27685 L189.36538 354.4176 L194.92086 348.738 L200.64613 343.2415 L206.53554 337.93154 L212.58343 332.81157 L218.78416 327.88504 L225.13205 323.15539 L231.62147 318.62608 L238.24675 314.30055 L245.00223 310.18224 L251.88228 306.27461 L258.88122 302.5811 L265.9934 299.10516 L273.21318 295.85023 L280.53489 292.81977 L287.95288 290.01723 L295.46149 287.44604 L303.05507 285.10965 L310.72797 283.01152 L318.47453 281.1551 L326.28909 279.54382 L334.166 278.18113 L342.09961 277.07049 L350.08426 276.21534 L358.11429 275.61913 L366.18406 275.2853 L374.2879 275.2173 L382.42016 275.41859 L390.57519 275.8926 L398.74733 276.64278 L406.93092 277.67259 L415.12031 278.98547 L423.30986 280.58486 L431.49389 282.47422 L439.66676 284.65699 L447.82281 287.13662 L455.95638 289.91655 L464.06183 293.00024 L472.1335 296.39113 L480.16573 300.09267 L488.15286 304.1083 L492.12775 306.23498" />
    <path d="M395.59189 786.93129 L391.66716 787.25595 L383.81514 787.72755 L375.96403 787.96288 L368.11906 787.96271 L360.28544 787.72784 L352.4684 787.25905 L344.67315 786.55713 L336.90491 785.62287 L329.1689 784.45704 L321.47033 783.06044 L313.81443 781.43385 L306.20641 779.57807 L298.65149 777.49387 L291.15489 775.18204 L283.72183 772.64337 L276.35752 769.87864 L272.70278 768.41175" />
    <path d="M253.31151 772.0429 L247.2995 769.04927 L235.5893 762.67837 L224.30393 755.81246 L213.45105 748.4714 L203.03834 740.67499 L193.07347 732.44309 L183.56413 723.79552 L174.51797 714.75212 L165.94268 705.33271 L157.84592 695.55713 L150.23538 685.44522 L143.11872 675.01681 L136.50362 664.29172 L130.39776 653.2898 L124.8088 642.03087 L119.74442 630.53477 L115.21229 618.82133 L111.2201 606.91039 L107.7755 594.82177 L104.88618 582.57531 L102.55981 570.19085 L100.80406 557.68821 L99.6266 545.08723 L99.03512 532.40774 L99.03728 519.66957 L99.64075 506.89256 L100.85322 494.09654 L102.68235 481.30135 L105.13582 468.5268 L108.2213 455.79275 L111.94646 443.11902 L116.31899 430.52545 L118.75041 424.26491" />
    <path d="M562.28622 737.3879 L558.45787 740.778 L550.69756 747.30564 L542.80505 753.49851 L534.7875 759.3589 L526.65203 764.88916 L518.40581 770.09158 L510.05597 774.96851 L501.60966 779.52225 L493.07403 783.75512 L484.45622 787.66945 L475.76337 791.26755 L467.00264 794.55176 L458.18116 797.52438 L449.30608 800.18773 L440.38455 802.54414 L431.42371 804.59593 L422.43071 806.34542 L413.41269 807.79493 L404.3768 808.94677 L395.33019 809.80327 L386.27999 810.36675 L377.23335 810.63953 L368.19742 810.62393 L359.17935 810.32226 L350.18628 809.73686 L341.22535 808.87003 L332.3037 807.72411 L323.4285 806.3014 L314.60687 804.60424 L305.84597 802.63494 L297.15294 800.39581 L288.53492 797.88919 L279.99907 795.11739 L271.55252 792.08273 L263.20242 788.78753 L254.95592 785.23411 L246.82016 781.4248 L238.80229 777.36191 L230.90945 773.04776 L223.14879 768.48467 L215.52745 763.67497 L208.05257 758.62097 L200.73131 753.32499 L193.57081 747.78935 L186.57821 742.01638 L179.76066 736.0084 L173.12531 729.76772 L166.67929 723.29666 L160.42976 716.59755 L154.38385 709.6727 L148.54872 702.52444 L142.93152 695.15508 L137.53937 687.56695 L132.37944 679.76237 L127.45886 671.74365 L122.78478 663.51312 L118.36435 655.07309 L114.20471 646.42589 L110.31301 637.57384 L106.69638 628.51925 L103.36199 619.26446 L100.31697 609.81177 L97.56846 600.16351 L95.12362 590.32199 L94.0173 585.32949 L94.0173 585.32949 L92.99557 580.319 L91.22261 570.33455 L89.80569 560.403 L88.73922 550.52939 L88.01761 540.71875 L87.63529 530.9761 L87.58667 521.30646 L87.86617 511.71488 L88.46821 502.20636 L89.38721 492.78596 L90.61758 483.45868 L92.15374 474.22956 L93.99012 465.10362 L96.12112 456.0859 L98.54118 447.18143 L101.24469 438.39522 L104.22609 429.73231 L107.47979 421.19772 L111.00021 412.79649 L114.78177 404.53364 L118.81888 396.41419 L123.10597 388.44319 L127.63744 380.62565 L132.40773 372.9666 L137.41124 365.47107 L142.6424 358.14409 L148.09562 350.99068 L153.76532 344.01588 L159.64592 337.22471 L165.73184 330.6222 L172.01749 324.21338 L178.4973 318.00327 L185.16568 311.9969 L192.01704 306.19931 L199.04582 300.61551 L206.24642 295.25054 L213.61326 290.10942 L221.14076 285.19719 L228.82335 280.51886 L236.65543 276.07947 L244.63142 271.88405 L252.74575 267.93762 L260.99283 264.24521 L269.36708 260.81185 L277.86292 257.64257 L286.47477 254.74239 L295.19703 252.11634 L304.02414 249.76946 L312.95051 247.70676 L321.97055 245.93328 L331.07869 244.45404 L340.26935 243.27407 L349.53694 242.3984 L358.87587 241.83206 L368.28057 241.58008 L377.74546 241.64747 L387.26496 242.03928 L396.83347 242.76052 L406.44542 243.81624 L416.09523 245.21144 L425.77732 246.95117 L435.4861 249.04045 L445.21599 251.4843 L454.96142 254.28776 L459.83821 255.82591" />
    <path d="M167.48601 739.39148 L163.68167 735.67918 L156.32696 728.12806 L149.30932 720.41454 L142.62689 712.54622 L136.2778 704.53067 L130.26019 696.37549 L124.57218 688.08824 L119.21193 679.67652 L114.17756 671.14791 L109.46721 662.50999 L105.07901 653.77035 L101.0111 644.93657 L97.26162 636.01622 L93.8287 627.01691 L90.71047 617.94619 L87.90508 608.81167 L85.41065 599.62093 L83.22532 590.38154 L81.34723 581.10109 L79.77452 571.78717 L78.50531 562.44735 L77.53774 553.08922 L76.86996 543.72037 L76.50009 534.34837 L76.42627 524.98081 L76.64664 515.62528 L77.15933 506.28935 L77.96247 496.98061 L79.05421 487.70664 L80.43267 478.47503 L82.096 469.29335 L84.04232 460.1692 L86.26978 451.11015 L88.77651 442.1238 L91.56064 433.21771 L94.62031 424.39947 L97.95366 415.67668 L101.55881 407.0569 L105.43392 398.54773 L109.5771 390.15675 L113.98651 381.89153 L118.66026 373.75967 L123.59651 365.76875 L128.79337 357.92635 L134.249 350.24005 L139.96152 342.71743 L145.92907 335.36609 L152.14978 328.19359 L158.6218 321.20754 L165.34325 314.4155 L172.31227 307.82506 L179.527 301.44381 L186.98558 295.27933 L194.68613 289.3392 L202.62679 283.631 L210.8057 278.16232 L219.221 272.94075 L227.87081 267.97385 L236.75329 263.26923 L245.86655 258.83445 L255.20873 254.67711 L264.77798 250.80479 L274.57243 247.22506 L284.5902 243.94552 L289.68226 242.42069 L289.68226 242.42069 L294.79937 240.98218 L305.01619 238.38838 L315.20511 236.16768 L325.36049 234.31469 L335.47671 232.82399 L345.54811 231.69018 L355.56908 230.90784 L365.53397 230.47159 L375.43714 230.376 L385.27298 230.61568 L395.03583 231.18521 L404.72007 232.07919 L414.32005 233.29221 L423.83015 234.81887 L433.24473 236.65376 L442.55815 238.79148 L451.76479 241.22661 L460.859 243.95376 L469.83514 246.96751 L478.6876 250.26246 L487.41072 253.8332 L495.99888 257.67433 L504.44643 261.78044 L512.74776 266.14612 L520.89721 270.76597 L528.88916 275.63459 L536.71797 280.74655 L544.378 286.09646 L551.86362 291.67892 L559.1692 297.48851 L566.2891 303.51983 L573.21769 309.76747 L579.94932 316.22603 L586.47838 322.8901 L592.79921 329.75427 L598.90619 336.81314 L604.79368 344.0613 L610.45604 351.49335 L615.88765 359.10387 L621.08286 366.88747 L626.03604 374.83873 L630.74156 382.95225 L635.19379 391.22263 L639.38707 399.64445 L643.31579 408.21231 L646.97431 416.9208 L650.35698 425.76453 L653.45819 434.73807 L656.27228 443.83603 L658.79363 453.053 L661.01661 462.38357 L662.93557 471.82233 L664.54488 481.36388 L665.83891 491.00282 L666.81202 500.73374 L667.45858 510.55122 L667.77295 520.44987 L667.7495 530.42428 L667.38259 540.46903 L666.66658 550.57874 L665.59585 560.74798 L664.16476 570.97135 L662.36767 581.24345 L660.19895 591.55887 L658.97346 596.73114" />
    <path d="M98.33487 664.53601 L95.88763 659.59113 L91.2854 649.66491 L87.06914 639.69572 L83.23442 629.69035 L79.7768 619.65557 L76.69184 609.59816 L73.97511 599.52493 L71.62217 589.44263 L69.62858 579.35807 L67.9899 569.27802 L66.70171 559.20927 L65.75956 549.1586 L65.15902 539.1328 L64.89565 529.13864 L64.96501 519.18292 L65.36267 509.27241 L66.08419 499.41391 L67.12514 489.61418 L68.48107 479.88003 L70.14756 470.21822 L72.12016 460.63555 L74.39444 451.13879 L76.96596 441.73474 L79.83029 432.43017 L82.98299 423.23187 L86.41962 414.14663 L90.13575 405.18122 L94.12694 396.34243 L98.38875 387.63704 L102.91675 379.07184 L107.7065 370.65362 L112.75356 362.38914 L118.0535 354.28521 L123.60188 346.34859 L129.39426 338.58609 L135.42622 331.00447 L141.6933 323.61052 L148.19108 316.41104 L154.91512 309.41279 L161.86098 302.62256 L169.02423 296.04715 L176.40042 289.69332 L183.98513 283.56787 L191.77391 277.67758 L199.76234 272.02923 L207.94597 266.6296 L216.32036 261.48549 L224.88108 256.60367 L233.6237 251.99092 L242.54377 247.65404 L251.63687 243.5998 L260.89855 239.83499 L270.32437 236.36639 L279.90991 233.20078 L289.65072 230.34496 L299.54238 227.80569 L309.58043 225.58977 L319.76045 223.70399 L330.07799 222.15511 L340.52863 220.94994 L351.10793 220.09524 L361.81144 219.59781 L372.63474 219.46443 L383.57338 219.70188 L389.08457 219.96178 L389.08457 219.96178 L394.59058 220.31485 L405.48805 221.29231 L416.22975 222.62552 L426.81202 224.30724 L437.23121 226.33024 L447.48365 228.68729 L457.5657 231.37115 L467.47369 234.37459 L477.20397 237.69037 L486.75289 241.31126 L496.11678 245.23003 L505.29199 249.43944 L514.27486 253.93225 L523.06174 258.70124 L531.64896 263.73917 L540.03289 269.03881 L548.20984 274.59292 L556.17618 280.39427 L563.92824 286.43562 L571.46237 292.70975 L578.7749 299.20941 L585.86219 305.92737 L592.72058 312.8564 L599.34641 319.98926 L605.73602 327.31873 L611.88576 334.83756 L617.79196 342.53853 L623.45099 350.41439 L628.85917 358.45792 L634.01285 366.66188 L638.90837 375.01904 L643.54208 383.52216 L647.91033 392.16401 L652.00945 400.93736 L655.83578 409.83497 L659.38568 418.8496 L662.65548 427.97403 L665.64153 437.20101 L668.34017 446.52333 L670.74775 455.93373 L672.86061 465.42499 L674.67508 474.98988 L676.18752 484.62115 L677.39427 494.31158 L678.29168 504.05394 L678.87608 513.84098 L679.14381 523.66547 L679.09123 533.52018 L678.71468 543.39789 L678.01049 553.29134 L676.97502 563.19331 L675.6046 573.09656 L673.89559 582.99387 L671.84431 592.87799 L669.44712 602.7417 L666.70036 612.57775 L663.60038 622.37892 L660.14351 632.13796 L656.3261 641.84766 L652.14449 651.50077 L647.59503 661.09005 L642.67407 670.60828 L637.37793 680.04822 L631.70297 689.40264 L628.72229 694.04552" />
    <path d="M612.32697 734.35069 L608.54564 738.64143 L600.83316 746.95692 L592.92776 754.91907 L584.83771 762.52948 L576.57125 769.78974 L568.13664 776.70142 L559.54212 783.26613 L550.79595 789.48546 L541.90637 795.36098 L532.88164 800.8943 L523.73 806.087 L514.45972 810.94066 L505.07902 815.45689 L495.59618 819.63727 L486.01943 823.48338 L476.35703 826.99683 L466.61723 830.17919 L456.80828 833.03206 L446.93843 835.55702 L437.01593 837.75567 L427.04903 839.62959 L417.04598 841.18038 L407.01503 842.40963 L396.96444 843.31892 L386.90244 843.90984 L376.8373 844.18398 L366.77726 844.14294 L356.73058 843.7883 L346.7055 843.12164 L336.71027 842.14457 L326.75315 840.85867 L316.84238 839.26553 L306.98622 837.36673 L297.19291 835.16388 L287.47071 832.65855 L277.82787 829.85234 L268.27263 826.74684 L258.81326 823.34363 L249.45799 819.6443 L240.21508 815.65046 L231.09277 811.36367 L222.09933 806.78554 L213.243 801.91765 L204.53203 796.7616 L195.97466 791.31897 L187.57916 785.59135 L179.35377 779.58033 L171.30674 773.2875 L163.44633 766.71445 L155.78078 759.86277 L148.31834 752.73404 L141.06726 745.32987 L134.0358 737.65184 L127.2322 729.70153 L120.66472 721.48053 L114.3416 712.99045 L108.2711 704.23286 L102.46146 695.20935 L96.92094 685.92152 L91.65779 676.37095 L86.68025 666.55924 L81.99659 656.48797 L77.61504 646.15873 L73.54386 635.57311 L71.62723 630.18465 L71.62723 630.18465 L69.68749 624.40279 L66.14552 612.74356 L63.05559 600.96799 L60.42009 589.08927 L58.24143 577.12058 L56.522 565.07511 L55.26421 552.96604 L54.47045 540.80655 L54.24834 534.71202" />
    <path d="M43.5038 506.47578 L43.90825 500.56859 L45.00781 488.87839 L46.48843 477.35701 L48.34231 466.00833 L50.56169 454.83626 L53.13877 443.84469 L56.06579 433.03749 L59.33495 422.41856 L62.93849 411.9918 L66.86861 401.76109 L71.11755 391.73032 L75.67752 381.90339 L80.54073 372.28418 L85.69942 362.87659 L91.14579 353.6845 L96.87207 344.71181 L102.87048 335.9624 L109.13324 327.44017 L115.65257 319.14901 L122.42069 311.09281 L129.42982 303.27545 L136.67217 295.70084 L144.13997 288.37285 L151.82544 281.29539 L159.7208 274.47233 L167.81826 267.90758 L176.11005 261.60502 L184.58839 255.56854 L193.2455 249.80203 L202.07359 244.30939 L211.06489 239.0945 L220.21162 234.16126 L229.50599 229.51355 L238.94023 225.15526 L248.50655 221.09029 L258.19718 217.32253 L268.00434 213.85587 L277.92024 210.69419 L287.93711 207.84139 L298.04716 205.30136 L308.24262 203.07798 L318.5157 201.17516 L328.85862 199.59678 L339.26362 198.34673 L349.72289 197.4289 L360.22867 196.84718 L370.77318 196.60546 L381.34862 196.70763 L391.94724 197.15759 L402.56123 197.95922 L413.18283 199.11642 L423.80425 200.63307 L434.41772 202.51307 L445.01545 204.7603 L455.58966 207.37865 L466.13257 210.37203 L476.63641 213.74431 L487.09339 217.49939 L497.49573 221.64116 L507.83565 226.17351 L518.10538 231.10032 L528.29713 236.4255 L538.40311 242.15292 L548.41556 248.28649 L553.38428 251.50679 L553.38428 251.50679 L558.29783 254.81066 L567.87206 261.60801 L577.10956 268.65094 L586.01086 275.93079 L594.57647 283.43886 L602.80691 291.16647 L610.70271 299.10494 L618.26439 307.24558 L625.49246 315.57972 L632.38745 324.09866 L638.94988 332.79373 L645.18027 341.65625 L651.07915 350.67752 L656.64702 359.84887 L661.88441 369.16161 L666.79185 378.60706 L671.36985 388.17654 L675.61894 397.86137 L679.53963 407.65285 L683.13245 417.54231 L686.39791 427.52107 L689.33654 437.58044 L691.94886 447.71174 L694.23539 457.90628 L696.19665 468.15539 L697.83317 478.45038 L699.14545 488.78256 L700.13402 499.14326 L700.79941 509.52378 L701.14213 519.91546 L701.16271 530.30959 L700.86166 540.69751 L700.23951 551.07053 L699.29678 561.41996 L698.03398 571.73713 L696.45164 582.01334 L694.55029 592.23992 L692.33043 602.40818 L689.79259 612.50944 L686.9373 622.53502 L683.76507 632.47623 L680.27642 642.32439 L676.47187 652.07082 L672.35196 661.70684 L667.91718 671.22375 L663.16808 680.61288 L658.10516 689.86555 L652.72895 698.97307 L647.03997 707.92676 L641.03874 716.71793 L634.72578 725.33791 L628.10161 733.778 L621.16675 742.02954 L613.92173 750.08382 L606.36706 757.93218 L598.50326 765.56592 L590.33086 772.97637 L581.85038 780.15484 L573.06233 787.09265 L563.96724 793.78111 L554.56563 800.21155 L544.85802 806.37527 L534.84493 812.2636 L524.52688 817.86785 L519.25365 820.56074" />
  </g>
</svg>