<?xml version="1.0" standalone="no"?>
<!DOCTYPE svg PUBLIC "-//W3C//DTD SVG 1.1//EN" 
    "http://www.w3.org/Graphics/SVG/1.1/DTD/svg11.dtd">
<svg width="21cm" height="29.7cm"
    xmlns="http://www.w3.org/2000/svg" version="1.1" viewBox="0 0 744.09449 1052.3622">
  <g fill="none" stroke="black" stroke-width="0.03cm">
    <path d="M717.15551 606.49634 L715.65822 612.6923 L712.37763 624.89987 L708.72317 636.85938 L704.70381 648.56812 L700.32848 660.02335 L695.60617 671.22236 L690.54583 682.16242 L685.15642 692.84081 L679.44689 703.25481 L673.42622 713.40169 L667.10335 723.27875 L660.48726 732.88324 L653.58689 742.21245 L646.41122 751.26366 L638.96919 760.03415 L631.26978 768.52119 L623.32194 776.72207 L615.13463 784.63405 L606.71681 792.25442 L598.07745 799.58045 L589.22549 806.60943 L580.16991 813.33863 L570.91966 819.76533 L561.48371 825.8868 L551.871 831.70033 L542.09051 837.20319 L532.1512 842.39266 L522.06201 847.26601 L511.83192 851.82054 L501.46989 856.0535 L490.98487 859.96219 L480.38582 863.54388 L469.68171 866.79584 L458.88149 869.71536 L447.99413 872.29971 L437.02859 874.54617 L425.99382 876.45202 L414.89879 878.01454 L403.75245 879.231 L392.56377 880.09868 L381.3417 880.61486 L370.09522 880.77682 L358.83327 880.58184 L347.56481 880.02718 L336.29882 879.11014 L325.04424 877.82799 L313.81004 876.178 L302.60518 874.15746 L291.43862 871.76364 L280.31931 868.99382 L269.25623 865.84528 L258.25832 862.3153 L247.33455 858.40115 L236.49389 854.10011 L225.74528 849.40946 L215.09769 844.32647 L204.56008 838.84844 L194.14142 832.97262 L183.85065 826.69631 L173.69675 820.01677 L163.68866 812.93129 L153.83536 805.43715 L144.1458 797.53161 L134.62894 789.21197 L129.93808 784.89601 L129.93808 784.89601 L124.91417 780.1014 L115.1734 770.24301 L105.84836 760.03713 L96.94668 749.49746 L88.47594 738.63767 L80.44377 727.47145 L72.85776 716.0125 L65.72552 704.27449 L59.05465 692.27112 L52.85277 680.01607 L47.12748 667.52302 L41.88638 654.80567 L37.13709 641.87769 L32.8872 628.75278 L29.14433 615.44463 L25.91608 601.96691 L24.49731 595.16875" />
    <path d="M445.79786 836.4335 L440.20549 837.71301 L429.05452 839.96766 L417.95341 841.82159 L406.90792 843.28093 L395.92387 844.35179 L385.00702 845.04031 L374.16318 845.35261 L363.39812 845.29483 L352.71764 844.87308 L342.12752 844.09349 L331.63356 842.96219 L321.24153 841.48531 L310.95723 839.66897 L300.78645 837.5193 L290.73496 835.04243 L280.80857 832.24448 L271.01306 829.13158 L261.35421 825.70985 L251.83782 821.98542 L242.46967 817.96443 L233.25555 813.65298 L224.20125 809.05722 L215.31256 804.18327 L206.59526 799.03725 L198.05513 793.62529 L189.69798 787.95352 L181.52959 782.02807 L173.55574 775.85505 L165.78222 769.44061 L158.21482 762.79085 L150.85934 755.91192 L143.72155 748.80993 L136.80724 741.49102 L130.1222 733.9613 L123.67223 726.22692 L117.4631 718.29398 L111.50061 710.16863 L105.79054 701.85698 L100.33868 693.36516 L95.15082 684.69931 L90.23275 675.86553 L85.59025 666.86997 L81.22912 657.71875 L77.15513 648.418 L73.37409 638.97384 L69.89177 629.39239 L66.71396 619.67979 L63.84646 609.84216 L61.29505 599.88563 L59.06551 589.81632 L57.16364 579.64037 L55.59522 569.36389 L54.36605 558.99302 L53.4819 548.53387 L52.94857 537.99259 L52.77184 527.37528 L52.95751 516.68809 L53.51136 505.93714 L54.43917 495.12854 L55.74674 484.26844 L57.43986 473.36296 L59.5243 462.41821 L62.00587 451.44034 L64.89034 440.43546 L66.48548 434.92481 L66.48548 434.92481 L68.25699 429.19044 L72.11856 417.83679 L76.40032 406.64615 L81.09688 395.63001 L86.2028 384.79985 L91.71268 374.16716 L97.62111 363.74342 L103.92266 353.54011 L107.21917 348.52471" />
    <path d="M467.53031 793.08023 L462.00361 794.99333 L450.84247 798.47409 L439.54971 801.49107 L428.13973 804.04041 L422.3953 805.13851" />
    <path d="M424.73327 768.55232 L420.36523 769.46322 L411.65997 771.04885 L402.99951 772.32361 L394.38824 773.29236 L385.83058 773.95995 L377.33094 774.33122 L368.89372 774.41104 L360.52333 774.20424 L352.22418 773.71569 L344.00068 772.95022 L335.85724 771.91271 L327.79827 770.60799 L319.82818 769.04091 L311.95137 767.21633 L304.17225 765.13911 L296.49524 762.81408 L288.92473 760.2461 L281.46515 757.44003 L274.12089 754.40071 L266.89637 751.133 L259.796 747.64174 L252.82418 743.93179 L245.98533 740.008 L239.28385 735.87522 L232.72414 731.5383 L226.31063 727.00209 L220.04771 722.27145 L213.9398 717.35122 L207.99131 712.24626 L202.20664 706.96141 L196.5902 701.50153 L191.14641 695.87148 L185.87966 690.07609 L180.79438 684.12023 L175.89496 678.00874 L171.18582 671.74647 L166.67136 665.33829 L162.35599 658.78902 L158.24413 652.10354 L154.34018 645.28668 L150.64855 638.34331 L147.17365 631.27827 L143.91988 624.09641 L140.89167 616.80259 L138.0934 609.40165 L135.5295 601.89845 L133.20437 594.29783 L131.12242 586.60466 L129.28806 578.82378 L127.7057 570.96003 L126.37975 563.01829 L125.31461 555.00338 L124.51469 546.92017 L123.98441 538.77351 L123.72817 530.56824 L123.75038 522.30923 L124.05545 514.00131 L124.64779 505.64935 L125.5318 497.25819 L126.7119 488.83268 L128.19249 480.37768 L129.97798 471.89803 L132.07279 463.39859 L134.48132 454.88421 L135.8046 450.62293 L135.8046 450.62293 L137.19976 446.38464 L140.17919 438.05286 L143.40544 429.91529 L146.87212 421.97334 L150.5728 414.2284 L154.50109 406.68185 L158.65058 399.3351 L163.01487 392.18953 L167.58754 385.24653 L172.3622 378.50751 L177.33243 371.97384 L182.49184 365.64693 L187.83401 359.52816 L193.35255 353.61893 L199.04104 347.92063 L204.89308 342.43466 L210.90226 337.1624 L217.06219 332.10524 L223.36644 327.26459 L229.80862 322.64183 L236.38233 318.23836 L243.08115 314.05556 L249.89868 310.09483 L256.82851 306.35757 L263.86425 302.84516 L270.99947 299.559 L278.22779 296.50047 L285.54279 293.67098 L292.93806 291.07192 L300.40721 288.70467 L307.94382 286.57063 L315.54149 284.6712 L323.19381 283.00775 L330.89438 281.5817 L338.6368 280.39442 L346.41465 279.44732 L354.22153 278.74178 L362.05104 278.27919 L369.89677 278.06096 L377.75231 278.08847 L385.61127 278.36311 L393.46722 278.88627 L401.31378 279.65936 L409.14453 280.68376 L416.95306 281.96086 L424.73297 283.49205 L432.47786 285.27874 L440.18132 287.32231 L447.83694 289.62415 L455.43832 292.18565 L462.97906 295.00822 L470.45274 298.09323 L477.85296 301.44209 L485.17332 305.05618 L492.4074 308.93691 L499.54882 313.08565 L506.59115 317.5038 L513.52799 322.19276 L520.35295 327.15392 L527.0596 332.38867 L533.64155 337.8984 L540.09239 343.68451 L546.40572 349.74838 L552.57513 356.09142 L555.60386 359.36806" />
    <path d="M248.75451 352.9847 L251.88891 350.79313 L258.21309 346.60648 L264.60687 342.67988 L271.06514 339.01101 L277.58279 335.59752 L284.15471 332.43708 L290.77579 329.52735 L297.44091 326.86601 L304.14496 324.45071 L310.88284 322.27912 L317.64944 320.34891 L324.43963 318.65774 L331.24832 317.20328 L338.0704 315.98319 L344.90074 314.99513 L351.73425 314.23677 L358.5658 313.70579 L365.3903 313.39983 L372.20262 313.31657 L378.99766 313.45367 L385.77031 313.8088 L392.51546 314.37962 L399.22799 315.1638 L405.9028 316.159 L412.53478 317.36288 L419.1188 318.77312 L425.64978 320.38738 L432.12258 322.20332 L438.53211 324.21861 L444.87325 326.43091 L451.14089 328.83788 L457.32992 331.4372 L463.43523 334.22653 L469.45171 337.20354 L475.37425 340.36588 L481.19773 343.71122 L486.91706 347.23723 L492.52711 350.94158 L498.02277 354.82192 L503.39894 358.87593 L508.65051 363.10127 L513.77236 367.4956 L518.75938 372.05659 L523.60647 376.78191 L528.30851 381.66921 L532.86039 386.71617 L537.257 391.92045 L541.49323 397.27971 L545.56396 402.79162 L549.4641 408.45385 L553.18853 414.26406 L556.73213 420.21991 L560.0898 426.31907 L563.25643 432.55921 L566.2269 438.93799 L568.99611 445.45307 L571.55894 452.10213 L573.91029 458.88282 L576.04503 465.79281 L577.95807 472.82976 L579.6443 479.99135 L581.09859 487.27523 L582.31584 494.67908 L583.29094 502.20055 L583.68609 506.00466 L583.68609 506.00466 L584.01685 509.81492 L584.48051 517.38514 L584.68415 524.88562 L584.63235 532.31309 L584.3297 539.66428 L583.78076 546.93595 L582.99012 554.12483 L581.96235 561.22766 L580.70203 568.24119 L579.21374 575.16216 L577.50205 581.98731 L575.57155 588.71338 L573.42681 595.33711 L571.0724 601.85525 L568.51291 608.26453 L565.75291 614.56169 L562.79699 620.74349 L559.64971 626.80665 L556.31565 632.74793 L552.7994 638.56406 L549.10552 644.25178 L545.2386 649.80784 L541.20322 655.22897 L537.00394 660.51193 L532.64536 665.65344 L528.13204 670.65026 L523.46857 675.49912 L518.65952 680.19676 L513.70946 684.73993 L508.62299 689.12537 L503.40466 693.34982 L498.05907 697.41001 L492.59078 701.3027 L487.00439 705.02463 L481.30445 708.57252 L475.49555 711.94314 L469.58227 715.13321 L463.56919 718.13949 L457.46088 720.9587 L451.26192 723.5876 L444.97689 726.02292 L438.61036 728.2614 L432.16692 730.2998 L425.65113 732.13484 L419.06758 733.76327 L412.42085 735.18183 L405.71551 736.38727 L398.95613 737.37632 L392.14731 738.14573 L385.29361 738.69223 L378.3996 739.01258 L371.46988 739.1035 L364.50902 738.96175 L357.52159 738.58406 L350.51217 737.96718 L343.48534 737.10784 L336.44567 736.00279 L329.39775 734.64877 L322.34615 733.04252 L315.29545 731.18078 L308.25022 729.0603 L301.21504 726.67781 L294.1945 724.03006 L287.19316 721.11379 L283.70113 719.55394" />
    <path d="M406.35033 699.99382 L403.21839 700.58446 L396.97976 701.5975 L390.77737 702.38914 L384.61432 702.96292 L378.49368 703.32236 L372.41853 703.47097 L366.39196 703.4123 L360.41705 703.14986 L354.49688 702.68718 L348.63453 702.02778 L342.83308 701.17519 L337.09562 700.13293 L331.42523 698.90453 L325.82499 697.49351 L320.29798 695.9034 L314.84728 694.13772 L309.47598 692.2 L304.18716 690.09376 L298.9839 687.82253 L293.86928 685.38983 L288.84638 682.79919 L283.91829 680.05413 L279.08809 677.15818 L274.35885 674.11486 L269.73367 670.9277 L265.21563 667.60022 L258.64617 662.35362 L250.29064 654.89994 L242.41911 646.94843 L235.05625 638.5273 L228.22672 629.66475 L221.95516 620.38898 L217.6325 613.17794 L214.93794 608.25613 L212.39673 603.24688 L210.01198 598.15371 L207.78675 592.98015 L205.72413 587.72972 L203.82721 582.40594 L202.09905 577.01235 L200.54275 571.55247 L199.16139 566.02981 L197.95805 560.44791 L196.93581 554.81029 L196.09776 549.12048 L195.44697 543.382 L194.98652 537.59838 L194.71951 531.77314 L194.64901 525.9098 L194.7781 520.01189 L195.10986 514.08294 L195.64739 508.12647 L196.39375 502.14601 L197.35203 496.14508 L198.52532 490.1272 L199.91669 484.09591 L201.52923 478.05472 L203.36602 472.00716 L204.36947 468.98209 L204.36947 468.98209 L205.7245 465.15225 L208.67343 457.63813 L211.93273 450.32293 L215.49263 443.21245 L219.34337 436.31253 L223.47518 429.62899 L227.87829 423.16762 L232.54295 416.93427 L237.45938 410.93474 L242.61781 405.17485 L248.00848 399.66042 L253.62164 394.39727 L259.4475 389.39122 L265.4763 384.64808 L271.69829 380.17367 L278.10368 375.97382 L284.68272 372.05433 L291.42565 368.42103 L298.32268 365.07973 L305.36407 362.03626 L312.54004 359.29643 L319.84083 356.86605 L327.25666 354.75095 L334.77779 352.95695 L342.39443 351.48986 L350.09683 350.3555 L357.87522 349.55969 L365.71983 349.10825 L373.62089 349.00699 L381.56865 349.26173 L389.55333 349.8783 L397.56517 350.8625 L401.57822 351.49428" />
    <path d="M414.61816 661.36896 L409.74305 662.81402 L400.01947 665.16517 L390.34981 666.81461 L380.75618 667.78257 L371.26064 668.08932 L361.88529 667.7551 L352.65221 666.80017 L343.5835 665.24478 L334.70123 663.10919 L326.0275 660.41364 L317.58438 657.1784 L309.39398 653.42371 L301.47836 649.16983 L293.85963 644.43702 L286.55986 639.24551 L279.60114 633.61558 L273.00557 627.56746 L266.79521 621.12142 L260.99218 614.29771 L255.61853 607.11658 L250.69638 599.59828 L246.24779 591.76307 L242.29487 583.63119 L238.85969 575.22292 L235.96433 566.55848 L233.6309 557.65815 L231.88147 548.54217 L230.73813 539.2308 L230.22297 529.74429 L230.35807 520.10289 L231.16552 510.32685 L232.66741 500.43644 L233.68567 495.45467 L233.68567 495.45467 L234.4161 492.33089 L236.07484 486.17504 L237.99159 480.1459 L240.1594 474.24884 L242.57133 468.48919 L245.22043 462.8723 L248.09973 457.40354 L251.20229 452.08824 L254.52117 446.93176 L258.0494 441.93945 L261.78003 437.11665 L265.70612 432.46872 L269.82071 428.001 L274.11685 423.71886 L278.58759 419.62762 L283.22598 415.73266 L288.02507 412.03931 L292.9779 408.55292 L298.07753 405.27885 L303.31699 402.22245 L308.68935 399.38905 L314.18765 396.78403 L319.80493 394.41272 L325.53426 392.28047 L331.36866 390.39264 L337.3012 388.75457 L343.32492 387.37161 L349.43287 386.24912 L355.6181 385.39244 L361.87366 384.80693 L368.1926 384.49793 L374.56796 384.47079 L377.77462 384.56459" />
    <path d="M423.67587 619.10046 L420.31147 620.89606 L413.52111 624.08726 L406.66474 626.75476 L399.76164 628.91011 L392.83109 630.56487 L385.89235 631.73061 L378.96471 632.41886 L372.06744 632.64119 L365.21983 632.40916 L358.44114 631.73432 L351.75065 630.62823 L345.16765 629.10244 L338.7114 627.16851 L332.40118 624.83799 L326.25627 622.12245 L320.29595 619.03344 L314.53949 615.5825 L309.00617 611.78121 L303.71527 607.64112 L298.68606 603.17377 L293.93781 598.39074 L289.48982 593.30356 L285.36134 587.92381 L281.57166 582.26304 L278.14006 576.33279 L275.08581 570.14464 L272.42819 563.71013 L270.18647 557.04082 L268.37993 550.14827 L267.02785 543.04403 L266.1495 535.73965 L265.76417 528.24671 L265.7624 524.43313 L265.7624 524.43313 L265.89776 520.54105 L266.59521 512.78742 L267.15659 508.93366" />
    <path d="M332.70257 585.1218 L330.61218 583.67473 L326.64978 580.62213 L322.97774 577.3707 L319.59506 573.93541 L316.50079 570.3312 L313.69395 566.57303 L311.17356 562.67585 L308.93865 558.65461 L306.98825 554.52425 L305.32139 550.29974 L303.93709 545.99603 L302.83438 541.62806 L302.01229 537.21079 L301.46984 532.75917 L301.20606 528.28815 L301.21997 523.81269 L301.51061 519.34773 L302.07699 514.90823 L302.91816 510.50913 L304.03312 506.1654 L305.42092 501.89198 L307.08057 497.70382 L309.01111 493.61588 L311.21156 489.6431 L313.68094 485.80045 L316.41829 482.10286 L319.42262 478.5653 L322.69298 475.20271 L326.22837 472.03005 L330.02784 469.06226 L334.09041 466.31431 L338.4151 463.80113 L340.67544 462.63726 L340.67544 462.63726 L342.97383 461.55047 L347.59866 459.64524 L352.2505 458.09086 L356.91689 456.87903 L361.58536 456.00141 L366.24346 455.4497 L370.87871 455.21557 L375.47866 455.29071 L380.03085 455.66679 L384.52281 456.3355 L388.94209 457.28852 L393.27621 458.51753 L397.51273 460.01421 L401.63917 461.77024 L405.64308 463.77731 L409.51199 466.02709 L413.23344 468.51127 L416.79496 471.22153 L420.18411 474.14954 L423.38841 477.287 L426.3954 480.62557 L429.19263 484.15695 L431.76762 487.87282 L434.10792 491.76485 L436.20107 495.82473 L438.0346 500.04413 L439.59605 504.41474 L440.87296 508.92825 L441.85287 513.57632 L442.52331 518.35065 L442.87183 523.24292 L442.88595 528.2448 L442.76373 530.78424" />
    <path d="M396.36172 551.95529 L395.43045 552.80306 L393.48685 554.39186 L391.44214 555.83479 L389.30467 557.12757 L387.0828 558.26591 L384.78489 559.24552 L382.4193 560.06214 L379.99438 560.71147 L378.76228 560.97206" />
  </g>
</svg>