<?xml version="1.0" standalone="no"?>
<!DOCTYPE svg PUBLIC "-//W3C//DTD SVG 1.1//EN" 
    "http://www.w3.org/Graphics/SVG/1.1/DTD/svg11.dtd">
<svg width="2480px" height="3508px"
    xmlns="http://www.w3.org/2000/svg" version="1.1" viewBox="0 0 2480 3508">
  <g fill="none" stroke="black" stroke-width="1.06299px">
    <path d="M206.66666666666663 206.66666666666663 L206.66666666666663 549.3333333333333" />
    <path d="M206.66666666666663 549.3333333333333 L1446.6666666666665 1789.3333333333333" />
    <path d="M1446.6666666666665 1789.3333333333333 L206.66666666666663 1789.3333333333333" />
    <path d="M206.66666666666663 1789.3333333333333 L206.66666666666663 206.66666666666663" />
    <path d="M220.82925273895387 214.0141167030181 L219.33409209071408 556.6775214299898" />
    <path d="M219.33409209071408 556.6775214299898 L1453.9117846713389 1802.0762210367864" />
    <path d="M1453.9117846713389 1802.0762210367864 L213.92358857762827 1796.6657175237006" />
    <path d="M213.92358857762827 1796.6657175237006 L220.82925273895387 214.0141167030181" />
    <path d="M234.91572695796435 221.46663922581683 L231.92543412718817 564.1202581958062" />
    <path d="M231.92543412718817 564.1202581958062 L1461.0573147087769 1814.8939468133622" />
    <path d="M1461.0573147087769 1814.8939468133622 L221.10453010920457 1804.0730427953786" />
    <path d="M221.10453010920457 1804.0730427953786 L234.91572695796435 221.46663922581683" />
    <path d="M248.9254428675431 229.02370909554952 L244.4400747850957 571.661018677576" />
    <path d="M244.4400747850957 571.661018677576 L1468.102742468397 1827.7858833778118" />
    <path d="M1468.102742468397 1827.7858833778118 L228.20897627662862 1811.5547848693445" />
    <path d="M228.20897627662862 1811.5547848693445 L248.9254428675431 229.02370909554952" />
    <path d="M262.85775714876 236.6847975354118 L256.87739920958415 579.2992744090019" />
    <path d="M256.87739920958415 579.2992744090019 L1475.0475572212777 1840.7514003851586" />
    <path d="M1475.0475572212777 1840.7514003851586 L235.2364152273526 1819.110416402927" />
    <path d="M235.2364152273526 1819.110416402927 L262.85775714876 236.6847975354118" />
    <path d="M276.71202963932785 244.4493721487031 L269.23679570081833 587.0344934280852" />
    <path d="M269.23679570081833 587.0344934280852 L1481.8912518370498 1853.7898644500283" />
    <path d="M1481.8912518370498 1853.7898644500283 L242.18633825796246 1826.7394070071725" />
    <path d="M242.18633825796246 1826.7394070071725 L276.71202963932785 244.4493721487031" />
    <path d="M290.48762335292804 252.3168969363213 L281.5176557327635 594.8661402946123" />
    <path d="M281.5176557327635 594.8661402946123 L1488.6333228006918 1866.900639166066" />
    <path d="M1488.6333228006918 1866.900639166066 L249.05823983100083 1834.4412232643033" />
    <path d="M249.05823983100083 1834.4412232643033 L290.48762335292804 252.3168969363213" />
    <path d="M304.18390449844287 260.28683231435855 L293.71937397187696 602.7936761077387" />
    <path d="M293.71937397187696 602.7936761077387 L1495.2732702292208 1880.0830851254427" />
    <path d="M1495.2732702292208 1880.0830851254427 L255.85161759169694 1842.2153287452627" />
    <path d="M255.85161759169694 1842.2153287452627 L304.18390449844287 260.28683231435855" />
    <path d="M317.8002424990958 268.35863513179424 L305.84134829570553 610.816558523671" />
    <path d="M305.84134829570553 610.816558523671 L1501.8105978882827 1893.336559938451" />
    <path d="M1501.8105978882827 1893.336559938451 L262.56597238460427 1850.0611840273496" />
    <path d="M262.56597238460427 1850.0611840273496 L317.8002424990958 268.35863513179424" />
    <path d="M331.33601001149736 276.5317586882894 L317.8829798113899 618.9342417734438" />
    <path d="M317.8829798113899 618.9342417734438 L1508.244813208641 1906.6604182531853" />
    <path d="M1508.244813208641 1906.6604182531853 L269.20080827014476 1857.9782467119403" />
    <path d="M269.20080827014476 1857.9782467119403 L331.33601001149736 276.5317586882894" />
    <path d="M344.79058294459713 284.80565275207596 L329.84367287407537 627.1461766807926" />
    <path d="M329.84367287407537 627.1461766807926 L1514.5754273025623 1920.0540117753128" />
    <path d="M1514.5754273025623 1920.0540117753128 L275.75563254105873 1865.9659714422962" />
    <path d="M275.75563254105873 1865.9659714422962 L344.79058294459713 284.80565275207596" />
    <path d="M358.16334047854104 293.1797635779466 L341.7228351052272 635.451810680123" />
    <path d="M341.7228351052272 635.451810680123 L1520.8019549800995 1933.5166892879283" />
    <path d="M1520.8019549800995 1933.5166892879283 L282.22995573876074 1874.0238099214619" />
    <path d="M282.22995573876074 1874.0238099214619 L358.16334047854104 293.1797635779466" />
    <path d="M371.45366508343375 301.6535339253404 L353.5198774108517 643.8505878345744" />
    <path d="M353.5198774108517 643.8505878345744 L1526.9239147652727 1947.0477966714964" />
    <path d="M1526.9239147652727 1947.0477966714964 L288.62329166960126 1882.151210930246" />
    <path d="M288.62329166960126 1882.151210930246 L371.45366508343375 301.6535339253404" />
    <path d="M384.66094253800475 310.2264030765259 L365.2342139996207 652.3419488541774" />
    <path d="M365.2342139996207 652.3419488541774 L1532.940828912145 1960.646676923878" />
    <path d="M1532.940828912145 1960.646676923878 L294.9351574210326 1890.34762034529" />
    <path d="M294.9351574210326 1890.34762034529 L384.66094253800475 310.2264030765259" />
    <path d="M397.78456194817943 318.8978068548795 L376.8652624009018 660.9253311141058" />
    <path d="M376.8652624009018 660.9253311141058 L1538.8522234207942 1974.3126701804433" />
    <path d="M1538.8522234207942 1974.3126701804433 L301.1650733776793 1898.6124811572208" />
    <path d="M301.1650733776793 1898.6124811572208 L397.78456194817943 318.8978068548795" />
    <path d="M410.8239157655526 327.66717764326097 L388.41244348269026 669.6001686730224" />
    <path d="M388.41244348269026 669.6001686730224 L1544.657628053181 1988.0451137342682" />
    <path d="M1544.657628053181 1988.0451137342682 L307.3125632373128 1906.9452334888906" />
    <path d="M307.3125632373128 1906.9452334888906 L410.8239157655526 327.66717764326097" />
    <path d="M423.7783998057654 336.53394440248337 L399.8751814694451 678.3658922915165" />
    <path d="M399.8751814694451 678.3658922915165 L1550.3565763489116 2001.8433420564138" />
    <path d="M1550.3565763489116 2001.8433420564138 L313.3771540267297 1915.3453146136985" />
    <path d="M313.3771540267297 1915.3453146136985 L423.7783998057654 336.53394440248337" />
    <path d="M436.64741326678455 345.49753268987797 L411.25290395982773 687.2219294506351" />
    <path d="M411.25290395982773 687.2219294506351 L1555.9486056408948 2015.7066868162924" />
    <path d="M1555.9486056408948 2015.7066868162924 L319.35837611753266 1923.8121589739972" />
    <path d="M319.35837611753266 1923.8121589739972 L436.64741326678455 345.49753268987797" />
    <path d="M449.43035874708363 354.5573646779534 L422.54504194434213 696.1677043705051" />
    <path d="M422.54504194434213 696.1677043705051 L1561.433257070893 2029.6344769021116" />
    <path d="M1561.433257070893 2029.6344769021116 L325.2557632418144 1932.345198199584" />
    <path d="M325.2557632418144 1932.345198199584 L449.43035874708363 354.5573646779534" />
    <path d="M462.1266422637258 363.71285917314833 L433.75102982287706 705.202638029048" />
    <path d="M433.75102982287706 705.202638029048 L1566.8100756049678 2043.6260384414056" />
    <path d="M1566.8100756049678 2043.6260384414056 L331.0688525077437 1940.9438611262722" />
    <path d="M331.0688525077437 1940.9438611262722 L462.1266422637258 363.71285917314833" />
    <path d="M474.73567327034743 372.96343163467895 L444.87030542214995 714.3261481807837" />
    <path d="M444.87030542214995 714.3261481807837 L1572.078610048818 2057.6806948216445" />
    <path d="M1572.078610048818 2057.6806948216445 L336.7971844150538 1949.6075738145482" />
    <path d="M336.7971844150538 1949.6075738145482 L474.73567327034743 372.96343163467895" />
    <path d="M487.25686467504283 382.30849419347624 L455.9023100130503 723.5376493757269" />
    <path d="M455.9023100130503 723.5376493757269 L1577.2384130630116 2071.797766710926" />
    <path d="M1577.2384130630116 2071.797766710926 L342.4403028704313 1958.3357595683076" />
    <path d="M342.4403028704313 1958.3357595683076 L487.25686467504283 382.30849419347624" />
    <path d="M499.68963285814806 391.74745567121886 L466.8464883278847 732.8365529783721" />
    <path d="M466.8464883278847 732.8365529783721 L1582.2890411781086 2085.976572078752" />
    <path d="M1582.2890411781086 2085.976572078752 L347.99775520280696 1967.1278389536737" />
    <path d="M347.99775520280696 1967.1278389536737 L499.68963285814806 391.74745567121886" />
    <path d="M512.0333976899257 401.27972159945557 L477.70228857752085 742.222267186768" />
    <path d="M477.70228857752085 742.222267186768 L1587.2300548096766 2100.216426216873" />
    <path d="M1587.2300548096766 2100.216426216873 L353.46909217854625 1975.9832298178985" />
    <path d="M353.46909217854625 1975.9832298178985 L512.0333976899257 401.27972159945557" />
    <path d="M524.287582548147 410.9046942388195 L488.4691624684311 751.6941970516812" />
    <path d="M488.4691624684311 751.6941970516812 L1592.0610182731994 2114.5166417602304" />
    <path d="M1592.0610182731994 2114.5166417602304 L358.8538680165408 1984.90134730834" />
    <path d="M358.8538680165408 1984.90134730834 L524.287582548147 410.9046942388195" />
    <path d="M536.4516143355752 420.62177259833334 L499.14656521963525 761.2517444958481" />
    <path d="M499.14656521963525 761.2517444958481 L1596.7814997988753 2128.8765287079605" />
    <path d="M1596.7814997988753 2128.8765287079605 L364.15164040319917 1993.8816038915245" />
    <path d="M364.15164040319917 1993.8816038915245 L536.4516143355752 420.62177259833334" />
    <path d="M548.5249234973443 430.43035245480473 L509.73395557954154 770.8943083333154" />
    <path d="M509.73395557954154 770.8943083333154 L1601.3910715463057 2143.295394444488" />
    <path d="M1601.3910715463057 2143.295394444488 L369.3619705073373 2002.9234093722835" />
    <path d="M369.3619705073373 2002.9234093722835 L548.5249234973443 430.43035245480473" />
    <path d="M560.506944038238 440.3298263723111 L520.2307958426857 780.6212842888658" />
    <path d="M520.2307958426857 780.6212842888658 L1605.8893096190754 2157.772543760693" />
    <path d="M1605.8893096190754 2157.772543760693 L374.48442299496696 2012.0261709129743" />
    <path d="M374.48442299496696 2012.0261709129743 L560.506944038238 440.3298263723111" />
    <path d="M572.3971135398644 450.31958372177405 L530.6365518663673 790.4320650175337" />
    <path d="M530.6365518663673 790.4320650175337 L1610.2757940792235 2172.3072788751556" />
    <path d="M1610.2757940792235 2172.3072788751556 L379.5185660439845 2021.1892930527727" />
    <path d="M379.5185660439845 2021.1892930527727 L572.3971135398644 450.31958372177405" />
    <path d="M584.1948731777288 460.39901070062115 L540.9506930871845 800.3260401242035" />
    <path d="M540.9506930871845 800.3260401242035 L1614.5501089616023 2186.898899455479" />
    <path d="M1614.5501089616023 2186.898899455479 L384.46397135875566 2030.4121777270498" />
    <path d="M384.46397135875566 2030.4121777270498 L584.1948731777288 460.39901070062115" />
    <path d="M595.8996677382015 470.56749035253847 L551.1726925374638 810.3025961832974" />
    <path d="M551.1726925374638 810.3025961832974 L1618.7118422881244 2201.546702639686" />
    <path d="M1618.7118422881244 2201.546702639686 L389.3202141845999 2039.6942242868222" />
    <path d="M389.3202141845999 2039.6942242868222 L595.8996677382015 470.56749035253847" />
    <path d="M607.510945635383 480.8244025873074 L561.3020268615873 820.3611167585457" />
    <path d="M561.3020268615873 820.3611167585457 L1622.7605860819044 2216.2499830576958" />
    <path d="M1622.7605860819044 2216.2499830576958 L394.0868733221708 2049.0348295182794" />
    <path d="M394.0868733221708 2049.0348295182794 L607.510945635383 480.8244025873074" />
    <path d="M619.0281589278643 491.1691242007312 L571.3381763322152 830.5009824228425" />
    <path d="M571.3381763322152 830.5009824228425 L1626.6959363812812 2231.0080328528707" />
    <path d="M1626.6959363812812 2231.0080328528707 L398.76353114173406 2058.4333876623896" />
    <path d="M398.76353114173406 2058.4333876623896 L619.0281589278643 491.1691242007312" />
    <path d="M630.4507633353817 501.6010288946467 L581.2806248664042 840.7215707781868" />
    <path d="M581.2806248664042 840.7215707781868 L1630.517493253733 2245.82014170364" />
    <path d="M1630.517493253733 2245.82014170364 L403.34977359734194 2067.8892904345776" />
    <path d="M403.34977359734194 2067.8892904345776 L630.4507633353817 501.6010288946467" />
    <path d="M641.7782182553675 512.119487297022 L591.1288600416209 851.0222564757056" />
    <path d="M591.1288600416209 851.0222564757056 L1634.2248608096806 2260.685596845199" />
    <path d="M1634.2248608096806 2260.685596845199 L407.8451902409038 2077.4019270444824" />
    <path d="M407.8451902409038 2077.4019270444824 L641.7782182553675 512.119487297022" />
    <path d="M653.0099867793936 522.7238669821411 L600.8823731116488 861.4024112357604" />
    <path d="M600.8823731116488 861.4024112357604 L1637.8176472161754 2275.60368309128" />
    <path d="M1637.8176472161754 2275.60368309128 L412.24937423615205 2086.9706842157834" />
    <path d="M412.24937423615205 2086.9706842157834 L653.0099867793936 522.7238669821411" />
    <path d="M664.1455357095099 533.4135324908702 L610.5406590223909 871.8614038681374" />
    <path d="M610.5406590223909 871.8614038681374 L1641.2954647104752 2290.5736828559943" />
    <path d="M1641.2954647104752 2290.5736828559943 L416.56192237250457 2096.594946206108" />
    <path d="M416.56192237250457 2096.594946206108 L664.1455357095099 533.4135324908702" />
    <path d="M675.1843355744763 544.1878453510126 L620.1032164275653 882.3986002923187" />
    <path d="M620.1032164275653 882.3986002923187 L1644.6579296135083 2305.5948761757504" />
    <path d="M1644.6579296135083 2305.5948761757504 L420.78243507882087 2106.274094827006" />
    <path d="M420.78243507882087 2106.274094827006 L675.1843355744763 544.1878453510126" />
    <path d="M686.125860645886 555.0461640977438 L629.5695477042937 893.0133635578351" />
    <path d="M629.5695477042937 893.0133635578351 L1647.9046623432205 2320.666540731242" />
    <path d="M1647.9046623432205 2320.666540731242 L424.9105164370535 2116.007509464002" />
    <path d="M424.9105164370535 2116.007509464002 L686.125860645886 555.0461640977438" />
    <path d="M696.9695889541836 565.9878442941318 L638.9391589685845 903.7050538646997" />
    <path d="M638.9391589685845 903.7050538646997 L1651.03528742781 2335.7879518695063" />
    <path d="M1651.03528742781 2335.7879518695063 L428.94577419579394 2125.794567096716" />
    <path d="M428.94577419579394 2125.794567096716 L696.9695889541836 565.9878442941318" />
    <path d="M707.7150023045737 577.0122385517395 L648.2115600907055 914.4730285839228" />
    <path d="M648.2115600907055 914.4730285839228 L1654.0494335188498 2350.958382626054" />
    <path d="M1654.0494335188498 2350.958382626054 L432.88781978371196 2135.6346423190607" />
    <path d="M432.88781978371196 2135.6346423190607 L707.7150023045737 577.0122385517395" />
    <path d="M718.361586292822 588.1186965513098 L657.3862647104523 925.3166422781054" />
    <path d="M657.3862647104523 925.3166422781054 L1656.9467334042893 2366.17710374707" />
    <path d="M1656.9467334042893 2366.17710374707 L436.7362683228886 2145.527107359506" />
    <path d="M436.7362683228886 2145.527107359506 L718.361586292822 588.1186965513098" />
    <path d="M728.9088303209477 599.3065650635311 L666.4627902523052 936.2352467221128" />
    <path d="M666.4627902523052 936.2352467221128 L1659.7268240213461 2381.4433837116794" />
    <path d="M1659.7268240213461 2381.4433837116794 L440.4907386420424 2155.4713321014165" />
    <path d="M440.4907386420424 2155.4713321014165 L728.9088303209477 599.3065650635311" />
    <path d="M739.3562276128057 610.5751879698855 L675.4406579404794 947.2281909238268" />
    <path d="M675.4406579404794 947.2281909238268 L1662.3893464692806 2396.7564887542894" />
    <path d="M1662.3893464692806 2396.7564887542894 L444.15085328964847 2165.4666841034586" />
    <path d="M444.15085328964847 2165.4666841034586 L739.3562276128057 610.5751879698855" />
    <path d="M749.7032752295612 621.9239062835762 L684.3193928138652 958.2948211449757" />
    <path d="M684.3193928138652 958.2948211449757 L1664.933946022053 2412.1156828869944" />
    <path d="M1664.933946022053 2412.1156828869944 L447.7162385469497 2175.5125286200787" />
    <path d="M447.7162385469497 2175.5125286200787 L749.7032752295612 621.9239062835762" />
    <path d="M759.9494740850525 633.3520581705353 L693.0985237408593 969.4344809220422" />
    <path d="M693.0985237408593 969.4344809220422 L1667.360272140866 2427.5202279220466" />
    <path d="M1667.360272140866 2427.5202279220466 L451.18652444086024 2185.608228622048" />
    <path d="M451.18652444086024 2185.608228622048 L759.9494740850525 633.3520581705353" />
    <path d="M770.094328961045 644.8589789705114 L701.7775834340855 980.646511087249" />
    <path d="M701.7775834340855 980.646511087249 L1669.6679784865896 2442.969383494402" />
    <path d="M1669.6679784865896 2442.969383494402 L454.56134475676095 2195.7531448170776" />
    <path d="M454.56134475676095 2195.7531448170776 L770.094328961045 644.8589789705114" />
    <path d="M780.1373485223731 656.444001218235 L710.3561084650057 991.9302497896191" />
    <path d="M710.3561084650057 991.9302497896191 L1671.8567229320695 2458.462407084323" />
    <path d="M1671.8567229320695 2458.462407084323 L457.84033705118566 2205.9466356705025" />
    <path d="M457.84033705118566 2205.9466356705025 L780.1373485223731 656.444001218235" />
    <path d="M790.0780453319724 668.1064546646635 L718.8336392784202 1003.2850325161141" />
    <path d="M718.8336392784202 1003.2850325161141 L1673.9261675743178 2473.998554040055" />
    <path d="M1673.9261675743178 2473.998554040055 L461.0231426643986 2216.188057426033" />
    <path d="M461.0231426643986 2216.188057426033 L790.0780453319724 668.1064546646635" />
    <path d="M799.9159358657986 679.8456662983024 L727.2097202068564 1014.7101921128469" />
    <path d="M727.2097202068564 1014.7101921128469 L1675.875978746585 2489.577077600562" />
    <path d="M1675.875978746585 2489.577077600562 L464.1094067328631 2226.476764126569" />
    <path d="M464.1094067328631 2226.476764126569 L799.9159358657986 679.8456662983024" />
    <path d="M809.6505405276368 691.6609603666051 L735.4838994848469 1026.205058806369" />
    <path d="M735.4838994848469 1026.205058806369 L1677.7058270303169 2505.197228918334" />
    <path d="M1677.7058270303169 2505.197228918334 L467.09877820159943 2236.8121076350862" />
    <path d="M467.09877820159943 2236.8121076350862 L809.6505405276368 691.6609603666051" />
    <path d="M819.2813836637964 703.5516583974481 L743.6557292630954 1037.7689602250318" />
    <path d="M743.6557292630954 1037.7689602250318 L1679.4153872669897 2520.8582570822487" />
    <path d="M1679.4153872669897 2520.8582570822487 L469.99090983643407 2247.1934376555873" />
    <path d="M469.99090983643407 2247.1934376555873 L819.2813836637964 703.5516583974481" />
    <path d="M828.807993577694 715.5170792206827 L751.7247656225296 1049.4012214204233" />
    <path d="M751.7247656225296 1049.4012214204233 L1681.0043385698286 2536.5594091405073" />
    <path d="M1681.0043385698286 2536.5594091405073 L472.78545823613706 2257.620101754115" />
    <path d="M472.78545823613706 2257.620101754115 L828.807993577694 715.5170792206827" />
    <path d="M838.2299025443241 727.556538989762 L759.6905685882435 1061.1011648888757" />
    <path d="M759.6905685882435 1061.1011648888757 L1682.472364335406 2552.299930123625" />
    <path d="M1682.472364335406 2552.299930123625 L475.48208384445 2268.0914453798314" />
    <path d="M475.48208384445 2268.0914453798314 L838.2299025443241 727.556538989762" />
    <path d="M847.5466468246152 739.6693512034428 L767.552702143325 1072.8681105930466" />
    <path d="M767.552702143325 1072.8681105930466 L1683.8191522551215 2568.0790630674883" />
    <path d="M1683.8191522551215 2568.0790630674883 L478.0804509620023 2278.606811886166" />
    <path d="M478.0804509620023 2278.606811886166 L847.5466468246152 739.6693512034428" />
    <path d="M856.7577666796724 751.8548267275619 L775.3107342425704 1084.701375983573" />
    <path d="M775.3107342425704 1084.701375983573 L1685.04439432656 2583.8960490364716" />
    <path d="M1685.04439432656 2583.8960490364716 L480.5802277581158 2289.1655425520166" />
    <path d="M480.5802277581158 2289.1655425520166 L856.7577666796724 751.8548267275619" />
    <path d="M865.8628063849063 764.1122738168854 L782.9642368260869 1096.6002760207934" />
    <path d="M782.9642368260869 1096.6002760207934 L1686.1477868647344 2599.7501271466167" />
    <path d="M1686.1477868647344 2599.7501271466167 L482.981086282499 2299.7669766030285" />
    <path d="M482.981086282499 2299.7669766030285 L865.8628063849063 764.1122738168854" />
    <path d="M874.8613142440469 776.4409981370313 L790.5127858327786 1108.5641231965458" />
    <path d="M790.5127858327786 1108.5641231965458 L1687.1290305132025 2615.6405345888725" />
    <path d="M1687.1290305132025 2615.6405345888725 L485.28270247682724 2310.4104512329213" />
    <path d="M485.28270247682724 2310.4104512329213 L874.8613142440469 776.4409981370313" />
    <path d="M883.7528426030419 788.8403027864664 L797.95596121372 1120.5922275560313" />
    <path d="M797.95596121372 1120.5922275560313 L1687.9878302550662 2631.566506652392" />
    <path d="M1687.9878302550662 2631.566506652392 L487.4847561862127 2321.0953016248845" />
    <path d="M487.4847561862127 2321.0953016248845 L883.7528426030419 788.8403027864664" />
    <path d="M892.5369478638416 801.3094883185713 L805.2933469454142 1132.683896719749" />
    <path d="M805.2933469454142 1132.683896719749 L1688.7238954238496 2647.5272767478928" />
    <path d="M1688.7238954238496 2647.5272767478928 L489.58693117056 2331.820860973038" />
    <path d="M489.58693117056 2331.820860973038 L892.5369478638416 801.3094883185713" />
    <path d="M901.2131904980661 813.8478527637808 L812.5245310429357 1144.8384359055015" />
    <path d="M812.5245310429357 1144.8384359055015 L1689.3369397142546 2663.5220764310716" />
    <path d="M1689.3369397142546 2663.5220764310716 L491.58891511581 2342.586460503946" />
    <path d="M491.58891511581 2342.586460503946 L901.2131904980661 813.8478527637808" />
    <path d="M909.7811350605576 826.4546916517921 L819.6491055729582 1157.0551479504654" />
    <path d="M819.6491055729582 1157.0551479504654 L1689.8266811927979 2679.5501354260823" />
    <path d="M1689.8266811927979 2679.5501354260823 L493.4903996450696 2353.3914294981932" />
    <path d="M493.4903996450696 2353.3914294981932 L909.7811350605576 826.4546916517921" />
    <path d="M918.240350202816 839.1292980338451 L826.6666666666666 1169.3333333333333" />
    <path d="M826.6666666666666 1169.3333333333333 L1690.192842308321 2695.6106816490637" />
    <path d="M1690.192842308321 2695.6106816490637 L495.2910803296282 2364.235095312026" />
    <path d="M495.2910803296282 2364.235095312026 L918.240350202816 839.1292980338451" />
    <path d="M926.5904086863178 851.8709625050708 L833.5768145325524 1181.6722901965204" />
    <path d="M833.5768145325524 1181.6722901965204 L1690.4351499023828 2711.702941231735" />
    <path d="M1690.4351499023828 2711.702941231735 L496.9906566998604 2375.116783399043" />
    <path d="M496.9906566998604 2375.116783399043 L926.5904086863178 851.8709625050708" />
    <path d="M934.830887395718 864.6789732269091 L840.379153469093 1194.0713143684395" />
    <path d="M840.379153469093 1194.0713143684395 L1690.5533352195293 2727.8261385450337" />
    <path d="M1690.5533352195293 2727.8261385450337 L498.58883225601414 2386.0358173319546" />
    <path d="M498.58883225601414 2386.0358173319546 L934.830887395718 864.6789732269091" />
    <path d="M942.9613673519347 877.552615949596 L847.0732918773148 1206.5296993858408" />
    <path d="M847.0732918773148 1206.5296993858408 L1690.5471339174362 2743.9794962228225" />
    <path d="M1690.5471339174362 2743.9794962228225 L500.0853144788846 2396.991518824392" />
    <path d="M500.0853144788846 2396.991518824392 L942.9613673519347 877.552615949596" />
    <path d="M950.9814337251149 890.4911740347171 L853.6588422732375 1219.0467365162178" />
    <path d="M853.6588422732375 1219.0467365162178 L1690.416286076933 2760.1622351856413" />
    <path d="M1690.416286076933 2760.1622351856413 L501.4798148403734 2407.983207752777" />
    <path d="M501.4798148403734 2407.983207752777 L950.9814337251149 890.4911740347171" />
    <path d="M958.8906758474841 903.4939284778288 L860.1354213002029 1231.6217147802784" />
    <path d="M860.1354213002029 1231.6217147802784 L1690.1605362119021 2776.373574664519" />
    <path d="M1690.1605362119021 2776.373574664519 L502.7720488139322 2419.010202178248" />
    <path d="M502.7720488139322 2419.010202178248 L958.8906758474841 903.4939284778288" />
    <path d="M966.6886872260757 916.5601579311463 L866.5026497410845 1244.2539209744796" />
    <path d="M866.5026497410845 1244.2539209744796 L1689.779633279055 2792.6127322248367" />
    <path d="M1689.779633279055 2792.6127322248367 L503.961735884891 2430.071818368643" />
    <path d="M503.961735884891 2430.071818368643 L966.6886872260757 916.5601579311463" />
    <path d="M974.375065555342 929.6891387262971 L872.7601525303797 1256.9426396936262" />
    <path d="M872.7601525303797 1256.9426396936262 L1689.2733306875834 2808.8789237902456" />
    <path d="M1689.2733306875834 2808.8789237902456 L505.04859956067185 2441.1673708205376" />
    <path d="M505.04859956067185 2441.1673708205376 L974.375065555342 929.6891387262971" />
    <path d="M981.9494127296472 942.8801448971409 L878.9075587661829 1269.6871533535332" />
    <path d="M878.9075587661829 1269.6871533535332 L1688.641386308686 2825.171363666633" />
    <path d="M1688.641386308686 2825.171363666633 L506.03236738088435 2452.2961722813343" />
    <path d="M506.03236738088435 2452.2961722813343 L981.9494127296472 942.8801448971409" />
    <path d="M989.4113348556391 956.1324482026525 L884.9445017220407 1282.4867422137493" />
    <path d="M884.9445017220407 1282.4867422137493 L1687.8835624849726 2841.4892645661475" />
    <path d="M1687.8835624849726 2841.4892645661475 L506.91277092730746 2463.457533771414" />
    <path d="M506.91277092730746 2463.457533771414 L989.4113348556391 956.1324482026525" />
    <path d="M996.7604422645026 969.4453181498708 L890.8706188586873 1295.3406844003434" />
    <path d="M890.8706188586873 1295.3406844003434 L1686.999626039743 2857.831837631268" />
    <path d="M1686.999626039743 2857.831837631268 L507.68954583375256 2474.6507646063337" />
    <path d="M507.68954583375256 2474.6507646063337 L996.7604422645026 969.4453181498708" />
    <path d="M1003.9963495240921 982.818022016909 L896.6855518356606 1308.248255928752" />
    <path d="M896.6855518356606 1308.248255928752 L1685.989348286139 2874.1982924589292" />
    <path d="M1685.989348286139 2874.1982924589292 L508.3624317958113 2485.8751724190797" />
    <path d="M508.3624317958113 2485.8751724190797 L1003.9963495240921 982.818022016909" />
    <path d="M1011.1186754509445 996.2498248760306 L902.3889465227995 1321.2087307266881" />
    <path d="M902.3889465227995 1321.2087307266881 L1684.8525050361725 2890.5878371246895" />
    <path d="M1684.8525050361725 2890.5878371246895 L508.9311725804853 2497.130063182375" />
    <path d="M508.9311725804853 2497.130063182375 L1011.1186754509445 996.2498248760306" />
    <path d="M1018.1270431221694 1009.7399896167851 L907.9804530116194 1334.221380657108" />
    <path d="M907.9804530116194 1334.221380657108 L1683.58887660963 2906.9996782069593" />
    <path d="M1683.58887660963 2906.9996782069593 L509.3955160356991 2508.414741231039" />
    <path d="M509.3955160356991 2508.414741231039 L1018.1270431221694 1009.7399896167851" />
    <path d="M1025.0210798872213 1023.287776969207 L913.459725626569 1347.2854755412395" />
    <path d="M913.459725626569 1347.2854755412395 L1682.1982478428476 2923.4330208112665" />
    <path d="M1682.1982478428476 2923.4330208112665 L509.75521409969485 2519.728509284392" />
    <path d="M509.75521409969485 2519.728509284392 L1025.0210798872213 1023.287776969207" />
    <path d="M1031.800417379548 1036.8924455270749 L918.8264229361662 1360.400283181669" />
    <path d="M918.8264229361662 1360.400283181669 L1680.6804080973625 2939.8870685945776" />
    <path d="M1680.6804080973625 2939.8870685945776 L510.01002281031003 2531.070668468721" />
    <path d="M510.01002281031003 2531.070668468721 L1031.800417379548 1036.8924455270749" />
    <path d="M1038.4646915281173 1050.553251771232 L924.0802077640118 1373.5650693854852" />
    <path d="M924.0802077640118 1373.5650693854852 L1679.0351512684374 2956.361023789662" />
    <path d="M1679.0351512684374 2956.361023789662 L510.159702314136 2542.440518339786" />
    <path d="M510.159702314136 2542.440518339786 L1038.4646915281173 1050.553251771232" />
    <path d="M1045.013542568824 1064.2694500929656 L929.2207471996841 1386.779097987482" />
    <path d="M929.2207471996841 1386.779097987482 L1677.2622757934582 2972.8540872295066" />
    <path d="M1677.2622757934582 2972.8540872295066 L510.2040168755587 2553.837356905381" />
    <path d="M510.2040168755587 2553.837356905381 L1045.013542568824 1064.2694500929656" />
    <path d="M1051.4466150557723 1078.0402928174458 L934.2477126095098 1400.041630873417" />
    <path d="M934.2477126095098 1400.041630873417 L1675.361584660207 2989.3654583717725" />
    <path d="M1675.361584660207 2989.3654583717725 L510.1427348856807 2565.2604806479435" />
    <path d="M510.1427348856807 2565.2604806479435 L1051.4466150557723 1078.0402928174458" />
    <path d="M1057.7635578724357 1091.8650302272245 L939.1607796472149 1413.3519280033288" />
    <path d="M939.1607796472149 1413.3519280033288 L1673.332885415004 3005.8943353233003" />
    <path d="M1673.332885415004 3005.8943353233003 L509.9756288711237 2576.709184547209" />
    <path d="M509.9756288711237 2576.709184547209 L1057.7635578724357 1091.8650302272245" />
    <path d="M1063.9640242426967 1105.7429105857886 L943.9596282644526 1426.7092474349063" />
    <path d="M943.9596282644526 1426.7092474349063 L1671.175990170726 3022.439914864659" />
    <path d="M1671.175990170726 3022.439914864659 L509.702475502713 2588.182762102919" />
    <path d="M509.702475502713 2588.182762102919 L1063.9640242426967 1105.7429105857886" />
    <path d="M1070.0476717417594 1119.6731801611759 L948.6439427212086 1440.112845346916" />
    <path d="M948.6439427212086 1440.112845346916 L1668.8907156146956 3039.001392474738" />
    <path d="M1668.8907156146956 3039.001392474738 L509.3230556040411 2599.68050535757" />
    <path d="M509.3230556040411 2599.68050535757 L1070.0476717417594 1119.6731801611759" />
    <path d="M1076.0141623069412 1133.6550832496425 L953.2134115960848 1453.5619760626837" />
    <path d="M953.2134115960848 1453.5619760626837 L1666.476883016443 3055.5779623553863" />
    <path d="M1666.476883016443 3055.5779623553863 L508.83715415991253 2611.2017049192136" />
    <path d="M508.83715415991253 2611.2017049192136 L1076.0141623069412 1133.6550832496425" />
    <path d="M1081.8631622483406 1147.6878621993892 L957.6677277964588 1467.0558920736282" />
    <path d="M957.6677277964588 1467.0558920736282 L1663.934318235339 3072.1688174560877" />
    <path d="M1663.934318235339 3072.1688174560877 L508.2445603246689 2622.7456499842983" />
    <path d="M508.2445603246689 2622.7456499842983 L1081.8631622483406 1147.6878621993892" />
    <path d="M1087.5943422593803 1161.7707574343433 L962.006588568521 1480.5938440628504" />
    <path d="M962.006588568521 1480.5938440628504 L1661.2628517281032 3088.7731494986892" />
    <path d="M1661.2628517281032 3088.7731494986892 L507.54506743039246 2634.3116283605605" />
    <path d="M507.54506743039246 2634.3116283605605 L1087.5943422593803 1161.7707574343433" />
    <path d="M1093.2073774272258 1175.903007477994 L966.2296955071886 1494.1750809287732" />
    <path d="M966.2296955071886 1494.1750809287732 L1658.462318556178 3105.3901490021562" />
    <path d="M1658.462318556178 3105.3901490021562 L506.7384729949917 2645.898926489959" />
    <path d="M506.7384729949917 2645.898926489959 L1093.2073774272258 1175.903007477994" />
    <path d="M1098.70194724308 1190.0838489772825 L970.3367545658941 1507.798849808835" />
    <path d="M970.3367545658941 1507.798849808835 L1655.5325583929798 3122.019005307382" />
    <path d="M1655.5325583929798 3122.019005307382 L505.8245787301633 2657.506829471651" />
    <path d="M505.8245787301633 2657.506829471651 L1098.70194724308 1190.0838489772825" />
    <path d="M1104.077735612353 1204.3125167265468 L974.3274760662525 1521.464396103233" />
    <path d="M974.3274760662525 1521.464396103233 L1652.4734155310182 3138.658906602032" />
    <path d="M1652.4734155310182 3138.658906602032 L504.80319054923586 2669.134621085015" />
    <path d="M504.80319054923586 2669.134621085015 L1104.077735612353 1204.3125167265468" />
  </g>
</svg>