<?xml version="1.0" standalone="no"?>
<!DOCTYPE svg PUBLIC "-//W3C//DTD SVG 1.1//EN" 
    "http://www.w3.org/Graphics/SVG/1.1/DTD/svg11.dtd">
<svg width="8.5in" height="11in"
    xmlns="http://www.w3.org/2000/svg" version="1.1" viewBox="0 0 765 990">
  <g fill="none" stroke="black" stroke-width="0.01181in">
    <path d="M45 46.06312 L45 134.04302" />
    <path d="M45 143.04302 L45 220.16257" />
    <path d="M45 229.16257 L45 284.61606" />
    <path d="M45 293.61606 L45 298.94028" />
    <path d="M45 307.94028 L45 363.06584" />
    <path d="M45 372.06584 L45 415.20422" />
    <path d="M45 424.20422 L45 488.07193" />
    <path d="M45 497.07193 L45 543.10932" />
    <path d="M45 552.10932 L45 621.51879" />
    <path d="M45 630.51879 L45 690.01185" />
    <path d="M45 699.01185 L45 721.77651" />
    <path d="M45 730.77651 L45 733.49591" />
    <path d="M45 742.49591 L45 742.55279" />
    <path d="M45 751.55279 L45 790.79937" />
    <path d="M45 799.79937 L45 881.52043" />
    <path d="M45 890.52043 L45 928.2616" />
    <path d="M45 937.2616 L45 945" />
    <path d="M51.75 45 L51.75 95.86623" />
    <path d="M51.75 104.86623 L51.75 129.45601" />
    <path d="M51.75 138.45601 L51.75 202.58604" />
    <path d="M51.75 211.58604 L51.75 296.98171" />
    <path d="M51.75 305.98171 L51.75 374.43946" />
    <path d="M51.75 383.43946 L51.75 461.22648" />
    <path d="M51.75 470.22648 L51.75 502.86578" />
    <path d="M51.75 511.86578 L51.75 590.88946" />
    <path d="M51.75 599.88946 L51.75 645.04845" />
    <path d="M51.75 654.04845 L51.75 733.66611" />
    <path d="M51.75 742.66611 L51.75 764.40976" />
    <path d="M51.75 773.40976 L51.75 811.45608" />
    <path d="M51.75 820.45608 L51.75 885.93062" />
    <path d="M51.75 894.93062 L51.75 924.22786" />
    <path d="M51.75 933.22786 L51.75 945" />
    <path d="M58.5 45 L58.5 51.5077" />
    <path d="M58.5 60.5077 L58.5 128.70115" />
    <path d="M58.5 137.70115 L58.5 141.41726" />
    <path d="M58.5 150.41726 L58.5 155.90724" />
    <path d="M58.5 164.90724 L58.5 247.75071" />
    <path d="M58.5 256.75071 L58.5 301.20043" />
    <path d="M58.5 310.20043 L58.5 368.8116" />
    <path d="M58.5 377.8116 L58.5 418.69573" />
    <path d="M58.5 427.69573 L58.5 504.06996" />
    <path d="M58.5 513.06996 L58.5 531.47066" />
    <path d="M58.5 540.47066 L58.5 609.4701" />
    <path d="M58.5 618.4701 L58.5 701.2889" />
    <path d="M58.5 710.2889 L58.5 763.31723" />
    <path d="M58.5 772.31723 L58.5 788.07243" />
    <path d="M58.5 797.07243 L58.5 826.95899" />
    <path d="M58.5 835.95899 L58.5 885.01251" />
    <path d="M58.5 894.01251 L58.5 896.74103" />
    <path d="M58.5 905.74103 L58.5 945" />
    <path d="M65.25 45 L65.25 64.44207" />
    <path d="M65.25 73.44207 L65.25 129.6829" />
    <path d="M65.25 138.6829 L65.25 205.18482" />
    <path d="M65.25 214.18482 L65.25 252.39209" />
    <path d="M65.25 261.39209 L65.25 347.41514" />
    <path d="M65.25 356.41514 L65.25 398.67647" />
    <path d="M65.25 407.67647 L65.25 478.87083" />
    <path d="M65.25 487.87083 L65.25 541.87932" />
    <path d="M65.25 550.87932 L65.25 591.93905" />
    <path d="M65.25 600.93905 L65.25 606.70322" />
    <path d="M65.25 615.70322 L65.25 692.33261" />
    <path d="M65.25 701.33261 L65.25 748.37279" />
    <path d="M65.25 757.37279 L65.25 831.21998" />
    <path d="M65.25 840.21998 L65.25 856.11674" />
    <path d="M65.25 865.11674 L65.25 884.2509" />
    <path d="M65.25 893.2509 L65.25 941.34931" />
    <path d="M72 50.45149 L72 59.43429" />
    <path d="M72 68.43429 L72 111.19409" />
    <path d="M72 120.19409 L72 171.67327" />
    <path d="M72 180.67327 L72 254.31116" />
    <path d="M72 263.31116 L72 293.71783" />
    <path d="M72 302.71783 L72 374.04495" />
    <path d="M72 383.04495 L72 472.58125" />
    <path d="M72 481.58125 L72 564.27401" />
    <path d="M72 573.27401 L72 663.1445" />
    <path d="M72 672.1445 L72 675.45362" />
    <path d="M72 684.45362 L72 719.73452" />
    <path d="M72 728.73452 L72 739.26642" />
    <path d="M72 748.26642 L72 772.12879" />
    <path d="M72 781.12879 L72 785.96456" />
    <path d="M72 794.96456 L72 879.95828" />
    <path d="M72 888.95828 L72 945" />
    <path d="M78.75 45 L78.75 130.78862" />
    <path d="M78.75 139.78862 L78.75 205.13547" />
    <path d="M78.75 214.13547 L78.75 254.99331" />
    <path d="M78.75 263.99331 L78.75 328.62404" />
    <path d="M78.75 337.62404 L78.75 339.39256" />
    <path d="M78.75 348.39256 L78.75 371.81544" />
    <path d="M78.75 380.81544 L78.75 429.89652" />
    <path d="M78.75 438.89652 L78.75 457.19602" />
    <path d="M78.75 466.19602 L78.75 533.09354" />
    <path d="M78.75 542.09354 L78.75 576.95551" />
    <path d="M78.75 585.95551 L78.75 654.12653" />
    <path d="M78.75 663.12653 L78.75 751.20612" />
    <path d="M78.75 760.20612 L78.75 832.74625" />
    <path d="M78.75 841.74625 L78.75 855.77835" />
    <path d="M78.75 864.77835 L78.75 916.20984" />
    <path d="M78.75 925.20984 L78.75 944.52975" />
    <path d="M85.5 45 L85.5 105.19755" />
    <path d="M85.5 114.19755 L85.5 118.69393" />
    <path d="M85.5 127.69393 L85.5 155.59484" />
    <path d="M85.5 164.59484 L85.5 165.74246" />
    <path d="M85.5 174.74246 L85.5 183.5968" />
    <path d="M85.5 192.5968 L85.5 265.30651" />
    <path d="M85.5 274.30651 L85.5 313.99856" />
    <path d="M85.5 322.99856 L85.5 377.56692" />
    <path d="M85.5 386.56692 L85.5 396.90572" />
    <path d="M85.5 405.90572 L85.5 429.12591" />
    <path d="M85.5 438.12591 L85.5 525.03497" />
    <path d="M85.5 534.03497 L85.5 595.03745" />
    <path d="M85.5 604.03745 L85.5 649.44699" />
    <path d="M85.5 658.44699 L85.5 675.5769" />
    <path d="M85.5 684.5769 L85.5 766.62831" />
    <path d="M85.5 775.62831 L85.5 815.54293" />
    <path d="M85.5 824.54293 L85.5 866.78592" />
    <path d="M85.5 875.78592 L85.5 927.59537" />
    <path d="M85.5 936.59537 L85.5 945" />
    <path d="M92.25 50.25491 L92.25 81.27459" />
    <path d="M92.25 90.27459 L92.25 156.37017" />
    <path d="M92.25 165.37017 L92.25 235.21069" />
    <path d="M92.25 244.21069 L92.25 311.55729" />
    <path d="M92.25 320.55729 L92.25 327.28884" />
    <path d="M92.25 336.28884 L92.25 395.18947" />
    <path d="M92.25 404.18947 L92.25 406.08819" />
    <path d="M92.25 415.08819 L92.25 460.87081" />
    <path d="M92.25 469.87081 L92.25 523.34962" />
    <path d="M92.25 532.34962 L92.25 541.54221" />
    <path d="M92.25 550.54221 L92.25 605.30987" />
    <path d="M92.25 614.30987 L92.25 677.28737" />
    <path d="M92.25 686.28737 L92.25 719.54023" />
    <path d="M92.25 728.54023 L92.25 762.03293" />
    <path d="M92.25 771.03293 L92.25 853.6823" />
    <path d="M92.25 862.6823 L92.25 935.35747" />
    <path d="M92.25 944.35747 L92.25 945" />
    <path d="M99 45 L99 59.29532" />
    <path d="M99 68.29532 L99 85.10541" />
    <path d="M99 94.10541 L99 159.33346" />
    <path d="M99 168.33346 L99 179.9188" />
    <path d="M99 188.9188 L99 198.03868" />
    <path d="M99 207.03868 L99 261.36569" />
    <path d="M99 270.36569 L99 337.53748" />
    <path d="M99 346.53748 L99 370.95612" />
    <path d="M99 379.95612 L99 460.86437" />
    <path d="M99 469.86437 L99 496.89477" />
    <path d="M99 505.89477 L99 556.14395" />
    <path d="M99 565.14395 L99 583.17532" />
    <path d="M99 592.17532 L99 624.14022" />
    <path d="M99 633.14022 L99 636.87772" />
    <path d="M99 645.87772 L99 689.06814" />
    <path d="M99 698.06814 L99 750.03553" />
    <path d="M99 759.03553 L99 832.23652" />
    <path d="M99 841.23652 L99 916.32824" />
    <path d="M99 925.32824 L99 934.9015" />
    <path d="M99 943.9015 L99 945" />
    <path d="M105.75 51.03145 L105.75 67.16722" />
    <path d="M105.75 76.16722 L105.75 137.37612" />
    <path d="M105.75 146.37612 L105.75 160.5032" />
    <path d="M105.75 169.5032 L105.75 211.39626" />
    <path d="M105.75 220.39626 L105.75 243.13982" />
    <path d="M105.75 252.13982 L105.75 264.37793" />
    <path d="M105.75 273.37793 L105.75 327.61269" />
    <path d="M105.75 336.61269 L105.75 410.37667" />
    <path d="M105.75 419.37667 L105.75 444.63192" />
    <path d="M105.75 453.63192 L105.75 506.19179" />
    <path d="M105.75 515.19179 L105.75 561.37483" />
    <path d="M105.75 570.37483 L105.75 600.2491" />
    <path d="M105.75 609.2491 L105.75 687.96054" />
    <path d="M105.75 696.96054 L105.75 782.87007" />
    <path d="M105.75 791.87007 L105.75 797.16562" />
    <path d="M105.75 806.16562 L105.75 875.25714" />
    <path d="M105.75 884.25714 L105.75 926.92339" />
    <path d="M105.75 935.92339 L105.75 945" />
    <path d="M112.5 45.71664 L112.5 81.93348" />
    <path d="M112.5 90.93348 L112.5 177.01204" />
    <path d="M112.5 186.01204 L112.5 246.69445" />
    <path d="M112.5 255.69445 L112.5 279.81048" />
    <path d="M112.5 288.81048 L112.5 294.45744" />
    <path d="M112.5 303.45744 L112.5 373.97582" />
    <path d="M112.5 382.97582 L112.5 445.73406" />
    <path d="M112.5 454.73406 L112.5 497.73846" />
    <path d="M112.5 506.73846 L112.5 576.59472" />
    <path d="M112.5 585.59472 L112.5 624.80649" />
    <path d="M112.5 633.80649 L112.5 658.36056" />
    <path d="M112.5 667.36056 L112.5 715.6695" />
    <path d="M112.5 724.6695 L112.5 762.69229" />
    <path d="M112.5 771.69229 L112.5 847.28544" />
    <path d="M112.5 856.28544 L112.5 944.85699" />
    <path d="M119.25 51.85591 L119.25 92.58793" />
    <path d="M119.25 101.58793 L119.25 146.86024" />
    <path d="M119.25 155.86024 L119.25 225.77464" />
    <path d="M119.25 234.77464 L119.25 264.33013" />
    <path d="M119.25 273.33013 L119.25 301.613" />
    <path d="M119.25 310.613 L119.25 344.47079" />
    <path d="M119.25 353.47079 L119.25 426.02128" />
    <path d="M119.25 435.02128 L119.25 483.43516" />
    <path d="M119.25 492.43516 L119.25 560.68946" />
    <path d="M119.25 569.68946 L119.25 573.62033" />
    <path d="M119.25 582.62033 L119.25 632.80303" />
    <path d="M119.25 641.80303 L119.25 668.18792" />
    <path d="M119.25 677.18792 L119.25 695.18231" />
    <path d="M119.25 704.18231 L119.25 717.33146" />
    <path d="M119.25 726.33146 L119.25 732.91908" />
    <path d="M119.25 741.91908 L119.25 775.98118" />
    <path d="M119.25 784.98118 L119.25 791.76249" />
    <path d="M119.25 800.76249 L119.25 841.01763" />
    <path d="M119.25 850.01763 L119.25 929.57313" />
    <path d="M119.25 938.57313 L119.25 942.72833" />
    <path d="M126 52.77415 L126 117.00417" />
    <path d="M126 126.00417 L126 208.21963" />
    <path d="M126 217.21963 L126 283.66433" />
    <path d="M126 292.66433 L126 357.70976" />
    <path d="M126 366.70976 L126 432.5494" />
    <path d="M126 441.5494 L126 520.07883" />
    <path d="M126 529.07883 L126 602.50922" />
    <path d="M126 611.50922 L126 634.5494" />
    <path d="M126 643.5494 L126 695.86456" />
    <path d="M126 704.86456 L126 718.45194" />
    <path d="M126 727.45194 L126 806.47326" />
    <path d="M126 815.47326 L126 863.64994" />
    <path d="M126 872.64994 L126 914.59217" />
    <path d="M126 923.59217 L126 945" />
    <path d="M132.75 45 L132.75 46.05375" />
    <path d="M132.75 55.05375 L132.75 75.86856" />
    <path d="M132.75 84.86856 L132.75 128.13419" />
    <path d="M132.75 137.13419 L132.75 196.47926" />
    <path d="M132.75 205.47926 L132.75 230.77521" />
    <path d="M132.75 239.77521 L132.75 293.98848" />
    <path d="M132.75 302.98848 L132.75 318.06759" />
    <path d="M132.75 327.06759 L132.75 412.34991" />
    <path d="M132.75 421.34991 L132.75 423.96052" />
    <path d="M132.75 432.96052 L132.75 514.1759" />
    <path d="M132.75 523.1759 L132.75 552.60126" />
    <path d="M132.75 561.60126 L132.75 607.64217" />
    <path d="M132.75 616.64217 L132.75 690.84739" />
    <path d="M132.75 699.84739 L132.75 705.285" />
    <path d="M132.75 714.285 L132.75 724.51802" />
    <path d="M132.75 733.51802 L132.75 767.36545" />
    <path d="M132.75 776.36545 L132.75 865.81841" />
    <path d="M132.75 874.81841 L132.75 920.40319" />
    <path d="M132.75 929.40319 L132.75 945" />
    <path d="M139.5 45 L139.5 82.72333" />
    <path d="M139.5 91.72333 L139.5 112.23474" />
    <path d="M139.5 121.23474 L139.5 199.58778" />
    <path d="M139.5 208.58778 L139.5 266.0285" />
    <path d="M139.5 275.0285 L139.5 284.72542" />
    <path d="M139.5 293.72542 L139.5 373.81153" />
    <path d="M139.5 382.81153 L139.5 424.71359" />
    <path d="M139.5 433.71359 L139.5 498.93536" />
    <path d="M139.5 507.93536 L139.5 593.3025" />
    <path d="M139.5 602.3025 L139.5 682.02243" />
    <path d="M139.5 691.02243 L139.5 750.74603" />
    <path d="M139.5 759.74603 L139.5 775.42032" />
    <path d="M139.5 784.42032 L139.5 862.08278" />
    <path d="M139.5 871.08278 L139.5 931.75992" />
    <path d="M139.5 940.75992 L139.5 945" />
    <path d="M146.25 45 L146.25 51.5852" />
    <path d="M146.25 60.5852 L146.25 84.19682" />
    <path d="M146.25 93.19682 L146.25 173.14584" />
    <path d="M146.25 182.14584 L146.25 268.40806" />
    <path d="M146.25 277.40806 L146.25 302.94768" />
    <path d="M146.25 311.94768 L146.25 329.65966" />
    <path d="M146.25 338.65966 L146.25 419.77268" />
    <path d="M146.25 428.77268 L146.25 506.61609" />
    <path d="M146.25 515.61609 L146.25 560.55098" />
    <path d="M146.25 569.55098 L146.25 577.45827" />
    <path d="M146.25 586.45827 L146.25 612.05691" />
    <path d="M146.25 621.05691 L146.25 693.7842" />
    <path d="M146.25 702.7842 L146.25 747.32742" />
    <path d="M146.25 756.32742 L146.25 769.82057" />
    <path d="M146.25 778.82057 L146.25 787.89092" />
    <path d="M146.25 796.89092 L146.25 821.51753" />
    <path d="M146.25 830.51753 L146.25 877.11736" />
    <path d="M146.25 886.11736 L146.25 892.83254" />
    <path d="M146.25 901.83254 L146.25 913.6984" />
    <path d="M146.25 922.6984 L146.25 945" />
    <path d="M153 52.26954 L153 78.1721" />
    <path d="M153 87.1721 L153 172.75516" />
    <path d="M153 181.75516 L153 237.34848" />
    <path d="M153 246.34848 L153 259.83275" />
    <path d="M153 268.83275 L153 334.46781" />
    <path d="M153 343.46781 L153 406.79119" />
    <path d="M153 415.79119 L153 422.32043" />
    <path d="M153 431.32043 L153 459.4472" />
    <path d="M153 468.4472 L153 496.89235" />
    <path d="M153 505.89235 L153 575.93154" />
    <path d="M153 584.93154 L153 594.21625" />
    <path d="M153 603.21625 L153 603.26285" />
    <path d="M153 612.26285 L153 668.93491" />
    <path d="M153 677.93491 L153 761.53741" />
    <path d="M153 770.53741 L153 856.75914" />
    <path d="M153 865.75914 L153 907.18845" />
    <path d="M153 916.18845 L153 933.43494" />
    <path d="M153 942.43494 L153 945" />
    <path d="M159.75 45 L159.75 121.27861" />
    <path d="M159.75 130.27861 L159.75 219.46782" />
    <path d="M159.75 228.46782 L159.75 276.48357" />
    <path d="M159.75 285.48357 L159.75 300.19615" />
    <path d="M159.75 309.19615 L159.75 388.34345" />
    <path d="M159.75 397.34345 L159.75 483.24987" />
    <path d="M159.75 492.24987 L159.75 493.3355" />
    <path d="M159.75 502.3355 L159.75 536.28299" />
    <path d="M159.75 545.28299 L159.75 577.64204" />
    <path d="M159.75 586.64204 L159.75 664.26527" />
    <path d="M159.75 673.26527 L159.75 697.29962" />
    <path d="M159.75 706.29962 L159.75 740.05617" />
    <path d="M159.75 749.05617 L159.75 755.68314" />
    <path d="M159.75 764.68314 L159.75 854.40519" />
    <path d="M159.75 863.40519 L159.75 945" />
    <path d="M166.5 49.39009 L166.5 84.02394" />
    <path d="M166.5 93.02394 L166.5 120.22011" />
    <path d="M166.5 129.22011 L166.5 204.75266" />
    <path d="M166.5 213.75266 L166.5 285.37125" />
    <path d="M166.5 294.37125 L166.5 378.96001" />
    <path d="M166.5 387.96001 L166.5 464.22606" />
    <path d="M166.5 473.22606 L166.5 543.141" />
    <path d="M166.5 552.141 L166.5 603.38255" />
    <path d="M166.5 612.38255 L166.5 613.68603" />
    <path d="M166.5 622.68603 L166.5 653.87685" />
    <path d="M166.5 662.87685 L166.5 699.54218" />
    <path d="M166.5 708.54218 L166.5 715.55787" />
    <path d="M166.5 724.55787 L166.5 809.16914" />
    <path d="M166.5 818.16914 L166.5 893.83767" />
    <path d="M166.5 902.83767 L166.5 945" />
    <path d="M173.25 45 L173.25 89.36348" />
    <path d="M173.25 98.36348 L173.25 111.49968" />
    <path d="M173.25 120.49968 L173.25 129.97078" />
    <path d="M173.25 138.97078 L173.25 151.42713" />
    <path d="M173.25 160.42713 L173.25 221.91569" />
    <path d="M173.25 230.91569 L173.25 231.13341" />
    <path d="M173.25 240.13341 L173.25 290.91487" />
    <path d="M173.25 299.91487 L173.25 342.2756" />
    <path d="M173.25 351.2756 L173.25 420.32283" />
    <path d="M173.25 429.32283 L173.25 431.74253" />
    <path d="M173.25 440.74253 L173.25 473.33999" />
    <path d="M173.25 482.33999 L173.25 532.54305" />
    <path d="M173.25 541.54305 L173.25 544.61564" />
    <path d="M173.25 553.61564 L173.25 564.93067" />
    <path d="M173.25 573.93067 L173.25 605.28529" />
    <path d="M173.25 614.28529 L173.25 618.57785" />
    <path d="M173.25 627.57785 L173.25 666.51553" />
    <path d="M173.25 675.51553 L173.25 728.15719" />
    <path d="M173.25 737.15719 L173.25 808.88615" />
    <path d="M173.25 817.88615 L173.25 850.06024" />
    <path d="M173.25 859.06024 L173.25 872.93527" />
    <path d="M173.25 881.93527 L173.25 945" />
    <path d="M180 45 L180 127.81754" />
    <path d="M180 136.81754 L180 180.30018" />
    <path d="M180 189.30018 L180 235.06971" />
    <path d="M180 244.06971 L180 276.42869" />
    <path d="M180 285.42869 L180 290.16468" />
    <path d="M180 299.16468 L180 340.25411" />
    <path d="M180 349.25411 L180 390.1607" />
    <path d="M180 399.1607 L180 423.10945" />
    <path d="M180 432.10945 L180 495.88592" />
    <path d="M180 504.88592 L180 510.99828" />
    <path d="M180 519.99828 L180 587.06868" />
    <path d="M180 596.06868 L180 612.57084" />
    <path d="M180 621.57084 L180 663.0468" />
    <path d="M180 672.0468 L180 760.59468" />
    <path d="M180 769.59468 L180 783.82335" />
    <path d="M180 792.82335 L180 853.40679" />
    <path d="M180 862.40679 L180 863.5944" />
    <path d="M180 872.5944 L180 876.22687" />
    <path d="M180 885.22687 L180 897.07105" />
    <path d="M180 906.07105 L180 918.40312" />
    <path d="M180 927.40312 L180 945" />
    <path d="M186.75 45 L186.75 51.35208" />
    <path d="M186.75 60.35208 L186.75 107.16917" />
    <path d="M186.75 116.16917 L186.75 140.98926" />
    <path d="M186.75 149.98926 L186.75 211.99573" />
    <path d="M186.75 220.99573 L186.75 285.78486" />
    <path d="M186.75 294.78486 L186.75 295.42043" />
    <path d="M186.75 304.42043 L186.75 357.58278" />
    <path d="M186.75 366.58278 L186.75 391.6679" />
    <path d="M186.75 400.6679 L186.75 407.69476" />
    <path d="M186.75 416.69476 L186.75 435.02441" />
    <path d="M186.75 444.02441 L186.75 478.77235" />
    <path d="M186.75 487.77235 L186.75 506.78767" />
    <path d="M186.75 515.78767 L186.75 585.32299" />
    <path d="M186.75 594.32299 L186.75 607.02491" />
    <path d="M186.75 616.02491 L186.75 681.2604" />
    <path d="M186.75 690.2604 L186.75 738.04025" />
    <path d="M186.75 747.04025 L186.75 791.58297" />
    <path d="M186.75 800.58297 L186.75 869.84894" />
    <path d="M186.75 878.84894 L186.75 921.66437" />
    <path d="M186.75 930.66437 L186.75 945" />
    <path d="M193.5 45.8778 L193.5 93.24009" />
    <path d="M193.5 102.24009 L193.5 141.60024" />
    <path d="M193.5 150.60024 L193.5 224.28663" />
    <path d="M193.5 233.28663 L193.5 233.36954" />
    <path d="M193.5 242.36954 L193.5 270.89162" />
    <path d="M193.5 279.89162 L193.5 365.95364" />
    <path d="M193.5 374.95364 L193.5 459.79192" />
    <path d="M193.5 468.79192 L193.5 491.75711" />
    <path d="M193.5 500.75711 L193.5 573.35505" />
    <path d="M193.5 582.35505 L193.5 596.19825" />
    <path d="M193.5 605.19825 L193.5 617.50993" />
    <path d="M193.5 626.50993 L193.5 656.10808" />
    <path d="M193.5 665.10808 L193.5 675.91654" />
    <path d="M193.5 684.91654 L193.5 701.78091" />
    <path d="M193.5 710.78091 L193.5 712.19488" />
    <path d="M193.5 721.19488 L193.5 794.0933" />
    <path d="M193.5 803.0933 L193.5 837.56641" />
    <path d="M193.5 846.56641 L193.5 930.35301" />
    <path d="M193.5 939.35301 L193.5 945" />
    <path d="M200.25 52.15599 L200.25 99.63723" />
    <path d="M200.25 108.63723 L200.25 180.14742" />
    <path d="M200.25 189.14742 L200.25 217.34485" />
    <path d="M200.25 226.34485 L200.25 255.7038" />
    <path d="M200.25 264.7038 L200.25 330.86545" />
    <path d="M200.25 339.86545 L200.25 341.91739" />
    <path d="M200.25 350.91739 L200.25 422.24349" />
    <path d="M200.25 431.24349 L200.25 458.6109" />
    <path d="M200.25 467.6109 L200.25 470.74898" />
    <path d="M200.25 479.74898 L200.25 492.83946" />
    <path d="M200.25 501.83946 L200.25 573.11119" />
    <path d="M200.25 582.11119 L200.25 599.54927" />
    <path d="M200.25 608.54927 L200.25 626.30621" />
    <path d="M200.25 635.30621 L200.25 667.88552" />
    <path d="M200.25 676.88552 L200.25 698.7894" />
    <path d="M200.25 707.7894 L200.25 786.97177" />
    <path d="M200.25 795.97177 L200.25 810.87734" />
    <path d="M200.25 819.87734 L200.25 907.42399" />
    <path d="M200.25 916.42399 L200.25 917.17337" />
    <path d="M200.25 926.17337 L200.25 945" />
    <path d="M207 45 L207 87.22122" />
    <path d="M207 96.22122 L207 111.44517" />
    <path d="M207 120.44517 L207 140.62202" />
    <path d="M207 149.62202 L207 177.11745" />
    <path d="M207 186.11745 L207 212.77131" />
    <path d="M207 221.77131 L207 263.99219" />
    <path d="M207 272.99219 L207 287.64815" />
    <path d="M207 296.64815 L207 367.85138" />
    <path d="M207 376.85138 L207 456.56626" />
    <path d="M207 465.56626 L207 543.40596" />
    <path d="M207 552.40596 L207 623.246" />
    <path d="M207 632.246 L207 711.81591" />
    <path d="M207 720.81591 L207 763.29651" />
    <path d="M207 772.29651 L207 816.65038" />
    <path d="M207 825.65038 L207 887.28419" />
    <path d="M207 896.28419 L207 945" />
    <path d="M213.75 45.88554 L213.75 113.81061" />
    <path d="M213.75 122.81061 L213.75 139.53425" />
    <path d="M213.75 148.53425 L213.75 175.30622" />
    <path d="M213.75 184.30622 L213.75 207.2319" />
    <path d="M213.75 216.2319 L213.75 232.29368" />
    <path d="M213.75 241.29368 L213.75 282.58028" />
    <path d="M213.75 291.58028 L213.75 339.95809" />
    <path d="M213.75 348.95809 L213.75 370.20321" />
    <path d="M213.75 379.20321 L213.75 422.56557" />
    <path d="M213.75 431.56557 L213.75 451.77548" />
    <path d="M213.75 460.77548 L213.75 472.60927" />
    <path d="M213.75 481.60927 L213.75 534.43833" />
    <path d="M213.75 543.43833 L213.75 606.46748" />
    <path d="M213.75 615.46748 L213.75 664.73261" />
    <path d="M213.75 673.73261 L213.75 762.55996" />
    <path d="M213.75 771.55996 L213.75 791.00001" />
    <path d="M213.75 800.00001 L213.75 812.74365" />
    <path d="M213.75 821.74365 L213.75 861.13656" />
    <path d="M213.75 870.13656 L213.75 901.38487" />
    <path d="M213.75 910.38487 L213.75 926.24747" />
    <path d="M213.75 935.24747 L213.75 936.64616" />
    <path d="M220.5 45 L220.5 127.52535" />
    <path d="M220.5 136.52535 L220.5 182.97354" />
    <path d="M220.5 191.97354 L220.5 267.56077" />
    <path d="M220.5 276.56077 L220.5 333.3892" />
    <path d="M220.5 342.3892 L220.5 382.56937" />
    <path d="M220.5 391.56937 L220.5 411.01443" />
    <path d="M220.5 420.01443 L220.5 461.62341" />
    <path d="M220.5 470.62341 L220.5 493.96881" />
    <path d="M220.5 502.96881 L220.5 537.84054" />
    <path d="M220.5 546.84054 L220.5 628.65997" />
    <path d="M220.5 637.65997 L220.5 662.08186" />
    <path d="M220.5 671.08186 L220.5 693.83455" />
    <path d="M220.5 702.83455 L220.5 749.57329" />
    <path d="M220.5 758.57329 L220.5 786.31041" />
    <path d="M220.5 795.31041 L220.5 808.03647" />
    <path d="M220.5 817.03647 L220.5 833.10067" />
    <path d="M220.5 842.10067 L220.5 849.41631" />
    <path d="M220.5 858.41631 L220.5 902.06134" />
    <path d="M220.5 911.06134 L220.5 937.20365" />
    <path d="M227.25 50.14918 L227.25 84.49791" />
    <path d="M227.25 93.49791 L227.25 168.11798" />
    <path d="M227.25 177.11798 L227.25 200.03686" />
    <path d="M227.25 209.03686 L227.25 235.94516" />
    <path d="M227.25 244.94516 L227.25 256.51834" />
    <path d="M227.25 265.51834 L227.25 323.03923" />
    <path d="M227.25 332.03923 L227.25 388.16093" />
    <path d="M227.25 397.16093 L227.25 442.83588" />
    <path d="M227.25 451.83588 L227.25 492.14926" />
    <path d="M227.25 501.14926 L227.25 519.802" />
    <path d="M227.25 528.802 L227.25 545.26033" />
    <path d="M227.25 554.26033 L227.25 610.46369" />
    <path d="M227.25 619.46369 L227.25 657.50072" />
    <path d="M227.25 666.50072 L227.25 719.98204" />
    <path d="M227.25 728.98204 L227.25 755.02686" />
    <path d="M227.25 764.02686 L227.25 832.46451" />
    <path d="M227.25 841.46451 L227.25 887.19471" />
    <path d="M227.25 896.19471 L227.25 945" />
    <path d="M234 45 L234 95.97902" />
    <path d="M234 104.97902 L234 107.53463" />
    <path d="M234 116.53463 L234 133.87413" />
    <path d="M234 142.87413 L234 155.26078" />
    <path d="M234 164.26078 L234 218.11118" />
    <path d="M234 227.11118 L234 276.50647" />
    <path d="M234 285.50647 L234 309.7316" />
    <path d="M234 318.7316 L234 339.03831" />
    <path d="M234 348.03831 L234 361.09273" />
    <path d="M234 370.09273 L234 427.08136" />
    <path d="M234 436.08136 L234 488.77354" />
    <path d="M234 497.77354 L234 572.39118" />
    <path d="M234 581.39118 L234 631.07199" />
    <path d="M234 640.07199 L234 693.58635" />
    <path d="M234 702.58635 L234 782.54087" />
    <path d="M234 791.54087 L234 867.53018" />
    <path d="M234 876.53018 L234 929.44004" />
    <path d="M234 938.44004 L234 945" />
    <path d="M240.75 49.61215 L240.75 125.11288" />
    <path d="M240.75 134.11288 L240.75 173.32907" />
    <path d="M240.75 182.32907 L240.75 203.47906" />
    <path d="M240.75 212.47906 L240.75 291.27962" />
    <path d="M240.75 300.27962 L240.75 351.89379" />
    <path d="M240.75 360.89379 L240.75 423.17422" />
    <path d="M240.75 432.17422 L240.75 451.79633" />
    <path d="M240.75 460.79633 L240.75 463.5728" />
    <path d="M240.75 472.5728 L240.75 546.30612" />
    <path d="M240.75 555.30612 L240.75 576.64663" />
    <path d="M240.75 585.64663 L240.75 605.41651" />
    <path d="M240.75 614.41651 L240.75 669.1283" />
    <path d="M240.75 678.1283 L240.75 703.36863" />
    <path d="M240.75 712.36863 L240.75 773.89772" />
    <path d="M240.75 782.89772 L240.75 819.13459" />
    <path d="M240.75 828.13459 L240.75 904.66509" />
    <path d="M240.75 913.66509 L240.75 945" />
    <path d="M247.5 45 L247.5 122.69588" />
    <path d="M247.5 131.69588 L247.5 205.98988" />
    <path d="M247.5 214.98988 L247.5 231.10516" />
    <path d="M247.5 240.10516 L247.5 265.29008" />
    <path d="M247.5 274.29008 L247.5 350.7392" />
    <path d="M247.5 359.7392 L247.5 446.07369" />
    <path d="M247.5 455.07369 L247.5 458.33376" />
    <path d="M247.5 467.33376 L247.5 507.834" />
    <path d="M247.5 516.834 L247.5 520.19539" />
    <path d="M247.5 529.19539 L247.5 572.15743" />
    <path d="M247.5 581.15743 L247.5 600.28406" />
    <path d="M247.5 609.28406 L247.5 692.79196" />
    <path d="M247.5 701.79196 L247.5 742.60554" />
    <path d="M247.5 751.60554 L247.5 752.88884" />
    <path d="M247.5 761.88884 L247.5 800.88386" />
    <path d="M247.5 809.88386 L247.5 849.90213" />
    <path d="M247.5 858.90213 L247.5 944.14019" />
    <path d="M254.25 52.2073 L254.25 65.94331" />
    <path d="M254.25 74.94331 L254.25 130.6651" />
    <path d="M254.25 139.6651 L254.25 167.37876" />
    <path d="M254.25 176.37876 L254.25 180.45624" />
    <path d="M254.25 189.45624 L254.25 196.08013" />
    <path d="M254.25 205.08013 L254.25 275.36582" />
    <path d="M254.25 284.36582 L254.25 315.02576" />
    <path d="M254.25 324.02576 L254.25 397.47455" />
    <path d="M254.25 406.47455 L254.25 454.76139" />
    <path d="M254.25 463.76139 L254.25 482.44365" />
    <path d="M254.25 491.44365 L254.25 497.85811" />
    <path d="M254.25 506.85811 L254.25 595.33951" />
    <path d="M254.25 604.33951 L254.25 689.901" />
    <path d="M254.25 698.901 L254.25 769.0331" />
    <path d="M254.25 778.0331 L254.25 811.01947" />
    <path d="M254.25 820.01947 L254.25 873.59908" />
    <path d="M254.25 882.59908 L254.25 901.46925" />
    <path d="M254.25 910.46925 L254.25 945" />
    <path d="M261 45 L261 117.76035" />
    <path d="M261 126.76035 L261 161.81983" />
    <path d="M261 170.81983 L261 210.98103" />
    <path d="M261 219.98103 L261 246.22203" />
    <path d="M261 255.22203 L261 343.06825" />
    <path d="M261 352.06825 L261 360.62119" />
    <path d="M261 369.62119 L261 390.84241" />
    <path d="M261 399.84241 L261 460.84996" />
    <path d="M261 469.84996 L261 526.98314" />
    <path d="M261 535.98314 L261 560.99744" />
    <path d="M261 569.99744 L261 585.88297" />
    <path d="M261 594.88297 L261 637.46733" />
    <path d="M261 646.46733 L261 688.40984" />
    <path d="M261 697.40984 L261 743.27234" />
    <path d="M261 752.27234 L261 790.61865" />
    <path d="M261 799.61865 L261 866.9181" />
    <path d="M261 875.9181 L261 892.56776" />
    <path d="M261 901.56776 L261 934.65504" />
    <path d="M261 943.65504 L261 945" />
    <path d="M267.75 53.59616 L267.75 107.32827" />
    <path d="M267.75 116.32827 L267.75 162.61252" />
    <path d="M267.75 171.61252 L267.75 258.11942" />
    <path d="M267.75 267.11942 L267.75 276.47991" />
    <path d="M267.75 285.47991 L267.75 368.05185" />
    <path d="M267.75 377.05185 L267.75 404.27786" />
    <path d="M267.75 413.27786 L267.75 495.66383" />
    <path d="M267.75 504.66383 L267.75 553.76807" />
    <path d="M267.75 562.76807 L267.75 634.65667" />
    <path d="M267.75 643.65667 L267.75 698.72125" />
    <path d="M267.75 707.72125 L267.75 744.76876" />
    <path d="M267.75 753.76876 L267.75 796.08615" />
    <path d="M267.75 805.08615 L267.75 833.34785" />
    <path d="M267.75 842.34785 L267.75 904.682" />
    <path d="M267.75 913.682 L267.75 926.53592" />
    <path d="M267.75 935.53592 L267.75 945" />
    <path d="M274.5 45 L274.5 52.45421" />
    <path d="M274.5 61.45421 L274.5 116.65363" />
    <path d="M274.5 125.65363 L274.5 183.11885" />
    <path d="M274.5 192.11885 L274.5 206.58874" />
    <path d="M274.5 215.58874 L274.5 239.46564" />
    <path d="M274.5 248.46564 L274.5 307.28981" />
    <path d="M274.5 316.28981 L274.5 377.67152" />
    <path d="M274.5 386.67152 L274.5 390.65384" />
    <path d="M274.5 399.65384 L274.5 410.49909" />
    <path d="M274.5 419.49909 L274.5 427.64001" />
    <path d="M274.5 436.64001 L274.5 451.17632" />
    <path d="M274.5 460.17632 L274.5 521.0532" />
    <path d="M274.5 530.0532 L274.5 547.12426" />
    <path d="M274.5 556.12426 L274.5 574.62044" />
    <path d="M274.5 583.62044 L274.5 659.70026" />
    <path d="M274.5 668.70026 L274.5 702.33631" />
    <path d="M274.5 711.33631 L274.5 778.84278" />
    <path d="M274.5 787.84278 L274.5 839.12708" />
    <path d="M274.5 848.12708 L274.5 868.79109" />
    <path d="M274.5 877.79109 L274.5 894.78033" />
    <path d="M274.5 903.78033 L274.5 915.20333" />
    <path d="M274.5 924.20333 L274.5 945" />
    <path d="M281.25 47.36743 L281.25 48.67158" />
    <path d="M281.25 57.67158 L281.25 146.49965" />
    <path d="M281.25 155.49965 L281.25 163.74742" />
    <path d="M281.25 172.74742 L281.25 212.28167" />
    <path d="M281.25 221.28167 L281.25 285.73348" />
    <path d="M281.25 294.73348 L281.25 310.51628" />
    <path d="M281.25 319.51628 L281.25 347.95719" />
    <path d="M281.25 356.95719 L281.25 430.61521" />
    <path d="M281.25 439.61521 L281.25 487.39281" />
    <path d="M281.25 496.39281 L281.25 528.88653" />
    <path d="M281.25 537.88653 L281.25 560.529" />
    <path d="M281.25 569.529 L281.25 607.05662" />
    <path d="M281.25 616.05662 L281.25 642.77556" />
    <path d="M281.25 651.77556 L281.25 666.04315" />
    <path d="M281.25 675.04315 L281.25 710.33911" />
    <path d="M281.25 719.33911 L281.25 753.03261" />
    <path d="M281.25 762.03261 L281.25 844.34855" />
    <path d="M281.25 853.34855 L281.25 928.51803" />
    <path d="M281.25 937.51803 L281.25 945" />
    <path d="M288 45 L288 110.91763" />
    <path d="M288 119.91763 L288 192.07316" />
    <path d="M288 201.07316 L288 249.46471" />
    <path d="M288 258.46471 L288 293.15535" />
    <path d="M288 302.15535 L288 308.9931" />
    <path d="M288 317.9931 L288 353.28839" />
    <path d="M288 362.28839 L288 394.9791" />
    <path d="M288 403.9791 L288 441.29111" />
    <path d="M288 450.29111 L288 491.26599" />
    <path d="M288 500.26599 L288 575.89284" />
    <path d="M288 584.89284 L288 664.54246" />
    <path d="M288 673.54246 L288 746.41393" />
    <path d="M288 755.41393 L288 790.00322" />
    <path d="M288 799.00322 L288 803.79892" />
    <path d="M288 812.79892 L288 895.44135" />
    <path d="M288 904.44135 L288 941.75272" />
    <path d="M294.75 45.914 L294.75 84.37231" />
    <path d="M294.75 93.37231 L294.75 157.73913" />
    <path d="M294.75 166.73913 L294.75 197.06116" />
    <path d="M294.75 206.06116 L294.75 291.37791" />
    <path d="M294.75 300.37791 L294.75 340.477" />
    <path d="M294.75 349.477 L294.75 414.71476" />
    <path d="M294.75 423.71476 L294.75 432.0697" />
    <path d="M294.75 441.0697 L294.75 442.9521" />
    <path d="M294.75 451.9521 L294.75 454.28036" />
    <path d="M294.75 463.28036 L294.75 538.63343" />
    <path d="M294.75 547.63343 L294.75 627.51832" />
    <path d="M294.75 636.51832 L294.75 664.54211" />
    <path d="M294.75 673.54211 L294.75 726.66565" />
    <path d="M294.75 735.66565 L294.75 747.62618" />
    <path d="M294.75 756.62618 L294.75 810.48766" />
    <path d="M294.75 819.48766 L294.75 892.43651" />
    <path d="M294.75 901.43651 L294.75 920.61601" />
    <path d="M294.75 929.61601 L294.75 945" />
    <path d="M301.5 46.52435 L301.5 103.80121" />
    <path d="M301.5 112.80121 L301.5 154.85838" />
    <path d="M301.5 163.85838 L301.5 183.57096" />
    <path d="M301.5 192.57096 L301.5 268.57691" />
    <path d="M301.5 277.57691 L301.5 298.11296" />
    <path d="M301.5 307.11296 L301.5 341.17505" />
    <path d="M301.5 350.17505 L301.5 411.12806" />
    <path d="M301.5 420.12806 L301.5 506.34304" />
    <path d="M301.5 515.34304 L301.5 549.3651" />
    <path d="M301.5 558.3651 L301.5 563.99857" />
    <path d="M301.5 572.99857 L301.5 607.37482" />
    <path d="M301.5 616.37482 L301.5 664.18737" />
    <path d="M301.5 673.18737 L301.5 748.41212" />
    <path d="M301.5 757.41212 L301.5 802.52616" />
    <path d="M301.5 811.52616 L301.5 881.77353" />
    <path d="M301.5 890.77353 L301.5 921.41327" />
    <path d="M301.5 930.41327 L301.5 945" />
    <path d="M308.25 45 L308.25 68.89981" />
    <path d="M308.25 77.89981 L308.25 164.30711" />
    <path d="M308.25 173.30711 L308.25 231.53009" />
    <path d="M308.25 240.53009 L308.25 303.52014" />
    <path d="M308.25 312.52014 L308.25 337.98261" />
    <path d="M308.25 346.98261 L308.25 384.2759" />
    <path d="M308.25 393.2759 L308.25 418.58327" />
    <path d="M308.25 427.58327 L308.25 461.81795" />
    <path d="M308.25 470.81795 L308.25 531.44644" />
    <path d="M308.25 540.44644 L308.25 591.59683" />
    <path d="M308.25 600.59683 L308.25 614.83122" />
    <path d="M308.25 623.83122 L308.25 633.26302" />
    <path d="M308.25 642.26302 L308.25 721.89461" />
    <path d="M308.25 730.89461 L308.25 732.62033" />
    <path d="M308.25 741.62033 L308.25 763.92754" />
    <path d="M308.25 772.92754 L308.25 845.49794" />
    <path d="M308.25 854.49794 L308.25 904.02816" />
    <path d="M308.25 913.02816 L308.25 945" />
    <path d="M315 48.89285 L315 59.44564" />
    <path d="M315 68.44564 L315 126.9632" />
    <path d="M315 135.9632 L315 220.72747" />
    <path d="M315 229.72747 L315 295.32602" />
    <path d="M315 304.32602 L315 344.42305" />
    <path d="M315 353.42305 L315 425.67738" />
    <path d="M315 434.67738 L315 498.96522" />
    <path d="M315 507.96522 L315 584.44932" />
    <path d="M315 593.44932 L315 623.49931" />
    <path d="M315 632.49931 L315 697.63926" />
    <path d="M315 706.63926 L315 724.64422" />
    <path d="M315 733.64422 L315 802.98832" />
    <path d="M315 811.98832 L315 827.64847" />
    <path d="M315 836.64847 L315 851.27806" />
    <path d="M315 860.27806 L315 936.09244" />
    <path d="M321.75 45 L321.75 49.26967" />
    <path d="M321.75 58.26967 L321.75 95.42041" />
    <path d="M321.75 104.42041 L321.75 171.5763" />
    <path d="M321.75 180.5763 L321.75 236.26628" />
    <path d="M321.75 245.26628 L321.75 310.9295" />
    <path d="M321.75 319.9295 L321.75 390.23644" />
    <path d="M321.75 399.23644 L321.75 420.61169" />
    <path d="M321.75 429.61169 L321.75 503.57796" />
    <path d="M321.75 512.57796 L321.75 532.78832" />
    <path d="M321.75 541.78832 L321.75 605.39517" />
    <path d="M321.75 614.39517 L321.75 654.14948" />
    <path d="M321.75 663.14948 L321.75 704.64093" />
    <path d="M321.75 713.64093 L321.75 760.06809" />
    <path d="M321.75 769.06809 L321.75 791.82211" />
    <path d="M321.75 800.82211 L321.75 843.92279" />
    <path d="M321.75 852.92279 L321.75 908.13306" />
    <path d="M321.75 917.13306 L321.75 945" />
    <path d="M328.5 52.58371 L328.5 99.90741" />
    <path d="M328.5 108.90741 L328.5 120.2889" />
    <path d="M328.5 129.2889 L328.5 136.41109" />
    <path d="M328.5 145.41109 L328.5 222.49348" />
    <path d="M328.5 231.49348 L328.5 249.32135" />
    <path d="M328.5 258.32135 L328.5 272.01407" />
    <path d="M328.5 281.01407 L328.5 365.40742" />
    <path d="M328.5 374.40742 L328.5 427.39722" />
    <path d="M328.5 436.39722 L328.5 506.05157" />
    <path d="M328.5 515.05157 L328.5 604.32691" />
    <path d="M328.5 613.32691 L328.5 699.35664" />
    <path d="M328.5 708.35664 L328.5 710.45091" />
    <path d="M328.5 719.45091 L328.5 805.72515" />
    <path d="M328.5 814.72515 L328.5 903.07424" />
    <path d="M328.5 912.07424 L328.5 923.80162" />
    <path d="M328.5 932.80162 L328.5 945" />
    <path d="M335.25 45 L335.25 68.26815" />
    <path d="M335.25 77.26815 L335.25 101.578" />
    <path d="M335.25 110.578 L335.25 125.68483" />
    <path d="M335.25 134.68483 L335.25 219.85256" />
    <path d="M335.25 228.85256 L335.25 308.18043" />
    <path d="M335.25 317.18043 L335.25 338.73198" />
    <path d="M335.25 347.73198 L335.25 410.13812" />
    <path d="M335.25 419.13812 L335.25 495.99596" />
    <path d="M335.25 504.99596 L335.25 538.19518" />
    <path d="M335.25 547.19518 L335.25 551.69793" />
    <path d="M335.25 560.69793 L335.25 588.97244" />
    <path d="M335.25 597.97244 L335.25 678.78694" />
    <path d="M335.25 687.78694 L335.25 690.76659" />
    <path d="M335.25 699.76659 L335.25 780.4635" />
    <path d="M335.25 789.4635 L335.25 824.86418" />
    <path d="M335.25 833.86418 L335.25 874.61028" />
    <path d="M335.25 883.61028 L335.25 918.46481" />
    <path d="M335.25 927.46481 L335.25 945" />
    <path d="M342 50.78169 L342 111.36867" />
    <path d="M342 120.36867 L342 207.59063" />
    <path d="M342 216.59063 L342 270.56521" />
    <path d="M342 279.56521 L342 316.25234" />
    <path d="M342 325.25234 L342 371.30054" />
    <path d="M342 380.30054 L342 465.02904" />
    <path d="M342 474.02904 L342 557.80744" />
    <path d="M342 566.80744 L342 589.92087" />
    <path d="M342 598.92087 L342 674.8885" />
    <path d="M342 683.8885 L342 732.87678" />
    <path d="M342 741.87678 L342 815.83312" />
    <path d="M342 824.83312 L342 858.43571" />
    <path d="M342 867.43571 L342 892.44063" />
    <path d="M342 901.44063 L342 945" />
    <path d="M348.75 49.80166 L348.75 85.45908" />
    <path d="M348.75 94.45908 L348.75 169.59516" />
    <path d="M348.75 178.59516 L348.75 190.00218" />
    <path d="M348.75 199.00218 L348.75 281.46208" />
    <path d="M348.75 290.46208 L348.75 323.46997" />
    <path d="M348.75 332.46997 L348.75 353.80329" />
    <path d="M348.75 362.80329 L348.75 382.13544" />
    <path d="M348.75 391.13544 L348.75 419.15197" />
    <path d="M348.75 428.15197 L348.75 510.1278" />
    <path d="M348.75 519.1278 L348.75 597.61356" />
    <path d="M348.75 606.61356 L348.75 643.36922" />
    <path d="M348.75 652.36922 L348.75 685.05028" />
    <path d="M348.75 694.05028 L348.75 758.36039" />
    <path d="M348.75 767.36039 L348.75 826.87851" />
    <path d="M348.75 835.87851 L348.75 874.37844" />
    <path d="M348.75 883.37844 L348.75 937.97194" />
    <path d="M355.5 46.15626 L355.5 61.30618" />
    <path d="M355.5 70.30618 L355.5 137.64681" />
    <path d="M355.5 146.64681 L355.5 187.98438" />
    <path d="M355.5 196.98438 L355.5 262.68869" />
    <path d="M355.5 271.68869 L355.5 297.127" />
    <path d="M355.5 306.127 L355.5 372.5906" />
    <path d="M355.5 381.5906 L355.5 437.66911" />
    <path d="M355.5 446.66911 L355.5 523.0279" />
    <path d="M355.5 532.0279 L355.5 537.33233" />
    <path d="M355.5 546.33233 L355.5 605.00021" />
    <path d="M355.5 614.00021 L355.5 662.41521" />
    <path d="M355.5 671.41521 L355.5 754.67415" />
    <path d="M355.5 763.67415 L355.5 815.01902" />
    <path d="M355.5 824.01902 L355.5 890.69051" />
    <path d="M355.5 899.69051 L355.5 945" />
    <path d="M362.25 53.13926 L362.25 82.01953" />
    <path d="M362.25 91.01953 L362.25 156.08214" />
    <path d="M362.25 165.08214 L362.25 252.05426" />
    <path d="M362.25 261.05426 L362.25 307.58248" />
    <path d="M362.25 316.58248 L362.25 378.52416" />
    <path d="M362.25 387.52416 L362.25 400.56634" />
    <path d="M362.25 409.56634 L362.25 487.77658" />
    <path d="M362.25 496.77658 L362.25 569.78882" />
    <path d="M362.25 578.78882 L362.25 654.30407" />
    <path d="M362.25 663.30407 L362.25 741.09689" />
    <path d="M362.25 750.09689 L362.25 790.49804" />
    <path d="M362.25 799.49804 L362.25 823.65165" />
    <path d="M362.25 832.65165 L362.25 841.40825" />
    <path d="M362.25 850.40825 L362.25 852.02341" />
    <path d="M362.25 861.02341 L362.25 926.59971" />
    <path d="M362.25 935.59971 L362.25 945" />
    <path d="M369 52.86616 L369 56.59652" />
    <path d="M369 65.59652 L369 142.44426" />
    <path d="M369 151.44426 L369 233.24518" />
    <path d="M369 242.24518 L369 295.45197" />
    <path d="M369 304.45197 L369 339.2668" />
    <path d="M369 348.2668 L369 361.57557" />
    <path d="M369 370.57557 L369 442.9681" />
    <path d="M369 451.9681 L369 455.65306" />
    <path d="M369 464.65306 L369 516.37108" />
    <path d="M369 525.37108 L369 567.83056" />
    <path d="M369 576.83056 L369 637.7146" />
    <path d="M369 646.7146 L369 676.53527" />
    <path d="M369 685.53527 L369 761.6592" />
    <path d="M369 770.6592 L369 832.39844" />
    <path d="M369 841.39844 L369 907.21738" />
    <path d="M369 916.21738 L369 945" />
    <path d="M375.75 47.31846 L375.75 88.27927" />
    <path d="M375.75 97.27927 L375.75 171.18548" />
    <path d="M375.75 180.18548 L375.75 198.16173" />
    <path d="M375.75 207.16173 L375.75 213.89299" />
    <path d="M375.75 222.89299 L375.75 245.03492" />
    <path d="M375.75 254.03492 L375.75 306.08428" />
    <path d="M375.75 315.08428 L375.75 376.4469" />
    <path d="M375.75 385.4469 L375.75 459.47869" />
    <path d="M375.75 468.47869 L375.75 554.33186" />
    <path d="M375.75 563.33186 L375.75 628.33756" />
    <path d="M375.75 637.33756 L375.75 653.6882" />
    <path d="M375.75 662.6882 L375.75 701.62725" />
    <path d="M375.75 710.62725 L375.75 792.00426" />
    <path d="M375.75 801.00426 L375.75 888.98582" />
    <path d="M375.75 897.98582 L375.75 939.57416" />
    <path d="M382.5 45 L382.5 69.20334" />
    <path d="M382.5 78.20334 L382.5 133.19717" />
    <path d="M382.5 142.19717 L382.5 167.3959" />
    <path d="M382.5 176.3959 L382.5 245.94409" />
    <path d="M382.5 254.94409 L382.5 316.43165" />
    <path d="M382.5 325.43165 L382.5 363.50368" />
    <path d="M382.5 372.50368 L382.5 373.81364" />
    <path d="M382.5 382.81364 L382.5 395.87529" />
    <path d="M382.5 404.87529 L382.5 487.72678" />
    <path d="M382.5 496.72678 L382.5 568.87147" />
    <path d="M382.5 577.87147 L382.5 597.72314" />
    <path d="M382.5 606.72314 L382.5 621.25272" />
    <path d="M382.5 630.25272 L382.5 700.56773" />
    <path d="M382.5 709.56773 L382.5 727.5644" />
    <path d="M382.5 736.5644 L382.5 816.20492" />
    <path d="M382.5 825.20492 L382.5 842.45046" />
    <path d="M382.5 851.45046 L382.5 862.71922" />
    <path d="M382.5 871.71922 L382.5 944.4425" />
    <path d="M389.25 45 L389.25 62.11726" />
    <path d="M389.25 71.11726 L389.25 126.49212" />
    <path d="M389.25 135.49212 L389.25 183.52279" />
    <path d="M389.25 192.52279 L389.25 212.82933" />
    <path d="M389.25 221.82933 L389.25 296.11276" />
    <path d="M389.25 305.11276 L389.25 340.79619" />
    <path d="M389.25 349.79619 L389.25 409.54038" />
    <path d="M389.25 418.54038 L389.25 464.58246" />
    <path d="M389.25 473.58246 L389.25 498.02923" />
    <path d="M389.25 507.02923 L389.25 594.2393" />
    <path d="M389.25 603.2393 L389.25 643.55276" />
    <path d="M389.25 652.55276 L389.25 675.75165" />
    <path d="M389.25 684.75165 L389.25 742.07751" />
    <path d="M389.25 751.07751 L389.25 803.36263" />
    <path d="M389.25 812.36263 L389.25 887.60871" />
    <path d="M389.25 896.60871 L389.25 900.03095" />
    <path d="M389.25 909.03095 L389.25 937.65392" />
    <path d="M396 49.50493 L396 89.62733" />
    <path d="M396 98.62733 L396 132.82892" />
    <path d="M396 141.82892 L396 145.8556" />
    <path d="M396 154.8556 L396 163.99598" />
    <path d="M396 172.99598 L396 190.56576" />
    <path d="M396 199.56576 L396 231.18847" />
    <path d="M396 240.18847 L396 317.41046" />
    <path d="M396 326.41046 L396 391.67975" />
    <path d="M396 400.67975 L396 486.96575" />
    <path d="M396 495.96575 L396 499.45315" />
    <path d="M396 508.45315 L396 539.98254" />
    <path d="M396 548.98254 L396 609.36056" />
    <path d="M396 618.36056 L396 698.15785" />
    <path d="M396 707.15785 L396 795.71738" />
    <path d="M396 804.71738 L396 810.24789" />
    <path d="M396 819.24789 L396 835.58079" />
    <path d="M396 844.58079 L396 861.68372" />
    <path d="M396 870.68372 L396 871.86009" />
    <path d="M396 880.86009 L396 886.982" />
    <path d="M396 895.982 L396 945" />
    <path d="M402.75 48.89847 L402.75 120.23353" />
    <path d="M402.75 129.23353 L402.75 188.78676" />
    <path d="M402.75 197.78676 L402.75 240.9089" />
    <path d="M402.75 249.9089 L402.75 276.59648" />
    <path d="M402.75 285.59648 L402.75 310.56886" />
    <path d="M402.75 319.56886 L402.75 401.49529" />
    <path d="M402.75 410.49529 L402.75 480.51247" />
    <path d="M402.75 489.51247 L402.75 541.02801" />
    <path d="M402.75 550.02801 L402.75 575.65426" />
    <path d="M402.75 584.65426 L402.75 616.93122" />
    <path d="M402.75 625.93122 L402.75 678.81313" />
    <path d="M402.75 687.81313 L402.75 755.42938" />
    <path d="M402.75 764.42938 L402.75 822.93536" />
    <path d="M402.75 831.93536 L402.75 914.54386" />
    <path d="M402.75 923.54386 L402.75 945" />
    <path d="M409.5 50.7594 L409.5 139.34422" />
    <path d="M409.5 148.34422 L409.5 223.80101" />
    <path d="M409.5 232.80101 L409.5 250.43253" />
    <path d="M409.5 259.43253 L409.5 311.95386" />
    <path d="M409.5 320.95386 L409.5 324.38573" />
    <path d="M409.5 333.38573 L409.5 372.84209" />
    <path d="M409.5 381.84209 L409.5 467.19954" />
    <path d="M409.5 476.19954 L409.5 499.5079" />
    <path d="M409.5 508.5079 L409.5 597.48571" />
    <path d="M409.5 606.48571 L409.5 670.18171" />
    <path d="M409.5 679.18171 L409.5 755.2356" />
    <path d="M409.5 764.2356 L409.5 816.92186" />
    <path d="M409.5 825.92186 L409.5 867.91351" />
    <path d="M409.5 876.91351 L409.5 877.16838" />
    <path d="M409.5 886.16838 L409.5 891.59597" />
    <path d="M409.5 900.59597 L409.5 945" />
    <path d="M416.25 48.32454 L416.25 129.63894" />
    <path d="M416.25 138.63894 L416.25 148.17691" />
    <path d="M416.25 157.17691 L416.25 176.11696" />
    <path d="M416.25 185.11696 L416.25 215.3963" />
    <path d="M416.25 224.3963 L416.25 290.25914" />
    <path d="M416.25 299.25914 L416.25 349.42581" />
    <path d="M416.25 358.42581 L416.25 410.18005" />
    <path d="M416.25 419.18005 L416.25 435.95256" />
    <path d="M416.25 444.95256 L416.25 476.03012" />
    <path d="M416.25 485.03012 L416.25 540.88547" />
    <path d="M416.25 549.88547 L416.25 637.79361" />
    <path d="M416.25 646.79361 L416.25 663.14929" />
    <path d="M416.25 672.14929 L416.25 729.67249" />
    <path d="M416.25 738.67249 L416.25 777.64876" />
    <path d="M416.25 786.64876 L416.25 842.68447" />
    <path d="M416.25 851.68447 L416.25 878.70757" />
    <path d="M416.25 887.70757 L416.25 915.91525" />
    <path d="M416.25 924.91525 L416.25 945" />
    <path d="M423 49.92004 L423 117.2129" />
    <path d="M423 126.2129 L423 138.47446" />
    <path d="M423 147.47446 L423 174.84011" />
    <path d="M423 183.84011 L423 188.8268" />
    <path d="M423 197.8268 L423 245.69761" />
    <path d="M423 254.69761 L423 293.11449" />
    <path d="M423 302.11449 L423 326.43608" />
    <path d="M423 335.43608 L423 375.07802" />
    <path d="M423 384.07802 L423 389.90733" />
    <path d="M423 398.90733 L423 453.04277" />
    <path d="M423 462.04277 L423 542.01205" />
    <path d="M423 551.01205 L423 613.57263" />
    <path d="M423 622.57263 L423 626.24909" />
    <path d="M423 635.24909 L423 643.87056" />
    <path d="M423 652.87056 L423 692.59856" />
    <path d="M423 701.59856 L423 755.63595" />
    <path d="M423 764.63595 L423 785.09177" />
    <path d="M423 794.09177 L423 848.16873" />
    <path d="M423 857.16873 L423 870.32137" />
    <path d="M423 879.32137 L423 889.82225" />
    <path d="M423 898.82225 L423 928.0461" />
    <path d="M423 937.0461 L423 945" />
    <path d="M429.75 47.93443 L429.75 127.94328" />
    <path d="M429.75 136.94328 L429.75 199.18102" />
    <path d="M429.75 208.18102 L429.75 237.48016" />
    <path d="M429.75 246.48016 L429.75 255.65578" />
    <path d="M429.75 264.65578 L429.75 293.34387" />
    <path d="M429.75 302.34387 L429.75 341.62755" />
    <path d="M429.75 350.62755 L429.75 368.70113" />
    <path d="M429.75 377.70113 L429.75 417.46912" />
    <path d="M429.75 426.46912 L429.75 480.58827" />
    <path d="M429.75 489.58827 L429.75 506.20941" />
    <path d="M429.75 515.20941 L429.75 567.78639" />
    <path d="M429.75 576.78639 L429.75 636.99497" />
    <path d="M429.75 645.99497 L429.75 711.47524" />
    <path d="M429.75 720.47524 L429.75 801.15412" />
    <path d="M429.75 810.15412 L429.75 830.83869" />
    <path d="M429.75 839.83869 L429.75 913.83368" />
    <path d="M429.75 922.83368 L429.75 945" />
    <path d="M436.5 45 L436.5 96.22178" />
    <path d="M436.5 105.22178 L436.5 136.24084" />
    <path d="M436.5 145.24084 L436.5 194.06203" />
    <path d="M436.5 203.06203 L436.5 292.87797" />
    <path d="M436.5 301.87797 L436.5 321.63109" />
    <path d="M436.5 330.63109 L436.5 412.8329" />
    <path d="M436.5 421.8329 L436.5 455.7798" />
    <path d="M436.5 464.7798 L436.5 507.59181" />
    <path d="M436.5 516.59181 L436.5 556.26899" />
    <path d="M436.5 565.26899 L436.5 566.36988" />
    <path d="M436.5 575.36988 L436.5 660.39003" />
    <path d="M436.5 669.39003 L436.5 745.50767" />
    <path d="M436.5 754.50767 L436.5 796.32283" />
    <path d="M436.5 805.32283 L436.5 859.22614" />
    <path d="M436.5 868.22614 L436.5 871.59981" />
    <path d="M436.5 880.59981 L436.5 937.73403" />
    <path d="M443.25 45 L443.25 53.7511" />
    <path d="M443.25 62.7511 L443.25 133.43698" />
    <path d="M443.25 142.43698 L443.25 213.84316" />
    <path d="M443.25 222.84316 L443.25 302.63382" />
    <path d="M443.25 311.63382 L443.25 316.78871" />
    <path d="M443.25 325.78871 L443.25 363.2046" />
    <path d="M443.25 372.2046 L443.25 380.36255" />
    <path d="M443.25 389.36255 L443.25 410.92391" />
    <path d="M443.25 419.92391 L443.25 467.72252" />
    <path d="M443.25 476.72252 L443.25 499.23672" />
    <path d="M443.25 508.23672 L443.25 530.40176" />
    <path d="M443.25 539.40176 L443.25 590.81115" />
    <path d="M443.25 599.81115 L443.25 609.91976" />
    <path d="M443.25 618.91976 L443.25 665.11386" />
    <path d="M443.25 674.11386 L443.25 680.53278" />
    <path d="M443.25 689.53278 L443.25 730.35057" />
    <path d="M443.25 739.35057 L443.25 767.81278" />
    <path d="M443.25 776.81278 L443.25 847.8803" />
    <path d="M443.25 856.8803 L443.25 884.30529" />
    <path d="M443.25 893.30529 L443.25 902.20134" />
    <path d="M443.25 911.20134 L443.25 937.41796" />
    <path d="M450 50.94161 L450 128.58683" />
    <path d="M450 137.58683 L450 213.34127" />
    <path d="M450 222.34127 L450 307.45158" />
    <path d="M450 316.45158 L450 391.6883" />
    <path d="M450 400.6883 L450 457.2466" />
    <path d="M450 466.2466 L450 539.22212" />
    <path d="M450 548.22212 L450 574.89447" />
    <path d="M450 583.89447 L450 622.33219" />
    <path d="M450 631.33219 L450 652.11506" />
    <path d="M450 661.11506 L450 726.72002" />
    <path d="M450 735.72002 L450 745.37661" />
    <path d="M450 754.37661 L450 798.34539" />
    <path d="M450 807.34539 L450 863.58994" />
    <path d="M450 872.58994 L450 884.49935" />
    <path d="M450 893.49935 L450 945" />
    <path d="M456.75 45 L456.75 81.47256" />
    <path d="M456.75 90.47256 L456.75 101.44558" />
    <path d="M456.75 110.44558 L456.75 125.86433" />
    <path d="M456.75 134.86433 L456.75 224.19964" />
    <path d="M456.75 233.19964 L456.75 318.23372" />
    <path d="M456.75 327.23372 L456.75 339.93677" />
    <path d="M456.75 348.93677 L456.75 402.79198" />
    <path d="M456.75 411.79198 L456.75 414.29649" />
    <path d="M456.75 423.29649 L456.75 508.96737" />
    <path d="M456.75 517.96737 L456.75 553.49005" />
    <path d="M456.75 562.49005 L456.75 579.73405" />
    <path d="M456.75 588.73405 L456.75 667.46813" />
    <path d="M456.75 676.46813 L456.75 762.53294" />
    <path d="M456.75 771.53294 L456.75 837.28448" />
    <path d="M456.75 846.28448 L456.75 878.01972" />
    <path d="M456.75 887.01972 L456.75 945" />
    <path d="M463.5 49.90133 L463.5 68.4435" />
    <path d="M463.5 77.4435 L463.5 160.93296" />
    <path d="M463.5 169.93296 L463.5 257.75781" />
    <path d="M463.5 266.75781 L463.5 353.76686" />
    <path d="M463.5 362.76686 L463.5 377.45556" />
    <path d="M463.5 386.45556 L463.5 419.21122" />
    <path d="M463.5 428.21122 L463.5 492.24739" />
    <path d="M463.5 501.24739 L463.5 567.15734" />
    <path d="M463.5 576.15734 L463.5 619.28687" />
    <path d="M463.5 628.28687 L463.5 644.89777" />
    <path d="M463.5 653.89777 L463.5 654.89935" />
    <path d="M463.5 663.89935 L463.5 695.51339" />
    <path d="M463.5 704.51339 L463.5 768.20587" />
    <path d="M463.5 777.20587 L463.5 835.60494" />
    <path d="M463.5 844.60494 L463.5 904.35574" />
    <path d="M463.5 913.35574 L463.5 945" />
    <path d="M470.25 49.03588 L470.25 102.92053" />
    <path d="M470.25 111.92053 L470.25 115.31847" />
    <path d="M470.25 124.31847 L470.25 152.38746" />
    <path d="M470.25 161.38746 L470.25 189.42656" />
    <path d="M470.25 198.42656 L470.25 258.60397" />
    <path d="M470.25 267.60397 L470.25 313.03057" />
    <path d="M470.25 322.03057 L470.25 407.50525" />
    <path d="M470.25 416.50525 L470.25 475.06253" />
    <path d="M470.25 484.06253 L470.25 490.64373" />
    <path d="M470.25 499.64373 L470.25 584.13844" />
    <path d="M470.25 593.13844 L470.25 622.76732" />
    <path d="M470.25 631.76732 L470.25 636.7412" />
    <path d="M470.25 645.7412 L470.25 672.52438" />
    <path d="M470.25 681.52438 L470.25 745.29404" />
    <path d="M470.25 754.29404 L470.25 774.33694" />
    <path d="M470.25 783.33694 L470.25 819.87535" />
    <path d="M470.25 828.87535 L470.25 896.01492" />
    <path d="M470.25 905.01492 L470.25 931.03872" />
    <path d="M470.25 940.03872 L470.25 945" />
    <path d="M477 50.4707 L477 116.93951" />
    <path d="M477 125.93951 L477 127.12408" />
    <path d="M477 136.12408 L477 179.17978" />
    <path d="M477 188.17978 L477 237.66152" />
    <path d="M477 246.66152 L477 290.87037" />
    <path d="M477 299.87037 L477 342.63835" />
    <path d="M477 351.63835 L477 428.9033" />
    <path d="M477 437.9033 L477 474.16039" />
    <path d="M477 483.16039 L477 559.12364" />
    <path d="M477 568.12364 L477 603.42271" />
    <path d="M477 612.42271 L477 656.83783" />
    <path d="M477 665.83783 L477 750.1975" />
    <path d="M477 759.1975 L477 814.05313" />
    <path d="M477 823.05313 L477 857.79647" />
    <path d="M477 866.79647 L477 940.02497" />
    <path d="M483.75 45 L483.75 128.4177" />
    <path d="M483.75 137.4177 L483.75 186.79957" />
    <path d="M483.75 195.79957 L483.75 242.13604" />
    <path d="M483.75 251.13604 L483.75 265.83505" />
    <path d="M483.75 274.83505 L483.75 299.32424" />
    <path d="M483.75 308.32424 L483.75 363.22123" />
    <path d="M483.75 372.22123 L483.75 392.07837" />
    <path d="M483.75 401.07837 L483.75 446.86847" />
    <path d="M483.75 455.86847 L483.75 498.66274" />
    <path d="M483.75 507.66274 L483.75 543.4513" />
    <path d="M483.75 552.4513 L483.75 638.77972" />
    <path d="M483.75 647.77972 L483.75 727.28437" />
    <path d="M483.75 736.28437 L483.75 754.7943" />
    <path d="M483.75 763.7943 L483.75 850.78926" />
    <path d="M483.75 859.78926 L483.75 931.51585" />
    <path d="M483.75 940.51585 L483.75 945" />
    <path d="M490.5 45 L490.5 49.5944" />
    <path d="M490.5 58.5944 L490.5 91.6193" />
    <path d="M490.5 100.6193 L490.5 165.08679" />
    <path d="M490.5 174.08679 L490.5 249.98735" />
    <path d="M490.5 258.98735 L490.5 281.03763" />
    <path d="M490.5 290.03763 L490.5 374.26132" />
    <path d="M490.5 383.26132 L490.5 472.50091" />
    <path d="M490.5 481.50091 L490.5 506.05323" />
    <path d="M490.5 515.05323 L490.5 555.63857" />
    <path d="M490.5 564.63857 L490.5 609.74369" />
    <path d="M490.5 618.74369 L490.5 653.57909" />
    <path d="M490.5 662.57909 L490.5 724.70038" />
    <path d="M490.5 733.70038 L490.5 741.29973" />
    <path d="M490.5 750.29973 L490.5 836.78178" />
    <path d="M490.5 845.78178 L490.5 846.18581" />
    <path d="M490.5 855.18581 L490.5 856.89746" />
    <path d="M490.5 865.89746 L490.5 913.79602" />
    <path d="M490.5 922.79602 L490.5 927.29439" />
    <path d="M490.5 936.29439 L490.5 945" />
    <path d="M497.25 45 L497.25 70.92145" />
    <path d="M497.25 79.92145 L497.25 136.74905" />
    <path d="M497.25 145.74905 L497.25 214.24697" />
    <path d="M497.25 223.24697 L497.25 228.61238" />
    <path d="M497.25 237.61238 L497.25 266.05234" />
    <path d="M497.25 275.05234 L497.25 326.0139" />
    <path d="M497.25 335.0139 L497.25 382.02689" />
    <path d="M497.25 391.02689 L497.25 404.70866" />
    <path d="M497.25 413.70866 L497.25 427.02266" />
    <path d="M497.25 436.02266 L497.25 448.80404" />
    <path d="M497.25 457.80404 L497.25 534.42281" />
    <path d="M497.25 543.42281 L497.25 567.88331" />
    <path d="M497.25 576.88331 L497.25 577.08613" />
    <path d="M497.25 586.08613 L497.25 657.3744" />
    <path d="M497.25 666.3744 L497.25 678.25977" />
    <path d="M497.25 687.25977 L497.25 757.07427" />
    <path d="M497.25 766.07427 L497.25 830.12151" />
    <path d="M497.25 839.12151 L497.25 929.11976" />
    <path d="M497.25 938.11976 L497.25 945" />
    <path d="M504 48.76552 L504 100.74277" />
    <path d="M504 109.74277 L504 143.91781" />
    <path d="M504 152.91781 L504 176.2997" />
    <path d="M504 185.2997 L504 243.55466" />
    <path d="M504 252.55466 L504 259.1588" />
    <path d="M504 268.1588 L504 312.97644" />
    <path d="M504 321.97644 L504 337.97627" />
    <path d="M504 346.97627 L504 383.0239" />
    <path d="M504 392.0239 L504 468.78649" />
    <path d="M504 477.78649 L504 530.114" />
    <path d="M504 539.114 L504 619.18715" />
    <path d="M504 628.18715 L504 715.26618" />
    <path d="M504 724.26618 L504 736.82645" />
    <path d="M504 745.82645 L504 790.93564" />
    <path d="M504 799.93564 L504 863.9618" />
    <path d="M504 872.9618 L504 901.48387" />
    <path d="M504 910.48387 L504 945" />
    <path d="M510.75 52.32775 L510.75 125.91297" />
    <path d="M510.75 134.91297 L510.75 189.81474" />
    <path d="M510.75 198.81474 L510.75 236.03118" />
    <path d="M510.75 245.03118 L510.75 298.14546" />
    <path d="M510.75 307.14546 L510.75 327.85749" />
    <path d="M510.75 336.85749 L510.75 414.12462" />
    <path d="M510.75 423.12462 L510.75 449.68458" />
    <path d="M510.75 458.68458 L510.75 505.64247" />
    <path d="M510.75 514.64247 L510.75 591.2109" />
    <path d="M510.75 600.2109 L510.75 661.22089" />
    <path d="M510.75 670.22089 L510.75 717.62511" />
    <path d="M510.75 726.62511 L510.75 777.33455" />
    <path d="M510.75 786.33455 L510.75 840.12135" />
    <path d="M510.75 849.12135 L510.75 918.55809" />
    <path d="M510.75 927.55809 L510.75 945" />
    <path d="M517.5 51.05283 L517.5 112.06721" />
    <path d="M517.5 121.06721 L517.5 158.37461" />
    <path d="M517.5 167.37461 L517.5 225.95596" />
    <path d="M517.5 234.95596 L517.5 311.89804" />
    <path d="M517.5 320.89804 L517.5 360.48153" />
    <path d="M517.5 369.48153 L517.5 396.13078" />
    <path d="M517.5 405.13078 L517.5 407.86465" />
    <path d="M517.5 416.86465 L517.5 474.20417" />
    <path d="M517.5 483.20417 L517.5 557.05512" />
    <path d="M517.5 566.05512 L517.5 642.76926" />
    <path d="M517.5 651.76926 L517.5 737.25394" />
    <path d="M517.5 746.25394 L517.5 829.99351" />
    <path d="M517.5 838.99351 L517.5 924.26285" />
    <path d="M517.5 933.26285 L517.5 945" />
    <path d="M524.25 48.02062 L524.25 49.84883" />
    <path d="M524.25 58.84883 L524.25 86.6898" />
    <path d="M524.25 95.6898 L524.25 110.84091" />
    <path d="M524.25 119.84091 L524.25 128.73425" />
    <path d="M524.25 137.73425 L524.25 140.2952" />
    <path d="M524.25 149.2952 L524.25 179.98929" />
    <path d="M524.25 188.98929 L524.25 210.91538" />
    <path d="M524.25 219.91538 L524.25 306.01795" />
    <path d="M524.25 315.01795 L524.25 403.85947" />
    <path d="M524.25 412.85947 L524.25 481.58036" />
    <path d="M524.25 490.58036 L524.25 512.67435" />
    <path d="M524.25 521.67435 L524.25 568.98373" />
    <path d="M524.25 577.98373 L524.25 588.98282" />
    <path d="M524.25 597.98282 L524.25 622.88644" />
    <path d="M524.25 631.88644 L524.25 709.61175" />
    <path d="M524.25 718.61175 L524.25 752.11596" />
    <path d="M524.25 761.11596 L524.25 769.92182" />
    <path d="M524.25 778.92182 L524.25 830.46222" />
    <path d="M524.25 839.46222 L524.25 854.77194" />
    <path d="M524.25 863.77194 L524.25 913.16711" />
    <path d="M524.25 922.16711 L524.25 945" />
    <path d="M531 45 L531 107.93135" />
    <path d="M531 116.93135 L531 171.93525" />
    <path d="M531 180.93525 L531 195.05641" />
    <path d="M531 204.05641 L531 240.16467" />
    <path d="M531 249.16467 L531 302.95845" />
    <path d="M531 311.95845 L531 351.82518" />
    <path d="M531 360.82518 L531 425.47469" />
    <path d="M531 434.47469 L531 486.38078" />
    <path d="M531 495.38078 L531 536.53288" />
    <path d="M531 545.53288 L531 583.92001" />
    <path d="M531 592.92001 L531 602.17452" />
    <path d="M531 611.17452 L531 658.01268" />
    <path d="M531 667.01268 L531 687.30239" />
    <path d="M531 696.30239 L531 781.60186" />
    <path d="M531 790.60186 L531 851.56501" />
    <path d="M531 860.56501 L531 931.64194" />
    <path d="M531 940.64194 L531 945" />
    <path d="M537.75 45 L537.75 80.45367" />
    <path d="M537.75 89.45367 L537.75 132.99513" />
    <path d="M537.75 141.99513 L537.75 169.49679" />
    <path d="M537.75 178.49679 L537.75 231.48558" />
    <path d="M537.75 240.48558 L537.75 273.04115" />
    <path d="M537.75 282.04115 L537.75 302.85151" />
    <path d="M537.75 311.85151 L537.75 379.30551" />
    <path d="M537.75 388.30551 L537.75 426.96958" />
    <path d="M537.75 435.96958 L537.75 447.47336" />
    <path d="M537.75 456.47336 L537.75 509.19233" />
    <path d="M537.75 518.19233 L537.75 521.82321" />
    <path d="M537.75 530.82321 L537.75 575.39126" />
    <path d="M537.75 584.39126 L537.75 589.70302" />
    <path d="M537.75 598.70302 L537.75 686.2236" />
    <path d="M537.75 695.2236 L537.75 735.52207" />
    <path d="M537.75 744.52207 L537.75 829.33366" />
    <path d="M537.75 838.33366 L537.75 856.08633" />
    <path d="M537.75 865.08633 L537.75 892.9486" />
    <path d="M537.75 901.9486 L537.75 945" />
    <path d="M544.5 45.22158 L544.5 85.28205" />
    <path d="M544.5 94.28205 L544.5 138.78919" />
    <path d="M544.5 147.78919 L544.5 196.29768" />
    <path d="M544.5 205.29768 L544.5 214.20318" />
    <path d="M544.5 223.20318 L544.5 270.73174" />
    <path d="M544.5 279.73174 L544.5 329.21529" />
    <path d="M544.5 338.21529 L544.5 392.39166" />
    <path d="M544.5 401.39166 L544.5 432.02152" />
    <path d="M544.5 441.02152 L544.5 482.34136" />
    <path d="M544.5 491.34136 L544.5 571.96859" />
    <path d="M544.5 580.96859 L544.5 605.84369" />
    <path d="M544.5 614.84369 L544.5 675.89844" />
    <path d="M544.5 684.89844 L544.5 738.46241" />
    <path d="M544.5 747.46241 L544.5 820.69628" />
    <path d="M544.5 829.69628 L544.5 919.45328" />
    <path d="M544.5 928.45328 L544.5 945" />
    <path d="M551.25 52.00546 L551.25 115.23158" />
    <path d="M551.25 124.23158 L551.25 159.78287" />
    <path d="M551.25 168.78287 L551.25 236.28648" />
    <path d="M551.25 245.28648 L551.25 304.03756" />
    <path d="M551.25 313.03756 L551.25 357.97952" />
    <path d="M551.25 366.97952 L551.25 431.22497" />
    <path d="M551.25 440.22497 L551.25 448.47955" />
    <path d="M551.25 457.47955 L551.25 468.71181" />
    <path d="M551.25 477.71181 L551.25 516.05018" />
    <path d="M551.25 525.05018 L551.25 547.21514" />
    <path d="M551.25 556.21514 L551.25 608.56729" />
    <path d="M551.25 617.56729 L551.25 620.36241" />
    <path d="M551.25 629.36241 L551.25 688.09115" />
    <path d="M551.25 697.09115 L551.25 757.3334" />
    <path d="M551.25 766.3334 L551.25 775.83762" />
    <path d="M551.25 784.83762 L551.25 808.5793" />
    <path d="M551.25 817.5793 L551.25 892.9172" />
    <path d="M551.25 901.9172 L551.25 945" />
    <path d="M558 49.19719 L558 82.23469" />
    <path d="M558 91.23469 L558 178.91833" />
    <path d="M558 187.91833 L558 249.45864" />
    <path d="M558 258.45864 L558 298.1479" />
    <path d="M558 307.1479 L558 370.55312" />
    <path d="M558 379.55312 L558 403.50756" />
    <path d="M558 412.50756 L558 464.65247" />
    <path d="M558 473.65247 L558 521.06612" />
    <path d="M558 530.06612 L558 541.23944" />
    <path d="M558 550.23944 L558 619.45974" />
    <path d="M558 628.45974 L558 661.64368" />
    <path d="M558 670.64368 L558 754.14005" />
    <path d="M558 763.14005 L558 808.08132" />
    <path d="M558 817.08132 L558 835.15017" />
    <path d="M558 844.15017 L558 875.98651" />
    <path d="M558 884.98651 L558 945" />
    <path d="M564.75 45 L564.75 65.70789" />
    <path d="M564.75 74.70789 L564.75 94.21648" />
    <path d="M564.75 103.21648 L564.75 117.93126" />
    <path d="M564.75 126.93126 L564.75 206.9609" />
    <path d="M564.75 215.9609 L564.75 243.55882" />
    <path d="M564.75 252.55882 L564.75 257.89904" />
    <path d="M564.75 266.89904 L564.75 355.82713" />
    <path d="M564.75 364.82713 L564.75 367.81389" />
    <path d="M564.75 376.81389 L564.75 406.12913" />
    <path d="M564.75 415.12913 L564.75 498.92992" />
    <path d="M564.75 507.92992 L564.75 588.37721" />
    <path d="M564.75 597.37721 L564.75 685.61069" />
    <path d="M564.75 694.61069 L564.75 724.28783" />
    <path d="M564.75 733.28783 L564.75 743.65478" />
    <path d="M564.75 752.65478 L564.75 824.19179" />
    <path d="M564.75 833.19179 L564.75 853.67054" />
    <path d="M564.75 862.67054 L564.75 926.8979" />
    <path d="M564.75 935.8979 L564.75 945" />
    <path d="M571.5 45 L571.5 120.70194" />
    <path d="M571.5 129.70194 L571.5 167.37453" />
    <path d="M571.5 176.37453 L571.5 183.25376" />
    <path d="M571.5 192.25376 L571.5 199.05568" />
    <path d="M571.5 208.05568 L571.5 245.57558" />
    <path d="M571.5 254.57558 L571.5 265.58345" />
    <path d="M571.5 274.58345 L571.5 339.2857" />
    <path d="M571.5 348.2857 L571.5 389.93448" />
    <path d="M571.5 398.93448 L571.5 411.08551" />
    <path d="M571.5 420.08551 L571.5 420.82368" />
    <path d="M571.5 429.82368 L571.5 509.95094" />
    <path d="M571.5 518.95094 L571.5 519.38092" />
    <path d="M571.5 528.38092 L571.5 543.71844" />
    <path d="M571.5 552.71844 L571.5 568.40442" />
    <path d="M571.5 577.40442 L571.5 654.80026" />
    <path d="M571.5 663.80026 L571.5 707.41241" />
    <path d="M571.5 716.41241 L571.5 795.5233" />
    <path d="M571.5 804.5233 L571.5 821.47764" />
    <path d="M571.5 830.47764 L571.5 904.33413" />
    <path d="M571.5 913.33413 L571.5 923.3182" />
    <path d="M571.5 932.3182 L571.5 945" />
    <path d="M578.25 45 L578.25 71.932" />
    <path d="M578.25 80.932 L578.25 138.73293" />
    <path d="M578.25 147.73293 L578.25 198.08299" />
    <path d="M578.25 207.08299 L578.25 284.33325" />
    <path d="M578.25 293.33325 L578.25 331.76475" />
    <path d="M578.25 340.76475 L578.25 346.36449" />
    <path d="M578.25 355.36449 L578.25 377.62306" />
    <path d="M578.25 386.62306 L578.25 387.85673" />
    <path d="M578.25 396.85673 L578.25 459.52753" />
    <path d="M578.25 468.52753 L578.25 545.18728" />
    <path d="M578.25 554.18728 L578.25 621.39285" />
    <path d="M578.25 630.39285 L578.25 699.39047" />
    <path d="M578.25 708.39047 L578.25 739.83906" />
    <path d="M578.25 748.83906 L578.25 757.98827" />
    <path d="M578.25 766.98827 L578.25 785.01806" />
    <path d="M578.25 794.01806 L578.25 844.91648" />
    <path d="M578.25 853.91648 L578.25 862.69878" />
    <path d="M578.25 871.69878 L578.25 930.33949" />
    <path d="M578.25 939.33949 L578.25 945" />
    <path d="M585 48.75626 L585 89.62712" />
    <path d="M585 98.62712 L585 141.1404" />
    <path d="M585 150.1404 L585 196.98474" />
    <path d="M585 205.98474 L585 276.69592" />
    <path d="M585 285.69592 L585 365.32187" />
    <path d="M585 374.32187 L585 430.86757" />
    <path d="M585 439.86757 L585 529.28022" />
    <path d="M585 538.28022 L585 552.27767" />
    <path d="M585 561.27767 L585 650.78252" />
    <path d="M585 659.78252 L585 716.88534" />
    <path d="M585 725.88534 L585 809.71012" />
    <path d="M585 818.71012 L585 820.12121" />
    <path d="M585 829.12121 L585 865.79861" />
    <path d="M585 874.79861 L585 945" />
    <path d="M591.75 45 L591.75 64.33911" />
    <path d="M591.75 73.33911 L591.75 94.57619" />
    <path d="M591.75 103.57619 L591.75 166.96862" />
    <path d="M591.75 175.96862 L591.75 237.63273" />
    <path d="M591.75 246.63273 L591.75 252.21017" />
    <path d="M591.75 261.21017 L591.75 341.55591" />
    <path d="M591.75 350.55591 L591.75 419.47951" />
    <path d="M591.75 428.47951 L591.75 451.83278" />
    <path d="M591.75 460.83278 L591.75 549.59357" />
    <path d="M591.75 558.59357 L591.75 625.72562" />
    <path d="M591.75 634.72562 L591.75 713.68763" />
    <path d="M591.75 722.68763 L591.75 738.67183" />
    <path d="M591.75 747.67183 L591.75 835.75918" />
    <path d="M591.75 844.75918 L591.75 902.58957" />
    <path d="M591.75 911.58957 L591.75 925.4639" />
    <path d="M591.75 934.4639 L591.75 945" />
    <path d="M598.5 53.46846 L598.5 116.05582" />
    <path d="M598.5 125.05582 L598.5 177.54413" />
    <path d="M598.5 186.54413 L598.5 209.53769" />
    <path d="M598.5 218.53769 L598.5 300.23479" />
    <path d="M598.5 309.23479 L598.5 370.35663" />
    <path d="M598.5 379.35663 L598.5 390.96896" />
    <path d="M598.5 399.96896 L598.5 462.11897" />
    <path d="M598.5 471.11897 L598.5 506.08258" />
    <path d="M598.5 515.08258 L598.5 530.91116" />
    <path d="M598.5 539.91116 L598.5 568.06108" />
    <path d="M598.5 577.06108 L598.5 597.35464" />
    <path d="M598.5 606.35464 L598.5 619.09219" />
    <path d="M598.5 628.09219 L598.5 676.46338" />
    <path d="M598.5 685.46338 L598.5 692.22028" />
    <path d="M598.5 701.22028 L598.5 728.19904" />
    <path d="M598.5 737.19904 L598.5 744.93041" />
    <path d="M598.5 753.93041 L598.5 782.41258" />
    <path d="M598.5 791.41258 L598.5 858.6248" />
    <path d="M598.5 867.6248 L598.5 871.37996" />
    <path d="M598.5 880.37996 L598.5 886.14527" />
    <path d="M598.5 895.14527 L598.5 945" />
    <path d="M605.25 45 L605.25 92.60471" />
    <path d="M605.25 101.60471 L605.25 127.08193" />
    <path d="M605.25 136.08193 L605.25 181.24849" />
    <path d="M605.25 190.24849 L605.25 217.11739" />
    <path d="M605.25 226.11739 L605.25 250.31966" />
    <path d="M605.25 259.31966 L605.25 268.24651" />
    <path d="M605.25 277.24651 L605.25 303.88607" />
    <path d="M605.25 312.88607 L605.25 371.76518" />
    <path d="M605.25 380.76518 L605.25 445.51634" />
    <path d="M605.25 454.51634 L605.25 481.82391" />
    <path d="M605.25 490.82391 L605.25 497.87088" />
    <path d="M605.25 506.87088 L605.25 588.1914" />
    <path d="M605.25 597.1914 L605.25 655.09923" />
    <path d="M605.25 664.09923 L605.25 730.65883" />
    <path d="M605.25 739.65883 L605.25 814.7514" />
    <path d="M605.25 823.7514 L605.25 902.90434" />
    <path d="M605.25 911.90434 L605.25 945" />
    <path d="M612 45 L612 93.71872" />
    <path d="M612 102.71872 L612 189.86492" />
    <path d="M612 198.86492 L612 279.39931" />
    <path d="M612 288.39931 L612 328.52111" />
    <path d="M612 337.52111 L612 342.67901" />
    <path d="M612 351.67901 L612 372.02307" />
    <path d="M612 381.02307 L612 432.86952" />
    <path d="M612 441.86952 L612 519.17404" />
    <path d="M612 528.17404 L612 533.09122" />
    <path d="M612 542.09122 L612 619.92714" />
    <path d="M612 628.92714 L612 661.53742" />
    <path d="M612 670.53742 L612 700.99157" />
    <path d="M612 709.99157 L612 746.71401" />
    <path d="M612 755.71401 L612 819.66982" />
    <path d="M612 828.66982 L612 908.94556" />
    <path d="M612 917.94556 L612 945" />
    <path d="M618.75 45 L618.75 120.00152" />
    <path d="M618.75 129.00152 L618.75 166.35835" />
    <path d="M618.75 175.35835 L618.75 187.69939" />
    <path d="M618.75 196.69939 L618.75 210.75233" />
    <path d="M618.75 219.75233 L618.75 305.79831" />
    <path d="M618.75 314.79831 L618.75 335.47696" />
    <path d="M618.75 344.47696 L618.75 398.24844" />
    <path d="M618.75 407.24844 L618.75 455.12491" />
    <path d="M618.75 464.12491 L618.75 497.00835" />
    <path d="M618.75 506.00835 L618.75 517.8538" />
    <path d="M618.75 526.8538 L618.75 557.14009" />
    <path d="M618.75 566.14009 L618.75 583.24229" />
    <path d="M618.75 592.24229 L618.75 603.01336" />
    <path d="M618.75 612.01336 L618.75 644.31565" />
    <path d="M618.75 653.31565 L618.75 718.91739" />
    <path d="M618.75 727.91739 L618.75 814.15715" />
    <path d="M618.75 823.15715 L618.75 827.03707" />
    <path d="M618.75 836.03707 L618.75 844.06636" />
    <path d="M618.75 853.06636 L618.75 874.23894" />
    <path d="M618.75 883.23894 L618.75 945" />
    <path d="M625.5 45 L625.5 83.35879" />
    <path d="M625.5 92.35879 L625.5 169.62495" />
    <path d="M625.5 178.62495 L625.5 263.61427" />
    <path d="M625.5 272.61427 L625.5 361.2031" />
    <path d="M625.5 370.2031 L625.5 408.58459" />
    <path d="M625.5 417.58459 L625.5 475.5868" />
    <path d="M625.5 484.5868 L625.5 492.09546" />
    <path d="M625.5 501.09546 L625.5 569.01119" />
    <path d="M625.5 578.01119 L625.5 642.05922" />
    <path d="M625.5 651.05922 L625.5 730.31549" />
    <path d="M625.5 739.31549 L625.5 763.72319" />
    <path d="M625.5 772.72319 L625.5 812.73222" />
    <path d="M625.5 821.73222 L625.5 862.14483" />
    <path d="M625.5 871.14483 L625.5 944.68969" />
    <path d="M632.25 45 L632.25 78.55987" />
    <path d="M632.25 87.55987 L632.25 114.88543" />
    <path d="M632.25 123.88543 L632.25 153.27948" />
    <path d="M632.25 162.27948 L632.25 215.4553" />
    <path d="M632.25 224.4553 L632.25 292.48345" />
    <path d="M632.25 301.48345 L632.25 332.16632" />
    <path d="M632.25 341.16632 L632.25 409.6193" />
    <path d="M632.25 418.6193 L632.25 447.36879" />
    <path d="M632.25 456.36879 L632.25 532.87837" />
    <path d="M632.25 541.87837 L632.25 579.40435" />
    <path d="M632.25 588.40435 L632.25 615.56232" />
    <path d="M632.25 624.56232 L632.25 684.84483" />
    <path d="M632.25 693.84483 L632.25 775.66489" />
    <path d="M632.25 784.66489 L632.25 795.03512" />
    <path d="M632.25 804.03512 L632.25 821.28065" />
    <path d="M632.25 830.28065 L632.25 869.31409" />
    <path d="M632.25 878.31409 L632.25 885.73116" />
    <path d="M632.25 894.73116 L632.25 930.52342" />
    <path d="M632.25 939.52342 L632.25 945" />
    <path d="M639 52.73808 L639 134.46088" />
    <path d="M639 143.46088 L639 172.84746" />
    <path d="M639 181.84746 L639 266.32374" />
    <path d="M639 275.32374 L639 313.00078" />
    <path d="M639 322.00078 L639 354.44569" />
    <path d="M639 363.44569 L639 403.61617" />
    <path d="M639 412.61617 L639 424.54439" />
    <path d="M639 433.54439 L639 452.44453" />
    <path d="M639 461.44453 L639 492.8307" />
    <path d="M639 501.8307 L639 502.27014" />
    <path d="M639 511.27014 L639 599.41846" />
    <path d="M639 608.41846 L639 626.18913" />
    <path d="M639 635.18913 L639 678.85842" />
    <path d="M639 687.85842 L639 741.01706" />
    <path d="M639 750.01706 L639 823.56756" />
    <path d="M639 832.56756 L639 840.97366" />
    <path d="M639 849.97366 L639 861.2542" />
    <path d="M639 870.2542 L639 897.45079" />
    <path d="M639 906.45079 L639 933.44148" />
    <path d="M639 942.44148 L639 945" />
    <path d="M645.75 45 L645.75 89.10443" />
    <path d="M645.75 98.10443 L645.75 141.44679" />
    <path d="M645.75 150.44679 L645.75 170.10392" />
    <path d="M645.75 179.10392 L645.75 213.5252" />
    <path d="M645.75 222.5252 L645.75 266.767" />
    <path d="M645.75 275.767 L645.75 298.71986" />
    <path d="M645.75 307.71986 L645.75 322.40345" />
    <path d="M645.75 331.40345 L645.75 394.37385" />
    <path d="M645.75 403.37385 L645.75 433.4724" />
    <path d="M645.75 442.4724 L645.75 491.13825" />
    <path d="M645.75 500.13825 L645.75 532.32571" />
    <path d="M645.75 541.32571 L645.75 586.47539" />
    <path d="M645.75 595.47539 L645.75 619.03058" />
    <path d="M645.75 628.03058 L645.75 715.50289" />
    <path d="M645.75 724.50289 L645.75 738.90685" />
    <path d="M645.75 747.90685 L645.75 811.11673" />
    <path d="M645.75 820.11673 L645.75 863.3693" />
    <path d="M645.75 872.3693 L645.75 908.36834" />
    <path d="M645.75 917.36834 L645.75 935.8654" />
    <path d="M645.75 944.8654 L645.75 945" />
    <path d="M652.5 45 L652.5 97.0714" />
    <path d="M652.5 106.0714 L652.5 146.18741" />
    <path d="M652.5 155.18741 L652.5 157.72181" />
    <path d="M652.5 166.72181 L652.5 241.36696" />
    <path d="M652.5 250.36696 L652.5 314.44404" />
    <path d="M652.5 323.44404 L652.5 397.16102" />
    <path d="M652.5 406.16102 L652.5 468.54843" />
    <path d="M652.5 477.54843 L652.5 557.24849" />
    <path d="M652.5 566.24849 L652.5 583.69755" />
    <path d="M652.5 592.69755 L652.5 650.53506" />
    <path d="M652.5 659.53506 L652.5 710.01402" />
    <path d="M652.5 719.01402 L652.5 745.50677" />
    <path d="M652.5 754.50677 L652.5 809.25861" />
    <path d="M652.5 818.25861 L652.5 892.17107" />
    <path d="M652.5 901.17107 L652.5 945" />
    <path d="M659.25 48.1416 L659.25 87.90919" />
    <path d="M659.25 96.90919 L659.25 133.39738" />
    <path d="M659.25 142.39738 L659.25 181.06219" />
    <path d="M659.25 190.06219 L659.25 252.04154" />
    <path d="M659.25 261.04154 L659.25 279.2954" />
    <path d="M659.25 288.2954 L659.25 370.77062" />
    <path d="M659.25 379.77062 L659.25 450.83884" />
    <path d="M659.25 459.83884 L659.25 548.25318" />
    <path d="M659.25 557.25318 L659.25 582.08811" />
    <path d="M659.25 591.08811 L659.25 592.35519" />
    <path d="M659.25 601.35519 L659.25 662.87498" />
    <path d="M659.25 671.87498 L659.25 702.79945" />
    <path d="M659.25 711.79945 L659.25 788.14219" />
    <path d="M659.25 797.14219 L659.25 840.22031" />
    <path d="M659.25 849.22031 L659.25 895.05376" />
    <path d="M659.25 904.05376 L659.25 945" />
    <path d="M666 48.39894 L666 53.42668" />
    <path d="M666 62.42668 L666 74.08407" />
    <path d="M666 83.08407 L666 122.70954" />
    <path d="M666 131.70954 L666 161.91695" />
    <path d="M666 170.91695 L666 171.93047" />
    <path d="M666 180.93047 L666 210.95401" />
    <path d="M666 219.95401 L666 301.19062" />
    <path d="M666 310.19062 L666 341.33475" />
    <path d="M666 350.33475 L666 402.18429" />
    <path d="M666 411.18429 L666 477.3456" />
    <path d="M666 486.3456 L666 510.67208" />
    <path d="M666 519.67208 L666 537.17854" />
    <path d="M666 546.17854 L666 629.56966" />
    <path d="M666 638.56966 L666 672.69467" />
    <path d="M666 681.69467 L666 697.03265" />
    <path d="M666 706.03265 L666 747.94909" />
    <path d="M666 756.94909 L666 784.3632" />
    <path d="M666 793.3632 L666 867.19778" />
    <path d="M666 876.19778 L666 943.05244" />
    <path d="M672.75 45 L672.75 130.4287" />
    <path d="M672.75 139.4287 L672.75 203.01716" />
    <path d="M672.75 212.01716 L672.75 255.95711" />
    <path d="M672.75 264.95711 L672.75 326.80819" />
    <path d="M672.75 335.80819 L672.75 353.92418" />
    <path d="M672.75 362.92418 L672.75 378.29947" />
    <path d="M672.75 387.29947 L672.75 444.03222" />
    <path d="M672.75 453.03222 L672.75 507.40263" />
    <path d="M672.75 516.40263 L672.75 597.04503" />
    <path d="M672.75 606.04503 L672.75 671.26715" />
    <path d="M672.75 680.26715 L672.75 713.56239" />
    <path d="M672.75 722.56239 L672.75 794.54828" />
    <path d="M672.75 803.54828 L672.75 885.84135" />
    <path d="M672.75 894.84135 L672.75 945" />
    <path d="M679.5 47.21055 L679.5 131.06105" />
    <path d="M679.5 140.06105 L679.5 217.71605" />
    <path d="M679.5 226.71605 L679.5 268.16135" />
    <path d="M679.5 277.16135 L679.5 327.31143" />
    <path d="M679.5 336.31143 L679.5 345.5195" />
    <path d="M679.5 354.5195 L679.5 390.54447" />
    <path d="M679.5 399.54447 L679.5 425.20663" />
    <path d="M679.5 434.20663 L679.5 514.99918" />
    <path d="M679.5 523.99918 L679.5 544.71886" />
    <path d="M679.5 553.71886 L679.5 609.03603" />
    <path d="M679.5 618.03603 L679.5 639.37744" />
    <path d="M679.5 648.37744 L679.5 649.82047" />
    <path d="M679.5 658.82047 L679.5 711.44657" />
    <path d="M679.5 720.44657 L679.5 762.2088" />
    <path d="M679.5 771.2088 L679.5 810.76414" />
    <path d="M679.5 819.76414 L679.5 869.99434" />
    <path d="M679.5 878.99434 L679.5 896.81355" />
    <path d="M679.5 905.81355 L679.5 934.24349" />
    <path d="M679.5 943.24349 L679.5 945" />
    <path d="M686.25 47.508 L686.25 48.75052" />
    <path d="M686.25 57.75052 L686.25 65.89902" />
    <path d="M686.25 74.89902 L686.25 111.46562" />
    <path d="M686.25 120.46562 L686.25 181.49058" />
    <path d="M686.25 190.49058 L686.25 243.59274" />
    <path d="M686.25 252.59274 L686.25 273.82176" />
    <path d="M686.25 282.82176 L686.25 297.16372" />
    <path d="M686.25 306.16372 L686.25 379.8303" />
    <path d="M686.25 388.8303 L686.25 430.29438" />
    <path d="M686.25 439.29438 L686.25 462.53034" />
    <path d="M686.25 471.53034 L686.25 542.82935" />
    <path d="M686.25 551.82935 L686.25 586.0716" />
    <path d="M686.25 595.0716 L686.25 636.59696" />
    <path d="M686.25 645.59696 L686.25 728.42944" />
    <path d="M686.25 737.42944 L686.25 811.12169" />
    <path d="M686.25 820.12169 L686.25 874.22895" />
    <path d="M686.25 883.22895 L686.25 945" />
    <path d="M693 47.10171 L693 134.55965" />
    <path d="M693 143.55965 L693 213.75205" />
    <path d="M693 222.75205 L693 240.09313" />
    <path d="M693 249.09313 L693 255.85443" />
    <path d="M693 264.85443 L693 291.44305" />
    <path d="M693 300.44305 L693 353.65784" />
    <path d="M693 362.65784 L693 395.98752" />
    <path d="M693 404.98752 L693 492.07601" />
    <path d="M693 501.07601 L693 586.98022" />
    <path d="M693 595.98022 L693 615.33754" />
    <path d="M693 624.33754 L693 671.63598" />
    <path d="M693 680.63598 L693 748.07106" />
    <path d="M693 757.07106 L693 837.67178" />
    <path d="M693 846.67178 L693 899.47799" />
    <path d="M693 908.47799 L693 945" />
    <path d="M699.75 49.95649 L699.75 113.30316" />
    <path d="M699.75 122.30316 L699.75 128.73255" />
    <path d="M699.75 137.73255 L699.75 227.22582" />
    <path d="M699.75 236.22582 L699.75 246.80336" />
    <path d="M699.75 255.80336 L699.75 287.1424" />
    <path d="M699.75 296.1424 L699.75 373.66736" />
    <path d="M699.75 382.66736 L699.75 470.29302" />
    <path d="M699.75 479.29302 L699.75 502.18244" />
    <path d="M699.75 511.18244 L699.75 541.45425" />
    <path d="M699.75 550.45425 L699.75 565.34395" />
    <path d="M699.75 574.34395 L699.75 612.74997" />
    <path d="M699.75 621.74997 L699.75 650.58738" />
    <path d="M699.75 659.58738 L699.75 731.06113" />
    <path d="M699.75 740.06113 L699.75 751.87232" />
    <path d="M699.75 760.87232 L699.75 811.12575" />
    <path d="M699.75 820.12575 L699.75 902.18109" />
    <path d="M699.75 911.18109 L699.75 945" />
    <path d="M706.5 45 L706.5 128.47773" />
    <path d="M706.5 137.47773 L706.5 221.45421" />
    <path d="M706.5 230.45421 L706.5 260.70303" />
    <path d="M706.5 269.70303 L706.5 325.97594" />
    <path d="M706.5 334.97594 L706.5 405.92397" />
    <path d="M706.5 414.92397 L706.5 439.70481" />
    <path d="M706.5 448.70481 L706.5 509.26909" />
    <path d="M706.5 518.26909 L706.5 519.45443" />
    <path d="M706.5 528.45443 L706.5 606.48623" />
    <path d="M706.5 615.48623 L706.5 674.58354" />
    <path d="M706.5 683.58354 L706.5 700.19434" />
    <path d="M706.5 709.19434 L706.5 758.35156" />
    <path d="M706.5 767.35156 L706.5 850.09828" />
    <path d="M706.5 859.09828 L706.5 890.63295" />
    <path d="M706.5 899.63295 L706.5 940.99965" />
    <path d="M713.25 45 L713.25 114.91752" />
    <path d="M713.25 123.91752 L713.25 188.46782" />
    <path d="M713.25 197.46782 L713.25 251.59546" />
    <path d="M713.25 260.59546 L713.25 328.25125" />
    <path d="M713.25 337.25125 L713.25 375.04163" />
    <path d="M713.25 384.04163 L713.25 384.88667" />
    <path d="M713.25 393.88667 L713.25 476.64217" />
    <path d="M713.25 485.64217 L713.25 506.37675" />
    <path d="M713.25 515.37675 L713.25 579.03415" />
    <path d="M713.25 588.03415 L713.25 668.02147" />
    <path d="M713.25 677.02147 L713.25 746.26791" />
    <path d="M713.25 755.26791 L713.25 801.98724" />
    <path d="M713.25 810.98724 L713.25 837.20136" />
    <path d="M713.25 846.20136 L713.25 861.92262" />
    <path d="M713.25 870.92262 L713.25 945" />
    <path d="M720 45 L720 133.56397" />
    <path d="M720 142.56397 L720 228.00991" />
    <path d="M720 237.00991 L720 289.01432" />
    <path d="M720 298.01432 L720 305.10724" />
    <path d="M720 314.10724 L720 357.49887" />
    <path d="M720 366.49887 L720 441.27909" />
    <path d="M720 450.27909 L720 509.20778" />
    <path d="M720 518.20778 L720 532.26028" />
    <path d="M720 541.26028 L720 549.26727" />
    <path d="M720 558.26727 L720 590.37223" />
    <path d="M720 599.37223 L720 633.81982" />
    <path d="M720 642.81982 L720 690.08846" />
    <path d="M720 699.08846 L720 783.68472" />
    <path d="M720 792.68472 L720 856.89993" />
    <path d="M720 865.89993 L720 935.61531" />
    <path d="M720 944.61531 L720 945" />
  </g>
</svg>