<?xml version="1.0" standalone="no"?>
<!DOCTYPE svg PUBLIC "-//W3C//DTD SVG 1.1//EN" 
    "http://www.w3.org/Graphics/SVG/1.1/DTD/svg11.dtd">
<svg width="2480px" height="3508px"
    xmlns="http://www.w3.org/2000/svg" version="1.1" viewBox="0 0 2480 3508">
  <g fill="none" stroke="black" stroke-width="1.06299px">
    <path d="M620 1134 L1860 1134" />
    <path d="M1860 1134 L1860 2374" />
    <path d="M1860 2374 L620 2374" />
    <path d="M620 2374 L620 1134" />
    <path d="M626.5129412211135 1129.5349595641592 L1866.4657258206857 1140.3558635821428" />
    <path d="M1866.4657258206857 1140.3558635821428 L1855.6448218027022 2380.3086481817154" />
    <path d="M1855.6448218027022 2380.3086481817154 L615.6920372031298 2369.4877441637313" />
    <path d="M615.6920372031298 2369.4877441637313 L626.5129412211135 1129.5349595641592" />
    <path d="M633.2318057972093 1124.9625351832356 L1873.0429477911343 1146.603519165467" />
    <path d="M1873.0429477911343 1146.603519165467 L1851.401963808903 2386.4146611593924" />
    <path d="M1851.401963808903 2386.4146611593924 L611.5908218149777 2364.7736771771606" />
    <path d="M611.5908218149777 2364.7736771771606 L633.2318057972093 1124.9625351832356" />
    <path d="M640.1581962960084 1120.2852251856207 L1879.7332792656994 1152.7446410873831" />
    <path d="M1879.7332792656994 1152.7446410873831 L1847.2738633639367 2392.3197240570744" />
    <path d="M1847.2738633639367 2392.3197240570744 L607.6987803942458 2359.8603081553115" />
    <path d="M607.6987803942458 2359.8603081553115 L640.1581962960084 1120.2852251856207" />
    <path d="M647.2936873123139 1115.5055476386324 L1886.5383128159926 1158.7809235497339" />
    <path d="M1886.5383128159926 1158.7809235497339 L1843.2629369048914 2398.0255490534128" />
    <path d="M1843.2629369048914 2398.0255490534128 L604.0183114012126 2354.7501731423113" />
    <path d="M604.0183114012126 2354.7501731423113 L647.2936873123139 1115.5055476386324" />
    <path d="M654.639825246013 1110.626040050116 L1893.4596200075166 1164.7140803831326" />
    <path d="M1893.4596200075166 1164.7140803831326 L1839.3715796745 2403.533875144636" />
    <path d="M1839.3715796745 2403.533875144636 L600.5517849129964 2349.4458348116195" />
    <path d="M600.5517849129964 2349.4458348116195 L654.639825246013 1110.626040050116" />
    <path d="M662.1981280831614 1105.649259067673 L1900.498751178833 1170.5458448089234" />
    <path d="M1900.498751178833 1170.5458448089234 L1835.6021654375827 2408.846467904595" />
    <path d="M1835.6021654375827 2408.846467904595 L597.301542341911 2343.9498821633447" />
    <path d="M597.301542341911 2343.9498821633447 L662.1981280831614 1105.649259067673" />
    <path d="M669.9700851801721 1100.5777801755576 L1907.657235223287 1176.2779691987803" />
    <path d="M1907.657235223287 1176.2779691987803 L1831.9570462000647 2413.965119241895" />
    <path d="M1831.9570462000647 2413.965119241895 L594.2698961569496 2338.264930218673" />
    <path d="M594.2698961569496 2338.264930218673 L669.9700851801721 1100.5777801755576" />
    <path d="M677.9571570511364 1095.414197389267 L1914.9365793733184 1181.9122248319823" />
    <path d="M1914.9365793733184 1181.9122248319823 L1828.438551930603 2418.8916471541643" />
    <path d="M1828.438551930603 2418.8916471541643 L591.459129608421 2332.393619711449" />
    <path d="M591.459129608421 2332.393619711449 L677.9571570511364 1095.414197389267" />
    <path d="M686.1607751582966 1090.161122947858 L1922.3382689873752 1187.4504016503856" />
    <path d="M1922.3382689873752 1187.4504016503856 L1825.0489902848476 2423.6278954794643" />
    <path d="M1825.0489902848476 2423.6278954794643 L588.8714964557688 2326.3386167769368" />
    <path d="M588.8714964557688 2326.3386167769368 L686.1607751582966 1090.161122947858" />
    <path d="M694.5823417056979 1084.8211870040234 L1929.8637673394624 1192.8943080111194" />
    <path d="M1929.8637673394624 1192.8943080111194 L1821.7906463323664 2428.175733644884" />
    <path d="M1821.7906463323664 2428.175733644884 L586.5092206986018 2320.102612637788" />
    <path d="M586.5092206986018 2320.102612637788 L694.5823417056979 1084.8211870040234" />
    <path d="M703.2232294360394 1079.3970373119573 L1937.514515411341 1198.245770437035" />
    <path d="M1937.514515411341 1198.245770437035 L1818.6657822862635 2432.537056412337" />
    <path d="M1818.6657822862635 2432.537056412337 L584.3744963109617 2313.688323287259" />
    <path d="M584.3744963109617 2313.688323287259 L703.2232294360394 1079.3970373119573" />
    <path d="M712.0847814307488 1073.8913389130453 L1945.2919316874077 1203.5066333649356" />
    <path d="M1945.2919316874077 1203.5066333649356 L1815.6766372355173 2436.7137836215943" />
    <path d="M1815.6766372355173 2436.7137836215943 L582.4694869788584 2307.0984891697044" />
    <path d="M582.4694869788584 2307.0984891697044 L712.0847814307488 1073.8913389130453" />
    <path d="M721.1683109133022 1068.3067738194077 L1953.1974119522706 1208.6787588916122" />
    <path d="M1953.1974119522706 1208.6787588916122 L1812.8254268800665 2440.7078599305805" />
    <path d="M1812.8254268800665 2440.7078599305805 L580.7963258410979 2300.335874858376" />
    <path d="M580.7963258410979 2300.335874858376 L721.1683109133022 1068.3067738194077" />
    <path d="M730.4751010558139 1062.6460406953338 L1961.232329091053 1213.7640265177167" />
    <path d="M1961.232329091053 1213.7640265177167 L1810.1143432686702 2444.5212545529557" />
    <path d="M1810.1143432686702 2444.5212545529557 L579.3571152334309 2293.403268730573" />
    <path d="M579.3571152334309 2293.403268730573 L730.4751010558139 1062.6460406953338" />
    <path d="M740.0064047889122 1056.911854536634 L1969.398032892437 1218.7643328894983" />
    <path d="M1969.398032892437 1218.7643328894983 L1807.545554539573 2448.155960993023" />
    <path d="M1807.545554539573 2448.155960993023 L578.1539264360482 2286.303482640159" />
    <path d="M578.1539264360482 2286.303482640159 L740.0064047889122 1056.911854536634" />
    <path d="M749.7634446149302 1051.1069463479503 L1977.6958498544775 1223.6815915384313" />
    <path d="M1977.6958498544775 1223.6815915384313 L1805.1212046639962 2451.6139967779786" />
    <path d="M1805.1212046639962 2451.6139967779786 L577.1887994244491 2279.0393515874975" />
    <path d="M577.1887994244491 2279.0393515874975 L749.7634446149302 1051.1069463479503" />
    <path d="M759.7474124244272 1045.2340628180493 L1986.127082993204 1228.5177326187663" />
    <path d="M1986.127082993204 1228.5177326187663 L1802.8434131924869 2454.897403187543" />
    <path d="M1802.8434131924869 2454.897403187543 L576.4637426237101 2271.613733386826" />
    <path d="M576.4637426237101 2271.613733386826 L759.7474124244272 1045.2340628180493" />
    <path d="M769.9594693160628 1039.2959659931416 L1994.6930116540336 1233.274702643028" />
    <path d="M1994.6930116540336 1233.274702643028 L1800.7142750041473 2458.008244980999" />
    <path d="M1800.7142750041473 2458.008244980999 L575.9807326661766 2264.0295083311125" />
    <path d="M575.9807326661766 2264.0295083311125 L769.9594693160628 1039.2959659931416" />
    <path d="M780.400745419846 1033.295432948254 L2003.3948913260128 1237.9544642154942" />
    <path d="M2003.3948913260128 1237.9544642154942 L1798.7358600587727 2460.948610121661" />
    <path d="M1798.7358600587727 2460.948610121661 L575.7417141526057 2256.289578854421" />
    <path d="M575.7417141526057 2256.289578854421 L780.400745419846 1033.295432948254" />
    <path d="M791.0723397237779 1027.2352554566892 L2012.233953458916 1242.558995763683" />
    <path d="M2012.233953458916 1242.558995763683 L1796.910213151922 2463.720609498821" />
    <path d="M1796.910213151922 2463.720609498821 L575.7485994167843 2248.396869191827" />
    <path d="M575.7485994167843 2248.396869191827 L791.0723397237779 1027.2352554566892" />
    <path d="M801.975319903908 1021.1182396576135 L2021.2114052832117 1247.0902912678762" />
    <path d="M2021.2114052832117 1247.0902912678762 L1795.239353672949 2466.32637664718" />
    <path d="M1795.239353672949 2466.32637664718 L576.0032682936452 2240.354325036917" />
    <path d="M576.0032682936452 2240.354325036917 L801.975319903908 1021.1182396576135" />
    <path d="M813.1107221578245 1014.9472057217972 L2030.328429632928 1251.550359988713" />
    <path d="M2030.328429632928 1251.550359988713 L1793.7252753660123 2468.768067463816" />
    <path d="M1793.7252753660123 2468.768067463816 L576.507567890909 2232.1649131969007" />
    <path d="M576.507567890909 2232.1649131969007 L813.1107221578245 1014.9472057217972" />
    <path d="M824.479551041596 1008.7249875155518 L2039.5861847714245 1255.9412261928765" />
    <path d="M2039.5861847714245 1255.9412261928765 L1792.3699460941002 2471.047859922705" />
    <path d="M1792.3699460941002 2471.047859922705 L577.2633123642714 2223.8316212453806" />
    <path d="M577.2633123642714 2223.8316212453806 L824.479551041596 1008.7249875155518" />
    <path d="M836.0827793101853 1002.4544322628917 L2048.9858042201045 1260.2649288769132" />
    <path d="M2048.9858042201045 1260.2649288769132 L1791.1753076060827 2473.167953786832" />
    <path d="M1791.1753076060827 2473.167953786832 L578.2722826961638 2215.357457172811" />
    <path d="M578.2722826961638 2215.357457172811 L836.0827793101853 1002.4544322628917" />
    <path d="M847.9213477613532 996.1384002059594 L2058.5283965900708 1264.5235214892068" />
    <path d="M2058.5283965900708 1264.5235214892068 L1790.143275306823 2475.130570317924" />
    <path d="M1790.143275306823 2475.130570317924 L579.5362264781057 2206.7454490346768" />
    <path d="M579.5362264781057 2206.7454490346768 L847.9213477613532 996.1384002059594" />
    <path d="M859.9961650830699 989.7797642637483 L2068.2150454167613 1268.719071650141" />
    <path d="M2068.2150454167613 1268.719071650141 L1789.2757380303688 2476.9379519838326" />
    <path d="M1789.2757380303688 2476.9379519838326 L581.0568576966772 2197.99864459744" />
    <path d="M581.0568576966772 2197.99864459744 L859.9961650830699 989.7797642637483" />
    <path d="M872.3081077044515 983.3814096891588 L2078.04680899757 1272.8536608704815" />
    <path d="M2078.04680899757 1272.8536608704815 L1788.5745578162478 2478.5923621636002" />
    <path d="M1788.5745578162478 2478.5923621636002 L582.8358565231288 2189.1201109822778" />
    <path d="M582.8358565231288 2189.1201109822778 L872.3081077044515 983.3814096891588" />
    <path d="M884.8580196502413 976.9462337244208 L2088.024720232477 1276.9293842680088" />
    <path d="M2088.024720232477 1276.9293842680088 L1788.041569688889 2480.0960848502446" />
    <path d="M1788.041569688889 2480.0960848502446 L584.8748691066533 2180.1129343066564" />
    <path d="M584.8748691066533 2180.1129343066564 L884.8580196502413 976.9462337244208" />
    <path d="M897.64671239885 970.4771452549242 L2098.1497864677035 1280.9483502824314" />
    <path d="M2098.1497864677035 1280.9483502824314 L1787.6785814401962 2481.451424351285" />
    <path d="M1787.6785814401962 2481.451424351285 L587.1755073713426 2170.980219323778" />
    <path d="M587.1755073713426 2170.980219323778 L897.64671239885 970.4771452549242" />
    <path d="M910.6749647439726 963.9770644614857 L2108.422989342417 1284.9126803886115" />
    <path d="M2108.422989342417 1284.9126803886115 L1787.4873734152916 2482.6607049870563" />
    <path d="M1787.4873734152916 2482.6607049870563 L589.7393488168469 2161.7250890599303" />
    <path d="M589.7393488168469 2161.7250890599303 L910.6749647439726 963.9770644614857" />
    <path d="M923.9435226598009 957.4489224710951 L2118.8452846384935 1288.8245088081335" />
    <path d="M2118.8452846384935 1288.8245088081335 L1787.4696983014549 2483.726270786826" />
    <path d="M1787.4696983014549 2483.726270786826 L592.5679363227624 2152.3506844497874" />
    <path d="M592.5679363227624 2152.3506844497874 L923.9435226598009 957.4489224710951" />
    <path d="M937.4530991698417 950.8956610061712 L2129.417602133357 1292.6859822192503" />
    <path d="M2129.417602133357 1292.6859822192503 L1787.6272809202783 2484.650485182766" />
    <path d="M1787.6272809202783 2484.650485182766 L595.6627779567627 2142.8601639696867" />
    <path d="M595.6627779567627 2142.8601639696867 L937.4530991698417 950.8956610061712" />
    <path d="M951.2043742193641 944.3202320323699 L2140.140845455923 1296.499259465234" />
    <path d="M2140.140845455923 1296.499259465234 L1787.9618180230593 2485.4357307017935" />
    <path d="M1787.9618180230593 2485.4357307017935 L599.0253467865 2133.2567032689294" />
    <path d="M599.0253467865 2133.2567032689294 L951.2043742193641 944.3202320323699" />
    <path d="M965.1979945514834 937.7255974049749 L2151.015891945647 1300.2665112611685" />
    <path d="M2151.015891945647 1300.2665112611685 L1788.4749780894538 2486.0844086553325" />
    <path d="M1788.4749780894538 2486.0844086553325 L602.6570806952898 2123.543494799139" />
    <path d="M602.6570806952898 2123.543494799139 L965.1979945514834 937.7255974049749" />
    <path d="M979.4345735869031 931.1147285139125 L2162.043592514705 1303.9899198992111" />
    <path d="M2162.043592514705 1303.9899198992111 L1789.168401129406 2486.5989388270127" />
    <path d="M1789.168401129406 2486.5989388270127 L606.5593822016044 2113.723747441714" />
    <path d="M606.5593822016044 2113.723747441714 L979.4345735869031 931.1147285139125" />
    <path d="M993.9146913073255 924.4906059274247 L2173.2247715133158 1307.6716789523593" />
    <path d="M2173.2247715133158 1307.6716789523593 L1790.0436984883809 2486.9817591583496" />
    <path d="M1790.0436984883809 2486.9817591583496 L610.7336182823907 2103.800686133415" />
    <path d="M610.7336182823907 2103.800686133415 L993.9146913073255 924.4906059274247" />
    <path d="M1008.6388941425448 917.8562190344392 L2184.560226598232 1311.3139929767535" />
    <path d="M2184.560226598232 1311.3139929767535 L1791.1024526559177 2487.2353254324407" />
    <path d="M1791.1024526559177 2487.2353254324407 L615.1811202002306 2093.7775514901264" />
    <path d="M615.1811202002306 2093.7775514901264 L1008.6388941425448 917.8562190344392" />
    <path d="M1023.607694861242 911.2145656856724 L2196.050728604395 1314.9190772125467" />
    <path d="M2196.050728604395 1314.9190772125467 L1792.3462170775206 2487.3621109557" />
    <path d="M1792.3462170775206 2487.3621109557 L619.9031833343676 2083.6575994288255" />
    <path d="M619.9031833343676 2083.6575994288255 L1023.607694861242 911.2145656856724" />
    <path d="M1038.8215724654863 904.5686518335033 L2207.6970214197877 1318.4891572833792" />
    <path d="M2207.6970214197877 1318.4891572833792 L1793.7765159699115 2487.36460623768" />
    <path d="M1793.7765159699115 2487.36460623768 L624.9010670156104 2073.4441007878045" />
    <path d="M624.9010670156104 2073.4441007878045 L1038.8215724654863 904.5686518335033" />
    <path d="M1054.280972088965 897.9214911706545 L2219.4998218634914 1322.0264688944835" />
    <path d="M2219.4998218634914 1322.0264688944835 L1795.3948441396624 2487.24531866901" />
    <path d="M1795.3948441396624 2487.24531866901 L630.1759943651358 2063.140340945181" />
    <path d="M630.1759943651358 2063.140340945181 L1054.280972088965 897.9214911706545" />
    <path d="M1069.986304898948 891.2761047677216 L2231.459819566961 1325.533257529461" />
    <path d="M2231.459819566961 1325.533257529461 L1797.2026668052215 2487.006772197474" />
    <path d="M1797.2026668052215 2487.006772197474 L635.7291521372084 2052.7496194357345" />
    <path d="M635.7291521372084 2052.7496194357345 L1069.986304898948 891.2761047677216" />
    <path d="M1085.9379480020023 884.635520709583 L2243.5776768585324 1329.0117781457552" />
    <path d="M2243.5776768585324 1329.0117781457552 L1799.2014194223602 2486.6515070022856" />
    <path d="M1799.2014194223602 2486.6515070022856 L641.56169056583 2042.2752495661132" />
    <path d="M641.56169056583 2042.2752495661132 L1085.9379480020023 884.635520709583" />
    <path d="M1102.1362443534686 878.0027737307339 L2255.854028651179 1332.4642948688625" />
    <path d="M2255.854028651179 1332.4642948688625 L1801.3925075130505 2486.182079166573" />
    <path d="M1801.3925075130505 2486.182079166573 L647.67472321534 2031.7205580284444" />
    <path d="M647.67472321534 2031.7205580284444 L1102.1362443534686 878.0027737307339" />
    <path d="M1118.5815026707105 871.3809048495773 L2268.289482333527 1335.8930806853082" />
    <path d="M2268.289482333527 1335.8930806853082 L1803.7773064977962 2485.6010603481245" />
    <path d="M1803.7773064977962 2485.6010603481245 L654.0693268349796 2021.0888845123939" />
    <path d="M654.0693268349796 2021.0888845123939 L1118.5815026707105 871.3809048495773" />
  </g>
</svg>