<?xml version="1.0" standalone="no"?>
<!DOCTYPE svg PUBLIC "-//W3C//DTD SVG 1.1//EN" 
    "http://www.w3.org/Graphics/SVG/1.1/DTD/svg11.dtd">
<svg width="2480px" height="3508px"
    xmlns="http://www.w3.org/2000/svg" version="1.1" viewBox="0 0 2480 3508">
  <g fill="none" stroke="black" stroke-width="1.06299px">
    <path d="M1033.3333333333333 1134 L2273.333333333333 1134" />
    <path d="M2273.333333333333 1134 L2273.333333333333 2374" />
    <path d="M2273.333333333333 2374 L1033.3333333333333 2374" />
    <path d="M1033.3333333333333 2374 L1033.3333333333333 1134" />
    <path d="M1046.6344088656863 1127.2968776492044 L2286.022543719193 1166.2462189060836" />
    <path d="M2286.022543719193 1166.2462189060836 L2247.073202462314 2405.634353759591" />
    <path d="M2247.073202462314 2405.634353759591 L1007.6850676088071 2366.6850125027117" />
    <path d="M1007.6850676088071 2366.6850125027117 L1046.6344088656863 1127.2968776492044" />
    <path d="M1060.1394712814251 1121.0148597636771 L2297.6926145324815 1198.8751039800256" />
    <path d="M2297.6926145324815 1198.8751039800256 L2219.832370316133 2436.4282472310824" />
    <path d="M2219.832370316133 2436.4282472310824 L982.2792270650766 2358.5680030147337" />
    <path d="M982.2792270650766 2358.5680030147337 L1060.1394712814251 1121.0148597636771" />
    <path d="M1073.8351927144317 1115.1601459366334 L2308.332028822251 1231.854454451591" />
    <path d="M2308.332028822251 1231.854454451591 L2191.637720307293 2466.3512905594102" />
    <path d="M2191.637720307293 2466.3512905594102 L957.1408841994739 2349.6569820444524" />
    <path d="M957.1408841994739 2349.6569820444524 L1073.8351927144317 1115.1601459366334" />
    <path d="M1087.708057141156 1109.7385140637723 L2317.9302867711085 1265.1517236835098" />
    <path d="M2317.9302867711085 1265.1517236835098 L2162.517077151371 2495.373953313462" />
    <path d="M2162.517077151371 2495.373953313462 L932.2948475214187 2339.960743693725" />
    <path d="M932.2948475214187 2339.960743693725 L1087.708057141156 1109.7385140637723" />
    <path d="M1101.7443737192998 1104.7553146411915 L2326.4779160572707 1298.7340512910775" />
    <path d="M2326.4779160572707 1298.7340512910775 L2132.4991794073844 2523.4675936290487" />
    <path d="M2132.4991794073844 2523.4675936290487 L907.7656370694136 2329.488856979162" />
    <path d="M907.7656370694136 2329.488856979162 L1101.7443737192998 1104.7553146411915" />
    <path d="M1115.9302902990262 1100.2154654850913 L2333.9664812026 1332.5682955713899" />
    <path d="M2333.9664812026 1332.5682955713899 L2101.6136511163013 2550.604486474964" />
    <path d="M2101.6136511163013 2550.604486474964 L883.5774602127276 2318.251656388665" />
    <path d="M883.5774602127276 2318.251656388665 L1115.9302902990262 1100.2154654850913" />
    <path d="M1130.2518070933568 1096.1234468784867 L2340.3885918974033 1366.6210662101994" />
    <path d="M2340.3885918974033 1366.6210662101994 L2069.8909725656904 2576.757851014246" />
    <path d="M2069.8909725656904 2576.757851014246 L859.754187761644 2306.2602316825337" />
    <path d="M859.754187761644 2306.2602316825337 L1130.2518070933568 1096.1234468784867" />
    <path d="M1144.6947904942735 1092.483297149707 L2345.7379102937757 1400.8587572341266" />
    <path d="M2345.7379102937757 1400.8587572341266 L2037.3624502093558 2601.9018770336293" />
    <path d="M2037.3624502093558 2601.9018770336293 L836.3193304098535 2293.5264169492093" />
    <path d="M836.3193304098535 2293.5264169492093 L1144.6947904942735 1092.483297149707" />
    <path d="M1159.244987020882 1089.2986086870535 L2350.0091572602914 1435.2475801756977" />
    <path d="M2350.0091572602914 1435.2475801756977 L2004.060185771647 2626.011750415107" />
    <path d="M2004.060185771647 2626.011750415107 L813.2960155322378 2280.0627789264627" />
    <path d="M813.2960155322378 2280.0627789264627 L1159.244987020882 1089.2986086870535" />
    <path d="M1173.8880373858774 1086.5725243935472 L2353.1981175918672 1469.7535974184818" />
    <path d="M2353.1981175918672 1469.7535974184818 L1970.0170445669328 2649.063677624472" />
    <path d="M1970.0170445669328 2649.063677624472 L790.7069643609426 2265.8826045995374" />
    <path d="M790.7069643609426 2265.8826045995374 L1173.8880373858774 1086.5725243935472" />
    <path d="M1188.6094906664262 1084.3077345852612 L2355.3016441696655 1504.3427556894226" />
    <path d="M2355.3016441696655 1504.3427556894226 L1935.266623065504 2671.034909192662" />
    <path d="M1935.266623065504 2671.034909192662 L768.5744695622647 2250.9998880885005" />
    <path d="M768.5744695622647 2250.9998880885005 L1188.6094906664262 1084.3077345852612" />
    <path d="M1203.3948185654826 1082.5064743363052 L2356.3176610669143 1538.980919665306" />
    <path d="M2356.3176610669143 1538.980919665306 L1899.8432157379134 2691.9037621667376" />
    <path d="M1899.8432157379134 2691.9037621667376 L746.920373236482 2235.429316837737" />
    <path d="M746.920373236482 2235.429316837737 L1203.3948185654826 1082.5064743363052" />
    <path d="M1218.2294297494652 1081.1705212730762 L2356.245165597602 1573.6339056602042" />
    <path d="M2356.245165597602 1573.6339056602042 L1863.7817812104736 2711.6496415083407" />
    <path d="M1863.7817812104736 2711.6496415083407 L725.7660453623373 2219.1862571212127" />
    <path d="M725.7660453623373 2219.1862571212127 L1218.2294297494652 1081.1705212730762" />
    <path d="M1233.0986842481395 1080.3011938199556 L2355.0842293060036 1608.2675153606458" />
    <path d="M2355.0842293060036 1608.2675153606458 L1827.1179077653135 2730.2530604185104" />
    <path d="M1827.1179077653135 2730.2530604185104 L705.1323627074494 2202.28673887782" />
    <path d="M705.1323627074494 2202.28673887782 L1233.0986842481395 1080.3011938199556" />
    <path d="M1247.987907902502 1079.8993498981852 L2352.835997896078 1642.8475695752231" />
    <path d="M2352.835997896078 1642.8475695752231 L1789.88777821904 2747.6956595687993" />
    <path d="M1789.88777821904 2747.6956595687993 L685.039688225464 2184.747439891761" />
    <path d="M685.039688225464 2184.747439891761 L1247.987907902502 1079.8993498981852" />
    <path d="M1262.8824068464037 1079.9653860792 L2349.502690100794 1677.339941965327" />
    <path d="M2349.502690100794 1677.339941965327 L1752.1281342146674 2763.9602252197174" />
    <path d="M1752.1281342146674 2763.9602252197174 L665.5078509602768 2166.585669333591" />
    <path d="M665.5078509602768 2166.585669333591 L1262.8824068464037 1079.9653860792" />
    <path d="M1277.7674820076215 1080.499237193262 L2345.0875954925114 1711.7105927237224" />
    <path d="M2345.0875954925114 1711.7105927237224 L1713.8762399620512 2779.030706208612" />
    <path d="M1713.8762399620512 2779.030706208612 L646.5561264771611 2147.819350678152" />
    <path d="M646.5561264771611 2147.819350678152 L1277.7674820076215 1080.499237193262" />
    <path d="M1292.6284436140686 1081.5003763937743 L2339.595071236567 1745.9256021677302" />
    <path d="M2339.595071236567 1745.9256021677302 L1675.1698454626112 2792.892229790229" />
    <path d="M1675.1698454626112 2792.892229790229 L628.2032178401126 2128.467004016273" />
    <path d="M628.2032178401126 2128.467004016273 L1292.6284436140686 1081.5003763937743" />
    <path d="M1307.4506256908244 1082.9678156772152 L2333.030537791281 1779.9512042138572" />
    <path d="M2333.030537791281 1779.9512042138572 L1636.047149254639 2805.5311163143137" />
    <path d="M1636.047149254639 2805.5311163143137 L610.4672371541826 2108.5477277776718" />
    <path d="M610.4672371541826 2108.5477277776718 L1307.4506256908244 1082.9678156772152" />
    <path d="M1322.2194005336835 1084.9001068581779 L2325.400473558618 1813.7538197008444" />
    <path d="M2325.400473558618 1813.7538197008444 L1596.5467607159515 2816.9348927257793" />
    <path d="M1596.5467607159515 2816.9348927257793 L593.3656876910168 2088.081179883113" />
    <path d="M593.3656876910168 2088.081179883113 L1322.2194005336835 1084.9001068581779" />
    <path d="M1336.9201931449315 1087.295342998555 L2316.7124084907873 1847.3000895282457" />
    <path d="M2316.7124084907873 1847.3000895282457 L1556.7076619610966 2827.092304874102" />
    <path d="M1556.7076619610966 2827.092304874102 L576.9154466152407 2067.0875583444113" />
    <path d="M576.9154466152407 2067.0875583444113 L1336.9201931449315 1087.295342998555" />
    <path d="M1351.5384956171092 1090.1511602894568 L2306.9749166590877 1880.556907577832" />
    <path d="M2306.9749166590877 1880.556907577832 L1516.5691693707124 2835.9933286198107" />
    <path d="M1516.5691693707124 2835.9933286198107 L561.132748328734 2045.5875813314353" />
    <path d="M561.132748328734 2045.5875813314353 L1351.5384956171092 1090.1511602894568" />
    <path d="M1366.0598814505659 1093.4647403840036 L2296.1976077923355 1913.4914533853316" />
    <path d="M2296.1976077923355 1913.4914533853316 L1476.1708947910074 2843.6291797271015" />
    <path d="M1476.1708947910074 2843.6291797271015 L546.0331684492377 2023.6024667257734" />
    <path d="M546.0331684492377 2023.6024667257734 L1366.0598814505659 1093.4647403840036" />
    <path d="M1380.470019790672 1097.2328131786958 L2284.3911177932223 1946.0712245302695" />
    <path d="M2284.3911177932223 1946.0712245302695 L1435.552706441648 2849.99232253282" />
    <path d="M1435.552706441648 2849.99232253282 L531.6316084390979 2001.153911181246" />
    <path d="M531.6316084390979 2001.153911181246 L1380.470019790672 1097.2328131786958" />
    <path d="M1394.7546895706428 1101.4516600406096 L2271.5670982419615 1978.2640687119283" />
    <path d="M2271.5670982419615 1978.2640687119283 L1394.7546895706428 2855.076477383247" />
    <path d="M1394.7546895706428 2855.076477383247 L517.9422808993239 1978.2640687119285" />
    <path d="M517.9422808993239 1978.2640687119285 L1394.7546895706428 1101.4516600406096" />
    <path d="M1408.8997935460145 1106.1171174772403 L2257.7382048975883 2010.03821547979" />
    <path d="M2257.7382048975883 2010.03821547979 L1353.8171068950383 2858.876626831364" />
    <path d="M1353.8171068950383 2858.876626831364 L504.9786955434645 1954.9555288288143" />
    <path d="M504.9786955434645 1954.9555288288143 L1408.8997935460145 1106.1171174772403" />
    <path d="M1422.8913722069228 1111.2245812453652 L2242.918085208251 2041.3623075871349" />
    <path d="M2242.918085208251 2041.3623075871349 L1312.780358866481 2861.389020588463" />
    <path d="M1312.780358866481 2861.389020588463 L492.753645865153 1931.2512942466933" />
    <path d="M492.753645865153 1931.2512942466933 L1422.8913722069228 1111.2245812453652" />
    <path d="M1436.7156175544528 1116.7690108948768 L2227.1213648428284 2072.2054319368553" />
    <path d="M2227.1213648428284 2072.2054319368553 L1271.6849438008494 2862.6111792252304" />
    <path d="M1271.6849438008494 2862.6111792252304 L481.2791965124743 1907.174758183252" />
    <path d="M481.2791965124743 1907.174758183252 L1436.7156175544528 1116.7690108948768" />
    <path d="M1450.3588867274684 1122.744934743098 L2210.363633257159 2102.537150088954" />
    <path d="M2210.363633257159 2102.537150088954 L1230.571417911303 2862.541896618645" />
    <path d="M1230.571417911303 2862.541896618645 L470.5666713816123 1882.7496812727888" />
    <path d="M470.5666713816123 1882.7496812727888 L1450.3588867274684 1122.744934743098" />
    <path d="M1463.807715466467 1129.146455274673 L2192.661428309134 2132.3275282996074" />
    <path d="M2192.661428309134 2132.3275282996074 L1189.480355284199 2861.1812411422743" />
    <path d="M1189.480355284199 2861.1812411422743 L460.62664244153234 1858.0001681173396" />
    <path d="M460.62664244153234 1858.0001681173396 L1463.807715466467 1129.146455274673" />
    <path d="M1477.0488314011805 1135.9672549617017 L2174.0322199378224 2161.5471670621578" />
    <path d="M2174.0322199378224 2161.5471670621578 L1148.4523078373659 2858.5305555987998" />
    <path d="M1148.4523078373659 2858.5305555987998 L451.4689193007239 1832.9506434983437" />
    <path d="M451.4689193007239 1832.9506434983437 L1477.0488314011805 1135.9672549617017" />
    <path d="M1490.0691671488003 1143.200602498378 L2154.494392922756 2190.1672301208764" />
    <path d="M2154.494392922756 2190.1672301208764 L1107.5277653002574 2854.5924558948327" />
    <path d="M1107.5277653002574 2854.5924558948327 L443.1025395263017 1807.625828272334" />
    <path d="M443.1025395263017 1807.625828272334 L1490.0691671488003 1143.200602498378" />
    <path d="M1502.8558732099077 1150.8393594439763 L2134.067228740368 2218.1594729288663" />
    <path d="M2134.067228740368 2218.1594729288663 L1066.7471152554783 2849.3708284593267" />
    <path d="M1066.7471152554783 2849.3708284593267 L435.5357597250179 1782.050714974437" />
    <path d="M435.5357597250179 1782.050714974437 L1502.8558732099077 1150.8393594439763" />
    <path d="M1515.3963306493788 1158.8759872676296 L2112.7708865355053 2245.4962705220205" />
    <path d="M2112.7708865355053 2245.4962705220205 L1026.1506032811144 2842.870826408147" />
    <path d="M1026.1506032811144 2842.870826408147 L428.7760473949877 1756.2505431537566" />
    <path d="M428.7760473949877 1756.2505431537566 L1515.3963306493788 1158.8759872676296" />
    <path d="M1527.6781635497475 1167.3025547879495 L2090.6263832267855 2272.1506447815254" />
    <path d="M2090.6263832267855 2272.1506447815254 L985.7782932332093 2835.098864458563" />
    <path d="M985.7782932332093 2835.098864458563 L422.83007355617144 1730.2507744649874" />
    <path d="M422.83007355617144 1730.2507744649874 L1527.6781635497475 1167.3025547879495" />
    <path d="M1539.6892512247455 1176.1107460001451 L2067.6555727654354 2298.0962910580092" />
    <path d="M2067.6555727654354 2298.0962910580092 L945.6700277075713 2826.062612598699" />
    <path d="M945.6700277075713 2826.062612598699 L417.70370616688126 1704.0770675408353" />
    <path d="M417.70370616688126 1704.0770675408353 L1539.6892512247455 1176.1107460001451" />
    <path d="M1551.4177401809536 1185.2918682829163 L2043.8811245680818 2323.3076041310524" />
    <path d="M2043.8811245680818 2323.3076041310524 L905.8653887199451 2815.7709885181807" />
    <path d="M905.8653887199451 2815.7709885181807 L413.402004332817 1677.7552526700445" />
    <path d="M413.402004332817 1677.7552526700445 L1551.4177401809536 1185.2918682829163" />
    <path d="M1562.8520558157697 1194.83686097702 L2019.3265011447702 2347.7597034784517" />
    <path d="M2019.3265011447702 2347.7597034784517 L866.4036586433384 2804.234148807452" />
    <path d="M866.4036586433384 2804.234148807452 L409.92921331433797 1651.3113063060205" />
    <path d="M409.92921331433797 1651.3113063060205 L1562.8520558157697 1194.83686097702" />
    <path d="M1573.9809138401438 1204.736304327048 L1994.015934944305 2371.4284578302877" />
    <path d="M1994.015934944305 2371.4284578302877 L827.3237814410653 2791.4634789344486" />
    <path d="M827.3237814410653 2791.4634789344486 L407.28876033690426 1624.7713254312093" />
    <path d="M407.28876033690426 1624.7713254312093 L1573.9809138401438 1204.736304327048" />
    <path d="M1584.7933314148092 1214.9804287775883 L1967.974404439744 2394.2905089835785" />
    <path d="M1967.974404439744 2394.2905089835785 L788.6643242337536 2777.471582008513" />
    <path d="M788.6643242337536 2777.471582008513 L405.48325120881896 1598.1615018025232" />
    <path d="M405.48325120881896 1598.1615018025232 L1584.7933314148092 1214.9804287775883" />
    <path d="M1595.278637989019 1225.5591246145962 L1941.2276094776632 2416.3232948540053" />
    <path d="M1941.2276094776632 2416.3232948540053 L750.4634392382538 2762.27226634265" />
    <path d="M750.4634392382538 2762.27226634265 L404.5144677496096 1571.5080961032404" />
    <path d="M404.5144677496096 1571.5080961032404 L1595.278637989019 1225.5591246145962" />
    <path d="M1605.4264858310903 1236.461951942462 L1913.8019459155103 2437.5050717419645" />
    <path d="M1913.8019459155103 2437.5050717419645 L712.7588261160079 2745.8805318263844" />
    <path d="M712.7588261160079 2745.8805318263844 L404.3833660315877 1544.8374120268822" />
    <path d="M404.3833660315877 1544.8374120268822 L1605.4264858310903 1236.461951942462" />
    <path d="M1615.2268602403678 1247.6781509869277 L1885.7244795720803 2457.8149357909742" />
    <path d="M1885.7244795720803 2457.8149357909742 L675.5876947680335 2728.3125551226867" />
    <path d="M675.5876947680335 2728.3125551226867 L405.09007543632094 1518.1757703186404" />
    <path d="M405.09007543632094 1518.1757703186404 L1615.2268602403678 1247.6781509869277" />
    <path d="M1624.6700894305231 1259.1966527136842 L1857.0229195168215 2477.232843617258" />
    <path d="M1857.0229195168215 2477.232843617258 L638.9867286132475 2709.5856737035565" />
    <path d="M638.9867286132475 2709.5856737035565 L406.6338985269491 1491.5494827999826" />
    <path d="M406.6338985269491 1491.5494827999826 L1624.6700894305231 1259.1966527136842" />
    <path d="M1633.7468540744403 1271.0060897521726 L1827.7255907243266 2495.7396320901435" />
    <path d="M1827.7255907243266 2495.7396320901435 L602.9920483863557 2689.7183687400297" />
    <path d="M602.9920483863557 2689.7183687400297 L409.0133117364694 1464.984826402059" />
    <path d="M409.0133117364694 1464.984826402059 L1633.7468540744403 1271.0060897521726" />
    <path d="M1642.448196501267 1283.094807613807 L1797.8614061210042 2513.3170372437594" />
    <path d="M1797.8614061210042 2513.3170372437594 L567.6391764910518 2668.7302468634966" />
    <path d="M567.6391764910518 2668.7302468634966 L412.22596687131454 1438.5080172335443" />
    <path d="M412.22596687131454 1438.5080172335443 L1642.448196501267 1283.094807613807" />
    <path d="M1650.7655295365537 1295.4508761935463 L1767.4598380515117 2529.9477123013653" />
    <path d="M1767.4598380515117 2529.9477123013653 L532.9630019436925 2646.6420208163236" />
    <path d="M532.9630019436925 2646.6420208163236 L416.2686934287344 1412.1451847085043" />
    <path d="M416.2686934287344 1412.1451847085043 L1650.7655295365537 1295.4508761935463" />
    <path d="M1658.6906449767584 1308.0621015434688 L1736.5508891931067 2545.615244794525" />
    <path d="M1736.5508891931067 2545.615244794525 L498.9977459420502 2623.4754890108734" />
    <path d="M498.9977459420502 2623.4754890108734 L421.13750172570167 1385.9223457598173" />
    <path d="M421.13750172570167 1385.9223457598173 L1658.6906449767584 1308.0621015434688" />
    <path d="M1666.2157216897524 1320.9160379067253 L1705.1650629466312 2560.304172760232" />
    <path d="M1705.1650629466312 2560.304172760232 L465.77692809312407 2599.2535140171112" />
    <path d="M465.77692809312407 2599.2535140171112 L426.82758683624513 1359.865379163604" />
    <path d="M426.82758683624513 1359.865379163604 L1666.2157216897524 1320.9160379067253" />
  </g>
</svg>