<?xml version="1.0" standalone="no"?>
<!DOCTYPE svg PUBLIC "-//W3C//DTD SVG 1.1//EN" 
    "http://www.w3.org/Graphics/SVG/1.1/DTD/svg11.dtd">
<svg width="21cm" height="29.7cm"
    xmlns="http://www.w3.org/2000/svg" version="1.1" viewBox="0 0 744.09449 1052.3622">
  <g fill="none" stroke="black" stroke-width="0.03cm">
    <path d="M62.00787 56.69291 L203.74016 56.69291" />
    <path d="M62.00787 56.69291 L62.00787 198.4252" />
    <path d="M62.00787 70.86614 L203.74016 70.86614" />
    <path d="M76.1811 56.69291 L76.1811 198.4252" />
    <path d="M62.00787 85.03937 L203.74016 85.03937" />
    <path d="M90.35433 56.69291 L90.35433 198.4252" />
    <path d="M62.00787 99.2126 L203.74016 99.2126" />
    <path d="M104.52756 56.69291 L104.52756 198.4252" />
    <path d="M62.00787 113.38583 L203.74016 113.38583" />
    <path d="M118.70079 56.69291 L118.70079 198.4252" />
    <path d="M62.00787 127.55906 L203.74016 127.55906" />
    <path d="M132.87402 56.69291 L132.87402 198.4252" />
    <path d="M62.00787 141.73228 L203.74016 141.73228" />
    <path d="M147.04724 56.69291 L147.04724 198.4252" />
    <path d="M62.00787 155.90551 L203.74016 155.90551" />
    <path d="M161.22047 56.69291 L161.22047 198.4252" />
    <path d="M62.00787 170.07874 L203.74016 170.07874" />
    <path d="M175.3937 56.69291 L175.3937 198.4252" />
    <path d="M62.00787 184.25197 L203.74016 184.25197" />
    <path d="M189.56693 56.69291 L189.56693 198.4252" />
    <path d="M62.00787 198.4252 L203.74016 198.4252" />
    <path d="M203.74016 56.69291 L203.74016 198.4252" />
    <path d="M62.00787 216.14173 L203.74016 216.14173" />
    <path d="M62.00787 216.14173 L62.00787 357.87402" />
    <path d="M62.00787 230.31496 L203.74016 230.31496" />
    <path d="M76.1811 216.14173 L76.1811 357.87402" />
    <path d="M62.00787 244.48819 L203.74016 244.48819" />
    <path d="M90.35433 216.14173 L90.35433 357.87402" />
    <path d="M62.00787 258.66142 L203.74016 258.66142" />
    <path d="M104.52756 216.14173 L104.52756 357.87402" />
    <path d="M62.00787 272.83465 L203.74016 272.83465" />
    <path d="M118.70079 216.14173 L118.70079 357.87402" />
    <path d="M62.00787 287.00787 L203.74016 287.00787" />
    <path d="M132.87402 216.14173 L132.87402 357.87402" />
    <path d="M62.00787 301.1811 L203.74016 301.1811" />
    <path d="M147.04724 216.14173 L147.04724 357.87402" />
    <path d="M62.00787 315.35433 L203.74016 315.35433" />
    <path d="M161.22047 216.14173 L161.22047 357.87402" />
    <path d="M62.00787 329.52756 L203.74016 329.52756" />
    <path d="M175.3937 216.14173 L175.3937 357.87402" />
    <path d="M62.00787 343.70079 L203.74016 343.70079" />
    <path d="M189.56693 216.14173 L189.56693 357.87402" />
    <path d="M62.00787 357.87402 L203.74016 357.87402" />
    <path d="M203.74016 216.14173 L203.74016 357.87402" />
    <path d="M62.00787 375.59055 L203.74016 375.59055" />
    <path d="M62.00787 375.59055 L62.00787 517.32283" />
    <path d="M62.00787 389.76378 L203.74016 389.76378" />
    <path d="M76.1811 375.59055 L76.1811 517.32283" />
    <path d="M62.00787 403.93701 L203.74016 403.93701" />
    <path d="M90.35433 375.59055 L90.35433 517.32283" />
    <path d="M62.00787 418.11024 L203.74016 418.11024" />
    <path d="M104.52756 375.59055 L104.52756 517.32283" />
    <path d="M62.00787 432.28346 L203.74016 432.28346" />
    <path d="M118.70079 375.59055 L118.70079 517.32283" />
    <path d="M62.00787 446.45669 L203.74016 446.45669" />
    <path d="M132.87402 375.59055 L132.87402 517.32283" />
    <path d="M62.00787 460.62992 L203.74016 460.62992" />
    <path d="M147.04724 375.59055 L147.04724 517.32283" />
    <path d="M62.00787 474.80315 L203.74016 474.80315" />
    <path d="M161.22047 375.59055 L161.22047 517.32283" />
    <path d="M62.00787 488.97638 L203.74016 488.97638" />
    <path d="M175.3937 375.59055 L175.3937 517.32283" />
    <path d="M62.00787 503.14961 L203.74016 503.14961" />
    <path d="M189.56693 375.59055 L189.56693 517.32283" />
    <path d="M62.00787 517.32283 L203.74016 517.32283" />
    <path d="M203.74016 375.59055 L203.74016 517.32283" />
    <path d="M62.00787 535.03937 L203.74016 535.03937" />
    <path d="M62.00787 535.03937 L62.00787 676.77165" />
    <path d="M62.00787 549.2126 L203.74016 549.2126" />
    <path d="M76.1811 535.03937 L76.1811 676.77165" />
    <path d="M62.00787 563.38583 L203.74016 563.38583" />
    <path d="M90.35433 535.03937 L90.35433 676.77165" />
    <path d="M62.00787 577.55906 L203.74016 577.55906" />
    <path d="M104.52756 535.03937 L104.52756 676.77165" />
    <path d="M62.00787 591.73228 L203.74016 591.73228" />
    <path d="M118.70079 535.03937 L118.70079 676.77165" />
    <path d="M62.00787 605.90551 L203.74016 605.90551" />
    <path d="M132.87402 535.03937 L132.87402 676.77165" />
    <path d="M62.00787 620.07874 L203.74016 620.07874" />
    <path d="M147.04724 535.03937 L147.04724 676.77165" />
    <path d="M62.00787 634.25197 L203.74016 634.25197" />
    <path d="M161.22047 535.03937 L161.22047 676.77165" />
    <path d="M62.00787 648.4252 L203.74016 648.4252" />
    <path d="M175.3937 535.03937 L175.3937 676.77165" />
    <path d="M62.00787 662.59843 L203.74016 662.59843" />
    <path d="M189.56693 535.03937 L189.56693 676.77165" />
    <path d="M62.00787 676.77165 L203.74016 676.77165" />
    <path d="M203.74016 535.03937 L203.74016 676.77165" />
    <path d="M62.00787 694.48819 L203.74016 694.48819" />
    <path d="M62.00787 694.48819 L62.00787 836.22047" />
    <path d="M62.00787 708.66142 L203.74016 708.66142" />
    <path d="M76.1811 694.48819 L76.1811 836.22047" />
    <path d="M62.00787 722.83465 L203.74016 722.83465" />
    <path d="M90.35433 694.48819 L90.35433 836.22047" />
    <path d="M62.00787 737.00787 L203.74016 737.00787" />
    <path d="M104.52756 694.48819 L104.52756 836.22047" />
    <path d="M62.00787 751.1811 L203.74016 751.1811" />
    <path d="M118.70079 694.48819 L118.70079 836.22047" />
    <path d="M62.00787 765.35433 L203.74016 765.35433" />
    <path d="M132.87402 694.48819 L132.87402 836.22047" />
    <path d="M62.00787 779.52756 L203.74016 779.52756" />
    <path d="M147.04724 694.48819 L147.04724 836.22047" />
    <path d="M62.00787 793.70079 L203.74016 793.70079" />
    <path d="M161.22047 694.48819 L161.22047 836.22047" />
    <path d="M62.00787 807.87402 L203.74016 807.87402" />
    <path d="M175.3937 694.48819 L175.3937 836.22047" />
    <path d="M62.00787 822.04724 L203.74016 822.04724" />
    <path d="M189.56693 694.48819 L189.56693 836.22047" />
    <path d="M62.00787 836.22047 L203.74016 836.22047" />
    <path d="M203.74016 694.48819 L203.74016 836.22047" />
    <path d="M62.00787 853.93701 L203.74016 853.93701" />
    <path d="M62.00787 853.93701 L62.00787 995.66929" />
    <path d="M62.00787 868.11024 L203.74016 868.11024" />
    <path d="M76.1811 853.93701 L76.1811 995.66929" />
    <path d="M62.00787 882.28346 L203.74016 882.28346" />
    <path d="M90.35433 853.93701 L90.35433 995.66929" />
    <path d="M62.00787 896.45669 L203.74016 896.45669" />
    <path d="M104.52756 853.93701 L104.52756 995.66929" />
    <path d="M62.00787 910.62992 L203.74016 910.62992" />
    <path d="M118.70079 853.93701 L118.70079 995.66929" />
    <path d="M62.00787 924.80315 L203.74016 924.80315" />
    <path d="M132.87402 853.93701 L132.87402 995.66929" />
    <path d="M62.00787 938.97638 L203.74016 938.97638" />
    <path d="M147.04724 853.93701 L147.04724 995.66929" />
    <path d="M62.00787 953.14961 L203.74016 953.14961" />
    <path d="M161.22047 853.93701 L161.22047 995.66929" />
    <path d="M62.00787 967.32283 L203.74016 967.32283" />
    <path d="M175.3937 853.93701 L175.3937 995.66929" />
    <path d="M62.00787 981.49606 L203.74016 981.49606" />
    <path d="M189.56693 853.93701 L189.56693 995.66929" />
    <path d="M62.00787 995.66929 L203.74016 995.66929" />
    <path d="M203.74016 853.93701 L203.74016 995.66929" />
    <path d="M221.45669 56.69291 L363.18898 56.69291" />
    <path d="M221.45669 56.69291 L221.45669 198.4252" />
    <path d="M221.45669 70.86614 L363.18898 70.86614" />
    <path d="M235.62992 56.69291 L235.62992 198.4252" />
    <path d="M221.45669 85.03937 L363.18898 85.03937" />
    <path d="M249.80315 56.69291 L249.80315 198.4252" />
    <path d="M221.45669 99.2126 L363.18898 99.2126" />
    <path d="M263.97638 56.69291 L263.97638 198.4252" />
    <path d="M221.45669 113.38583 L363.18898 113.38583" />
    <path d="M278.14961 56.69291 L278.14961 198.4252" />
    <path d="M221.45669 127.55906 L363.18898 127.55906" />
    <path d="M292.32283 56.69291 L292.32283 198.4252" />
    <path d="M221.45669 141.73228 L363.18898 141.73228" />
    <path d="M306.49606 56.69291 L306.49606 198.4252" />
    <path d="M221.45669 155.90551 L363.18898 155.90551" />
    <path d="M320.66929 56.69291 L320.66929 198.4252" />
    <path d="M221.45669 170.07874 L363.18898 170.07874" />
    <path d="M334.84252 56.69291 L334.84252 198.4252" />
    <path d="M221.45669 184.25197 L363.18898 184.25197" />
    <path d="M349.01575 56.69291 L349.01575 198.4252" />
    <path d="M221.45669 198.4252 L363.18898 198.4252" />
    <path d="M363.18898 56.69291 L363.18898 198.4252" />
    <path d="M221.45669 216.14173 L363.18898 216.14173" />
    <path d="M221.45669 216.14173 L221.45669 357.87402" />
    <path d="M221.45669 230.31496 L363.18898 230.31496" />
    <path d="M235.62992 216.14173 L235.62992 357.87402" />
    <path d="M221.45669 244.48819 L363.18898 244.48819" />
    <path d="M249.80315 216.14173 L249.80315 357.87402" />
    <path d="M221.45669 258.66142 L363.18898 258.66142" />
    <path d="M263.97638 216.14173 L263.97638 357.87402" />
    <path d="M221.45669 272.83465 L363.18898 272.83465" />
    <path d="M278.14961 216.14173 L278.14961 357.87402" />
    <path d="M221.45669 287.00787 L363.18898 287.00787" />
    <path d="M292.32283 216.14173 L292.32283 357.87402" />
    <path d="M221.45669 301.1811 L363.18898 301.1811" />
    <path d="M306.49606 216.14173 L306.49606 357.87402" />
    <path d="M221.45669 315.35433 L363.18898 315.35433" />
    <path d="M320.66929 216.14173 L320.66929 357.87402" />
    <path d="M221.45669 329.52756 L363.18898 329.52756" />
    <path d="M334.84252 216.14173 L334.84252 357.87402" />
    <path d="M221.45669 343.70079 L363.18898 343.70079" />
    <path d="M349.01575 216.14173 L349.01575 357.87402" />
    <path d="M221.45669 357.87402 L363.18898 357.87402" />
    <path d="M363.18898 216.14173 L363.18898 357.87402" />
    <path d="M221.45669 375.59055 L363.18898 375.59055" />
    <path d="M221.45669 375.59055 L221.45669 517.32283" />
    <path d="M221.45669 389.76378 L363.18898 389.76378" />
    <path d="M235.62992 375.59055 L235.62992 517.32283" />
    <path d="M221.45669 403.93701 L363.18898 403.93701" />
    <path d="M249.80315 375.59055 L249.80315 517.32283" />
    <path d="M221.45669 418.11024 L363.18898 418.11024" />
    <path d="M263.97638 375.59055 L263.97638 517.32283" />
    <path d="M221.45669 432.28346 L363.18898 432.28346" />
    <path d="M278.14961 375.59055 L278.14961 517.32283" />
    <path d="M221.45669 446.45669 L363.18898 446.45669" />
    <path d="M292.32283 375.59055 L292.32283 517.32283" />
    <path d="M221.45669 460.62992 L363.18898 460.62992" />
    <path d="M306.49606 375.59055 L306.49606 517.32283" />
    <path d="M221.45669 474.80315 L363.18898 474.80315" />
    <path d="M320.66929 375.59055 L320.66929 517.32283" />
    <path d="M221.45669 488.97638 L363.18898 488.97638" />
    <path d="M334.84252 375.59055 L334.84252 517.32283" />
    <path d="M221.45669 503.14961 L363.18898 503.14961" />
    <path d="M349.01575 375.59055 L349.01575 517.32283" />
    <path d="M221.45669 517.32283 L363.18898 517.32283" />
    <path d="M363.18898 375.59055 L363.18898 517.32283" />
    <path d="M221.45669 535.03937 L363.18898 535.03937" />
    <path d="M221.45669 535.03937 L221.45669 676.77165" />
    <path d="M221.45669 549.2126 L363.18898 549.2126" />
    <path d="M235.62992 535.03937 L235.62992 676.77165" />
    <path d="M221.45669 563.38583 L363.18898 563.38583" />
    <path d="M249.80315 535.03937 L249.80315 676.77165" />
    <path d="M221.45669 577.55906 L363.18898 577.55906" />
    <path d="M263.97638 535.03937 L263.97638 676.77165" />
    <path d="M221.45669 591.73228 L363.18898 591.73228" />
    <path d="M278.14961 535.03937 L278.14961 676.77165" />
    <path d="M221.45669 605.90551 L363.18898 605.90551" />
    <path d="M292.32283 535.03937 L292.32283 676.77165" />
    <path d="M221.45669 620.07874 L363.18898 620.07874" />
    <path d="M306.49606 535.03937 L306.49606 676.77165" />
    <path d="M221.45669 634.25197 L363.18898 634.25197" />
    <path d="M320.66929 535.03937 L320.66929 676.77165" />
    <path d="M221.45669 648.4252 L363.18898 648.4252" />
    <path d="M334.84252 535.03937 L334.84252 676.77165" />
    <path d="M221.45669 662.59843 L363.18898 662.59843" />
    <path d="M349.01575 535.03937 L349.01575 676.77165" />
    <path d="M221.45669 676.77165 L363.18898 676.77165" />
    <path d="M363.18898 535.03937 L363.18898 676.77165" />
    <path d="M221.45669 694.48819 L363.18898 694.48819" />
    <path d="M221.45669 694.48819 L221.45669 836.22047" />
    <path d="M221.45669 708.66142 L363.18898 708.66142" />
    <path d="M235.62992 694.48819 L235.62992 836.22047" />
    <path d="M221.45669 722.83465 L363.18898 722.83465" />
    <path d="M249.80315 694.48819 L249.80315 836.22047" />
    <path d="M221.45669 737.00787 L363.18898 737.00787" />
    <path d="M263.97638 694.48819 L263.97638 836.22047" />
    <path d="M221.45669 751.1811 L363.18898 751.1811" />
    <path d="M278.14961 694.48819 L278.14961 836.22047" />
    <path d="M221.45669 765.35433 L363.18898 765.35433" />
    <path d="M292.32283 694.48819 L292.32283 836.22047" />
    <path d="M221.45669 779.52756 L363.18898 779.52756" />
    <path d="M306.49606 694.48819 L306.49606 836.22047" />
    <path d="M221.45669 793.70079 L363.18898 793.70079" />
    <path d="M320.66929 694.48819 L320.66929 836.22047" />
    <path d="M221.45669 807.87402 L363.18898 807.87402" />
    <path d="M334.84252 694.48819 L334.84252 836.22047" />
    <path d="M221.45669 822.04724 L363.18898 822.04724" />
    <path d="M349.01575 694.48819 L349.01575 836.22047" />
    <path d="M221.45669 836.22047 L363.18898 836.22047" />
    <path d="M363.18898 694.48819 L363.18898 836.22047" />
    <path d="M221.45669 853.93701 L363.18898 853.93701" />
    <path d="M221.45669 853.93701 L221.45669 995.66929" />
    <path d="M221.45669 868.11024 L363.18898 868.11024" />
    <path d="M235.62992 853.93701 L235.62992 995.66929" />
    <path d="M221.45669 882.28346 L363.18898 882.28346" />
    <path d="M249.80315 853.93701 L249.80315 995.66929" />
    <path d="M221.45669 896.45669 L363.18898 896.45669" />
    <path d="M263.97638 853.93701 L263.97638 995.66929" />
    <path d="M221.45669 910.62992 L363.18898 910.62992" />
    <path d="M278.14961 853.93701 L278.14961 995.66929" />
    <path d="M221.45669 924.80315 L363.18898 924.80315" />
    <path d="M292.32283 853.93701 L292.32283 995.66929" />
    <path d="M221.45669 938.97638 L363.18898 938.97638" />
    <path d="M306.49606 853.93701 L306.49606 995.66929" />
    <path d="M221.45669 953.14961 L363.18898 953.14961" />
    <path d="M320.66929 853.93701 L320.66929 995.66929" />
    <path d="M221.45669 967.32283 L363.18898 967.32283" />
    <path d="M334.84252 853.93701 L334.84252 995.66929" />
    <path d="M221.45669 981.49606 L363.18898 981.49606" />
    <path d="M349.01575 853.93701 L349.01575 995.66929" />
    <path d="M221.45669 995.66929 L363.18898 995.66929" />
    <path d="M363.18898 853.93701 L363.18898 995.66929" />
    <path d="M380.90551 56.69291 L522.6378 56.69291" />
    <path d="M380.90551 56.69291 L380.90551 198.4252" />
    <path d="M380.90551 70.86614 L522.6378 70.86614" />
    <path d="M395.07874 56.69291 L395.07874 198.4252" />
    <path d="M380.90551 85.03937 L522.6378 85.03937" />
    <path d="M409.25197 56.69291 L409.25197 198.4252" />
    <path d="M380.90551 99.2126 L522.6378 99.2126" />
    <path d="M423.4252 56.69291 L423.4252 198.4252" />
    <path d="M380.90551 113.38583 L522.6378 113.38583" />
    <path d="M437.59843 56.69291 L437.59843 198.4252" />
    <path d="M380.90551 127.55906 L522.6378 127.55906" />
    <path d="M451.77165 56.69291 L451.77165 198.4252" />
    <path d="M380.90551 141.73228 L522.6378 141.73228" />
    <path d="M465.94488 56.69291 L465.94488 198.4252" />
    <path d="M380.90551 155.90551 L522.6378 155.90551" />
    <path d="M480.11811 56.69291 L480.11811 198.4252" />
    <path d="M380.90551 170.07874 L522.6378 170.07874" />
    <path d="M494.29134 56.69291 L494.29134 198.4252" />
    <path d="M380.90551 184.25197 L522.6378 184.25197" />
    <path d="M508.46457 56.69291 L508.46457 198.4252" />
    <path d="M380.90551 198.4252 L522.6378 198.4252" />
    <path d="M522.6378 56.69291 L522.6378 198.4252" />
    <path d="M380.90551 216.14173 L522.6378 216.14173" />
    <path d="M380.90551 216.14173 L380.90551 357.87402" />
    <path d="M380.90551 230.31496 L522.6378 230.31496" />
    <path d="M395.07874 216.14173 L395.07874 357.87402" />
    <path d="M380.90551 244.48819 L522.6378 244.48819" />
    <path d="M409.25197 216.14173 L409.25197 357.87402" />
    <path d="M380.90551 258.66142 L522.6378 258.66142" />
    <path d="M423.4252 216.14173 L423.4252 357.87402" />
    <path d="M380.90551 272.83465 L522.6378 272.83465" />
    <path d="M437.59843 216.14173 L437.59843 357.87402" />
    <path d="M380.90551 287.00787 L522.6378 287.00787" />
    <path d="M451.77165 216.14173 L451.77165 357.87402" />
    <path d="M380.90551 301.1811 L522.6378 301.1811" />
    <path d="M465.94488 216.14173 L465.94488 357.87402" />
    <path d="M380.90551 315.35433 L522.6378 315.35433" />
    <path d="M480.11811 216.14173 L480.11811 357.87402" />
    <path d="M380.90551 329.52756 L522.6378 329.52756" />
    <path d="M494.29134 216.14173 L494.29134 357.87402" />
    <path d="M380.90551 343.70079 L522.6378 343.70079" />
    <path d="M508.46457 216.14173 L508.46457 357.87402" />
    <path d="M380.90551 357.87402 L522.6378 357.87402" />
    <path d="M522.6378 216.14173 L522.6378 357.87402" />
    <path d="M380.90551 375.59055 L522.6378 375.59055" />
    <path d="M380.90551 375.59055 L380.90551 517.32283" />
    <path d="M380.90551 389.76378 L522.6378 389.76378" />
    <path d="M395.07874 375.59055 L395.07874 517.32283" />
    <path d="M380.90551 403.93701 L522.6378 403.93701" />
    <path d="M409.25197 375.59055 L409.25197 517.32283" />
    <path d="M380.90551 418.11024 L522.6378 418.11024" />
    <path d="M423.4252 375.59055 L423.4252 517.32283" />
    <path d="M380.90551 432.28346 L522.6378 432.28346" />
    <path d="M437.59843 375.59055 L437.59843 517.32283" />
    <path d="M380.90551 446.45669 L522.6378 446.45669" />
    <path d="M451.77165 375.59055 L451.77165 517.32283" />
    <path d="M380.90551 460.62992 L522.6378 460.62992" />
    <path d="M465.94488 375.59055 L465.94488 517.32283" />
    <path d="M380.90551 474.80315 L522.6378 474.80315" />
    <path d="M480.11811 375.59055 L480.11811 517.32283" />
    <path d="M380.90551 488.97638 L522.6378 488.97638" />
    <path d="M494.29134 375.59055 L494.29134 517.32283" />
    <path d="M380.90551 503.14961 L522.6378 503.14961" />
    <path d="M508.46457 375.59055 L508.46457 517.32283" />
    <path d="M380.90551 517.32283 L522.6378 517.32283" />
    <path d="M522.6378 375.59055 L522.6378 517.32283" />
    <path d="M380.90551 535.03937 L522.6378 535.03937" />
    <path d="M380.90551 535.03937 L380.90551 676.77165" />
    <path d="M380.90551 549.2126 L522.6378 549.2126" />
    <path d="M395.07874 535.03937 L395.07874 676.77165" />
    <path d="M380.90551 563.38583 L522.6378 563.38583" />
    <path d="M409.25197 535.03937 L409.25197 676.77165" />
    <path d="M380.90551 577.55906 L522.6378 577.55906" />
    <path d="M423.4252 535.03937 L423.4252 676.77165" />
    <path d="M380.90551 591.73228 L522.6378 591.73228" />
    <path d="M437.59843 535.03937 L437.59843 676.77165" />
    <path d="M380.90551 605.90551 L522.6378 605.90551" />
    <path d="M451.77165 535.03937 L451.77165 676.77165" />
    <path d="M380.90551 620.07874 L522.6378 620.07874" />
    <path d="M465.94488 535.03937 L465.94488 676.77165" />
    <path d="M380.90551 634.25197 L522.6378 634.25197" />
    <path d="M480.11811 535.03937 L480.11811 676.77165" />
    <path d="M380.90551 648.4252 L522.6378 648.4252" />
    <path d="M494.29134 535.03937 L494.29134 676.77165" />
    <path d="M380.90551 662.59843 L522.6378 662.59843" />
    <path d="M508.46457 535.03937 L508.46457 676.77165" />
    <path d="M380.90551 676.77165 L522.6378 676.77165" />
    <path d="M522.6378 535.03937 L522.6378 676.77165" />
    <path d="M380.90551 694.48819 L522.6378 694.48819" />
    <path d="M380.90551 694.48819 L380.90551 836.22047" />
    <path d="M380.90551 708.66142 L522.6378 708.66142" />
    <path d="M395.07874 694.48819 L395.07874 836.22047" />
    <path d="M380.90551 722.83465 L522.6378 722.83465" />
    <path d="M409.25197 694.48819 L409.25197 836.22047" />
    <path d="M380.90551 737.00787 L522.6378 737.00787" />
    <path d="M423.4252 694.48819 L423.4252 836.22047" />
    <path d="M380.90551 751.1811 L522.6378 751.1811" />
    <path d="M437.59843 694.48819 L437.59843 836.22047" />
    <path d="M380.90551 765.35433 L522.6378 765.35433" />
    <path d="M451.77165 694.48819 L451.77165 836.22047" />
    <path d="M380.90551 779.52756 L522.6378 779.52756" />
    <path d="M465.94488 694.48819 L465.94488 836.22047" />
    <path d="M380.90551 793.70079 L522.6378 793.70079" />
    <path d="M480.11811 694.48819 L480.11811 836.22047" />
    <path d="M380.90551 807.87402 L522.6378 807.87402" />
    <path d="M494.29134 694.48819 L494.29134 836.22047" />
    <path d="M380.90551 822.04724 L522.6378 822.04724" />
    <path d="M508.46457 694.48819 L508.46457 836.22047" />
    <path d="M380.90551 836.22047 L522.6378 836.22047" />
    <path d="M522.6378 694.48819 L522.6378 836.22047" />
    <path d="M380.90551 853.93701 L522.6378 853.93701" />
    <path d="M380.90551 853.93701 L380.90551 995.66929" />
    <path d="M380.90551 868.11024 L522.6378 868.11024" />
    <path d="M395.07874 853.93701 L395.07874 995.66929" />
    <path d="M380.90551 882.28346 L522.6378 882.28346" />
    <path d="M409.25197 853.93701 L409.25197 995.66929" />
    <path d="M380.90551 896.45669 L522.6378 896.45669" />
    <path d="M423.4252 853.93701 L423.4252 995.66929" />
    <path d="M380.90551 910.62992 L522.6378 910.62992" />
    <path d="M437.59843 853.93701 L437.59843 995.66929" />
    <path d="M380.90551 924.80315 L522.6378 924.80315" />
    <path d="M451.77165 853.93701 L451.77165 995.66929" />
    <path d="M380.90551 938.97638 L522.6378 938.97638" />
    <path d="M465.94488 853.93701 L465.94488 995.66929" />
    <path d="M380.90551 953.14961 L522.6378 953.14961" />
    <path d="M480.11811 853.93701 L480.11811 995.66929" />
    <path d="M380.90551 967.32283 L522.6378 967.32283" />
    <path d="M494.29134 853.93701 L494.29134 995.66929" />
    <path d="M380.90551 981.49606 L522.6378 981.49606" />
    <path d="M508.46457 853.93701 L508.46457 995.66929" />
    <path d="M380.90551 995.66929 L522.6378 995.66929" />
    <path d="M522.6378 853.93701 L522.6378 995.66929" />
    <path d="M540.35433 56.69291 L682.08661 56.69291" />
    <path d="M540.35433 56.69291 L540.35433 198.4252" />
    <path d="M540.35433 70.86614 L682.08661 70.86614" />
    <path d="M554.52756 56.69291 L554.52756 198.4252" />
    <path d="M540.35433 85.03937 L682.08661 85.03937" />
    <path d="M568.70079 56.69291 L568.70079 198.4252" />
    <path d="M540.35433 99.2126 L682.08661 99.2126" />
    <path d="M582.87402 56.69291 L582.87402 198.4252" />
    <path d="M540.35433 113.38583 L682.08661 113.38583" />
    <path d="M597.04724 56.69291 L597.04724 198.4252" />
    <path d="M540.35433 127.55906 L682.08661 127.55906" />
    <path d="M611.22047 56.69291 L611.22047 198.4252" />
    <path d="M540.35433 141.73228 L682.08661 141.73228" />
    <path d="M625.3937 56.69291 L625.3937 198.4252" />
    <path d="M540.35433 155.90551 L682.08661 155.90551" />
    <path d="M639.56693 56.69291 L639.56693 198.4252" />
    <path d="M540.35433 170.07874 L682.08661 170.07874" />
    <path d="M653.74016 56.69291 L653.74016 198.4252" />
    <path d="M540.35433 184.25197 L682.08661 184.25197" />
    <path d="M667.91339 56.69291 L667.91339 198.4252" />
    <path d="M540.35433 198.4252 L682.08661 198.4252" />
    <path d="M682.08661 56.69291 L682.08661 198.4252" />
    <path d="M540.35433 216.14173 L682.08661 216.14173" />
    <path d="M540.35433 216.14173 L540.35433 357.87402" />
    <path d="M540.35433 230.31496 L682.08661 230.31496" />
    <path d="M554.52756 216.14173 L554.52756 357.87402" />
    <path d="M540.35433 244.48819 L682.08661 244.48819" />
    <path d="M568.70079 216.14173 L568.70079 357.87402" />
    <path d="M540.35433 258.66142 L682.08661 258.66142" />
    <path d="M582.87402 216.14173 L582.87402 357.87402" />
    <path d="M540.35433 272.83465 L682.08661 272.83465" />
    <path d="M597.04724 216.14173 L597.04724 357.87402" />
    <path d="M540.35433 287.00787 L682.08661 287.00787" />
    <path d="M611.22047 216.14173 L611.22047 357.87402" />
    <path d="M540.35433 301.1811 L682.08661 301.1811" />
    <path d="M625.3937 216.14173 L625.3937 357.87402" />
    <path d="M540.35433 315.35433 L682.08661 315.35433" />
    <path d="M639.56693 216.14173 L639.56693 357.87402" />
    <path d="M540.35433 329.52756 L682.08661 329.52756" />
    <path d="M653.74016 216.14173 L653.74016 357.87402" />
    <path d="M540.35433 343.70079 L682.08661 343.70079" />
    <path d="M667.91339 216.14173 L667.91339 357.87402" />
    <path d="M540.35433 357.87402 L682.08661 357.87402" />
    <path d="M682.08661 216.14173 L682.08661 357.87402" />
    <path d="M540.35433 375.59055 L682.08661 375.59055" />
    <path d="M540.35433 375.59055 L540.35433 517.32283" />
    <path d="M540.35433 389.76378 L682.08661 389.76378" />
    <path d="M554.52756 375.59055 L554.52756 517.32283" />
    <path d="M540.35433 403.93701 L682.08661 403.93701" />
    <path d="M568.70079 375.59055 L568.70079 517.32283" />
    <path d="M540.35433 418.11024 L682.08661 418.11024" />
    <path d="M582.87402 375.59055 L582.87402 517.32283" />
    <path d="M540.35433 432.28346 L682.08661 432.28346" />
    <path d="M597.04724 375.59055 L597.04724 517.32283" />
    <path d="M540.35433 446.45669 L682.08661 446.45669" />
    <path d="M611.22047 375.59055 L611.22047 517.32283" />
    <path d="M540.35433 460.62992 L682.08661 460.62992" />
    <path d="M625.3937 375.59055 L625.3937 517.32283" />
    <path d="M540.35433 474.80315 L682.08661 474.80315" />
    <path d="M639.56693 375.59055 L639.56693 517.32283" />
    <path d="M540.35433 488.97638 L682.08661 488.97638" />
    <path d="M653.74016 375.59055 L653.74016 517.32283" />
    <path d="M540.35433 503.14961 L682.08661 503.14961" />
    <path d="M667.91339 375.59055 L667.91339 517.32283" />
    <path d="M540.35433 517.32283 L682.08661 517.32283" />
    <path d="M682.08661 375.59055 L682.08661 517.32283" />
    <path d="M540.35433 535.03937 L682.08661 535.03937" />
    <path d="M540.35433 535.03937 L540.35433 676.77165" />
    <path d="M540.35433 549.2126 L682.08661 549.2126" />
    <path d="M554.52756 535.03937 L554.52756 676.77165" />
    <path d="M540.35433 563.38583 L682.08661 563.38583" />
    <path d="M568.70079 535.03937 L568.70079 676.77165" />
    <path d="M540.35433 577.55906 L682.08661 577.55906" />
    <path d="M582.87402 535.03937 L582.87402 676.77165" />
    <path d="M540.35433 591.73228 L682.08661 591.73228" />
    <path d="M597.04724 535.03937 L597.04724 676.77165" />
    <path d="M540.35433 605.90551 L682.08661 605.90551" />
    <path d="M611.22047 535.03937 L611.22047 676.77165" />
    <path d="M540.35433 620.07874 L682.08661 620.07874" />
    <path d="M625.3937 535.03937 L625.3937 676.77165" />
    <path d="M540.35433 634.25197 L682.08661 634.25197" />
    <path d="M639.56693 535.03937 L639.56693 676.77165" />
    <path d="M540.35433 648.4252 L682.08661 648.4252" />
    <path d="M653.74016 535.03937 L653.74016 676.77165" />
    <path d="M540.35433 662.59843 L682.08661 662.59843" />
    <path d="M667.91339 535.03937 L667.91339 676.77165" />
    <path d="M540.35433 676.77165 L682.08661 676.77165" />
    <path d="M682.08661 535.03937 L682.08661 676.77165" />
    <path d="M540.35433 694.48819 L682.08661 694.48819" />
    <path d="M540.35433 694.48819 L540.35433 836.22047" />
    <path d="M540.35433 708.66142 L682.08661 708.66142" />
    <path d="M554.52756 694.48819 L554.52756 836.22047" />
    <path d="M540.35433 722.83465 L682.08661 722.83465" />
    <path d="M568.70079 694.48819 L568.70079 836.22047" />
    <path d="M540.35433 737.00787 L682.08661 737.00787" />
    <path d="M582.87402 694.48819 L582.87402 836.22047" />
    <path d="M540.35433 751.1811 L682.08661 751.1811" />
    <path d="M597.04724 694.48819 L597.04724 836.22047" />
    <path d="M540.35433 765.35433 L682.08661 765.35433" />
    <path d="M611.22047 694.48819 L611.22047 836.22047" />
    <path d="M540.35433 779.52756 L682.08661 779.52756" />
    <path d="M625.3937 694.48819 L625.3937 836.22047" />
    <path d="M540.35433 793.70079 L682.08661 793.70079" />
    <path d="M639.56693 694.48819 L639.56693 836.22047" />
    <path d="M540.35433 807.87402 L682.08661 807.87402" />
    <path d="M653.74016 694.48819 L653.74016 836.22047" />
    <path d="M540.35433 822.04724 L682.08661 822.04724" />
    <path d="M667.91339 694.48819 L667.91339 836.22047" />
    <path d="M540.35433 836.22047 L682.08661 836.22047" />
    <path d="M682.08661 694.48819 L682.08661 836.22047" />
    <path d="M540.35433 853.93701 L682.08661 853.93701" />
    <path d="M540.35433 853.93701 L540.35433 995.66929" />
    <path d="M540.35433 868.11024 L682.08661 868.11024" />
    <path d="M554.52756 853.93701 L554.52756 995.66929" />
    <path d="M540.35433 882.28346 L682.08661 882.28346" />
    <path d="M568.70079 853.93701 L568.70079 995.66929" />
    <path d="M540.35433 896.45669 L682.08661 896.45669" />
    <path d="M582.87402 853.93701 L582.87402 995.66929" />
    <path d="M540.35433 910.62992 L682.08661 910.62992" />
    <path d="M597.04724 853.93701 L597.04724 995.66929" />
    <path d="M540.35433 924.80315 L682.08661 924.80315" />
    <path d="M611.22047 853.93701 L611.22047 995.66929" />
    <path d="M540.35433 938.97638 L682.08661 938.97638" />
    <path d="M625.3937 853.93701 L625.3937 995.66929" />
    <path d="M540.35433 953.14961 L682.08661 953.14961" />
    <path d="M639.56693 853.93701 L639.56693 995.66929" />
    <path d="M540.35433 967.32283 L682.08661 967.32283" />
    <path d="M653.74016 853.93701 L653.74016 995.66929" />
    <path d="M540.35433 981.49606 L682.08661 981.49606" />
    <path d="M667.91339 853.93701 L667.91339 995.66929" />
    <path d="M540.35433 995.66929 L682.08661 995.66929" />
    <path d="M682.08661 853.93701 L682.08661 995.66929" />
  </g>
</svg>