<?xml version="1.0" standalone="no"?>
<!DOCTYPE svg PUBLIC "-//W3C//DTD SVG 1.1//EN" 
    "http://www.w3.org/Graphics/SVG/1.1/DTD/svg11.dtd">
<svg width="21cm" height="29.7cm"
    xmlns="http://www.w3.org/2000/svg" version="1.1" viewBox="0 0 744.09449 1052.3622">
  <g fill="none" stroke="black" stroke-width="0.03cm">
    <path d="M35.43307 35.43307 L35.43307 35.43307" />
    <path d="M708.66142 36.83704 L35.43307 35.43307" />
    <path d="M708.66142 54.66317 L35.43307 35.43307" />
    <path d="M708.66142 72.51629 L35.43307 35.43307" />
    <path d="M708.66142 90.42156 L35.43307 35.43307" />
    <path d="M708.66142 108.40445 L35.43307 35.43307" />
    <path d="M708.66142 126.49084 L35.43307 35.43307" />
    <path d="M708.66142 144.70725 L35.43307 35.43307" />
    <path d="M708.66142 163.0809 L35.43307 35.43307" />
    <path d="M708.66142 181.63996 L35.43307 35.43307" />
    <path d="M708.66142 200.41369 L35.43307 35.43307" />
    <path d="M708.66142 219.43263 L35.43307 35.43307" />
    <path d="M708.66142 238.72884 L35.43307 35.43307" />
    <path d="M708.66142 258.33609 L35.43307 35.43307" />
    <path d="M708.66142 278.29015 L35.43307 35.43307" />
    <path d="M708.66142 298.62906 L35.43307 35.43307" />
    <path d="M708.66142 319.39343 L35.43307 35.43307" />
    <path d="M708.66142 340.62682 L35.43307 35.43307" />
    <path d="M708.66142 362.37613 L35.43307 35.43307" />
    <path d="M708.66142 384.69203 L35.43307 35.43307" />
    <path d="M708.66142 407.62952 L35.43307 35.43307" />
    <path d="M708.66142 431.2485 L35.43307 35.43307" />
    <path d="M708.66142 455.61445 L35.43307 35.43307" />
    <path d="M708.66142 480.79924 L35.43307 35.43307" />
    <path d="M708.66142 506.882 L35.43307 35.43307" />
    <path d="M708.66142 533.95025 L35.43307 35.43307" />
    <path d="M708.66142 562.10113 L35.43307 35.43307" />
    <path d="M708.66142 591.44285 L35.43307 35.43307" />
    <path d="M708.66142 622.09648 L35.43307 35.43307" />
    <path d="M708.66142 654.19804 L35.43307 35.43307" />
    <path d="M708.66142 687.90096 L35.43307 35.43307" />
    <path d="M694.2586 708.66142 L35.43307 35.43307" />
    <path d="M660.24431 708.66142 L35.43307 35.43307" />
    <path d="M627.86159 708.66142 L35.43307 35.43307" />
    <path d="M596.95349 708.66142 L35.43307 35.43307" />
    <path d="M567.38103 708.66142 L35.43307 35.43307" />
    <path d="M539.02056 708.66142 L35.43307 35.43307" />
    <path d="M511.76166 708.66142 L35.43307 35.43307" />
    <path d="M485.50526 708.66142 L35.43307 35.43307" />
    <path d="M460.16222 708.66142 L35.43307 35.43307" />
    <path d="M435.65191 708.66142 L35.43307 35.43307" />
    <path d="M411.90124 708.66142 L35.43307 35.43307" />
    <path d="M388.8436 708.66142 L35.43307 35.43307" />
    <path d="M366.41814 708.66142 L35.43307 35.43307" />
    <path d="M344.56901 708.66142 L35.43307 35.43307" />
    <path d="M323.24477 708.66142 L35.43307 35.43307" />
    <path d="M302.39787 708.66142 L35.43307 35.43307" />
    <path d="M281.98418 708.66142 L35.43307 35.43307" />
    <path d="M261.96257 708.66142 L35.43307 35.43307" />
    <path d="M242.29455 708.66142 L35.43307 35.43307" />
    <path d="M222.94398 708.66142 L35.43307 35.43307" />
    <path d="M203.87671 708.66142 L35.43307 35.43307" />
    <path d="M185.06041 708.66142 L35.43307 35.43307" />
    <path d="M166.46427 708.66142 L35.43307 35.43307" />
    <path d="M148.05881 708.66142 L35.43307 35.43307" />
    <path d="M129.81568 708.66142 L35.43307 35.43307" />
    <path d="M111.70748 708.66142 L35.43307 35.43307" />
    <path d="M93.70759 708.66142 L35.43307 35.43307" />
    <path d="M75.79003 708.66142 L35.43307 35.43307" />
    <path d="M57.92925 708.66142 L35.43307 35.43307" />
  </g>
</svg>