<?xml version="1.0" standalone="no"?>
<!DOCTYPE svg PUBLIC "-//W3C//DTD SVG 1.1//EN" 
    "http://www.w3.org/Graphics/SVG/1.1/DTD/svg11.dtd">
<svg width="21cm" height="29.7cm"
    xmlns="http://www.w3.org/2000/svg" version="1.1" viewBox="0 0 744.09449 1052.3622">
  <g fill="none" stroke="black" stroke-width="0.03cm">
    <path d="M0 0 L35.43307 35.43307" />
    <path d="M369.46772 523.47282 L369.87364 523.13537 L370.75739 522.66438 L371.69654 522.45336 L372.64253 522.48802 L373.54682 522.75408 L374.36086 523.23726 L375.03609 523.92326 L375.52395 524.7978 L375.68245 525.30131 L375.68245 525.30131 L375.75604 525.69778 L375.77373 526.50059 L375.71768 526.89992" />
    <path d="M359.71926 534.65702 L359.1446 533.75753 L358.21343 531.90838 L357.56406 530.01135 L357.18559 528.08929 L357.06713 526.16504 L357.1978 524.26144 L357.56669 522.40134 L358.16292 520.60758 L358.97561 518.90299 L359.99386 517.31043 L361.20677 515.85273 L362.60347 514.55273 L364.17305 513.43328 L365.90464 512.51722 L367.78733 511.82739 L369.81024 511.38663 L370.87088 511.26679 L370.87088 511.26679 L371.93719 511.21887 L374.00418 511.33703 L375.97175 511.72318 L377.82553 512.35644 L379.55121 513.21598 L381.13444 514.28093 L382.56089 515.53045 L383.81622 516.94369 L384.88609 518.49979 L385.75617 520.1779 L386.41212 521.95717 L386.8396 523.81674 L387.02428 525.73576 L386.95182 527.69339 L386.60788 529.66877 L385.97813 531.64104 L385.5516 532.6195" />
    <path d="M396.94576 534.27519 L396.40804 535.77286 L395.0705 538.64624 L393.39887 541.33229 L391.4116 543.80132 L390.30538 544.94518" />
    <path d="M406.44135 511.48677 L407.35106 513.83122 L408.68373 518.65472 L409.35979 523.60198 L409.37013 528.60618 L409.12279 531.10875" />
    <path d="M334.51618 557.09263 L333.43013 555.72762 L331.43287 552.93681 L329.66575 550.07299 L328.12516 547.14578 L326.8075 544.16482 L325.70916 541.13973 L324.82654 538.08014 L324.15603 534.99568 L323.69404 531.89597 L323.43695 528.79065 L323.38116 525.68933 L323.52308 522.60165 L323.85908 519.53724 L324.38557 516.50572 L325.09895 513.51672 L325.99561 510.57988 L327.07194 507.7048 L328.32435 504.90113 L329.74922 502.1785 L331.34296 499.54652 L333.10195 497.01483 L335.0226 494.59305 L337.1013 492.29082 L339.33445 490.11775 L341.71843 488.08349 L344.24966 486.19765 L346.92452 484.46986 L349.7394 482.90976 L352.69071 481.52696 L355.77484 480.3311 L358.98819 479.33181 L362.32715 478.5387 L364.0426 478.22248 L364.0426 478.22248 L365.76777 477.96444 L369.18331 477.63017 L372.54701 477.53171 L375.85234 477.66112 L379.09276 478.01047 L382.26173 478.57183 L385.35273 479.33725 L388.3592 480.29881 L391.27462 481.44856 L394.09246 482.77858 L396.80617 484.28093 L399.40922 485.94766 L401.89508 487.77086 L404.2572 489.74257 L406.48906 491.85488 L408.58412 494.09983 L410.53584 496.4695 L412.33769 498.95595 L413.98312 501.55124 L415.46561 504.24745 L416.77863 507.03663 L417.91562 509.91085 L418.87006 512.86217 L419.63542 515.88266 L420.20515 518.96439 L420.57272 522.09941 L420.7316 525.2798 L420.67525 528.49762 L420.39713 531.74492 L419.89071 535.01379 L419.14945 538.29628 L418.16682 541.58445 L417.58295 543.22819" />
    <path d="M323.51142 561.18684 L322.28783 559.42459 L320.04082 555.78622 L318.06522 552.00882 L316.36645 548.10773 L314.94994 544.09828 L313.8211 539.99583 L312.98536 535.81572 L312.44814 531.5733 L312.29317 529.43351" />
    <path d="M333.62018 466.40394 L335.78773 465.06179 L340.18107 462.6417 L344.64089 460.56817 L349.15384 458.83431 L353.70657 457.43324 L358.28572 456.35807 L362.87794 455.60192 L367.46987 455.15791 L372.04815 455.01915 L376.59944 455.17877 L381.11036 455.62987 L385.56758 456.36558 L389.95772 457.37901 L394.26744 458.66328 L398.48339 460.21151 L402.5922 462.0168 L406.58051 464.07229 L410.43499 466.37108 L414.14226 468.9063 L417.68897 471.67105 L421.06177 474.65846 L424.24731 477.86165 L427.23222 481.27373 L430.00315 484.88781 L432.54674 488.69701 L434.84965 492.69446 L436.89851 496.87327 L438.67996 501.22655 L440.18066 505.74742 L441.38725 510.42899 L442.28636 515.2644 L442.86466 520.24674 L443.02932 522.79087 L443.02932 522.79087 L443.10788 525.3391 L443.00707 530.35388 L442.57289 535.25297 L441.81798 540.02823 L440.75498 544.67155 L439.39652 549.17479 L437.75526 553.52985 L435.84382 557.72858 L433.67484 561.76287 L431.26097 565.62458 L428.61484 569.30561 L425.74909 572.79781 L422.67636 576.09308 L419.40929 579.18327 L415.96052 582.06027 L412.34268 584.71596 L408.56842 587.1422 L404.65037 589.33087 L400.60117 591.27386 L396.43347 592.96302 L392.15989 594.39025 L387.79309 595.54741 L383.34569 596.42638 L378.83033 597.01903 L374.25967 597.31725 L369.64632 597.3129 L365.00294 596.99786 L360.34217 596.36401 L355.67663 595.40322 L351.01897 594.10736 L346.38183 592.46832 L341.77785 590.47796 L339.49224 589.3485" />
    <path d="M382.77725 444.60025 L384.75561 444.88455 L388.66056 445.58932 L392.49317 446.47171 L396.24948 447.52695 L399.9255 448.75031 L403.51726 450.13704 L407.02079 451.68238 L410.43211 453.3816 L415.36753 456.20856 L421.58827 460.47208 L427.36868 465.26565 L432.67695 470.55129 L437.48131 476.29102 L441.74996 482.44685 L445.45112 488.98083 L448.55299 495.85496 L450.46699 501.21095 L451.53916 504.86813 L452.44363 508.58898 L453.17642 512.36876 L453.73357 516.20273 L454.11109 520.08614 L454.30502 524.01423 L454.31138 527.98227 L454.24298 529.97978" />
    <path d="M280.09922 543.16776 L279.54566 539.85922 L278.78931 533.30297 L278.48809 526.83856 L278.62696 520.4788 L279.19089 514.23654 L280.16484 508.1246 L281.53376 502.15581 L283.28262 496.343 L285.39637 490.69901 L287.85997 485.23666 L290.65839 479.96879 L293.77658 474.90822 L297.1995 470.06779 L300.91212 465.46033 L304.89938 461.09866 L309.14626 456.99563 L313.63771 453.16405 L318.35868 449.61677 L323.29415 446.3666 L328.42907 443.42639 L333.74839 440.80896 L339.23708 438.52714 L344.8801 436.59377 L350.66241 435.02167 L356.56897 433.82368 L362.58473 433.01262 L368.69466 432.60133 L374.88372 432.60264 L381.13686 433.02938 L387.43904 433.89437 L393.77523 435.21046 L400.13039 436.99046 L403.31038 438.05844 L403.31038 438.05844 L406.45244 439.23333 L412.50849 441.85642 L418.25745 444.82777 L423.69572 448.12792 L428.81971 451.73743 L433.62584 455.63686 L438.1105 459.80678 L442.27011 464.22773 L446.10108 468.88029 L449.59981 473.74501 L452.76271 478.80245 L455.58619 484.03316 L458.06667 489.41771 L460.20054 494.93666 L461.98422 500.57057 L463.41411 506.29999 L464.48663 512.10548 L465.19818 517.96761 L465.54518 523.86693 L465.52402 529.78401 L465.13112 535.69939 L464.36288 541.59365 L463.21572 547.44734 L461.68604 553.24101 L459.77026 558.95524 L457.46477 564.57057 L454.76599 570.06757 L451.67033 575.42679 L448.1742 580.6288 L444.274 585.65416 L439.96614 590.48342 L435.24703 595.09714 L432.73214 597.3171" />
    <path d="M379.90929 630.60998 L376.15858 630.82866 L368.76708 630.88275 L361.53255 630.44108 L354.46747 629.52193 L347.58431 628.14359 L340.89556 626.32435 L334.41369 624.0825 L328.15119 621.43634 L322.12052 618.40415 L316.33419 615.00422 L310.80465 611.25484 L305.54439 607.17431 L300.5659 602.78092 L295.88165 598.09294 L291.50411 593.12869 L287.44578 587.90643 L283.71912 582.44448 L280.33662 576.7611 L277.31076 570.87461 L274.65401 564.80328 L272.37887 558.56541 L270.49779 552.17929 L269.02327 545.6632 L267.96779 539.03544 L267.34382 532.3143 L267.16384 525.51807 L267.44033 518.66504 L268.18578 511.7735 L269.41265 504.86173 L271.13344 497.94804 L273.36062 491.05071 L276.10666 484.18803 L277.67816 480.7754 L277.67816 480.7754 L279.36414 477.41785 L283.01304 470.98958 L287.0128 464.94512 L291.34135 459.28616 L295.97661 454.01434 L300.89649 449.13133 L306.07892 444.63879 L311.50182 440.53838 L317.1431 436.83177 L322.9807 433.52062 L328.99252 430.60659 L335.15649 428.09134 L341.45053 425.97654 L347.85256 424.26384 L354.3405 422.95491 L360.89227 422.05142 L367.4858 421.55502 L374.09899 421.46737 L380.70977 421.79015 L387.29607 422.525 L393.8358 423.6736 L400.30688 425.2376 L406.68724 427.21868 L412.95479 429.61848 L419.08745 432.43867 L425.06315 435.68092 L430.8598 439.34689 L436.45533 443.43824 L441.82765 447.95662 L446.95469 452.90371 L451.81437 458.28117 L456.3846 464.09066 L458.55428 467.15793" />
    <path d="M256.11025 527.53341 L256.13206 523.37384 L256.59143 515.20308 L257.58756 507.24058 L259.09936 499.49883 L261.10574 491.99035 L263.58563 484.72763 L266.51793 477.72319 L269.88156 470.98952 L273.65543 464.53913 L277.81846 458.38453 L282.34956 452.53821 L287.22764 447.01268 L292.43163 441.82045 L297.94043 436.97402 L303.73296 432.48589 L309.78813 428.36857 L316.08486 424.63456 L322.60206 421.29637 L329.31864 418.36649 L336.21353 415.85744 L343.26563 413.78172 L350.45385 412.15183 L357.75712 410.98027 L365.15435 410.27955 L372.62445 410.06218 L380.14633 410.34065 L387.69892 411.12747 L395.26111 412.43515 L402.81184 414.27619 L410.33001 416.6631 L417.79453 419.60837 L425.18433 423.12451 L428.84461 425.10057 L428.84461 425.10057 L431.28601 426.51109 L436.02934 429.48341 L440.58448 432.65051 L444.94871 436.00406 L449.11932 439.53574 L453.0936 443.23723 L456.86883 447.10021 L460.44232 451.11636 L463.81134 455.27736 L466.97318 459.57489 L469.92515 464.00063 L472.66451 468.54626 L475.18857 473.20345 L477.4946 477.9639 L479.57991 482.81927 L481.44178 487.76125 L483.0775 492.78151 L484.48436 497.87175 L485.65964 503.02363 L486.60064 508.22883 L487.30464 513.47904 L487.76894 518.76594 L487.99082 524.0812 L487.96757 529.41651 L487.69648 534.76354 L487.17485 540.11397 L486.39995 545.45949 L485.36908 550.79177 L484.07953 556.1025 L482.52858 561.38335 L480.71353 566.626 L478.63167 571.82213 L477.48983 574.40015" />
    <path d="M266.22672 455.66129 L268.8205 451.9082 L274.29272 444.79366 L280.12211 438.19985 L286.28184 432.12505 L292.74508 426.56753 L299.485 421.52558 L306.47477 416.99746 L313.68756 412.98146 L321.09653 409.47583 L328.67485 406.47886 L336.3957 403.98883 L344.23224 402.004 L352.15764 400.52265 L360.14507 399.54306 L368.16769 399.0635 L376.19868 399.08224 L384.2112 399.59756 L392.17843 400.60773 L400.07353 402.11103 L407.86966 404.10573 L415.54001 406.59011 L423.05773 409.56243 L430.396 413.02098 L437.52799 416.96403 L444.42685 421.38986 L451.06577 426.29673 L457.41791 431.68292 L463.45644 437.54671 L469.15452 443.88637 L474.48533 450.70017 L479.42204 457.9864 L483.93781 465.74331 L486.02945 469.79774 L486.02945 469.79774 L487.85313 473.63723 L491.08197 481.37129 L493.76218 489.1626 L495.90507 496.99177 L497.52192 504.8394 L498.62402 512.6861 L499.22265 520.51247 L499.32911 528.2991 L498.95467 536.02661 L498.11063 543.6756 L496.80828 551.22666 L495.05891 558.6604 L492.87379 565.95742 L490.26423 573.09833 L487.2415 580.06373 L483.8169 586.83421 L480.00171 593.39039 L475.80723 599.71286 L471.24473 605.78223 L466.32551 611.5791 L461.06086 617.08407 L455.46206 622.27775 L449.5404 627.14073 L443.30717 631.65362 L436.77365 635.79702 L429.95114 639.55154 L422.85093 642.89777 L415.48429 645.81632 L407.86252 648.2878 L399.99691 650.2928 L391.89874 651.81192 L383.5793 652.82577 L379.34013 653.13716" />
    <path d="M335.37656 659.61984 L332.01946 658.65159 L325.40733 656.47096 L318.93975 653.97152 L312.62682 651.16122 L306.47869 648.04805 L300.50546 644.63998 L294.71727 640.945 L289.12424 636.97107 L283.7365 632.72618 L278.56416 628.2183 L273.61735 623.45541 L268.90621 618.44548 L264.44084 613.19649 L260.23137 607.71642 L256.28794 602.01324 L252.62066 596.09493 L250.89374 593.0576" />
    <path d="M507.43708 462.52864 L508.91709 465.77661 L511.63455 472.3526 L514.02798 479.02552 L516.09667 485.78359 L517.83987 492.61503 L519.25687 499.50806 L520.34693 506.4509 L521.10932 513.43177 L521.54332 520.43889 L521.64818 527.46048 L521.42319 534.48477 L520.86762 541.49997 L519.98073 548.4943 L518.76179 555.456 L517.21008 562.37327 L515.32487 569.23433 L514.25697 572.64011" />
    <path d="M444.5794 382.63899 L448.04276 384.4413 L454.78621 388.26338 L461.28174 392.36603 L467.52508 396.73793 L473.51199 401.36777 L479.2382 406.24427 L484.69945 411.35609 L489.89149 416.69196 L494.81006 422.24054 L499.4509 427.99056 L503.80976 433.93068 L507.88237 440.04962 L511.66448 446.33607 L515.15182 452.77871 L518.34015 459.36625 L521.2252 466.08739 L523.80271 472.9308 L526.06843 479.8852 L528.01811 486.93927 L529.64747 494.08171 L530.95226 501.30121 L531.92823 508.58648 L532.57111 515.92619 L532.87666 523.30906 L532.8406 530.72376 L532.45869 538.15901 L531.72666 545.60348 L530.64026 553.04589 L529.19522 560.47491 L527.3873 567.87925 L525.21223 575.2476 L522.66575 582.56866 L521.25191 586.20792" />
    <path d="M342.37565 356.71178 L345.31043 356.22267 L351.1562 355.39567 L356.96796 354.76773 L362.74298 354.33578 L368.4785 354.09677 L374.17177 354.04762 L379.82005 354.18528 L385.4206 354.50669 L390.97065 355.00877 L396.46748 355.68847 L401.90832 356.54272 L407.29043 357.56846 L415.24748 359.4219 L425.6257 362.46477 L435.71955 366.13844 L445.50707 370.41841 L454.96628 375.28016 L464.07521 380.69919 L472.81186 386.65098 L481.15428 393.11103 L489.08047 400.05482 L496.56847 407.45785 L503.5963 415.29561 L510.14198 423.54358 L516.18353 432.17727 L521.69898 441.17215 L526.66635 450.50372 L531.06366 460.14747 L534.86894 470.07889 L538.06021 480.27347 L540.6155 490.70671 L542.51282 501.35408 L543.4908 509.46539 L543.92572 514.92709 L544.1838 520.42854 L544.26227 525.96667 L544.1584 531.53842 L543.86943 537.14073 L543.39262 542.77054 L542.72523 548.42477 L541.8645 554.10037 L540.80768 559.79427 L539.55204 565.50342 L538.09482 571.22473 L537.28976 574.089" />
    <path d="M499.28882 658.07742 L496.89677 660.34631 L492.04034 664.72366 L487.09135 668.8882 L482.05444 672.84127 L476.93428 676.58421 L471.73552 680.11836 L466.46281 683.44505 L461.12081 686.56563 L455.71417 689.48142 L450.24756 692.19377 L444.72562 694.70401 L439.15301 697.01348 L433.53438 699.12352 L427.8744 701.03546 L422.17771 702.75065 L416.44898 704.27042 L410.69285 705.59611 L404.91398 706.72906 L399.11703 707.67059 L393.30665 708.42206 L387.4875 708.98479 L381.66424 709.36013 L375.84151 709.54942 L370.02397 709.55398 L364.21629 709.37516 L358.42311 709.01429 L352.64908 708.47272 L346.89888 707.75178 L341.17714 706.85281 L335.48853 705.77714 L329.8377 704.52611 L324.2293 703.10106 L318.668 701.50333 L313.15844 699.73425 L307.70528 697.79517 L302.31318 695.68741 L296.98679 693.41232 L291.73077 690.97124 L286.54978 688.36549 L281.44846 685.59643 L276.43147 682.66538 L271.50347 679.57369 L266.66912 676.32268 L261.93307 672.91371 L257.29996 669.3481 L252.77447 665.6272 L248.36125 661.75234 L244.06494 657.72485 L239.89021 653.54609 L235.84171 649.21737 L231.9241 644.74005 L228.14203 640.11545 L224.50015 635.34492 L221.00313 630.4298 L217.65561 625.37141 L214.46226 620.1711 L211.42772 614.83021 L208.55666 609.35007 L205.85372 603.73202 L203.32357 597.9774 L200.97085 592.08754 L198.80024 586.06379 L196.81636 579.90747 L195.0239 573.61994 L194.2009 570.42738 L194.2009 570.42738 L193.47008 567.37935 L192.16905 561.26975 L191.08093 555.14617 L190.20425 549.01355 L189.53753 542.87679 L189.07931 536.74082 L188.82811 530.61056 L188.78244 524.49093 L188.94085 518.38685 L189.30186 512.30324 L189.86399 506.24501 L190.62577 500.2171 L191.58573 494.22442 L192.74238 488.27188 L194.09427 482.36442 L195.63992 476.50694 L197.37784 470.70437 L199.30657 464.96164 L201.42464 459.28365 L203.73057 453.67533 L206.22289 448.1416 L208.90012 442.68739 L211.76079 437.3176 L214.80342 432.03716 L218.02655 426.85099 L221.4287 421.76402 L225.0084 416.78115 L228.76417 411.90731 L232.69453 407.14742 L236.79802 402.50641 L241.07317 397.98918 L245.51849 393.60066 L247.8045 391.45621" />
    <path d="M351.08462 332.82593 L354.56609 332.47824 L361.48538 331.96446 L368.34394 331.68936 L375.13874 331.64877 L381.86674 331.83856 L388.52491 332.25458 L395.11022 332.89267 L401.61963 333.74869 L408.0501 334.81849 L414.3986 336.09792 L420.66209 337.58283 L426.83755 339.26908 L432.92193 341.15251 L438.9122 343.22898 L444.80532 345.49434 L450.59827 347.94444 L456.288 350.57512 L461.87148 353.38226 L467.34568 356.36168 L472.70755 359.50925 L477.95408 362.82082 L483.08221 366.29224 L488.08892 369.91935 L492.97118 373.69802 L497.72594 377.62409 L502.35017 381.69342 L506.84083 385.90185 L511.1949 390.24524 L515.40933 394.71944 L519.4811 399.32029 L523.40717 404.04366 L527.18449 408.8854 L530.81004 413.84134 L534.28079 418.90736 L537.59369 424.07929 L540.74572 429.35299 L543.73383 434.72431 L546.555 440.1891 L549.20618 445.74322 L551.68435 451.38251 L553.98646 457.10283 L556.10949 462.90002 L558.0504 468.76995 L559.80615 474.70845 L561.37371 480.71139 L562.75004 486.77461 L563.93211 492.89397 L564.91688 499.06531 L565.70133 505.28449 L566.28241 511.54736 L566.65708 517.84977 L566.82233 524.18758 L566.7751 530.55662 L566.51236 536.95277 L566.03109 543.37186 L565.32824 549.80974 L564.40078 556.26228 L563.24567 562.72532 L561.85989 569.19471 L560.24039 575.66631 L558.38414 582.13596 L556.28811 588.59952 L553.94925 595.05283 L551.36455 601.49176 L549.97905 604.70453 L549.97905 604.70453 L547.88827 609.28097 L543.35833 618.25807 L538.37221 626.98617 L532.93991 635.44777 L530.05957 639.57316" />
    <path d="M577.70835 521.75795 L577.72977 522.90187 L577.75352 525.18996 L577.75585 526.33408" />
    <path d="M248.42519 704.43888 L245.67127 702.49719 L240.2627 698.49215 L234.98914 694.3279 L229.85374 690.00809 L224.85968 685.53633 L220.0101 680.91626 L215.30817 676.1515 L210.75706 671.24566 L206.35993 666.20239 L202.11992 661.02531 L198.04022 655.71804 L194.12398 650.28421 L190.37436 644.72745 L186.79452 639.05137 L183.38762 633.25962 L180.15683 627.35581 L178.60846 624.36301" />
    <path d="M584.75098 443.66222 L586.46192 448.21568 L589.58334 457.40332 L592.30381 466.68783 L594.6229 476.05627 L596.54022 485.49573 L598.05534 494.99329 L599.16786 504.53603 L599.87736 514.11103 L600.18343 523.70536 L600.08566 533.30611 L599.58363 542.90036 L598.67693 552.47518 L597.36516 562.01765 L595.6479 571.51486 L593.52473 580.95388 L590.99525 590.32179 L589.57802 594.97504" />
    <path d="M490.76568 318.32546 L495.51322 321.10896 L504.75264 326.95701 L513.64686 333.16769 L522.19061 339.72644 L530.37868 346.6187 L538.20582 353.82991 L545.66679 361.34551 L552.75636 369.15094 L559.46928 377.23166 L565.80033 385.57309 L571.74425 394.16068 L577.29582 402.97988 L582.44979 412.01612 L587.20093 421.25485 L591.544 430.68151 L595.47376 440.28154 L598.98498 450.04039 L602.07241 459.94349 L604.73082 469.97628 L606.95497 480.12422 L608.73962 490.37274 L610.07953 500.70728 L610.96947 511.11329 L611.4042 521.5762 L611.37848 532.08147 L610.88707 542.61453 L609.92474 553.16082 L608.48624 563.70579 L606.56634 574.23487 L604.1598 584.73352 L601.26139 595.18717 L597.86586 605.58126 L595.98004 610.75142" />
    <path d="M268.94225 754.57765 L264.84929 752.68815 L256.83054 748.73603 L249.03522 744.5586 L241.46398 740.16243 L234.11749 735.55412 L226.9964 730.74027 L220.10137 725.72745 L213.43306 720.52227 L206.99214 715.1313 L200.77924 709.56115 L194.79505 703.8184 L189.0402 697.90964 L183.51537 691.84145 L178.2212 685.62044 L173.15837 679.25319 L168.32752 672.74629 L163.72931 666.10633 L159.36441 659.33991 L155.23347 652.4536 L151.33714 645.45401 L147.6761 638.34771 L144.25099 631.14131 L141.06247 623.84139 L138.11121 616.45454 L135.39785 608.98735 L132.92307 601.44641 L130.68751 593.83832 L128.69183 586.16966 L126.9367 578.44701 L125.42278 570.67698 L124.15071 562.86616 L123.12116 555.02112 L122.33478 547.14847 L121.79224 539.25478 L121.4942 531.34666 L121.4413 523.4307 L121.63422 515.51347 L122.0736 507.60158 L122.76011 499.70161 L123.6944 491.82015 L124.87714 483.96379 L126.30897 476.13913 L127.99057 468.35275 L129.92258 460.61124 L132.10567 452.9212 L134.54049 445.2892 L137.2277 437.72185 L140.16797 430.22574 L143.36194 422.80744 L146.81028 415.47356 L150.51364 408.23069 L154.47269 401.0854 L158.68808 394.0443 L163.16047 387.11397 L167.89052 380.30101 L172.87888 373.612 L178.12622 367.05353 L183.63319 360.6322 L189.40046 354.35459 L195.42867 348.22729 L201.71849 342.2569 L208.27058 336.45 L215.08559 330.81318 L222.16418 325.35304 L225.80253 322.69128 L225.80253 322.69128 L229.48536 320.09143 L236.91737 315.12305 L244.4328 310.46081 L252.02561 306.10201 L259.68977 302.04392 L267.41923 298.2838 L275.20797 294.81894 L283.04995 291.64661 L290.93912 288.76408 L298.86946 286.16864 L306.83493 283.85755 L314.82949 281.82809 L322.84711 280.07753 L330.88175 278.60316 L338.92736 277.40224 L346.97793 276.47205 L355.0274 275.80987 L363.06975 275.41296 L371.09894 275.27861 L379.10893 275.4041 L387.09368 275.78668 L395.04717 276.42365 L402.96334 277.31228 L410.83617 278.44983 L418.65963 279.83359 L426.42766 281.46083 L434.13424 283.32883 L441.77334 285.43486 L449.33891 287.77619 L456.82491 290.35011 L464.22532 293.15388 L471.5341 296.18478 L478.7452 299.44009 L485.8526 302.91707 L492.85026 306.61302 L499.73214 310.52519 L506.4922 314.65088 L513.12441 318.98734 L519.62273 323.53186 L525.98112 328.28171 L532.19356 333.23416 L538.254 338.3865 L544.15641 343.736 L549.89474 349.27992 L555.46297 355.01555 L560.85506 360.94017 L566.06497 367.05104 L571.08667 373.34544 L575.91411 379.82065 L580.54127 386.47394 L584.9621 393.30258 L589.17058 400.30386 L593.16065 407.47505 L596.9263 414.81342 L600.46147 422.31624 L603.76015 429.98079 L606.81628 437.80436 L609.62383 445.7842 L612.17677 453.9176 L614.46905 462.20184 L616.49466 470.63418 L618.24753 479.2119 L619.72165 487.93228 L620.91098 496.79259 L621.39696 501.27437" />
    <path d="M571.04449 356.04849 L573.57328 359.05148 L578.48169 365.15272 L583.19026 371.37692 L587.6978 377.71919 L592.00314 384.17464 L596.10511 390.7384 L600.00253 397.40557 L603.69423 404.17129 L607.17904 411.03066 L610.45577 417.9788 L613.52327 425.01083 L616.38034 432.12187 L619.02582 439.30704 L621.45854 446.56144 L623.67732 453.88021 L625.68098 461.25845 L627.46836 468.69128 L629.03827 476.17383 L630.38954 483.7012 L631.52101 491.26852 L632.43149 498.8709 L633.11981 506.50346 L633.58479 514.16131 L633.82527 521.83959 L633.84007 529.53339 L633.62801 537.23784 L633.18792 544.94806 L632.51863 552.65916 L631.61896 560.36627 L630.48774 568.06449 L629.12379 575.74894 L627.52594 583.41475 L626.63893 587.23914" />
    <path d="M199.29677 737.61306 L195.51959 734.47328 L188.18985 728.0585 L181.15866 721.46935 L174.42485 714.71296 L167.98726 707.79646 L161.84474 700.72696 L155.99612 693.51158 L150.44025 686.15745 L145.17596 678.6717 L140.20209 671.06143 L135.51749 663.33378 L131.121 655.49587 L127.01144 647.55481 L123.18768 639.51774 L119.64853 631.39176 L116.39285 623.18402 L113.41948 614.90161 L110.72725 606.55168 L108.315 598.14134 L106.18158 589.67772 L104.32582 581.16792 L102.74657 572.61909 L101.44266 564.03833 L100.41294 555.43278 L99.65624 546.80955 L99.1714 538.17577 L98.95727 529.53855 L99.01269 520.90502 L99.33648 512.28231 L99.92751 503.67753 L100.7846 495.09781 L101.90659 486.55026 L103.29233 478.04202 L104.94065 469.5802 L106.8504 461.17192 L109.02041 452.82431 L111.44953 444.54449 L114.13659 436.33958 L117.08043 428.21671 L120.2799 420.18299 L123.73384 412.24554 L127.44108 404.4115 L131.40047 396.68798 L135.61084 389.0821 L140.07104 381.60098 L144.7799 374.25176 L149.73626 367.04154 L154.93897 359.97746 L160.38687 353.06663 L166.07879 346.31618 L172.01358 339.73323 L178.19007 333.3249 L184.60711 327.09831 L191.26353 321.06058 L198.15818 315.21884 L205.28989 309.58021 L212.65751 304.15181 L220.25987 298.94077 L228.09582 293.9542 L236.16419 289.19922 L244.46383 284.68297 L252.99357 280.41256 L261.75226 276.39511 L270.73874 272.63775 L275.31703 270.85883 L275.31703 270.85883 L279.92476 269.15758 L289.14499 266.01723 L298.36696 263.22261 L307.58506 260.76915 L316.79372 258.65229 L325.98735 256.86747 L335.16036 255.4101 L344.30716 254.27564 L353.42216 253.45951 L362.49977 252.95715 L371.53442 252.76399 L380.5205 252.87547 L389.45243 253.28702 L398.32462 253.99408 L407.1315 254.99207 L415.86745 256.27645 L424.52691 257.84263 L433.10428 259.68606 L441.59397 261.80216 L449.9904 264.18638 L458.28797 266.83414 L466.48111 269.74088 L474.56421 272.90204 L482.5317 276.31305 L490.37799 279.96935 L498.09748 283.86636 L505.6846 287.99952 L513.13374 292.36428 L520.43933 296.95605 L527.59578 301.77028 L534.59749 306.80241 L541.43888 312.04785 L548.11437 317.50206 L554.61836 323.16046 L560.94527 329.01849 L567.08951 335.07158 L573.04548 341.31516 L578.80761 347.74468 L584.37031 354.35557 L589.72798 361.14325 L594.87504 368.10317 L599.8059 375.23075 L604.51497 382.52144 L608.99667 389.97067 L613.2454 397.57387 L617.25559 405.32648 L621.02163 413.22392 L624.53795 421.26164 L627.79896 429.43508 L630.79906 437.73965 L633.53267 446.1708 L635.99421 454.72397 L638.17807 463.39458 L640.07869 472.17807 L641.69046 481.06988 L643.0078 490.06544 L644.02512 499.16018 L644.73683 508.34955 L645.13736 517.62896 L645.2211 526.99387 L644.98247 536.43969 L644.41588 545.96187 L643.51575 555.55584 L642.27648 565.21704 L641.52793 570.07142" />
    <path d="M111.54714 639.93029 L109.82037 635.89094 L106.55924 627.74548 L103.55553 619.51608 L100.81026 611.20887 L98.32445 602.82998 L96.09913 594.38553 L94.13532 585.88164 L92.43404 577.32444 L90.99632 568.72006 L89.82318 560.07462 L88.91565 551.39423 L88.27474 542.68504 L87.90147 533.95316 L87.79689 525.20472 L87.962 516.44583 L88.39783 507.68264 L88.71758 503.30133" />
    <path d="M630.97816 668.51432 L629.17559 671.74551 L625.45694 678.12723 L621.58913 684.39968 L617.57478 690.56077 L613.41652 696.60842 L609.11696 702.54052 L604.67874 708.35499 L600.10447 714.04975 L595.39678 719.6227 L590.55828 725.07176 L585.59161 730.39483 L580.49939 735.58983 L575.28424 740.65468 L569.94878 745.58727 L564.49563 750.38553 L558.92743 755.04736 L553.24678 759.57068 L547.45633 763.95339 L541.55868 768.19341 L535.55646 772.28866 L529.45229 776.23703 L523.24881 780.03644 L516.94862 783.68481 L510.55436 787.18004 L504.06864 790.52004 L497.49409 793.70274 L490.83334 796.72603 L484.089 799.58783 L477.2637 802.28606 L470.36007 804.81861 L463.38071 807.18341 L456.32827 809.37837 L452.77546 810.4115" />
    <path d="M66.14045 548.12601 L65.79222 542.61969 L65.37941 531.68626 L65.33925 520.86222 L65.665 510.1521 L66.34996 499.56047 L67.38742 489.09185 L68.77067 478.75079 L70.49299 468.54185 L72.54768 458.46956 L74.92802 448.53846 L77.6273 438.75311 L80.63881 429.11805 L83.95583 419.63782 L87.57167 410.31697 L91.47959 401.16004 L95.6729 392.17158 L100.14487 383.35613 L104.88881 374.71823 L109.89799 366.26244 L115.16571 357.99329 L120.68525 349.91533 L126.4499 342.0331 L132.45296 334.35116 L138.6877 326.87404 L145.14742 319.60628 L151.82541 312.55245 L158.71494 305.71707 L165.80933 299.10469 L173.10184 292.71986 L180.58577 286.56712 L188.2544 280.65102 L196.10104 274.9761 L204.11895 269.54691 L212.30144 264.36798 L220.64179 259.44388 L229.13329 254.77913 L237.76923 250.37829 L246.54289 246.2459 L255.44756 242.3865 L264.47654 238.80464 L273.6231 235.50487 L282.88055 232.49172 L292.24216 229.76975 L301.70123 227.3435 L311.25105 225.2175 L320.88489 223.39632 L330.59606 221.88449 L340.37783 220.68655 L350.2235 219.80705 L360.12636 219.25055 L370.07969 219.02157 L380.07678 219.12466 L390.11093 219.56438 L400.17541 220.34526 L410.26352 221.47185 L420.36855 222.94869 L430.48378 224.78034 L440.6025 226.97132 L450.718 229.5262 L460.82357 232.44951 L470.9125 235.74579 L480.97808 239.4196 L491.01359 243.47547 L501.01232 247.91796 L505.99579 250.2856 L505.99579 250.2856 L510.93852 252.73717 L520.61355 257.84639 L530.00753 263.22363 L539.11989 268.86079 L547.95003 274.74981 L556.49739 280.88259 L564.76138 287.25104 L572.74143 293.84709 L580.43694 300.66265 L587.84735 307.68963 L594.97208 314.91995 L601.81053 322.34552 L608.36214 329.95826 L614.62631 337.75009 L620.60249 345.71292 L626.29007 353.83866 L631.68849 362.11923 L636.79716 370.54655 L641.6155 379.11252 L646.14293 387.80907 L650.37888 396.62812 L654.32276 405.56157 L657.97399 414.60134 L661.332 423.73934 L664.3962 432.9675 L667.16601 442.27772 L669.64085 451.66193 L671.82015 461.11203 L673.70332 470.61995 L675.28978 480.17759 L676.57895 489.77688 L677.57026 499.40972 L678.26312 509.06804 L678.65696 518.74374 L678.75118 528.42875 L678.54522 538.11497 L678.0385 547.79433 L677.23042 557.45874 L676.12042 567.10011 L674.70791 576.71037 L672.99232 586.28141 L670.97305 595.80517 L668.64954 605.27355 L666.02121 614.67847 L663.08746 624.01185 L659.84773 633.2656 L656.30144 642.43163 L652.44799 651.50186 L648.28682 660.46821 L643.81735 669.32259 L639.03898 678.05692 L633.95115 686.66311 L628.55327 695.13307 L622.84477 703.45873 L616.82506 711.632 L610.49356 719.64478 L603.8497 727.48901 L596.89289 735.15658 L589.62255 742.63943 L582.0381 749.92946 L574.13897 757.01858 L565.92457 763.89872 L557.39433 770.56179 L548.54766 776.99971 L544.00548 780.1317" />
    <path d="M58.94834 581.2991 L58.00444 575.65836 L56.41756 564.42842 L55.22653 553.27169 L54.42492 542.19357 L54.00628 531.19947 L53.96418 520.29478 L54.29218 509.48489 L54.98384 498.77522 L56.03273 488.17115 L57.4324 477.67809 L59.17642 467.30144 L61.25835 457.04659 L63.67175 446.91894 L66.41018 436.9239 L69.46722 427.06686 L72.83641 417.35322 L76.51132 407.78839 L80.48551 398.37775 L84.75255 389.1267 L89.306 380.04066 L94.13941 371.12501 L99.24636 362.38516 L104.6204 353.8265 L110.25509 345.45443 L116.14401 337.27435 L122.2807 329.29167 L128.65873 321.51177 L135.27167 313.94007 L142.11307 306.58195 L149.1765 299.44282 L156.45552 292.52808 L163.94369 285.84312 L171.63458 279.39334 L179.52174 273.18415 L187.59874 267.22094 L195.85915 261.50911 L204.29651 256.05406 L212.9044 250.86119 L221.67637 245.93589 L230.606 241.28358 L239.68683 236.90964 L248.91244 232.81947 L258.27638 229.01848 L267.77222 225.51206 L277.39352 222.30561 L287.13384 219.40454 L296.98674 216.81423 L306.94579 214.54009 L317.00455 212.58752 L327.15658 210.96192 L337.39543 209.66868 L347.71469 208.71321 L358.10789 208.1009 L368.56862 207.83716 L379.09043 207.92737 L389.66688 208.37695 L400.29153 209.19129 L410.95795 210.37578 L421.65969 211.93583 L432.39033 213.87685 L443.14342 216.20421 L453.91253 218.92333 L464.69121 222.03961 L475.47303 225.55843 L480.86311 227.47049 L480.86311 227.47049 L486.22008 229.47343 L496.73894 233.71412 L506.99646 238.26102 L516.9912 243.10587 L526.72169 248.24037 L536.18648 253.65625 L545.38412 259.34525 L554.31314 265.29908 L562.97209 271.50948 L571.35951 277.96816 L579.47394 284.66685 L587.31394 291.59728 L594.87803 298.75117 L602.16478 306.12024 L609.17271 313.69623 L615.90037 321.47086 L622.34631 329.43584 L628.50906 337.58292 L634.38718 345.9038 L639.9792 354.39022 L645.28367 363.03391 L650.29914 371.82658 L655.02413 380.75996 L659.45721 389.82579 L663.59691 399.01577 L667.44177 408.32165 L670.99034 417.73513 L674.24116 427.24795 L677.19277 436.85184 L679.84373 446.53852 L682.19256 456.29971 L684.23782 466.12713 L685.97805 476.01252 L687.41178 485.9476 L688.53758 495.9241 L689.35396 505.93373 L689.85949 515.96823 L690.05271 526.01931 L689.93215 536.07871 L689.49636 546.13815 L688.74389 556.18936 L687.67327 566.22405 L686.28306 576.23396 L684.57179 586.21081 L682.538 596.14632 L680.18025 606.03222 L677.49707 615.86024 L674.487 625.6221 L671.1486 635.30952 L667.4804 644.91424 L663.48095 654.42797 L659.14878 663.84244 L654.48245 673.14937 L649.4805 682.3405 L644.14147 691.40754 L638.4639 700.34223 L632.44634 709.13628 L626.08732 717.78142 L619.3854 726.26938 L612.33912 734.59188 L604.94702 742.74065 L597.20764 750.7074 L589.11952 758.48388 L580.68122 766.0618 L576.33029 769.77371" />
    <path d="M681.76985 637.54091 L679.71948 643.09559 L675.37477 654.004 L670.71192 664.64318 L665.73948 675.0116 L660.46601 685.1077 L654.90008 694.92995 L649.05024 704.4768 L642.92505 713.7467 L636.53308 722.73812 L629.88289 731.4495 L622.98303 739.87931 L615.84207 748.026 L608.46856 755.88803 L600.87107 763.46385 L593.05816 770.75191 L585.03839 777.75068 L576.82032 784.45861 L568.4125 790.87416 L559.82351 796.99578 L551.0619 802.82192 L542.13623 808.35105 L533.05506 813.58162 L523.82696 818.51209 L514.46048 823.14091 L504.96418 827.46654 L495.34662 831.48743 L485.61637 835.20204 L475.78199 838.60882 L465.85203 841.70624 L455.83506 844.49275 L445.73964 846.9668 L435.57432 849.12685 L425.34767 850.97136 L415.06825 852.49878 L404.74462 853.70757 L394.38533 854.59618 L383.99896 855.16307 L373.59406 855.4067 L363.17919 855.32552 L352.76292 854.91799 L342.35379 854.18256 L331.96038 853.11769 L321.59124 851.72184 L311.25494 849.99346 L300.96003 847.931 L290.71508 845.53293 L280.52864 842.79771 L270.40928 839.72377 L260.36555 836.30959 L250.40602 832.55362 L240.53925 828.45431 L230.7738 824.01012 L221.11823 819.21951 L211.5811 814.08093 L202.17097 808.59283 L192.8964 802.75369 L183.76595 796.56194 L174.78818 790.01604 L165.97165 783.11446 L157.32493 775.85565 L148.85657 768.23806 L140.57514 760.26015 L132.48919 751.92037 L124.60728 743.21719 L120.74552 738.72884 L120.74552 738.72884 L117.15367 734.41168 L110.23519 725.67219 L103.66847 716.79853 L97.45126 707.79799 L91.58131 698.67782 L86.05638 689.4453 L80.87421 680.10769 L76.03258 670.67227 L71.52922 661.14629 L67.36189 651.53704 L63.52835 641.85177 L60.02635 632.09776 L56.85365 622.28228 L54.00799 612.41258 L51.48713 602.49596 L49.28883 592.53966 L47.41084 582.55096 L45.85091 572.53713 L44.6068 562.50543 L43.67626 552.46314 L43.05704 542.41753 L42.7469 532.37586 L42.7436 522.34539 L43.04488 512.33341 L43.6485 502.34717 L44.55222 492.39396 L45.75378 482.48102 L47.25094 472.61564 L49.04146 462.80508 L51.12309 453.05661 L53.49358 443.3775 L56.15069 433.77502 L59.09217 424.25644 L62.31577 414.82902 L65.81925 405.50003 L69.60036 396.27675 L73.65686 387.16643 L77.9865 378.17636 L82.58704 369.31379 L87.45622 360.586 L92.5918 352.00025 L97.99154 343.56382 L103.65318 335.28396 L109.57449 327.16796 L115.75322 319.22308 L122.18712 311.45658 L128.87394 303.87574 L135.81144 296.48783 L142.99737 289.30011 L150.42949 282.31985 L158.10554 275.55432 L166.02329 269.01079 L174.18049 262.69652 L182.57489 256.6188 L191.20425 250.78487 L200.06631 245.20202 L209.15884 239.87751 L218.47958 234.81861 L228.02629 230.03259 L237.79673 225.52672 L247.78864 221.30826 L257.99979 217.38449 L268.42792 213.76267 L279.0708 210.45007 L284.47206 208.912" />
  </g>
</svg>