<?xml version="1.0" standalone="no"?>
<!DOCTYPE svg PUBLIC "-//W3C//DTD SVG 1.1//EN" 
    "http://www.w3.org/Graphics/SVG/1.1/DTD/svg11.dtd">
<svg width="21cm" height="29.7cm"
    xmlns="http://www.w3.org/2000/svg" version="1.1" viewBox="0 0 744.09449 1052.3622">
  <g fill="none" stroke="black" stroke-width="0.03cm">
    <path d="M0 0 L744.09449 0" />
    <path d="M0 0 L744.09449 35.43307" />
    <path d="M0 0 L744.09449 70.86614" />
    <path d="M0 0 L744.09449 106.29921" />
    <path d="M0 0 L744.09449 141.73228" />
    <path d="M0 0 L744.09449 177.16535" />
    <path d="M0 0 L744.09449 212.59843" />
    <path d="M0 0 L744.09449 248.0315" />
    <path d="M0 0 L744.09449 283.46457" />
    <path d="M0 0 L744.09449 318.89764" />
    <path d="M0 0 L744.09449 354.33071" />
    <path d="M0 0 L744.09449 389.76378" />
    <path d="M0 0 L744.09449 425.19685" />
    <path d="M0 0 L744.09449 460.62992" />
    <path d="M0 0 L744.09449 496.06299" />
    <path d="M0 0 L744.09449 531.49606" />
    <path d="M0 0 L744.09449 566.92913" />
    <path d="M0 0 L744.09449 602.3622" />
    <path d="M0 0 L744.09449 637.79528" />
    <path d="M0 0 L744.09449 673.22835" />
    <path d="M0 0 L744.09449 708.66142" />
    <path d="M0 0 L744.09449 744.09449" />
    <path d="M0 0 L744.09449 779.52756" />
    <path d="M0 0 L744.09449 814.96063" />
    <path d="M0 0 L744.09449 850.3937" />
    <path d="M0 0 L744.09449 885.82677" />
    <path d="M0 0 L744.09449 921.25984" />
    <path d="M0 0 L744.09449 956.69291" />
    <path d="M0 0 L744.09449 992.12598" />
    <path d="M0 0 L744.09449 1027.55906" />
    <path d="M0 0 L744.09449 1062.99213" />
    <path d="M0 0 L744.09449 1098.4252" />
    <path d="M0 0 L744.09449 1133.85827" />
    <path d="M0 0 L744.09449 1169.29134" />
    <path d="M0 0 L744.09449 1204.72441" />
    <path d="M0 0 L744.09449 1240.15748" />
    <path d="M0 0 L744.09449 1275.59055" />
    <path d="M0 0 L744.09449 1311.02362" />
    <path d="M0 0 L744.09449 1346.45669" />
    <path d="M0 0 L744.09449 1381.88976" />
    <path d="M0 0 L744.09449 1417.32283" />
    <path d="M0 0 L744.09449 1452.75591" />
    <path d="M0 0 L744.09449 1488.18898" />
    <path d="M0 0 L744.09449 1523.62205" />
    <path d="M0 0 L744.09449 1559.05512" />
    <path d="M0 0 L744.09449 1594.48819" />
    <path d="M0 0 L744.09449 1629.92126" />
    <path d="M0 0 L744.09449 1665.35433" />
    <path d="M0 0 L744.09449 1700.7874" />
    <path d="M0 0 L744.09449 1736.22047" />
    <path d="M0 0 L744.09449 1771.65354" />
    <path d="M0 0 L744.09449 1807.08661" />
    <path d="M0 0 L744.09449 1842.51969" />
    <path d="M0 0 L744.09449 1877.95276" />
    <path d="M0 0 L744.09449 1913.38583" />
    <path d="M0 0 L744.09449 1948.8189" />
    <path d="M0 0 L744.09449 1984.25197" />
    <path d="M0 0 L744.09449 2019.68504" />
    <path d="M0 0 L744.09449 2055.11811" />
    <path d="M0 0 L744.09449 2090.55118" />
    <path d="M0 0 L744.09449 2125.98425" />
    <path d="M0 0 L744.09449 2161.41732" />
    <path d="M0 0 L744.09449 2196.85039" />
    <path d="M0 0 L744.09449 2232.28346" />
    <path d="M0 0 L744.09449 2267.71654" />
    <path d="M0 0 L744.09449 2303.14961" />
    <path d="M0 0 L744.09449 2338.58268" />
    <path d="M0 0 L744.09449 2374.01575" />
    <path d="M0 0 L744.09449 2409.44882" />
    <path d="M0 0 L744.09449 2444.88189" />
    <path d="M0 0 L744.09449 2480.31496" />
    <path d="M0 0 L744.09449 2515.74803" />
    <path d="M0 0 L744.09449 2551.1811" />
    <path d="M0 0 L744.09449 2586.61417" />
    <path d="M0 0 L744.09449 2622.04724" />
    <path d="M0 0 L744.09449 2657.48031" />
    <path d="M0 0 L744.09449 2692.91339" />
    <path d="M0 0 L744.09449 2728.34646" />
    <path d="M0 0 L744.09449 2763.77953" />
    <path d="M0 0 L744.09449 2799.2126" />
    <path d="M0 0 L744.09449 2834.64567" />
    <path d="M0 0 L744.09449 2870.07874" />
    <path d="M0 0 L744.09449 2905.51181" />
    <path d="M0 0 L744.09449 2940.94488" />
    <path d="M0 0 L744.09449 2976.37795" />
    <path d="M0 0 L744.09449 3011.81102" />
    <path d="M0 0 L744.09449 3047.24409" />
    <path d="M0 0 L744.09449 3082.67717" />
    <path d="M0 0 L744.09449 3118.11024" />
    <path d="M0 0 L744.09449 3153.54331" />
    <path d="M0 0 L744.09449 3188.97638" />
    <path d="M0 0 L744.09449 3224.40945" />
    <path d="M0 0 L744.09449 3259.84252" />
    <path d="M0 0 L744.09449 3295.27559" />
    <path d="M0 0 L744.09449 3330.70866" />
    <path d="M0 0 L744.09449 3366.14173" />
    <path d="M0 0 L744.09449 3401.5748" />
    <path d="M0 0 L744.09449 3437.00787" />
    <path d="M0 0 L744.09449 3472.44094" />
    <path d="M0 0 L744.09449 3507.87402" />
  </g>
</svg>