<?xml version="1.0" standalone="no"?>
<!DOCTYPE svg PUBLIC "-//W3C//DTD SVG 1.1//EN" 
    "http://www.w3.org/Graphics/SVG/1.1/DTD/svg11.dtd">
<svg width="2480px" height="3508px"
    xmlns="http://www.w3.org/2000/svg" version="1.1" viewBox="0 0 2480 3508">
  <g fill="none" stroke="black" stroke-width="1.06299px">
    <path d="M620 1134 L1860 1134" />
    <path d="M1860 1134 L1860 2374" />
    <path d="M1860 2374 L620 2374" />
    <path d="M620 2374 L620 1134" />
    <path d="M620 1134 L1870.7260629880784 1144.9149209941531" />
    <path d="M1860 1134 L1849.0850790058469 2384.7260629880784" />
    <path d="M1860 2374 L609.2739370119216 2363.0850790058466" />
    <path d="M620 2374 L630.9149209941531 1123.2739370119216" />
    <path d="M620 1134 L1881.26000070739 1156.0153752037113" />
    <path d="M1860 1134 L1837.9846247962887 2395.2600007073897" />
    <path d="M1860 2374 L598.73999929261 2351.9846247962887" />
    <path d="M620 2374 L642.0153752037113 1112.73999929261" />
    <path d="M620 1134 L1891.598604418461 1167.2979813227894" />
    <path d="M1860 1134 L1826.7020186772106 2405.598604418461" />
    <path d="M1860 2374 L588.401395581539 2340.7020186772106" />
    <path d="M620 2374 L653.2979813227894 1102.401395581539" />
    <path d="M620 1134 L1901.7387248824487 1178.7593025602666" />
    <path d="M1860 1134 L1815.2406974397334 2415.738724882449" />
    <path d="M1860 2374 L578.2612751175513 2329.2406974397336" />
    <path d="M620 2374 L664.7593025602666 1092.2612751175513" />
    <path d="M620 1134 L1911.6772733204302 1190.3958476866658" />
    <path d="M1860 1134 L1803.6041523133342 2425.6772733204302" />
    <path d="M1860 2374 L568.3227266795698 2317.6041523133345" />
    <path d="M620 2374 L676.3958476866658 1082.3227266795698" />
    <path d="M620 1134 L1921.4112223542747 1202.2040720976156" />
    <path d="M1860 1134 L1791.7959279023844 2435.4112223542747" />
    <path d="M1860 2374 L558.5887776457254 2305.7959279023844" />
    <path d="M620 2374 L688.2040720976157 1072.5887776457253" />
    <path d="M620 1134 L1930.937606928811 1214.1803788935717" />
    <path d="M1860 1134 L1779.8196211064283 2444.937606928811" />
    <path d="M1860 2374 L549.0623930711889 2293.8196211064283" />
    <path d="M620 2374 L700.1803788935719 1063.062393071189" />
    <path d="M620 1134 L1940.2535252150142 1226.321119975467" />
    <path d="M1860 1134 L1767.678880024533 2454.253525215014" />
    <path d="M1860 2374 L539.7464747849858 2281.678880024533" />
    <path d="M620 2374 L712.3211199754669 1053.7464747849858" />
    <path d="M620 1134 L1949.3561394939286 1238.6225971559577" />
    <path d="M1860 1134 L1755.3774028440423 2463.356139493929" />
    <path d="M1860 2374 L530.6438605060714 2269.377402844042" />
    <path d="M620 2374 L724.6225971559577 1044.6438605060714" />
    <path d="M620 1134 L1958.242677021066 1251.081063285928" />
    <path d="M1860 1134 L1742.918936714072 2472.242677021066" />
    <path d="M1860 2374 L521.7573229789342 2256.918936714072" />
    <path d="M620 2374 L737.0810632859278 1035.757322978934" />
    <path d="M620 1134 L1966.9104308710093 1263.6927233959061" />
    <path d="M1860 1134 L1730.3072766040939 2480.9104308710093" />
    <path d="M1860 2374 L513.0895691289907 2244.3072766040937" />
    <path d="M620 2374 L749.6927233959061 1027.0895691289907" />
    <path d="M620 1134 L1975.3567607619702 1276.453735852051" />
    <path d="M1860 1134 L1717.546264147949 2489.3567607619702" />
    <path d="M1860 2374 L504.64323923802965 2231.546264147949" />
    <path d="M620 2374 L762.4537358520512 1018.6432392380297" />
    <path d="M620 1134 L1983.5790938600421 1289.3602135263504" />
    <path d="M1860 1134 L1704.6397864736496 2497.579093860042" />
    <path d="M1860 2374 L496.4209061399579 2218.6397864736496" />
    <path d="M620 2374 L775.3602135263504 1010.4209061399579" />
    <path d="M620 1134 L1991.5749255629116 1302.408224980676" />
    <path d="M1860 1134 L1691.591775019324 2505.5749255629116" />
    <path d="M1860 2374 L488.42507443708826 2205.591775019324" />
    <path d="M620 2374 L788.4082249806762 1002.4250744370883" />
    <path d="M620 1134 L1999.3418202627852 1315.5937956643404" />
    <path d="M1860 1134 L1678.4062043356596 2513.3418202627854" />
    <path d="M1860 2374 L480.6581797372148 2192.4062043356594" />
    <path d="M620 2374 L801.5937956643404 994.6581797372148" />
    <path d="M620 1134 L2006.8774120882972 1328.912909124782" />
    <path d="M1860 1134 L1665.087090875218 2520.877412088297" />
    <path d="M1860 2374 L473.1225879117028 2179.087090875218" />
    <path d="M620 2374 L814.9129091247819 987.1225879117028" />
    <path d="M620 1134 L2014.1794056251788 1342.3615082310148" />
    <path d="M1860 1134 L1651.6384917689852 2528.179405625179" />
    <path d="M1860 2374 L465.8205943748212 2165.638491768985" />
    <path d="M620 2374 L828.3615082310148 979.8205943748212" />
    <path d="M620 1134 L2021.2455766154626 1355.9354964094723" />
    <path d="M1860 1134 L1638.0645035905277 2535.2455766154626" />
    <path d="M1860 2374 L458.7544233845374 2152.0645035905277" />
    <path d="M620 2374 L841.9354964094723 972.7544233845374" />
    <path d="M620 1134 L2028.0737726350135 1369.6307388918608" />
    <path d="M1860 1134 L1624.3692611081392 2542.0737726350135" />
    <path d="M1860 2374 L451.9262273649864 2138.369261108139" />
    <path d="M620 2374 L855.6307388918607 965.9262273649864" />
    <path d="M620 1134 L2034.661913749178 1383.4430639746515" />
    <path d="M1860 1134 L1610.5569360253485 2548.661913749178" />
    <path d="M1860 2374 L445.33808625082213 2124.5569360253485" />
    <path d="M620 2374 L869.4430639746514 959.3380862508221" />
    <path d="M620 1134 L2041.0079931463513 1397.3682642898211" />
    <path d="M1860 1134 L1596.6317357101789 2555.0079931463515" />
    <path d="M1860 2374 L438.9920068536487 2110.631735710179" />
    <path d="M620 2374 L883.3682642898211 952.9920068536487" />
    <path d="M620 1134 L2047.1100777492736 1411.4020980864573" />
    <path d="M1860 1134 L1582.5979019135427 2561.110077749274" />
    <path d="M1860 2374 L432.8899222507264 2096.597901913543" />
    <path d="M620 2374 L897.4020980864573 946.8899222507264" />
    <path d="M620 1134 L2052.966308803863 1425.5402905228366" />
    <path d="M1860 1134 L1568.4597094771634 2566.966308803863" />
    <path d="M1860 2374 L427.0336911961373 2082.4597094771634" />
    <path d="M620 2374 L911.5402905228367 941.0336911961373" />
    <path d="M620 1134 L2058.5749024454085 1439.7785349685837" />
    <path d="M1860 1134 L1554.2214650314163 2572.5749024454085" />
    <path d="M1860 2374 L421.4250975545914 2068.2214650314163" />
    <path d="M620 2374 L925.7785349685836 935.4250975545914" />
    <path d="M620 1134 L2063.9341502419566 1454.1124943165107" />
    <path d="M1860 1134 L1539.8875056834893 2577.9341502419566" />
    <path d="M1860 2374 L416.06584975804344 2053.8875056834895" />
    <path d="M620 2374 L940.1124943165107 930.0658497580434" />
    <path d="M620 1134 L2069.0424197147113 1468.5378023037445" />
    <path d="M1860 1134 L1525.4621976962555 2583.0424197147113" />
    <path d="M1860 2374 L410.9575802852885 2039.4621976962555" />
    <path d="M620 2374 L954.5378023037445 924.9575802852885" />
    <path d="M620 1134 L2073.898154835307 1483.050064841731" />
    <path d="M1860 1134 L1510.949935158269 2587.898154835307" />
    <path d="M1860 2374 L406.1018451646929 2024.949935158269" />
    <path d="M620 2374 L969.0500648417309 920.1018451646929" />
    <path d="M620 1134 L2078.499876499787 1497.6448613547175" />
    <path d="M1860 1134 L1496.3551386452825 2592.499876499787" />
    <path d="M1860 2374 L401.500123500213 2010.3551386452825" />
    <path d="M620 2374 L983.6448613547175 915.500123500213" />
    <path d="M620 1134 L2082.846182979154 1512.3177461263035" />
    <path d="M1860 1134 L1481.6822538736965 2596.846182979154" />
    <path d="M1860 2374 L397.15381702084574 1995.6822538736965" />
    <path d="M620 2374 L998.3177461263035 911.1538170208457" />
    <path d="M620 1134 L2086.935750346352 1527.064249653648" />
    <path d="M1860 1134 L1466.935750346352 2600.935750346352" />
    <path d="M1860 2374 L393.06424965364795 1980.935750346352" />
    <path d="M620 2374 L1013.064249653648 907.064249653648" />
    <path d="M620 1134 L2090.767332879543 1541.879880008924" />
    <path d="M1860 1134 L1452.120119991076 2604.767332879543" />
    <path d="M1860 2374 L389.2326671204569 1966.120119991076" />
    <path d="M620 2374 L1027.879880008924 903.2326671204569" />
    <path d="M620 1134 L2094.3397634415714 1556.760124207603" />
    <path d="M1860 1134 L1437.239875792397 2608.3397634415714" />
    <path d="M1860 2374 L385.6602365584288 1951.239875792397" />
    <path d="M620 2374 L1042.760124207603 899.6602365584288" />
    <path d="M620 1134 L2097.6519538354796 1571.7004495831538" />
    <path d="M1860 1134 L1422.2995504168462 2611.6519538354796" />
    <path d="M1860 2374 L382.3480461645204 1936.2995504168462" />
    <path d="M620 2374 L1057.7004495831538 896.3480461645204" />
    <path d="M620 1134 L2100.702895135989 1586.6963051677374" />
    <path d="M1860 1134 L1407.3036948322626 2614.702895135989" />
    <path d="M1860 2374 L379.2971048640111 1921.3036948322626" />
    <path d="M620 2374 L1072.6963051677374 893.2971048640111" />
    <path d="M620 1134 L2103.4916579968235 1601.7431230784737" />
    <path d="M1860 1134 L1392.2568769215263 2617.4916579968235" />
    <path d="M1860 2374 L376.5083420031765 1906.2568769215263" />
    <path d="M620 2374 L1087.7431230784737 890.5083420031765" />
    <path d="M620 1134 L2106.0173929338007 1616.836319908866" />
    <path d="M1860 1134 L1377.163680091134 2620.0173929338007" />
    <path d="M1860 2374 L373.9826070661993 1891.163680091134" />
    <path d="M620 2374 L1102.836319908866 887.9826070661993" />
    <path d="M620 1134 L2108.279330583591 1631.9712981249484" />
    <path d="M1860 1134 L1362.0287018750516 2622.279330583591" />
    <path d="M1860 2374 L371.72066941640855 1876.0287018750516" />
    <path d="M620 2374 L1117.9712981249484 885.7206694164086" />
    <path d="M620 1134 L2110.2767819380756 1647.1434474657406" />
    <path d="M1860 1134 L1346.8565525342594 2624.2767819380756" />
    <path d="M1860 2374 L369.7232180619243 1860.8565525342594" />
    <path d="M620 2374 L1133.1434474657406 883.7232180619243" />
    <path d="M620 1134 L2112.009138554221 1662.3481463475773" />
    <path d="M1860 1134 L1331.6518536524227 2626.009138554221" />
    <path d="M1860 2374 L367.9908614457788 1845.6518536524227" />
    <path d="M620 2374 L1148.3481463475773 881.9908614457788" />
    <path d="M620 1134 L2113.475872739421 1677.580763271888" />
    <path d="M1860 1134 L1316.419236728112 2627.475872739421" />
    <path d="M1860 2374 L366.52412726057923 1830.419236728112" />
    <path d="M620 2374 L1163.580763271888 880.5241272605792" />
    <path d="M620 1134 L2114.6765377122333 1692.8366582359959" />
    <path d="M1860 1134 L1301.1633417640041 2628.6765377122333" />
    <path d="M1860 2374 L365.3234622877668 1815.1633417640041" />
    <path d="M620 2374 L1178.8366582359959 879.3234622877668" />
    <path d="M620 1134 L2115.6107677384766 1708.1111841465076" />
    <path d="M1860 1134 L1285.8888158534924 2629.6107677384766" />
    <path d="M1860 2374 L364.3892322615234 1799.8888158534924" />
    <path d="M620 2374 L1194.1111841465076 878.3892322615234" />
    <path d="M620 1134 L2116.2782782426348 1723.3996882348633" />
    <path d="M1860 1134 L1270.6003117651367 2630.2782782426348" />
    <path d="M1860 2374 L363.72172175736523 1784.6003117651367" />
    <path d="M620 2374 L1209.3996882348633 877.7217217573652" />
    <path d="M620 1134 L2116.678865894542 1738.6975134746144" />
    <path d="M1860 1134 L1255.3024865253856 2630.678865894542" />
    <path d="M1860 2374 L363.321134105458 1769.3024865253856" />
    <path d="M620 2374 L1224.6975134746144 877.321134105458" />
  </g>
</svg>