<?xml version="1.0" standalone="no"?>
<!DOCTYPE svg PUBLIC "-//W3C//DTD SVG 1.1//EN" 
    "http://www.w3.org/Graphics/SVG/1.1/DTD/svg11.dtd">
<svg width="21cm" height="29.7cm"
    xmlns="http://www.w3.org/2000/svg" version="1.1" viewBox="0 0 744.09449 1052.3622">
  <g fill="none" stroke="black" stroke-width="0.03cm">
    <path d="M35.43307 70.86614 L70.86614 35.43307" />
    <path d="M35.43307 88.58268 L70.86614 88.58268" />
    <path d="M53.14961 106.29921 L53.14961 141.73228" />
    <path d="M35.43307 159.44882 L70.86614 159.44882" />
    <path d="M35.43307 194.88189 L70.86614 194.88189" />
    <path d="M53.14961 212.59843 L53.14961 248.0315" />
    <path d="M35.43307 283.46457 L70.86614 248.0315" />
    <path d="M35.43307 318.89764 L70.86614 283.46457" />
    <path d="M35.43307 336.61417 L70.86614 336.61417" />
    <path d="M35.43307 372.04724 L70.86614 372.04724" />
    <path d="M53.14961 389.76378 L53.14961 425.19685" />
    <path d="M53.14961 425.19685 L53.14961 460.62992" />
    <path d="M53.14961 460.62992 L53.14961 496.06299" />
    <path d="M35.43307 513.77953 L70.86614 513.77953" />
    <path d="M53.14961 531.49606 L53.14961 566.92913" />
    <path d="M35.43307 602.3622 L70.86614 566.92913" />
    <path d="M53.14961 602.3622 L53.14961 637.79528" />
    <path d="M35.43307 673.22835 L70.86614 637.79528" />
    <path d="M53.14961 673.22835 L53.14961 708.66142" />
    <path d="M35.43307 744.09449 L70.86614 708.66142" />
    <path d="M35.43307 744.09449 L70.86614 779.52756" />
    <path d="M35.43307 797.24409 L70.86614 797.24409" />
    <path d="M35.43307 832.67717 L70.86614 832.67717" />
    <path d="M53.14961 850.3937 L53.14961 885.82677" />
    <path d="M35.43307 903.54331 L70.86614 903.54331" />
    <path d="M35.43307 956.69291 L70.86614 921.25984" />
    <path d="M35.43307 992.12598 L70.86614 956.69291" />
    <path d="M35.43307 992.12598 L70.86614 1027.55906" />
    <path d="M88.58268 35.43307 L88.58268 70.86614" />
    <path d="M70.86614 106.29921 L106.29921 70.86614" />
    <path d="M88.58268 106.29921 L88.58268 141.73228" />
    <path d="M88.58268 141.73228 L88.58268 177.16535" />
    <path d="M70.86614 194.88189 L106.29921 194.88189" />
    <path d="M70.86614 230.31496 L106.29921 230.31496" />
    <path d="M88.58268 248.0315 L88.58268 283.46457" />
    <path d="M70.86614 318.89764 L106.29921 283.46457" />
    <path d="M70.86614 318.89764 L106.29921 354.33071" />
    <path d="M70.86614 389.76378 L106.29921 354.33071" />
    <path d="M70.86614 425.19685 L106.29921 389.76378" />
    <path d="M70.86614 425.19685 L106.29921 460.62992" />
    <path d="M88.58268 460.62992 L88.58268 496.06299" />
    <path d="M70.86614 531.49606 L106.29921 496.06299" />
    <path d="M70.86614 549.2126 L106.29921 549.2126" />
    <path d="M70.86614 602.3622 L106.29921 566.92913" />
    <path d="M70.86614 602.3622 L106.29921 637.79528" />
    <path d="M70.86614 637.79528 L106.29921 673.22835" />
    <path d="M88.58268 673.22835 L88.58268 708.66142" />
    <path d="M70.86614 708.66142 L106.29921 744.09449" />
    <path d="M70.86614 761.81102 L106.29921 761.81102" />
    <path d="M70.86614 779.52756 L106.29921 814.96063" />
    <path d="M70.86614 814.96063 L106.29921 850.3937" />
    <path d="M70.86614 850.3937 L106.29921 885.82677" />
    <path d="M70.86614 903.54331 L106.29921 903.54331" />
    <path d="M70.86614 921.25984 L106.29921 956.69291" />
    <path d="M70.86614 992.12598 L106.29921 956.69291" />
    <path d="M70.86614 1009.84252 L106.29921 1009.84252" />
    <path d="M106.29921 35.43307 L141.73228 70.86614" />
    <path d="M106.29921 88.58268 L141.73228 88.58268" />
    <path d="M106.29921 141.73228 L141.73228 106.29921" />
    <path d="M106.29921 159.44882 L141.73228 159.44882" />
    <path d="M106.29921 194.88189 L141.73228 194.88189" />
    <path d="M106.29921 212.59843 L141.73228 248.0315" />
    <path d="M124.01575 248.0315 L124.01575 283.46457" />
    <path d="M124.01575 283.46457 L124.01575 318.89764" />
    <path d="M106.29921 354.33071 L141.73228 318.89764" />
    <path d="M106.29921 372.04724 L141.73228 372.04724" />
    <path d="M106.29921 425.19685 L141.73228 389.76378" />
    <path d="M106.29921 442.91339 L141.73228 442.91339" />
    <path d="M106.29921 478.34646 L141.73228 478.34646" />
    <path d="M106.29921 513.77953 L141.73228 513.77953" />
    <path d="M106.29921 566.92913 L141.73228 531.49606" />
    <path d="M106.29921 566.92913 L141.73228 602.3622" />
    <path d="M106.29921 620.07874 L141.73228 620.07874" />
    <path d="M106.29921 655.51181 L141.73228 655.51181" />
    <path d="M124.01575 673.22835 L124.01575 708.66142" />
    <path d="M106.29921 744.09449 L141.73228 708.66142" />
    <path d="M106.29921 744.09449 L141.73228 779.52756" />
    <path d="M106.29921 814.96063 L141.73228 779.52756" />
    <path d="M106.29921 814.96063 L141.73228 850.3937" />
    <path d="M106.29921 850.3937 L141.73228 885.82677" />
    <path d="M106.29921 903.54331 L141.73228 903.54331" />
    <path d="M106.29921 956.69291 L141.73228 921.25984" />
    <path d="M124.01575 956.69291 L124.01575 992.12598" />
    <path d="M106.29921 1009.84252 L141.73228 1009.84252" />
    <path d="M159.44882 35.43307 L159.44882 70.86614" />
    <path d="M159.44882 70.86614 L159.44882 106.29921" />
    <path d="M141.73228 106.29921 L177.16535 141.73228" />
    <path d="M159.44882 141.73228 L159.44882 177.16535" />
    <path d="M141.73228 194.88189 L177.16535 194.88189" />
    <path d="M159.44882 212.59843 L159.44882 248.0315" />
    <path d="M141.73228 265.74803 L177.16535 265.74803" />
    <path d="M159.44882 283.46457 L159.44882 318.89764" />
    <path d="M159.44882 318.89764 L159.44882 354.33071" />
    <path d="M159.44882 354.33071 L159.44882 389.76378" />
    <path d="M141.73228 425.19685 L177.16535 389.76378" />
    <path d="M141.73228 460.62992 L177.16535 425.19685" />
    <path d="M159.44882 460.62992 L159.44882 496.06299" />
    <path d="M159.44882 496.06299 L159.44882 531.49606" />
    <path d="M141.73228 531.49606 L177.16535 566.92913" />
    <path d="M159.44882 566.92913 L159.44882 602.3622" />
    <path d="M141.73228 620.07874 L177.16535 620.07874" />
    <path d="M141.73228 655.51181 L177.16535 655.51181" />
    <path d="M141.73228 690.94488 L177.16535 690.94488" />
    <path d="M141.73228 726.37795 L177.16535 726.37795" />
    <path d="M141.73228 779.52756 L177.16535 744.09449" />
    <path d="M141.73228 814.96063 L177.16535 779.52756" />
    <path d="M141.73228 850.3937 L177.16535 814.96063" />
    <path d="M141.73228 850.3937 L177.16535 885.82677" />
    <path d="M159.44882 885.82677 L159.44882 921.25984" />
    <path d="M141.73228 938.97638 L177.16535 938.97638" />
    <path d="M141.73228 956.69291 L177.16535 992.12598" />
    <path d="M141.73228 992.12598 L177.16535 1027.55906" />
    <path d="M177.16535 35.43307 L212.59843 70.86614" />
    <path d="M177.16535 106.29921 L212.59843 70.86614" />
    <path d="M177.16535 106.29921 L212.59843 141.73228" />
    <path d="M177.16535 141.73228 L212.59843 177.16535" />
    <path d="M177.16535 177.16535 L212.59843 212.59843" />
    <path d="M177.16535 212.59843 L212.59843 248.0315" />
    <path d="M194.88189 248.0315 L194.88189 283.46457" />
    <path d="M177.16535 283.46457 L212.59843 318.89764" />
    <path d="M177.16535 354.33071 L212.59843 318.89764" />
    <path d="M177.16535 354.33071 L212.59843 389.76378" />
    <path d="M194.88189 389.76378 L194.88189 425.19685" />
    <path d="M177.16535 460.62992 L212.59843 425.19685" />
    <path d="M177.16535 496.06299 L212.59843 460.62992" />
    <path d="M177.16535 531.49606 L212.59843 496.06299" />
    <path d="M177.16535 549.2126 L212.59843 549.2126" />
    <path d="M194.88189 566.92913 L194.88189 602.3622" />
    <path d="M194.88189 602.3622 L194.88189 637.79528" />
    <path d="M194.88189 637.79528 L194.88189 673.22835" />
    <path d="M177.16535 690.94488 L212.59843 690.94488" />
    <path d="M177.16535 708.66142 L212.59843 744.09449" />
    <path d="M177.16535 744.09449 L212.59843 779.52756" />
    <path d="M177.16535 797.24409 L212.59843 797.24409" />
    <path d="M177.16535 814.96063 L212.59843 850.3937" />
    <path d="M177.16535 868.11024 L212.59843 868.11024" />
    <path d="M194.88189 885.82677 L194.88189 921.25984" />
    <path d="M194.88189 921.25984 L194.88189 956.69291" />
    <path d="M177.16535 992.12598 L212.59843 956.69291" />
    <path d="M177.16535 1027.55906 L212.59843 992.12598" />
    <path d="M230.31496 35.43307 L230.31496 70.86614" />
    <path d="M212.59843 106.29921 L248.0315 70.86614" />
    <path d="M212.59843 106.29921 L248.0315 141.73228" />
    <path d="M212.59843 159.44882 L248.0315 159.44882" />
    <path d="M212.59843 194.88189 L248.0315 194.88189" />
    <path d="M212.59843 248.0315 L248.0315 212.59843" />
    <path d="M212.59843 265.74803 L248.0315 265.74803" />
    <path d="M212.59843 301.1811 L248.0315 301.1811" />
    <path d="M212.59843 354.33071 L248.0315 318.89764" />
    <path d="M212.59843 354.33071 L248.0315 389.76378" />
    <path d="M212.59843 389.76378 L248.0315 425.19685" />
    <path d="M212.59843 425.19685 L248.0315 460.62992" />
    <path d="M230.31496 460.62992 L230.31496 496.06299" />
    <path d="M212.59843 531.49606 L248.0315 496.06299" />
    <path d="M230.31496 531.49606 L230.31496 566.92913" />
    <path d="M212.59843 566.92913 L248.0315 602.3622" />
    <path d="M212.59843 637.79528 L248.0315 602.3622" />
    <path d="M230.31496 637.79528 L230.31496 673.22835" />
    <path d="M230.31496 673.22835 L230.31496 708.66142" />
    <path d="M212.59843 744.09449 L248.0315 708.66142" />
    <path d="M212.59843 779.52756 L248.0315 744.09449" />
    <path d="M212.59843 814.96063 L248.0315 779.52756" />
    <path d="M230.31496 814.96063 L230.31496 850.3937" />
    <path d="M230.31496 850.3937 L230.31496 885.82677" />
    <path d="M212.59843 885.82677 L248.0315 921.25984" />
    <path d="M212.59843 956.69291 L248.0315 921.25984" />
    <path d="M212.59843 992.12598 L248.0315 956.69291" />
    <path d="M212.59843 1027.55906 L248.0315 992.12598" />
    <path d="M248.0315 53.14961 L283.46457 53.14961" />
    <path d="M265.74803 70.86614 L265.74803 106.29921" />
    <path d="M265.74803 106.29921 L265.74803 141.73228" />
    <path d="M248.0315 141.73228 L283.46457 177.16535" />
    <path d="M248.0315 212.59843 L283.46457 177.16535" />
    <path d="M248.0315 248.0315 L283.46457 212.59843" />
    <path d="M248.0315 265.74803 L283.46457 265.74803" />
    <path d="M248.0315 318.89764 L283.46457 283.46457" />
    <path d="M248.0315 354.33071 L283.46457 318.89764" />
    <path d="M248.0315 389.76378 L283.46457 354.33071" />
    <path d="M248.0315 425.19685 L283.46457 389.76378" />
    <path d="M248.0315 425.19685 L283.46457 460.62992" />
    <path d="M248.0315 460.62992 L283.46457 496.06299" />
    <path d="M248.0315 531.49606 L283.46457 496.06299" />
    <path d="M248.0315 566.92913 L283.46457 531.49606" />
    <path d="M248.0315 584.64567 L283.46457 584.64567" />
    <path d="M248.0315 637.79528 L283.46457 602.3622" />
    <path d="M265.74803 637.79528 L265.74803 673.22835" />
    <path d="M248.0315 690.94488 L283.46457 690.94488" />
    <path d="M248.0315 708.66142 L283.46457 744.09449" />
    <path d="M248.0315 779.52756 L283.46457 744.09449" />
    <path d="M248.0315 779.52756 L283.46457 814.96063" />
    <path d="M265.74803 814.96063 L265.74803 850.3937" />
    <path d="M265.74803 850.3937 L265.74803 885.82677" />
    <path d="M265.74803 885.82677 L265.74803 921.25984" />
    <path d="M248.0315 921.25984 L283.46457 956.69291" />
    <path d="M265.74803 956.69291 L265.74803 992.12598" />
    <path d="M248.0315 1027.55906 L283.46457 992.12598" />
    <path d="M301.1811 35.43307 L301.1811 70.86614" />
    <path d="M301.1811 70.86614 L301.1811 106.29921" />
    <path d="M283.46457 124.01575 L318.89764 124.01575" />
    <path d="M283.46457 159.44882 L318.89764 159.44882" />
    <path d="M301.1811 177.16535 L301.1811 212.59843" />
    <path d="M283.46457 212.59843 L318.89764 248.0315" />
    <path d="M283.46457 248.0315 L318.89764 283.46457" />
    <path d="M283.46457 283.46457 L318.89764 318.89764" />
    <path d="M301.1811 318.89764 L301.1811 354.33071" />
    <path d="M301.1811 354.33071 L301.1811 389.76378" />
    <path d="M301.1811 389.76378 L301.1811 425.19685" />
    <path d="M283.46457 460.62992 L318.89764 425.19685" />
    <path d="M301.1811 460.62992 L301.1811 496.06299" />
    <path d="M283.46457 496.06299 L318.89764 531.49606" />
    <path d="M283.46457 566.92913 L318.89764 531.49606" />
    <path d="M283.46457 566.92913 L318.89764 602.3622" />
    <path d="M283.46457 620.07874 L318.89764 620.07874" />
    <path d="M283.46457 655.51181 L318.89764 655.51181" />
    <path d="M283.46457 673.22835 L318.89764 708.66142" />
    <path d="M283.46457 708.66142 L318.89764 744.09449" />
    <path d="M283.46457 761.81102 L318.89764 761.81102" />
    <path d="M301.1811 779.52756 L301.1811 814.96063" />
    <path d="M283.46457 832.67717 L318.89764 832.67717" />
    <path d="M301.1811 850.3937 L301.1811 885.82677" />
    <path d="M301.1811 885.82677 L301.1811 921.25984" />
    <path d="M301.1811 921.25984 L301.1811 956.69291" />
    <path d="M301.1811 956.69291 L301.1811 992.12598" />
    <path d="M283.46457 992.12598 L318.89764 1027.55906" />
    <path d="M318.89764 35.43307 L354.33071 70.86614" />
    <path d="M318.89764 106.29921 L354.33071 70.86614" />
    <path d="M318.89764 141.73228 L354.33071 106.29921" />
    <path d="M318.89764 159.44882 L354.33071 159.44882" />
    <path d="M318.89764 194.88189 L354.33071 194.88189" />
    <path d="M318.89764 230.31496 L354.33071 230.31496" />
    <path d="M318.89764 283.46457 L354.33071 248.0315" />
    <path d="M336.61417 283.46457 L336.61417 318.89764" />
    <path d="M318.89764 336.61417 L354.33071 336.61417" />
    <path d="M318.89764 354.33071 L354.33071 389.76378" />
    <path d="M318.89764 425.19685 L354.33071 389.76378" />
    <path d="M318.89764 442.91339 L354.33071 442.91339" />
    <path d="M318.89764 460.62992 L354.33071 496.06299" />
    <path d="M318.89764 513.77953 L354.33071 513.77953" />
    <path d="M318.89764 531.49606 L354.33071 566.92913" />
    <path d="M318.89764 602.3622 L354.33071 566.92913" />
    <path d="M336.61417 602.3622 L336.61417 637.79528" />
    <path d="M318.89764 637.79528 L354.33071 673.22835" />
    <path d="M318.89764 690.94488 L354.33071 690.94488" />
    <path d="M336.61417 708.66142 L336.61417 744.09449" />
    <path d="M318.89764 761.81102 L354.33071 761.81102" />
    <path d="M318.89764 814.96063 L354.33071 779.52756" />
    <path d="M336.61417 814.96063 L336.61417 850.3937" />
    <path d="M318.89764 885.82677 L354.33071 850.3937" />
    <path d="M318.89764 921.25984 L354.33071 885.82677" />
    <path d="M318.89764 938.97638 L354.33071 938.97638" />
    <path d="M318.89764 956.69291 L354.33071 992.12598" />
    <path d="M318.89764 1027.55906 L354.33071 992.12598" />
    <path d="M372.04724 35.43307 L372.04724 70.86614" />
    <path d="M354.33071 88.58268 L389.76378 88.58268" />
    <path d="M354.33071 124.01575 L389.76378 124.01575" />
    <path d="M372.04724 141.73228 L372.04724 177.16535" />
    <path d="M372.04724 177.16535 L372.04724 212.59843" />
    <path d="M354.33071 248.0315 L389.76378 212.59843" />
    <path d="M372.04724 248.0315 L372.04724 283.46457" />
    <path d="M354.33071 283.46457 L389.76378 318.89764" />
    <path d="M354.33071 318.89764 L389.76378 354.33071" />
    <path d="M354.33071 372.04724 L389.76378 372.04724" />
    <path d="M354.33071 389.76378 L389.76378 425.19685" />
    <path d="M354.33071 425.19685 L389.76378 460.62992" />
    <path d="M354.33071 478.34646 L389.76378 478.34646" />
    <path d="M354.33071 531.49606 L389.76378 496.06299" />
    <path d="M354.33071 531.49606 L389.76378 566.92913" />
    <path d="M354.33071 566.92913 L389.76378 602.3622" />
    <path d="M354.33071 637.79528 L389.76378 602.3622" />
    <path d="M372.04724 637.79528 L372.04724 673.22835" />
    <path d="M354.33071 690.94488 L389.76378 690.94488" />
    <path d="M372.04724 708.66142 L372.04724 744.09449" />
    <path d="M372.04724 744.09449 L372.04724 779.52756" />
    <path d="M354.33071 779.52756 L389.76378 814.96063" />
    <path d="M354.33071 832.67717 L389.76378 832.67717" />
    <path d="M354.33071 868.11024 L389.76378 868.11024" />
    <path d="M354.33071 903.54331 L389.76378 903.54331" />
    <path d="M354.33071 938.97638 L389.76378 938.97638" />
    <path d="M372.04724 956.69291 L372.04724 992.12598" />
    <path d="M372.04724 992.12598 L372.04724 1027.55906" />
    <path d="M389.76378 53.14961 L425.19685 53.14961" />
    <path d="M389.76378 70.86614 L425.19685 106.29921" />
    <path d="M389.76378 124.01575 L425.19685 124.01575" />
    <path d="M389.76378 141.73228 L425.19685 177.16535" />
    <path d="M389.76378 177.16535 L425.19685 212.59843" />
    <path d="M389.76378 248.0315 L425.19685 212.59843" />
    <path d="M389.76378 265.74803 L425.19685 265.74803" />
    <path d="M407.48031 283.46457 L407.48031 318.89764" />
    <path d="M389.76378 354.33071 L425.19685 318.89764" />
    <path d="M389.76378 372.04724 L425.19685 372.04724" />
    <path d="M389.76378 389.76378 L425.19685 425.19685" />
    <path d="M389.76378 442.91339 L425.19685 442.91339" />
    <path d="M407.48031 460.62992 L407.48031 496.06299" />
    <path d="M389.76378 531.49606 L425.19685 496.06299" />
    <path d="M407.48031 531.49606 L407.48031 566.92913" />
    <path d="M389.76378 602.3622 L425.19685 566.92913" />
    <path d="M389.76378 602.3622 L425.19685 637.79528" />
    <path d="M389.76378 655.51181 L425.19685 655.51181" />
    <path d="M407.48031 673.22835 L407.48031 708.66142" />
    <path d="M389.76378 726.37795 L425.19685 726.37795" />
    <path d="M389.76378 744.09449 L425.19685 779.52756" />
    <path d="M389.76378 797.24409 L425.19685 797.24409" />
    <path d="M389.76378 832.67717 L425.19685 832.67717" />
    <path d="M389.76378 868.11024 L425.19685 868.11024" />
    <path d="M407.48031 885.82677 L407.48031 921.25984" />
    <path d="M389.76378 938.97638 L425.19685 938.97638" />
    <path d="M389.76378 956.69291 L425.19685 992.12598" />
    <path d="M389.76378 1027.55906 L425.19685 992.12598" />
    <path d="M425.19685 53.14961 L460.62992 53.14961" />
    <path d="M425.19685 88.58268 L460.62992 88.58268" />
    <path d="M425.19685 124.01575 L460.62992 124.01575" />
    <path d="M425.19685 159.44882 L460.62992 159.44882" />
    <path d="M425.19685 212.59843 L460.62992 177.16535" />
    <path d="M425.19685 248.0315 L460.62992 212.59843" />
    <path d="M425.19685 283.46457 L460.62992 248.0315" />
    <path d="M425.19685 318.89764 L460.62992 283.46457" />
    <path d="M425.19685 336.61417 L460.62992 336.61417" />
    <path d="M425.19685 372.04724 L460.62992 372.04724" />
    <path d="M425.19685 425.19685 L460.62992 389.76378" />
    <path d="M425.19685 425.19685 L460.62992 460.62992" />
    <path d="M425.19685 496.06299 L460.62992 460.62992" />
    <path d="M425.19685 496.06299 L460.62992 531.49606" />
    <path d="M425.19685 549.2126 L460.62992 549.2126" />
    <path d="M442.91339 566.92913 L442.91339 602.3622" />
    <path d="M425.19685 620.07874 L460.62992 620.07874" />
    <path d="M442.91339 637.79528 L442.91339 673.22835" />
    <path d="M442.91339 673.22835 L442.91339 708.66142" />
    <path d="M442.91339 708.66142 L442.91339 744.09449" />
    <path d="M442.91339 744.09449 L442.91339 779.52756" />
    <path d="M425.19685 779.52756 L460.62992 814.96063" />
    <path d="M425.19685 814.96063 L460.62992 850.3937" />
    <path d="M425.19685 850.3937 L460.62992 885.82677" />
    <path d="M425.19685 903.54331 L460.62992 903.54331" />
    <path d="M442.91339 921.25984 L442.91339 956.69291" />
    <path d="M425.19685 974.40945 L460.62992 974.40945" />
    <path d="M425.19685 1009.84252 L460.62992 1009.84252" />
    <path d="M460.62992 70.86614 L496.06299 35.43307" />
    <path d="M460.62992 106.29921 L496.06299 70.86614" />
    <path d="M460.62992 106.29921 L496.06299 141.73228" />
    <path d="M460.62992 177.16535 L496.06299 141.73228" />
    <path d="M460.62992 177.16535 L496.06299 212.59843" />
    <path d="M460.62992 248.0315 L496.06299 212.59843" />
    <path d="M460.62992 283.46457 L496.06299 248.0315" />
    <path d="M460.62992 283.46457 L496.06299 318.89764" />
    <path d="M460.62992 318.89764 L496.06299 354.33071" />
    <path d="M460.62992 372.04724 L496.06299 372.04724" />
    <path d="M478.34646 389.76378 L478.34646 425.19685" />
    <path d="M478.34646 425.19685 L478.34646 460.62992" />
    <path d="M460.62992 478.34646 L496.06299 478.34646" />
    <path d="M478.34646 496.06299 L478.34646 531.49606" />
    <path d="M460.62992 566.92913 L496.06299 531.49606" />
    <path d="M460.62992 584.64567 L496.06299 584.64567" />
    <path d="M460.62992 637.79528 L496.06299 602.3622" />
    <path d="M460.62992 637.79528 L496.06299 673.22835" />
    <path d="M460.62992 673.22835 L496.06299 708.66142" />
    <path d="M460.62992 708.66142 L496.06299 744.09449" />
    <path d="M460.62992 744.09449 L496.06299 779.52756" />
    <path d="M460.62992 814.96063 L496.06299 779.52756" />
    <path d="M460.62992 850.3937 L496.06299 814.96063" />
    <path d="M460.62992 868.11024 L496.06299 868.11024" />
    <path d="M460.62992 903.54331 L496.06299 903.54331" />
    <path d="M460.62992 921.25984 L496.06299 956.69291" />
    <path d="M460.62992 956.69291 L496.06299 992.12598" />
    <path d="M460.62992 1009.84252 L496.06299 1009.84252" />
    <path d="M513.77953 35.43307 L513.77953 70.86614" />
    <path d="M496.06299 88.58268 L531.49606 88.58268" />
    <path d="M496.06299 124.01575 L531.49606 124.01575" />
    <path d="M496.06299 177.16535 L531.49606 141.73228" />
    <path d="M496.06299 194.88189 L531.49606 194.88189" />
    <path d="M496.06299 230.31496 L531.49606 230.31496" />
    <path d="M496.06299 248.0315 L531.49606 283.46457" />
    <path d="M496.06299 301.1811 L531.49606 301.1811" />
    <path d="M496.06299 354.33071 L531.49606 318.89764" />
    <path d="M513.77953 354.33071 L513.77953 389.76378" />
    <path d="M513.77953 389.76378 L513.77953 425.19685" />
    <path d="M496.06299 425.19685 L531.49606 460.62992" />
    <path d="M496.06299 460.62992 L531.49606 496.06299" />
    <path d="M496.06299 513.77953 L531.49606 513.77953" />
    <path d="M496.06299 566.92913 L531.49606 531.49606" />
    <path d="M496.06299 566.92913 L531.49606 602.3622" />
    <path d="M513.77953 602.3622 L513.77953 637.79528" />
    <path d="M496.06299 673.22835 L531.49606 637.79528" />
    <path d="M496.06299 673.22835 L531.49606 708.66142" />
    <path d="M513.77953 708.66142 L513.77953 744.09449" />
    <path d="M496.06299 744.09449 L531.49606 779.52756" />
    <path d="M496.06299 814.96063 L531.49606 779.52756" />
    <path d="M513.77953 814.96063 L513.77953 850.3937" />
    <path d="M496.06299 885.82677 L531.49606 850.3937" />
    <path d="M496.06299 921.25984 L531.49606 885.82677" />
    <path d="M513.77953 921.25984 L513.77953 956.69291" />
    <path d="M513.77953 956.69291 L513.77953 992.12598" />
    <path d="M496.06299 992.12598 L531.49606 1027.55906" />
    <path d="M549.2126 35.43307 L549.2126 70.86614" />
    <path d="M531.49606 106.29921 L566.92913 70.86614" />
    <path d="M531.49606 141.73228 L566.92913 106.29921" />
    <path d="M549.2126 141.73228 L549.2126 177.16535" />
    <path d="M531.49606 177.16535 L566.92913 212.59843" />
    <path d="M531.49606 212.59843 L566.92913 248.0315" />
    <path d="M549.2126 248.0315 L549.2126 283.46457" />
    <path d="M549.2126 283.46457 L549.2126 318.89764" />
    <path d="M531.49606 336.61417 L566.92913 336.61417" />
    <path d="M549.2126 354.33071 L549.2126 389.76378" />
    <path d="M531.49606 425.19685 L566.92913 389.76378" />
    <path d="M549.2126 425.19685 L549.2126 460.62992" />
    <path d="M531.49606 478.34646 L566.92913 478.34646" />
    <path d="M531.49606 496.06299 L566.92913 531.49606" />
    <path d="M531.49606 549.2126 L566.92913 549.2126" />
    <path d="M531.49606 602.3622 L566.92913 566.92913" />
    <path d="M531.49606 637.79528 L566.92913 602.3622" />
    <path d="M549.2126 637.79528 L549.2126 673.22835" />
    <path d="M531.49606 708.66142 L566.92913 673.22835" />
    <path d="M549.2126 708.66142 L549.2126 744.09449" />
    <path d="M531.49606 744.09449 L566.92913 779.52756" />
    <path d="M531.49606 814.96063 L566.92913 779.52756" />
    <path d="M531.49606 850.3937 L566.92913 814.96063" />
    <path d="M531.49606 850.3937 L566.92913 885.82677" />
    <path d="M531.49606 885.82677 L566.92913 921.25984" />
    <path d="M531.49606 938.97638 L566.92913 938.97638" />
    <path d="M531.49606 992.12598 L566.92913 956.69291" />
    <path d="M531.49606 1009.84252 L566.92913 1009.84252" />
    <path d="M566.92913 70.86614 L602.3622 35.43307" />
    <path d="M566.92913 106.29921 L602.3622 70.86614" />
    <path d="M566.92913 106.29921 L602.3622 141.73228" />
    <path d="M566.92913 177.16535 L602.3622 141.73228" />
    <path d="M566.92913 177.16535 L602.3622 212.59843" />
    <path d="M566.92913 212.59843 L602.3622 248.0315" />
    <path d="M566.92913 283.46457 L602.3622 248.0315" />
    <path d="M566.92913 301.1811 L602.3622 301.1811" />
    <path d="M566.92913 336.61417 L602.3622 336.61417" />
    <path d="M566.92913 389.76378 L602.3622 354.33071" />
    <path d="M584.64567 389.76378 L584.64567 425.19685" />
    <path d="M584.64567 425.19685 L584.64567 460.62992" />
    <path d="M566.92913 460.62992 L602.3622 496.06299" />
    <path d="M566.92913 513.77953 L602.3622 513.77953" />
    <path d="M566.92913 549.2126 L602.3622 549.2126" />
    <path d="M566.92913 584.64567 L602.3622 584.64567" />
    <path d="M566.92913 602.3622 L602.3622 637.79528" />
    <path d="M566.92913 637.79528 L602.3622 673.22835" />
    <path d="M566.92913 708.66142 L602.3622 673.22835" />
    <path d="M566.92913 708.66142 L602.3622 744.09449" />
    <path d="M566.92913 744.09449 L602.3622 779.52756" />
    <path d="M584.64567 779.52756 L584.64567 814.96063" />
    <path d="M566.92913 814.96063 L602.3622 850.3937" />
    <path d="M566.92913 850.3937 L602.3622 885.82677" />
    <path d="M584.64567 885.82677 L584.64567 921.25984" />
    <path d="M566.92913 938.97638 L602.3622 938.97638" />
    <path d="M566.92913 974.40945 L602.3622 974.40945" />
    <path d="M566.92913 992.12598 L602.3622 1027.55906" />
    <path d="M602.3622 35.43307 L637.79528 70.86614" />
    <path d="M602.3622 106.29921 L637.79528 70.86614" />
    <path d="M602.3622 124.01575 L637.79528 124.01575" />
    <path d="M602.3622 141.73228 L637.79528 177.16535" />
    <path d="M602.3622 177.16535 L637.79528 212.59843" />
    <path d="M602.3622 248.0315 L637.79528 212.59843" />
    <path d="M620.07874 248.0315 L620.07874 283.46457" />
    <path d="M602.3622 318.89764 L637.79528 283.46457" />
    <path d="M602.3622 336.61417 L637.79528 336.61417" />
    <path d="M620.07874 354.33071 L620.07874 389.76378" />
    <path d="M602.3622 425.19685 L637.79528 389.76378" />
    <path d="M602.3622 460.62992 L637.79528 425.19685" />
    <path d="M602.3622 496.06299 L637.79528 460.62992" />
    <path d="M602.3622 531.49606 L637.79528 496.06299" />
    <path d="M620.07874 531.49606 L620.07874 566.92913" />
    <path d="M602.3622 602.3622 L637.79528 566.92913" />
    <path d="M602.3622 602.3622 L637.79528 637.79528" />
    <path d="M602.3622 673.22835 L637.79528 637.79528" />
    <path d="M602.3622 708.66142 L637.79528 673.22835" />
    <path d="M602.3622 744.09449 L637.79528 708.66142" />
    <path d="M602.3622 744.09449 L637.79528 779.52756" />
    <path d="M602.3622 779.52756 L637.79528 814.96063" />
    <path d="M602.3622 850.3937 L637.79528 814.96063" />
    <path d="M602.3622 885.82677 L637.79528 850.3937" />
    <path d="M620.07874 885.82677 L620.07874 921.25984" />
    <path d="M602.3622 956.69291 L637.79528 921.25984" />
    <path d="M620.07874 956.69291 L620.07874 992.12598" />
    <path d="M620.07874 992.12598 L620.07874 1027.55906" />
    <path d="M637.79528 70.86614 L673.22835 35.43307" />
    <path d="M655.51181 70.86614 L655.51181 106.29921" />
    <path d="M637.79528 124.01575 L673.22835 124.01575" />
    <path d="M637.79528 177.16535 L673.22835 141.73228" />
    <path d="M637.79528 212.59843 L673.22835 177.16535" />
    <path d="M637.79528 248.0315 L673.22835 212.59843" />
    <path d="M655.51181 248.0315 L655.51181 283.46457" />
    <path d="M637.79528 318.89764 L673.22835 283.46457" />
    <path d="M637.79528 336.61417 L673.22835 336.61417" />
    <path d="M637.79528 372.04724 L673.22835 372.04724" />
    <path d="M655.51181 389.76378 L655.51181 425.19685" />
    <path d="M637.79528 460.62992 L673.22835 425.19685" />
    <path d="M637.79528 496.06299 L673.22835 460.62992" />
    <path d="M655.51181 496.06299 L655.51181 531.49606" />
    <path d="M637.79528 566.92913 L673.22835 531.49606" />
    <path d="M637.79528 566.92913 L673.22835 602.3622" />
    <path d="M637.79528 637.79528 L673.22835 602.3622" />
    <path d="M637.79528 655.51181 L673.22835 655.51181" />
    <path d="M655.51181 673.22835 L655.51181 708.66142" />
    <path d="M655.51181 708.66142 L655.51181 744.09449" />
    <path d="M655.51181 744.09449 L655.51181 779.52756" />
    <path d="M637.79528 814.96063 L673.22835 779.52756" />
    <path d="M655.51181 814.96063 L655.51181 850.3937" />
    <path d="M637.79528 868.11024 L673.22835 868.11024" />
    <path d="M637.79528 903.54331 L673.22835 903.54331" />
    <path d="M637.79528 938.97638 L673.22835 938.97638" />
    <path d="M637.79528 956.69291 L673.22835 992.12598" />
    <path d="M655.51181 992.12598 L655.51181 1027.55906" />
    <path d="M690.94488 35.43307 L690.94488 70.86614" />
    <path d="M690.94488 70.86614 L690.94488 106.29921" />
    <path d="M673.22835 106.29921 L708.66142 141.73228" />
    <path d="M690.94488 141.73228 L690.94488 177.16535" />
    <path d="M673.22835 177.16535 L708.66142 212.59843" />
    <path d="M673.22835 230.31496 L708.66142 230.31496" />
    <path d="M673.22835 265.74803 L708.66142 265.74803" />
    <path d="M673.22835 283.46457 L708.66142 318.89764" />
    <path d="M673.22835 354.33071 L708.66142 318.89764" />
    <path d="M673.22835 389.76378 L708.66142 354.33071" />
    <path d="M690.94488 389.76378 L690.94488 425.19685" />
    <path d="M673.22835 442.91339 L708.66142 442.91339" />
    <path d="M673.22835 460.62992 L708.66142 496.06299" />
    <path d="M690.94488 496.06299 L690.94488 531.49606" />
    <path d="M673.22835 549.2126 L708.66142 549.2126" />
    <path d="M690.94488 566.92913 L690.94488 602.3622" />
    <path d="M673.22835 602.3622 L708.66142 637.79528" />
    <path d="M673.22835 673.22835 L708.66142 637.79528" />
    <path d="M673.22835 690.94488 L708.66142 690.94488" />
    <path d="M673.22835 744.09449 L708.66142 708.66142" />
    <path d="M673.22835 761.81102 L708.66142 761.81102" />
    <path d="M690.94488 779.52756 L690.94488 814.96063" />
    <path d="M673.22835 850.3937 L708.66142 814.96063" />
    <path d="M690.94488 850.3937 L690.94488 885.82677" />
    <path d="M673.22835 921.25984 L708.66142 885.82677" />
    <path d="M673.22835 921.25984 L708.66142 956.69291" />
    <path d="M673.22835 992.12598 L708.66142 956.69291" />
    <path d="M673.22835 1027.55906 L708.66142 992.12598" />
  </g>
</svg>