<?xml version="1.0" standalone="no"?>
<!DOCTYPE svg PUBLIC "-//W3C//DTD SVG 1.1//EN" 
    "http://www.w3.org/Graphics/SVG/1.1/DTD/svg11.dtd">
<svg width="21cm" height="29.7cm"
    xmlns="http://www.w3.org/2000/svg" version="1.1" viewBox="0 0 744.09449 1052.3622">
  <g fill="none" stroke="black" stroke-width="0.03cm">
    <path d="M310.03937 109.03654 L306.23905 105.23622" />
    <path d="M310.03937 114.04753 L301.22806 105.23622" />
    <path d="M310.03937 119.05853 L296.21707 105.23622" />
    <path d="M310.03937 124.06952 L291.20607 105.23622" />
    <path d="M310.03937 129.08051 L286.19508 105.23622" />
    <path d="M310.03937 134.0915 L281.18409 105.23622" />
    <path d="M310.03937 139.1025 L276.17309 105.23622" />
    <path d="M310.03937 144.11349 L271.1621 105.23622" />
    <path d="M310.03937 149.12448 L266.15111 105.23622" />
    <path d="M310.03937 154.13548 L261.14011 105.23622" />
    <path d="M310.03937 159.14647 L256.12912 105.23622" />
    <path d="M310.03937 164.15746 L251.11813 105.23622" />
    <path d="M310.03937 169.16845 L246.10714 105.23622" />
    <path d="M310.03937 174.17945 L241.09614 105.23622" />
    <path d="M310.03937 179.19044 L236.08515 105.23622" />
    <path d="M310.03937 184.20143 L231.07416 105.23622" />
    <path d="M310.03937 189.21243 L226.06316 105.23622" />
    <path d="M310.03937 194.22342 L221.05217 105.23622" />
    <path d="M310.03937 199.23441 L216.04118 105.23622" />
    <path d="M310.03937 204.24541 L211.03019 105.23622" />
    <path d="M310.03937 209.2564 L206.01919 105.23622" />
    <path d="M310.03937 214.26739 L201.0082 105.23622" />
    <path d="M310.03937 219.27838 L195.99721 105.23622" />
    <path d="M310.03937 224.28938 L190.98621 105.23622" />
    <path d="M310.03937 229.30037 L185.97522 105.23622" />
    <path d="M310.03937 234.31136 L180.96423 105.23622" />
    <path d="M310.03937 239.32236 L175.95323 105.23622" />
    <path d="M310.03937 244.33335 L170.94224 105.23622" />
    <path d="M310.03937 249.34434 L165.93125 105.23622" />
    <path d="M310.03937 254.35533 L160.92026 105.23622" />
    <path d="M310.03937 259.36633 L155.90926 105.23622" />
    <path d="M310.03937 264.37732 L150.89827 105.23622" />
    <path d="M310.03937 269.38831 L145.88728 105.23622" />
    <path d="M310.03937 274.39931 L140.87628 105.23622" />
    <path d="M310.03937 279.4103 L135.86529 105.23622" />
    <path d="M310.03937 284.42129 L130.8543 105.23622" />
    <path d="M310.03937 289.43228 L125.84331 105.23622" />
    <path d="M310.03937 294.44328 L120.83231 105.23622" />
    <path d="M310.03937 299.45427 L115.82132 105.23622" />
    <path d="M310.03937 304.46526 L110.81033 105.23622" />
    <path d="M310.03937 309.47626 L105.79933 105.23622" />
    <path d="M310.03937 314.48725 L100.78834 105.23622" />
    <path d="M310.03937 319.49824 L95.77735 105.23622" />
    <path d="M310.03937 324.50924 L93.01181 107.48168" />
    <path d="M310.03937 329.52023 L93.01181 112.49267" />
    <path d="M310.03937 334.53122 L93.01181 117.50366" />
    <path d="M310.03937 339.54221 L93.01181 122.51466" />
    <path d="M310.03937 344.55321 L93.01181 127.52565" />
    <path d="M310.03937 349.5642 L93.01181 132.53664" />
    <path d="M310.03937 354.57519 L93.01181 137.54763" />
    <path d="M310.03937 359.58619 L93.01181 142.55863" />
    <path d="M310.03937 364.59718 L93.01181 147.56962" />
    <path d="M310.03937 369.60817 L93.01181 152.58061" />
    <path d="M310.03937 374.61916 L93.01181 157.59161" />
    <path d="M310.03937 379.63016 L93.01181 162.6026" />
    <path d="M310.03937 384.64115 L93.01181 167.61359" />
    <path d="M310.03937 389.65214 L93.01181 172.62458" />
    <path d="M310.03937 394.66314 L93.01181 177.63558" />
    <path d="M310.03937 399.67413 L93.01181 182.64657" />
    <path d="M310.03937 404.68512 L93.01181 187.65756" />
    <path d="M310.03937 409.69612 L93.01181 192.66856" />
    <path d="M310.03937 414.70711 L93.01181 197.67955" />
    <path d="M310.03937 419.7181 L93.01181 202.69054" />
    <path d="M310.03937 424.72909 L93.01181 207.70154" />
    <path d="M310.03937 429.74009 L93.01181 212.71253" />
    <path d="M310.03937 434.75108 L93.01181 217.72352" />
    <path d="M310.03937 439.76207 L93.01181 222.73451" />
    <path d="M310.03937 444.77307 L93.01181 227.74551" />
    <path d="M310.03937 449.78406 L93.01181 232.7565" />
    <path d="M310.03937 454.79505 L93.01181 237.76749" />
    <path d="M310.03937 459.80604 L93.01181 242.77849" />
    <path d="M310.03937 464.81704 L93.01181 247.78948" />
    <path d="M310.03937 469.82803 L93.01181 252.80047" />
    <path d="M310.03937 474.83902 L93.01181 257.81146" />
    <path d="M310.03937 479.85002 L93.01181 262.82246" />
    <path d="M310.03937 484.86101 L93.01181 267.83345" />
    <path d="M310.03937 489.872 L93.01181 272.84444" />
    <path d="M310.03937 494.883 L93.01181 277.85544" />
    <path d="M310.03937 499.89399 L93.01181 282.86643" />
    <path d="M310.03937 504.90498 L93.01181 287.87742" />
    <path d="M310.03937 509.91597 L93.01181 292.88842" />
    <path d="M310.03937 514.92697 L93.01181 297.89941" />
    <path d="M310.03937 519.93796 L93.01181 302.9104" />
    <path d="M310.03937 524.94895 L93.01181 307.92139" />
    <path d="M310.03937 529.95995 L93.01181 312.93239" />
    <path d="M310.03937 534.97094 L93.01181 317.94338" />
    <path d="M310.03937 539.98193 L93.01181 322.95437" />
    <path d="M310.03937 544.99292 L93.01181 327.96537" />
    <path d="M310.03937 550.00392 L93.01181 332.97636" />
    <path d="M310.03937 555.01491 L93.01181 337.98735" />
    <path d="M310.03937 560.0259 L93.01181 342.99834" />
    <path d="M310.03937 565.0369 L93.01181 348.00934" />
    <path d="M310.03937 570.04789 L93.01181 353.02033" />
    <path d="M310.03937 575.05888 L93.01181 358.03132" />
    <path d="M310.03937 580.06988 L93.01181 363.04232" />
    <path d="M310.03937 585.08087 L93.01181 368.05331" />
    <path d="M310.03937 590.09186 L93.01181 373.0643" />
    <path d="M310.03937 595.10285 L93.01181 378.0753" />
    <path d="M310.03937 600.11385 L93.01181 383.08629" />
    <path d="M310.03937 605.12484 L93.01181 388.09728" />
    <path d="M310.03937 610.13583 L93.01181 393.10827" />
    <path d="M310.03937 615.14683 L93.01181 398.11927" />
    <path d="M310.03937 620.15782 L93.01181 403.13026" />
    <path d="M310.03937 625.16881 L93.01181 408.14125" />
    <path d="M310.03937 630.1798 L93.01181 413.15225" />
    <path d="M310.03937 635.1908 L93.01181 418.16324" />
    <path d="M310.03937 640.20179 L93.01181 423.17423" />
    <path d="M310.03937 645.21278 L93.01181 428.18522" />
    <path d="M310.03937 650.22378 L93.01181 433.19622" />
    <path d="M310.03937 655.23477 L93.01181 438.20721" />
    <path d="M310.03937 660.24576 L93.01181 443.2182" />
    <path d="M310.03937 665.25676 L93.01181 448.2292" />
    <path d="M310.03937 670.26775 L93.01181 453.24019" />
    <path d="M310.03937 675.27874 L93.01181 458.25118" />
    <path d="M310.03937 680.28973 L93.01181 463.26218" />
    <path d="M310.03937 685.30073 L93.01181 468.27317" />
    <path d="M310.03937 690.31172 L93.01181 473.28416" />
    <path d="M310.03937 695.32271 L93.01181 478.29515" />
    <path d="M310.03937 700.33371 L93.01181 483.30615" />
    <path d="M310.03937 705.3447 L93.01181 488.31714" />
    <path d="M310.03937 710.35569 L93.01181 493.32813" />
    <path d="M310.03937 715.36668 L93.01181 498.33913" />
    <path d="M310.03937 720.37768 L93.01181 503.35012" />
    <path d="M310.03937 725.38867 L93.01181 508.36111" />
    <path d="M310.03937 730.39966 L93.01181 513.3721" />
    <path d="M310.03937 735.41066 L93.01181 518.3831" />
    <path d="M310.03937 740.42165 L93.01181 523.39409" />
    <path d="M310.03937 745.43264 L93.01181 528.40508" />
    <path d="M310.03937 750.44364 L93.01181 533.41608" />
    <path d="M310.03937 755.45463 L93.01181 538.42707" />
    <path d="M310.03937 760.46562 L93.01181 543.43806" />
    <path d="M310.03937 765.47661 L93.01181 548.44905" />
    <path d="M310.03937 770.48761 L93.01181 553.46005" />
    <path d="M310.03937 775.4986 L93.01181 558.47104" />
    <path d="M310.03937 780.50959 L93.01181 563.48203" />
    <path d="M310.03937 785.52059 L93.01181 568.49303" />
    <path d="M310.03937 790.53158 L93.01181 573.50402" />
    <path d="M310.03937 795.54257 L93.01181 578.51501" />
    <path d="M310.03937 800.55356 L93.01181 583.52601" />
    <path d="M310.03937 805.56456 L93.01181 588.537" />
    <path d="M310.03937 810.57555 L93.01181 593.54799" />
    <path d="M310.03937 815.58654 L93.01181 598.55898" />
    <path d="M310.03937 820.59754 L93.01181 603.56998" />
    <path d="M310.03937 825.60853 L93.01181 608.58097" />
    <path d="M310.03937 830.61952 L93.01181 613.59196" />
    <path d="M310.03937 835.63052 L93.01181 618.60296" />
    <path d="M310.03937 840.64151 L93.01181 623.61395" />
    <path d="M310.03937 845.6525 L93.01181 628.62494" />
    <path d="M310.03937 850.66349 L93.01181 633.63593" />
    <path d="M310.03937 855.67449 L93.01181 638.64693" />
    <path d="M310.03937 860.68548 L93.01181 643.65792" />
    <path d="M310.03937 865.69647 L93.01181 648.66891" />
    <path d="M310.03937 870.70747 L93.01181 653.67991" />
    <path d="M310.03937 875.71846 L93.01181 658.6909" />
    <path d="M310.03937 880.72945 L93.01181 663.70189" />
    <path d="M310.03937 885.74044 L93.01181 668.71289" />
    <path d="M310.03937 890.75144 L93.01181 673.72388" />
    <path d="M310.03937 895.76243 L93.01181 678.73487" />
    <path d="M310.03937 900.77342 L93.01181 683.74586" />
    <path d="M310.03937 905.78442 L93.01181 688.75686" />
    <path d="M310.03937 910.79541 L93.01181 693.76785" />
    <path d="M310.03937 915.8064 L93.01181 698.77884" />
    <path d="M310.03937 920.8174 L93.01181 703.78984" />
    <path d="M310.03937 925.82839 L93.01181 708.80083" />
    <path d="M310.03937 930.83938 L93.01181 713.81182" />
    <path d="M310.03937 935.85037 L93.01181 718.82281" />
    <path d="M310.03937 940.86137 L93.01181 723.83381" />
    <path d="M310.03937 945.87236 L93.01181 728.8448" />
    <path d="M306.282 947.12598 L93.01181 733.85579" />
    <path d="M301.27101 947.12598 L93.01181 738.86679" />
    <path d="M296.26002 947.12598 L93.01181 743.87778" />
    <path d="M291.24902 947.12598 L93.01181 748.88877" />
    <path d="M286.23803 947.12598 L93.01181 753.89977" />
    <path d="M281.22704 947.12598 L93.01181 758.91076" />
    <path d="M276.21604 947.12598 L93.01181 763.92175" />
    <path d="M271.20505 947.12598 L93.01181 768.93274" />
    <path d="M266.19406 947.12598 L93.01181 773.94374" />
    <path d="M261.18307 947.12598 L93.01181 778.95473" />
    <path d="M256.17207 947.12598 L93.01181 783.96572" />
    <path d="M251.16108 947.12598 L93.01181 788.97672" />
    <path d="M246.15009 947.12598 L93.01181 793.98771" />
    <path d="M241.13909 947.12598 L93.01181 798.9987" />
    <path d="M236.1281 947.12598 L93.01181 804.00969" />
    <path d="M231.11711 947.12598 L93.01181 809.02069" />
    <path d="M226.10611 947.12598 L93.01181 814.03168" />
    <path d="M221.09512 947.12598 L93.01181 819.04267" />
    <path d="M216.08413 947.12598 L93.01181 824.05367" />
    <path d="M211.07314 947.12598 L93.01181 829.06466" />
    <path d="M206.06214 947.12598 L93.01181 834.07565" />
    <path d="M201.05115 947.12598 L93.01181 839.08665" />
    <path d="M196.04016 947.12598 L93.01181 844.09764" />
    <path d="M191.02916 947.12598 L93.01181 849.10863" />
    <path d="M186.01817 947.12598 L93.01181 854.11962" />
    <path d="M181.00718 947.12598 L93.01181 859.13062" />
    <path d="M175.99619 947.12598 L93.01181 864.14161" />
    <path d="M170.98519 947.12598 L93.01181 869.1526" />
    <path d="M165.9742 947.12598 L93.01181 874.1636" />
    <path d="M160.96321 947.12598 L93.01181 879.17459" />
    <path d="M155.95221 947.12598 L93.01181 884.18558" />
    <path d="M150.94122 947.12598 L93.01181 889.19657" />
    <path d="M145.93023 947.12598 L93.01181 894.20757" />
    <path d="M140.91923 947.12598 L93.01181 899.21856" />
    <path d="M135.90824 947.12598 L93.01181 904.22955" />
    <path d="M130.89725 947.12598 L93.01181 909.24055" />
    <path d="M125.88626 947.12598 L93.01181 914.25154" />
    <path d="M120.87526 947.12598 L93.01181 919.26253" />
    <path d="M115.86427 947.12598 L93.01181 924.27353" />
    <path d="M110.85328 947.12598 L93.01181 929.28452" />
    <path d="M105.84228 947.12598 L93.01181 934.29551" />
    <path d="M100.83129 947.12598 L93.01181 939.3065" />
    <path d="M95.8203 947.12598 L93.01181 944.3175" />
    <path d="M651.08268 109.33233 L646.98657 105.23622" />
    <path d="M651.08268 114.34332 L641.97558 105.23622" />
    <path d="M651.08268 119.35431 L636.96459 105.23622" />
    <path d="M651.08268 124.36531 L631.95359 105.23622" />
    <path d="M651.08268 129.3763 L626.9426 105.23622" />
    <path d="M651.08268 134.38729 L621.93161 105.23622" />
    <path d="M651.08268 139.39828 L616.92061 105.23622" />
    <path d="M651.08268 144.40928 L611.90962 105.23622" />
    <path d="M651.08268 149.42027 L606.89863 105.23622" />
    <path d="M651.08268 154.43126 L601.88763 105.23622" />
    <path d="M651.08268 159.44226 L596.87664 105.23622" />
    <path d="M651.08268 164.45325 L591.86565 105.23622" />
    <path d="M651.08268 169.46424 L586.85466 105.23622" />
    <path d="M651.08268 174.47523 L581.84366 105.23622" />
    <path d="M651.08268 179.48623 L576.83267 105.23622" />
    <path d="M651.08268 184.49722 L571.82168 105.23622" />
    <path d="M651.08268 189.50821 L566.81068 105.23622" />
    <path d="M651.08268 194.51921 L561.79969 105.23622" />
    <path d="M651.08268 199.5302 L556.7887 105.23622" />
    <path d="M651.08268 204.54119 L551.77771 105.23622" />
    <path d="M651.08268 209.55219 L546.76671 105.23622" />
    <path d="M651.08268 214.56318 L541.75572 105.23622" />
    <path d="M651.08268 219.57417 L536.74473 105.23622" />
    <path d="M651.08268 224.58516 L531.73373 105.23622" />
    <path d="M651.08268 229.59616 L526.72274 105.23622" />
    <path d="M651.08268 234.60715 L521.71175 105.23622" />
    <path d="M651.08268 239.61814 L516.70075 105.23622" />
    <path d="M651.08268 244.62914 L511.68976 105.23622" />
    <path d="M651.08268 249.64013 L506.67877 105.23622" />
    <path d="M651.08268 254.65112 L501.66778 105.23622" />
    <path d="M651.08268 259.66211 L496.65678 105.23622" />
    <path d="M651.08268 264.67311 L491.64579 105.23622" />
    <path d="M651.08268 269.6841 L486.6348 105.23622" />
    <path d="M651.08268 274.69509 L481.6238 105.23622" />
    <path d="M651.08268 279.70609 L476.61281 105.23622" />
    <path d="M651.08268 284.71708 L471.60182 105.23622" />
    <path d="M651.08268 289.72807 L466.59083 105.23622" />
    <path d="M651.08268 294.73907 L461.57983 105.23622" />
    <path d="M651.08268 299.75006 L456.56884 105.23622" />
    <path d="M651.08268 304.76105 L451.55785 105.23622" />
    <path d="M651.08268 309.77204 L446.54685 105.23622" />
    <path d="M651.08268 314.78304 L441.53586 105.23622" />
    <path d="M651.08268 319.79403 L436.52487 105.23622" />
    <path d="M651.08268 324.80502 L434.05512 107.77746" />
    <path d="M651.08268 329.81602 L434.05512 112.78846" />
    <path d="M651.08268 334.82701 L434.05512 117.79945" />
    <path d="M651.08268 339.838 L434.05512 122.81044" />
    <path d="M651.08268 344.84899 L434.05512 127.82144" />
    <path d="M651.08268 349.85999 L434.05512 132.83243" />
    <path d="M651.08268 354.87098 L434.05512 137.84342" />
    <path d="M651.08268 359.88197 L434.05512 142.85441" />
    <path d="M651.08268 364.89297 L434.05512 147.86541" />
    <path d="M651.08268 369.90396 L434.05512 152.8764" />
    <path d="M651.08268 374.91495 L434.05512 157.88739" />
    <path d="M651.08268 379.92595 L434.05512 162.89839" />
    <path d="M651.08268 384.93694 L434.05512 167.90938" />
    <path d="M651.08268 389.94793 L434.05512 172.92037" />
    <path d="M651.08268 394.95892 L434.05512 177.93136" />
    <path d="M651.08268 399.96992 L434.05512 182.94236" />
    <path d="M651.08268 404.98091 L434.05512 187.95335" />
    <path d="M651.08268 409.9919 L434.05512 192.96434" />
    <path d="M651.08268 415.0029 L434.05512 197.97534" />
    <path d="M651.08268 420.01389 L434.05512 202.98633" />
    <path d="M651.08268 425.02488 L434.05512 207.99732" />
    <path d="M651.08268 430.03587 L434.05512 213.00832" />
    <path d="M651.08268 435.04687 L434.05512 218.01931" />
    <path d="M651.08268 440.05786 L434.05512 223.0303" />
    <path d="M651.08268 445.06885 L434.05512 228.04129" />
    <path d="M651.08268 450.07985 L434.05512 233.05229" />
    <path d="M651.08268 455.09084 L434.05512 238.06328" />
    <path d="M651.08268 460.10183 L434.05512 243.07427" />
    <path d="M651.08268 465.11283 L434.05512 248.08527" />
    <path d="M651.08268 470.12382 L434.05512 253.09626" />
    <path d="M651.08268 475.13481 L434.05512 258.10725" />
    <path d="M651.08268 480.1458 L434.05512 263.11824" />
    <path d="M651.08268 485.1568 L434.05512 268.12924" />
    <path d="M651.08268 490.16779 L434.05512 273.14023" />
    <path d="M651.08268 495.17878 L434.05512 278.15122" />
    <path d="M651.08268 500.18978 L434.05512 283.16222" />
    <path d="M651.08268 505.20077 L434.05512 288.17321" />
    <path d="M651.08268 510.21176 L434.05512 293.1842" />
    <path d="M651.08268 515.22275 L434.05512 298.1952" />
    <path d="M651.08268 520.23375 L434.05512 303.20619" />
    <path d="M651.08268 525.24474 L434.05512 308.21718" />
    <path d="M651.08268 530.25573 L434.05512 313.22817" />
    <path d="M651.08268 535.26673 L434.05512 318.23917" />
    <path d="M651.08268 540.27772 L434.05512 323.25016" />
    <path d="M651.08268 545.28871 L434.05512 328.26115" />
    <path d="M651.08268 550.29971 L434.05512 333.27215" />
    <path d="M651.08268 555.3107 L434.05512 338.28314" />
    <path d="M651.08268 560.32169 L434.05512 343.29413" />
    <path d="M651.08268 565.33268 L434.05512 348.30512" />
    <path d="M651.08268 570.34368 L434.05512 353.31612" />
    <path d="M651.08268 575.35467 L434.05512 358.32711" />
    <path d="M651.08268 580.36566 L434.05512 363.3381" />
    <path d="M651.08268 585.37666 L434.05512 368.3491" />
    <path d="M651.08268 590.38765 L434.05512 373.36009" />
    <path d="M651.08268 595.39864 L434.05512 378.37108" />
    <path d="M651.08268 600.40963 L434.05512 383.38208" />
    <path d="M651.08268 605.42063 L434.05512 388.39307" />
    <path d="M651.08268 610.43162 L434.05512 393.40406" />
    <path d="M651.08268 615.44261 L434.05512 398.41505" />
    <path d="M651.08268 620.45361 L434.05512 403.42605" />
    <path d="M651.08268 625.4646 L434.05512 408.43704" />
    <path d="M651.08268 630.47559 L434.05512 413.44803" />
    <path d="M651.08268 635.48658 L434.05512 418.45903" />
    <path d="M651.08268 640.49758 L434.05512 423.47002" />
    <path d="M651.08268 645.50857 L434.05512 428.48101" />
    <path d="M651.08268 650.51956 L434.05512 433.492" />
    <path d="M651.08268 655.53056 L434.05512 438.503" />
    <path d="M651.08268 660.54155 L434.05512 443.51399" />
    <path d="M651.08268 665.55254 L434.05512 448.52498" />
    <path d="M651.08268 670.56354 L434.05512 453.53598" />
    <path d="M651.08268 675.57453 L434.05512 458.54697" />
    <path d="M651.08268 680.58552 L434.05512 463.55796" />
    <path d="M651.08268 685.59651 L434.05512 468.56896" />
    <path d="M651.08268 690.60751 L434.05512 473.57995" />
    <path d="M651.08268 695.6185 L434.05512 478.59094" />
    <path d="M651.08268 700.62949 L434.05512 483.60193" />
    <path d="M651.08268 705.64049 L434.05512 488.61293" />
    <path d="M651.08268 710.65148 L434.05512 493.62392" />
    <path d="M651.08268 715.66247 L434.05512 498.63491" />
    <path d="M651.08268 720.67346 L434.05512 503.64591" />
    <path d="M651.08268 725.68446 L434.05512 508.6569" />
    <path d="M651.08268 730.69545 L434.05512 513.66789" />
    <path d="M651.08268 735.70644 L434.05512 518.67888" />
    <path d="M651.08268 740.71744 L434.05512 523.68988" />
    <path d="M651.08268 745.72843 L434.05512 528.70087" />
    <path d="M651.08268 750.73942 L434.05512 533.71186" />
    <path d="M651.08268 755.75042 L434.05512 538.72286" />
    <path d="M651.08268 760.76141 L434.05512 543.73385" />
    <path d="M651.08268 765.7724 L434.05512 548.74484" />
    <path d="M651.08268 770.78339 L434.05512 553.75584" />
    <path d="M651.08268 775.79439 L434.05512 558.76683" />
    <path d="M651.08268 780.80538 L434.05512 563.77782" />
    <path d="M651.08268 785.81637 L434.05512 568.78881" />
    <path d="M651.08268 790.82737 L434.05512 573.79981" />
    <path d="M651.08268 795.83836 L434.05512 578.8108" />
    <path d="M651.08268 800.84935 L434.05512 583.82179" />
    <path d="M651.08268 805.86034 L434.05512 588.83279" />
    <path d="M651.08268 810.87134 L434.05512 593.84378" />
    <path d="M651.08268 815.88233 L434.05512 598.85477" />
    <path d="M651.08268 820.89332 L434.05512 603.86576" />
    <path d="M651.08268 825.90432 L434.05512 608.87676" />
    <path d="M651.08268 830.91531 L434.05512 613.88775" />
    <path d="M651.08268 835.9263 L434.05512 618.89874" />
    <path d="M651.08268 840.9373 L434.05512 623.90974" />
    <path d="M651.08268 845.94829 L434.05512 628.92073" />
    <path d="M651.08268 850.95928 L434.05512 633.93172" />
    <path d="M651.08268 855.97027 L434.05512 638.94272" />
    <path d="M651.08268 860.98127 L434.05512 643.95371" />
    <path d="M651.08268 865.99226 L434.05512 648.9647" />
    <path d="M651.08268 871.00325 L434.05512 653.97569" />
    <path d="M651.08268 876.01425 L434.05512 658.98669" />
    <path d="M651.08268 881.02524 L434.05512 663.99768" />
    <path d="M651.08268 886.03623 L434.05512 669.00867" />
    <path d="M651.08268 891.04722 L434.05512 674.01967" />
    <path d="M651.08268 896.05822 L434.05512 679.03066" />
    <path d="M651.08268 901.06921 L434.05512 684.04165" />
    <path d="M651.08268 906.0802 L434.05512 689.05264" />
    <path d="M651.08268 911.0912 L434.05512 694.06364" />
    <path d="M651.08268 916.10219 L434.05512 699.07463" />
    <path d="M651.08268 921.11318 L434.05512 704.08562" />
    <path d="M651.08268 926.12418 L434.05512 709.09662" />
    <path d="M651.08268 931.13517 L434.05512 714.10761" />
    <path d="M651.08268 936.14616 L434.05512 719.1186" />
    <path d="M651.08268 941.15715 L434.05512 724.1296" />
    <path d="M651.08268 946.16815 L434.05512 729.14059" />
    <path d="M647.02952 947.12598 L434.05512 734.15158" />
    <path d="M642.01853 947.12598 L434.05512 739.16257" />
    <path d="M637.00754 947.12598 L434.05512 744.17357" />
    <path d="M631.99654 947.12598 L434.05512 749.18456" />
    <path d="M626.98555 947.12598 L434.05512 754.19555" />
    <path d="M621.97456 947.12598 L434.05512 759.20655" />
    <path d="M616.96356 947.12598 L434.05512 764.21754" />
    <path d="M611.95257 947.12598 L434.05512 769.22853" />
    <path d="M606.94158 947.12598 L434.05512 774.23952" />
    <path d="M601.93058 947.12598 L434.05512 779.25052" />
    <path d="M596.91959 947.12598 L434.05512 784.26151" />
    <path d="M591.9086 947.12598 L434.05512 789.2725" />
    <path d="M586.89761 947.12598 L434.05512 794.2835" />
    <path d="M581.88661 947.12598 L434.05512 799.29449" />
    <path d="M576.87562 947.12598 L434.05512 804.30548" />
    <path d="M571.86463 947.12598 L434.05512 809.31648" />
    <path d="M566.85363 947.12598 L434.05512 814.32747" />
    <path d="M561.84264 947.12598 L434.05512 819.33846" />
    <path d="M556.83165 947.12598 L434.05512 824.34945" />
    <path d="M551.82066 947.12598 L434.05512 829.36045" />
    <path d="M546.80966 947.12598 L434.05512 834.37144" />
    <path d="M541.79867 947.12598 L434.05512 839.38243" />
    <path d="M536.78768 947.12598 L434.05512 844.39343" />
    <path d="M531.77668 947.12598 L434.05512 849.40442" />
    <path d="M526.76569 947.12598 L434.05512 854.41541" />
    <path d="M521.7547 947.12598 L434.05512 859.4264" />
    <path d="M516.7437 947.12598 L434.05512 864.4374" />
    <path d="M511.73271 947.12598 L434.05512 869.44839" />
    <path d="M506.72172 947.12598 L434.05512 874.45938" />
    <path d="M501.71073 947.12598 L434.05512 879.47038" />
    <path d="M496.69973 947.12598 L434.05512 884.48137" />
    <path d="M491.68874 947.12598 L434.05512 889.49236" />
    <path d="M486.67775 947.12598 L434.05512 894.50336" />
    <path d="M481.66675 947.12598 L434.05512 899.51435" />
    <path d="M476.65576 947.12598 L434.05512 904.52534" />
    <path d="M471.64477 947.12598 L434.05512 909.53633" />
    <path d="M466.63378 947.12598 L434.05512 914.54733" />
    <path d="M461.62278 947.12598 L434.05512 919.55832" />
    <path d="M456.61179 947.12598 L434.05512 924.56931" />
    <path d="M451.6008 947.12598 L434.05512 929.58031" />
    <path d="M446.5898 947.12598 L434.05512 934.5913" />
    <path d="M441.57881 947.12598 L434.05512 939.60229" />
    <path d="M436.56782 947.12598 L434.05512 944.61328" />
  </g>
</svg>