<?xml version="1.0" standalone="no"?>
<!DOCTYPE svg PUBLIC "-//W3C//DTD SVG 1.1//EN" 
    "http://www.w3.org/Graphics/SVG/1.1/DTD/svg11.dtd">
<svg width="21cm" height="29.7cm"
    xmlns="http://www.w3.org/2000/svg" version="1.1" viewBox="0 0 744.09449 1052.3622">
  <g fill="none" stroke="black" stroke-width="0.03cm">
    <path d="M708.66142 36.54489 L35.43307 35.43307" />
    <path d="M708.66142 54.07842 L35.43307 35.43307" />
    <path d="M708.66142 71.63726 L35.43307 35.43307" />
    <path d="M708.66142 89.24535 L35.43307 35.43307" />
    <path d="M708.66142 106.9269 L35.43307 35.43307" />
    <path d="M708.66142 124.70652 L35.43307 35.43307" />
    <path d="M708.66142 142.60937 L35.43307 35.43307" />
    <path d="M708.66142 160.66129 L35.43307 35.43307" />
    <path d="M708.66142 178.88895 L35.43307 35.43307" />
    <path d="M708.66142 197.32005 L35.43307 35.43307" />
    <path d="M708.66142 215.98345 L35.43307 35.43307" />
    <path d="M708.66142 234.90938 L35.43307 35.43307" />
    <path d="M708.66142 254.12966 L35.43307 35.43307" />
    <path d="M708.66142 273.67792 L35.43307 35.43307" />
    <path d="M708.66142 293.58985 L35.43307 35.43307" />
    <path d="M708.66142 313.90349 L35.43307 35.43307" />
    <path d="M708.66142 334.65954 L35.43307 35.43307" />
    <path d="M708.66142 355.90172 L35.43307 35.43307" />
    <path d="M708.66142 377.67719 L35.43307 35.43307" />
    <path d="M708.66142 400.03697 L35.43307 35.43307" />
    <path d="M708.66142 423.0365 L35.43307 35.43307" />
    <path d="M708.66142 446.73623 L35.43307 35.43307" />
    <path d="M708.66142 471.20231 L35.43307 35.43307" />
    <path d="M708.66142 496.50739 L35.43307 35.43307" />
    <path d="M708.66142 522.73153 L35.43307 35.43307" />
    <path d="M708.66142 549.96334 L35.43307 35.43307" />
    <path d="M708.66142 578.3012 L35.43307 35.43307" />
    <path d="M708.66142 607.85477 L35.43307 35.43307" />
    <path d="M708.66142 638.74681 L35.43307 35.43307" />
    <path d="M708.66142 671.11523 L35.43307 35.43307" />
    <path d="M708.66142 705.11569 L35.43307 35.43307" />
    <path d="M677.87368 708.66142 L35.43307 35.43307" />
    <path d="M645.18746 708.66142 L35.43307 35.43307" />
    <path d="M614.00768 708.66142 L35.43307 35.43307" />
    <path d="M584.19303 708.66142 L35.43307 35.43307" />
    <path d="M555.61787 708.66142 L35.43307 35.43307" />
    <path d="M528.17003 708.66142 L35.43307 35.43307" />
    <path d="M501.74898 708.66142 L35.43307 35.43307" />
    <path d="M476.26423 708.66142 L35.43307 35.43307" />
    <path d="M451.63409 708.66142 L35.43307 35.43307" />
    <path d="M427.78448 708.66142 L35.43307 35.43307" />
    <path d="M404.648 708.66142 L35.43307 35.43307" />
    <path d="M382.1631 708.66142 L35.43307 35.43307" />
    <path d="M360.27339 708.66142 L35.43307 35.43307" />
    <path d="M338.92698 708.66142 L35.43307 35.43307" />
    <path d="M318.07597 708.66142 L35.43307 35.43307" />
    <path d="M297.67599 708.66142 L35.43307 35.43307" />
    <path d="M277.68574 708.66142 L35.43307 35.43307" />
    <path d="M258.06668 708.66142 L35.43307 35.43307" />
    <path d="M238.78266 708.66142 L35.43307 35.43307" />
    <path d="M219.79966 708.66142 L35.43307 35.43307" />
    <path d="M201.08551 708.66142 L35.43307 35.43307" />
    <path d="M182.60968 708.66142 L35.43307 35.43307" />
    <path d="M164.34303 708.66142 L35.43307 35.43307" />
    <path d="M146.25766 708.66142 L35.43307 35.43307" />
    <path d="M128.32669 708.66142 L35.43307 35.43307" />
    <path d="M110.52412 708.66142 L35.43307 35.43307" />
    <path d="M92.82469 708.66142 L35.43307 35.43307" />
    <path d="M75.20367 708.66142 L35.43307 35.43307" />
    <path d="M57.63678 708.66142 L35.43307 35.43307" />
  </g>
</svg>