<?xml version="1.0" standalone="no"?>
<!DOCTYPE svg PUBLIC "-//W3C//DTD SVG 1.1//EN" 
    "http://www.w3.org/Graphics/SVG/1.1/DTD/svg11.dtd">
<svg width="8.5in" height="11in"
    xmlns="http://www.w3.org/2000/svg" version="1.1" viewBox="0 0 765 990">
  <g fill="none" stroke="black" stroke-width="0.01181in">
    <path d="M45 45 L45 67.13618" />
    <path d="M45 76.13618 L45 78.36839" />
    <path d="M45 87.36839 L45 105.64559" />
    <path d="M45 114.64559 L45 135.05667" />
    <path d="M45 144.05667 L45 167.65424" />
    <path d="M45 176.65424 L45 199.25037" />
    <path d="M45 208.25037 L45 210.60832" />
    <path d="M45 219.60832 L45 224.14333" />
    <path d="M45 233.14333 L45 244.99226" />
    <path d="M45 253.99226 L45 255.07288" />
    <path d="M45 264.07288 L45 293.91437" />
    <path d="M45 302.91437 L45 308.45703" />
    <path d="M45 317.45703 L45 317.58979" />
    <path d="M45 326.58979 L45 354.65812" />
    <path d="M51.75 45 L51.75 52.79069" />
    <path d="M51.75 61.79069 L51.75 77.28184" />
    <path d="M51.75 86.28184 L51.75 98.27319" />
    <path d="M51.75 107.27319 L51.75 126.28524" />
    <path d="M51.75 135.28524 L51.75 160.70961" />
    <path d="M51.75 169.70961 L51.75 178.89651" />
    <path d="M51.75 187.89651 L51.75 203.94597" />
    <path d="M51.75 212.94597 L51.75 213.42573" />
    <path d="M51.75 222.42573 L51.75 246.48238" />
    <path d="M51.75 255.48238 L51.75 264.34953" />
    <path d="M51.75 273.34953 L51.75 302.75908" />
    <path d="M51.75 311.75908 L51.75 326.67677" />
    <path d="M51.75 335.67677 L51.75 340.60364" />
    <path d="M58.5 45 L58.5 45.80117" />
    <path d="M58.5 54.80117 L58.5 64.51664" />
    <path d="M58.5 73.51664 L58.5 79.21179" />
    <path d="M58.5 88.21179 L58.5 105.49113" />
    <path d="M58.5 114.49113 L58.5 136.72556" />
    <path d="M58.5 145.72556 L58.5 147.06834" />
    <path d="M58.5 156.06834 L58.5 179.99609" />
    <path d="M58.5 188.99609 L58.5 198.63805" />
    <path d="M58.5 207.63805 L58.5 226.74603" />
    <path d="M58.5 235.74603 L58.5 240.00672" />
    <path d="M58.5 249.00672 L58.5 262.67206" />
    <path d="M58.5 271.67206 L58.5 301.45102" />
    <path d="M58.5 310.45102 L58.5 339.30642" />
    <path d="M65.25 45 L65.25 66.91824" />
    <path d="M65.25 75.91824 L65.25 104.21814" />
    <path d="M65.25 113.21814 L65.25 139.50657" />
    <path d="M65.25 148.50657 L65.25 178.47969" />
    <path d="M65.25 187.47969 L65.25 191.206" />
    <path d="M65.25 200.206 L65.25 206.52563" />
    <path d="M65.25 215.52563 L65.25 236.11092" />
    <path d="M65.25 245.11092 L65.25 257.25754" />
    <path d="M65.25 266.25754 L65.25 268.98798" />
    <path d="M65.25 277.98798 L65.25 307.72406" />
    <path d="M65.25 316.72406 L65.25 337.98833" />
    <path d="M72 45 L72 50.30174" />
    <path d="M72 59.30174 L72 77.72933" />
    <path d="M72 86.72933 L72 101.20558" />
    <path d="M72 110.20558 L72 120.72191" />
    <path d="M72 129.72191 L72 137.49323" />
    <path d="M72 146.49323 L72 151.06138" />
    <path d="M72 160.06138 L72 179.06051" />
    <path d="M72 188.06051 L72 217.32397" />
    <path d="M72 226.32397 L72 239.72407" />
    <path d="M72 248.72407 L72 266.915" />
    <path d="M72 275.915 L72 277.73859" />
    <path d="M72 286.73859 L72 293.27944" />
    <path d="M72 302.27944 L72 305.55699" />
    <path d="M72 314.55699 L72 329.00339" />
    <path d="M72 338.00339 L72 363.97672" />
    <path d="M78.75 45 L78.75 65.439" />
    <path d="M78.75 74.439 L78.75 88.7583" />
    <path d="M78.75 97.7583 L78.75 109.95073" />
    <path d="M78.75 118.95073 L78.75 133.21298" />
    <path d="M78.75 142.21298 L78.75 151.89026" />
    <path d="M78.75 160.89026 L78.75 174.5108" />
    <path d="M78.75 183.5108 L78.75 190.56345" />
    <path d="M78.75 199.56345 L78.75 215.79209" />
    <path d="M78.75 224.79209 L78.75 250.81431" />
    <path d="M78.75 259.81431 L78.75 267.51998" />
    <path d="M78.75 276.51998 L78.75 279.19566" />
    <path d="M78.75 288.19566 L78.75 295.42339" />
    <path d="M78.75 304.42339 L78.75 308.38465" />
    <path d="M78.75 317.38465 L78.75 344.99738" />
    <path d="M85.5 45 L85.5 62.79745" />
    <path d="M85.5 71.79745 L85.5 82.29612" />
    <path d="M85.5 91.29612 L85.5 110.86861" />
    <path d="M85.5 119.86861 L85.5 123.36191" />
    <path d="M85.5 132.36191 L85.5 133.82883" />
    <path d="M85.5 142.82883 L85.5 160.76058" />
    <path d="M85.5 169.76058 L85.5 180.05507" />
    <path d="M85.5 189.05507 L85.5 199.94101" />
    <path d="M85.5 208.94101 L85.5 231.50702" />
    <path d="M85.5 240.50702 L85.5 254.05691" />
    <path d="M85.5 263.05691 L85.5 289.87875" />
    <path d="M85.5 298.87875 L85.5 317.64071" />
    <path d="M85.5 326.64071 L85.5 337.49832" />
    <path d="M92.25 45 L92.25 74.19343" />
    <path d="M92.25 83.19343 L92.25 109.55697" />
    <path d="M92.25 118.55697 L92.25 125.68294" />
    <path d="M92.25 134.68294 L92.25 141.02739" />
    <path d="M92.25 150.02739 L92.25 172.50226" />
    <path d="M92.25 181.50226 L92.25 207.45589" />
    <path d="M92.25 216.45589 L92.25 222.76704" />
    <path d="M92.25 231.76704 L92.25 231.95114" />
    <path d="M92.25 240.95114 L92.25 264.08649" />
    <path d="M92.25 273.08649 L92.25 289.70782" />
    <path d="M92.25 298.70782 L92.25 317.76914" />
    <path d="M92.25 326.76914 L92.25 341.86187" />
    <path d="M99 45 L99 68.31108" />
    <path d="M99 77.31108 L99 98.8196" />
    <path d="M99 107.8196 L99 118.83356" />
    <path d="M99 127.83356 L99 139.27086" />
    <path d="M99 148.27086 L99 158.94899" />
    <path d="M99 167.94899 L99 194.27323" />
    <path d="M99 203.27323 L99 209.73693" />
    <path d="M99 218.73693 L99 232.69218" />
    <path d="M99 241.69218 L99 263.47475" />
    <path d="M99 272.47475 L99 301.0825" />
    <path d="M99 310.0825 L99 323.70322" />
    <path d="M99 332.70322 L99 341.80786" />
    <path d="M105.75 45 L105.75 46.24931" />
    <path d="M105.75 55.24931 L105.75 59.06368" />
    <path d="M105.75 68.06368 L105.75 74.61863" />
    <path d="M105.75 83.61863 L105.75 105.28968" />
    <path d="M105.75 114.28968 L105.75 141.52293" />
    <path d="M105.75 150.52293 L105.75 173.54622" />
    <path d="M105.75 182.54622 L105.75 187.58104" />
    <path d="M105.75 196.58104 L105.75 213.12858" />
    <path d="M105.75 222.12858 L105.75 242.29645" />
    <path d="M105.75 251.29645 L105.75 276.92299" />
    <path d="M105.75 285.92299 L105.75 301.36454" />
    <path d="M105.75 310.36454 L105.75 334.68727" />
    <path d="M105.75 343.68727 L105.75 347.86055" />
    <path d="M112.5 45 L112.5 59.37152" />
    <path d="M112.5 68.37152 L112.5 71.99669" />
    <path d="M112.5 80.99669 L112.5 86.74798" />
    <path d="M112.5 95.74798 L112.5 99.44433" />
    <path d="M112.5 108.44433 L112.5 121.37344" />
    <path d="M112.5 130.37344 L112.5 157.10231" />
    <path d="M112.5 166.10231 L112.5 189.8892" />
    <path d="M112.5 198.8892 L112.5 211.34525" />
    <path d="M112.5 220.34525 L112.5 234.53112" />
    <path d="M112.5 243.53112 L112.5 252.54664" />
    <path d="M112.5 261.54664 L112.5 289.87615" />
    <path d="M112.5 298.87615 L112.5 325.99993" />
    <path d="M112.5 334.99993 L112.5 346.86062" />
    <path d="M119.25 45 L119.25 70.46249" />
    <path d="M119.25 79.46249 L119.25 104.2978" />
    <path d="M119.25 113.2978 L119.25 118.78911" />
    <path d="M119.25 127.78911 L119.25 146.73399" />
    <path d="M119.25 155.73399 L119.25 176.30978" />
    <path d="M119.25 185.30978 L119.25 213.86017" />
    <path d="M119.25 222.86017 L119.25 233.08752" />
    <path d="M119.25 242.08752 L119.25 242.15566" />
    <path d="M119.25 251.15566 L119.25 280.72635" />
    <path d="M119.25 289.72635 L119.25 315.45483" />
    <path d="M119.25 324.45483 L119.25 333.90205" />
    <path d="M119.25 342.90205 L119.25 344.99512" />
    <path d="M126 45 L126 50.49109" />
    <path d="M126 59.49109 L126 66.59834" />
    <path d="M126 75.59834 L126 99.34586" />
    <path d="M126 108.34586 L126 133.70938" />
    <path d="M126 142.70938 L126 149.58056" />
    <path d="M126 158.58056 L126 161.46038" />
    <path d="M126 170.46038 L126 195.42363" />
    <path d="M126 204.42363 L126 229.42006" />
    <path d="M126 238.42006 L126 259.86342" />
    <path d="M126 268.86342 L126 278.47364" />
    <path d="M126 287.47364 L126 291.5235" />
    <path d="M126 300.5235 L126 305.87868" />
    <path d="M126 314.87868 L126 332.06741" />
    <path d="M126 341.06741 L126 341.77867" />
    <path d="M132.75 45 L132.75 72.65633" />
    <path d="M132.75 81.65633 L132.75 99.5837" />
    <path d="M132.75 108.5837 L132.75 114.89098" />
    <path d="M132.75 123.89098 L132.75 144.11471" />
    <path d="M132.75 153.11471 L132.75 176.13737" />
    <path d="M132.75 185.13737 L132.75 195.91962" />
    <path d="M132.75 204.91962 L132.75 206.34598" />
    <path d="M132.75 215.34598 L132.75 231.54016" />
    <path d="M132.75 240.54016 L132.75 248.45788" />
    <path d="M132.75 257.45788 L132.75 274.43968" />
    <path d="M132.75 283.43968 L132.75 301.77618" />
    <path d="M132.75 310.77618 L132.75 328.64563" />
    <path d="M132.75 337.64563 L132.75 354.49593" />
    <path d="M139.5 45 L139.5 73.61776" />
    <path d="M139.5 82.61776 L139.5 95.99846" />
    <path d="M139.5 104.99846 L139.5 121.54564" />
    <path d="M139.5 130.54564 L139.5 138.50586" />
    <path d="M139.5 147.50586 L139.5 174.80157" />
    <path d="M139.5 183.80157 L139.5 186.68149" />
    <path d="M139.5 195.68149 L139.5 209.32872" />
    <path d="M139.5 218.32872 L139.5 242.56641" />
    <path d="M139.5 251.56641 L139.5 255.66879" />
    <path d="M139.5 264.66879 L139.5 273.09196" />
    <path d="M139.5 282.09196 L139.5 310.43596" />
    <path d="M139.5 319.43596 L139.5 338.45552" />
    <path d="M146.25 45 L146.25 69.04536" />
    <path d="M146.25 78.04536 L146.25 92.57734" />
    <path d="M146.25 101.57734 L146.25 127.08419" />
    <path d="M146.25 136.08419 L146.25 152.24393" />
    <path d="M146.25 161.24393 L146.25 178.33875" />
    <path d="M146.25 187.33875 L146.25 209.87573" />
    <path d="M146.25 218.87573 L146.25 228.91446" />
    <path d="M146.25 237.91446 L146.25 246.95111" />
    <path d="M146.25 255.95111 L146.25 273.98048" />
    <path d="M146.25 282.98048 L146.25 306.93466" />
    <path d="M146.25 315.93466 L146.25 330.25323" />
    <path d="M146.25 339.25323 L146.25 351.18753" />
    <path d="M153 45 L153 66.76685" />
    <path d="M153 75.76685 L153 92.94862" />
    <path d="M153 101.94862 L153 126.92838" />
    <path d="M153 135.92838 L153 145.11257" />
    <path d="M153 154.11257 L153 162.57057" />
    <path d="M153 171.57057 L153 186.71348" />
    <path d="M153 195.71348 L153 225.49586" />
    <path d="M153 234.49586 L153 235.20657" />
    <path d="M153 244.20657 L153 271.02889" />
    <path d="M153 280.02889 L153 288.80391" />
    <path d="M153 297.80391 L153 323.29125" />
    <path d="M153 332.29125 L153 351.49127" />
    <path d="M159.75 45 L159.75 54.66703" />
    <path d="M159.75 63.66703 L159.75 90.63603" />
    <path d="M159.75 99.63603 L159.75 115.3234" />
    <path d="M159.75 124.3234 L159.75 145.26809" />
    <path d="M159.75 154.26809 L159.75 183.79719" />
    <path d="M159.75 192.79719 L159.75 199.4654" />
    <path d="M159.75 208.4654 L159.75 216.39218" />
    <path d="M159.75 225.39218 L159.75 241.17953" />
    <path d="M159.75 250.17953 L159.75 271.52585" />
    <path d="M159.75 280.52585 L159.75 308.84397" />
    <path d="M159.75 317.84397 L159.75 345.61102" />
    <path d="M166.5 45 L166.5 67.76925" />
    <path d="M166.5 76.76925 L166.5 79.98488" />
    <path d="M166.5 88.98488 L166.5 95.28793" />
    <path d="M166.5 104.28793 L166.5 127.95134" />
    <path d="M166.5 136.95134 L166.5 139.72784" />
    <path d="M166.5 148.72784 L166.5 177.39925" />
    <path d="M166.5 186.39925 L166.5 197.77656" />
    <path d="M166.5 206.77656 L166.5 227.63411" />
    <path d="M166.5 236.63411 L166.5 246.48317" />
    <path d="M166.5 255.48317 L166.5 267.76385" />
    <path d="M166.5 276.76385 L166.5 290.00106" />
    <path d="M166.5 299.00106 L166.5 312.02414" />
    <path d="M166.5 321.02414 L166.5 349.8498" />
    <path d="M173.25 45 L173.25 45.59288" />
    <path d="M173.25 54.59288 L173.25 71.34325" />
    <path d="M173.25 80.34325 L173.25 87.10982" />
    <path d="M173.25 96.10982 L173.25 124.10039" />
    <path d="M173.25 133.10039 L173.25 134.56438" />
    <path d="M173.25 143.56438 L173.25 161.68006" />
    <path d="M173.25 170.68006 L173.25 196.67547" />
    <path d="M173.25 205.67547 L173.25 223.45173" />
    <path d="M173.25 232.45173 L173.25 237.30515" />
    <path d="M173.25 246.30515 L173.25 263.00305" />
    <path d="M173.25 272.00305 L173.25 300.49655" />
    <path d="M173.25 309.49655 L173.25 333.95615" />
    <path d="M173.25 342.95615 L173.25 345.98758" />
    <path d="M180 45 L180 58.89336" />
    <path d="M180 67.89336 L180 74.23814" />
    <path d="M180 83.23814 L180 102.175" />
    <path d="M180 111.175 L180 126.12725" />
    <path d="M180 135.12725 L180 139.76113" />
    <path d="M180 148.76113 L180 175.31047" />
    <path d="M180 184.31047 L180 196.9534" />
    <path d="M180 205.9534 L180 232.78391" />
    <path d="M180 241.78391 L180 247.87753" />
    <path d="M180 256.87753 L180 280.50145" />
    <path d="M180 289.50145 L180 290.66279" />
    <path d="M180 299.66279 L180 315.88712" />
    <path d="M180 324.88712 L180 333.15493" />
    <path d="M180 342.15493 L180 353.93043" />
  </g>
</svg>