<?xml version="1.0" standalone="no"?>
<!DOCTYPE svg PUBLIC "-//W3C//DTD SVG 1.1//EN" 
    "http://www.w3.org/Graphics/SVG/1.1/DTD/svg11.dtd">
<svg width="2480px" height="3508px"
    xmlns="http://www.w3.org/2000/svg" version="1.1" viewBox="0 0 2480 3508">
  <g fill="none" stroke="black" stroke-width="1.06299px">
    <path d="M206.66666666666663 206.66666666666663 L1446.6666666666665 549.3333333333333" />
    <path d="M1446.6666666666665 549.3333333333333 L1446.6666666666665 1789.3333333333333" />
    <path d="M1446.6666666666665 1789.3333333333333 L206.66666666666663 2409.333333333333" />
    <path d="M206.66666666666663 2409.333333333333 L206.66666666666663 206.66666666666663" />
    <path d="M220.82925273895387 214.0141167030181 L1459.3222881844247 562.0880249430757" />
    <path d="M1459.3222881844247 562.0880249430757 L1453.9117846713389 1802.0762210367864" />
    <path d="M1453.9117846713389 1802.0762210367864 L211.21833682108547 2416.659815570556" />
    <path d="M211.21833682108547 2416.659815570556 L220.82925273895387 214.0141167030181" />
    <path d="M234.91572695796435 221.46663922581683 L1471.8782187267605 574.9411622137898" />
    <path d="M1471.8782187267605 574.9411622137898 L1461.0573147087769 1814.8939468133622" />
    <path d="M1461.0573147087769 1814.8939468133622 L215.69407810021266 2424.049435095165" />
    <path d="M215.69407810021266 2424.049435095165 L234.91572695796435 221.46663922581683" />
    <path d="M248.9254428675431 229.02370909554952 L1484.3338409768644 587.892117186043" />
    <path d="M1484.3338409768644 587.892117186043 L1468.102742468397 1827.7858833778118" />
    <path d="M1468.102742468397 1827.7858833778118 L220.09342702239508 2431.501667965229" />
    <path d="M220.09342702239508 2431.501667965229 L248.9254428675431 229.02370909554952" />
    <path d="M262.85775714876 236.6847975354118 L1496.6885412035092 600.9402583912334" />
    <path d="M1496.6885412035092 600.9402583912334 L1475.0475572212777 1840.7514003851586" />
    <path d="M1475.0475572212777 1840.7514003851586 L224.41592323623684 2439.015987399889" />
    <path d="M224.41592323623684 2439.015987399889 L262.85775714876 236.6847975354118" />
    <path d="M276.71202963932785 244.4493721487031 L1508.9417092799054 614.084950870941" />
    <path d="M1508.9417092799054 614.084950870941 L1481.8912518370498 1853.7898644500283" />
    <path d="M1481.8912518370498 1853.7898644500283 L228.66110953653458 2446.591863796716" />
    <path d="M228.66110953653458 2446.591863796716 L276.71202963932785 244.4493721487031" />
    <path d="M290.48762335292804 252.3168969363213 L1521.0927387024544 627.3255561963749" />
    <path d="M1521.0927387024544 627.3255561963749 L1488.6333228006918 1866.900639166066" />
    <path d="M1488.6333228006918 1866.900639166066 L232.8285318801195 2454.2287647491485" />
    <path d="M232.8285318801195 2454.2287647491485 L290.48762335292804 252.3168969363213" />
    <path d="M304.18390449844287 260.28683231435855 L1533.1410266094008 640.6614324879188" />
    <path d="M1533.1410266094008 640.6614324879188 L1495.2732702292208 1880.0830851254427" />
    <path d="M1495.2732702292208 1880.0830851254427 L236.9177394016068 2461.9261550640244" />
    <path d="M236.9177394016068 2461.9261550640244 L304.18390449844287 260.28683231435855" />
    <path d="M317.8002424990958 268.35863513179424 L1545.0859737993842 654.0919344347723" />
    <path d="M1545.0859737993842 654.0919344347723 L1501.8105978882827 1893.336559938451" />
    <path d="M1501.8105978882827 1893.336559938451 L240.92828442905363 2469.6834967791888" />
    <path d="M240.92828442905363 2469.6834967791888 L317.8002424990958 268.35863513179424" />
    <path d="M331.33601001149736 276.5317586882894 L1556.9269847498863 667.6164133146888" />
    <path d="M1556.9269847498863 667.6164133146888 L1508.244813208641 1906.6604182531853" />
    <path d="M1508.244813208641 1906.6604182531853 L244.85972249952226 2477.5002491811883" />
    <path d="M244.85972249952226 2477.5002491811883 L331.33601001149736 276.5317586882894" />
    <path d="M344.79058294459713 284.80565275207596 L1568.6634676355789 681.2342170138091" />
    <path d="M1568.6634676355789 681.2342170138091 L1514.5754273025623 1920.0540117753128" />
    <path d="M1514.5754273025623 1920.0540117753128 L248.71161237455044 2485.3758688230478" />
    <path d="M248.71161237455044 2485.3758688230478 L344.79058294459713 284.80565275207596" />
    <path d="M358.16334047854104 293.1797635779466 L1580.294834346566 694.9446900465895" />
    <path d="M1580.294834346566 694.9446900465895 L1520.8019549800995 1933.5166892879283" />
    <path d="M1520.8019549800995 1933.5166892879283 L252.4835160555275 2493.309809542131" />
    <path d="M252.4835160555275 2493.309809542131 L358.16334047854104 293.1797635779466" />
    <path d="M371.45366508343375 301.6535339253404 L1591.820500506523 708.7471735758247" />
    <path d="M1591.820500506523 708.7471735758247 L1526.9239147652727 1947.0477966714964" />
    <path d="M1526.9239147652727 1947.0477966714964 L256.17499879897616 2501.3015224780816" />
    <path d="M256.17499879897616 2501.3015224780816 L371.45366508343375 301.6535339253404" />
    <path d="M384.66094253800475 310.2264030765259 L1603.239885490733 722.6410054327655" />
    <path d="M1603.239885490733 722.6410054327655 L1532.940828912145 1960.646676923878" />
    <path d="M1532.940828912145 1960.646676923878 L259.7856291317386 2509.350456090846" />
    <path d="M259.7856291317386 2509.350456090846 L384.66094253800475 310.2264030765259" />
    <path d="M397.78456194817943 318.8978068548795 L1614.5524124440167 736.6255201373283" />
    <path d="M1614.5524124440167 736.6255201373283 L1538.8522234207942 1974.3126701804433" />
    <path d="M1538.8522234207942 1974.3126701804433 L263.31497886606803 2517.4560561787785" />
    <path d="M263.31497886606803 2517.4560561787785 L397.78456194817943 318.8978068548795" />
    <path d="M410.8239157655526 327.66717764326097 L1625.7575082985586 750.7000489183997" />
    <path d="M1625.7575082985586 750.7000489183997 L1544.657628053181 1988.0451137342682" />
    <path d="M1544.657628053181 1988.0451137342682 L266.76262311462415 2525.6177658968245" />
    <path d="M266.76262311462415 2525.6177658968245 L410.8239157655526 327.66717764326097" />
    <path d="M423.7783998057654 336.53394440248337 L1636.8546037916271 764.8639197342318" />
    <path d="M1636.8546037916271 764.8639197342318 L1550.3565763489116 2001.8433420564138" />
    <path d="M1550.3565763489116 2001.8433420564138 L270.1281403053721 2533.8350257747893" />
    <path d="M270.1281403053721 2533.8350257747893 L423.7783998057654 336.53394440248337" />
    <path d="M436.64741326678455 345.49753268987797 L1647.8431334831898 779.1164572929301" />
    <path d="M1647.8431334831898 779.1164572929301 L1555.9486056408948 2015.7066868162924" />
    <path d="M1555.9486056408948 2015.7066868162924 L273.41111219638515 2542.107273735678" />
    <path d="M273.41111219638515 2542.107273735678 L436.64741326678455 345.49753268987797" />
    <path d="M449.43035874708363 354.5573646779534 L1658.7225357734205 793.4569830730329" />
    <path d="M1658.7225357734205 793.4569830730329 L1561.433257070893 2029.6344769021116" />
    <path d="M1561.433257070893 2029.6344769021116 L276.6111238905505 2550.433945114123" />
    <path d="M276.6111238905505 2550.433945114123 L449.43035874708363 354.5573646779534" />
    <path d="M462.1266422637258 363.71285917314833 L1669.4922529201012 807.8848153441813" />
    <path d="M1669.4922529201012 807.8848153441813 L1566.8100756049678 2043.6260384414056" />
    <path d="M1566.8100756049678 2043.6260384414056 L279.727763850177 2558.814472674884" />
    <path d="M279.727763850177 2558.814472674884 L462.1266422637258 363.71285917314833" />
    <path d="M474.73567327034743 372.96343163467895 L1680.1517310559143 822.3992691878798" />
    <path d="M1680.1517310559143 822.3992691878798 L1572.078610048818 2057.6806948216445" />
    <path d="M1572.078610048818 2057.6806948216445 L282.7606239115057 2567.2482866314303" />
    <path d="M282.7606239115057 2567.2482866314303 L474.73567327034743 372.96343163467895" />
    <path d="M487.25686467504283 382.30849419347624 L1690.7004202056307 836.9996565183459" />
    <path d="M1690.7004202056307 836.9996565183459 L1577.2384130630116 2071.797766710926" />
    <path d="M1577.2384130630116 2071.797766710926 L285.7092992991219 2575.7348146645973" />
    <path d="M285.7092992991219 2575.7348146645973 L487.25686467504283 382.30849419347624" />
    <path d="M499.68963285814806 391.74745567121886 L1701.1377743031862 851.6852861034498" />
    <path d="M1701.1377743031862 851.6852861034498 L1582.2890411781086 2085.976572078752" />
    <path d="M1582.2890411781086 2085.976572078752 L288.57338864026804 2584.2734819413245" />
    <path d="M288.57338864026804 2584.2734819413245 L499.68963285814806 391.74745567121886" />
    <path d="M512.0333976899257 401.27972159945557 L1711.4632512086514 866.4554635857426" />
    <path d="M1711.4632512086514 866.4554635857426 L1587.2300548096766 2100.216426216873" />
    <path d="M1587.2300548096766 2100.216426216873 L291.352493979059 2592.8637111334638" />
    <path d="M291.352493979059 2592.8637111334638 L512.0333976899257 401.27972159945557" />
    <path d="M524.287582548147 410.9046942388195 L1721.6763127250897 881.3094915035714" />
    <path d="M1721.6763127250897 881.3094915035714 L1592.0610182731994 2114.5166417602304" />
    <path d="M1592.0610182731994 2114.5166417602304 L294.0462207905956 2601.5049224366694" />
    <path d="M294.0462207905956 2601.5049224366694 L524.287582548147 410.9046942388195" />
    <path d="M536.4516143355752 420.62177259833334 L1731.7764246153115 896.2466693122842" />
    <path d="M1731.7764246153115 896.2466693122842 L1596.7814997988753 2128.8765287079605" />
    <path d="M1596.7814997988753 2128.8765287079605 L296.6541779949812 2610.1965335893624" />
    <path d="M296.6541779949812 2610.1965335893624 L536.4516143355752 420.62177259833334" />
    <path d="M548.5249234973443 430.43035245480473 L1741.7630566185098 911.2662934055197" />
    <path d="M1741.7630566185098 911.2662934055197 L1601.3910715463057 2143.295394444488" />
    <path d="M1601.3910715463057 2143.295394444488 L299.17597797123506 2618.9379598917676" />
    <path d="M299.17597797123506 2618.9379598917676 L548.5249234973443 430.43035245480473" />
    <path d="M560.506944038238 440.3298263723111 L1751.6356824667942 926.3676571365845" />
    <path d="M1751.6356824667942 926.3676571365845 L1605.8893096190754 2157.772543760693" />
    <path d="M1605.8893096190754 2157.772543760693 L301.6112365711076 2627.7286142250287" />
    <path d="M301.6112365711076 2627.7286142250287 L560.506944038238 440.3298263723111" />
    <path d="M572.3971135398644 450.31958372177405 L1761.3937799016064 941.5500508399165" />
    <path d="M1761.3937799016064 941.5500508399165 L1610.2757940792235 2172.3072788751556" />
    <path d="M1610.2757940792235 2172.3072788751556 L303.959573132793 2636.5679070703923" />
    <path d="M303.959573132793 2636.5679070703923 L572.3971135398644 450.31958372177405" />
    <path d="M584.1948731777288 460.39901070062115 L1771.036830690031 956.8127618526323" />
    <path d="M1771.036830690031 956.8127618526323 L1614.5501089616023 2186.898899455479" />
    <path d="M1614.5501089616023 2186.898899455479 L306.2206104945411 2645.4552465284733" />
    <path d="M306.2206104945411 2645.4552465284733 L584.1948731777288 460.39901070062115" />
    <path d="M595.8996677382015 470.56749035253847 L1780.5643206409886 972.1550745361614" />
    <path d="M1780.5643206409886 972.1550745361614 L1618.7118422881244 2201.546702639686" />
    <path d="M1618.7118422881244 2201.546702639686 L308.3939750081679 2654.3900383385844" />
    <path d="M308.3939750081679 2654.3900383385844 L595.8996677382015 470.56749035253847" />
    <path d="M607.510945635383 480.8244025873074 L1789.975739621321 987.5762702979621" />
    <path d="M1789.975739621321 987.5762702979621 L1622.7605860819044 2216.2499830576958" />
    <path d="M1622.7605860819044 2216.2499830576958 L310.47929655246253 2663.371685898146" />
    <path d="M310.47929655246253 2663.371685898146 L607.510945635383 480.8244025873074" />
    <path d="M619.0281589278643 491.1691242007312 L1799.2705815717622 1003.0756276133236" />
    <path d="M1799.2705815717622 1003.0756276133236 L1626.6959363812812 2231.0080328528707" />
    <path d="M1626.6959363812812 2231.0080328528707 L312.47620854649347 2672.3995902821634" />
    <path d="M312.47620854649347 2672.3995902821634 L619.0281589278643 491.1691242007312" />
    <path d="M630.4507633353817 501.6010288946467 L1808.4483445227952 1018.6524220472492" />
    <path d="M1808.4483445227952 1018.6524220472492 L1630.517493253733 2245.82014170364" />
    <path d="M1630.517493253733 2245.82014170364 L314.3843479628107 2681.4731502627733" />
    <path d="M314.3843479628107 2681.4731502627733 L630.4507633353817 501.6010288946467" />
    <path d="M641.7782182553675 512.119487297022 L1817.5085306103977 1034.3059262764227" />
    <path d="M1817.5085306103977 1034.3059262764227 L1634.2248608096806 2260.685596845199" />
    <path d="M1634.2248608096806 2260.685596845199 L316.20335534054516 2690.5917623288706" />
    <path d="M316.20335534054516 2690.5917623288706 L641.7782182553675 512.119487297022" />
    <path d="M653.0099867793936 522.7238669821411 L1826.4506460916718 1050.035410111257" />
    <path d="M1826.4506460916718 1050.035410111257 L1637.8176472161754 2275.60368309128" />
    <path d="M1637.8176472161754 2275.60368309128 L317.9328747984037 2699.7548207057953" />
    <path d="M317.9328747984037 2699.7548207057953 L653.0099867793936 522.7238669821411" />
    <path d="M664.1455357095099 533.4135324908702 L1835.2742013603615 1065.8401405180236" />
    <path d="M1835.2742013603615 1065.8401405180236 L1641.2954647104752 2290.5736828559943" />
    <path d="M1641.2954647104752 2290.5736828559943 L319.5725540475614 2708.9617173750935" />
    <path d="M319.5725540475614 2708.9617173750935 L664.1455357095099 533.4135324908702" />
    <path d="M675.1843355744763 544.1878453510126 L1843.9787109622525 1081.7193816410631" />
    <path d="M1843.9787109622525 1081.7193816410631 L1644.6579296135083 2305.5948761757504" />
    <path d="M1644.6579296135083 2305.5948761757504 L321.1220444044486 2718.21184209435" />
    <path d="M321.1220444044486 2718.21184209435 L675.1843355744763 544.1878453510126" />
    <path d="M686.125860645886 555.0461640977438 L1852.5636936104606 1097.6723948250753" />
    <path d="M1852.5636936104606 1097.6723948250753 L1647.9046623432205 2320.666540731242" />
    <path d="M1647.9046623432205 2320.666540731242 L322.5810008034333 2727.5045824170857" />
    <path d="M322.5810008034333 2727.5045824170857 L686.125860645886 555.0461640977438" />
    <path d="M696.9695889541836 565.9878442941318 L1861.0286722006008 1113.6984386374902" />
    <path d="M1861.0286722006008 1113.6984386374902 L1651.03528742781 2335.7879518695063" />
    <path d="M1651.03528742781 2335.7879518695063 L323.94908180939865 2736.839323712724" />
    <path d="M323.94908180939865 2736.839323712724 L696.9695889541836 565.9878442941318" />
    <path d="M707.7150023045737 577.0122385517395 L1869.3731738258434 1129.7967688909164" />
    <path d="M1869.3731738258434 1129.7967688909164 L1654.0494335188498 2350.958382626054" />
    <path d="M1654.0494335188498 2350.958382626054 L325.22594963021515 2746.2154491866295" />
    <path d="M325.22594963021515 2746.2154491866295 L707.7150023045737 577.0122385517395" />
    <path d="M718.361586292822 588.1186965513098 L1877.5967297918528 1145.9666386656693" />
    <path d="M1877.5967297918528 1145.9666386656693 L1656.9467334042893 2366.17710374707" />
    <path d="M1656.9467334042893 2366.17710374707 L326.4112701291067 2755.6323399002063" />
    <path d="M326.4112701291067 2755.6323399002063 L718.361586292822 588.1186965513098" />
    <path d="M728.9088303209477 599.3065650635311 L1885.698875631609 1162.2072983323758" />
    <path d="M1885.698875631609 1162.2072983323758 L1659.7268240213461 2381.4433837116794" />
    <path d="M1659.7268240213461 2381.4433837116794 L327.5047128369109 2765.089374791068" />
    <path d="M327.5047128369109 2765.089374791068 L728.9088303209477 599.3065650635311" />
    <path d="M739.3562276128057 610.5751879698855 L1893.6791511201113 1178.5179955746578" />
    <path d="M1893.6791511201113 1178.5179955746578 L1662.3893464692806 2396.7564887542894" />
    <path d="M1662.3893464692806 2396.7564887542894 L328.50595096423297 2774.5859306932743" />
    <path d="M328.50595096423297 2774.5859306932743 L739.3562276128057 610.5751879698855" />
    <path d="M749.7032752295612 621.9239062835762 L1901.5371002889683 1194.8979754118914" />
    <path d="M1901.5371002889683 1194.8979754118914 L1664.933946022053 2412.1156828869944" />
    <path d="M1664.933946022053 2412.1156828869944 L329.4146614134919 2784.1213823576304" />
    <path d="M329.4146614134919 2784.1213823576304 L749.7032752295612 621.9239062835762" />
    <path d="M759.9494740850525 633.3520581705353 L1909.272271440865 1211.3464802220412" />
    <path d="M1909.272271440865 1211.3464802220412 L1667.360272140866 2427.5202279220466" />
    <path d="M1667.360272140866 2427.5202279220466 L330.2305247908607 2793.6951024720506" />
    <path d="M330.2305247908607 2793.6951024720506 L759.9494740850525 633.3520581705353" />
    <path d="M770.094328961045 644.8589789705114 L1916.884217163914 1227.8627497645734" />
    <path d="M1916.884217163914 1227.8627497645734 L1669.6679784865896 2442.969383494402" />
    <path d="M1669.6679784865896 2442.969383494402 L330.9532254180988 2803.306461681992" />
    <path d="M330.9532254180988 2803.306461681992 L770.094328961045 644.8589789705114" />
    <path d="M780.1373485223731 656.444001218235 L1924.3724943458897 1244.4460212034392" />
    <path d="M1924.3724943458897 1244.4460212034392 L1671.8567229320695 2458.462407084323" />
    <path d="M1671.8567229320695 2458.462407084323 L331.58245134427557 2812.954828610945" />
    <path d="M331.58245134427557 2812.954828610945 L780.1373485223731 656.444001218235" />
    <path d="M790.0780453319724 668.1064546646635 L1931.736664188339 1261.0955291301357" />
    <path d="M1931.736664188339 1261.0955291301357 L1673.9261675743178 2473.998554040055" />
    <path d="M1673.9261675743178 2473.998554040055 L332.1178943573878 2822.639569880993" />
    <path d="M332.1178943573878 2822.639569880993 L790.0780453319724 668.1064546646635" />
    <path d="M799.9159358657986 679.8456662983024 L1938.9762922205782 1277.8105055868405" />
    <path d="M1938.9762922205782 1277.8105055868405 L1675.875978746585 2489.577077600562" />
    <path d="M1675.875978746585 2489.577077600562 L332.5592499958664 2832.3600501334295" />
    <path d="M332.5592499958664 2832.3600501334295 L799.9159358657986 679.8456662983024" />
    <path d="M809.6505405276368 691.6609603666051 L1946.0909483135642 1294.5901800896165" />
    <path d="M1946.0909483135642 1294.5901800896165 L1677.7058270303169 2505.197228918334" />
    <path d="M1677.7058270303169 2505.197228918334 L332.90621755997563 2842.1156320494447" />
    <path d="M332.90621755997563 2842.1156320494447 L809.6505405276368 691.6609603666051" />
    <path d="M819.2813836637964 703.5516583974481 L1953.0802066936512 1311.4337796516932" />
    <path d="M1953.0802066936512 1311.4337796516932 L1679.4153872669897 2520.8582570822487" />
    <path d="M1679.4153872669897 2520.8582570822487 L333.15850012310335 2851.905676370865" />
    <path d="M333.15850012310335 2851.905676370865 L819.2813836637964 703.5516583974481" />
    <path d="M828.807993577694 715.5170792206827 L1959.9436459562212 1328.3405288068159" />
    <path d="M1959.9436459562212 1328.3405288068159 L1681.0043385698286 2536.5594091405073" />
    <path d="M1681.0043385698286 2536.5594091405073 L333.3158045429407 2861.7295419209604" />
    <path d="M333.3158045429407 2861.7295419209604 L828.807993577694 715.5170792206827" />
    <path d="M838.2299025443241 727.556538989762 L1966.6808490791996 1345.309649632669" />
    <path d="M1966.6808490791996 1345.309649632669 L1682.472364335406 2552.299930123625" />
    <path d="M1682.472364335406 2552.299930123625 L333.37784147255326 2871.5865856253095" />
    <path d="M333.37784147255326 2871.5865856253095 L838.2299025443241 727.556538989762" />
    <path d="M847.5466468246152 739.6693512034428 L1973.291403436444 1362.3403617743693" />
    <path d="M1973.291403436444 1362.3403617743693 L1683.8191522551215 2568.0790630674883" />
    <path d="M1683.8191522551215 2568.0790630674883 L333.344325371341 2881.476162532725" />
    <path d="M333.344325371341 2881.476162532725 L847.5466468246152 739.6693512034428" />
    <path d="M856.7577666796724 751.8548267275619 L1979.7749008110145 1379.4318824680274" />
    <path d="M1979.7749008110145 1379.4318824680274 L1685.04439432656 2583.8960490364716" />
    <path d="M1685.04439432656 2583.8960490364716 L333.2149745158885 2891.397625836239" />
    <path d="M333.2149745158885 2891.397625836239 L856.7577666796724 751.8548267275619" />
    <path d="M865.8628063849063 764.1122738168854 L1986.1309374083226 1396.5834265643814" />
    <path d="M1986.1309374083226 1396.5834265643814 L1686.1477868647344 2599.7501271466167" />
    <path d="M1686.1477868647344 2599.7501271466167 L332.989511010705 2901.3503268941467" />
    <path d="M332.989511010705 2901.3503268941467 L865.8628063849063 764.1122738168854" />
    <path d="M874.8613142440469 776.4409981370313 L1992.359113869154 1413.7942065524974" />
    <path d="M1992.359113869154 1413.7942065524974 L1687.1290305132025 2615.6405345888725" />
    <path d="M1687.1290305132025 2615.6405345888725 L332.66766079885156 2911.333615251109" />
    <path d="M332.66766079885156 2911.333615251109 L874.8613142440469 776.4409981370313" />
    <path d="M883.7528426030419 788.8403027864664 L1998.4590352825735 1431.0634325835385" />
    <path d="M1998.4590352825735 1431.0634325835385 L1687.9878302550662 2631.566506652392" />
    <path d="M1687.9878302550662 2631.566506652392 L332.24915367245893 2921.3468386593113" />
    <path d="M332.24915367245893 2921.3468386593113 L883.7528426030419 788.8403027864664" />
    <path d="M892.5369478638416 801.3094883185713 L2004.4303111987037 1448.3903124946034" />
    <path d="M2004.4303111987037 1448.3903124946034 L1688.7238954238496 2647.5272767478928" />
    <path d="M1688.7238954238496 2647.5272767478928 L331.73372328313286 2931.389343099683" />
    <path d="M331.73372328313286 2931.389343099683 L892.5369478638416 801.3094883185713" />
    <path d="M901.2131904980661 813.8478527637808 L2010.2725556413802 1465.7740518326273" />
    <path d="M2010.2725556413802 1465.7740518326273 L1689.3369397142546 2663.5220764310716" />
    <path d="M1689.3369397142546 2663.5220764310716 L331.12110715224713 2941.460472803168" />
    <path d="M331.12110715224713 2941.460472803168 L901.2131904980661 813.8478527637808" />
    <path d="M909.7811350605576 826.4546916517921 L2015.9853871206865 1483.213853878354" />
    <path d="M2015.9853871206865 1483.213853878354 L1689.8266811927979 2679.5501354260823" />
    <path d="M1689.8266811927979 2679.5501354260823 L330.4110466811252 2951.5595702720575" />
    <path d="M330.4110466811252 2951.5595702720575 L909.7811350605576 826.4546916517921" />
    <path d="M918.240350202816 839.1292980338451 L2021.5684286453593 1500.7089196703719" />
    <path d="M2021.5684286453593 1500.7089196703719 L1690.192842308321 2695.6106816490637" />
    <path d="M1690.192842308321 2695.6106816490637 L329.60328716110894 2961.6859763013717" />
    <path d="M329.60328716110894 2961.6859763013717 L918.240350202816 839.1292980338451" />
    <path d="M926.5904086863178 851.8709625050708 L2027.021307735075 1518.2584480292126" />
    <path d="M2027.021307735075 1518.2584480292126 L1690.4351499023828 2711.702941231735" />
    <path d="M1690.4351499023828 2711.702941231735 L328.6975777835143 2971.8390300003043" />
    <path d="M328.6975777835143 2971.8390300003043 L926.5904086863178 851.8709625050708" />
    <path d="M934.830887395718 864.6789732269091 L2032.3436564326084 1535.8616355815186" />
    <path d="M2032.3436564326084 1535.8616355815186 L1690.5533352195293 2727.8261385450337" />
    <path d="M1690.5533352195293 2727.8261385450337 L327.69367164947465 2982.0180688137125" />
    <path d="M327.69367164947465 2982.0180688137125 L934.830887395718 864.6789732269091" />
    <path d="M942.9613673519347 877.552615949596 L2037.5351113158663 1553.517676784271" />
    <path d="M2037.5351113158663 1553.517676784271 L1690.5471339174362 2743.9794962228225" />
    <path d="M1690.5471339174362 2743.9794962228225 L326.59132577966943 2992.222428543668" />
    <path d="M326.59132577966943 2992.222428543668 L942.9613673519347 877.552615949596" />
    <path d="M950.9814337251149 890.4911740347171 L2042.595313509797 1571.225763949082" />
    <path d="M2042.595313509797 1571.225763949082 L1690.416286076933 2760.1622351856413" />
    <path d="M1690.416286076933 2760.1622351856413 L325.39030112394136 3002.4514433710565" />
    <path d="M325.39030112394136 3002.4514433710565 L950.9814337251149 890.4911740347171" />
    <path d="M958.8906758474841 903.4939284778288 L2047.5239086981728 1588.9850872665493" />
    <path d="M2047.5239086981728 1588.9850872665493 L1690.1605362119021 2776.373574664519" />
    <path d="M1690.1605362119021 2776.373574664519 L324.0903625707968 3012.704445877233" />
    <path d="M324.0903625707968 3012.704445877233 L958.8906758474841 903.4939284778288" />
    <path d="M966.6886872260757 916.5601579311463 L2052.3205471352485 1606.7948348306732" />
    <path d="M2052.3205471352485 1606.7948348306732 L1689.779633279055 2792.6127322248367" />
    <path d="M1689.779633279055 2792.6127322248367 L322.69127895679424 3022.9807670657256" />
    <path d="M322.69127895679424 3022.9807670657256 L966.6886872260757 916.5601579311463" />
    <path d="M974.375065555342 929.6891387262971 L2056.984883657291 1624.6541926633342" />
    <path d="M2056.984883657291 1624.6541926633342 L1689.2733306875834 2808.8789237902456" />
    <path d="M1689.2733306875834 2808.8789237902456 L321.19282307581784 3033.2797363839936" />
    <path d="M321.19282307581784 3033.2797363839936 L974.375065555342 929.6891387262971" />
    <path d="M981.9494127296472 942.8801448971409 L2061.5165776939843 1642.562344738832" />
    <path d="M2061.5165776939843 1642.562344738832 L1688.641386308686 2825.171363666633" />
    <path d="M1688.641386308686 2825.171363666633 L319.59477168823497 3043.6006817452353" />
    <path d="M319.59477168823497 3043.6006817452353 L981.9494127296472 942.8801448971409" />
    <path d="M989.4113348556391 956.1324482026525 L2065.915293279706 1660.5184730084827" />
    <path d="M2065.915293279706 1660.5184730084827 L1687.8835624849726 2841.4892645661475" />
    <path d="M1687.8835624849726 2841.4892645661475 L317.89690552994074 3053.942929550247" />
    <path d="M317.89690552994074 3053.942929550247 L989.4113348556391 956.1324482026525" />
    <path d="M996.7604422645026 969.4453181498708 L2070.180699064678 1678.521757425278" />
    <path d="M2070.180699064678 1678.521757425278 L1686.999626039743 2857.831837631268" />
    <path d="M1686.999626039743 2857.831837631268 L316.09900932128517 3064.3058047093286" />
    <path d="M316.09900932128517 3064.3058047093286 L996.7604422645026 969.4453181498708" />
    <path d="M1003.9963495240921 982.818022016909 L2074.3124683259884 1696.5713759686016" />
    <path d="M2074.3124683259884 1696.5713759686016 L1685.989348286139 2874.1982924589292" />
    <path d="M1685.989348286139 2874.1982924589292 L314.2008717758865 3074.688630664243" />
    <path d="M314.2008717758865 3074.688630664243 L1003.9963495240921 982.818022016909" />
    <path d="M1011.1186754509445 996.2498248760306 L2078.3102789784866 1714.6665046690025" />
    <path d="M2078.3102789784866 1714.6665046690025 L1684.8525050361725 2890.5878371246895" />
    <path d="M1684.8525050361725 2890.5878371246895 L312.2022856093281 3085.090729410219" />
    <path d="M312.2022856093281 3085.090729410219 L1011.1186754509445 996.2498248760306" />
    <path d="M1018.1270431221694 1009.7399896167851 L2082.1738135855503 1732.8063176330284" />
    <path d="M2082.1738135855503 1732.8063176330284 L1683.58887660963 2906.9996782069593" />
    <path d="M1683.58887660963 2906.9996782069593 L310.1030475477388 3095.5114215180047" />
    <path d="M310.1030475477388 3095.5114215180047 L1018.1270431221694 1009.7399896167851" />
    <path d="M1025.0210798872213 1023.287776969207 L2085.902759369722 1750.9899870681138" />
    <path d="M2085.902759369722 1750.9899870681138 L1682.1982478428476 2923.4330208112665" />
    <path d="M1682.1982478428476 2923.4330208112665 L307.9029583362577 3105.9500261559688" />
    <path d="M307.9029583362577 3105.9500261559688 L1025.0210798872213 1023.287776969207" />
    <path d="M1031.800417379548 1036.8924455270749 L2089.4968082232185 1769.2166833075253" />
    <path d="M2089.4968082232185 1769.2166833075253 L1680.6804080973625 2939.8870685945776" />
    <path d="M1680.6804080973625 2939.8870685945776 L305.6018227473818 3116.4058611122473" />
    <path d="M305.6018227473818 3116.4058611122473 L1031.800417379548 1036.8924455270749" />
    <path d="M1038.4646915281173 1050.553251771232 L2092.955656718313 1787.4855748353611" />
    <path d="M2092.955656718313 1787.4855748353611 L1679.0351512684374 2956.361023789662" />
    <path d="M1679.0351512684374 2956.361023789662 L303.199449589198 3126.878242816937" />
    <path d="M303.199449589198 3126.878242816937 L1038.4646915281173 1050.553251771232" />
    <path d="M1045.013542568824 1064.2694500929656 L2096.279006117584 1805.7958283116072" />
    <path d="M2096.279006117584 1805.7958283116072 L1677.2622757934582 2972.8540872295066" />
    <path d="M1677.2622757934582 2972.8540872295066 L300.695651713496 3137.3664863643307" />
    <path d="M300.695651713496 3137.3664863643307 L1045.013542568824 1064.2694500929656" />
    <path d="M1051.4466150557723 1078.0402928174458 L2099.466562384036 1824.1466085972463" />
    <path d="M2099.466562384036 1824.1466085972463 L1675.361584660207 2989.3654583717725" />
    <path d="M1675.361584660207 2989.3654583717725 L298.0902460237661 3147.8699055352067" />
    <path d="M298.0902460237661 3147.8699055352067 L1051.4466150557723 1078.0402928174458" />
    <path d="M1057.7635578724357 1091.8650302272245 L2102.5180361910952 1842.5370787794202" />
    <path d="M2102.5180361910952 1842.5370787794202 L1673.332885415004 3005.8943353233003" />
    <path d="M1673.332885415004 3005.8943353233003 L295.383053483078 3158.3878128191495" />
    <path d="M295.383053483078 3158.3878128191495 L1057.7635578724357 1091.8650302272245" />
    <path d="M1063.9640242426967 1105.7429105857886 L2105.4331429324657 1860.9664001966457" />
    <path d="M2105.4331429324657 1860.9664001966457 L1671.175990170726 3022.439914864659" />
    <path d="M1671.175990170726 3022.439914864659 L292.57389912184306 3168.919519436926" />
    <path d="M292.57389912184306 3168.919519436926 L1063.9640242426967 1105.7429105857886" />
    <path d="M1070.0476717417594 1119.6731801611759 L2108.2116027318634 1879.4337324640837" />
    <path d="M2108.2116027318634 1879.4337324640837 L1668.8907156146956 3039.001392474738" />
    <path d="M1668.8907156146956 3039.001392474738 L289.6626120454572 3179.464335362898" />
    <path d="M289.6626120454572 3179.464335362898 L1070.0476717417594 1119.6731801611759" />
    <path d="M1076.0141623069412 1133.6550832496425 L2110.853140452615 1897.9382334988559" />
    <path d="M2110.853140452615 1897.9382334988559 L1666.476883016443 3055.5779623553863" />
    <path d="M1666.476883016443 3055.5779623553863 L286.6490254418263 3190.021569347479" />
    <path d="M286.6490254418263 3190.021569347479 L1076.0141623069412 1133.6550832496425" />
    <path d="M1081.8631622483406 1147.6878621993892 L2113.357485707129 1916.4790595454183" />
    <path d="M2113.357485707129 1916.4790595454183 L1663.934318235339 3072.1688174560877" />
    <path d="M1663.934318235339 3072.1688174560877 L283.53297658877375 3200.5905289396333" />
    <path d="M283.53297658877375 3200.5905289396333 L1081.8631622483406 1147.6878621993892" />
    <path d="M1087.5943422593803 1161.7707574343433 L2115.7243728662315 1935.0553652009792" />
    <path d="M2115.7243728662315 1935.0553652009792 L1661.2628517281032 3088.7731494986892" />
    <path d="M1661.2628517281032 3088.7731494986892 L280.3143068613281 3211.170520509416" />
    <path d="M280.3143068613281 3211.170520509416 L1087.5943422593803 1161.7707574343433" />
    <path d="M1093.2073774272258 1175.903007477994 L2117.9535410683748 1953.6663034409703" />
    <path d="M2117.9535410683748 1953.6663034409703 L1658.462318556178 3105.3901490021562" />
    <path d="M1658.462318556178 3105.3901490021562 L276.9928617388931 3221.760849270552" />
    <path d="M276.9928617388931 3221.760849270552 L1093.2073774272258 1175.903007477994" />
    <path d="M1098.70194724308 1190.0838489772825 L2120.0447342287107 1972.311025644566" />
    <path d="M2120.0447342287107 1972.311025644566 L1655.5325583929798 3122.019005307382" />
    <path d="M1655.5325583929798 3122.019005307382 L273.5684908122977 3232.3608193030595" />
    <path d="M273.5684908122977 3232.3608193030595 L1098.70194724308 1190.0838489772825" />
    <path d="M1104.077735612353 1204.3125167265468 L2121.9977010480347 1990.98868162025" />
    <path d="M2121.9977010480347 1990.98868162025 L1652.4734155310182 3138.658906602032" />
    <path d="M1652.4734155310182 3138.658906602032 L270.04104779072736 3242.9697335759065" />
    <path d="M270.04104779072736 3242.9697335759065 L1104.077735612353 1204.3125167265468" />
  </g>
</svg>