<?xml version="1.0" standalone="no"?>
<!DOCTYPE svg PUBLIC "-//W3C//DTD SVG 1.1//EN" 
    "http://www.w3.org/Graphics/SVG/1.1/DTD/svg11.dtd">
<svg width="21cm" height="29.7cm"
    xmlns="http://www.w3.org/2000/svg" version="1.1" viewBox="0 0 744.09449 1052.3622">
  <g fill="none" stroke="black" stroke-width="0.03cm">
    <path d="M367.08533 542.26377 L365.95051 541.87118 L363.83833 540.88948 L361.94138 539.66887 L360.26599 538.23711 L358.81848 536.62194 L357.6052 534.85113 L356.63248 532.95243 L355.90664 530.95359 L355.43403 528.88237 L355.22098 526.76653 L355.27382 524.63381 L355.59887 522.51198 L356.20249 520.42879 L357.09099 518.412 L358.27072 516.48935 L359.748 514.68861 L360.6002 513.84263 L360.6002 513.84263 L361.5076 513.05614 L363.41387 511.71779 L365.41942 510.68528 L367.49707 509.95023 L369.61959 509.50424 L371.7598 509.33891 L373.89049 509.44586 L375.98445 509.81669 L378.01448 510.44301 L379.95338 511.31642 L381.77395 512.42853 L383.44898 513.77096 L384.95127 515.3353 L386.25361 517.11316 L387.32881 519.09616 L388.14966 521.27589 L388.4562 522.43691" />
    <path d="M369.98898 551.34312 L368.71307 551.20659 L366.22717 550.75054 L363.83861 550.06142 L361.55873 549.15235 L359.39886 548.03644 L357.37033 546.7268 L355.48447 545.23655 L353.75264 543.57879 L352.18615 541.76664 L350.79635 539.81322 L349.59456 537.73163 L348.59213 535.53499 L347.80039 533.23641 L347.23068 530.84901 L346.89432 528.38589 L346.80266 525.86017 L346.85213 524.57793" />
    <path d="M358.73925 495.26204 L360.97603 494.38765 L365.46481 493.1423 L369.93587 492.53982 L374.34354 492.54617 L378.64219 493.12733 L382.78617 494.24925 L386.72985 495.87789 L390.42757 497.97922 L393.8337 500.51921 L396.90259 503.46381 L399.58859 506.77899 L401.84607 510.43071 L403.62939 514.38494 L404.89289 518.60763 L405.59094 523.06477 L405.67788 527.72229 L405.47793 530.11557 L405.47793 530.11557 L405.17552 532.16 L404.23027 536.089 L402.85873 539.78852 L401.09403 543.23897 L398.9693 546.42076 L396.5177 549.31432 L393.77235 551.90004 L390.76639 554.15835 L387.53296 556.06965 L384.10519 557.61437 L380.51621 558.7729 L376.79918 559.52567 L372.98722 559.85309 L369.11346 559.73557 L365.21105 559.15352 L361.31313 558.08735 L359.3762 557.36661" />
    <path d="M342.05705 496.66767 L343.13391 495.6098 L345.35571 493.63907 L347.6611 491.85982 L350.04149 490.26983 L352.48825 488.86685 L354.99278 487.64866 L357.54646 486.61302 L360.14068 485.7577 L364.08919 484.80792 L369.41539 484.15182 L374.74875 484.17677 L380.02039 484.86492 L385.1614 486.1984 L390.1029 488.15933 L394.776 490.72985 L399.1118 493.89209 L402.10086 496.64133 L403.95228 498.64976 L405.68062 500.79607 L407.27728 503.07803 L408.73364 505.4934 L410.04109 508.03994 L411.19102 510.71543 L412.17482 513.51763 L412.60173 514.96555 L412.60173 514.96555 L412.98662 516.46333 L413.58672 519.47277 L413.96348 522.49145 L414.12037 525.50826 L414.06087 528.51211 L413.78845 531.4919 L413.30661 534.43653 L412.6188 537.3349 L411.72852 540.17592 L410.63924 542.94848 L409.35443 545.64149 L407.87758 548.24385 L406.21217 550.74445 L404.36166 553.13221 L402.32955 555.39603 L400.1193 557.5248 L398.94846 558.53507" />
    <path d="M362.03763 476.69108 L363.81895 476.36204 L367.35192 475.89391 L370.83946 475.67235 L374.2745 475.68936 L377.64999 475.93694 L380.95884 476.40709 L384.19401 477.09179 L387.34842 477.98305 L390.415 479.07287 L393.38671 480.35324 L396.25646 481.81615 L399.0172 483.4536 L401.66186 485.2576 L404.18338 487.22013 L406.57469 489.33318 L408.82872 491.58877 L410.93842 493.97888 L412.89671 496.49551 L414.69654 499.13066 L416.33083 501.87632 L417.79253 504.72448 L419.07457 507.66716 L420.16988 510.69633 L421.0714 513.804 L421.77206 516.98217 L422.2648 520.22283 L422.54256 523.51797 L422.59827 526.85959 L422.42486 530.2397 L422.01528 533.65028 L421.36245 537.08333 L420.45931 540.53085 L419.91167 542.25753 L419.91167 542.25753 L419.10723 544.47912 L417.20279 548.77416 L414.92041 552.85239 L412.2794 556.69061 L409.2991 560.26564 L405.99884 563.55428 L402.39796 566.53335 L398.51578 569.17966 L396.47524 570.37078" />
    <path d="M430.27462 535.10658 L429.91914 537.18982 L429.01207 541.2475 L427.85319 545.15633 L426.45411 548.91178 L424.82643 552.50934 L422.98175 555.94448 L420.93169 559.21269 L418.68785 562.30944 L416.26184 565.2302 L413.66525 567.97047 L410.90969 570.52571 L408.00678 572.89141 L404.96811 575.06304 L401.80529 577.03609 L398.52992 578.80603 L395.15362 580.36834 L391.68798 581.7185 L388.14462 582.852 L384.53513 583.76429 L380.87112 584.45088 L377.1642 584.90723 L373.42597 585.12882 L369.66804 585.11113 L365.90202 584.84965 L362.1395 584.33985 L358.3921 583.5772 L354.67141 582.55719 L350.98905 581.2753 L347.35662 579.72701 L343.78573 577.90778 L340.28797 575.81311 L336.87497 573.43847 L335.20387 572.14475 L335.20387 572.14475 L333.45093 570.68334 L330.14817 567.59074 L327.1208 564.28686 L324.37427 560.78983 L321.91402 557.11778 L319.74552 553.28881 L317.87419 549.32105 L316.30551 545.23262 L315.04491 541.04165 L314.09786 536.76624 L313.46979 532.42453 L313.16616 528.03463 L313.19242 523.61466 L313.55402 519.18274 L314.25641 514.757 L315.30505 510.35555 L315.96091 508.1696" />
    <path d="M437.80477 540.61412 L437.09102 543.5527 L435.29759 549.25393 L433.03783 554.70378 L430.33762 559.88208 L427.22284 564.76865 L423.71939 569.34332 L419.85313 573.58593 L415.64997 577.4763 L411.13577 580.99425 L406.33644 584.11962 L401.27785 586.83223 L395.98588 589.11192 L390.48642 590.9385 L384.80536 592.29181 L378.96858 593.15167 L373.00197 593.49792 L369.97806 593.47213" />
    <path d="M341.18299 595.34519 L339.32836 594.48808 L335.72293 592.64553 L332.25799 590.63785 L328.93605 588.47221 L325.75957 586.15577 L322.73105 583.6957 L319.85297 581.09916 L317.12782 578.37333 L314.55808 575.52536 L312.14623 572.56242 L309.89477 569.49169 L307.80617 566.32032 L305.88293 563.05548 L304.12752 559.70434 L302.54244 556.27407 L301.13016 552.77182 L299.89318 549.20478 L298.83397 545.5801 L297.95503 541.90495 L297.25883 538.1865 L296.74787 534.43191 L296.42462 530.64835 L296.29158 526.84298 L296.35123 523.02298 L296.60605 519.1955 L297.05853 515.36772 L297.71116 511.5468 L298.56641 507.73991 L299.62678 503.95421 L300.89475 500.19687 L302.3728 496.47506 L304.06343 492.79594 L304.98923 490.97463" />
    <path d="M365.70189 610.09508 L362.69568 609.81657 L356.8168 608.96831 L351.12241 607.74511 L345.62022 606.16299 L340.31792 604.238 L335.22324 601.98616 L330.34387 599.42352 L325.68754 596.56611 L321.26195 593.42996 L317.0748 590.03112 L313.13381 586.38561 L309.44669 582.50948 L306.02114 578.41876 L302.86488 574.12948 L299.98561 569.65769 L297.39104 565.01941 L295.08889 560.23068 L293.08685 555.30755 L291.39265 550.26604 L290.01399 545.12219 L288.95858 539.89204 L288.23412 534.59162 L287.84834 529.23697 L287.80893 523.84412 L288.1236 518.42912 L288.80007 513.00799 L289.84604 507.59677 L291.26923 502.2115 L293.07734 496.86822 L295.27808 491.58296 L297.87916 486.37175 L300.88829 481.25064 L302.54829 478.72887 L302.54829 478.72887 L304.68835 475.73702 L309.32676 470.07417 L314.41509 464.85922 L319.91996 460.11623 L325.80798 455.86928 L332.04579 452.14245 L338.6 448.95981 L345.43723 446.34543 L348.95155 445.25887" />
    <path d="M437.61068 460.83253 L439.09696 462.35794 L441.94521 465.4875 L444.62733 468.71702 L447.14286 472.04054 L449.49134 475.45207 L451.6723 478.94564 L453.6853 482.51528 L455.52986 486.155 L457.20553 489.85882 L458.71185 493.62078 L460.65278 499.35963 L462.64367 507.1591 L463.94887 515.08349 L464.5647 523.085 L464.48748 531.11579 L463.71354 539.12805 L462.67363 545.09632 L461.76072 549.04447 L460.67155 552.96109 L459.40568 556.84021 L457.96262 560.67583 L456.34194 564.462 L454.54316 568.19272 L452.56583 571.86203 L450.40949 575.46394 L448.07368 578.99248 L446.83832 580.72737" />
    <path d="M455.04483 583.70693 L453.21296 586.26416 L449.33725 591.17526 L445.19179 595.80856 L440.79198 600.15613 L436.15325 604.21003 L431.29102 607.96232 L426.22072 611.40507 L420.95776 614.53035 L415.51757 617.3302 L409.91557 619.7967 L404.16718 621.92191 L398.28782 623.6979 L392.29292 625.11672 L386.19789 626.17043 L380.01817 626.85111 L373.76916 627.15081 L370.62349 627.15532" />
    <path d="M471.17842 572.45512 L469.4584 575.98296 L465.72558 582.74243 L461.62155 589.10526 L457.16936 595.06945 L452.39205 600.633 L447.31267 605.79389 L441.95426 610.55012 L436.33987 614.89969 L430.49253 618.84058 L424.43529 622.37079 L418.19119 625.48831 L411.78328 628.19114 L405.2346 630.47727 L398.5682 632.34469 L391.80711 633.79139 L384.97438 634.81538 L378.09306 635.41464 L371.18618 635.58716 L364.27679 635.33094 L357.38794 634.64398 L350.54266 633.52426 L343.76401 631.96978 L337.07502 629.97853 L330.49873 627.54851 L324.0582 624.6777 L317.77646 621.36411 L311.67656 617.60572 L305.78153 613.40053 L300.11444 608.74653 L294.69831 603.64172 L289.55619 598.08409 L284.71112 592.07163 L282.40718 588.89421 L282.40718 588.89421 L280.41803 585.95476 L276.76783 579.97712 L273.54998 573.88182 L270.75834 567.68564 L268.38676 561.40535 L266.42909 555.05774 L264.87919 548.6596 L263.73092 542.2277 L262.97813 535.77883 L262.61467 529.32978 L262.6344 522.89732 L263.03118 516.49824 L263.79886 510.14932 L264.93128 503.86734 L266.42232 497.66909 L268.26582 491.57135 L270.45564 485.5909 L272.98563 479.74453 L275.84965 474.04901 L279.04154 468.52114 L282.55518 463.17768 L286.38441 458.03544 L290.52308 453.11118 L294.96506 448.4217 L299.70419 443.98377 L304.73433 439.81418 L310.04934 435.92971 L315.64306 432.34714 L321.50937 429.08326 L327.6421 426.15484 L334.03511 423.57868 L340.68227 421.37156 L344.09923 420.41163" />
    <path d="M385.98955 643.16818 L381.78468 643.59735 L373.47975 644.01954 L365.327 643.87685 L357.34135 643.18922 L349.53772 641.97659 L341.93103 640.25891 L334.53621 638.05614 L327.36817 635.38821 L320.44183 632.27507 L313.77212 628.73668 L307.37395 624.79298 L301.26225 620.46391 L295.45192 615.76942 L289.95791 610.72946 L284.79512 605.36398 L279.97847 599.69292 L275.52289 593.73624 L271.4433 587.51387 L267.75461 581.04576 L264.47175 574.35187 L261.60963 567.45213 L259.18319 560.3665 L257.20733 553.11493 L255.69698 545.71735 L254.66706 538.19372 L254.13248 530.56398 L254.10818 522.84809 L254.60906 515.06598 L255.65005 507.23761 L257.24608 499.38292 L259.41205 491.52186 L262.16289 483.67437 L263.76231 479.76196 L263.76231 479.76196 L265.49307 475.90585 L269.27991 468.50247 L273.47986 461.51332 L278.06819 454.94137 L283.02017 448.78954 L288.31107 443.06079 L293.91614 437.75808 L299.81065 432.88434 L305.96987 428.44252 L312.36907 424.43558 L318.9835 420.86645 L325.78844 417.73809 L332.75914 415.05345 L339.87088 412.81547 L347.09892 411.0271 L354.41853 409.6913 L361.80496 408.81099 L369.23349 408.38915 L376.67937 408.4287 L384.11789 408.93261 L391.52429 409.90381 L398.87385 411.34526 L406.14183 413.25991 L413.30349 415.65069 L420.33411 418.52057 L427.20894 421.87248 L433.90325 425.70938 L440.39231 430.03421 L446.65139 434.84993 L452.65574 440.15947 L458.38063 445.96579 L463.80133 452.27183 L466.38987 455.61317" />
    <path d="M246.05503 533.93053 L245.85347 529.40639 L245.91045 520.49694 L246.56237 511.78487 L247.78696 503.28492 L249.56198 495.01182 L251.86517 486.98031 L254.67429 479.20514 L257.96708 471.70104 L261.7213 464.48274 L265.9147 457.565 L270.52501 450.96254 L275.53 444.6901 L280.90742 438.76243 L286.635 433.19425 L292.6905 428.00032 L299.05168 423.19536 L305.69627 418.79412 L312.60203 414.81133 L319.74671 411.26174 L327.10806 408.16007 L334.66382 405.52108 L342.39175 403.35949 L350.2696 401.69005 L358.27511 400.5275 L366.38604 399.88656 L374.58013 399.78199 L382.83513 400.22851 L391.1288 401.24088 L399.43888 402.83382 L407.74312 405.02207 L416.01927 407.82038 L424.24508 411.24348 L428.33215 413.19393 L428.33215 413.19393 L430.76509 414.43861 L435.52093 417.06756 L440.1276 419.87744 L444.58216 422.86201 L448.88167 426.01503 L453.02318 429.33024 L457.00375 432.80142 L460.82044 436.42232 L464.47031 440.18669 L467.95041 444.0883 L471.25781 448.1209 L474.38956 452.27825 L477.34271 456.5541 L480.11434 460.94222 L482.70148 465.43637 L485.10121 470.03029 L487.31058 474.71775 L489.32665 479.49251 L491.14647 484.34832 L492.76711 489.27894 L494.18561 494.27813 L495.39905 499.33965 L496.40447 504.45725 L497.19894 509.6247 L497.77951 514.83574 L498.14324 520.08414 L498.28718 525.36366 L498.20841 530.66805 L497.90396 535.99107 L497.37091 541.32649 L496.60631 546.66804 L495.60721 552.00951 L495.01881 554.67825" />
    <path d="M302.07326 411.1459 L306.2421 408.70565 L314.67762 404.32837 L323.22276 400.61063 L331.85257 397.53879 L340.54206 395.09917 L349.26627 393.2781 L358.00021 392.06192 L366.71891 391.43696 L375.39741 391.38956 L384.01072 391.90605 L392.53387 392.97277 L400.9419 394.57604 L409.20982 396.70221 L417.31266 399.3376 L425.22545 402.46855 L432.92321 406.08139 L440.38098 410.16246 L447.57377 414.69809 L454.47662 419.67462 L461.06454 425.07837 L467.31257 430.89569 L473.19574 437.1129 L478.68906 443.71635 L483.76757 450.69235 L488.40629 458.02725 L492.58025 465.70739 L496.26447 473.71909 L499.43398 482.04869 L502.06381 490.68252 L504.12898 499.60692 L505.60452 508.80821 L506.46546 518.27275 L506.65764 523.09945 L506.65764 523.09945 L506.69003 527.41837 L506.35972 535.93769 L505.51688 544.28838 L504.17862 552.45763 L502.36205 560.43267 L500.08428 568.20073 L497.36243 575.74901 L494.2136 583.06473 L490.65491 590.13512 L486.70346 596.94739 L482.37637 603.48876 L477.69074 609.74645 L472.6637 615.70768 L467.31234 621.35966 L461.65378 626.68961 L455.70514 631.68476 L449.48351 636.33231 L443.00601 640.61949 L436.28976 644.53352 L429.35186 648.06162 L422.20942 651.19099 L414.87956 653.90887 L407.37938 656.20247 L399.726 658.059 L391.93653 659.46569 L384.02807 660.40976 L376.01774 660.87842 L367.92265 660.85889 L359.75991 660.33839 L351.54663 659.30413 L343.29992 657.74334 L335.03689 655.64324 L330.90461 654.38695" />
    <path d="M333.80938 388.32494 L338.77758 387.03693 L348.66833 385.00367 L358.48026 383.67642 L368.19177 383.03396 L377.78131 383.05511 L387.22728 383.71867 L396.50813 385.00343 L405.60226 386.88819 L414.48812 389.35176 L423.14411 392.37293 L431.54867 395.93051 L439.68023 400.00329 L447.5172 404.57008 L455.03801 409.60968 L462.22108 415.10087 L469.04485 421.02248 L475.48773 427.35329 L481.52816 434.0721 L487.14455 441.15772 L492.31533 448.58895 L497.01892 456.34458 L501.23375 464.40342 L504.93825 472.74427 L508.11084 481.34592 L510.72994 490.18718 L512.77399 499.24684 L514.22139 508.50372 L515.05059 517.9366 L515.24 527.52428 L514.76804 537.24558 L513.61315 547.07928 L511.75375 557.00419 L510.55312 561.99422 L510.55312 561.99422 L509.72033 565.07299 L507.85241 571.1635 L505.71799 577.15747 L503.32102 583.04631 L500.66546 588.82144 L497.75524 594.47428 L494.59431 599.99623 L491.18664 605.37872 L489.3915 608.01497" />
    <path d="M222.6819 500.98016 L223.15796 498.29705 L224.23697 493.00197 L225.48202 487.80291 L226.88936 482.70127 L228.45525 477.69845 L230.17593 472.79583 L233.03897 465.63286 L237.36312 456.446 L242.2389 447.68513 L247.63631 439.36142 L253.52532 431.48606 L259.87592 424.07021 L266.6581 417.12505 L273.84185 410.66176 L281.39716 404.69151 L289.294 399.22548 L297.50236 394.27484 L305.99224 389.85078 L314.73361 385.96446 L323.69647 382.62706 L332.8508 379.84977 L342.16658 377.64374 L351.61381 376.02017 L361.16246 374.99022 L370.78253 374.56508 L380.444 374.75591 L390.11685 375.5739 L399.77108 377.03021 L409.37667 379.13603 L418.90361 381.90254 L428.32188 385.3409 L437.60146 389.46229 L444.45209 393.00829 L448.9602 395.59157 L453.41676 398.35189 L457.81802 401.29065 L462.16021 404.40924 L466.4396 407.70908 L468.55457 409.42739 L468.55457 409.42739 L470.64018 411.18123 L474.68635 414.76321 L478.56634 418.44099 L482.28082 422.2106 L485.83045 426.06811 L489.21591 430.00957 L493.9877 436.07053 L499.78168 444.40878 L504.93092 453.01177 L509.44076 461.84791 L513.31652 470.88562 L516.56353 480.09333 L519.18713 489.43946 L521.19263 498.89241 L522.58536 508.42062 L523.37066 517.9925 L523.55386 527.57647 L523.14027 537.14095 L522.13523 546.65436 L520.54407 556.08512 L518.37212 565.40165 L515.6247 574.57237 L512.30714 583.56569 L508.42478 592.35004 L503.98293 600.89384 L498.98693 609.1655 L493.4421 617.13345 L487.35378 624.7661 L480.72729 632.03187 L473.56797 638.89919 L465.88113 645.33647 L457.6721 651.31213 L451.17586 655.47194 L446.68462 658.08444 L442.06583 660.56378 L437.32017 662.906 L432.44828 665.10715 L427.45085 667.1633 L424.90526 668.13576" />
    <path d="M506.59821 612.56052 L505.02386 614.96782 L501.78148 619.66078 L498.41771 624.1917 L494.93677 628.56077 L491.34288 632.7682 L487.64027 636.81418 L483.83316 640.69892 L479.92576 644.42261 L475.92231 647.98546 L471.82701 651.38765 L467.64409 654.6294 L463.37777 657.7109 L456.83116 662.03311 L447.84984 667.23703 L438.6109 671.80354 L429.14813 675.73423 L419.49527 679.03068 L409.6861 681.69448 L399.7544 683.72724 L389.73392 685.13054 L379.65844 685.90598 L369.56173 686.05514 L359.47755 685.57962 L349.43967 684.48102 L339.48187 682.76092 L329.63791 680.42091 L319.94155 677.4626 L310.42658 673.88757 L301.12675 669.69741 L292.07584 664.89372 L283.30761 659.47809 L274.85583 653.45211 L268.74499 648.53304 L264.78757 645.06375 L260.92826 641.44278 L257.17128 637.67031 L253.52085 633.74655 L249.9812 629.67169 L246.55653 625.44594 L243.25108 621.06949 L240.06906 616.54255 L237.0147 611.86531 L234.09222 607.03796 L231.30583 602.06072 L229.96499 599.51595 L229.96499 599.51595 L228.36695 596.33442 L225.4007 589.90904 L222.73925 583.40828 L220.38062 576.84137 L218.32287 570.21758 L216.56401 563.54613 L215.10209 556.8363 L213.93514 550.09732 L213.06119 543.33844 L212.47828 536.56891 L212.18445 529.79798 L212.17773 523.0349 L212.45615 516.28891 L213.01775 509.56927 L213.86056 502.88522 L214.98262 496.24601 L216.38196 489.66089 L218.05662 483.13911 L220.00463 476.68992 L222.22403 470.32256 L224.71285 464.04628 L227.46912 457.87034 L230.49089 451.80398 L233.77618 445.85644 L237.32303 440.03698 L241.12947 434.35485 L245.19355 428.8193 L249.51329 423.43956 L254.08672 418.2249 L258.9119 413.18455 L263.98684 408.32777 L269.30958 403.66381 L272.06326 401.40703" />
    <path d="M222.53987 603.47806 L221.17211 600.7768 L218.59678 595.35281 L216.23305 589.9033 L214.0785 584.43202 L212.13075 578.94271 L210.38738 573.43912 L208.846 567.92499 L207.5042 562.40406 L206.35959 556.88009 L205.40977 551.35681 L204.65233 545.83797 L204.08488 540.32732 L203.70502 534.8286 L203.51033 529.34555 L203.49843 523.88193 L203.66691 518.44147 L204.01338 513.02791 L204.53542 507.64502 L205.64246 499.63634 L207.71063 489.10035 L210.43793 478.75439 L213.80514 468.62841 L217.79306 458.75237 L222.38248 449.15624 L227.5542 439.86997 L233.28903 430.92352 L239.56774 422.34684 L246.37115 414.16991 L253.68004 406.42267 L261.47521 399.13509 L269.73746 392.33712 L278.44758 386.05873 L285.26253 381.70892 L289.9358 378.98702 L294.71022 376.41187 L299.58342 373.9872 L304.55297 371.71678 L309.6165 369.60433 L314.77158 367.6536 L320.01583 365.86834 L325.34684 364.2523 L330.76222 362.80922 L336.25955 361.54284 L341.83645 360.45691 L347.49051 359.55518 L353.21933 358.84138 L359.02051 358.31926 L364.89164 357.99258 L370.83034 357.86507 L376.8342 357.94047 L379.85981 358.05544 L379.85981 358.05544 L382.88304 358.22155 L388.86802 358.70325 L394.7693 359.38095 L400.58484 360.2507 L406.3126 361.30855 L411.95053 362.55054 L417.4966 363.97273 L422.94876 365.57117 L428.30497 367.3419 L433.56318 369.28096 L438.72135 371.38442 L443.77744 373.64832 L448.72941 376.06871 L453.57521 378.64163 L458.3128 381.36314 L462.94013 384.22928 L467.45517 387.2361 L471.85587 390.37965 L478.23807 395.34271 L486.32842 402.4018 L493.92464 409.93669 L501.01039 417.91577 L507.56933 426.30742 L513.58512 435.08005 L519.0414 444.20203 L523.92184 453.64175 L528.2101 463.36762 L531.88983 473.34801 L534.94469 483.55131 L537.35834 493.94592 L539.11442 504.50022 L540.19661 515.1826 L540.55618 523.25943 L540.57678 528.66754 L540.41972 534.08989 L540.08294 539.52254 L539.56441 544.96151 L538.86208 550.40288 L537.97392 555.84268 L536.89787 561.27696 L535.6319 566.70177 L534.17396 572.11316 L532.522 577.50718 L530.674 582.87988 L528.6279 588.22731 L526.38165 593.54551 L523.93323 598.83054 L521.28058 604.07843 L518.42166 609.28525 L515.35443 614.44704 L513.74206 617.00981" />
    <path d="M315.8766 358.62311 L318.77865 357.67659 L324.58189 355.94041 L330.38127 354.41115 L336.17354 353.08614 L341.95545 351.96271 L347.72375 351.03816 L353.47517 350.30982 L359.20647 349.77502 L364.9144 349.43108 L370.59569 349.27531 L376.2471 349.30505 L381.86537 349.5176 L387.44725 349.9103 L392.98948 350.48047 L398.48881 351.22542 L403.942 352.14248 L412.02812 353.83491 L422.61771 356.66888 L432.96413 360.14308 L443.04134 364.23608 L452.82332 368.92645 L462.28404 374.19278 L471.39746 380.01363 L480.13757 386.36759 L488.47833 393.23322 L496.39371 400.5891 L503.85768 408.4138 L510.84422 416.68591 L517.3273 425.38398 L523.28088 434.48661 L528.67893 443.97235 L533.49544 453.81979 L536.71052 461.42985 L538.65861 466.60509 L540.44667 471.8587 L542.07146 477.18801 L543.5297 482.59034 L544.81816 488.063 L545.93357 493.60332 L546.87268 499.20862 L547.63225 504.87623 L548.209 510.60346 L548.59971 516.38763 L548.80109 522.22608 L548.80992 528.11611 L548.62292 534.05506 L548.23685 540.04024 L547.64846 546.06898 L547.27737 549.09885" />
    <path d="M556.468 542.45959 L555.94641 547.56105 L554.48383 557.69147 L552.46797 567.70666 L549.90592 577.58437 L546.8048 587.30231 L543.1717 596.83823 L539.01374 606.16985 L534.33803 615.27492 L531.80823 619.73553" />
    <path d="M340.92642 335.14625 L344.36769 334.61547 L351.21652 333.73671 L358.0177 333.09836 L364.768 332.69646 L371.46418 332.52706 L378.103 332.58618 L384.68123 332.86988 L391.19562 333.37419 L397.64295 334.09514 L404.01997 335.02878 L410.32345 336.17115 L416.55015 337.51828 L422.69684 339.06621 L428.76028 340.81099 L434.73723 342.74864 L440.62445 344.87522 L446.41871 347.18675 L452.11677 349.67928 L457.7154 352.34885 L463.21135 355.19149 L468.6014 358.20325 L473.8823 361.38015 L479.05082 364.71825 L484.10372 368.21358 L489.03776 371.86217 L493.84972 375.66008 L498.53634 379.60333 L503.0944 383.68796 L507.52065 387.91002 L511.81187 392.26554 L515.96481 396.75056 L519.97623 401.36113 L523.84291 406.09327 L527.5616 410.94303 L531.12907 415.90645 L534.54208 420.97956 L537.79739 426.15841 L540.89177 431.43903 L543.82198 436.81746 L546.58478 442.28974 L549.17694 447.85191 L551.59522 453.50001 L553.83639 459.23008 L555.8972 465.03815 L557.77442 470.92027 L559.46481 476.87247 L560.96514 482.8908 L562.27217 488.97128 L563.38266 495.10997 L564.29337 501.30289 L565.00108 507.54609 L565.50254 513.83561 L565.79452 520.16748 L565.87377 526.53775 L565.73707 532.94245 L565.38117 539.37762 L564.80285 545.8393 L563.99885 552.32354 L562.96595 558.82635 L561.70091 565.3438 L560.20049 571.87191 L558.46146 578.40673 L556.48057 584.94429 L554.2546 591.48063 L553.04869 594.7471 L553.04869 594.7471 L551.96433 597.54419 L549.67334 603.07061 L547.22187 608.50445 L544.61298 613.843 L541.84976 619.08356 L538.93526 624.22343 L535.87254 629.25992 L532.66468 634.19032 L529.31474 639.01193 L525.82579 643.72206 L522.20088 648.318 L518.44309 652.79705 L512.56396 659.29056 L504.28865 667.51426 L495.53699 675.22182 L486.33351 682.39162 L479.14914 687.40308 L474.23115 690.56476 L469.21399 693.57985 L464.10074 696.44565 L458.89447 699.15946 L453.59824 701.71858 L448.21511 704.12032 L442.74814 706.36197 L437.20042 708.44082 L431.575 710.35419 L425.87495 712.09938 L420.10333 713.67367 L417.19164 714.39589" />
    <path d="M267.38811 698.91715 L264.29667 697.00816 L258.26434 693.06788 L252.43263 688.96901 L246.80145 684.71688 L241.37067 680.31682 L236.14019 675.77418 L231.10989 671.09428 L226.27966 666.28247 L221.64938 661.34408 L217.21894 656.28445 L212.98824 651.10891 L208.95715 645.82281 L205.12556 640.43147 L201.49337 634.94024 L198.06045 629.35445 L194.8267 623.67944 L191.792 617.92055 L188.95625 612.0831 L186.31932 606.17245 L183.8811 600.19392 L181.64148 594.15285 L179.60036 588.05458 L177.7576 581.90444 L176.11311 575.70777 L174.66678 569.46992 L173.41847 563.1962 L172.3681 556.89197 L171.51553 550.56256 L170.86066 544.2133 L170.40338 537.84953 L170.14357 531.47659 L170.08112 525.09982 L170.21592 518.72454 L170.54785 512.35611 L171.07681 505.99984 L171.80267 499.66109 L172.72533 493.34519 L173.84467 487.05747 L175.16058 480.80327 L176.67295 474.58793 L178.38166 468.41678 L180.28661 462.29516 L182.38767 456.22842 L184.68474 450.22187 L187.17771 444.28087 L189.86645 438.41074 L192.75086 432.61683 L195.83083 426.90446 L199.10623 421.27899 L202.57697 415.74574 L206.24292 410.31004 L210.10398 404.97725 L214.16003 399.75269 L218.41095 394.6417 L222.85664 389.64962 L227.49698 384.78178 L232.33186 380.04352 L237.36117 375.44018 L242.58479 370.97709 L248.00261 366.65959 L253.61451 362.49302 L259.4204 358.48271 L265.42014 354.634 L271.61364 350.95223 L274.783 349.17561 L274.783 349.17561 L277.98196 347.45284 L284.41051 344.19882 L290.87608 341.19786 L297.37413 338.44718 L303.90008 335.94401 L310.44937 333.68561 L317.01743 331.66919 L323.5997 329.89199 L330.19161 328.35124 L336.78859 327.04419 L343.38609 325.96806 L349.97954 325.12008 L356.56436 324.4975 L363.136 324.09754 L369.6899 323.91745 L376.22148 323.95444 L382.72617 324.20576 L389.19943 324.66865 L395.63667 325.34033 L402.03334 326.21803 L408.38487 327.299 L414.68669 328.58047 L420.93424 330.05967 L427.12295 331.73383 L433.24827 333.6002 L439.30561 335.65599 L445.29042 337.89845 L451.19814 340.32481 L457.02419 342.93231 L462.76402 345.71818 L468.41305 348.67965 L473.96673 351.81395 L479.42048 355.11833 L484.76974 358.59001 L490.00995 362.22623 L495.13653 366.02422 L500.14494 369.98122 L505.03059 374.09445 L509.78893 378.36117 L514.41539 382.77859 L518.9054 387.34395 L523.25441 392.05449 L527.45783 396.90744 L531.51112 401.90003 L535.4097 407.0295 L539.14901 412.29309 L542.72448 417.68802 L546.13154 423.21153 L549.36565 428.86085 L552.42221 434.63322 L555.29668 440.52588 L557.98449 446.53605 L560.48107 452.66097 L562.78186 458.89787 L564.88228 465.24399 L566.77778 471.69656 L568.4638 478.25282 L569.93576 484.91 L571.18909 491.66533 L572.21925 498.51605 L573.02165 505.45939 L573.59174 512.49259 L573.92494 519.61288 L574.01671 526.81748 L573.97062 530.45055" />
    <path d="M187.7905 627.7233 L186.29049 624.95253 L183.41595 619.34548 L182.04189 616.51014" />
    <path d="M187.17325 409.15674 L189.30653 405.84883 L193.70234 399.39866 L198.26568 393.16918 L202.99077 387.16013 L207.87182 381.37128 L212.90306 375.80241 L218.07872 370.45326 L223.39301 365.32362 L228.84016 360.41324 L234.41439 355.72188 L240.10991 351.24932 L245.92097 346.99531 L251.84176 342.95963 L257.86653 339.14203 L263.98949 335.54228 L270.20485 332.16014 L276.50685 328.99538 L282.88971 326.04777 L289.34765 323.31706 L295.87489 320.80303 L302.46565 318.50544 L309.11415 316.42404 L315.81462 314.55861 L322.56129 312.90892 L329.34836 311.47471 L336.17006 310.25577 L343.02063 309.25185 L349.89427 308.46273 L356.78521 307.88815 L363.68767 307.52789 L370.59588 307.38172 L377.50405 307.44939 L384.40641 307.73067 L391.29719 308.22533 L398.17059 308.93313 L405.02085 309.85384 L411.84219 310.98722 L418.62883 312.33303 L425.37499 313.89104 L432.07489 315.66101 L438.72276 317.64271 L445.31281 319.8359 L451.83928 322.24035 L458.29638 324.85582 L464.67833 327.68208 L470.97936 330.71889 L477.19369 333.96601 L483.31554 337.42322 L489.33914 341.09026 L495.2587 344.96692 L501.06844 349.05295 L506.7626 353.34812 L512.33538 357.85219 L517.78102 362.56493 L523.09374 367.4861 L528.26776 372.61546 L533.29729 377.95279 L538.17657 383.49784 L542.89981 389.25038 L547.46124 395.21017 L551.85508 401.37699 L556.07555 407.75058 L560.11687 414.33073 L563.97327 421.11719 L565.83031 424.58771 L565.83031 424.58771 L567.51112 427.85702 L570.69114 434.42564 L573.63101 441.03073 L576.33308 447.66804 L578.79971 454.33332 L581.03325 461.0223 L583.03606 467.73075 L584.81049 474.4544 L586.3589 481.18901 L587.68365 487.93032 L588.78708 494.67409 L589.67157 501.41604 L590.33945 508.15195 L590.79309 514.87754 L591.03485 521.58858 L591.06707 528.2808 L590.89212 534.94996 L590.51234 541.5918 L589.9301 548.20207 L589.14775 554.77652 L588.16765 561.31089 L586.99215 567.80094 L585.6236 574.2424 L584.06437 580.63104 L582.3168 586.96259 L580.38326 593.2328 L578.2661 599.43742 L575.96767 605.5722 L573.49033 611.63289 L570.83644 617.61523 L568.00835 623.51497 L565.00842 629.32786 L561.83899 635.04964 L558.50244 640.67607 L555.00111 646.20289 L551.33736 651.62584 L547.51354 656.94068 L543.53201 662.14316 L539.39513 667.22901 L535.10525 672.194 L530.66472 677.03386 L526.07591 681.74434 L521.34116 686.32119 L516.46284 690.76016 L511.4433 695.057 L506.28489 699.20745 L500.98997 703.20727 L495.56089 707.05219 L490.00002 710.73797 L484.3097 714.26035 L478.49229 717.61508 L472.55016 720.79791 L466.48564 723.80459 L460.3011 726.63086 L453.9989 729.27248 L447.58139 731.72518 L441.05092 733.98472 L434.40985 736.04684 L427.66054 737.90729 L420.80534 739.56183 L413.84661 741.00619 L406.7867 742.23612 L399.62796 743.24737 L392.37277 744.0357 L388.70973 744.34493" />
    <path d="M542.58551 676.32489 L539.70689 679.53306 L533.79687 685.75683 L527.69005 691.72201 L521.39471 697.42642 L514.91911 702.86786 L508.27154 708.04415 L501.46026 712.9531 L494.49354 717.59251 L487.37968 721.9602 L480.12693 726.05398 L472.74358 729.87166 L465.23789 733.41106 L457.61814 736.66997 L449.89261 739.64621 L442.06957 742.33759 L434.15729 744.74193 L426.16405 746.85703 L418.09812 748.6807 L409.96778 750.21076 L401.78129 751.44501 L393.54695 752.38126 L385.27301 753.01733 L376.96775 753.35103 L368.63945 753.38016 L360.29639 753.10254 L351.94683 752.51598 L343.59905 751.61829 L335.26132 750.40727 L326.94192 748.88075 L318.64913 747.03652 L310.39121 744.87241 L302.17644 742.38622 L298.08782 741.02166" />
    <path d="M172.67589 400.5924 L174.96544 397.025 L179.68413 390.06828 L184.58375 383.34883 L189.65808 376.86638 L194.90089 370.62072 L200.30597 364.61158 L205.86709 358.83874 L211.57803 353.30195 L217.43256 348.00098 L223.42446 342.93558 L229.54752 338.10552 L235.7955 333.51055 L242.16218 329.15043 L248.64135 325.02493 L255.22677 321.1338 L261.91223 317.47681 L268.6915 314.05372 L275.55836 310.86428 L282.50658 307.90825 L289.52995 305.1854 L296.62224 302.69548 L303.77723 300.43826 L310.9887 298.4135 L318.25041 296.62095 L325.55616 295.06038 L332.89971 293.73154 L340.27485 292.6342 L347.67535 291.76811 L355.09498 291.13305 L362.52753 290.72875 L369.96678 290.555 L377.40649 290.61154 L384.84045 290.89813 L392.26243 291.41455 L399.66622 292.16053 L407.04558 293.13586 L414.3943 294.34028 L421.70615 295.77356 L428.97492 297.43546 L436.19436 299.32574 L443.35828 301.44415 L450.46043 303.79046 L457.4946 306.36442 L464.45457 309.16581 L471.33411 312.19437 L478.127 315.44987 L484.82702 318.93207 L491.42794 322.64072 L497.92355 326.57559 L504.30761 330.73644 L510.5739 335.12303 L516.71622 339.73512 L522.72832 344.57247 L528.60398 349.63483 L534.337 354.92197 L539.92113 360.43366 L545.35016 366.16964 L550.61787 372.12968 L555.71803 378.31353 L560.64442 384.72097 L565.39082 391.35175 L569.951 398.20562 L574.31875 405.28236 L578.48783 412.58171 L580.49593 416.3148 L580.49593 416.3148 L582.44062 420.08131 L586.10596 427.64617 L589.47537 435.24909 L592.55217 442.88481 L595.33967 450.54805 L597.84119 458.23356 L600.06006 465.93605 L601.99959 473.65026 L603.6631 481.37092 L605.05391 489.09276 L606.17534 496.81051 L607.03071 504.51891 L607.62334 512.21268 L607.95655 519.88655 L608.03365 527.53525 L607.85797 535.15352 L607.43282 542.73609 L606.76153 550.27769 L605.84741 557.77304 L604.69378 565.21688 L603.30397 572.60394 L601.68128 579.92896 L599.82905 587.18665 L597.75058 594.37176 L595.44921 601.479 L592.92824 608.50313 L590.19099 615.43885 L587.2408 622.28091 L584.08096 629.02404 L580.71482 635.66296 L577.14567 642.19242 L573.37685 648.60713 L569.41167 654.90183 L565.25345 661.07125 L560.90551 667.11012 L556.37117 673.01317 L551.65375 678.77514 L546.75657 684.39075 L541.68294 689.85473 L536.43619 695.16182 L531.01964 700.30675 L525.4366 705.28424 L519.69039 710.08903 L513.78434 714.71584 L507.72176 719.15942 L501.50597 723.41448 L495.14029 727.47577 L488.62804 731.33801 L481.97254 734.99593 L475.1771 738.44427 L468.24505 741.67774 L461.17971 744.6911 L453.9844 747.47906 L446.66243 750.03635 L439.21712 752.35771 L431.6518 754.43787 L423.96978 756.27156 L416.17438 757.85351 L408.26892 759.17845 L400.25672 760.24111 L392.1411 761.03623 L383.92538 761.55852 L375.61287 761.80273 L367.20691 761.76359 L362.96991 761.63611" />
    <path d="M550.97428 692.14258 L547.96157 695.33606 L541.82812 701.51506 L535.55587 707.41796 L529.1511 713.04619 L522.6201 718.40119 L515.96916 723.48439 L509.20457 728.29723 L502.33261 732.84114 L495.35958 737.11756 L488.29177 741.12791 L481.13545 744.87363 L473.89693 748.35616 L466.58249 751.57694 L459.19841 754.53738 L451.75099 757.23894 L444.24652 759.68304 L436.69127 761.87112 L429.09155 763.80461 L421.45364 765.48494 L413.78383 766.91355 L406.0884 768.09188 L398.37365 769.02136 L390.64586 769.70342 L382.91132 770.13949 L375.17632 770.33102 L367.44715 770.27943 L359.7301 769.98616 L352.03145 769.45264 L344.3575 768.68031 L336.71452 767.6706 L329.10882 766.42494 L321.54668 764.94478 L314.03439 763.23153 L306.57823 761.28665 L299.18449 759.11156 L291.85947 756.70769 L284.60945 754.07648 L277.44072 751.21937 L270.35956 748.13779 L263.37227 744.83316 L256.48514 741.30694 L249.70445 737.56054 L243.03649 733.59541 L236.48755 729.41298 L230.06392 725.01468 L223.77189 720.40195 L217.61774 715.57622 L211.60776 710.53892 L205.74825 705.2915 L200.04549 699.83537 L194.50576 694.17199 L189.13536 688.30278 L183.94058 682.22917 L178.9277 675.9526 L174.10302 669.47451 L169.47281 662.79633 L165.04338 655.91949 L160.821 648.84542 L156.81197 641.57557 L153.02257 634.11136 L149.4591 626.45423 L146.12784 618.60561 L143.03507 610.56694 L140.1871 602.33965 L138.85687 598.15573 L138.85687 598.15573 L137.72043 594.36994 L135.63869 586.79974 L133.80927 579.2346 L132.22915 571.67842 L130.89532 564.1351 L129.80475 556.60854 L128.95442 549.10265 L128.34132 541.62133 L127.96242 534.16847 L127.81469 526.74799 L127.89513 519.36377 L128.2007 512.01972 L128.7284 504.71974 L129.47519 497.46774 L130.43806 490.26761 L131.61398 483.12325 L132.99994 476.03857 L134.59292 469.01747 L136.38989 462.06384 L138.38783 455.18159 L140.58372 448.37463 L142.97455 441.64684 L145.55729 435.00213 L148.32892 428.44441 L151.28642 421.97757 L154.42677 415.60552 L157.74694 409.33215 L161.24393 403.16137 L164.9147 397.09708 L168.75624 391.14317 L172.76553 385.30356 L176.93954 379.58214 L181.27525 373.98281 L185.76965 368.50947 L190.41971 363.16603 L195.22242 357.95638 L200.17474 352.88443 L205.27367 347.95408 L210.51618 343.16922 L215.89925 338.53377 L221.41985 334.05161 L227.07498 329.72666 L232.8616 325.56281 L238.7767 321.56397 L244.81726 317.73402 L250.98025 314.07689 L257.26266 310.59646 L263.66146 307.29664 L270.17363 304.18133 L276.79616 301.25443 L283.52602 298.51984 L290.36019 295.98146 L297.29565 293.64319 L304.32939 291.50894 L311.45837 289.58261 L318.67958 287.86809 L325.99 286.36928 L333.3866 285.0901 L340.86638 284.03444 L348.42629 283.20619 L356.06334 282.60927 L363.77449 282.24757 L371.55672 282.12499 L379.40702 282.24544 L383.35674 282.39802" />
    <path d="M357.87528 274.11856 L362.41181 273.90196 L371.41606 273.70124 L380.32555 273.80583 L389.13661 274.21015 L397.84558 274.90862 L406.44882 275.89566 L414.94267 277.16568 L423.32346 278.71311 L431.58756 280.53235 L439.7313 282.61784 L447.75102 284.96399 L455.64308 287.56521 L463.40381 290.41592 L471.02956 293.51055 L478.51668 296.8435 L485.86151 300.40921 L493.0604 304.20208 L500.10968 308.21653 L507.00571 312.44698 L513.74483 316.88786 L520.32338 321.53357 L526.73771 326.37854 L532.98417 331.41718 L539.05909 336.64391 L544.95883 342.05316 L550.67973 347.63933 L556.21812 353.39685 L561.57037 359.32013 L566.73281 365.40359 L571.70178 371.64165 L576.47364 378.02873 L581.04472 384.55925 L585.41137 391.22762 L589.56994 398.02826 L593.51677 404.9556 L597.24821 412.00404 L600.7606 419.16801 L604.05028 426.44192 L607.1136 433.82019 L609.9469 441.29724 L612.54654 448.8675 L614.90885 456.52536 L617.03017 464.26527 L618.90686 472.08162 L620.53526 479.96885 L621.91171 487.92136 L623.03256 495.93358 L623.89415 503.99992 L624.49283 512.11481 L624.82494 520.27266 L624.88683 528.46788 L624.67484 536.6949 L624.18531 544.94814 L623.4146 553.22201 L622.35904 561.51093 L621.01498 569.80931 L619.37877 578.11159 L617.44675 586.41217 L615.21526 594.70547 L612.68065 602.98591 L609.83927 611.24791 L606.68745 619.48589 L603.22155 627.69426 L599.43791 635.86744 L597.42579 639.93909 L597.42579 639.93909 L595.78613 643.13113 L592.38016 649.42877 L588.80805 655.60907 L585.07309 661.66948 L581.17857 667.6075 L577.12778 673.42058 L572.92399 679.1062 L568.57051 684.66183 L564.07061 690.08494 L559.42758 695.37301 L554.64471 700.5235 L549.72528 705.53389 L544.67258 710.40165 L539.4899 715.12425 L534.18052 719.69917 L528.74773 724.12386 L523.19481 728.39582 L517.52506 732.5125 L511.74175 736.47138 L505.84818 740.26993 L499.84763 743.90562 L493.74339 747.37593 L487.53875 750.67833 L481.23698 753.81028 L474.84138 756.76926 L468.35524 759.55275 L461.78183 762.1582 L455.12445 764.5831 L448.38639 766.82492 L441.57092 768.88113 L434.68134 770.74919 L427.72093 772.42659 L424.21519 773.19299" />
    <path d="M535.11335 729.81244 L531.75335 732.46019 L524.95873 737.56013 L518.06895 742.40063 L511.08923 746.98329 L504.02478 751.30966 L496.88081 755.38132 L489.66255 759.19985 L482.37519 762.76682 L475.02396 766.0838 L467.61406 769.15238 L460.15071 771.97412 L452.63913 774.55059 L445.08452 776.88338 L437.49209 778.97405 L429.86707 780.82418 L422.21466 782.43534 L414.54008 783.80911 L406.84854 784.94707 L399.14525 785.85078 L391.43542 786.52181 L383.72428 786.96176 L376.01702 787.17218 L368.31887 787.15465 L360.63504 786.91075 L352.97073 786.44204 L345.33117 785.75011 L337.72156 784.83653 L330.14713 783.70288 L322.61307 782.35071 L315.12461 780.78162 L307.68696 778.99718 L300.30532 776.99895 L292.98492 774.78851 L285.73097 772.36744 L278.54867 769.73731 L271.44325 766.8997 L264.41991 763.85617 L257.48386 760.60831 L250.64033 757.15769 L243.89453 753.50587 L237.25165 749.65444 L230.71693 745.60497 L224.29557 741.35904 L217.99279 736.91821 L211.81379 732.28406 L205.7638 727.45817 L199.84801 722.4421 L194.07166 717.23744 L188.43994 711.84576 L182.95808 706.26863 L177.63128 700.50762 L172.46477 694.56432 L167.46374 688.44029 L162.63341 682.13711 L157.97901 675.65634 L153.50573 668.99958 L149.2188 662.16838 L145.12342 655.16433 L141.22481 647.989 L137.52819 640.64396 L134.03875 633.13079 L130.76173 625.45105 L127.70232 617.60634 L124.86575 609.59821 L123.53266 605.53335" />
    <path d="M414.58213 260.2702 L419.22192 261.05172 L428.38611 262.83022 L437.39433 264.89091 L446.24408 267.22768 L454.93284 269.8344 L463.4581 272.70496 L471.81735 275.83326 L480.00806 279.21317 L488.02772 282.83858 L495.87382 286.70337 L503.54384 290.80144 L511.03527 295.12666 L518.3456 299.67292 L525.4723 304.43411 L532.41286 309.40412 L539.16478 314.57682 L545.72552 319.94611 L552.09259 325.50587 L558.26346 331.24998 L564.23561 337.17233 L570.00654 343.26681 L575.57373 349.5273 L580.93466 355.94768 L586.08682 362.52185 L591.0277 369.24369 L595.75477 376.10708 L600.26553 383.10591 L604.55746 390.23406 L608.62804 397.48542 L612.47476 404.85388 L616.09511 412.33332 L619.48656 419.91763 L622.64661 427.60068 L625.57274 435.37638 L628.26244 443.23859 L630.71318 451.18122 L632.92246 459.19814 L634.88776 467.28323 L636.60657 475.4304 L638.07636 483.63351 L639.29464 491.88646 L640.25887 500.18313 L640.96655 508.5174 L641.41515 516.88317 L641.60218 525.27431 L641.5251 533.68472 L641.18141 542.10828 L640.56859 550.53887 L639.68413 558.97038 L638.52551 567.39669 L637.09022 575.8117 L635.37574 584.20928 L633.37955 592.58332 L631.09914 600.92771 L628.53201 609.23634 L625.67562 617.50307 L622.52747 625.72182 L619.08504 633.88645 L615.34582 641.99086 L611.3073 650.02892 L606.96695 657.99453 L602.32226 665.88158 L597.37072 673.68393 L592.10981 681.39549 L589.36256 685.21531" />
    <path d="M337.41583 801.71998 L333.81295 801.24318 L326.63052 800.14885 L319.48222 798.8676 L312.37168 797.40026 L305.30253 795.7477 L298.27839 793.91075 L291.3029 791.89026 L284.37969 789.68709 L280.93882 788.51726" />
    <path d="M111.60747 644.65875 L109.93141 640.90302 L106.7456 633.32996 L103.78237 625.67887 L101.04271 617.9547 L98.52761 610.16239 L96.23806 602.30688 L94.17505 594.3931 L92.33958 586.426 L90.73262 578.41051 L89.35518 570.35159 L88.20825 562.25415 L87.2928 554.12316 L86.60985 545.96354 L86.16036 537.78023 L85.94534 529.57818 L85.96577 521.36233 L86.0646 517.25077" />
    <path d="M141.76827 709.82172 L138.49978 705.65128 L132.23044 697.21894 L126.31558 688.67067 L120.75238 680.01372 L115.53798 671.25534 L110.66954 662.40277 L106.14421 653.46327 L101.95916 644.44407 L98.11153 635.35242 L94.59849 626.19557 L91.41718 616.98077 L88.56478 607.71525 L86.03842 598.40628 L83.83527 589.06109 L81.95249 579.68693 L80.38722 570.29104 L79.13664 560.88068 L78.19788 551.46309 L77.56811 542.04551 L77.24449 532.63519 L77.22417 523.23938 L77.5043 513.86532 L78.08205 504.52027 L78.95456 495.21145 L80.119 485.94614 L81.57252 476.73155 L83.31227 467.57496 L85.33542 458.48359 L87.63912 449.46471 L90.22052 440.52554 L93.07678 431.67335 L96.20506 422.91537 L99.60251 414.25885 L103.26629 405.71104 L107.19356 397.27919 L111.38147 388.97053 L115.82717 380.79233 L120.52783 372.75181 L125.48059 364.85624 L130.68263 357.11285 L136.13108 349.52889 L141.82311 342.11161 L147.75587 334.86826 L153.92653 327.80607 L160.33223 320.9323 L166.97013 314.2542 L173.83738 307.779 L180.93115 301.51396 L188.2486 295.46632 L195.78686 289.64333 L203.54311 284.05223 L211.5145 278.70027 L219.69818 273.5947 L228.09131 268.74276 L236.69105 264.1517 L245.49454 259.82877 L254.49896 255.78121 L263.70145 252.01626 L273.09917 248.54118 L282.68928 245.3632 L292.46893 242.48959 L302.43528 239.92758 L312.58548 237.68441 L322.91669 235.76734 L328.14929 234.93335 L328.14929 234.93335 L333.39524 234.18797 L343.83254 232.97474 L354.19298 232.12646 L364.47172 231.63706 L374.6639 231.50044 L384.76467 231.71053 L394.76917 232.26124 L404.67256 233.14648 L414.46997 234.36016 L424.15655 235.8962 L433.72746 237.74851 L443.17783 239.91101 L452.50282 242.37761 L461.69757 245.14222 L470.75722 248.19876 L479.67693 251.54115 L488.45183 255.16329 L497.07709 259.0591 L505.54783 263.22249 L513.85922 267.64738 L522.00639 272.32769 L529.98449 277.25732 L537.78868 282.43019 L545.41409 287.84022 L552.85587 293.48131 L560.10917 299.34738 L567.16914 305.43235 L574.03092 311.73013 L580.68966 318.23464 L587.1405 324.93978 L593.37859 331.83947 L599.39909 338.92763 L605.19712 346.19817 L610.76785 353.645 L616.10642 361.26204 L621.20797 369.0432 L626.06765 376.9824 L630.68062 385.07354 L635.042 393.31055 L639.14696 401.68734 L642.99063 410.19782 L646.56817 418.8359 L649.87471 427.5955 L652.90542 436.47054 L655.65543 445.45492 L658.11989 454.54256 L660.29394 463.72738 L662.17274 473.00329 L663.75143 482.3642 L665.02516 491.80402 L665.98906 501.31668 L666.6383 510.89608 L666.96802 520.53614 L666.97335 530.23078 L666.64946 539.9739 L665.99148 549.75942 L664.99457 559.58125 L663.65386 569.43331 L661.96451 579.30952 L659.92166 589.20378 L657.52046 599.11002 L654.75605 609.02213 L651.62359 618.93405 L648.11822 628.83968 L646.22417 633.78823" />
    <path d="M151.95994 317.99381 L155.73851 314.06631 L163.42723 306.47079 L171.28489 299.21968 L179.30371 292.31114 L187.4759 285.7433 L195.79366 279.51431 L204.24921 273.62231 L212.83477 268.06544 L221.54253 262.84184 L230.36472 257.94967 L239.29355 253.38706 L248.32123 249.15216 L257.43996 245.24311 L266.64196 241.65805 L275.91944 238.39512 L285.26462 235.45248 L294.6697 232.82826 L304.1269 230.52061 L313.62843 228.52766 L323.1665 226.84757 L332.73331 225.47848 L342.32109 224.41853 L351.92204 223.66586 L361.52838 223.21861 L371.13232 223.07494 L380.72606 223.23298 L390.30182 223.69087 L399.85182 224.44677 L409.36826 225.4988 L418.84335 226.84513 L428.26931 228.48388 L437.63834 230.41321 L446.94267 232.63125 L456.17449 235.13615 L465.32603 237.92606 L474.38949 240.99911 L483.35708 244.35345 L492.22102 247.98723 L500.97352 251.89858 L509.60679 256.08565 L518.11304 260.54658 L526.48449 265.27952 L534.71333 270.28261 L542.79179 275.55399 L550.71208 281.0918 L558.46641 286.8942 L566.04699 292.95932 L573.44603 299.2853 L580.65574 305.8703 L587.66834 312.71245 L594.47603 319.80989 L601.07103 327.16077 L607.44555 334.76324 L613.5918 342.61543 L619.502 350.71549 L625.16834 359.06156 L630.58306 367.65179 L635.73834 376.48431 L640.62642 385.55728 L645.2395 394.86884 L649.56979 404.41712 L653.6095 414.20028 L657.35084 424.21645 L660.78603 434.46378 L662.38638 439.67355 L662.38638 439.67355 L663.99205 445.25625 L666.87054 456.45816 L669.3082 467.69942 L671.30858 478.9688 L672.87524 490.2551 L674.01172 501.5471 L674.72157 512.83357 L675.00835 524.10332 L674.87561 535.34511 L674.32691 546.54774 L673.36578 557.69998 L671.99578 568.79063 L670.22047 579.80847 L668.0434 590.74228 L665.46811 601.58085 L662.49817 612.31296 L659.13711 622.92739 L655.38849 633.41293 L651.25587 643.75837 L646.74279 653.95248 L641.85281 663.98406 L636.58947 673.84189 L630.95634 683.51474 L624.95695 692.99142 L618.59487 702.26069 L611.87364 711.31134 L604.79681 720.13217 L597.36794 728.71195 L589.59057 737.03947 L581.46827 745.1035 L573.00457 752.89285 L564.20304 760.39629 L559.67669 764.03728" />
    <path d="M160.13955 298.04686 L164.27571 294.26954 L172.66574 286.98977 L181.20618 280.07445 L189.88917 273.52117 L198.70683 267.3275 L207.65131 261.49104 L216.71474 256.00935 L225.88926 250.88001 L235.16699 246.1006 L244.54008 241.66871 L254.00066 237.58191 L263.54087 233.83777 L273.15284 230.43388 L282.8287 227.36782 L292.56059 224.63716 L302.34065 222.23948 L312.16101 220.17237 L322.01381 218.4334 L331.89118 217.02014 L341.78526 215.93019 L351.68818 215.16111 L361.59207 214.71048 L371.48908 214.57589 L381.37133 214.75491 L391.23097 215.24513 L401.06012 216.04411 L410.85093 217.14944 L420.59552 218.5587 L430.28604 220.26946 L439.91462 222.27931 L449.47338 224.58582 L458.95448 227.18658 L468.35004 230.07915 L477.6522 233.26113 L486.85309 236.73008 L495.94486 240.48359 L504.91962 244.51923 L513.76953 248.83459 L522.48671 253.42724 L531.06329 258.29476 L539.49143 263.43473 L547.76324 268.84473 L555.87087 274.52234 L563.80645 280.46513 L571.56211 286.67069 L579.12999 293.13659 L586.50223 299.86042 L593.67096 306.83974 L600.62832 314.07215 L607.36643 321.55521 L613.87744 329.28651 L620.15349 337.26362 L626.1867 345.48413 L631.96921 353.94561 L637.49315 362.64564 L642.75067 371.58181 L647.7339 380.75168 L652.43497 390.15284 L656.84601 399.78286 L660.95917 409.63933 L664.76657 419.71982 L668.26036 430.02192 L671.43266 440.5432 L674.27562 451.28123 L675.57114 456.73078 L675.57114 456.73078 L676.55201 461.16125 L678.31573 470.01271 L679.81783 478.84836 L681.06119 487.66442 L682.04869 496.45707 L682.78323 505.22251 L683.26768 513.95694 L683.50494 522.65656 L683.49789 531.31756 L683.24942 539.93615 L682.76241 548.50852 L682.03974 557.03086 L681.08432 565.49939 L679.89901 573.91029 L678.4867 582.25976 L676.85029 590.544 L674.99266 598.7592 L672.91669 606.90158 L670.62528 614.96731 L668.1213 622.95261 L665.40764 630.85367 L662.48718 638.66668 L659.36283 646.38785 L656.03745 654.01336 L652.51394 661.53943 L648.79518 668.96225 L644.88406 676.27801 L640.78346 683.48292 L636.49627 690.57316 L632.02538 697.54495 L627.37367 704.39447 L622.54403 711.11793 L617.53934 717.71151 L612.36249 724.17143 L607.01636 730.49388 L601.50385 736.67505 L595.82784 742.71115 L589.99121 748.59836 L583.99685 754.3329 L577.84764 759.91095 L571.54648 765.32871 L565.09624 770.58239 L558.49982 775.66818 L551.7601 780.58227 L544.87996 785.32087 L537.86229 789.88018 L530.70998 794.25638 L523.42592 798.44569 L516.01298 802.44429 L508.47406 806.24838 L500.81204 809.85417 L493.02981 813.25785 L485.13025 816.45561 L477.11625 819.44366 L468.9907 822.2182 L460.75647 824.77541 L452.41647 827.11151 L443.97356 829.22268 L435.43065 831.10512 L426.79061 832.75504 L418.05633 834.16863 L409.2307 835.34208 L400.3166 836.2716 L391.31692 836.95339 L386.78589 837.20019" />
    <path d="M612.45179 737.05339 L608.62182 741.34596 L600.81282 749.66264 L592.81197 757.62271 L584.62754 765.22785 L576.26783 772.47968 L567.74112 779.37987 L559.05572 785.93006 L550.2199 792.1319 L541.24196 797.98704 L532.13018 803.49713 L522.89285 808.66383 L513.53827 813.48877 L504.07472 817.97362 L494.51048 822.12001 L484.85386 825.92961 L475.11314 829.40405 L465.2966 832.54499 L455.41254 835.35409 L445.46924 837.83298 L435.475 839.98331 L425.4381 841.80675 L415.36683 843.30493 L405.26948 844.47951 L395.15435 845.33213 L385.02971 845.86445 L374.90386 846.07812 L364.78509 845.97478 L354.68168 845.55609 L344.60193 844.82369 L334.55413 843.77924 L324.54655 842.42438 L314.5875 840.76076 L304.68526 838.79004 L294.84812 836.51386 L285.08437 833.93387 L275.4023 831.05173 L265.81019 827.86908 L256.31634 824.38756 L246.92903 820.60884 L237.65656 816.53457 L228.50721 812.16638 L219.48928 807.50593 L210.61104 802.55487 L201.8808 797.31485 L193.30683 791.78752 L184.89743 785.97453 L176.66089 779.87753 L168.6055 773.49817 L160.73954 766.83809 L153.0713 759.89896 L145.60908 752.68241 L138.36115 745.19009 L131.33582 737.42366 L124.54137 729.38477 L117.98609 721.07507 L111.67827 712.4962 L105.62619 703.64981 L99.83815 694.53756 L94.32243 685.1611 L89.08733 675.52207 L84.14113 665.62212 L79.49213 655.4629 L75.1486 645.04607 L71.11884 634.37327 L69.22422 628.9414 L69.22422 628.9414 L67.97881 625.19559 L65.63109 617.67292 L63.474 610.11173 L61.50731 602.51549 L59.73082 594.88768 L58.14429 587.23178 L56.7475 579.55124 L55.54025 571.84956 L54.52231 564.13019 L53.69345 556.39662 L53.05347 548.65231 L52.60214 540.90075 L52.33924 533.14539 L52.26455 525.38972 L52.37786 517.63721 L52.67894 509.89133 L53.16758 502.15555 L53.84355 494.43335 L54.70663 486.7282 L55.75662 479.04357 L56.99328 471.38293 L58.41639 463.74976 L60.02575 456.14754 L61.82112 448.57973 L63.8023 441.0498 L65.96905 433.56124 L68.32117 426.11751 L70.85842 418.72208 L73.5806 411.37844 L76.48749 404.09004 L79.57885 396.86037 L82.85448 389.6929 L84.56133 386.13357" />
    <path d="M189.3911 253.50694 L194.32404 250.2626 L204.26677 244.07959 L214.30549 238.30092 L224.43241 232.92278 L234.63976 227.94134 L244.91974 223.35277 L255.26457 219.15324 L265.66648 215.33893 L276.11767 211.906 L286.61036 208.85064 L297.13677 206.169 L307.68911 203.85728 L318.25961 201.91163 L328.84047 200.32824 L339.42391 199.10327 L350.00214 198.23289 L360.5674 197.71329 L371.11188 197.54063 L381.62781 197.71108 L392.1074 198.22082 L402.54287 199.06602 L412.92644 200.24286 L423.25031 201.7475 L433.50671 203.57612 L443.68786 205.72489 L453.78596 208.18998 L463.79324 210.96757 L473.70191 214.05383 L483.50418 217.44493 L493.19228 221.13705 L502.75842 225.12635 L512.19481 229.40902 L521.49368 233.98121 L530.64723 238.83911 L539.64769 243.97889 L548.48726 249.39673 L557.15817 255.08878 L565.65264 261.05123 L573.96287 267.28025 L582.08108 273.77201 L589.9995 280.52269 L597.71033 287.52845 L605.20579 294.78547 L612.47811 302.28992 L619.51948 310.03798 L626.32214 318.02582 L632.87829 326.24961 L639.18016 334.70552 L645.21995 343.38973 L650.98989 352.2984 L656.48219 361.42772 L661.68906 370.77385 L666.60273 380.33296 L671.21541 390.10124 L675.51932 400.07485 L679.50666 410.24996 L683.16966 420.62275 L686.50054 431.18939 L689.4915 441.94605 L692.13477 452.88891 L694.42257 464.01414 L696.3471 475.31791 L697.90058 486.79639 L699.07523 498.44575 L699.51807 504.33332 L699.51807 504.33332 L699.80519 509.17536 L700.16438 518.85779 L700.23769 528.53288 L700.02619 538.19443 L699.53092 547.83626 L698.75293 557.45218 L697.6933 567.03601 L696.35306 576.58155 L694.73328 586.08261 L692.835 595.53302 L690.65929 604.92657 L688.20721 614.25708 L685.47979 623.51837 L682.47811 632.70424 L679.20321 641.80851 L675.65615 650.82499 L673.78089 655.29837" />
  </g>
</svg>