<?xml version="1.0" standalone="no"?>
<!DOCTYPE svg PUBLIC "-//W3C//DTD SVG 1.1//EN" 
    "http://www.w3.org/Graphics/SVG/1.1/DTD/svg11.dtd">
<svg width="21cm" height="29.7cm"
    xmlns="http://www.w3.org/2000/svg" version="1.1" viewBox="0 0 744.09449 1052.3622">
  <g fill="none" stroke="black" stroke-width="0.03cm">
    <path d="M366.32362 515.17932 L367.12191 514.79772 L368.73765 514.21908 L370.36421 513.87713 L371.98391 513.7606 L373.57905 513.85821 L375.13194 514.15869 L376.62489 514.65075 L378.04023 515.32313 L379.36025 516.16454 L380.56727 517.16372 L381.6436 518.30939 L382.57155 519.59028 L383.33344 520.9951 L383.91157 522.51258 L384.28825 524.13145 L384.4458 525.84043 L384.43688 526.72519 L384.43688 526.72519 L384.38018 527.4846 L384.13092 528.97184 L383.70742 530.40513 L383.11795 531.77028 L382.37078 533.05308 L381.47418 534.23934 L380.43641 535.31485 L379.26576 536.26542 L378.63318 536.68941" />
    <path d="M377.22963 501.9254 L378.9467 502.35341 L382.17538 503.51848 L385.11935 505.06237 L387.76568 506.94515 L390.10146 509.12691 L392.11376 511.56775 L393.78966 514.22774 L395.11624 517.06697 L396.08057 520.04553 L396.66973 523.1235 L396.8708 526.26098 L396.67086 529.41804 L396.05698 532.55478 L395.01625 535.63127 L393.53573 538.60762 L391.60252 541.44389 L390.46211 542.79703 L390.46211 542.79703 L389.67161 543.63327 L387.98236 545.18816 L386.15858 546.57881 L384.21202 547.79625 L383.19637 548.33721" />
    <path d="M368.10442 563.17631 L366.4389 562.96069 L363.15212 562.30683 L359.9407 561.36097 L356.82423 560.12888 L355.30773 559.4073" />
    <path d="M358.07382 573.77867 L356.37493 573.24856 L353.08995 572.03686 L349.95742 570.63168 L346.97981 569.0432 L344.1596 567.28162 L341.49925 565.35714 L339.00125 563.27994 L336.66806 561.06021 L334.50216 558.70816 L332.50601 556.23397 L330.68211 553.64783 L329.03291 550.95994 L327.56089 548.18049 L326.26852 545.31968 L325.15829 542.38769 L324.23265 539.39471 L323.49409 536.35095 L322.94507 533.26659 L322.58807 530.15183 L322.42557 527.01686 L322.46003 523.87186 L322.69394 520.72704 L323.12975 517.59259 L323.76995 514.47869 L324.61702 511.39555 L325.67341 508.35335 L326.94161 505.36228 L328.42409 502.43255 L330.12332 499.57434 L332.04177 496.79784 L334.18193 494.11325 L336.54625 491.53075 L337.81325 490.28098 L337.81325 490.28098 L339.12178 489.07475 L341.81364 486.83573 L344.59683 484.82547 L347.46129 483.04102 L350.39697 481.47943 L353.3938 480.13775 L356.44171 479.01301 L359.53064 478.10227 L362.65053 477.40257 L365.79131 476.91096 L368.94293 476.62448 L372.09531 476.54017 L375.23839 476.65509 L378.36211 476.96628 L381.45641 477.47078 L384.51122 478.16564 L387.51647 479.04791 L390.46212 480.11463 L393.33808 481.36284 L396.1343 482.7896 L398.84071 484.39194 L401.44725 486.16691 L403.94386 488.11157 L406.32047 490.22295 L408.56702 492.4981 L410.67345 494.93406 L412.62969 497.52789 L414.42567 500.27662 L416.05134 503.1773 L417.49663 506.22698 L418.75148 509.42271 L419.80582 512.76152 L420.25466 514.48366" />
    <path d="M424.27088 492.74955 L425.14958 494.16356 L426.78531 497.04785 L428.93288 501.50215 L431.21977 507.64399 L432.8404 513.96741 L433.78674 520.41771 L434.05076 526.94017 L433.62445 533.48007 L432.84684 538.36353 L432.10853 541.59612 L431.67302 543.20294" />
    <path d="M389.72287 453.90152 L392.30488 454.5794 L397.31026 456.16988 L402.10046 458.06073 L406.6711 460.23685 L411.01775 462.68315 L415.13601 465.3845 L419.02149 468.32582 L422.66977 471.492 L426.07645 474.86793 L429.23713 478.43852 L432.1474 482.18865 L434.80286 486.10322 L437.1991 490.16714 L439.33172 494.36529 L441.19631 498.68258 L442.78847 503.1039 L444.1038 507.61415 L445.13788 512.19822 L445.88632 516.84102 L446.34471 521.52743 L446.50865 526.24235 L446.37372 530.97069 L445.93553 535.69733 L445.18968 540.40718 L444.13175 545.08513 L442.75735 549.71607 L441.06206 554.28491 L439.04148 558.77654 L436.69122 563.17585 L434.00686 567.46775 L430.984 571.63713 L427.61823 575.66889 L425.80538 577.62844 L425.80538 577.62844 L424.21877 579.23672 L420.9059 582.30238 L417.41489 585.16027 L413.75539 587.8025 L411.86546 589.04028" />
    <path d="M384.65673 612.07147 L381.72393 612.4536 L375.9147 612.92418 L370.18939 613.01331 L364.55854 612.73314 L359.03269 612.09584 L353.62238 611.11356 L348.33815 609.79848 L343.19053 608.16274 L338.19006 606.21851 L333.34729 603.97796 L328.67273 601.45323 L324.17695 598.6565 L319.87046 595.59992 L315.76381 592.29565 L311.86754 588.75585 L308.19218 584.99269 L304.74828 581.01832 L301.54636 576.84491 L298.59697 572.48461 L295.91064 567.94959 L293.49792 563.25201 L291.36933 558.40402 L289.53543 553.4178 L288.00673 548.30549 L286.79379 543.07926 L285.90714 537.75127 L285.35731 532.33368 L285.15485 526.83866 L285.31029 521.27835 L285.83417 515.66493 L286.73703 510.01056 L288.0294 504.32738 L288.82495 501.4788" />
    <path d="M275.10136 505.09472 L275.91655 501.62999 L277.8652 494.90393 L280.22159 488.45438 L282.96573 482.28775 L286.07764 476.41041 L289.53734 470.82876 L293.32485 465.54918 L297.42018 460.57806 L301.80337 455.92179 L306.45442 451.58676 L311.35336 447.57935 L316.48021 443.90595 L321.81498 440.57295 L327.3377 437.58674 L333.02839 434.9537 L338.86706 432.68022 L344.83373 430.7727 L350.90843 429.23751 L357.07117 428.08104 L363.30197 427.30969 L369.58086 426.92984 L375.88784 426.94788 L382.20295 427.37019 L388.5062 428.20317 L394.77761 429.4532 L400.9972 431.12667 L407.14499 433.22996 L413.201 435.76947 L419.14525 438.75159 L424.95776 442.18269 L430.61854 446.06917 L436.10762 450.41741 L438.78152 452.76669 L438.78152 452.76669 L441.74829 455.5763 L447.27229 461.48853 L452.24415 467.76047 L456.65655 474.35493 L460.50216 481.23474 L463.77368 488.3627 L466.46379 495.70164 L468.56517 503.21437 L470.07049 510.8637 L470.97246 518.61247 L471.26374 526.42348 L470.93702 534.25954 L469.98498 542.08349 L468.40031 549.85813 L466.17568 557.54627 L463.30379 565.11075 L461.62283 568.83499" />
    <path d="M311.26469 432.56911 L314.65949 430.44558 L321.54241 426.61307 L328.53224 423.32439 L335.60796 420.56883 L342.74854 418.33566 L349.93295 416.61417 L357.14017 415.39365 L364.34916 414.66339 L371.53892 414.41266 L378.6884 414.63075 L385.77658 415.30695 L392.78244 416.43054 L399.68496 417.99081 L406.4631 419.97704 L413.09584 422.37851 L419.56215 425.18452 L425.84101 428.38434 L431.91139 431.96726 L437.75227 435.92256 L443.34262 440.23954 L448.66141 444.90747 L453.68762 449.91564 L458.40022 455.25333 L462.77819 460.90984 L466.8005 466.87444 L470.44613 473.13641 L473.69404 479.68505 L476.52322 486.50964 L478.91263 493.59946 L480.84126 500.94381 L482.28807 508.53195 L483.23203 516.35318 L483.50888 520.34786 L483.50888 520.34786 L483.63016 523.53563 L483.60047 529.8858 L483.21264 536.19068 L482.47245 542.43649 L481.38569 548.60947 L479.95814 554.69586 L478.19559 560.68189 L476.10384 566.5538 L473.68867 572.29782 L470.95586 577.90018 L467.9112 583.34713 L464.56049 588.62489 L460.90951 593.7197 L456.96404 598.61779 L452.72988 603.30541 L448.21282 607.76879 L445.85 609.91208" />
    <path d="M477.56676 591.33889 L475.78883 594.13574 L472.05022 599.5371 L468.07786 604.67992 L463.88358 609.5617 L459.47924 614.17997 L454.87668 618.53221 L450.08776 622.61596 L445.12432 626.4287 L439.99821 629.96796 L434.72128 633.23124 L429.30538 636.21605 L423.76236 638.9199 L418.10407 641.34029 L412.34235 643.47474 L406.48906 645.32075 L400.55605 646.87584 L394.55516 648.13751 L388.49824 649.10328 L382.39714 649.77064 L376.26371 650.13711 L370.1098 650.20019 L363.94726 649.95741 L357.78794 649.40626 L351.64368 648.54425 L345.52634 647.3689 L339.44776 645.8777 L333.41979 644.06818 L327.45429 641.93784 L321.5631 639.48418 L315.75806 636.70472 L310.05104 633.59697 L304.45387 630.15843 L301.70019 628.31434" />
    <path d="M314.3376 649.7905 L309.93865 647.64544 L301.51012 642.99022 L293.57622 637.87216 L286.13943 632.31998 L279.20226 626.36242 L272.76721 620.02823 L266.83677 613.34612 L261.41346 606.34484 L256.49976 599.05311 L252.09818 591.49969 L248.21123 583.71329 L244.84139 575.72265 L241.99118 567.55651 L239.66308 559.2436 L237.85961 550.81266 L236.58327 542.29242 L235.83654 533.71161 L235.62194 525.09897 L235.94197 516.48324 L236.79912 507.89314 L238.19589 499.35742 L240.1348 490.9048 L242.61833 482.56403 L245.64898 474.36383 L249.22927 466.33294 L253.36168 458.50009 L258.04872 450.89402 L263.29289 443.54347 L269.09669 436.47716 L275.46262 429.72384 L282.39319 423.31223 L289.89088 417.27107 L293.85318 414.39839 L293.85318 414.39839 L297.91034 411.66131 L306.15614 406.68961 L314.55547 402.37768 L323.08219 398.71332 L331.71017 395.68433 L340.41327 393.27851 L349.16536 391.48365 L357.94031 390.28757 L366.71197 389.67804 L375.45422 389.64288 L384.14092 390.16987 L392.74593 391.24683 L401.24313 392.86154 L409.60636 395.00181 L417.80951 397.65543 L425.82643 400.8102 L433.63098 404.45392 L441.19705 408.57439 L448.49848 413.15941 L455.50914 418.19677 L462.20291 423.67427 L468.55364 429.57972 L474.5352 435.90091 L480.12145 442.62563 L485.28627 449.7417 L490.0035 457.23689 L494.24703 465.09902 L497.99071 473.31589 L501.20841 481.87528 L503.874 490.765 L505.96133 499.97285 L507.44428 509.48662 L507.95094 514.35442" />
    <path d="M231.52207 575.16825 L230.66222 572.63288 L229.08541 567.56335 L227.697 562.49792 L226.49442 557.43955 L225.03337 549.87177 L223.71174 539.83394 L223.0872 529.878 L223.13918 520.02776 L223.84715 510.30707 L225.19055 500.73974 L227.14882 491.34959 L229.70141 482.16046 L232.82778 473.19617 L236.50737 464.48055 L240.71962 456.03742 L245.44399 447.8906 L250.65992 440.06393 L256.34687 432.58123 L262.48427 425.46632 L269.05158 418.74302 L276.02824 412.43518 L283.3937 406.5666 L291.12742 401.16112 L299.20883 396.24255 L307.61738 391.83474 L316.33253 387.9615 L325.33372 384.64666 L334.6004 381.91404 L344.11202 379.78747 L353.84802 378.29077 L363.78785 377.44777 L373.91096 377.2823 L381.61121 377.61716 L386.79128 378.06453 L392.00561 378.69469 L397.25163 379.51061 L399.88572 379.98916 L399.88572 379.98916 L402.51134 380.51219 L407.69008 381.68139 L412.77108 383.01172 L417.75304 384.49944 L425.03746 387.01802 L434.39129 390.89237 L443.32566 395.32947 L451.83022 400.29961 L459.89461 405.77307 L467.50846 411.72016 L474.66143 418.11114 L481.34315 424.91632 L487.54327 432.10597 L493.25143 439.6504 L498.45727 447.51989 L503.15043 455.68472 L507.32056 464.11518 L510.9573 472.78157 L514.0503 481.65418 L516.58918 490.70328 L518.56361 499.89917 L519.96322 509.21214 L520.77764 518.61247 L520.99654 528.07046 L520.60954 537.55639 L519.60629 547.04055 L517.97643 556.49323 L515.70961 565.88472 L512.79547 575.1853 L509.22364 584.36528 L504.98378 593.39492 L500.06553 602.24453 L495.92541 608.74571 L492.94794 613.00809 L489.79504 617.20876 L486.46543 621.34398 L484.73394 623.3859" />
    <path d="M216.6248 569.02857 L215.87766 566.22615 L214.53776 560.63289 L213.40121 555.0576 L212.46503 549.50331 L211.72623 543.97306 L211.18181 538.46989 L210.82878 532.99683 L210.66415 527.5569 L210.68493 522.15316 L210.88813 516.78863 L211.27075 511.46634 L211.82982 506.18933 L212.99269 498.36537 L215.13279 488.12022 L217.9248 478.11081 L221.34479 468.36143 L225.36882 458.89634 L229.97297 449.73983 L235.13332 440.91617 L240.82592 432.44964 L247.02685 424.36451 L253.71218 416.68506 L260.85799 409.43557 L268.44035 402.64031 L276.43531 396.32356 L284.81897 390.50959 L293.56738 385.22268 L302.65662 380.48711 L312.06275 376.32715 L321.76186 372.76709 L331.73001 369.83118 L341.94327 367.54372 L349.74968 366.26827 L355.01808 365.63325 L360.3343 365.174 L365.69535 364.89355 L371.09824 364.79493 L376.53997 364.88118 L382.01755 365.15534 L387.52799 365.62043 L393.06831 366.2795 L398.63551 367.13558 L404.22659 368.19169 L409.83857 369.45089 L412.65147 370.15759 L412.65147 370.15759 L415.45201 370.91175 L420.96586 372.54799 L426.36248 374.35136 L431.64072 376.31775 L436.79946 378.44305 L441.83756 380.72315 L446.75389 383.15395 L451.54731 385.73134 L456.2167 388.45121 L460.76093 391.30945 L465.17885 394.30196 L469.46934 397.42462 L475.66366 402.34368 L483.46617 409.31964 L490.73856 416.7423 L497.47178 424.57878 L503.65677 432.79624 L509.28446 441.36181 L514.3458 450.24263 L518.83173 459.40583 L522.73319 468.81856 L526.04112 478.44795 L528.74647 488.26115 L530.84016 498.22529 L532.31314 508.30751 L533.15636 518.47496 L533.36075 528.69475 L532.91726 538.93405 L531.81682 549.15998 L530.05037 559.33969 L527.60886 569.44031 L524.48323 579.42899 L521.6846 586.82726 L519.60034 591.70734 L517.33996 596.54095 L514.90231 601.32398 L512.28627 606.05232 L509.49071 610.72187 L506.51449 615.32852 L503.35649 619.86816 L500.01556 624.33668 L496.49058 628.72998 L492.78041 633.04394 L488.88393 637.27446 L486.86546 639.35715" />
    <path d="M395.70494 354.1784 L398.7089 354.61689 L404.64533 355.63456 L410.48504 356.83656 L416.22632 358.21898 L421.86746 359.7779 L427.40676 361.5094 L432.8425 363.40958 L438.17297 365.47452 L443.39648 367.7003 L448.5113 370.08302 L453.51574 372.61875 L458.40808 375.30358 L463.18661 378.13361 L467.84963 381.1049 L472.39544 384.21357 L476.82231 387.45567 L483.23589 392.56049 L491.35513 399.79744 L498.96791 407.49773 L506.06055 415.63004 L512.6194 424.16306 L518.63079 433.06549 L524.08105 442.306 L528.95652 451.85329 L533.24353 461.67604 L536.92841 471.74294 L539.9975 482.02268 L542.43713 492.48395 L544.23365 503.09543 L545.37337 513.82582 L545.84264 524.64379 L545.62779 535.51805 L545.00947 543.69184 L544.37636 549.14231 L543.56453 554.58923 L542.57227 560.0287 L541.39788 565.4568 L540.03965 570.86961 L538.49587 576.26322 L536.76483 581.63372 L534.84483 586.97719 L532.73415 592.28972 L530.43109 597.5674 L527.93393 602.8063 L525.24098 608.00252 L522.35052 613.15214 L519.26085 618.25125 L515.97025 623.29594 L514.24907 625.79665" />
    <path d="M375.02965 712.18082 L371.90382 712.20595 L365.69889 712.10681 L359.55819 711.81133 L353.48405 711.32292 L347.47881 710.645 L341.54479 709.78098 L335.68432 708.73429 L329.89973 707.50833 L324.19334 706.10653 L318.56748 704.53231 L313.02449 702.78908 L307.56668 700.88026 L302.19638 698.80927 L296.91593 696.57952 L291.72765 694.19443 L286.63387 691.65743 L279.17548 687.57454 L269.58343 681.63086 L260.41127 675.14102 L251.67763 668.13234 L243.40113 660.63217 L235.6004 652.66785 L228.29405 644.26671 L221.5007 635.4561 L215.23899 626.26335 L209.52753 616.71581 L204.38494 606.84081 L199.82984 596.66569 L195.88087 586.2178 L192.55663 575.52446 L189.87576 564.61302 L187.85687 553.51082 L186.78834 545.07543 L186.29255 539.40646 L185.97274 533.70518 L185.83122 527.97501 L185.87033 522.21935 L186.09239 516.44164 L186.49974 510.64528 L187.0947 504.8337 L187.87959 499.01032 L188.85675 493.17854 L190.0285 487.34178 L191.39718 481.50348 L192.9651 475.66703 L194.73461 469.83586 L196.70801 464.01339 L198.88765 458.20303 L200.05553 455.30347" />
    <path d="M535.18807 639.13078 L533.13139 642.04835 L528.90712 647.72856 L524.5393 653.20254 L520.03317 658.47074 L515.39394 663.53357 L510.62685 668.39147 L505.73712 673.04487 L500.72998 677.49419 L495.61065 681.73987 L490.38437 685.78234 L485.05635 689.62202 L479.63183 693.25935 L474.11603 696.69474 L468.51418 699.92865 L462.8315 702.96148 L457.07323 705.79367 L451.24458 708.42566 L445.35078 710.85787 L439.39707 713.09073 L433.38867 715.12466 L427.33079 716.96011 L421.22868 718.59749 L415.08756 720.03724 L408.91265 721.27979 L402.70918 722.32556 L396.48237 723.17499 L390.23746 723.8285 L383.97967 724.28653 L377.71423 724.54951 L371.44636 724.61785 L365.18129 724.492 L358.92424 724.17238 L352.68045 723.65942 L346.45514 722.95355 L340.25353 722.05521 L334.08086 720.96481 L327.94234 719.68279 L321.84321 718.20958 L315.7887 716.5456 L309.78402 714.6913 L303.83441 712.64709 L297.94508 710.4134 L292.12128 707.99067 L286.36823 705.37933 L280.69114 702.5798 L275.09525 699.59251 L269.58579 696.4179 L264.16798 693.05639 L258.84704 689.50841 L253.62822 685.77439 L248.51672 681.85476 L243.51778 677.74995 L238.63662 673.46039 L233.87848 668.98651 L229.24857 664.32874 L224.75213 659.4875 L220.39437 654.46323 L216.18054 649.25636 L212.11584 643.86731 L208.20552 638.29651 L204.4548 632.5444 L200.86889 626.61141 L197.45304 620.49796 L194.21247 614.20448 L192.65954 610.99036 L192.65954 610.99036 L190.82136 606.98798 L187.42248 598.88834 L184.39451 590.67268 L181.7386 582.35361 L179.45588 573.94375 L177.54748 565.45569 L176.01454 556.90205 L174.8582 548.29543 L174.07959 539.64845 L173.67984 530.9737 L173.66009 522.28381 L174.02148 513.59137 L174.76514 504.90899 L175.89221 496.24929 L177.40382 487.62486 L179.3011 479.04833 L180.39473 474.78196" />
    <path d="M185.222 623.8758 L182.67306 618.83825 L177.98512 608.56933 L175.84863 603.34348" />
    <path d="M392.42209 748.47766 L387.29488 748.88888 L377.08597 749.35835 L366.94761 749.36419 L356.89165 748.91481 L346.92993 748.01859 L337.0743 746.68394 L327.33661 744.91923 L317.72869 742.73288 L308.2624 740.13327 L298.94957 737.12879 L289.80206 733.72784 L280.83171 729.93882 L272.05035 725.77012 L263.46984 721.23014 L255.10203 716.32726 L246.95875 711.06988 L239.05185 705.46639 L231.39318 699.5252 L223.99458 693.25469 L216.86789 686.66327 L210.02497 679.75931 L203.47765 672.55122 L197.23778 665.04739 L191.3172 657.25622 L185.72776 649.18609 L180.48131 640.84541 L175.58969 632.24257 L171.06474 623.38596 L166.91831 614.28398 L163.16224 604.94502 L159.80838 595.37747 L156.86858 585.58973 L155.55765 580.61591" />
    <path d="M390.46657 761.09 L386.23798 761.38561 L377.84019 761.7585 L369.52455 761.84454 L361.29457 761.64888 L353.15377 761.17664 L345.1057 760.43295 L337.15387 759.42296 L329.3018 758.15178 L321.55303 756.62457 L313.91107 754.84644 L306.37947 752.82254 L298.96173 750.55799 L291.66139 748.05793 L284.48197 745.3275 L277.427 742.37182 L270.5 739.19603 L263.7045 735.80526 L257.04403 732.20465 L250.52211 728.39933 L244.14227 724.39442 L237.90803 720.19508 L231.82292 715.80642 L225.89046 711.23358 L220.11418 706.4817 L214.49761 701.55591 L209.04427 696.46134 L203.75769 691.20312 L198.64139 685.78639 L193.6989 680.21628 L188.93375 674.49793 L184.34945 668.63646 L179.94955 662.63701 L175.73755 656.50472 L171.71699 650.24472 L167.8914 643.86213 L164.2643 637.3621 L160.83921 630.74976 L157.61966 624.03024 L154.60918 617.20867 L151.8113 610.29019 L149.22953 603.27992 L146.86741 596.18301 L144.72845 589.00459 L142.8162 581.74979 L141.13416 574.42373 L139.68587 567.03157 L138.47486 559.57842 L137.50464 552.06943 L136.77875 544.50972 L136.30071 536.90444 L136.07405 529.2587 L136.10229 521.57765 L136.38895 513.86642 L136.93757 506.13014 L137.75167 498.37394 L138.83478 490.60297 L140.19042 482.82234 L141.82211 475.03721 L143.73339 467.25268 L145.92777 459.47391 L148.40879 451.70603 L151.17997 443.95416 L154.24484 436.22345 L157.60692 428.51901 L159.40051 424.67826 L159.40051 424.67826 L161.02999 421.33274 L164.44555 414.72261 L168.06764 408.22442 L171.89355 401.84302 L173.88209 398.69764" />
    <path d="M268.45722 751.54465 L264.4189 749.64688 L256.50887 745.68114 L248.8215 741.49389 L241.35741 737.09166 L234.11719 732.48097 L227.10145 727.66836 L220.3108 722.66035 L213.74585 717.46347 L207.4072 712.08425 L201.29546 706.5292 L195.41124 700.80487 L189.75515 694.91777 L184.32778 688.87444 L179.12976 682.6814 L174.16168 676.34517 L169.42416 669.87229 L164.9178 663.26928 L160.6432 656.54267 L156.60098 649.69899 L152.79174 642.74476 L149.21609 635.68651 L145.87464 628.53076 L142.76799 621.28406 L139.89675 613.95291 L137.26153 606.54385 L134.86293 599.0634 L132.70156 591.5181 L130.77803 583.91447 L129.09294 576.25903 L127.64691 568.55832 L126.44054 560.81886 L125.47444 553.04717 L124.7492 545.24979 L124.26545 537.43324 L124.02379 529.60405 L124.02482 521.76875 L124.26916 513.93386 L124.7574 506.10591 L125.49016 498.29142 L126.46804 490.49693 L127.69166 482.72896 L129.16161 474.99404 L130.8785 467.2987 L132.84295 459.64945 L135.05556 452.05284 L137.51693 444.51538 L140.22767 437.04361 L143.1884 429.64404 L146.39971 422.32321 L149.86221 415.08765 L153.57652 407.94388 L157.54324 400.89843 L161.76297 393.95782 L166.23632 387.12859 L170.9639 380.41726 L175.94632 373.83035 L181.18418 367.3744 L186.6781 361.05593 L192.42867 354.88146 L198.4365 348.85753 L204.70221 342.99067 L211.2264 337.28739 L218.00967 331.75423 L225.05264 326.39771 L228.6717 323.78773 L228.6717 323.78773 L232.33437 321.23933 L239.72382 316.37192 L247.19377 311.80809 L254.73827 307.54511 L262.35135 303.58023 L270.02706 299.91073 L277.75945 296.53386 L285.54255 293.44689 L293.37042 290.64707 L301.2371 288.13167 L309.13663 285.89795 L317.06305 283.94318 L325.01041 282.26461 L332.97276 280.85951 L340.94413 279.72515 L348.91857 278.85877 L356.89012 278.25765 L364.85283 277.91905 L372.80075 277.84022 L380.72791 278.01844 L388.62836 278.45096 L396.49614 279.13505 L404.3253 280.06797 L412.10988 281.24697 L419.84392 282.66933 L427.52148 284.33231 L435.13659 286.23316 L442.68329 288.36915 L450.15564 290.73754 L457.54767 293.3356 L464.85342 296.16058 L472.06695 299.20975 L479.1823 302.48037 L486.1935 305.96971 L493.09461 309.67502 L499.87967 313.59356 L506.54271 317.72261 L513.0778 322.05941 L519.47896 326.60124 L525.74024 331.34536 L531.8557 336.28903 L537.81936 341.4295 L543.62528 346.76405 L549.26749 352.28993 L554.74005 358.00441 L560.03699 363.90475 L565.15237 369.98821 L570.08022 376.25206 L574.81458 382.69355 L579.34951 389.30995 L583.67904 396.09852 L587.79722 403.05652 L591.6981 410.18121 L595.37571 417.46987 L598.82411 424.91974 L602.03733 432.5281 L605.00941 440.29219 L607.73441 448.2093 L610.20637 456.27667 L612.41933 464.49157 L614.36733 472.85127 L616.04442 481.35302 L617.44464 489.99409 L618.56204 498.77174 L619.01282 503.21092" />
    <path d="M382.49895 265.95784 L387.17853 266.18544 L396.444 266.87252 L405.58187 267.86369 L414.58894 269.15286 L423.46202 270.73394 L432.1979 272.60083 L440.79339 274.74744 L449.24529 277.16767 L457.55039 279.85544 L465.7055 282.80463 L473.70741 286.00917 L481.55294 289.46296 L489.23887 293.1599 L496.76201 297.0939 L504.11916 301.25886 L511.30712 305.64869 L518.32269 310.2573 L525.16267 315.07859 L531.82386 320.10647 L538.30306 325.33485 L544.59708 330.75762 L550.7027 336.3687 L556.61675 342.16199 L562.336 348.13139 L567.85727 354.27083 L573.17736 360.57418 L578.29306 367.03538 L583.20117 373.64831 L587.8985 380.4069 L592.38185 387.30503 L596.64802 394.33662 L600.6938 401.49558 L604.516 408.7758 L608.11143 416.17121 L611.47687 423.67569 L614.60913 431.28316 L617.50501 438.98752 L620.16131 446.78269 L622.57483 454.66256 L624.74237 462.62104 L626.66074 470.65203 L628.32673 478.74945 L629.73714 486.9072 L630.88878 495.11918 L631.77844 503.3793 L632.40292 511.68147 L632.75904 520.01959 L632.84357 528.38756 L632.65334 536.7793 L632.18512 545.18871 L631.43574 553.6097 L630.40199 562.03616 L629.08066 570.46202 L627.46856 578.88116 L625.56249 587.28751 L623.35925 595.67495 L620.85565 604.03741 L618.04847 612.36879 L614.93452 620.66298 L611.51061 628.91391 L607.77352 637.11547 L603.72007 645.26156 L599.34706 653.34611 L594.65128 661.363 L592.18135 665.34418 L592.18135 665.34418 L588.53332 670.95391 L580.82422 681.86531 L572.57961 692.35018 L563.81777 702.38965 L554.55697 711.96481 L544.81547 721.05679 L534.61156 729.64668 L523.96349 737.7156 L518.47861 741.54879" />
    <path d="M483.7784 775.0885 L479.31594 777.04673 L470.3702 780.70562 L461.40148 784.02451 L452.41554 787.00752 L443.41817 789.65874 L434.41512 791.9823 L425.41217 793.98229 L416.41508 795.66283 L407.42961 797.02803 L398.46155 798.08199 L389.51665 798.82883 L380.60068 799.27266 L371.71942 799.41758 L362.87862 799.26771 L354.08406 798.82715 L345.3415 798.10002 L336.65672 797.09042 L328.03547 795.80245 L319.48353 794.24025 L311.00667 792.4079 L302.61065 790.30952 L294.30124 787.94922 L286.08421 785.33111 L277.96533 782.4593 L269.95036 779.3379 L262.04508 775.97101 L254.25524 772.36275 L246.58662 768.51723 L239.04499 764.43855 L231.63611 760.13083 L224.36575 755.59817 L217.23968 750.84469 L210.26366 745.87448 L203.44347 740.69167 L196.78488 735.30037 L190.29364 729.70467 L183.97553 723.90869 L177.83632 717.91654 L171.88177 711.73234 L166.11765 705.36018 L160.54973 698.80417 L155.18378 692.06844 L150.02556 685.15708 L145.08085 678.07421 L140.3554 670.82394 L135.855 663.41036 L131.5854 655.83761 L127.55237 648.10977 L123.76168 640.23097 L120.21911 632.20532 L116.93041 624.03691 L113.90135 615.72987 L111.13771 607.28829 L108.64525 598.7163 L106.42974 590.01799 L104.49694 581.19749 L102.85262 572.25889 L101.50256 563.20631 L100.45252 554.04386 L99.70827 544.77564 L99.27557 535.40577 L99.16019 525.93835 L99.3679 516.3775 L99.90447 506.72732 L100.29788 501.87002" />
    <path d="M644.2968 441.09362 L645.44102 444.8451 L647.57207 452.38556 L649.49295 459.97235 L651.20331 467.60111 L652.70276 475.26743 L653.99094 482.96694 L655.06749 490.69525 L655.93204 498.44797 L656.58421 506.22072 L657.02364 514.00911 L657.24997 521.80876 L657.26282 529.61527 L657.06183 537.42428 L656.64662 545.23137 L656.01684 553.03219 L655.17211 560.82233 L654.66902 564.71202" />
    <path d="M669.24937 510.08282 L669.55173 517.27378 L669.63452 531.66501 L669.41491 538.85898" />
    <path d="M144.6934 315.38584 L148.51999 311.32802 L156.31048 303.47657 L164.27737 295.97585 L172.41269 288.82403 L180.70844 282.0193 L189.15663 275.55983 L197.74927 269.44381 L206.47837 263.66942 L215.33595 258.23484 L224.31402 253.13823 L233.40458 248.3778 L242.59965 243.9517 L251.89123 239.85814 L261.27134 236.09527 L270.73199 232.66129 L280.26519 229.55437 L289.86295 226.7727 L299.51729 224.31444 L309.2202 222.17779 L318.9637 220.36092 L328.73981 218.86202 L338.54053 217.67925 L348.35788 216.8108 L358.18386 216.25486 L368.01049 216.00959 L377.82978 216.07318 L387.63373 216.44381 L397.41436 217.11967 L407.16368 218.09891 L416.8737 219.37974 L426.53642 220.96033 L436.14387 222.83885 L445.68806 225.01349 L455.16098 227.48243 L464.55466 230.24384 L473.8611 233.29591 L483.07232 236.63681 L492.18032 240.26473 L501.17712 244.17785 L510.05472 248.37434 L518.80514 252.85238 L527.4204 257.61016 L535.89249 262.64585 L544.21343 267.95763 L552.37523 273.54369 L560.3699 279.4022 L568.18945 285.53134 L575.8259 291.92929 L583.27125 298.59424 L590.51751 305.52435 L597.5567 312.71782 L604.38083 320.17282 L610.9819 327.88752 L617.35193 335.86012 L623.48292 344.08878 L629.3669 352.5717 L634.99586 361.30704 L640.36183 370.29299 L645.4568 379.52773 L650.2728 389.00944 L654.80183 398.73629 L659.0359 408.70647 L662.96703 418.91816 L666.58722 429.36953 L668.27822 434.68453 L668.27822 434.68453 L669.63089 439.18427 L672.12486 448.21767 L674.33789 457.29124 L676.27106 466.39895 L677.92545 475.53476 L679.30213 484.69264 L680.40219 493.86655 L681.22669 503.05045 L681.77673 512.2383 L682.05337 521.42408 L682.05769 530.60173 L681.79078 539.76523 L681.2537 548.90853 L680.44755 558.0256 L679.37338 567.11041 L678.03229 576.15691 L676.42534 585.15907 L674.55363 594.11085 L672.41821 603.00622 L670.02018 611.83913 L667.36061 620.60356 L664.44058 629.29346 L661.26116 637.90279 L657.82344 646.42553 L654.12849 654.85562 L650.17738 663.18705 L645.9712 671.41376 L641.51102 679.52972 L636.79793 687.52889 L631.83299 695.40525 L626.61729 703.15274 L621.15191 710.76534 L618.32592 714.51916" />
    <path d="M209.91192 804.89296 L206.27117 802.74364 L199.10559 798.32536 L192.09533 793.75053 L185.24133 789.02276 L178.54448 784.14568 L172.00571 779.12289 L165.62592 773.95799 L159.40605 768.6546 L153.34699 763.21632 L147.44966 757.64677 L141.71498 751.94955 L136.14387 746.12828 L130.73724 740.18656 L125.496 734.128 L120.42107 727.95622 L115.51337 721.67481 L110.77381 715.2874 L106.2033 708.79759 L101.80276 702.20899 L97.57311 695.5252 L93.51525 688.74985 L89.63011 681.88653 L85.9186 674.93886 L82.38164 667.91045 L79.02014 660.8049 L75.83501 653.62583 L72.82717 646.37684 L69.99754 639.06155 L67.34702 631.68356 L64.87655 624.24648 L62.58702 616.75393 L60.47936 609.2095 L58.55448 601.61682 L56.81329 593.97949 L55.25671 586.30112 L53.88567 578.58532 L52.70106 570.8357 L51.7038 563.05586 L50.89482 555.24943 L50.27502 547.42 L49.84533 539.57118 L49.60665 531.70659 L49.5599 523.82984 L49.706 515.94453 L50.04585 508.05428 L50.58039 500.16269 L51.31051 492.27337 L52.23715 484.38993 L53.3612 476.51599 L54.68359 468.65514 L56.20523 460.81101 L57.92703 452.9872 L59.84992 445.18731 L61.97481 437.41497 L64.3026 429.67377 L66.83423 421.96733 L69.57059 414.29925 L72.51261 406.67315 L75.6612 399.09264 L79.01728 391.56132 L82.58176 384.08281 L86.35556 376.66071 L90.33959 369.29863 L94.53477 362.00018 L96.71182 358.37595" />
    <path d="M276.55983 205.24238 L282.34774 203.57347 L293.90598 200.55671 L305.43544 197.96299 L316.92967 195.7862 L328.38227 194.02026 L339.78679 192.6591 L351.13681 191.69663 L362.42591 191.12676 L373.64766 190.94341 L384.79563 191.14049 L395.86339 191.71193 L406.84453 192.65163 L417.7326 193.95352 L428.5212 195.61152 L439.20388 197.61952 L449.77423 199.97146 L460.22581 202.66125 L470.5522 205.68281 L480.74698 209.03004 L490.80371 212.69687 L500.71597 216.67722 L510.47734 220.965 L520.08138 225.55412 L529.52168 230.4385 L538.79179 235.61206 L547.88531 241.06871 L556.79579 246.80238 L565.51682 252.80697 L574.04197 259.0764 L582.36481 265.60459 L590.47891 272.38546 L598.37785 279.41291 L606.0552 286.68087 L613.50454 294.18326 L620.71943 301.91398 L627.69345 309.86696 L634.42018 318.03611 L640.89319 326.41535 L647.10605 334.99859 L653.05234 343.77975 L658.72562 352.75275 L664.11947 361.9115 L669.22747 371.24991 L674.04319 380.76191 L678.56021 390.44141 L682.77208 400.28233 L686.6724 410.27857 L690.25473 420.42407 L693.51264 430.71273 L696.43972 441.13847 L699.02952 451.69521 L701.27564 462.37686 L703.17163 473.17734 L704.71107 484.09057 L705.88755 495.11045 L706.69462 506.23092 L707.12586 517.44587 L707.17486 528.74924 L706.83517 540.13493 L706.10037 551.59687 L704.96405 563.12896 L703.41976 574.72512 L701.46109 586.37928 L699.0816 598.08534 L697.73204 603.95594 L697.73204 603.95594 L696.31756 609.6573 L693.19222 620.97254 L689.67502 632.16274 L685.76991 643.21786 L681.48084 654.12783 L676.81175 664.88261 L671.76662 675.47213 L666.34938 685.88635 L663.50246 691.02457" />
    <path d="M683.4495 679.82711 L681.43396 683.84765 L677.2687 691.77622 L672.92759 699.55375 L668.41431 707.179 L663.73254 714.65074 L658.88595 721.96772 L653.87821 729.1287 L648.71299 736.13244 L643.39399 742.9777 L637.92486 749.66324 L632.30928 756.18782 L626.55093 762.55019 L620.65349 768.74913 L614.62062 774.78338 L608.45601 780.6517 L602.16332 786.35286 L595.74624 791.88562 L589.20843 797.24873 L582.55358 802.44095 L575.78535 807.46105 L568.90743 812.30778 L561.92348 816.9799 L554.83718 821.47618 L547.65221 825.79536 L540.37224 829.93622 L533.00095 833.8975 L525.54201 837.67798 L517.99909 841.2764 L510.37588 844.69153 L502.67604 847.92212 L494.90325 850.96695 L487.06119 853.82476 L479.15352 856.49431 L471.18393 858.97437 L463.15609 861.26369 L455.07368 863.36104 L446.94037 865.26517 L438.75983 866.97485 L430.53573 868.48882 L422.27177 869.80586 L413.9716 870.92471 L405.63891 871.84415 L397.27736 872.56293 L388.89064 873.0798 L380.48242 873.39354 L372.05637 873.50289 L363.61616 873.40662 L355.16549 873.10348 L346.708 872.59224 L338.2474 871.87166 L329.78733 870.94049 L321.3315 869.79749 L312.88355 868.44143 L304.44718 866.87106 L296.02606 865.08515 L287.62386 863.08244 L279.24426 860.86171 L270.89092 858.4217 L262.56754 855.76119 L254.27777 852.87893 L246.0253 849.77367 L237.8138 846.44418 L229.64695 842.88922 L221.52842 839.10755 L217.48842 837.13131" />
    <path d="M88.02154 305.55833 L92.03354 300.48253 L100.2429 290.62236 L108.69155 281.14965 L117.37007 272.06313 L126.26906 263.36148 L135.37909 255.04343 L144.69075 247.10766 L154.19462 239.55288 L163.88129 232.3778 L173.74134 225.58112 L183.76535 219.16154 L193.9439 213.11777 L204.26759 207.44851 L214.72699 202.15247 L225.31269 197.22834 L236.01528 192.67483 L246.82532 188.49065 L257.73342 184.6745 L268.73015 181.22508 L279.8061 178.14109 L290.95185 175.42125 L302.15798 173.06425 L313.41508 171.06879 L324.71374 169.43358 L336.04453 168.15733 L347.39803 167.23874 L358.76485 166.67651 L370.13555 166.46934 L381.50071 166.61594 L392.85094 167.11501 L404.1768 167.96525 L415.46888 169.16538 L426.71777 170.71409 L437.91405 172.61008 L449.04831 174.85207 L460.11112 177.43875 L471.09307 180.36882 L481.98474 183.641 L492.77672 187.25398 L503.4596 191.20646 L514.02395 195.49716 L524.46036 200.12478 L534.75941 205.08801 L544.91169 210.38557 L554.90778 216.01615 L564.73827 221.97846 L574.39373 228.2712 L583.86476 234.89308 L593.14193 241.8428 L602.21583 249.11907 L611.07704 256.72058 L619.71615 264.64604 L628.12374 272.89416 L636.2904 281.46363 L644.2067 290.35317 L651.86324 299.56148 L659.25059 309.08725 L666.35934 318.92919 L673.18007 329.08601 L679.70337 339.55642 L685.91983 350.3391 L691.82001 361.43277 L697.39452 372.83614 L702.63392 384.54789 L705.12502 390.51901 L705.12502 390.51901 L707.51479 396.53141 L711.94928 408.57101 L715.92855 420.6241 L719.45845 432.68319 L722.5448 444.74076 L725.19344 456.78931 L727.41018 468.82133 L729.20088 480.82931 L730.57135 492.80575 L731.52742 504.74314 L732.07493 516.63397 L732.21971 528.47075 L731.96759 540.24595 L731.3244 551.95209 L730.29597 563.58163 L728.88813 575.1271 L727.10671 586.58096 L724.95755 597.93573 L722.44647 609.18389 L719.57931 620.31793 L716.36189 631.33036 L712.80004 642.21365 L708.89961 652.96032 L704.66641 663.56284 L700.10628 674.01372 L695.22505 684.30544 L690.02856 694.43051 L684.52262 704.38141 L678.71308 714.15063 L672.60576 723.73068 L666.20649 733.11404 L659.52111 742.29321 L652.55544 751.26068 L645.31532 760.00894 L637.80658 768.5305 L630.03505 776.81783 L622.00655 784.86344 L613.72693 792.65982 L605.20201 800.19946 L596.43761 807.47486 L587.43958 814.47851 L578.21375 821.20289 L568.76594 827.64052 L559.10198 833.78387 L549.22771 839.62545 L539.14895 845.15775 L528.87154 850.37325 L518.40131 855.26446 L507.74409 859.82387 L496.90571 864.04396 L485.89201 867.91724 L474.7088 871.4362 L463.36192 874.59333 L451.85721 877.38112 L440.20049 879.79207 L428.3976 881.81867 L416.45436 883.45342 L404.37661 884.68881 L392.17018 885.51733 L379.8409 885.93147 L367.39459 885.92373 L354.8371 885.48661 L342.17424 884.61259 L329.41186 883.29417 L322.99517 882.46596" />
  </g>
</svg>