<?xml version="1.0" standalone="no"?>
<!DOCTYPE svg PUBLIC "-//W3C//DTD SVG 1.1//EN" 
    "http://www.w3.org/Graphics/SVG/1.1/DTD/svg11.dtd">
<svg width="21cm" height="29.7cm"
    xmlns="http://www.w3.org/2000/svg" version="1.1" viewBox="0 0 744.09449 1052.3622">
  <g fill="none" stroke="black" stroke-width="0.03cm">
    <path d="M371.666 522.06486 L372.24925 522.05037 L373.33839 522.24748 L374.29743 522.708 L375.09407 523.38628 L375.69599 524.23666 L376.07086 525.21347 L376.18637 526.27107 L376.0102 527.36379 L375.80264 527.90905 L375.80264 527.90905 L375.50469 528.44737 L374.70706 529.34572 L373.69542 529.97226 L372.53579 530.28613 L371.92111 530.31304" />
    <path d="M386.50415 518.155 L386.93343 518.98226 L387.644 520.6887 L388.15638 522.45019 L388.4695 524.24967 L388.58232 526.07012 L388.49377 527.89449 L388.20281 529.70576 L387.70836 531.48688 L387.38451 532.36082" />
    <path d="M371.02119 555.09991 L369.71174 555.02405 L367.1402 554.70105 L364.64075 554.15778 L362.22413 553.40393 L359.90108 552.44918 L357.68235 551.30324 L355.57868 549.97578 L353.6008 548.47651 L351.75946 546.81511 L350.06541 545.00128 L348.52937 543.04471 L347.1621 540.95508 L345.97433 538.7421 L344.9768 536.41545 L344.18027 533.98483 L343.59546 531.45992 L343.38581 530.16514" />
    <path d="M350.30079 491.02474 L351.57506 490.266 L354.15481 488.90279 L356.76972 487.74181 L359.4121 486.77894 L362.07426 486.01002 L364.74849 485.43093 L367.4271 485.03752 L370.10239 484.82566 L374.09225 484.83921 L379.32859 485.45407 L384.41307 486.72062 L389.2841 488.60575 L393.88009 491.07636 L398.13946 494.09934 L402.00063 497.64158 L405.40199 501.66998 L407.61422 504.99041 L408.91327 507.33871 L410.06273 509.78992 L411.05491 512.33992 L411.88209 514.98455 L412.53658 517.71968 L413.01069 520.54118 L413.29671 523.4449 L413.36678 524.9263 L413.36678 524.9263 L413.36218 527.58595 L412.84964 532.82245 L411.68994 537.90211 L409.91177 542.76914 L407.54386 547.36779 L404.61492 551.64228 L401.15367 555.53684 L397.18884 558.9957 L395.02654 560.54431" />
    <path d="M384.08229 578.55631 L382.396 578.91551 L379.0131 579.46841 L375.62449 579.80297 L372.23985 579.92193 L368.86883 579.82804 L365.52111 579.52407 L362.20635 579.01277 L358.93422 578.2969 L355.71438 577.3792 L352.55651 576.26243 L349.47026 574.94936 L346.46531 573.44273 L343.55133 571.7453 L340.73798 569.85983 L338.03492 567.78906 L335.45183 565.53576 L334.20829 564.34153" />
    <path d="M408.17168 581.58646 L406.16233 582.84867 L402.08788 585.12752 L397.94946 587.08421 L393.75954 588.72509 L389.53061 590.05647 L385.27512 591.08468 L381.00556 591.81605 L376.73439 592.2569 L372.47408 592.41356 L368.23712 592.29236 L364.03596 591.89961 L359.88308 591.24166 L355.79096 590.32481 L351.77206 589.15541 L347.83885 587.73977 L344.00382 586.08422 L340.27942 584.19509 L336.67814 582.07871 L333.21244 579.74139 L329.89479 577.18947 L326.73768 574.42927 L323.75356 571.46712 L320.95491 568.30934 L318.35421 564.96227 L315.96392 561.43222 L313.79651 557.72552 L311.86447 553.8485 L310.18025 549.80749 L308.75634 545.6088 L307.6052 541.25878 L306.7393 536.76373 L306.17112 532.13 L306.00258 529.7631 L306.00258 529.7631 L305.90585 526.41943 L306.21554 519.78142 L307.18202 513.24816 L308.78845 506.86638 L311.01797 500.68285 L313.85372 494.74432 L317.27884 489.09753 L321.27648 483.78924 L323.48472 481.27665" />
    <path d="M450.22039 518.56464 L450.49255 522.25863 L450.51345 529.66044 L450.26216 533.35591" />
    <path d="M418.99735 604.06987 L416.17494 605.70676 L410.46542 608.6404 L404.68364 611.12825 L398.84643 613.17962 L392.97063 614.80381 L387.07306 616.01011 L381.17057 616.80782 L375.27996 617.20624 L369.41809 617.21467 L363.60178 616.8424 L357.84786 616.09875 L352.17316 614.99299 L346.59451 613.53444 L341.12874 611.73238 L335.79269 609.59613 L330.60319 607.13498 L325.57706 604.35822 L320.73113 601.27515 L316.08225 597.89508 L311.64723 594.2273 L307.44291 590.28111 L303.48613 586.06581 L299.7937 581.5907 L296.38247 576.86507 L293.26926 571.89823 L290.4709 566.69946 L288.00423 561.27808 L285.88608 555.64338 L284.13327 549.80466 L282.76264 543.77121 L281.79102 537.55234 L281.23524 531.15734 L281.11855 527.8967 L281.11855 527.8967 L281.11216 524.63398 L281.42631 518.22257 L282.16266 511.97147 L283.30472 505.89062 L284.83604 499.98993 L286.74013 494.27934 L289.00054 488.76877 L291.6008 483.46815 L294.52444 478.38741 L297.75499 473.53647 L301.27597 468.92525 L305.07094 464.56369 L309.1234 460.46172 L313.41691 456.62926 L317.93499 453.07623 L322.66116 449.81256 L327.57897 446.84818 L332.67194 444.19302 L337.92361 441.85701 L343.31751 439.85006 L348.83717 438.18211 L354.46612 436.86308 L360.1879 435.9029 L365.98603 435.3115 L371.84405 435.09881 L377.74548 435.27474 L383.67387 435.84923 L389.61274 436.8322 L395.54563 438.23359 L401.45606 440.06331 L407.32757 442.3313 L413.1437 445.04748 L416.02584 446.57674" />
    <path d="M311.51111 609.94187 L309.29536 608.29602 L305.03455 604.8642 L301.00247 601.2539 L297.20047 597.47509 L293.6299 593.53777 L290.29213 589.4519 L287.1885 585.22747 L284.32038 580.87447 L281.68912 576.40288 L279.29608 571.82268 L277.14261 567.14384 L275.23007 562.37636 L273.55981 557.53022 L272.13319 552.61539 L270.95158 547.64187 L270.01631 542.61963 L269.32876 537.55865 L268.89027 532.46891 L268.7022 527.36041 L268.76591 522.24312 L269.08275 517.12702 L269.65409 512.02209 L270.48127 506.93833 L271.56565 501.8857 L272.90859 496.87419 L274.51145 491.91379 L276.37558 487.01448 L278.50233 482.18623 L280.89307 477.43904 L283.54915 472.78287 L286.47192 468.22772 L289.66274 463.78357 L291.35909 461.60624" />
    <path d="M259.04033 551.22194 L258.21064 547.15311 L256.98784 539.07537 L256.33213 531.0913 L256.22545 523.21744 L256.64976 515.47032 L257.58701 507.86646 L259.01917 500.42241 L260.92818 493.15469 L263.29599 486.07984 L266.10458 479.21438 L269.33588 472.57485 L272.97186 466.17778 L276.99447 460.0397 L281.38566 454.17714 L286.12739 448.60664 L291.20162 443.34473 L296.5903 438.40794 L302.27539 433.81279 L308.23883 429.57583 L314.46259 425.71358 L320.92862 422.24258 L327.61887 419.17935 L334.51531 416.54044 L341.59988 414.34236 L348.85454 412.60166 L356.26124 411.33486 L363.80195 410.5585 L371.45861 410.28911 L379.21318 410.54321 L387.04762 411.33735 L394.94387 412.68805 L402.88391 414.61185 L406.8647 415.79382 L406.8647 415.79382 L410.55706 417.02382 L417.71086 419.79643 L424.55212 422.96923 L431.0752 426.52226 L437.27451 430.43555 L443.14444 434.68913 L448.67938 439.26304 L453.87371 444.1373 L458.72182 449.29195 L463.21812 454.70702 L467.35697 460.36254 L471.13279 466.23855 L474.53995 472.31508 L477.57285 478.57216 L480.22588 484.98983 L482.49342 491.54811 L484.36987 498.22704 L485.84962 505.00666 L486.92706 511.86699 L487.59657 518.78806 L487.85255 525.74992 L487.68939 532.73259 L487.10148 539.7161 L486.0832 546.68049 L484.62896 553.60579 L482.73313 560.47204 L480.39011 567.25926 L477.59429 573.94749 L474.34006 580.51675 L470.62181 586.9471 L466.43393 593.21854 L461.77081 599.31113 L459.25928 602.28411" />
    <path d="M255.14103 473.69053 L257.09482 469.52886 L261.35044 461.54741 L266.04768 454.02413 L271.15958 446.96176 L276.65918 440.36305 L282.51952 434.23074 L288.71366 428.56759 L295.21463 423.37635 L301.99548 418.65975 L309.02926 414.42055 L316.28901 410.6615 L323.74778 407.38533 L331.37861 404.59481 L339.15454 402.29268 L347.04862 400.48168 L355.03389 399.16456 L363.08341 398.34408 L371.1702 398.02297 L379.26733 398.20399 L387.34783 398.88988 L395.38475 400.08339 L403.35113 401.78727 L411.22002 404.00426 L418.96446 406.73712 L426.5575 409.98859 L433.97218 413.76141 L441.18154 418.05834 L448.15864 422.88213 L454.87651 428.23551 L461.30821 434.12125 L467.42677 440.54208 L473.20524 447.50075 L475.95851 451.18264 L475.95851 451.18264 L478.58574 454.9555 L483.37006 462.63171 L487.5368 470.46128 L491.09704 478.41949 L494.0619 486.48164 L496.44245 494.623 L498.24982 502.81885 L499.49508 511.04448 L500.18935 519.27517 L500.34371 527.48621 L499.96927 535.65286 L499.07713 543.75042 L497.67838 551.75417 L495.78412 559.63939 L493.40545 567.38137 L490.55347 574.95538 L487.23927 582.3367 L483.47396 589.50063 L479.26863 596.42244 L474.63438 603.07741 L469.58232 609.44083 L464.12352 615.48798 L458.26911 621.19414 L452.03016 626.53459 L445.41779 631.48462 L438.44309 636.01951 L431.11715 640.11454 L423.45108 643.74499 L415.45598 646.88615 L407.14293 649.51329 L398.52305 651.6017 L389.60743 653.12667 L385.04218 653.67013" />
    <path d="M243.75958 468.76239 L245.89704 464.19544 L250.55415 455.43608 L255.6962 447.17866 L261.29364 439.42621 L267.3169 432.18179 L273.73642 425.44844 L280.52264 419.22922 L287.64601 413.52718 L295.07695 408.34535 L302.78592 403.68679 L310.74335 399.55455 L318.91968 395.95167 L327.28535 392.88121 L335.8108 390.34621 L344.46647 388.34972 L353.2228 386.89479 L362.05023 385.98447 L370.9192 385.62181 L379.80015 385.80984 L388.66351 386.55164 L397.47974 387.85023 L406.21926 389.70867 L414.85253 392.13001 L423.34996 395.1173 L431.68202 398.67358 L439.81914 402.8019 L447.73175 407.50532 L455.39029 412.78687 L462.76522 418.64961 L469.82696 425.09659 L476.54596 432.13086 L482.89265 439.75545 L485.91714 443.79008 L485.91714 443.79008 L487.57077 446.12475 L490.71923 450.86772 L493.65599 455.70346 L496.38109 460.62553 L498.89455 465.62744 L501.1964 470.70275 L503.28667 475.84499 L505.16539 481.04769 L506.83258 486.30439 L508.28828 491.60864 L509.53251 496.95397 L510.5653 502.33391 L511.38668 507.74201 L511.99668 513.17179 L512.39533 518.6168 L512.58265 524.07058 L512.55867 529.52667 L512.32342 534.97859 L511.87694 540.41989 L511.21924 545.8441 L510.35036 551.24477 L509.27033 556.61543 L507.97917 561.94961 L506.47691 567.24086 L504.76358 572.48271 L502.83921 577.6687 L500.70383 582.79237 L498.35746 587.84725 L495.80013 592.82688 L493.03188 597.72481 L490.05273 602.53455 L486.86271 607.24967 L485.18863 609.56971" />
    <path d="M219.11165 523.88978 L219.17613 521.13897 L219.44262 515.68891 L219.88953 510.30928 L220.51334 505.00204 L221.31051 499.76915 L222.27751 494.61259 L223.41081 489.53433 L224.70688 484.53632 L226.94846 477.19412 L230.47398 467.70381 L234.58702 458.56999 L239.25935 449.80841 L244.46272 441.43481 L250.16888 433.46493 L256.34959 425.91454 L262.9766 418.79938 L270.02166 412.13519 L277.45654 405.93773 L285.25298 400.22274 L293.38274 395.00597 L301.81757 390.30316 L310.52924 386.13008 L319.48948 382.50246 L328.67006 379.43605 L338.04274 376.94661 L347.57925 375.04987 L357.25137 373.7616 L367.03085 373.09753 L376.88943 373.07341 L386.79888 373.70499 L396.73095 375.00803 L406.65738 376.99826 L414.08153 378.95139 L419.01449 380.47642 L423.93015 382.18211 L428.82499 384.07043 L433.69547 386.14335 L438.53807 388.40282 L443.34925 390.85083 L448.12547 393.48934 L450.49938 394.88065 L450.49938 394.88065 L452.84942 396.31191 L457.43606 399.26772 L461.8715 402.34457 L466.15581 405.53843 L470.28903 408.84524 L474.27125 412.26096 L478.1025 415.78156 L481.78286 419.40299 L487.0206 425.01536 L493.47669 432.8137 L499.33029 440.94261 L504.58188 449.36976 L509.23195 458.06281 L513.28098 466.98943 L516.72946 476.11727 L519.57787 485.41401 L521.82669 494.84731 L523.47641 504.38483 L524.52752 513.99425 L524.9805 523.64321 L524.83583 533.29939 L524.09399 542.93045 L522.75548 552.50406 L520.82077 561.98788 L518.29036 571.34958 L515.16472 580.55682 L511.44434 589.57726 L507.12971 598.37857 L502.2213 606.92841 L496.71961 615.19445 L490.62512 623.14435 L483.9383 630.74578 L478.53478 636.19872 L474.74758 639.70827 L470.81257 643.11251 L466.72982 646.40741 L462.49938 649.58891 L458.12132 652.65298 L453.59569 655.59558 L448.92256 658.41266 L446.5307 659.77287" />
    <path d="M364.20668 361.01276 L368.98259 360.85319 L378.439 360.93567 L387.75685 361.54152 L396.9226 362.65614 L405.92267 364.26495 L414.74349 366.35336 L423.37149 368.90678 L431.79311 371.91062 L439.99478 375.3503 L447.96293 379.21122 L455.68399 383.4788 L463.14439 388.13845 L470.33057 393.17559 L477.22896 398.57562 L483.82598 404.32395 L490.10808 410.406 L496.06169 416.80719 L501.67323 423.51292 L506.92914 430.5086 L511.81584 437.77965 L516.31978 445.31147 L520.42739 453.08949 L524.12509 461.09911 L527.39932 469.32574 L530.23651 477.75481 L532.62309 486.3717 L534.5455 495.16186 L535.99016 504.11067 L536.94351 513.20356 L537.39198 522.42593 L537.322 531.7632 L536.72001 541.20079 L536.21527 545.95264" />
    <path d="M549.66492 533.19 L549.42423 537.78153 L548.58886 546.92296 L547.28523 555.9941 L545.51778 564.97719 L543.29096 573.85448 L540.60924 582.60822 L537.47705 591.22068 L533.89886 599.67409 L531.9439 603.83561" />
    <path d="M523.24636 410.86114 L526.48196 415.23136 L532.54539 424.19791 L538.06089 433.44514 L543.02336 442.94809 L547.42771 452.68178 L551.26887 462.62127 L554.54173 472.74157 L557.24122 483.01773 L559.36225 493.42479 L560.89972 503.93778 L561.84855 514.53174 L562.20365 525.1817 L561.95994 535.8627 L561.11233 546.54978 L559.65572 557.21797 L557.58504 567.8423 L556.31783 573.13023" />
    <path d="M572.35601 496.07183 L572.83103 499.42211 L573.61238 506.13944 L574.16875 512.87442 L574.50006 519.62141 L574.60621 526.37476 L574.48711 533.12883 L574.14268 539.87797 L573.57283 546.61654 L573.20335 549.9801" />
    <path d="M584.29612 560.21767 L583.65155 564.03065 L582.18153 571.55712 L580.47478 578.94926 L578.5366 586.20503 L576.37229 593.3224 L573.98717 600.29936 L571.38654 607.13388 L568.57572 613.82393 L565.56 620.36749 L562.34469 626.76253 L558.93511 633.00702 L555.33657 639.09894 L551.55436 645.03626 L547.5938 650.81696 L543.46019 656.43901 L539.15884 661.90039 L534.69507 667.19907 L530.07417 672.33303 L525.30146 677.30023 L520.38225 682.09865 L515.32183 686.72628 L510.12553 691.18107 L504.79864 695.46101 L499.34648 699.56407 L493.77434 703.48823 L488.08755 707.23145 L482.29141 710.79172 L476.39122 714.167 L470.3923 717.35528 L464.29995 720.35452 L458.11947 723.1627 L451.85619 725.7778 L445.5154 728.19778 L439.10241 730.42063 L432.62253 732.44431 L426.08107 734.26681 L419.48333 735.88609 L412.83463 737.30013 L406.14027 738.50691 L399.40556 739.50439 L392.6358 740.29056 L385.83631 740.86338 L379.01239 741.22084 L372.16936 741.3609 L365.31251 741.28154 L358.44715 740.98074 L351.5786 740.45646 L344.71216 739.70669 L337.85314 738.72939 L331.00685 737.52255 L324.17859 736.08413 L317.37367 734.41211 L310.5974 732.50446 L303.85509 730.35917 L297.15205 727.97419 L290.49358 725.34752 L283.88499 722.47711 L277.33159 719.36095 L270.83868 715.99701 L264.41158 712.38326 L258.05559 708.51768 L251.77603 704.39825 L245.57819 700.02293 L239.46738 695.3897 L236.44627 692.97574 L236.44627 692.97574 L233.46642 690.51103 L227.68331 685.47472 L222.13491 680.30057 L216.82032 674.99417 L211.73865 669.56113 L206.88898 664.00708 L202.27043 658.33761 L197.88209 652.55834 L193.72306 646.67487 L189.79245 640.69282 L186.08935 634.61779 L182.61287 628.45539 L179.3621 622.21124 L176.33615 615.89095 L173.53411 609.50011 L170.95509 603.04435 L168.59819 596.52927 L166.4625 589.96048 L164.54713 583.34359 L162.85118 576.68421 L161.37375 569.98795 L160.11394 563.26042 L159.07085 556.50723 L158.24357 549.73399 L157.63122 542.9463 L157.23289 536.14978 L157.04768 529.35004 L157.07469 522.55269 L157.31302 515.76333 L157.76178 508.98758 L158.42006 502.23104 L159.28697 495.49933 L160.36159 488.79805 L161.64305 482.13281 L163.13042 475.50923 L164.82283 468.93291 L166.71935 462.40947 L168.81911 455.9445 L171.12119 449.54363 L173.6247 443.21245 L176.32874 436.95659 L179.2324 430.78165 L182.33479 424.69323 L185.63502 418.69696 L189.13217 412.79843 L192.82535 407.00326 L196.71366 401.31706 L200.7962 395.74543 L205.07208 390.29399 L209.54038 384.96835 L214.20022 379.77412 L219.05069 374.71689 L224.09089 369.8023 L229.31993 365.03593 L234.7369 360.42341 L240.3409 355.97035 L246.13104 351.68234 L252.10642 347.56501 L258.26613 343.62396 L264.60928 339.86481 L271.13496 336.29315 L277.84228 332.9146 L284.73034 329.73477 L291.79823 326.75927 L295.39934 325.3499" />
    <path d="M193.71126 667.21248 L191.20136 663.98293 L186.38846 657.45406 L181.84957 650.83683 L177.58246 644.13681 L173.58492 637.35959 L169.85473 630.51076 L166.38968 623.59589 L163.18754 616.62058 L160.24609 609.59041 L157.56312 602.51096 L155.13642 595.38782 L152.96375 588.22657 L151.04291 581.0328 L149.37168 573.8121 L147.94783 566.57003 L146.76915 559.3122 L145.83343 552.04418 L145.13843 544.77157 L144.68196 537.49993 L144.46178 530.23487 L144.47567 522.98196 L144.72143 515.74679 L145.19683 508.53494 L145.89966 501.352 L146.82769 494.20355 L147.97871 487.09518 L149.35051 480.03246 L150.94085 473.021 L152.74752 466.06636 L154.76832 459.17414 L157.00101 452.34992 L159.44338 445.59928 L162.09321 438.92781 L164.94828 432.34109 L168.00638 425.84471 L171.26529 419.44425 L174.72278 413.1453 L178.37665 406.95344 L182.22467 400.87426 L186.26462 394.91334 L190.49429 389.07626 L194.91146 383.36861 L199.5139 377.79598 L204.29941 372.36394 L209.26577 367.07809 L214.41075 361.94401 L219.73213 356.96727 L225.22771 352.15348 L230.89525 347.50821 L236.73256 343.03704 L242.73739 338.74556 L248.90754 334.63936 L255.24079 330.72402 L261.73493 327.00513 L268.38772 323.48826 L275.19696 320.17901 L282.16042 317.08295 L289.2759 314.20568 L296.54116 311.55277 L303.954 309.12982 L311.51218 306.9424 L319.21351 304.99611 L327.05575 303.29652 L335.03669 301.84922 L339.07848 301.22192 L339.07848 301.22192 L343.1303 300.66306 L351.19092 299.7594 L359.19106 299.13722 L367.127 298.79181 L374.99501 298.71845 L382.79137 298.91242 L390.51235 299.36903 L398.15421 300.08355 L405.71324 301.05127 L413.18571 302.26748 L420.56788 303.72746 L427.85603 305.4265 L435.04644 307.35989 L442.13538 309.52291 L449.11911 311.91085 L455.99392 314.519 L462.75607 317.34265 L469.40183 320.37708 L475.92749 323.61757 L482.32931 327.05942 L488.60357 330.69791 L494.74653 334.52833 L500.75447 338.54597 L506.62367 342.7461 L512.35039 347.12403 L517.93091 351.67503 L523.36151 356.39439 L528.63844 361.2774 L533.758 366.31935 L538.71644 371.51551 L543.51005 376.86119 L548.13509 382.35167 L552.58783 387.98222 L556.86456 393.74815 L560.96154 399.64473 L564.87505 405.66725 L568.60135 411.81101 L572.13672 418.07128 L575.47744 424.44335 L578.61978 430.92251 L581.56 437.50405 L584.29438 444.18326 L586.8192 450.95541 L589.13073 457.8158 L591.22523 464.75971 L593.09899 471.78244 L594.74827 478.87926 L596.16935 486.04547 L597.35851 493.27634 L598.312 500.56718 L599.02611 507.91325 L599.49711 515.30986 L599.72127 522.75229 L599.69486 530.23582 L599.41416 537.75574 L598.87544 545.30734 L598.07497 552.88591 L597.00902 560.48673 L595.67387 568.10508 L594.06579 575.73626 L592.18106 583.37555 L590.01594 591.01824 L587.5667 598.65962 L584.82963 606.29497 L583.35199 610.10891" />
    <path d="M611.21405 543.08988 L610.8735 547.38969 L609.98164 555.8966 L608.81353 564.27758 L607.37486 572.52984 L605.67133 580.65063 L603.70863 588.63715 L601.49247 596.48665 L599.02855 604.19635 L596.32255 611.76346 L593.38018 619.18523 L590.20714 626.45888 L586.80911 633.58162 L583.19181 640.5507 L579.36093 647.36333 L575.32216 654.01675 L571.0812 660.50817 L566.64376 666.83483 L562.01552 672.99396 L557.20219 678.98277 L552.20946 684.7985 L547.04303 690.43837 L541.7086 695.8996 L536.21186 701.17944 L530.55852 706.27509 L524.75426 711.18379 L518.8048 715.90277 L512.71582 720.42925 L506.49302 724.76045 L500.14211 728.89361 L493.66877 732.82596 L487.07871 736.5547 L480.37762 740.07709 L473.5712 743.39033 L466.66515 746.49166 L459.66517 749.3783 L452.57695 752.04749 L445.40619 754.49644 L438.15859 756.72238 L430.83984 758.72254 L423.45565 760.49415 L416.01171 762.03443 L408.51372 763.34061 L400.96738 764.40992 L393.37838 765.23958 L385.75241 765.82682 L378.09519 766.16886 L370.41241 766.26294 L362.70976 766.10627 L354.99294 765.69609 L347.26764 765.02962 L339.53958 764.10409 L331.81444 762.91673 L324.09792 761.46475 L316.39572 759.74539 L308.71353 757.75588 L301.05706 755.49344 L293.43201 752.9553 L285.84406 750.13868 L278.29891 747.04081 L270.80228 743.65891 L263.35984 739.99022 L255.9773 736.03196 L248.66036 731.78136 L241.41472 727.23564 L237.82041 724.85125 L237.82041 724.85125 L234.4523 722.53575 L227.88092 717.77882 L221.52925 712.85855 L215.39713 707.78049 L209.48444 702.55015 L203.79105 697.17306 L198.31681 691.65476 L193.06159 686.00077 L188.02526 680.21661 L183.20769 674.30781 L178.60873 668.27991 L174.22826 662.13842 L170.06614 655.88887 L166.12223 649.5368 L162.39641 643.08773 L158.88853 636.54718 L155.59846 629.92069 L152.52607 623.21377 L149.67122 616.43197 L147.03377 609.5808 L144.6136 602.66579 L142.41057 595.69247 L140.42454 588.66636 L138.65538 581.593 L137.10295 574.47791 L135.76713 567.32662 L134.64776 560.14465 L133.74473 552.93753 L133.0579 545.71079 L132.58712 538.46996 L132.33227 531.22057 L132.29321 523.96813 L132.46981 516.71818 L132.86193 509.47625 L133.46944 502.24786 L134.29221 495.03854 L135.33009 487.85381 L136.58295 480.69921 L138.05067 473.58026 L139.73309 466.50249 L141.6301 459.47142 L143.74156 452.49258 L146.06732 445.57151 L148.60726 438.71372 L151.36124 431.92475 L154.32913 425.21011 L157.51079 418.57535 L160.90609 412.02598 L164.51489 405.56753 L168.33706 399.20554 L172.37246 392.94552 L176.62097 386.793 L181.08243 380.75352 L185.75673 374.83259 L190.64372 369.03575 L195.74327 363.36852 L201.05525 357.83644 L206.57952 352.44502 L212.31594 347.19979 L218.26439 342.10629 L224.42472 337.17003 L230.79681 332.39655 L237.38051 327.79138 L244.1757 323.36003 L247.65256 321.21127" />
    <path d="M165.19571 381.95971 L167.82159 378.26058 L173.21365 371.05968 L178.78727 364.12146 L184.53581 357.44533 L190.45262 351.03074 L196.53107 344.87712 L202.76452 338.9839 L209.14633 333.35051 L215.66985 327.97639 L222.32845 322.86096 L229.11548 318.00367 L236.02431 313.40393 L243.0483 309.06119 L250.1808 304.97488 L257.41517 301.14443 L264.74478 297.56927 L272.16298 294.24884 L279.66314 291.18256 L287.23861 288.36988 L294.88275 285.81021 L302.58893 283.503 L310.3505 281.44768 L318.16082 279.64368 L326.01325 278.09043 L333.90116 276.78736 L341.8179 275.73392 L349.75683 274.92952 L357.71131 274.3736 L365.6747 274.0656 L373.64036 274.00494 L381.60165 274.19107 L389.55193 274.62341 L397.48456 275.30139 L405.3929 276.22444 L413.27031 277.39201 L421.11015 278.80352 L428.90578 280.45841 L436.65056 282.3561 L444.33784 284.49603 L451.961 286.87763 L459.51338 289.50033 L466.98834 292.36358 L474.37926 295.46679 L481.67948 298.8094 L488.88237 302.39085 L495.98128 306.21057 L502.96958 310.26798 L509.84063 314.56252 L516.58778 319.09363 L523.2044 323.86074 L529.68384 328.86327 L536.01947 334.10067 L542.20464 339.57236 L548.23271 345.27778 L554.09705 351.21635 L559.79102 357.38752 L565.30796 363.79071 L570.64125 370.42536 L575.78424 377.29089 L580.7303 384.38675 L585.47277 391.71236 L590.00503 399.26716 L594.32043 407.05058 L598.41234 415.06204 L600.3724 419.15312 L600.3724 419.15312 L602.263 423.27675 L605.80313 431.54687 L609.025 439.84288 L611.93243 448.15932 L614.52922 456.49073 L616.81918 464.83163 L618.80614 473.17657 L620.49389 481.52007 L621.88626 489.85667 L622.98705 498.18089 L623.80007 506.48729 L624.32914 514.77037 L624.57807 523.02469 L624.55067 531.24477 L624.25075 539.42515 L623.68213 547.56036 L622.84861 555.64493 L621.754 563.67339 L620.40212 571.64028 L618.79679 579.54014 L616.9418 587.36749 L614.84098 595.11686 L612.49813 602.7828 L609.91707 610.35983 L607.1016 617.84249 L604.05554 625.22531 L600.78271 632.50283 L597.28691 639.66957 L593.57195 646.72007 L589.64165 653.64886 L585.49981 660.45048 L581.15026 667.11945 L576.59679 673.65032 L571.84323 680.03762 L566.89338 686.27587 L561.75106 692.35962 L556.42007 698.28339 L550.90424 704.04172 L545.20736 709.62914 L539.33326 715.04018 L533.28574 720.26938 L527.06861 725.31127 L520.68569 730.16038 L514.14079 734.81125 L507.43772 739.25841 L500.5803 743.4964 L493.57232 747.51974 L486.41762 751.32296 L479.11998 754.90061 L471.68324 758.24722 L464.1112 761.35731 L456.40767 764.22543 L448.57646 766.8461 L440.62138 769.21386 L432.54626 771.32324 L424.35489 773.16877 L416.05109 774.74499 L407.63867 776.04643 L399.12145 777.06762 L390.50323 777.8031 L381.78782 778.2474 L372.97905 778.39506 L364.08071 778.24059 L355.09663 777.77855 L350.57362 777.43048" />
    <path d="M230.81727 302.46308 L234.86323 299.95652 L243.0104 295.19137 L251.22609 290.75416 L259.5041 286.64162 L267.83825 282.85051 L276.22235 279.37757 L284.65021 276.21955 L293.11564 273.37319 L301.61245 270.83523 L310.13445 268.60243 L318.67546 266.67153 L327.22928 265.03928 L335.78972 263.70241 L344.35061 262.65769 L352.90574 261.90184 L361.44893 261.43162 L369.974 261.24378 L378.47474 261.33506 L386.94498 261.7022 L395.37852 262.34195 L403.76918 263.25106 L412.11077 264.42628 L420.39709 265.86434 L428.62196 267.56199 L436.7792 269.51599 L444.8626 271.72307 L452.86599 274.17999 L460.78317 276.88348 L468.60796 279.8303 L476.33416 283.01718 L483.95559 286.44088 L491.46606 290.09814 L498.85937 293.98571 L506.12935 298.10033 L513.2698 302.43875 L520.27454 306.99771 L527.13737 311.77396 L533.8521 316.76425 L540.41256 321.96532 L546.81253 327.37391 L553.04585 332.98678 L559.10632 338.80067 L564.98775 344.81232 L570.68396 351.01848 L576.18875 357.4159 L581.49593 364.00132 L586.59932 370.77149 L591.49272 377.72315 L596.16996 384.85304 L600.62483 392.15793 L604.85116 399.63454 L608.84275 407.27963 L612.59341 415.08995 L616.09696 423.06223 L619.3472 431.19322 L622.33795 439.47968 L625.06301 447.91834 L627.51621 456.50595 L629.69135 465.23926 L631.58224 474.11501 L633.18269 483.12995 L634.48651 492.28082 L635.48752 501.56438 L636.17953 510.97736 L636.40772 515.73137 L636.40772 515.73137 L636.55549 520.48855 L636.60864 529.92678 L636.34354 539.26039 L635.76609 548.48562 L634.88221 557.59877 L633.69782 566.59608 L632.21882 575.47383 L630.45112 584.22828 L628.40065 592.85571 L626.07331 601.35238 L623.47502 609.71456 L620.61168 617.93852 L617.48922 626.02051 L614.11354 633.95682 L610.49055 641.7437 L606.62617 649.37744 L602.52632 656.85428 L598.1969 664.1705 L593.64383 671.32237 L588.87301 678.30616 L583.89037 685.11813 L578.70181 691.75455 L573.31325 698.21168 L567.7306 704.4858 L561.95977 710.57317 L556.00668 716.47007 L549.87724 722.17274 L543.57735 727.67748 L537.11294 732.98053 L530.48992 738.07818 L523.71419 742.96668 L516.79168 747.64231 L509.72829 752.10132 L502.52993 756.34 L495.20253 760.3546 L487.75198 764.1414 L480.18421 767.69666 L472.50513 771.01665 L464.72065 774.09763 L456.83667 776.93588 L448.85913 779.52766 L440.79392 781.86923 L432.64696 783.95688 L424.42417 785.78685 L416.13145 787.35543 L407.77472 788.65888 L399.35988 789.69346 L390.89287 790.45544 L382.37958 790.9411 L373.82592 791.14669 L365.23782 791.06849 L356.62118 790.70276 L347.98192 790.04577 L339.32595 789.09379 L330.65918 787.84308 L321.98753 786.28992 L313.3169 784.43057 L304.65321 782.26129 L296.00238 779.77836 L287.37031 776.97804 L278.76291 773.85661 L270.18611 770.41032 L261.64581 766.63544 L253.14793 762.52824 L248.91674 760.34886" />
    <path d="M150.34367 692.19037 L147.20105 687.90847 L141.17039 679.17598 L135.48374 670.22715 L130.14659 661.07227 L125.16443 651.72165 L120.54274 642.18557 L116.287 632.47433 L112.4027 622.59822 L110.60155 617.60156" />
    <path d="M196.40289 296.21566 L200.56647 293.09096 L208.97798 287.10634 L217.49606 281.4723 L226.11366 276.1859 L234.82372 271.24419 L243.61918 266.64423 L252.49298 262.38309 L261.43806 258.45781 L270.44736 254.86545 L279.51383 251.60308 L288.6304 248.66775 L297.79001 246.05651 L306.98562 243.76643 L316.21015 241.79457 L325.45655 240.13797 L334.71775 238.7937 L343.98671 237.75882 L353.25636 237.03038 L362.51964 236.60544 L371.76949 236.48106 L380.99886 236.65429 L390.20068 237.1222 L399.3679 237.88184 L408.49346 238.93026 L417.57029 240.26454 L426.59134 241.88171 L435.54955 243.77885 L444.43786 245.953 L453.24921 248.40123 L461.97655 251.1206 L470.61281 254.10816 L479.15093 257.36096 L487.58386 260.87607 L495.90453 264.65055 L504.10589 268.68144 L512.18088 272.96582 L520.12244 277.50073 L527.9235 282.28324 L535.57702 287.3104 L543.07593 292.57926 L550.41318 298.0869 L557.58169 303.83036 L564.57442 309.8067 L571.38431 316.01298 L578.00429 322.44626 L584.42731 329.10359 L590.64631 335.98203 L596.65423 343.07865 L602.44401 350.39049 L608.00859 357.91462 L613.34091 365.64808 L618.43391 373.58795 L623.28054 381.73128 L627.87374 390.07512 L632.20644 398.61654 L636.27158 407.35258 L640.06212 416.28031 L643.57098 425.39679 L646.79111 434.69907 L649.71545 444.18421 L652.33695 453.84927 L654.64854 463.69131 L656.64316 473.70738 L658.31375 483.89453 L659.02533 489.05135 L659.02533 489.05135 L659.71459 494.83531 L660.74148 506.41278 L661.30173 517.99166 L661.39797 529.55837 L661.03282 541.09932 L660.20891 552.60093 L658.92886 564.04962 L657.19531 575.43179 L655.01087 586.73386 L652.37817 597.94225 L649.29984 609.04336 L645.7785 620.02362 L641.81678 630.86944 L637.4173 641.56722 L632.5827 652.1034 L627.31559 662.46437 L624.52067 667.57492" />
    <path d="M669.19695 578.79463 L668.95511 580.14269 L668.45308 582.83542 L668.1929 584.18005" />
    <path d="M201.59153 790.09334 L196.86992 786.98685 L187.66626 780.59048 L178.78165 773.95646 L170.21569 767.09309 L161.96794 760.00868 L154.03801 752.7115 L146.42548 745.20985 L139.12993 737.51203 L132.15096 729.62633 L125.48813 721.56104 L119.14106 713.32446 L113.1093 704.92487 L107.39247 696.37057 L101.99013 687.66985 L96.90188 678.83101 L92.1273 669.86234 L87.66598 660.77213 L83.51751 651.56868 L79.68147 642.26027 L76.15744 632.8552 L72.94501 623.36177 L70.04378 613.78827 L67.45332 604.14298 L65.17322 594.43421 L63.20306 584.67024 L61.54244 574.85937 L60.19094 565.0099 L59.14815 555.13011 L58.41364 545.22829 L57.98701 535.31275 L57.86785 525.39176 L58.05573 515.47364 L58.55025 505.56666 L59.35099 495.67913 L60.45754 485.81933 L61.86948 475.99556 L63.5864 466.21611 L65.60789 456.48928 L67.93353 446.82335 L70.5629 437.22662 L73.4956 427.70739 L76.73121 418.27394 L80.26932 408.93457 L84.1095 399.69757 L88.25136 390.57124 L92.69446 381.56386 L97.43841 372.68374 L102.48279 363.93916 L107.82717 355.33841 L113.47116 346.8898 L119.41432 338.6016 L125.65626 330.48213 L132.19656 322.53966 L139.03479 314.78249 L146.17056 307.21892 L153.60344 299.85723 L161.33302 292.70573 L169.35888 285.7727 L177.68062 279.06643 L186.29782 272.59522 L195.21006 266.36737 L204.41693 260.39116 L213.91802 254.67489 L223.71291 249.22685 L228.7204 246.60601 L228.7204 246.60601 L233.7715 244.07022 L243.91275 239.2978 L254.10029 234.92051 L264.32712 230.93385 L274.58627 227.3333 L284.87078 224.11437 L295.17366 221.27255 L305.48794 218.80333 L315.80665 216.70221 L326.12281 214.96468 L336.42944 213.58624 L346.71957 212.56239 L356.98623 211.88861 L367.22244 211.56041 L377.42123 211.57327 L387.57561 211.9227 L397.67862 212.60419 L407.72329 213.61324 L417.70262 214.94533 L427.60966 216.59596 L437.43743 218.56064 L447.17895 220.83485 L456.82724 223.41408 L466.37533 226.29385 L475.81625 229.46963 L485.14302 232.93692 L494.34867 236.69123 L503.42622 240.72803 L512.3687 245.04284 L521.16912 249.63114 L529.82053 254.48843 L538.31593 259.61021 L546.64837 264.99196 L554.81085 270.62919 L562.79641 276.51739 L570.59808 282.65205 L578.20887 289.02867 L585.62181 295.64275 L592.82993 302.48977 L599.82625 309.56524 L606.6038 316.86465 L613.1556 324.3835 L619.47468 332.11727 L625.55407 340.06147 L631.38677 348.21159 L636.96584 356.56312 L642.28428 365.11156 L647.33512 373.85241 L652.11139 382.78115 L656.60611 391.89329 L660.81231 401.18432 L664.72302 410.64974 L668.33125 420.28504 L671.63004 430.08571 L674.6124 440.04725 L677.27137 450.16515 L679.59996 460.43492 L681.59121 470.85203 L683.23814 481.412 L684.53377 492.11032 L685.47113 502.94247 L686.04324 513.90396 L686.24313 524.99028 L686.06383 536.19693 L685.8298 541.84396" />
    <path d="M628.84253 324.42064 L632.33951 328.9523 L639.06905 338.1608 L645.44508 347.55473 L651.46642 357.12434 L657.13193 366.8599 L662.44044 376.75164 L667.39079 386.78982 L671.98182 396.96469 L676.21238 407.26649 L680.08129 417.68549 L683.5874 428.21193 L686.72956 438.83606 L689.50659 449.54813 L691.91735 460.33839 L693.96066 471.19709 L695.63538 482.11449 L696.94033 493.08083 L697.87437 504.08637 L698.43632 515.12135 L698.62503 526.17603 L698.43934 537.24065 L697.87809 548.30547 L696.94012 559.36074 L695.62427 570.3967 L693.92938 581.40362 L691.85428 592.37173 L689.39783 603.29129 L686.55885 614.15255 L683.33619 624.94577 L679.72868 635.66118 L675.73518 646.28905 L671.35451 656.81962 L669.01863 662.04537" />
    <path d="M326.5473 862.08993 L322.68733 861.54449 L314.99943 860.32275 L307.35643 858.92775 L299.76095 857.36091 L292.21563 855.62367 L284.7231 853.71746 L273.58906 850.54446 L258.95299 845.73579 L244.57546 840.27705 L230.47753 834.1797 L216.68024 827.45522 L203.20466 820.11508 L190.07183 812.17074 L177.30282 803.63367 L164.91867 794.51534 L152.94044 784.82721 L144.23582 777.1941 L138.57055 771.93326 L133.01861 766.53643 L127.58262 761.00504 L122.26522 755.34052 L117.06904 749.5443 L114.51723 746.59725" />
    <path d="M413.6825 875.08363 L407.54721 875.7642 L395.34581 876.81056 L383.24112 877.44294 L371.23853 877.66824 L359.34343 877.49335 L347.56119 876.92516 L335.8972 875.97057 L324.35685 874.63648 L312.94551 872.92977 L301.66857 870.85734 L290.53141 868.42608 L279.53942 865.6429 L268.69797 862.51468 L258.01245 859.04832 L247.48825 855.25071 L237.13074 851.12874 L226.94531 846.68932 L216.93734 841.93933 L207.11222 836.88567 L197.47533 831.53523 L188.03204 825.89491 L178.78775 819.9716 L169.74784 813.7722 L160.91768 807.30359 L152.30267 800.57268 L143.90818 793.58636 L135.7396 786.35152 L127.80231 778.87506 L120.10169 771.16386 L112.64313 763.22483 L105.43201 755.06486 L98.47372 746.69085 L91.77363 738.10968 L85.33712 729.32825 L79.16959 720.35346 L73.27641 711.19219 L67.66297 701.85136 L62.33465 692.33783 L57.29683 682.65853 L52.5549 672.82032 L48.11424 662.83012 L43.98022 652.69482 L40.15825 642.4213 L36.65369 632.01647 L33.47193 621.48721 L30.61835 610.84042 L28.09834 600.08301 L25.91728 589.22185 L24.08055 578.26384 L22.59353 567.21588 L21.46162 556.08487 L20.69018 544.87769 L20.28461 533.60125 L20.25028 522.26242 L20.59258 510.86812 L21.3169 499.42523 L22.42861 487.94065 L23.9331 476.42127 L25.83575 464.87399 L28.14194 453.3057 L30.85706 441.72329 L33.98649 430.13366 L37.53561 418.5437 L41.50981 406.96031 L43.658 401.17323" />
    <path d="M8.27509 528.49677 L8.28876 521.95249 L8.64575 508.97963 L9.43533 496.16505 L10.6492 483.51363 L12.27908 471.03021 L14.31667 458.71966 L16.75367 446.58685 L19.58178 434.63662 L22.79272 422.87384 L26.37818 411.30338 L30.32987 399.93008 L34.6395 388.75881 L39.29876 377.79443 L44.29937 367.04181 L49.63302 356.50579 L55.29143 346.19125 L61.2663 336.10303 L67.54932 326.24601 L74.13222 316.62503 L81.00668 307.24497 L88.16442 298.11067 L95.59714 289.22701 L103.29654 280.59884 L111.25433 272.23102 L119.46222 264.12841 L127.9119 256.29587 L136.59508 248.73827 L145.50347 241.46045 L154.62877 234.46729 L163.96269 227.76363 L173.49693 221.35435 L183.22319 215.2443 L193.13319 209.43834 L203.21861 203.94133 L213.47118 198.75814 L223.88258 193.89361 L234.44454 189.35262 L245.14874 185.14002 L255.98691 181.26067 L266.95073 177.71944 L278.03192 174.52117 L289.22218 171.67074 L300.51321 169.173 L311.89672 167.03281 L323.36442 165.25504 L334.908 163.84454 L346.51918 162.80617 L358.18965 162.14479 L369.91113 161.86526 L381.67531 161.97245 L393.4739 162.47121 L405.29861 163.36641 L417.14113 164.66289 L428.99318 166.36553 L440.84646 168.47918 L452.69267 171.00871 L464.52352 173.95897 L476.33072 177.33482 L488.10595 181.14113 L499.84094 185.38274 L511.52739 190.06454 L523.157 195.19136 L534.72147 200.76808 L546.21251 206.79955 L551.9279 209.98734 L551.9279 209.98734 L557.48951 213.21296 L568.35811 219.88584 L578.88705 226.8466 L589.07612 234.08603 L598.92514 241.59496 L608.43389 249.36418 L617.60217 257.38451 L626.4298 265.64674 L634.91656 274.1417 L643.06226 282.86019 L650.8667 291.79301 L658.32967 300.93098 L665.45099 310.26489 L672.23044 319.78557 L678.66784 329.48382 L684.76297 339.35044 L690.51564 349.37625 L695.92565 359.55205 L700.9928 369.86865 L705.7169 380.31686 L710.09773 390.88748 L714.1351 401.57133 L717.82881 412.35921 L721.17866 423.24193 L724.18446 434.2103 L726.84599 445.25512 L729.16307 456.36721 L731.13548 467.53737 L732.76304 478.75641 L734.04554 490.01514 L734.98279 501.30436 L735.57457 512.61489 L735.8207 523.93753 L735.72097 535.26309 L735.27518 546.58238 L734.48314 557.8862 L733.34464 569.16537 L731.85948 580.41069 L730.02746 591.61297 L727.84839 602.76301 L725.32206 613.85164 L722.44828 624.86964 L719.22684 635.80784 L715.65755 646.65704 L711.7402 657.40805 L707.47459 668.05167 L702.86053 678.57871 L697.89782 688.97999 L692.58625 699.24631 L686.92563 709.36847 L680.91575 719.3373 L674.55642 729.14358 L667.84743 738.77814 L660.78859 748.23177 L653.3797 757.4953 L645.62055 766.55952 L637.51095 775.41524 L629.0507 784.05327 L620.23959 792.46443 L611.07744 800.63951 L601.56403 808.56933 L591.69916 816.24469 L581.48265 823.6564 L570.91428 830.79528 L565.49809 834.25952" />
  </g>
</svg>