<?xml version="1.0" standalone="no"?>
<!DOCTYPE svg PUBLIC "-//W3C//DTD SVG 1.1//EN" 
    "http://www.w3.org/Graphics/SVG/1.1/DTD/svg11.dtd">
<svg width="21cm" height="29.7cm"
    xmlns="http://www.w3.org/2000/svg" version="1.1" viewBox="0 0 744.09449 1052.3622">
  <g fill="none" stroke="black" stroke-width="0.03cm">
    <path d="M212.59843 212.59843 L566.92913 212.59843" />
    <path d="M389.76378 35.43307 L389.76378 389.76378" />
    <path d="M389.76378 389.76378 L35.43307 389.76378" />
    <path d="M212.59843 566.92913 L212.59843 212.59843" />
    <path d="M212.59843 212.59843 L566.92913 212.59843" />
    <path d="M389.76378 35.43307 L389.76378 389.76378" />
    <path d="M389.76378 389.76378 L35.43307 389.76378" />
    <path d="M212.59843 566.92913 L212.59843 212.59843" />
    <path d="M212.59843 212.59843 L566.92913 212.59843" />
    <path d="M389.76378 35.43307 L389.76378 389.76378" />
    <path d="M389.76378 389.76378 L35.43307 389.76378" />
    <path d="M212.59843 566.92913 L212.59843 212.59843" />
    <path d="M212.59843 212.59843 L566.92913 212.59843" />
    <path d="M389.76378 35.43307 L389.76378 389.76378" />
    <path d="M389.76378 389.76378 L35.43307 389.76378" />
    <path d="M212.59843 566.92913 L212.59843 212.59843" />
    <path d="M212.59843 212.59843 L566.92913 212.59843" />
    <path d="M389.76378 35.43307 L389.76378 389.76378" />
    <path d="M389.76378 389.76378 L35.43307 389.76378" />
    <path d="M212.59843 566.92913 L212.59843 212.59843" />
    <path d="M212.59843 212.59843 L566.92913 212.59843" />
    <path d="M389.76378 35.43307 L389.76378 389.76378" />
    <path d="M389.76378 389.76378 L35.43307 389.76378" />
    <path d="M212.59843 566.92913 L212.59843 212.59843" />
    <path d="M212.59843 212.59843 L566.92913 212.59843" />
    <path d="M389.76378 35.43307 L389.76378 389.76378" />
    <path d="M389.76378 389.76378 L35.43307 389.76378" />
    <path d="M212.59843 566.92913 L212.59843 212.59843" />
    <path d="M212.59843 212.59843 L566.92913 212.59843" />
    <path d="M389.76378 35.43307 L389.76378 389.76378" />
    <path d="M389.76378 389.76378 L35.43307 389.76378" />
    <path d="M212.59843 566.92913 L212.59843 212.59843" />
    <path d="M212.59843 212.59843 L566.92913 212.59843" />
    <path d="M389.76378 35.43307 L389.76378 389.76378" />
    <path d="M389.76378 389.76378 L35.43307 389.76378" />
    <path d="M212.59843 566.92913 L212.59843 212.59843" />
    <path d="M230.31496 230.31496 L584.64567 230.31496" />
    <path d="M407.48031 53.14961 L407.48031 407.48031" />
    <path d="M407.48031 407.48031 L53.14961 407.48031" />
    <path d="M230.31496 584.64567 L230.31496 230.31496" />
    <path d="M230.31496 230.31496 L584.64567 230.31496" />
    <path d="M407.48031 53.14961 L407.48031 407.48031" />
    <path d="M407.48031 407.48031 L53.14961 407.48031" />
    <path d="M230.31496 584.64567 L230.31496 230.31496" />
    <path d="M230.31496 230.31496 L584.64567 230.31496" />
    <path d="M407.48031 53.14961 L407.48031 407.48031" />
    <path d="M407.48031 407.48031 L53.14961 407.48031" />
    <path d="M230.31496 584.64567 L230.31496 230.31496" />
    <path d="M230.31496 230.31496 L584.64567 230.31496" />
    <path d="M407.48031 53.14961 L407.48031 407.48031" />
    <path d="M407.48031 407.48031 L53.14961 407.48031" />
    <path d="M230.31496 584.64567 L230.31496 230.31496" />
    <path d="M230.31496 230.31496 L584.64567 230.31496" />
    <path d="M407.48031 53.14961 L407.48031 407.48031" />
    <path d="M407.48031 407.48031 L53.14961 407.48031" />
    <path d="M230.31496 584.64567 L230.31496 230.31496" />
    <path d="M230.31496 230.31496 L584.64567 230.31496" />
    <path d="M407.48031 53.14961 L407.48031 407.48031" />
    <path d="M407.48031 407.48031 L53.14961 407.48031" />
    <path d="M230.31496 584.64567 L230.31496 230.31496" />
    <path d="M230.31496 230.31496 L584.64567 230.31496" />
    <path d="M407.48031 53.14961 L407.48031 407.48031" />
    <path d="M407.48031 407.48031 L53.14961 407.48031" />
    <path d="M230.31496 584.64567 L230.31496 230.31496" />
    <path d="M230.31496 230.31496 L584.64567 230.31496" />
    <path d="M407.48031 53.14961 L407.48031 407.48031" />
    <path d="M407.48031 407.48031 L53.14961 407.48031" />
    <path d="M230.31496 584.64567 L230.31496 230.31496" />
    <path d="M230.31496 230.31496 L584.64567 230.31496" />
    <path d="M407.48031 53.14961 L407.48031 407.48031" />
    <path d="M407.48031 407.48031 L53.14961 407.48031" />
    <path d="M230.31496 584.64567 L230.31496 230.31496" />
    <path d="M248.0315 248.0315 L602.3622 248.0315" />
    <path d="M425.19685 70.86614 L425.19685 425.19685" />
    <path d="M425.19685 425.19685 L70.86614 425.19685" />
    <path d="M248.0315 602.3622 L248.0315 248.0315" />
    <path d="M248.0315 248.0315 L602.3622 248.0315" />
    <path d="M425.19685 70.86614 L425.19685 425.19685" />
    <path d="M425.19685 425.19685 L70.86614 425.19685" />
    <path d="M248.0315 602.3622 L248.0315 248.0315" />
    <path d="M248.0315 248.0315 L602.3622 248.0315" />
    <path d="M425.19685 70.86614 L425.19685 425.19685" />
    <path d="M425.19685 425.19685 L70.86614 425.19685" />
    <path d="M248.0315 602.3622 L248.0315 248.0315" />
    <path d="M248.0315 248.0315 L602.3622 248.0315" />
    <path d="M425.19685 70.86614 L425.19685 425.19685" />
    <path d="M425.19685 425.19685 L70.86614 425.19685" />
    <path d="M248.0315 602.3622 L248.0315 248.0315" />
    <path d="M248.0315 248.0315 L602.3622 248.0315" />
    <path d="M425.19685 70.86614 L425.19685 425.19685" />
    <path d="M425.19685 425.19685 L70.86614 425.19685" />
    <path d="M248.0315 602.3622 L248.0315 248.0315" />
    <path d="M248.0315 248.0315 L602.3622 248.0315" />
    <path d="M425.19685 70.86614 L425.19685 425.19685" />
    <path d="M425.19685 425.19685 L70.86614 425.19685" />
    <path d="M248.0315 602.3622 L248.0315 248.0315" />
    <path d="M248.0315 248.0315 L602.3622 248.0315" />
    <path d="M425.19685 70.86614 L425.19685 425.19685" />
    <path d="M425.19685 425.19685 L70.86614 425.19685" />
    <path d="M248.0315 602.3622 L248.0315 248.0315" />
    <path d="M248.0315 248.0315 L602.3622 248.0315" />
    <path d="M425.19685 70.86614 L425.19685 425.19685" />
    <path d="M425.19685 425.19685 L70.86614 425.19685" />
    <path d="M248.0315 602.3622 L248.0315 248.0315" />
    <path d="M248.0315 248.0315 L602.3622 248.0315" />
    <path d="M425.19685 70.86614 L425.19685 425.19685" />
    <path d="M425.19685 425.19685 L70.86614 425.19685" />
    <path d="M248.0315 602.3622 L248.0315 248.0315" />
    <path d="M265.74803 265.74803 L620.07874 265.74803" />
    <path d="M442.91339 88.58268 L442.91339 442.91339" />
    <path d="M442.91339 442.91339 L88.58268 442.91339" />
    <path d="M265.74803 620.07874 L265.74803 265.74803" />
    <path d="M265.74803 265.74803 L620.07874 265.74803" />
    <path d="M442.91339 88.58268 L442.91339 442.91339" />
    <path d="M442.91339 442.91339 L88.58268 442.91339" />
    <path d="M265.74803 620.07874 L265.74803 265.74803" />
    <path d="M265.74803 265.74803 L620.07874 265.74803" />
    <path d="M442.91339 88.58268 L442.91339 442.91339" />
    <path d="M442.91339 442.91339 L88.58268 442.91339" />
    <path d="M265.74803 620.07874 L265.74803 265.74803" />
    <path d="M265.74803 265.74803 L620.07874 265.74803" />
    <path d="M442.91339 88.58268 L442.91339 442.91339" />
    <path d="M442.91339 442.91339 L88.58268 442.91339" />
    <path d="M265.74803 620.07874 L265.74803 265.74803" />
    <path d="M265.74803 265.74803 L620.07874 265.74803" />
    <path d="M442.91339 88.58268 L442.91339 442.91339" />
    <path d="M442.91339 442.91339 L88.58268 442.91339" />
    <path d="M265.74803 620.07874 L265.74803 265.74803" />
    <path d="M265.74803 265.74803 L620.07874 265.74803" />
    <path d="M442.91339 88.58268 L442.91339 442.91339" />
    <path d="M442.91339 442.91339 L88.58268 442.91339" />
    <path d="M265.74803 620.07874 L265.74803 265.74803" />
    <path d="M265.74803 265.74803 L620.07874 265.74803" />
    <path d="M442.91339 88.58268 L442.91339 442.91339" />
    <path d="M442.91339 442.91339 L88.58268 442.91339" />
    <path d="M265.74803 620.07874 L265.74803 265.74803" />
    <path d="M265.74803 265.74803 L620.07874 265.74803" />
    <path d="M442.91339 88.58268 L442.91339 442.91339" />
    <path d="M442.91339 442.91339 L88.58268 442.91339" />
    <path d="M265.74803 620.07874 L265.74803 265.74803" />
    <path d="M265.74803 265.74803 L620.07874 265.74803" />
    <path d="M442.91339 88.58268 L442.91339 442.91339" />
    <path d="M442.91339 442.91339 L88.58268 442.91339" />
    <path d="M265.74803 620.07874 L265.74803 265.74803" />
    <path d="M283.46457 283.46457 L637.79528 283.46457" />
    <path d="M460.62992 106.29921 L460.62992 460.62992" />
    <path d="M460.62992 460.62992 L106.29921 460.62992" />
    <path d="M283.46457 637.79528 L283.46457 283.46457" />
    <path d="M283.46457 283.46457 L637.79528 283.46457" />
    <path d="M460.62992 106.29921 L460.62992 460.62992" />
    <path d="M460.62992 460.62992 L106.29921 460.62992" />
    <path d="M283.46457 637.79528 L283.46457 283.46457" />
    <path d="M283.46457 283.46457 L637.79528 283.46457" />
    <path d="M460.62992 106.29921 L460.62992 460.62992" />
    <path d="M460.62992 460.62992 L106.29921 460.62992" />
    <path d="M283.46457 637.79528 L283.46457 283.46457" />
    <path d="M283.46457 283.46457 L637.79528 283.46457" />
    <path d="M460.62992 106.29921 L460.62992 460.62992" />
    <path d="M460.62992 460.62992 L106.29921 460.62992" />
    <path d="M283.46457 637.79528 L283.46457 283.46457" />
    <path d="M283.46457 283.46457 L637.79528 283.46457" />
    <path d="M460.62992 106.29921 L460.62992 460.62992" />
    <path d="M460.62992 460.62992 L106.29921 460.62992" />
    <path d="M283.46457 637.79528 L283.46457 283.46457" />
    <path d="M283.46457 283.46457 L637.79528 283.46457" />
    <path d="M460.62992 106.29921 L460.62992 460.62992" />
    <path d="M460.62992 460.62992 L106.29921 460.62992" />
    <path d="M283.46457 637.79528 L283.46457 283.46457" />
    <path d="M283.46457 283.46457 L637.79528 283.46457" />
    <path d="M460.62992 106.29921 L460.62992 460.62992" />
    <path d="M460.62992 460.62992 L106.29921 460.62992" />
    <path d="M283.46457 637.79528 L283.46457 283.46457" />
    <path d="M283.46457 283.46457 L637.79528 283.46457" />
    <path d="M460.62992 106.29921 L460.62992 460.62992" />
    <path d="M460.62992 460.62992 L106.29921 460.62992" />
    <path d="M283.46457 637.79528 L283.46457 283.46457" />
    <path d="M283.46457 283.46457 L637.79528 283.46457" />
    <path d="M460.62992 106.29921 L460.62992 460.62992" />
    <path d="M460.62992 460.62992 L106.29921 460.62992" />
    <path d="M283.46457 637.79528 L283.46457 283.46457" />
    <path d="M301.1811 301.1811 L655.51181 301.1811" />
    <path d="M478.34646 124.01575 L478.34646 478.34646" />
    <path d="M478.34646 478.34646 L124.01575 478.34646" />
    <path d="M301.1811 655.51181 L301.1811 301.1811" />
    <path d="M301.1811 301.1811 L655.51181 301.1811" />
    <path d="M478.34646 124.01575 L478.34646 478.34646" />
    <path d="M478.34646 478.34646 L124.01575 478.34646" />
    <path d="M301.1811 655.51181 L301.1811 301.1811" />
    <path d="M301.1811 301.1811 L655.51181 301.1811" />
    <path d="M478.34646 124.01575 L478.34646 478.34646" />
    <path d="M478.34646 478.34646 L124.01575 478.34646" />
    <path d="M301.1811 655.51181 L301.1811 301.1811" />
    <path d="M301.1811 301.1811 L655.51181 301.1811" />
    <path d="M478.34646 124.01575 L478.34646 478.34646" />
    <path d="M478.34646 478.34646 L124.01575 478.34646" />
    <path d="M301.1811 655.51181 L301.1811 301.1811" />
    <path d="M301.1811 301.1811 L655.51181 301.1811" />
    <path d="M478.34646 124.01575 L478.34646 478.34646" />
    <path d="M478.34646 478.34646 L124.01575 478.34646" />
    <path d="M301.1811 655.51181 L301.1811 301.1811" />
    <path d="M301.1811 301.1811 L655.51181 301.1811" />
    <path d="M478.34646 124.01575 L478.34646 478.34646" />
    <path d="M478.34646 478.34646 L124.01575 478.34646" />
    <path d="M301.1811 655.51181 L301.1811 301.1811" />
    <path d="M301.1811 301.1811 L655.51181 301.1811" />
    <path d="M478.34646 124.01575 L478.34646 478.34646" />
    <path d="M478.34646 478.34646 L124.01575 478.34646" />
    <path d="M301.1811 655.51181 L301.1811 301.1811" />
    <path d="M301.1811 301.1811 L655.51181 301.1811" />
    <path d="M478.34646 124.01575 L478.34646 478.34646" />
    <path d="M478.34646 478.34646 L124.01575 478.34646" />
    <path d="M301.1811 655.51181 L301.1811 301.1811" />
    <path d="M301.1811 301.1811 L655.51181 301.1811" />
    <path d="M478.34646 124.01575 L478.34646 478.34646" />
    <path d="M478.34646 478.34646 L124.01575 478.34646" />
    <path d="M301.1811 655.51181 L301.1811 301.1811" />
    <path d="M318.89764 318.89764 L673.22835 318.89764" />
    <path d="M496.06299 141.73228 L496.06299 496.06299" />
    <path d="M496.06299 496.06299 L141.73228 496.06299" />
    <path d="M318.89764 673.22835 L318.89764 318.89764" />
    <path d="M318.89764 318.89764 L673.22835 318.89764" />
    <path d="M496.06299 141.73228 L496.06299 496.06299" />
    <path d="M496.06299 496.06299 L141.73228 496.06299" />
    <path d="M318.89764 673.22835 L318.89764 318.89764" />
    <path d="M318.89764 318.89764 L673.22835 318.89764" />
    <path d="M496.06299 141.73228 L496.06299 496.06299" />
    <path d="M496.06299 496.06299 L141.73228 496.06299" />
    <path d="M318.89764 673.22835 L318.89764 318.89764" />
    <path d="M318.89764 318.89764 L673.22835 318.89764" />
    <path d="M496.06299 141.73228 L496.06299 496.06299" />
    <path d="M496.06299 496.06299 L141.73228 496.06299" />
    <path d="M318.89764 673.22835 L318.89764 318.89764" />
    <path d="M318.89764 318.89764 L673.22835 318.89764" />
    <path d="M496.06299 141.73228 L496.06299 496.06299" />
    <path d="M496.06299 496.06299 L141.73228 496.06299" />
    <path d="M318.89764 673.22835 L318.89764 318.89764" />
    <path d="M318.89764 318.89764 L673.22835 318.89764" />
    <path d="M496.06299 141.73228 L496.06299 496.06299" />
    <path d="M496.06299 496.06299 L141.73228 496.06299" />
    <path d="M318.89764 673.22835 L318.89764 318.89764" />
    <path d="M318.89764 318.89764 L673.22835 318.89764" />
    <path d="M496.06299 141.73228 L496.06299 496.06299" />
    <path d="M496.06299 496.06299 L141.73228 496.06299" />
    <path d="M318.89764 673.22835 L318.89764 318.89764" />
    <path d="M318.89764 318.89764 L673.22835 318.89764" />
    <path d="M496.06299 141.73228 L496.06299 496.06299" />
    <path d="M496.06299 496.06299 L141.73228 496.06299" />
    <path d="M318.89764 673.22835 L318.89764 318.89764" />
    <path d="M318.89764 318.89764 L673.22835 318.89764" />
    <path d="M496.06299 141.73228 L496.06299 496.06299" />
    <path d="M496.06299 496.06299 L141.73228 496.06299" />
    <path d="M318.89764 673.22835 L318.89764 318.89764" />
    <path d="M336.61417 336.61417 L690.94488 336.61417" />
    <path d="M513.77953 159.44882 L513.77953 513.77953" />
    <path d="M513.77953 513.77953 L159.44882 513.77953" />
    <path d="M336.61417 690.94488 L336.61417 336.61417" />
    <path d="M336.61417 336.61417 L690.94488 336.61417" />
    <path d="M513.77953 159.44882 L513.77953 513.77953" />
    <path d="M513.77953 513.77953 L159.44882 513.77953" />
    <path d="M336.61417 690.94488 L336.61417 336.61417" />
    <path d="M336.61417 336.61417 L690.94488 336.61417" />
    <path d="M513.77953 159.44882 L513.77953 513.77953" />
    <path d="M513.77953 513.77953 L159.44882 513.77953" />
    <path d="M336.61417 690.94488 L336.61417 336.61417" />
    <path d="M336.61417 336.61417 L690.94488 336.61417" />
    <path d="M513.77953 159.44882 L513.77953 513.77953" />
    <path d="M513.77953 513.77953 L159.44882 513.77953" />
    <path d="M336.61417 690.94488 L336.61417 336.61417" />
    <path d="M336.61417 336.61417 L690.94488 336.61417" />
    <path d="M513.77953 159.44882 L513.77953 513.77953" />
    <path d="M513.77953 513.77953 L159.44882 513.77953" />
    <path d="M336.61417 690.94488 L336.61417 336.61417" />
    <path d="M336.61417 336.61417 L690.94488 336.61417" />
    <path d="M513.77953 159.44882 L513.77953 513.77953" />
    <path d="M513.77953 513.77953 L159.44882 513.77953" />
    <path d="M336.61417 690.94488 L336.61417 336.61417" />
    <path d="M336.61417 336.61417 L690.94488 336.61417" />
    <path d="M513.77953 159.44882 L513.77953 513.77953" />
    <path d="M513.77953 513.77953 L159.44882 513.77953" />
    <path d="M336.61417 690.94488 L336.61417 336.61417" />
    <path d="M336.61417 336.61417 L690.94488 336.61417" />
    <path d="M513.77953 159.44882 L513.77953 513.77953" />
    <path d="M513.77953 513.77953 L159.44882 513.77953" />
    <path d="M336.61417 690.94488 L336.61417 336.61417" />
    <path d="M336.61417 336.61417 L690.94488 336.61417" />
    <path d="M513.77953 159.44882 L513.77953 513.77953" />
    <path d="M513.77953 513.77953 L159.44882 513.77953" />
    <path d="M336.61417 690.94488 L336.61417 336.61417" />
    <path d="M354.33071 354.33071 L708.66142 354.33071" />
    <path d="M531.49606 177.16535 L531.49606 531.49606" />
    <path d="M531.49606 531.49606 L177.16535 531.49606" />
    <path d="M354.33071 708.66142 L354.33071 354.33071" />
    <path d="M354.33071 354.33071 L708.66142 354.33071" />
    <path d="M531.49606 177.16535 L531.49606 531.49606" />
    <path d="M531.49606 531.49606 L177.16535 531.49606" />
    <path d="M354.33071 708.66142 L354.33071 354.33071" />
    <path d="M354.33071 354.33071 L708.66142 354.33071" />
    <path d="M531.49606 177.16535 L531.49606 531.49606" />
    <path d="M531.49606 531.49606 L177.16535 531.49606" />
    <path d="M354.33071 708.66142 L354.33071 354.33071" />
    <path d="M354.33071 354.33071 L708.66142 354.33071" />
    <path d="M531.49606 177.16535 L531.49606 531.49606" />
    <path d="M531.49606 531.49606 L177.16535 531.49606" />
    <path d="M354.33071 708.66142 L354.33071 354.33071" />
    <path d="M354.33071 354.33071 L708.66142 354.33071" />
    <path d="M531.49606 177.16535 L531.49606 531.49606" />
    <path d="M531.49606 531.49606 L177.16535 531.49606" />
    <path d="M354.33071 708.66142 L354.33071 354.33071" />
    <path d="M354.33071 354.33071 L708.66142 354.33071" />
    <path d="M531.49606 177.16535 L531.49606 531.49606" />
    <path d="M531.49606 531.49606 L177.16535 531.49606" />
    <path d="M354.33071 708.66142 L354.33071 354.33071" />
    <path d="M354.33071 354.33071 L708.66142 354.33071" />
    <path d="M531.49606 177.16535 L531.49606 531.49606" />
    <path d="M531.49606 531.49606 L177.16535 531.49606" />
    <path d="M354.33071 708.66142 L354.33071 354.33071" />
    <path d="M354.33071 354.33071 L708.66142 354.33071" />
    <path d="M531.49606 177.16535 L531.49606 531.49606" />
    <path d="M531.49606 531.49606 L177.16535 531.49606" />
    <path d="M354.33071 708.66142 L354.33071 354.33071" />
    <path d="M354.33071 354.33071 L708.66142 354.33071" />
    <path d="M531.49606 177.16535 L531.49606 531.49606" />
    <path d="M531.49606 531.49606 L177.16535 531.49606" />
    <path d="M354.33071 708.66142 L354.33071 354.33071" />
  </g>
</svg>