<?xml version="1.0" standalone="no"?>
<!DOCTYPE svg PUBLIC "-//W3C//DTD SVG 1.1//EN" 
    "http://www.w3.org/Graphics/SVG/1.1/DTD/svg11.dtd">
<svg width="2480px" height="3508px"
    xmlns="http://www.w3.org/2000/svg" version="1.1" viewBox="0 0 2480 3508">
  <g fill="none" stroke="black" stroke-width="1.06299px">
    <path d="M50 564 L2430 564" />
    <path d="M2430 564 L2430 2944" />
    <path d="M2430 2944 L50 2944" />
    <path d="M50 2944 L50 564" />
    <path d="M83.13130800437875 556.0274003632885 L2437.9725996367115 597.1313080043788" />
    <path d="M2437.9725996367115 597.1313080043788 L2396.8686919956212 2951.9725996367115" />
    <path d="M2396.8686919956212 2951.9725996367115 L42.02740036328851 2910.8686919956212" />
    <path d="M42.02740036328851 2910.8686919956212 L83.13130800437875 556.0274003632885" />
    <path d="M116.1747019151037 548.8449147995955 L2445.1550852004048 630.1747019151037" />
    <path d="M2445.1550852004048 630.1747019151037 L2363.8252980848965 2959.1550852004043" />
    <path d="M2363.8252980848965 2959.1550852004043 L34.84491479959547 2877.825298084896" />
    <path d="M34.84491479959547 2877.825298084896 L116.1747019151037 548.8449147995955" />
    <path d="M149.11276269179302 542.4469819780618 L2451.553018021938 663.112762691793" />
    <path d="M2451.553018021938 663.112762691793 L2330.8872373082067 2965.5530180219384" />
    <path d="M2330.8872373082067 2965.5530180219384 L28.446981978061785 2844.887237308207" />
    <path d="M28.446981978061785 2844.887237308207 L149.11276269179302 542.4469819780618" />
    <path d="M181.92823974149678 536.827674425896 L2457.172325574104 695.9282397414968" />
    <path d="M2457.172325574104 695.9282397414968 L2298.071760258503 2971.172325574104" />
    <path d="M2298.071760258503 2971.172325574104 L22.82767442589602 2812.071760258503" />
    <path d="M22.82767442589602 2812.071760258503 L181.92823974149678 536.827674425896" />
    <path d="M214.60405837186954 531.9807027331526 L2462.0192972668474 728.6040583718695" />
    <path d="M2462.0192972668474 728.6040583718695 L2265.3959416281305 2976.0192972668474" />
    <path d="M2265.3959416281305 2976.0192972668474 L17.98070273315261 2779.3959416281305" />
    <path d="M17.98070273315261 2779.3959416281305 L214.60405837186954 531.9807027331526" />
    <path d="M247.12332714854847 527.8994199057602 L2466.10058009424 761.1233271485485" />
    <path d="M2466.10058009424 761.1233271485485 L2232.8766728514515 2980.10058009424" />
    <path d="M2232.8766728514515 2980.10058009424 L13.899419905760169 2746.8766728514515" />
    <path d="M13.899419905760169 2746.8766728514515 L247.12332714854847 527.8994199057602" />
    <path d="M279.4693451538524 524.5768258647349 L2469.423174135265 793.4693451538524" />
    <path d="M2469.423174135265 793.4693451538524 L2200.5306548461476 2983.423174135265" />
    <path d="M2200.5306548461476 2983.423174135265 L10.576825864734928 2714.5306548461476" />
    <path d="M10.576825864734928 2714.5306548461476 L279.4693451538524 524.5768258647349" />
    <path d="M311.6256091439345 522.0055720894557 L2471.994427910544 825.6256091439344" />
    <path d="M2471.994427910544 825.6256091439344 L2168.3743908560655 2985.994427910545" />
    <path d="M2168.3743908560655 2985.994427910545 L8.005572089455654 2682.3743908560655" />
    <path d="M8.005572089455654 2682.3743908560655 L311.6256091439345 522.0055720894557" />
    <path d="M343.57582060158825 520.1779664028184 L2473.822033597182 857.5758206015882" />
    <path d="M2473.822033597182 857.5758206015882 L2136.424179398412 2987.822033597182" />
    <path d="M2136.424179398412 2987.822033597182 L6.177966402818356 2650.424179398412" />
    <path d="M6.177966402818356 2650.424179398412 L343.57582060158825 520.1779664028184" />
    <path d="M375.30389268193403 519.0859778960385 L2474.9140221039615 889.303892681934" />
    <path d="M2474.9140221039615 889.303892681934 L2104.696107318066 2988.9140221039615" />
    <path d="M2104.696107318066 2988.9140221039615 L5.085977896038457 2618.696107318066" />
    <path d="M5.085977896038457 2618.696107318066 L375.30389268193403 519.0859778960385" />
    <path d="M406.793957048269 518.7212419908137 L2475.2787580091863 920.793957048269" />
    <path d="M2475.2787580091863 920.793957048269 L2073.206042951731 2989.2787580091863" />
    <path d="M2073.206042951731 2989.2787580091863 L4.7212419908137235 2587.206042951731" />
    <path d="M4.7212419908137235 2587.206042951731 L406.793957048269 518.7212419908137" />
    <path d="M438.0303705954125 519.0750656365105 L2474.9249343634897 952.0303705954126" />
    <path d="M2474.9249343634897 952.0303705954126 L2041.9696294045877 2988.9249343634892" />
    <path d="M2041.9696294045877 2988.9249343634892 L5.075065636510544 2555.969629404587" />
    <path d="M5.075065636510544 2555.969629404587 L438.0303705954125 519.0750656365105" />
    <path d="M468.9977220579184 520.1384326399818 L2473.861567360018 982.9977220579183" />
    <path d="M2473.861567360018 982.9977220579183 L2011.0022779420815 2987.8615673600184" />
    <path d="M2011.0022779420815 2987.8615673600184 L6.138432639981602 2525.002277942082" />
    <path d="M6.138432639981602 2525.002277942082 L468.9977220579184 520.1384326399818" />
    <path d="M499.6808385005795 521.902009125575 L2472.0979908744252 1013.6808385005795" />
    <path d="M2472.0979908744252 1013.6808385005795 L1980.3191614994207 2986.0979908744252" />
    <path d="M1980.3191614994207 2986.0979908744252 L7.902009125574978 2494.3191614994207" />
    <path d="M7.902009125574978 2494.3191614994207 L499.6808385005795 521.902009125575" />
    <path d="M530.0647916887062 524.3561491228445 L2469.6438508771553 1044.0647916887062" />
    <path d="M2469.6438508771553 1044.0647916887062 L1949.9352083112938 2983.6438508771553" />
    <path d="M1949.9352083112938 2983.6438508771553 L10.3561491228445 2463.9352083112935" />
    <path d="M10.3561491228445 2463.9352083112935 L530.0647916887062 524.3561491228445" />
    <path d="M560.1349043356993 527.4909002794266 L2466.5090997205734 1074.1349043356993" />
    <path d="M2466.5090997205734 1074.1349043356993 L1919.8650956643005 2980.5090997205734" />
    <path d="M1919.8650956643005 2980.5090997205734 L13.490900279426569 2433.8650956643005" />
    <path d="M13.490900279426569 2433.8650956643005 L560.1349043356993 527.4909002794266" />
    <path d="M589.8767562254995 531.2960096964919 L2462.7039903035084 1103.8767562254995" />
    <path d="M2462.7039903035084 1103.8767562254995 L1890.1232437745007 2976.7039903035084" />
    <path d="M1890.1232437745007 2976.7039903035084 L17.296009696491865 2404.1232437745" />
    <path d="M17.296009696491865 2404.1232437745 L589.8767562254995 531.2960096964919" />
    <path d="M619.2761902075447 535.7609298841464 L2458.239070115854 1133.2761902075447" />
    <path d="M2458.239070115854 1133.2761902075447 L1860.7238097924553 2972.239070115854" />
    <path d="M1860.7238097924553 2972.239070115854 L21.760929884146435 2374.7238097924555" />
    <path d="M21.760929884146435 2374.7238097924555 L619.2761902075447 535.7609298841464" />
    <path d="M648.3193180619223 540.8748248341017 L2453.1251751658983 1162.3193180619223" />
    <path d="M2453.1251751658983 1162.3193180619223 L1831.6806819380777 2967.1251751658983" />
    <path d="M1831.6806819380777 2967.1251751658983 L26.874824834101673 2345.6806819380777" />
    <path d="M26.874824834101673 2345.6806819380777 L648.3193180619223 540.8748248341017" />
    <path d="M676.9925262324542 546.6265762068942 L2447.3734237931058 1190.992526232454" />
    <path d="M2447.3734237931058 1190.992526232454 L1803.007473767546 2961.3734237931058" />
    <path d="M1803.007473767546 2961.3734237931058 L32.62657620689424 2317.007473767546" />
    <path d="M32.62657620689424 2317.007473767546 L676.9925262324542 546.6265762068942" />
    <path d="M705.2824814255125 553.0047896308902 L2440.99521036911 1219.2824814255125" />
    <path d="M2440.99521036911 1219.2824814255125 L1774.7175185744875 2954.99521036911" />
    <path d="M1774.7175185744875 2954.99521036911 L39.00478963089017 2288.7175185744873" />
    <path d="M39.00478963089017 2288.7175185744873 L705.2824814255125 553.0047896308902" />
    <path d="M733.176136072417 559.997801110268 L2434.0021988897324 1247.1761360724172" />
    <path d="M2434.0021988897324 1247.1761360724172 L1746.8238639275833 2948.002198889732" />
    <path d="M1746.8238639275833 2948.002198889732 L45.99780111026803 2260.823863927583" />
    <path d="M45.99780111026803 2260.823863927583 L733.176136072417 559.997801110268" />
    <path d="M760.6607336533268 567.5936835391371 L2426.4063164608624 1274.6607336533268" />
    <path d="M2426.4063164608624 1274.6607336533268 L1719.3392663466727 2940.4063164608633" />
    <path d="M1719.3392663466727 2940.4063164608633 L53.59368353913692 2233.3392663466734" />
    <path d="M53.59368353913692 2233.3392663466734 L760.6607336533268 567.5936835391371" />
    <path d="M787.723813880587 575.7802533188988 L2418.2197466811012 1301.7238138805872" />
    <path d="M2418.2197466811012 1301.7238138805872 L1692.2761861194128 2932.2197466811012" />
    <path d="M1692.2761861194128 2932.2197466811012 L61.78025331889876 2206.276186119413" />
    <path d="M61.78025331889876 2206.276186119413 L787.723813880587 575.7802533188988" />
    <path d="M814.3532177395634 584.5450770759326 L2409.4549229240674 1328.3532177395634" />
    <path d="M2409.4549229240674 1328.3532177395634 L1665.6467822604366 2923.4549229240674" />
    <path d="M1665.6467822604366 2923.4549229240674 L70.54507707593257 2179.6467822604363" />
    <path d="M70.54507707593257 2179.6467822604363 L814.3532177395634 584.5450770759326" />
    <path d="M840.5370923850462 593.8754784766393 L2400.1245215233607 1354.5370923850462" />
    <path d="M2400.1245215233607 1354.5370923850462 L1639.4629076149538 2914.1245215233607" />
    <path d="M1639.4629076149538 2914.1245215233607 L79.87547847663927 2153.4629076149536" />
    <path d="M79.87547847663927 2153.4629076149536 L840.5370923850462 593.8754784766393" />
    <path d="M866.2638958913682 603.7585451368473 L2390.2414548631527 1380.2638958913683" />
    <path d="M2390.2414548631527 1380.2638958913683 L1613.7361041086322 2904.2414548631527" />
    <path d="M1613.7361041086322 2904.2414548631527 L89.75854513684749 2127.7361041086315" />
    <path d="M89.75854513684749 2127.7361041086315 L866.2638958913682 603.7585451368473" />
    <path d="M891.5224018544452 614.1811356225476 L2379.818864377452 1405.522401854445" />
    <path d="M2379.818864377452 1405.522401854445 L1588.4775981455546 2893.8188643774524" />
    <path d="M1588.4775981455546 2893.8188643774524 L100.18113562254757 2102.477598145555" />
    <path d="M100.18113562254757 2102.477598145555 L891.5224018544452 614.1811356225476" />
    <path d="M916.301703844004 625.1298865388876 L2368.8701134611124 1430.3017038440041" />
    <path d="M2368.8701134611124 1430.3017038440041 L1563.6982961559959 2882.870113461113" />
    <path d="M1563.6982961559959 2882.870113461113 L111.12988653888738 2077.698296155996" />
    <path d="M111.12988653888738 2077.698296155996 L916.301703844004 625.1298865388876" />
    <path d="M940.591219704329 636.5912197043292 L2357.408780295671 1454.591219704329" />
    <path d="M2357.408780295671 1454.591219704329 L1539.408780295671 2871.408780295671" />
    <path d="M1539.408780295671 2871.408780295671 L122.5912197043292 2053.408780295671" />
    <path d="M122.5912197043292 2053.408780295671 L940.591219704329 636.5912197043292" />
    <path d="M964.380695701918 648.5513494068387 L2345.4486505931613 1478.3806957019178" />
    <path d="M2345.4486505931613 1478.3806957019178 L1515.6193042980822 2859.4486505931613" />
    <path d="M1515.6193042980822 2859.4486505931613 L134.55134940683865 2029.6193042980822" />
    <path d="M134.55134940683865 2029.6193042980822 L964.380695701918 648.5513494068387" />
    <path d="M987.660210518501 660.9962897389446 L2333.0037102610554 1501.6602105185011" />
    <path d="M2333.0037102610554 1501.6602105185011 L1492.339789481499 2847.003710261055" />
    <path d="M1492.339789481499 2847.003710261055 L146.99628973894482 2006.3397894814989" />
    <path d="M146.99628973894482 2006.3397894814989 L987.660210518501 660.9962897389446" />
    <path d="M1010.420179087946 673.9118620084798 L2320.08813799152 1524.420179087946" />
    <path d="M2320.08813799152 1524.420179087946 L1469.579820912054 2834.0881379915204" />
    <path d="M1469.579820912054 2834.0881379915204 L159.9118620084796 1983.5798209120542" />
    <path d="M159.9118620084796 1983.5798209120542 L1010.420179087946 673.9118620084798" />
    <path d="M1032.651356275628 687.2837022217841 L2306.716297778216 1546.651356275628" />
    <path d="M2306.716297778216 1546.651356275628 L1447.348643724372 2820.7162977782164" />
    <path d="M1447.348643724372 2820.7162977782164 L173.2837022217841 1961.3486437243723" />
    <path d="M173.2837022217841 1961.3486437243723 L1032.651356275628 687.2837022217841" />
    <path d="M1054.344840398913 701.0972686361315 L2292.9027313638685 1568.344840398913" />
    <path d="M2292.9027313638685 1568.344840398913 L1425.655159601087 2806.9027313638685" />
    <path d="M1425.655159601087 2806.9027313638685 L187.0972686361315 1939.655159601087" />
    <path d="M187.0972686361315 1939.655159601087 L1054.344840398913 701.0972686361315" />
    <path d="M1075.4920765874722 715.3378493781061 L2278.662150621894 1589.4920765874722" />
    <path d="M2278.662150621894 1589.4920765874722 L1404.5079234125278 2792.662150621894" />
    <path d="M1404.5079234125278 2792.662150621894 L201.33784937810606 1918.5079234125278" />
    <path d="M201.33784937810606 1918.5079234125278 L1075.4920765874722 715.3378493781061" />
    <path d="M1096.084859982197 729.9905701246416 L2264.0094298753584 1610.084859982197" />
    <path d="M2264.0094298753584 1610.084859982197 L1383.915140017803 2778.009429875358" />
    <path d="M1383.915140017803 2778.009429875358 L215.99057012464186 1897.9151400178025" />
    <path d="M215.99057012464186 1897.9151400178025 L1096.084859982197 729.9905701246416" />
    <path d="M1116.1153387715715 745.0404018434051 L2248.959598156595 1630.1153387715715" />
    <path d="M2248.959598156595 1630.1153387715715 L1363.8846612284283 2762.959598156595" />
    <path d="M1363.8846612284283 2762.959598156595 L231.040401843405 1877.8846612284287" />
    <path d="M231.040401843405 1877.8846612284287 L1116.1153387715715 745.0404018434051" />
    <path d="M1135.576017064401 760.4721685891906 L2233.5278314108095 1649.576017064401" />
    <path d="M2233.5278314108095 1649.576017064401 L1344.4239829355993 2747.527831410809" />
    <path d="M1344.4239829355993 2747.527831410809 L246.47216858919091 1858.4239829355988" />
    <path d="M246.47216858919091 1858.4239829355988 L1135.576017064401 760.4721685891906" />
    <path d="M1154.4597575978873 776.270555352971 L2217.729444647029 1668.4597575978873" />
    <path d="M2217.729444647029 1668.4597575978873 L1325.5402424021127 2731.729444647029" />
    <path d="M1325.5402424021127 2731.729444647029 L262.270555352971 1839.5402424021127" />
    <path d="M262.270555352971 1839.5402424021127 L1154.4597575978873 776.270555352971" />
    <path d="M1172.7597842800883 792.4201159602289 L2201.579884039771 1686.7597842800883" />
    <path d="M2201.579884039771 1686.7597842800883 L1307.2402157199117 2715.579884039771" />
    <path d="M1307.2402157199117 2715.579884039771 L278.42011596022894 1821.2402157199117" />
    <path d="M278.42011596022894 1821.2402157199117 L1172.7597842800883 792.4201159602289" />
    <path d="M1190.4696845658757 808.90528101518 L2185.09471898482 1704.4696845658757" />
    <path d="M2185.09471898482 1704.4696845658757 L1289.5303154341243 2699.09471898482" />
    <path d="M1289.5303154341243 2699.09471898482 L294.90528101518 1803.530315434124" />
    <path d="M294.90528101518 1803.530315434124 L1190.4696845658757 808.90528101518" />
    <path d="M1207.5834116655778 825.71036588748 L2168.28963411252 1721.5834116655778" />
    <path d="M2168.28963411252 1721.5834116655778 L1272.416588334422 2682.28963411252" />
    <path d="M1272.416588334422 2682.28963411252 L311.71036588747984 1786.4165883344224" />
    <path d="M311.71036588747984 1786.4165883344224 L1207.5834116655778 825.71036588748" />
    <path d="M1224.095286585551 842.8195787379952 L2151.1804212620045 1738.095286585551" />
    <path d="M2151.1804212620045 1738.095286585551 L1255.9047134144494 2665.1804212620045" />
    <path d="M1255.9047134144494 2665.1804212620045 L328.8195787379956 1769.9047134144487" />
    <path d="M328.8195787379956 1769.9047134144487 L1224.095286585551 842.8195787379952" />
    <path d="M1240 860.217028580204 L2133.782971419796 1754" />
    <path d="M2133.782971419796 1754 L1240 2647.782971419796" />
    <path d="M1240 2647.782971419796 L346.217028580204 1754" />
    <path d="M346.217028580204 1754 L1240 860.217028580204" />
    <path d="M1255.2926139534334 877.8867333737771 L2116.113266626223 1769.2926139534334" />
    <path d="M2116.113266626223 1769.2926139534334 L1224.7073860465662 2630.113266626223" />
    <path d="M1224.7073860465662 2630.113266626223 L363.8867333737767 1738.7073860465669" />
    <path d="M363.8867333737767 1738.7073860465669 L1255.2926139534334 877.8867333737771" />
    <path d="M1269.9685633932113 895.8126281468908 L2098.187371853109 1783.9685633932113" />
    <path d="M2098.187371853109 1783.9685633932113 L1210.0314366067887 2612.187371853109" />
    <path d="M1210.0314366067887 2612.187371853109 L381.8126281468908 1724.0314366067887" />
    <path d="M381.8126281468908 1724.0314366067887 L1269.9685633932113 895.8126281468908" />
    <path d="M1284.0236575317053 913.9785731437971 L2080.021426856203 1798.0236575317053" />
    <path d="M2080.021426856203 1798.0236575317053 L1195.9763424682947 2594.021426856203" />
    <path d="M1195.9763424682947 2594.021426856203 L399.9785731437969 1709.976342468295" />
    <path d="M399.9785731437969 1709.976342468295 L1284.0236575317053 913.9785731437971" />
    <path d="M1297.454081037671 932.3683619941861 L2061.6316380058142 1811.454081037671" />
    <path d="M2061.6316380058142 1811.454081037671 L1182.5459189623296 2575.631638005814" />
    <path d="M1182.5459189623296 2575.631638005814 L418.36836199418644 1696.5459189623289" />
    <path d="M418.36836199418644 1696.5459189623289 L1297.454081037671 932.3683619941861" />
    <path d="M1310.25639505649 950.9657299008552 L2043.0342700991448 1824.25639505649" />
    <path d="M2043.0342700991448 1824.25639505649 L1169.74360494351 2557.034270099145" />
    <path d="M1169.74360494351 2557.034270099145 L436.9657299008552 1683.74360494351" />
    <path d="M436.9657299008552 1683.74360494351 L1310.25639505649 950.9657299008552" />
    <path d="M1322.4275380590175 969.7543618422037 L2024.2456381577963 1836.4275380590175" />
    <path d="M2024.2456381577963 1836.4275380590175 L1157.572461940982 2538.2456381577967" />
    <path d="M1157.572461940982 2538.2456381577967 L455.7543618422035 1671.5724619409827" />
    <path d="M455.7543618422035 1671.5724619409827 L1322.4275380590175 969.7543618422037" />
    <path d="M1333.9648265188357 988.7179007860665 L2005.2820992139334 1847.9648265188357" />
    <path d="M2005.2820992139334 1847.9648265188357 L1146.0351734811643 2519.282099213933" />
    <path d="M1146.0351734811643 2519.282099213933 L474.7179007860666 1660.035173481164" />
    <path d="M474.7179007860666 1660.035173481164 L1333.9648265188357 988.7179007860665" />
    <path d="M1344.8659554177862 1007.8399559113911 L1986.1600440886089 1858.8659554177862" />
    <path d="M1986.1600440886089 1858.8659554177862 L1135.1340445822136 2500.160044088609" />
    <path d="M1135.1340445822136 2500.160044088609 L493.8399559113909 1649.1340445822138" />
    <path d="M493.8399559113909 1649.1340445822138 L1344.8659554177862 1007.8399559113911" />
    <path d="M1355.1289985797196 1027.1041108342743 L1966.8958891657257 1869.1289985797196" />
    <path d="M1966.8958891657257 1869.1289985797196 L1124.871001420281 2480.8958891657257" />
    <path d="M1124.871001420281 2480.8958891657257 L513.1041108342746 1638.8710014202802" />
    <path d="M513.1041108342746 1638.8710014202802 L1355.1289985797196 1027.1041108342743" />
    <path d="M1364.7524088324762 1046.4939318348609 L1947.5060681651391 1878.7524088324762" />
    <path d="M1947.5060681651391 1878.7524088324762 L1115.2475911675238 2461.5060681651394" />
    <path d="M1115.2475911675238 2461.5060681651394 L532.4939318348609 1629.2475911675238" />
    <path d="M532.4939318348609 1629.2475911675238 L1364.7524088324762 1046.4939318348609" />
    <path d="M1373.7350179981763 1065.9929760816192 L1928.0070239183806 1887.7350179981763" />
    <path d="M1928.0070239183806 1887.7350179981763 L1106.2649820018232 2442.007023918381" />
    <path d="M1106.2649820018232 2442.007023918381 L551.992976081619 1620.2649820018237" />
    <path d="M551.992976081619 1620.2649820018237 L1373.7350179981763 1065.9929760816192" />
    <path d="M1382.0760367119678 1085.58479984951 L1908.4152001504897 1896.0760367119678" />
    <path d="M1908.4152001504897 1896.0760367119678 L1097.9239632880322 2422.41520015049" />
    <path d="M1097.9239632880322 2422.41520015049 L571.5847998495102 1611.9239632880322" />
    <path d="M571.5847998495102 1611.9239632880322 L1382.0760367119678 1085.58479984951" />
    <path d="M1389.7750540694524 1105.252966728562 L1888.747033271438 1903.7750540694524" />
    <path d="M1888.747033271438 1903.7750540694524 L1090.2249459305474 2402.7470332714383" />
    <path d="M1090.2249459305474 2402.7470332714383 L591.2529667285617 1604.2249459305476" />
    <path d="M591.2529667285617 1604.2249459305476 L1389.7750540694524 1105.252966728562" />
    <path d="M1396.8320371030795 1124.9810558193828 L1869.0189441806174 1910.8320371030795" />
    <path d="M1869.0189441806174 1910.8320371030795 L1083.167962896921 2383.018944180617" />
    <path d="M1083.167962896921 2383.018944180617 L610.9810558193832 1597.1679628969205" />
    <path d="M610.9810558193832 1597.1679628969205 L1396.8320371030795 1124.9810558193828" />
    <path d="M1403.2473300878596 1144.7526699121404 L1849.2473300878596 1917.2473300878596" />
    <path d="M1849.2473300878596 1917.2473300878596 L1076.7526699121404 2363.2473300878596" />
    <path d="M1076.7526699121404 2363.2473300878596 L630.7526699121404 1590.7526699121404" />
    <path d="M630.7526699121404 1590.7526699121404 L1403.2473300878596 1144.7526699121404" />
    <path d="M1409.02165367683 1164.5514436455462 L1829.4485563544536 1923.0216536768303" />
    <path d="M1829.4485563544536 1923.0216536768303 L1070.9783463231695 2343.448556354454" />
    <path d="M1070.9783463231695 2343.448556354454 L650.5514436455459 1584.97834632317" />
    <path d="M650.5514436455459 1584.97834632317 L1409.02165367683 1164.5514436455462" />
    <path d="M1414.1561038667626 1184.3610516424028 L1809.638948357597 1928.1561038667628" />
    <path d="M1809.638948357597 1928.1561038667628 L1065.8438961332372 2323.6389483575967" />
    <path d="M1065.8438961332372 2323.6389483575967 L670.361051642403 1579.8438961332372" />
    <path d="M670.361051642403 1579.8438961332372 L1414.1561038667626 1184.3610516424028" />
    <path d="M1418.652150794678 1204.1652166182685 L1789.8347833817315 1932.652150794678" />
    <path d="M1789.8347833817315 1932.652150794678 L1061.3478492053218 2303.8347833817315" />
    <path d="M1061.3478492053218 2303.8347833817315 L690.1652166182683 1575.347849205322" />
    <path d="M690.1652166182683 1575.347849205322 L1418.652150794678 1204.1652166182685" />
    <path d="M1422.5116373657997 1223.9477174598198 L1770.0522825401802 1936.5116373657995" />
    <path d="M1770.0522825401802 1936.5116373657995 L1057.4883626342007 2284.05228254018" />
    <path d="M1057.4883626342007 2284.05228254018 L709.9477174598203 1571.4883626342003" />
    <path d="M709.9477174598203 1571.4883626342003 L1422.5116373657997 1223.9477174598198" />
    <path d="M1425.736777713645 1243.6923972694979 L1750.3076027305021 1939.736777713645" />
    <path d="M1750.3076027305021 1939.736777713645 L1054.263222286355 2264.3076027305024" />
    <path d="M1054.263222286355 2264.3076027305024 L729.6923972694979 1568.263222286355" />
    <path d="M729.6923972694979 1568.263222286355 L1425.736777713645 1243.6923972694979" />
    <path d="M1428.330155493023 1263.3831713730422 L1730.6168286269576 1942.330155493023" />
    <path d="M1730.6168286269576 1942.330155493023 L1051.6698445069765 2244.616828626958" />
    <path d="M1051.6698445069765 2244.616828626958 L749.3831713730418 1565.669844506977" />
    <path d="M749.3831713730418 1565.669844506977 L1428.330155493023 1263.3831713730422" />
    <path d="M1430.2947220067695 1283.0040352865365 L1710.9959647134635 1944.2947220067695" />
    <path d="M1710.9959647134635 1944.2947220067695 L1049.7052779932305 2224.9959647134633" />
    <path d="M1049.7052779932305 2224.9959647134633 L769.0040352865365 1563.7052779932305" />
    <path d="M769.0040352865365 1563.7052779932305 L1430.2947220067695 1283.0040352865365" />
    <path d="M1431.6337941671236 1302.5390726396 L1691.4609273604 1945.6337941671236" />
    <path d="M1691.4609273604 1945.6337941671236 L1048.3662058328762 2205.4609273604" />
    <path d="M1048.3662058328762 2205.4609273604 L788.5390726395997 1562.3662058328764" />
    <path d="M788.5390726395997 1562.3662058328764 L1431.6337941671236 1302.5390726396" />
    <path d="M1432.3510522927158 1321.9724630513874 L1672.0275369486128 1946.3510522927158" />
    <path d="M1672.0275369486128 1946.3510522927158 L1047.6489477072846 2186.0275369486126" />
    <path d="M1047.6489477072846 2186.0275369486126 L807.9724630513876 1561.6489477072842" />
    <path d="M807.9724630513876 1561.6489477072842 L1432.3510522927158 1321.9724630513874" />
    <path d="M1432.4505377421972 1341.2884899560722 L1652.7115100439278 1946.4505377421972" />
    <path d="M1652.7115100439278 1946.4505377421972 L1047.5494622578028 2166.711510043928" />
    <path d="M1047.5494622578028 2166.711510043928 L827.2884899560722 1561.5494622578028" />
    <path d="M827.2884899560722 1561.5494622578028 L1432.4505377421972 1341.2884899560722" />
    <path d="M1431.9366503856127 1360.4715483745158 L1633.5284516254842 1945.9366503856127" />
    <path d="M1633.5284516254842 1945.9366503856127 L1048.0633496143869 2147.528451625484" />
    <path d="M1048.0633496143869 2147.528451625484 L846.4715483745155 1562.0633496143873" />
    <path d="M846.4715483745155 1562.0633496143873 L1431.9366503856127 1360.4715483745158" />
    <path d="M1430.814145914685 1379.5061526288462 L1614.4938473711538 1944.8141459146852" />
    <path d="M1614.4938473711538 1944.8141459146852 L1049.1858540853148 2128.4938473711536" />
    <path d="M1049.1858540853148 2128.4938473711536 L865.5061526288462 1563.1858540853148" />
    <path d="M865.5061526288462 1563.1858540853148 L1430.814145914685 1379.5061526288462" />
    <path d="M1429.088132993237 1398.3769439966923 L1595.6230560033077 1943.088132993237" />
    <path d="M1595.6230560033077 1943.088132993237 L1050.911867006763 2109.6230560033077" />
    <path d="M1050.911867006763 2109.6230560033077 L884.3769439966921 1564.911867006763" />
    <path d="M884.3769439966921 1564.911867006763 L1429.088132993237 1398.3769439966923" />
    <path d="M1426.7640702490476 1417.0686983018513 L1576.9313016981487 1940.7640702490476" />
    <path d="M1576.9313016981487 1940.7640702490476 L1053.2359297509527 2090.9313016981487" />
    <path d="M1053.2359297509527 2090.9313016981487 L903.0686983018516 1567.2359297509524" />
    <path d="M903.0686983018516 1567.2359297509524 L1426.7640702490476 1417.0686983018513" />
    <path d="M1423.8477631085025 1435.5663334381868 L1558.4336665618132 1937.8477631085025" />
    <path d="M1558.4336665618132 1937.8477631085025 L1056.1522368914975 2072.433666561813" />
    <path d="M1056.1522368914975 2072.433666561813 L921.5663334381868 1570.1522368914975" />
    <path d="M921.5663334381868 1570.1522368914975 L1423.8477631085025 1435.5663334381868" />
    <path d="M1420.3453604754588 1453.8549168235854 L1540.1450831764143 1934.3453604754588" />
    <path d="M1540.1450831764143 1934.3453604754588 L1059.654639524541 2054.145083176414" />
    <path d="M1059.654639524541 2054.145083176414 L939.8549168235854 1573.654639524541" />
    <path d="M939.8549168235854 1573.654639524541 L1420.3453604754588 1453.8549168235854" />
    <path d="M1416.2633512558102 1471.9196727808358 L1522.0803272191642 1930.2633512558102" />
    <path d="M1522.0803272191642 1930.2633512558102 L1063.7366487441896 2036.0803272191642" />
    <path d="M1063.7366487441896 2036.0803272191642 L957.9196727808356 1577.7366487441898" />
    <path d="M957.9196727808356 1577.7366487441898 L1416.2633512558102 1471.9196727808358" />
    <path d="M1411.608560729295 1489.7459898423112 L1504.2540101576888 1925.608560729295" />
    <path d="M1504.2540101576888 1925.608560729295 L1068.391439270705 2018.2540101576888" />
    <path d="M1068.391439270705 2018.2540101576888 L975.7459898423114 1582.391439270705" />
    <path d="M975.7459898423114 1582.391439270705 L1411.608560729295 1489.7459898423112" />
    <path d="M1406.3881467701635 1507.3194279753864 L1486.6805720246136 1920.3881467701635" />
    <path d="M1486.6805720246136 1920.3881467701635 L1073.6118532298365 2000.6805720246136" />
    <path d="M1073.6118532298365 2000.6805720246136 L993.3194279753864 1587.6118532298365" />
    <path d="M993.3194279753864 1587.6118532298365 L1406.3881467701635 1507.3194279753864" />
    <path d="M1400.609595918365 1524.6257257255306 L1469.3742742744694 1914.609595918365" />
    <path d="M1469.3742742744694 1914.609595918365 L1079.390404081635 1983.3742742744694" />
    <path d="M1079.390404081635 1983.3742742744694 L1010.6257257255306 1593.390404081635" />
    <path d="M1010.6257257255306 1593.390404081635 L1400.609595918365 1524.6257257255306" />
    <path d="M1394.2807193029907 1541.6508072740758 L1452.3491927259242 1908.2807193029907" />
    <path d="M1452.3491927259242 1908.2807193029907 L1085.7192806970093 1966.3491927259242" />
    <path d="M1085.7192806970093 1966.3491927259242 L1027.6508072740758 1599.7192806970093" />
    <path d="M1027.6508072740758 1599.7192806970093 L1394.2807193029907 1541.6508072740758" />
    <path d="M1387.4096484197564 1558.380789407677 L1435.619210592323 1901.4096484197564" />
    <path d="M1435.619210592323 1901.4096484197564 L1092.5903515802436 1949.619210592323" />
    <path d="M1092.5903515802436 1949.619210592323 L1044.380789407677 1606.5903515802436" />
    <path d="M1044.380789407677 1606.5903515802436 L1387.4096484197564 1558.380789407677" />
    <path d="M1380.004830764377 1574.8019883965278 L1419.1980116034722 1894.004830764377" />
    <path d="M1419.1980116034722 1894.004830764377 L1099.995169235623 1933.1980116034722" />
    <path d="M1099.995169235623 1933.1980116034722 L1060.8019883965278 1613.995169235623" />
    <path d="M1060.8019883965278 1613.995169235623 L1380.004830764377 1574.8019883965278" />
    <path d="M1372.0750253237318 1590.9009267784286 L1403.0990732215714 1886.0750253237318" />
    <path d="M1403.0990732215714 1886.0750253237318 L1107.9249746762682 1917.0990732215714" />
    <path d="M1107.9249746762682 1917.0990732215714 L1076.9009267784286 1621.9249746762682" />
    <path d="M1076.9009267784286 1621.9249746762682 L1372.0750253237318 1590.9009267784286" />
    <path d="M1363.629297926796 1606.664340045841 L1387.335659954159 1877.629297926796" />
    <path d="M1387.335659954159 1877.629297926796 L1116.370702073204 1901.335659954159" />
    <path d="M1116.370702073204 1901.335659954159 L1092.664340045841 1630.370702073204" />
    <path d="M1092.664340045841 1630.370702073204 L1363.629297926796 1606.664340045841" />
    <path d="M1354.6770164573404 1622.079183233112 L1371.920816766888 1868.6770164573404" />
    <path d="M1371.920816766888 1868.6770164573404 L1125.3229835426596 1885.920816766888" />
    <path d="M1125.3229835426596 1885.920816766888 L1108.079183233112 1639.3229835426596" />
    <path d="M1108.079183233112 1639.3229835426596 L1354.6770164573404 1622.079183233112" />
    <path d="M1345.2278459304932 1637.132637401076 L1356.867362598924 1859.2278459304932" />
    <path d="M1356.867362598924 1859.2278459304932 L1134.7721540695068 1870.867362598924" />
    <path d="M1134.7721540695068 1870.867362598924 L1123.132637401076 1648.7721540695068" />
    <path d="M1123.132637401076 1648.7721540695068 L1345.2278459304932 1637.132637401076" />
    <path d="M1335.2917434352794 1651.8121160163064 L1342.1878839836936 1849.2917434352794" />
    <path d="M1342.1878839836936 1849.2917434352794 L1144.7082565647206 1856.1878839836936" />
    <path d="M1144.7082565647206 1856.1878839836936 L1137.8121160163064 1658.7082565647206" />
    <path d="M1137.8121160163064 1658.7082565647206 L1335.2917434352794 1651.8121160163064" />
    <path d="M1324.8789529453309 1666.1052712223066 L1327.8947287776934 1838.8789529453309" />
    <path d="M1327.8947287776934 1838.8789529453309 L1155.1210470546691 1841.8947287776934" />
    <path d="M1155.1210470546691 1841.8947287776934 L1152.1052712223066 1669.1210470546691" />
    <path d="M1152.1052712223066 1669.1210470546691 L1324.8789529453309 1666.1052712223066" />
    <path d="M1314 1680 L1314 1828" />
    <path d="M1314 1828 L1166 1828" />
    <path d="M1166 1828 L1166 1680" />
    <path d="M1166 1680 L1314 1680" />
    <path d="M1302.6656862581704 1693.484450214903 L1300.515549785097 1816.6656862581704" />
    <path d="M1300.515549785097 1816.6656862581704 L1177.3343137418296 1814.515549785097" />
    <path d="M1177.3343137418296 1814.515549785097 L1179.484450214903 1691.3343137418296" />
    <path d="M1179.484450214903 1691.3343137418296 L1302.6656862581704 1693.484450214903" />
    <path d="M1290.8870839271026 1706.5470265484234 L1287.4529734515766 1804.8870839271026" />
    <path d="M1287.4529734515766 1804.8870839271026 L1189.1129160728974 1801.4529734515766" />
    <path d="M1189.1129160728974 1801.4529734515766 L1192.5470265484234 1703.1129160728974" />
    <path d="M1192.5470265484234 1703.1129160728974 L1290.8870839271026 1706.5470265484234" />
    <path d="M1278.6755300687087 1719.1763963107721 L1274.8236036892279 1792.6755300687087" />
    <path d="M1274.8236036892279 1792.6755300687087 L1201.3244699312913 1788.8236036892279" />
    <path d="M1201.3244699312913 1788.8236036892279 L1205.1763963107721 1715.3244699312913" />
    <path d="M1205.1763963107721 1715.3244699312913 L1278.6755300687087 1719.1763963107721" />
    <path d="M1266.0426207856963 1731.3614951330171 L1262.6385048669829 1780.0426207856963" />
    <path d="M1262.6385048669829 1780.0426207856963 L1213.9573792143037 1776.6385048669829" />
    <path d="M1213.9573792143037 1776.6385048669829 L1217.3614951330171 1727.9573792143037" />
    <path d="M1217.3614951330171 1727.9573792143037 L1266.0426207856963 1731.3614951330171" />
    <path d="M1253.000205290073 1743.091532535871 L1250.908467464129 1767.000205290073" />
    <path d="M1250.908467464129 1767.000205290073 L1226.999794709927 1764.908467464129" />
    <path d="M1226.999794709927 1764.908467464129 L1229.091532535871 1740.999794709927" />
    <path d="M1229.091532535871 1740.999794709927 L1253.000205290073 1743.091532535871" />
    <path d="M1239.5603798565455 1754.3559973728404 L1239.6440026271596 1753.5603798565455" />
    <path d="M1239.6440026271596 1753.5603798565455 L1240.4396201434545 1753.6440026271596" />
    <path d="M1240.4396201434545 1753.6440026271596 L1240.3559973728404 1754.4396201434545" />
    <path d="M1240.3559973728404 1754.4396201434545 L1239.5603798565455 1754.3559973728404" />
    <path d="M1225.7354816634052 1765.144663145423 L1228.855336854577 1739.7354816634052" />
    <path d="M1228.855336854577 1739.7354816634052 L1254.2645183365948 1742.855336854577" />
    <path d="M1254.2645183365948 1742.855336854577 L1251.144663145423 1768.2645183365948" />
    <path d="M1251.144663145423 1768.2645183365948 L1225.7354816634052 1765.144663145423" />
    <path d="M1211.5380825235188 1775.447593188094 L1218.552406811906 1725.5380825235188" />
    <path d="M1218.552406811906 1725.5380825235188 L1268.4619174764812 1732.552406811906" />
    <path d="M1268.4619174764812 1732.552406811906 L1261.447593188094 1782.4619174764812" />
    <path d="M1261.447593188094 1782.4619174764812 L1211.5380825235188 1775.447593188094" />
    <path d="M1196.98098250811 1785.2551457208647 L1208.7448542791353 1710.98098250811" />
    <path d="M1208.7448542791353 1710.98098250811 L1283.01901749189 1722.7448542791353" />
    <path d="M1283.01901749189 1722.7448542791353 L1271.2551457208647 1797.01901749189" />
    <path d="M1271.2551457208647 1797.01901749189 L1196.98098250811 1785.2551457208647" />
  </g>
</svg>