<?xml version="1.0" standalone="no"?>
<!DOCTYPE svg PUBLIC "-//W3C//DTD SVG 1.1//EN" 
    "http://www.w3.org/Graphics/SVG/1.1/DTD/svg11.dtd">
<svg width="21cm" height="21cm"
    xmlns="http://www.w3.org/2000/svg" version="1.1" viewBox="0 0 744.09449 744.09449">
  <g fill="none" stroke="black" stroke-width="0.03cm">
    <path d="M58.33737 33.78862 L74.28225 61.40596" />
    <path d="M74.28225 61.40596 L46.6649 77.35084" />
    <path d="M46.6649 77.35084 L30.72002 49.7335" />
    <path d="M30.72002 49.7335 L58.33737 33.78862" />
    <path d="M59.0099 69.41453 L73.98123 97.57152" />
    <path d="M73.98123 97.57152 L45.82424 112.54286" />
    <path d="M45.82424 112.54286 L30.85291 84.38587" />
    <path d="M30.85291 84.38587 L59.0099 69.41453" />
    <path d="M59.67529 105.0638 L73.65484 133.72613" />
    <path d="M73.65484 133.72613 L44.99251 147.70568" />
    <path d="M44.99251 147.70568 L31.01296 119.04335" />
    <path d="M31.01296 119.04335 L59.67529 105.0638" />
    <path d="M60.33272 140.73616 L73.30346 169.86891" />
    <path d="M73.30346 169.86891 L44.17071 182.83964" />
    <path d="M44.17071 182.83964 L31.19997 153.70689" />
    <path d="M31.19997 153.70689 L60.33272 140.73616" />
    <path d="M60.98141 176.43132 L72.92753 205.99899" />
    <path d="M72.92753 205.99899 L43.35985 217.94511" />
    <path d="M43.35985 217.94511 L31.41374 188.37743" />
    <path d="M31.41374 188.37743 L60.98141 176.43132" />
    <path d="M61.62055 212.14895 L72.5275 242.11553" />
    <path d="M72.5275 242.11553 L42.56092 253.02247" />
    <path d="M42.56092 253.02247 L31.65398 223.05589" />
    <path d="M31.65398 223.05589 L61.62055 212.14895" />
    <path d="M62.24938 247.88872 L72.10386 278.21769" />
    <path d="M72.10386 278.21769 L41.77489 288.07217" />
    <path d="M41.77489 288.07217 L31.92041 257.7432" />
    <path d="M31.92041 257.7432 L62.24938 247.88872" />
    <path d="M62.86712 283.65025 L71.65713 314.30466" />
    <path d="M71.65713 314.30466 L41.00272 323.09467" />
    <path d="M41.00272 323.09467 L32.21271 292.44026" />
    <path d="M32.21271 292.44026 L62.86712 283.65025" />
    <path d="M63.47301 319.43314 L71.18785 350.37564" />
    <path d="M71.18785 350.37564 L40.24535 358.09047" />
    <path d="M40.24535 358.09047 L32.53051 327.14797" />
    <path d="M32.53051 327.14797 L63.47301 319.43314" />
    <path d="M64.06634 355.23695 L70.69659 386.42985" />
    <path d="M70.69659 386.42985 L39.50369 393.06011" />
    <path d="M39.50369 393.06011 L32.87344 361.86721" />
    <path d="M32.87344 361.86721 L64.06634 355.23695" />
    <path d="M64.64636 391.06125 L70.18396 422.46654" />
    <path d="M70.18396 422.46654 L38.77867 428.00414" />
    <path d="M38.77867 428.00414 L33.24107 396.59885" />
    <path d="M33.24107 396.59885 L64.64636 391.06125" />
    <path d="M65.21237 426.90556 L69.65057 458.48497" />
    <path d="M69.65057 458.48497 L38.07115 462.92317" />
    <path d="M38.07115 462.92317 L33.63295 431.34376" />
    <path d="M33.63295 431.34376 L65.21237 426.90556" />
    <path d="M65.76369 462.76936 L69.09707 494.48443" />
    <path d="M69.09707 494.48443 L37.38201 497.81782" />
    <path d="M37.38201 497.81782 L34.04862 466.10275" />
    <path d="M34.04862 466.10275 L65.76369 462.76936" />
    <path d="M66.29963 498.65215 L68.52415 530.46423" />
    <path d="M68.52415 530.46423 L36.71207 532.68875" />
    <path d="M36.71207 532.68875 L34.48755 500.87667" />
    <path d="M34.48755 500.87667 L66.29963 498.65215" />
    <path d="M66.81956 534.55337 L67.9325 566.4237" />
    <path d="M67.9325 566.4237 L36.06216 567.53664" />
    <path d="M36.06216 567.53664 L34.94922 535.6663" />
    <path d="M34.94922 535.6663 L66.81956 534.55337" />
    <path d="M67.32283 570.47244 L67.32283 602.3622" />
    <path d="M67.32283 602.3622 L35.43307 602.3622" />
    <path d="M35.43307 602.3622 L35.43307 570.47244" />
    <path d="M35.43307 570.47244 L67.32283 570.47244" />
    <path d="M67.80884 606.40878 L66.6959 638.27912" />
    <path d="M66.6959 638.27912 L34.82557 637.16618" />
    <path d="M34.82557 637.16618 L35.9385 605.29585" />
    <path d="M35.9385 605.29585 L67.80884 606.40878" />
    <path d="M68.27698 642.36178 L66.05247 674.17386" />
    <path d="M66.05247 674.17386 L34.24038 671.94935" />
    <path d="M34.24038 671.94935 L36.4649 640.13726" />
    <path d="M36.4649 640.13726 L68.27698 642.36178" />
    <path d="M68.7267 678.3308 L65.39331 710.04587" />
    <path d="M65.39331 710.04587 L33.67824 706.71248" />
    <path d="M33.67824 706.71248 L37.01163 674.99741" />
    <path d="M37.01163 674.99741 L68.7267 678.3308" />
    <path d="M94.44297 33.98146 L109.4143 62.13845" />
    <path d="M109.4143 62.13845 L81.25731 77.10979" />
    <path d="M81.25731 77.10979 L66.28598 48.9528" />
    <path d="M66.28598 48.9528 L94.44297 33.98146" />
    <path d="M95.10836 69.63073 L109.08791 98.29306" />
    <path d="M109.08791 98.29306 L80.42558 112.27261" />
    <path d="M80.42558 112.27261 L66.44603 83.61028" />
    <path d="M66.44603 83.61028 L95.10836 69.63073" />
    <path d="M95.76579 105.30309 L108.73653 134.43584" />
    <path d="M108.73653 134.43584 L79.60378 147.40657" />
    <path d="M79.60378 147.40657 L66.63305 118.27382" />
    <path d="M66.63305 118.27382 L95.76579 105.30309" />
    <path d="M96.41448 140.99825 L108.3606 170.56592" />
    <path d="M108.3606 170.56592 L78.79292 182.51204" />
    <path d="M78.79292 182.51204 L66.84681 152.94436" />
    <path d="M66.84681 152.94436 L96.41448 140.99825" />
    <path d="M97.05363 176.71588 L107.96057 206.68246" />
    <path d="M107.96057 206.68246 L77.99399 217.5894" />
    <path d="M77.99399 217.5894 L67.08705 187.62282" />
    <path d="M67.08705 187.62282 L97.05363 176.71588" />
    <path d="M97.68245 212.45565 L107.53693 242.78462" />
    <path d="M107.53693 242.78462 L77.20796 252.6391" />
    <path d="M77.20796 252.6391 L67.35348 222.31013" />
    <path d="M67.35348 222.31013 L97.68245 212.45565" />
    <path d="M98.30019 248.21718 L107.0902 278.87159" />
    <path d="M107.0902 278.87159 L76.43579 287.6616" />
    <path d="M76.43579 287.6616 L67.64578 257.00719" />
    <path d="M67.64578 257.00719 L98.30019 248.21718" />
    <path d="M98.90609 284.00007 L106.62092 314.94257" />
    <path d="M106.62092 314.94257 L75.67842 322.6574" />
    <path d="M75.67842 322.6574 L67.96358 291.7149" />
    <path d="M67.96358 291.7149 L98.90609 284.00007" />
    <path d="M99.49941 319.80388 L106.12966 350.99678" />
    <path d="M106.12966 350.99678 L74.93677 357.62703" />
    <path d="M74.93677 357.62703 L68.30651 326.43414" />
    <path d="M68.30651 326.43414 L99.49941 319.80388" />
    <path d="M100.07943 355.62818 L105.61703 387.03347" />
    <path d="M105.61703 387.03347 L74.21174 392.57107" />
    <path d="M74.21174 392.57107 L68.67414 361.16578" />
    <path d="M68.67414 361.16578 L100.07943 355.62818" />
    <path d="M100.64544 391.47249 L105.08364 423.0519" />
    <path d="M105.08364 423.0519 L73.50422 427.4901" />
    <path d="M73.50422 427.4901 L69.06603 395.91068" />
    <path d="M69.06603 395.91068 L100.64544 391.47249" />
    <path d="M101.19676 427.33629 L104.53015 459.05136" />
    <path d="M104.53015 459.05136 L72.81508 462.38475" />
    <path d="M72.81508 462.38475 L69.48169 430.66968" />
    <path d="M69.48169 430.66968 L101.19676 427.33629" />
    <path d="M101.73271 463.21908 L103.95722 495.03116" />
    <path d="M103.95722 495.03116 L72.14514 497.25568" />
    <path d="M72.14514 497.25568 L69.92062 465.4436" />
    <path d="M69.92062 465.4436 L101.73271 463.21908" />
    <path d="M102.25263 499.12029 L103.36557 530.99063" />
    <path d="M103.36557 530.99063 L71.49523 532.10357" />
    <path d="M71.49523 532.10357 L70.3823 500.23323" />
    <path d="M70.3823 500.23323 L102.25263 499.12029" />
    <path d="M102.75591 535.03937 L102.75591 566.92913" />
    <path d="M102.75591 566.92913 L70.86614 566.92913" />
    <path d="M70.86614 566.92913 L70.86614 535.03937" />
    <path d="M70.86614 535.03937 L102.75591 535.03937" />
    <path d="M103.24191 570.97571 L102.12897 602.84605" />
    <path d="M102.12897 602.84605 L70.25864 601.73311" />
    <path d="M70.25864 601.73311 L71.37157 569.86278" />
    <path d="M71.37157 569.86278 L103.24191 570.97571" />
    <path d="M103.71005 606.92871 L101.48554 638.74079" />
    <path d="M101.48554 638.74079 L69.67346 636.51628" />
    <path d="M69.67346 636.51628 L71.89797 604.70419" />
    <path d="M71.89797 604.70419 L103.71005 606.92871" />
    <path d="M104.15977 642.89773 L100.82638 674.6128" />
    <path d="M100.82638 674.6128 L69.11131 671.27941" />
    <path d="M69.11131 671.27941 L72.4447 639.56434" />
    <path d="M72.4447 639.56434 L104.15977 642.89773" />
    <path d="M104.5905 678.88212 L100.15231 710.46153" />
    <path d="M100.15231 710.46153 L68.57289 706.02334" />
    <path d="M68.57289 706.02334 L73.01109 674.44392" />
    <path d="M73.01109 674.44392 L104.5905 678.88212" />
    <path d="M130.54143 34.19766 L144.52098 62.85999" />
    <path d="M144.52098 62.85999 L115.85865 76.83954" />
    <path d="M115.85865 76.83954 L101.8791 48.17721" />
    <path d="M101.8791 48.17721 L130.54143 34.19766" />
    <path d="M131.19887 69.87002 L144.1696 99.00277" />
    <path d="M144.1696 99.00277 L115.03685 111.9735" />
    <path d="M115.03685 111.9735 L102.06612 82.84075" />
    <path d="M102.06612 82.84075 L131.19887 69.87002" />
    <path d="M131.84755 105.56517 L143.79367 135.13285" />
    <path d="M143.79367 135.13285 L114.22599 147.07896" />
    <path d="M114.22599 147.07896 L102.27988 117.51129" />
    <path d="M102.27988 117.51129 L131.84755 105.56517" />
    <path d="M132.4867 141.28281 L143.39364 171.24939" />
    <path d="M143.39364 171.24939 L113.42706 182.15633" />
    <path d="M113.42706 182.15633 L102.52012 152.18975" />
    <path d="M102.52012 152.18975 L132.4867 141.28281" />
    <path d="M133.11552 177.02258 L142.97 207.35155" />
    <path d="M142.97 207.35155 L112.64103 217.20603" />
    <path d="M112.64103 217.20603 L102.78655 186.87706" />
    <path d="M102.78655 186.87706 L133.11552 177.02258" />
    <path d="M133.73326 212.78411 L142.52327 243.43852" />
    <path d="M142.52327 243.43852 L111.86886 252.22853" />
    <path d="M111.86886 252.22853 L103.07885 221.57412" />
    <path d="M103.07885 221.57412 L133.73326 212.78411" />
    <path d="M134.33916 248.56699 L142.05399 279.5095" />
    <path d="M142.05399 279.5095 L111.11149 287.22433" />
    <path d="M111.11149 287.22433 L103.39666 256.28183" />
    <path d="M103.39666 256.28183 L134.33916 248.56699" />
    <path d="M134.93248 284.37081 L141.56273 315.56371" />
    <path d="M141.56273 315.56371 L110.36984 322.19396" />
    <path d="M110.36984 322.19396 L103.73958 291.00107" />
    <path d="M103.73958 291.00107 L134.93248 284.37081" />
    <path d="M135.5125 320.19511 L141.0501 351.6004" />
    <path d="M141.0501 351.6004 L109.64481 357.138" />
    <path d="M109.64481 357.138 L104.10721 325.73271" />
    <path d="M104.10721 325.73271 L135.5125 320.19511" />
    <path d="M136.07851 356.03942 L140.51671 387.61883" />
    <path d="M140.51671 387.61883 L108.93729 392.05703" />
    <path d="M108.93729 392.05703 L104.4991 360.47761" />
    <path d="M104.4991 360.47761 L136.07851 356.03942" />
    <path d="M136.62983 391.90322 L139.96322 423.61829" />
    <path d="M139.96322 423.61829 L108.24815 426.95168" />
    <path d="M108.24815 426.95168 L104.91476 395.23661" />
    <path d="M104.91476 395.23661 L136.62983 391.90322" />
    <path d="M137.16578 427.78601 L139.39029 459.59809" />
    <path d="M139.39029 459.59809 L107.57821 461.82261" />
    <path d="M107.57821 461.82261 L105.35369 430.01053" />
    <path d="M105.35369 430.01053 L137.16578 427.78601" />
    <path d="M137.6857 463.68722 L138.79864 495.55756" />
    <path d="M138.79864 495.55756 L106.9283 496.6705" />
    <path d="M106.9283 496.6705 L105.81537 464.80016" />
    <path d="M105.81537 464.80016 L137.6857 463.68722" />
    <path d="M138.18898 499.6063 L138.18898 531.49606" />
    <path d="M138.18898 531.49606 L106.29921 531.49606" />
    <path d="M106.29921 531.49606 L106.29921 499.6063" />
    <path d="M106.29921 499.6063 L138.18898 499.6063" />
    <path d="M138.67498 535.54264 L137.56204 567.41298" />
    <path d="M137.56204 567.41298 L105.69171 566.30004" />
    <path d="M105.69171 566.30004 L106.80464 534.42971" />
    <path d="M106.80464 534.42971 L138.67498 535.54264" />
    <path d="M139.14313 571.49564 L136.91861 603.30772" />
    <path d="M136.91861 603.30772 L105.10653 601.08321" />
    <path d="M105.10653 601.08321 L107.33104 569.27112" />
    <path d="M107.33104 569.27112 L139.14313 571.49564" />
    <path d="M139.59284 607.46466 L136.25945 639.17973" />
    <path d="M136.25945 639.17973 L104.54438 635.84634" />
    <path d="M104.54438 635.84634 L107.87777 604.13127" />
    <path d="M107.87777 604.13127 L139.59284 607.46466" />
    <path d="M140.02358 643.44905 L135.58538 675.02846" />
    <path d="M135.58538 675.02846 L104.00596 670.59027" />
    <path d="M104.00596 670.59027 L108.44416 639.01085" />
    <path d="M108.44416 639.01085 L140.02358 643.44905" />
    <path d="M140.43481 679.44813 L134.89721 710.85342" />
    <path d="M134.89721 710.85342 L103.49192 705.31582" />
    <path d="M103.49192 705.31582 L109.02952 673.91053" />
    <path d="M109.02952 673.91053 L140.43481 679.44813" />
    <path d="M166.63194 34.43695 L179.60267 63.5697" />
    <path d="M179.60267 63.5697 L150.46992 76.54043" />
    <path d="M150.46992 76.54043 L137.49919 47.40768" />
    <path d="M137.49919 47.40768 L166.63194 34.43695" />
    <path d="M167.28062 70.1321 L179.22674 99.69978" />
    <path d="M179.22674 99.69978 L149.65906 111.64589" />
    <path d="M149.65906 111.64589 L137.71295 82.07822" />
    <path d="M137.71295 82.07822 L167.28062 70.1321" />
    <path d="M167.91977 105.84974 L178.82671 135.81632" />
    <path d="M178.82671 135.81632 L148.86013 146.72326" />
    <path d="M148.86013 146.72326 L137.95319 116.75668" />
    <path d="M137.95319 116.75668 L167.91977 105.84974" />
    <path d="M168.54859 141.58951 L178.40307 171.91848" />
    <path d="M178.40307 171.91848 L148.0741 181.77296" />
    <path d="M148.0741 181.77296 L138.21962 151.44399" />
    <path d="M138.21962 151.44399 L168.54859 141.58951" />
    <path d="M169.16633 177.35104 L177.95634 208.00545" />
    <path d="M177.95634 208.00545 L147.30193 216.79546" />
    <path d="M147.30193 216.79546 L138.51192 186.14105" />
    <path d="M138.51192 186.14105 L169.16633 177.35104" />
    <path d="M169.77223 213.13392 L177.48706 244.07642" />
    <path d="M177.48706 244.07642 L146.54456 251.79126" />
    <path d="M146.54456 251.79126 L138.82973 220.84876" />
    <path d="M138.82973 220.84876 L169.77223 213.13392" />
    <path d="M170.36555 248.93774 L176.9958 280.13064" />
    <path d="M176.9958 280.13064 L145.80291 286.76089" />
    <path d="M145.80291 286.76089 L139.17265 255.568" />
    <path d="M139.17265 255.568 L170.36555 248.93774" />
    <path d="M170.94557 284.76204 L176.48317 316.16733" />
    <path d="M176.48317 316.16733 L145.07788 321.70493" />
    <path d="M145.07788 321.70493 L139.54028 290.29964" />
    <path d="M139.54028 290.29964 L170.94557 284.76204" />
    <path d="M171.51158 320.60635 L175.94978 352.18576" />
    <path d="M175.94978 352.18576 L144.37036 356.62396" />
    <path d="M144.37036 356.62396 L139.93217 325.04454" />
    <path d="M139.93217 325.04454 L171.51158 320.60635" />
    <path d="M172.0629 356.47015 L175.39629 388.18522" />
    <path d="M175.39629 388.18522 L143.68122 391.51861" />
    <path d="M143.68122 391.51861 L140.34783 359.80354" />
    <path d="M140.34783 359.80354 L172.0629 356.47015" />
    <path d="M172.59885 392.35294 L174.82337 424.16502" />
    <path d="M174.82337 424.16502 L143.01128 426.38954" />
    <path d="M143.01128 426.38954 L140.78677 394.57745" />
    <path d="M140.78677 394.57745 L172.59885 392.35294" />
    <path d="M173.11877 428.25415 L174.23171 460.12449" />
    <path d="M174.23171 460.12449 L142.36137 461.23743" />
    <path d="M142.36137 461.23743 L141.24844 429.36709" />
    <path d="M141.24844 429.36709 L173.11877 428.25415" />
    <path d="M173.62205 464.17323 L173.62205 496.06299" />
    <path d="M173.62205 496.06299 L141.73228 496.06299" />
    <path d="M141.73228 496.06299 L141.73228 464.17323" />
    <path d="M141.73228 464.17323 L173.62205 464.17323" />
    <path d="M174.10805 500.10957 L172.99512 531.97991" />
    <path d="M172.99512 531.97991 L141.12478 530.86697" />
    <path d="M141.12478 530.86697 L142.23771 498.99663" />
    <path d="M142.23771 498.99663 L174.10805 500.10957" />
    <path d="M174.5762 536.06257 L172.35168 567.87465" />
    <path d="M172.35168 567.87465 L140.5396 565.65013" />
    <path d="M140.5396 565.65013 L142.76411 533.83805" />
    <path d="M142.76411 533.83805 L174.5762 536.06257" />
    <path d="M175.02591 572.03159 L171.69252 603.74666" />
    <path d="M171.69252 603.74666 L139.97745 600.41327" />
    <path d="M139.97745 600.41327 L143.31084 568.6982" />
    <path d="M143.31084 568.6982 L175.02591 572.03159" />
    <path d="M175.45665 608.01598 L171.01845 639.59539" />
    <path d="M171.01845 639.59539 L139.43903 635.15719" />
    <path d="M139.43903 635.15719 L143.87723 603.57778" />
    <path d="M143.87723 603.57778 L175.45665 608.01598" />
    <path d="M175.86788 644.01506 L170.33028 675.42035" />
    <path d="M170.33028 675.42035 L138.92499 669.88275" />
    <path d="M138.92499 669.88275 L144.46259 638.47746" />
    <path d="M144.46259 638.47746 L175.86788 644.01506" />
    <path d="M176.25911 680.02815 L169.62885 711.22105" />
    <path d="M169.62885 711.22105 L138.43596 704.59079" />
    <path d="M138.43596 704.59079 L145.06621 673.3979" />
    <path d="M145.06621 673.3979 L176.25911 680.02815" />
    <path d="M202.71369 34.69903 L214.65981 64.26671" />
    <path d="M214.65981 64.26671 L185.09214 76.21282" />
    <path d="M185.09214 76.21282 L173.14602 46.64515" />
    <path d="M173.14602 46.64515 L202.71369 34.69903" />
    <path d="M203.35284 70.41667 L214.25978 100.38325" />
    <path d="M214.25978 100.38325 L184.2932 111.29019" />
    <path d="M184.2932 111.29019 L173.38626 81.32361" />
    <path d="M173.38626 81.32361 L203.35284 70.41667" />
    <path d="M203.98166 106.15644 L213.83614 136.48541" />
    <path d="M213.83614 136.48541 L183.50717 146.33989" />
    <path d="M183.50717 146.33989 L173.65269 116.01092" />
    <path d="M173.65269 116.01092 L203.98166 106.15644" />
    <path d="M204.5994 141.91797 L213.38941 172.57237" />
    <path d="M213.38941 172.57237 L182.735 181.36238" />
    <path d="M182.735 181.36238 L173.94499 150.70798" />
    <path d="M173.94499 150.70798 L204.5994 141.91797" />
    <path d="M205.2053 177.70085 L212.92013 208.64335" />
    <path d="M212.92013 208.64335 L181.97763 216.35819" />
    <path d="M181.97763 216.35819 L174.2628 185.41568" />
    <path d="M174.2628 185.41568 L205.2053 177.70085" />
    <path d="M205.79862 213.50467 L212.42887 244.69757" />
    <path d="M212.42887 244.69757 L181.23598 251.32782" />
    <path d="M181.23598 251.32782 L174.60572 220.13493" />
    <path d="M174.60572 220.13493 L205.79862 213.50467" />
    <path d="M206.37864 249.32897 L211.91624 280.73426" />
    <path d="M211.91624 280.73426 L180.51095 286.27186" />
    <path d="M180.51095 286.27186 L174.97335 254.86657" />
    <path d="M174.97335 254.86657 L206.37864 249.32897" />
    <path d="M206.94465 285.17327 L211.38285 316.75269" />
    <path d="M211.38285 316.75269 L179.80344 321.19089" />
    <path d="M179.80344 321.19089 L175.36524 289.61147" />
    <path d="M175.36524 289.61147 L206.94465 285.17327" />
    <path d="M207.49597 321.03708 L210.82936 352.75215" />
    <path d="M210.82936 352.75215 L179.11429 356.08554" />
    <path d="M179.11429 356.08554 L175.7809 324.37047" />
    <path d="M175.7809 324.37047 L207.49597 321.03708" />
    <path d="M208.03192 356.91987 L210.25644 388.73195" />
    <path d="M210.25644 388.73195 L178.44435 390.95647" />
    <path d="M178.44435 390.95647 L176.21984 359.14438" />
    <path d="M176.21984 359.14438 L208.03192 356.91987" />
    <path d="M208.55185 392.82108 L209.66478 424.69142" />
    <path d="M209.66478 424.69142 L177.79444 425.80436" />
    <path d="M177.79444 425.80436 L176.68151 393.93402" />
    <path d="M176.68151 393.93402 L208.55185 392.82108" />
    <path d="M209.05512 428.74016 L209.05512 460.62992" />
    <path d="M209.05512 460.62992 L177.16535 460.62992" />
    <path d="M177.16535 460.62992 L177.16535 428.74016" />
    <path d="M177.16535 428.74016 L209.05512 428.74016" />
    <path d="M209.54112 464.6765 L208.42819 496.54684" />
    <path d="M208.42819 496.54684 L176.55785 495.4339" />
    <path d="M176.55785 495.4339 L177.67079 463.56356" />
    <path d="M177.67079 463.56356 L209.54112 464.6765" />
    <path d="M210.00927 500.6295 L207.78475 532.44158" />
    <path d="M207.78475 532.44158 L175.97267 530.21706" />
    <path d="M175.97267 530.21706 L178.19719 498.40498" />
    <path d="M178.19719 498.40498 L210.00927 500.6295" />
    <path d="M210.45898 536.59852 L207.12559 568.31359" />
    <path d="M207.12559 568.31359 L175.41053 564.9802" />
    <path d="M175.41053 564.9802 L178.74391 533.26513" />
    <path d="M178.74391 533.26513 L210.45898 536.59852" />
    <path d="M210.88972 572.58291 L206.45152 604.16232" />
    <path d="M206.45152 604.16232 L174.87211 599.72412" />
    <path d="M174.87211 599.72412 L179.3103 568.14471" />
    <path d="M179.3103 568.14471 L210.88972 572.58291" />
    <path d="M211.30095 608.58199 L205.76335 639.98728" />
    <path d="M205.76335 639.98728 L174.35806 634.44968" />
    <path d="M174.35806 634.44968 L179.89566 603.04439" />
    <path d="M179.89566 603.04439 L211.30095 608.58199" />
    <path d="M211.69218 644.59508 L205.06192 675.78798" />
    <path d="M205.06192 675.78798 L173.86903 669.15772" />
    <path d="M173.86903 669.15772 L180.49928 637.96483" />
    <path d="M180.49928 637.96483 L211.69218 644.59508" />
    <path d="M212.06293 680.62147 L204.34809 711.56397" />
    <path d="M204.34809 711.56397 L173.40559 703.84914" />
    <path d="M173.40559 703.84914 L181.12043 672.90664" />
    <path d="M181.12043 672.90664 L212.06293 680.62147" />
    <path d="M238.78591 34.9836 L249.69285 64.95017" />
    <path d="M249.69285 64.95017 L219.72628 75.85712" />
    <path d="M219.72628 75.85712 L208.81933 45.89054" />
    <path d="M208.81933 45.89054 L238.78591 34.9836" />
    <path d="M239.41473 70.72337 L249.26921 101.05234" />
    <path d="M249.26921 101.05234 L218.94024 110.90681" />
    <path d="M218.94024 110.90681 L209.08577 80.57785" />
    <path d="M209.08577 80.57785 L239.41473 70.72337" />
    <path d="M240.03247 106.4849 L248.82248 137.1393" />
    <path d="M248.82248 137.1393 L218.16807 145.92931" />
    <path d="M218.16807 145.92931 L209.37806 115.27491" />
    <path d="M209.37806 115.27491 L240.03247 106.4849" />
    <path d="M240.63837 142.26778 L248.3532 173.21028" />
    <path d="M248.3532 173.21028 L217.4107 180.92512" />
    <path d="M217.4107 180.92512 L209.69587 149.98261" />
    <path d="M209.69587 149.98261 L240.63837 142.26778" />
    <path d="M241.23169 178.0716 L247.86194 209.2645" />
    <path d="M247.86194 209.2645 L216.66905 215.89475" />
    <path d="M216.66905 215.89475 L210.03879 184.70186" />
    <path d="M210.03879 184.70186 L241.23169 178.0716" />
    <path d="M241.81171 213.8959 L247.34931 245.30119" />
    <path d="M247.34931 245.30119 L215.94402 250.83879" />
    <path d="M215.94402 250.83879 L210.40642 219.4335" />
    <path d="M210.40642 219.4335 L241.81171 213.8959" />
    <path d="M242.37772 249.7402 L246.81592 281.31962" />
    <path d="M246.81592 281.31962 L215.23651 285.75782" />
    <path d="M215.23651 285.75782 L210.79831 254.1784" />
    <path d="M210.79831 254.1784 L242.37772 249.7402" />
    <path d="M242.92904 285.60401 L246.26243 317.31908" />
    <path d="M246.26243 317.31908 L214.54736 320.65247" />
    <path d="M214.54736 320.65247 L211.21397 288.9374" />
    <path d="M211.21397 288.9374 L242.92904 285.60401" />
    <path d="M243.46499 321.4868 L245.68951 353.29888" />
    <path d="M245.68951 353.29888 L213.87742 355.5234" />
    <path d="M213.87742 355.5234 L211.65291 323.71131" />
    <path d="M211.65291 323.71131 L243.46499 321.4868" />
    <path d="M243.98492 357.38801 L245.09785 389.25835" />
    <path d="M245.09785 389.25835 L213.22752 390.37129" />
    <path d="M213.22752 390.37129 L212.11458 358.50095" />
    <path d="M212.11458 358.50095 L243.98492 357.38801" />
    <path d="M244.48819 393.30709 L244.48819 425.19685" />
    <path d="M244.48819 425.19685 L212.59843 425.19685" />
    <path d="M212.59843 425.19685 L212.59843 393.30709" />
    <path d="M212.59843 393.30709 L244.48819 393.30709" />
    <path d="M244.97419 429.24343 L243.86126 461.11377" />
    <path d="M243.86126 461.11377 L211.99092 460.00083" />
    <path d="M211.99092 460.00083 L213.10386 428.13049" />
    <path d="M213.10386 428.13049 L244.97419 429.24343" />
    <path d="M245.44234 465.19643 L243.21782 497.00851" />
    <path d="M243.21782 497.00851 L211.40574 494.78399" />
    <path d="M211.40574 494.78399 L213.63026 462.97191" />
    <path d="M213.63026 462.97191 L245.44234 465.19643" />
    <path d="M245.89205 501.16545 L242.55866 532.88052" />
    <path d="M242.55866 532.88052 L210.8436 529.54713" />
    <path d="M210.8436 529.54713 L214.17698 497.83206" />
    <path d="M214.17698 497.83206 L245.89205 501.16545" />
    <path d="M246.32279 537.14984 L241.88459 568.72925" />
    <path d="M241.88459 568.72925 L210.30518 564.29105" />
    <path d="M210.30518 564.29105 L214.74337 532.71164" />
    <path d="M214.74337 532.71164 L246.32279 537.14984" />
    <path d="M246.73402 573.14892 L241.19642 604.55421" />
    <path d="M241.19642 604.55421 L209.79114 599.01661" />
    <path d="M209.79114 599.01661 L215.32873 567.61132" />
    <path d="M215.32873 567.61132 L246.73402 573.14892" />
    <path d="M247.12525 609.16201 L240.495 640.35491" />
    <path d="M240.495 640.35491 L209.3021 633.72465" />
    <path d="M209.3021 633.72465 L215.93235 602.53176" />
    <path d="M215.93235 602.53176 L247.12525 609.16201" />
    <path d="M247.496 645.1884 L239.78117 676.1309" />
    <path d="M239.78117 676.1309 L208.83866 668.41607" />
    <path d="M208.83866 668.41607 L216.5535 637.47357" />
    <path d="M216.5535 637.47357 L247.496 645.1884" />
    <path d="M247.84581 681.22737 L239.0558 711.88178" />
    <path d="M239.0558 711.88178 L208.40139 703.09177" />
    <path d="M208.40139 703.09177 L217.1914 672.43736" />
    <path d="M217.1914 672.43736 L247.84581 681.22737" />
    <path d="M274.8478 35.2903 L284.70228 65.61926" />
    <path d="M284.70228 65.61926 L254.37332 75.47374" />
    <path d="M254.37332 75.47374 L244.51884 45.14478" />
    <path d="M244.51884 45.14478 L274.8478 35.2903" />
    <path d="M275.46554 71.05182 L284.25555 101.70623" />
    <path d="M284.25555 101.70623 L253.60114 110.49624" />
    <path d="M253.60114 110.49624 L244.81113 79.84183" />
    <path d="M244.81113 79.84183 L275.46554 71.05182" />
    <path d="M276.07144 106.83471 L283.78627 137.77721" />
    <path d="M283.78627 137.77721 L252.84377 145.49204" />
    <path d="M252.84377 145.49204 L245.12894 114.54954" />
    <path d="M245.12894 114.54954 L276.07144 106.83471" />
    <path d="M276.66476 142.63853 L283.29502 173.83143" />
    <path d="M283.29502 173.83143 L252.10212 180.46168" />
    <path d="M252.10212 180.46168 L245.47186 149.26878" />
    <path d="M245.47186 149.26878 L276.66476 142.63853" />
    <path d="M277.24478 178.46283 L282.78238 209.86812" />
    <path d="M282.78238 209.86812 L251.37709 215.40572" />
    <path d="M251.37709 215.40572 L245.83949 184.00043" />
    <path d="M245.83949 184.00043 L277.24478 178.46283" />
    <path d="M277.81079 214.30713 L282.24899 245.88655" />
    <path d="M282.24899 245.88655 L250.66958 250.32475" />
    <path d="M250.66958 250.32475 L246.23138 218.74533" />
    <path d="M246.23138 218.74533 L277.81079 214.30713" />
    <path d="M278.36211 250.17094 L281.6955 281.88601" />
    <path d="M281.6955 281.88601 L249.98043 285.2194" />
    <path d="M249.98043 285.2194 L246.64704 253.50433" />
    <path d="M246.64704 253.50433 L278.36211 250.17094" />
    <path d="M278.89806 286.05372 L281.12258 317.86581" />
    <path d="M281.12258 317.86581 L249.3105 320.09032" />
    <path d="M249.3105 320.09032 L247.08598 288.27824" />
    <path d="M247.08598 288.27824 L278.89806 286.05372" />
    <path d="M279.41799 321.95494 L280.53092 353.82528" />
    <path d="M280.53092 353.82528 L248.66059 354.93821" />
    <path d="M248.66059 354.93821 L247.54765 323.06788" />
    <path d="M247.54765 323.06788 L279.41799 321.95494" />
    <path d="M279.92126 357.87402 L279.92126 389.76378" />
    <path d="M279.92126 389.76378 L248.0315 389.76378" />
    <path d="M248.0315 389.76378 L248.0315 357.87402" />
    <path d="M248.0315 357.87402 L279.92126 357.87402" />
    <path d="M280.40726 393.81036 L279.29433 425.6807" />
    <path d="M279.29433 425.6807 L247.42399 424.56776" />
    <path d="M247.42399 424.56776 L248.53693 392.69742" />
    <path d="M248.53693 392.69742 L280.40726 393.81036" />
    <path d="M280.87541 429.76336 L278.65089 461.57544" />
    <path d="M278.65089 461.57544 L246.83881 459.35092" />
    <path d="M246.83881 459.35092 L249.06333 427.53884" />
    <path d="M249.06333 427.53884 L280.87541 429.76336" />
    <path d="M281.32512 465.73238 L277.99174 497.44744" />
    <path d="M277.99174 497.44744 L246.27667 494.11406" />
    <path d="M246.27667 494.11406 L249.61005 462.39899" />
    <path d="M249.61005 462.39899 L281.32512 465.73238" />
    <path d="M281.75586 501.71676 L277.31766 533.29618" />
    <path d="M277.31766 533.29618 L245.73825 528.85798" />
    <path d="M245.73825 528.85798 L250.17644 497.27857" />
    <path d="M250.17644 497.27857 L281.75586 501.71676" />
    <path d="M282.16709 537.71585 L276.62949 569.12114" />
    <path d="M276.62949 569.12114 L245.22421 563.58354" />
    <path d="M245.22421 563.58354 L250.76181 532.17825" />
    <path d="M250.76181 532.17825 L282.16709 537.71585" />
    <path d="M282.55832 573.72894 L275.92807 604.92184" />
    <path d="M275.92807 604.92184 L244.73517 598.29158" />
    <path d="M244.73517 598.29158 L251.36542 567.09869" />
    <path d="M251.36542 567.09869 L282.55832 573.72894" />
    <path d="M282.92907 609.75533 L275.21424 640.69783" />
    <path d="M275.21424 640.69783 L244.27174 632.983" />
    <path d="M244.27174 632.983 L251.98657 602.0405" />
    <path d="M251.98657 602.0405 L282.92907 609.75533" />
    <path d="M283.27888 645.7943 L274.48887 676.44871" />
    <path d="M274.48887 676.44871 L243.83447 667.6587" />
    <path d="M243.83447 667.6587 L252.62448 637.00429" />
    <path d="M252.62448 637.00429 L283.27888 645.7943" />
    <path d="M283.60734 681.84511 L273.75286 712.17408" />
    <path d="M273.75286 712.17408 L243.42389 702.3196" />
    <path d="M243.42389 702.3196 L253.27837 671.99063" />
    <path d="M253.27837 671.99063 L283.60734 681.84511" />
    <path d="M310.89861 35.61875 L319.68862 66.27316" />
    <path d="M319.68862 66.27316 L289.03421 75.06317" />
    <path d="M289.03421 75.06317 L280.2442 44.40876" />
    <path d="M280.2442 44.40876 L310.89861 35.61875" />
    <path d="M311.50451 71.40164 L319.21934 102.34414" />
    <path d="M319.21934 102.34414 L288.27684 110.05897" />
    <path d="M288.27684 110.05897 L280.56201 79.11647" />
    <path d="M280.56201 79.11647 L311.50451 71.40164" />
    <path d="M312.09783 107.20546 L318.72809 138.39835" />
    <path d="M318.72809 138.39835 L287.53519 145.02861" />
    <path d="M287.53519 145.02861 L280.90494 113.83571" />
    <path d="M280.90494 113.83571 L312.09783 107.20546" />
    <path d="M312.67785 143.02976 L318.21545 174.43505" />
    <path d="M318.21545 174.43505 L286.81017 179.97264" />
    <path d="M286.81017 179.97264 L281.27257 148.56736" />
    <path d="M281.27257 148.56736 L312.67785 143.02976" />
    <path d="M313.24387 178.87406 L317.68206 210.45348" />
    <path d="M317.68206 210.45348 L286.10265 214.89167" />
    <path d="M286.10265 214.89167 L281.66445 183.31226" />
    <path d="M281.66445 183.31226 L313.24387 178.87406" />
    <path d="M313.79518 214.73787 L317.12857 246.45294" />
    <path d="M317.12857 246.45294 L285.4135 249.78633" />
    <path d="M285.4135 249.78633 L282.08011 218.07126" />
    <path d="M282.08011 218.07126 L313.79518 214.73787" />
    <path d="M314.33113 250.62065 L316.55565 282.43274" />
    <path d="M316.55565 282.43274 L284.74357 284.65725" />
    <path d="M284.74357 284.65725 L282.51905 252.84517" />
    <path d="M282.51905 252.84517 L314.33113 250.62065" />
    <path d="M314.85106 286.52187 L315.96399 318.39221" />
    <path d="M315.96399 318.39221 L284.09366 319.50514" />
    <path d="M284.09366 319.50514 L282.98072 287.63481" />
    <path d="M282.98072 287.63481 L314.85106 286.52187" />
    <path d="M315.35433 322.44094 L315.35433 354.33071" />
    <path d="M315.35433 354.33071 L283.46457 354.33071" />
    <path d="M283.46457 354.33071 L283.46457 322.44094" />
    <path d="M283.46457 322.44094 L315.35433 322.44094" />
    <path d="M315.84034 358.37729 L314.7274 390.24763" />
    <path d="M314.7274 390.24763 L282.85706 389.13469" />
    <path d="M282.85706 389.13469 L283.97 357.26435" />
    <path d="M283.97 357.26435 L315.84034 358.37729" />
    <path d="M316.30848 394.33029 L314.08396 426.14237" />
    <path d="M314.08396 426.14237 L282.27188 423.91785" />
    <path d="M282.27188 423.91785 L284.4964 392.10577" />
    <path d="M284.4964 392.10577 L316.30848 394.33029" />
    <path d="M316.75819 430.29931 L313.42481 462.01437" />
    <path d="M313.42481 462.01437 L281.70974 458.68099" />
    <path d="M281.70974 458.68099 L285.04313 426.96592" />
    <path d="M285.04313 426.96592 L316.75819 430.29931" />
    <path d="M317.18893 466.28369 L312.75073 497.86311" />
    <path d="M312.75073 497.86311 L281.17132 493.42491" />
    <path d="M281.17132 493.42491 L285.60952 461.8455" />
    <path d="M285.60952 461.8455 L317.18893 466.28369" />
    <path d="M317.60016 502.28278 L312.06256 533.68806" />
    <path d="M312.06256 533.68806 L280.65728 528.15046" />
    <path d="M280.65728 528.15046 L286.19488 496.74518" />
    <path d="M286.19488 496.74518 L317.60016 502.28278" />
    <path d="M317.99139 538.29587 L311.36114 569.48876" />
    <path d="M311.36114 569.48876 L280.16824 562.85851" />
    <path d="M280.16824 562.85851 L286.7985 531.66561" />
    <path d="M286.7985 531.66561 L317.99139 538.29587" />
    <path d="M318.36214 574.32226 L310.64731 605.26476" />
    <path d="M310.64731 605.26476 L279.70481 597.54993" />
    <path d="M279.70481 597.54993 L287.41964 566.60743" />
    <path d="M287.41964 566.60743 L318.36214 574.32226" />
    <path d="M318.71196 610.36123 L309.92194 641.01564" />
    <path d="M309.92194 641.01564 L279.26754 632.22563" />
    <path d="M279.26754 632.22563 L288.05755 601.57122" />
    <path d="M288.05755 601.57122 L318.71196 610.36123" />
    <path d="M319.04041 646.41204 L309.18593 676.74101" />
    <path d="M309.18593 676.74101 L278.85697 666.88653" />
    <path d="M278.85697 666.88653 L288.71144 636.55756" />
    <path d="M288.71144 636.55756 L319.04041 646.41204" />
    <path d="M319.34711 682.47393 L308.44017 712.44051" />
    <path d="M308.44017 712.44051 L278.47359 701.53357" />
    <path d="M278.47359 701.53357 L289.38053 671.56699" />
    <path d="M289.38053 671.56699 L319.34711 682.47393" />
    <path d="M346.93758 35.96857 L354.65241 66.91107" />
    <path d="M354.65241 66.91107 L323.70991 74.6259" />
    <path d="M323.70991 74.6259 L315.99508 43.6834" />
    <path d="M315.99508 43.6834 L346.93758 35.96857" />
    <path d="M347.5309 71.77239 L354.16116 102.96528" />
    <path d="M354.16116 102.96528 L322.96826 109.59554" />
    <path d="M322.96826 109.59554 L316.33801 78.40264" />
    <path d="M316.33801 78.40264 L347.5309 71.77239" />
    <path d="M348.11092 107.59669 L353.64852 139.00197" />
    <path d="M353.64852 139.00197 L322.24324 144.53957" />
    <path d="M322.24324 144.53957 L316.70564 113.13429" />
    <path d="M316.70564 113.13429 L348.11092 107.59669" />
    <path d="M348.67694 143.44099 L353.11513 175.02041" />
    <path d="M353.11513 175.02041 L321.53572 179.4586" />
    <path d="M321.53572 179.4586 L317.09752 147.87919" />
    <path d="M317.09752 147.87919 L348.67694 143.44099" />
    <path d="M349.22825 179.3048 L352.56164 211.01987" />
    <path d="M352.56164 211.01987 L320.84657 214.35325" />
    <path d="M320.84657 214.35325 L317.51319 182.63819" />
    <path d="M317.51319 182.63819 L349.22825 179.3048" />
    <path d="M349.7642 215.18758 L351.98872 246.99967" />
    <path d="M351.98872 246.99967 L320.17664 249.22418" />
    <path d="M320.17664 249.22418 L317.95212 217.4121" />
    <path d="M317.95212 217.4121 L349.7642 215.18758" />
    <path d="M350.28413 251.0888 L351.39707 282.95914" />
    <path d="M351.39707 282.95914 L319.52673 284.07207" />
    <path d="M319.52673 284.07207 L318.41379 252.20174" />
    <path d="M318.41379 252.20174 L350.28413 251.0888" />
    <path d="M350.7874 287.00787 L350.7874 318.89764" />
    <path d="M350.7874 318.89764 L318.89764 318.89764" />
    <path d="M318.89764 318.89764 L318.89764 287.00787" />
    <path d="M318.89764 287.00787 L350.7874 287.00787" />
    <path d="M351.27341 322.94422 L350.16047 354.81455" />
    <path d="M350.16047 354.81455 L318.29013 353.70162" />
    <path d="M318.29013 353.70162 L319.40307 321.83128" />
    <path d="M319.40307 321.83128 L351.27341 322.94422" />
    <path d="M351.74155 358.89722 L349.51703 390.7093" />
    <path d="M349.51703 390.7093 L317.70495 388.48478" />
    <path d="M317.70495 388.48478 L319.92947 356.6727" />
    <path d="M319.92947 356.6727 L351.74155 358.89722" />
    <path d="M352.19126 394.86623 L348.85788 426.5813" />
    <path d="M348.85788 426.5813 L317.14281 423.24792" />
    <path d="M317.14281 423.24792 L320.4762 391.53285" />
    <path d="M320.4762 391.53285 L352.19126 394.86623" />
    <path d="M352.622 430.85062 L348.1838 462.43004" />
    <path d="M348.1838 462.43004 L316.60439 457.99184" />
    <path d="M316.60439 457.99184 L321.04259 426.41243" />
    <path d="M321.04259 426.41243 L352.622 430.85062" />
    <path d="M353.03323 466.84971 L347.49563 498.25499" />
    <path d="M347.49563 498.25499 L316.09035 492.71739" />
    <path d="M316.09035 492.71739 L321.62795 461.31211" />
    <path d="M321.62795 461.31211 L353.03323 466.84971" />
    <path d="M353.42446 502.8628 L346.79421 534.05569" />
    <path d="M346.79421 534.05569 L315.60131 527.42544" />
    <path d="M315.60131 527.42544 L322.23157 496.23254" />
    <path d="M322.23157 496.23254 L353.42446 502.8628" />
    <path d="M353.79521 538.88919 L346.08038 569.83169" />
    <path d="M346.08038 569.83169 L315.13788 562.11686" />
    <path d="M315.13788 562.11686 L322.85271 531.17436" />
    <path d="M322.85271 531.17436 L353.79521 538.88919" />
    <path d="M354.14503 574.92816 L345.35502 605.58257" />
    <path d="M345.35502 605.58257 L314.70061 596.79256" />
    <path d="M314.70061 596.79256 L323.49062 566.13815" />
    <path d="M323.49062 566.13815 L354.14503 574.92816" />
    <path d="M354.47348 610.97897 L344.619 641.30794" />
    <path d="M344.619 641.30794 L314.29004 631.45346" />
    <path d="M314.29004 631.45346 L324.14452 601.12449" />
    <path d="M324.14452 601.12449 L354.47348 610.97897" />
    <path d="M354.78018 647.04086 L343.87324 677.00744" />
    <path d="M343.87324 677.00744 L313.90666 666.1005" />
    <path d="M313.90666 666.1005 L324.81361 636.13392" />
    <path d="M324.81361 636.13392 L354.78018 647.04086" />
    <path d="M355.06475 683.11308 L343.11863 712.68075" />
    <path d="M343.11863 712.68075 L313.55096 700.73464" />
    <path d="M313.55096 700.73464 L325.49707 671.16696" />
    <path d="M325.49707 671.16696 L355.06475 683.11308" />
    <path d="M382.96397 36.33932 L389.59423 67.53221" />
    <path d="M389.59423 67.53221 L358.40133 74.16247" />
    <path d="M358.40133 74.16247 L351.77108 42.96957" />
    <path d="M351.77108 42.96957 L382.96397 36.33932" />
    <path d="M383.54399 72.16362 L389.08159 103.5689" />
    <path d="M389.08159 103.5689 L357.67631 109.1065" />
    <path d="M357.67631 109.1065 L352.13871 77.70122" />
    <path d="M352.13871 77.70122 L383.54399 72.16362" />
    <path d="M384.11001 108.00792 L388.5482 139.58734" />
    <path d="M388.5482 139.58734 L356.96879 144.02553" />
    <path d="M356.96879 144.02553 L352.53059 112.44612" />
    <path d="M352.53059 112.44612 L384.11001 108.00792" />
    <path d="M384.66132 143.87173 L387.99471 175.5868" />
    <path d="M387.99471 175.5868 L356.27964 178.92018" />
    <path d="M356.27964 178.92018 L352.94626 147.20512" />
    <path d="M352.94626 147.20512 L384.66132 143.87173" />
    <path d="M385.19727 179.75451 L387.42179 211.56659" />
    <path d="M387.42179 211.56659 L355.60971 213.79111" />
    <path d="M355.60971 213.79111 L353.38519 181.97903" />
    <path d="M353.38519 181.97903 L385.19727 179.75451" />
    <path d="M385.7172 215.65573 L386.83014 247.52607" />
    <path d="M386.83014 247.52607 L354.9598 248.639" />
    <path d="M354.9598 248.639 L353.84686 216.76866" />
    <path d="M353.84686 216.76866 L385.7172 215.65573" />
    <path d="M386.22047 251.5748 L386.22047 283.46457" />
    <path d="M386.22047 283.46457 L354.33071 283.46457" />
    <path d="M354.33071 283.46457 L354.33071 251.5748" />
    <path d="M354.33071 251.5748 L386.22047 251.5748" />
    <path d="M386.70648 287.51115 L385.59354 319.38148" />
    <path d="M385.59354 319.38148 L353.7232 318.26855" />
    <path d="M353.7232 318.26855 L354.83614 286.39821" />
    <path d="M354.83614 286.39821 L386.70648 287.51115" />
    <path d="M387.17462 323.46414 L384.9501 355.27623" />
    <path d="M384.9501 355.27623 L353.13802 353.05171" />
    <path d="M353.13802 353.05171 L355.36254 321.23963" />
    <path d="M355.36254 321.23963 L387.17462 323.46414" />
    <path d="M387.62434 359.43316 L384.29095 391.14823" />
    <path d="M384.29095 391.14823 L352.57588 387.81484" />
    <path d="M352.57588 387.81484 L355.90927 356.09978" />
    <path d="M355.90927 356.09978 L387.62434 359.43316" />
    <path d="M388.05507 395.41755 L383.61687 426.99697" />
    <path d="M383.61687 426.99697 L352.03746 422.55877" />
    <path d="M352.03746 422.55877 L356.47566 390.97935" />
    <path d="M356.47566 390.97935 L388.05507 395.41755" />
    <path d="M388.4663 431.41664 L382.92871 462.82192" />
    <path d="M382.92871 462.82192 L351.52342 457.28432" />
    <path d="M351.52342 457.28432 L357.06102 425.87904" />
    <path d="M357.06102 425.87904 L388.4663 431.41664" />
    <path d="M388.85753 467.42973 L382.22728 498.62262" />
    <path d="M382.22728 498.62262 L351.03438 491.99237" />
    <path d="M351.03438 491.99237 L357.66464 460.79947" />
    <path d="M357.66464 460.79947 L388.85753 467.42973" />
    <path d="M389.22828 503.45612 L381.51345 534.39862" />
    <path d="M381.51345 534.39862 L350.57095 526.68379" />
    <path d="M350.57095 526.68379 L358.28578 495.74129" />
    <path d="M358.28578 495.74129 L389.22828 503.45612" />
    <path d="M389.5781 539.49509 L380.78809 570.1495" />
    <path d="M380.78809 570.1495 L350.13368 561.35949" />
    <path d="M350.13368 561.35949 L358.92369 530.70508" />
    <path d="M358.92369 530.70508 L389.5781 539.49509" />
    <path d="M389.90655 575.5459 L380.05207 605.87486" />
    <path d="M380.05207 605.87486 L349.72311 596.02039" />
    <path d="M349.72311 596.02039 L359.57759 565.69142" />
    <path d="M359.57759 565.69142 L389.90655 575.5459" />
    <path d="M390.21325 611.60779 L379.30631 641.57437" />
    <path d="M379.30631 641.57437 L349.33973 630.66743" />
    <path d="M349.33973 630.66743 L360.24668 600.70085" />
    <path d="M360.24668 600.70085 L390.21325 611.60779" />
    <path d="M390.49782 647.68001 L378.5517 677.24768" />
    <path d="M378.5517 677.24768 L348.98403 665.30157" />
    <path d="M348.98403 665.30157 L360.93014 635.73389" />
    <path d="M360.93014 635.73389 L390.49782 647.68001" />
    <path d="M390.7599 683.76176 L377.78917 712.89451" />
    <path d="M377.78917 712.89451 L348.65642 699.92378" />
    <path d="M348.65642 699.92378 L361.62715 670.79103" />
    <path d="M361.62715 670.79103 L390.7599 683.76176" />
    <path d="M418.97706 36.73055 L424.51466 68.13583" />
    <path d="M424.51466 68.13583 L393.10938 73.67343" />
    <path d="M393.10938 73.67343 L387.57178 42.26815" />
    <path d="M387.57178 42.26815 L418.97706 36.73055" />
    <path d="M419.54308 72.57485 L423.98128 104.15426" />
    <path d="M423.98128 104.15426 L392.40186 108.59246" />
    <path d="M392.40186 108.59246 L387.96366 77.01305" />
    <path d="M387.96366 77.01305 L419.54308 72.57485" />
    <path d="M420.0944 108.43866 L423.42778 140.15372" />
    <path d="M423.42778 140.15372 L391.71271 143.48711" />
    <path d="M391.71271 143.48711 L388.37933 111.77204" />
    <path d="M388.37933 111.77204 L420.0944 108.43866" />
    <path d="M420.63034 144.32144 L422.85486 176.13352" />
    <path d="M422.85486 176.13352 L391.04278 178.35804" />
    <path d="M391.04278 178.35804 L388.81826 146.54596" />
    <path d="M388.81826 146.54596 L420.63034 144.32144" />
    <path d="M421.15027 180.22266 L422.26321 212.09299" />
    <path d="M422.26321 212.09299 L390.39287 213.20593" />
    <path d="M390.39287 213.20593 L389.27993 181.33559" />
    <path d="M389.27993 181.33559 L421.15027 180.22266" />
    <path d="M421.65354 216.14173 L421.65354 248.0315" />
    <path d="M421.65354 248.0315 L389.76378 248.0315" />
    <path d="M389.76378 248.0315 L389.76378 216.14173" />
    <path d="M389.76378 216.14173 L421.65354 216.14173" />
    <path d="M422.13955 252.07808 L421.02661 283.94841" />
    <path d="M421.02661 283.94841 L389.15627 282.83548" />
    <path d="M389.15627 282.83548 L390.26921 250.96514" />
    <path d="M390.26921 250.96514 L422.13955 252.07808" />
    <path d="M422.60769 288.03107 L420.38317 319.84316" />
    <path d="M420.38317 319.84316 L388.57109 317.61864" />
    <path d="M388.57109 317.61864 L390.79561 285.80656" />
    <path d="M390.79561 285.80656 L422.60769 288.03107" />
    <path d="M423.05741 324.00009 L419.72402 355.71516" />
    <path d="M419.72402 355.71516 L388.00895 352.38177" />
    <path d="M388.00895 352.38177 L391.34234 320.66671" />
    <path d="M391.34234 320.66671 L423.05741 324.00009" />
    <path d="M423.48814 359.98448 L419.04995 391.5639" />
    <path d="M419.04995 391.5639 L387.47053 387.1257" />
    <path d="M387.47053 387.1257 L391.90873 355.54628" />
    <path d="M391.90873 355.54628 L423.48814 359.98448" />
    <path d="M423.89938 395.98357 L418.36178 427.38885" />
    <path d="M418.36178 427.38885 L386.95649 421.85125" />
    <path d="M386.95649 421.85125 L392.49409 390.44597" />
    <path d="M392.49409 390.44597 L423.89938 395.98357" />
    <path d="M424.2906 431.99666 L417.66035 463.18955" />
    <path d="M417.66035 463.18955 L386.46745 456.5593" />
    <path d="M386.46745 456.5593 L393.09771 425.3664" />
    <path d="M393.09771 425.3664 L424.2906 431.99666" />
    <path d="M424.66135 468.02305 L416.94652 498.96555" />
    <path d="M416.94652 498.96555 L386.00402 491.25072" />
    <path d="M386.00402 491.25072 L393.71885 460.30822" />
    <path d="M393.71885 460.30822 L424.66135 468.02305" />
    <path d="M425.01117 504.06202 L416.22116 534.71643" />
    <path d="M416.22116 534.71643 L385.56675 525.92642" />
    <path d="M385.56675 525.92642 L394.35676 495.27201" />
    <path d="M394.35676 495.27201 L425.01117 504.06202" />
    <path d="M425.33962 540.11283 L415.48515 570.44179" />
    <path d="M415.48515 570.44179 L385.15618 560.58731" />
    <path d="M385.15618 560.58731 L395.01066 530.25835" />
    <path d="M395.01066 530.25835 L425.33962 540.11283" />
    <path d="M425.64632 576.17472 L414.73938 606.1413" />
    <path d="M414.73938 606.1413 L384.77281 595.23435" />
    <path d="M384.77281 595.23435 L395.67975 565.26778" />
    <path d="M395.67975 565.26778 L425.64632 576.17472" />
    <path d="M425.93089 612.24694 L413.98477 641.81461" />
    <path d="M413.98477 641.81461 L384.4171 629.86849" />
    <path d="M384.4171 629.86849 L396.36321 600.30082" />
    <path d="M396.36321 600.30082 L425.93089 612.24694" />
    <path d="M426.19297 648.32869 L413.22224 677.46144" />
    <path d="M413.22224 677.46144 L384.08949 664.49071" />
    <path d="M384.08949 664.49071 L397.06023 635.35796" />
    <path d="M397.06023 635.35796 L426.19297 648.32869" />
    <path d="M426.43226 684.4192 L412.45271 713.08153" />
    <path d="M412.45271 713.08153 L383.79038 699.10198" />
    <path d="M383.79038 699.10198 L397.76993 670.43965" />
    <path d="M397.76993 670.43965 L426.43226 684.4192" />
    <path d="M454.97615 37.14178 L459.41435 68.72119" />
    <path d="M459.41435 68.72119 L427.83493 73.15939" />
    <path d="M427.83493 73.15939 L423.39673 41.57998" />
    <path d="M423.39673 41.57998 L454.97615 37.14178" />
    <path d="M455.52747 73.00559 L458.86085 104.72065" />
    <path d="M458.86085 104.72065 L427.14579 108.05404" />
    <path d="M427.14579 108.05404 L423.8124 76.33897" />
    <path d="M423.8124 76.33897 L455.52747 73.00559" />
    <path d="M456.06341 108.88837 L458.28793 140.70045" />
    <path d="M458.28793 140.70045 L426.47585 142.92497" />
    <path d="M426.47585 142.92497 L424.25133 111.11289" />
    <path d="M424.25133 111.11289 L456.06341 108.88837" />
    <path d="M456.58334 144.78959 L457.69628 176.65992" />
    <path d="M457.69628 176.65992 L425.82594 177.77286" />
    <path d="M425.82594 177.77286 L424.713 145.90252" />
    <path d="M424.713 145.90252 L456.58334 144.78959" />
    <path d="M457.08661 180.70866 L457.08661 212.59843" />
    <path d="M457.08661 212.59843 L425.19685 212.59843" />
    <path d="M425.19685 212.59843 L425.19685 180.70866" />
    <path d="M425.19685 180.70866 L457.08661 180.70866" />
    <path d="M457.57262 216.645 L456.45968 248.51534" />
    <path d="M456.45968 248.51534 L424.58934 247.40241" />
    <path d="M424.58934 247.40241 L425.70228 215.53207" />
    <path d="M425.70228 215.53207 L457.57262 216.645" />
    <path d="M458.04076 252.598 L455.81625 284.41008" />
    <path d="M455.81625 284.41008 L424.00416 282.18557" />
    <path d="M424.00416 282.18557 L426.22868 250.37349" />
    <path d="M426.22868 250.37349 L458.04076 252.598" />
    <path d="M458.49048 288.56702 L455.15709 320.28209" />
    <path d="M455.15709 320.28209 L423.44202 316.9487" />
    <path d="M423.44202 316.9487 L426.77541 285.23363" />
    <path d="M426.77541 285.23363 L458.49048 288.56702" />
    <path d="M458.92121 324.55141 L454.48302 356.13082" />
    <path d="M454.48302 356.13082 L422.9036 351.69263" />
    <path d="M422.9036 351.69263 L427.3418 320.11321" />
    <path d="M427.3418 320.11321 L458.92121 324.55141" />
    <path d="M459.33245 360.55049 L453.79485 391.95578" />
    <path d="M453.79485 391.95578 L422.38956 386.41818" />
    <path d="M422.38956 386.41818 L427.92716 355.01289" />
    <path d="M427.92716 355.01289 L459.33245 360.55049" />
    <path d="M459.72367 396.56359 L453.09342 427.75648" />
    <path d="M453.09342 427.75648 L421.90052 421.12623" />
    <path d="M421.90052 421.12623 L428.53078 389.93333" />
    <path d="M428.53078 389.93333 L459.72367 396.56359" />
    <path d="M460.09442 432.58998 L452.37959 463.53248" />
    <path d="M452.37959 463.53248 L421.43709 455.81765" />
    <path d="M421.43709 455.81765 L429.15192 424.87515" />
    <path d="M429.15192 424.87515 L460.09442 432.58998" />
    <path d="M460.44424 468.62895 L451.65423 499.28335" />
    <path d="M451.65423 499.28335 L420.99982 490.49334" />
    <path d="M420.99982 490.49334 L429.78983 459.83894" />
    <path d="M429.78983 459.83894 L460.44424 468.62895" />
    <path d="M460.7727 504.67975 L450.91822 535.00872" />
    <path d="M450.91822 535.00872 L420.58925 525.15424" />
    <path d="M420.58925 525.15424 L430.44373 494.82528" />
    <path d="M430.44373 494.82528 L460.7727 504.67975" />
    <path d="M461.07939 540.74165 L450.17245 570.70823" />
    <path d="M450.17245 570.70823 L420.20588 559.80128" />
    <path d="M420.20588 559.80128 L431.11282 529.83471" />
    <path d="M431.11282 529.83471 L461.07939 540.74165" />
    <path d="M461.36396 576.81387 L449.41784 606.38154" />
    <path d="M449.41784 606.38154 L419.85017 594.43542" />
    <path d="M419.85017 594.43542 L431.79629 564.86775" />
    <path d="M431.79629 564.86775 L461.36396 576.81387" />
    <path d="M461.62605 612.89562 L448.65531 642.02837" />
    <path d="M448.65531 642.02837 L419.52256 629.05764" />
    <path d="M419.52256 629.05764 L432.4933 599.92489" />
    <path d="M432.4933 599.92489 L461.62605 612.89562" />
    <path d="M461.86533 648.98613 L447.88578 677.64846" />
    <path d="M447.88578 677.64846 L419.22345 663.66891" />
    <path d="M419.22345 663.66891 L433.203 635.00658" />
    <path d="M433.203 635.00658 L461.86533 648.98613" />
    <path d="M462.08153 685.08459 L447.11019 713.24158" />
    <path d="M447.11019 713.24158 L418.9532 698.27024" />
    <path d="M418.9532 698.27024 L433.92454 670.11325" />
    <path d="M433.92454 670.11325 L462.08153 685.08459" />
    <path d="M490.96054 37.57251 L494.29392 69.28758" />
    <path d="M494.29392 69.28758 L462.57886 72.62097" />
    <path d="M462.57886 72.62097 L459.24547 40.9059" />
    <path d="M459.24547 40.9059 L490.96054 37.57251" />
    <path d="M491.49649 73.4553 L493.721 105.26738" />
    <path d="M493.721 105.26738 L461.90892 107.4919" />
    <path d="M461.90892 107.4919 L459.6844 75.67982" />
    <path d="M459.6844 75.67982 L491.49649 73.4553" />
    <path d="M492.01641 109.35652 L493.12935 141.22685" />
    <path d="M493.12935 141.22685 L461.25901 142.33979" />
    <path d="M461.25901 142.33979 L460.14608 110.46945" />
    <path d="M460.14608 110.46945 L492.01641 109.35652" />
    <path d="M492.51969 145.27559 L492.51969 177.16535" />
    <path d="M492.51969 177.16535 L460.62992 177.16535" />
    <path d="M460.62992 177.16535 L460.62992 145.27559" />
    <path d="M460.62992 145.27559 L492.51969 145.27559" />
    <path d="M493.00569 181.21193 L491.89275 213.08227" />
    <path d="M491.89275 213.08227 L460.02242 211.96933" />
    <path d="M460.02242 211.96933 L461.13535 180.099" />
    <path d="M461.13535 180.099 L493.00569 181.21193" />
    <path d="M493.47383 217.16493 L491.24932 248.97701" />
    <path d="M491.24932 248.97701 L459.43723 246.7525" />
    <path d="M459.43723 246.7525 L461.66175 214.94041" />
    <path d="M461.66175 214.94041 L493.47383 217.16493" />
    <path d="M493.92355 253.13395 L490.59016 284.84902" />
    <path d="M490.59016 284.84902 L458.87509 281.51563" />
    <path d="M458.87509 281.51563 L462.20848 249.80056" />
    <path d="M462.20848 249.80056 L493.92355 253.13395" />
    <path d="M494.35428 289.11834 L489.91609 320.69775" />
    <path d="M489.91609 320.69775 L458.33667 316.25956" />
    <path d="M458.33667 316.25956 L462.77487 284.68014" />
    <path d="M462.77487 284.68014 L494.35428 289.11834" />
    <path d="M494.76552 325.11742 L489.22792 356.52271" />
    <path d="M489.22792 356.52271 L457.82263 350.98511" />
    <path d="M457.82263 350.98511 L463.36023 319.57982" />
    <path d="M463.36023 319.57982 L494.76552 325.11742" />
    <path d="M495.15675 361.13051 L488.52649 392.32341" />
    <path d="M488.52649 392.32341 L457.3336 385.69316" />
    <path d="M457.3336 385.69316 L463.96385 354.50026" />
    <path d="M463.96385 354.50026 L495.15675 361.13051" />
    <path d="M495.52749 397.15691 L487.81266 428.09941" />
    <path d="M487.81266 428.09941 L456.87016 420.38458" />
    <path d="M456.87016 420.38458 L464.58499 389.44207" />
    <path d="M464.58499 389.44207 L495.52749 397.15691" />
    <path d="M495.87731 433.19588 L487.0873 463.85028" />
    <path d="M487.0873 463.85028 L456.43289 455.06027" />
    <path d="M456.43289 455.06027 L465.2229 424.40587" />
    <path d="M465.2229 424.40587 L495.87731 433.19588" />
    <path d="M496.20577 469.24668 L486.35129 499.57565" />
    <path d="M486.35129 499.57565 L456.02232 489.72117" />
    <path d="M456.02232 489.72117 L465.8768 459.3922" />
    <path d="M465.8768 459.3922 L496.20577 469.24668" />
    <path d="M496.51246 505.30858 L485.60552 535.27515" />
    <path d="M485.60552 535.27515 L455.63895 524.36821" />
    <path d="M455.63895 524.36821 L466.54589 494.40164" />
    <path d="M466.54589 494.40164 L496.51246 505.30858" />
    <path d="M496.79703 541.38079 L484.85091 570.94847" />
    <path d="M484.85091 570.94847 L455.28324 559.00235" />
    <path d="M455.28324 559.00235 L467.22936 529.43468" />
    <path d="M467.22936 529.43468 L496.79703 541.38079" />
    <path d="M497.05912 577.46255 L484.08838 606.5953" />
    <path d="M484.08838 606.5953 L454.95563 593.62457" />
    <path d="M454.95563 593.62457 L467.92637 564.49182" />
    <path d="M467.92637 564.49182 L497.05912 577.46255" />
    <path d="M497.2984 613.55306 L483.31885 642.21539" />
    <path d="M483.31885 642.21539 L454.65652 628.23584" />
    <path d="M454.65652 628.23584 L468.63607 599.57351" />
    <path d="M468.63607 599.57351 L497.2984 613.55306" />
    <path d="M497.5146 649.65152 L482.54326 677.80851" />
    <path d="M482.54326 677.80851 L454.38627 662.83717" />
    <path d="M454.38627 662.83717 L469.35761 634.68018" />
    <path d="M469.35761 634.68018 L497.5146 649.65152" />
    <path d="M497.70745 685.75712 L481.76256 713.37447" />
    <path d="M481.76256 713.37447 L454.14522 697.42958" />
    <path d="M454.14522 697.42958 L470.0901 669.81224" />
    <path d="M470.0901 669.81224 L497.70745 685.75712" />
    <path d="M526.92956 38.02223 L529.15407 69.83431" />
    <path d="M529.15407 69.83431 L497.34199 72.05883" />
    <path d="M497.34199 72.05883 L495.11747 40.24675" />
    <path d="M495.11747 40.24675 L526.92956 38.02223" />
    <path d="M527.44948 73.92344 L528.56242 105.79378" />
    <path d="M528.56242 105.79378 L496.69208 106.90672" />
    <path d="M496.69208 106.90672 L495.57915 75.03638" />
    <path d="M495.57915 75.03638 L527.44948 73.92344" />
    <path d="M527.95276 109.84252 L527.95276 141.73228" />
    <path d="M527.95276 141.73228 L496.06299 141.73228" />
    <path d="M496.06299 141.73228 L496.06299 109.84252" />
    <path d="M496.06299 109.84252 L527.95276 109.84252" />
    <path d="M528.43876 145.77886 L527.32582 177.6492" />
    <path d="M527.32582 177.6492 L495.45549 176.53626" />
    <path d="M495.45549 176.53626 L496.56842 144.66593" />
    <path d="M496.56842 144.66593 L528.43876 145.77886" />
    <path d="M528.90691 181.73186 L526.68239 213.54394" />
    <path d="M526.68239 213.54394 L494.87031 211.31943" />
    <path d="M494.87031 211.31943 L497.09482 179.50734" />
    <path d="M497.09482 179.50734 L528.90691 181.73186" />
    <path d="M529.35662 217.70088 L526.02323 249.41595" />
    <path d="M526.02323 249.41595 L494.30816 246.08256" />
    <path d="M494.30816 246.08256 L497.64155 214.36749" />
    <path d="M497.64155 214.36749 L529.35662 217.70088" />
    <path d="M529.78736 253.68527 L525.34916 285.26468" />
    <path d="M525.34916 285.26468 L493.76974 280.82649" />
    <path d="M493.76974 280.82649 L498.20794 249.24707" />
    <path d="M498.20794 249.24707 L529.78736 253.68527" />
    <path d="M530.19859 289.68435 L524.66099 321.08964" />
    <path d="M524.66099 321.08964 L493.2557 315.55204" />
    <path d="M493.2557 315.55204 L498.7933 284.14675" />
    <path d="M498.7933 284.14675 L530.19859 289.68435" />
    <path d="M530.58982 325.69744 L523.95956 356.89034" />
    <path d="M523.95956 356.89034 L492.76667 350.26009" />
    <path d="M492.76667 350.26009 L499.39692 319.06719" />
    <path d="M499.39692 319.06719 L530.58982 325.69744" />
    <path d="M530.96056 361.72384 L523.24573 392.66634" />
    <path d="M523.24573 392.66634 L492.30323 384.9515" />
    <path d="M492.30323 384.9515 L500.01806 354.009" />
    <path d="M500.01806 354.009 L530.96056 361.72384" />
    <path d="M531.31038 397.7628 L522.52037 428.41721" />
    <path d="M522.52037 428.41721 L491.86596 419.6272" />
    <path d="M491.86596 419.6272 L500.65597 388.97279" />
    <path d="M500.65597 388.97279 L531.31038 397.7628" />
    <path d="M531.63884 433.81361 L521.78436 464.14258" />
    <path d="M521.78436 464.14258 L491.45539 454.2881" />
    <path d="M491.45539 454.2881 L501.30987 423.95913" />
    <path d="M501.30987 423.95913 L531.63884 433.81361" />
    <path d="M531.94554 469.87551 L521.03859 499.84208" />
    <path d="M521.03859 499.84208 L491.07202 488.93514" />
    <path d="M491.07202 488.93514 L501.97896 458.96857" />
    <path d="M501.97896 458.96857 L531.94554 469.87551" />
    <path d="M532.2301 505.94772 L520.28399 535.5154" />
    <path d="M520.28399 535.5154 L490.71631 523.56928" />
    <path d="M490.71631 523.56928 L502.66243 494.00161" />
    <path d="M502.66243 494.00161 L532.2301 505.94772" />
    <path d="M532.49219 542.02948 L519.52145 571.16223" />
    <path d="M519.52145 571.16223 L490.3887 558.19149" />
    <path d="M490.3887 558.19149 L503.35944 529.05875" />
    <path d="M503.35944 529.05875 L532.49219 542.02948" />
    <path d="M532.73148 578.11999 L518.75192 606.78232" />
    <path d="M518.75192 606.78232 L490.08959 592.80277" />
    <path d="M490.08959 592.80277 L504.06915 564.14044" />
    <path d="M504.06915 564.14044 L532.73148 578.11999" />
    <path d="M532.94767 614.21845 L517.97634 642.37544" />
    <path d="M517.97634 642.37544 L489.81935 627.4041" />
    <path d="M489.81935 627.4041 L504.79068 599.24711" />
    <path d="M504.79068 599.24711 L532.94767 614.21845" />
    <path d="M533.14052 650.32405 L517.19564 677.94139" />
    <path d="M517.19564 677.94139 L489.57829 661.99651" />
    <path d="M489.57829 661.99651 L505.52317 634.37917" />
    <path d="M505.52317 634.37917 L533.14052 650.32405" />
    <path d="M533.30977 686.43597 L516.41077 713.48002" />
    <path d="M516.41077 713.48002 L489.36672 696.58102" />
    <path d="M489.36672 696.58102 L506.26572 669.53697" />
    <path d="M506.26572 669.53697 L533.30977 686.43597" />
    <path d="M562.88255 38.49037 L563.99549 70.36071" />
    <path d="M563.99549 70.36071 L532.12515 71.47365" />
    <path d="M532.12515 71.47365 L531.01222 39.60331" />
    <path d="M531.01222 39.60331 L562.88255 38.49037" />
    <path d="M563.38583 74.40945 L563.38583 106.29921" />
    <path d="M563.38583 106.29921 L531.49606 106.29921" />
    <path d="M531.49606 106.29921 L531.49606 74.40945" />
    <path d="M531.49606 74.40945 L563.38583 74.40945" />
    <path d="M563.87183 110.34579 L562.75889 142.21613" />
    <path d="M562.75889 142.21613 L530.88856 141.10319" />
    <path d="M530.88856 141.10319 L532.00149 109.23286" />
    <path d="M532.00149 109.23286 L563.87183 110.34579" />
    <path d="M564.33998 146.29879 L562.11546 178.11087" />
    <path d="M562.11546 178.11087 L530.30338 175.88635" />
    <path d="M530.30338 175.88635 L532.52789 144.07427" />
    <path d="M532.52789 144.07427 L564.33998 146.29879" />
    <path d="M564.78969 182.26781 L561.4563 213.98288" />
    <path d="M561.4563 213.98288 L529.74123 210.64949" />
    <path d="M529.74123 210.64949 L533.07462 178.93442" />
    <path d="M533.07462 178.93442 L564.78969 182.26781" />
    <path d="M565.22043 218.2522 L560.78223 249.83161" />
    <path d="M560.78223 249.83161 L529.20281 245.39341" />
    <path d="M529.20281 245.39341 L533.64101 213.814" />
    <path d="M533.64101 213.814 L565.22043 218.2522" />
    <path d="M565.63166 254.25128 L560.09406 285.65657" />
    <path d="M560.09406 285.65657 L528.68877 280.11897" />
    <path d="M528.68877 280.11897 L534.22637 248.71368" />
    <path d="M534.22637 248.71368 L565.63166 254.25128" />
    <path d="M566.02289 290.26437 L559.39263 321.45727" />
    <path d="M559.39263 321.45727 L528.19974 314.82701" />
    <path d="M528.19974 314.82701 L534.82999 283.63412" />
    <path d="M534.82999 283.63412 L566.02289 290.26437" />
    <path d="M566.39364 326.29076 L558.6788 357.23327" />
    <path d="M558.6788 357.23327 L527.7363 349.51843" />
    <path d="M527.7363 349.51843 L535.45113 318.57593" />
    <path d="M535.45113 318.57593 L566.39364 326.29076" />
    <path d="M566.74345 362.32973 L557.95344 392.98414" />
    <path d="M557.95344 392.98414 L527.29903 384.19413" />
    <path d="M527.29903 384.19413 L536.08904 353.53972" />
    <path d="M536.08904 353.53972 L566.74345 362.32973" />
    <path d="M567.07191 398.38054 L557.21743 428.70951" />
    <path d="M557.21743 428.70951 L526.88846 418.85503" />
    <path d="M526.88846 418.85503 L536.74294 388.52606" />
    <path d="M536.74294 388.52606 L567.07191 398.38054" />
    <path d="M567.37861 434.44244 L556.47166 464.40901" />
    <path d="M556.47166 464.40901 L526.50509 453.50207" />
    <path d="M526.50509 453.50207 L537.41203 423.5355" />
    <path d="M537.41203 423.5355 L567.37861 434.44244" />
    <path d="M567.66317 470.51465 L555.71706 500.08233" />
    <path d="M555.71706 500.08233 L526.14938 488.13621" />
    <path d="M526.14938 488.13621 L538.0955 458.56854" />
    <path d="M538.0955 458.56854 L567.66317 470.51465" />
    <path d="M567.92526 506.59641 L554.95452 535.72916" />
    <path d="M554.95452 535.72916 L525.82177 522.75842" />
    <path d="M525.82177 522.75842 L538.79251 493.62568" />
    <path d="M538.79251 493.62568 L567.92526 506.59641" />
    <path d="M568.16455 542.68692 L554.18499 571.34925" />
    <path d="M554.18499 571.34925 L525.52266 557.3697" />
    <path d="M525.52266 557.3697 L539.50222 528.70737" />
    <path d="M539.50222 528.70737 L568.16455 542.68692" />
    <path d="M568.38074 578.78538 L553.40941 606.94237" />
    <path d="M553.40941 606.94237 L525.25242 591.97103" />
    <path d="M525.25242 591.97103 L540.22375 563.81404" />
    <path d="M540.22375 563.81404 L568.38074 578.78538" />
    <path d="M568.57359 614.89098 L552.62871 642.50832" />
    <path d="M552.62871 642.50832 L525.01136 626.56344" />
    <path d="M525.01136 626.56344 L540.95624 598.9461" />
    <path d="M540.95624 598.9461 L568.57359 614.89098" />
    <path d="M568.74284 651.0029 L551.84384 678.04695" />
    <path d="M551.84384 678.04695 L524.79979 661.14795" />
    <path d="M524.79979 661.14795 L541.69879 634.1039" />
    <path d="M541.69879 634.1039 L568.74284 651.0029" />
    <path d="M568.88831 687.12031 L551.05578 713.55812" />
    <path d="M551.05578 713.55812 L524.61796 695.72559" />
    <path d="M524.61796 695.72559 L542.45049 669.28778" />
    <path d="M542.45049 669.28778 L568.88831 687.12031" />
    <path d="M598.8189 38.97638 L598.8189 70.86614" />
    <path d="M598.8189 70.86614 L566.92913 70.86614" />
    <path d="M566.92913 70.86614 L566.92913 38.97638" />
    <path d="M566.92913 38.97638 L598.8189 38.97638" />
    <path d="M599.3049 74.91272 L598.19197 106.78306" />
    <path d="M598.19197 106.78306 L566.32163 105.67012" />
    <path d="M566.32163 105.67012 L567.43456 73.79978" />
    <path d="M567.43456 73.79978 L599.3049 74.91272" />
    <path d="M599.77305 110.86572 L597.54853 142.6778" />
    <path d="M597.54853 142.6778 L565.73645 140.45328" />
    <path d="M565.73645 140.45328 L567.96096 108.6412" />
    <path d="M567.96096 108.6412 L599.77305 110.86572" />
    <path d="M600.22276 146.83474 L596.88937 178.54981" />
    <path d="M596.88937 178.54981 L565.1743 175.21642" />
    <path d="M565.1743 175.21642 L568.50769 143.50135" />
    <path d="M568.50769 143.50135 L600.22276 146.83474" />
    <path d="M600.6535 182.81913 L596.2153 214.39854" />
    <path d="M596.2153 214.39854 L564.63588 209.96034" />
    <path d="M564.63588 209.96034 L569.07408 178.38093" />
    <path d="M569.07408 178.38093 L600.6535 182.81913" />
    <path d="M601.06473 218.81821 L595.52713 250.2235" />
    <path d="M595.52713 250.2235 L564.12184 244.6859" />
    <path d="M564.12184 244.6859 L569.65944 213.28061" />
    <path d="M569.65944 213.28061 L601.06473 218.81821" />
    <path d="M601.45596 254.8313 L594.8257 286.0242" />
    <path d="M594.8257 286.0242 L563.63281 279.39394" />
    <path d="M563.63281 279.39394 L570.26306 248.20105" />
    <path d="M570.26306 248.20105 L601.45596 254.8313" />
    <path d="M601.82671 290.85769 L594.11187 321.8002" />
    <path d="M594.11187 321.8002 L563.16937 314.08536" />
    <path d="M563.16937 314.08536 L570.8842 283.14286" />
    <path d="M570.8842 283.14286 L601.82671 290.85769" />
    <path d="M602.17652 326.89666 L593.38651 357.55107" />
    <path d="M593.38651 357.55107 L562.7321 348.76106" />
    <path d="M562.7321 348.76106 L571.52211 318.10665" />
    <path d="M571.52211 318.10665 L602.17652 326.89666" />
    <path d="M602.50498 362.94747 L592.6505 393.27644" />
    <path d="M592.6505 393.27644 L562.32153 383.42196" />
    <path d="M562.32153 383.42196 L572.17601 353.09299" />
    <path d="M572.17601 353.09299 L602.50498 362.94747" />
    <path d="M602.81168 399.00937 L591.90474 428.97594" />
    <path d="M591.90474 428.97594 L561.93816 418.069" />
    <path d="M561.93816 418.069 L572.8451 388.10242" />
    <path d="M572.8451 388.10242 L602.81168 399.00937" />
    <path d="M603.09624 435.08158 L591.15013 464.64926" />
    <path d="M591.15013 464.64926 L561.58245 452.70314" />
    <path d="M561.58245 452.70314 L573.52857 423.13547" />
    <path d="M573.52857 423.13547 L603.09624 435.08158" />
    <path d="M603.35833 471.16334 L590.38759 500.29609" />
    <path d="M590.38759 500.29609 L561.25484 487.32535" />
    <path d="M561.25484 487.32535 L574.22558 458.1926" />
    <path d="M574.22558 458.1926 L603.35833 471.16334" />
    <path d="M603.59762 507.25385 L589.61806 535.91618" />
    <path d="M589.61806 535.91618 L560.95573 521.93663" />
    <path d="M560.95573 521.93663 L574.93529 493.2743" />
    <path d="M574.93529 493.2743 L603.59762 507.25385" />
    <path d="M603.81381 543.35231 L588.84248 571.5093" />
    <path d="M588.84248 571.5093 L560.68549 556.53796" />
    <path d="M560.68549 556.53796 L575.65682 528.38097" />
    <path d="M575.65682 528.38097 L603.81381 543.35231" />
    <path d="M604.00666 579.45791 L588.06178 607.07525" />
    <path d="M588.06178 607.07525 L560.44443 591.13037" />
    <path d="M560.44443 591.13037 L576.38931 563.51303" />
    <path d="M576.38931 563.51303 L604.00666 579.45791" />
    <path d="M604.17592 615.56983 L587.27692 642.61388" />
    <path d="M587.27692 642.61388 L560.23286 625.71488" />
    <path d="M560.23286 625.71488 L577.13186 598.67083" />
    <path d="M577.13186 598.67083 L604.17592 615.56983" />
    <path d="M604.32138 651.68724 L586.48885 678.12505" />
    <path d="M586.48885 678.12505 L560.05103 660.29252" />
    <path d="M560.05103 660.29252 L577.88356 633.85471" />
    <path d="M577.88356 633.85471 L604.32138 651.68724" />
    <path d="M604.44287 687.80931 L585.69853 713.60867" />
    <path d="M585.69853 713.60867 L559.89917 694.86434" />
    <path d="M559.89917 694.86434 L578.64351 669.06498" />
    <path d="M578.64351 669.06498 L604.44287 687.80931" />
    <path d="M634.73797 39.47965 L633.62504 71.34999" />
    <path d="M633.62504 71.34999 L601.7547 70.23705" />
    <path d="M601.7547 70.23705 L602.86764 38.36671" />
    <path d="M602.86764 38.36671 L634.73797 39.47965" />
    <path d="M635.20612 75.43265 L632.9816 107.24473" />
    <path d="M632.9816 107.24473 L601.16952 105.02021" />
    <path d="M601.16952 105.02021 L603.39404 73.20813" />
    <path d="M603.39404 73.20813 L635.20612 75.43265" />
    <path d="M635.65583 111.40167 L632.32244 143.11674" />
    <path d="M632.32244 143.11674 L600.60738 139.78335" />
    <path d="M600.60738 139.78335 L603.94076 108.06828" />
    <path d="M603.94076 108.06828 L635.65583 111.40167" />
    <path d="M636.08657 147.38606 L631.64837 178.96547" />
    <path d="M631.64837 178.96547 L600.06896 174.52727" />
    <path d="M600.06896 174.52727 L604.50715 142.94786" />
    <path d="M604.50715 142.94786 L636.08657 147.38606" />
    <path d="M636.4978 183.38514 L630.9602 214.79043" />
    <path d="M630.9602 214.79043 L599.55491 209.25283" />
    <path d="M599.55491 209.25283 L605.09251 177.84754" />
    <path d="M605.09251 177.84754 L636.4978 183.38514" />
    <path d="M636.88903 219.39823 L630.25877 250.59113" />
    <path d="M630.25877 250.59113 L599.06588 243.96087" />
    <path d="M599.06588 243.96087 L605.69613 212.76798" />
    <path d="M605.69613 212.76798 L636.88903 219.39823" />
    <path d="M637.25978 255.42462 L629.54495 286.36712" />
    <path d="M629.54495 286.36712 L598.60244 278.65229" />
    <path d="M598.60244 278.65229 L606.31728 247.70979" />
    <path d="M606.31728 247.70979 L637.25978 255.42462" />
    <path d="M637.60959 291.46359 L628.81958 322.118" />
    <path d="M628.81958 322.118 L598.16517 313.32799" />
    <path d="M598.16517 313.32799 L606.95518 282.67358" />
    <path d="M606.95518 282.67358 L637.60959 291.46359" />
    <path d="M637.93805 327.5144 L628.08357 357.84337" />
    <path d="M628.08357 357.84337 L597.7546 347.98889" />
    <path d="M597.7546 347.98889 L607.60908 317.65992" />
    <path d="M607.60908 317.65992 L637.93805 327.5144" />
    <path d="M638.24475 363.5763 L627.33781 393.54287" />
    <path d="M627.33781 393.54287 L597.37123 382.63593" />
    <path d="M597.37123 382.63593 L608.27817 352.66935" />
    <path d="M608.27817 352.66935 L638.24475 363.5763" />
    <path d="M638.52931 399.64851 L626.5832 429.21619" />
    <path d="M626.5832 429.21619 L597.01552 417.27007" />
    <path d="M597.01552 417.27007 L608.96164 387.7024" />
    <path d="M608.96164 387.7024 L638.52931 399.64851" />
    <path d="M638.7914 435.73027 L625.82066 464.86302" />
    <path d="M625.82066 464.86302 L596.68792 451.89228" />
    <path d="M596.68792 451.89228 L609.65865 422.75953" />
    <path d="M609.65865 422.75953 L638.7914 435.73027" />
    <path d="M639.03069 471.82078 L625.05114 500.48311" />
    <path d="M625.05114 500.48311 L596.38881 486.50356" />
    <path d="M596.38881 486.50356 L610.36836 457.84123" />
    <path d="M610.36836 457.84123 L639.03069 471.82078" />
    <path d="M639.24689 507.91924 L624.27555 536.07623" />
    <path d="M624.27555 536.07623 L596.11856 521.10489" />
    <path d="M596.11856 521.10489 L611.0899 492.9479" />
    <path d="M611.0899 492.9479 L639.24689 507.91924" />
    <path d="M639.43973 544.02484 L623.49485 571.64218" />
    <path d="M623.49485 571.64218 L595.8775 555.6973" />
    <path d="M595.8775 555.6973 L611.82238 528.07995" />
    <path d="M611.82238 528.07995 L639.43973 544.02484" />
    <path d="M639.60899 580.13676 L622.70999 607.18081" />
    <path d="M622.70999 607.18081 L595.66593 590.28181" />
    <path d="M595.66593 590.28181 L612.56493 563.23776" />
    <path d="M612.56493 563.23776 L639.60899 580.13676" />
    <path d="M639.75445 616.25417 L621.92192 642.69198" />
    <path d="M621.92192 642.69198 L595.48411 624.85945" />
    <path d="M595.48411 624.85945 L613.31664 598.42164" />
    <path d="M613.31664 598.42164 L639.75445 616.25417" />
    <path d="M639.87594 652.37624 L621.1316 678.1756" />
    <path d="M621.1316 678.1756 L595.33224 659.43127" />
    <path d="M595.33224 659.43127 L614.07658 633.63191" />
    <path d="M614.07658 633.63191 L639.87594 652.37624" />
    <path d="M639.97331 688.50214 L620.34001 713.63161" />
    <path d="M620.34001 713.63161 L595.21053 693.99831" />
    <path d="M595.21053 693.99831 L614.84383 668.86884" />
    <path d="M614.84383 668.86884 L639.97331 688.50214" />
    <path d="M670.63919 39.99958 L668.41467 71.81166" />
    <path d="M668.41467 71.81166 L636.60259 69.58714" />
    <path d="M636.60259 69.58714 L638.82711 37.77506" />
    <path d="M638.82711 37.77506 L670.63919 39.99958" />
    <path d="M671.0889 75.9686 L667.75551 107.68367" />
    <path d="M667.75551 107.68367 L636.04045 104.35028" />
    <path d="M636.04045 104.35028 L639.37383 72.63521" />
    <path d="M639.37383 72.63521 L671.0889 75.9686" />
    <path d="M671.51964 111.95298 L667.08144 143.5324" />
    <path d="M667.08144 143.5324 L635.50203 139.0942" />
    <path d="M635.50203 139.0942 L639.94022 107.51479" />
    <path d="M639.94022 107.51479 L671.51964 111.95298" />
    <path d="M671.93087 147.95207 L666.39327 179.35736" />
    <path d="M666.39327 179.35736 L634.98799 173.81976" />
    <path d="M634.98799 173.81976 L640.52558 142.41447" />
    <path d="M640.52558 142.41447 L671.93087 147.95207" />
    <path d="M672.3221 183.96516 L665.69185 215.15806" />
    <path d="M665.69185 215.15806 L634.49895 208.5278" />
    <path d="M634.49895 208.5278 L641.1292 177.33491" />
    <path d="M641.1292 177.33491 L672.3221 183.96516" />
    <path d="M672.69285 219.99155 L664.97802 250.93405" />
    <path d="M664.97802 250.93405 L634.03551 243.21922" />
    <path d="M634.03551 243.21922 L641.75035 212.27672" />
    <path d="M641.75035 212.27672 L672.69285 219.99155" />
    <path d="M673.04266 256.03052 L664.25265 286.68493" />
    <path d="M664.25265 286.68493 L633.59825 277.89492" />
    <path d="M633.59825 277.89492 L642.38826 247.24051" />
    <path d="M642.38826 247.24051 L673.04266 256.03052" />
    <path d="M673.37112 292.08133 L663.51664 322.4103" />
    <path d="M663.51664 322.4103 L633.18767 312.55582" />
    <path d="M633.18767 312.55582 L643.04215 282.22685" />
    <path d="M643.04215 282.22685 L673.37112 292.08133" />
    <path d="M673.67782 328.14322 L662.77088 358.1098" />
    <path d="M662.77088 358.1098 L632.8043 347.20286" />
    <path d="M632.8043 347.20286 L643.71124 317.23628" />
    <path d="M643.71124 317.23628 L673.67782 328.14322" />
    <path d="M673.96238 364.21544 L662.01627 393.78311" />
    <path d="M662.01627 393.78311 L632.44859 381.837" />
    <path d="M632.44859 381.837 L644.39471 352.26932" />
    <path d="M644.39471 352.26932 L673.96238 364.21544" />
    <path d="M674.22447 400.2972 L661.25374 429.42995" />
    <path d="M661.25374 429.42995 L632.12099 416.45921" />
    <path d="M632.12099 416.45921 L645.09172 387.32646" />
    <path d="M645.09172 387.32646 L674.22447 400.2972" />
    <path d="M674.46376 436.38771 L660.48421 465.05004" />
    <path d="M660.48421 465.05004 L631.82188 451.07048" />
    <path d="M631.82188 451.07048 L645.80143 422.40815" />
    <path d="M645.80143 422.40815 L674.46376 436.38771" />
    <path d="M674.67996 472.48617 L659.70862 500.64316" />
    <path d="M659.70862 500.64316 L631.55163 485.67182" />
    <path d="M631.55163 485.67182 L646.52297 457.51483" />
    <path d="M646.52297 457.51483 L674.67996 472.48617" />
    <path d="M674.8728 508.59177 L658.92792 536.20911" />
    <path d="M658.92792 536.20911 L631.31057 520.26423" />
    <path d="M631.31057 520.26423 L647.25546 492.64688" />
    <path d="M647.25546 492.64688 L674.8728 508.59177" />
    <path d="M675.04206 544.70369 L658.14306 571.74774" />
    <path d="M658.14306 571.74774 L631.099 554.84874" />
    <path d="M631.099 554.84874 L647.998 527.80469" />
    <path d="M647.998 527.80469 L675.04206 544.70369" />
    <path d="M675.18752 580.8211 L657.35499 607.25891" />
    <path d="M657.35499 607.25891 L630.91718 589.42638" />
    <path d="M630.91718 589.42638 L648.74971 562.98857" />
    <path d="M648.74971 562.98857 L675.18752 580.8211" />
    <path d="M675.30901 616.94317 L656.56468 642.74253" />
    <path d="M656.56468 642.74253 L630.76531 623.9982" />
    <path d="M630.76531 623.9982 L649.50965 598.19884" />
    <path d="M649.50965 598.19884 L675.30901 616.94317" />
    <path d="M675.40638 653.06907 L655.77308 678.19854" />
    <path d="M655.77308 678.19854 L630.6436 658.56524" />
    <path d="M630.6436 658.56524 L650.2769 633.43577" />
    <path d="M650.2769 633.43577 L675.40638 653.06907" />
    <path d="M675.47951 689.19793 L654.98116 713.62691" />
    <path d="M654.98116 713.62691 L630.55219 693.12857" />
    <path d="M630.55219 693.12857 L651.05053 668.69959" />
    <path d="M651.05053 668.69959 L675.47951 689.19793" />
    <path d="M706.52197 40.53553 L703.18859 72.25059" />
    <path d="M703.18859 72.25059 L671.47352 68.91721" />
    <path d="M671.47352 68.91721 L674.80691 37.20214" />
    <path d="M674.80691 37.20214 L706.52197 40.53553" />
    <path d="M706.95271 76.51991 L702.51451 108.09933" />
    <path d="M702.51451 108.09933 L670.9351 103.66113" />
    <path d="M670.9351 103.66113 L675.37329 72.08172" />
    <path d="M675.37329 72.08172 L706.95271 76.51991" />
    <path d="M707.36394 112.519 L701.82634 143.92428" />
    <path d="M701.82634 143.92428 L670.42106 138.38669" />
    <path d="M670.42106 138.38669 L675.95866 106.9814" />
    <path d="M675.95866 106.9814 L707.36394 112.519" />
    <path d="M707.75517 148.53209 L701.12492 179.72499" />
    <path d="M701.12492 179.72499 L669.93202 173.09473" />
    <path d="M669.93202 173.09473 L676.56228 141.90183" />
    <path d="M676.56228 141.90183 L707.75517 148.53209" />
    <path d="M708.12592 184.55848 L700.41109 215.50098" />
    <path d="M700.41109 215.50098 L669.46859 207.78615" />
    <path d="M669.46859 207.78615 L677.18342 176.84365" />
    <path d="M677.18342 176.84365 L708.12592 184.55848" />
    <path d="M708.47573 220.59745 L699.68572 251.25186" />
    <path d="M699.68572 251.25186 L669.03132 242.46185" />
    <path d="M669.03132 242.46185 L677.82133 211.80744" />
    <path d="M677.82133 211.80744 L708.47573 220.59745" />
    <path d="M708.80419 256.64826 L698.94971 286.97723" />
    <path d="M698.94971 286.97723 L668.62074 277.12275" />
    <path d="M668.62074 277.12275 L678.47522 246.79378" />
    <path d="M678.47522 246.79378 L708.80419 256.64826" />
    <path d="M709.11089 292.71015 L698.20395 322.67673" />
    <path d="M698.20395 322.67673 L668.23737 311.76979" />
    <path d="M668.23737 311.76979 L679.14431 281.80321" />
    <path d="M679.14431 281.80321 L709.11089 292.71015" />
    <path d="M709.39546 328.78237 L697.44934 358.35004" />
    <path d="M697.44934 358.35004 L667.88167 346.40393" />
    <path d="M667.88167 346.40393 L679.82778 316.83625" />
    <path d="M679.82778 316.83625 L709.39546 328.78237" />
    <path d="M709.65754 364.86413 L696.68681 393.99688" />
    <path d="M696.68681 393.99688 L667.55406 381.02614" />
    <path d="M667.55406 381.02614 L680.52479 351.89339" />
    <path d="M680.52479 351.89339 L709.65754 364.86413" />
    <path d="M709.89683 400.95464 L695.91728 429.61697" />
    <path d="M695.91728 429.61697 L667.25495 415.63741" />
    <path d="M667.25495 415.63741 L681.2345 386.97508" />
    <path d="M681.2345 386.97508 L709.89683 400.95464" />
    <path d="M710.11303 437.0531 L695.14169 465.21009" />
    <path d="M695.14169 465.21009 L666.9847 450.23875" />
    <path d="M666.9847 450.23875 L681.95604 422.08176" />
    <path d="M681.95604 422.08176 L710.11303 437.0531" />
    <path d="M710.30587 473.1587 L694.36099 500.77604" />
    <path d="M694.36099 500.77604 L666.74364 484.83116" />
    <path d="M666.74364 484.83116 L682.68853 457.21381" />
    <path d="M682.68853 457.21381 L710.30587 473.1587" />
    <path d="M710.47513 509.27061 L693.57613 536.31467" />
    <path d="M693.57613 536.31467 L666.53207 519.41567" />
    <path d="M666.53207 519.41567 L683.43107 492.37161" />
    <path d="M683.43107 492.37161 L710.47513 509.27061" />
    <path d="M710.62059 545.38803 L692.78806 571.82584" />
    <path d="M692.78806 571.82584 L666.35025 553.99331" />
    <path d="M666.35025 553.99331 L684.18278 527.5555" />
    <path d="M684.18278 527.5555 L710.62059 545.38803" />
    <path d="M710.74208 581.5101 L691.99775 607.30946" />
    <path d="M691.99775 607.30946 L666.19839 588.56513" />
    <path d="M666.19839 588.56513 L684.94272 562.76577" />
    <path d="M684.94272 562.76577 L710.74208 581.5101" />
    <path d="M710.83945 617.63599 L691.20615 642.76547" />
    <path d="M691.20615 642.76547 L666.07667 623.13217" />
    <path d="M666.07667 623.13217 L685.70997 598.0027" />
    <path d="M685.70997 598.0027 L710.83945 617.63599" />
    <path d="M710.91258 653.76486 L690.41424 678.19384" />
    <path d="M690.41424 678.19384 L665.98526 657.6955" />
    <path d="M665.98526 657.6955 L686.4836 633.26652" />
    <path d="M686.4836 633.26652 L710.91258 653.76486" />
    <path d="M710.96138 689.89586 L689.62297 713.59457" />
    <path d="M689.62297 713.59457 L665.92425 692.25616" />
    <path d="M665.92425 692.25616 L687.26267 668.55744" />
    <path d="M687.26267 668.55744 L710.96138 689.89586" />
  </g>
</svg>