<?xml version="1.0" standalone="no"?>
<!DOCTYPE svg PUBLIC "-//W3C//DTD SVG 1.1//EN" 
    "http://www.w3.org/Graphics/SVG/1.1/DTD/svg11.dtd">
<svg width="2480px" height="3508px"
    xmlns="http://www.w3.org/2000/svg" version="1.1" viewBox="0 0 2480 3508">
  <g fill="none" stroke="black" stroke-width="1.06299px">
    <path d="M620 1134 L1860 1134" />
    <path d="M1860 1134 L1860 2374" />
    <path d="M1860 2374 L620 1134" />
    <path d="M620 1134 L620 1134" />
    <path d="M653.2979813227894 1102.401395581539 L1891.598604418461 1167.2979813227894" />
    <path d="M1891.598604418461 1167.2979813227894 L1826.7020186772106 2405.598604418461" />
    <path d="M1826.7020186772106 2405.598604418461 L653.2979813227894 1102.401395581539" />
    <path d="M653.2979813227894 1102.401395581539 L653.2979813227894 1102.401395581539" />
    <path d="M688.2040720976157 1072.5887776457253 L1921.4112223542747 1202.2040720976156" />
    <path d="M1921.4112223542747 1202.2040720976156 L1791.7959279023844 2435.4112223542747" />
    <path d="M1791.7959279023844 2435.4112223542747 L688.2040720976157 1072.5887776457253" />
    <path d="M688.2040720976157 1072.5887776457253 L688.2040720976157 1072.5887776457253" />
    <path d="M724.6225971559577 1044.6438605060714 L1949.3561394939286 1238.6225971559577" />
    <path d="M1949.3561394939286 1238.6225971559577 L1755.3774028440423 2463.356139493929" />
    <path d="M1755.3774028440423 2463.356139493929 L724.6225971559577 1044.6438605060714" />
    <path d="M724.6225971559577 1044.6438605060714 L724.6225971559577 1044.6438605060714" />
    <path d="M762.4537358520512 1018.6432392380297 L1975.3567607619702 1276.453735852051" />
    <path d="M1975.3567607619702 1276.453735852051 L1717.546264147949 2489.3567607619702" />
    <path d="M1717.546264147949 2489.3567607619702 L762.4537358520512 1018.6432392380297" />
    <path d="M762.4537358520512 1018.6432392380297 L762.4537358520512 1018.6432392380297" />
    <path d="M801.5937956643404 994.6581797372148 L1999.3418202627852 1315.5937956643404" />
    <path d="M1999.3418202627852 1315.5937956643404 L1678.4062043356596 2513.3418202627854" />
    <path d="M1678.4062043356596 2513.3418202627854 L801.5937956643404 994.6581797372148" />
    <path d="M801.5937956643404 994.6581797372148 L801.5937956643404 994.6581797372148" />
    <path d="M841.9354964094723 972.7544233845374 L2021.2455766154626 1355.9354964094723" />
    <path d="M2021.2455766154626 1355.9354964094723 L1638.0645035905277 2535.2455766154626" />
    <path d="M1638.0645035905277 2535.2455766154626 L841.9354964094723 972.7544233845374" />
    <path d="M841.9354964094723 972.7544233845374 L841.9354964094723 972.7544233845374" />
    <path d="M883.3682642898211 952.9920068536487 L2041.0079931463513 1397.3682642898211" />
    <path d="M2041.0079931463513 1397.3682642898211 L1596.6317357101789 2555.0079931463515" />
    <path d="M1596.6317357101789 2555.0079931463515 L883.3682642898211 952.9920068536487" />
    <path d="M883.3682642898211 952.9920068536487 L883.3682642898211 952.9920068536487" />
    <path d="M925.7785349685836 935.4250975545914 L2058.5749024454085 1439.7785349685837" />
    <path d="M2058.5749024454085 1439.7785349685837 L1554.2214650314163 2572.5749024454085" />
    <path d="M1554.2214650314163 2572.5749024454085 L925.7785349685836 935.4250975545914" />
    <path d="M925.7785349685836 935.4250975545914 L925.7785349685836 935.4250975545914" />
    <path d="M969.0500648417309 920.1018451646929 L2073.898154835307 1483.050064841731" />
    <path d="M2073.898154835307 1483.050064841731 L1510.949935158269 2587.898154835307" />
    <path d="M1510.949935158269 2587.898154835307 L969.0500648417309 920.1018451646929" />
    <path d="M969.0500648417309 920.1018451646929 L969.0500648417309 920.1018451646929" />
    <path d="M1013.064249653648 907.064249653648 L2086.935750346352 1527.064249653648" />
    <path d="M2086.935750346352 1527.064249653648 L1466.935750346352 2600.935750346352" />
    <path d="M1466.935750346352 2600.935750346352 L1013.064249653648 907.064249653648" />
    <path d="M1013.064249653648 907.064249653648 L1013.064249653648 907.064249653648" />
    <path d="M1057.7004495831538 896.3480461645204 L2097.6519538354796 1571.7004495831538" />
    <path d="M2097.6519538354796 1571.7004495831538 L1422.2995504168462 2611.6519538354796" />
    <path d="M1422.2995504168462 2611.6519538354796 L1057.7004495831538 896.3480461645204" />
    <path d="M1057.7004495831538 896.3480461645204 L1057.7004495831538 896.3480461645204" />
    <path d="M1102.836319908866 887.9826070661993 L2106.0173929338007 1616.836319908866" />
    <path d="M2106.0173929338007 1616.836319908866 L1377.163680091134 2620.0173929338007" />
    <path d="M1377.163680091134 2620.0173929338007 L1102.836319908866 887.9826070661993" />
    <path d="M1102.836319908866 887.9826070661993 L1102.836319908866 887.9826070661993" />
    <path d="M1148.3481463475773 881.9908614457788 L2112.009138554221 1662.3481463475773" />
    <path d="M2112.009138554221 1662.3481463475773 L1331.6518536524227 2626.009138554221" />
    <path d="M1331.6518536524227 2626.009138554221 L1148.3481463475773 881.9908614457788" />
    <path d="M1148.3481463475773 881.9908614457788 L1148.3481463475773 881.9908614457788" />
    <path d="M1194.1111841465076 878.3892322615234 L2115.6107677384766 1708.1111841465076" />
    <path d="M2115.6107677384766 1708.1111841465076 L1285.8888158534924 2629.6107677384766" />
    <path d="M1285.8888158534924 2629.6107677384766 L1194.1111841465076 878.3892322615234" />
    <path d="M1194.1111841465076 878.3892322615234 L1194.1111841465076 878.3892322615234" />
    <path d="M1240 877.187591328681 L2116.8124086713187 1754" />
    <path d="M2116.8124086713187 1754 L1240 2630.8124086713187" />
    <path d="M1240 2630.8124086713187 L1240 877.187591328681" />
    <path d="M1240 877.187591328681 L1240 877.187591328681" />
    <path d="M1285.8888158534924 878.3892322615234 L2115.6107677384766 1799.8888158534924" />
    <path d="M2115.6107677384766 1799.8888158534924 L1194.1111841465076 2629.6107677384766" />
    <path d="M1194.1111841465076 2629.6107677384766 L1285.8888158534924 878.3892322615234" />
    <path d="M1285.8888158534924 878.3892322615234 L1285.8888158534924 878.3892322615234" />
    <path d="M1331.6518536524227 881.9908614457788 L2112.009138554221 1845.6518536524227" />
    <path d="M2112.009138554221 1845.6518536524227 L1148.3481463475773 2626.009138554221" />
    <path d="M1148.3481463475773 2626.009138554221 L1331.6518536524227 881.9908614457788" />
    <path d="M1331.6518536524227 881.9908614457788 L1331.6518536524227 881.9908614457788" />
    <path d="M1377.163680091134 887.9826070661993 L2106.0173929338007 1891.163680091134" />
    <path d="M2106.0173929338007 1891.163680091134 L1102.836319908866 2620.0173929338007" />
    <path d="M1102.836319908866 2620.0173929338007 L1377.163680091134 887.9826070661993" />
    <path d="M1377.163680091134 887.9826070661993 L1377.163680091134 887.9826070661993" />
    <path d="M1422.2995504168462 896.3480461645204 L2097.6519538354796 1936.2995504168462" />
    <path d="M2097.6519538354796 1936.2995504168462 L1057.7004495831538 2611.6519538354796" />
    <path d="M1057.7004495831538 2611.6519538354796 L1422.2995504168462 896.3480461645204" />
    <path d="M1422.2995504168462 896.3480461645204 L1422.2995504168462 896.3480461645204" />
    <path d="M1466.9357503463518 907.064249653648 L2086.935750346352 1980.9357503463518" />
    <path d="M2086.935750346352 1980.9357503463518 L1013.0642496536482 2600.935750346352" />
    <path d="M1013.0642496536482 2600.935750346352 L1466.9357503463518 907.064249653648" />
    <path d="M1466.9357503463518 907.064249653648 L1466.9357503463518 907.064249653648" />
    <path d="M1510.949935158269 920.101845164693 L2073.8981548353067 2024.949935158269" />
    <path d="M2073.8981548353067 2024.949935158269 L969.050064841731 2587.8981548353067" />
    <path d="M969.050064841731 2587.8981548353067 L1510.949935158269 920.101845164693" />
    <path d="M1510.949935158269 920.101845164693 L1510.949935158269 920.101845164693" />
    <path d="M1554.2214650314163 935.4250975545914 L2058.5749024454085 2068.2214650314163" />
    <path d="M2058.5749024454085 2068.2214650314163 L925.7785349685836 2572.5749024454085" />
    <path d="M925.7785349685836 2572.5749024454085 L1554.2214650314163 935.4250975545914" />
    <path d="M1554.2214650314163 935.4250975545914 L1554.2214650314163 935.4250975545914" />
    <path d="M1596.6317357101789 952.9920068536487 L2041.0079931463513 2110.631735710179" />
    <path d="M2041.0079931463513 2110.631735710179 L883.3682642898211 2555.0079931463515" />
    <path d="M883.3682642898211 2555.0079931463515 L1596.6317357101789 952.9920068536487" />
    <path d="M1596.6317357101789 952.9920068536487 L1596.6317357101789 952.9920068536487" />
    <path d="M1638.0645035905277 972.7544233845374 L2021.2455766154626 2152.0645035905277" />
    <path d="M2021.2455766154626 2152.0645035905277 L841.9354964094723 2535.2455766154626" />
    <path d="M841.9354964094723 2535.2455766154626 L1638.0645035905277 972.7544233845374" />
    <path d="M1638.0645035905277 972.7544233845374 L1638.0645035905277 972.7544233845374" />
    <path d="M1678.4062043356596 994.6581797372148 L1999.3418202627852 2192.4062043356594" />
    <path d="M1999.3418202627852 2192.4062043356594 L801.5937956643404 2513.3418202627854" />
    <path d="M801.5937956643404 2513.3418202627854 L1678.4062043356596 994.6581797372148" />
    <path d="M1678.4062043356596 994.6581797372148 L1678.4062043356596 994.6581797372148" />
    <path d="M1717.5462641479485 1018.6432392380297 L1975.3567607619702 2231.5462641479485" />
    <path d="M1975.3567607619702 2231.5462641479485 L762.4537358520514 2489.3567607619702" />
    <path d="M762.4537358520514 2489.3567607619702 L1717.5462641479485 1018.6432392380297" />
    <path d="M1717.5462641479485 1018.6432392380297 L1717.5462641479485 1018.6432392380297" />
    <path d="M1755.3774028440423 1044.6438605060714 L1949.3561394939286 2269.377402844042" />
    <path d="M1949.3561394939286 2269.377402844042 L724.6225971559577 2463.356139493929" />
    <path d="M724.6225971559577 2463.356139493929 L1755.3774028440423 1044.6438605060714" />
    <path d="M1755.3774028440423 1044.6438605060714 L1755.3774028440423 1044.6438605060714" />
    <path d="M1791.7959279023844 1072.5887776457253 L1921.4112223542747 2305.7959279023844" />
    <path d="M1921.4112223542747 2305.7959279023844 L688.2040720976157 2435.4112223542747" />
    <path d="M688.2040720976157 2435.4112223542747 L1791.7959279023844 1072.5887776457253" />
    <path d="M1791.7959279023844 1072.5887776457253 L1791.7959279023844 1072.5887776457253" />
    <path d="M1826.7020186772106 1102.401395581539 L1891.598604418461 2340.7020186772106" />
    <path d="M1891.598604418461 2340.7020186772106 L653.2979813227894 2405.598604418461" />
    <path d="M653.2979813227894 2405.598604418461 L1826.7020186772106 1102.401395581539" />
    <path d="M1826.7020186772106 1102.401395581539 L1826.7020186772106 1102.401395581539" />
  </g>
</svg>