<?xml version="1.0" standalone="no"?>
<!DOCTYPE svg PUBLIC "-//W3C//DTD SVG 1.1//EN" 
    "http://www.w3.org/Graphics/SVG/1.1/DTD/svg11.dtd">
<svg width="21cm" height="29.7cm"
    xmlns="http://www.w3.org/2000/svg" version="1.1" viewBox="0 0 744.09449 1052.3622">
  <g fill="none" stroke="black" stroke-width="0.03cm">
    <path d="M358.75538 515.85642 L359.52363 514.93353 L361.18834 513.3045 L363.00051 511.96122 L364.93191 510.89983 L366.95437 510.11642 L369.03966 509.60713 L371.15959 509.36807 L373.28596 509.39536 L375.39056 509.68511 L377.4452 510.23344 L379.42166 511.03647 L381.29175 512.09031 L383.02727 513.39109 L384.6 514.93492 L385.98176 516.71791 L387.14433 518.73619 L387.63461 519.83235 L387.63461 519.83235 L387.98708 520.77513 L388.51389 522.67382 L388.81053 524.577 L388.88579 526.469 L388.74845 528.3342 L388.40732 530.15693 L387.87117 531.92156 L387.1488 533.61244 L386.24901 535.21392 L385.18057 536.71036 L383.95229 538.08611 L382.57295 539.32553 L381.05134 540.41296 L379.39625 541.33277 L377.61648 542.06931 L375.72082 542.60693 L374.73227 542.79626" />
    <path d="M350.9916 512.25187 L352.03559 510.78407 L354.34002 508.15805 L356.89751 505.94266 L359.66544 504.13529 L362.60119 502.73334 L365.66213 501.73422 L368.80564 501.13534 L371.9891 500.93409 L375.16989 501.12787 L378.30537 501.7141 L381.35293 502.69017 L384.26994 504.05349 L387.01379 505.80147 L389.54183 507.93149 L391.81146 510.44097 L393.78005 513.32732 L394.63814 514.911 L394.63814 514.911 L395.38729 516.54902 L396.50927 519.85772 L397.14912 523.18027 L397.33038 526.48105 L397.07663 529.72446 L396.41142 532.87487 L395.35831 535.89667 L393.94087 538.75426 L392.18266 541.412 L390.10722 543.8343 L387.73814 545.98553 L385.09896 547.83008 L382.21326 549.33233 L379.10458 550.45667 L375.79649 551.16748 L372.31255 551.42916 L370.51199 551.38044" />
    <path d="M349.38677 501.28946 L351.21631 499.73366 L355.0539 497.09301 L359.0843 495.0659 L363.25325 493.63503 L367.50653 492.78309 L371.78987 492.4928 L376.04904 492.74685 L380.22979 493.52795 L384.27786 494.81879 L388.13903 496.60209 L391.75904 498.86054 L395.08364 501.57684 L398.0586 504.73371 L400.62966 508.31383 L402.74257 512.29991 L404.34311 516.67466 L404.93428 519.00237 L404.93428 519.00237 L405.36687 521.36471 L405.73494 526.00848 L405.47527 530.51246 L404.62997 534.83832 L403.24113 538.94773 L401.35086 542.80236 L399.00126 546.36389 L396.23443 549.59397 L393.09249 552.45429 L389.61753 554.9065 L385.85165 556.9123 L381.83696 558.43334 L377.61556 559.43129 L373.22955 559.86784 L368.72104 559.70463 L364.13214 558.90336 L361.82069 558.25147" />
    <path d="M387.3525 565.37554 L385.93728 565.90078 L383.10399 566.79108 L380.27269 567.47246 L377.45031 567.95046 L374.6438 568.23066 L371.86011 568.3186 L369.10619 568.21985 L366.38898 567.93996 L362.3972 567.19265 L357.26814 565.61416 L352.41096 563.41117 L347.88121 560.62817 L343.73448 557.30962 L340.02632 553.5 L336.8123 549.24377 L334.148 544.5854 L332.54395 540.85447 L331.67531 538.26468 L330.97536 535.59936 L330.45103 532.86409 L330.10928 530.06441 L329.95706 527.20589 L330.0013 524.29409 L330.24896 521.33455 L330.45124 519.83862 L330.45124 519.83862 L330.88356 517.45412 L332.12122 512.86642 L333.82742 508.53811 L335.96759 504.49043 L338.50715 500.74458 L341.41152 497.32179 L344.64612 494.24327 L348.17638 491.53023 L351.96771 489.2039 L355.98554 487.28549 L360.19529 485.79622 L364.56239 484.7573 L369.05225 484.18995 L373.63029 484.11539 L378.26195 484.55484 L382.91264 485.5295 L385.23431 486.22418" />
    <path d="M393.05122 480.26501 L394.49218 480.95082 L397.27294 482.43359 L399.91757 484.05825 L402.42453 485.81726 L404.79225 487.70306 L407.01921 489.70811 L410.09233 492.92276 L413.68272 497.55586 L416.68224 502.53006 L419.07854 507.78496 L420.85925 513.26018 L422.01202 518.89531 L422.52451 524.62997 L422.38435 530.40376 L421.57919 536.15628 L420.09667 541.82714 L418.53284 545.99036 L417.27218 548.70887 L415.83523 551.373 L414.22044 553.97519 L412.42628 556.50789 L410.4512 558.96356 L409.39533 560.16015" />
    <path d="M402.36916 576.68529 L400.64383 577.68199 L397.12054 579.48694 L393.51107 581.0405 L389.82826 582.34251 L386.08495 583.39285 L382.29396 584.19137 L378.46812 584.73794 L374.62028 585.0324 L370.76326 585.07463 L366.90989 584.86447 L363.073 584.4018 L359.26544 583.68647 L355.50003 582.71833 L351.7896 581.49725 L348.14698 580.0231 L344.58502 578.29571 L342.83829 577.33702" />
    <path d="M320.8979 569.95448 L319.42141 568.16811 L316.67449 564.47411 L314.20445 560.63111 L312.01389 556.65432 L310.10542 552.55895 L308.48161 548.3602 L307.14508 544.07328 L306.09842 539.7134 L305.34422 535.29576 L304.88508 530.83558 L304.72359 526.34805 L304.86236 521.84839 L305.30398 517.35179 L306.05104 512.87348 L307.10614 508.42866 L308.47188 504.03252 L309.27205 501.85747" />
    <path d="M297.00607 515.92951 L297.41932 513.24394 L298.5002 508.00857 L299.90793 502.95928 L301.62766 498.10211 L303.64458 493.44312 L305.94387 488.98837 L308.51069 484.74391 L311.33023 480.7158 L314.38766 476.9101 L317.66815 473.33285 L321.15689 469.99013 L324.83904 466.88797 L328.69979 464.03245 L332.7243 461.42961 L336.89776 459.0855 L341.20535 457.0062 L345.63222 455.19775 L350.16358 453.66621 L354.78458 452.41763 L359.4804 451.45807 L364.23622 450.79358 L369.03722 450.43023 L373.86857 450.37407 L378.71545 450.63115 L383.56303 451.20753 L388.39649 452.10927 L393.201 453.34242 L397.96175 454.91303 L402.6639 456.82717 L407.29263 459.09089 L411.83312 461.71024 L416.27055 464.69129 L418.44598 466.31934 L418.44598 466.31934 L420.56512 468.02 L424.55863 471.57376 L428.22759 475.31753 L431.57416 479.23545 L434.6005 483.31165 L437.30878 487.53026 L439.70118 491.87543 L441.77986 496.33127 L443.54698 500.88194 L445.00472 505.51155 L446.15524 510.20425 L447.0007 514.94416 L447.54329 519.71543 L447.78516 524.50218 L447.72848 529.28856 L447.37542 534.05869 L446.72814 538.7967 L445.78882 543.48674 L444.55962 548.11293 L443.04271 552.65941 L441.24026 557.11032 L439.15443 561.44978 L436.7874 565.66194 L434.14132 569.73091 L431.21837 573.64085 L428.02071 577.37588 L424.55052 580.92014 L420.80995 584.25776 L416.80118 587.37287 L412.52638 590.24961 L407.98771 592.87211 L403.18734 595.22451 L400.68969 596.29447" />
    <path d="M420.49641 594.98878 L417.99884 596.68496 L412.92164 599.7676 L407.74847 602.44354 L402.49548 604.72024 L397.17881 606.60519 L391.81462 608.10586 L386.41905 609.22973 L381.00823 609.98428 L375.59833 610.37698 L370.20547 610.41531 L364.84582 610.10676 L359.53551 609.45879 L354.29068 608.47888 L349.1275 607.17451 L344.06209 605.55316 L339.1106 603.62231 L334.28919 601.38943 L329.61399 598.86199 L325.10115 596.04749 L320.76682 592.95338 L316.62714 589.58716 L312.69826 585.9563 L308.99632 582.06827 L305.53747 577.93056 L302.33785 573.55063 L299.41361 568.93597 L296.7809 564.09406 L294.45585 559.03236 L292.45462 553.75837 L290.79335 548.27955 L289.48819 542.60339 L288.55528 536.73735 L288.23346 533.73547 L288.23346 533.73547 L288.01325 530.67056 L287.90734 524.57332 L288.23867 518.53643 L288.9967 512.58012 L290.17087 506.72465 L291.75065 500.99028 L293.72549 495.39725 L296.08484 489.96581 L298.81817 484.71622 L301.91492 479.66873 L305.36456 474.84359 L309.15653 470.26105 L313.2803 465.94136 L317.72532 461.90478 L322.48104 458.17155 L327.53692 454.76192 L330.17413 453.18479" />
    <path d="M394.75856 436.4415 L397.14711 437.07929 L401.82841 438.52793 L406.37829 440.20075 L410.79235 442.08988 L415.06613 444.18747 L419.19522 446.48565 L423.17519 448.97657 L427.00161 451.65235 L430.67005 454.50515 L434.17609 457.52709 L437.51528 460.71033 L440.68322 464.04698 L443.67547 467.52921 L446.48759 471.14914 L449.11517 474.89891 L451.55377 478.77066 L453.79897 482.75653 L455.84633 486.84866 L457.69144 491.03919 L459.32986 495.32026 L460.75716 499.684 L461.96892 504.12255 L462.9607 508.62806 L463.72808 513.19265 L464.26664 517.80848 L464.57193 522.46768 L464.63954 527.16238 L464.46504 531.88473 L464.044 536.62686 L463.37198 541.38092 L462.44457 546.13904 L461.25733 550.89336 L460.56489 553.26664" />
    <path d="M364.22125 626.86165 L360.61451 626.51986 L353.56201 625.48713 L346.73184 624.00494 L340.13321 622.09253 L333.77533 619.76917 L327.6674 617.05413 L321.81863 613.96666 L316.23825 610.52603 L310.93546 606.75151 L305.91946 602.66234 L301.19948 598.27781 L296.78471 593.61716 L292.68438 588.69967 L288.90769 583.54459 L285.46385 578.17119 L282.36207 572.59873 L279.61157 566.84646 L277.22155 560.93367 L275.20122 554.8796 L273.5598 548.70351 L272.30649 542.42468 L271.45052 536.06237 L271.00107 529.63583 L270.96738 523.16433 L271.35864 516.66713 L272.18407 510.1635 L273.45288 503.67269 L275.17428 497.21397 L277.35748 490.8066 L280.01169 484.46985 L283.14612 478.22298 L286.76998 472.08524 L288.76833 469.06332 L288.76833 469.06332 L290.8677 466.11068 L295.28831 460.51941 L299.98702 455.34541 L304.94253 450.58703 L310.13356 446.24262 L315.53882 442.31052 L321.13703 438.78907 L326.90689 435.67663 L332.82712 432.97154 L338.87644 430.67214 L345.03355 428.77678 L351.27717 427.28381 L357.58601 426.19156 L363.93878 425.49839 L370.31421 425.20264 L376.69099 425.30265 L383.04785 425.79678 L389.36349 426.68336 L395.61663 427.96074 L401.78599 429.62727 L407.85026 431.68129 L413.78818 434.12115 L419.57845 436.94519 L425.19978 440.15176 L430.63089 443.7392 L435.85048 447.70586 L440.83728 452.05009 L445.57 456.77022 L450.02734 461.86461 L454.18802 467.3316 L458.03076 473.16953 L461.53427 479.37676 L463.15216 482.61834" />
    <path d="M469.10056 475.6942 L470.35048 478.17321 L472.65188 483.2039 L474.68805 488.32292 L476.45815 493.51994 L477.96139 498.78466 L479.19695 504.10677 L480.16402 509.47595 L480.86179 514.8819 L481.28944 520.31429 L481.44617 525.76283 L481.33116 531.21719 L480.9436 536.66708 L480.28268 542.10217 L479.34758 547.51215 L478.1375 552.88672 L476.65163 558.21556 L475.80502 560.85961" />
    <path d="M461.38148 449.37121 L463.48265 451.88472 L467.45483 457.05893 L471.11691 462.41771 L474.46495 467.94705 L477.49508 473.63291 L480.20337 479.4613 L482.58593 485.4182 L484.63885 491.48958 L486.35822 497.66143 L487.74014 503.91974 L488.78071 510.25049 L489.47603 516.63966 L489.82217 523.07324 L489.81525 529.53721 L489.45136 536.01756 L488.72659 542.50026 L488.22766 545.73812" />
    <path d="M305.42905 418.96119 L309.31552 416.63658 L317.18463 412.45822 L325.16236 408.8972 L333.22519 405.94091 L341.34959 403.57678 L349.51201 401.79221 L357.68892 400.57461 L365.8568 399.9114 L373.9921 399.78997 L382.0713 400.19775 L390.07086 401.12214 L397.96726 402.55055 L405.73695 404.47039 L413.3564 406.86908 L420.80208 409.73401 L428.05046 413.05261 L435.07801 416.81228 L441.86119 421.00044 L448.37647 425.60449 L454.60031 430.61183 L460.50918 436.0099 L466.07956 441.78608 L471.2879 447.9278 L476.11067 454.42246 L480.52435 461.25747 L484.50539 468.42024 L488.03027 475.89819 L491.07545 483.67872 L493.6174 491.74925 L495.63258 500.09718 L497.09746 508.70992 L497.98852 517.57488 L498.21151 522.09801 L498.21151 522.09801 L498.26969 524.74861 L498.22105 530.02208 L497.95545 535.25429 L497.47655 540.44006 L496.78801 545.57422 L495.89352 550.65161 L494.79674 555.66705 L493.50133 560.61538 L492.01097 565.49143 L490.32932 570.29002 L488.46006 575.00599 L486.40684 579.63417 L484.17335 584.16939 L481.76324 588.60647 L479.1802 592.94026 L476.42787 597.16557 L473.50994 601.27725 L470.43008 605.27012 L467.19194 609.13901 L463.7992 612.87875 L460.25554 616.48418 L456.5646 619.95012 L452.73008 623.27141 L448.75563 626.44287 L444.64492 629.45933 L440.40162 632.31564 L436.0294 635.0066 L431.53193 637.52707 L426.91288 639.87187 L422.17591 642.03582 L417.3247 644.01376 L412.36291 645.80053 L409.84169 646.6206" />
    <path d="M261.54303 449.25078 L264.3696 445.33357 L270.31565 437.91987 L276.6286 431.0651 L283.28007 424.76687 L290.24171 419.02278 L297.48515 413.83042 L304.98202 409.18738 L312.70395 405.09127 L320.62258 401.53967 L328.70954 398.53018 L336.93646 396.06041 L345.27498 394.12794 L353.69673 392.73036 L362.17334 391.86529 L370.67645 391.5303 L379.17769 391.723 L387.64869 392.44098 L396.06109 393.68185 L404.38652 395.44318 L412.59662 397.72259 L420.66301 400.51766 L428.55733 403.82599 L436.25121 407.64518 L443.71629 411.97283 L450.9242 416.80652 L457.84657 422.14385 L464.45504 427.98243 L470.72124 434.31983 L476.61681 441.15368 L482.11336 448.48154 L487.18255 456.30103 L491.796 464.60974 L493.92296 468.9468 L493.92296 468.9468 L495.8292 473.19535 L499.18625 481.85111 L501.9316 490.69134 L504.05989 499.68359 L505.56576 508.79538 L506.44384 517.99424 L506.68876 527.24771 L506.29515 536.52332 L505.85722 541.15928" />
    <path d="M383.58738 668.77592 L378.4654 669.10338 L368.36866 669.23392 L358.48254 668.68601 L348.82424 667.48454 L339.41094 665.6544 L330.25983 663.22048 L321.3881 660.20767 L312.81293 656.64087 L304.55151 652.54495 L296.62103 647.94482 L289.03868 642.86535 L281.82164 637.33145 L274.98711 631.368 L268.55226 624.99989 L262.53429 618.25201 L256.95039 611.14925 L251.81773 603.7165 L247.15352 595.97864 L242.97494 587.96058 L239.29917 579.6872 L236.14341 571.18339 L233.52483 562.47404 L231.46064 553.58404 L229.968 544.53828 L229.06413 535.36165 L228.76619 526.07904 L229.09138 516.71534 L230.05689 507.29543 L231.67991 497.84422 L233.97761 488.38658 L236.96719 478.94742 L240.66585 469.55161 L242.78644 464.87775 L242.78644 464.87775 L244.79941 460.80137 L249.18161 452.89489 L254.02129 445.32952 L259.29738 438.12058 L264.98886 431.28339 L271.07465 424.83326 L277.53372 418.78552 L284.34501 413.15547 L291.48747 407.95844 L298.94004 403.20974 L306.68169 398.92469 L314.69136 395.11861 L322.948 391.80681 L331.43055 389.00461 L340.11797 386.72733 L348.9892 384.99029 L353.48717 384.32914" />
    <path d="M505.65487 454.80817 L507.64985 458.67506 L511.28706 466.53547 L514.45328 474.54761 L517.14774 482.69092 L519.36963 490.94486 L521.11819 499.28888 L522.39262 507.70242 L523.19215 516.16494 L523.51598 524.6559 L523.36334 533.15474 L522.73345 541.64091 L521.62551 550.09387 L520.03875 558.49307 L517.97238 566.81795 L515.42561 575.04798 L512.39767 583.16259 L510.70302 587.1702" />
    <path d="M295.04822 666.31146 L292.53912 664.905 L287.63589 661.99033 L282.88606 658.9435 L278.28969 655.76873 L273.84689 652.47025 L269.55773 649.05229 L265.42232 645.51906 L261.44074 641.8748 L257.61308 638.12373 L253.93943 634.27007 L250.41987 630.31805 L247.0545 626.27189 L242.29575 620.03539 L236.49123 611.43002 L231.30508 602.52414 L226.738 593.35156 L222.7907 583.94607 L219.46392 574.34149 L216.75835 564.5716 L214.67471 554.6702 L213.21373 544.67109 L212.37611 534.60808 L212.16257 524.51495 L212.57382 514.42551 L213.61059 504.37356 L215.27358 494.3929 L217.56351 484.51732 L220.4811 474.78062 L224.02705 465.2166 L228.20209 455.85907 L233.00693 446.74181 L238.44229 437.89863 L242.93302 431.46644 L246.12424 427.28156 L249.4735 423.18422 L252.98087 419.17863 L256.64646 415.26903 L260.47034 411.45963 L264.45262 407.75466 L268.59337 404.15834 L272.89269 400.67491 L277.35066 397.30858 L281.96738 394.06358 L286.74294 390.94413 L289.19031 389.43281 L289.19031 389.43281 L291.66289 387.96309 L296.63868 385.17412 L301.65223 382.58405 L306.69985 380.19087 L311.77781 377.99252 L316.88243 375.98699 L322.01 374.17223 L327.15681 372.54621 L332.31917 371.1069 L337.49336 369.85225 L342.67569 368.78023 L347.86245 367.88882 L355.64279 366.88586 L365.99753 366.1617 L376.30332 366.12329 L386.53055 366.75437 L396.64958 368.03866 L406.63079 369.95987 L416.44455 372.50173 L426.06123 375.64794 L435.4512 379.38225 L444.58484 383.68836 L453.43251 388.54999 L461.96459 393.95086 L470.15145 399.8747 L477.96347 406.30523 L485.37101 413.22616 L492.34444 420.62121 L498.85415 428.47411 L504.87049 436.76857 L510.36385 445.48831 L515.30459 454.61706 L518.62966 461.72223 L520.65826 466.57835 L522.53204 471.52756 L524.24729 476.56783 L525.80031 481.69713 L527.18741 486.91341 L528.40487 492.21464 L529.44899 497.5988 L530.31608 503.06383 L531.00242 508.60772 L531.50431 514.22842 L531.81805 519.9239 L531.9032 522.79904" />
    <path d="M452.92703 673.78102 L450.29973 675.19228 L445.01967 677.85992 L439.70872 680.32285 L434.37055 682.58324 L429.00886 684.64328 L423.62733 686.50513 L418.22967 688.17097 L412.81954 689.64298 L407.40065 690.92333 L401.97668 692.0142 L396.55131 692.91776 L391.12824 693.63618 L385.71116 694.17165 L380.30375 694.52633 L372.21884 694.72414 L361.50724 694.37544 L350.90072 693.34275 L340.42879 691.64347 L330.12096 689.295 L320.00673 686.31474 L310.1156 682.72009 L300.4771 678.52844 L291.12071 673.7572 L282.07595 668.42376 L273.37232 662.54553 L265.03933 656.1399 L257.10649 649.22427 L249.60331 641.81604 L242.55928 633.93262 L236.00392 625.59139 L229.96673 616.80976 L224.47722 607.60513 L220.73725 600.43453 L218.43045 595.531 L216.27718 590.53151 L214.2811 585.43823 L212.44593 580.25334 L210.77533 574.979 L209.273 569.61741 L207.94263 564.17072 L206.78791 558.64112 L205.81253 553.03078 L205.02017 547.34188 L204.41452 541.57658 L203.99927 535.73708 L203.77811 529.82553 L203.74146 526.84342" />
    <path d="M406.75881 699.46101 L403.63639 700.05909 L397.41626 701.08733 L391.23166 701.89463 L385.08567 702.4845 L378.98138 702.86045 L372.92187 703.02597 L366.91022 702.98459 L360.94953 702.7398 L355.04286 702.29512 L349.19331 701.65404 L343.40397 700.82009 L337.67791 699.79676 L332.01823 698.58756 L326.42799 697.196 L320.9103 695.62559 L315.46823 693.87984 L310.10487 691.96225 L304.8233 689.87633 L299.62661 687.62559 L294.51788 685.21353 L289.50019 682.64366 L284.57663 679.91949 L279.75029 677.04453 L275.02424 674.02229 L268.12998 669.22043 L259.31745 662.33518 L250.96164 654.92393 L243.08721 647.01473 L235.71884 638.63563 L228.88119 629.81469 L222.59896 620.57999 L216.8968 610.95956 L213.01571 603.508 L210.62244 598.43437 L208.38807 593.28009 L206.31568 588.04867 L204.40836 582.74362 L202.66919 577.36845 L201.10126 571.92666 L199.70765 566.42177 L198.49145 560.85727 L197.45573 555.23668 L196.60359 549.5635 L195.93811 543.84124 L195.46237 538.0734 L195.17945 532.26351 L195.09245 526.41505 L195.20444 520.53155 L195.51851 514.6165 L196.03775 508.67342 L196.76523 502.70581 L197.70405 496.71718 L198.85728 490.71103 L200.22801 484.69088 L201.81933 478.66023 L203.63432 472.62259 L204.62665 469.60225 L204.62665 469.60225 L205.80875 466.21701 L208.36298 459.55471 L211.16512 453.0405 L214.20858 446.67904 L217.48681 440.47497 L220.99322 434.43295 L224.72125 428.55764 L228.66433 422.85369 L232.81587 417.32575 L237.16931 411.97847 L241.71809 406.8165 L246.45561 401.84451 L251.37532 397.06713 L256.47064 392.48903 L261.73499 388.11485 L267.16182 383.94926 L272.74453 379.9969 L278.47657 376.26242 L284.35136 372.75048 L290.36233 369.46574 L296.5029 366.41283 L302.7665 363.59643 L309.14657 361.02117 L315.63653 358.69172 L322.2298 356.61272 L328.91982 354.78883 L335.70001 353.2247 L342.5638 351.92498 L349.50462 350.89433 L356.51589 350.1374 L363.59105 349.65885 L370.72352 349.46332 L374.3092 349.47314" />
    <path d="M207.54897 611.13003 L206.04584 608.15793 L203.2158 602.19021 L200.61853 596.19452 L198.25137 590.17499 L196.11169 584.13574 L194.19685 578.08088 L192.50419 572.01454 L191.03109 565.94082 L189.77489 559.86386 L188.73296 553.78776 L187.90265 547.71664 L187.28131 541.65463 L186.86632 535.60584 L186.65502 529.57439 L186.64476 523.5644 L186.83292 517.57998 L187.21685 511.62525 L187.7939 505.70434 L188.56143 499.82135 L189.5168 493.98041 L190.65736 488.18564 L191.98048 482.44116 L193.48351 476.75107 L195.16381 471.1195 L197.01874 465.55058 L199.04565 460.0484 L201.2419 454.61711 L203.60485 449.2608 L206.13186 443.98361 L208.82028 438.78964 L211.66747 433.68302 L214.6708 428.66787 L217.8276 423.7483 L221.13525 418.92842 L224.59111 414.21237 L228.19252 409.60426 L231.93685 405.1082 L235.82145 400.72831 L239.84368 396.46872 L244.0009 392.33353 L248.29047 388.32687 L252.70974 384.45286 L257.25608 380.71561 L261.92683 377.11924 L266.71936 373.66787 L271.63102 370.36562 L276.65917 367.21661 L281.80118 364.22495 L287.05438 361.39476 L292.41616 358.73017 L297.88385 356.23528 L303.45482 353.91421 L309.12643 351.7711 L314.89603 349.81004 L320.76098 348.03517 L326.71864 346.45059 L332.76637 345.06043 L338.90152 343.86881 L345.12145 342.87984 L351.42353 342.09764 L357.80509 341.52633 L364.26351 341.17003 L370.79614 341.03285 L377.40034 341.11892 L380.72846 341.24695 L380.72846 341.24695 L384.05393 341.43125 L390.63715 341.96423 L397.1282 342.71277 L403.52485 343.67252 L409.82483 344.83912 L416.02591 346.20825 L422.12585 347.77554 L428.12239 349.53665 L434.0133 351.48724 L439.79632 353.62295 L445.46922 355.93943 L451.02974 358.43235 L456.47564 361.09735 L461.80469 363.93008 L467.01462 366.9262 L472.1032 370.08136 L477.06818 373.39121 L481.90732 376.85141 L486.61837 380.4576 L491.19908 384.20544 L495.64722 388.09059 L499.96053 392.10869 L504.13677 396.25539 L508.1737 400.52636 L512.06907 404.91723 L515.82064 409.42368 L519.42615 414.04134 L522.88337 418.76586 L526.19005 423.59291 L529.34395 428.51814 L532.34282 433.53719 L535.18441 438.64572 L537.86648 443.83938 L540.38678 449.11382 L542.74308 454.46471 L544.93312 459.88768 L546.95465 465.37839 L548.80545 470.9325 L550.48325 476.54565 L551.98581 482.21351 L553.3109 487.93171 L554.45625 493.69592 L555.41964 499.50178 L556.19881 505.34496 L556.79152 511.22109 L557.19552 517.12584 L557.40857 523.05486 L557.42842 529.00379 L557.25283 534.9683 L556.87955 540.94403 L556.30634 546.92663 L555.53096 552.91176 L554.55115 558.89508 L553.36467 564.87223 L551.96928 570.83886 L550.36273 576.79064 L548.54278 582.7232 L546.50718 588.63221 L544.25369 594.51332 L541.78006 600.36217 L539.08404 606.17442 L536.1634 611.94573 L533.01588 617.67174 L529.63925 623.34812 L527.86431 626.16633" />
    <path d="M286.90728 700.00287 L283.03863 698.05403 L275.45792 693.91128 L268.09324 689.44941 L260.95332 684.67758 L254.04687 679.60496 L247.38263 674.24071 L240.96931 668.594 L234.81563 662.674 L228.93032 656.48986 L223.3221 650.05076 L217.99969 643.36585 L212.97181 636.44431 L208.24719 629.29529 L203.83455 621.92797 L199.7426 614.35151 L195.98008 606.57507 L194.22508 602.61472" />
    <path d="M481.50418 695.91753 L478.50436 697.8149 L472.40892 701.44893 L466.19055 704.86606 L459.855 708.06314 L456.64508 709.57817" />
    <path d="M400.50473 317.73077 L406.56744 318.64596 L418.47563 320.96417 L430.08267 323.91454 L441.37481 327.47509 L452.3383 331.62386 L462.95936 336.33886 L473.22424 341.59814 L483.11918 347.37973 L492.63042 353.66164 L501.74419 360.42192 L510.44674 367.63859 L518.7243 375.28969 L526.56312 383.35323 L533.94943 391.80726 L540.86947 400.6298 L547.30948 409.79889 L553.25571 419.29254 L558.69439 429.0888 L563.61176 439.16569 L567.99406 449.50124 L571.82753 460.07349 L575.0984 470.86046 L577.79293 481.84017 L579.89734 492.99067 L581.39787 504.28999 L582.28078 515.71614 L582.53228 527.24717 L582.13864 538.86109 L581.08607 550.53595 L579.36083 562.24977 L576.94915 573.98059 L573.83728 585.70642 L572.01446 591.5606" />
    <path d="M215.23347 373.59495 L218.0022 370.79722 L223.63204 365.3905 L229.38038 360.23422 L235.2416 355.32696 L241.2101 350.6673 L247.28027 346.25382 L253.44652 342.08511 L259.70323 338.15974 L266.04479 334.47629 L272.46561 331.03334 L278.96008 327.82948 L285.52259 324.86327 L292.14754 322.13331 L298.82931 319.63816 L305.56231 317.37642 L312.34093 315.34666 L319.15957 313.54746 L326.01261 311.97739 L332.89446 310.63505 L339.7995 309.51901 L346.72214 308.62784 L353.65676 307.96014 L360.59777 307.51447 L367.53954 307.28943 L374.47649 307.28358 L381.40301 307.49551 L388.31348 307.92379 L395.2023 308.56702 L402.06388 309.42376 L408.89259 310.4926 L415.68284 311.77212 L422.42903 313.2609 L429.12554 314.95751 L435.76677 316.86054 L442.34711 318.96856 L448.86096 321.28016 L455.30272 323.79392 L461.66677 326.50841 L467.94752 329.42222 L474.13935 332.53392 L480.23667 335.8421 L486.23386 339.34534 L492.12532 343.04221 L497.90544 346.93129 L503.56863 351.01117 L509.10927 355.28042 L514.52175 359.73763 L519.80048 364.38137 L524.93985 369.21022 L529.93425 374.22277 L534.77807 379.41759 L539.46571 384.79326 L543.99157 390.34837 L548.35004 396.08148 L552.53552 401.99119 L556.54239 408.07608 L560.36505 414.33471 L563.9979 420.76568 L567.43533 427.36756 L570.67174 434.13893 L573.70152 441.07837 L576.51907 448.18446 L579.11877 455.45578 L581.49503 462.89091 L582.59762 466.66947 L582.59762 466.66947 L583.63615 470.46612 L585.50359 478.04507 L587.0949 485.60142 L588.4141 493.13101 L589.46523 500.62971 L590.25232 508.09338 L590.77941 515.51786 L591.05053 522.89901 L591.06971 530.23269 L590.84098 537.51476 L590.36837 544.74107 L589.65593 551.90747 L588.70767 559.00982 L587.52764 566.04398 L586.11987 573.0058 L584.48838 579.89114 L582.63722 586.69585 L580.57041 593.4158 L578.29199 600.04682 L575.80599 606.58479 L573.11645 613.02555 L570.22738 619.36496 L567.14284 625.59888 L563.86685 631.72316 L560.40344 637.73366 L556.75664 643.62623 L552.9305 649.39673 L548.92904 655.04101 L544.75629 660.55494 L540.41629 665.93436 L535.91307 671.17513 L531.25066 676.27311 L526.4331 681.22415 L521.46441 686.02411 L516.34864 690.66884 L511.08981 695.1542 L505.69195 699.47605 L500.1591 703.63024 L494.4953 707.61262 L488.70457 711.41905 L482.79094 715.04539 L476.75846 718.48749 L470.61114 721.74121 L464.35304 724.80241 L457.98817 727.66693 L451.52057 730.33064 L444.95427 732.78938 L438.29331 735.03903 L431.54171 737.07542 L424.70352 738.89442 L417.78276 740.49189 L410.78347 741.86367 L403.70968 743.00563 L396.56542 743.91361 L389.35472 744.58348 L382.08162 745.01109 L374.75016 745.1923 L367.36435 745.12296 L359.92824 744.79893 L352.44586 744.21605 L344.92123 743.3702 L337.35841 742.25722 L329.7614 740.87297 L322.13426 739.2133 L318.31065 738.27889" />
    <path d="M243.87974 713.79653 L239.41524 710.66867 L230.77555 704.14769 L222.52485 697.28642 L214.667 690.10092 L207.20587 682.60725 L200.14536 674.82147 L193.48932 666.75964 L187.24163 658.43782 L181.40617 649.87208 L175.98682 641.07847 L170.98745 632.07306 L166.41193 622.8719 L162.26414 613.49106 L158.54796 603.94659 L155.26726 594.25456 L152.42591 584.43102 L150.02779 574.49204 L148.07678 564.45369 L146.57675 554.33201 L145.53158 544.14307 L144.94514 533.90293 L144.8213 523.62765 L145.16395 513.33329 L145.97695 503.03591 L147.26419 492.75158 L149.02953 482.49635 L151.27685 472.28628 L154.01003 462.13744 L157.23295 452.06588 L160.94947 442.08767 L165.16348 432.21886 L169.87884 422.47552 L172.42574 417.65592" />
    <path d="M589.50933 435.45239 L590.86505 438.77269 L593.42096 445.46463 L595.7689 452.22094 L597.9081 459.03678 L599.83782 465.90728 L601.55732 472.82757 L603.06584 479.7928 L604.36263 486.7981 L605.44695 493.83862 L606.31805 500.90949 L606.97518 508.00584 L607.41758 515.12282 L607.64452 522.25557 L607.65524 529.39922 L607.44899 536.54891 L607.02503 543.69977 L606.73117 547.27413" />
    <path d="M163.05486 652.19809 L161.28205 649.21008 L157.8651 643.16019 L156.22148 640.09922" />
    <path d="M452.10118 765.61322 L447.78184 767.01689 L439.14831 769.58186 L430.5258 771.82733 L421.91931 773.75773 L413.33382 775.37748 L404.77435 776.691 L396.24588 777.70272 L387.75341 778.41706 L379.30194 778.83843 L370.89646 778.97127 L362.54197 778.81999 L354.24346 778.38902 L346.00594 777.68278 L337.8344 776.70569 L329.73383 775.46217 L321.70923 773.95665 L313.7656 772.19354 L305.90794 770.17728 L298.14123 767.91228 L290.47048 765.40296 L282.90068 762.65375 L275.43683 759.66907 L268.08392 756.45335 L260.84696 753.01099 L253.73093 749.34644 L246.74084 745.4641 L239.88168 741.3684 L233.15844 737.06377 L226.57612 732.55462 L220.13973 727.84538 L213.85425 722.94047 L207.72468 717.84432 L201.75601 712.56133 L195.95325 707.09595 L190.3214 701.45258 L184.86543 695.63566 L179.59036 689.6496 L174.50118 683.49882 L169.60289 677.18776 L164.90047 670.72082 L160.39893 664.10244 L156.10327 657.33704 L152.01848 650.42903 L148.14955 643.38284 L144.50148 636.20289 L141.07928 628.89361 L137.88793 621.45942 L134.93243 613.90473 L132.21778 606.23398 L129.74897 598.45158 L127.531 590.56195 L125.56887 582.56953 L123.86758 574.47872 L122.43211 566.29396 L121.26746 558.01966 L120.37864 549.66026 L119.77064 541.22016 L119.44845 532.70379 L119.41707 524.11558 L119.68149 515.45994 L120.24672 506.7413 L121.11775 497.96409 L122.29958 489.13272 L123.79719 480.25161 L124.66598 475.79379 L124.66598 475.79379 L125.56217 471.57743 L127.56163 463.22272 L129.83324 454.97638 L132.3723 446.84364 L135.17408 438.82972 L138.23387 430.93984 L141.54693 423.17922 L145.10855 415.55309 L148.914 408.06668 L152.95857 400.7252 L157.23754 393.53389 L161.74618 386.49795 L166.47977 379.62263 L171.43359 372.91313 L176.60293 366.37469 L181.98305 360.01253 L187.56924 353.83187 L193.35677 347.83794 L199.34093 342.03596 L205.51699 336.43114 L211.88024 331.02873 L218.42594 325.83393 L225.14939 320.85198 L232.04586 316.08809 L239.11062 311.5475 L246.33896 307.23542 L253.72616 303.15708 L261.26749 299.3177 L268.95823 295.7225 L276.79366 292.37672 L284.76907 289.28556 L292.87972 286.45427 L296.98429 285.1377" />
    <path d="M535.65181 729.38009 L532.88943 731.57431 L527.30536 735.83232 L521.64491 739.91679 L515.91131 743.82819 L510.10782 747.56697 L504.23767 751.13359 L498.30411 754.52851 L492.31037 757.75217 L486.25971 760.80505 L480.15535 763.68759 L470.90525 767.69304 L458.41414 772.44173 L445.76665 776.51733 L432.9887 779.92349 L420.10625 782.66386 L407.14522 784.74211 L394.13156 786.1619 L381.09121 786.92688 L368.05011 787.04071 L355.03419 786.50705 L342.06939 785.32955 L329.18165 783.51189 L316.39692 781.0577 L303.74112 777.97066 L291.2402 774.25443 L278.9201 769.91265 L266.80676 764.94899 L254.92611 759.36711 L243.30409 753.17066 L231.96664 746.3633 L220.9397 738.9487 L210.24922 730.93051 L202.46775 724.52296 L197.39875 720.06454 L192.42846 715.45729 L187.56012 710.70165 L182.79696 705.79808 L178.14223 700.74705 L173.59917 695.54901 L169.17103 690.20441 L164.86104 684.71372 L160.67246 679.07739 L158.6247 676.20476" />
    <path d="M623.32552 429.34591 L624.96853 433.72216 L628.02063 442.54206 L630.7602 451.44492 L633.18648 460.42245 L635.2987 469.46641 L637.09612 478.5685 L638.57796 487.72046 L639.74346 496.91403 L640.59187 506.14092 L641.12243 515.39286 L641.33437 524.66159 L641.22693 533.93884 L640.79936 543.21632 L640.05089 552.48578 L638.98076 561.73893 L637.58822 570.96751 L636.7708 575.57001" />
    <path d="M620.04129 401.20126 L622.47112 406.144 L627.02489 416.14702 L631.16919 426.29628 L634.90211 436.57921 L638.22172 446.98324 L641.12611 457.49583 L643.61334 468.1044 L645.68149 478.7964 L647.32865 489.55925 L648.55288 500.3804 L649.35228 511.24728 L649.7249 522.14733 L649.66884 533.06798 L649.18217 543.99668 L648.26296 554.92086 L646.9093 565.82796 L646.06894 571.27118" />
    <path d="M278.41409 255.81347 L283.29199 254.17022 L293.04491 251.15848 L302.78924 248.50894 L312.51924 246.21666 L322.2292 244.27668 L331.91341 242.68405 L341.56616 241.43383 L351.18172 240.52106 L360.75438 239.94079 L370.27843 239.68807 L379.74815 239.75795 L389.15781 240.14548 L398.50172 240.8457 L407.77415 241.85368 L416.96938 243.16444 L426.0817 244.77305 L435.1054 246.67456 L444.03475 248.86401 L452.86405 251.33645 L461.58757 254.08693 L470.1996 257.1105 L478.69443 260.40221 L487.06633 263.95711 L495.3096 267.77024 L503.41851 271.83666 L511.38735 276.15142 L519.21041 280.70956 L526.88197 285.50614 L534.39631 290.53619 L541.74772 295.79478 L548.93048 301.27695 L555.93888 306.97775 L562.7672 312.89223 L569.40972 319.01544 L575.86072 325.34243 L582.1145 331.86824 L588.16534 338.58792 L594.00752 345.49653 L599.63532 352.58912 L605.04303 359.86073 L610.22493 367.30641 L615.17531 374.92121 L619.88845 382.70018 L624.35864 390.63837 L628.58016 398.73082 L632.54729 406.9726 L636.25431 415.35874 L639.69552 423.8843 L642.8652 432.54432 L645.75762 441.33385 L648.36708 450.24795 L650.68786 459.28166 L652.71424 468.43003 L654.44051 477.68811 L655.86094 487.05095 L656.96984 496.51359 L657.76147 506.0711 L658.23012 515.71851 L658.37008 525.45088 L658.17564 535.26325 L657.64107 545.15067 L656.76065 555.1082 L655.52869 565.13088 L653.93945 575.21376 L653.00906 580.27623 L653.00906 580.27623 L651.88947 585.79797 L649.3313 596.74646 L646.35298 607.55892 L642.96068 618.22411 L639.16058 628.73081 L634.95887 639.06777 L630.36172 649.22377 L625.37531 659.18758 L620.00582 668.94796 L614.25943 678.49368 L608.14232 687.81351 L601.66067 696.89621 L594.82066 705.73056 L587.62847 714.30531 L580.09028 722.60924 L572.21226 730.63111 L568.14775 734.53277" />
    <path d="M85.8717 595.86497 L84.66169 590.70634 L82.52294 580.41873 L80.75455 570.17514 L79.35089 559.98094 L78.30633 549.8415 L77.61524 539.76222 L77.272 529.74845 L77.27096 519.80558 L77.60651 509.93898 L78.27301 500.15404 L79.26484 490.45612 L80.57636 480.85061 L82.20195 471.34288 L84.13598 461.93831 L86.37281 452.64227 L88.90683 443.46014 L91.73239 434.3973 L94.84387 425.45912 L98.23564 416.65099 L101.90208 407.97827 L105.83755 399.44634 L110.03642 391.06059 L114.49307 382.82638 L119.20186 374.7491 L124.15717 366.83411 L129.35336 359.0868 L134.78481 351.51255 L140.44589 344.11673 L146.33097 336.90471 L152.43442 329.88187 L158.75061 323.0536 L165.27392 316.42526 L171.9987 310.00224 L178.91934 303.7899 L186.0302 297.79363 L193.32565 292.01881 L200.80008 286.4708 L208.44783 281.15499 L216.2633 276.07675 L224.24084 271.24146 L232.37483 266.6545 L240.65964 262.32124 L249.08965 258.24706 L257.65921 254.43733 L266.3627 250.89744 L275.1945 247.63275 L284.14897 244.64865 L293.22049 241.95051 L302.40342 239.54372 L311.69213 237.43363 L321.08101 235.62564 L330.56441 234.12512 L340.13671 232.93744 L349.79227 232.06798 L359.52548 231.52213 L369.3307 231.30524 L379.2023 231.42271 L389.13465 231.87991 L399.12213 232.68221 L409.1591 233.83499 L419.23993 235.34363 L429.359 237.21351 L439.51068 239.44999 L449.68933 242.05847 L454.78701 243.50388 L454.78701 243.50388 L459.85953 245.03529 L469.83823 248.32689 L479.59364 251.91721 L489.1239 255.79871 L498.42719 259.96381 L507.50165 264.40495 L516.34545 269.11458 L524.95675 274.08512 L533.3337 279.30901 L541.47446 284.77869 L549.37718 290.48659 L557.04004 296.42516 L564.46118 302.58683 L571.63877 308.96403 L578.57096 315.5492 L585.25591 322.33479 L591.69178 329.31322 L597.87672 336.47693 L603.80891 343.81836 L609.48648 351.32995 L614.90761 359.00412 L620.07045 366.83333 L624.97316 374.81 L629.6139 382.92658 L633.99082 391.17549 L638.10209 399.54918 L641.94586 408.04009 L645.52029 416.64064 L648.82354 425.34328 L651.85377 434.14044 L654.60914 443.02455 L657.08779 451.98807 L659.28791 461.02341 L661.20763 470.12303 L662.84512 479.27935 L664.19854 488.48481 L665.26604 497.73186 L666.04579 507.01291 L666.53594 516.32042 L666.73465 525.64682 L666.64008 534.98455 L666.25039 544.32604 L665.56373 553.66372 L664.57827 562.99004 L663.29216 572.29744 L661.70356 581.57834 L659.81063 590.82519 L657.61153 600.03042 L655.10442 609.18647 L652.28744 618.28578 L649.15877 627.32078 L645.71656 636.2839 L641.95897 645.1676 L637.88416 653.96429 L633.49028 662.66643 L628.7755 671.26644 L623.73797 679.75676 L618.37585 688.12983 L612.6873 696.37809 L606.67048 704.49396 L600.32354 712.4699 L593.64464 720.29834 L586.63195 727.9717 L579.28362 735.48244 L575.48301 739.17446" />
    <path d="M314.17294 823.5545 L308.83227 822.46816 L298.29954 820.04537 L287.96711 817.29541 L277.83759 814.22584 L267.91359 810.84424 L258.1977 807.15817 L248.69254 803.17522 L239.4007 798.90295 L230.3248 794.34892 L221.46743 789.52073 L212.83121 784.42592 L204.41874 779.07208 L196.23262 773.46678 L188.27546 767.61758 L180.54986 761.53206 L173.05843 755.2178 L165.80378 748.68235 L158.7885 741.93329 L152.0152 734.9782 L145.4865 727.82464 L139.20499 720.48019 L133.17327 712.95241 L127.39396 705.24888 L121.86966 697.37717 L116.60297 689.34485 L111.5965 681.15948 L106.85285 672.82865 L102.37463 664.35993 L98.16445 655.76087 L94.2249 647.03907 L90.5586 638.20208 L87.16815 629.25747 L84.05614 620.21283 L81.2252 611.07571 L78.67792 601.8537 L76.41691 592.55435 L74.44477 583.18525 L72.76411 573.75397 L71.37754 564.26806 L70.28765 554.73512 L69.49706 545.1627 L69.00836 535.55838 L68.82417 525.92973 L68.94709 516.28433 L69.37972 506.62973 L70.12466 496.97352 L71.18454 487.32326 L72.56194 477.68652 L74.25947 468.07089 L76.27974 458.48392 L78.62536 448.93319 L81.29892 439.42626 L84.30304 429.97072 L87.64032 420.57413 L91.31336 411.24407 L95.32476 401.9881 L99.67715 392.81379 L104.37311 383.72872 L109.41525 374.74046 L114.80618 365.85657 L120.54851 357.08464 L126.64483 348.43223 L133.09776 339.90691 L139.9099 331.51625 L143.45148 327.37378 L143.45148 327.37378 L146.92426 323.44969 L154.05872 315.79712 L161.43858 308.40956 L169.05611 301.2921 L176.90358 294.44979 L184.97325 287.8877 L193.25739 281.6109 L201.74827 275.62446 L210.43814 269.93343 L219.31927 264.54288 L228.38393 259.45789 L237.62438 254.68351 L247.03288 250.22481 L256.60171 246.08686 L266.32313 242.27473 L276.18939 238.79347 L281.17443 237.1785" />
    <path d="M663.67109 417.06817 L665.16758 421.15457 L667.98559 429.37919 L670.56974 437.66871 L672.91936 446.01814 L675.03375 454.42249 L676.91225 462.87674 L678.55417 471.37592 L679.95884 479.91502 L681.12557 488.48904 L682.05368 497.09298 L682.74249 505.72185 L683.19132 514.37066 L683.3995 523.0344 L683.36634 531.70807 L683.09116 540.38668 L682.57328 549.06523 L682.22312 553.40293" />
    <path d="M461.63154 833.16012 L457.54056 834.32517 L449.35225 836.48538 L441.15823 838.42069 L432.96185 840.13299 L424.76641 841.6242 L416.57526 842.89625 L408.39171 843.95104 L400.21911 844.79049 L392.06077 845.4165 L383.92002 845.83101 L375.80019 846.03591 L367.70462 846.03314 L359.63661 845.82459 L351.59952 845.41218 L343.59665 844.79783 L335.63135 843.98346 L327.70693 842.97097 L319.82673 841.76229 L311.99407 840.35932 L304.21229 838.76398 L296.4847 836.97818 L288.81464 835.00384 L281.20543 832.84288 L273.66041 830.4972 L266.18289 827.96873 L258.77622 825.25937 L251.44371 822.37104 L244.18869 819.30566 L237.0145 816.06514 L229.92445 812.65139 L222.92188 809.06633 L216.01012 805.31187 L209.19249 801.38993 L202.47231 797.30242 L195.85293 793.05126 L189.33766 788.63835 L182.92984 784.06562 L176.63279 779.33498 L170.44984 774.44834 L164.38431 769.40762 L158.43954 764.21473 L152.61885 758.87159 L146.92558 753.3801 L141.36304 747.7422 L135.93456 741.95978 L130.64349 736.03476 L125.49313 729.96907 L120.48682 723.7646 L115.62789 717.42328 L110.91967 710.94703 L106.36548 704.33775 L101.96865 697.59735 L97.7325 690.72777 L93.66038 683.7309 L89.7556 676.60866 L86.02149 669.36297 L82.46138 661.99575 L79.07859 654.50889 L75.87647 646.90433 L72.85832 639.18398 L70.02749 631.34974 L67.38729 623.40354 L64.94107 615.34728 L62.69213 607.18289 L61.64269 603.06074" />
    <path d="M529.92633 813.91129 L524.72631 816.70762 L514.27671 821.98903 L503.76718 826.8592 L493.20513 831.32262 L482.59798 835.3838 L471.95316 839.04722 L461.27807 842.3174 L450.58012 845.19883 L439.86675 847.69601 L429.14535 849.81344 L418.42335 851.55562 L407.70817 852.92705 L397.00721 853.93223 L386.3279 854.57565 L375.67764 854.86182 L365.06387 854.79523 L354.49398 854.38039 L343.97541 853.6218 L333.51555 852.52395 L323.12184 851.09134 L312.80168 849.32847 L302.56249 847.23985 L292.41168 844.82996 L282.35668 842.10332 L272.4049 839.06441 L262.56375 835.71775 L252.84065 832.06782 L243.24302 828.11914 L233.77827 823.87618 L224.45381 819.34347 L215.27707 814.52549 L206.25545 809.42674 L197.39638 804.05173 L188.70727 798.40496 L180.19553 792.49091 L171.86859 786.3141 L163.73385 779.87902 L155.79874 773.19018 L148.07067 766.25206 L140.55705 759.06917 L133.2653 751.64601 L126.20283 743.98708 L119.37707 736.09687 L112.79543 727.9799 L106.46532 719.64065 L100.39415 711.08362 L94.58936 702.31332 L89.05834 693.33425 L83.80852 684.15089 L78.84732 674.76776 L74.18214 665.18936 L69.82041 655.42017 L65.76953 645.46471 L62.03693 635.32746 L58.63002 625.01294 L55.55622 614.52563 L52.82294 603.87004 L50.43761 593.05067 L48.40762 582.07202 L46.7404 570.93858 L45.44338 559.65486 L44.52395 548.22535 L43.98954 536.65456 L43.84756 524.94698 L43.92605 519.0433 L43.92605 519.0433 L44.03699 515.05746 L44.40401 507.09245 L44.96437 499.13929 L45.71782 491.2015 L46.16688 487.23948" />
  </g>
</svg>