<?xml version="1.0" standalone="no"?>
<!DOCTYPE svg PUBLIC "-//W3C//DTD SVG 1.1//EN" 
    "http://www.w3.org/Graphics/SVG/1.1/DTD/svg11.dtd">
<svg width="2480px" height="3508px"
    xmlns="http://www.w3.org/2000/svg" version="1.1" viewBox="0 0 2480 3508">
  <g fill="none" stroke="black" stroke-width="1.06299px">
    <path d="M206.66666666666663 549.3333333333333 L1446.6666666666665 549.3333333333333" />
    <path d="M1446.6666666666665 549.3333333333333 L1446.6666666666665 1789.3333333333333" />
    <path d="M1446.6666666666665 1789.3333333333333 L206.66666666666663 1789.3333333333333" />
    <path d="M206.66666666666663 1789.3333333333333 L206.66666666666663 549.3333333333333" />
    <path d="M219.33409209071408 556.6775214299898 L1459.3222881844247 562.0880249430757" />
    <path d="M1459.3222881844247 562.0880249430757 L1453.9117846713389 1802.0762210367864" />
    <path d="M1453.9117846713389 1802.0762210367864 L213.92358857762827 1796.6657175237006" />
    <path d="M213.92358857762827 1796.6657175237006 L219.33409209071408 556.6775214299898" />
    <path d="M231.92543412718817 564.1202581958062 L1471.8782187267605 574.9411622137898" />
    <path d="M1471.8782187267605 574.9411622137898 L1461.0573147087769 1814.8939468133622" />
    <path d="M1461.0573147087769 1814.8939468133622 L221.10453010920457 1804.0730427953786" />
    <path d="M221.10453010920457 1804.0730427953786 L231.92543412718817 564.1202581958062" />
    <path d="M244.4400747850957 571.661018677576 L1484.3338409768644 587.892117186043" />
    <path d="M1484.3338409768644 587.892117186043 L1468.102742468397 1827.7858833778118" />
    <path d="M1468.102742468397 1827.7858833778118 L228.20897627662862 1811.5547848693445" />
    <path d="M228.20897627662862 1811.5547848693445 L244.4400747850957 571.661018677576" />
    <path d="M256.87739920958415 579.2992744090019 L1496.6885412035092 600.9402583912334" />
    <path d="M1496.6885412035092 600.9402583912334 L1475.0475572212777 1840.7514003851586" />
    <path d="M1475.0475572212777 1840.7514003851586 L235.2364152273526 1819.110416402927" />
    <path d="M235.2364152273526 1819.110416402927 L256.87739920958415 579.2992744090019" />
    <path d="M269.23679570081833 587.0344934280852 L1508.9417092799054 614.084950870941" />
    <path d="M1508.9417092799054 614.084950870941 L1481.8912518370498 1853.7898644500283" />
    <path d="M1481.8912518370498 1853.7898644500283 L242.18633825796246 1826.7394070071725" />
    <path d="M242.18633825796246 1826.7394070071725 L269.23679570081833 587.0344934280852" />
    <path d="M281.5176557327635 594.8661402946123 L1521.0927387024544 627.3255561963749" />
    <path d="M1521.0927387024544 627.3255561963749 L1488.6333228006918 1866.900639166066" />
    <path d="M1488.6333228006918 1866.900639166066 L249.05823983100083 1834.4412232643033" />
    <path d="M249.05823983100083 1834.4412232643033 L281.5176557327635 594.8661402946123" />
    <path d="M293.71937397187696 602.7936761077387 L1533.1410266094008 640.6614324879188" />
    <path d="M1533.1410266094008 640.6614324879188 L1495.2732702292208 1880.0830851254427" />
    <path d="M1495.2732702292208 1880.0830851254427 L255.85161759169694 1842.2153287452627" />
    <path d="M255.85161759169694 1842.2153287452627 L293.71937397187696 602.7936761077387" />
    <path d="M305.84134829570553 610.816558523671 L1545.0859737993842 654.0919344347723" />
    <path d="M1545.0859737993842 654.0919344347723 L1501.8105978882827 1893.336559938451" />
    <path d="M1501.8105978882827 1893.336559938451 L262.56597238460427 1850.0611840273496" />
    <path d="M262.56597238460427 1850.0611840273496 L305.84134829570553 610.816558523671" />
    <path d="M317.8829798113899 618.9342417734438 L1556.9269847498863 667.6164133146888" />
    <path d="M1556.9269847498863 667.6164133146888 L1508.244813208641 1906.6604182531853" />
    <path d="M1508.244813208641 1906.6604182531853 L269.20080827014476 1857.9782467119403" />
    <path d="M269.20080827014476 1857.9782467119403 L317.8829798113899 618.9342417734438" />
    <path d="M329.84367287407537 627.1461766807926 L1568.6634676355789 681.2342170138091" />
    <path d="M1568.6634676355789 681.2342170138091 L1514.5754273025623 1920.0540117753128" />
    <path d="M1514.5754273025623 1920.0540117753128 L275.75563254105873 1865.9659714422962" />
    <path d="M275.75563254105873 1865.9659714422962 L329.84367287407537 627.1461766807926" />
    <path d="M341.7228351052272 635.451810680123 L1580.294834346566 694.9446900465895" />
    <path d="M1580.294834346566 694.9446900465895 L1520.8019549800995 1933.5166892879283" />
    <path d="M1520.8019549800995 1933.5166892879283 L282.22995573876074 1874.0238099214619" />
    <path d="M282.22995573876074 1874.0238099214619 L341.7228351052272 635.451810680123" />
    <path d="M353.5198774108517 643.8505878345744 L1591.820500506523 708.7471735758247" />
    <path d="M1591.820500506523 708.7471735758247 L1526.9239147652727 1947.0477966714964" />
    <path d="M1526.9239147652727 1947.0477966714964 L288.62329166960126 1882.151210930246" />
    <path d="M288.62329166960126 1882.151210930246 L353.5198774108517 643.8505878345744" />
    <path d="M365.2342139996207 652.3419488541774 L1603.239885490733 722.6410054327655" />
    <path d="M1603.239885490733 722.6410054327655 L1532.940828912145 1960.646676923878" />
    <path d="M1532.940828912145 1960.646676923878 L294.9351574210326 1890.34762034529" />
    <path d="M294.9351574210326 1890.34762034529 L365.2342139996207 652.3419488541774" />
    <path d="M376.8652624009018 660.9253311141058 L1614.5524124440167 736.6255201373283" />
    <path d="M1614.5524124440167 736.6255201373283 L1538.8522234207942 1974.3126701804433" />
    <path d="M1538.8522234207942 1974.3126701804433 L301.1650733776793 1898.6124811572208" />
    <path d="M301.1650733776793 1898.6124811572208 L376.8652624009018 660.9253311141058" />
    <path d="M388.41244348269026 669.6001686730224 L1625.7575082985586 750.7000489183997" />
    <path d="M1625.7575082985586 750.7000489183997 L1544.657628053181 1988.0451137342682" />
    <path d="M1544.657628053181 1988.0451137342682 L307.3125632373128 1906.9452334888906" />
    <path d="M307.3125632373128 1906.9452334888906 L388.41244348269026 669.6001686730224" />
    <path d="M399.8751814694451 678.3658922915165 L1636.8546037916271 764.8639197342318" />
    <path d="M1636.8546037916271 764.8639197342318 L1550.3565763489116 2001.8433420564138" />
    <path d="M1550.3565763489116 2001.8433420564138 L313.3771540267297 1915.3453146136985" />
    <path d="M313.3771540267297 1915.3453146136985 L399.8751814694451 678.3658922915165" />
    <path d="M411.25290395982773 687.2219294506351 L1647.8431334831898 779.1164572929301" />
    <path d="M1647.8431334831898 779.1164572929301 L1555.9486056408948 2015.7066868162924" />
    <path d="M1555.9486056408948 2015.7066868162924 L319.35837611753266 1923.8121589739972" />
    <path d="M319.35837611753266 1923.8121589739972 L411.25290395982773 687.2219294506351" />
    <path d="M422.54504194434213 696.1677043705051 L1658.7225357734205 793.4569830730329" />
    <path d="M1658.7225357734205 793.4569830730329 L1561.433257070893 2029.6344769021116" />
    <path d="M1561.433257070893 2029.6344769021116 L325.2557632418144 1932.345198199584" />
    <path d="M325.2557632418144 1932.345198199584 L422.54504194434213 696.1677043705051" />
    <path d="M433.75102982287706 705.202638029048 L1669.4922529201012 807.8848153441813" />
    <path d="M1669.4922529201012 807.8848153441813 L1566.8100756049678 2043.6260384414056" />
    <path d="M1566.8100756049678 2043.6260384414056 L331.0688525077437 1940.9438611262722" />
    <path d="M331.0688525077437 1940.9438611262722 L433.75102982287706 705.202638029048" />
    <path d="M444.87030542214995 714.3261481807837 L1680.1517310559143 822.3992691878798" />
    <path d="M1680.1517310559143 822.3992691878798 L1572.078610048818 2057.6806948216445" />
    <path d="M1572.078610048818 2057.6806948216445 L336.7971844150538 1949.6075738145482" />
    <path d="M336.7971844150538 1949.6075738145482 L444.87030542214995 714.3261481807837" />
    <path d="M455.9023100130503 723.5376493757269 L1690.7004202056307 836.9996565183459" />
    <path d="M1690.7004202056307 836.9996565183459 L1577.2384130630116 2071.797766710926" />
    <path d="M1577.2384130630116 2071.797766710926 L342.4403028704313 1958.3357595683076" />
    <path d="M342.4403028704313 1958.3357595683076 L455.9023100130503 723.5376493757269" />
    <path d="M466.8464883278847 732.8365529783721 L1701.1377743031862 851.6852861034498" />
    <path d="M1701.1377743031862 851.6852861034498 L1582.2890411781086 2085.976572078752" />
    <path d="M1582.2890411781086 2085.976572078752 L347.99775520280696 1967.1278389536737" />
    <path d="M347.99775520280696 1967.1278389536737 L466.8464883278847 732.8365529783721" />
    <path d="M477.70228857752085 742.222267186768 L1711.4632512086514 866.4554635857426" />
    <path d="M1711.4632512086514 866.4554635857426 L1587.2300548096766 2100.216426216873" />
    <path d="M1587.2300548096766 2100.216426216873 L353.46909217854625 1975.9832298178985" />
    <path d="M353.46909217854625 1975.9832298178985 L477.70228857752085 742.222267186768" />
    <path d="M488.4691624684311 751.6941970516812 L1721.6763127250897 881.3094915035714" />
    <path d="M1721.6763127250897 881.3094915035714 L1592.0610182731994 2114.5166417602304" />
    <path d="M1592.0610182731994 2114.5166417602304 L358.8538680165408 1984.90134730834" />
    <path d="M358.8538680165408 1984.90134730834 L488.4691624684311 751.6941970516812" />
    <path d="M499.14656521963525 761.2517444958481 L1731.7764246153115 896.2466693122842" />
    <path d="M1731.7764246153115 896.2466693122842 L1596.7814997988753 2128.8765287079605" />
    <path d="M1596.7814997988753 2128.8765287079605 L364.15164040319917 1993.8816038915245" />
    <path d="M364.15164040319917 1993.8816038915245 L499.14656521963525 761.2517444958481" />
    <path d="M509.73395557954154 770.8943083333154 L1741.7630566185098 911.2662934055197" />
    <path d="M1741.7630566185098 911.2662934055197 L1601.3910715463057 2143.295394444488" />
    <path d="M1601.3910715463057 2143.295394444488 L369.3619705073373 2002.9234093722835" />
    <path d="M369.3619705073373 2002.9234093722835 L509.73395557954154 770.8943083333154" />
    <path d="M520.2307958426857 780.6212842888658 L1751.6356824667942 926.3676571365845" />
    <path d="M1751.6356824667942 926.3676571365845 L1605.8893096190754 2157.772543760693" />
    <path d="M1605.8893096190754 2157.772543760693 L374.48442299496696 2012.0261709129743" />
    <path d="M374.48442299496696 2012.0261709129743 L520.2307958426857 780.6212842888658" />
    <path d="M530.6365518663673 790.4320650175337 L1761.3937799016064 941.5500508399165" />
    <path d="M1761.3937799016064 941.5500508399165 L1610.2757940792235 2172.3072788751556" />
    <path d="M1610.2757940792235 2172.3072788751556 L379.5185660439845 2021.1892930527727" />
    <path d="M379.5185660439845 2021.1892930527727 L530.6365518663673 790.4320650175337" />
    <path d="M540.9506930871845 800.3260401242035 L1771.036830690031 956.8127618526323" />
    <path d="M1771.036830690031 956.8127618526323 L1614.5501089616023 2186.898899455479" />
    <path d="M1614.5501089616023 2186.898899455479 L384.46397135875566 2030.4121777270498" />
    <path d="M384.46397135875566 2030.4121777270498 L540.9506930871845 800.3260401242035" />
    <path d="M551.1726925374638 810.3025961832974 L1780.5643206409886 972.1550745361614" />
    <path d="M1780.5643206409886 972.1550745361614 L1618.7118422881244 2201.546702639686" />
    <path d="M1618.7118422881244 2201.546702639686 L389.3202141845999 2039.6942242868222" />
    <path d="M389.3202141845999 2039.6942242868222 L551.1726925374638 810.3025961832974" />
    <path d="M561.3020268615873 820.3611167585457 L1789.975739621321 987.5762702979621" />
    <path d="M1789.975739621321 987.5762702979621 L1622.7605860819044 2216.2499830576958" />
    <path d="M1622.7605860819044 2216.2499830576958 L394.0868733221708 2049.0348295182794" />
    <path d="M394.0868733221708 2049.0348295182794 L561.3020268615873 820.3611167585457" />
    <path d="M571.3381763322152 830.5009824228425 L1799.2705815717622 1003.0756276133236" />
    <path d="M1799.2705815717622 1003.0756276133236 L1626.6959363812812 2231.0080328528707" />
    <path d="M1626.6959363812812 2231.0080328528707 L398.76353114173406 2058.4333876623896" />
    <path d="M398.76353114173406 2058.4333876623896 L571.3381763322152 830.5009824228425" />
    <path d="M581.2806248664042 840.7215707781868 L1808.4483445227952 1018.6524220472492" />
    <path d="M1808.4483445227952 1018.6524220472492 L1630.517493253733 2245.82014170364" />
    <path d="M1630.517493253733 2245.82014170364 L403.34977359734194 2067.8892904345776" />
    <path d="M403.34977359734194 2067.8892904345776 L581.2806248664042 840.7215707781868" />
    <path d="M591.1288600416209 851.0222564757056 L1817.5085306103977 1034.3059262764227" />
    <path d="M1817.5085306103977 1034.3059262764227 L1634.2248608096806 2260.685596845199" />
    <path d="M1634.2248608096806 2260.685596845199 L407.8451902409038 2077.4019270444824" />
    <path d="M407.8451902409038 2077.4019270444824 L591.1288600416209 851.0222564757056" />
    <path d="M600.8823731116488 861.4024112357604 L1826.4506460916718 1050.035410111257" />
    <path d="M1826.4506460916718 1050.035410111257 L1637.8176472161754 2275.60368309128" />
    <path d="M1637.8176472161754 2275.60368309128 L412.24937423615205 2086.9706842157834" />
    <path d="M412.24937423615205 2086.9706842157834 L600.8823731116488 861.4024112357604" />
    <path d="M610.5406590223909 871.8614038681374 L1835.2742013603615 1065.8401405180236" />
    <path d="M1835.2742013603615 1065.8401405180236 L1641.2954647104752 2290.5736828559943" />
    <path d="M1641.2954647104752 2290.5736828559943 L416.56192237250457 2096.594946206108" />
    <path d="M416.56192237250457 2096.594946206108 L610.5406590223909 871.8614038681374" />
    <path d="M620.1032164275653 882.3986002923187 L1843.9787109622525 1081.7193816410631" />
    <path d="M1843.9787109622525 1081.7193816410631 L1644.6579296135083 2305.5948761757504" />
    <path d="M1644.6579296135083 2305.5948761757504 L420.78243507882087 2106.274094827006" />
    <path d="M420.78243507882087 2106.274094827006 L620.1032164275653 882.3986002923187" />
    <path d="M629.5695477042937 893.0133635578351 L1852.5636936104606 1097.6723948250753" />
    <path d="M1852.5636936104606 1097.6723948250753 L1647.9046623432205 2320.666540731242" />
    <path d="M1647.9046623432205 2320.666540731242 L424.9105164370535 2116.007509464002" />
    <path d="M424.9105164370535 2116.007509464002 L629.5695477042937 893.0133635578351" />
    <path d="M638.9391589685845 903.7050538646997 L1861.0286722006008 1113.6984386374902" />
    <path d="M1861.0286722006008 1113.6984386374902 L1651.03528742781 2335.7879518695063" />
    <path d="M1651.03528742781 2335.7879518695063 L428.94577419579394 2125.794567096716" />
    <path d="M428.94577419579394 2125.794567096716 L638.9391589685845 903.7050538646997" />
    <path d="M648.2115600907055 914.4730285839228 L1869.3731738258434 1129.7967688909164" />
    <path d="M1869.3731738258434 1129.7967688909164 L1654.0494335188498 2350.958382626054" />
    <path d="M1654.0494335188498 2350.958382626054 L432.88781978371196 2135.6346423190607" />
    <path d="M432.88781978371196 2135.6346423190607 L648.2115600907055 914.4730285839228" />
    <path d="M657.3862647104523 925.3166422781054 L1877.5967297918528 1145.9666386656693" />
    <path d="M1877.5967297918528 1145.9666386656693 L1656.9467334042893 2366.17710374707" />
    <path d="M1656.9467334042893 2366.17710374707 L436.7362683228886 2145.527107359506" />
    <path d="M436.7362683228886 2145.527107359506 L657.3862647104523 925.3166422781054" />
    <path d="M666.4627902523052 936.2352467221128 L1885.698875631609 1162.2072983323758" />
    <path d="M1885.698875631609 1162.2072983323758 L1659.7268240213461 2381.4433837116794" />
    <path d="M1659.7268240213461 2381.4433837116794 L440.4907386420424 2155.4713321014165" />
    <path d="M440.4907386420424 2155.4713321014165 L666.4627902523052 936.2352467221128" />
    <path d="M675.4406579404794 947.2281909238268 L1893.6791511201113 1178.5179955746578" />
    <path d="M1893.6791511201113 1178.5179955746578 L1662.3893464692806 2396.7564887542894" />
    <path d="M1662.3893464692806 2396.7564887542894 L444.15085328964847 2165.4666841034586" />
    <path d="M444.15085328964847 2165.4666841034586 L675.4406579404794 947.2281909238268" />
    <path d="M684.3193928138652 958.2948211449757 L1901.5371002889683 1194.8979754118914" />
    <path d="M1901.5371002889683 1194.8979754118914 L1664.933946022053 2412.1156828869944" />
    <path d="M1664.933946022053 2412.1156828869944 L447.7162385469497 2175.5125286200787" />
    <path d="M447.7162385469497 2175.5125286200787 L684.3193928138652 958.2948211449757" />
    <path d="M693.0985237408593 969.4344809220422 L1909.272271440865 1211.3464802220412" />
    <path d="M1909.272271440865 1211.3464802220412 L1667.360272140866 2427.5202279220466" />
    <path d="M1667.360272140866 2427.5202279220466 L451.18652444086024 2185.608228622048" />
    <path d="M451.18652444086024 2185.608228622048 L693.0985237408593 969.4344809220422" />
    <path d="M701.7775834340855 980.646511087249 L1916.884217163914 1227.8627497645734" />
    <path d="M1916.884217163914 1227.8627497645734 L1669.6679784865896 2442.969383494402" />
    <path d="M1669.6679784865896 2442.969383494402 L454.56134475676095 2195.7531448170776" />
    <path d="M454.56134475676095 2195.7531448170776 L701.7775834340855 980.646511087249" />
    <path d="M710.3561084650057 991.9302497896191 L1924.3724943458897 1244.4460212034392" />
    <path d="M1924.3724943458897 1244.4460212034392 L1671.8567229320695 2458.462407084323" />
    <path d="M1671.8567229320695 2458.462407084323 L457.84033705118566 2205.9466356705025" />
    <path d="M457.84033705118566 2205.9466356705025 L710.3561084650057 991.9302497896191" />
    <path d="M718.8336392784202 1003.2850325161141 L1931.736664188339 1261.0955291301357" />
    <path d="M1931.736664188339 1261.0955291301357 L1673.9261675743178 2473.998554040055" />
    <path d="M1673.9261675743178 2473.998554040055 L461.0231426643986 2216.188057426033" />
    <path d="M461.0231426643986 2216.188057426033 L718.8336392784202 1003.2850325161141" />
    <path d="M727.2097202068564 1014.7101921128469 L1938.9762922205782 1277.8105055868405" />
    <path d="M1938.9762922205782 1277.8105055868405 L1675.875978746585 2489.577077600562" />
    <path d="M1675.875978746585 2489.577077600562 L464.1094067328631 2226.476764126569" />
    <path d="M464.1094067328631 2226.476764126569 L727.2097202068564 1014.7101921128469" />
    <path d="M735.4838994848469 1026.205058806369 L1946.0909483135642 1294.5901800896165" />
    <path d="M1946.0909483135642 1294.5901800896165 L1677.7058270303169 2505.197228918334" />
    <path d="M1677.7058270303169 2505.197228918334 L467.09877820159943 2236.8121076350862" />
    <path d="M467.09877820159943 2236.8121076350862 L735.4838994848469 1026.205058806369" />
    <path d="M743.6557292630954 1037.7689602250318 L1953.0802066936512 1311.4337796516932" />
    <path d="M1953.0802066936512 1311.4337796516932 L1679.4153872669897 2520.8582570822487" />
    <path d="M1679.4153872669897 2520.8582570822487 L469.99090983643407 2247.1934376555873" />
    <path d="M469.99090983643407 2247.1934376555873 L743.6557292630954 1037.7689602250318" />
    <path d="M751.7247656225296 1049.4012214204233 L1959.9436459562212 1328.3405288068159" />
    <path d="M1959.9436459562212 1328.3405288068159 L1681.0043385698286 2536.5594091405073" />
    <path d="M1681.0043385698286 2536.5594091405073 L472.78545823613706 2257.620101754115" />
    <path d="M472.78545823613706 2257.620101754115 L751.7247656225296 1049.4012214204233" />
    <path d="M759.6905685882435 1061.1011648888757 L1966.6808490791996 1345.309649632669" />
    <path d="M1966.6808490791996 1345.309649632669 L1682.472364335406 2552.299930123625" />
    <path d="M1682.472364335406 2552.299930123625 L475.48208384445 2268.0914453798314" />
    <path d="M475.48208384445 2268.0914453798314 L759.6905685882435 1061.1011648888757" />
    <path d="M767.552702143325 1072.8681105930466 L1973.291403436444 1362.3403617743693" />
    <path d="M1973.291403436444 1362.3403617743693 L1683.8191522551215 2568.0790630674883" />
    <path d="M1683.8191522551215 2568.0790630674883 L478.0804509620023 2278.606811886166" />
    <path d="M478.0804509620023 2278.606811886166 L767.552702143325 1072.8681105930466" />
    <path d="M775.3107342425704 1084.701375983573 L1979.7749008110145 1379.4318824680274" />
    <path d="M1979.7749008110145 1379.4318824680274 L1685.04439432656 2583.8960490364716" />
    <path d="M1685.04439432656 2583.8960490364716 L480.5802277581158 2289.1655425520166" />
    <path d="M480.5802277581158 2289.1655425520166 L775.3107342425704 1084.701375983573" />
    <path d="M782.9642368260869 1096.6002760207934 L1986.1309374083226 1396.5834265643814" />
    <path d="M1986.1309374083226 1396.5834265643814 L1686.1477868647344 2599.7501271466167" />
    <path d="M1686.1477868647344 2599.7501271466167 L482.981086282499 2299.7669766030285" />
    <path d="M482.981086282499 2299.7669766030285 L782.9642368260869 1096.6002760207934" />
    <path d="M790.5127858327786 1108.5641231965458 L1992.359113869154 1413.7942065524974" />
    <path d="M1992.359113869154 1413.7942065524974 L1687.1290305132025 2615.6405345888725" />
    <path d="M1687.1290305132025 2615.6405345888725 L485.28270247682724 2310.4104512329213" />
    <path d="M485.28270247682724 2310.4104512329213 L790.5127858327786 1108.5641231965458" />
    <path d="M797.95596121372 1120.5922275560313 L1998.4590352825735 1431.0634325835385" />
    <path d="M1998.4590352825735 1431.0634325835385 L1687.9878302550662 2631.566506652392" />
    <path d="M1687.9878302550662 2631.566506652392 L487.4847561862127 2321.0953016248845" />
    <path d="M487.4847561862127 2321.0953016248845 L797.95596121372 1120.5922275560313" />
    <path d="M805.2933469454142 1132.683896719749 L2004.4303111987037 1448.3903124946034" />
    <path d="M2004.4303111987037 1448.3903124946034 L1688.7238954238496 2647.5272767478928" />
    <path d="M1688.7238954238496 2647.5272767478928 L489.58693117056 2331.820860973038" />
    <path d="M489.58693117056 2331.820860973038 L805.2933469454142 1132.683896719749" />
    <path d="M812.5245310429357 1144.8384359055015 L2010.2725556413802 1465.7740518326273" />
    <path d="M2010.2725556413802 1465.7740518326273 L1689.3369397142546 2663.5220764310716" />
    <path d="M1689.3369397142546 2663.5220764310716 L491.58891511581 2342.586460503946" />
    <path d="M491.58891511581 2342.586460503946 L812.5245310429357 1144.8384359055015" />
    <path d="M819.6491055729582 1157.0551479504654 L2015.9853871206865 1483.213853878354" />
    <path d="M2015.9853871206865 1483.213853878354 L1689.8266811927979 2679.5501354260823" />
    <path d="M1689.8266811927979 2679.5501354260823 L493.4903996450696 2353.3914294981932" />
    <path d="M493.4903996450696 2353.3914294981932 L819.6491055729582 1157.0551479504654" />
    <path d="M826.6666666666666 1169.3333333333333 L2021.5684286453593 1500.7089196703719" />
    <path d="M2021.5684286453593 1500.7089196703719 L1690.192842308321 2695.6106816490637" />
    <path d="M1690.192842308321 2695.6106816490637 L495.2910803296282 2364.235095312026" />
    <path d="M495.2910803296282 2364.235095312026 L826.6666666666666 1169.3333333333333" />
    <path d="M833.5768145325524 1181.6722901965204 L2027.021307735075 1518.2584480292126" />
    <path d="M2027.021307735075 1518.2584480292126 L1690.4351499023828 2711.702941231735" />
    <path d="M1690.4351499023828 2711.702941231735 L496.9906566998604 2375.116783399043" />
    <path d="M496.9906566998604 2375.116783399043 L833.5768145325524 1181.6722901965204" />
    <path d="M840.379153469093 1194.0713143684395 L2032.3436564326084 1535.8616355815186" />
    <path d="M2032.3436564326084 1535.8616355815186 L1690.5533352195293 2727.8261385450337" />
    <path d="M1690.5533352195293 2727.8261385450337 L498.58883225601414 2386.0358173319546" />
    <path d="M498.58883225601414 2386.0358173319546 L840.379153469093 1194.0713143684395" />
    <path d="M847.0732918773148 1206.5296993858408 L2037.5351113158663 1553.517676784271" />
    <path d="M2037.5351113158663 1553.517676784271 L1690.5471339174362 2743.9794962228225" />
    <path d="M1690.5471339174362 2743.9794962228225 L500.0853144788846 2396.991518824392" />
    <path d="M500.0853144788846 2396.991518824392 L847.0732918773148 1206.5296993858408" />
    <path d="M853.6588422732375 1219.0467365162178 L2042.595313509797 1571.225763949082" />
    <path d="M2042.595313509797 1571.225763949082 L1690.416286076933 2760.1622351856413" />
    <path d="M1690.416286076933 2760.1622351856413 L501.4798148403734 2407.983207752777" />
    <path d="M501.4798148403734 2407.983207752777 L853.6588422732375 1219.0467365162178" />
    <path d="M860.1354213002029 1231.6217147802784 L2047.5239086981728 1588.9850872665493" />
    <path d="M2047.5239086981728 1588.9850872665493 L1690.1605362119021 2776.373574664519" />
    <path d="M1690.1605362119021 2776.373574664519 L502.7720488139322 2419.010202178248" />
    <path d="M502.7720488139322 2419.010202178248 L860.1354213002029 1231.6217147802784" />
    <path d="M866.5026497410845 1244.2539209744796 L2052.3205471352485 1606.7948348306732" />
    <path d="M2052.3205471352485 1606.7948348306732 L1689.779633279055 2792.6127322248367" />
    <path d="M1689.779633279055 2792.6127322248367 L503.961735884891 2430.071818368643" />
    <path d="M503.961735884891 2430.071818368643 L866.5026497410845 1244.2539209744796" />
    <path d="M872.7601525303797 1256.9426396936262 L2056.984883657291 1624.6541926633342" />
    <path d="M2056.984883657291 1624.6541926633342 L1689.2733306875834 2808.8789237902456" />
    <path d="M1689.2733306875834 2808.8789237902456 L505.04859956067185 2441.1673708205376" />
    <path d="M505.04859956067185 2441.1673708205376 L872.7601525303797 1256.9426396936262" />
    <path d="M878.9075587661829 1269.6871533535332 L2061.5165776939843 1642.562344738832" />
    <path d="M2061.5165776939843 1642.562344738832 L1688.641386308686 2825.171363666633" />
    <path d="M1688.641386308686 2825.171363666633 L506.03236738088435 2452.2961722813343" />
    <path d="M506.03236738088435 2452.2961722813343 L878.9075587661829 1269.6871533535332" />
    <path d="M884.9445017220407 1282.4867422137493 L2065.915293279706 1660.5184730084827" />
    <path d="M2065.915293279706 1660.5184730084827 L1687.8835624849726 2841.4892645661475" />
    <path d="M1687.8835624849726 2841.4892645661475 L506.91277092730746 2463.457533771414" />
    <path d="M506.91277092730746 2463.457533771414 L884.9445017220407 1282.4867422137493" />
    <path d="M890.8706188586873 1295.3406844003434 L2070.180699064678 1678.521757425278" />
    <path d="M2070.180699064678 1678.521757425278 L1686.999626039743 2857.831837631268" />
    <path d="M1686.999626039743 2857.831837631268 L507.68954583375256 2474.6507646063337" />
    <path d="M507.68954583375256 2474.6507646063337 L890.8706188586873 1295.3406844003434" />
    <path d="M896.6855518356606 1308.248255928752 L2074.3124683259884 1696.5713759686016" />
    <path d="M2074.3124683259884 1696.5713759686016 L1685.989348286139 2874.1982924589292" />
    <path d="M1685.989348286139 2874.1982924589292 L508.3624317958113 2485.8751724190797" />
    <path d="M508.3624317958113 2485.8751724190797 L896.6855518356606 1308.248255928752" />
    <path d="M902.3889465227995 1321.2087307266881 L2078.3102789784866 1714.6665046690025" />
    <path d="M2078.3102789784866 1714.6665046690025 L1684.8525050361725 2890.5878371246895" />
    <path d="M1684.8525050361725 2890.5878371246895 L508.9311725804853 2497.130063182375" />
    <path d="M508.9311725804853 2497.130063182375 L902.3889465227995 1321.2087307266881" />
    <path d="M907.9804530116194 1334.221380657108 L2082.1738135855503 1732.8063176330284" />
    <path d="M2082.1738135855503 1732.8063176330284 L1683.58887660963 2906.9996782069593" />
    <path d="M1683.58887660963 2906.9996782069593 L509.3955160356991 2508.414741231039" />
    <path d="M509.3955160356991 2508.414741231039 L907.9804530116194 1334.221380657108" />
    <path d="M913.459725626569 1347.2854755412395 L2085.902759369722 1750.9899870681138" />
    <path d="M2085.902759369722 1750.9899870681138 L1682.1982478428476 2923.4330208112665" />
    <path d="M1682.1982478428476 2923.4330208112665 L509.75521409969485 2519.728509284392" />
    <path d="M509.75521409969485 2519.728509284392 L913.459725626569 1347.2854755412395" />
    <path d="M918.8264229361662 1360.400283181669 L2089.4968082232185 1769.2166833075253" />
    <path d="M2089.4968082232185 1769.2166833075253 L1680.6804080973625 2939.8870685945776" />
    <path d="M1680.6804080973625 2939.8870685945776 L510.01002281031003 2531.070668468721" />
    <path d="M510.01002281031003 2531.070668468721 L918.8264229361662 1360.400283181669" />
    <path d="M924.0802077640118 1373.5650693854852 L2092.955656718313 1787.4855748353611" />
    <path d="M2092.955656718313 1787.4855748353611 L1679.0351512684374 2956.361023789662" />
    <path d="M1679.0351512684374 2956.361023789662 L510.159702314136 2542.440518339786" />
    <path d="M510.159702314136 2542.440518339786 L924.0802077640118 1373.5650693854852" />
    <path d="M929.2207471996841 1386.779097987482 L2096.279006117584 1805.7958283116072" />
    <path d="M2096.279006117584 1805.7958283116072 L1677.2622757934582 2972.8540872295066" />
    <path d="M1677.2622757934582 2972.8540872295066 L510.2040168755587 2553.837356905381" />
    <path d="M510.2040168755587 2553.837356905381 L929.2207471996841 1386.779097987482" />
    <path d="M934.2477126095098 1400.041630873417 L2099.466562384036 1824.1466085972463" />
    <path d="M2099.466562384036 1824.1466085972463 L1675.361584660207 2989.3654583717725" />
    <path d="M1675.361584660207 2989.3654583717725 L510.1427348856807 2565.2604806479435" />
    <path d="M510.1427348856807 2565.2604806479435 L934.2477126095098 1400.041630873417" />
    <path d="M939.1607796472149 1413.3519280033288 L2102.5180361910952 1842.5370787794202" />
    <path d="M2102.5180361910952 1842.5370787794202 L1673.332885415004 3005.8943353233003" />
    <path d="M1673.332885415004 3005.8943353233003 L509.9756288711237 2576.709184547209" />
    <path d="M509.9756288711237 2576.709184547209 L939.1607796472149 1413.3519280033288" />
    <path d="M943.9596282644526 1426.7092474349063 L2105.4331429324657 1860.9664001966457" />
    <path d="M2105.4331429324657 1860.9664001966457 L1671.175990170726 3022.439914864659" />
    <path d="M1671.175990170726 3022.439914864659 L509.702475502713 2588.182762102919" />
    <path d="M509.702475502713 2588.182762102919 L943.9596282644526 1426.7092474349063" />
    <path d="M948.6439427212086 1440.112845346916 L2108.2116027318634 1879.4337324640837" />
    <path d="M2108.2116027318634 1879.4337324640837 L1668.8907156146956 3039.001392474738" />
    <path d="M1668.8907156146956 3039.001392474738 L509.3230556040411 2599.68050535757" />
    <path d="M509.3230556040411 2599.68050535757 L948.6439427212086 1440.112845346916" />
    <path d="M953.2134115960848 1453.5619760626837 L2110.853140452615 1897.9382334988559" />
    <path d="M2110.853140452615 1897.9382334988559 L1666.476883016443 3055.5779623553863" />
    <path d="M1666.476883016443 3055.5779623553863 L508.83715415991253 2611.2017049192136" />
    <path d="M508.83715415991253 2611.2017049192136 L953.2134115960848 1453.5619760626837" />
    <path d="M957.6677277964588 1467.0558920736282 L2113.357485707129 1916.4790595454183" />
    <path d="M2113.357485707129 1916.4790595454183 L1663.934318235339 3072.1688174560877" />
    <path d="M1663.934318235339 3072.1688174560877 L508.2445603246689 2622.7456499842983" />
    <path d="M508.2445603246689 2622.7456499842983 L957.6677277964588 1467.0558920736282" />
    <path d="M962.006588568521 1480.5938440628504 L2115.7243728662315 1935.0553652009792" />
    <path d="M2115.7243728662315 1935.0553652009792 L1661.2628517281032 3088.7731494986892" />
    <path d="M1661.2628517281032 3088.7731494986892 L507.54506743039246 2634.3116283605605" />
    <path d="M507.54506743039246 2634.3116283605605 L962.006588568521 1480.5938440628504" />
    <path d="M966.2296955071886 1494.1750809287732 L2117.9535410683748 1953.6663034409703" />
    <path d="M2117.9535410683748 1953.6663034409703 L1658.462318556178 3105.3901490021562" />
    <path d="M1658.462318556178 3105.3901490021562 L506.7384729949917 2645.898926489959" />
    <path d="M506.7384729949917 2645.898926489959 L966.2296955071886 1494.1750809287732" />
    <path d="M970.3367545658941 1507.798849808835 L2120.0447342287107 1972.311025644566" />
    <path d="M2120.0447342287107 1972.311025644566 L1655.5325583929798 3122.019005307382" />
    <path d="M1655.5325583929798 3122.019005307382 L505.8245787301633 2657.506829471651" />
    <path d="M505.8245787301633 2657.506829471651 L970.3367545658941 1507.798849808835" />
    <path d="M974.3274760662525 1521.464396103233 L2121.9977010480347 1990.98868162025" />
    <path d="M2121.9977010480347 1990.98868162025 L1652.4734155310182 3138.658906602032" />
    <path d="M1652.4734155310182 3138.658906602032 L504.80319054923586 2669.134621085015" />
    <path d="M504.80319054923586 2669.134621085015 L974.3274760662525 1521.464396103233" />
  </g>
</svg>