<?xml version="1.0" standalone="no"?>
<!DOCTYPE svg PUBLIC "-//W3C//DTD SVG 1.1//EN" 
    "http://www.w3.org/Graphics/SVG/1.1/DTD/svg11.dtd">
<svg width="2480px" height="3508px"
    xmlns="http://www.w3.org/2000/svg" version="1.1" viewBox="0 0 2480 3508">
  <g fill="none" stroke="black" stroke-width="1.06299px">
    <path d="M620 1134 L1860 1134" />
    <path d="M1860 1134 L1860 2374" />
    <path d="M1860 2374 L620 2374" />
    <path d="M620 2374 L620 1134" />
    <path d="M1414.8009398130243 894.7883663261516 L2089.7070909990316 1537.6718707473217" />
    <path d="M2099.211633673848 1928.8009398130243 L1456.3281292526783 2603.7070909990316" />
    <path d="M1065.1990601869757 2613.211633673848 L390.2929090009684 1970.3281292526783" />
    <path d="M380.7883663261516 1579.1990601869757 L1023.6718707473217 904.2929090009684" />
    <path d="M1915.4038412349291 1194.8670540514513 L2061.351313387382 2060.890892658649" />
    <path d="M1799.1329459485487 2429.403841234929 L933.1091073413509 2575.351313387382" />
    <path d="M564.5961587650708 2313.1329459485487 L418.6486866126179 1447.1091073413509" />
    <path d="M680.8670540514514 1078.5961587650709 L1546.8908926586491 932.6486866126179" />
    <path d="M2105.9822154030503 1616.614401753222 L676.0521930763189 2425.3887629875635" />
    <path d="M1377.385598246778 2619.9822154030503 L568.6112370124367 1190.0521930763189" />
    <path d="M374.0177845969498 1891.385598246778 L1803.9478069236811 1082.6112370124367" />
    <path d="M1102.614401753222 888.0177845969498 L1911.3887629875633 2317.947806923681" />
    <path d="M2047.5423578329346 2095.577722203344 L1972.8182916949902 1272.5673968692645" />
    <path d="M898.4222777966562 2561.5423578329346 L1721.4326031307355 2486.81829169499" />
    <path d="M432.4576421670655 1412.422277796656 L507.1817083050098 2235.4326031307355" />
    <path d="M1581.577722203344 946.4576421670655 L758.5673968692645 1021.1817083050098" />
    <path d="M2044.5547916936005 2102.5564332541676 L1460.9163030840152 2602.5257727563094" />
    <path d="M891.4435667458324 2558.5547916936002 L391.47422724369085 1974.9163030840152" />
    <path d="M435.44520830639954 1405.4435667458324 L1019.0836969159848 905.4742272436908" />
    <path d="M1588.5564332541676 949.4452083063995 L2088.5257727563094 1533.0836969159848" />
    <path d="M2105.523954050548 1894.2436628326036 L363.34722114233887 1737.2696287805513" />
    <path d="M1099.7563371673964 2619.523954050548 L1256.7303712194487 877.3472211423389" />
    <path d="M374.4760459494521 1613.7563371673964 L2116.6527788576614 1770.7303712194487" />
    <path d="M1380.2436628326036 888.4760459494521 L1223.2696287805513 2630.6527788576614" />
    <path d="M664.3602700494667 1092.6083601205128 L1223.7893923889455 2630.6625440845983" />
    <path d="M1901.3916398794872 1178.3602700494666 L363.3374559154016 1737.7893923889455" />
    <path d="M1815.6397299505334 2415.3916398794872 L1256.2106076110545 877.3374559154016" />
    <path d="M578.6083601205129 2329.6397299505334 L2116.6625440845983 1770.2106076110545" />
    <path d="M2081.5231744319317 1507.7506408251904 L1778.5505403040318 1062.0727527129493" />
    <path d="M1486.2493591748096 2595.5231744319317 L1931.9272472870507 2292.5505403040315" />
    <path d="M398.4768255680681 2000.2493591748096 L701.4494596959682 2445.9272472870507" />
    <path d="M993.7506408251904 912.4768255680681 L548.0727527129493 1215.4494596959682" />
    <path d="M1075.7363226689547 2615.2882469357646 L1519.6625576844524 2585.016759054467" />
    <path d="M378.7117530642356 1589.7363226689547 L408.98324094553277 2033.6625576844524" />
    <path d="M1404.2636773310453 892.7117530642356 L960.3374423155476 922.9832409455328" />
    <path d="M2101.2882469357646 1918.2636773310453 L2071.016759054467 1474.3374423155476" />
    <path d="M2111.116345160426 1853.7813268820435 L832.8046113891235 2530.5255407866744" />
    <path d="M1140.2186731179565 2625.116345160426 L463.47445921332564 1346.8046113891235" />
    <path d="M368.88365483957386 1654.2186731179565 L1647.1953886108765 977.4744592133256" />
    <path d="M1339.7813268820435 882.8836548395739 L2016.5255407866744 2161.1953886108768" />
    <path d="M2081.5947973222264 1507.99553434915 L1865.103802938433 1139.1461673276253" />
    <path d="M1486.00446565085 2595.5947973222264 L1854.8538326723747 2379.103802938433" />
    <path d="M398.40520267777333 2000.00446565085 L614.8961970615668 2368.8538326723747" />
    <path d="M993.9955343491499 912.4052026777733 L625.1461673276252 1128.896197061567" />
    <path d="M1286.439876111443 2629.581714008895 L918.978732374142 938.0678056775262" />
    <path d="M364.4182859911052 1800.439876111443 L2055.932194322474 1432.978732374142" />
    <path d="M1193.560123888557 878.4182859911052 L1561.021267625858 2569.932194322474" />
    <path d="M2115.581714008895 1707.560123888557 L424.06780567752617 2075.021267625858" />
    <path d="M781.8194925756749 1006.4235004921651 L1856.7470166068765 1130.7639953384296" />
    <path d="M1987.5764995078348 1295.8194925756748 L1863.2360046615704 2370.7470166068765" />
    <path d="M1698.1805074243252 2501.576499507835 L623.2529833931234 2377.2360046615704" />
    <path d="M492.4235004921651 2212.1805074243252 L616.7639953384295 1137.2529833931235" />
    <path d="M1703.3094398068606 1009.5912661811033 L1359.4143970113475 885.3572645866332" />
    <path d="M1984.4087338188967 2217.3094398068606 L2108.6427354133666 1873.4143970113475" />
    <path d="M776.6905601931394 2498.4087338188965 L1120.5856029886525 2622.6427354133666" />
    <path d="M495.59126618110326 1290.6905601931394 L371.35726458663316 1634.5856029886525" />
    <path d="M1415.8730801665536 2612.9928170088087 L1521.4630886387167 2584.4086522513803" />
    <path d="M381.00718299119126 1929.8730801665536 L409.5913477486198 2035.4630886387167" />
    <path d="M1064.1269198334464 895.0071829911913 L958.5369113612832 923.5913477486198" />
    <path d="M2098.9928170088087 1578.1269198334464 L2070.4086522513803 1472.5369113612833" />
    <path d="M540.8540189759698 1224.8545594848742 L735.7351032108502 2471.2983436940503" />
    <path d="M1769.1454405151258 1054.8540189759697 L522.7016563059497 1249.7351032108502" />
    <path d="M1939.1459810240303 2283.1454405151258 L1744.2648967891498 1036.7016563059497" />
    <path d="M710.8545594848744 2453.1459810240303 L1957.2983436940503 2258.2648967891496" />
    <path d="M370.3481331224432 1642.1714238828902 L826.8356174242203 980.6338558155169" />
    <path d="M1351.8285761171098 884.3481331224432 L2013.3661441844831 1340.8356174242203" />
    <path d="M2109.651866877557 1865.8285761171098 L1653.1643825757797 2527.3661441844833" />
    <path d="M1128.1714238828902 2623.651866877557 L466.6338558155169 2167.1643825757797" />
    <path d="M1637.2416990626998 972.3357290205855 L1041.52299420531 899.9467942974661" />
    <path d="M2021.6642709794146 2151.2416990627 L2094.053205702534 1555.52299420531" />
    <path d="M842.7583009373003 2535.6642709794146 L1438.47700579469 2608.053205702534" />
    <path d="M458.3357290205855 1356.7583009373002 L385.9467942974661 1952.47700579469" />
    <path d="M2105.334807737919 1612.5939516244853 L991.6414381276843 913.0968993131758" />
    <path d="M1381.4060483755147 2619.334807737919 L2080.9031006868245 1505.6414381276843" />
    <path d="M374.66519226208084 1895.4060483755147 L1488.3585618723157 2594.9031006868245" />
    <path d="M1098.5939516244853 888.6651922620808 L399.09689931317575 2002.3585618723157" />
    <path d="M508.31649002554946 2237.1555041924576 L383.398311172272 1566.827494814318" />
    <path d="M756.8444958075422 1022.3164900255495 L1427.172505185682 897.398311172272" />
    <path d="M1971.6835099744505 1270.8444958075422 L2096.601688827728 1941.172505185682" />
    <path d="M1723.1555041924578 2485.6835099744503 L1052.827494814318 2610.601688827728" />
    <path d="M698.1696228608653 2443.3619096013813 L1890.5217482898997 2341.895785834405" />
    <path d="M550.6380903986187 1212.1696228608653 L652.104214165595 2404.5217482898997" />
    <path d="M1781.8303771391347 1064.6380903986187 L589.4782517101004 1166.1042141655948" />
    <path d="M1929.3619096013813 2295.8303771391347 L1827.8957858344052 1103.4782517101003" />
    <path d="M1936.0217359818153 1220.7517060122364 L1412.011067651686 894.2254989793388" />
    <path d="M1773.2482939877636 2450.0217359818153 L2099.7745010206613 1926.011067651686" />
    <path d="M543.9782640181847 2287.2482939877636 L1067.988932348314 2613.7745010206613" />
    <path d="M706.7517060122364 1057.9782640181847 L380.2254989793388 1581.988932348314" />
    <path d="M426.4450047930809 1427.001116555622 L1870.4108087583186 1144.588634664004" />
    <path d="M1566.998883444378 940.4450047930809 L1849.411365335996 2384.4108087583186" />
    <path d="M2053.554995206919 2080.998883444378 L609.5891912416813 2363.411365335996" />
    <path d="M913.001116555622 2567.554995206919 L630.5886346640042 1123.5891912416814" />
    <path d="M1338.780271014968 882.7695723528652 L990.8862913215594 913.3202987174764" />
    <path d="M2111.230427647135 1852.780271014968 L2080.6797012825236 1504.8862913215594" />
    <path d="M1141.219728985032 2625.230427647135 L1489.1137086784406 2594.6797012825236" />
    <path d="M368.7695723528652 1655.219728985032 L399.32029871747636 2003.1137086784406" />
    <path d="M1190.1788123857505 878.6041756641138 L1850.8051963915354 1124.9395799598437" />
    <path d="M2115.395824335886 1704.1788123857505 L1869.0604200401563 2364.8051963915354" />
    <path d="M1289.8211876142495 2629.395824335886 L629.1948036084646 2383.0604200401563" />
    <path d="M364.60417566411377 1803.8211876142495 L610.9395799598437 1143.1948036084646" />
    <path d="M1892.9403537121036 1168.7915802944108 L529.6366236971268 1240.0117962369345" />
    <path d="M1825.2084197055892 2406.9403537121034 L1753.9882037630655 1043.6366236971267" />
    <path d="M587.0596462878964 2339.208419705589 L1950.3633763028733 2267.9882037630655" />
    <path d="M654.7915802944108 1101.0596462878964 L726.0117962369346 2464.3633763028733" />
    <path d="M1132.3068514728077 883.8263473534148 L2106.9760250147265 1884.9678283001763" />
    <path d="M2110.173652646585 1646.3068514728077 L1109.0321716998237 2620.9760250147265" />
    <path d="M1347.6931485271923 2624.173652646585 L373.0239749852735 1623.0321716998237" />
    <path d="M369.8263473534148 1861.6931485271923 L1370.9678283001763 887.0239749852735" />
    <path d="M2114.7150127458526 1693.3893864325478 L837.3030056298662 2532.8678519012456" />
    <path d="M1300.6106135674522 2628.7150127458526 L461.13214809875444 1351.3030056298662" />
    <path d="M365.2849872541474 1814.6106135674522 L1642.6969943701338 975.1321480987544" />
    <path d="M1179.3893864325478 879.2849872541474 L2018.8678519012456 2156.696994370134" />
    <path d="M1630.130038200542 968.7621040132847 L1526.8385193070103 2582.5672355589268" />
    <path d="M2025.2378959867153 2144.130038200542 L411.43276444107335 2040.8385193070103" />
    <path d="M849.869961799458 2539.2378959867156 L953.1614806929896 925.4327644410733" />
    <path d="M454.76210401328467 1363.869961799458 L2068.5672355589268 1467.1614806929897" />
    <path d="M1462.4983506391177 905.8876937793721 L1502.3542012521636 2590.642261116028" />
    <path d="M2088.112306220628 1976.4983506391177 L403.3577388839724 2016.3542012521636" />
    <path d="M1017.5016493608823 2602.112306220628 L977.6457987478364 917.3577388839724" />
    <path d="M391.88769377937206 1531.5016493608823 L2076.642261116028 1491.6457987478364" />
    <path d="M1389.765092528297 890.0726783693024 L932.8687360672845 2575.2614606293737" />
    <path d="M2103.9273216306974 1903.765092528297 L418.7385393706261 1446.8687360672845" />
    <path d="M1090.234907471703 2617.9273216306974 L1547.1312639327155 932.7385393706261" />
    <path d="M376.07267836930237 1604.234907471703 L2061.2614606293737 2061.1312639327152" />
    <path d="M912.1376779387454 2567.2074137467034 L1309.3209578358408 879.9321509146321" />
    <path d="M426.7925862532966 1426.1376779387454 L2114.067849085368 1823.3209578358408" />
    <path d="M1567.8623220612546 940.7925862532966 L1170.6790421641592 2628.067849085368" />
    <path d="M2053.2074137467034 2081.8623220612544 L365.9321509146321 1684.6790421641592" />
    <path d="M1775.4960070762052 1059.7060950826078 L1042.3549327896123 2608.2461164134147" />
    <path d="M1934.2939049173922 2289.4960070762054 L385.7538835865853 1556.3549327896123" />
    <path d="M704.5039929237948 2448.293904917392 L1437.6450672103877 899.7538835865853" />
    <path d="M545.7060950826078 1218.5039929237948 L2094.2461164134147 1951.6450672103877" />
    <path d="M1952.9818760137755 2264.3497276141893 L417.68980823916127 2058.3122549721793" />
    <path d="M729.6502723858108 2466.9818760137755 L935.6877450278207 931.6898082391613" />
    <path d="M527.0181239862244 1243.6502723858107 L2062.3101917608387 1449.6877450278207" />
    <path d="M1750.3497276141893 1041.0181239862245 L1544.3122549721793 2576.3101917608387" />
    <path d="M991.3956754823947 913.1695237260097 L1639.0710361218237 2534.731905412257" />
    <path d="M2080.8304762739904 1505.3956754823948 L459.26809458774255 2153.0710361218235" />
    <path d="M1488.6043245176052 2594.8304762739904 L840.9289638781763 973.2680945877426" />
    <path d="M399.16952372600974 2002.6043245176052 L2020.7319054122574 1354.9289638781763" />
    <path d="M1866.3374161356187 2367.597132611094 L823.8734990629873 2525.7763505173752" />
    <path d="M626.4028673889059 2380.3374161356187 L468.22364948262475 1337.8734990629873" />
    <path d="M613.6625838643813 1140.4028673889059 L1656.1265009370127 982.2236494826248" />
    <path d="M1853.5971326110941 1127.6625838643813 L2011.7763505173752 2170.1265009370127" />
    <path d="M2079.609622857899 2006.696816767479 L1767.7794995891481 2454.177691599374" />
    <path d="M987.303183232521 2593.609622857899 L539.8223084006258 2281.779499589148" />
    <path d="M400.390377142101 1501.303183232521 L712.2205004108519 1053.8223084006258" />
    <path d="M1492.696816767479 914.390377142101 L1940.1776915993742 1226.2205004108519" />
    <path d="M2109.880520148531 1864.035815378999 L2048.6225601400656 1414.987381897773" />
    <path d="M1129.964184621001 2623.880520148531 L1579.012618102227 2562.6225601400656" />
    <path d="M370.1194798514689 1643.964184621001 L431.3774398599346 2093.012618102227" />
    <path d="M1350.035815378999 884.1194798514689 L900.987381897773 945.3774398599346" />
    <path d="M2059.721118622978 1442.7809651009532 L719.7170136195924 2459.7659768528692" />
    <path d="M1551.2190348990468 2573.721118622978 L534.2340231471309 1233.7170136195923" />
    <path d="M420.27888137702234 2065.219034899047 L1760.2829863804077 1048.2340231471308" />
    <path d="M928.7809651009532 934.2788813770223 L1945.7659768528692 2274.2829863804077" />
    <path d="M1099.715786788087 888.4826174342224 L425.94519616495074 1428.247369384253" />
    <path d="M2105.5173825657776 1613.715786788087 L1565.752630615747 939.9451961649507" />
    <path d="M1380.284213211913 2619.5173825657776 L2054.0548038350494 2079.752630615747" />
    <path d="M374.48261743422245 1894.284213211913 L914.2473693842529 2568.0548038350494" />
    <path d="M618.124005074716 2372.118311438586 L719.7163405405868 2459.7654806658666" />
    <path d="M621.8816885614144 1132.124005074716 L534.2345193341337 1233.7163405405868" />
    <path d="M1861.875994925284 1135.8816885614144 L1760.2836594594132 1048.2345193341337" />
    <path d="M1858.1183114385856 2375.875994925284 L1945.7654806658663 2274.2836594594132" />
    <path d="M472.46179095653906 1330.1072097117521 L1952.7632395848527 1243.3449654644478" />
    <path d="M1663.8927902882479 986.4617909565391 L1750.6550345355522 2466.7632395848527" />
    <path d="M2007.538209043461 2177.892790288248 L527.2367604151474 2264.655034535552" />
    <path d="M816.1072097117521 2521.538209043461 L729.3449654644478 1041.2367604151473" />
    <path d="M374.2407834547032 1615.216070934442 L1487.6648651540836 912.8923287900593" />
    <path d="M1378.783929065558 888.2407834547032 L2081.1076712099407 2001.6648651540836" />
    <path d="M2105.759216545297 1892.783929065558 L992.3351348459164 2595.1076712099407" />
    <path d="M1101.216070934442 2619.759216545297 L398.8923287900593 1506.3351348459164" />
    <path d="M2077.970365596455 2012.0807361701832 L1628.3173002493318 967.864086606476" />
    <path d="M981.9192638298168 2591.970365596455 L2026.1359133935239 2142.3173002493318" />
    <path d="M402.02963440354506 1495.9192638298168 L851.6826997506683 2540.135913393524" />
    <path d="M1498.0807361701832 916.0296344035451 L453.864086606476 1365.6826997506682" />
  </g>
</svg>