<?xml version="1.0" standalone="no"?>
<!DOCTYPE svg PUBLIC "-//W3C//DTD SVG 1.1//EN" 
    "http://www.w3.org/Graphics/SVG/1.1/DTD/svg11.dtd">
<svg width="10cm" height="15cm"
    xmlns="http://www.w3.org/2000/svg" version="1.1" viewBox="0 0 354.33071 531.49606">
  <g fill="none" stroke="black" stroke-width="0.03cm">
    <path d="M72.5106 47.96184 L56.56571 75.57919" />
    <path d="M56.56571 75.57919 L28.94837 59.63431" />
    <path d="M28.94837 59.63431 L44.89325 32.01696" />
    <path d="M44.89325 32.01696 L72.5106 47.96184" />
    <path d="M72.67985 84.07376 L55.78085 111.11782" />
    <path d="M55.78085 111.11782 L28.7368 94.21882" />
    <path d="M28.7368 94.21882 L45.6358 67.17476" />
    <path d="M45.6358 67.17476 L72.67985 84.07376" />
    <path d="M72.82531 120.19118 L54.99278 146.62899" />
    <path d="M54.99278 146.62899 L28.55497 128.79646" />
    <path d="M28.55497 128.79646 L46.3875 102.35865" />
    <path d="M46.3875 102.35865 L72.82531 120.19118" />
    <path d="M72.9468 156.31325 L54.20247 182.11261" />
    <path d="M54.20247 182.11261 L28.40311 163.36828" />
    <path d="M28.40311 163.36828 L47.14744 137.56892" />
    <path d="M47.14744 137.56892 L72.9468 156.31325" />
    <path d="M73.04417 192.43914 L53.41087 217.56862" />
    <path d="M53.41087 217.56862 L28.2814 197.93532" />
    <path d="M28.2814 197.93532 L47.9147 172.80585" />
    <path d="M47.9147 172.80585 L73.04417 192.43914" />
    <path d="M73.1173 228.56801 L52.61896 252.99699" />
    <path d="M52.61896 252.99699 L28.18998 232.49864" />
    <path d="M28.18998 232.49864 L48.68833 208.06967" />
    <path d="M48.68833 208.06967 L73.1173 228.56801" />
    <path d="M73.16611 264.69901 L51.82769 288.39772" />
    <path d="M51.82769 288.39772 L28.12898 267.05931" />
    <path d="M28.12898 267.05931 L49.4674 243.36059" />
    <path d="M49.4674 243.36059 L73.16611 264.69901" />
    <path d="M73.19053 300.83129 L51.03803 323.77086" />
    <path d="M51.03803 323.77086 L28.09846 301.61837" />
    <path d="M28.09846 301.61837 L50.25095 278.6788" />
    <path d="M50.25095 278.6788 L73.19053 300.83129" />
    <path d="M73.19053 336.96399 L50.25095 359.11648" />
    <path d="M50.25095 359.11648 L28.09846 336.1769" />
    <path d="M28.09846 336.1769 L51.03803 314.02441" />
    <path d="M51.03803 314.02441 L73.19053 336.96399" />
    <path d="M73.16611 373.09626 L49.4674 394.43468" />
    <path d="M49.4674 394.43468 L28.12898 370.73597" />
    <path d="M28.12898 370.73597 L51.82769 349.39755" />
    <path d="M51.82769 349.39755 L73.16611 373.09626" />
    <path d="M73.1173 409.22726 L48.68833 429.72561" />
    <path d="M48.68833 429.72561 L28.18998 405.29663" />
    <path d="M28.18998 405.29663 L52.61896 384.79829" />
    <path d="M52.61896 384.79829 L73.1173 409.22726" />
    <path d="M73.04417 445.35613 L47.9147 464.98943" />
    <path d="M47.9147 464.98943 L28.2814 439.85995" />
    <path d="M28.2814 439.85995 L53.41087 420.22665" />
    <path d="M53.41087 420.22665 L73.04417 445.35613" />
    <path d="M72.9468 481.48202 L47.14744 500.22636" />
    <path d="M47.14744 500.22636 L28.40311 474.427" />
    <path d="M28.40311 474.427 L54.20247 455.68266" />
    <path d="M54.20247 455.68266 L72.9468 481.48202" />
    <path d="M108.11292 48.64069 L91.21392 75.68475" />
    <path d="M91.21392 75.68475 L64.16987 58.78575" />
    <path d="M64.16987 58.78575 L81.06887 31.74169" />
    <path d="M81.06887 31.74169 L108.11292 48.64069" />
    <path d="M108.25838 84.75811 L90.42586 111.19592" />
    <path d="M90.42586 111.19592 L63.98804 93.36339" />
    <path d="M63.98804 93.36339 L81.82057 66.92558" />
    <path d="M81.82057 66.92558 L108.25838 84.75811" />
    <path d="M108.37987 120.88018 L89.63554 146.67954" />
    <path d="M89.63554 146.67954 L63.83618 127.93521" />
    <path d="M63.83618 127.93521 L82.58051 102.13585" />
    <path d="M82.58051 102.13585 L108.37987 120.88018" />
    <path d="M108.47724 157.00607 L88.84395 182.13555" />
    <path d="M88.84395 182.13555 L63.71447 162.50225" />
    <path d="M63.71447 162.50225 L83.34777 137.37277" />
    <path d="M83.34777 137.37277 L108.47724 157.00607" />
    <path d="M108.55038 193.13494 L88.05203 217.56392" />
    <path d="M88.05203 217.56392 L63.62305 197.06557" />
    <path d="M63.62305 197.06557 L84.1214 172.6366" />
    <path d="M84.1214 172.6366 L108.55038 193.13494" />
    <path d="M108.59918 229.26594 L87.26076 252.96465" />
    <path d="M87.26076 252.96465 L63.56205 231.62624" />
    <path d="M63.56205 231.62624 L84.90047 207.92752" />
    <path d="M84.90047 207.92752 L108.59918 229.26594" />
    <path d="M108.6236 265.39822 L86.4711 288.33779" />
    <path d="M86.4711 288.33779 L63.53153 266.1853" />
    <path d="M63.53153 266.1853 L85.68402 243.24572" />
    <path d="M85.68402 243.24572 L108.6236 265.39822" />
    <path d="M108.6236 301.53092 L85.68402 323.68341" />
    <path d="M85.68402 323.68341 L63.53153 300.74383" />
    <path d="M63.53153 300.74383 L86.4711 278.59134" />
    <path d="M86.4711 278.59134 L108.6236 301.53092" />
    <path d="M108.59918 337.66319 L84.90047 359.00161" />
    <path d="M84.90047 359.00161 L63.56205 335.3029" />
    <path d="M63.56205 335.3029 L87.26076 313.96448" />
    <path d="M87.26076 313.96448 L108.59918 337.66319" />
    <path d="M108.55038 373.79419 L84.1214 394.29254" />
    <path d="M84.1214 394.29254 L63.62305 369.86356" />
    <path d="M63.62305 369.86356 L88.05203 349.36522" />
    <path d="M88.05203 349.36522 L108.55038 373.79419" />
    <path d="M108.47724 409.92306 L83.34777 429.55636" />
    <path d="M83.34777 429.55636 L63.71447 404.42688" />
    <path d="M63.71447 404.42688 L88.84395 384.79358" />
    <path d="M88.84395 384.79358 L108.47724 409.92306" />
    <path d="M108.37987 446.04895 L82.58051 464.79329" />
    <path d="M82.58051 464.79329 L63.83618 438.99393" />
    <path d="M63.83618 438.99393 L89.63554 420.24959" />
    <path d="M89.63554 420.24959 L108.37987 446.04895" />
    <path d="M108.25838 482.17103 L81.82057 500.00356" />
    <path d="M81.82057 500.00356 L63.98804 473.56574" />
    <path d="M63.98804 473.56574 L90.42586 455.73321" />
    <path d="M90.42586 455.73321 L108.25838 482.17103" />
    <path d="M143.69146 49.32504 L125.85893 75.76285" />
    <path d="M125.85893 75.76285 L99.42111 57.93032" />
    <path d="M99.42111 57.93032 L117.25364 31.49251" />
    <path d="M117.25364 31.49251 L143.69146 49.32504" />
    <path d="M143.81295 85.44711 L125.06861 111.24647" />
    <path d="M125.06861 111.24647 L99.26925 92.50214" />
    <path d="M99.26925 92.50214 L118.01358 66.70278" />
    <path d="M118.01358 66.70278 L143.81295 85.44711" />
    <path d="M143.91032 121.573 L124.27702 146.70248" />
    <path d="M124.27702 146.70248 L99.14754 127.06918" />
    <path d="M99.14754 127.06918 L118.78084 101.9397" />
    <path d="M118.78084 101.9397 L143.91032 121.573" />
    <path d="M143.98345 157.70187 L123.4851 182.13085" />
    <path d="M123.4851 182.13085 L99.05613 161.6325" />
    <path d="M99.05613 161.6325 L119.55447 137.20353" />
    <path d="M119.55447 137.20353 L143.98345 157.70187" />
    <path d="M144.03225 193.83287 L122.69383 217.53158" />
    <path d="M122.69383 217.53158 L98.99512 196.19317" />
    <path d="M98.99512 196.19317 L120.33354 172.49445" />
    <path d="M120.33354 172.49445 L144.03225 193.83287" />
    <path d="M144.05667 229.96515 L121.90418 252.90472" />
    <path d="M121.90418 252.90472 L98.9646 230.75223" />
    <path d="M98.9646 230.75223 L121.11709 207.81265" />
    <path d="M121.11709 207.81265 L144.05667 229.96515" />
    <path d="M144.05667 266.09785 L121.11709 288.25034" />
    <path d="M121.11709 288.25034 L98.9646 265.31076" />
    <path d="M98.9646 265.31076 L121.90418 243.15827" />
    <path d="M121.90418 243.15827 L144.05667 266.09785" />
    <path d="M144.03225 302.23012 L120.33354 323.56854" />
    <path d="M120.33354 323.56854 L98.99512 299.86983" />
    <path d="M98.99512 299.86983 L122.69383 278.53141" />
    <path d="M122.69383 278.53141 L144.03225 302.23012" />
    <path d="M143.98345 338.36112 L119.55447 358.85947" />
    <path d="M119.55447 358.85947 L99.05613 334.43049" />
    <path d="M99.05613 334.43049 L123.4851 313.93214" />
    <path d="M123.4851 313.93214 L143.98345 338.36112" />
    <path d="M143.91032 374.48999 L118.78084 394.12329" />
    <path d="M118.78084 394.12329 L99.14754 368.99381" />
    <path d="M99.14754 368.99381 L124.27702 349.36051" />
    <path d="M124.27702 349.36051 L143.91032 374.48999" />
    <path d="M143.81295 410.61588 L118.01358 429.36022" />
    <path d="M118.01358 429.36022 L99.26925 403.56085" />
    <path d="M99.26925 403.56085 L125.06861 384.81652" />
    <path d="M125.06861 384.81652 L143.81295 410.61588" />
    <path d="M143.69146 446.73796 L117.25364 464.57049" />
    <path d="M117.25364 464.57049 L99.42111 438.13267" />
    <path d="M99.42111 438.13267 L125.85893 420.30014" />
    <path d="M125.85893 420.30014 L143.69146 446.73796" />
    <path d="M143.54599 482.85537 L116.50194 499.75437" />
    <path d="M116.50194 499.75437 L99.60294 472.71032" />
    <path d="M99.60294 472.71032 L126.64699 455.81132" />
    <path d="M126.64699 455.81132 L143.54599 482.85537" />
    <path d="M179.24602 50.01404 L160.50168 75.8134" />
    <path d="M160.50168 75.8134 L134.70232 57.06907" />
    <path d="M134.70232 57.06907 L153.44666 31.26971" />
    <path d="M153.44666 31.26971 L179.24602 50.01404" />
    <path d="M179.34339 86.13993 L159.71009 111.26941" />
    <path d="M159.71009 111.26941 L134.58061 91.63611" />
    <path d="M134.58061 91.63611 L154.21391 66.50663" />
    <path d="M154.21391 66.50663 L179.34339 86.13993" />
    <path d="M179.41652 122.2688 L158.91817 146.69778" />
    <path d="M158.91817 146.69778 L134.4892 126.19943" />
    <path d="M134.4892 126.19943 L154.98754 101.77046" />
    <path d="M154.98754 101.77046 L179.41652 122.2688" />
    <path d="M179.46532 158.3998 L158.1269 182.09851" />
    <path d="M158.1269 182.09851 L134.42819 160.76009" />
    <path d="M134.42819 160.76009 L155.76661 137.06138" />
    <path d="M155.76661 137.06138 L179.46532 158.3998" />
    <path d="M179.48974 194.53207 L157.33725 217.47165" />
    <path d="M157.33725 217.47165 L134.39767 195.31916" />
    <path d="M134.39767 195.31916 L156.55016 172.37958" />
    <path d="M156.55016 172.37958 L179.48974 194.53207" />
    <path d="M179.48974 230.66478 L156.55016 252.81727" />
    <path d="M156.55016 252.81727 L134.39767 229.87769" />
    <path d="M134.39767 229.87769 L157.33725 207.7252" />
    <path d="M157.33725 207.7252 L179.48974 230.66478" />
    <path d="M179.46532 266.79705 L155.76661 288.13547" />
    <path d="M155.76661 288.13547 L134.42819 264.43676" />
    <path d="M134.42819 264.43676 L158.1269 243.09834" />
    <path d="M158.1269 243.09834 L179.46532 266.79705" />
    <path d="M179.41652 302.92805 L154.98754 323.42639" />
    <path d="M154.98754 323.42639 L134.4892 298.99742" />
    <path d="M134.4892 298.99742 L158.91817 278.49907" />
    <path d="M158.91817 278.49907 L179.41652 302.92805" />
    <path d="M179.34339 339.05692 L154.21391 358.69022" />
    <path d="M154.21391 358.69022 L134.58061 333.56074" />
    <path d="M134.58061 333.56074 L159.71009 313.92744" />
    <path d="M159.71009 313.92744 L179.34339 339.05692" />
    <path d="M179.24602 375.18281 L153.44666 393.92714" />
    <path d="M153.44666 393.92714 L134.70232 368.12778" />
    <path d="M134.70232 368.12778 L160.50168 349.38345" />
    <path d="M160.50168 349.38345 L179.24602 375.18281" />
    <path d="M179.12453 411.30489 L152.68671 429.13741" />
    <path d="M152.68671 429.13741 L134.85418 402.6996" />
    <path d="M134.85418 402.6996 L161.292 384.86707" />
    <path d="M161.292 384.86707 L179.12453 411.30489" />
    <path d="M178.97906 447.4223 L151.93501 464.3213" />
    <path d="M151.93501 464.3213 L135.03601 437.27725" />
    <path d="M135.03601 437.27725 L162.08006 420.37824" />
    <path d="M162.08006 420.37824 L178.97906 447.4223" />
    <path d="M178.80981 483.53422 L151.19246 499.4791" />
    <path d="M151.19246 499.4791 L135.24758 471.86175" />
    <path d="M135.24758 471.86175 L162.86493 455.91687" />
    <path d="M162.86493 455.91687 L178.80981 483.53422" />
    <path d="M214.77646 50.70686 L195.14316 75.83634" />
    <path d="M195.14316 75.83634 L170.01368 56.20304" />
    <path d="M170.01368 56.20304 L189.64698 31.07356" />
    <path d="M189.64698 31.07356 L214.77646 50.70686" />
    <path d="M214.84959 86.83573 L194.35124 111.26471" />
    <path d="M194.35124 111.26471 L169.92227 90.76636" />
    <path d="M169.92227 90.76636 L190.42061 66.33738" />
    <path d="M190.42061 66.33738 L214.84959 86.83573" />
    <path d="M214.89839 122.96673 L193.55997 146.66544" />
    <path d="M193.55997 146.66544 L169.86126 125.32702" />
    <path d="M169.86126 125.32702 L191.19968 101.62831" />
    <path d="M191.19968 101.62831 L214.89839 122.96673" />
    <path d="M214.92281 159.099 L192.77032 182.03858" />
    <path d="M192.77032 182.03858 L169.83074 159.88609" />
    <path d="M169.83074 159.88609 L191.98323 136.94651" />
    <path d="M191.98323 136.94651 L214.92281 159.099" />
    <path d="M214.92281 195.23171 L191.98323 217.3842" />
    <path d="M191.98323 217.3842 L169.83074 194.44462" />
    <path d="M169.83074 194.44462 L192.77032 172.29213" />
    <path d="M192.77032 172.29213 L214.92281 195.23171" />
    <path d="M214.89839 231.36398 L191.19968 252.7024" />
    <path d="M191.19968 252.7024 L169.86126 229.00369" />
    <path d="M169.86126 229.00369 L193.55997 207.66527" />
    <path d="M193.55997 207.66527 L214.89839 231.36398" />
    <path d="M214.84959 267.49498 L190.42061 287.99332" />
    <path d="M190.42061 287.99332 L169.92227 263.56435" />
    <path d="M169.92227 263.56435 L194.35124 243.066" />
    <path d="M194.35124 243.066 L214.84959 267.49498" />
    <path d="M214.77646 303.62385 L189.64698 323.25715" />
    <path d="M189.64698 323.25715 L170.01368 298.12767" />
    <path d="M170.01368 298.12767 L195.14316 278.49437" />
    <path d="M195.14316 278.49437 L214.77646 303.62385" />
    <path d="M214.67909 339.74974 L188.87973 358.49407" />
    <path d="M188.87973 358.49407 L170.13539 332.69471" />
    <path d="M170.13539 332.69471 L195.93475 313.95038" />
    <path d="M195.93475 313.95038 L214.67909 339.74974" />
    <path d="M214.5576 375.87181 L188.11978 393.70434" />
    <path d="M188.11978 393.70434 L170.28726 367.26653" />
    <path d="M170.28726 367.26653 L196.72507 349.434" />
    <path d="M196.72507 349.434 L214.5576 375.87181" />
    <path d="M214.41214 411.98923 L187.36808 428.88823" />
    <path d="M187.36808 428.88823 L170.46908 401.84417" />
    <path d="M170.46908 401.84417 L197.51314 384.94517" />
    <path d="M197.51314 384.94517 L214.41214 411.98923" />
    <path d="M214.24288 448.10115 L186.62553 464.04603" />
    <path d="M186.62553 464.04603 L170.68065 436.42868" />
    <path d="M170.68065 436.42868 L198.298 420.4838" />
    <path d="M198.298 420.4838 L214.24288 448.10115" />
    <path d="M214.05004 484.20675 L185.89305 499.17808" />
    <path d="M185.89305 499.17808 L170.92171 471.02109" />
    <path d="M170.92171 471.02109 L199.0787 456.04976" />
    <path d="M199.0787 456.04976 L214.05004 484.20675" />
    <path d="M250.28266 51.40266 L229.78431 75.83164" />
    <path d="M229.78431 75.83164 L205.35534 55.33329" />
    <path d="M205.35534 55.33329 L225.85368 30.90431" />
    <path d="M225.85368 30.90431 L250.28266 51.40266" />
    <path d="M250.33146 87.53366 L228.99305 111.23237" />
    <path d="M228.99305 111.23237 L205.29433 89.89395" />
    <path d="M205.29433 89.89395 L226.63275 66.19524" />
    <path d="M226.63275 66.19524 L250.33146 87.53366" />
    <path d="M250.35588 123.66593 L228.20339 146.60551" />
    <path d="M228.20339 146.60551 L205.26381 124.45302" />
    <path d="M205.26381 124.45302 L227.4163 101.51344" />
    <path d="M227.4163 101.51344 L250.35588 123.66593" />
    <path d="M250.35588 159.79863 L227.4163 181.95113" />
    <path d="M227.4163 181.95113 L205.26381 159.01155" />
    <path d="M205.26381 159.01155 L228.20339 136.85906" />
    <path d="M228.20339 136.85906 L250.35588 159.79863" />
    <path d="M250.33146 195.93091 L226.63275 217.26933" />
    <path d="M226.63275 217.26933 L205.29433 193.57061" />
    <path d="M205.29433 193.57061 L228.99305 172.2322" />
    <path d="M228.99305 172.2322 L250.33146 195.93091" />
    <path d="M250.28266 232.06191 L225.85368 252.56025" />
    <path d="M225.85368 252.56025 L205.35534 228.13128" />
    <path d="M205.35534 228.13128 L229.78431 207.63293" />
    <path d="M229.78431 207.63293 L250.28266 232.06191" />
    <path d="M250.20953 268.19078 L225.08005 287.82408" />
    <path d="M225.08005 287.82408 L205.44675 262.6946" />
    <path d="M205.44675 262.6946 L230.57623 243.0613" />
    <path d="M230.57623 243.0613 L250.20953 268.19078" />
    <path d="M250.11216 304.31667 L224.3128 323.061" />
    <path d="M224.3128 323.061 L205.56846 297.26164" />
    <path d="M205.56846 297.26164 L231.36782 278.51731" />
    <path d="M231.36782 278.51731 L250.11216 304.31667" />
    <path d="M249.99067 340.43874 L223.55286 358.27127" />
    <path d="M223.55286 358.27127 L205.72033 331.83346" />
    <path d="M205.72033 331.83346 L232.15814 314.00093" />
    <path d="M232.15814 314.00093 L249.99067 340.43874" />
    <path d="M249.84521 376.55616 L222.80115 393.45516" />
    <path d="M222.80115 393.45516 L205.90215 366.4111" />
    <path d="M205.90215 366.4111 L232.94621 349.5121" />
    <path d="M232.94621 349.5121 L249.84521 376.55616" />
    <path d="M249.67595 412.66808 L222.05861 428.61296" />
    <path d="M222.05861 428.61296 L206.11372 400.99561" />
    <path d="M206.11372 400.99561 L233.73107 385.05073" />
    <path d="M233.73107 385.05073 L249.67595 412.66808" />
    <path d="M249.48311 448.77368 L221.32612 463.74501" />
    <path d="M221.32612 463.74501 L206.35478 435.58802" />
    <path d="M206.35478 435.58802 L234.51177 420.61669" />
    <path d="M234.51177 420.61669 L249.48311 448.77368" />
    <path d="M249.26691 484.87214 L220.60458 498.85169" />
    <path d="M220.60458 498.85169 L206.62503 470.18936" />
    <path d="M206.62503 470.18936 L235.28736 456.20981" />
    <path d="M235.28736 456.20981 L249.26691 484.87214" />
    <path d="M285.76453 52.10059 L264.42612 75.7993" />
    <path d="M264.42612 75.7993 L240.7274 54.46088" />
    <path d="M240.7274 54.46088 L262.06582 30.76217" />
    <path d="M262.06582 30.76217 L285.76453 52.10059" />
    <path d="M285.78895 88.23286 L263.63646 111.17244" />
    <path d="M263.63646 111.17244 L240.69688 89.01995" />
    <path d="M240.69688 89.01995 L262.84937 66.08037" />
    <path d="M262.84937 66.08037 L285.78895 88.23286" />
    <path d="M285.78895 124.36556 L262.84937 146.51805" />
    <path d="M262.84937 146.51805 L240.69688 123.57848" />
    <path d="M240.69688 123.57848 L263.63646 101.42599" />
    <path d="M263.63646 101.42599 L285.78895 124.36556" />
    <path d="M285.76453 160.49784 L262.06582 181.83626" />
    <path d="M262.06582 181.83626 L240.7274 158.13754" />
    <path d="M240.7274 158.13754 L264.42612 136.79913" />
    <path d="M264.42612 136.79913 L285.76453 160.49784" />
    <path d="M285.71573 196.62884 L261.28675 217.12718" />
    <path d="M261.28675 217.12718 L240.78841 192.69821" />
    <path d="M240.78841 192.69821 L265.21738 172.19986" />
    <path d="M265.21738 172.19986 L285.71573 196.62884" />
    <path d="M285.6426 232.75771 L260.51312 252.39101" />
    <path d="M260.51312 252.39101 L240.87982 227.26153" />
    <path d="M240.87982 227.26153 L266.0093 207.62823" />
    <path d="M266.0093 207.62823 L285.6426 232.75771" />
    <path d="M285.54523 268.8836 L259.74587 287.62793" />
    <path d="M259.74587 287.62793 L241.00153 261.82857" />
    <path d="M241.00153 261.82857 L266.8009 243.08424" />
    <path d="M266.8009 243.08424 L285.54523 268.8836" />
    <path d="M285.42374 305.00567 L258.98593 322.8382" />
    <path d="M258.98593 322.8382 L241.1534 296.40039" />
    <path d="M241.1534 296.40039 L267.59121 278.56786" />
    <path d="M267.59121 278.56786 L285.42374 305.00567" />
    <path d="M285.27828 341.12309 L258.23422 358.02209" />
    <path d="M258.23422 358.02209 L241.33522 330.97803" />
    <path d="M241.33522 330.97803 L268.37928 314.07903" />
    <path d="M268.37928 314.07903 L285.27828 341.12309" />
    <path d="M285.10902 377.23501 L257.49168 393.17989" />
    <path d="M257.49168 393.17989 L241.54679 365.56254" />
    <path d="M241.54679 365.56254 L269.16414 349.61766" />
    <path d="M269.16414 349.61766 L285.10902 377.23501" />
    <path d="M284.91618 413.34061 L256.75919 428.31194" />
    <path d="M256.75919 428.31194 L241.78785 400.15495" />
    <path d="M241.78785 400.15495 L269.94484 385.18361" />
    <path d="M269.94484 385.18361 L284.91618 413.34061" />
    <path d="M284.69998 449.43906 L256.03765 463.41862" />
    <path d="M256.03765 463.41862 L242.0581 434.75629" />
    <path d="M242.0581 434.75629 L270.72043 420.77673" />
    <path d="M270.72043 420.77673 L284.69998 449.43906" />
    <path d="M284.46069 485.52957 L255.32794 498.50031" />
    <path d="M255.32794 498.50031 L242.35721 469.36756" />
    <path d="M242.35721 469.36756 L271.48996 456.39682" />
    <path d="M271.48996 456.39682 L284.46069 485.52957" />
    <path d="M321.22202 52.79979 L299.06953 75.73937" />
    <path d="M299.06953 75.73937 L276.12995 53.58688" />
    <path d="M276.12995 53.58688 L298.28245 30.6473" />
    <path d="M298.28245 30.6473 L321.22202 52.79979" />
    <path d="M321.22202 88.93249 L298.28245 111.08498" />
    <path d="M298.28245 111.08498 L276.12995 88.14541" />
    <path d="M276.12995 88.14541 L299.06953 65.99292" />
    <path d="M299.06953 65.99292 L321.22202 88.93249" />
    <path d="M321.1976 125.06477 L297.49889 146.40319" />
    <path d="M297.49889 146.40319 L276.16047 122.70447" />
    <path d="M276.16047 122.70447 L299.85919 101.36606" />
    <path d="M299.85919 101.36606 L321.1976 125.06477" />
    <path d="M321.1488 161.19577 L296.71982 181.69411" />
    <path d="M296.71982 181.69411 L276.22148 157.26513" />
    <path d="M276.22148 157.26513 L300.65046 136.76679" />
    <path d="M300.65046 136.76679 L321.1488 161.19577" />
    <path d="M321.07567 197.32464 L295.94619 216.95793" />
    <path d="M295.94619 216.95793 L276.31289 191.82846" />
    <path d="M276.31289 191.82846 L301.44237 172.19516" />
    <path d="M301.44237 172.19516 L321.07567 197.32464" />
    <path d="M320.9783 233.45053 L295.17894 252.19486" />
    <path d="M295.17894 252.19486 L276.43461 226.3955" />
    <path d="M276.43461 226.3955 L302.23397 207.65117" />
    <path d="M302.23397 207.65117 L320.9783 233.45053" />
    <path d="M320.85681 269.5726 L294.419 287.40513" />
    <path d="M294.419 287.40513 L276.58647 260.96732" />
    <path d="M276.58647 260.96732 L303.02428 243.13479" />
    <path d="M303.02428 243.13479 L320.85681 269.5726" />
    <path d="M320.71135 305.69001 L293.66729 322.58902" />
    <path d="M293.66729 322.58902 L276.76829 295.54496" />
    <path d="M276.76829 295.54496 L303.81235 278.64596" />
    <path d="M303.81235 278.64596 L320.71135 305.69001" />
    <path d="M320.54209 341.80193 L292.92475 357.74682" />
    <path d="M292.92475 357.74682 L276.97986 330.12947" />
    <path d="M276.97986 330.12947 L304.59721 314.18459" />
    <path d="M304.59721 314.18459 L320.54209 341.80193" />
    <path d="M320.34925 377.90753 L292.19226 392.87887" />
    <path d="M292.19226 392.87887 L277.22092 364.72188" />
    <path d="M277.22092 364.72188 L305.37791 349.75054" />
    <path d="M305.37791 349.75054 L320.34925 377.90753" />
    <path d="M320.13305 414.00599 L291.47072 427.98555" />
    <path d="M291.47072 427.98555 L277.49117 399.32322" />
    <path d="M277.49117 399.32322 L306.1535 385.34366" />
    <path d="M306.1535 385.34366 L320.13305 414.00599" />
    <path d="M319.89376 450.0965 L290.76101 463.06724" />
    <path d="M290.76101 463.06724 L277.79028 433.93449" />
    <path d="M277.79028 433.93449 L306.92303 420.96375" />
    <path d="M306.92303 420.96375 L319.89376 450.0965" />
    <path d="M319.63168 486.17826 L290.064 498.12438" />
    <path d="M290.064 498.12438 L278.11789 468.5567" />
    <path d="M278.11789 468.5567 L307.68556 456.61059" />
    <path d="M307.68556 456.61059 L319.63168 486.17826" />
  </g>
</svg>