<?xml version="1.0" standalone="no"?>
<!DOCTYPE svg PUBLIC "-//W3C//DTD SVG 1.1//EN" 
    "http://www.w3.org/Graphics/SVG/1.1/DTD/svg11.dtd">
<svg width="21cm" height="29.7cm"
    xmlns="http://www.w3.org/2000/svg" version="1.1" viewBox="0 0 744.09449 1052.3622">
  <g fill="none" stroke="black" stroke-width="0.03cm">
    <path d="M212.59843 566.92913 L212.59843 212.59843" />
    <path d="M389.76378 35.43307 L389.76378 389.76378" />
    <path d="M226.77165 581.10236 L226.77165 226.77165" />
    <path d="M403.93701 49.6063 L403.93701 403.93701" />
    <path d="M240.94488 595.27559 L240.94488 240.94488" />
    <path d="M418.11024 63.77953 L418.11024 418.11024" />
    <path d="M255.11811 609.44882 L255.11811 255.11811" />
    <path d="M432.28346 77.95276 L432.28346 432.28346" />
    <path d="M269.29134 623.62205 L269.29134 269.29134" />
    <path d="M446.45669 92.12598 L446.45669 446.45669" />
    <path d="M283.46457 637.79528 L283.46457 283.46457" />
    <path d="M460.62992 106.29921 L460.62992 460.62992" />
    <path d="M297.6378 651.9685 L297.6378 297.6378" />
    <path d="M474.80315 120.47244 L474.80315 474.80315" />
    <path d="M311.81102 666.14173 L311.81102 311.81102" />
    <path d="M488.97638 134.64567 L488.97638 488.97638" />
    <path d="M325.98425 680.31496 L325.98425 325.98425" />
    <path d="M503.14961 148.8189 L503.14961 503.14961" />
    <path d="M340.15748 694.48819 L340.15748 340.15748" />
    <path d="M517.32283 162.99213 L517.32283 517.32283" />
    <path d="M354.33071 708.66142 L354.33071 354.33071" />
    <path d="M531.49606 177.16535 L531.49606 531.49606" />
  </g>
</svg>