<?xml version="1.0" standalone="no"?>
<!DOCTYPE svg PUBLIC "-//W3C//DTD SVG 1.1//EN" 
    "http://www.w3.org/Graphics/SVG/1.1/DTD/svg11.dtd">
<svg width="2480px" height="3508px"
    xmlns="http://www.w3.org/2000/svg" version="1.1" viewBox="0 0 2480 3508">
  <g fill="none" stroke="black" stroke-width="1.06299px">
    <path d="M0 -11.718655756865148 L2480 6.238115312521163" />
    <path d="M0 18.656398469831913 L2480 33.23464162201507" />
    <path d="M0 39.237397730966066 L2480 45.13553280040665" />
    <path d="M0 46.563315766688845 L2480 27.023122996134582" />
    <path d="M0 46.54999342533861 L2480 75.08314485057394" />
    <path d="M0 75.02269221176425 L2480 86.3007166178067" />
    <path d="M0 98.86362961129421 L2480 66.2141106929207" />
    <path d="M0 82.28133049408271 L2480 104.15635489795764" />
    <path d="M0 101.59544137366407 L2480 116.76880452529198" />
    <path d="M0 116.15505281173122 L2480 118.1131341998728" />
    <path d="M0 103.50689808639734 L2480 102.51156057077984" />
    <path d="M0 117.70151052975297 L2480 144.79257872007298" />
    <path d="M0 169.75698583371116 L2480 129.68482845192898" />
    <path d="M0 182.83202830186644 L2480 153.994190390151" />
    <path d="M0 172.05028654208584 L2480 163.85836944725548" />
    <path d="M0 163.03112025531286 L2480 177.527609563714" />
    <path d="M0 210.11424349903433 L2480 176.07357459451808" />
    <path d="M0 193.99485190671257 L2480 192.54320690433107" />
    <path d="M0 240.1518727679163 L2480 208.70960321666013" />
    <path d="M0 235.32257206465488 L2480 227.32653461979436" />
    <path d="M0 241.65814436625408 L2480 257.3001944816884" />
    <path d="M0 270.92046763234015 L2480 237.46924967624983" />
    <path d="M0 273.5671268103662 L2480 240.1152258670694" />
    <path d="M0 287.2864586242892 L2480 270.0112916269638" />
    <path d="M0 272.7033528998183 L2480 275.7210965126222" />
    <path d="M0 309.43031121345234 L2480 290.98018068517973" />
    <path d="M0 313.5258287144278 L2480 332.7654679388129" />
    <path d="M0 310.9255993734799 L2480 343.76042424172965" />
    <path d="M0 345.9295843610491 L2480 316.7497670711069" />
    <path d="M0 367.32808022947046 L2480 325.07102559215065" />
    <path d="M0 345.80412875696766 L2480 355.08093805766134" />
    <path d="M0 353.3690970286518 L2480 349.5044035540392" />
    <path d="M0 374.7293281366109 L2480 390.30058968163365" />
    <path d="M0 412.5223795315456 L2480 388.5898751087448" />
    <path d="M0 428.2675434117792 L2480 421.9293223921493" />
    <path d="M0 397.3352440956921 L2480 404.28450693178365" />
    <path d="M0 439.45786443911106 L2480 404.7845608633086" />
    <path d="M0 440.6599157517567 L2480 452.68032590620555" />
    <path d="M0 472.3477390570887 L2480 444.2542192143334" />
    <path d="M0 484.2136582712405 L2480 465.25559070118965" />
    <path d="M0 449.47886825527087 L2480 488.3252992145042" />
    <path d="M0 502.36041730971226 L2480 474.42018729232944" />
    <path d="M0 494.47790868105744 L2480 491.9538125463416" />
    <path d="M0 522.1455555530412 L2480 495.33302198904255" />
    <path d="M0 504.25196696075386 L2480 536.8253837148794" />
    <path d="M0 538.5752334371319 L2480 523.8869067699684" />
    <path d="M0 541.7298648795647 L2480 547.4559078385367" />
    <path d="M0 575.8036469039927 L2480 565.7510523544822" />
    <path d="M0 557.1631996001178 L2480 571.8420963159008" />
    <path d="M0 600.6532863397895 L2480 561.6458250864088" />
    <path d="M0 605.3009240403851 L2480 576.6889406175056" />
    <path d="M0 600.2725179213984 L2480 600.0928162696954" />
    <path d="M0 598.421798385433 L2480 613.1425600664977" />
    <path d="M0 631.0832221780821 L2480 621.9144319881892" />
    <path d="M0 625.7765516783994 L2480 643.561913800786" />
    <path d="M0 647.0214129887937 L2480 627.4155502413535" />
    <path d="M0 672.437433935737 L2480 658.5626038287157" />
    <path d="M0 654.7266964795299 L2480 686.4661445248399" />
    <path d="M0 695.3798012005103 L2480 686.2231357640474" />
    <path d="M0 686.1391837536388 L2480 717.5570855471796" />
    <path d="M0 683.1355018279361 L2480 704.1522813221948" />
    <path d="M0 697.2542065112414 L2480 719.694706628197" />
    <path d="M0 720.039590258623 L2480 723.1715089160291" />
    <path d="M0 747.1057931317031 L2480 718.1550880714036" />
    <path d="M0 746.9074586193841 L2480 778.0080894825726" />
    <path d="M0 764.9744590141873 L2480 761.1789901063698" />
    <path d="M0 800.9872802758829 L2480 779.9578955565323" />
    <path d="M0 798.664700300445 L2480 783.7840740154157" />
    <path d="M0 810.7515319373716 L2480 813.6614559431879" />
    <path d="M0 836.814919550726 L2480 836.0263606006631" />
    <path d="M0 840.0557262403603 L2480 835.4744462706192" />
    <path d="M0 837.0274002567799 L2480 838.8132359517003" />
    <path d="M0 869.2377678921725 L2480 872.4807427389659" />
    <path d="M0 836.1106737212326 L2480 883.6849851088025" />
    <path d="M0 886.0769207184055 L2480 890.8935084518632" />
    <path d="M0 876.9825754125403 L2480 866.6828462381754" />
    <path d="M0 897.2720635415417 L2480 885.6782877820101" />
    <path d="M0 903.6131665607512 L2480 919.198005393835" />
    <path d="M0 937.5363255736689 L2480 897.4817893223095" />
    <path d="M0 913.7068571603775 L2480 945.8006168948476" />
    <path d="M0 965.0010876800304 L2480 926.2545148756079" />
    <path d="M0 933.9630811906912 L2480 948.533402110469" />
    <path d="M0 983.972727442148 L2480 950.4152229207182" />
    <path d="M0 971.7115180709274 L2480 959.5071389625317" />
    <path d="M0 988.0301675603157 L2480 994.8767164617627" />
    <path d="M0 983.449575219347 L2480 989.7711471529389" />
    <path d="M0 1023.3198168951342 L2480 1024.6311782287935" />
    <path d="M0 1013.0005539502984 L2480 1040.6503962708568" />
    <path d="M0 1059.3862461327317 L2480 1058.6631954704417" />
    <path d="M0 1053.5986113709941 L2480 1031.0666192087647" />
    <path d="M0 1035.1582591790066 L2480 1049.3943964683303" />
    <path d="M0 1059.1999200010175 L2480 1067.8390265123494" />
    <path d="M0 1085.978729897399 L2480 1093.5161885520545" />
    <path d="M0 1097.780287122251 L2480 1074.8220482557138" />
    <path d="M0 1081.8151135684677 L2480 1110.2262157129762" />
    <path d="M0 1100.6875763535727 L2480 1123.5782068197477" />
    <path d="M0 1133.4929231262402 L2480 1109.6755936148509" />
    <path d="M0 1129.3129956717755 L2480 1145.911075355936" />
    <path d="M0 1142.2850482178596 L2480 1154.093631792519" />
    <path d="M0 1183.2435306011291 L2480 1157.6805188458488" />
    <path d="M0 1161.846051930407 L2480 1191.0586960716853" />
    <path d="M0 1173.2325861105994 L2480 1175.6451903342545" />
    <path d="M0 1182.3161549539184 L2480 1175.9756337134675" />
    <path d="M0 1205.9970460518737 L2480 1186.3780714511856" />
    <path d="M0 1227.3739545400103 L2480 1239.4320418159746" />
    <path d="M0 1238.2401223716822 L2480 1231.1724371755895" />
    <path d="M0 1263.071896652082 L2480 1244.432063342574" />
    <path d="M0 1232.9072005114172 L2480 1281.4626863277247" />
    <path d="M0 1263.0154085319073 L2480 1254.598153075005" />
    <path d="M0 1276.9570264942483 L2480 1277.64982747533" />
    <path d="M0 1290.7576936152004 L2480 1308.0887399509436" />
    <path d="M0 1315.2776260326852 L2480 1300.5151953991437" />
    <path d="M0 1294.6484001621259 L2480 1314.306653166431" />
    <path d="M0 1312.7208066979013 L2480 1332.529374079047" />
    <path d="M0 1334.684558132664 L2480 1362.3457498365024" />
    <path d="M0 1362.2436401532493 L2480 1367.2346132993985" />
    <path d="M0 1362.9677372658884 L2480 1350.2035347640183" />
    <path d="M0 1355.7173092291675 L2480 1376.9498014981866" />
    <path d="M0 1375.3518485923444 L2480 1398.3882038957618" />
    <path d="M0 1385.1477861661685 L2480 1410.2088166290016" />
    <path d="M0 1409.1545920056917 L2480 1410.655155924877" />
    <path d="M0 1438.7941941073007 L2480 1413.9087088698266" />
    <path d="M0 1411.2441553189194 L2480 1420.302861739081" />
    <path d="M0 1460.6972841327056 L2480 1424.0733462326614" />
    <path d="M0 1433.814197664279 L2480 1468.8899339169461" />
    <path d="M0 1477.6674232758926 L2480 1492.3757724272002" />
    <path d="M0 1488.575598593829 L2480 1470.5111719253257" />
    <path d="M0 1505.2679860163175 L2480 1494.5018230467347" />
    <path d="M0 1520.0124082735722 L2480 1484.9138330139792" />
    <path d="M0 1502.2279098879824 L2480 1517.7628153187002" />
    <path d="M0 1543.7710128996293 L2480 1517.2242196020056" />
    <path d="M0 1526.525166824488 L2480 1513.2054001622707" />
    <path d="M0 1560.5461896329643 L2480 1560.234625130387" />
    <path d="M0 1571.9812314889277 L2480 1565.3354473171275" />
    <path d="M0 1570.8809861756918 L2480 1593.638296047972" />
    <path d="M0 1593.8887243430192 L2480 1589.9296952922602" />
    <path d="M0 1597.1462635912192 L2480 1587.7571973417203" />
    <path d="M0 1624.36330884873 L2480 1612.6969647607452" />
    <path d="M0 1605.0343973223232 L2480 1622.2538649783178" />
    <path d="M0 1644.43841506043 L2480 1619.9132927899404" />
    <path d="M0 1639.1642944111888 L2480 1665.7473941733133" />
    <path d="M0 1676.0413743330969 L2480 1648.94718465971" />
    <path d="M0 1665.4806692463094 L2480 1670.4247015768756" />
    <path d="M0 1690.0669418847265 L2480 1656.0875014204505" />
    <path d="M0 1698.2608194890147 L2480 1708.3747512824214" />
    <path d="M0 1692.279904620173 L2480 1725.314089148195" />
    <path d="M0 1704.3860546186156 L2480 1703.5712785910855" />
    <path d="M0 1722.7870273231242 L2480 1720.3921493786245" />
    <path d="M0 1715.4161471097307 L2480 1737.2252654835838" />
    <path d="M0 1728.2558753333672 L2480 1739.8820297018979" />
    <path d="M0 1771.430297280449 L2480 1778.2175666341666" />
    <path d="M0 1766.4883363273398 L2480 1793.61877219506" />
    <path d="M0 1771.6784701700938 L2480 1787.587965931893" />
    <path d="M0 1803.4609984275062 L2480 1807.6586748679858" />
    <path d="M0 1797.393504054517 L2480 1784.0278210288413" />
    <path d="M0 1825.2387244270174 L2480 1838.8087856338977" />
    <path d="M0 1809.3129761903724 L2480 1827.1023438281147" />
    <path d="M0 1848.1099001398468 L2480 1851.667638080553" />
    <path d="M0 1847.1324917236486 L2480 1878.0748067703462" />
    <path d="M0 1866.8894724875213 L2480 1860.0612443499401" />
    <path d="M0 1875.6335215088245 L2480 1853.8263296078314" />
    <path d="M0 1881.8789807860178 L2480 1911.0944357247097" />
    <path d="M0 1893.6725748742933 L2480 1893.80550734524" />
    <path d="M0 1934.3955814934538 L2480 1894.4804744263163" />
    <path d="M0 1918.0281947031592 L2480 1933.5858024610081" />
    <path d="M0 1947.7533764076838 L2480 1911.3108995417397" />
    <path d="M0 1950.852326345095 L2480 1956.397049468971" />
    <path d="M0 1960.661488594361 L2480 1957.460800061298" />
    <path d="M0 1992.2968032548636 L2480 1946.136760078685" />
    <path d="M0 1999.223398228126 L2480 2005.3583033338193" />
    <path d="M0 2004.2569360865893 L2480 1971.7551888341616" />
    <path d="M0 1997.4497277322619 L2480 1998.034703461549" />
    <path d="M0 2019.9795115878364 L2480 1993.2988772320402" />
    <path d="M0 2032.6836447733199 L2480 2017.180732941088" />
    <path d="M0 2052.377869090908 L2480 2041.058028904822" />
    <path d="M0 2076.6575809615065 L2480 2065.825764667269" />
    <path d="M0 2072.096092104198 L2480 2053.6792846956996" />
    <path d="M0 2082.5933385967674 L2480 2084.5084969091254" />
    <path d="M0 2098.1332950884107 L2480 2105.8195760387675" />
    <path d="M0 2084.207362130814 L2480 2086.6258857790276" />
    <path d="M0 2109.977081999547 L2480 2122.310492742813" />
    <path d="M0 2117.2165033541096 L2480 2112.788333108476" />
    <path d="M0 2153.2594500539294 L2480 2126.764143277415" />
    <path d="M0 2138.017080267616 L2480 2134.6015053904002" />
    <path d="M0 2179.7709604728507 L2480 2137.3018870618534" />
    <path d="M0 2146.31520171391 L2480 2158.0356279001658" />
    <path d="M0 2159.5725573204113 L2480 2168.7347350011883" />
    <path d="M0 2196.4393686570215 L2480 2181.8210437021858" />
    <path d="M0 2195.043731068032 L2480 2202.6400376832094" />
    <path d="M0 2228.568640814341 L2480 2218.5974088870457" />
    <path d="M0 2226.8145558312212 L2480 2244.0096671910505" />
    <path d="M0 2233.37503607557 L2480 2228.7231918566113" />
    <path d="M0 2267.785977087504 L2480 2251.43052992309" />
    <path d="M0 2259.7990725182863 L2480 2263.0708449441727" />
    <path d="M0 2252.9043721268013 L2480 2269.8404461186014" />
    <path d="M0 2299.9332324623624 L2480 2296.661386058575" />
    <path d="M0 2289.7072705456576 L2480 2277.8441318596" />
    <path d="M0 2303.793744887155 L2480 2303.438299697009" />
    <path d="M0 2342.914277993739 L2480 2311.1701967069976" />
    <path d="M0 2356.588194522963 L2480 2311.7173451449785" />
    <path d="M0 2359.4801738790434 L2480 2356.13469326667" />
    <path d="M0 2335.377431422911 L2480 2334.1006718175336" />
    <path d="M0 2356.14383680828 L2480 2378.056537007187" />
    <path d="M0 2356.5982039144365 L2480 2369.9616658798577" />
    <path d="M0 2405.6566766033147 L2480 2395.2500509677675" />
    <path d="M0 2401.2024120769092 L2480 2390.0834682400196" />
    <path d="M0 2390.44817799907 L2480 2429.336484395104" />
    <path d="M0 2446.2134625536783 L2480 2432.506623140643" />
    <path d="M0 2439.6148438614937 L2480 2423.5950615635884" />
    <path d="M0 2436.3131303626365 L2480 2427.070708054399" />
    <path d="M0 2476.2923204374383 L2480 2477.3736645130093" />
    <path d="M0 2455.986949680001 L2480 2456.4909326244283" />
    <path d="M0 2495.2646720283055 L2480 2486.7149999170124" />
    <path d="M0 2498.706281928215 L2480 2510.3870636783154" />
    <path d="M0 2531.428544520785 L2480 2504.4103474548647" />
    <path d="M0 2498.1925933155626 L2480 2507.3923181770588" />
    <path d="M0 2538.638551570944 L2480 2538.1343378887527" />
    <path d="M0 2544.477358038062 L2480 2536.7998295910465" />
    <path d="M0 2564.500936306652 L2480 2577.1271574100624" />
    <path d="M0 2543.195089849213 L2480 2569.7783467807976" />
    <path d="M0 2572.1821176207845 L2480 2576.5047896460733" />
    <path d="M0 2575.1469832382213 L2480 2604.4520585754112" />
    <path d="M0 2604.7744689839487 L2480 2626.0246401082736" />
    <path d="M0 2637.525135990532 L2480 2611.15341208928" />
    <path d="M0 2613.2478853896814 L2480 2629.0917307980444" />
    <path d="M0 2644.6738096237277 L2480 2640.401675820869" />
    <path d="M0 2628.1816306236133 L2480 2659.072774070553" />
    <path d="M0 2644.1275675842467 L2480 2670.82928047287" />
    <path d="M0 2668.4329372852017 L2480 2686.0874529945786" />
    <path d="M0 2706.3749948751006 L2480 2702.794915018894" />
    <path d="M0 2697.077522167317 L2480 2673.1656578461398" />
    <path d="M0 2719.312465952455 L2480 2707.9851726678226" />
    <path d="M0 2708.7936073495894 L2480 2735.8802913346844" />
    <path d="M0 2748.9490728732535 L2480 2739.5085414624937" />
    <path d="M0 2738.1059596122855 L2480 2755.885475693964" />
    <path d="M0 2739.399505732745 L2480 2751.0609388765506" />
    <path d="M0 2774.7842654138885 L2480 2765.169320149414" />
    <path d="M0 2783.766079817531 L2480 2756.6646070460088" />
    <path d="M0 2801.657573357986 L2480 2813.8169098943586" />
    <path d="M0 2811.6742770429587 L2480 2802.640633717339" />
    <path d="M0 2790.394135392561 L2480 2818.741551998023" />
    <path d="M0 2808.474248426714 L2480 2811.4365901498045" />
    <path d="M0 2815.238444532711 L2480 2847.131996684807" />
    <path d="M0 2833.607510423781 L2480 2851.083775774089" />
    <path d="M0 2881.2196474771063 L2480 2843.4908913972267" />
    <path d="M0 2849.2881256062306 L2480 2850.832259578047" />
    <path d="M0 2878.20906303491 L2480 2870.0264885647953" />
    <path d="M0 2912.6868854741397 L2480 2886.9266189137" />
    <path d="M0 2901.134215801993 L2480 2902.684023449268" />
    <path d="M0 2936.1070657768096 L2480 2933.868362920813" />
    <path d="M0 2930.8651369745553 L2480 2911.6905340005183" />
    <path d="M0 2943.8012398741607 L2480 2962.466778719967" />
    <path d="M0 2932.009012079894 L2480 2931.113472833211" />
    <path d="M0 2956.5592205500575 L2480 2964.3874067576808" />
    <path d="M0 2978.678379196814 L2480 2969.0117944191284" />
    <path d="M0 2997.6115318696034 L2480 2980.913213926263" />
    <path d="M0 3008.6054448068935 L2480 2986.022403097614" />
    <path d="M0 2998.3315694965086 L2480 2986.7677643736315" />
    <path d="M0 3004.065579858997 L2480 3011.0951241003095" />
    <path d="M0 3031.169640246894 L2480 3018.5835679708644" />
    <path d="M0 3064.647604393222 L2480 3038.172086195846" />
    <path d="M0 3046.584970254816 L2480 3033.1174536245608" />
    <path d="M0 3093.195156990919 L2480 3076.351458681631" />
    <path d="M0 3069.2017458275254 L2480 3088.056353062466" />
    <path d="M0 3113.35783219875 L2480 3114.411517161468" />
    <path d="M0 3110.7452818755837 L2480 3093.4497247801296" />
    <path d="M0 3107.0645391491817 L2480 3128.299871296369" />
    <path d="M0 3109.8920693774003 L2480 3135.6552740734205" />
    <path d="M0 3129.0767016158593 L2480 3158.5051103169385" />
    <path d="M0 3160.164671662867 L2480 3172.614299450797" />
    <path d="M0 3179.3612249947078 L2480 3143.190964677265" />
    <path d="M0 3191.6442369699257 L2480 3177.8618957817084" />
    <path d="M0 3186.3182092052534 L2480 3198.0603628640915" />
    <path d="M0 3217.2506697035956 L2480 3175.099480250963" />
    <path d="M0 3227.735512487701 L2480 3186.362740213729" />
    <path d="M0 3243.7193890673248 L2480 3236.900272351118" />
    <path d="M0 3210.863307581011 L2480 3220.6814310595" />
    <path d="M0 3235.4613233304876 L2480 3232.9839239760236" />
    <path d="M0 3260.8931309529585 L2480 3232.247258022297" />
    <path d="M0 3249.76514920208 L2480 3268.433304827989" />
    <path d="M0 3273.1831582251766 L2480 3259.7741808759147" />
    <path d="M0 3309.9935373068365 L2480 3289.0796969621124" />
    <path d="M0 3291.4836266395428 L2480 3320.0236617989153" />
    <path d="M0 3304.404747565411 L2480 3309.6890774697686" />
    <path d="M0 3342.4556318349073 L2480 3336.5832964794376" />
    <path d="M0 3321.9830760945647 L2480 3346.859878134663" />
    <path d="M0 3357.372423082094 L2480 3325.4825607797106" />
    <path d="M0 3341.065252331808 L2480 3348.3187958718822" />
    <path d="M0 3396.227236769334 L2480 3389.642634138608" />
    <path d="M0 3363.3560992438793 L2480 3407.5016624278624" />
    <path d="M0 3408.9611240983772 L2480 3381.239282800617" />
    <path d="M0 3399.122903246968 L2480 3412.120011826464" />
    <path d="M0 3438.788904492383 L2480 3434.975573779636" />
    <path d="M0 3431.7719821554683 L2480 3456.821888938155" />
    <path d="M0 3422.177460257514 L2480 3438.5708543876494" />
    <path d="M0 3445.1173211006985 L2480 3477.176755737907" />
    <path d="M0 3458.523177322899 L2480 3477.0211203921035" />
    <path d="M0 3454.176985448579 L2480 3483.348821984503" />
    <path d="M0 3485.6403982171455 L2480 3467.2877627494117" />
    <path d="M0 3508.256308844974 L2480 3496.436480622823" />
  </g>
</svg>