<?xml version="1.0" standalone="no"?>
<!DOCTYPE svg PUBLIC "-//W3C//DTD SVG 1.1//EN" 
    "http://www.w3.org/Graphics/SVG/1.1/DTD/svg11.dtd">
<svg width="8.5in" height="11in"
    xmlns="http://www.w3.org/2000/svg" version="1.1" viewBox="0 0 765 990">
  <g fill="none" stroke="black" stroke-width="0.01181in">
    <path d="M45 45 L45 86.7869" />
    <path d="M45 95.7869 L45 127.99193" />
    <path d="M45 136.99193 L45 167.54673" />
    <path d="M45 176.54673 L45 203.59751" />
    <path d="M45 212.59751 L45 251.47053" />
    <path d="M45 260.47053 L45 298.39879" />
    <path d="M45 307.39879 L45 334.04772" />
    <path d="M45 343.04772 L45 370.37133" />
    <path d="M45 379.37133 L45 383.49541" />
    <path d="M45 392.49541 L45 426.09858" />
    <path d="M45 435.09858 L45 476.8633" />
    <path d="M45 485.8633 L45 497.75032" />
    <path d="M51.75 45 L51.75 83.30779" />
    <path d="M51.75 92.30779 L51.75 101.19064" />
    <path d="M51.75 110.19064 L51.75 130.01844" />
    <path d="M51.75 139.01844 L51.75 150.17267" />
    <path d="M51.75 159.17267 L51.75 191.41978" />
    <path d="M51.75 200.41978 L51.75 232.73436" />
    <path d="M51.75 241.73436 L51.75 282.85943" />
    <path d="M51.75 291.85943 L51.75 322.99876" />
    <path d="M51.75 331.99876 L51.75 363.76946" />
    <path d="M51.75 372.76946 L51.75 378.40397" />
    <path d="M51.75 387.40397 L51.75 399.26058" />
    <path d="M51.75 408.26058 L51.75 436.52888" />
    <path d="M51.75 445.52888 L51.75 474.0831" />
    <path d="M51.75 483.0831 L51.75 509.90712" />
    <path d="M58.5 45 L58.5 63.81611" />
    <path d="M58.5 72.81611 L58.5 108.02104" />
    <path d="M58.5 117.02104 L58.5 153.17175" />
    <path d="M58.5 162.17175 L58.5 181.56655" />
    <path d="M58.5 190.56655 L58.5 193.21185" />
    <path d="M58.5 202.21185 L58.5 239.81821" />
    <path d="M58.5 248.81821 L58.5 259.43235" />
    <path d="M58.5 268.43235 L58.5 281.27451" />
    <path d="M58.5 290.27451 L58.5 322.19711" />
    <path d="M58.5 331.19711 L58.5 366.92758" />
    <path d="M58.5 375.92758 L58.5 405.26474" />
    <path d="M58.5 414.26474 L58.5 431.62803" />
    <path d="M58.5 440.62803 L58.5 467.97197" />
    <path d="M58.5 476.97197 L58.5 509.79124" />
    <path d="M65.25 45 L65.25 52.03519" />
    <path d="M65.25 61.03519 L65.25 66.43305" />
    <path d="M65.25 75.43305 L65.25 89.79576" />
    <path d="M65.25 98.79576 L65.25 134.66865" />
    <path d="M65.25 143.66865 L65.25 158.44844" />
    <path d="M65.25 167.44844 L65.25 192.48925" />
    <path d="M65.25 201.48925 L65.25 227.56307" />
    <path d="M65.25 236.56307 L65.25 246.84885" />
    <path d="M65.25 255.84885 L65.25 272.88029" />
    <path d="M65.25 281.88029 L65.25 316.98735" />
    <path d="M65.25 325.98735 L65.25 364.95009" />
    <path d="M65.25 373.95009 L65.25 400.666" />
    <path d="M65.25 409.666 L65.25 454.53329" />
    <path d="M65.25 463.53329 L65.25 467.08292" />
    <path d="M65.25 476.08292 L65.25 510.80666" />
    <path d="M72 45 L72 60.37876" />
    <path d="M72 69.37876 L72 112.75161" />
    <path d="M72 121.75161 L72 157.21774" />
    <path d="M72 166.21774 L72 206.49606" />
    <path d="M72 215.49606 L72 256.35978" />
    <path d="M72 265.35978 L72 304.76527" />
    <path d="M72 313.76527 L72 345.95885" />
    <path d="M72 354.95885 L72 380.96074" />
    <path d="M72 389.96074 L72 395.72006" />
    <path d="M72 404.72006 L72 415.02126" />
    <path d="M72 424.02126 L72 464.08112" />
    <path d="M72 473.08112 L72 508.61059" />
    <path d="M78.75 45 L78.75 69.85102" />
    <path d="M78.75 78.85102 L78.75 115.96106" />
    <path d="M78.75 124.96106 L78.75 163.3093" />
    <path d="M78.75 172.3093 L78.75 174.72213" />
    <path d="M78.75 183.72213 L78.75 210.39144" />
    <path d="M78.75 219.39144 L78.75 249.37902" />
    <path d="M78.75 258.37902 L78.75 260.96557" />
    <path d="M78.75 269.96557 L78.75 276.6499" />
    <path d="M78.75 285.6499 L78.75 291.90793" />
    <path d="M78.75 300.90793 L78.75 322.71446" />
    <path d="M78.75 331.71446 L78.75 358.74839" />
    <path d="M78.75 367.74839 L78.75 379.06318" />
    <path d="M78.75 388.06318 L78.75 396.83112" />
    <path d="M78.75 405.83112 L78.75 446.25174" />
    <path d="M78.75 455.25174 L78.75 474.92056" />
    <path d="M78.75 483.92056 L78.75 525.33958" />
    <path d="M85.5 45 L85.5 54.70898" />
    <path d="M85.5 63.70898 L85.5 106.12614" />
    <path d="M85.5 115.12614 L85.5 148.01371" />
    <path d="M85.5 157.01371 L85.5 194.98395" />
    <path d="M85.5 203.98395 L85.5 241.32833" />
    <path d="M85.5 250.32833 L85.5 278.19458" />
    <path d="M85.5 287.19458 L85.5 291.12248" />
    <path d="M85.5 300.12248 L85.5 307.0613" />
    <path d="M85.5 316.0613 L85.5 349.71336" />
    <path d="M85.5 358.71336 L85.5 400.10519" />
    <path d="M85.5 409.10519 L85.5 438.30491" />
    <path d="M85.5 447.30491 L85.5 491.297" />
    <path d="M92.25 45 L92.25 73.27593" />
    <path d="M92.25 82.27593 L92.25 92.08574" />
    <path d="M92.25 101.08574 L92.25 126.11724" />
    <path d="M92.25 135.11724 L92.25 141.46618" />
    <path d="M92.25 150.46618 L92.25 169.96755" />
    <path d="M92.25 178.96755 L92.25 180.05637" />
    <path d="M92.25 189.05637 L92.25 199.32584" />
    <path d="M92.25 208.32584 L92.25 246.47107" />
    <path d="M92.25 255.47107 L92.25 277.24341" />
    <path d="M92.25 286.24341 L92.25 301.10769" />
    <path d="M92.25 310.10769 L92.25 317.64738" />
    <path d="M92.25 326.64738 L92.25 344.02142" />
    <path d="M92.25 353.02142 L92.25 395.56315" />
    <path d="M92.25 404.56315 L92.25 447.77644" />
    <path d="M92.25 456.77644 L92.25 472.26231" />
    <path d="M92.25 481.26231 L92.25 483.50696" />
    <path d="M92.25 492.50696 L92.25 523.05039" />
    <path d="M99 45 L99 78.40332" />
    <path d="M99 87.40332 L99 126.46091" />
    <path d="M99 135.46091 L99 171.88571" />
    <path d="M99 180.88571 L99 209.69536" />
    <path d="M99 218.69536 L99 256.03361" />
    <path d="M99 265.03361 L99 309.44551" />
    <path d="M99 318.44551 L99 360.15022" />
    <path d="M99 369.15022 L99 403.13844" />
    <path d="M99 412.13844 L99 426.78518" />
    <path d="M99 435.78518 L99 455.06589" />
    <path d="M99 464.06589 L99 467.83798" />
    <path d="M99 476.83798 L99 485.92338" />
    <path d="M99 494.92338 L99 496.03309" />
    <path d="M105.75 45 L105.75 86.78597" />
    <path d="M105.75 95.78597 L105.75 116.57487" />
    <path d="M105.75 125.57487 L105.75 140.51184" />
    <path d="M105.75 149.51184 L105.75 181.84927" />
    <path d="M105.75 190.84927 L105.75 216.84001" />
    <path d="M105.75 225.84001 L105.75 244.14759" />
    <path d="M105.75 253.14759 L105.75 273.61104" />
    <path d="M105.75 282.61104 L105.75 325.39286" />
    <path d="M105.75 334.39286 L105.75 368.29691" />
    <path d="M105.75 377.29691 L105.75 385.76359" />
    <path d="M105.75 394.76359 L105.75 423.79538" />
    <path d="M105.75 432.79538 L105.75 466.81007" />
    <path d="M105.75 475.81007 L105.75 476.53945" />
    <path d="M105.75 485.53945 L105.75 487.32115" />
    <path d="M112.5 45 L112.5 73.3183" />
    <path d="M112.5 82.3183 L112.5 101.83868" />
    <path d="M112.5 110.83868 L112.5 126.41088" />
    <path d="M112.5 135.41088 L112.5 173.5334" />
    <path d="M112.5 182.5334 L112.5 207.128" />
    <path d="M112.5 216.128 L112.5 248.20771" />
    <path d="M112.5 257.20771 L112.5 271.68149" />
    <path d="M112.5 280.68149 L112.5 282.33541" />
    <path d="M112.5 291.33541 L112.5 297.44401" />
    <path d="M112.5 306.44401 L112.5 315.62168" />
    <path d="M112.5 324.62168 L112.5 328.97314" />
    <path d="M112.5 337.97314 L112.5 362.01996" />
    <path d="M112.5 371.01996 L112.5 401.30347" />
    <path d="M112.5 410.30347 L112.5 450.93704" />
    <path d="M112.5 459.93704 L112.5 498.07555" />
    <path d="M119.25 45 L119.25 49.62349" />
    <path d="M119.25 58.62349 L119.25 97.61928" />
    <path d="M119.25 106.61928 L119.25 145.21292" />
    <path d="M119.25 154.21292 L119.25 195.5481" />
    <path d="M119.25 204.5481 L119.25 227.57057" />
    <path d="M119.25 236.57057 L119.25 280.62503" />
    <path d="M119.25 289.62503 L119.25 298.28328" />
    <path d="M119.25 307.28328 L119.25 319.68592" />
    <path d="M119.25 328.68592 L119.25 331.86572" />
    <path d="M119.25 340.86572 L119.25 369.53921" />
    <path d="M119.25 378.53921 L119.25 403.07627" />
    <path d="M119.25 412.07627 L119.25 443.09908" />
    <path d="M119.25 452.09908 L119.25 489.18903" />
    <path d="M126 45 L126 83.47273" />
    <path d="M126 92.47273 L126 120.54708" />
    <path d="M126 129.54708 L126 155.26801" />
    <path d="M126 164.26801 L126 192.28636" />
    <path d="M126 201.28636 L126 239.00086" />
    <path d="M126 248.00086 L126 281.20905" />
    <path d="M126 290.20905 L126 294.51566" />
    <path d="M126 303.51566 L126 330.14909" />
    <path d="M126 339.14909 L126 377.4495" />
    <path d="M126 386.4495 L126 414.9543" />
    <path d="M126 423.9543 L126 455.71145" />
    <path d="M126 464.71145 L126 479.90408" />
    <path d="M126 488.90408 L126 496.72877" />
  </g>
</svg>