<?xml version="1.0" standalone="no"?>
<!DOCTYPE svg PUBLIC "-//W3C//DTD SVG 1.1//EN" 
    "http://www.w3.org/Graphics/SVG/1.1/DTD/svg11.dtd">
<svg width="2480px" height="3508px"
    xmlns="http://www.w3.org/2000/svg" version="1.1" viewBox="0 0 2480 3508">
  <g fill="none" stroke="black" stroke-width="1.06299px">
    <path d="M100 123.54141717162943 L785.6354524647934 100" />
    <path d="M100 125.80329885114061 L2380 126.76609970083298" />
    <path d="M100 149.0847210346872 L2380 151.00792799651956" />
    <path d="M2084.4960750531413 100 L2380 101.06338492922748" />
    <path d="M100 145.59862420496086 L2380 179.43097914740528" />
    <path d="M100 176.4149280193721 L2380 191.6597211885506" />
    <path d="M100 194.20054082741984 L2380 118.73634488658537" />
    <path d="M100 179.88469537463658 L2380 172.31765994496106" />
    <path d="M100 206.54670984258766 L2380 137.21472429422425" />
    <path d="M100 207.82254624086235 L2380 182.35383258458572" />
    <path d="M100 173.35412699453732 L2380 236.4125532187742" />
    <path d="M100 245.37933063563628 L2380 179.99503978401492" />
    <path d="M100 192.0395011729388 L2380 232.51796589610106" />
    <path d="M100 215.3737573885242 L2380 195.16855784736603" />
    <path d="M100 241.2266666529367 L2380 205.30164980763203" />
    <path d="M100 276.80061527397925 L2380 300.8709888375671" />
    <path d="M100 260.27740103211505 L2380 293.1725014307017" />
    <path d="M100 249.8174524041144 L2380 324.4822082086671" />
    <path d="M100 257.4584437209822 L2380 332.44424040136226" />
    <path d="M100 296.1698009580799 L2380 338.001920734648" />
    <path d="M100 322.869663491965 L2380 317.30126839522086" />
    <path d="M100 313.995037686799 L2380 373.9331964292257" />
    <path d="M100 313.78496918544863 L2380 384.3627412491071" />
    <path d="M100 324.4449070543172 L2380 380.03013969971374" />
    <path d="M100 366.80951513507813 L2380 402.00202395035296" />
    <path d="M100 355.2769062462682 L2380 366.6758947320532" />
    <path d="M100 349.7294808002615 L2380 416.3781323467789" />
    <path d="M100 385.47128624991444 L2380 449.14775432576056" />
    <path d="M100 386.98412405172155 L2380 391.34093988459944" />
    <path d="M100 455.0192372571192 L2380 452.76097644283885" />
    <path d="M100 424.446587144291 L2380 405.4783369945826" />
    <path d="M100 438.67282324973144 L2380 458.62094900713566" />
    <path d="M100 421.40899827660587 L2380 463.86338766863844" />
    <path d="M100 450.4437473511544 L2380 479.59537270448993" />
    <path d="M100 504.0504173890841 L2380 530.2910541043549" />
    <path d="M100 469.8163938021301 L2380 472.61323115875786" />
    <path d="M100 521.1799887741976 L2380 479.0493795848009" />
    <path d="M100 555.6134969792662 L2380 506.5104025264578" />
    <path d="M100 498.1257882293122 L2380 558.2164959987887" />
    <path d="M100 556.6020398555344 L2380 577.3293131206186" />
    <path d="M100 507.15949412514215 L2380 532.4435456867188" />
    <path d="M100 533.8113444786885 L2380 532.6474317396337" />
    <path d="M100 575.6463165827106 L2380 547.9219078837558" />
    <path d="M100 630.3481843589349 L2380 629.8369654240377" />
    <path d="M100 586.8253084557608 L2380 633.4202185747073" />
    <path d="M100 569.2002732683134 L2380 645.702790171785" />
    <path d="M100 655.3966403390323 L2380 621.0360048977626" />
    <path d="M100 666.2510418547055 L2380 665.5947260757682" />
    <path d="M100 662.1920864706873 L2380 668.323621223997" />
    <path d="M100 653.6261796555066 L2380 661.8290529962036" />
    <path d="M100 652.6505400093989 L2380 647.8696314117552" />
    <path d="M100 638.3390520466183 L2380 637.7617465294189" />
    <path d="M100 651.2499672106418 L2380 649.4588014048101" />
    <path d="M100 749.1205566508008 L2380 663.559286354464" />
    <path d="M100 723.2326758445467 L2380 676.6546413730721" />
    <path d="M100 746.2170023302339 L2380 764.365912740597" />
    <path d="M100 711.2466914156629 L2380 759.8607949225157" />
    <path d="M100 741.8435511171218 L2380 797.9052371330798" />
    <path d="M100 750.2473102504454 L2380 776.6224109483429" />
    <path d="M100 819.6579570680994 L2380 755.434627372603" />
    <path d="M100 789.5054812273761 L2380 752.0833671641774" />
    <path d="M100 805.0439647008569 L2380 763.8992672382975" />
    <path d="M100 796.0998066762087 L2380 764.4262526972516" />
    <path d="M100 829.5282641010868 L2380 855.2740754583274" />
    <path d="M100 840.6981909347095 L2380 790.5483399664265" />
    <path d="M100 822.8001643763803 L2380 842.7845166519984" />
    <path d="M100 866.5802826239702 L2380 866.948634911485" />
    <path d="M100 898.2812987829363 L2380 865.9654860276842" />
    <path d="M100 887.6501169342697 L2380 844.3214722516054" />
    <path d="M100 907.0975475661926 L2380 913.6661524799313" />
    <path d="M100 875.7927031241246 L2380 881.1829486993564" />
    <path d="M100 876.3742040376085 L2380 881.4201585229033" />
    <path d="M100 944.6836057350536 L2380 958.8363484114055" />
    <path d="M100 969.8613546586062 L2380 990.4055977026737" />
    <path d="M100 932.83234522763 L2380 937.5653333467166" />
    <path d="M100 977.0076039290651 L2380 924.110189989419" />
    <path d="M100 974.5967755534331 L2380 950.1964510131278" />
    <path d="M100 1022.9300551417031 L2380 1022.7385448298274" />
    <path d="M100 1035.3005996155914 L2380 1014.5932584617083" />
    <path d="M100 999.8388976831386 L2380 982.6127386880316" />
    <path d="M100 1044.9578474305108 L2380 1061.535863752602" />
    <path d="M100 1061.4631526661735 L2380 1062.604237197704" />
    <path d="M100 1018.9246880074635 L2380 1087.9523937491635" />
    <path d="M100 1029.0182880320733 L2380 1031.960307816759" />
    <path d="M100 1114.0960758239498 L2380 1067.37837497465" />
    <path d="M100 1042.4849031206259 L2380 1104.2818356958026" />
    <path d="M100 1063.2018477710308 L2380 1111.6548675170209" />
    <path d="M100 1107.9585724898109 L2380 1142.6486894508537" />
    <path d="M100 1137.0879342385508 L2380 1089.71922400562" />
    <path d="M100 1111.232849703835 L2380 1080.068683113121" />
    <path d="M100 1111.345669956809 L2380 1125.6036908804092" />
    <path d="M100 1173.2450511771447 L2380 1116.3588175479613" />
    <path d="M100 1208.2702687250037 L2380 1131.7650103229385" />
    <path d="M100 1143.312645382867 L2380 1139.524354871939" />
    <path d="M100 1180.5006781477089 L2380 1188.3105619673174" />
    <path d="M100 1198.4427529892068 L2380 1169.7772763724447" />
    <path d="M100 1242.5863222719636 L2380 1177.2722795036104" />
    <path d="M100 1217.171788889642 L2380 1212.7161021233724" />
    <path d="M100 1270.3042638385505 L2380 1274.1356308341824" />
    <path d="M100 1285.8450491439655 L2380 1286.866183297835" />
    <path d="M100 1274.658115832702 L2380 1261.9374022944814" />
    <path d="M100 1229.158476808206 L2380 1262.2171373720232" />
    <path d="M100 1273.463051447578 L2380 1232.8148530363196" />
    <path d="M100 1269.3002028448993 L2380 1282.7542255442702" />
    <path d="M100 1334.4943507281141 L2380 1305.9503943728366" />
    <path d="M100 1352.1510113338552 L2380 1274.1670684670999" />
    <path d="M100 1350.279139344511 L2380 1319.1575275569041" />
    <path d="M100 1388.2091935628628 L2380 1379.8945525936983" />
    <path d="M100 1321.6685352150741 L2380 1369.4758529040823" />
    <path d="M100 1383.0756506713617 L2380 1376.0767244362087" />
    <path d="M100 1352.836202050811 L2380 1393.4513037458532" />
    <path d="M100 1430.2286339724474 L2380 1424.539279568332" />
    <path d="M100 1407.4991024097321 L2380 1417.4598881538022" />
    <path d="M100 1377.0994150506813 L2380 1399.2757193697505" />
    <path d="M100 1399.1205105960623 L2380 1461.9999944427736" />
    <path d="M100 1479.7518524985462 L2380 1463.9137236814756" />
    <path d="M100 1481.9169562101408 L2380 1481.7907943868552" />
    <path d="M100 1462.3019273758541 L2380 1486.458355871509" />
    <path d="M100 1424.1793682548475 L2380 1418.0983086326291" />
    <path d="M100 1514.9233572103903 L2380 1492.631949398607" />
    <path d="M100 1516.0978449295974 L2380 1507.1055450506433" />
    <path d="M100 1531.5131990044724 L2380 1477.521632775923" />
    <path d="M100 1538.1188748572044 L2380 1488.0594709842208" />
    <path d="M100 1501.7682207580879 L2380 1565.57445201336" />
    <path d="M100 1561.3206395713858 L2380 1581.0837414704588" />
    <path d="M100 1590.759134493274 L2380 1523.5926003620039" />
    <path d="M100 1529.7953885502416 L2380 1561.825134938275" />
    <path d="M100 1559.2538703991108 L2380 1560.7048740693813" />
    <path d="M100 1568.8861695508551 L2380 1582.8450062362904" />
    <path d="M100 1626.932467537094 L2380 1624.644974019389" />
    <path d="M100 1614.6530689398667 L2380 1598.8431337779898" />
    <path d="M100 1665.8082164697976 L2380 1606.4038608604758" />
    <path d="M100 1628.2748993603075 L2380 1602.0985703246802" />
    <path d="M100 1605.4786317075436 L2380 1664.5159587366204" />
    <path d="M100 1653.535904175996 L2380 1630.0532799293283" />
    <path d="M100 1641.9330742662348 L2380 1618.8480166665079" />
    <path d="M100 1704.2044566827933 L2380 1723.8569747421286" />
    <path d="M100 1705.1384039439006 L2380 1699.9854041448655" />
    <path d="M100 1724.1975211503068 L2380 1733.8677016760519" />
    <path d="M100 1747.6353420897062 L2380 1727.0386703258494" />
    <path d="M100 1750.519564104936 L2380 1708.7202219009419" />
    <path d="M100 1708.7166051534496 L2380 1764.8579738552876" />
    <path d="M100 1781.7664425996672 L2380 1747.7167980703853" />
    <path d="M100 1783.023985076963 L2380 1805.4079564040442" />
    <path d="M100 1762.8214075140381 L2380 1799.6724133752364" />
    <path d="M100 1749.424213214185 L2380 1826.2102018092983" />
    <path d="M100 1788.1607590486137 L2380 1781.279863617922" />
    <path d="M100 1770.5160537113436 L2380 1815.6034598271826" />
    <path d="M100 1839.7545901115386 L2380 1789.2406954554806" />
    <path d="M100 1833.3742366883241 L2380 1810.9853326138877" />
    <path d="M100 1849.0378591778058 L2380 1841.8474599832327" />
    <path d="M100 1869.9499836801215 L2380 1806.5512911588871" />
    <path d="M100 1859.1605798742116 L2380 1827.6582901894672" />
    <path d="M100 1841.5231273117888 L2380 1872.1320965411494" />
    <path d="M100 1858.1840813959711 L2380 1865.4279304276668" />
    <path d="M100 1928.6770644131093 L2380 1923.3127545666632" />
    <path d="M100 1953.900724358576 L2380 1876.1622550174673" />
    <path d="M100 1888.267346887659 L2380 1934.4932820350384" />
    <path d="M100 1979.26765982143 L2380 1978.103619592457" />
    <path d="M100 1938.9941373863917 L2380 1948.5309421304053" />
    <path d="M100 1949.1921313912717 L2380 1944.6320570617524" />
    <path d="M100 1995.7001026172272 L2380 1981.7766729000764" />
    <path d="M100 1965.208437518971 L2380 1960.1485562927521" />
    <path d="M100 1959.648811723311 L2380 2032.7312780019552" />
    <path d="M100 1960.0369641826192 L2380 2032.1607127262407" />
    <path d="M100 2018.5923019751708 L2380 2059.0854169119043" />
    <path d="M100 1983.4970827820514 L2380 2000.7785652072948" />
    <path d="M100 1994.4753098214533 L2380 2047.6686094946788" />
    <path d="M100 2072.6266599356454 L2380 2050.9492289129644" />
    <path d="M100 2083.355237078805 L2380 2082.7467431837467" />
    <path d="M100 2053.161580944028 L2380 2044.2689761045688" />
    <path d="M100 2116.5707802948086 L2380 2088.7501564661993" />
    <path d="M100 2072.053766654814 L2380 2128.0823886156436" />
    <path d="M100 2073.921520508923 L2380 2135.3499611427433" />
    <path d="M100 2120.096594740604 L2380 2142.525038837582" />
    <path d="M100 2155.359223405487 L2380 2152.18345445893" />
    <path d="M100 2175.991034970365 L2380 2128.5612950487002" />
    <path d="M100 2190.887604010454 L2380 2157.367942798626" />
    <path d="M100 2171.5173286118475 L2380 2207.875876981168" />
    <path d="M100 2143.6090316966456 L2380 2217.926497780133" />
    <path d="M100 2162.704964130132 L2380 2170.1845462937736" />
    <path d="M100 2186.1982744793418 L2380 2176.717959259895" />
    <path d="M100 2183.670920904611 L2380 2205.7998449998327" />
    <path d="M100 2233.8413244005037 L2380 2199.907141933511" />
    <path d="M100 2259.7719662036116 L2380 2274.453676817188" />
    <path d="M100 2294.763655200453 L2380 2239.3214236576923" />
    <path d="M100 2302.139952855369 L2380 2234.4209342873323" />
    <path d="M100 2275.821334446373 L2380 2284.5348931597323" />
    <path d="M100 2315.4813807939495 L2380 2323.8360790352754" />
    <path d="M100 2254.0405072277904 L2380 2321.4245421802484" />
    <path d="M100 2292.50913209107 L2380 2308.5081763647263" />
    <path d="M100 2307.6893531346295 L2380 2297.068286294461" />
    <path d="M100 2357.2547596158834 L2380 2296.7414509133027" />
    <path d="M100 2387.405798846514 L2380 2334.726958312566" />
    <path d="M100 2320.987244775326 L2380 2316.6767338113336" />
    <path d="M100 2395.3496361166863 L2380 2383.0919023140827" />
    <path d="M100 2396.7280246184105 L2380 2411.708404003618" />
    <path d="M100 2374.43573591495 L2380 2346.864982304889" />
    <path d="M100 2389.074687092997 L2380 2377.3382278242902" />
    <path d="M100 2423.452941503405 L2380 2371.9752780421873" />
    <path d="M100 2396.918854789827 L2380 2409.831750500877" />
    <path d="M100 2469.183903678075 L2380 2437.3108480427004" />
    <path d="M100 2457.865426650101 L2380 2439.6469322556095" />
    <path d="M100 2440.935950889282 L2380 2414.961737560831" />
    <path d="M100 2485.905866390719 L2380 2473.709085491564" />
    <path d="M100 2512.919694758671 L2380 2474.6518771599403" />
    <path d="M100 2529.525539375876 L2380 2499.7423549535674" />
    <path d="M100 2545.94836910042 L2380 2522.9336158238625" />
    <path d="M100 2476.625055661194 L2380 2476.1115515677475" />
    <path d="M100 2543.916688461544 L2380 2544.4809898657236" />
    <path d="M100 2517.74990436074 L2380 2580.3533665528694" />
    <path d="M100 2558.79499828341 L2380 2583.9915909043866" />
    <path d="M100 2597.780306294115 L2380 2598.520702635232" />
    <path d="M100 2581.50841317874 L2380 2546.3616786753755" />
    <path d="M100 2609.923420199458 L2380 2637.48142372153" />
    <path d="M100 2561.8736660360773 L2380 2565.248481240819" />
    <path d="M100 2581.9814466477756 L2380 2582.8940091813693" />
    <path d="M100 2670.598729740331 L2380 2620.139764862444" />
    <path d="M100 2681.119529483416 L2380 2647.0192353232487" />
    <path d="M100 2655.2887454231304 L2380 2635.9524192485746" />
    <path d="M100 2636.3272579877093 L2380 2674.3506835232997" />
    <path d="M100 2640.19415279814 L2380 2717.7910147783073" />
    <path d="M100 2683.7983834309566 L2380 2699.24143305778" />
    <path d="M100 2718.45827567989 L2380 2651.9850410923095" />
    <path d="M100 2710.187323094736 L2380 2697.9420352154916" />
    <path d="M100 2738.8547115838974 L2380 2696.6335587951376" />
    <path d="M100 2696.137554044946 L2380 2755.105403754595" />
    <path d="M100 2720.5220451608834 L2380 2747.649005365443" />
    <path d="M100 2776.517652733697 L2380 2706.975482586032" />
    <path d="M100 2730.5501045946635 L2380 2726.221525016961" />
    <path d="M100 2819.369855210211 L2380 2732.604870251699" />
    <path d="M100 2745.3790945581013 L2380 2778.205076813577" />
    <path d="M100 2773.37847884306 L2380 2834.842082640259" />
    <path d="M100 2853.6734490943836 L2380 2817.758137098998" />
    <path d="M100 2784.8914582467332 L2380 2801.5211341932954" />
    <path d="M100 2877.457177746763 L2380 2870.120085266018" />
    <path d="M100 2801.6414487007305 L2380 2846.7635262965027" />
    <path d="M100 2822.6461986315044 L2380 2853.60614723465" />
    <path d="M100 2864.9409942346024 L2380 2855.4939306005267" />
    <path d="M100 2908.808993689708 L2380 2894.423189689226" />
    <path d="M100 2936.474882539083 L2380 2921.098881841813" />
    <path d="M100 2903.3860858470125 L2380 2938.4209995164847" />
    <path d="M100 2955.8427723789114 L2380 2952.738471309672" />
    <path d="M100 2945.024812204194 L2380 2918.6507186434487" />
    <path d="M100 2950.72562807393 L2380 2988.8041054119144" />
    <path d="M100 2987.909371920647 L2380 2944.721004916821" />
    <path d="M100 2943.5264764897424 L2380 2970.514935664787" />
    <path d="M100 2996.5630662853155 L2380 2979.5350568987587" />
    <path d="M100 2986.7570086355167 L2380 3035.1390643214127" />
    <path d="M100 2988.520980141808 L2380 2984.751906273548" />
    <path d="M100 2966.337703617247 L2380 3050.924134671396" />
    <path d="M100 3040.7694431236805 L2380 3008.3652665038358" />
    <path d="M100 2993.930796032114 L2380 3011.2209451334115" />
    <path d="M100 3042.9608023275023 L2380 3081.537477519587" />
    <path d="M100 3103.7198273561776 L2380 3075.651417617253" />
    <path d="M100 3070.186320271507 L2380 3044.0435380361287" />
    <path d="M100 3040.1554862669286 L2380 3059.611560237276" />
    <path d="M100 3116.8646089231183 L2380 3070.990789458965" />
    <path d="M100 3136.286768431382 L2380 3102.816418856685" />
    <path d="M100 3141.3056693794306 L2380 3144.1097997539146" />
    <path d="M100 3134.1308375663443 L2380 3153.285272950544" />
    <path d="M100 3173.113520735479 L2380 3137.095778477277" />
    <path d="M100 3194.981865515961 L2380 3196.177576455048" />
    <path d="M100 3138.6080563332207 L2380 3209.8704542301202" />
    <path d="M100 3186.631913027467 L2380 3219.461990561682" />
    <path d="M100 3180.3388051764055 L2380 3171.2909157327385" />
    <path d="M100 3239.1284895744197 L2380 3200.8033081413246" />
    <path d="M100 3245.8093839380253 L2380 3184.536168895753" />
    <path d="M100 3244.0836712808773 L2380 3247.401678154781" />
    <path d="M100 3234.5270000210744 L2380 3226.2935214094405" />
    <path d="M100 3267.3879652053565 L2380 3284.4973667773424" />
    <path d="M100 3296.722623412199 L2380 3305.174628775943" />
    <path d="M100 3316.2973673540673 L2380 3297.8392216521574" />
    <path d="M100 3298.0848365556353 L2380 3274.3994956549377" />
    <path d="M100 3303.2894019295777 L2380 3245.3388378870036" />
    <path d="M100 3295.341550711122 L2380 3286.095992167396" />
    <path d="M100 3318.9277028189417 L2380 3351.448063036218" />
    <path d="M100 3330.2266621592444 L2380 3304.594474461265" />
    <path d="M100 3385.5848318883163 L2380 3376.718617429682" />
    <path d="M100 3353.853383725701 L2380 3341.0643458008544" />
    <path d="M100 3320.2532539166305 L2380 3405.2495759474245" />
    <path d="M100 3374.426041792623 L2380 3370.875451692079" />
    <path d="M100 3399.974790825383 L2380 3399.2449933076855" />
    <path d="M100 3395.8200123696042 L2380 3372.991213478741" />
    <path d="M100 3374.384085441456 L1396.0009551839307 3408" />
    <path d="M100 3400.378186037996 L2380 3391.4461438520875" />
  </g>
</svg>