<?xml version="1.0" standalone="no"?>
<!DOCTYPE svg PUBLIC "-//W3C//DTD SVG 1.1//EN" 
    "http://www.w3.org/Graphics/SVG/1.1/DTD/svg11.dtd">
<svg width="21cm" height="29.7cm"
    xmlns="http://www.w3.org/2000/svg" version="1.1" viewBox="0 0 744.09449 1052.3622">
  <g fill="none" stroke="black" stroke-width="0.03cm">
    <path d="M35.43307 35.43307 L35.43307 35.43307" />
    <path d="M708.66142 36.83704 L35.43307 35.43307" />
    <path d="M708.66142 54.66317 L35.43307 35.43307" />
    <path d="M708.66142 72.51629 L35.43307 35.43307" />
    <path d="M708.66142 90.42156 L35.43307 35.43307" />
    <path d="M708.66142 108.40445 L35.43307 35.43307" />
    <path d="M708.66142 126.49084 L35.43307 35.43307" />
    <path d="M708.66142 144.70725 L35.43307 35.43307" />
    <path d="M708.66142 163.0809 L35.43307 35.43307" />
    <path d="M708.66142 181.63996 L35.43307 35.43307" />
    <path d="M708.66142 200.41369 L35.43307 35.43307" />
    <path d="M708.66142 219.43263 L35.43307 35.43307" />
    <path d="M708.66142 238.72884 L35.43307 35.43307" />
    <path d="M708.66142 258.33609 L35.43307 35.43307" />
    <path d="M708.66142 278.29015 L35.43307 35.43307" />
    <path d="M708.66142 298.62906 L35.43307 35.43307" />
    <path d="M708.66142 319.39343 L35.43307 35.43307" />
    <path d="M708.66142 340.62682 L35.43307 35.43307" />
    <path d="M708.66142 362.37613 L35.43307 35.43307" />
    <path d="M708.66142 384.69203 L35.43307 35.43307" />
    <path d="M708.66142 407.62952 L35.43307 35.43307" />
    <path d="M708.66142 431.2485 L35.43307 35.43307" />
    <path d="M708.66142 455.61445 L35.43307 35.43307" />
    <path d="M708.66142 480.79924 L35.43307 35.43307" />
    <path d="M708.66142 506.882 L35.43307 35.43307" />
    <path d="M708.66142 533.95025 L35.43307 35.43307" />
    <path d="M708.66142 562.10113 L35.43307 35.43307" />
    <path d="M708.66142 591.44285 L35.43307 35.43307" />
    <path d="M708.66142 622.09648 L35.43307 35.43307" />
    <path d="M708.66142 654.19804 L35.43307 35.43307" />
    <path d="M708.66142 687.90096 L35.43307 35.43307" />
    <path d="M694.2586 708.66142 L35.43307 35.43307" />
    <path d="M660.24431 708.66142 L35.43307 35.43307" />
    <path d="M627.86159 708.66142 L35.43307 35.43307" />
    <path d="M596.95349 708.66142 L35.43307 35.43307" />
    <path d="M567.38103 708.66142 L35.43307 35.43307" />
    <path d="M539.02056 708.66142 L35.43307 35.43307" />
    <path d="M511.76166 708.66142 L35.43307 35.43307" />
    <path d="M485.50526 708.66142 L35.43307 35.43307" />
    <path d="M460.16222 708.66142 L35.43307 35.43307" />
    <path d="M435.65191 708.66142 L35.43307 35.43307" />
    <path d="M411.90124 708.66142 L35.43307 35.43307" />
    <path d="M388.8436 708.66142 L35.43307 35.43307" />
    <path d="M366.41814 708.66142 L35.43307 35.43307" />
    <path d="M344.56901 708.66142 L35.43307 35.43307" />
    <path d="M323.24477 708.66142 L35.43307 35.43307" />
    <path d="M302.39787 708.66142 L35.43307 35.43307" />
    <path d="M281.98418 708.66142 L35.43307 35.43307" />
    <path d="M261.96257 708.66142 L35.43307 35.43307" />
    <path d="M242.29455 708.66142 L35.43307 35.43307" />
    <path d="M222.94398 708.66142 L35.43307 35.43307" />
    <path d="M203.87671 708.66142 L35.43307 35.43307" />
    <path d="M185.06041 708.66142 L35.43307 35.43307" />
    <path d="M166.46427 708.66142 L35.43307 35.43307" />
    <path d="M148.05881 708.66142 L35.43307 35.43307" />
    <path d="M129.81568 708.66142 L35.43307 35.43307" />
    <path d="M111.70748 708.66142 L35.43307 35.43307" />
    <path d="M93.70759 708.66142 L35.43307 35.43307" />
    <path d="M75.79003 708.66142 L35.43307 35.43307" />
    <path d="M57.92925 708.66142 L35.43307 35.43307" />
    <path d="M708.66142 708.66142 L708.66142 708.66142" />
    <path d="M708.66142 708.66142 L35.43307 707.25745" />
    <path d="M708.66142 708.66142 L35.43307 689.43132" />
    <path d="M708.66142 708.66142 L35.43307 671.5782" />
    <path d="M708.66142 708.66142 L35.43307 653.67292" />
    <path d="M708.66142 708.66142 L35.43307 635.69004" />
    <path d="M708.66142 708.66142 L35.43307 617.60364" />
    <path d="M708.66142 708.66142 L35.43307 599.38724" />
    <path d="M708.66142 708.66142 L35.43307 581.01359" />
    <path d="M708.66142 708.66142 L35.43307 562.45453" />
    <path d="M708.66142 708.66142 L35.43307 543.6808" />
    <path d="M708.66142 708.66142 L35.43307 524.66186" />
    <path d="M708.66142 708.66142 L35.43307 505.36565" />
    <path d="M708.66142 708.66142 L35.43307 485.7584" />
    <path d="M708.66142 708.66142 L35.43307 465.80434" />
    <path d="M708.66142 708.66142 L35.43307 445.46543" />
    <path d="M708.66142 708.66142 L35.43307 424.70106" />
    <path d="M708.66142 708.66142 L35.43307 403.46767" />
    <path d="M708.66142 708.66142 L35.43307 381.71836" />
    <path d="M708.66142 708.66142 L35.43307 359.40246" />
    <path d="M708.66142 708.66142 L35.43307 336.46497" />
    <path d="M708.66142 708.66142 L35.43307 312.84599" />
    <path d="M708.66142 708.66142 L35.43307 288.48003" />
    <path d="M708.66142 708.66142 L35.43307 263.29525" />
    <path d="M708.66142 708.66142 L35.43307 237.21249" />
    <path d="M708.66142 708.66142 L35.43307 210.14424" />
    <path d="M708.66142 708.66142 L35.43307 181.99336" />
    <path d="M708.66142 708.66142 L35.43307 152.65164" />
    <path d="M708.66142 708.66142 L35.43307 121.99801" />
    <path d="M708.66142 708.66142 L35.43307 89.89645" />
    <path d="M708.66142 708.66142 L35.43307 56.19353" />
    <path d="M708.66142 708.66142 L49.83588 35.43307" />
    <path d="M708.66142 708.66142 L83.85018 35.43307" />
    <path d="M708.66142 708.66142 L116.2329 35.43307" />
    <path d="M708.66142 708.66142 L147.141 35.43307" />
    <path d="M708.66142 708.66142 L176.71346 35.43307" />
    <path d="M708.66142 708.66142 L205.07393 35.43307" />
    <path d="M708.66142 708.66142 L232.33283 35.43307" />
    <path d="M708.66142 708.66142 L258.58922 35.43307" />
    <path d="M708.66142 708.66142 L283.93227 35.43307" />
    <path d="M708.66142 708.66142 L308.44257 35.43307" />
    <path d="M708.66142 708.66142 L332.19325 35.43307" />
    <path d="M708.66142 708.66142 L355.25089 35.43307" />
    <path d="M708.66142 708.66142 L377.67635 35.43307" />
    <path d="M708.66142 708.66142 L399.52548 35.43307" />
    <path d="M708.66142 708.66142 L420.84972 35.43307" />
    <path d="M708.66142 708.66142 L441.69662 35.43307" />
    <path d="M708.66142 708.66142 L462.11031 35.43307" />
    <path d="M708.66142 708.66142 L482.13192 35.43307" />
    <path d="M708.66142 708.66142 L501.79993 35.43307" />
    <path d="M708.66142 708.66142 L521.15051 35.43307" />
    <path d="M708.66142 708.66142 L540.21778 35.43307" />
    <path d="M708.66142 708.66142 L559.03407 35.43307" />
    <path d="M708.66142 708.66142 L577.63022 35.43307" />
    <path d="M708.66142 708.66142 L596.03568 35.43307" />
    <path d="M708.66142 708.66142 L614.27881 35.43307" />
    <path d="M708.66142 708.66142 L632.38701 35.43307" />
    <path d="M708.66142 708.66142 L650.38689 35.43307" />
    <path d="M708.66142 708.66142 L668.30446 35.43307" />
    <path d="M708.66142 708.66142 L686.16524 35.43307" />
    <path d="M35.43307 708.66142 L35.43307 708.66142" />
    <path d="M35.43307 708.66142 L36.83704 35.43307" />
    <path d="M35.43307 708.66142 L54.66317 35.43307" />
    <path d="M35.43307 708.66142 L72.51629 35.43307" />
    <path d="M35.43307 708.66142 L90.42156 35.43307" />
    <path d="M35.43307 708.66142 L108.40445 35.43307" />
    <path d="M35.43307 708.66142 L126.49084 35.43307" />
    <path d="M35.43307 708.66142 L144.70725 35.43307" />
    <path d="M35.43307 708.66142 L163.0809 35.43307" />
    <path d="M35.43307 708.66142 L181.63996 35.43307" />
    <path d="M35.43307 708.66142 L200.41369 35.43307" />
    <path d="M35.43307 708.66142 L219.43263 35.43307" />
    <path d="M35.43307 708.66142 L238.72884 35.43307" />
    <path d="M35.43307 708.66142 L258.33609 35.43307" />
    <path d="M35.43307 708.66142 L278.29015 35.43307" />
    <path d="M35.43307 708.66142 L298.62906 35.43307" />
    <path d="M35.43307 708.66142 L319.39343 35.43307" />
    <path d="M35.43307 708.66142 L340.62682 35.43307" />
    <path d="M35.43307 708.66142 L362.37613 35.43307" />
    <path d="M35.43307 708.66142 L384.69203 35.43307" />
    <path d="M35.43307 708.66142 L407.62952 35.43307" />
    <path d="M35.43307 708.66142 L431.2485 35.43307" />
    <path d="M35.43307 708.66142 L455.61445 35.43307" />
    <path d="M35.43307 708.66142 L480.79924 35.43307" />
    <path d="M35.43307 708.66142 L506.882 35.43307" />
    <path d="M35.43307 708.66142 L533.95025 35.43307" />
    <path d="M35.43307 708.66142 L562.10113 35.43307" />
    <path d="M35.43307 708.66142 L591.44285 35.43307" />
    <path d="M35.43307 708.66142 L622.09648 35.43307" />
    <path d="M35.43307 708.66142 L654.19804 35.43307" />
    <path d="M35.43307 708.66142 L687.90096 35.43307" />
    <path d="M35.43307 708.66142 L708.66142 49.83588" />
    <path d="M35.43307 708.66142 L708.66142 83.85018" />
    <path d="M35.43307 708.66142 L708.66142 116.2329" />
    <path d="M35.43307 708.66142 L708.66142 147.141" />
    <path d="M35.43307 708.66142 L708.66142 176.71346" />
    <path d="M35.43307 708.66142 L708.66142 205.07393" />
    <path d="M35.43307 708.66142 L708.66142 232.33283" />
    <path d="M35.43307 708.66142 L708.66142 258.58922" />
    <path d="M35.43307 708.66142 L708.66142 283.93227" />
    <path d="M35.43307 708.66142 L708.66142 308.44257" />
    <path d="M35.43307 708.66142 L708.66142 332.19325" />
    <path d="M35.43307 708.66142 L708.66142 355.25089" />
    <path d="M35.43307 708.66142 L708.66142 377.67635" />
    <path d="M35.43307 708.66142 L708.66142 399.52548" />
    <path d="M35.43307 708.66142 L708.66142 420.84972" />
    <path d="M35.43307 708.66142 L708.66142 441.69662" />
    <path d="M35.43307 708.66142 L708.66142 462.11031" />
    <path d="M35.43307 708.66142 L708.66142 482.13192" />
    <path d="M35.43307 708.66142 L708.66142 501.79993" />
    <path d="M35.43307 708.66142 L708.66142 521.15051" />
    <path d="M35.43307 708.66142 L708.66142 540.21778" />
    <path d="M35.43307 708.66142 L708.66142 559.03407" />
    <path d="M35.43307 708.66142 L708.66142 577.63022" />
    <path d="M35.43307 708.66142 L708.66142 596.03568" />
    <path d="M35.43307 708.66142 L708.66142 614.27881" />
    <path d="M35.43307 708.66142 L708.66142 632.38701" />
    <path d="M35.43307 708.66142 L708.66142 650.38689" />
    <path d="M35.43307 708.66142 L708.66142 668.30446" />
    <path d="M35.43307 708.66142 L708.66142 686.16524" />
    <path d="M708.66142 35.43307 L708.66142 35.43307" />
    <path d="M708.66142 35.43307 L707.25745 708.66142" />
    <path d="M708.66142 35.43307 L689.43132 708.66142" />
    <path d="M708.66142 35.43307 L671.5782 708.66142" />
    <path d="M708.66142 35.43307 L653.67292 708.66142" />
    <path d="M708.66142 35.43307 L635.69004 708.66142" />
    <path d="M708.66142 35.43307 L617.60364 708.66142" />
    <path d="M708.66142 35.43307 L599.38724 708.66142" />
    <path d="M708.66142 35.43307 L581.01359 708.66142" />
    <path d="M708.66142 35.43307 L562.45453 708.66142" />
    <path d="M708.66142 35.43307 L543.6808 708.66142" />
    <path d="M708.66142 35.43307 L524.66186 708.66142" />
    <path d="M708.66142 35.43307 L505.36565 708.66142" />
    <path d="M708.66142 35.43307 L485.7584 708.66142" />
    <path d="M708.66142 35.43307 L465.80434 708.66142" />
    <path d="M708.66142 35.43307 L445.46543 708.66142" />
    <path d="M708.66142 35.43307 L424.70106 708.66142" />
    <path d="M708.66142 35.43307 L403.46767 708.66142" />
    <path d="M708.66142 35.43307 L381.71836 708.66142" />
    <path d="M708.66142 35.43307 L359.40246 708.66142" />
    <path d="M708.66142 35.43307 L336.46497 708.66142" />
    <path d="M708.66142 35.43307 L312.84599 708.66142" />
    <path d="M708.66142 35.43307 L288.48003 708.66142" />
    <path d="M708.66142 35.43307 L263.29525 708.66142" />
    <path d="M708.66142 35.43307 L237.21249 708.66142" />
    <path d="M708.66142 35.43307 L210.14424 708.66142" />
    <path d="M708.66142 35.43307 L181.99336 708.66142" />
    <path d="M708.66142 35.43307 L152.65164 708.66142" />
    <path d="M708.66142 35.43307 L121.99801 708.66142" />
    <path d="M708.66142 35.43307 L89.89645 708.66142" />
    <path d="M708.66142 35.43307 L56.19353 708.66142" />
    <path d="M708.66142 35.43307 L35.43307 694.2586" />
    <path d="M708.66142 35.43307 L35.43307 660.24431" />
    <path d="M708.66142 35.43307 L35.43307 627.86159" />
    <path d="M708.66142 35.43307 L35.43307 596.95349" />
    <path d="M708.66142 35.43307 L35.43307 567.38103" />
    <path d="M708.66142 35.43307 L35.43307 539.02056" />
    <path d="M708.66142 35.43307 L35.43307 511.76166" />
    <path d="M708.66142 35.43307 L35.43307 485.50526" />
    <path d="M708.66142 35.43307 L35.43307 460.16222" />
    <path d="M708.66142 35.43307 L35.43307 435.65191" />
    <path d="M708.66142 35.43307 L35.43307 411.90124" />
    <path d="M708.66142 35.43307 L35.43307 388.8436" />
    <path d="M708.66142 35.43307 L35.43307 366.41814" />
    <path d="M708.66142 35.43307 L35.43307 344.56901" />
    <path d="M708.66142 35.43307 L35.43307 323.24477" />
    <path d="M708.66142 35.43307 L35.43307 302.39787" />
    <path d="M708.66142 35.43307 L35.43307 281.98418" />
    <path d="M708.66142 35.43307 L35.43307 261.96257" />
    <path d="M708.66142 35.43307 L35.43307 242.29455" />
    <path d="M708.66142 35.43307 L35.43307 222.94398" />
    <path d="M708.66142 35.43307 L35.43307 203.87671" />
    <path d="M708.66142 35.43307 L35.43307 185.06041" />
    <path d="M708.66142 35.43307 L35.43307 166.46427" />
    <path d="M708.66142 35.43307 L35.43307 148.05881" />
    <path d="M708.66142 35.43307 L35.43307 129.81568" />
    <path d="M708.66142 35.43307 L35.43307 111.70748" />
    <path d="M708.66142 35.43307 L35.43307 93.70759" />
    <path d="M708.66142 35.43307 L35.43307 75.79003" />
    <path d="M708.66142 35.43307 L35.43307 57.92925" />
  </g>
</svg>