<?xml version="1.0" standalone="no"?>
<!DOCTYPE svg PUBLIC "-//W3C//DTD SVG 1.1//EN" 
    "http://www.w3.org/Graphics/SVG/1.1/DTD/svg11.dtd">
<svg width="21cm" height="29.7cm"
    xmlns="http://www.w3.org/2000/svg" version="1.1" viewBox="0 0 744.09449 1052.3622">
  <g fill="none" stroke="black" stroke-width="0.03cm">
    <path d="M430.50803 355.212 L626.32494 604.58897" />
    <path d="M580.23558 97.13156 L131.56706 471.16269" />
    <path d="M345.18179 608.73949 L688.113 800.13824" />
    <path d="M534.69127 77.26141 L123.92506 619.92898" />
    <path d="M125.99617 556.95458 L708.66142 961.72419" />
    <path d="M611.52107 85.73838 L458.27948 1014.69126" />
    <path d="M708.66142 132.92847 L558.6062 131.69832" />
    <path d="M76.91337 671.10563 L708.66142 479.84682" />
    <path d="M559.19215 626.35966 L493.50404 477.5953" />
    <path d="M695.68768 355.97103 L390.63451 338.88295" />
    <path d="M324.19492 331.15165 L708.66142 307.36388" />
    <path d="M652.54436 500.87213 L383.42927 238.54259" />
    <path d="M708.66142 473.91661 L396.12178 575.8995" />
    <path d="M211.96961 133.56624 L510.19264 687.15507" />
    <path d="M506.52221 407.53675 L697.88547 402.64429" />
    <path d="M453.85379 209.10295 L240.12812 832.44595" />
    <path d="M705.21497 282.07283 L708.66142 289.20123" />
    <path d="M275.22376 416.59238 L270.50415 95.42697" />
    <path d="M142.67971 236.66624 L175.20438 310.99486" />
    <path d="M708.66142 170.50922 L385.24007 911.50855" />
    <path d="M473.62203 650.54557 L680.46111 682.75192" />
    <path d="M368.99832 634.74156 L212.8275 509.40233" />
    <path d="M427.52501 305.76228 L295.96032 88.67306" />
    <path d="M379.92751 128.1481 L541.33132 712.96495" />
    <path d="M242.42856 440.18131 L658.92191 323.70748" />
    <path d="M352.60926 333.23443 L603.09794 362.40237" />
    <path d="M456.32419 269.41134 L539.69378 103.54437" />
    <path d="M645.03309 454.68561 L278.52537 35.43307" />
    <path d="M81.00119 708.57755 L696.57962 778.68139" />
    <path d="M314.35945 90.90094 L708.66142 256.78038" />
    <path d="M657.67742 184.89625 L568.58631 735.71926" />
    <path d="M476.73266 548.63529 L708.66142 605.67544" />
    <path d="M293.50104 381.67927 L708.66142 205.19653" />
    <path d="M149.2144 356.3446 L708.66142 420.59782" />
    <path d="M210.16729 643.97343 L708.66142 218.24554" />
    <path d="M35.43307 558.51813 L708.66142 472.97307" />
    <path d="M599.90972 489.81722 L489.87556 381.34251" />
    <path d="M35.43307 542.5067 L114.07325 441.73814" />
    <path d="M568.81228 35.43307 L708.66142 233.5718" />
    <path d="M487.71312 175.91247 L427.54818 326.28661" />
    <path d="M380.86468 473.96954 L35.43307 521.29648" />
    <path d="M35.43307 346.05739 L427.75301 79.79259" />
    <path d="M373.65424 240.67188 L681.42334 874.982" />
    <path d="M643.53155 703.53121 L708.66142 736.54223" />
    <path d="M459.4942 387.2431 L645.1181 685.16014" />
    <path d="M352.56087 248.61269 L708.66142 371.06953" />
    <path d="M58.65251 244.23164 L461.85194 398.83493" />
    <path d="M131.38372 546.77915 L377.0415 35.43307" />
    <path d="M76.09548 538.81016 L276.81819 683.02114" />
    <path d="M235.57116 564.71897 L423.96969 989.15583" />
    <path d="M707.03064 443.06737 L524.0095 1003.77657" />
    <path d="M129.89798 64.75755 L132.88573 766.44958" />
    <path d="M387.45373 87.55243 L642.09826 767.65286" />
    <path d="M165.86996 283.0193 L296.98293 381.48129" />
    <path d="M356.60195 613.10502 L541.36159 783.29681" />
    <path d="M175.48429 610.01765 L446.97168 360.60812" />
    <path d="M314.2053 252.87961 L177.62243 587.76912" />
    <path d="M300.34153 257.85358 L708.66142 662.63599" />
    <path d="M470.87576 328.80341 L708.66142 471.3271" />
    <path d="M250.81123 259.65705 L708.66142 626.33188" />
    <path d="M154.05549 457.8836 L708.66142 282.61052" />
    <path d="M611.88066 627.0735 L218.53903 608.09842" />
    <path d="M221.80144 653.73376 L708.66142 385.62823" />
    <path d="M191.9401 576.04665 L708.66142 455.56775" />
    <path d="M213.68772 530.21725 L552.05574 657.08238" />
    <path d="M349.0555 300.34859 L708.66142 817.23863" />
    <path d="M350.38905 513.01766 L708.66142 932.12863" />
    <path d="M160.71227 207.13763 L595.80762 878.26585" />
    <path d="M148.17263 317.3666 L577.23889 848.7313" />
    <path d="M518.57478 504.11711 L708.66142 916.61981" />
    <path d="M667.93127 680.43738 L708.66142 606.20458" />
    <path d="M569.58067 35.43307 L54.86871 257.21561" />
    <path d="M281.81149 593.31312 L342.05709 890.09695" />
    <path d="M35.43307 585.08297 L708.66142 959.85004" />
    <path d="M231.32208 48.78758 L58.04794 176.57545" />
    <path d="M35.43307 444.16745 L426.18969 714.77995" />
    <path d="M532.06479 130.10463 L708.66142 357.56267" />
    <path d="M692.97883 566.63066 L273.12396 35.43307" />
    <path d="M93.95238 694.36022 L432.0864 347.89623" />
    <path d="M463.83131 602.23116 L91.08932 849.65601" />
    <path d="M707.80968 186.53189 L487.25014 193.68697" />
    <path d="M458.74023 355.85738 L593.51627 409.85331" />
    <path d="M454.24977 35.43307 L577.90208 220.30801" />
    <path d="M584.4403 393.38772 L708.66142 604.31249" />
    <path d="M689.36631 190.78643 L708.66142 164.61548" />
    <path d="M35.43307 394.47149 L708.66142 152.27367" />
    <path d="M449.9997 35.43307 L708.66142 768.62688" />
    <path d="M161.04533 139.21634 L243.41492 233.5541" />
    <path d="M195.4479 347.50479 L708.66142 585.71245" />
    <path d="M501.2328 736.75861 L708.66142 109.71794" />
    <path d="M62.80872 656.10479 L708.66142 595.21129" />
    <path d="M587.13808 577.13896 L486.76959 86.02766" />
    <path d="M279.45237 270.7983 L198.19259 969.637" />
    <path d="M355.81566 708.31875 L478.16983 1016.92913" />
    <path d="M94.28982 685.93391 L140.18027 763.67914" />
    <path d="M130.0375 695.069 L708.66142 92.03455" />
    <path d="M123.53684 689.49705 L137.56822 740.47526" />
    <path d="M296.99028 240.80546 L708.66142 565.58162" />
    <path d="M156.31342 175.75272 L708.66142 586.23167" />
  </g>
</svg>