<?xml version="1.0" standalone="no"?>
<!DOCTYPE svg PUBLIC "-//W3C//DTD SVG 1.1//EN" 
    "http://www.w3.org/Graphics/SVG/1.1/DTD/svg11.dtd">
<svg width="21cm" height="29.7cm"
    xmlns="http://www.w3.org/2000/svg" version="1.1" viewBox="0 0 744.09449 1052.3622">
  <g fill="none" stroke="black" stroke-width="0.03cm">
    <path d="M30.56328 42.30483 L63.99438 30.56328" />
    <path d="M63.99438 30.56328 L75.73593 63.99438" />
    <path d="M75.73593 63.99438 L42.30483 75.73593" />
    <path d="M42.30483 75.73593 L30.56328 42.30483" />
    <path d="M40.6539 73.95274 L74.86616 83.17359" />
    <path d="M74.86616 83.17359 L65.64531 117.38584" />
    <path d="M65.64531 117.38584 L31.43305 108.16499" />
    <path d="M31.43305 108.16499 L40.6539 73.95274" />
    <path d="M33.20941 123.01861 L68.31997 118.24878" />
    <path d="M68.31997 118.24878 L73.0898 153.35934" />
    <path d="M73.0898 153.35934 L37.97924 158.12917" />
    <path d="M37.97924 158.12917 L33.20941 123.01861" />
    <path d="M38.04428 160.71916 L73.13911 165.60333" />
    <path d="M73.13911 165.60333 L68.25494 200.69816" />
    <path d="M68.25494 200.69816 L33.1601 195.81399" />
    <path d="M33.1601 195.81399 L38.04428 160.71916" />
    <path d="M36.60167 204.41566 L71.96229 206.68041" />
    <path d="M71.96229 206.68041 L69.69754 242.04103" />
    <path d="M69.69754 242.04103 L34.33692 239.77628" />
    <path d="M34.33692 239.77628 L36.60167 204.41566" />
    <path d="M33.21611 250.56887 L68.32877 245.81453" />
    <path d="M68.32877 245.81453 L73.08311 280.92719" />
    <path d="M73.08311 280.92719 L37.97045 285.68153" />
    <path d="M37.97045 285.68153 L33.21611 250.56887" />
    <path d="M35.87842 290.11675 L71.30057 290.99653" />
    <path d="M71.30057 290.99653 L70.42079 326.41868" />
    <path d="M70.42079 326.41868 L34.99864 325.5389" />
    <path d="M34.99864 325.5389 L35.87842 290.11675" />
    <path d="M32.71843 336.28505 L67.65196 330.35622" />
    <path d="M67.65196 330.35622 L73.58079 365.28975" />
    <path d="M73.58079 365.28975 L38.64726 371.21858" />
    <path d="M38.64726 371.21858 L32.71843 336.28505" />
    <path d="M32.19374 379.57381 L66.88288 372.35122" />
    <path d="M66.88288 372.35122 L74.10547 407.04036" />
    <path d="M74.10547 407.04036 L39.41633 414.26295" />
    <path d="M39.41633 414.26295 L32.19374 379.57381" />
    <path d="M34.69235 418.88331 L70.09307 417.36951" />
    <path d="M70.09307 417.36951 L71.60687 452.77023" />
    <path d="M71.60687 452.77023 L36.20615 454.28403" />
    <path d="M36.20615 454.28403 L34.69235 418.88331" />
    <path d="M41.87102 455.9736 L75.52246 467.06787" />
    <path d="M75.52246 467.06787 L64.4282 500.71931" />
    <path d="M64.4282 500.71931 L30.77675 489.62505" />
    <path d="M30.77675 489.62505 L41.87102 455.9736" />
    <path d="M36.3896 502.24214 L71.77361 504.10613" />
    <path d="M71.77361 504.10613 L69.90961 539.49014" />
    <path d="M69.90961 539.49014 L34.52561 537.62615" />
    <path d="M34.52561 537.62615 L36.3896 502.24214" />
    <path d="M37.16061 544.09585 L72.43958 547.39683" />
    <path d="M72.43958 547.39683 L69.1386 582.6758" />
    <path d="M69.1386 582.6758 L33.85963 579.37482" />
    <path d="M33.85963 579.37482 L37.16061 544.09585" />
    <path d="M40.25923 584.42088 L74.63424 593.01514" />
    <path d="M74.63424 593.01514 L66.03998 627.39015" />
    <path d="M66.03998 627.39015 L31.66497 618.79588" />
    <path d="M31.66497 618.79588 L40.25923 584.42088" />
    <path d="M31.54869 635.73064 L65.84416 626.82428" />
    <path d="M65.84416 626.82428 L74.75052 661.11975" />
    <path d="M74.75052 661.11975 L40.45505 670.02611" />
    <path d="M40.45505 670.02611 L31.54869 635.73064" />
    <path d="M30.62684 679.96872 L64.12577 668.42211" />
    <path d="M64.12577 668.42211 L75.67238 701.92104" />
    <path d="M75.67238 701.92104 L42.17345 713.46765" />
    <path d="M42.17345 713.46765 L30.62684 679.96872" />
    <path d="M31.41636 720.99792 L65.61626 711.73132" />
    <path d="M65.61626 711.73132 L74.88285 745.93122" />
    <path d="M74.88285 745.93122 L40.68296 755.19781" />
    <path d="M40.68296 755.19781 L31.41636 720.99792" />
    <path d="M32.03822 762.49126 L66.6426 754.87287" />
    <path d="M66.6426 754.87287 L74.26099 789.47724" />
    <path d="M74.26099 789.47724 L39.65662 797.09563" />
    <path d="M39.65662 797.09563 L32.03822 762.49126" />
    <path d="M37.30363 799.0963 L72.55724 802.65796" />
    <path d="M72.55724 802.65796 L68.99558 837.91157" />
    <path d="M68.99558 837.91157 L33.74197 834.34991" />
    <path d="M33.74197 834.34991 L37.30363 799.0963" />
    <path d="M30.94009 849.4267 L64.74653 838.81411" />
    <path d="M64.74653 838.81411 L75.35912 872.62055" />
    <path d="M75.35912 872.62055 L41.55268 883.23314" />
    <path d="M41.55268 883.23314 L30.94009 849.4267" />
    <path d="M41.68767 881.26382 L75.42909 892.08137" />
    <path d="M75.42909 892.08137 L64.61154 925.82279" />
    <path d="M64.61154 925.82279 L30.87012 915.00524" />
    <path d="M30.87012 915.00524 L41.68767 881.26382" />
    <path d="M36.74253 927.12733 L72.08527 929.65592" />
    <path d="M72.08527 929.65592 L69.55668 964.99865" />
    <path d="M69.55668 964.99865 L34.21395 962.47007" />
    <path d="M34.21395 962.47007 L36.74253 927.12733" />
    <path d="M81.36068 32.58228 L116.23662 38.841" />
    <path d="M116.23662 38.841 L109.9779 73.71693" />
    <path d="M109.9779 73.71693 L75.10196 67.45821" />
    <path d="M75.10196 67.45821 L81.36068 32.58228" />
    <path d="M76.18055 79.92317 L111.41541 76.18055" />
    <path d="M111.41541 76.18055 L115.15803 111.41541" />
    <path d="M115.15803 111.41541 L79.92317 115.15803" />
    <path d="M79.92317 115.15803 L76.18055 79.92317" />
    <path d="M75.69675 123.06122 L110.79704 118.21644" />
    <path d="M110.79704 118.21644 L115.64183 153.31673" />
    <path d="M115.64183 153.31673 L80.54154 158.16152" />
    <path d="M80.54154 158.16152 L75.69675 123.06122" />
    <path d="M73.05582 169.92061 L106.45734 158.09519" />
    <path d="M106.45734 158.09519 L118.28276 191.49671" />
    <path d="M118.28276 191.49671 L84.88124 203.32214" />
    <path d="M84.88124 203.32214 L73.05582 169.92061" />
    <path d="M81.63684 202.47162 L116.42601 209.19589" />
    <path d="M116.42601 209.19589 L109.70174 243.98507" />
    <path d="M109.70174 243.98507 L74.91257 237.2608" />
    <path d="M74.91257 237.2608 L81.63684 202.47162" />
    <path d="M81.21156 245.28526 L116.13207 251.2903" />
    <path d="M116.13207 251.2903 L110.12702 286.21081" />
    <path d="M110.12702 286.21081 L75.20652 280.20576" />
    <path d="M75.20652 280.20576 L81.21156 245.28526" />
    <path d="M75.33812 293.6255 L110.31151 287.93654" />
    <path d="M110.31151 287.93654 L116.00046 322.90994" />
    <path d="M116.00046 322.90994 L81.02707 328.59889" />
    <path d="M81.02707 328.59889 L75.33812 293.6255" />
    <path d="M80.28145 331.01455 L115.44214 335.39956" />
    <path d="M115.44214 335.39956 L111.05713 370.56025" />
    <path d="M111.05713 370.56025 L75.89644 366.17524" />
    <path d="M75.89644 366.17524 L80.28145 331.01455" />
    <path d="M83.76933 371.25846 L117.71792 381.40712" />
    <path d="M117.71792 381.40712 L107.56926 415.35572" />
    <path d="M107.56926 415.35572 L73.62066 405.20705" />
    <path d="M73.62066 405.20705 L83.76933 371.25846" />
    <path d="M74.96598 421.71563 L109.78043 415.12346" />
    <path d="M109.78043 415.12346 L116.3726 449.93791" />
    <path d="M116.3726 449.93791 L81.55815 456.53008" />
    <path d="M81.55815 456.53008 L74.96598 421.71563" />
    <path d="M75.87093 462.99145 L111.0243 458.5481" />
    <path d="M111.0243 458.5481 L115.46765 493.70146" />
    <path d="M115.46765 493.70146 L80.31429 498.14482" />
    <path d="M80.31429 498.14482 L75.87093 462.99145" />
    <path d="M83.88504 498.75545 L117.77998 509.08189" />
    <path d="M117.77998 509.08189 L107.45354 542.97683" />
    <path d="M107.45354 542.97683 L73.5586 532.65039" />
    <path d="M73.5586 532.65039 L83.88504 498.75545" />
    <path d="M73.19809 552.30447 L106.75065 540.91463" />
    <path d="M106.75065 540.91463 L118.14049 574.46719" />
    <path d="M118.14049 574.46719 L84.58793 585.85702" />
    <path d="M84.58793 585.85702 L73.19809 552.30447" />
    <path d="M74.46808 592.55411 L109.02069 584.7043" />
    <path d="M109.02069 584.7043 L116.8705 619.25691" />
    <path d="M116.8705 619.25691 L82.31789 627.10672" />
    <path d="M82.31789 627.10672 L74.46808 592.55411" />
    <path d="M75.45317 633.62454 L110.46995 628.20907" />
    <path d="M110.46995 628.20907 L115.88542 663.22586" />
    <path d="M115.88542 663.22586 L80.86863 668.64132" />
    <path d="M80.86863 668.64132 L75.45317 633.62454" />
    <path d="M76.47871 674.83672 L111.77746 671.7543" />
    <path d="M111.77746 671.7543 L114.85987 707.05305" />
    <path d="M114.85987 707.05305 L79.56113 710.13546" />
    <path d="M79.56113 710.13546 L76.47871 674.83672" />
    <path d="M73.40963 721.96418 L107.16968 711.20491" />
    <path d="M107.16968 711.20491 L117.92895 744.96495" />
    <path d="M117.92895 744.96495 L84.16891 755.72423" />
    <path d="M84.16891 755.72423 L73.40963 721.96418" />
    <path d="M73.54371 764.22799 L107.42556 753.85867" />
    <path d="M107.42556 753.85867 L117.79488 787.74052" />
    <path d="M117.79488 787.74052 L83.91302 798.10984" />
    <path d="M83.91302 798.10984 L73.54371 764.22799" />
    <path d="M74.18529 805.6125 L108.56072 797.01994" />
    <path d="M108.56072 797.01994 L117.15329 831.39537" />
    <path d="M117.15329 831.39537 L82.77786 839.98794" />
    <path d="M82.77786 839.98794 L74.18529 805.6125" />
    <path d="M77.20727 844.08536 L112.60756 842.5616" />
    <path d="M112.60756 842.5616 L114.13132 877.96189" />
    <path d="M114.13132 877.96189 L78.73102 879.48565" />
    <path d="M78.73102 879.48565 L77.20727 844.08536" />
    <path d="M82.38435 882.30039 L116.91221 890.25837" />
    <path d="M116.91221 890.25837 L108.95423 924.78623" />
    <path d="M108.95423 924.78623 L74.42637 916.82825" />
    <path d="M74.42637 916.82825 L82.38435 882.30039" />
    <path d="M77.85515 928.4446 L113.28768 928.24885" />
    <path d="M113.28768 928.24885 L113.48343 963.68138" />
    <path d="M113.48343 963.68138 L78.0509 963.87713" />
    <path d="M78.0509 963.87713 L77.85515 928.4446" />
    <path d="M121.18193 34.75092 L156.58767 36.14256" />
    <path d="M156.58767 36.14256 L155.19602 71.5483" />
    <path d="M155.19602 71.5483 L119.79029 70.15665" />
    <path d="M119.79029 70.15665 L121.18193 34.75092" />
    <path d="M117.40944 81.67064 L152.18763 74.88976" />
    <path d="M152.18763 74.88976 L158.96851 109.66794" />
    <path d="M158.96851 109.66794 L124.19032 116.44882" />
    <path d="M124.19032 116.44882 L117.40944 81.67064" />
    <path d="M119.62261 121.36515 L155.01281 119.62261" />
    <path d="M155.01281 119.62261 L156.75534 155.01281" />
    <path d="M156.75534 155.01281 L121.36515 156.75534" />
    <path d="M121.36515 156.75534 L119.62261 121.36515" />
    <path d="M122.378 161.27251 L157.62513 164.89768" />
    <path d="M157.62513 164.89768 L153.99996 200.14482" />
    <path d="M153.99996 200.14482 L118.75282 196.51964" />
    <path d="M118.75282 196.51964 L122.378 161.27251" />
    <path d="M117.83273 208.62101 L152.79631 202.8721" />
    <path d="M152.79631 202.8721 L158.54523 237.83568" />
    <path d="M158.54523 237.83568 L123.58164 243.5846" />
    <path d="M123.58164 243.5846 L117.83273 208.62101" />
    <path d="M123.25325 245.63149 L158.30552 250.8123" />
    <path d="M158.30552 250.8123 L153.12471 285.86457" />
    <path d="M153.12471 285.86457 L118.07244 280.68376" />
    <path d="M118.07244 280.68376 L123.25325 245.63149" />
    <path d="M118.69969 292.52227 L153.93442 288.77843" />
    <path d="M153.93442 288.77843 L157.67826 324.01316" />
    <path d="M157.67826 324.01316 L122.44353 327.757" />
    <path d="M122.44353 327.757 L118.69969 292.52227" />
    <path d="M117.45947 336.71477 L152.2616 330.0579" />
    <path d="M152.2616 330.0579 L158.91848 364.86003" />
    <path d="M158.91848 364.86003 L124.11635 371.51691" />
    <path d="M124.11635 371.51691 L117.45947 336.71477" />
    <path d="M121.77379 374.37846 L157.1176 376.8919" />
    <path d="M157.1176 376.8919 L154.60417 412.23571" />
    <path d="M154.60417 412.23571 L119.26035 409.72228" />
    <path d="M119.26035 409.72228 L121.77379 374.37846" />
    <path d="M122.79021 416.06243 L157.95332 420.428" />
    <path d="M157.95332 420.428 L153.58775 455.59111" />
    <path d="M153.58775 455.59111 L118.42464 451.22554" />
    <path d="M118.42464 451.22554 L122.79021 416.06243" />
    <path d="M122.60854 458.72501 L157.81042 462.76602" />
    <path d="M157.81042 462.76602 L153.76941 497.9679" />
    <path d="M153.76941 497.9679 L118.56753 493.92689" />
    <path d="M118.56753 493.92689 L122.60854 458.72501" />
    <path d="M122.46876 501.3565 L157.69861 505.14592" />
    <path d="M157.69861 505.14592 L153.9092 540.37578" />
    <path d="M153.9092 540.37578 L118.67934 536.58636" />
    <path d="M118.67934 536.58636 L122.46876 501.3565" />
    <path d="M126.70542 541.11748 L160.45732 551.90227" />
    <path d="M160.45732 551.90227 L149.67253 585.65417" />
    <path d="M149.67253 585.65417 L115.92063 574.86938" />
    <path d="M115.92063 574.86938 L126.70542 541.11748" />
    <path d="M118.82976 590.00042 L154.09407 586.54629" />
    <path d="M154.09407 586.54629 L157.54819 621.8106" />
    <path d="M157.54819 621.8106 L122.28388 625.26473" />
    <path d="M122.28388 625.26473 L118.82976 590.00042" />
    <path d="M121.11252 630.09092 L156.52326 631.34874" />
    <path d="M156.52326 631.34874 L155.26543 666.75948" />
    <path d="M155.26543 666.75948 L119.8547 665.50165" />
    <path d="M119.8547 665.50165 L121.11252 630.09092" />
    <path d="M126.062 669.02029 L160.11357 678.81791" />
    <path d="M160.11357 678.81791 L150.31595 712.86947" />
    <path d="M150.31595 712.86947 L116.26439 703.07186" />
    <path d="M116.26439 703.07186 L126.062 669.02029" />
    <path d="M120.35299 715.86829 L155.78525 715.62858" />
    <path d="M155.78525 715.62858 L156.02496 751.06084" />
    <path d="M156.02496 751.06084 L120.5927 751.30055" />
    <path d="M120.5927 751.30055 L120.35299 715.86829" />
    <path d="M116.49689 763.44613 L150.7271 754.29216" />
    <path d="M150.7271 754.29216 L159.88107 788.52237" />
    <path d="M159.88107 788.52237 L125.65086 797.67634" />
    <path d="M125.65086 797.67634 L116.49689 763.44613" />
    <path d="M125.51151 796.89299 L159.79993 805.82647" />
    <path d="M159.79993 805.82647 L150.86644 840.11489" />
    <path d="M150.86644 840.11489 L116.57803 831.1814" />
    <path d="M116.57803 831.1814 L125.51151 796.89299" />
    <path d="M122.30424 841.6477 L157.5649 845.13889" />
    <path d="M157.5649 845.13889 L154.07371 880.39955" />
    <path d="M154.07371 880.39955 L118.81305 876.90836" />
    <path d="M118.81305 876.90836 L122.30424 841.6477" />
    <path d="M123.04324 883.5844 L158.14788 888.39757" />
    <path d="M158.14788 888.39757 L153.33471 923.50221" />
    <path d="M153.33471 923.50221 L118.23007 918.68904" />
    <path d="M118.23007 918.68904 L123.04324 883.5844" />
    <path d="M122.85621 926.2474 L158.00456 930.73023" />
    <path d="M158.00456 930.73023 L153.52174 965.87858" />
    <path d="M153.52174 965.87858 L118.37339 961.39576" />
    <path d="M118.37339 961.39576 L122.85621 926.2474" />
    <path d="M158.07785 42.39798 L191.46029 30.51879" />
    <path d="M191.46029 30.51879 L203.33948 63.90123" />
    <path d="M203.33948 63.90123 L169.95704 75.78042" />
    <path d="M169.95704 75.78042 L158.07785 42.39798" />
    <path d="M158.16998 84.72583 L191.65212 73.13061" />
    <path d="M191.65212 73.13061 L203.24734 106.61275" />
    <path d="M203.24734 106.61275 L169.7652 118.20797" />
    <path d="M169.7652 118.20797 L158.16998 84.72583" />
    <path d="M164.09802 119.43164 L199.466 121.57833" />
    <path d="M199.466 121.57833 L197.3193 156.94632" />
    <path d="M197.3193 156.94632 L161.95132 154.79962" />
    <path d="M161.95132 154.79962 L164.09802 119.43164" />
    <path d="M166.55552 160.03404 L201.38328 166.55552" />
    <path d="M201.38328 166.55552 L194.8618 201.38328" />
    <path d="M194.8618 201.38328 L160.03404 194.8618" />
    <path d="M160.03404 194.8618 L166.55552 160.03404" />
    <path d="M162.88787 205.61668 L198.32033 205.40756" />
    <path d="M198.32033 205.40756 L198.52945 240.84001" />
    <path d="M198.52945 240.84001 L163.09699 241.04913" />
    <path d="M163.09699 241.04913 L162.88787 205.61668" />
    <path d="M160.68217 250.69178 L195.76491 245.72154" />
    <path d="M195.76491 245.72154 L200.73516 280.80428" />
    <path d="M200.73516 280.80428 L165.65241 285.77453" />
    <path d="M165.65241 285.77453 L160.68217 250.69178" />
    <path d="M158.25856 297.14367 L191.83271 285.81762" />
    <path d="M191.83271 285.81762 L203.15876 319.39176" />
    <path d="M203.15876 319.39176 L169.58462 330.71781" />
    <path d="M169.58462 330.71781 L158.25856 297.14367" />
    <path d="M160.34357 336.19239 L195.30367 330.42231" />
    <path d="M195.30367 330.42231 L201.07375 365.38241" />
    <path d="M201.07375 365.38241 L166.11365 371.15249" />
    <path d="M166.11365 371.15249 L160.34357 336.19239" />
    <path d="M164.95424 373.82506 L200.19069 377.55266" />
    <path d="M200.19069 377.55266 L196.46309 412.78911" />
    <path d="M196.46309 412.78911 L161.22664 409.06151" />
    <path d="M161.22664 409.06151 L164.95424 373.82506" />
    <path d="M159.92312 421.83704 L194.69839 415.04123" />
    <path d="M194.69839 415.04123 L201.4942 449.8165" />
    <path d="M201.4942 449.8165 L166.71893 456.61231" />
    <path d="M166.71893 456.61231 L159.92312 421.83704" />
    <path d="M159.88554 464.41273 L194.64239 457.52333" />
    <path d="M194.64239 457.52333 L201.53179 492.28018" />
    <path d="M201.53179 492.28018 L166.77493 499.16958" />
    <path d="M166.77493 499.16958 L159.88554 464.41273" />
    <path d="M158.08179 510.10622 L191.46858 498.23927" />
    <path d="M191.46858 498.23927 L203.33553 531.62606" />
    <path d="M203.33553 531.62606 L169.94874 543.49301" />
    <path d="M169.94874 543.49301 L158.08179 510.10622" />
    <path d="M169.37506 541.04079 L203.0537 552.05222" />
    <path d="M203.0537 552.05222 L192.04226 585.73086" />
    <path d="M192.04226 585.73086 L158.36362 574.71943" />
    <path d="M158.36362 574.71943 L169.37506 541.04079" />
    <path d="M162.45315 588.74487 L197.8693 587.65" />
    <path d="M197.8693 587.65 L198.96417 623.06615" />
    <path d="M198.96417 623.06615 L163.54802 624.16102" />
    <path d="M163.54802 624.16102 L162.45315 588.74487" />
    <path d="M163.54387 630.17359 L198.96027 631.2604" />
    <path d="M198.96027 631.2604 L197.87346 666.6768" />
    <path d="M197.87346 666.6768 L162.45706 665.58999" />
    <path d="M162.45706 665.58999 L163.54387 630.17359" />
    <path d="M161.63186 674.70213 L196.95141 671.86808" />
    <path d="M196.95141 671.86808 L199.78546 707.18763" />
    <path d="M199.78546 707.18763 L164.46591 710.02168" />
    <path d="M164.46591 710.02168 L161.63186 674.70213" />
    <path d="M167.13218 712.40678 L201.76645 719.88809" />
    <path d="M201.76645 719.88809 L194.28514 754.52235" />
    <path d="M194.28514 754.52235 L159.65087 747.04105" />
    <path d="M159.65087 747.04105 L167.13218 712.40678" />
    <path d="M159.0951 763.31124 L193.38167 754.37069" />
    <path d="M193.38167 754.37069 L202.32222 788.65726" />
    <path d="M202.32222 788.65726 L168.03565 797.59781" />
    <path d="M168.03565 797.59781 L159.0951 763.31124" />
    <path d="M163.92632 799.90006 L199.31254 801.72159" />
    <path d="M199.31254 801.72159 L197.491 837.10781" />
    <path d="M197.491 837.10781 L162.10478 835.28628" />
    <path d="M162.10478 835.28628 L163.92632 799.90006" />
    <path d="M158.85333 848.77226 L192.96003 839.16829" />
    <path d="M192.96003 839.16829 L202.56399 873.27499" />
    <path d="M202.56399 873.27499 L168.4573 882.87895" />
    <path d="M168.4573 882.87895 L158.85333 848.77226" />
    <path d="M158.20318 892.53173 L191.72023 881.03783" />
    <path d="M191.72023 881.03783 L203.21414 914.55488" />
    <path d="M203.21414 914.55488 L169.69709 926.04878" />
    <path d="M169.69709 926.04878 L158.20318 892.53173" />
    <path d="M168.96464 923.9309 L202.84075 934.31897" />
    <path d="M202.84075 934.31897 L192.45268 968.19508" />
    <path d="M192.45268 968.19508 L158.57657 957.80701" />
    <path d="M158.57657 957.80701 L168.96464 923.9309" />
    <path d="M201.53652 40.61102 L235.76693 31.45778" />
    <path d="M235.76693 31.45778 L244.92017 65.68819" />
    <path d="M244.92017 65.68819 L210.68976 74.84143" />
    <path d="M210.68976 74.84143 L201.53652 40.61102" />
    <path d="M201.28576 83.57491 L235.32273 73.7267" />
    <path d="M235.32273 73.7267 L245.17093 107.76367" />
    <path d="M245.17093 107.76367 L211.13396 117.61188" />
    <path d="M211.13396 117.61188 L201.28576 83.57491" />
    <path d="M205.19846 120.79144 L240.62589 120.15909" />
    <path d="M240.62589 120.15909 L241.25824 155.58652" />
    <path d="M241.25824 155.58652 L205.83081 156.21887" />
    <path d="M205.83081 156.21887 L205.19846 120.79144" />
    <path d="M206.58204 161.98297 L241.95404 164.06235" />
    <path d="M241.95404 164.06235 L239.87465 199.43436" />
    <path d="M239.87465 199.43436 L204.50265 197.35497" />
    <path d="M204.50265 197.35497 L206.58204 161.98297" />
    <path d="M203.33808 207.99258 L238.46411 203.33808" />
    <path d="M238.46411 203.33808 L243.11861 238.46411" />
    <path d="M243.11861 238.46411 L207.99258 243.11861" />
    <path d="M207.99258 243.11861 L203.33808 207.99258" />
    <path d="M206.08759 247.47385 L241.50253 248.60727" />
    <path d="M241.50253 248.60727 L240.36911 284.02221" />
    <path d="M240.36911 284.02221 L204.95417 282.88879" />
    <path d="M204.95417 282.88879 L206.08759 247.47385" />
    <path d="M210.859 286.47895 L245.01712 295.89837" />
    <path d="M245.01712 295.89837 L235.59769 330.05649" />
    <path d="M235.59769 330.05649 L201.43958 320.63706" />
    <path d="M201.43958 320.63706 L210.859 286.47895" />
    <path d="M205.70964 332.87522 L241.14052 333.26869" />
    <path d="M241.14052 333.26869 L240.74706 368.69958" />
    <path d="M240.74706 368.69958 L205.31617 368.30611" />
    <path d="M205.31617 368.30611 L205.70964 332.87522" />
    <path d="M205.79722 375.30966 L241.22577 375.87596" />
    <path d="M241.22577 375.87596 L240.65947 411.30451" />
    <path d="M240.65947 411.30451 L205.23092 410.73821" />
    <path d="M205.23092 410.73821 L205.79722 375.30966" />
    <path d="M201.18942 423.90884 L235.14628 413.78785" />
    <path d="M235.14628 413.78785 L245.26727 447.7447" />
    <path d="M245.26727 447.7447 L211.31042 457.8657" />
    <path d="M211.31042 457.8657 L201.18942 423.90884" />
    <path d="M203.0789 463.45515 L238.11966 458.19701" />
    <path d="M238.11966 458.19701 L243.37779 493.23777" />
    <path d="M243.37779 493.23777 L208.33704 498.4959" />
    <path d="M208.33704 498.4959 L203.0789 463.45515" />
    <path d="M208.88591 500.32239 L243.7721 506.52371" />
    <path d="M243.7721 506.52371 L237.57078 541.4099" />
    <path d="M237.57078 541.4099 L202.68459 535.20857" />
    <path d="M202.68459 535.20857 L208.88591 500.32239" />
    <path d="M202.28398 549.63501 L236.97916 542.44146" />
    <path d="M236.97916 542.44146 L244.17271 577.13664" />
    <path d="M244.17271 577.13664 L209.47753 584.33019" />
    <path d="M209.47753 584.33019 L202.28398 549.63501" />
    <path d="M212.41167 583.30571 L245.82814 595.08884" />
    <path d="M245.82814 595.08884 L234.04502 628.50531" />
    <path d="M234.04502 628.50531 L200.62855 616.72218" />
    <path d="M200.62855 616.72218 L212.41167 583.30571" />
    <path d="M209.73933 627.31128 L244.34227 634.93618" />
    <path d="M244.34227 634.93618 L236.71737 669.53912" />
    <path d="M236.71737 669.53912 L202.11443 661.91422" />
    <path d="M202.11443 661.91422 L209.73933 627.31128" />
    <path d="M200.79107 679.79499 L234.37823 668.50761" />
    <path d="M234.37823 668.50761 L245.66562 702.09477" />
    <path d="M245.66562 702.09477 L212.07846 713.38216" />
    <path d="M212.07846 713.38216 L200.79107 679.79499" />
    <path d="M206.12761 715.15293 L241.53998 716.36383" />
    <path d="M241.53998 716.36383 L240.32909 751.7762" />
    <path d="M240.32909 751.7762 L204.91671 750.56531" />
    <path d="M204.91671 750.56531 L206.12761 715.15293" />
    <path d="M204.65392 759.16932 L240.04328 757.40983" />
    <path d="M240.04328 757.40983 L241.80277 792.79919" />
    <path d="M241.80277 792.79919 L206.41341 794.55868" />
    <path d="M206.41341 794.55868 L204.65392 759.16932" />
    <path d="M206.71201 799.6635 L242.06878 801.9876" />
    <path d="M242.06878 801.9876 L239.74468 837.34437" />
    <path d="M239.74468 837.34437 L204.38791 835.02027" />
    <path d="M204.38791 835.02027 L206.71201 799.6635" />
    <path d="M209.00775 840.39534 L243.85663 846.80303" />
    <path d="M243.85663 846.80303 L237.44894 881.6519" />
    <path d="M237.44894 881.6519 L202.60007 875.24422" />
    <path d="M202.60007 875.24422 L209.00775 840.39534" />
    <path d="M206.38765 884.99224 L241.77942 886.70261" />
    <path d="M241.77942 886.70261 L240.06904 922.09438" />
    <path d="M240.06904 922.09438 L204.67728 920.384" />
    <path d="M204.67728 920.384 L206.38765 884.99224" />
    <path d="M208.84832 925.54553 L243.7458 931.68296" />
    <path d="M243.7458 931.68296 L237.60837 966.58045" />
    <path d="M237.60837 966.58045 L202.71089 960.44302" />
    <path d="M202.71089 960.44302 L208.84832 925.54553" />
    <path d="M243.61205 41.41293 L277.48471 31.01362" />
    <path d="M277.48471 31.01362 L287.88401 64.88628" />
    <path d="M287.88401 64.88628 L254.01136 75.28559" />
    <path d="M254.01136 75.28559 L243.61205 41.41293" />
    <path d="M252.29734 74.53093 L286.88639 82.2186" />
    <path d="M286.88639 82.2186 L279.19872 116.80765" />
    <path d="M279.19872 116.80765 L244.60967 109.11998" />
    <path d="M244.60967 109.11998 L252.29734 74.53093" />
    <path d="M246.58902 122.04327 L281.89373 119.02997" />
    <path d="M281.89373 119.02997 L284.90704 154.33468" />
    <path d="M284.90704 154.33468 L249.60233 157.34798" />
    <path d="M249.60233 157.34798 L246.58902 122.04327" />
    <path d="M246.98523 164.10419 L282.3525 161.94586" />
    <path d="M282.3525 161.94586 L284.51084 197.31313" />
    <path d="M284.51084 197.31313 L249.14356 199.47146" />
    <path d="M249.14356 199.47146 L246.98523 164.10419" />
    <path d="M254.38773 200.89687 L288.07951 211.86805" />
    <path d="M288.07951 211.86805 L277.10833 245.55982" />
    <path d="M277.10833 245.55982 L243.41655 234.58865" />
    <path d="M243.41655 234.58865 L254.38773 200.89687" />
    <path d="M244.86604 251.90268 L279.59338 244.86604" />
    <path d="M279.59338 244.86604 L286.63002 279.59338" />
    <path d="M286.63002 279.59338 L251.90268 286.63002" />
    <path d="M251.90268 286.63002 L244.86604 251.90268" />
    <path d="M243.47014 296.80269 L277.21306 285.98983" />
    <path d="M277.21306 285.98983 L288.02592 319.73275" />
    <path d="M288.02592 319.73275 L254.283 330.54561" />
    <path d="M254.283 330.54561 L243.47014 296.80269" />
    <path d="M243.6754 338.93202 L277.60341 328.71477" />
    <path d="M277.60341 328.71477 L287.82067 362.64278" />
    <path d="M287.82067 362.64278 L253.89265 372.86004" />
    <path d="M253.89265 372.86004 L243.6754 338.93202" />
    <path d="M243.72651 381.35704 L277.69808 371.28556" />
    <path d="M277.69808 371.28556 L287.76956 405.25714" />
    <path d="M287.76956 405.25714 L253.79798 415.32861" />
    <path d="M253.79798 415.32861 L243.72651 381.35704" />
    <path d="M248.79037 417.38256 L284.19225 418.86911" />
    <path d="M284.19225 418.86911 L282.70569 454.27099" />
    <path d="M282.70569 454.27099 L247.30382 452.78443" />
    <path d="M247.30382 452.78443 L248.79037 417.38256" />
    <path d="M247.31806 461.37332 L282.72117 459.91649" />
    <path d="M282.72117 459.91649 L284.178 495.3196" />
    <path d="M284.178 495.3196 L248.77489 496.77643" />
    <path d="M248.77489 496.77643 L247.31806 461.37332" />
    <path d="M245.97528 505.47818 L281.136 501.09339" />
    <path d="M281.136 501.09339 L285.52078 536.25411" />
    <path d="M285.52078 536.25411 L250.36007 540.63889" />
    <path d="M250.36007 540.63889 L245.97528 505.47818" />
    <path d="M248.96893 544.77903 L284.35483 546.60672" />
    <path d="M284.35483 546.60672 L282.52714 581.99262" />
    <path d="M282.52714 581.99262 L247.14123 580.16493" />
    <path d="M247.14123 580.16493 L248.96893 544.77903" />
    <path d="M253.31517 584.15292 L287.50062 593.47265" />
    <path d="M287.50062 593.47265 L278.1809 627.6581" />
    <path d="M278.1809 627.6581 L243.99544 618.33838" />
    <path d="M243.99544 618.33838 L253.31517 584.15292" />
    <path d="M244.64532 634.91865 L279.25458 627.32249" />
    <path d="M279.25458 627.32249 L286.85074 661.93174" />
    <path d="M286.85074 661.93174 L252.24148 669.52791" />
    <path d="M252.24148 669.52791 L244.64532 634.91865" />
    <path d="M248.91096 672.39052 L284.30239 674.10781" />
    <path d="M284.30239 674.10781 L282.5851 709.49924" />
    <path d="M282.5851 709.49924 L247.19367 707.78195" />
    <path d="M247.19367 707.78195 L248.91096 672.39052" />
    <path d="M247.08467 716.74841 L282.46419 714.8012" />
    <path d="M282.46419 714.8012 L284.4114 750.18073" />
    <path d="M284.4114 750.18073 L249.03187 752.12793" />
    <path d="M249.03187 752.12793 L247.08467 716.74841" />
    <path d="M243.40395 764.64876 L277.08353 753.64017" />
    <path d="M277.08353 753.64017 L288.09211 787.31975" />
    <path d="M288.09211 787.31975 L254.41254 798.32833" />
    <path d="M254.41254 798.32833 L243.40395 764.64876" />
    <path d="M243.61413 806.76333 L277.48863 796.37004" />
    <path d="M277.48863 796.37004 L287.88193 830.24454" />
    <path d="M287.88193 830.24454 L254.00743 840.63784" />
    <path d="M254.00743 840.63784 L243.61413 806.76333" />
    <path d="M252.19309 839.95196 L286.81969 847.46868" />
    <path d="M286.81969 847.46868 L279.30298 882.09528" />
    <path d="M279.30298 882.09528 L244.67637 874.57857" />
    <path d="M244.67637 874.57857 L252.19309 839.95196" />
    <path d="M245.89672 888.25682 L281.03452 883.69199" />
    <path d="M281.03452 883.69199 L285.59934 918.82979" />
    <path d="M285.59934 918.82979 L250.46155 923.39462" />
    <path d="M250.46155 923.39462 L245.89672 888.25682" />
    <path d="M249.13318 927.30938 L284.50164 929.44814" />
    <path d="M284.50164 929.44814 L282.36288 964.8166" />
    <path d="M282.36288 964.8166 L246.99442 962.67784" />
    <path d="M246.99442 962.67784 L249.13318 927.30938" />
    <path d="M290.33589 35.65101 L325.76632 35.21778" />
    <path d="M325.76632 35.21778 L326.19954 70.64821" />
    <path d="M326.19954 70.64821 L290.76912 71.08143" />
    <path d="M290.76912 71.08143 L290.33589 35.65101" />
    <path d="M295.1515 74.32178 L329.61522 82.55307" />
    <path d="M329.61522 82.55307 L321.38393 117.0168" />
    <path d="M321.38393 117.0168 L286.92021 108.78551" />
    <path d="M286.92021 108.78551 L295.1515 74.32178" />
    <path d="M288.52134 122.76718 L323.68951 118.4426" />
    <path d="M323.68951 118.4426 L328.0141 153.61077" />
    <path d="M328.0141 153.61077 L292.84592 157.93536" />
    <path d="M292.84592 157.93536 L288.52134 122.76718" />
    <path d="M293.13148 160.74255 L328.23383 165.57242" />
    <path d="M328.23383 165.57242 L323.40396 200.67477" />
    <path d="M323.40396 200.67477 L288.30161 195.8449" />
    <path d="M288.30161 195.8449 L293.13148 160.74255" />
    <path d="M289.01641 207.19281 L324.30325 203.97704" />
    <path d="M324.30325 203.97704 L327.51902 239.26388" />
    <path d="M327.51902 239.26388 L292.23218 242.47965" />
    <path d="M292.23218 242.47965 L289.01641 207.19281" />
    <path d="M294.94367 244.52962 L329.48613 252.42399" />
    <path d="M329.48613 252.42399 L321.59176 286.96645" />
    <path d="M321.59176 286.96645 L287.0493 279.07207" />
    <path d="M287.0493 279.07207 L294.94367 244.52962" />
    <path d="M289.97932 291.14213 L325.3933 289.97932" />
    <path d="M325.3933 289.97932 L326.55611 325.3933" />
    <path d="M326.55611 325.3933 L291.14213 326.55611" />
    <path d="M291.14213 326.55611 L289.97932 291.14213" />
    <path d="M292.53757 331.28577 L327.76935 335.05726" />
    <path d="M327.76935 335.05726 L323.99786 370.28904" />
    <path d="M323.99786 370.28904 L288.76608 366.51755" />
    <path d="M288.76608 366.51755 L292.53757 331.28577" />
    <path d="M296.41202 371.23462 L330.34018 381.45139" />
    <path d="M330.34018 381.45139 L320.12341 415.37955" />
    <path d="M320.12341 415.37955 L286.19525 405.16278" />
    <path d="M286.19525 405.16278 L296.41202 371.23462" />
    <path d="M286.61115 423.22738 L320.8671 414.17021" />
    <path d="M320.8671 414.17021 L329.92428 448.42616" />
    <path d="M329.92428 448.42616 L295.66833 457.48333" />
    <path d="M295.66833 457.48333 L286.61115 423.22738" />
    <path d="M296.52635 456.21296 L330.40121 466.60509" />
    <path d="M330.40121 466.60509 L320.00908 500.47995" />
    <path d="M320.00908 500.47995 L286.13422 490.08782" />
    <path d="M286.13422 490.08782 L296.52635 456.21296" />
    <path d="M289.57875 504.17861 L324.95525 502.17718" />
    <path d="M324.95525 502.17718 L326.95668 537.55368" />
    <path d="M326.95668 537.55368 L291.58018 539.55511" />
    <path d="M291.58018 539.55511 L289.57875 504.17861" />
    <path d="M291.06497 545.16999 L326.48355 546.18308" />
    <path d="M326.48355 546.18308 L325.47046 581.60166" />
    <path d="M325.47046 581.60166 L290.05188 580.58858" />
    <path d="M290.05188 580.58858 L291.06497 545.16999" />
    <path d="M296.38265 583.84885 L330.32438 594.02044" />
    <path d="M330.32438 594.02044 L320.15279 627.96217" />
    <path d="M320.15279 627.96217 L286.21105 617.79058" />
    <path d="M286.21105 617.79058 L296.38265 583.84885" />
    <path d="M289.67414 631.63144 L325.06147 629.83162" />
    <path d="M325.06147 629.83162 L326.86129 665.21895" />
    <path d="M326.86129 665.21895 L291.47396 667.01877" />
    <path d="M291.47396 667.01877 L289.67414 631.63144" />
    <path d="M290.66401 673.11624 L326.09636 673.34117" />
    <path d="M326.09636 673.34117 L325.87143 708.77353" />
    <path d="M325.87143 708.77353 L290.43907 708.54859" />
    <path d="M290.43907 708.54859 L290.66401 673.11624" />
    <path d="M290.68953 715.61076 L326.12153 715.88638" />
    <path d="M326.12153 715.88638 L325.8459 751.31838" />
    <path d="M325.8459 751.31838 L290.41391 751.04275" />
    <path d="M290.41391 751.04275 L290.68953 715.61076" />
    <path d="M287.89618 761.39824 L322.85373 755.61272" />
    <path d="M322.85373 755.61272 L328.63925 790.57026" />
    <path d="M328.63925 790.57026 L293.6817 796.35579" />
    <path d="M293.6817 796.35579 L287.89618 761.39824" />
    <path d="M293.57402 798.20993 L328.56172 803.81024" />
    <path d="M328.56172 803.81024 L322.96141 838.79794" />
    <path d="M322.96141 838.79794 L287.97371 833.19763" />
    <path d="M287.97371 833.19763 L293.57402 798.20993" />
    <path d="M288.38899 845.77281 L323.51853 841.14489" />
    <path d="M323.51853 841.14489 L328.14645 876.27444" />
    <path d="M328.14645 876.27444 L293.0169 880.90235" />
    <path d="M293.0169 880.90235 L288.38899 845.77281" />
    <path d="M285.80861 892.43746 L319.37356 881.0842" />
    <path d="M319.37356 881.0842 L330.72682 914.64915" />
    <path d="M330.72682 914.64915 L297.16187 926.00241" />
    <path d="M297.16187 926.00241 L285.80861 892.43746" />
    <path d="M292.36694 926.70023 L327.63048 930.16221" />
    <path d="M327.63048 930.16221 L324.16849 965.42575" />
    <path d="M324.16849 965.42575 L288.90496 961.96377" />
    <path d="M288.90496 961.96377 L292.36694 926.70023" />
    <path d="M328.57002 41.56775 L362.36926 30.93223" />
    <path d="M362.36926 30.93223 L373.00478 64.73146" />
    <path d="M373.00478 64.73146 L339.20555 75.36699" />
    <path d="M339.20555 75.36699 L328.57002 41.56775" />
    <path d="M328.26124 84.7001 L361.75659 73.14313" />
    <path d="M361.75659 73.14313 L373.31357 106.63848" />
    <path d="M373.31357 106.63848 L339.81821 118.19546" />
    <path d="M339.81821 118.19546 L328.26124 84.7001" />
    <path d="M329.00874 125.80184 L363.17454 116.41032" />
    <path d="M363.17454 116.41032 L372.56606 150.57612" />
    <path d="M372.56606 150.57612 L338.40026 159.96764" />
    <path d="M338.40026 159.96764 L329.00874 125.80184" />
    <path d="M328.31593 169.62786 L361.8682 158.23719" />
    <path d="M361.8682 158.23719 L373.25888 191.78946" />
    <path d="M373.25888 191.78946 L339.7066 203.18014" />
    <path d="M339.7066 203.18014 L328.31593 169.62786" />
    <path d="M329.69755 209.70173 L364.31402 202.13849" />
    <path d="M364.31402 202.13849 L371.87725 236.75496" />
    <path d="M371.87725 236.75496 L337.26078 244.3182" />
    <path d="M337.26078 244.3182 L329.69755 209.70173" />
    <path d="M337.74887 244.35299 L372.18245 252.7095" />
    <path d="M372.18245 252.7095 L363.82593 287.14308" />
    <path d="M363.82593 287.14308 L329.39236 278.78656" />
    <path d="M329.39236 278.78656 L337.74887 244.35299" />
    <path d="M333.80802 289.84349 L369.21162 291.28834" />
    <path d="M369.21162 291.28834 L367.76678 326.69194" />
    <path d="M367.76678 326.69194 L332.36318 325.2471" />
    <path d="M332.36318 325.2471 L333.80802 289.84349" />
    <path d="M329.21261 338.04849 L363.52631 329.21261" />
    <path d="M363.52631 329.21261 L372.36219 363.52631" />
    <path d="M372.36219 363.52631 L338.04849 372.36219" />
    <path d="M338.04849 372.36219 L329.21261 338.04849" />
    <path d="M330.10836 379.1604 L364.93409 372.62805" />
    <path d="M364.93409 372.62805 L371.46644 407.45377" />
    <path d="M371.46644 407.45377 L336.64072 413.98612" />
    <path d="M336.64072 413.98612 L330.10836 379.1604" />
    <path d="M335.65141 415.86047 L370.7537 420.69078" />
    <path d="M370.7537 420.69078 L365.92339 455.79307" />
    <path d="M365.92339 455.79307 L330.8211 450.96276" />
    <path d="M330.8211 450.96276 L335.65141 415.86047" />
    <path d="M337.54523 457.07685 L372.05701 465.10429" />
    <path d="M372.05701 465.10429 L364.02957 499.61606" />
    <path d="M364.02957 499.61606 L329.51779 491.58863" />
    <path d="M329.51779 491.58863 L337.54523 457.07685" />
    <path d="M336.07122 500.58844 L371.0651 506.14996" />
    <path d="M371.0651 506.14996 L365.50358 541.14384" />
    <path d="M365.50358 541.14384 L330.5097 535.58233" />
    <path d="M330.5097 535.58233 L336.07122 500.58844" />
    <path d="M329.88487 549.57151 L364.60172 542.48329" />
    <path d="M364.60172 542.48329 L371.68994 577.20014" />
    <path d="M371.68994 577.20014 L336.97309 584.28836" />
    <path d="M336.97309 584.28836 L329.88487 549.57151" />
    <path d="M335.56354 586.00613 L370.68678 590.68165" />
    <path d="M370.68678 590.68165 L366.01126 625.80489" />
    <path d="M366.01126 625.80489 L330.88802 621.12937" />
    <path d="M330.88802 621.12937 L335.56354 586.00613" />
    <path d="M339.78056 625.9174 L373.2952 637.41836" />
    <path d="M373.2952 637.41836 L361.79424 670.93299" />
    <path d="M361.79424 670.93299 L328.27961 659.43204" />
    <path d="M328.27961 659.43204 L339.78056 625.9174" />
    <path d="M328.79866 678.93462 L362.79767 668.95614" />
    <path d="M362.79767 668.95614 L372.77614 702.95515" />
    <path d="M372.77614 702.95515 L338.77714 712.93362" />
    <path d="M338.77714 712.93362 L328.79866 678.93462" />
    <path d="M333.35354 715.4698 L368.78217 716.0307" />
    <path d="M368.78217 716.0307 L368.22126 751.45934" />
    <path d="M368.22126 751.45934 L332.79263 750.89843" />
    <path d="M332.79263 750.89843 L333.35354 715.4698" />
    <path d="M332.11028 759.28346 L367.48819 757.30713" />
    <path d="M367.48819 757.30713 L369.46452 792.68504" />
    <path d="M369.46452 792.68504 L334.08661 794.66137" />
    <path d="M334.08661 794.66137 L332.11028 759.28346" />
    <path d="M329.22561 805.74304 L363.5483 796.94215" />
    <path d="M363.5483 796.94215 L372.34919 831.26483" />
    <path d="M372.34919 831.26483 L338.02651 840.06573" />
    <path d="M338.02651 840.06573 L329.22561 805.74304" />
    <path d="M328.38226 849.8093 L362.00172 838.61848" />
    <path d="M362.00172 838.61848 L373.19254 872.23794" />
    <path d="M373.19254 872.23794 L339.57308 883.42876" />
    <path d="M339.57308 883.42876 L328.38226 849.8093" />
    <path d="M338.6214 881.64035 L372.69036 891.37731" />
    <path d="M372.69036 891.37731 L362.9534 925.44627" />
    <path d="M362.9534 925.44627 L328.88444 915.70931" />
    <path d="M328.88444 915.70931 L338.6214 881.64035" />
    <path d="M329.34338 933.10516 L363.74523 924.61897" />
    <path d="M363.74523 924.61897 L372.23142 959.02082" />
    <path d="M372.23142 959.02082 L337.82957 967.50701" />
    <path d="M337.82957 967.50701 L329.34338 933.10516" />
    <path d="M377.55488 33.66579 L412.79091 37.3974" />
    <path d="M412.79091 37.3974 L409.05929 72.63343" />
    <path d="M409.05929 72.63343 L373.82327 68.90181" />
    <path d="M373.82327 68.90181 L377.55488 33.66579" />
    <path d="M379.69247 74.63614 L414.34024 82.05467" />
    <path d="M414.34024 82.05467 L406.9217 116.70244" />
    <path d="M406.9217 116.70244 L372.27394 109.28391" />
    <path d="M372.27394 109.28391 L379.69247 74.63614" />
    <path d="M371.52499 125.80788 L405.68818 116.40688" />
    <path d="M405.68818 116.40688 L415.08918 150.57007" />
    <path d="M415.08918 150.57007 L380.92599 159.97107" />
    <path d="M380.92599 159.97107 L371.52499 125.80788" />
    <path d="M375.23778 163.35207 L410.66368 162.63935" />
    <path d="M410.66368 162.63935 L411.37639 198.06526" />
    <path d="M411.37639 198.06526 L375.95049 198.77797" />
    <path d="M375.95049 198.77797 L375.23778 163.35207" />
    <path d="M379.88785 202.07 L414.46543 209.80911" />
    <path d="M414.46543 209.80911 L406.72632 244.38669" />
    <path d="M406.72632 244.38669 L372.14874 236.64758" />
    <path d="M372.14874 236.64758 L379.88785 202.07" />
    <path d="M371.78696 252.917 L406.13812 244.22791" />
    <path d="M406.13812 244.22791 L414.82721 278.57907" />
    <path d="M414.82721 278.57907 L380.47605 287.26816" />
    <path d="M380.47605 287.26816 L371.78696 252.917" />
    <path d="M371.21446 296.44963 L405.12517 286.17509" />
    <path d="M405.12517 286.17509 L415.39971 320.0858" />
    <path d="M415.39971 320.0858 L381.489 330.36034" />
    <path d="M381.489 330.36034 L371.21446 296.44963" />
    <path d="M374.73683 333.96787 L410.12662 332.21714" />
    <path d="M410.12662 332.21714 L411.87735 367.60693" />
    <path d="M411.87735 367.60693 L376.48755 369.35766" />
    <path d="M376.48755 369.35766 L374.73683 333.96787" />
    <path d="M378.21999 373.30382 L413.31036 378.21999" />
    <path d="M413.31036 378.21999 L408.39418 413.31036" />
    <path d="M408.39418 413.31036 L373.30382 408.39418" />
    <path d="M373.30382 408.39418 L378.21999 373.30382" />
    <path d="M376.09005 417.62444 L411.50942 418.60973" />
    <path d="M411.50942 418.60973 L410.52412 454.0291" />
    <path d="M410.52412 454.0291 L375.10475 453.04381" />
    <path d="M375.10475 453.04381 L376.09005 417.62444" />
    <path d="M374.05966 462.30627 L409.34728 459.09903" />
    <path d="M409.34728 459.09903 L412.55452 494.38665" />
    <path d="M412.55452 494.38665 L377.2669 497.59389" />
    <path d="M377.2669 497.59389 L374.05966 462.30627" />
    <path d="M380.93163 499.08084 L415.09239 508.49069" />
    <path d="M415.09239 508.49069 L405.68254 542.65144" />
    <path d="M405.68254 542.65144 L371.52178 533.2416" />
    <path d="M371.52178 533.2416 L380.93163 499.08084" />
    <path d="M375.50779 545.75245 L410.94047 545.58653" />
    <path d="M410.94047 545.58653 L411.10639 581.01921" />
    <path d="M411.10639 581.01921 L375.67371 581.18513" />
    <path d="M375.67371 581.18513 L375.50779 545.75245" />
    <path d="M375.01494 588.78393 L410.42867 587.61337" />
    <path d="M410.42867 587.61337 L411.59923 623.0271" />
    <path d="M411.59923 623.0271 L376.1855 624.19766" />
    <path d="M376.1855 624.19766 L375.01494 588.78393" />
    <path d="M378.78671 628.00683 L413.72546 633.90482" />
    <path d="M413.72546 633.90482 L407.82747 668.84357" />
    <path d="M407.82747 668.84357 L372.88872 662.94558" />
    <path d="M372.88872 662.94558 L378.78671 628.00683" />
    <path d="M372.97412 676.30515 L407.94682 670.61192" />
    <path d="M407.94682 670.61192 L413.64005 705.58461" />
    <path d="M413.64005 705.58461 L378.66735 711.27785" />
    <path d="M378.66735 711.27785 L372.97412 676.30515" />
    <path d="M379.06113 712.85379 L413.91786 719.21861" />
    <path d="M413.91786 719.21861 L407.55304 754.07534" />
    <path d="M407.55304 754.07534 L372.69631 747.71052" />
    <path d="M372.69631 747.71052 L379.06113 712.85379" />
    <path d="M374.35727 759.59353 L409.69781 757.03444" />
    <path d="M409.69781 757.03444 L412.2569 792.37498" />
    <path d="M412.2569 792.37498 L376.91636 794.93406" />
    <path d="M376.91636 794.93406 L374.35727 759.59353" />
    <path d="M378.66209 798.17476 L413.63626 803.85894" />
    <path d="M413.63626 803.85894 L407.95209 838.83311" />
    <path d="M407.95209 838.83311 L372.97791 833.14894" />
    <path d="M372.97791 833.14894 L378.66209 798.17476" />
    <path d="M370.78876 850.03834 L404.29237 838.5053" />
    <path d="M404.29237 838.5053 L415.82541 872.0089" />
    <path d="M415.82541 872.0089 L382.32181 883.54195" />
    <path d="M382.32181 883.54195 L370.78876 850.03834" />
    <path d="M371.08807 891.96459 L404.8858 881.32429" />
    <path d="M404.8858 881.32429 L415.5261 915.12202" />
    <path d="M415.5261 915.12202 L381.72837 925.76232" />
    <path d="M381.72837 925.76232 L371.08807 891.96459" />
    <path d="M373.28276 931.00385 L408.36623 926.03867" />
    <path d="M408.36623 926.03867 L413.33141 961.12213" />
    <path d="M413.33141 961.12213 L378.24795 966.08732" />
    <path d="M378.24795 966.08732 L373.28276 931.00385" />
    <path d="M419.50562 34.13984 L454.83654 36.82845" />
    <path d="M454.83654 36.82845 L452.14792 72.15937" />
    <path d="M452.14792 72.15937 L416.81701 69.47076" />
    <path d="M416.81701 69.47076 L419.50562 34.13984" />
    <path d="M413.49336 84.31279 L447.18327 73.33588" />
    <path d="M447.18327 73.33588 L458.16018 107.02579" />
    <path d="M458.16018 107.02579 L424.47027 118.0027" />
    <path d="M424.47027 118.0027 L413.49336 84.31279" />
    <path d="M423.48616 116.38392 L457.63183 125.84837" />
    <path d="M457.63183 125.84837 L448.16738 159.99404" />
    <path d="M448.16738 159.99404 L414.02171 150.52958" />
    <path d="M414.02171 150.52958 L423.48616 116.38392" />
    <path d="M413.5875 169.16891 L447.36652 158.46939" />
    <path d="M447.36652 158.46939 L458.06605 192.24841" />
    <path d="M458.06605 192.24841 L424.28702 202.94794" />
    <path d="M424.28702 202.94794 L413.5875 169.16891" />
    <path d="M425.10869 200.58163 L458.47349 212.51026" />
    <path d="M458.47349 212.51026 L446.54486 245.87507" />
    <path d="M446.54486 245.87507 L413.18005 233.94643" />
    <path d="M413.18005 233.94643 L425.10869 200.58163" />
    <path d="M421.4521 245.22682 L456.34798 251.37336" />
    <path d="M456.34798 251.37336 L450.20144 286.26924" />
    <path d="M450.20144 286.26924 L415.30556 280.1227" />
    <path d="M415.30556 280.1227 L421.4521 245.22682" />
    <path d="M424.67412 285.83181 L458.26267 297.11507" />
    <path d="M458.26267 297.11507 L446.97942 330.70362" />
    <path d="M446.97942 330.70362 L413.39087 319.42036" />
    <path d="M413.39087 319.42036 L424.67412 285.83181" />
    <path d="M414.96961 336.90468 L449.70949 329.93024" />
    <path d="M449.70949 329.93024 L456.68394 364.67012" />
    <path d="M456.68394 364.67012 L421.94405 371.64457" />
    <path d="M421.94405 371.64457 L414.96961 336.90468" />
    <path d="M418.7758 374.9491 L454.18476 376.25611" />
    <path d="M454.18476 376.25611 L452.87774 411.66507" />
    <path d="M452.87774 411.66507 L417.46879 410.35806" />
    <path d="M417.46879 410.35806 L418.7758 374.9491" />
    <path d="M422.55277 414.57701 L457.07653 422.55277" />
    <path d="M457.07653 422.55277 L449.10077 457.07653" />
    <path d="M449.10077 457.07653 L414.57701 449.10077" />
    <path d="M414.57701 449.10077 L422.55277 414.57701" />
    <path d="M421.01157 458.14099 L456.03224 463.53125" />
    <path d="M456.03224 463.53125 L450.64198 498.55193" />
    <path d="M450.64198 498.55193 L415.6213 493.16166" />
    <path d="M415.6213 493.16166 L421.01157 458.14099" />
    <path d="M419.17597 502.14444 L454.54847 504.21534" />
    <path d="M454.54847 504.21534 L452.47757 539.58784" />
    <path d="M452.47757 539.58784 L417.10507 537.51695" />
    <path d="M417.10507 537.51695 L419.17597 502.14444" />
    <path d="M420.83149 543.31364 L455.89896 548.39054" />
    <path d="M455.89896 548.39054 L450.82206 583.45801" />
    <path d="M450.82206 583.45801 L415.75458 578.38111" />
    <path d="M415.75458 578.38111 L420.83149 543.31364" />
    <path d="M414.38658 592.94135 L448.79093 584.46532" />
    <path d="M448.79093 584.46532 L457.26696 618.86967" />
    <path d="M457.26696 618.86967 L422.86261 627.3457" />
    <path d="M422.86261 627.3457 L414.38658 592.94135" />
    <path d="M421.83432 627.64149 L456.61048 634.43274" />
    <path d="M456.61048 634.43274 L449.81922 669.2089" />
    <path d="M449.81922 669.2089 L415.04306 662.41765" />
    <path d="M415.04306 662.41765 L421.83432 627.64149" />
    <path d="M414.80406 677.31415 L449.4575 669.92217" />
    <path d="M449.4575 669.92217 L456.84948 704.57561" />
    <path d="M456.84948 704.57561 L422.19604 711.96759" />
    <path d="M422.19604 711.96759 L414.80406 677.31415" />
    <path d="M414.05802 721.06002 L448.23132 711.69582" />
    <path d="M448.23132 711.69582 L457.59552 745.86911" />
    <path d="M457.59552 745.86911 L423.42222 755.23332" />
    <path d="M423.42222 755.23332 L414.05802 721.06002" />
    <path d="M414.29894 763.16616 L448.64487 754.45642" />
    <path d="M448.64487 754.45642 L457.35461 788.80235" />
    <path d="M457.35461 788.80235 L423.00867 797.51209" />
    <path d="M423.00867 797.51209 L414.29894 763.16616" />
    <path d="M416.15798 802.98331 L451.3474 798.83514" />
    <path d="M451.3474 798.83514 L455.49557 834.02456" />
    <path d="M455.49557 834.02456 L420.30615 838.17273" />
    <path d="M420.30615 838.17273 L416.15798 802.98331" />
    <path d="M422.44775 839.83983 L457.01056 847.6446" />
    <path d="M457.01056 847.6446 L449.20579 882.20741" />
    <path d="M449.20579 882.20741 L414.64298 874.40264" />
    <path d="M414.64298 874.40264 L422.44775 839.83983" />
    <path d="M418.21052 885.72705 L453.64302 885.92705" />
    <path d="M453.64302 885.92705 L453.44302 921.35956" />
    <path d="M453.44302 921.35956 L418.01052 921.15956" />
    <path d="M418.01052 921.15956 L418.21052 885.72705" />
    <path d="M413.4766 934.73951 L447.15025 923.71282" />
    <path d="M447.15025 923.71282 L458.17694 957.38647" />
    <path d="M458.17694 957.38647 L424.50329 968.41316" />
    <path d="M424.50329 968.41316 L413.4766 934.73951" />
    <path d="M463.37767 33.05765 L498.43841 38.18082" />
    <path d="M498.43841 38.18082 L493.31524 73.24156" />
    <path d="M493.31524 73.24156 L458.2545 68.11839" />
    <path d="M458.2545 68.11839 L463.37767 33.05765" />
    <path d="M462.58851 76.19011 L497.82564 79.91135" />
    <path d="M497.82564 79.91135 L494.1044 115.14847" />
    <path d="M494.1044 115.14847 L458.86728 111.42724" />
    <path d="M458.86728 111.42724 L462.58851 76.19011" />
    <path d="M466.4036 116.16355 L500.37188 126.24612" />
    <path d="M500.37188 126.24612 L490.28932 160.2144" />
    <path d="M490.28932 160.2144 L456.32103 150.13184" />
    <path d="M456.32103 150.13184 L466.4036 116.16355" />
    <path d="M456.51782 168.4098 L490.64532 158.88003" />
    <path d="M490.64532 158.88003 L500.17509 193.00752" />
    <path d="M500.17509 193.00752 L466.04759 202.53729" />
    <path d="M466.04759 202.53729 L456.51782 168.4098" />
    <path d="M455.97578 211.94543 L489.62937 200.85767" />
    <path d="M489.62937 200.85767 L500.71713 234.51126" />
    <path d="M500.71713 234.51126 L467.06354 245.59902" />
    <path d="M467.06354 245.59902 L455.97578 211.94543" />
    <path d="M459.82483 248.87495 L495.21953 247.22641" />
    <path d="M495.21953 247.22641 L496.86808 282.62111" />
    <path d="M496.86808 282.62111 L461.47338 284.26965" />
    <path d="M461.47338 284.26965 L459.82483 248.87495" />
    <path d="M459.57149 291.67699 L494.93718 289.49275" />
    <path d="M494.93718 289.49275 L497.12142 324.85844" />
    <path d="M497.12142 324.85844 L461.75573 327.04268" />
    <path d="M461.75573 327.04268 L459.57149 291.67699" />
    <path d="M459.20098 334.62566 L494.5082 331.64192" />
    <path d="M494.5082 331.64192 L497.49193 366.94914" />
    <path d="M497.49193 366.94914 L462.18471 369.93288" />
    <path d="M462.18471 369.93288 L459.20098 334.62566" />
    <path d="M463.35159 373.23458 L498.41896 378.31222" />
    <path d="M498.41896 378.31222 L493.34132 413.37959" />
    <path d="M493.34132 413.37959 L458.27395 408.30195" />
    <path d="M458.27395 408.30195 L463.35159 373.23458" />
    <path d="M464.49309 414.9501 L499.22313 421.97341" />
    <path d="M499.22313 421.97341 L492.19982 456.70345" />
    <path d="M492.19982 456.70345 L457.46978 449.68014" />
    <path d="M457.46978 449.68014 L464.49309 414.9501" />
    <path d="M462.41602 459.00809 L497.68483 462.41602" />
    <path d="M497.68483 462.41602 L494.27689 497.68483" />
    <path d="M494.27689 497.68483 L459.00809 494.27689" />
    <path d="M459.00809 494.27689 L462.41602 459.00809" />
    <path d="M456.9387 507.84848 L491.36411 499.45839" />
    <path d="M491.36411 499.45839 L499.75421 533.8838" />
    <path d="M499.75421 533.8838 L465.3288 542.27389" />
    <path d="M465.3288 542.27389 L456.9387 507.84848" />
    <path d="M463.98593 542.85472 L498.87757 549.0253" />
    <path d="M498.87757 549.0253 L492.70698 583.91694" />
    <path d="M492.70698 583.91694 L457.81535 577.74635" />
    <path d="M457.81535 577.74635 L463.98593 542.85472" />
    <path d="M459.59977 589.28284 L494.96913 587.15883" />
    <path d="M494.96913 587.15883 L497.09314 622.52818" />
    <path d="M497.09314 622.52818 L461.72379 624.6522" />
    <path d="M461.72379 624.6522 L459.59977 589.28284" />
    <path d="M465.84368 626.71272 L500.05894 635.92242" />
    <path d="M500.05894 635.92242 L490.84924 670.13768" />
    <path d="M490.84924 670.13768 L456.63398 660.92798" />
    <path d="M456.63398 660.92798 L465.84368 626.71272" />
    <path d="M457.70638 676.74141 L492.54992 670.30481" />
    <path d="M492.54992 670.30481 L498.98653 705.14835" />
    <path d="M498.98653 705.14835 L464.14299 711.58496" />
    <path d="M464.14299 711.58496 L457.70638 676.74141" />
    <path d="M458.56582 718.08673 L493.72429 713.68393" />
    <path d="M493.72429 713.68393 L498.12709 748.8424" />
    <path d="M498.12709 748.8424 L462.96862 753.2452" />
    <path d="M462.96862 753.2452 L458.56582 718.08673" />
    <path d="M460.47713 758.42184 L495.90887 758.11493" />
    <path d="M495.90887 758.11493 L496.21578 793.54667" />
    <path d="M496.21578 793.54667 L460.78404 793.85358" />
    <path d="M460.78404 793.85358 L460.47713 758.42184" />
    <path d="M456.40968 806.39902 L490.45138 796.56716" />
    <path d="M490.45138 796.56716 L500.28323 830.60886" />
    <path d="M500.28323 830.60886 L466.24154 840.44071" />
    <path d="M466.24154 840.44071 L456.40968 806.39902" />
    <path d="M457.1131 847.72341 L491.64667 839.79026" />
    <path d="M491.64667 839.79026 L499.57982 874.32384" />
    <path d="M499.57982 874.32384 L465.04624 882.25698" />
    <path d="M465.04624 882.25698 L457.1131 847.72341" />
    <path d="M456.08132 892.05353 L489.83623 881.27817" />
    <path d="M489.83623 881.27817 L500.6116 915.03308" />
    <path d="M500.6116 915.03308 L466.85668 925.80845" />
    <path d="M466.85668 925.80845 L456.08132 892.05353" />
    <path d="M458.49694 930.77417 L493.63528 926.21348" />
    <path d="M493.63528 926.21348 L498.19597 961.35181" />
    <path d="M498.19597 961.35181 L463.05764 965.91251" />
    <path d="M463.05764 965.91251 L458.49694 930.77417" />
    <path d="M504.95817 33.79275 L540.223 37.24164" />
    <path d="M540.223 37.24164 L536.77411 72.50646" />
    <path d="M536.77411 72.50646 L501.50929 69.05757" />
    <path d="M501.50929 69.05757 L504.95817 33.79275" />
    <path d="M498.71152 83.96783 L532.5676 73.51467" />
    <path d="M532.5676 73.51467 L543.02076 107.37075" />
    <path d="M543.02076 107.37075 L509.16468 117.82391" />
    <path d="M509.16468 117.82391 L498.71152 83.96783" />
    <path d="M501.53569 122.24894 L536.80618 118.85852" />
    <path d="M536.80618 118.85852 L540.1966 154.12901" />
    <path d="M540.1966 154.12901 L504.9261 157.51943" />
    <path d="M504.9261 157.51943 L501.53569 122.24894" />
    <path d="M498.30754 169.80632 L531.76848 158.15006" />
    <path d="M531.76848 158.15006 L543.42474 191.611" />
    <path d="M543.42474 191.611 L509.96381 203.26726" />
    <path d="M509.96381 203.26726 L498.30754 169.80632" />
    <path d="M509.46299 200.91872 L543.17577 211.82519" />
    <path d="M543.17577 211.82519 L532.2693 245.53797" />
    <path d="M532.2693 245.53797 L498.55652 234.6315" />
    <path d="M498.55652 234.6315 L509.46299 200.91872" />
    <path d="M502.52973 248.67386 L537.94031 247.41162" />
    <path d="M537.94031 247.41162 L539.20255 282.8222" />
    <path d="M539.20255 282.8222 L503.79197 284.08444" />
    <path d="M503.79197 284.08444 L502.52973 248.67386" />
    <path d="M508.09976 286.70918 L542.42468 295.50133" />
    <path d="M542.42468 295.50133 L533.63253 329.82626" />
    <path d="M533.63253 329.82626 L499.3076 321.0341" />
    <path d="M499.3076 321.0341 L508.09976 286.70918" />
    <path d="M503.02131 333.2001 L538.45344 332.94257" />
    <path d="M538.45344 332.94257 L538.71098 368.3747" />
    <path d="M538.71098 368.3747 L503.27884 368.63224" />
    <path d="M503.27884 368.63224 L503.02131 333.2001" />
    <path d="M509.18992 371.13916 L543.03407 381.63087" />
    <path d="M543.03407 381.63087 L532.54236 415.47502" />
    <path d="M532.54236 415.47502 L498.69821 404.98331" />
    <path d="M498.69821 404.98331 L509.18992 371.13916" />
    <path d="M506.85876 415.05312 L541.63979 421.81939" />
    <path d="M541.63979 421.81939 L534.87352 456.60042" />
    <path d="M534.87352 456.60042 L500.09249 449.83415" />
    <path d="M500.09249 449.83415 L506.85876 415.05312" />
    <path d="M498.53731 466.98096 L532.23164 456.01763" />
    <path d="M532.23164 456.01763 L543.19497 489.71195" />
    <path d="M543.19497 489.71195 L509.50064 500.67529" />
    <path d="M509.50064 500.67529 L498.53731 466.98096" />
    <path d="M503.29827 503.00218 L538.7301 503.29827" />
    <path d="M538.7301 503.29827 L538.43402 538.7301" />
    <path d="M538.43402 538.7301 L503.00218 538.43402" />
    <path d="M503.00218 538.43402 L503.29827 503.00218" />
    <path d="M510.11041 540.75696 L543.49501 552.6301" />
    <path d="M543.49501 552.6301 L531.62187 586.01469" />
    <path d="M531.62187 586.01469 L498.23728 574.14156" />
    <path d="M498.23728 574.14156 L510.11041 540.75696" />
    <path d="M502.67949 588.67191 L538.09975 587.71886" />
    <path d="M538.09975 587.71886 L539.05279 623.13912" />
    <path d="M539.05279 623.13912 L503.63254 624.09216" />
    <path d="M503.63254 624.09216 L502.67949 588.67191" />
    <path d="M498.80007 636.5576 L532.73374 626.35913" />
    <path d="M532.73374 626.35913 L542.93221 660.29279" />
    <path d="M542.93221 660.29279 L508.99855 670.49127" />
    <path d="M508.99855 670.49127 L498.80007 636.5576" />
    <path d="M498.35651 679.9418 L531.86923 668.43525" />
    <path d="M531.86923 668.43525 L543.37577 701.94797" />
    <path d="M543.37577 701.94797 L509.86306 713.45451" />
    <path d="M509.86306 713.45451 L498.35651 679.9418" />
    <path d="M498.16259 722.86741 L531.4633 710.76101" />
    <path d="M531.4633 710.76101 L543.5697 744.06173" />
    <path d="M543.5697 744.06173 L510.26898 756.16812" />
    <path d="M510.26898 756.16812 L498.16259 722.86741" />
    <path d="M504.66243 756.87428 L539.97611 759.78054" />
    <path d="M539.97611 759.78054 L537.06985 795.09422" />
    <path d="M537.06985 795.09422 L501.75617 792.18796" />
    <path d="M501.75617 792.18796 L504.66243 756.87428" />
    <path d="M499.57187 805.30147 L534.06861 797.20966" />
    <path d="M534.06861 797.20966 L542.16042 831.7064" />
    <path d="M542.16042 831.7064 L507.66368 839.79821" />
    <path d="M507.66368 839.79821 L499.57187 805.30147" />
    <path d="M501.18292 845.5213 L536.36847 841.3404" />
    <path d="M536.36847 841.3404 L540.54936 876.52595" />
    <path d="M540.54936 876.52595 L505.36382 880.70684" />
    <path d="M505.36382 880.70684 L501.18292 845.5213" />
    <path d="M505.09495 884.07485 L540.3346 887.77211" />
    <path d="M540.3346 887.77211 L536.63734 923.01176" />
    <path d="M536.63734 923.01176 L501.39769 919.3145" />
    <path d="M501.39769 919.3145 L505.09495 884.07485" />
    <path d="M503.573 927.93295 L538.99618 928.76985" />
    <path d="M538.99618 928.76985 L538.15929 964.19303" />
    <path d="M538.15929 964.19303 L502.7361 963.35614" />
    <path d="M502.7361 963.35614 L503.573 927.93295" />
    <path d="M546.42947 34.7042 L581.83124 36.19325" />
    <path d="M581.83124 36.19325 L580.34219 71.59502" />
    <path d="M580.34219 71.59502 L544.94042 70.10597" />
    <path d="M544.94042 70.10597 L546.42947 34.7042" />
    <path d="M549.16712 75.03971 L584.01541 81.45059" />
    <path d="M584.01541 81.45059 L577.60453 116.29887" />
    <path d="M577.60453 116.29887 L542.75624 109.888" />
    <path d="M542.75624 109.888 L549.16712 75.03971" />
    <path d="M542.58126 124.22756 L577.34724 117.38441" />
    <path d="M577.34724 117.38441 L584.1904 152.15039" />
    <path d="M584.1904 152.15039 L549.42441 158.99355" />
    <path d="M549.42441 158.99355 L542.58126 124.22756" />
    <path d="M544.05687 164.76681 L579.32768 161.37971" />
    <path d="M579.32768 161.37971 L582.71478 196.65052" />
    <path d="M582.71478 196.65052 L547.44397 200.03762" />
    <path d="M547.44397 200.03762 L544.05687 164.76681" />
    <path d="M541.19338 211.59879 L575.01538 201.0359" />
    <path d="M575.01538 201.0359 L585.57828 234.8579" />
    <path d="M585.57828 234.8579 L551.75627 245.42079" />
    <path d="M551.75627 245.42079 L541.19338 211.59879" />
    <path d="M544.03146 249.83704 L579.29682 246.39366" />
    <path d="M579.29682 246.39366 L582.7402 281.65902" />
    <path d="M582.7402 281.65902 L547.47484 285.1024" />
    <path d="M547.47484 285.1024 L544.03146 249.83704" />
    <path d="M552.39578 285.75172 L585.90182 297.27767" />
    <path d="M585.90182 297.27767 L574.37588 330.78371" />
    <path d="M574.37588 330.78371 L540.86983 319.25777" />
    <path d="M540.86983 319.25777 L552.39578 285.75172" />
    <path d="M543.85939 335.08806 L579.08517 331.26096" />
    <path d="M579.08517 331.26096 L582.91227 366.48675" />
    <path d="M582.91227 366.48675 L547.68648 370.31384" />
    <path d="M547.68648 370.31384 L543.85939 335.08806" />
    <path d="M542.45367 379.53769 L577.15522 372.37493" />
    <path d="M577.15522 372.37493 L584.31798 407.07648" />
    <path d="M584.31798 407.07648 L549.61643 414.23924" />
    <path d="M549.61643 414.23924 L542.45367 379.53769" />
    <path d="M544.41785 419.45706 L579.75553 416.8588" />
    <path d="M579.75553 416.8588 L582.3538 452.19648" />
    <path d="M582.3538 452.19648 L547.01612 454.79474" />
    <path d="M547.01612 454.79474 L544.41785 419.45706" />
    <path d="M540.87633 467.3431 L574.38918 455.83696" />
    <path d="M574.38918 455.83696 L585.89532 489.34981" />
    <path d="M585.89532 489.34981 L552.38247 500.85595" />
    <path d="M552.38247 500.85595 L540.87633 467.3431" />
    <path d="M543.01722 506.27604 L577.97593 500.49754" />
    <path d="M577.97593 500.49754 L583.75443 535.45625" />
    <path d="M583.75443 535.45625 L548.79572 541.23475" />
    <path d="M548.79572 541.23475 L543.01722 506.27604" />
    <path d="M540.78343 552.57459 L574.19706 540.78343" />
    <path d="M574.19706 540.78343 L585.98822 574.19706" />
    <path d="M585.98822 574.19706 L552.57459 585.98822" />
    <path d="M552.57459 585.98822 L540.78343 552.57459" />
    <path d="M542.92212 591.44909 L577.84225 585.44181" />
    <path d="M577.84225 585.44181 L583.84953 620.36193" />
    <path d="M583.84953 620.36193 L548.9294 626.36921" />
    <path d="M548.9294 626.36921 L542.92212 591.44909" />
    <path d="M542.88347 634.02365 L577.78738 627.92284" />
    <path d="M577.78738 627.92284 L583.88818 662.82675" />
    <path d="M583.88818 662.82675 L548.98428 668.92755" />
    <path d="M548.98428 668.92755 L542.88347 634.02365" />
    <path d="M546.77993 672.18334 L582.14737 674.33898" />
    <path d="M582.14737 674.33898 L579.99173 709.70642" />
    <path d="M579.99173 709.70642 L544.62429 707.55078" />
    <path d="M544.62429 707.55078 L546.77993 672.18334" />
    <path d="M544.6696 716.80761 L580.04278 714.74834" />
    <path d="M580.04278 714.74834 L582.10205 750.12152" />
    <path d="M582.10205 750.12152 L546.72887 752.18079" />
    <path d="M546.72887 752.18079 L544.6696 716.80761" />
    <path d="M541.79046 763.28025 L576.08983 754.38889" />
    <path d="M576.08983 754.38889 L584.98119 788.68825" />
    <path d="M584.98119 788.68825 L550.68183 797.57961" />
    <path d="M550.68183 797.57961 L541.79046 763.28025" />
    <path d="M543.76025 802.9287 L578.96106 798.87836" />
    <path d="M578.96106 798.87836 L583.01141 834.07917" />
    <path d="M583.01141 834.07917 L547.81059 838.12952" />
    <path d="M547.81059 838.12952 L543.76025 802.9287" />
    <path d="M543.69395 845.53229 L578.87716 841.33175" />
    <path d="M578.87716 841.33175 L583.0777 876.51496" />
    <path d="M583.0777 876.51496 L547.89449 880.71549" />
    <path d="M547.89449 880.71549 L543.69395 845.53229" />
    <path d="M547.47901 884.1855 L582.74363 887.63649" />
    <path d="M582.74363 887.63649 L579.29264 922.90111" />
    <path d="M579.29264 922.90111 L544.02802 919.45012" />
    <path d="M544.02802 919.45012 L547.47901 884.1855" />
    <path d="M542.64478 932.00738 L577.44144 925.32195" />
    <path d="M577.44144 925.32195 L584.12687 960.1186" />
    <path d="M584.12687 960.1186 L549.33021 966.80404" />
    <path d="M549.33021 966.80404 L542.64478 932.00738" />
    <path d="M592.68097 31.86904 L627.18608 39.92506" />
    <path d="M627.18608 39.92506 L619.13006 74.43018" />
    <path d="M619.13006 74.43018 L584.62494 66.37415" />
    <path d="M584.62494 66.37415 L592.68097 31.86904" />
    <path d="M584.6213 82.45061 L619.1242 74.38508" />
    <path d="M619.1242 74.38508 L627.18972 108.88797" />
    <path d="M627.18972 108.88797 L592.68683 116.9535" />
    <path d="M592.68683 116.9535 L584.6213 82.45061" />
    <path d="M595.10058 115.58356 L628.51093 127.38405" />
    <path d="M628.51093 127.38405 L616.71044 160.79439" />
    <path d="M616.71044 160.79439 L583.3001 148.99391" />
    <path d="M583.3001 148.99391 L595.10058 115.58356" />
    <path d="M583.97876 168.5856 L618.02857 158.7819" />
    <path d="M618.02857 158.7819 L627.83227 192.83172" />
    <path d="M627.83227 192.83172 L593.78245 202.63542" />
    <path d="M593.78245 202.63542 L583.97876 168.5856" />
    <path d="M585.04634 209.34864 L619.78522 202.36918" />
    <path d="M619.78522 202.36918 L626.76468 237.10805" />
    <path d="M626.76468 237.10805 L592.02581 244.08752" />
    <path d="M592.02581 244.08752 L585.04634 209.34864" />
    <path d="M588.10923 248.11161 L623.54194 247.95175" />
    <path d="M623.54194 247.95175 L623.7018 283.38446" />
    <path d="M623.7018 283.38446 L588.26909 283.54432" />
    <path d="M588.26909 283.54432 L588.10923 248.11161" />
    <path d="M593.25478 286.64111 L627.53212 295.61698" />
    <path d="M627.53212 295.61698 L618.55624 329.89433" />
    <path d="M618.55624 329.89433 L584.2789 320.91845" />
    <path d="M584.2789 320.91845 L593.25478 286.64111" />
    <path d="M587.94471 333.31855 L623.37437 332.8266" />
    <path d="M623.37437 332.8266 L623.86631 368.25626" />
    <path d="M623.86631 368.25626 L588.43666 368.7482" />
    <path d="M588.43666 368.7482 L587.94471 333.31855" />
    <path d="M589.47035 374.39581 L624.81679 376.87192" />
    <path d="M624.81679 376.87192 L622.34068 412.21837" />
    <path d="M622.34068 412.21837 L586.99423 409.74225" />
    <path d="M586.99423 409.74225 L589.47035 374.39581" />
    <path d="M584.65032 422.56147 L619.17082 414.57158" />
    <path d="M619.17082 414.57158 L627.1607 449.09208" />
    <path d="M627.1607 449.09208 L592.64021 457.08196" />
    <path d="M592.64021 457.08196 L584.65032 422.56147" />
    <path d="M585.12927 464.34291 L619.90906 457.57022" />
    <path d="M619.90906 457.57022 L626.68175 492.35" />
    <path d="M626.68175 492.35 L591.90197 499.12269" />
    <path d="M591.90197 499.12269 L585.12927 464.34291" />
    <path d="M591.37233 500.45688 L626.31477 506.33296" />
    <path d="M626.31477 506.33296 L620.43869 541.2754" />
    <path d="M620.43869 541.2754 L585.49625 535.39932" />
    <path d="M585.49625 535.39932 L591.37233 500.45688" />
    <path d="M589.7227 544.25816 L625.03318 547.20301" />
    <path d="M625.03318 547.20301 L622.08833 582.5135" />
    <path d="M622.08833 582.5135 L586.77784 579.56864" />
    <path d="M586.77784 579.56864 L589.7227 544.25816" />
    <path d="M588.6849 587.70657 L624.10446 588.6849" />
    <path d="M624.10446 588.6849 L623.12613 624.10446" />
    <path d="M623.12613 624.10446 L587.70657 623.12613" />
    <path d="M587.70657 623.12613 L588.6849 587.70657" />
    <path d="M584.35389 635.64714 L618.68357 626.87357" />
    <path d="M618.68357 626.87357 L627.45714 661.20325" />
    <path d="M627.45714 661.20325 L593.12745 669.97682" />
    <path d="M593.12745 669.97682 L584.35389 635.64714" />
    <path d="M584.32818 678.21028 L618.64011 669.36755" />
    <path d="M618.64011 669.36755 L627.48284 703.67948" />
    <path d="M627.48284 703.67948 L593.17091 712.52221" />
    <path d="M593.17091 712.52221 L584.32818 678.21028" />
    <path d="M583.39686 722.45949 L616.91059 710.95591" />
    <path d="M616.91059 710.95591 L628.41417 744.46964" />
    <path d="M628.41417 744.46964 L594.90044 755.97322" />
    <path d="M594.90044 755.97322 L583.39686 722.45949" />
    <path d="M585.24485 761.81074 L620.07902 755.32359" />
    <path d="M620.07902 755.32359 L626.56617 790.15776" />
    <path d="M626.56617 790.15776 L591.732 796.64491" />
    <path d="M591.732 796.64491 L585.24485 761.81074" />
    <path d="M585.57068 803.8668 L620.54265 798.1691" />
    <path d="M620.54265 798.1691 L626.24034 833.14108" />
    <path d="M626.24034 833.14108 L591.26837 838.83877" />
    <path d="M591.26837 838.83877 L585.57068 803.8668" />
    <path d="M591.49812 840.52537 L626.40377 846.61623" />
    <path d="M626.40377 846.61623 L620.3129 881.52188" />
    <path d="M620.3129 881.52188 L585.40726 875.43101" />
    <path d="M585.40726 875.43101 L591.49812 840.52537" />
    <path d="M589.04553 885.00976 L624.43905 886.68332" />
    <path d="M624.43905 886.68332 L622.7655 922.07685" />
    <path d="M622.7655 922.07685 L587.37197 920.40329" />
    <path d="M587.37197 920.40329 L589.04553 885.00976" />
    <path d="M583.43211 934.98611 L616.9824 923.58959" />
    <path d="M616.9824 923.58959 L628.37892 957.13988" />
    <path d="M628.37892 957.13988 L594.82863 968.5364" />
    <path d="M594.82863 968.5364 L583.43211 934.98611" />
    <path d="M632.49013 33.81506 L667.75975 37.21454" />
    <path d="M667.75975 37.21454 L664.36026 72.48416" />
    <path d="M664.36026 72.48416 L629.09065 69.08467" />
    <path d="M629.09065 69.08467 L632.49013 33.81506" />
    <path d="M636.81557 73.46641 L670.62807 84.05966" />
    <path d="M670.62807 84.05966 L660.03483 117.87217" />
    <path d="M660.03483 117.87217 L626.22232 107.27892" />
    <path d="M626.22232 107.27892 L636.81557 73.46641" />
    <path d="M628.94268 122.43515 L664.17902 118.70646" />
    <path d="M664.17902 118.70646 L667.90771 153.9428" />
    <path d="M667.90771 153.9428 L632.67137 157.67149" />
    <path d="M632.67137 157.67149 L628.94268 122.43515" />
    <path d="M637.80922 158.0139 L671.11996 170.09268" />
    <path d="M671.11996 170.09268 L659.04117 203.40342" />
    <path d="M659.04117 203.40342 L625.73043 191.32464" />
    <path d="M625.73043 191.32464 L637.80922 158.0139" />
    <path d="M632.76882 203.66744 L667.98611 207.57197" />
    <path d="M667.98611 207.57197 L664.08157 242.78926" />
    <path d="M664.08157 242.78926 L628.86429 238.88472" />
    <path d="M628.86429 238.88472 L632.76882 203.66744" />
    <path d="M637.36502 243.2664 L670.90683 254.68785" />
    <path d="M670.90683 254.68785 L659.48538 288.22966" />
    <path d="M659.48538 288.22966 L625.94357 276.80821" />
    <path d="M625.94357 276.80821 L637.36502 243.2664" />
    <path d="M626.09667 296.90162 L659.7913 285.93919" />
    <path d="M659.7913 285.93919 L670.75372 319.63382" />
    <path d="M670.75372 319.63382 L637.0591 330.59624" />
    <path d="M637.0591 330.59624 L626.09667 296.90162" />
    <path d="M626.92764 337.9186 L661.294 329.28984" />
    <path d="M661.294 329.28984 L669.92276 363.65621" />
    <path d="M669.92276 363.65621 L635.55639 372.28496" />
    <path d="M635.55639 372.28496 L626.92764 337.9186" />
    <path d="M628.44747 378.18619 L663.54609 373.32935" />
    <path d="M663.54609 373.32935 L668.40293 408.42798" />
    <path d="M668.40293 408.42798 L633.3043 413.28482" />
    <path d="M633.3043 413.28482 L628.44747 378.18619" />
    <path d="M637.2915 413.38146 L670.87051 424.69307" />
    <path d="M670.87051 424.69307 L659.5589 458.27208" />
    <path d="M659.5589 458.27208 L625.97989 446.96047" />
    <path d="M625.97989 446.96047 L637.2915 413.38146" />
    <path d="M626.43639 466.33631 L660.43534 456.35765" />
    <path d="M660.43534 456.35765 L670.414 490.3566" />
    <path d="M670.414 490.3566 L636.41505 500.33526" />
    <path d="M636.41505 500.33526 L626.43639 466.33631" />
    <path d="M633.91485 500.44064 L668.8507 506.3558" />
    <path d="M668.8507 506.3558 L662.93554 541.29164" />
    <path d="M662.93554 541.29164 L627.99969 535.37649" />
    <path d="M627.99969 535.37649 L633.91485 500.44064" />
    <path d="M632.23308 544.26603 L667.54499 547.19371" />
    <path d="M667.54499 547.19371 L664.61731 582.50562" />
    <path d="M664.61731 582.50562 L629.3054 579.57794" />
    <path d="M629.3054 579.57794 L632.23308 544.26603" />
    <path d="M637.05767 583.57771 L670.75299 594.53798" />
    <path d="M670.75299 594.53798 L659.79273 628.23331" />
    <path d="M659.79273 628.23331 L626.0974 617.27304" />
    <path d="M626.0974 617.27304 L637.05767 583.57771" />
    <path d="M626.47419 636.3461 L660.50429 626.47419" />
    <path d="M660.50429 626.47419 L670.3762 660.50429" />
    <path d="M670.3762 660.50429 L636.3461 670.3762" />
    <path d="M636.3461 670.3762 L626.47419 636.3461" />
    <path d="M629.0415 675.06964 L664.30044 671.56118" />
    <path d="M664.30044 671.56118 L667.8089 706.82013" />
    <path d="M667.8089 706.82013 L632.54995 710.32858" />
    <path d="M632.54995 710.32858 L629.0415 675.06964" />
    <path d="M631.24964 715.22309 L666.66667 716.28901" />
    <path d="M666.66667 716.28901 L665.60075 751.70604" />
    <path d="M665.60075 751.70604 L630.18372 750.64012" />
    <path d="M630.18372 750.64012 L631.24964 715.22309" />
    <path d="M630.23737 758.75189 L665.65756 757.79643" />
    <path d="M665.65756 757.79643 L666.61302 793.21662" />
    <path d="M666.61302 793.21662 L631.19283 794.17207" />
    <path d="M631.19283 794.17207 L630.23737 758.75189" />
    <path d="M627.10102 805.34982 L661.57932 797.17976" />
    <path d="M661.57932 797.17976 L669.74937 831.65806" />
    <path d="M669.74937 831.65806 L635.27108 839.82811" />
    <path d="M635.27108 839.82811 L627.10102 805.34982" />
    <path d="M636.08063 839.2208 L670.22802 848.67906" />
    <path d="M670.22802 848.67906 L660.76976 882.82644" />
    <path d="M660.76976 882.82644 L626.62238 873.36819" />
    <path d="M626.62238 873.36819 L636.08063 839.2208" />
    <path d="M636.35104 881.58958 L670.37892 891.46915" />
    <path d="M670.37892 891.46915 L660.49935 925.49703" />
    <path d="M660.49935 925.49703 L626.47147 915.61746" />
    <path d="M626.47147 915.61746 L636.35104 881.58958" />
    <path d="M631.51912 927.57148 L666.91671 929.15692" />
    <path d="M666.91671 929.15692 L665.33127 964.5545" />
    <path d="M665.33127 964.5545 L629.93369 962.96906" />
    <path d="M629.93369 962.96906 L631.51912 927.57148" />
    <path d="M679.80894 30.70541 L713.38908 42.01367" />
    <path d="M713.38908 42.01367 L702.08082 75.59381" />
    <path d="M702.08082 75.59381 L668.50068 64.28554" />
    <path d="M668.50068 64.28554 L679.80894 30.70541" />
    <path d="M678.48846 73.93019 L712.68399 83.21287" />
    <path d="M712.68399 83.21287 L703.40131 117.4084" />
    <path d="M703.40131 117.4084 L669.20578 108.12572" />
    <path d="M669.20578 108.12572 L678.48846 73.93019" />
    <path d="M678.64773 116.35938 L712.77448 125.89183" />
    <path d="M712.77448 125.89183 L703.24203 160.01857" />
    <path d="M703.24203 160.01857 L669.11528 150.48613" />
    <path d="M669.11528 150.48613 L678.64773 116.35938" />
    <path d="M673.4008 162.82134 L708.83221 163.16458" />
    <path d="M708.83221 163.16458 L708.48897 198.59598" />
    <path d="M708.48897 198.59598 L673.05756 198.25275" />
    <path d="M673.05756 198.25275 L673.4008 162.82134" />
    <path d="M668.89158 211.33703 L702.83619 201.17505" />
    <path d="M702.83619 201.17505 L712.99818 235.11966" />
    <path d="M712.99818 235.11966 L679.05357 245.28164" />
    <path d="M679.05357 245.28164 L668.89158 211.33703" />
    <path d="M669.3879 252.97902 L703.71389 244.19105" />
    <path d="M703.71389 244.19105 L712.50187 278.51704" />
    <path d="M712.50187 278.51704 L678.17587 287.30502" />
    <path d="M678.17587 287.30502 L669.3879 252.97902" />
    <path d="M674.06531 289.75201 L709.46059 291.38814" />
    <path d="M709.46059 291.38814 L707.82445 326.78342" />
    <path d="M707.82445 326.78342 L672.42918 325.14729" />
    <path d="M672.42918 325.14729 L674.06531 289.75201" />
    <path d="M675.69885 330.905 L710.82728 335.54137" />
    <path d="M710.82728 335.54137 L706.19092 370.6698" />
    <path d="M706.19092 370.6698 L671.06249 366.03344" />
    <path d="M671.06249 366.03344 L675.69885 330.905" />
    <path d="M668.92354 381.3567 L702.89526 371.28574" />
    <path d="M702.89526 371.28574 L712.96623 405.25747" />
    <path d="M712.96623 405.25747 L678.9945 415.32843" />
    <path d="M678.9945 415.32843 L668.92354 381.3567" />
    <path d="M676.97047 415.03093 L711.74072 421.85235" />
    <path d="M711.74072 421.85235 L704.9193 456.62261" />
    <path d="M704.9193 456.62261 L670.14904 449.80119" />
    <path d="M670.14904 449.80119 L676.97047 415.03093" />
    <path d="M673.7882 460.08722 L709.20412 461.18978" />
    <path d="M709.20412 461.18978 L708.10156 496.60569" />
    <path d="M708.10156 496.60569 L672.68565 495.50314" />
    <path d="M672.68565 495.50314 L673.7882 460.08722" />
    <path d="M680.02804 498.31456 L713.49646 509.9493" />
    <path d="M713.49646 509.9493 L701.86172 543.41772" />
    <path d="M701.86172 543.41772 L668.3933 531.78298" />
    <path d="M668.3933 531.78298 L680.02804 498.31456" />
    <path d="M672.30807 546.64007 L707.69064 544.74901" />
    <path d="M707.69064 544.74901 L709.5817 580.13158" />
    <path d="M709.5817 580.13158 L674.19913 582.02264" />
    <path d="M674.19913 582.02264 L672.30807 546.64007" />
    <path d="M671.21054 590.46832 L706.38208 586.17117" />
    <path d="M706.38208 586.17117 L710.67922 621.34271" />
    <path d="M710.67922 621.34271 L675.50769 625.63985" />
    <path d="M675.50769 625.63985 L671.21054 590.46832" />
    <path d="M672.28093 631.7097 L707.66038 629.76124" />
    <path d="M707.66038 629.76124 L709.60884 665.1407" />
    <path d="M709.60884 665.1407 L674.22938 667.08915" />
    <path d="M674.22938 667.08915 L672.28093 631.7097" />
    <path d="M671.89331 674.67254 L707.21722 671.89331" />
    <path d="M707.21722 671.89331 L709.99645 707.21722" />
    <path d="M709.99645 707.21722 L674.67254 709.99645" />
    <path d="M674.67254 709.99645 L671.89331 674.67254" />
    <path d="M668.64413 722.04407 L702.36537 711.16381" />
    <path d="M702.36537 711.16381 L713.24564 744.88506" />
    <path d="M713.24564 744.88506 L679.52439 755.76532" />
    <path d="M679.52439 755.76532 L668.64413 722.04407" />
    <path d="M679.36697 753.76482 L713.16432 764.40634" />
    <path d="M713.16432 764.40634 L702.52279 798.20369" />
    <path d="M702.52279 798.20369 L668.72545 787.56216" />
    <path d="M668.72545 787.56216 L679.36697 753.76482" />
    <path d="M678.70828 796.64034 L712.80848 806.26734" />
    <path d="M712.80848 806.26734 L703.18148 840.36754" />
    <path d="M703.18148 840.36754 L669.08128 830.74053" />
    <path d="M669.08128 830.74053 L678.70828 796.64034" />
    <path d="M675.34872 841.41467 L710.55384 845.42746" />
    <path d="M710.55384 845.42746 L706.54104 880.63258" />
    <path d="M706.54104 880.63258 L671.33593 876.61978" />
    <path d="M671.33593 876.61978 L675.34872 841.41467" />
    <path d="M680.16978 880.92366 L713.56453 892.7682" />
    <path d="M713.56453 892.7682 L701.71999 926.16295" />
    <path d="M701.71999 926.16295 L668.32524 914.31841" />
    <path d="M668.32524 914.31841 L680.16978 880.92366" />
    <path d="M674.66028 927.0219 L709.98597 929.77839" />
    <path d="M709.98597 929.77839 L707.22948 965.10408" />
    <path d="M707.22948 965.10408 L671.90379 962.34759" />
    <path d="M671.90379 962.34759 L674.66028 927.0219" />
  </g>
</svg>