<?xml version="1.0" standalone="no"?>
<!DOCTYPE svg PUBLIC "-//W3C//DTD SVG 1.1//EN" 
    "http://www.w3.org/Graphics/SVG/1.1/DTD/svg11.dtd">
<svg width="2480px" height="3508px"
    xmlns="http://www.w3.org/2000/svg" version="1.1" viewBox="0 0 2480 3508">
  <g fill="none" stroke="black" stroke-width="1.06299px">
    <path d="M620 1134 L1860 1134" />
    <path d="M1860 1134 L1860 2374" />
    <path d="M1860 2374 L620 2374" />
    <path d="M620 2374 L620 1134" />
    <path d="M629.2619385802724 1136.7552994692678 L1857.0332551516067 1141.0383682178694" />
    <path d="M1859.2446724557328 1143.272535712375 L1854.9616289454339 2371.036623649503" />
    <path d="M1852.727436212626 2373.2552695878353 L624.9633735138005 2368.96499744333" />
    <path d="M622.7447023371653 2366.738033344728 L627.0349997199734 1138.9667420116966" />
    <path d="M636.683010023547 1141.3527853603246 L1854.2999877820666 1148.3239108145733" />
    <path d="M1856.6470968917022 1150.7137015520445 L1849.6760604555413 2368.3151481995305" />
    <path d="M1847.2861806999822 2370.6777884201997 L629.6848230705841 2363.6912208730055" />
    <path d="M627.322093831827 2361.31687222848 L634.3087503971093 1143.699983488048" />
    <path d="M651.406596785693 1138.8855344794758 L1857.3308544235397 1161.5722692372492" />
    <path d="M1861.113009716877 1165.5387615480163 L1838.4269984816679 2371.4245925521773" />
    <path d="M1834.4597826483368 2375.2451744792006 L628.5746751667398 2352.520736610305" />
    <path d="M624.7533697171525 2348.59194741066 L647.4785311086118 1142.6684132953771" />
    <path d="M658.657920815289 1143.6940218470759 L1847.8705739718926 1161.9481734686717" />
    <path d="M1858.3036161216328 1172.8523093989684 L1840.0516567087836 2361.9227000869796" />
    <path d="M1829.1453285697407 2372.4980047053123 L640.0771300904755 2354.103782823871" />
    <path d="M629.4996332633967 2343.3397171534198 L647.8960473535843 1154.1292562055628" />
    <path d="M660.888497705682 1153.3088414913882 L1841.2390009105413 1165.2626529732515" />
    <path d="M1850.6894861425349 1175.071376148176 L1838.7373249294756 2355.2600233977773" />
    <path d="M1828.9269514857472 2364.8723645850287 L648.7399545049499 2352.7583474167113" />
    <path d="M639.1259630488944 2343.109829928241 L651.2416304860158 1162.7609769921858" />
    <path d="M674.6538029798962 1151.9238606995739 L1862.2562992067033 1198.060166836754" />
    <path d="M1854.0702043996098 1189.0311654005845 L1807.9271073933378 2376.8087994624325" />
    <path d="M1816.9628996985991 2368.4475668202977 L629.1784747676593 2322.479607649067" />
    <path d="M637.5464982788857 2331.340262119287 L683.5076665810248 1143.7309750233885" />
    <path d="M679.3015675375299 1159.2014897176282 L1833.755808337515 1177.803818074552" />
    <path d="M1848.7924178934686 1193.7145442585322 L1830.1961171288845 2347.7984029331737" />
    <path d="M1814.2793633525646 2363.2053946144706 L660.2015322702626 2344.2387117245435" />
    <path d="M644.788512996626 2328.692340073567 L663.761223478893 1174.2441268659215" />
    <path d="M693.1184270175359 1157.9391430967592 L1864.3473255867748 1221.911269586884" />
    <path d="M1852.046065712831 1207.806249170274 L1788.0540873307377 2379.3996461144443" />
    <path d="M1802.1789596393164 2366.733887865569 L630.5657108031772 2303.1064078584072" />
    <path d="M643.251320944021 2316.8667817920546 L706.8589490592144 1145.6180313308466" />
    <path d="M704.4657590853926 1159.0923796016602 L1832.9552386916846 1197.388748848815" />
    <path d="M1852.8828443414786 1219.4098587591623 L1814.6089604395788 2347.2423978295437" />
    <path d="M1792.5653651839766 2367.826944015248 L664.7553114588504 2328.896119577438" />
    <path d="M644.1482799278906 2307.509464857746 L683.1015897109561 1179.0424705967093" />
    <path d="M680.9125494364067 1193.0889351935534 L1837.6359225152682 1212.861104595757" />
    <path d="M1820.9110382951972 1194.9451139764576 L1801.1286374499423 2352.276401200625" />
    <path d="M1819.0548595122932 2334.943602835248 L661.7133408450745 2315.769116135299" />
    <path d="M679.0563706535027 2333.087424052344 L698.2206259104005 1176.353819530431" />
    <path d="M710.3180962056222 1176.705377824491 L1851.9709234191077 1240.012073206418" />
    <path d="M1839.2743004889903 1225.263475090446 L1775.9380692618251 2367.4512090752673" />
    <path d="M1790.7162032230353 2354.2196793738144 L648.4989333929759 2291.4183549179843" />
    <path d="M661.7599989396672 2305.6615821078594 L724.5317875502586 1163.9792190491353" />
    <path d="M742.365199036149 1159.889231818116 L1862.5659334331913 1264.2044727353473" />
    <path d="M1858.0176054624476 1258.4778114569817 L1753.681842076658 2378.89916396226" />
    <path d="M1759.4290258235817 2374.1302178832802 L638.9871508497454 2270.0150726057263" />
    <path d="M643.7766193972831 2275.5416382444146 L747.8712422062787 1155.320381378814" />
    <path d="M707.0484068882372 1203.1001911421333 L1845.1521076688944 1253.821105419376" />
    <path d="M1816.8962446984665 1221.4788991478301 L1766.1128960674869 2361.003476589288" />
    <path d="M1798.5175366927697 2331.3267369580594 L658.9305248975751 2281.96426498788" />
    <path d="M688.6696988825404 2312.9480289523626 L737.9697364989827 1174.7818938179685" />
    <path d="M721.0354878588163 1201.4895158116333 L1858.340609432575 1281.7215961675233" />
    <path d="M1820.4967714059294 1235.9116886212428 L1740.1162166692452 2375.3499576120053" />
    <path d="M1786.07459859632 2335.372972168356 L646.4878552247635 2257.1255648486754" />
    <path d="M686.6133150492069 2300.9507993587467 L764.7122479880932 1163.4972034041937" />
    <path d="M751.3652982748335 1185.6373268150364 L1827.6269093314518 1254.8060342616652" />
    <path d="M1838.2776932295899 1267.6217502972806 L1769.1507632690464 2343.2363445441783" />
    <path d="M1756.2932697473457 2354.534145252037 L680.7204529865329 2284.760198481773" />
    <path d="M669.3808747925893 2272.549721769793 L739.1965990489384 1196.3298881992596" />
    <path d="M717.592428274038 1228.4123964519483 L1825.5707037341876 1263.2669249701542" />
    <path d="M1797.5874562281742 1231.689528482346 L1762.678771131586 2341.4341684038945" />
    <path d="M1794.3103241977765 2311.684556436482 L684.511527697846 2278.542235801293" />
    <path d="M714.3152962436402 2308.407424406085 L747.4034603004475 1200.3749923675527" />
    <path d="M779.7149134756983 1184.1003253876029 L1798.8107429227423 1243.3547673833302" />
    <path d="M1843.7088270049144 1297.3123034322573 L1784.642251715246 2313.260956662046" />
    <path d="M1730.4968489602597 2361.306216961473 L714.7360624365301 2299.0924654545497" />
    <path d="M666.5029354310437 2248.094238916819 L728.9045536440266 1229.1862761758339" />
    <path d="M808.9116496182041 1172.2347258858586 L1810.3095212449252 1266.9732553777112" />
    <path d="M1857.3734093503267 1328.2088852181696 L1762.9908572015813 2325.916570212435" />
    <path d="M1701.399250018016 2376.6706449502917 L704.0475423668574 2278.597906169091" />
    <path d="M652.9374902858933 2220.696485617981 L751.3662064102015 1219.654591334367" />
    <path d="M816.1390478589371 1177.4465391222843 L1784.050477169492 1248.0542733734694" />
    <path d="M1854.1184289554958 1335.8725610328431 L1783.9457264374316 2298.0542681483666" />
    <path d="M1695.6924070449372 2373.851942129402 L733.9457316625344 2297.949517416306" />
    <path d="M657.7130259483783 2215.425920218843 L734.0504823945948 1247.949522641409" />
    <path d="M761.3502628731827 1233.5248044830294 L1786.3404941659328 1260.9360442756697" />
    <path d="M1800.440192822722 1277.0232812087888 L1773.0606946247565 2300.851255686747" />
    <path d="M1756.9417160969629 2316.1132111583283 L733.1454832136789 2287.5714561455707" />
    <path d="M717.8517861474232 2272.614734432569 L746.4252827548552 1247.6562447344934" />
    <path d="M777.5910248219523 1230.3112186853841 L1841.2988853059555 1341.9664448982155" />
    <path d="M1805.6079167120774 1294.1960368237092 L1693.5994926083895 2361.321578988769" />
    <path d="M1741.7230985737522 2322.212928713834 L674.2443585178362 2213.622186291203" />
    <path d="M713.7062066836271 2258.328110575509 L821.9437512154021 1194.2670522006497" />
    <path d="M760.9548033537235 1257.2065826018522 L1790.1515813097517 1286.558840513183" />
    <path d="M1780.7861418017899 1275.7549280597505 L1751.4094092485052 2305.822812261413" />
    <path d="M1762.2377963438917 2295.5862665078166 L732.1454375002752 2267.0806402001667" />
    <path d="M742.4064578958253 2277.0379210499186 L770.8876095615215 1247.8166684519367" />
    <path d="M841.8063803847826 1200.7461330476472 L1838.8583176406414 1363.5173302275496" />
    <path d="M1838.6548880956184 1363.2055208178824 L1675.8798315720126 2360.2811001744603" />
    <path d="M1676.1955003253834 2360.054028528718 L679.116061625102 2197.3026141058313" />
    <path d="M679.3469926145475 2197.5946407584834 L842.0945476937309 1200.5388441589207" />
    <path d="M859.9397466199237 1198.3866418086473 L1782.1678321965585 1298.8010965179242" />
    <path d="M1842.7901789428533 1382.7911636692318 L1743.1623753671852 2298.0400941243684" />
    <path d="M1658.3856570822688 2365.6415959921615 L743.9233777607409 2259.0346372949953" />
    <path d="M675.5352247593394 2181.2370741315767 L782.9288345901141 1259.7956396885509" />
    <path d="M782.461743236844 1271.86024474419 L1807.9965206806469 1343.2933498290058" />
    <path d="M1772.1226282355424 1297.770333582198 L1700.4105293012917 2327.430156608897" />
    <path d="M1746.2125393975343 2287.4312185808963 L716.2737225214003 2219.844165229542" />
    <path d="M756.551654398836 2261.521129742888 L823.8597139007557 1235.7073584496507" />
    <path d="M842.1213274355445 1232.1910676134926 L1823.149526874765 1377.8502568049023" />
    <path d="M1813.3431516294495 1363.0656954428146 L1667.4895966458466 2345.4090333767076" />
    <path d="M1682.4685238001273 2334.2875196367195 L699.9308200740414 2189.7491031477894" />
    <path d="M711.2466996062224 2203.4128918073975 L855.5907503029598 1222.190326575984" />
    <path d="M837.4872826649074 1246.5440783836295 L1786.1721197535824 1337.3418480290125" />
    <path d="M1801.1003610305397 1357.673890777559 L1710.493552475945 2304.3851533958423" />
    <path d="M1689.9705486366101 2321.2869691431915 L743.450247109115 2228.7065861182055" />
    <path d="M726.3574702709777 2210.157156749262 L819.1288143867523 1261.6632807513752" />
    <path d="M809.0988265134404 1281.8430571431722 L1749.266280441308 1303.4271916710072" />
    <path d="M1768.0985960816395 1325.654493642572 L1746.572587877789 2263.423412507513" />
    <path d="M1724.2871595822396 2284.654263210771 L786.576367041283 2260.729719943994" />
    <path d="M765.2873900140405 2240.8428267113713 L789.2700596048021 1300.7334991074883" />
    <path d="M905.9915035535324 1218.957642516436 L1833.4055293738206 1436.5068855729694" />
    <path d="M1831.5501484341717 1433.0632120066173 L1613.9239745090163 2360.805455881356" />
    <path d="M1617.44457894399 2358.6218568872564 L689.6254042006295 2141.3239010165516" />
    <path d="M691.8859340633511 2144.516287397075 L909.1069590654339 1217.025330708165" />
    <path d="M859.905997895519 1261.325107637705 L1789.9539702324323 1378.2998128486158" />
    <path d="M1792.181862439575 1381.5819676858246 L1675.2518193600622 2311.275384117903" />
    <path d="M1671.9250023914556 2313.8578322298804 L742.2762480907753 2196.5732332455327" />
    <path d="M739.6491378473996 2193.600972181761 L856.9783989631453 1263.5976619762457" />
    <path d="M810.5294252165156 1315.517360212353 L1817.4064944893585 1436.2363454995043" />
    <path d="M1740.4792979712993 1325.1731441453844 L1618.3264645661448 2344.6784964842395" />
    <path d="M1730.823514038268 2255.1230169001683 L709.8843135814095 2145.598466561026" />
    <path d="M800.8736412834842 2245.4672329671366 L908.9643435046233 1237.1563155762906" />
    <path d="M883.3843813615906 1264.9260786515554 L1792.5265716873141 1407.6441315937273" />
    <path d="M1792.303045833443 1407.2878058632755 L1649.5785917034423 2316.4707789905397" />
    <path d="M1649.941318621723 2316.206470335128 L740.7519443066296 2173.5227990066683" />
    <path d="M741.0226541498705 2173.8447431234076 L883.6999242905014 1264.6961516098554" />
    <path d="M891.6209631825757 1269.4382942223315 L1738.2934344537748 1344.2053524260455" />
    <path d="M1789.6968823313132 1416.2703188121682 L1715.774436202103 2253.926680480819" />
    <path d="M1642.8648577414765 2314.3462379609055 L806.0531081473293 2231.407682229147" />
    <path d="M744.788938592739 2167.5142133710688 L828.5721063990011 1321.6863541743737" />
    <path d="M923.8990043096464 1257.822450605061 L1799.002373432752 1446.0578845033533" />
    <path d="M1802.5656997144101 1452.6167995643482 L1614.4978582137476 2326.9427145826326" />
    <path d="M1607.7713507551227 2331.2834949691114 L733.6130281344687 2142.438199363628" />
    <path d="M729.1046553503593 2136.4891460098243 L918.1175433534731 1261.553369284349" />
    <path d="M902.3889635575736 1282.5991216891184 L1742.435167379789 1371.8234667329202" />
    <path d="M1780.4628710337252 1427.810047619515 L1692.0643328372835 2260.396918411222" />
    <path d="M1635.2519451033286 2305.8839550956664 L803.4908811589816 2210.0260838687163" />
    <path d="M757.178037627177 2160.67302916527 L853.8617157014871 1321.4526321904145" />
    <path d="M909.881933479172 1287.6803004841527 L1749.2908046398013 1392.870000817789" />
    <path d="M1777.2894014399076 1436.018712656946 L1672.857905021293 2269.5444055176795" />
    <path d="M1628.9509892671142 2303.426180617682 L796.1835003214026 2193.111505899171" />
    <path d="M761.5435213063786 2155.0877684448883 L872.616399939911 1316.4371011992807" />
    <path d="M950.2066977316016 1271.4776254303054 L1749.936083682 1405.929331084815" />
    <path d="M1794.3205656325324 1482.1237220410185 L1661.6890012649308 2271.4421573588543" />
    <path d="M1583.6744690218193 2326.2375899419494 L796.1761749908917 2183.195074941785" />
    <path d="M739.5606011208884 2115.591493331236 L884.4232574079608 1317.6822486677459" />
    <path d="M903.0407295955085 1313.7881758874794 L1729.0609986687596 1388.6134381492452" />
    <path d="M1755.549838376925 1427.0499057202665 L1681.2691179065123 2247.284467201237" />
    <path d="M1642.2881085441377 2279.5590145016827 L822.5980888545203 2199.4925864389897" />
    <path d="M789.7789997627214 2166.2972846688954 L870.3899696167675 1340.821557386998" />
    <path d="M928.7070051481938 1305.5708848031904 L1763.076020258915 1452.8630261324674" />
    <path d="M1765.188602999649 1456.5627271519636 L1617.9923517907764 2290.3895804242266" />
    <path d="M1614.1967606508758 2293.0443250034186 L780.4657974990172 2145.305911956088" />
    <path d="M777.7151627994208 2142.0524826546457 L925.5494659671558 1307.7793576643287" />
    <path d="M907.9012878353142 1331.495035084134 L1790.7812845148696 1524.565964538497" />
    <path d="M1741.9369309243452 1431.417735493333 L1545.9608499226742 2328.097516380793" />
    <path d="M1642.0142305151462 2265.453378582364 L742.4292980803781 2083.2770817885976" />
    <path d="M807.9785874261152 2165.530678173165 L987.2497326725736 1279.7455299463013" />
    <path d="M879.7228908613899 1366.763115611741 L1793.0722472380248 1549.2487134714872" />
    <path d="M1709.1836056037716 1396.6783742443727 L1522.2638218176362 2333.826814568714" />
    <path d="M1679.2683469711396 2226.1390889867544 L737.6857207204098 2063.0183891483252" />
    <path d="M849.8076322287579 2196.2238303541226 L1008.4941461407983 1278.4402880510988" />
    <path d="M1024.7316650400412 1280.177729561424 L1748.2205616255505 1468.623300283625" />
    <path d="M1792.4684808373217 1568.2405381109704 L1608.1419790734826 2276.5700749601524" />
    <path d="M1504.4056722877754 2335.9773539082507 L800.1952043969552 2136.491492408085" />
    <path d="M736.6688564904949 2047.9145453587046 L940.2737869490229 1328.5447177315573" />
    <path d="M902.5110960436153 1369.0464447412933 L1732.6112731739715 1455.533697811765" />
    <path d="M1710.7685435080132 1422.149162358532 L1623.6851431535788 2258.1762696946553" />
    <path d="M1657.6658258907744 2230.40660982293 L821.0425712706888 2149.2501396742628" />
    <path d="M849.4083784263767 2177.303892205691 L929.9687012910813 1346.6075677913723" />
    <path d="M1024.3277217126094 1299.0742166261332 L1771.569114391611 1550.7605436316107" />
    <path d="M1777.8086898713254 1567.8983796446457 L1527.0273544473152 2312.4687079854834" />
    <path d="M1508.984526852813 2321.3793478033617 L765.3191900934424 2067.9269480411876" />
    <path d="M755.5035586940969 2052.555184784849 L1009.8609500377382 1306.218783687315" />
  </g>
</svg>