<?xml version="1.0" standalone="no"?>
<!DOCTYPE svg PUBLIC "-//W3C//DTD SVG 1.1//EN" 
    "http://www.w3.org/Graphics/SVG/1.1/DTD/svg11.dtd">
<svg width="21cm" height="29.7cm"
    xmlns="http://www.w3.org/2000/svg" version="1.1" viewBox="0 0 744.09449 1052.3622">
  <g fill="none" stroke="black" stroke-width="0.03cm">
    <path d="M379.29402 521.90297 L379.69824 522.67668 L380.25211 524.31062 L380.46097 526.01452 L380.31814 527.73386 L380.11276 528.58229" />
    <path d="M377.39346 542.14014 L376.24261 542.48287 L373.95423 542.91688 L371.7014 543.03129 L369.50545 542.84497 L367.38771 542.37678 L365.36951 541.64557 L363.47216 540.6702 L361.71701 539.46952 L360.12538 538.06238 L358.7186 536.46766 L357.518 534.70419 L356.5449 532.79084 L355.82064 530.74646 L355.36653 528.58992 L355.20392 526.34006 L355.35413 524.01574 L355.55321 522.83155 L355.55321 522.83155 L355.94245 521.28861 L357.11472 518.41003 L358.76083 515.84605 L360.81929 513.64252 L363.22867 511.84529 L365.92748 510.5002 L368.85426 509.65311 L371.94756 509.34985 L373.53744 509.41649" />
    <path d="M368.16242 551.12648 L366.6485 550.8447 L363.74783 550.03336 L361.02808 548.91241 L358.5029 547.5067 L356.18595 545.84113 L354.09087 543.94056 L352.2313 541.82987 L350.6209 539.53394 L349.27332 537.07764 L348.20219 534.48585 L347.42117 531.78345 L346.94391 528.9953 L346.78404 526.1463 L346.95523 523.2613 L347.47112 520.36519 L348.34535 517.48285 L348.92111 516.05461" />
    <path d="M345.48567 546.85896 L345.29666 546.61385 L344.92544 546.11847 L344.74326 545.86824" />
    <path d="M368.57606 484.24776 L370.08235 484.14868 L373.0519 484.10483 L375.95987 484.26064 L378.80119 484.60879 L381.57079 485.14198 L384.26361 485.8529 L386.87456 486.73422 L389.3986 487.77865 L393.01057 489.63511 L397.47499 492.613 L401.50048 496.1117 L405.04648 500.0727 L408.07244 504.43753 L410.53782 509.14769 L412.40207 514.14468 L413.62464 519.37003 L414.09607 523.4037 L414.18871 526.13372 L414.09813 528.88792 L413.81924 531.659 L413.34699 534.43964 L412.67631 537.22253 L411.80212 540.00037 L410.71936 542.76583 L410.09818 544.14164 L410.09818 544.14164 L409.35008 545.64785 L407.68355 548.55325 L405.79896 551.30637 L403.70719 553.89578 L401.41909 556.30999 L398.94553 558.53756 L396.29737 560.567 L393.48548 562.38687 L392.02154 563.21463" />
    <path d="M397.03474 482.30537 L399.06635 483.52556 L402.90053 486.20662 L406.42174 489.18665 L409.62093 492.43935 L412.48905 495.93841 L415.01704 499.65754 L417.19585 503.57043 L419.01642 507.65078 L420.4697 511.87227 L421.54663 516.20862 L422.23815 520.63352 L422.53522 525.12066 L422.42877 529.64373 L421.90975 534.17645 L420.96911 538.6925 L419.5978 543.16558 L418.7478 545.37779" />
    <path d="M353.43621 470.29085 L355.45232 469.65715 L359.47715 468.61392 L363.48434 467.86267 L367.46457 467.39514 L371.40854 467.20305 L375.30692 467.27815 L379.1504 467.61216 L382.92966 468.19683 L386.63539 469.02388 L390.25827 470.08504 L393.78898 471.37206 L397.21821 472.87666 L400.53664 474.59058 L403.73496 476.50556 L406.80384 478.61332 L409.73398 480.9056 L412.51605 483.37413 L415.14075 486.01065 L417.59874 488.80689 L419.88073 491.75458 L421.97738 494.84546 L423.87939 498.07127 L425.57744 501.42372 L427.06221 504.89457 L428.32438 508.47554 L429.35465 512.15837 L430.14368 515.93479 L430.68218 519.79653 L430.96081 523.73533 L430.97027 527.74292 L430.70124 531.81103 L430.1444 535.9314 L429.75514 538.0086 L429.75514 538.0086 L429.33522 539.89942 L428.3174 543.61205 L427.06878 547.22524 L425.59713 550.73007 L423.91023 554.11764 L422.01585 557.37903 L419.92178 560.50534 L417.63579 563.48766 L415.16567 566.31708 L412.51919 568.98468 L409.70413 571.48155 L406.72827 573.7988 L403.59939 575.9275 L400.32527 577.85874 L396.91367 579.58363 L393.3724 581.09323 L391.55556 581.76453" />
    <path d="M439.3675 525.59136 L439.36943 525.88545 L439.36944 526.47365 L439.36752 526.76774" />
    <path d="M303.67483 558.76156 L302.6596 556.53946 L300.85105 552.01479 L299.34072 547.39517 L298.1314 542.69537 L297.2259 537.93018 L296.62705 533.11437 L296.33764 528.26275 L296.36049 523.39008 L296.48989 520.95047" />
    <path d="M418.27158 455.85949 L420.36308 457.27822 L424.37229 460.26108 L428.14892 463.42847 L431.69196 466.76922 L435.0004 470.27213 L438.07323 473.92604 L440.90943 477.71975 L443.50799 481.64208 L445.86791 485.68185 L447.98816 489.82787 L449.86774 494.06897 L451.50563 498.39395 L452.90082 502.79164 L454.05231 507.25086 L454.95906 511.76041 L455.62009 516.30911 L456.03436 520.88579 L456.20088 525.47926 L456.11862 530.07834 L455.78657 534.67184 L455.20373 539.24857 L454.36908 543.79737 L453.28161 548.30704 L451.94031 552.7664 L450.34416 557.16426 L448.49215 561.48946 L446.38327 565.73079 L444.0165 569.87708 L441.39084 573.91714 L438.50527 577.8398 L435.35879 581.63386 L431.95037 585.28815 L430.14762 587.05939" />
    <path d="M317.66256 451.27244 L320.38258 449.36706 L325.91781 445.89562 L331.56506 442.86999 L337.30648 440.28219 L343.12416 438.12427 L349.00025 436.38824 L354.91685 435.06616 L360.8561 434.15004 L366.80012 433.63193 L372.73103 433.50385 L378.63094 433.75784 L384.482 434.38593 L390.26631 435.38016 L395.966 436.73256 L401.5632 438.43516 L407.04002 440.47999 L412.37859 442.85909 L417.56103 445.5645 L422.56947 448.58823 L427.38603 451.92234 L431.99283 455.55884 L436.37199 459.48978 L440.50563 463.70719 L444.37589 468.20309 L447.96488 472.96953 L451.25472 477.99854 L454.22754 483.28214 L456.86546 488.81238 L459.1506 494.58128 L461.06509 500.58088 L462.59105 506.80322 L463.7106 513.24032 L464.11239 516.53691 L464.11239 516.53691 L464.37559 519.51203 L464.61344 525.47377 L464.4669 531.43537 L463.93644 537.37823 L463.52739 540.33682" />
    <path d="M272.75774 507.7579 L273.47882 504.20748 L275.25115 497.30364 L277.44693 490.66838 L280.04605 484.30883 L283.02837 478.23212 L286.37376 472.44535 L290.06209 466.95567 L294.07325 461.77018 L298.38709 456.89602 L302.98349 452.34031 L307.84233 448.11017 L312.94347 444.21272 L318.26679 440.65509 L323.79216 437.4444 L329.49945 434.58777 L335.36853 432.09232 L341.37928 429.96519 L347.51156 428.21348 L353.74526 426.84434 L360.06023 425.86487 L366.43636 425.2822 L372.85351 425.10345 L379.29155 425.33576 L385.73037 425.98623 L392.14982 427.062 L398.52979 428.57018 L404.85014 430.51791 L411.09074 432.91229 L417.23148 435.76047 L423.25221 439.06955 L429.13282 442.84666 L434.85317 447.09893 L437.64696 449.40548 L437.64696 449.40548 L440.36117 451.80515 L445.45391 456.79196 L450.10232 462.01119 L454.31029 467.44187 L458.08172 473.06299 L461.42051 478.85356 L464.33055 484.7926 L466.81573 490.8591 L468.87996 497.03208 L470.52712 503.29053 L471.76111 509.61348 L472.58583 515.97993 L473.00517 522.36887 L473.02303 528.75933 L472.6433 535.1303 L471.86987 541.4608 L470.70665 547.72982 L469.15753 553.91639 L467.2264 559.9995 L464.91716 565.95816 L462.2337 571.77138 L459.17993 577.41817 L455.75972 582.87753 L451.97699 588.12847 L447.83562 593.15 L443.33951 597.92112 L438.49256 602.42084 L433.29865 606.62817 L427.7617 610.52212 L421.88558 614.08168 L415.6742 617.28588 L409.13145 620.11371 L405.73703 621.37993" />
    <path d="M479.88785 507.7779 L480.42557 511.26757 L481.16134 518.28254 L481.44351 525.3267 L481.2712 532.37804 L481.01433 535.89954" />
    <path d="M485.2664 558.76618 L484.02888 562.80768 L481.19264 570.6247 L477.89495 578.08211 L474.15998 585.1739 L470.01192 591.89407 L465.47495 598.23662 L460.57322 604.19554 L455.33093 609.76483 L449.77224 614.93849 L443.92134 619.71052 L437.8024 624.07491 L431.43958 628.02566 L424.85708 631.55677 L418.07907 634.66223 L411.12972 637.33605 L404.0332 639.57222 L396.8137 641.36474 L389.49539 642.7076 L382.10244 643.5948 L374.65904 644.02035 L367.18935 643.97823 L359.71755 643.46245 L352.26782 642.46701 L344.86433 640.98589 L337.53127 639.0131 L330.2928 636.54263 L323.1731 633.56849 L316.19635 630.08467 L309.38672 626.08516 L302.76839 621.56397 L296.36554 616.51509 L290.20234 610.93252 L287.21816 607.93923 L287.21816 607.93923 L284.33688 604.84675 L278.98526 598.48198 L274.1758 591.8974 L269.90161 585.11693 L266.1558 578.16452 L262.93149 571.06411 L260.22177 563.83963 L258.01977 556.51503 L256.31859 549.11423 L255.11135 541.66119 L254.39115 534.17983 L254.1511 526.6941 L254.38432 519.22793 L255.08392 511.80527 L256.243 504.45004 L257.85468 497.1862 L259.91206 490.03767 L262.40827 483.02839 L265.3364 476.18231 L268.68957 469.52336 L272.46088 463.07547 L276.64346 456.8626 L281.23041 450.90867 L286.21484 445.23762 L291.58986 439.87339 L297.34858 434.83993 L303.48411 430.16116 L309.98957 425.86103 L316.85805 421.96347 L324.08268 418.49242 L331.65657 415.47183 L339.57282 412.92562 L343.65717 411.8379" />
    <path d="M348.03188 402.25631 L352.49172 401.47002 L361.33339 400.37167 L370.05647 399.88881 L378.64344 400.00129 L387.07683 400.68896 L395.33912 401.93167 L403.41282 403.70926 L411.28043 406.00158 L418.92446 408.78848 L426.3274 412.04981 L433.47175 415.76541 L440.34003 419.91513 L446.91472 424.47882 L453.17834 429.43633 L459.11338 434.7675 L464.70234 440.45218 L469.92774 446.47022 L474.77206 452.80146 L479.21781 459.42576 L483.2475 466.32296 L486.84362 473.47291 L489.98868 480.85546 L492.66517 488.45045 L494.85561 496.23773 L496.54249 504.19715 L497.70831 512.30856 L498.33558 520.5518 L498.4068 528.90672 L497.90446 537.35317 L496.81108 545.87099 L495.10915 554.44004 L492.78117 563.04017 L491.37695 567.34558 L491.37695 567.34558 L490.51873 569.75464 L488.66744 574.49491 L486.64022 579.12867 L484.44178 583.65263 L482.07681 588.06351 L479.55 592.35802 L476.86604 596.53287 L474.02963 600.58479 L471.04545 604.51049 L467.91821 608.30668 L464.65258 611.97008 L461.25327 615.49741 L457.72497 618.88538 L454.07236 622.13071 L450.30015 625.23012 L446.41302 628.18031 L442.41566 630.97801 L438.31278 633.61994 L434.10905 636.1028 L429.80918 638.42331 L425.41786 640.5782 L420.93977 642.56417 L416.37961 644.37794 L411.74207 646.01623 L407.03185 647.47575 L402.25363 648.75323 L397.41212 649.84536 L392.51199 650.74888 L387.55795 651.4605 L382.55469 651.97693 L377.50689 652.29488 L372.41926 652.41108 L369.86197 652.3925" />
    <path d="M486.0683 454.56648 L487.43417 456.78861 L490.03028 461.30061 L492.44437 465.89828 L494.67501 470.57604 L496.72075 475.32835 L498.58016 480.14962 L500.25179 485.0343 L501.7342 489.97682 L503.02597 494.97162 L504.12564 500.01313 L505.03177 505.09578 L505.74294 510.21402 L506.25769 515.36227 L506.5746 520.53497 L506.69221 525.72655 L506.6091 530.93146 L506.49182 533.53716" />
    <path d="M499.15184 460.52382 L500.46335 463.12744 L502.92048 468.39979 L505.15551 473.75312 L507.16736 479.18041 L508.95494 484.67467 L510.51718 490.22887 L511.85298 495.83602 L512.96127 501.48909 L513.84096 507.18108 L514.49096 512.90498 L514.9102 518.65378 L515.09759 524.42046 L515.05205 530.19803 L514.77249 535.97946 L514.25784 541.75775 L513.507 547.52588 L513.04267 550.40395" />
    <path d="M520.91235 498.1762 L521.6454 502.40116 L522.75066 510.89802 L523.37357 519.44038 L523.51261 528.0077 L523.40022 532.29431" />
    <path d="M224.0788 465.59475 L225.1912 462.94215 L227.53016 457.73964 L230.01784 452.6745 L232.65007 447.74732 L235.42264 442.95866 L238.33137 438.30908 L241.37208 433.79916 L244.54058 429.42946 L247.83268 425.20056 L251.24419 421.11301 L254.77093 417.1674 L258.4087 413.36429 L264.0644 407.92805 L271.95489 401.18378 L280.21416 395.01975 L288.80872 389.44049 L297.70506 384.45056 L306.86968 380.05451 L316.26909 376.25689 L325.86979 373.06224 L335.63828 370.47512 L345.54106 368.50007 L355.54463 367.14164 L365.6155 366.40439 L375.72016 366.29285 L385.82512 366.81159 L395.89687 367.96514 L405.90192 369.75806 L415.80677 372.1949 L425.57792 375.2802 L435.18187 379.01851 L444.58513 383.41439 L451.48571 387.14556 L456.00593 389.84086 L460.45714 392.70312 L464.83514 395.73289 L469.13575 398.93075 L473.35478 402.29726 L477.48804 405.833 L481.53135 409.53853 L485.48052 413.41442 L489.33136 417.46124 L493.07968 421.67956 L496.7213 426.06995 L498.50079 428.32985 L498.50079 428.32985 L500.2418 430.61951 L503.57783 435.24637 L506.72053 439.93333 L509.67148 444.6765 L512.4323 449.47195 L515.00459 454.31577 L517.38994 459.20406 L519.58996 464.13291 L521.60625 469.0984 L523.44041 474.09663 L525.09404 479.12368 L526.56874 484.17564 L528.44881 491.79175 L530.34428 501.99724 L531.55285 512.232 L532.08735 522.46473 L531.96059 532.66415 L531.18536 542.79897 L529.7745 552.83791 L527.74079 562.74969 L525.09706 572.50301 L521.85611 582.06659 L518.03076 591.40915 L513.63381 600.49941 L508.67807 609.30606 L503.17636 617.79785 L497.14147 625.94346 L490.58623 633.71163 L483.52345 641.07107 L475.96592 647.99048 L467.92647 654.43859 L459.4179 660.38411 L452.73632 664.4946 L448.14201 667.06158 L443.43762 669.48531 L438.62476 671.76188 L433.70503 673.88739 L428.68003 675.85792 L423.55136 677.66956 L418.32062 679.3184 L412.98942 680.80054 L407.55935 682.11205 L402.03201 683.24903 L396.40902 684.20758 L393.56215 684.61871" />
    <path d="M468.2321 388.06612 L470.61879 389.75909 L475.28561 393.25475 L479.80866 396.89296 L484.18595 400.66919 L488.41545 404.57892 L492.49516 408.61765 L496.42306 412.78086 L500.19714 417.06403 L503.81538 421.46264 L507.27578 425.97218 L510.57633 430.58814 L513.715 435.30599 L516.68979 440.12123 L519.49869 445.02933 L522.13969 450.02578 L524.61076 455.10607 L526.9099 460.26568 L529.0351 465.50009 L530.98435 470.80479 L532.75563 476.17526 L534.34693 481.60698 L535.75624 487.09545 L536.98154 492.63614 L538.02083 498.22455 L538.87209 503.85614 L539.5333 509.52641 L540.00247 515.23084 L540.27757 520.96492 L540.35659 526.72413 L540.23752 532.50396 L539.91835 538.29988 L539.39707 544.10738 L539.06001 547.01407" />
    <path d="M195.32531 525.75795 L195.3598 522.57895 L195.58842 516.27855 L196.02652 510.05689 L196.67003 503.91628 L197.51491 497.85906 L198.55711 491.88756 L199.79258 486.00409 L201.21727 480.21098 L202.82712 474.51056 L204.6181 468.90515 L206.58613 463.39708 L208.72719 457.98868 L211.03721 452.68227 L213.51215 447.48017 L216.14795 442.38472 L218.94057 437.39823 L221.88595 432.52304 L224.98005 427.76146 L228.21881 423.11583 L231.59818 418.58846 L235.11412 414.1817 L238.76256 409.89785 L242.53947 405.73925 L246.44079 401.70822 L252.51718 395.90596 L261.01667 388.63783 L269.9409 381.92184 L279.25746 375.77661 L288.93395 370.22073 L298.93797 365.27282 L309.23711 360.95148 L319.79897 357.27531 L327.87329 354.95277 L333.32139 353.61572 L338.81694 352.45043 L344.35589 351.45922 L349.9342 350.64442 L355.54781 350.00835 L361.19266 349.55335 L366.86472 349.28173 L372.55993 349.19582 L378.27424 349.29796 L384.0036 349.59045 L389.74396 350.07564 L395.49127 350.75584 L401.24148 351.63338 L406.99053 352.71058 L412.73438 353.98978 L418.46898 355.47329 L424.19027 357.16345 L429.89421 359.06258 L435.57675 361.17299 L441.23383 363.49703 L446.8614 366.03702 L452.45542 368.79527 L458.01184 371.77412 L460.77468 373.347 L460.77468 373.347 L463.51052 374.96637 L468.85252 378.31456 L474.02159 381.80479 L479.01775 385.43239 L483.84102 389.19269 L488.49139 393.08101 L492.96889 397.09269 L497.27353 401.22306 L501.40531 405.46745 L505.36425 409.82118 L509.15035 414.27959 L512.76364 418.838 L516.20412 423.49174 L519.47179 428.23615 L522.56669 433.06655 L525.4888 437.97827 L528.23815 442.96664 L530.81475 448.027 L533.21861 453.15466 L535.44973 458.34497 L537.50814 463.59324 L539.39383 468.89481 L541.10683 474.24501 L542.64715 479.63916 L544.63385 487.8026 L546.6785 498.79744 L548.0326 509.88405 L548.69625 521.02504 L548.66953 532.18307 L547.95254 543.32075 L546.54536 554.40074 L544.44808 565.38567 L542.4223 573.5395 L540.85618 578.92622 L539.11758 584.26815 L537.20651 589.56063 L535.123 594.79899 L532.86704 599.97854 L530.43866 605.09464 L527.83785 610.14259 L525.06465 615.11774 L522.11904 620.01542 L519.00105 624.83094 L515.71069 629.55964 L512.24797 634.19686 L508.61289 638.73791 L504.80548 643.17814 L500.82574 647.51286 L496.67368 651.73741 L492.34931 655.84712 L487.85265 659.83731 L483.18371 663.70332 L478.34249 667.44048 L473.32901 671.04411 L468.14328 674.50954 L462.78532 677.83211 L460.04175 679.43837" />
    <path d="M505.45908 654.54498 L503.12965 656.9254 L498.39171 661.52702 L493.55232 665.91728 L488.61624 670.09738 L483.5882 674.06847 L478.47296 677.83175 L473.27526 681.38838 L467.99987 684.73954 L462.65152 687.8864 L457.23497 690.83014 L451.75497 693.57193 L446.21627 696.11296 L440.62361 698.45438 L434.98175 700.59739 L429.29544 702.54315 L423.56942 704.29283 L417.80845 705.84763 L412.01728 707.2087 L406.20065 708.37722 L400.36332 709.35438 L394.51003 710.14134 L388.64554 710.73927 L382.77459 711.14936 L376.90194 711.37279 L371.03234 711.41071 L365.17053 711.26432 L359.32126 710.93477 L353.48929 710.42326 L347.67936 709.73096 L341.89623 708.85903 L336.14464 707.80866 L330.42934 706.58101 L324.75509 705.17727 L319.12663 703.59862 L313.54871 701.84621 L308.02609 699.92124 L302.56351 697.82487 L297.16572 695.55828 L291.83748 693.12264 L286.58352 690.51914 L281.40861 687.74894 L276.31749 684.81322 L271.31492 681.71316 L266.40563 678.44992 L261.59439 675.02469 L256.88593 671.43865 L252.28502 667.69295 L247.7964 663.78879 L243.42482 659.72733 L239.17503 655.50976 L235.05178 651.13723 L231.05982 646.61094 L227.2039 641.93206 L223.48877 637.10175 L219.91917 632.1212 L216.49987 626.99159 L213.23561 621.71407 L210.13114 616.28984 L207.1912 610.72007 L204.42056 605.00592 L201.82395 599.14858 L199.40613 593.14922 L197.17185 587.00902 L195.12585 580.72915 L194.17495 577.53721 L194.17495 577.53721 L192.73236 572.25827 L190.33039 561.70356 L188.56144 551.16933 L187.41204 540.67505 L186.86871 530.24018 L186.91796 519.88422 L187.54631 509.62663 L188.74028 499.48689 L190.4864 489.48448 L192.77118 479.63887 L195.58113 469.96954 L198.90278 460.49597 L202.72264 451.23762 L207.02724 442.21399 L211.80309 433.44453 L217.03671 424.94874 L222.71462 416.74607 L228.82334 408.85602 L235.34938 401.29806 L242.27927 394.09166 L249.59953 387.2563 L257.29667 380.81145 L265.35721 374.7766 L273.76766 369.17121 L282.51456 364.01476 L291.58442 359.32674 L300.96375 355.12661 L310.63907 351.43384 L320.59691 348.26793 L330.82378 345.64834 L341.30621 343.59455 L352.0307 342.12603 L357.4795 341.61734" />
    <path d="M287.45616 352.09156 L290.60073 350.59632 L296.91 347.79064 L303.24255 345.22893 L309.59416 342.90834 L315.96058 340.82599 L322.33759 338.97903 L328.72093 337.36459 L335.10638 335.97979 L341.4897 334.82177 L347.86666 333.88767 L354.23301 333.17462 L360.58452 332.67974 L366.91695 332.40019 L373.22607 332.33308 L379.50764 332.47555 L385.75743 332.82473 L391.97118 333.37776 L398.14468 334.13177 L404.27369 335.0839 L410.35395 336.23127 L416.38125 337.57103 L422.35134 339.10029 L428.25999 340.81621 L434.10296 342.7159 L439.87601 344.79651 L445.57491 347.05516 L451.19542 349.48899 L456.7333 352.09514 L462.18432 354.87073 L467.54424 357.8129 L472.80882 360.91878 L477.97383 364.18551 L483.03503 367.61022 L487.98818 371.19004 L492.82905 374.92211 L497.5534 378.80356 L502.15699 382.83151 L506.63559 387.00312 L510.98496 391.3155 L515.20087 395.76579 L519.27907 400.35113 L523.21533 405.06864 L527.00542 409.91547 L530.64509 414.88874 L534.13011 419.98559 L537.45625 425.20315 L540.61926 430.53856 L543.61492 435.98894 L546.43897 441.55144 L549.0872 447.22318 L551.55536 453.00129 L553.83921 458.88292 L555.93451 464.86519 L557.83704 470.94523 L559.54255 477.12019 L561.04681 483.38719 L562.34558 489.74337 L563.43463 496.18586 L564.30971 502.71179 L564.96659 509.3183 L565.40104 516.00251 L565.60881 522.76157 L565.58568 529.59261 L565.3274 536.49275 L565.10876 539.96785 L565.10876 539.96785 L564.72617 544.55705 L563.63835 553.67286 L562.12581 562.69382 L560.19511 571.6063 L557.85281 580.39662 L555.10546 589.05115 L551.95963 597.55624 L548.42187 605.89822 L544.49875 614.06344 L540.19682 622.03826 L535.52265 629.80903 L530.48279 637.36208 L525.0838 644.68377 L519.33224 651.76045 L513.23467 658.57846 L506.79765 665.12415 L503.4539 668.29061" />
    <path d="M482.22215 356.90982 L484.78847 358.60715 L489.81447 362.09299 L494.69802 365.6975 L499.43883 369.41722 L506.28178 375.20523 L514.90338 383.29344 L522.94872 391.78006 L530.41543 400.63734 L537.30115 409.83755 L543.60353 419.35294 L549.32019 429.15576 L554.44877 439.21826 L558.98691 449.51272 L562.93224 460.01137 L566.28241 470.68647 L569.03504 481.51029 L571.18778 492.45508 L572.73826 503.49308 L573.68411 514.59657 L574.02299 525.73779 L573.75251 536.889 L572.87032 548.02245 L571.37405 559.1104 L569.26135 570.12511 L566.52984 581.03883 L563.17717 591.82382 L559.20096 602.45233 L554.59887 612.89662 L549.36852 623.12895 L543.50754 633.12156 L537.01359 642.84672 L529.88429 652.27668 L524.11894 659.13873 L520.0756 663.60674 L515.8721 667.98533 L511.50813 672.27106 L509.26588 674.37801" />
    <path d="M547.41437 642.4039 L544.88621 646.1322 L539.62554 653.38332 L534.10122 660.35748 L528.32383 667.05113 L522.30394 673.46073 L516.05211 679.58272 L509.57891 685.41355 L502.89492 690.94966 L496.01071 696.18751 L488.93684 701.12354 L481.68389 705.75421 L474.26242 710.07595 L466.68301 714.08521 L458.95622 717.77845 L451.09263 721.15211 L443.10281 724.20264 L434.99732 726.92649 L426.78674 729.32011 L418.48164 731.37994 L410.09259 733.10243 L401.63015 734.48402 L393.10489 735.52118 L384.5274 736.21034 L375.90823 736.54796 L367.25796 736.53047 L358.58716 736.15433 L349.9064 735.41599 L341.22624 734.3119 L332.55726 732.8385 L323.91003 730.99224 L315.29512 728.76956 L306.7231 726.16693 L302.45647 724.72201" />
    <path d="M397.2867 308.84251 L401.19258 309.3296 L408.91116 310.49211 L416.50357 311.90129 L423.96754 313.55183 L431.30076 315.43843 L438.50095 317.55577 L445.5658 319.89856 L452.49302 322.46147 L459.28032 325.23921 L465.9254 328.22646 L472.42598 331.41792 L478.77974 334.80828 L484.98441 338.39223 L491.03769 342.16446 L496.93728 346.11966 L502.68088 350.25254 L508.26621 354.55777 L513.69096 359.03005 L518.95286 363.66408 L524.04959 368.45454 L528.97886 373.39613 L533.73839 378.48354 L538.32588 383.71145 L542.73903 389.07457 L546.97555 394.56759 L551.03314 400.18519 L554.90951 405.92207 L558.60237 411.77292 L562.10942 417.73243 L565.42836 423.7953 L568.55691 429.95622 L571.49277 436.20987 L574.23364 442.55096 L576.77723 448.97416 L579.12124 455.47418 L581.26339 462.04571 L583.20137 468.68344 L584.9329 475.38206 L586.45567 482.13626 L587.76739 488.94073 L588.86578 495.79017 L589.74853 502.67927 L590.41335 509.60272 L590.85795 516.55522 L591.08003 523.53144 L591.07729 530.5261 L590.84745 537.53387 L590.38821 544.54945 L589.69727 551.56754 L588.77235 558.58282 L587.61114 565.58998 L586.21135 572.58373 L584.57068 579.55874 L582.68685 586.50972 L580.55756 593.43135 L578.18052 600.31833 L575.55342 607.16534 L572.67398 613.96709 L569.5399 620.71826 L566.14888 627.41354 L562.49864 634.04763 L558.58688 640.61522 L554.4113 647.111 L549.96961 653.52966 L547.64826 656.70841 L547.64826 656.70841 L544.76753 660.4972 L538.77861 667.86329 L532.49555 674.94132 L525.92929 681.72401 L519.0908 688.20408 L511.99103 694.37424 L504.64093 700.22722 L497.05145 705.75573 L489.23356 710.9525 L481.1982 715.81023 L472.95633 720.32165 L464.5189 724.47948 L455.89687 728.27643 L447.10119 731.70523 L438.14282 734.75858 L429.03271 737.42922 L424.42418 738.61875" />
    <path d="M585.23898 604.767 L583.79286 608.59017 L580.73333 616.09643 L577.45566 623.41508 L573.96578 630.54511 L570.26959 637.48549 L566.37303 644.2352 L562.282 650.79323 L558.00243 657.15856 L553.54022 663.33017 L548.90131 669.30704 L544.09161 675.08816 L539.11703 680.67249 L533.9835 686.05904 L528.69694 691.24677 L523.26325 696.23467 L517.68836 701.02171 L511.97819 705.6069 L506.13865 709.98919 L500.17567 714.16758 L494.09516 718.14104 L487.90304 721.90856 L481.60522 725.46912 L475.20763 728.82171 L468.71619 731.96529 L462.1368 734.89885 L455.4754 737.62139 L448.73789 740.13186 L441.9302 742.42927 L435.05824 744.51258 L428.12793 746.38079 L421.14519 748.03286 L414.11594 749.46779 L407.0461 750.68456 L399.94158 751.68214 L392.8083 752.45952 L385.65218 753.01568 L378.47914 753.3496 L371.29509 753.46026 L364.10596 753.34665 L356.91766 753.00774 L349.73611 752.44252 L342.56723 751.64997 L335.41694 750.62906 L328.29115 749.37879 L321.19578 747.89813 L314.13675 746.18607 L307.11998 744.24158 L300.15139 742.06364 L293.23689 739.65125 L286.38241 737.00337 L279.59385 734.119 L272.87714 730.99711 L266.2382 727.63669 L259.68295 724.03671 L253.2173 720.19615 L246.84716 716.11401 L240.57847 711.78926 L234.41714 707.22087 L228.36907 702.40784 L222.44021 697.34915 L216.63645 692.04377 L210.96372 686.49069 L205.42794 680.68889 L200.03502 674.63735 L197.39399 671.51761 L197.39399 671.51761 L194.80609 668.35365 L189.83524 661.95089 L185.13594 655.45302 L180.7061 648.86568 L176.54364 642.1945 L172.6465 635.44512 L169.0126 628.62317 L165.63985 621.73428 L162.52618 614.7841 L159.66951 607.77825 L157.06777 600.72237 L154.71888 593.62209 L152.62076 586.48305 L150.77134 579.31088 L149.16854 572.11122 L147.81027 564.8897 L146.69448 557.65196 L145.81907 550.40363 L145.18197 543.15034 L144.7811 535.89773 L144.61439 528.65143 L144.67976 521.41708 L144.97514 514.20032 L145.49844 507.00677 L146.24759 499.84207 L147.22051 492.71186 L148.41513 485.62177 L149.82936 478.57743 L151.46114 471.58448 L153.30838 464.64856 L155.36901 457.77529 L157.64095 450.97032 L160.12212 444.23927 L162.81045 437.58778 L165.70386 431.02149 L168.80027 424.54603 L172.09761 418.16704 L175.59379 411.89014 L179.28675 405.72098 L183.1744 399.66518 L187.25467 393.72839 L191.52548 387.91623 L195.98476 382.23435 L200.63042 376.68837 L205.4604 371.28393 L210.4726 366.02666 L215.66496 360.92221 L221.03541 355.9762 L226.58185 351.19426 L232.30222 346.58204 L238.19444 342.14517 L244.25643 337.88927 L250.48611 333.82 L256.88141 329.94297 L263.44026 326.26382 L270.16056 322.7882 L277.04025 319.52173 L284.07726 316.47005 L291.26949 313.63879 L298.61489 311.03358 L306.11136 308.66007 L313.75683 306.52388 L321.54923 304.63066 L329.48647 302.98603 L333.50877 302.25869" />
    <path d="M194.87465 370.83848 L197.69607 367.67494 L203.44879 361.54566 L209.34294 355.67911 L215.3724 350.07407 L221.53107 344.72933 L227.81284 339.64367 L234.21161 334.81588 L240.72126 330.24475 L247.33568 325.92905 L254.04878 321.86758 L260.85444 318.05912 L267.74654 314.50246 L274.719 311.19639 L281.76569 308.13968 L288.88051 305.33112 L296.05735 302.76951 L303.29011 300.45362 L310.57267 298.38225 L317.89893 296.55417 L325.26278 294.96817 L332.65811 293.62305 L340.07881 292.51758 L347.51878 291.65055 L354.97191 291.02074 L362.43208 290.62695 L369.8932 290.46795 L377.34916 290.54254 L384.79383 290.8495 L392.22113 291.38761 L399.62494 292.15567 L406.99915 293.15245 L414.33765 294.37674 L421.63434 295.82733 L428.88311 297.503 L436.07785 299.40254 L443.21245 301.52474 L450.28081 303.86838 L457.27681 306.43224 L464.19436 309.21512 L471.02733 312.2158 L477.76963 315.43305 L484.41514 318.86568 L490.95776 322.51247 L497.39137 326.37219 L503.70988 330.44364 L509.90717 334.7256 L515.97714 339.21687 L521.91368 343.91621 L527.71067 348.82243 L533.36202 353.9343 L538.86161 359.25061 L544.20333 364.77015 L549.38108 370.4917 L554.38876 376.41405 L559.22024 382.53598 L563.86943 388.85628 L568.33021 395.37374 L572.59649 402.08714 L576.66214 408.99527 L580.52106 416.09691 L584.16715 423.39084 L587.5943 430.87587 L590.79639 438.55076 L593.76733 446.41431 L595.1642 450.41645 L595.1642 450.41645 L596.2976 453.83676 L598.39962 460.68392 L600.28382 467.53696 L601.95247 474.39246 L603.40782 481.247 L604.65214 488.09716 L605.68769 494.93951 L606.51674 501.77064 L607.14155 508.58712 L607.56437 515.38554 L607.78748 522.16248 L607.81314 528.91451 L607.6436 535.63822 L607.28114 542.33018 L606.72801 548.98697 L605.98648 555.60518 L605.0588 562.18138 L603.94725 568.71216 L602.65409 575.19409 L601.18157 581.62374 L599.53197 587.99771 L597.70754 594.31258 L595.71054 600.56491 L593.54325 606.75129 L591.20792 612.86831 L588.70681 618.91253 L586.04219 624.88055 L583.21632 630.76893 L580.23146 636.57426 L577.08988 642.29312 L573.79384 647.92209 L570.3456 653.45774 L566.74743 658.89666 L563.00158 664.23543 L559.11032 669.47063 L555.07592 674.59883 L550.90063 679.61662 L546.58672 684.52057 L542.13645 689.30727 L537.55208 693.9733 L532.83589 698.51522 L527.99012 702.92963 L523.01704 707.21311 L517.91892 711.36223 L512.69801 715.37357 L507.35659 719.24371 L501.89691 722.96924 L496.32123 726.54673 L490.63183 729.97275 L484.83096 733.2439 L478.92088 736.35675 L472.90386 739.30788 L466.78215 742.09388 L460.55804 744.7113 L454.23376 747.15675 L447.8116 749.4268 L441.29381 751.51803 L434.68265 753.42701 L427.98038 755.15033 L421.18928 756.68457 L414.3116 758.02631 L407.34961 759.17212 L400.30556 760.11859 L393.18172 760.86229 L389.59059 761.15704" />
    <path d="M225.48757 721.31787 L221.99953 718.65171 L215.21914 713.19044 L208.69901 707.56253 L202.43836 701.77441 L196.43642 695.83247 L190.69241 689.74311 L185.20555 683.51274 L179.97508 677.14776 L175.0002 670.65457 L170.28016 664.03958 L165.81416 657.30919 L161.60144 650.4698 L157.64122 643.52782 L153.93273 636.48965 L150.47518 629.36168 L147.26781 622.15034 L144.30983 614.86201 L141.60047 607.5031 L139.13896 600.08002 L136.92452 592.59916 L134.95636 585.06693 L133.23373 577.48974 L131.75584 569.87398 L130.52191 562.22606 L129.53118 554.55238 L128.78285 546.85935 L128.27617 539.15337 L128.01035 531.44083 L127.98461 523.72816 L128.19818 516.02174 L128.65029 508.32798 L129.34016 500.65328 L130.26701 493.00405 L131.43007 485.38669 L132.82855 477.8076 L134.4617 470.27319 L136.32872 462.78985 L138.42885 455.364 L140.7613 448.00203 L143.32531 440.71035 L146.12009 433.49536 L149.14487 426.36347 L152.39888 419.32107 L155.88134 412.37457 L159.59146 405.53038 L163.52849 398.79489 L167.69164 392.17451 L172.08013 385.67564 L176.69319 379.30468 L181.53004 373.06805 L186.58991 366.97214 L191.87203 361.02335 L197.37561 355.22808 L203.09987 349.59275 L209.04406 344.12375 L215.20738 338.82749 L221.58906 333.71036 L228.18833 328.77878 L235.00442 324.03915 L242.03653 319.49786 L249.28391 315.16133 L256.74577 311.03595 L264.42133 307.12812 L272.30983 303.44426 L276.33369 301.68832 L276.33369 301.68832 L280.38666 300.00067 L288.50646 296.85932 L296.64043 294.02667 L304.78342 291.49885 L312.93026 289.27199 L321.07581 287.34221 L329.2149 285.70563 L337.34237 284.3584 L345.45307 283.29662 L353.54184 282.51644 L361.60353 282.01397 L369.63297 281.78534 L377.62502 281.82668 L385.5745 282.13412 L393.47627 282.70378 L401.32517 283.53178 L409.11603 284.61426 L416.84371 285.94734 L424.50305 287.52715 L432.08888 289.34982 L439.59606 291.41146 L447.01942 293.70822 L454.35381 296.2362 L461.59406 298.99155 L468.73503 301.97039 L475.77155 305.16884 L482.69847 308.58303 L489.51063 312.20908 L496.20287 316.04313 L502.77004 320.0813 L509.20698 324.31972 L515.50853 328.75451 L521.66953 333.3818 L527.68483 338.19772 L533.54927 343.19839 L539.25769 348.37994 L544.80494 353.7385 L550.18585 359.27019 L555.39527 364.97113 L560.42805 370.83747 L565.27902 376.86532 L569.94304 383.0508 L574.41493 389.39006 L578.68954 395.8792 L582.76173 402.51436 L586.62632 409.29167 L590.27816 416.20725 L593.7121 423.25723 L596.92298 430.43774 L599.90564 437.74489 L602.65492 445.17483 L605.16567 452.72367 L607.43272 460.38754 L609.45093 468.16256 L611.21513 476.04488 L612.72017 484.0306 L613.96088 492.11586 L614.93212 500.29679 L615.62873 508.56951 L616.04554 516.93014 L616.1774 525.37482 L616.01915 533.89967 L615.56564 542.50082 L614.81171 551.17439 L614.32048 555.53712" />
    <path d="M128.50051 459.6878 L129.73371 455.31673 L132.39877 446.71357 L135.32332 438.29711 L138.50093 430.06905 L141.92513 422.03108 L145.58947 414.1849 L149.4875 406.5322 L153.61277 399.07469 L157.95882 391.81406 L162.5192 384.752 L167.28746 377.89021 L172.25714 371.23039 L177.42179 364.77424 L182.77496 358.52345 L188.31019 352.47972 L194.02104 346.64474 L199.90105 341.02021 L205.94376 335.60782 L212.14272 330.40929 L218.49149 325.42629 L224.9836 320.66052 L231.6126 316.11369 L238.37205 311.78749 L245.25548 307.68362 L252.25645 303.80376 L259.3685 300.14963 L266.58517 296.72291 L273.90003 293.5253 L281.3066 290.5585 L288.79845 287.8242 L296.36911 285.3241 L304.01214 283.0599 L311.72108 281.0333 L319.48947 279.24598 L327.31087 277.69965 L335.17882 276.396 L343.08687 275.33674 L351.02856 274.52354 L358.99745 273.95812 L366.98707 273.64217 L374.99099 273.57739 L383.00273 273.76546 L391.01586 274.20809 L399.02391 274.90698 L407.02044 275.86382 L414.99899 277.0803 L422.95311 278.55813 L430.87634 280.299 L438.76224 282.30461 L446.60434 284.57664 L454.3962 287.11681 L462.13136 289.9268 L469.80338 293.00832 L477.40579 296.36305 L484.93215 299.9927 L492.37599 303.89896 L499.73088 308.08353 L506.99035 312.54811 L514.14795 317.29438 L521.19723 322.32405 L528.13174 327.63882 L534.94502 333.24037 L541.63062 339.13041 L548.18208 345.31064 L551.4055 348.5101 L551.4055 348.5101 L554.57435 351.76361 L560.69238 358.3732 L566.51897 365.11417 L572.05588 371.98009 L577.30487 378.96452 L582.26769 386.06102 L586.9461 393.26316 L591.34186 400.56451 L595.45673 407.95861 L599.29246 415.43905 L602.85082 422.99937 L606.13355 430.63315 L609.14241 438.33395 L611.87917 446.09532 L614.34558 453.91084 L616.5434 461.77407 L618.47438 469.67857 L620.14029 477.6179 L621.54287 485.58563 L622.68389 493.57532 L623.56511 501.58054 L624.18828 509.59484 L624.55516 517.61179 L624.6675 525.62496 L624.52707 533.6279 L624.13562 541.61418 L623.49491 549.57737 L622.60669 557.51102 L621.47273 565.40871 L620.09478 573.26398 L618.47459 581.07042 L616.61393 588.82157 L614.51456 596.51101 L612.17822 604.1323 L609.60668 611.67899 L606.8017 619.14466 L603.76503 626.52286 L600.49842 633.80717 L597.00365 640.99114 L593.28246 648.06833 L589.33661 655.03232 L585.16786 661.87665 L580.77796 668.59491 L576.16868 675.18064 L571.34177 681.62742 L566.29899 687.9288 L561.0421 694.07836 L555.57284 700.06964 L549.89299 705.89623 L544.00429 711.55167 L537.90851 717.02954 L531.60741 722.32339 L525.10273 727.42679 L518.39624 732.3333 L511.48969 737.03649 L504.38485 741.52992 L497.08346 745.80716 L489.58729 749.86176 L481.8981 753.68728 L474.01764 757.2773 L465.94766 760.62538 L457.68993 763.72508 L449.24621 766.56996 L440.61824 769.15358 L436.23572 770.34541" />
    <path d="M619.28001 609.44116 L617.33876 614.9975 L613.08503 625.96621 L608.34236 636.72928 L603.11799 647.27028 L600.32743 652.45238" />
    <path d="M545.5025 320.193 L548.47175 322.73024 L554.28412 327.91912 L559.92675 333.25697 L565.39776 338.7395 L570.69525 344.36242 L575.81733 350.12143 L580.76212 356.01224 L585.52773 362.03056 L590.11226 368.1721 L594.51384 374.43257 L598.73057 380.80766 L602.76056 387.2931 L606.60193 393.88458 L610.25279 400.57783 L613.71124 407.36853 L616.9754 414.25241 L620.04339 421.22516 L622.9133 428.28251 L625.58326 435.42015 L628.05138 442.63379 L630.31576 449.91914 L632.37452 457.27191 L634.22577 464.68781 L635.86762 472.16254 L637.29818 479.69182 L638.51557 487.27134 L639.5179 494.89682 L640.30327 502.56397 L640.86979 510.26848 L641.21559 518.00609 L641.33877 525.77247 L641.23744 533.56336 L641.102 537.46665" />
    <path d="M478.77852 782.55864 L474.78546 784.18473 L466.73684 787.24605 L458.60997 790.05217 L450.41092 792.60216 L442.14579 794.89514 L433.82064 796.93021 L425.44157 798.70644 L417.01466 800.22296 L408.54599 801.47885 L400.04165 802.47321 L391.50771 803.20514 L382.95026 803.67374 L374.37538 803.87811 L365.78916 803.81734 L357.19768 803.49053 L348.60702 802.89678 L344.3139 802.49952" />
    <path d="M104.65352 627.99674 L102.86263 623.17109 L99.55555 613.51431 L96.61077 603.85511 L94.02352 594.19936 L91.78902 584.55291 L89.90249 574.92164 L88.35917 565.3114 L87.15427 555.72806 L86.28302 546.17748 L85.74066 536.66553 L85.52239 527.19808 L85.62345 517.78097 L86.03907 508.42009 L86.76447 499.12129 L87.79487 489.89043 L89.12549 480.73339 L90.75158 471.65602 L92.66834 462.66418 L94.87101 453.76375 L97.3548 444.96059 L100.11496 436.26055 L103.14669 427.66951 L106.44523 419.19332 L110.0058 410.83786 L113.82363 402.60898 L117.89394 394.51255 L122.21196 386.55443 L126.77291 378.74049 L131.57202 371.07659 L136.60451 363.5686 L141.86561 356.22237 L147.35054 349.04377 L153.05453 342.03867 L158.97281 335.21293 L165.1006 328.57241 L171.43312 322.12298 L177.9656 315.8705 L184.69327 309.82084 L191.61135 303.97985 L198.71506 298.35341 L205.99963 292.94737 L213.4603 287.76761 L221.09227 282.81998 L228.89078 278.11034 L236.85105 273.64457 L244.96831 269.42853 L253.23779 265.46807 L261.6547 261.76907 L270.21428 258.33738 L278.91174 255.17888 L287.74232 252.29942 L296.70124 249.70487 L305.78372 247.40109 L314.985 245.39395 L324.30028 243.68931 L333.72481 242.29303 L343.25381 241.21099 L352.88249 240.44903 L362.6061 240.01303 L372.41984 239.90885 L382.31895 240.14235 L392.29866 240.7194 L402.35418 241.64586 L412.48074 242.9276 L417.56917 243.70353 L417.56917 243.70353 L422.60353 244.55828 L432.54235 246.50514 L442.30577 248.76272 L451.89109 251.32412 L461.29563 254.18243 L470.51671 257.33073 L479.55163 260.76212 L488.39772 264.46969 L497.05229 268.44654 L505.51265 272.68575 L513.77611 277.18042 L521.84 281.92363 L529.70162 286.90849 L537.3583 292.12808 L544.80734 297.5755 L552.04606 303.24383 L559.07178 309.12617 L565.8818 315.21561 L572.47345 321.50524 L578.84404 327.98816 L584.99089 334.65745 L590.9113 341.50621 L596.60259 348.52752 L602.06209 355.71449 L607.28709 363.0602 L612.27492 370.55775 L617.0229 378.20022 L621.52832 385.98071 L625.78852 393.89232 L629.80081 401.92812 L633.5625 410.08122 L637.0709 418.3447 L640.32333 426.71166 L643.3171 435.17519 L646.04953 443.72838 L648.51794 452.36433 L650.71963 461.07612 L652.65193 469.85685 L654.31214 478.6996 L655.69759 487.59748 L656.80558 496.54357 L657.63343 505.53096 L658.17846 514.55275 L658.43798 523.60203 L658.4093 532.67188 L658.08975 541.75541 L657.47663 550.8457 L656.56725 559.93585 L655.35895 569.01895 L653.84901 578.08808 L652.03478 587.13634 L649.91355 596.15683 L647.48264 605.14263 L644.73937 614.08684 L641.68105 622.98255 L638.30499 631.82284 L634.60852 640.60082 L630.58895 649.30957 L626.24358 657.94219 L621.56974 666.49176 L616.56473 674.95139 L611.22588 683.31415 L605.5505 691.57315 L599.53591 699.72148 L596.40056 703.75198" />
    <path d="M438.58474 239.25769 L443.37105 240.40785 L452.8165 242.91784 L462.09052 245.70239 L471.19084 248.75544 L480.1152 252.07096 L488.86133 255.64289 L497.42695 259.46518 L505.80982 263.53181 L514.00765 267.83671 L522.01819 272.37384 L529.83917 277.13716 L537.46833 282.12063 L544.90338 287.31819 L552.14208 292.7238 L559.18216 298.33142 L566.02134 304.13499 L572.65736 310.12848 L579.08797 316.30584 L585.31088 322.66103 L591.32383 329.18799 L597.12457 335.88069 L602.71082 342.73307 L608.08031 349.73909 L613.23078 356.89271 L618.15997 364.18788 L622.86561 371.61856 L627.34543 379.1787 L631.59716 386.86225 L635.61855 394.66316 L639.40732 402.57541 L642.9612 410.59293 L646.27794 418.70968 L649.35527 426.91962 L652.19092 435.2167 L654.78262 443.59487 L657.12811 452.0481 L659.22512 460.57033 L661.07138 469.15552 L662.66464 477.79762 L664.00262 486.4906 L665.08306 495.22839 L665.90369 504.00496 L666.46224 512.81427 L666.75646 521.65026 L666.78407 530.50689 L666.54281 539.37812 L666.03041 548.2579 L665.2446 557.14018 L664.18312 566.01892 L662.84371 574.88807 L661.2241 583.74159 L659.32202 592.57344 L657.1352 601.37756 L654.66138 610.14791 L651.8983 618.87845 L648.84368 627.56313 L645.49527 636.19591 L641.85079 644.77073 L637.90798 653.28156 L633.66457 661.72235 L629.1183 670.08705 L624.2669 678.36961 L619.10811 686.564 L613.63966 694.66417 L610.7886 698.67703" />
    <path d="M79.10776 448.93583 L80.54189 443.67787 L83.64998 433.32663 L87.07142 423.19672 L90.79846 413.29023 L94.82339 403.60926 L99.13849 394.15593 L103.73602 384.93233 L108.60827 375.94057 L113.7475 367.18275 L119.14599 358.66097 L124.79602 350.37734 L130.68985 342.33396 L136.81977 334.53293 L143.17804 326.97635 L149.75695 319.66633 L156.54877 312.60498 L163.54576 305.79439 L170.74021 299.23666 L178.12439 292.93391 L185.69058 286.88823 L193.43104 281.10172 L201.33805 275.5765 L209.4039 270.31465 L217.62084 265.3183 L225.98116 260.58953 L234.47713 256.13045 L243.10103 251.94317 L251.84512 248.02979 L260.70169 244.3924 L269.66301 241.03312 L278.72135 237.95405 L287.86899 235.15729 L297.09819 232.64494 L306.40124 230.41911 L315.77042 228.48189 L325.19798 226.8354 L334.67622 225.48173 L344.1974 224.42299 L353.7538 223.66129 L363.33768 223.19871 L372.94134 223.03738 L382.55703 223.17938 L392.17704 223.62683 L401.79364 224.38183 L411.39911 225.44647 L420.98571 226.82287 L430.54572 228.51312 L440.07143 230.51933 L449.55509 232.8436 L458.98899 235.48804 L468.3654 238.45474 L477.67659 241.74582 L486.91484 245.36337 L496.07243 249.3095 L505.14162 253.5863 L514.1147 258.19589 L522.98393 263.14037 L531.74159 268.42183 L540.37996 274.04239 L548.89131 280.00414 L557.26791 286.30919 L565.50204 292.95965 L573.58598 299.9576 L581.51199 307.30517 L585.41336 311.11071 L585.41336 311.11071 L589.24982 314.98168 L596.6602 322.84898 L603.72225 330.87699 L610.438 339.05795 L616.80949 347.38413 L622.83877 355.84777 L628.52788 364.44115 L633.87885 373.15652 L638.89373 381.98614 L643.57456 390.92226 L647.92338 399.95714 L651.94224 409.08304 L655.63317 418.29222 L658.99822 427.57694 L662.03943 436.92945 L664.75883 446.34201 L667.15848 455.80688 L669.24041 465.31632 L671.00667 474.86258 L672.45929 484.43793 L673.60032 494.03462 L674.43179 503.64491 L674.95576 513.26106 L675.17426 522.87532 L675.08933 532.47995 L674.70302 542.06722 L674.01737 551.62937 L673.03441 561.15867 L671.75619 570.64738 L670.18475 580.08774 L668.32214 589.47203 L666.17039 598.7925 L663.73154 608.0414 L661.00765 617.211 L658.00074 626.29355 L654.71286 635.2813 L651.14605 644.16653 L647.30235 652.94148 L643.18381 661.59842 L638.79247 670.1296 L634.13036 678.52727 L629.19954 686.78371 L624.00203 694.89116 L618.53989 702.84188 L612.81514 710.62813 L606.82985 718.24217 L600.58604 725.67626 L594.08576 732.92266 L587.33105 739.97361 L580.32395 746.82139 L573.0665 753.45825 L565.56075 759.87644 L557.80874 766.06823 L549.8125 772.02586 L541.57408 777.74161 L533.09552 783.20773 L524.37886 788.41647 L515.42614 793.3601 L506.23941 798.03087 L496.82071 802.42103 L487.17208 806.52286 L477.29555 810.3286 L467.19318 813.83051 L456.86699 817.02086 L451.62061 818.49677" />
    <path d="M597.21254 311.12137 L599.80098 313.86396 L604.85999 319.41981 L609.76179 325.06749 L614.50632 330.80408 L621.3281 339.56938 L629.87275 351.54065 L637.78717 363.81551 L645.07085 376.37079 L651.72326 389.18333 L657.74391 402.22996 L663.13228 415.48754 L667.88785 428.93288 L672.01012 442.54285 L675.49857 456.29426 L678.3527 470.16396 L680.57198 484.12879 L682.15592 498.16559 L683.10399 512.25119 L683.41569 526.36243 L683.09051 540.47616 L682.12792 554.5692 L680.52743 568.61841 L678.28852 582.60061 L675.41068 596.49264 L671.89339 610.27135 L667.73614 623.91357 L662.93843 637.39614 L657.49975 650.6959 L651.41957 663.78969 L644.69739 676.65434 L637.33269 689.26669 L629.32498 701.60359 L622.89689 710.66155 L618.41029 716.60206 L613.76265 722.46067 L608.9539 728.23449 L606.48909 731.0887" />
    <path d="M685.78028 588.09272 L684.61882 593.72707 L682.03232 604.83821 L679.10102 615.73702 L675.83292 626.42077 L672.23602 636.88672 L668.31832 647.13215 L664.08783 657.15433 L659.55253 666.95054 L654.72042 676.51803 L649.59952 685.85409 L644.19781 694.95598 L638.52329 703.82098 L632.58396 712.44635 L626.38783 720.82938 L619.94289 728.96732 L613.25714 736.85745 L606.33857 744.49704 L599.19519 751.88337 L591.835 759.0137 L584.266 765.88531 L576.49618 772.49547 L568.53354 778.84144 L560.38608 784.9205 L552.0618 790.72992 L543.56871 796.26697 L534.91479 801.52893 L526.10805 806.51306 L517.15648 811.21663 L508.0681 815.63692 L498.85088 819.7712 L489.51284 823.61674 L480.06197 827.17081 L470.50627 830.43068 L460.85374 833.39362 L451.11239 836.0569 L441.29019 838.4178 L431.39517 840.47359 L421.43531 842.22154 L411.41861 843.65891 L401.35308 844.78298 L391.24671 845.59102 L381.1075 846.08031 L370.94346 846.24811 L360.76257 846.09169 L350.57283 845.60833 L340.38226 844.7953 L330.19884 843.64987 L320.03058 842.1693 L309.88547 840.35088 L299.77151 838.19187 L289.6967 835.68954 L279.66904 832.84116 L269.69654 829.64402 L259.78718 826.09537 L249.94896 822.19248 L240.1899 817.93264 L230.51798 813.3131 L220.9412 808.33115 L211.46756 802.98405 L202.10507 797.26908 L192.86171 791.1835 L183.7455 784.72459 L174.76443 777.88962 L165.92649 770.67585 L161.56369 766.92607 L161.56369 766.92607 L159.60754 765.20168 L155.7378 761.70539 L153.82441 759.93366" />
    <path d="M54.41786 608.80095 L52.97992 603.07452 L50.41796 591.64982 L48.26939 580.26771 L46.52805 568.93427 L45.18775 557.65561 L44.24232 546.4378 L43.68558 535.28694 L43.51135 524.20911 L43.71345 513.21041 L44.2857 502.29691 L45.22193 491.47472 L46.51595 480.74991 L48.1616 470.12858 L50.15268 459.61681 L52.48303 449.22069 L55.14646 438.94631 L58.1368 428.79977 L61.44787 418.78714 L65.07348 408.91451 L69.00747 399.18798 L73.24366 389.61363 L77.77585 380.19755 L82.59789 370.94583 L87.70358 361.86456 L93.08676 352.95982 L98.74124 344.23771 L104.66084 335.70431 L110.83939 327.36571 L117.27071 319.228 L123.94861 311.29726 L130.86693 303.5796 L138.01948 296.08108 L145.40009 288.80781 L153.00258 281.76587 L160.82076 274.96134 L168.84847 268.40033 L177.07952 262.0889 L185.50773 256.03317 L194.12693 250.2392 L202.93094 244.7131 L211.91357 239.46094 L221.06866 234.48882 L230.39002 229.80283 L239.87148 225.40905 L249.50686 221.31357 L259.28997 217.52249 L269.21465 214.04188 L279.27471 210.87784 L289.46397 208.03645 L299.77626 205.52381 L310.2054 203.346 L320.74521 201.50911 L331.38951 200.01923 L342.13212 198.88245 L352.96687 198.10485 L363.88758 197.69253 L374.88806 197.65157 L385.96215 197.98806 L397.10366 198.70808 L408.30641 199.81774 L419.56423 201.32311 L430.87094 203.23028 L442.22036 205.54535 L453.60631 208.2744 L459.31105 209.79606 L459.31105 209.79606 L464.98925 211.41398 L476.16432 214.90761 L487.0958 218.73795 L497.78151 222.89663 L508.21927 227.37523 L518.40689 232.16536 L528.34219 237.25864 L538.02299 242.64666 L547.44709 248.32104 L556.61233 254.27337 L565.51651 260.49527 L574.15746 266.97833 L582.53298 273.71417 L590.6409 280.69438 L598.47902 287.91058 L606.04518 295.35437 L613.33718 303.01735 L620.35284 310.89114 L627.08997 318.96732 L633.5464 327.23752 L639.71994 335.69334 L645.6084 344.32638 L651.20961 353.12824 L656.52137 362.09054 L661.54151 371.20487 L666.26785 380.46285 L670.69819 389.85608 L674.83035 399.37616 L678.66216 409.0147 L682.19142 418.7633 L685.41596 428.61358 L688.33359 438.55713 L690.94212 448.58556 L693.23938 458.69048 L695.22318 468.86348 L696.89133 479.09619 L698.24166 489.3802 L699.27198 499.70711 L699.9801 510.06854 L700.36384 520.45608 L700.42102 530.86135 L700.14946 541.27595 L699.54697 551.69149 L698.61136 562.09956 L697.34046 572.49178 L695.73208 582.85975 L693.78404 593.19507 L691.49415 603.48936 L688.86023 613.73421 L685.88009 623.92124 L682.55156 634.04204 L678.87245 644.08823 L674.84058 654.0514 L670.45375 663.92317 L665.7098 673.69514 L660.60653 683.35891 L655.14176 692.90609 L649.31331 702.32828 L643.11899 711.6171 L636.55662 720.76414 L629.62403 729.76102 L622.31901 738.59933 L614.63939 747.27068 L606.583 755.76668 L602.41282 759.9463" />
  </g>
</svg>