<?xml version="1.0" standalone="no"?>
<!DOCTYPE svg PUBLIC "-//W3C//DTD SVG 1.1//EN" 
    "http://www.w3.org/Graphics/SVG/1.1/DTD/svg11.dtd">
<svg width="8.5in" height="11in"
    xmlns="http://www.w3.org/2000/svg" version="1.1" viewBox="0 0 765 990">
  <g fill="none" stroke="black" stroke-width="0.01181in">
    <path d="M45 45 L45 60.688" />
    <path d="M45 69.688 L45 77.60058" />
    <path d="M45 86.60058 L45 90.10782" />
    <path d="M45 99.10782 L45 125.67766" />
    <path d="M45 134.67766 L45 145.72054" />
    <path d="M45 154.72054 L45 177.19202" />
    <path d="M45 186.19202 L45 191.63288" />
    <path d="M45 200.63288 L45 211.7698" />
    <path d="M45 220.7698 L45 225.35642" />
    <path d="M45 234.35642 L45 246.98586" />
    <path d="M45 255.98586 L45 258.42626" />
    <path d="M45 267.42626 L45 290.39529" />
    <path d="M45 299.39529 L45 316.94675" />
    <path d="M45 325.94675 L45 348.89424" />
    <path d="M51.75 45 L51.75 72.09114" />
    <path d="M51.75 81.09114 L51.75 103.18304" />
    <path d="M51.75 112.18304 L51.75 113.07517" />
    <path d="M51.75 122.07517 L51.75 134.26259" />
    <path d="M51.75 143.26259 L51.75 143.84824" />
    <path d="M51.75 152.84824 L51.75 161.42782" />
    <path d="M51.75 170.42782 L51.75 197.87158" />
    <path d="M51.75 206.87158 L51.75 219.79787" />
    <path d="M51.75 228.79787 L51.75 236.36033" />
    <path d="M51.75 245.36033 L51.75 271.03026" />
    <path d="M51.75 280.03026 L51.75 281.72896" />
    <path d="M51.75 290.72896 L51.75 302.95802" />
    <path d="M51.75 311.95802 L51.75 337.87461" />
    <path d="M58.5 45 L58.5 64.82177" />
    <path d="M58.5 73.82177 L58.5 100.87676" />
    <path d="M58.5 109.87676 L58.5 115.68214" />
    <path d="M58.5 124.68214 L58.5 134.20152" />
    <path d="M58.5 143.20152 L58.5 165.39009" />
    <path d="M58.5 174.39009 L58.5 192.73022" />
    <path d="M58.5 201.73022 L58.5 230.98051" />
    <path d="M58.5 239.98051 L58.5 256.95408" />
    <path d="M58.5 265.95408 L58.5 280.02771" />
    <path d="M58.5 289.02771 L58.5 303.15355" />
    <path d="M58.5 312.15355 L58.5 330.28823" />
    <path d="M58.5 339.28823 L58.5 342.8989" />
    <path d="M65.25 45 L65.25 70.59431" />
    <path d="M65.25 79.59431 L65.25 86.97009" />
    <path d="M65.25 95.97009 L65.25 102.69984" />
    <path d="M65.25 111.69984 L65.25 127.49045" />
    <path d="M65.25 136.49045 L65.25 142.01627" />
    <path d="M65.25 151.01627 L65.25 157.30412" />
    <path d="M65.25 166.30412 L65.25 175.66058" />
    <path d="M65.25 184.66058 L65.25 191.17786" />
    <path d="M65.25 200.17786 L65.25 210.88836" />
    <path d="M65.25 219.88836 L65.25 234.29201" />
    <path d="M65.25 243.29201 L65.25 259.81178" />
    <path d="M65.25 268.81178 L65.25 271.53486" />
    <path d="M65.25 280.53486 L65.25 298.33822" />
    <path d="M65.25 307.33822 L65.25 328.43266" />
    <path d="M65.25 337.43266 L65.25 354.88708" />
    <path d="M72 45 L72 51.57559" />
    <path d="M72 60.57559 L72 68.21087" />
    <path d="M72 77.21087 L72 104.72079" />
    <path d="M72 113.72079 L72 128.69647" />
    <path d="M72 137.69647 L72 159.69967" />
    <path d="M72 168.69967 L72 194.38276" />
    <path d="M72 203.38276 L72 222.1725" />
    <path d="M72 231.1725 L72 246.10198" />
    <path d="M72 255.10198 L72 267.94593" />
    <path d="M72 276.94593 L72 293.83881" />
    <path d="M72 302.83881 L72 330.40949" />
    <path d="M72 339.40949 L72 364.78868" />
    <path d="M78.75 45 L78.75 70.57793" />
    <path d="M78.75 79.57793 L78.75 102.79569" />
    <path d="M78.75 111.79569 L78.75 120.24842" />
    <path d="M78.75 129.24842 L78.75 134.32179" />
    <path d="M78.75 143.32179 L78.75 158.85174" />
    <path d="M78.75 167.85174 L78.75 178.54393" />
    <path d="M78.75 187.54393 L78.75 214.38036" />
    <path d="M78.75 223.38036 L78.75 232.05343" />
    <path d="M78.75 241.05343 L78.75 241.20448" />
    <path d="M78.75 250.20448 L78.75 266.9116" />
    <path d="M78.75 275.9116 L78.75 292.4539" />
    <path d="M78.75 301.4539 L78.75 308.89345" />
    <path d="M78.75 317.89345 L78.75 334.35849" />
    <path d="M78.75 343.35849 L78.75 362.59325" />
    <path d="M85.5 45 L85.5 49.82425" />
    <path d="M85.5 58.82425 L85.5 67.37217" />
    <path d="M85.5 76.37217 L85.5 98.66919" />
    <path d="M85.5 107.66919 L85.5 135.35846" />
    <path d="M85.5 144.35846 L85.5 148.5566" />
    <path d="M85.5 157.5566 L85.5 172.16784" />
    <path d="M85.5 181.16784 L85.5 188.88493" />
    <path d="M85.5 197.88493 L85.5 198.7178" />
    <path d="M85.5 207.7178 L85.5 218.17657" />
    <path d="M85.5 227.17657 L85.5 253.1978" />
    <path d="M85.5 262.1978 L85.5 276.68644" />
    <path d="M85.5 285.68644 L85.5 310.35466" />
    <path d="M85.5 319.35466 L85.5 336.97145" />
    <path d="M92.25 45 L92.25 59.71431" />
    <path d="M92.25 68.71431 L92.25 79.52907" />
    <path d="M92.25 88.52907 L92.25 92.71155" />
    <path d="M92.25 101.71155 L92.25 106.82693" />
    <path d="M92.25 115.82693 L92.25 139.87564" />
    <path d="M92.25 148.87564 L92.25 169.7883" />
    <path d="M92.25 178.7883 L92.25 203.93714" />
    <path d="M92.25 212.93714 L92.25 230.41386" />
    <path d="M92.25 239.41386 L92.25 261.44676" />
    <path d="M92.25 270.44676 L92.25 294.86779" />
    <path d="M92.25 303.86779 L92.25 331.92589" />
    <path d="M92.25 340.92589 L92.25 343.6355" />
    <path d="M99 45 L99 59.55848" />
    <path d="M99 68.55848 L99 86.96078" />
    <path d="M99 95.96078 L99 121.5926" />
    <path d="M99 130.5926 L99 153.2548" />
    <path d="M99 162.2548 L99 178.80223" />
    <path d="M99 187.80223 L99 214.07495" />
    <path d="M99 223.07495 L99 232.46209" />
    <path d="M99 241.46209 L99 270.18187" />
    <path d="M99 279.18187 L99 306.88278" />
    <path d="M99 315.88278 L99 344.0605" />
    <path d="M105.75 45 L105.75 70.58744" />
    <path d="M105.75 79.58744 L105.75 105.05326" />
    <path d="M105.75 114.05326 L105.75 129.74135" />
    <path d="M105.75 138.74135 L105.75 150.85281" />
    <path d="M105.75 159.85281 L105.75 180.74348" />
    <path d="M105.75 189.74348 L105.75 211.10933" />
    <path d="M105.75 220.10933 L105.75 234.1785" />
    <path d="M105.75 243.1785 L105.75 267.55398" />
    <path d="M105.75 276.55398 L105.75 294.44567" />
    <path d="M105.75 303.44567 L105.75 318.83958" />
    <path d="M105.75 327.83958 L105.75 337.15535" />
    <path d="M112.5 45 L112.5 59.9756" />
    <path d="M112.5 68.9756 L112.5 92.75715" />
    <path d="M112.5 101.75715 L112.5 122.37457" />
    <path d="M112.5 131.37457 L112.5 132.36406" />
    <path d="M112.5 141.36406 L112.5 151.58107" />
    <path d="M112.5 160.58107 L112.5 181.40488" />
    <path d="M112.5 190.40488 L112.5 216.72875" />
    <path d="M112.5 225.72875 L112.5 243.86015" />
    <path d="M112.5 252.86015 L112.5 256.34993" />
    <path d="M112.5 265.34993 L112.5 292.32345" />
    <path d="M112.5 301.32345 L112.5 327.03872" />
    <path d="M112.5 336.03872 L112.5 340.30368" />
    <path d="M119.25 45 L119.25 73.5476" />
    <path d="M119.25 82.5476 L119.25 109.93099" />
    <path d="M119.25 118.93099 L119.25 137.16031" />
    <path d="M119.25 146.16031 L119.25 157.04285" />
    <path d="M119.25 166.04285 L119.25 189.21517" />
    <path d="M119.25 198.21517 L119.25 228.05095" />
    <path d="M119.25 237.05095 L119.25 250.35272" />
    <path d="M119.25 259.35272 L119.25 289.03332" />
    <path d="M119.25 298.03332 L119.25 298.26511" />
    <path d="M119.25 307.26511 L119.25 335.6622" />
    <path d="M119.25 344.6622 L119.25 348.88845" />
    <path d="M126 45 L126 45.98033" />
    <path d="M126 54.98033 L126 71.6467" />
    <path d="M126 80.6467 L126 90.77534" />
    <path d="M126 99.77534 L126 117.47068" />
    <path d="M126 126.47068 L126 135.20078" />
    <path d="M126 144.20078 L126 163.29113" />
    <path d="M126 172.29113 L126 177.41289" />
    <path d="M126 186.41289 L126 208.39155" />
    <path d="M126 217.39155 L126 222.08935" />
    <path d="M126 231.08935 L126 252.64792" />
    <path d="M126 261.64792 L126 283.83168" />
    <path d="M126 292.83168 L126 306.54689" />
    <path d="M126 315.54689 L126 317.10262" />
    <path d="M126 326.10262 L126 346.28193" />
    <path d="M132.75 45 L132.75 52.50741" />
    <path d="M132.75 61.50741 L132.75 88.88413" />
    <path d="M132.75 97.88413 L132.75 106.58288" />
    <path d="M132.75 115.58288 L132.75 132.5398" />
    <path d="M132.75 141.5398 L132.75 166.18426" />
    <path d="M132.75 175.18426 L132.75 198.67613" />
    <path d="M132.75 207.67613 L132.75 237.0207" />
    <path d="M132.75 246.0207 L132.75 273.14818" />
    <path d="M132.75 282.14818 L132.75 291.95471" />
    <path d="M132.75 300.95471 L132.75 327.92804" />
    <path d="M132.75 336.92804 L132.75 363.04465" />
    <path d="M139.5 45 L139.5 48.56413" />
    <path d="M139.5 57.56413 L139.5 66.34534" />
    <path d="M139.5 75.34534 L139.5 97.46012" />
    <path d="M139.5 106.46012 L139.5 122.30532" />
    <path d="M139.5 131.30532 L139.5 149.26232" />
    <path d="M139.5 158.26232 L139.5 181.83587" />
    <path d="M139.5 190.83587 L139.5 195.1533" />
    <path d="M139.5 204.1533 L139.5 208.14709" />
    <path d="M139.5 217.14709 L139.5 233.17193" />
    <path d="M139.5 242.17193 L139.5 262.35822" />
    <path d="M139.5 271.35822 L139.5 294.03189" />
    <path d="M139.5 303.03189 L139.5 317.38611" />
    <path d="M139.5 326.38611 L139.5 339.80018" />
    <path d="M146.25 45 L146.25 56.573" />
    <path d="M146.25 65.573 L146.25 86.82149" />
    <path d="M146.25 95.82149 L146.25 122.337" />
    <path d="M146.25 131.337 L146.25 140.55794" />
    <path d="M146.25 149.55794 L146.25 150.0743" />
    <path d="M146.25 159.0743 L146.25 172.52463" />
    <path d="M146.25 181.52463 L146.25 192.47438" />
    <path d="M146.25 201.47438 L146.25 224.3187" />
    <path d="M146.25 233.3187 L146.25 256.66489" />
    <path d="M146.25 265.66489 L146.25 295.26041" />
    <path d="M146.25 304.26041 L146.25 331.76193" />
    <path d="M146.25 340.76193 L146.25 362.55317" />
    <path d="M153 45 L153 71.73835" />
    <path d="M153 80.73835 L153 91.62494" />
    <path d="M153 100.62494 L153 121.2662" />
    <path d="M153 130.2662 L153 155.10437" />
    <path d="M153 164.10437 L153 187.51845" />
    <path d="M153 196.51845 L153 218.70855" />
    <path d="M153 227.70855 L153 239.11676" />
    <path d="M153 248.11676 L153 254.1143" />
    <path d="M153 263.1143 L153 276.48281" />
    <path d="M153 285.48281 L153 300.03694" />
    <path d="M153 309.03694 L153 319.86679" />
    <path d="M153 328.86679 L153 358.83552" />
    <path d="M159.75 45 L159.75 70.55095" />
    <path d="M159.75 79.55095 L159.75 104.60678" />
    <path d="M159.75 113.60678 L159.75 123.0549" />
    <path d="M159.75 132.0549 L159.75 150.93846" />
    <path d="M159.75 159.93846 L159.75 175.87127" />
    <path d="M159.75 184.87127 L159.75 187.91714" />
    <path d="M159.75 196.91714 L159.75 198.99723" />
    <path d="M159.75 207.99723 L159.75 229.75203" />
    <path d="M159.75 238.75203 L159.75 245.86682" />
    <path d="M159.75 254.86682 L159.75 265.55316" />
    <path d="M159.75 274.55316 L159.75 287.71476" />
    <path d="M159.75 296.71476 L159.75 317.10763" />
    <path d="M159.75 326.10763 L159.75 351.57473" />
    <path d="M166.5 45 L166.5 62.27948" />
    <path d="M166.5 71.27948 L166.5 92.05416" />
    <path d="M166.5 101.05416 L166.5 126.30738" />
    <path d="M166.5 135.30738 L166.5 138.80115" />
    <path d="M166.5 147.80115 L166.5 162.79292" />
    <path d="M166.5 171.79292 L166.5 199.9487" />
    <path d="M166.5 208.9487 L166.5 233.12662" />
    <path d="M166.5 242.12662 L166.5 247.46124" />
    <path d="M166.5 256.46124 L166.5 281.29131" />
    <path d="M166.5 290.29131 L166.5 305.2546" />
    <path d="M166.5 314.2546 L166.5 326.39008" />
    <path d="M166.5 335.39008 L166.5 354.86288" />
    <path d="M173.25 45 L173.25 70.9244" />
    <path d="M173.25 79.9244 L173.25 107.61565" />
    <path d="M173.25 116.61565 L173.25 119.47807" />
    <path d="M173.25 128.47807 L173.25 135.98577" />
    <path d="M173.25 144.98577 L173.25 153.48381" />
    <path d="M173.25 162.48381 L173.25 182.34752" />
    <path d="M173.25 191.34752 L173.25 195.43842" />
    <path d="M173.25 204.43842 L173.25 229.31873" />
    <path d="M173.25 238.31873 L173.25 253.753" />
    <path d="M173.25 262.753 L173.25 291.86803" />
    <path d="M173.25 300.86803 L173.25 328.08213" />
    <path d="M173.25 337.08213 L173.25 362.65376" />
    <path d="M180 45 L180 72.51447" />
    <path d="M180 81.51447 L180 88.1784" />
    <path d="M180 97.1784 L180 118.63289" />
    <path d="M180 127.63289 L180 141.28406" />
    <path d="M180 150.28406 L180 158.77235" />
    <path d="M180 167.77235 L180 189.31165" />
    <path d="M180 198.31165 L180 201.67944" />
    <path d="M180 210.67944 L180 218.92947" />
    <path d="M180 227.92947 L180 238.48288" />
    <path d="M180 247.48288 L180 270.94849" />
    <path d="M180 279.94849 L180 308.57811" />
    <path d="M180 317.57811 L180 337.59461" />
  </g>
</svg>