<?xml version="1.0" standalone="no"?>
<!DOCTYPE svg PUBLIC "-//W3C//DTD SVG 1.1//EN" 
    "http://www.w3.org/Graphics/SVG/1.1/DTD/svg11.dtd">
<svg width="2480px" height="3508px"
    xmlns="http://www.w3.org/2000/svg" version="1.1" viewBox="0 0 2480 3508">
  <g fill="none" stroke="black" stroke-width="1.06299px">
    <path d="M620 1134 L1860 1134" />
    <path d="M1860 1134 L1860 2374" />
    <path d="M1860 2374 L620 2374" />
    <path d="M620 2374 L620 1134" />
    <path d="M626 1140 L1861.3346374035311 1145.3989251055973" />
    <path d="M1856 1140 L1850.6009987405312 2375.352090474528" />
    <path d="M1856 2370 L620.6478333716005 2364.618451811528" />
    <path d="M626 2370 L631.3814720346005 1134.6652864425973" />
    <path d="M632 1146 L1862.5178525495799 1156.7734740845317" />
    <path d="M1852 1146 L1841.225916696094 2376.5876621753287" />
    <path d="M1852 2366 L621.4117286052966 2355.295726321843" />
    <path d="M632 2366 L642.7036644587824 1135.4815382310458" />
    <path d="M638 1152 L1863.5501764664784 1168.1218749359014" />
    <path d="M1848 1152 L1831.876069013952 2377.7072381563257" />
    <path d="M1848 2362 L622.2907057935276 2346.033130703799" />
    <path d="M638 2362 L653.9648132460542 1136.4477674833747" />
    <path d="M644 1158 L1864.4321595542244 1179.4423631049294" />
    <path d="M1844 1158 L1822.5527635112232 2378.7113555278447" />
    <path d="M1844 2358 L623.2837710883083 2336.8319594848435" />
    <path d="M644 2358 L665.1631671313095 1137.5629670619282" />
    <path d="M650 1164 L1865.164371494663 1190.7331816859055" />
    <path d="M1840 1164 L1813.2573005299132 2379.6005653683164" />
    <path d="M1840 2354 L624.3899168475023 2327.6934944035665" />
    <path d="M650 2354 L676.2969878122522 1138.8261107211556" />
    <path d="M656 1170 L1865.7474011596053 1201.9925816241234" />
    <path d="M1836 1170 L1803.9909727929316 2380.3754326345206" />
    <path d="M1836 2350 L625.6081217825343 2318.619004267847" />
    <path d="M656 2350 L687.3645501492081 1140.2361532574496" />
    <path d="M662 1176 L1866.1818565168924 1213.218821916796" />
    <path d="M1832 1176 L1794.7550652611098 2381.0365360703804" />
    <path d="M1832 2346 L626.9373511075256 2309.609744814598" />
    <path d="M662 2346 L698.3641423633081 1141.7920306610135" />
    <path d="M668 1182 L1866.4683645344162 1224.4101698129261" />
    <path d="M1828 1182 L1785.550854991231 2381.584468114322" />
    <path d="M1828 2342 L628.376556689835 2300.666958571137" />
    <path d="M668 2342 L709.2940662330203 1143.492660269741" />
    <path d="M674 1188 L1866.607571082107 1235.564901012111" />
    <path d="M1824 1188 L1776.3796109950854 2382.019834805208" />
    <path d="M1824 2338 L629.9246772019881 2291.7918747181866" />
    <path d="M674 2338 L720.1526372890098 1145.3369409250893" />
    <path d="M680 1194 L1866.6001408319012 1246.681299862264" />
    <path d="M1820 1194 L1767.2425940995709 2382.3432556868543" />
    <path d="M1820 2334 L631.5806382749807 2282.985708954524" />
    <path d="M680 2334 L730.938185007311 1147.3237531299337" />
    <path d="M686 1200 L1866.446757155699 1257.7576595562318" />
    <path d="M1816 1200 L1758.1410568078459 2382.555363711144" />
    <path d="M1816 2330 L633.343352652934 2274.249663363291" />
    <path d="M686 2330 L741.649053000787 1149.4519592083789" />
    <path d="M692 1206 L1866.1481220213263 1268.792282327284" />
    <path d="M1812 1206 L1749.0762431615547 2382.6568051397503" />
    <path d="M1812 2326 L635.2117203490884 2265.5849262799784" />
    <path d="M692 2326 L752.2835992088603 1151.7204034675121" />
    <path d="M698 1212 L1865.704955886507 1279.7834796434606" />
    <path d="M1808 1212 L1740.0493886041306 2382.648239444473" />
    <path d="M1808 2322 L637.1846288031186 2256.9926721620964" />
    <path d="M698 2322 L762.8401960854951 1154.1279123610843" />
    <path d="M704 1218 L1865.1179975908647 1290.7295724007545" />
    <path d="M1804 1218 L1731.0617198452023 2382.5303392062087" />
    <path d="M1804 2318 L639.2609530397482 2248.4740614605466" />
    <path d="M704 2318 L773.3172307854104 1156.6732946550924" />
    <path d="M710 1224 L1864.3880042459612 1301.6288911151094" />
    <path d="M1800 1224 L1722.114454726105 2382.303790012563" />
    <path d="M1800 2314 L641.4395558286517 2240.0302404927065" />
    <path d="M710 2314 L783.7131053485078 1159.3553415952533" />
    <path d="M716 1230 L1863.5157511233874 1312.4797761132136" />
    <path d="M1796 1230 L1713.2088020865167 2381.9692903541095" />
    <path d="M1796 2310 L643.7192878456208 2231.6623413172388" />
    <path d="M716 2310 L794.0262368824915 1162.1728270763429" />
    <path d="M722 1236 L1862.5020315409165 1323.2805777220722" />
    <path d="M1792 1236 L1704.345961632233 2381.5275515193234" />
    <path d="M1792 2306 L646.0989878349819 2223.37148161064" />
    <path d="M722 2306 L804.2550577436654 1165.1245078133888" />
    <path d="M728 1242 L1861.3476567467337 1334.029656457336" />
    <path d="M1788 1242 L1695.527123804089 2380.979297488182" />
    <path d="M1788 2302 L648.577482773243 2215.1587645455375" />
    <path d="M728 2302 L814.3980157158876 1168.2091235146913" />
    <path d="M734 1248 L1860.0534558017569 1344.7253832103695" />
    <path d="M1784 1248 L1686.7534696480452 2380.3252648244625" />
    <path d="M1784 2298 L651.1535880339522 2207.025278670751" />
    <path d="M734 2298 L824.4535741876638 1171.4253970566579" />
    <path d="M740 1254 L1858.6202754600574 1355.3661394340384" />
    <path d="M1780 1254 L1678.0261706864499 2379.566202566735" />
    <path d="M1780 2294 L653.8261075537537 2198.972097793127" />
    <path d="M740 2294 L834.4202123273612 1174.7720346604308" />
    <path d="M746 1260 L1857.0489800474006 1365.9503173271974" />
    <path d="M1776 1260 L1669.3463887904886 2378.7028721180704" />
    <path d="M1776 2290 L656.5938339996154 2191.000280861159" />
    <path d="M746 2290 L844.2964252565273 1178.2477260702856" />
    <path d="M752 1266 L1855.340451337911 1376.4763200178618" />
    <path d="M1772 1266 L1660.7152760538354 2377.736047134479" />
    <path d="M1772 2286 L659.4555489372182 2183.1108718504033" />
    <path d="M752 2286 L854.0807242212938 1181.851144733786" />
    <path d="M758 1272 L1853.495588428887 1386.9425617450402" />
    <path d="M1768 1272 L1652.133974667518 2376.666513412078" />
    <path d="M1768 2282 L662.41002300048 2175.304899650709" />
    <path d="M758 2282 L863.7716367618492 1185.5809479836712" />
    <path d="M764 1278 L1851.5153076137676 1397.3474680392144" />
    <path d="M1764 1278 L1643.6036167960083 2375.49506877302" />
    <path d="M1764 2278 L665.4560160622026 2167.583377955261" />
    <path d="M764 2278 L873.3677068799619 1189.435777221455" />
    <path d="M770 1284 L1849.4005422532737 1407.689475901445" />
    <path d="M1760 1284 L1635.125324454552 2374.2225229501787" />
    <path d="M1760 2274 L668.5922774058179 2159.947305151457" />
    <path d="M770 2274 L882.8674952045396 1193.4142581027231" />
    <path d="M776 1290 L1847.1522426447348 1417.967033981085" />
    <path d="M1756 1290 L1626.700209387747 2372.849697470616" />
    <path d="M1756 2270 L671.8175458982165 2152.397664213628" />
    <path d="M776 2270 L892.2695791552042 1197.5150007240975" />
    <path d="M782 1296 L1844.7713758896152 1428.1786027520877" />
    <path d="M1752 1296 L1618.3293729493869 2371.377425537834" />
    <path d="M1752 2266 L675.1305501636406 2144.935422597606" />
    <path d="M782 2266 L901.5725531038688 1201.7365998118594" />
    <path d="M788 1302 L1842.258925759256 1438.322654687881" />
    <path d="M1748 1302 L1610.0139059835751 2369.8065519128377" />
    <path d="M1748 2262 L678.5300087586184 2137.5615321371565" />
    <path d="M788 2262 L910.7750285342994 1206.0776349121998" />
    <path d="M794 1308 L1839.6158925588472 1448.3976744348024" />
    <path d="M1744 1308 L1601.754888707128 2368.137932794005" />
    <path d="M1744 2258 L682.0146303479255 2130.2769289422854" />
    <path d="M794 2258 L919.8756341996448 1210.536670583083" />
    <path d="M800 1314 L1836.8432929896433 1458.4021589840704" />
    <path d="M1740 1314 L1593.553390593274 2366.3724356957946" />
    <path d="M1740 2254 L685.5831138815496 2123.082533299425" />
    <path d="M800 2254 L928.8730162779191 1215.1122565877008" />
    <path d="M806 1320 L1833.9421600094406 1468.334617842273" />
    <path d="M1736 1320 L1585.4104702566615 2364.5109393262924" />
    <path d="M1736 2250 L689.2341487726422 2115.9792495735137" />
    <path d="M806 2250 L937.765838525421 1219.8029280894941" />
    <path d="M812 1326 L1830.9135426913285 1478.193573200363" />
    <path d="M1732 1326 L1577.3271753396893 2362.5543334636163" />
    <path d="M1732 2246 L692.966415076436 2108.967966111977" />
    <path d="M812 2246 L946.5527824280751 1224.6072058487239" />
    <path d="M818 1332 L1827.7585060807337 1487.9775601011368" />
    <path d="M1728 1332 L1569.3045424001639 2360.503518831192" />
    <path d="M1728 2242 L696.7785836701083 2102.049555150623" />
    <path d="M818 2242 L955.2325473506779 1229.5235964205672" />
    <path d="M824 1338 L1824.4781310507676 1497.6851266051817" />
    <path d="M1724 1338 L1561.3435968003046 2358.359406971914" />
    <path d="M1724 2238 L700.6693164335727 2095.2248727214505" />
    <path d="M824 2238 L963.8038506840358 1234.550592354719" />
    <path d="M830 1344 L1821.073514155901 1507.3148339552781" />
    <path d="M1720 1344 L1553.4453525970978 2356.1229201212" />
    <path d="M1720 2234 L704.6372664311759 2088.494758562397" />
    <path d="M830 2234 L972.2654279899789 1239.686672396475" />
    <path d="M836 1350 L1817.5457674839718 1516.865256739233" />
    <path d="M1716 1350 L1545.610812434018 2353.794991078968" />
    <path d="M1716 2230 L708.6810780942831 2081.8600360290143" />
    <path d="M836 2230 L980.6160331442368 1244.9303016892793" />
    <path d="M842 1356 L1813.8960185065528 1526.334983051136" />
    <path d="M1712 1356 L1537.8409674341226 2351.3765630805296" />
    <path d="M1712 2226 L712.7993874047291 2075.3215120080995" />
    <path d="M842 2226 L988.8544384771594 1250.279931978706" />
    <path d="M848 1362 L1810.1254099276857 1535.7226146510172" />
    <path d="M1708 1362 L1530.136797094531 2348.8685896664297" />
    <path d="M1708 2222 L716.9908220791185 2068.8799768332747" />
    <path d="M848 2222 L996.9794349122733 1255.7340018178625" />
    <path d="M854 1368 L1806.2350995310062 1545.026767122889" />
    <path d="M1704 1368 L1522.499269182301 2346.2720345512407" />
    <path d="M1704 2218 L721.2540017539494 2062.5362042025354" />
    <path d="M854 2218 L1004.9898321026546 1261.2909367741836" />
    <path d="M860 1374 L1802.226260025272 1554.2460700311624" />
    <path d="M1700 1374 L1514.9293396317103 2343.5878714913256" />
    <path d="M1700 2214 L725.5875381715472 2056.290951097764" />
    <path d="M860 2214 L1012.8844585651088 1266.9491496376006" />
    <path d="M866 1380 L1798.1000788883102 1563.3791670754165" />
    <path d="M1696 1380 L1507.4279524429521 2340.8170841515866" />
    <path d="M1696 2210 L729.9900353667822 2050.1449577062285" />
    <path d="M866 2210 L1020.6621618121401 1272.7070406300586" />
    <path d="M872 1386 L1793.8577582094058 1572.4247162435054" />
    <path d="M1692 1386 L1499.9960395822595 2337.960665971211" />
    <path d="M1692 2206 L734.460089854554 2044.0989473440645" />
    <path d="M872 2206 L1028.3218084817001 1278.562997616359" />
    <path d="M878 1392 L1789.5005145301427 1581.3813899629922" />
    <path d="M1688 1392 L1492.6345208834618 2335.019620028432" />
    <path d="M1688 2202 L738.9962908180219 2038.1536263817513" />
    <path d="M878 2202 L1035.8622844647027 1284.5153963163116" />
    <path d="M884 1398 L1785.0295786837182 1590.2478752508887" />
    <path d="M1684 1398 L1485.3443039509887 2331.9949589043185" />
    <path d="M1684 2198 L743.5972202975588 2032.309684171589" />
    <path d="M884 2198 L1043.2824950302884 1290.562600518159" />
  </g>
</svg>