<?xml version="1.0" standalone="no"?>
<!DOCTYPE svg PUBLIC "-//W3C//DTD SVG 1.1//EN" 
    "http://www.w3.org/Graphics/SVG/1.1/DTD/svg11.dtd">
<svg width="21cm" height="21cm"
    xmlns="http://www.w3.org/2000/svg" version="1.1" viewBox="0 0 744.09449 744.09449">
  <g fill="none" stroke="black" stroke-width="0.03cm">
    <path d="M33.33127 50.15057 L59.00081 31.22885" />
    <path d="M59.00081 31.22885 L77.92253 56.8984" />
    <path d="M77.92253 56.8984 L52.25298 75.82012" />
    <path d="M52.25298 75.82012 L33.33127 50.15057" />
    <path d="M38.87779 74.50872 L70.76678 74.28613" />
    <path d="M70.76678 74.28613 L70.98937 106.17512" />
    <path d="M70.98937 106.17512 L39.10039 106.39771" />
    <path d="M39.10039 106.39771 L38.87779 74.50872" />
    <path d="M49.8742 104.24121 L75.80539 122.80274" />
    <path d="M75.80539 122.80274 L57.24386 148.73393" />
    <path d="M57.24386 148.73393 L31.31267 130.17239" />
    <path d="M31.31267 130.17239 L49.8742 104.24121" />
    <path d="M62.12137 141.52486 L72.19259 171.78255" />
    <path d="M72.19259 171.78255 L41.9349 181.85377" />
    <path d="M41.9349 181.85377 L31.86368 151.59608" />
    <path d="M31.86368 151.59608 L62.12137 141.52486" />
    <path d="M70.94255 185.65302 L61.30796 216.05256" />
    <path d="M61.30796 216.05256 L30.90843 206.41797" />
    <path d="M30.90843 206.41797 L40.54301 176.01844" />
    <path d="M40.54301 176.01844 L70.94255 185.65302" />
    <path d="M72.96925 233.30535 L47.30796 252.23826" />
    <path d="M47.30796 252.23826 L28.37505 226.57697" />
    <path d="M28.37505 226.57697 L54.03634 207.64406" />
    <path d="M54.03634 207.64406 L72.96925 233.30535" />
    <path d="M67.42756 279.81576 L35.53867 280.05226" />
    <path d="M35.53867 280.05226 L35.30217 248.16337" />
    <path d="M35.30217 248.16337 L67.19105 247.92687" />
    <path d="M67.19105 247.92687 L67.42756 279.81576" />
    <path d="M56.43364 320.95421 L30.49435 302.404" />
    <path d="M30.49435 302.404 L49.04457 276.46471" />
    <path d="M49.04457 276.46471 L74.98385 295.01493" />
    <path d="M74.98385 295.01493 L56.43364 320.95421" />
    <path d="M44.18566 354.54204 L34.10125 324.28875" />
    <path d="M34.10125 324.28875 L64.35454 314.20434" />
    <path d="M64.35454 314.20434 L74.43895 344.45763" />
    <path d="M74.43895 344.45763 L44.18566 354.54204" />
    <path d="M35.36069 381.28387 L44.98201 350.88014" />
    <path d="M44.98201 350.88014 L75.38575 360.50146" />
    <path d="M75.38575 360.50146 L65.76443 390.90519" />
    <path d="M65.76443 390.90519 L35.36069 381.28387" />
    <path d="M33.32866 404.49857 L58.98168 385.55447" />
    <path d="M58.98168 385.55447 L77.92579 411.20749" />
    <path d="M77.92579 411.20749 L52.27276 430.1516" />
    <path d="M52.27276 430.1516 L33.32866 404.49857" />
    <path d="M38.86552 428.85189 L70.7543 428.60147" />
    <path d="M70.7543 428.60147 L71.00472 460.49025" />
    <path d="M71.00472 460.49025 L39.11593 460.74067" />
    <path d="M39.11593 460.74067 L38.86552 428.85189" />
    <path d="M49.85695 458.57478 L75.80433 477.11368" />
    <path d="M75.80433 477.11368 L57.26543 503.06105" />
    <path d="M57.26543 503.06105 L31.31805 484.52215" />
    <path d="M31.31805 484.52215 L49.85695 458.57478" />
    <path d="M62.10573 495.84775 L72.20334 526.09664" />
    <path d="M72.20334 526.09664 L41.95445 536.19425" />
    <path d="M41.95445 536.19425 L31.85684 505.94536" />
    <path d="M31.85684 505.94536 L62.10573 495.84775" />
    <path d="M70.93449 539.96821 L61.32643 570.37614" />
    <path d="M61.32643 570.37614 L30.9185 560.76808" />
    <path d="M30.9185 560.76808 L40.52656 530.36015" />
    <path d="M40.52656 530.36015 L70.93449 539.96821" />
    <path d="M72.97185 587.61876 L47.32709 606.57406" />
    <path d="M47.32709 606.57406 L28.3718 580.9293" />
    <path d="M28.3718 580.9293 L54.01656 561.974" />
    <path d="M54.01656 561.974 L72.97185 587.61876" />
    <path d="M67.43983 634.134 L35.55116 634.39833" />
    <path d="M35.55116 634.39833 L35.28683 602.50966" />
    <path d="M35.28683 602.50966 L67.1755 602.24533" />
    <path d="M67.1755 602.24533 L67.43983 634.134" />
    <path d="M56.45089 675.28205 L30.49543 656.75447" />
    <path d="M30.49543 656.75447 L49.02301 630.79901" />
    <path d="M49.02301 630.79901 L74.97847 649.32659" />
    <path d="M74.97847 649.32659 L56.45089 675.28205" />
    <path d="M44.20131 708.88057 L34.0905 678.63609" />
    <path d="M34.0905 678.63609 L64.33498 668.52528" />
    <path d="M64.33498 668.52528 L74.44579 698.76976" />
    <path d="M74.44579 698.76976 L44.20131 708.88057" />
    <path d="M74.31086 39.07565 L106.19985 38.85306" />
    <path d="M106.19985 38.85306 L106.42244 70.74205" />
    <path d="M106.42244 70.74205 L74.53346 70.96464" />
    <path d="M74.53346 70.96464 L74.31086 39.07565" />
    <path d="M85.30727 68.80813 L111.23846 87.36967" />
    <path d="M111.23846 87.36967 L92.67693 113.30086" />
    <path d="M92.67693 113.30086 L66.74574 94.73932" />
    <path d="M66.74574 94.73932 L85.30727 68.80813" />
    <path d="M97.55444 106.09179 L107.62566 136.34948" />
    <path d="M107.62566 136.34948 L77.36797 146.42069" />
    <path d="M77.36797 146.42069 L67.29675 116.16301" />
    <path d="M67.29675 116.16301 L97.55444 106.09179" />
    <path d="M106.37562 150.21995 L96.74104 180.61949" />
    <path d="M96.74104 180.61949 L66.3415 170.9849" />
    <path d="M66.3415 170.9849 L75.97608 140.58537" />
    <path d="M75.97608 140.58537 L106.37562 150.21995" />
    <path d="M108.40232 197.87228 L82.74103 216.80519" />
    <path d="M82.74103 216.80519 L63.80812 191.1439" />
    <path d="M63.80812 191.1439 L89.46941 172.21099" />
    <path d="M89.46941 172.21099 L108.40232 197.87228" />
    <path d="M102.86063 244.38269 L70.97174 244.61919" />
    <path d="M70.97174 244.61919 L70.73524 212.7303" />
    <path d="M70.73524 212.7303 L102.62412 212.4938" />
    <path d="M102.62412 212.4938 L102.86063 244.38269" />
    <path d="M91.86671 285.52114 L65.92742 266.97093" />
    <path d="M65.92742 266.97093 L84.47764 241.03164" />
    <path d="M84.47764 241.03164 L110.41692 259.58186" />
    <path d="M110.41692 259.58186 L91.86671 285.52114" />
    <path d="M79.61873 319.10897 L69.53432 288.85568" />
    <path d="M69.53432 288.85568 L99.78761 278.77127" />
    <path d="M99.78761 278.77127 L109.87202 309.02456" />
    <path d="M109.87202 309.02456 L79.61873 319.10897" />
    <path d="M70.79376 345.8508 L80.41508 315.44707" />
    <path d="M80.41508 315.44707 L110.81882 325.06839" />
    <path d="M110.81882 325.06839 L101.1975 355.47212" />
    <path d="M101.1975 355.47212 L70.79376 345.8508" />
    <path d="M68.76173 369.0655 L94.41476 350.12139" />
    <path d="M94.41476 350.12139 L113.35886 375.77442" />
    <path d="M113.35886 375.77442 L87.70584 394.71853" />
    <path d="M87.70584 394.71853 L68.76173 369.0655" />
    <path d="M74.29859 393.41882 L106.18737 393.1684" />
    <path d="M106.18737 393.1684 L106.43779 425.05718" />
    <path d="M106.43779 425.05718 L74.54901 425.3076" />
    <path d="M74.54901 425.3076 L74.29859 393.41882" />
    <path d="M85.29002 423.14171 L111.2374 441.68061" />
    <path d="M111.2374 441.68061 L92.6985 467.62798" />
    <path d="M92.6985 467.62798 L66.75112 449.08908" />
    <path d="M66.75112 449.08908 L85.29002 423.14171" />
    <path d="M97.5388 460.41468 L107.63641 490.66357" />
    <path d="M107.63641 490.66357 L77.38752 500.76118" />
    <path d="M77.38752 500.76118 L67.28991 470.51229" />
    <path d="M67.28991 470.51229 L97.5388 460.41468" />
    <path d="M106.36756 504.53514 L96.7595 534.94307" />
    <path d="M96.7595 534.94307 L66.35157 525.33501" />
    <path d="M66.35157 525.33501 L75.95963 494.92708" />
    <path d="M75.95963 494.92708 L106.36756 504.53514" />
    <path d="M108.40493 552.18569 L82.76016 571.14099" />
    <path d="M82.76016 571.14099 L63.80487 545.49623" />
    <path d="M63.80487 545.49623 L89.44963 526.54093" />
    <path d="M89.44963 526.54093 L108.40493 552.18569" />
    <path d="M102.8729 598.70093 L70.98423 598.96526" />
    <path d="M70.98423 598.96526 L70.7199 567.07659" />
    <path d="M70.7199 567.07659 L102.60857 566.81226" />
    <path d="M102.60857 566.81226 L102.8729 598.70093" />
    <path d="M91.88396 639.84898 L65.9285 621.3214" />
    <path d="M65.9285 621.3214 L84.45608 595.36594" />
    <path d="M84.45608 595.36594 L110.41154 613.89352" />
    <path d="M110.41154 613.89352 L91.88396 639.84898" />
    <path d="M79.63438 673.4475 L69.52357 643.20301" />
    <path d="M69.52357 643.20301 L99.76805 633.09221" />
    <path d="M99.76805 633.09221 L109.87886 663.33669" />
    <path d="M109.87886 663.33669 L79.63438 673.4475" />
    <path d="M70.80183 700.19703 L80.39662 669.78491" />
    <path d="M80.39662 669.78491 L110.80874 679.3797" />
    <path d="M110.80874 679.3797 L101.21395 709.79182" />
    <path d="M101.21395 709.79182 L70.80183 700.19703" />
    <path d="M120.74035 33.37506 L146.67153 51.9366" />
    <path d="M146.67153 51.9366 L128.11 77.86778" />
    <path d="M128.11 77.86778 L102.17881 59.30625" />
    <path d="M102.17881 59.30625 L120.74035 33.37506" />
    <path d="M132.98751 70.65872 L143.05873 100.91641" />
    <path d="M143.05873 100.91641 L112.80104 110.98762" />
    <path d="M112.80104 110.98762 L102.72983 80.72994" />
    <path d="M102.72983 80.72994 L132.98751 70.65872" />
    <path d="M141.80869 114.78688 L132.17411 145.18642" />
    <path d="M132.17411 145.18642 L101.77457 135.55183" />
    <path d="M101.77457 135.55183 L111.40915 105.1523" />
    <path d="M111.40915 105.1523 L141.80869 114.78688" />
    <path d="M143.83539 162.43921 L118.1741 181.37212" />
    <path d="M118.1741 181.37212 L99.24119 155.71083" />
    <path d="M99.24119 155.71083 L124.90248 136.77792" />
    <path d="M124.90248 136.77792 L143.83539 162.43921" />
    <path d="M138.2937 208.94962 L106.40481 209.18612" />
    <path d="M106.40481 209.18612 L106.16831 177.29723" />
    <path d="M106.16831 177.29723 L138.0572 177.06073" />
    <path d="M138.0572 177.06073 L138.2937 208.94962" />
    <path d="M127.29978 250.08807 L101.36049 231.53785" />
    <path d="M101.36049 231.53785 L119.91071 205.59857" />
    <path d="M119.91071 205.59857 L145.85 224.14879" />
    <path d="M145.85 224.14879 L127.29978 250.08807" />
    <path d="M115.0518 283.6759 L104.96739 253.42261" />
    <path d="M104.96739 253.42261 L135.22068 243.33819" />
    <path d="M135.22068 243.33819 L145.30509 273.59148" />
    <path d="M145.30509 273.59148 L115.0518 283.6759" />
    <path d="M106.22683 310.41773 L115.84815 280.01399" />
    <path d="M115.84815 280.01399 L146.25189 289.63532" />
    <path d="M146.25189 289.63532 L136.63057 320.03905" />
    <path d="M136.63057 320.03905 L106.22683 310.41773" />
    <path d="M104.1948 333.63243 L129.84783 314.68832" />
    <path d="M129.84783 314.68832 L148.79193 340.34135" />
    <path d="M148.79193 340.34135 L123.13891 359.28546" />
    <path d="M123.13891 359.28546 L104.1948 333.63243" />
    <path d="M109.73166 357.98575 L141.62044 357.73533" />
    <path d="M141.62044 357.73533 L141.87086 389.62411" />
    <path d="M141.87086 389.62411 L109.98208 389.87453" />
    <path d="M109.98208 389.87453 L109.73166 357.98575" />
    <path d="M120.72309 387.70864 L146.67047 406.24754" />
    <path d="M146.67047 406.24754 L128.13157 432.19491" />
    <path d="M128.13157 432.19491 L102.18419 413.65601" />
    <path d="M102.18419 413.65601 L120.72309 387.70864" />
    <path d="M132.97187 424.98161 L143.06948 455.2305" />
    <path d="M143.06948 455.2305 L112.8206 465.32811" />
    <path d="M112.8206 465.32811 L102.72298 435.07922" />
    <path d="M102.72298 435.07922 L132.97187 424.98161" />
    <path d="M141.80063 469.10207 L132.19258 499.51" />
    <path d="M132.19258 499.51 L101.78464 489.90194" />
    <path d="M101.78464 489.90194 L111.3927 459.49401" />
    <path d="M111.3927 459.49401 L141.80063 469.10207" />
    <path d="M143.838 516.75262 L118.19324 535.70792" />
    <path d="M118.19324 535.70792 L99.23794 510.06316" />
    <path d="M99.23794 510.06316 L124.8827 491.10786" />
    <path d="M124.8827 491.10786 L143.838 516.75262" />
    <path d="M138.30597 563.26786 L106.4173 563.53219" />
    <path d="M106.4173 563.53219 L106.15297 531.64352" />
    <path d="M106.15297 531.64352 L138.04164 531.37919" />
    <path d="M138.04164 531.37919 L138.30597 563.26786" />
    <path d="M127.31703 604.41591 L101.36157 585.88833" />
    <path d="M101.36157 585.88833 L119.88915 559.93287" />
    <path d="M119.88915 559.93287 L145.84461 578.46045" />
    <path d="M145.84461 578.46045 L127.31703 604.41591" />
    <path d="M115.06745 638.01442 L104.95664 607.76994" />
    <path d="M104.95664 607.76994 L135.20112 597.65914" />
    <path d="M135.20112 597.65914 L145.31193 627.90362" />
    <path d="M145.31193 627.90362 L115.06745 638.01442" />
    <path d="M106.2349 664.76396 L115.82969 634.35184" />
    <path d="M115.82969 634.35184 L146.24181 643.94663" />
    <path d="M146.24181 643.94663 L136.64702 674.35875" />
    <path d="M136.64702 674.35875 L106.2349 664.76396" />
    <path d="M104.19221 687.98043 L129.82869 669.01395" />
    <path d="M129.82869 669.01395 L148.79518 694.65044" />
    <path d="M148.79518 694.65044 L123.15869 713.61692" />
    <path d="M123.15869 713.61692 L104.19221 687.98043" />
    <path d="M168.42058 35.22565 L178.4918 65.48334" />
    <path d="M178.4918 65.48334 L148.23411 75.55455" />
    <path d="M148.23411 75.55455 L138.1629 45.29687" />
    <path d="M138.1629 45.29687 L168.42058 35.22565" />
    <path d="M177.24176 79.35381 L167.60718 109.75335" />
    <path d="M167.60718 109.75335 L137.20764 100.11876" />
    <path d="M137.20764 100.11876 L146.84222 69.71923" />
    <path d="M146.84222 69.71923 L177.24176 79.35381" />
    <path d="M179.26847 127.00614 L153.60718 145.93905" />
    <path d="M153.60718 145.93905 L134.67426 120.27776" />
    <path d="M134.67426 120.27776 L160.33555 101.34485" />
    <path d="M160.33555 101.34485 L179.26847 127.00614" />
    <path d="M173.72677 173.51654 L141.83788 173.75305" />
    <path d="M141.83788 173.75305 L141.60138 141.86416" />
    <path d="M141.60138 141.86416 L173.49027 141.62766" />
    <path d="M173.49027 141.62766 L173.72677 173.51654" />
    <path d="M162.73285 214.655 L136.79356 196.10478" />
    <path d="M136.79356 196.10478 L155.34378 170.1655" />
    <path d="M155.34378 170.1655 L181.28307 188.71572" />
    <path d="M181.28307 188.71572 L162.73285 214.655" />
    <path d="M150.48487 248.24283 L140.40046 217.98954" />
    <path d="M140.40046 217.98954 L170.65375 207.90512" />
    <path d="M170.65375 207.90512 L180.73817 238.15841" />
    <path d="M180.73817 238.15841 L150.48487 248.24283" />
    <path d="M141.6599 274.98466 L151.28123 244.58092" />
    <path d="M151.28123 244.58092 L181.68496 254.20224" />
    <path d="M181.68496 254.20224 L172.06364 284.60598" />
    <path d="M172.06364 284.60598 L141.6599 274.98466" />
    <path d="M139.62787 298.19936 L165.2809 279.25525" />
    <path d="M165.2809 279.25525 L184.22501 304.90828" />
    <path d="M184.22501 304.90828 L158.57198 323.85239" />
    <path d="M158.57198 323.85239 L139.62787 298.19936" />
    <path d="M145.16473 322.55268 L177.05351 322.30226" />
    <path d="M177.05351 322.30226 L177.30393 354.19104" />
    <path d="M177.30393 354.19104 L145.41515 354.44146" />
    <path d="M145.41515 354.44146 L145.16473 322.55268" />
    <path d="M156.15616 352.27557 L182.10354 370.81447" />
    <path d="M182.10354 370.81447 L163.56464 396.76184" />
    <path d="M163.56464 396.76184 L137.61726 378.22294" />
    <path d="M137.61726 378.22294 L156.15616 352.27557" />
    <path d="M168.40494 389.54854 L178.50255 419.79742" />
    <path d="M178.50255 419.79742 L148.25367 429.89504" />
    <path d="M148.25367 429.89504 L138.15605 399.64615" />
    <path d="M138.15605 399.64615 L168.40494 389.54854" />
    <path d="M177.2337 433.669 L167.62565 464.07693" />
    <path d="M167.62565 464.07693 L137.21771 454.46887" />
    <path d="M137.21771 454.46887 L146.82577 424.06094" />
    <path d="M146.82577 424.06094 L177.2337 433.669" />
    <path d="M179.27107 481.31955 L153.62631 500.27485" />
    <path d="M153.62631 500.27485 L134.67101 474.63009" />
    <path d="M134.67101 474.63009 L160.31577 455.67479" />
    <path d="M160.31577 455.67479 L179.27107 481.31955" />
    <path d="M173.73904 527.83479 L141.85037 528.09912" />
    <path d="M141.85037 528.09912 L141.58604 496.21045" />
    <path d="M141.58604 496.21045 L173.47471 495.94612" />
    <path d="M173.47471 495.94612 L173.73904 527.83479" />
    <path d="M162.7501 568.98284 L136.79464 550.45526" />
    <path d="M136.79464 550.45526 L155.32222 524.4998" />
    <path d="M155.32222 524.4998 L181.27768 543.02738" />
    <path d="M181.27768 543.02738 L162.7501 568.98284" />
    <path d="M150.50052 602.58135 L140.38971 572.33687" />
    <path d="M140.38971 572.33687 L170.63419 562.22606" />
    <path d="M170.63419 562.22606 L180.745 592.47054" />
    <path d="M180.745 592.47054 L150.50052 602.58135" />
    <path d="M141.66797 629.33089 L151.26276 598.91877" />
    <path d="M151.26276 598.91877 L181.67488 608.51356" />
    <path d="M181.67488 608.51356 L172.08009 638.92568" />
    <path d="M172.08009 638.92568 L141.66797 629.33089" />
    <path d="M139.62528 652.54736 L165.26176 633.58088" />
    <path d="M165.26176 633.58088 L184.22825 659.21737" />
    <path d="M184.22825 659.21737 L158.59176 678.18385" />
    <path d="M158.59176 678.18385 L139.62528 652.54736" />
    <path d="M145.15247 676.89586 L177.04102 676.61762" />
    <path d="M177.04102 676.61762 L177.31926 708.50617" />
    <path d="M177.31926 708.50617 L145.43071 708.7844" />
    <path d="M145.43071 708.7844 L145.15247 676.89586" />
    <path d="M212.67483 43.92074 L203.04025 74.32028" />
    <path d="M203.04025 74.32028 L172.64071 64.68569" />
    <path d="M172.64071 64.68569 L182.2753 34.28615" />
    <path d="M182.2753 34.28615 L212.67483 43.92074" />
    <path d="M214.70154 91.57307 L189.04025 110.50598" />
    <path d="M189.04025 110.50598 L170.10733 84.84469" />
    <path d="M170.10733 84.84469 L195.76862 65.91178" />
    <path d="M195.76862 65.91178 L214.70154 91.57307" />
    <path d="M209.15984 138.08347 L177.27095 138.31998" />
    <path d="M177.27095 138.31998 L177.03445 106.43109" />
    <path d="M177.03445 106.43109 L208.92334 106.19459" />
    <path d="M208.92334 106.19459 L209.15984 138.08347" />
    <path d="M198.16592 179.22193 L172.22664 160.67171" />
    <path d="M172.22664 160.67171 L190.77685 134.73243" />
    <path d="M190.77685 134.73243 L216.71614 153.28265" />
    <path d="M216.71614 153.28265 L198.16592 179.22193" />
    <path d="M185.91795 212.80976 L175.83353 182.55647" />
    <path d="M175.83353 182.55647 L206.08682 172.47205" />
    <path d="M206.08682 172.47205 L216.17124 202.72534" />
    <path d="M216.17124 202.72534 L185.91795 212.80976" />
    <path d="M177.09298 239.55159 L186.7143 209.14785" />
    <path d="M186.7143 209.14785 L217.11803 218.76917" />
    <path d="M217.11803 218.76917 L207.49671 249.17291" />
    <path d="M207.49671 249.17291 L177.09298 239.55159" />
    <path d="M175.06094 262.76629 L200.71397 243.82218" />
    <path d="M200.71397 243.82218 L219.65808 269.47521" />
    <path d="M219.65808 269.47521 L194.00505 288.41932" />
    <path d="M194.00505 288.41932 L175.06094 262.76629" />
    <path d="M180.5978 287.11961 L212.48658 286.86919" />
    <path d="M212.48658 286.86919 L212.737 318.75797" />
    <path d="M212.737 318.75797 L180.84822 319.00839" />
    <path d="M180.84822 319.00839 L180.5978 287.11961" />
    <path d="M191.58923 316.8425 L217.53661 335.3814" />
    <path d="M217.53661 335.3814 L198.99771 361.32877" />
    <path d="M198.99771 361.32877 L173.05033 342.78987" />
    <path d="M173.05033 342.78987 L191.58923 316.8425" />
    <path d="M203.83801 354.11547 L213.93563 384.36435" />
    <path d="M213.93563 384.36435 L183.68674 394.46197" />
    <path d="M183.68674 394.46197 L173.58912 364.21308" />
    <path d="M173.58912 364.21308 L203.83801 354.11547" />
    <path d="M212.66677 398.23593 L203.05872 428.64386" />
    <path d="M203.05872 428.64386 L172.65079 419.0358" />
    <path d="M172.65079 419.0358 L182.25884 388.62787" />
    <path d="M182.25884 388.62787 L212.66677 398.23593" />
    <path d="M214.70414 445.88648 L189.05938 464.84178" />
    <path d="M189.05938 464.84178 L170.10408 439.19702" />
    <path d="M170.10408 439.19702 L195.74884 420.24172" />
    <path d="M195.74884 420.24172 L214.70414 445.88648" />
    <path d="M209.17211 492.40172 L177.28344 492.66605" />
    <path d="M177.28344 492.66605 L177.01911 460.77738" />
    <path d="M177.01911 460.77738 L208.90778 460.51305" />
    <path d="M208.90778 460.51305 L209.17211 492.40172" />
    <path d="M198.18317 533.54977 L172.22771 515.02219" />
    <path d="M172.22771 515.02219 L190.75529 489.06673" />
    <path d="M190.75529 489.06673 L216.71075 507.59431" />
    <path d="M216.71075 507.59431 L198.18317 533.54977" />
    <path d="M185.93359 567.14828 L175.82278 536.9038" />
    <path d="M175.82278 536.9038 L206.06726 526.79299" />
    <path d="M206.06726 526.79299 L216.17807 557.03747" />
    <path d="M216.17807 557.03747 L185.93359 567.14828" />
    <path d="M177.10104 593.89782 L186.69583 563.4857" />
    <path d="M186.69583 563.4857 L217.10795 573.08049" />
    <path d="M217.10795 573.08049 L207.51316 603.49261" />
    <path d="M207.51316 603.49261 L177.10104 593.89782" />
    <path d="M175.05835 617.11429 L200.69484 598.14781" />
    <path d="M200.69484 598.14781 L219.66132 623.7843" />
    <path d="M219.66132 623.7843 L194.02483 642.75078" />
    <path d="M194.02483 642.75078 L175.05835 617.11429" />
    <path d="M180.58554 641.46278 L212.47409 641.18454" />
    <path d="M212.47409 641.18454 L212.75233 673.07309" />
    <path d="M212.75233 673.07309 L180.86378 673.35133" />
    <path d="M180.86378 673.35133 L180.58554 641.46278" />
    <path d="M191.57198 671.17608 L217.53552 689.69234" />
    <path d="M217.53552 689.69234 L199.01927 715.65588" />
    <path d="M199.01927 715.65588 L173.05573 697.13962" />
    <path d="M173.05573 697.13962 L191.57198 671.17608" />
    <path d="M250.13461 56.14 L224.47332 75.07291" />
    <path d="M224.47332 75.07291 L205.5404 49.41162" />
    <path d="M205.5404 49.41162 L231.20169 30.47871" />
    <path d="M231.20169 30.47871 L250.13461 56.14" />
    <path d="M244.59291 102.6504 L212.70403 102.88691" />
    <path d="M212.70403 102.88691 L212.46752 70.99802" />
    <path d="M212.46752 70.99802 L244.35641 70.76152" />
    <path d="M244.35641 70.76152 L244.59291 102.6504" />
    <path d="M233.59899 143.78886 L207.65971 125.23864" />
    <path d="M207.65971 125.23864 L226.20992 99.29936" />
    <path d="M226.20992 99.29936 L252.14921 117.84958" />
    <path d="M252.14921 117.84958 L233.59899 143.78886" />
    <path d="M221.35102 177.37669 L211.2666 147.1234" />
    <path d="M211.2666 147.1234 L241.51989 137.03898" />
    <path d="M241.51989 137.03898 L251.60431 167.29227" />
    <path d="M251.60431 167.29227 L221.35102 177.37669" />
    <path d="M212.52605 204.11852 L222.14737 173.71478" />
    <path d="M222.14737 173.71478 L252.5511 183.3361" />
    <path d="M252.5511 183.3361 L242.92978 213.73984" />
    <path d="M242.92978 213.73984 L212.52605 204.11852" />
    <path d="M210.49401 227.33322 L236.14704 208.38911" />
    <path d="M236.14704 208.38911 L255.09115 234.04214" />
    <path d="M255.09115 234.04214 L229.43812 252.98625" />
    <path d="M229.43812 252.98625 L210.49401 227.33322" />
    <path d="M216.03087 251.68654 L247.91965 251.43612" />
    <path d="M247.91965 251.43612 L248.17007 283.3249" />
    <path d="M248.17007 283.3249 L216.28129 283.57532" />
    <path d="M216.28129 283.57532 L216.03087 251.68654" />
    <path d="M227.02231 281.40942 L252.96968 299.94833" />
    <path d="M252.96968 299.94833 L234.43078 325.8957" />
    <path d="M234.43078 325.8957 L208.48341 307.3568" />
    <path d="M208.48341 307.3568 L227.02231 281.40942" />
    <path d="M239.27108 318.68239 L249.3687 348.93128" />
    <path d="M249.3687 348.93128 L219.11981 359.0289" />
    <path d="M219.11981 359.0289 L209.02219 328.78001" />
    <path d="M209.02219 328.78001 L239.27108 318.68239" />
    <path d="M248.09984 362.80286 L238.49179 393.21079" />
    <path d="M238.49179 393.21079 L208.08386 383.60273" />
    <path d="M208.08386 383.60273 L217.69191 353.1948" />
    <path d="M217.69191 353.1948 L248.09984 362.80286" />
    <path d="M250.13721 410.45341 L224.49245 429.40871" />
    <path d="M224.49245 429.40871 L205.53715 403.76395" />
    <path d="M205.53715 403.76395 L231.18191 384.80865" />
    <path d="M231.18191 384.80865 L250.13721 410.45341" />
    <path d="M244.60518 456.96865 L212.71651 457.23298" />
    <path d="M212.71651 457.23298 L212.45219 425.34431" />
    <path d="M212.45219 425.34431 L244.34085 425.07998" />
    <path d="M244.34085 425.07998 L244.60518 456.96865" />
    <path d="M233.61624 498.1167 L207.66078 479.58912" />
    <path d="M207.66078 479.58912 L226.18836 453.63366" />
    <path d="M226.18836 453.63366 L252.14382 472.16124" />
    <path d="M252.14382 472.16124 L233.61624 498.1167" />
    <path d="M221.36666 531.71521 L211.25585 501.47073" />
    <path d="M211.25585 501.47073 L241.50033 491.35992" />
    <path d="M241.50033 491.35992 L251.61114 521.6044" />
    <path d="M251.61114 521.6044 L221.36666 531.71521" />
    <path d="M212.53411 558.46475 L222.1289 528.05263" />
    <path d="M222.1289 528.05263 L252.54102 537.64741" />
    <path d="M252.54102 537.64741 L242.94623 568.05953" />
    <path d="M242.94623 568.05953 L212.53411 558.46475" />
    <path d="M210.49142 581.68122 L236.12791 562.71474" />
    <path d="M236.12791 562.71474 L255.09439 588.35123" />
    <path d="M255.09439 588.35123 L229.4579 607.31771" />
    <path d="M229.4579 607.31771 L210.49142 581.68122" />
    <path d="M216.01861 606.02971 L247.90716 605.75147" />
    <path d="M247.90716 605.75147 L248.1854 637.64002" />
    <path d="M248.1854 637.64002 L216.29685 637.91826" />
    <path d="M216.29685 637.91826 L216.01861 606.02971" />
    <path d="M227.00506 635.74301 L252.9686 654.25927" />
    <path d="M252.9686 654.25927 L234.45234 680.22281" />
    <path d="M234.45234 680.22281 L208.4888 661.70655" />
    <path d="M208.4888 661.70655 L227.00506 635.74301" />
    <path d="M239.25543 673.0053 L249.37944 703.24536" />
    <path d="M249.37944 703.24536 L219.13937 713.36936" />
    <path d="M219.13937 713.36936 L209.01537 683.1293" />
    <path d="M209.01537 683.1293 L239.25543 673.0053" />
    <path d="M280.02598 67.21733 L248.1371 67.45384" />
    <path d="M248.1371 67.45384 L247.90059 35.56495" />
    <path d="M247.90059 35.56495 L279.78948 35.32845" />
    <path d="M279.78948 35.32845 L280.02598 67.21733" />
    <path d="M269.03206 108.35579 L243.09278 89.80557" />
    <path d="M243.09278 89.80557 L261.643 63.86629" />
    <path d="M261.643 63.86629 L287.58228 82.41651" />
    <path d="M287.58228 82.41651 L269.03206 108.35579" />
    <path d="M256.78409 141.94362 L246.69967 111.69033" />
    <path d="M246.69967 111.69033 L276.95296 101.60591" />
    <path d="M276.95296 101.60591 L287.03738 131.8592" />
    <path d="M287.03738 131.8592 L256.78409 141.94362" />
    <path d="M247.95912 168.68545 L257.58044 138.28171" />
    <path d="M257.58044 138.28171 L287.98417 147.90303" />
    <path d="M287.98417 147.90303 L278.36285 178.30677" />
    <path d="M278.36285 178.30677 L247.95912 168.68545" />
    <path d="M245.92708 191.90015 L271.58011 172.95604" />
    <path d="M271.58011 172.95604 L290.52422 198.60907" />
    <path d="M290.52422 198.60907 L264.87119 217.55318" />
    <path d="M264.87119 217.55318 L245.92708 191.90015" />
    <path d="M251.46394 216.25347 L283.35272 216.00305" />
    <path d="M283.35272 216.00305 L283.60314 247.89183" />
    <path d="M283.60314 247.89183 L251.71436 248.14225" />
    <path d="M251.71436 248.14225 L251.46394 216.25347" />
    <path d="M262.45538 245.97635 L288.40275 264.51525" />
    <path d="M288.40275 264.51525 L269.86385 290.46263" />
    <path d="M269.86385 290.46263 L243.91648 271.92373" />
    <path d="M243.91648 271.92373 L262.45538 245.97635" />
    <path d="M274.70415 283.24932 L284.80177 313.49821" />
    <path d="M284.80177 313.49821 L254.55288 323.59583" />
    <path d="M254.55288 323.59583 L244.45527 293.34694" />
    <path d="M244.45527 293.34694 L274.70415 283.24932" />
    <path d="M283.53291 327.36978 L273.92486 357.77772" />
    <path d="M273.92486 357.77772 L243.51693 348.16966" />
    <path d="M243.51693 348.16966 L253.12498 317.76173" />
    <path d="M253.12498 317.76173 L283.53291 327.36978" />
    <path d="M285.57028 375.02034 L259.92552 393.97564" />
    <path d="M259.92552 393.97564 L240.97022 368.33088" />
    <path d="M240.97022 368.33088 L266.61498 349.37558" />
    <path d="M266.61498 349.37558 L285.57028 375.02034" />
    <path d="M280.03825 421.53558 L248.14958 421.79991" />
    <path d="M248.14958 421.79991 L247.88526 389.91124" />
    <path d="M247.88526 389.91124 L279.77392 389.64691" />
    <path d="M279.77392 389.64691 L280.03825 421.53558" />
    <path d="M269.04931 462.68362 L243.09385 444.15605" />
    <path d="M243.09385 444.15605 L261.62143 418.20059" />
    <path d="M261.62143 418.20059 L287.57689 436.72817" />
    <path d="M287.57689 436.72817 L269.04931 462.68362" />
    <path d="M256.79973 496.28214 L246.68892 466.03766" />
    <path d="M246.68892 466.03766 L276.9334 455.92685" />
    <path d="M276.9334 455.92685 L287.04421 486.17133" />
    <path d="M287.04421 486.17133 L256.79973 496.28214" />
    <path d="M247.96718 523.03167 L257.56197 492.61955" />
    <path d="M257.56197 492.61955 L287.97409 502.21434" />
    <path d="M287.97409 502.21434 L278.3793 532.62646" />
    <path d="M278.3793 532.62646 L247.96718 523.03167" />
    <path d="M245.92449 546.24815 L271.56098 527.28167" />
    <path d="M271.56098 527.28167 L290.52746 552.91816" />
    <path d="M290.52746 552.91816 L264.89097 571.88464" />
    <path d="M264.89097 571.88464 L245.92449 546.24815" />
    <path d="M251.45168 570.59664 L283.34023 570.3184" />
    <path d="M283.34023 570.3184 L283.61847 602.20695" />
    <path d="M283.61847 602.20695 L251.72992 602.48519" />
    <path d="M251.72992 602.48519 L251.45168 570.59664" />
    <path d="M262.43813 600.30994 L288.40167 618.8262" />
    <path d="M288.40167 618.8262 L269.88541 644.78974" />
    <path d="M269.88541 644.78974 L243.92187 626.27348" />
    <path d="M243.92187 626.27348 L262.43813 600.30994" />
    <path d="M274.6885 637.57222 L284.81251 667.81229" />
    <path d="M284.81251 667.81229 L254.57244 677.93629" />
    <path d="M254.57244 677.93629 L244.44844 647.69623" />
    <path d="M244.44844 647.69623 L274.6885 637.57222" />
    <path d="M283.52484 681.68498 L273.94332 712.10128" />
    <path d="M273.94332 712.10128 L243.52702 702.51976" />
    <path d="M243.52702 702.51976 L253.10854 672.10346" />
    <path d="M253.10854 672.10346 L283.52484 681.68498" />
    <path d="M304.46513 72.92272 L278.52585 54.3725" />
    <path d="M278.52585 54.3725 L297.07607 28.43322" />
    <path d="M297.07607 28.43322 L323.01535 46.98343" />
    <path d="M323.01535 46.98343 L304.46513 72.92272" />
    <path d="M292.21716 106.51055 L282.13274 76.25726" />
    <path d="M282.13274 76.25726 L312.38603 66.17284" />
    <path d="M312.38603 66.17284 L322.47045 96.42613" />
    <path d="M322.47045 96.42613 L292.21716 106.51055" />
    <path d="M283.39219 133.25238 L293.01351 102.84864" />
    <path d="M293.01351 102.84864 L323.41725 112.46996" />
    <path d="M323.41725 112.46996 L313.79592 142.8737" />
    <path d="M313.79592 142.8737 L283.39219 133.25238" />
    <path d="M281.36015 156.46708 L307.01318 137.52297" />
    <path d="M307.01318 137.52297 L325.95729 163.176" />
    <path d="M325.95729 163.176 L300.30426 182.1201" />
    <path d="M300.30426 182.1201 L281.36015 156.46708" />
    <path d="M286.89701 180.82039 L318.7858 180.56998" />
    <path d="M318.7858 180.56998 L319.03621 212.45876" />
    <path d="M319.03621 212.45876 L287.14743 212.70918" />
    <path d="M287.14743 212.70918 L286.89701 180.82039" />
    <path d="M297.88845 210.54328 L323.83582 229.08218" />
    <path d="M323.83582 229.08218 L305.29692 255.02956" />
    <path d="M305.29692 255.02956 L279.34955 236.49066" />
    <path d="M279.34955 236.49066 L297.88845 210.54328" />
    <path d="M310.13722 247.81625 L320.23484 278.06514" />
    <path d="M320.23484 278.06514 L289.98595 288.16275" />
    <path d="M289.98595 288.16275 L279.88834 257.91387" />
    <path d="M279.88834 257.91387 L310.13722 247.81625" />
    <path d="M318.96599 291.93671 L309.35793 322.34464" />
    <path d="M309.35793 322.34464 L278.95 312.73659" />
    <path d="M278.95 312.73659 L288.55805 282.32866" />
    <path d="M288.55805 282.32866 L318.96599 291.93671" />
    <path d="M321.00335 339.58727 L295.35859 358.54257" />
    <path d="M295.35859 358.54257 L276.40329 332.8978" />
    <path d="M276.40329 332.8978 L302.04805 313.94251" />
    <path d="M302.04805 313.94251 L321.00335 339.58727" />
    <path d="M315.47132 386.10251 L283.58265 386.36683" />
    <path d="M283.58265 386.36683 L283.31833 354.47817" />
    <path d="M283.31833 354.47817 L315.207 354.21384" />
    <path d="M315.207 354.21384 L315.47132 386.10251" />
    <path d="M304.48238 427.25055 L278.52692 408.72298" />
    <path d="M278.52692 408.72298 L297.0545 382.76752" />
    <path d="M297.0545 382.76752 L323.00996 401.29509" />
    <path d="M323.00996 401.29509 L304.48238 427.25055" />
    <path d="M292.2328 460.84907 L282.122 430.60459" />
    <path d="M282.122 430.60459 L312.36648 420.49378" />
    <path d="M312.36648 420.49378 L322.47728 450.73826" />
    <path d="M322.47728 450.73826 L292.2328 460.84907" />
    <path d="M283.40025 487.5986 L292.99504 457.18648" />
    <path d="M292.99504 457.18648 L323.40716 466.78127" />
    <path d="M323.40716 466.78127 L313.81237 497.19339" />
    <path d="M313.81237 497.19339 L283.40025 487.5986" />
    <path d="M281.35756 510.81508 L306.99405 491.8486" />
    <path d="M306.99405 491.8486 L325.96053 517.48509" />
    <path d="M325.96053 517.48509 L300.32404 536.45157" />
    <path d="M300.32404 536.45157 L281.35756 510.81508" />
    <path d="M286.88475 535.16357 L318.7733 534.88533" />
    <path d="M318.7733 534.88533 L319.05154 566.77388" />
    <path d="M319.05154 566.77388 L287.16299 567.05212" />
    <path d="M287.16299 567.05212 L286.88475 535.16357" />
    <path d="M297.8712 564.87687 L323.83474 583.39313" />
    <path d="M323.83474 583.39313 L305.31848 609.35667" />
    <path d="M305.31848 609.35667 L279.35494 590.84041" />
    <path d="M279.35494 590.84041 L297.8712 564.87687" />
    <path d="M310.12158 602.13915 L320.24558 632.37922" />
    <path d="M320.24558 632.37922 L290.00551 642.50322" />
    <path d="M290.00551 642.50322 L279.88151 612.26316" />
    <path d="M279.88151 612.26316 L310.12158 602.13915" />
    <path d="M318.95791 646.25191 L309.37639 676.66821" />
    <path d="M309.37639 676.66821 L278.96009 667.08669" />
    <path d="M278.96009 667.08669 L288.54161 636.67039" />
    <path d="M288.54161 636.67039 L318.95791 646.25191" />
    <path d="M321.00594 693.90068 L295.37772 712.87835" />
    <path d="M295.37772 712.87835 L276.40006 687.25013" />
    <path d="M276.40006 687.25013 L302.02827 668.27247" />
    <path d="M302.02827 668.27247 L321.00594 693.90068" />
    <path d="M327.65023 71.07748 L317.56581 40.82419" />
    <path d="M317.56581 40.82419 L347.8191 30.73977" />
    <path d="M347.8191 30.73977 L357.90352 60.99306" />
    <path d="M357.90352 60.99306 L327.65023 71.07748" />
    <path d="M318.82526 97.81931 L328.44658 67.41557" />
    <path d="M328.44658 67.41557 L358.85032 77.03689" />
    <path d="M358.85032 77.03689 L349.229 107.44063" />
    <path d="M349.229 107.44063 L318.82526 97.81931" />
    <path d="M316.79322 121.03401 L342.44625 102.0899" />
    <path d="M342.44625 102.0899 L361.39036 127.74293" />
    <path d="M361.39036 127.74293 L335.73733 146.68703" />
    <path d="M335.73733 146.68703 L316.79322 121.03401" />
    <path d="M322.33009 145.38732 L354.21887 145.13691" />
    <path d="M354.21887 145.13691 L354.46928 177.02569" />
    <path d="M354.46928 177.02569 L322.5805 177.2761" />
    <path d="M322.5805 177.2761 L322.33009 145.38732" />
    <path d="M333.32152 175.11021 L359.26889 193.64911" />
    <path d="M359.26889 193.64911 L340.72999 219.59649" />
    <path d="M340.72999 219.59649 L314.78262 201.05759" />
    <path d="M314.78262 201.05759 L333.32152 175.11021" />
    <path d="M345.5703 212.38318 L355.66791 242.63207" />
    <path d="M355.66791 242.63207 L325.41902 252.72968" />
    <path d="M325.41902 252.72968 L315.32141 222.4808" />
    <path d="M315.32141 222.4808 L345.5703 212.38318" />
    <path d="M354.39906 256.50364 L344.791 286.91157" />
    <path d="M344.791 286.91157 L314.38307 277.30352" />
    <path d="M314.38307 277.30352 L323.99113 246.89559" />
    <path d="M323.99113 246.89559 L354.39906 256.50364" />
    <path d="M356.43642 304.1542 L330.79166 323.10949" />
    <path d="M330.79166 323.10949 L311.83636 297.46473" />
    <path d="M311.83636 297.46473 L337.48112 278.50944" />
    <path d="M337.48112 278.50944 L356.43642 304.1542" />
    <path d="M350.90439 350.66944 L319.01573 350.93376" />
    <path d="M319.01573 350.93376 L318.7514 319.0451" />
    <path d="M318.7514 319.0451 L350.64007 318.78077" />
    <path d="M350.64007 318.78077 L350.90439 350.66944" />
    <path d="M339.91545 391.81748 L313.95999 373.2899" />
    <path d="M313.95999 373.2899 L332.48757 347.33445" />
    <path d="M332.48757 347.33445 L358.44303 365.86202" />
    <path d="M358.44303 365.86202 L339.91545 391.81748" />
    <path d="M327.66587 425.416 L317.55507 395.17152" />
    <path d="M317.55507 395.17152 L347.79955 385.06071" />
    <path d="M347.79955 385.06071 L357.91036 415.30519" />
    <path d="M357.91036 415.30519 L327.66587 425.416" />
    <path d="M318.83332 452.16553 L328.42811 421.75341" />
    <path d="M328.42811 421.75341 L358.84023 431.3482" />
    <path d="M358.84023 431.3482 L349.24544 461.76032" />
    <path d="M349.24544 461.76032 L318.83332 452.16553" />
    <path d="M316.79063 475.38201 L342.42712 456.41553" />
    <path d="M342.42712 456.41553 L361.3936 482.05202" />
    <path d="M361.3936 482.05202 L335.75711 501.0185" />
    <path d="M335.75711 501.0185 L316.79063 475.38201" />
    <path d="M322.31782 499.7305 L354.20637 499.45226" />
    <path d="M354.20637 499.45226 L354.48461 531.34081" />
    <path d="M354.48461 531.34081 L322.59606 531.61905" />
    <path d="M322.59606 531.61905 L322.31782 499.7305" />
    <path d="M333.30427 529.4438 L359.26781 547.96006" />
    <path d="M359.26781 547.96006 L340.75155 573.92359" />
    <path d="M340.75155 573.92359 L314.78801 555.40734" />
    <path d="M314.78801 555.40734 L333.30427 529.4438" />
    <path d="M345.55465 566.70608 L355.67865 596.94615" />
    <path d="M355.67865 596.94615 L325.43858 607.07015" />
    <path d="M325.43858 607.07015 L315.31458 576.83009" />
    <path d="M315.31458 576.83009 L345.55465 566.70608" />
    <path d="M354.39098 610.81884 L344.80946 641.23514" />
    <path d="M344.80946 641.23514 L314.39316 631.65362" />
    <path d="M314.39316 631.65362 L323.97468 601.23732" />
    <path d="M323.97468 601.23732 L354.39098 610.81884" />
    <path d="M356.43901 658.46761 L330.8108 677.44527" />
    <path d="M330.8108 677.44527 L311.83313 651.81706" />
    <path d="M311.83313 651.81706 L337.46134 632.8394" />
    <path d="M337.46134 632.8394 L356.43901 658.46761" />
    <path d="M350.91665 704.98767 L319.02823 705.27982" />
    <path d="M319.02823 705.27982 L318.73608 673.3914" />
    <path d="M318.73608 673.3914 L350.6245 673.09925" />
    <path d="M350.6245 673.09925 L350.91665 704.98767" />
    <path d="M354.25833 62.38624 L363.87965 31.9825" />
    <path d="M363.87965 31.9825 L394.28339 41.60382" />
    <path d="M394.28339 41.60382 L384.66207 72.00756" />
    <path d="M384.66207 72.00756 L354.25833 62.38624" />
    <path d="M352.2263 85.60093 L377.87932 66.65683" />
    <path d="M377.87932 66.65683 L396.82343 92.30985" />
    <path d="M396.82343 92.30985 L371.1704 111.25396" />
    <path d="M371.1704 111.25396 L352.2263 85.60093" />
    <path d="M357.76316 109.95425 L389.65194 109.70384" />
    <path d="M389.65194 109.70384 L389.90235 141.59262" />
    <path d="M389.90235 141.59262 L358.01357 141.84303" />
    <path d="M358.01357 141.84303 L357.76316 109.95425" />
    <path d="M368.75459 139.67714 L394.70196 158.21604" />
    <path d="M394.70196 158.21604 L376.16306 184.16342" />
    <path d="M376.16306 184.16342 L350.21569 165.62452" />
    <path d="M350.21569 165.62452 L368.75459 139.67714" />
    <path d="M381.00337 176.95011 L391.10098 207.199" />
    <path d="M391.10098 207.199 L360.85209 217.29661" />
    <path d="M360.85209 217.29661 L350.75448 187.04772" />
    <path d="M350.75448 187.04772 L381.00337 176.95011" />
    <path d="M389.83213 221.07057 L380.22407 251.4785" />
    <path d="M380.22407 251.4785 L349.81614 241.87045" />
    <path d="M349.81614 241.87045 L359.4242 211.46252" />
    <path d="M359.4242 211.46252 L389.83213 221.07057" />
    <path d="M391.86949 268.72113 L366.22473 287.67642" />
    <path d="M366.22473 287.67642 L347.26943 262.03166" />
    <path d="M347.26943 262.03166 L372.91419 243.07637" />
    <path d="M372.91419 243.07637 L391.86949 268.72113" />
    <path d="M386.33746 315.23636 L354.4488 315.50069" />
    <path d="M354.4488 315.50069 L354.18447 283.61202" />
    <path d="M354.18447 283.61202 L386.07314 283.3477" />
    <path d="M386.07314 283.3477 L386.33746 315.23636" />
    <path d="M375.34852 356.38441 L349.39307 337.85683" />
    <path d="M349.39307 337.85683 L367.92064 311.90137" />
    <path d="M367.92064 311.90137 L393.8761 330.42895" />
    <path d="M393.8761 330.42895 L375.34852 356.38441" />
    <path d="M363.09895 389.98293 L352.98814 359.73845" />
    <path d="M352.98814 359.73845 L383.23262 349.62764" />
    <path d="M383.23262 349.62764 L393.34343 379.87212" />
    <path d="M393.34343 379.87212 L363.09895 389.98293" />
    <path d="M354.2664 416.73246 L363.86118 386.32034" />
    <path d="M363.86118 386.32034 L394.27331 395.91513" />
    <path d="M394.27331 395.91513 L384.67852 426.32725" />
    <path d="M384.67852 426.32725 L354.2664 416.73246" />
    <path d="M352.2237 439.94894 L377.86019 420.98246" />
    <path d="M377.86019 420.98246 L396.82667 446.61894" />
    <path d="M396.82667 446.61894 L371.19018 465.58543" />
    <path d="M371.19018 465.58543 L352.2237 439.94894" />
    <path d="M357.75089 464.29743 L389.63944 464.01919" />
    <path d="M389.63944 464.01919 L389.91768 495.90774" />
    <path d="M389.91768 495.90774 L358.02913 496.18598" />
    <path d="M358.02913 496.18598 L357.75089 464.29743" />
    <path d="M368.73734 494.01073 L394.70088 512.52698" />
    <path d="M394.70088 512.52698 L376.18463 538.49052" />
    <path d="M376.18463 538.49052 L350.22109 519.97427" />
    <path d="M350.22109 519.97427 L368.73734 494.01073" />
    <path d="M380.98772 531.27301 L391.11172 561.51308" />
    <path d="M391.11172 561.51308 L360.87165 571.63708" />
    <path d="M360.87165 571.63708 L350.74765 541.39701" />
    <path d="M350.74765 541.39701 L380.98772 531.27301" />
    <path d="M389.82405 575.38577 L380.24253 605.80207" />
    <path d="M380.24253 605.80207 L349.82623 596.22055" />
    <path d="M349.82623 596.22055 L359.40775 565.80425" />
    <path d="M359.40775 565.80425 L389.82405 575.38577" />
    <path d="M391.87208 623.03454 L366.24387 642.0122" />
    <path d="M366.24387 642.0122 L347.2662 616.38399" />
    <path d="M347.2662 616.38399 L372.89441 597.40633" />
    <path d="M372.89441 597.40633 L391.87208 623.03454" />
    <path d="M386.34972 669.5546 L354.4613 669.84675" />
    <path d="M354.4613 669.84675 L354.16915 637.95833" />
    <path d="M354.16915 637.95833 L386.05757 637.66617" />
    <path d="M386.05757 637.66617 L386.34972 669.5546" />
    <path d="M375.36577 710.71223 L349.39416 692.20731" />
    <path d="M349.39416 692.20731 L367.89908 666.23569" />
    <path d="M367.89908 666.23569 L393.8707 684.74062" />
    <path d="M393.8707 684.74062 L375.36577 710.71223" />
    <path d="M387.65937 50.16786 L413.31239 31.22376" />
    <path d="M413.31239 31.22376 L432.2565 56.87678" />
    <path d="M432.2565 56.87678 L406.60347 75.82089" />
    <path d="M406.60347 75.82089 L387.65937 50.16786" />
    <path d="M393.19623 74.52118 L425.08501 74.27077" />
    <path d="M425.08501 74.27077 L425.33542 106.15955" />
    <path d="M425.33542 106.15955 L393.44664 106.40996" />
    <path d="M393.44664 106.40996 L393.19623 74.52118" />
    <path d="M404.18766 104.24407 L430.13503 122.78297" />
    <path d="M430.13503 122.78297 L411.59613 148.73034" />
    <path d="M411.59613 148.73034 L385.64876 130.19144" />
    <path d="M385.64876 130.19144 L404.18766 104.24407" />
    <path d="M416.43644 141.51704 L426.53405 171.76593" />
    <path d="M426.53405 171.76593 L396.28516 181.86354" />
    <path d="M396.28516 181.86354 L386.18755 151.61465" />
    <path d="M386.18755 151.61465 L416.43644 141.51704" />
    <path d="M425.2652 185.6375 L415.65714 216.04543" />
    <path d="M415.65714 216.04543 L385.24921 206.43738" />
    <path d="M385.24921 206.43738 L394.85727 176.02944" />
    <path d="M394.85727 176.02944 L425.2652 185.6375" />
    <path d="M427.30256 233.28806 L401.6578 252.24335" />
    <path d="M401.6578 252.24335 L382.70251 226.59859" />
    <path d="M382.70251 226.59859 L408.34727 207.64329" />
    <path d="M408.34727 207.64329 L427.30256 233.28806" />
    <path d="M421.77054 279.80329 L389.88187 280.06762" />
    <path d="M389.88187 280.06762 L389.61754 248.17895" />
    <path d="M389.61754 248.17895 L421.50621 247.91463" />
    <path d="M421.50621 247.91463 L421.77054 279.80329" />
    <path d="M410.7816 320.95134 L384.82614 302.42376" />
    <path d="M384.82614 302.42376 L403.35371 276.4683" />
    <path d="M403.35371 276.4683 L429.30917 294.99588" />
    <path d="M429.30917 294.99588 L410.7816 320.95134" />
    <path d="M398.53202 354.54986 L388.42121 324.30538" />
    <path d="M388.42121 324.30538 L418.66569 314.19457" />
    <path d="M418.66569 314.19457 L428.7765 344.43905" />
    <path d="M428.7765 344.43905 L398.53202 354.54986" />
    <path d="M389.69947 381.29939 L399.29426 350.88727" />
    <path d="M399.29426 350.88727 L429.70638 360.48206" />
    <path d="M429.70638 360.48206 L420.11159 390.89418" />
    <path d="M420.11159 390.89418 L389.69947 381.29939" />
    <path d="M387.65677 404.51587 L413.29326 385.54938" />
    <path d="M413.29326 385.54938 L432.25974 411.18587" />
    <path d="M432.25974 411.18587 L406.62326 430.15236" />
    <path d="M406.62326 430.15236 L387.65677 404.51587" />
    <path d="M393.18396 428.86436 L425.07251 428.58612" />
    <path d="M425.07251 428.58612 L425.35075 460.47467" />
    <path d="M425.35075 460.47467 L393.4622 460.75291" />
    <path d="M393.4622 460.75291 L393.18396 428.86436" />
    <path d="M404.17041 458.57766 L430.13395 477.09391" />
    <path d="M430.13395 477.09391 L411.6177 503.05745" />
    <path d="M411.6177 503.05745 L385.65416 484.5412" />
    <path d="M385.65416 484.5412 L404.17041 458.57766" />
    <path d="M416.42079 495.83994 L426.54479 526.08001" />
    <path d="M426.54479 526.08001 L396.30472 536.20401" />
    <path d="M396.30472 536.20401 L386.18072 505.96394" />
    <path d="M386.18072 505.96394 L416.42079 495.83994" />
    <path d="M425.25713 539.9527 L415.6756 570.369" />
    <path d="M415.6756 570.369 L385.2593 560.78748" />
    <path d="M385.2593 560.78748 L394.84082 530.37117" />
    <path d="M394.84082 530.37117 L425.25713 539.9527" />
    <path d="M427.30515 587.60147 L401.67694 606.57913" />
    <path d="M401.67694 606.57913 L382.69927 580.95092" />
    <path d="M382.69927 580.95092 L408.32748 561.97326" />
    <path d="M408.32748 561.97326 L427.30515 587.60147" />
    <path d="M421.78279 634.12153 L389.89437 634.41368" />
    <path d="M389.89437 634.41368 L389.60222 602.52525" />
    <path d="M389.60222 602.52525 L421.49064 602.2331" />
    <path d="M421.49064 602.2331 L421.78279 634.12153" />
    <path d="M410.79884 675.27916 L384.82723 656.77424" />
    <path d="M384.82723 656.77424 L403.33215 630.80262" />
    <path d="M403.33215 630.80262 L429.30377 649.30755" />
    <path d="M429.30377 649.30755 L410.79884 675.27916" />
    <path d="M398.54767 708.88837 L388.41048 678.65272" />
    <path d="M388.41048 678.65272 L418.64612 668.51553" />
    <path d="M418.64612 668.51553 L428.78332 698.75117" />
    <path d="M428.78332 698.75117 L398.54767 708.88837" />
    <path d="M428.6293 39.08811 L460.51808 38.83769" />
    <path d="M460.51808 38.83769 L460.7685 70.72648" />
    <path d="M460.7685 70.72648 L428.87971 70.97689" />
    <path d="M428.87971 70.97689 L428.6293 39.08811" />
    <path d="M439.62073 68.811 L465.5681 87.3499" />
    <path d="M465.5681 87.3499 L447.0292 113.29727" />
    <path d="M447.0292 113.29727 L421.08183 94.75837" />
    <path d="M421.08183 94.75837 L439.62073 68.811" />
    <path d="M451.86951 106.08397 L461.96712 136.33286" />
    <path d="M461.96712 136.33286 L431.71823 146.43047" />
    <path d="M431.71823 146.43047 L421.62062 116.18158" />
    <path d="M421.62062 116.18158 L451.86951 106.08397" />
    <path d="M460.69827 150.20443 L451.09021 180.61236" />
    <path d="M451.09021 180.61236 L420.68228 171.00431" />
    <path d="M420.68228 171.00431 L430.29034 140.59637" />
    <path d="M430.29034 140.59637 L460.69827 150.20443" />
    <path d="M462.73563 197.85498 L437.09087 216.81028" />
    <path d="M437.09087 216.81028 L418.13558 191.16552" />
    <path d="M418.13558 191.16552 L443.78034 172.21022" />
    <path d="M443.78034 172.21022 L462.73563 197.85498" />
    <path d="M457.20361 244.37022 L425.31494 244.63455" />
    <path d="M425.31494 244.63455 L425.05061 212.74588" />
    <path d="M425.05061 212.74588 L456.93928 212.48155" />
    <path d="M456.93928 212.48155 L457.20361 244.37022" />
    <path d="M446.21467 285.51827 L420.25921 266.99069" />
    <path d="M420.25921 266.99069 L438.78679 241.03523" />
    <path d="M438.78679 241.03523 L464.74224 259.56281" />
    <path d="M464.74224 259.56281 L446.21467 285.51827" />
    <path d="M433.96509 319.11679 L423.85428 288.87231" />
    <path d="M423.85428 288.87231 L454.09876 278.7615" />
    <path d="M454.09876 278.7615 L464.20957 309.00598" />
    <path d="M464.20957 309.00598 L433.96509 319.11679" />
    <path d="M425.13254 345.86632 L434.72733 315.4542" />
    <path d="M434.72733 315.4542 L465.13945 325.04899" />
    <path d="M465.13945 325.04899 L455.54466 355.46111" />
    <path d="M455.54466 355.46111 L425.13254 345.86632" />
    <path d="M423.08984 369.0828 L448.72633 350.11631" />
    <path d="M448.72633 350.11631 L467.69281 375.7528" />
    <path d="M467.69281 375.7528 L442.05633 394.71929" />
    <path d="M442.05633 394.71929 L423.08984 369.0828" />
    <path d="M428.61703 393.43129 L460.50558 393.15305" />
    <path d="M460.50558 393.15305 L460.78382 425.0416" />
    <path d="M460.78382 425.0416 L428.89527 425.31984" />
    <path d="M428.89527 425.31984 L428.61703 393.43129" />
    <path d="M439.60348 423.14459 L465.56702 441.66084" />
    <path d="M465.56702 441.66084 L447.05077 467.62438" />
    <path d="M447.05077 467.62438 L421.08723 449.10813" />
    <path d="M421.08723 449.10813 L439.60348 423.14459" />
    <path d="M451.85386 460.40687 L461.97786 490.64694" />
    <path d="M461.97786 490.64694 L431.73779 500.77094" />
    <path d="M431.73779 500.77094 L421.61379 470.53087" />
    <path d="M421.61379 470.53087 L451.85386 460.40687" />
    <path d="M460.6902 504.51962 L451.10868 534.93593" />
    <path d="M451.10868 534.93593 L420.69237 525.35441" />
    <path d="M420.69237 525.35441 L430.27389 494.9381" />
    <path d="M430.27389 494.9381 L460.6902 504.51962" />
    <path d="M462.73822 552.1684 L437.11001 571.14606" />
    <path d="M437.11001 571.14606 L418.13234 545.51785" />
    <path d="M418.13234 545.51785 L443.76055 526.54018" />
    <path d="M443.76055 526.54018 L462.73822 552.1684" />
    <path d="M457.21586 598.68846 L425.32744 598.98061" />
    <path d="M425.32744 598.98061 L425.03529 567.09218" />
    <path d="M425.03529 567.09218 L456.92371 566.80003" />
    <path d="M456.92371 566.80003 L457.21586 598.68846" />
    <path d="M446.23191 639.84609 L420.2603 621.34117" />
    <path d="M420.2603 621.34117 L438.76522 595.36955" />
    <path d="M438.76522 595.36955 L464.73684 613.87448" />
    <path d="M464.73684 613.87448 L446.23191 639.84609" />
    <path d="M433.98074 673.4553 L423.84355 643.21965" />
    <path d="M423.84355 643.21965 L454.07919 633.08246" />
    <path d="M454.07919 633.08246 L464.21639 663.3181" />
    <path d="M464.21639 663.3181 L433.98074 673.4553" />
    <path d="M425.14062 700.21254 L434.70887 669.79206" />
    <path d="M434.70887 669.79206 L465.12935 679.36031" />
    <path d="M465.12935 679.36031 L455.5611 709.78079" />
    <path d="M455.5611 709.78079 L425.14062 700.21254" />
    <path d="M475.0538 33.37793 L501.00118 51.91683" />
    <path d="M501.00118 51.91683 L482.46228 77.8642" />
    <path d="M482.46228 77.8642 L456.5149 59.3253" />
    <path d="M456.5149 59.3253 L475.0538 33.37793" />
    <path d="M487.30258 70.6509 L497.40019 100.89979" />
    <path d="M497.40019 100.89979 L467.1513 110.9974" />
    <path d="M467.1513 110.9974 L457.05369 80.74851" />
    <path d="M457.05369 80.74851 L487.30258 70.6509" />
    <path d="M496.13134 114.77136 L486.52328 145.17929" />
    <path d="M486.52328 145.17929 L456.11535 135.57123" />
    <path d="M456.11535 135.57123 L465.72341 105.1633" />
    <path d="M465.72341 105.1633 L496.13134 114.77136" />
    <path d="M498.1687 162.42191 L472.52394 181.37721" />
    <path d="M472.52394 181.37721 L453.56865 155.73245" />
    <path d="M453.56865 155.73245 L479.21341 136.77715" />
    <path d="M479.21341 136.77715 L498.1687 162.42191" />
    <path d="M492.63668 208.93715 L460.74801 209.20148" />
    <path d="M460.74801 209.20148 L460.48368 177.31281" />
    <path d="M460.48368 177.31281 L492.37235 177.04848" />
    <path d="M492.37235 177.04848 L492.63668 208.93715" />
    <path d="M481.64774 250.0852 L455.69228 231.55762" />
    <path d="M455.69228 231.55762 L474.21986 205.60216" />
    <path d="M474.21986 205.60216 L500.17532 224.12974" />
    <path d="M500.17532 224.12974 L481.64774 250.0852" />
    <path d="M469.39816 283.68372 L459.28735 253.43924" />
    <path d="M459.28735 253.43924 L489.53183 243.32843" />
    <path d="M489.53183 243.32843 L499.64264 273.57291" />
    <path d="M499.64264 273.57291 L469.39816 283.68372" />
    <path d="M460.56561 310.43325 L470.1604 280.02113" />
    <path d="M470.1604 280.02113 L500.57252 289.61592" />
    <path d="M500.57252 289.61592 L490.97773 320.02804" />
    <path d="M490.97773 320.02804 L460.56561 310.43325" />
    <path d="M458.52291 333.64973 L484.1594 314.68324" />
    <path d="M484.1594 314.68324 L503.12589 340.31973" />
    <path d="M503.12589 340.31973 L477.4894 359.28621" />
    <path d="M477.4894 359.28621 L458.52291 333.64973" />
    <path d="M464.05011 357.99822 L495.93866 357.71998" />
    <path d="M495.93866 357.71998 L496.2169 389.60853" />
    <path d="M496.2169 389.60853 L464.32835 389.88677" />
    <path d="M464.32835 389.88677 L464.05011 357.99822" />
    <path d="M475.03655 387.71152 L501.00009 406.22777" />
    <path d="M501.00009 406.22777 L482.48384 432.19131" />
    <path d="M482.48384 432.19131 L456.5203 413.67506" />
    <path d="M456.5203 413.67506 L475.03655 387.71152" />
    <path d="M487.28693 424.9738 L497.41093 455.21387" />
    <path d="M497.41093 455.21387 L467.17087 465.33787" />
    <path d="M467.17087 465.33787 L457.04686 435.0978" />
    <path d="M457.04686 435.0978 L487.28693 424.9738" />
    <path d="M496.12327 469.08655 L486.54175 499.50286" />
    <path d="M486.54175 499.50286 L456.12544 489.92134" />
    <path d="M456.12544 489.92134 L465.70696 459.50503" />
    <path d="M465.70696 459.50503 L496.12327 469.08655" />
    <path d="M498.17129 516.73533 L472.54308 535.71299" />
    <path d="M472.54308 535.71299 L453.56541 510.08478" />
    <path d="M453.56541 510.08478 L479.19363 491.10711" />
    <path d="M479.19363 491.10711 L498.17129 516.73533" />
    <path d="M492.64894 563.25539 L460.76051 563.54754" />
    <path d="M460.76051 563.54754 L460.46836 531.65911" />
    <path d="M460.46836 531.65911 L492.35678 531.36696" />
    <path d="M492.35678 531.36696 L492.64894 563.25539" />
    <path d="M481.66499 604.41302 L455.69337 585.9081" />
    <path d="M455.69337 585.9081 L474.1983 559.93648" />
    <path d="M474.1983 559.93648 L500.16991 578.44141" />
    <path d="M500.16991 578.44141 L481.66499 604.41302" />
    <path d="M469.41381 638.02222 L459.27662 607.78658" />
    <path d="M459.27662 607.78658 L489.51226 597.64938" />
    <path d="M489.51226 597.64938 L499.64946 627.88503" />
    <path d="M499.64946 627.88503 L469.41381 638.02222" />
    <path d="M460.57369 664.77947 L470.14194 634.35899" />
    <path d="M470.14194 634.35899 L500.56242 643.92724" />
    <path d="M500.56242 643.92724 L490.99417 674.34772" />
    <path d="M490.99417 674.34772 L460.57369 664.77947" />
    <path d="M458.52033 687.99773 L484.14027 669.00889" />
    <path d="M484.14027 669.00889 L503.12911 694.62882" />
    <path d="M503.12911 694.62882 L477.50918 713.61766" />
    <path d="M477.50918 713.61766 L458.52033 687.99773" />
    <path d="M522.73565 35.21783 L532.83326 65.46672" />
    <path d="M532.83326 65.46672 L502.58438 75.56433" />
    <path d="M502.58438 75.56433 L492.48676 45.31544" />
    <path d="M492.48676 45.31544 L522.73565 35.21783" />
    <path d="M531.56441 79.33829 L521.95635 109.74622" />
    <path d="M521.95635 109.74622 L491.54842 100.13816" />
    <path d="M491.54842 100.13816 L501.15648 69.73023" />
    <path d="M501.15648 69.73023 L531.56441 79.33829" />
    <path d="M533.60178 126.98884 L507.95701 145.94414" />
    <path d="M507.95701 145.94414 L489.00172 120.29938" />
    <path d="M489.00172 120.29938 L514.64648 101.34408" />
    <path d="M514.64648 101.34408 L533.60178 126.98884" />
    <path d="M528.06975 173.50408 L496.18108 173.76841" />
    <path d="M496.18108 173.76841 L495.91675 141.87974" />
    <path d="M495.91675 141.87974 L527.80542 141.61541" />
    <path d="M527.80542 141.61541 L528.06975 173.50408" />
    <path d="M517.08081 214.65213 L491.12535 196.12455" />
    <path d="M491.12535 196.12455 L509.65293 170.16909" />
    <path d="M509.65293 170.16909 L535.60839 188.69667" />
    <path d="M535.60839 188.69667 L517.08081 214.65213" />
    <path d="M504.83123 248.25064 L494.72042 218.00616" />
    <path d="M494.72042 218.00616 L524.9649 207.89536" />
    <path d="M524.9649 207.89536 L535.07571 238.13984" />
    <path d="M535.07571 238.13984 L504.83123 248.25064" />
    <path d="M495.99868 275.00018 L505.59347 244.58806" />
    <path d="M505.59347 244.58806 L536.00559 254.18285" />
    <path d="M536.00559 254.18285 L526.4108 284.59497" />
    <path d="M526.4108 284.59497 L495.99868 275.00018" />
    <path d="M493.95598 298.21666 L519.59247 279.25017" />
    <path d="M519.59247 279.25017 L538.55896 304.88666" />
    <path d="M538.55896 304.88666 L512.92247 323.85314" />
    <path d="M512.92247 323.85314 L493.95598 298.21666" />
    <path d="M499.48318 322.56515 L531.37173 322.28691" />
    <path d="M531.37173 322.28691 L531.64997 354.17546" />
    <path d="M531.64997 354.17546 L499.76142 354.4537" />
    <path d="M499.76142 354.4537 L499.48318 322.56515" />
    <path d="M510.46962 352.27845 L536.43316 370.7947" />
    <path d="M536.43316 370.7947 L517.91691 396.75824" />
    <path d="M517.91691 396.75824 L491.95337 378.24199" />
    <path d="M491.95337 378.24199 L510.46962 352.27845" />
    <path d="M522.72 389.54073 L532.844 419.7808" />
    <path d="M532.844 419.7808 L502.60394 429.9048" />
    <path d="M502.60394 429.9048 L492.47993 399.66473" />
    <path d="M492.47993 399.66473 L522.72 389.54073" />
    <path d="M531.55634 433.65348 L521.97482 464.06979" />
    <path d="M521.97482 464.06979 L491.55851 454.48826" />
    <path d="M491.55851 454.48826 L501.14004 424.07196" />
    <path d="M501.14004 424.07196 L531.55634 433.65348" />
    <path d="M533.60436 481.30226 L507.97615 500.27992" />
    <path d="M507.97615 500.27992 L488.99848 474.65171" />
    <path d="M488.99848 474.65171 L514.6267 455.67404" />
    <path d="M514.6267 455.67404 L533.60436 481.30226" />
    <path d="M528.08201 527.82232 L496.19358 528.11447" />
    <path d="M496.19358 528.11447 L495.90143 496.22604" />
    <path d="M495.90143 496.22604 L527.78985 495.93389" />
    <path d="M527.78985 495.93389 L528.08201 527.82232" />
    <path d="M517.09806 568.97995 L491.12644 550.47502" />
    <path d="M491.12644 550.47502 L509.63137 524.50341" />
    <path d="M509.63137 524.50341 L535.60298 543.00833" />
    <path d="M535.60298 543.00833 L517.09806 568.97995" />
    <path d="M504.84688 602.58915 L494.70969 572.35351" />
    <path d="M494.70969 572.35351 L524.94533 562.21631" />
    <path d="M524.94533 562.21631 L535.08253 592.45196" />
    <path d="M535.08253 592.45196 L504.84688 602.58915" />
    <path d="M496.00676 629.3464 L505.57501 598.92592" />
    <path d="M505.57501 598.92592 L535.99549 608.49417" />
    <path d="M535.99549 608.49417 L526.42724 638.91465" />
    <path d="M526.42724 638.91465 L496.00676 629.3464" />
    <path d="M493.95341 652.56466 L519.57334 633.57582" />
    <path d="M519.57334 633.57582 L538.56218 659.19575" />
    <path d="M538.56218 659.19575 L512.94225 678.18459" />
    <path d="M512.94225 678.18459 L493.95341 652.56466" />
    <path d="M499.47092 676.90833 L531.35922 676.60227" />
    <path d="M531.35922 676.60227 L531.66528 708.49057" />
    <path d="M531.66528 708.49057 L499.77699 708.79663" />
    <path d="M499.77699 708.79663 L499.47092 676.90833" />
    <path d="M566.99748 43.90522 L557.38943 74.31315" />
    <path d="M557.38943 74.31315 L526.98149 64.70509" />
    <path d="M526.98149 64.70509 L536.58955 34.29716" />
    <path d="M536.58955 34.29716 L566.99748 43.90522" />
    <path d="M569.03485 91.55577 L543.39009 110.51107" />
    <path d="M543.39009 110.51107 L524.43479 84.86631" />
    <path d="M524.43479 84.86631 L550.07955 65.91101" />
    <path d="M550.07955 65.91101 L569.03485 91.55577" />
    <path d="M563.50282 138.07101 L531.61415 138.33534" />
    <path d="M531.61415 138.33534 L531.34982 106.44667" />
    <path d="M531.34982 106.44667 L563.23849 106.18234" />
    <path d="M563.23849 106.18234 L563.50282 138.07101" />
    <path d="M552.51388 179.21906 L526.55842 160.69148" />
    <path d="M526.55842 160.69148 L545.086 134.73602" />
    <path d="M545.086 134.73602 L571.04146 153.2636" />
    <path d="M571.04146 153.2636 L552.51388 179.21906" />
    <path d="M540.2643 212.81757 L530.15349 182.57309" />
    <path d="M530.15349 182.57309 L560.39797 172.46228" />
    <path d="M560.39797 172.46228 L570.50878 202.70676" />
    <path d="M570.50878 202.70676 L540.2643 212.81757" />
    <path d="M531.43175 239.56711 L541.02654 209.15499" />
    <path d="M541.02654 209.15499 L571.43866 218.74978" />
    <path d="M571.43866 218.74978 L561.84387 249.1619" />
    <path d="M561.84387 249.1619 L531.43175 239.56711" />
    <path d="M529.38906 262.78358 L555.02554 243.8171" />
    <path d="M555.02554 243.8171 L573.99203 269.45359" />
    <path d="M573.99203 269.45359 L548.35554 288.42007" />
    <path d="M548.35554 288.42007 L529.38906 262.78358" />
    <path d="M534.91625 287.13208 L566.8048 286.85384" />
    <path d="M566.8048 286.85384 L567.08304 318.74239" />
    <path d="M567.08304 318.74239 L535.19449 319.02063" />
    <path d="M535.19449 319.02063 L534.91625 287.13208" />
    <path d="M545.90269 316.84538 L571.86623 335.36163" />
    <path d="M571.86623 335.36163 L553.34998 361.32517" />
    <path d="M553.34998 361.32517 L527.38644 342.80892" />
    <path d="M527.38644 342.80892 L545.90269 316.84538" />
    <path d="M558.15307 354.10766 L568.27707 384.34772" />
    <path d="M568.27707 384.34772 L538.03701 394.47173" />
    <path d="M538.03701 394.47173 L527.913 364.23166" />
    <path d="M527.913 364.23166 L558.15307 354.10766" />
    <path d="M566.98941 398.22041 L557.40789 428.63671" />
    <path d="M557.40789 428.63671 L526.99159 419.05519" />
    <path d="M526.99159 419.05519 L536.57311 388.63889" />
    <path d="M536.57311 388.63889 L566.98941 398.22041" />
    <path d="M569.03743 445.86918 L543.40922 464.84685" />
    <path d="M543.40922 464.84685 L524.43156 439.21864" />
    <path d="M524.43156 439.21864 L550.05977 420.24097" />
    <path d="M550.05977 420.24097 L569.03743 445.86918" />
    <path d="M563.51508 492.38925 L531.62665 492.6814" />
    <path d="M531.62665 492.6814 L531.3345 460.79297" />
    <path d="M531.3345 460.79297 L563.22293 460.50082" />
    <path d="M563.22293 460.50082 L563.51508 492.38925" />
    <path d="M552.53113 533.54688 L526.55951 515.04195" />
    <path d="M526.55951 515.04195 L545.06444 489.07034" />
    <path d="M545.06444 489.07034 L571.03605 507.57526" />
    <path d="M571.03605 507.57526 L552.53113 533.54688" />
    <path d="M540.27995 567.15608 L530.14276 536.92044" />
    <path d="M530.14276 536.92044 L560.37841 526.78324" />
    <path d="M560.37841 526.78324 L570.5156 557.01889" />
    <path d="M570.5156 557.01889 L540.27995 567.15608" />
    <path d="M531.43983 593.91333 L541.00808 563.49285" />
    <path d="M541.00808 563.49285 L571.42856 573.0611" />
    <path d="M571.42856 573.0611 L561.86031 603.48158" />
    <path d="M561.86031 603.48158 L531.43983 593.91333" />
    <path d="M529.38648 617.13159 L555.00641 598.14275" />
    <path d="M555.00641 598.14275 L573.99525 623.76268" />
    <path d="M573.99525 623.76268 L548.37532 642.75152" />
    <path d="M548.37532 642.75152 L529.38648 617.13159" />
    <path d="M534.904 641.47526 L566.79229 641.1692" />
    <path d="M566.79229 641.1692 L567.09835 673.0575" />
    <path d="M567.09835 673.0575 L535.21006 673.36356" />
    <path d="M535.21006 673.36356 L534.904 641.47526" />
    <path d="M545.88545 671.17898 L571.86513 689.67257" />
    <path d="M571.86513 689.67257 L553.37154 715.65226" />
    <path d="M553.37154 715.65226 L527.39185 697.15867" />
    <path d="M527.39185 697.15867 L545.88545 671.17898" />
    <path d="M604.46792 56.1227 L578.82316 75.078" />
    <path d="M578.82316 75.078 L559.86786 49.43324" />
    <path d="M559.86786 49.43324 L585.51262 30.47794" />
    <path d="M585.51262 30.47794 L604.46792 56.1227" />
    <path d="M598.93589 102.63794 L567.04722 102.90227" />
    <path d="M567.04722 102.90227 L566.78289 71.0136" />
    <path d="M566.78289 71.0136 L598.67156 70.74927" />
    <path d="M598.67156 70.74927 L598.93589 102.63794" />
    <path d="M587.94695 143.78599 L561.99149 125.25841" />
    <path d="M561.99149 125.25841 L580.51907 99.30295" />
    <path d="M580.51907 99.30295 L606.47453 117.83053" />
    <path d="M606.47453 117.83053 L587.94695 143.78599" />
    <path d="M575.69737 177.3845 L565.58656 147.14002" />
    <path d="M565.58656 147.14002 L595.83104 137.02921" />
    <path d="M595.83104 137.02921 L605.94185 167.27369" />
    <path d="M605.94185 167.27369 L575.69737 177.3845" />
    <path d="M566.86482 204.13404 L576.45961 173.72192" />
    <path d="M576.45961 173.72192 L606.87173 183.31671" />
    <path d="M606.87173 183.31671 L597.27694 213.72883" />
    <path d="M597.27694 213.72883 L566.86482 204.13404" />
    <path d="M564.82213 227.35051 L590.45862 208.38403" />
    <path d="M590.45862 208.38403 L609.4251 234.02052" />
    <path d="M609.4251 234.02052 L583.78861 252.987" />
    <path d="M583.78861 252.987 L564.82213 227.35051" />
    <path d="M570.34932 251.699 L602.23787 251.42077" />
    <path d="M602.23787 251.42077 L602.51611 283.30932" />
    <path d="M602.51611 283.30932 L570.62756 283.58755" />
    <path d="M570.62756 283.58755 L570.34932 251.699" />
    <path d="M581.33576 281.41231 L607.2993 299.92856" />
    <path d="M607.2993 299.92856 L588.78305 325.8921" />
    <path d="M588.78305 325.8921 L562.81951 307.37584" />
    <path d="M562.81951 307.37584 L581.33576 281.41231" />
    <path d="M593.58614 318.67459 L603.71014 348.91465" />
    <path d="M603.71014 348.91465 L573.47008 359.03866" />
    <path d="M573.47008 359.03866 L563.34608 328.79859" />
    <path d="M563.34608 328.79859 L593.58614 318.67459" />
    <path d="M602.42248 362.78734 L592.84096 393.20364" />
    <path d="M592.84096 393.20364 L562.42466 383.62212" />
    <path d="M562.42466 383.62212 L572.00618 353.20582" />
    <path d="M572.00618 353.20582 L602.42248 362.78734" />
    <path d="M604.4705 410.43611 L578.84229 429.41378" />
    <path d="M578.84229 429.41378 L559.86463 403.78557" />
    <path d="M559.86463 403.78557 L585.49284 384.8079" />
    <path d="M585.49284 384.8079 L604.4705 410.43611" />
    <path d="M598.94815 456.95617 L567.05972 457.24833" />
    <path d="M567.05972 457.24833 L566.76757 425.3599" />
    <path d="M566.76757 425.3599 L598.656 425.06775" />
    <path d="M598.656 425.06775 L598.94815 456.95617" />
    <path d="M587.9642 498.11381 L561.99258 479.60888" />
    <path d="M561.99258 479.60888 L580.49751 453.63727" />
    <path d="M580.49751 453.63727 L606.46912 472.14219" />
    <path d="M606.46912 472.14219 L587.9642 498.11381" />
    <path d="M575.71302 531.72301 L565.57583 501.48737" />
    <path d="M565.57583 501.48737 L595.81148 491.35017" />
    <path d="M595.81148 491.35017 L605.94867 521.58582" />
    <path d="M605.94867 521.58582 L575.71302 531.72301" />
    <path d="M566.8729 558.48026 L576.44115 528.05978" />
    <path d="M576.44115 528.05978 L606.86163 537.62803" />
    <path d="M606.86163 537.62803 L597.29338 568.04851" />
    <path d="M597.29338 568.04851 L566.8729 558.48026" />
    <path d="M564.81955 581.69852 L590.43948 562.70968" />
    <path d="M590.43948 562.70968 L609.42832 588.32961" />
    <path d="M609.42832 588.32961 L583.80839 607.31845" />
    <path d="M583.80839 607.31845 L564.81955 581.69852" />
    <path d="M570.33707 606.04219 L602.22536 605.73613" />
    <path d="M602.22536 605.73613 L602.53142 637.62442" />
    <path d="M602.53142 637.62442 L570.64313 637.93049" />
    <path d="M570.64313 637.93049 L570.33707 606.04219" />
    <path d="M581.31852 635.74591 L607.2982 654.2395" />
    <path d="M607.2982 654.2395 L588.80461 680.21919" />
    <path d="M588.80461 680.21919 L562.82492 661.72559" />
    <path d="M562.82492 661.72559 L581.31852 635.74591" />
    <path d="M593.57049 672.9975 L603.72087 703.22872" />
    <path d="M603.72087 703.22872 L573.48965 713.37911" />
    <path d="M573.48965 713.37911 L563.33926 683.14789" />
    <path d="M563.33926 683.14789 L593.57049 672.9975" />
    <path d="M634.36896 67.20487 L602.48029 67.4692" />
    <path d="M602.48029 67.4692 L602.21596 35.58053" />
    <path d="M602.21596 35.58053 L634.10463 35.3162" />
    <path d="M634.10463 35.3162 L634.36896 67.20487" />
    <path d="M623.38002 108.35292 L597.42456 89.82534" />
    <path d="M597.42456 89.82534 L615.95214 63.86988" />
    <path d="M615.95214 63.86988 L641.9076 82.39746" />
    <path d="M641.9076 82.39746 L623.38002 108.35292" />
    <path d="M611.13044 141.95143 L601.01963 111.70695" />
    <path d="M601.01963 111.70695 L631.26411 101.59614" />
    <path d="M631.26411 101.59614 L641.37492 131.84062" />
    <path d="M641.37492 131.84062 L611.13044 141.95143" />
    <path d="M602.29789 168.70097 L611.89268 138.28885" />
    <path d="M611.89268 138.28885 L642.3048 147.88364" />
    <path d="M642.3048 147.88364 L632.71001 178.29576" />
    <path d="M632.71001 178.29576 L602.29789 168.70097" />
    <path d="M600.2552 191.91744 L625.89169 172.95096" />
    <path d="M625.89169 172.95096 L644.85817 198.58745" />
    <path d="M644.85817 198.58745 L619.22168 217.55393" />
    <path d="M619.22168 217.55393 L600.2552 191.91744" />
    <path d="M605.78239 216.26593 L637.67094 215.98769" />
    <path d="M637.67094 215.98769 L637.94918 247.87624" />
    <path d="M637.94918 247.87624 L606.06063 248.15448" />
    <path d="M606.06063 248.15448 L605.78239 216.26593" />
    <path d="M616.76884 245.97923 L642.73237 264.49549" />
    <path d="M642.73237 264.49549 L624.21612 290.45903" />
    <path d="M624.21612 290.45903 L598.25258 271.94277" />
    <path d="M598.25258 271.94277 L616.76884 245.97923" />
    <path d="M629.01921 283.24152 L639.14322 313.48158" />
    <path d="M639.14322 313.48158 L608.90315 323.60558" />
    <path d="M608.90315 323.60558 L598.77915 293.36552" />
    <path d="M598.77915 293.36552 L629.01921 283.24152" />
    <path d="M637.85555 327.35427 L628.27403 357.77057" />
    <path d="M628.27403 357.77057 L597.85773 348.18905" />
    <path d="M597.85773 348.18905 L607.43925 317.77275" />
    <path d="M607.43925 317.77275 L637.85555 327.35427" />
    <path d="M639.90357 375.00304 L614.27536 393.98071" />
    <path d="M614.27536 393.98071 L595.2977 368.3525" />
    <path d="M595.2977 368.3525 L620.92591 349.37483" />
    <path d="M620.92591 349.37483 L639.90357 375.00304" />
    <path d="M634.38122 421.5231 L602.49279 421.81525" />
    <path d="M602.49279 421.81525 L602.20064 389.92683" />
    <path d="M602.20064 389.92683 L634.08907 389.63468" />
    <path d="M634.08907 389.63468 L634.38122 421.5231" />
    <path d="M623.39727 462.68074 L597.42565 444.17581" />
    <path d="M597.42565 444.17581 L615.93058 418.2042" />
    <path d="M615.93058 418.2042 L641.90219 436.70912" />
    <path d="M641.90219 436.70912 L623.39727 462.68074" />
    <path d="M611.14609 496.28994 L601.0089 466.05429" />
    <path d="M601.0089 466.05429 L631.24455 455.9171" />
    <path d="M631.24455 455.9171 L641.38174 486.15275" />
    <path d="M641.38174 486.15275 L611.14609 496.28994" />
    <path d="M602.30597 523.04718 L611.87422 492.6267" />
    <path d="M611.87422 492.6267 L642.2947 502.19496" />
    <path d="M642.2947 502.19496 L632.72645 532.61544" />
    <path d="M632.72645 532.61544 L602.30597 523.04718" />
    <path d="M600.25262 546.26545 L625.87255 527.2766" />
    <path d="M625.87255 527.2766 L644.86139 552.89654" />
    <path d="M644.86139 552.89654 L619.24146 571.88538" />
    <path d="M619.24146 571.88538 L600.25262 546.26545" />
    <path d="M605.77014 570.60912 L637.65843 570.30306" />
    <path d="M637.65843 570.30306 L637.96449 602.19135" />
    <path d="M637.96449 602.19135 L606.0762 602.49742" />
    <path d="M606.0762 602.49742 L605.77014 570.60912" />
    <path d="M616.75159 600.31284 L642.73127 618.80643" />
    <path d="M642.73127 618.80643 L624.23768 644.78612" />
    <path d="M624.23768 644.78612 L598.25799 626.29252" />
    <path d="M598.25799 626.29252 L616.75159 600.31284" />
    <path d="M629.00356 637.56443 L639.15394 667.79565" />
    <path d="M639.15394 667.79565 L608.92272 677.94604" />
    <path d="M608.92272 677.94604 L598.77234 647.71481" />
    <path d="M598.77234 647.71481 L629.00356 637.56443" />
    <path d="M637.84746 681.66947 L628.29249 712.09412" />
    <path d="M628.29249 712.09412 L597.86783 702.53914" />
    <path d="M597.86783 702.53914 L607.42281 672.11449" />
    <path d="M607.42281 672.11449 L637.84746 681.66947" />
    <path d="M658.81309 72.91985 L632.85763 54.39227" />
    <path d="M632.85763 54.39227 L651.38521 28.43681" />
    <path d="M651.38521 28.43681 L677.34067 46.96439" />
    <path d="M677.34067 46.96439 L658.81309 72.91985" />
    <path d="M646.56351 106.51836 L636.4527 76.27388" />
    <path d="M636.4527 76.27388 L666.69718 66.16307" />
    <path d="M666.69718 66.16307 L676.80799 96.40755" />
    <path d="M676.80799 96.40755 L646.56351 106.51836" />
    <path d="M637.73096 133.26789 L647.32575 102.85577" />
    <path d="M647.32575 102.85577 L677.73787 112.45056" />
    <path d="M677.73787 112.45056 L668.14308 142.86268" />
    <path d="M668.14308 142.86268 L637.73096 133.26789" />
    <path d="M635.68827 156.48437 L661.32476 137.51789" />
    <path d="M661.32476 137.51789 L680.29124 163.15438" />
    <path d="M680.29124 163.15438 L654.65475 182.12086" />
    <path d="M654.65475 182.12086 L635.68827 156.48437" />
    <path d="M641.21546 180.83286 L673.10401 180.55462" />
    <path d="M673.10401 180.55462 L673.38225 212.44317" />
    <path d="M673.38225 212.44317 L641.4937 212.72141" />
    <path d="M641.4937 212.72141 L641.21546 180.83286" />
    <path d="M652.20191 210.54616 L678.16545 229.06242" />
    <path d="M678.16545 229.06242 L659.64919 255.02596" />
    <path d="M659.64919 255.02596 L633.68565 236.5097" />
    <path d="M633.68565 236.5097 L652.20191 210.54616" />
    <path d="M664.45228 247.80845 L674.57629 278.04851" />
    <path d="M674.57629 278.04851 L644.33622 288.17251" />
    <path d="M644.33622 288.17251 L634.21222 257.93245" />
    <path d="M634.21222 257.93245 L664.45228 247.80845" />
    <path d="M673.28862 291.9212 L663.7071 322.3375" />
    <path d="M663.7071 322.3375 L633.2908 312.75598" />
    <path d="M633.2908 312.75598 L642.87232 282.33968" />
    <path d="M642.87232 282.33968 L673.28862 291.9212" />
    <path d="M675.33665 339.56997 L649.70843 358.54764" />
    <path d="M649.70843 358.54764 L630.73077 332.91943" />
    <path d="M630.73077 332.91943 L656.35898 313.94176" />
    <path d="M656.35898 313.94176 L675.33665 339.56997" />
    <path d="M669.81429 386.09003 L637.92586 386.38218" />
    <path d="M637.92586 386.38218 L637.63371 354.49376" />
    <path d="M637.63371 354.49376 L669.52214 354.20161" />
    <path d="M669.52214 354.20161 L669.81429 386.09003" />
    <path d="M658.83034 427.24767 L632.85872 408.74274" />
    <path d="M632.85872 408.74274 L651.36365 382.77113" />
    <path d="M651.36365 382.77113 L677.33526 401.27605" />
    <path d="M677.33526 401.27605 L658.83034 427.24767" />
    <path d="M646.57917 460.85687 L636.44197 430.62122" />
    <path d="M636.44197 430.62122 L666.67762 420.48403" />
    <path d="M666.67762 420.48403 L676.81481 450.71968" />
    <path d="M676.81481 450.71968 L646.57917 460.85687" />
    <path d="M637.73904 487.61411 L647.30729 457.19363" />
    <path d="M647.30729 457.19363 L677.72777 466.76188" />
    <path d="M677.72777 466.76188 L668.15952 497.18237" />
    <path d="M668.15952 497.18237 L637.73904 487.61411" />
    <path d="M635.68569 510.83238 L661.30562 491.84353" />
    <path d="M661.30562 491.84353 L680.29446 517.46346" />
    <path d="M680.29446 517.46346 L654.67453 536.45231" />
    <path d="M654.67453 536.45231 L635.68569 510.83238" />
    <path d="M641.20321 535.17605 L673.0915 534.86999" />
    <path d="M673.0915 534.86999 L673.39757 566.75828" />
    <path d="M673.39757 566.75828 L641.50927 567.06435" />
    <path d="M641.50927 567.06435 L641.20321 535.17605" />
    <path d="M652.18466 564.87977 L678.16434 583.37336" />
    <path d="M678.16434 583.37336 L659.67075 609.35305" />
    <path d="M659.67075 609.35305 L633.69107 590.85945" />
    <path d="M633.69107 590.85945 L652.18466 564.87977" />
    <path d="M664.43663 602.13136 L674.58701 632.36258" />
    <path d="M674.58701 632.36258 L644.35579 642.51297" />
    <path d="M644.35579 642.51297 L634.20541 612.28174" />
    <path d="M634.20541 612.28174 L664.43663 602.13136" />
    <path d="M673.28054 646.2364 L663.72556 676.66105" />
    <path d="M663.72556 676.66105 L633.30091 667.10607" />
    <path d="M633.30091 667.10607 L642.85588 636.68142" />
    <path d="M642.85588 636.68142 L673.28054 646.2364" />
    <path d="M675.33922 693.88338 L649.72757 712.8834" />
    <path d="M649.72757 712.8834 L630.72755 687.27176" />
    <path d="M630.72755 687.27176 L656.3392 668.27174" />
    <path d="M656.3392 668.27174 L675.33922 693.88338" />
    <path d="M681.99658 71.08529 L671.88577 40.84081" />
    <path d="M671.88577 40.84081 L702.13025 30.73" />
    <path d="M702.13025 30.73 L712.24106 60.97448" />
    <path d="M712.24106 60.97448 L681.99658 71.08529" />
    <path d="M673.16403 97.83482 L682.75882 67.4227" />
    <path d="M682.75882 67.4227 L713.17094 77.01749" />
    <path d="M713.17094 77.01749 L703.57615 107.42961" />
    <path d="M703.57615 107.42961 L673.16403 97.83482" />
    <path d="M671.12134 121.0513 L696.75783 102.08482" />
    <path d="M696.75783 102.08482 L715.72431 127.72131" />
    <path d="M715.72431 127.72131 L690.08782 146.68779" />
    <path d="M690.08782 146.68779 L671.12134 121.0513" />
    <path d="M676.64853 145.39979 L708.53708 145.12155" />
    <path d="M708.53708 145.12155 L708.81532 177.0101" />
    <path d="M708.81532 177.0101 L676.92677 177.28834" />
    <path d="M676.92677 177.28834 L676.64853 145.39979" />
    <path d="M687.63498 175.11309 L713.59852 193.62935" />
    <path d="M713.59852 193.62935 L695.08226 219.59289" />
    <path d="M695.08226 219.59289 L669.11872 201.07663" />
    <path d="M669.11872 201.07663 L687.63498 175.11309" />
    <path d="M699.88535 212.37537 L710.00936 242.61544" />
    <path d="M710.00936 242.61544 L679.76929 252.73944" />
    <path d="M679.76929 252.73944 L669.64529 222.49938" />
    <path d="M669.64529 222.49938 L699.88535 212.37537" />
    <path d="M708.72169 256.48813 L699.14017 286.90443" />
    <path d="M699.14017 286.90443 L668.72387 277.32291" />
    <path d="M668.72387 277.32291 L678.30539 246.90661" />
    <path d="M678.30539 246.90661 L708.72169 256.48813" />
    <path d="M710.76972 304.1369 L685.1415 323.11457" />
    <path d="M685.1415 323.11457 L666.16384 297.48635" />
    <path d="M666.16384 297.48635 L691.79205 278.50869" />
    <path d="M691.79205 278.50869 L710.76972 304.1369" />
    <path d="M705.24736 350.65696 L673.35893 350.94911" />
    <path d="M673.35893 350.94911 L673.06678 319.06069" />
    <path d="M673.06678 319.06069 L704.95521 318.76854" />
    <path d="M704.95521 318.76854 L705.24736 350.65696" />
    <path d="M694.26341 391.8146 L668.2918 373.30967" />
    <path d="M668.2918 373.30967 L686.79672 347.33806" />
    <path d="M686.79672 347.33806 L712.76834 365.84298" />
    <path d="M712.76834 365.84298 L694.26341 391.8146" />
    <path d="M682.01224 425.4238 L671.87504 395.18815" />
    <path d="M671.87504 395.18815 L702.11069 385.05096" />
    <path d="M702.11069 385.05096 L712.24788 415.28661" />
    <path d="M712.24788 415.28661 L682.01224 425.4238" />
    <path d="M673.17211 452.18104 L682.74036 421.76056" />
    <path d="M682.74036 421.76056 L713.16084 431.32881" />
    <path d="M713.16084 431.32881 L703.59259 461.74929" />
    <path d="M703.59259 461.74929 L673.17211 452.18104" />
    <path d="M671.11876 475.39931 L696.73869 456.41046" />
    <path d="M696.73869 456.41046 L715.72753 482.03039" />
    <path d="M715.72753 482.03039 L690.1076 501.01924" />
    <path d="M690.1076 501.01924 L671.11876 475.39931" />
    <path d="M676.63628 499.74298 L708.52457 499.43692" />
    <path d="M708.52457 499.43692 L708.83064 531.32521" />
    <path d="M708.83064 531.32521 L676.94234 531.63127" />
    <path d="M676.94234 531.63127 L676.63628 499.74298" />
    <path d="M687.61773 529.4467 L713.59742 547.94029" />
    <path d="M713.59742 547.94029 L695.10382 573.91998" />
    <path d="M695.10382 573.91998 L669.12414 555.42638" />
    <path d="M669.12414 555.42638 L687.61773 529.4467" />
    <path d="M699.8697 566.69829 L710.02008 596.92951" />
    <path d="M710.02008 596.92951 L679.78886 607.07989" />
    <path d="M679.78886 607.07989 L669.63848 576.84867" />
    <path d="M669.63848 576.84867 L699.8697 566.69829" />
    <path d="M708.71361 610.80333 L699.15863 641.22798" />
    <path d="M699.15863 641.22798 L668.73398 631.673" />
    <path d="M668.73398 631.673 L678.28896 601.24835" />
    <path d="M678.28896 601.24835 L708.71361 610.80333" />
    <path d="M710.77229 658.45031 L685.16064 677.45033" />
    <path d="M685.16064 677.45033 L666.16062 651.83869" />
    <path d="M666.16062 651.83869 L691.77227 632.83867" />
    <path d="M691.77227 632.83867 L710.77229 658.45031" />
    <path d="M705.25961 704.97519 L673.37145 705.29516" />
    <path d="M673.37145 705.29516 L673.05147 673.407" />
    <path d="M673.05147 673.407 L704.93963 673.08703" />
    <path d="M704.93963 673.08703 L705.25961 704.97519" />
  </g>
</svg>