<?xml version="1.0" standalone="no"?>
<!DOCTYPE svg PUBLIC "-//W3C//DTD SVG 1.1//EN" 
    "http://www.w3.org/Graphics/SVG/1.1/DTD/svg11.dtd">
<svg width="21cm" height="21cm"
    xmlns="http://www.w3.org/2000/svg" version="1.1" viewBox="0 0 744.09449 744.09449">
  <g fill="none" stroke="black" stroke-width="0.03cm">
    <path d="M54.19863 33.1331 L75.53704 56.83182" />
    <path d="M75.53704 56.83182 L51.83833 78.17023" />
    <path d="M51.83833 78.17023 L30.49991 54.47152" />
    <path d="M30.49991 54.47152 L54.19863 33.1331" />
    <path d="M54.89655 68.61498 L75.3949 93.04396" />
    <path d="M75.3949 93.04396 L50.96592 113.5423" />
    <path d="M50.96592 113.5423 L30.46758 89.11332" />
    <path d="M30.46758 89.11332 L54.89655 68.61498" />
    <path d="M55.59235 104.12118 L75.22565 129.25066" />
    <path d="M75.22565 129.25066 L50.09617 148.88396" />
    <path d="M50.09617 148.88396 L30.46288 123.75448" />
    <path d="M30.46288 123.75448 L55.59235 104.12118" />
    <path d="M56.28517 139.65162 L75.02951 165.45098" />
    <path d="M75.02951 165.45098 L49.23015 184.19532" />
    <path d="M49.23015 184.19532 L30.48581 158.39595" />
    <path d="M30.48581 158.39595 L56.28517 139.65162" />
    <path d="M56.97418 175.20618 L74.80671 201.64399" />
    <path d="M74.80671 201.64399 L48.36889 219.47652" />
    <path d="M48.36889 219.47652 L30.53636 193.03871" />
    <path d="M30.53636 193.03871 L56.97418 175.20618" />
    <path d="M57.65852 210.78471 L74.55752 237.82877" />
    <path d="M74.55752 237.82877 L47.51347 254.72777" />
    <path d="M47.51347 254.72777 L30.61447 227.68371" />
    <path d="M30.61447 227.68371 L57.65852 210.78471" />
    <path d="M58.33737 246.38704 L74.28225 274.00439" />
    <path d="M74.28225 274.00439 L46.6649 289.94927" />
    <path d="M46.6649 289.94927 L30.72002 262.33192" />
    <path d="M30.72002 262.33192 L58.33737 246.38704" />
    <path d="M59.0099 282.01296 L73.98123 310.16995" />
    <path d="M73.98123 310.16995 L45.82424 325.14128" />
    <path d="M45.82424 325.14128 L30.85291 296.98429" />
    <path d="M30.85291 296.98429 L59.0099 282.01296" />
    <path d="M59.67529 317.66223 L73.65484 346.32456" />
    <path d="M73.65484 346.32456 L44.99251 360.30411" />
    <path d="M44.99251 360.30411 L31.01296 331.64178" />
    <path d="M31.01296 331.64178 L59.67529 317.66223" />
    <path d="M60.33272 353.33458 L73.30346 382.46733" />
    <path d="M73.30346 382.46733 L44.17071 395.43807" />
    <path d="M44.17071 395.43807 L31.19997 366.30532" />
    <path d="M31.19997 366.30532 L60.33272 353.33458" />
    <path d="M60.98141 389.02974 L72.92753 418.59742" />
    <path d="M72.92753 418.59742 L43.35985 430.54353" />
    <path d="M43.35985 430.54353 L31.41374 400.97586" />
    <path d="M31.41374 400.97586 L60.98141 389.02974" />
    <path d="M61.62055 424.74738 L72.5275 454.71395" />
    <path d="M72.5275 454.71395 L42.56092 465.6209" />
    <path d="M42.56092 465.6209 L31.65398 435.65432" />
    <path d="M31.65398 435.65432 L61.62055 424.74738" />
    <path d="M62.24938 460.48715 L72.10386 490.81611" />
    <path d="M72.10386 490.81611 L41.77489 500.67059" />
    <path d="M41.77489 500.67059 L31.92041 470.34163" />
    <path d="M31.92041 470.34163 L62.24938 460.48715" />
    <path d="M62.86712 496.24867 L71.65713 526.90308" />
    <path d="M71.65713 526.90308 L41.00272 535.69309" />
    <path d="M41.00272 535.69309 L32.21271 505.03869" />
    <path d="M32.21271 505.03869 L62.86712 496.24867" />
    <path d="M63.47301 532.03156 L71.18785 562.97406" />
    <path d="M71.18785 562.97406 L40.24535 570.68889" />
    <path d="M40.24535 570.68889 L32.53051 539.74639" />
    <path d="M32.53051 539.74639 L63.47301 532.03156" />
    <path d="M64.06634 567.83538 L70.69659 599.02828" />
    <path d="M70.69659 599.02828 L39.50369 605.65853" />
    <path d="M39.50369 605.65853 L32.87344 574.46563" />
    <path d="M32.87344 574.46563 L64.06634 567.83538" />
    <path d="M64.64636 603.65968 L70.18396 635.06497" />
    <path d="M70.18396 635.06497 L38.77867 640.60257" />
    <path d="M38.77867 640.60257 L33.24107 609.19728" />
    <path d="M33.24107 609.19728 L64.64636 603.65968" />
    <path d="M65.21237 639.50398 L69.65057 671.0834" />
    <path d="M69.65057 671.0834 L38.07115 675.5216" />
    <path d="M38.07115 675.5216 L33.63295 643.94218" />
    <path d="M33.63295 643.94218 L65.21237 639.50398" />
    <path d="M65.76369 675.36779 L69.09707 707.08286" />
    <path d="M69.09707 707.08286 L37.38201 710.41625" />
    <path d="M37.38201 710.41625 L34.04862 678.70118" />
    <path d="M34.04862 678.70118 L65.76369 675.36779" />
    <path d="M90.32962 33.18191 L110.82797 57.61088" />
    <path d="M110.82797 57.61088 L86.39899 78.10923" />
    <path d="M86.39899 78.10923 L65.90065 53.68025" />
    <path d="M65.90065 53.68025 L90.32962 33.18191" />
    <path d="M91.02542 68.68811 L110.65872 93.81759" />
    <path d="M110.65872 93.81759 L85.52925 113.45089" />
    <path d="M85.52925 113.45089 L65.89595 88.32141" />
    <path d="M65.89595 88.32141 L91.02542 68.68811" />
    <path d="M91.71825 104.21855 L110.46258 130.01791" />
    <path d="M110.46258 130.01791 L84.66322 148.76224" />
    <path d="M84.66322 148.76224 L65.91888 122.96288" />
    <path d="M65.91888 122.96288 L91.71825 104.21855" />
    <path d="M92.40725 139.77311 L110.23978 166.21092" />
    <path d="M110.23978 166.21092 L83.80196 184.04345" />
    <path d="M83.80196 184.04345 L65.96943 157.60564" />
    <path d="M65.96943 157.60564 L92.40725 139.77311" />
    <path d="M93.09159 175.35164 L109.99059 202.3957" />
    <path d="M109.99059 202.3957 L82.94654 219.2947" />
    <path d="M82.94654 219.2947 L66.04754 192.25064" />
    <path d="M66.04754 192.25064 L93.09159 175.35164" />
    <path d="M93.77044 210.95397 L109.71532 238.57132" />
    <path d="M109.71532 238.57132 L82.09798 254.5162" />
    <path d="M82.09798 254.5162 L66.15309 226.89885" />
    <path d="M66.15309 226.89885 L93.77044 210.95397" />
    <path d="M94.44297 246.57989 L109.4143 274.73688" />
    <path d="M109.4143 274.73688 L81.25731 289.70821" />
    <path d="M81.25731 289.70821 L66.28598 261.55122" />
    <path d="M66.28598 261.55122 L94.44297 246.57989" />
    <path d="M95.10836 282.22915 L109.08791 310.89148" />
    <path d="M109.08791 310.89148 L80.42558 324.87104" />
    <path d="M80.42558 324.87104 L66.44603 296.20871" />
    <path d="M66.44603 296.20871 L95.10836 282.22915" />
    <path d="M95.76579 317.90151 L108.73653 347.03426" />
    <path d="M108.73653 347.03426 L79.60378 360.005" />
    <path d="M79.60378 360.005 L66.63305 330.87225" />
    <path d="M66.63305 330.87225 L95.76579 317.90151" />
    <path d="M96.41448 353.59667 L108.3606 383.16434" />
    <path d="M108.3606 383.16434 L78.79292 395.11046" />
    <path d="M78.79292 395.11046 L66.84681 365.54279" />
    <path d="M66.84681 365.54279 L96.41448 353.59667" />
    <path d="M97.05363 389.31431 L107.96057 419.28088" />
    <path d="M107.96057 419.28088 L77.99399 430.18782" />
    <path d="M77.99399 430.18782 L67.08705 400.22125" />
    <path d="M67.08705 400.22125 L97.05363 389.31431" />
    <path d="M97.68245 425.05408 L107.53693 455.38304" />
    <path d="M107.53693 455.38304 L77.20796 465.23752" />
    <path d="M77.20796 465.23752 L67.35348 434.90856" />
    <path d="M67.35348 434.90856 L97.68245 425.05408" />
    <path d="M98.30019 460.8156 L107.0902 491.47001" />
    <path d="M107.0902 491.47001 L76.43579 500.26002" />
    <path d="M76.43579 500.26002 L67.64578 469.60561" />
    <path d="M67.64578 469.60561 L98.30019 460.8156" />
    <path d="M98.90609 496.59849 L106.62092 527.54099" />
    <path d="M106.62092 527.54099 L75.67842 535.25582" />
    <path d="M75.67842 535.25582 L67.96358 504.31332" />
    <path d="M67.96358 504.31332 L98.90609 496.59849" />
    <path d="M99.49941 532.40231 L106.12966 563.59521" />
    <path d="M106.12966 563.59521 L74.93677 570.22546" />
    <path d="M74.93677 570.22546 L68.30651 539.03256" />
    <path d="M68.30651 539.03256 L99.49941 532.40231" />
    <path d="M100.07943 568.22661 L105.61703 599.6319" />
    <path d="M105.61703 599.6319 L74.21174 605.16949" />
    <path d="M74.21174 605.16949 L68.67414 573.76421" />
    <path d="M68.67414 573.76421 L100.07943 568.22661" />
    <path d="M100.64544 604.07091 L105.08364 635.65033" />
    <path d="M105.08364 635.65033 L73.50422 640.08852" />
    <path d="M73.50422 640.08852 L69.06603 608.50911" />
    <path d="M69.06603 608.50911 L100.64544 604.07091" />
    <path d="M101.19676 639.93472 L104.53015 671.64979" />
    <path d="M104.53015 671.64979 L72.81508 674.98318" />
    <path d="M72.81508 674.98318 L69.48169 643.26811" />
    <path d="M69.48169 643.26811 L101.19676 639.93472" />
    <path d="M101.73271 675.8175 L103.95722 707.62959" />
    <path d="M103.95722 707.62959 L72.14514 709.8541" />
    <path d="M72.14514 709.8541 L69.92062 678.04202" />
    <path d="M69.92062 678.04202 L101.73271 675.8175" />
    <path d="M126.45849 33.25504 L146.09179 58.38452" />
    <path d="M146.09179 58.38452 L120.96232 78.01782" />
    <path d="M120.96232 78.01782 L101.32902 52.88834" />
    <path d="M101.32902 52.88834 L126.45849 33.25504" />
    <path d="M127.15132 68.78548 L145.89565 94.58484" />
    <path d="M145.89565 94.58484 L120.09629 113.32917" />
    <path d="M120.09629 113.32917 L101.35196 87.52981" />
    <path d="M101.35196 87.52981 L127.15132 68.78548" />
    <path d="M127.84032 104.34004 L145.67285 130.77785" />
    <path d="M145.67285 130.77785 L119.23504 148.61038" />
    <path d="M119.23504 148.61038 L101.40251 122.17257" />
    <path d="M101.40251 122.17257 L127.84032 104.34004" />
    <path d="M128.52466 139.91857 L145.42366 166.96263" />
    <path d="M145.42366 166.96263 L118.37961 183.86163" />
    <path d="M118.37961 183.86163 L101.48061 156.81757" />
    <path d="M101.48061 156.81757 L128.52466 139.91857" />
    <path d="M129.20351 175.5209 L145.14839 203.13825" />
    <path d="M145.14839 203.13825 L117.53105 219.08313" />
    <path d="M117.53105 219.08313 L101.58616 191.46578" />
    <path d="M101.58616 191.46578 L129.20351 175.5209" />
    <path d="M129.87604 211.14682 L144.84738 239.30381" />
    <path d="M144.84738 239.30381 L116.69039 254.27514" />
    <path d="M116.69039 254.27514 L101.71905 226.11815" />
    <path d="M101.71905 226.11815 L129.87604 211.14682" />
    <path d="M130.54143 246.79608 L144.52098 275.45841" />
    <path d="M144.52098 275.45841 L115.85865 289.43797" />
    <path d="M115.85865 289.43797 L101.8791 260.77564" />
    <path d="M101.8791 260.77564 L130.54143 246.79608" />
    <path d="M131.19887 282.46844 L144.1696 311.60119" />
    <path d="M144.1696 311.60119 L115.03685 324.57193" />
    <path d="M115.03685 324.57193 L102.06612 295.43918" />
    <path d="M102.06612 295.43918 L131.19887 282.46844" />
    <path d="M131.84755 318.1636 L143.79367 347.73127" />
    <path d="M143.79367 347.73127 L114.22599 359.67739" />
    <path d="M114.22599 359.67739 L102.27988 330.10972" />
    <path d="M102.27988 330.10972 L131.84755 318.1636" />
    <path d="M132.4867 353.88124 L143.39364 383.84781" />
    <path d="M143.39364 383.84781 L113.42706 394.75475" />
    <path d="M113.42706 394.75475 L102.52012 364.78818" />
    <path d="M102.52012 364.78818 L132.4867 353.88124" />
    <path d="M133.11552 389.62101 L142.97 419.94997" />
    <path d="M142.97 419.94997 L112.64103 429.80445" />
    <path d="M112.64103 429.80445 L102.78655 399.47548" />
    <path d="M102.78655 399.47548 L133.11552 389.62101" />
    <path d="M133.73326 425.38253 L142.52327 456.03694" />
    <path d="M142.52327 456.03694 L111.86886 464.82695" />
    <path d="M111.86886 464.82695 L103.07885 434.17254" />
    <path d="M103.07885 434.17254 L133.73326 425.38253" />
    <path d="M134.33916 461.16542 L142.05399 492.10792" />
    <path d="M142.05399 492.10792 L111.11149 499.82275" />
    <path d="M111.11149 499.82275 L103.39666 468.88025" />
    <path d="M103.39666 468.88025 L134.33916 461.16542" />
    <path d="M134.93248 496.96924 L141.56273 528.16213" />
    <path d="M141.56273 528.16213 L110.36984 534.79239" />
    <path d="M110.36984 534.79239 L103.73958 503.59949" />
    <path d="M103.73958 503.59949 L134.93248 496.96924" />
    <path d="M135.5125 532.79354 L141.0501 564.19882" />
    <path d="M141.0501 564.19882 L109.64481 569.73642" />
    <path d="M109.64481 569.73642 L104.10721 538.33114" />
    <path d="M104.10721 538.33114 L135.5125 532.79354" />
    <path d="M136.07851 568.63784 L140.51671 600.21726" />
    <path d="M140.51671 600.21726 L108.93729 604.65545" />
    <path d="M108.93729 604.65545 L104.4991 573.07604" />
    <path d="M104.4991 573.07604 L136.07851 568.63784" />
    <path d="M136.62983 604.50165 L139.96322 636.21672" />
    <path d="M139.96322 636.21672 L108.24815 639.5501" />
    <path d="M108.24815 639.5501 L104.91476 607.83504" />
    <path d="M104.91476 607.83504 L136.62983 604.50165" />
    <path d="M137.16578 640.38443 L139.39029 672.19652" />
    <path d="M139.39029 672.19652 L107.57821 674.42103" />
    <path d="M107.57821 674.42103 L105.35369 642.60895" />
    <path d="M105.35369 642.60895 L137.16578 640.38443" />
    <path d="M137.6857 676.28565 L138.79864 708.15599" />
    <path d="M138.79864 708.15599 L106.9283 709.26892" />
    <path d="M106.9283 709.26892 L105.81537 677.39859" />
    <path d="M105.81537 677.39859 L137.6857 676.28565" />
    <path d="M162.58439 33.35241 L181.32872 59.15177" />
    <path d="M181.32872 59.15177 L155.52936 77.8961" />
    <path d="M155.52936 77.8961 L136.78503 52.09674" />
    <path d="M136.78503 52.09674 L162.58439 33.35241" />
    <path d="M163.27339 68.90697 L181.10592 95.34478" />
    <path d="M181.10592 95.34478 L154.66811 113.17731" />
    <path d="M154.66811 113.17731 L136.83558 86.7395" />
    <path d="M136.83558 86.7395 L163.27339 68.90697" />
    <path d="M163.95773 104.4855 L180.85673 131.52956" />
    <path d="M180.85673 131.52956 L153.81268 148.42856" />
    <path d="M153.81268 148.42856 L136.91368 121.3845" />
    <path d="M136.91368 121.3845 L163.95773 104.4855" />
    <path d="M164.63658 140.08783 L180.58146 167.70517" />
    <path d="M180.58146 167.70517 L152.96412 183.65006" />
    <path d="M152.96412 183.65006 L137.01923 156.03271" />
    <path d="M137.01923 156.03271 L164.63658 140.08783" />
    <path d="M165.30911 175.71374 L180.28045 203.87073" />
    <path d="M180.28045 203.87073 L152.12346 218.84207" />
    <path d="M152.12346 218.84207 L137.15212 190.68508" />
    <path d="M137.15212 190.68508 L165.30911 175.71374" />
    <path d="M165.9745 211.36301 L179.95405 240.02534" />
    <path d="M179.95405 240.02534 L151.29172 254.0049" />
    <path d="M151.29172 254.0049 L137.31217 225.34257" />
    <path d="M137.31217 225.34257 L165.9745 211.36301" />
    <path d="M166.63194 247.03537 L179.60267 276.16812" />
    <path d="M179.60267 276.16812 L150.46992 289.13886" />
    <path d="M150.46992 289.13886 L137.49919 260.00611" />
    <path d="M137.49919 260.00611 L166.63194 247.03537" />
    <path d="M167.28062 282.73053 L179.22674 312.2982" />
    <path d="M179.22674 312.2982 L149.65906 324.24432" />
    <path d="M149.65906 324.24432 L137.71295 294.67664" />
    <path d="M137.71295 294.67664 L167.28062 282.73053" />
    <path d="M167.91977 318.44817 L178.82671 348.41474" />
    <path d="M178.82671 348.41474 L148.86013 359.32168" />
    <path d="M148.86013 359.32168 L137.95319 329.35511" />
    <path d="M137.95319 329.35511 L167.91977 318.44817" />
    <path d="M168.54859 354.18793 L178.40307 384.5169" />
    <path d="M178.40307 384.5169 L148.0741 394.37138" />
    <path d="M148.0741 394.37138 L138.21962 364.04241" />
    <path d="M138.21962 364.04241 L168.54859 354.18793" />
    <path d="M169.16633 389.94946 L177.95634 420.60387" />
    <path d="M177.95634 420.60387 L147.30193 429.39388" />
    <path d="M147.30193 429.39388 L138.51192 398.73947" />
    <path d="M138.51192 398.73947 L169.16633 389.94946" />
    <path d="M169.77223 425.73235 L177.48706 456.67485" />
    <path d="M177.48706 456.67485 L146.54456 464.38968" />
    <path d="M146.54456 464.38968 L138.82973 433.44718" />
    <path d="M138.82973 433.44718 L169.77223 425.73235" />
    <path d="M170.36555 461.53617 L176.9958 492.72906" />
    <path d="M176.9958 492.72906 L145.80291 499.35932" />
    <path d="M145.80291 499.35932 L139.17265 468.16642" />
    <path d="M139.17265 468.16642 L170.36555 461.53617" />
    <path d="M170.94557 497.36047 L176.48317 528.76575" />
    <path d="M176.48317 528.76575 L145.07788 534.30335" />
    <path d="M145.07788 534.30335 L139.54028 502.89807" />
    <path d="M139.54028 502.89807 L170.94557 497.36047" />
    <path d="M171.51158 533.20477 L175.94978 564.78419" />
    <path d="M175.94978 564.78419 L144.37036 569.22238" />
    <path d="M144.37036 569.22238 L139.93217 537.64297" />
    <path d="M139.93217 537.64297 L171.51158 533.20477" />
    <path d="M172.0629 569.06858 L175.39629 600.78365" />
    <path d="M175.39629 600.78365 L143.68122 604.11703" />
    <path d="M143.68122 604.11703 L140.34783 572.40197" />
    <path d="M140.34783 572.40197 L172.0629 569.06858" />
    <path d="M172.59885 604.95136 L174.82337 636.76344" />
    <path d="M174.82337 636.76344 L143.01128 638.98796" />
    <path d="M143.01128 638.98796 L140.78677 607.17588" />
    <path d="M140.78677 607.17588 L172.59885 604.95136" />
    <path d="M173.11877 640.85258 L174.23171 672.72292" />
    <path d="M174.23171 672.72292 L142.36137 673.83585" />
    <path d="M142.36137 673.83585 L141.24844 641.96551" />
    <path d="M141.24844 641.96551 L173.11877 640.85258" />
    <path d="M173.62205 676.77165 L173.62205 708.66142" />
    <path d="M173.62205 708.66142 L141.73228 708.66142" />
    <path d="M141.73228 708.66142 L141.73228 676.77165" />
    <path d="M141.73228 676.77165 L173.62205 676.77165" />
    <path d="M198.70646 33.4739 L216.53899 59.91171" />
    <path d="M216.53899 59.91171 L190.10118 77.74424" />
    <path d="M190.10118 77.74424 L172.26865 51.30643" />
    <path d="M172.26865 51.30643 L198.70646 33.4739" />
    <path d="M199.3908 69.05243 L216.2898 96.09648" />
    <path d="M216.2898 96.09648 L189.24575 112.99548" />
    <path d="M189.24575 112.99548 L172.34675 85.95143" />
    <path d="M172.34675 85.95143 L199.3908 69.05243" />
    <path d="M200.06965 104.65476 L216.01453 132.2721" />
    <path d="M216.01453 132.2721 L188.39719 148.21699" />
    <path d="M188.39719 148.21699 L172.45231 120.59964" />
    <path d="M172.45231 120.59964 L200.06965 104.65476" />
    <path d="M200.74218 140.28067 L215.71352 168.43766" />
    <path d="M215.71352 168.43766 L187.55653 183.409" />
    <path d="M187.55653 183.409 L172.58519 155.25201" />
    <path d="M172.58519 155.25201 L200.74218 140.28067" />
    <path d="M201.40757 175.92994 L215.38712 204.59227" />
    <path d="M215.38712 204.59227 L186.72479 218.57182" />
    <path d="M186.72479 218.57182 L172.74524 189.90949" />
    <path d="M172.74524 189.90949 L201.40757 175.92994" />
    <path d="M202.06501 211.6023 L215.03574 240.73505" />
    <path d="M215.03574 240.73505 L185.90299 253.70579" />
    <path d="M185.90299 253.70579 L172.93226 224.57304" />
    <path d="M172.93226 224.57304 L202.06501 211.6023" />
    <path d="M202.71369 247.29746 L214.65981 276.86513" />
    <path d="M214.65981 276.86513 L185.09214 288.81125" />
    <path d="M185.09214 288.81125 L173.14602 259.24357" />
    <path d="M173.14602 259.24357 L202.71369 247.29746" />
    <path d="M203.35284 283.01509 L214.25978 312.98167" />
    <path d="M214.25978 312.98167 L184.2932 323.88861" />
    <path d="M184.2932 323.88861 L173.38626 293.92204" />
    <path d="M173.38626 293.92204 L203.35284 283.01509" />
    <path d="M203.98166 318.75486 L213.83614 349.08383" />
    <path d="M213.83614 349.08383 L183.50717 358.93831" />
    <path d="M183.50717 358.93831 L173.65269 328.60934" />
    <path d="M173.65269 328.60934 L203.98166 318.75486" />
    <path d="M204.5994 354.51639 L213.38941 385.1708" />
    <path d="M213.38941 385.1708 L182.735 393.96081" />
    <path d="M182.735 393.96081 L173.94499 363.3064" />
    <path d="M173.94499 363.3064 L204.5994 354.51639" />
    <path d="M205.2053 390.29928 L212.92013 421.24178" />
    <path d="M212.92013 421.24178 L181.97763 428.95661" />
    <path d="M181.97763 428.95661 L174.2628 398.01411" />
    <path d="M174.2628 398.01411 L205.2053 390.29928" />
    <path d="M205.79862 426.1031 L212.42887 457.29599" />
    <path d="M212.42887 457.29599 L181.23598 463.92625" />
    <path d="M181.23598 463.92625 L174.60572 432.73335" />
    <path d="M174.60572 432.73335 L205.79862 426.1031" />
    <path d="M206.37864 461.9274 L211.91624 493.33268" />
    <path d="M211.91624 493.33268 L180.51095 498.87028" />
    <path d="M180.51095 498.87028 L174.97335 467.465" />
    <path d="M174.97335 467.465 L206.37864 461.9274" />
    <path d="M206.94465 497.7717 L211.38285 529.35111" />
    <path d="M211.38285 529.35111 L179.80344 533.78931" />
    <path d="M179.80344 533.78931 L175.36524 502.2099" />
    <path d="M175.36524 502.2099 L206.94465 497.7717" />
    <path d="M207.49597 533.63551 L210.82936 565.35058" />
    <path d="M210.82936 565.35058 L179.11429 568.68396" />
    <path d="M179.11429 568.68396 L175.7809 536.96889" />
    <path d="M175.7809 536.96889 L207.49597 533.63551" />
    <path d="M208.03192 569.51829 L210.25644 601.33037" />
    <path d="M210.25644 601.33037 L178.44435 603.55489" />
    <path d="M178.44435 603.55489 L176.21984 571.74281" />
    <path d="M176.21984 571.74281 L208.03192 569.51829" />
    <path d="M208.55185 605.41951 L209.66478 637.28984" />
    <path d="M209.66478 637.28984 L177.79444 638.40278" />
    <path d="M177.79444 638.40278 L176.68151 606.53244" />
    <path d="M176.68151 606.53244 L208.55185 605.41951" />
    <path d="M209.05512 641.33858 L209.05512 673.22835" />
    <path d="M209.05512 673.22835 L177.16535 673.22835" />
    <path d="M177.16535 673.22835 L177.16535 641.33858" />
    <path d="M177.16535 641.33858 L209.05512 641.33858" />
    <path d="M209.54112 677.27493 L208.42819 709.14526" />
    <path d="M208.42819 709.14526 L176.55785 708.03233" />
    <path d="M176.55785 708.03233 L177.67079 676.16199" />
    <path d="M177.67079 676.16199 L209.54112 677.27493" />
    <path d="M234.82387 33.61936 L251.72287 60.66341" />
    <path d="M251.72287 60.66341 L224.67882 77.56241" />
    <path d="M224.67882 77.56241 L207.77982 50.51836" />
    <path d="M207.77982 50.51836 L234.82387 33.61936" />
    <path d="M235.50272 69.22169 L251.4476 96.83903" />
    <path d="M251.4476 96.83903 L223.83026 112.78391" />
    <path d="M223.83026 112.78391 L207.88538 85.16657" />
    <path d="M207.88538 85.16657 L235.50272 69.22169" />
    <path d="M236.17525 104.8476 L251.14659 133.00459" />
    <path d="M251.14659 133.00459 L222.9896 147.97593" />
    <path d="M222.9896 147.97593 L208.01826 119.81894" />
    <path d="M208.01826 119.81894 L236.17525 104.8476" />
    <path d="M236.84064 140.49687 L250.82019 169.1592" />
    <path d="M250.82019 169.1592 L222.15786 183.13875" />
    <path d="M222.15786 183.13875 L208.17831 154.47642" />
    <path d="M208.17831 154.47642 L236.84064 140.49687" />
    <path d="M237.49808 176.16923 L250.46881 205.30198" />
    <path d="M250.46881 205.30198 L221.33606 218.27271" />
    <path d="M221.33606 218.27271 L208.36533 189.13997" />
    <path d="M208.36533 189.13997 L237.49808 176.16923" />
    <path d="M238.14676 211.86439 L250.09288 241.43206" />
    <path d="M250.09288 241.43206 L220.52521 253.37818" />
    <path d="M220.52521 253.37818 L208.57909 223.8105" />
    <path d="M208.57909 223.8105 L238.14676 211.86439" />
    <path d="M238.78591 247.58202 L249.69285 277.5486" />
    <path d="M249.69285 277.5486 L219.72628 288.45554" />
    <path d="M219.72628 288.45554 L208.81933 258.48897" />
    <path d="M208.81933 258.48897 L238.78591 247.58202" />
    <path d="M239.41473 283.32179 L249.26921 313.65076" />
    <path d="M249.26921 313.65076 L218.94024 323.50524" />
    <path d="M218.94024 323.50524 L209.08577 293.17627" />
    <path d="M209.08577 293.17627 L239.41473 283.32179" />
    <path d="M240.03247 319.08332 L248.82248 349.73773" />
    <path d="M248.82248 349.73773 L218.16807 358.52774" />
    <path d="M218.16807 358.52774 L209.37806 327.87333" />
    <path d="M209.37806 327.87333 L240.03247 319.08332" />
    <path d="M240.63837 354.86621 L248.3532 385.80871" />
    <path d="M248.3532 385.80871 L217.4107 393.52354" />
    <path d="M217.4107 393.52354 L209.69587 362.58104" />
    <path d="M209.69587 362.58104 L240.63837 354.86621" />
    <path d="M241.23169 390.67003 L247.86194 421.86292" />
    <path d="M247.86194 421.86292 L216.66905 428.49318" />
    <path d="M216.66905 428.49318 L210.03879 397.30028" />
    <path d="M210.03879 397.30028 L241.23169 390.67003" />
    <path d="M241.81171 426.49433 L247.34931 457.89961" />
    <path d="M247.34931 457.89961 L215.94402 463.43721" />
    <path d="M215.94402 463.43721 L210.40642 432.03192" />
    <path d="M210.40642 432.03192 L241.81171 426.49433" />
    <path d="M242.37772 462.33863 L246.81592 493.91804" />
    <path d="M246.81592 493.91804 L215.23651 498.35624" />
    <path d="M215.23651 498.35624 L210.79831 466.77683" />
    <path d="M210.79831 466.77683 L242.37772 462.33863" />
    <path d="M242.92904 498.20244 L246.26243 529.9175" />
    <path d="M246.26243 529.9175 L214.54736 533.25089" />
    <path d="M214.54736 533.25089 L211.21397 501.53582" />
    <path d="M211.21397 501.53582 L242.92904 498.20244" />
    <path d="M243.46499 534.08522 L245.68951 565.8973" />
    <path d="M245.68951 565.8973 L213.87742 568.12182" />
    <path d="M213.87742 568.12182 L211.65291 536.30974" />
    <path d="M211.65291 536.30974 L243.46499 534.08522" />
    <path d="M243.98492 569.98644 L245.09785 601.85677" />
    <path d="M245.09785 601.85677 L213.22752 602.96971" />
    <path d="M213.22752 602.96971 L212.11458 571.09937" />
    <path d="M212.11458 571.09937 L243.98492 569.98644" />
    <path d="M244.48819 605.90551 L244.48819 637.79528" />
    <path d="M244.48819 637.79528 L212.59843 637.79528" />
    <path d="M212.59843 637.79528 L212.59843 605.90551" />
    <path d="M212.59843 605.90551 L244.48819 605.90551" />
    <path d="M244.97419 641.84186 L243.86126 673.71219" />
    <path d="M243.86126 673.71219 L211.99092 672.59926" />
    <path d="M211.99092 672.59926 L213.10386 640.72892" />
    <path d="M213.10386 640.72892 L244.97419 641.84186" />
    <path d="M245.44234 677.79485 L243.21782 709.60694" />
    <path d="M243.21782 709.60694 L211.40574 707.38242" />
    <path d="M211.40574 707.38242 L213.63026 675.57034" />
    <path d="M213.63026 675.57034 L245.44234 677.79485" />
    <path d="M270.93579 33.78862 L286.88068 61.40596" />
    <path d="M286.88068 61.40596 L259.26333 77.35084" />
    <path d="M259.26333 77.35084 L243.31845 49.7335" />
    <path d="M243.31845 49.7335 L270.93579 33.78862" />
    <path d="M271.60832 69.41453 L286.57966 97.57152" />
    <path d="M286.57966 97.57152 L258.42267 112.54286" />
    <path d="M258.42267 112.54286 L243.45133 84.38587" />
    <path d="M243.45133 84.38587 L271.60832 69.41453" />
    <path d="M272.27371 105.0638 L286.25326 133.72613" />
    <path d="M286.25326 133.72613 L257.59093 147.70568" />
    <path d="M257.59093 147.70568 L243.61138 119.04335" />
    <path d="M243.61138 119.04335 L272.27371 105.0638" />
    <path d="M272.93115 140.73616 L285.90188 169.86891" />
    <path d="M285.90188 169.86891 L256.76914 182.83964" />
    <path d="M256.76914 182.83964 L243.7984 153.70689" />
    <path d="M243.7984 153.70689 L272.93115 140.73616" />
    <path d="M273.57984 176.43132 L285.52595 205.99899" />
    <path d="M285.52595 205.99899 L255.95828 217.94511" />
    <path d="M255.95828 217.94511 L244.01216 188.37743" />
    <path d="M244.01216 188.37743 L273.57984 176.43132" />
    <path d="M274.21898 212.14895 L285.12592 242.11553" />
    <path d="M285.12592 242.11553 L255.15935 253.02247" />
    <path d="M255.15935 253.02247 L244.2524 223.05589" />
    <path d="M244.2524 223.05589 L274.21898 212.14895" />
    <path d="M274.8478 247.88872 L284.70228 278.21769" />
    <path d="M284.70228 278.21769 L254.37332 288.07217" />
    <path d="M254.37332 288.07217 L244.51884 257.7432" />
    <path d="M244.51884 257.7432 L274.8478 247.88872" />
    <path d="M275.46554 283.65025 L284.25555 314.30466" />
    <path d="M284.25555 314.30466 L253.60114 323.09467" />
    <path d="M253.60114 323.09467 L244.81113 292.44026" />
    <path d="M244.81113 292.44026 L275.46554 283.65025" />
    <path d="M276.07144 319.43314 L283.78627 350.37564" />
    <path d="M283.78627 350.37564 L252.84377 358.09047" />
    <path d="M252.84377 358.09047 L245.12894 327.14797" />
    <path d="M245.12894 327.14797 L276.07144 319.43314" />
    <path d="M276.66476 355.23695 L283.29502 386.42985" />
    <path d="M283.29502 386.42985 L252.10212 393.06011" />
    <path d="M252.10212 393.06011 L245.47186 361.86721" />
    <path d="M245.47186 361.86721 L276.66476 355.23695" />
    <path d="M277.24478 391.06125 L282.78238 422.46654" />
    <path d="M282.78238 422.46654 L251.37709 428.00414" />
    <path d="M251.37709 428.00414 L245.83949 396.59885" />
    <path d="M245.83949 396.59885 L277.24478 391.06125" />
    <path d="M277.81079 426.90556 L282.24899 458.48497" />
    <path d="M282.24899 458.48497 L250.66958 462.92317" />
    <path d="M250.66958 462.92317 L246.23138 431.34376" />
    <path d="M246.23138 431.34376 L277.81079 426.90556" />
    <path d="M278.36211 462.76936 L281.6955 494.48443" />
    <path d="M281.6955 494.48443 L249.98043 497.81782" />
    <path d="M249.98043 497.81782 L246.64704 466.10275" />
    <path d="M246.64704 466.10275 L278.36211 462.76936" />
    <path d="M278.89806 498.65215 L281.12258 530.46423" />
    <path d="M281.12258 530.46423 L249.3105 532.68875" />
    <path d="M249.3105 532.68875 L247.08598 500.87667" />
    <path d="M247.08598 500.87667 L278.89806 498.65215" />
    <path d="M279.41799 534.55337 L280.53092 566.4237" />
    <path d="M280.53092 566.4237 L248.66059 567.53664" />
    <path d="M248.66059 567.53664 L247.54765 535.6663" />
    <path d="M247.54765 535.6663 L279.41799 534.55337" />
    <path d="M279.92126 570.47244 L279.92126 602.3622" />
    <path d="M279.92126 602.3622 L248.0315 602.3622" />
    <path d="M248.0315 602.3622 L248.0315 570.47244" />
    <path d="M248.0315 570.47244 L279.92126 570.47244" />
    <path d="M280.40726 606.40878 L279.29433 638.27912" />
    <path d="M279.29433 638.27912 L247.42399 637.16618" />
    <path d="M247.42399 637.16618 L248.53693 605.29585" />
    <path d="M248.53693 605.29585 L280.40726 606.40878" />
    <path d="M280.87541 642.36178 L278.65089 674.17386" />
    <path d="M278.65089 674.17386 L246.83881 671.94935" />
    <path d="M246.83881 671.94935 L249.06333 640.13726" />
    <path d="M249.06333 640.13726 L280.87541 642.36178" />
    <path d="M281.32512 678.3308 L277.99174 710.04587" />
    <path d="M277.99174 710.04587 L246.27667 706.71248" />
    <path d="M246.27667 706.71248 L249.61005 674.99741" />
    <path d="M249.61005 674.99741 L281.32512 678.3308" />
    <path d="M307.04139 33.98146 L322.01273 62.13845" />
    <path d="M322.01273 62.13845 L293.85574 77.10979" />
    <path d="M293.85574 77.10979 L278.8844 48.9528" />
    <path d="M278.8844 48.9528 L307.04139 33.98146" />
    <path d="M307.70678 69.63073 L321.68633 98.29306" />
    <path d="M321.68633 98.29306 L293.024 112.27261" />
    <path d="M293.024 112.27261 L279.04445 83.61028" />
    <path d="M279.04445 83.61028 L307.70678 69.63073" />
    <path d="M308.36422 105.30309 L321.33495 134.43584" />
    <path d="M321.33495 134.43584 L292.20221 147.40657" />
    <path d="M292.20221 147.40657 L279.23147 118.27382" />
    <path d="M279.23147 118.27382 L308.36422 105.30309" />
    <path d="M309.01291 140.99825 L320.95902 170.56592" />
    <path d="M320.95902 170.56592 L291.39135 182.51204" />
    <path d="M291.39135 182.51204 L279.44523 152.94436" />
    <path d="M279.44523 152.94436 L309.01291 140.99825" />
    <path d="M309.65205 176.71588 L320.55899 206.68246" />
    <path d="M320.55899 206.68246 L290.59242 217.5894" />
    <path d="M290.59242 217.5894 L279.68548 187.62282" />
    <path d="M279.68548 187.62282 L309.65205 176.71588" />
    <path d="M310.28088 212.45565 L320.13535 242.78462" />
    <path d="M320.13535 242.78462 L289.80639 252.6391" />
    <path d="M289.80639 252.6391 L279.95191 222.31013" />
    <path d="M279.95191 222.31013 L310.28088 212.45565" />
    <path d="M310.89861 248.21718 L319.68862 278.87159" />
    <path d="M319.68862 278.87159 L289.03421 287.6616" />
    <path d="M289.03421 287.6616 L280.2442 257.00719" />
    <path d="M280.2442 257.00719 L310.89861 248.21718" />
    <path d="M311.50451 284.00007 L319.21934 314.94257" />
    <path d="M319.21934 314.94257 L288.27684 322.6574" />
    <path d="M288.27684 322.6574 L280.56201 291.7149" />
    <path d="M280.56201 291.7149 L311.50451 284.00007" />
    <path d="M312.09783 319.80388 L318.72809 350.99678" />
    <path d="M318.72809 350.99678 L287.53519 357.62703" />
    <path d="M287.53519 357.62703 L280.90494 326.43414" />
    <path d="M280.90494 326.43414 L312.09783 319.80388" />
    <path d="M312.67785 355.62818 L318.21545 387.03347" />
    <path d="M318.21545 387.03347 L286.81017 392.57107" />
    <path d="M286.81017 392.57107 L281.27257 361.16578" />
    <path d="M281.27257 361.16578 L312.67785 355.62818" />
    <path d="M313.24387 391.47249 L317.68206 423.0519" />
    <path d="M317.68206 423.0519 L286.10265 427.4901" />
    <path d="M286.10265 427.4901 L281.66445 395.91068" />
    <path d="M281.66445 395.91068 L313.24387 391.47249" />
    <path d="M313.79518 427.33629 L317.12857 459.05136" />
    <path d="M317.12857 459.05136 L285.4135 462.38475" />
    <path d="M285.4135 462.38475 L282.08011 430.66968" />
    <path d="M282.08011 430.66968 L313.79518 427.33629" />
    <path d="M314.33113 463.21908 L316.55565 495.03116" />
    <path d="M316.55565 495.03116 L284.74357 497.25568" />
    <path d="M284.74357 497.25568 L282.51905 465.4436" />
    <path d="M282.51905 465.4436 L314.33113 463.21908" />
    <path d="M314.85106 499.12029 L315.96399 530.99063" />
    <path d="M315.96399 530.99063 L284.09366 532.10357" />
    <path d="M284.09366 532.10357 L282.98072 500.23323" />
    <path d="M282.98072 500.23323 L314.85106 499.12029" />
    <path d="M315.35433 535.03937 L315.35433 566.92913" />
    <path d="M315.35433 566.92913 L283.46457 566.92913" />
    <path d="M283.46457 566.92913 L283.46457 535.03937" />
    <path d="M283.46457 535.03937 L315.35433 535.03937" />
    <path d="M315.84034 570.97571 L314.7274 602.84605" />
    <path d="M314.7274 602.84605 L282.85706 601.73311" />
    <path d="M282.85706 601.73311 L283.97 569.86278" />
    <path d="M283.97 569.86278 L315.84034 570.97571" />
    <path d="M316.30848 606.92871 L314.08396 638.74079" />
    <path d="M314.08396 638.74079 L282.27188 636.51628" />
    <path d="M282.27188 636.51628 L284.4964 604.70419" />
    <path d="M284.4964 604.70419 L316.30848 606.92871" />
    <path d="M316.75819 642.89773 L313.42481 674.6128" />
    <path d="M313.42481 674.6128 L281.70974 671.27941" />
    <path d="M281.70974 671.27941 L285.04313 639.56434" />
    <path d="M285.04313 639.56434 L316.75819 642.89773" />
    <path d="M317.18893 678.88212 L312.75073 710.46153" />
    <path d="M312.75073 710.46153 L281.17132 706.02334" />
    <path d="M281.17132 706.02334 L285.60952 674.44392" />
    <path d="M285.60952 674.44392 L317.18893 678.88212" />
    <path d="M343.13985 34.19766 L357.1194 62.85999" />
    <path d="M357.1194 62.85999 L328.45707 76.83954" />
    <path d="M328.45707 76.83954 L314.47752 48.17721" />
    <path d="M314.47752 48.17721 L343.13985 34.19766" />
    <path d="M343.79729 69.87002 L356.76803 99.00277" />
    <path d="M356.76803 99.00277 L327.63528 111.9735" />
    <path d="M327.63528 111.9735 L314.66454 82.84075" />
    <path d="M314.66454 82.84075 L343.79729 69.87002" />
    <path d="M344.44598 105.56517 L356.39209 135.13285" />
    <path d="M356.39209 135.13285 L326.82442 147.07896" />
    <path d="M326.82442 147.07896 L314.8783 117.51129" />
    <path d="M314.8783 117.51129 L344.44598 105.56517" />
    <path d="M345.08512 141.28281 L355.99206 171.24939" />
    <path d="M355.99206 171.24939 L326.02549 182.15633" />
    <path d="M326.02549 182.15633 L315.11855 152.18975" />
    <path d="M315.11855 152.18975 L345.08512 141.28281" />
    <path d="M345.71395 177.02258 L355.56842 207.35155" />
    <path d="M355.56842 207.35155 L325.23946 217.20603" />
    <path d="M325.23946 217.20603 L315.38498 186.87706" />
    <path d="M315.38498 186.87706 L345.71395 177.02258" />
    <path d="M346.33168 212.78411 L355.12169 243.43852" />
    <path d="M355.12169 243.43852 L324.46729 252.22853" />
    <path d="M324.46729 252.22853 L315.67728 221.57412" />
    <path d="M315.67728 221.57412 L346.33168 212.78411" />
    <path d="M346.93758 248.56699 L354.65241 279.5095" />
    <path d="M354.65241 279.5095 L323.70991 287.22433" />
    <path d="M323.70991 287.22433 L315.99508 256.28183" />
    <path d="M315.99508 256.28183 L346.93758 248.56699" />
    <path d="M347.5309 284.37081 L354.16116 315.56371" />
    <path d="M354.16116 315.56371 L322.96826 322.19396" />
    <path d="M322.96826 322.19396 L316.33801 291.00107" />
    <path d="M316.33801 291.00107 L347.5309 284.37081" />
    <path d="M348.11092 320.19511 L353.64852 351.6004" />
    <path d="M353.64852 351.6004 L322.24324 357.138" />
    <path d="M322.24324 357.138 L316.70564 325.73271" />
    <path d="M316.70564 325.73271 L348.11092 320.19511" />
    <path d="M348.67694 356.03942 L353.11513 387.61883" />
    <path d="M353.11513 387.61883 L321.53572 392.05703" />
    <path d="M321.53572 392.05703 L317.09752 360.47761" />
    <path d="M317.09752 360.47761 L348.67694 356.03942" />
    <path d="M349.22825 391.90322 L352.56164 423.61829" />
    <path d="M352.56164 423.61829 L320.84657 426.95168" />
    <path d="M320.84657 426.95168 L317.51319 395.23661" />
    <path d="M317.51319 395.23661 L349.22825 391.90322" />
    <path d="M349.7642 427.78601 L351.98872 459.59809" />
    <path d="M351.98872 459.59809 L320.17664 461.82261" />
    <path d="M320.17664 461.82261 L317.95212 430.01053" />
    <path d="M317.95212 430.01053 L349.7642 427.78601" />
    <path d="M350.28413 463.68722 L351.39707 495.55756" />
    <path d="M351.39707 495.55756 L319.52673 496.6705" />
    <path d="M319.52673 496.6705 L318.41379 464.80016" />
    <path d="M318.41379 464.80016 L350.28413 463.68722" />
    <path d="M350.7874 499.6063 L350.7874 531.49606" />
    <path d="M350.7874 531.49606 L318.89764 531.49606" />
    <path d="M318.89764 531.49606 L318.89764 499.6063" />
    <path d="M318.89764 499.6063 L350.7874 499.6063" />
    <path d="M351.27341 535.54264 L350.16047 567.41298" />
    <path d="M350.16047 567.41298 L318.29013 566.30004" />
    <path d="M318.29013 566.30004 L319.40307 534.42971" />
    <path d="M319.40307 534.42971 L351.27341 535.54264" />
    <path d="M351.74155 571.49564 L349.51703 603.30772" />
    <path d="M349.51703 603.30772 L317.70495 601.08321" />
    <path d="M317.70495 601.08321 L319.92947 569.27112" />
    <path d="M319.92947 569.27112 L351.74155 571.49564" />
    <path d="M352.19126 607.46466 L348.85788 639.17973" />
    <path d="M348.85788 639.17973 L317.14281 635.84634" />
    <path d="M317.14281 635.84634 L320.4762 604.13127" />
    <path d="M320.4762 604.13127 L352.19126 607.46466" />
    <path d="M352.622 643.44905 L348.1838 675.02846" />
    <path d="M348.1838 675.02846 L316.60439 670.59027" />
    <path d="M316.60439 670.59027 L321.04259 639.01085" />
    <path d="M321.04259 639.01085 L352.622 643.44905" />
    <path d="M353.03323 679.44813 L347.49563 710.85342" />
    <path d="M347.49563 710.85342 L316.09035 705.31582" />
    <path d="M316.09035 705.31582 L321.62795 673.91053" />
    <path d="M321.62795 673.91053 L353.03323 679.44813" />
    <path d="M379.23036 34.43695 L392.2011 63.5697" />
    <path d="M392.2011 63.5697 L363.06835 76.54043" />
    <path d="M363.06835 76.54043 L350.09761 47.40768" />
    <path d="M350.09761 47.40768 L379.23036 34.43695" />
    <path d="M379.87905 70.1321 L391.82516 99.69978" />
    <path d="M391.82516 99.69978 L362.25749 111.64589" />
    <path d="M362.25749 111.64589 L350.31137 82.07822" />
    <path d="M350.31137 82.07822 L379.87905 70.1321" />
    <path d="M380.51819 105.84974 L391.42513 135.81632" />
    <path d="M391.42513 135.81632 L361.45856 146.72326" />
    <path d="M361.45856 146.72326 L350.55162 116.75668" />
    <path d="M350.55162 116.75668 L380.51819 105.84974" />
    <path d="M381.14702 141.58951 L391.0015 171.91848" />
    <path d="M391.0015 171.91848 L360.67253 181.77296" />
    <path d="M360.67253 181.77296 L350.81805 151.44399" />
    <path d="M350.81805 151.44399 L381.14702 141.58951" />
    <path d="M381.76475 177.35104 L390.55476 208.00545" />
    <path d="M390.55476 208.00545 L359.90036 216.79546" />
    <path d="M359.90036 216.79546 L351.11035 186.14105" />
    <path d="M351.11035 186.14105 L381.76475 177.35104" />
    <path d="M382.37065 213.13392 L390.08548 244.07642" />
    <path d="M390.08548 244.07642 L359.14298 251.79126" />
    <path d="M359.14298 251.79126 L351.42815 220.84876" />
    <path d="M351.42815 220.84876 L382.37065 213.13392" />
    <path d="M382.96397 248.93774 L389.59423 280.13064" />
    <path d="M389.59423 280.13064 L358.40133 286.76089" />
    <path d="M358.40133 286.76089 L351.77108 255.568" />
    <path d="M351.77108 255.568 L382.96397 248.93774" />
    <path d="M383.54399 284.76204 L389.08159 316.16733" />
    <path d="M389.08159 316.16733 L357.67631 321.70493" />
    <path d="M357.67631 321.70493 L352.13871 290.29964" />
    <path d="M352.13871 290.29964 L383.54399 284.76204" />
    <path d="M384.11001 320.60635 L388.5482 352.18576" />
    <path d="M388.5482 352.18576 L356.96879 356.62396" />
    <path d="M356.96879 356.62396 L352.53059 325.04454" />
    <path d="M352.53059 325.04454 L384.11001 320.60635" />
    <path d="M384.66132 356.47015 L387.99471 388.18522" />
    <path d="M387.99471 388.18522 L356.27964 391.51861" />
    <path d="M356.27964 391.51861 L352.94626 359.80354" />
    <path d="M352.94626 359.80354 L384.66132 356.47015" />
    <path d="M385.19727 392.35294 L387.42179 424.16502" />
    <path d="M387.42179 424.16502 L355.60971 426.38954" />
    <path d="M355.60971 426.38954 L353.38519 394.57745" />
    <path d="M353.38519 394.57745 L385.19727 392.35294" />
    <path d="M385.7172 428.25415 L386.83014 460.12449" />
    <path d="M386.83014 460.12449 L354.9598 461.23743" />
    <path d="M354.9598 461.23743 L353.84686 429.36709" />
    <path d="M353.84686 429.36709 L385.7172 428.25415" />
    <path d="M386.22047 464.17323 L386.22047 496.06299" />
    <path d="M386.22047 496.06299 L354.33071 496.06299" />
    <path d="M354.33071 496.06299 L354.33071 464.17323" />
    <path d="M354.33071 464.17323 L386.22047 464.17323" />
    <path d="M386.70648 500.10957 L385.59354 531.97991" />
    <path d="M385.59354 531.97991 L353.7232 530.86697" />
    <path d="M353.7232 530.86697 L354.83614 498.99663" />
    <path d="M354.83614 498.99663 L386.70648 500.10957" />
    <path d="M387.17462 536.06257 L384.9501 567.87465" />
    <path d="M384.9501 567.87465 L353.13802 565.65013" />
    <path d="M353.13802 565.65013 L355.36254 533.83805" />
    <path d="M355.36254 533.83805 L387.17462 536.06257" />
    <path d="M387.62434 572.03159 L384.29095 603.74666" />
    <path d="M384.29095 603.74666 L352.57588 600.41327" />
    <path d="M352.57588 600.41327 L355.90927 568.6982" />
    <path d="M355.90927 568.6982 L387.62434 572.03159" />
    <path d="M388.05507 608.01598 L383.61687 639.59539" />
    <path d="M383.61687 639.59539 L352.03746 635.15719" />
    <path d="M352.03746 635.15719 L356.47566 603.57778" />
    <path d="M356.47566 603.57778 L388.05507 608.01598" />
    <path d="M388.4663 644.01506 L382.92871 675.42035" />
    <path d="M382.92871 675.42035 L351.52342 669.88275" />
    <path d="M351.52342 669.88275 L357.06102 638.47746" />
    <path d="M357.06102 638.47746 L388.4663 644.01506" />
    <path d="M388.85753 680.02815 L382.22728 711.22105" />
    <path d="M382.22728 711.22105 L351.03438 704.59079" />
    <path d="M351.03438 704.59079 L357.66464 673.3979" />
    <path d="M357.66464 673.3979 L388.85753 680.02815" />
    <path d="M415.31212 34.69903 L427.25823 64.26671" />
    <path d="M427.25823 64.26671 L397.69056 76.21282" />
    <path d="M397.69056 76.21282 L385.74444 46.64515" />
    <path d="M385.74444 46.64515 L415.31212 34.69903" />
    <path d="M415.95126 70.41667 L426.85821 100.38325" />
    <path d="M426.85821 100.38325 L396.89163 111.29019" />
    <path d="M396.89163 111.29019 L385.98469 81.32361" />
    <path d="M385.98469 81.32361 L415.95126 70.41667" />
    <path d="M416.58009 106.15644 L426.43457 136.48541" />
    <path d="M426.43457 136.48541 L396.1056 146.33989" />
    <path d="M396.1056 146.33989 L386.25112 116.01092" />
    <path d="M386.25112 116.01092 L416.58009 106.15644" />
    <path d="M417.19783 141.91797 L425.98784 172.57237" />
    <path d="M425.98784 172.57237 L395.33343 181.36238" />
    <path d="M395.33343 181.36238 L386.54342 150.70798" />
    <path d="M386.54342 150.70798 L417.19783 141.91797" />
    <path d="M417.80372 177.70085 L425.51856 208.64335" />
    <path d="M425.51856 208.64335 L394.57605 216.35819" />
    <path d="M394.57605 216.35819 L386.86122 185.41568" />
    <path d="M386.86122 185.41568 L417.80372 177.70085" />
    <path d="M418.39704 213.50467 L425.0273 244.69757" />
    <path d="M425.0273 244.69757 L393.8344 251.32782" />
    <path d="M393.8344 251.32782 L387.20415 220.13493" />
    <path d="M387.20415 220.13493 L418.39704 213.50467" />
    <path d="M418.97706 249.32897 L424.51466 280.73426" />
    <path d="M424.51466 280.73426 L393.10938 286.27186" />
    <path d="M393.10938 286.27186 L387.57178 254.86657" />
    <path d="M387.57178 254.86657 L418.97706 249.32897" />
    <path d="M419.54308 285.17327 L423.98128 316.75269" />
    <path d="M423.98128 316.75269 L392.40186 321.19089" />
    <path d="M392.40186 321.19089 L387.96366 289.61147" />
    <path d="M387.96366 289.61147 L419.54308 285.17327" />
    <path d="M420.0944 321.03708 L423.42778 352.75215" />
    <path d="M423.42778 352.75215 L391.71271 356.08554" />
    <path d="M391.71271 356.08554 L388.37933 324.37047" />
    <path d="M388.37933 324.37047 L420.0944 321.03708" />
    <path d="M420.63034 356.91987 L422.85486 388.73195" />
    <path d="M422.85486 388.73195 L391.04278 390.95647" />
    <path d="M391.04278 390.95647 L388.81826 359.14438" />
    <path d="M388.81826 359.14438 L420.63034 356.91987" />
    <path d="M421.15027 392.82108 L422.26321 424.69142" />
    <path d="M422.26321 424.69142 L390.39287 425.80436" />
    <path d="M390.39287 425.80436 L389.27993 393.93402" />
    <path d="M389.27993 393.93402 L421.15027 392.82108" />
    <path d="M421.65354 428.74016 L421.65354 460.62992" />
    <path d="M421.65354 460.62992 L389.76378 460.62992" />
    <path d="M389.76378 460.62992 L389.76378 428.74016" />
    <path d="M389.76378 428.74016 L421.65354 428.74016" />
    <path d="M422.13955 464.6765 L421.02661 496.54684" />
    <path d="M421.02661 496.54684 L389.15627 495.4339" />
    <path d="M389.15627 495.4339 L390.26921 463.56356" />
    <path d="M390.26921 463.56356 L422.13955 464.6765" />
    <path d="M422.60769 500.6295 L420.38317 532.44158" />
    <path d="M420.38317 532.44158 L388.57109 530.21706" />
    <path d="M388.57109 530.21706 L390.79561 498.40498" />
    <path d="M390.79561 498.40498 L422.60769 500.6295" />
    <path d="M423.05741 536.59852 L419.72402 568.31359" />
    <path d="M419.72402 568.31359 L388.00895 564.9802" />
    <path d="M388.00895 564.9802 L391.34234 533.26513" />
    <path d="M391.34234 533.26513 L423.05741 536.59852" />
    <path d="M423.48814 572.58291 L419.04995 604.16232" />
    <path d="M419.04995 604.16232 L387.47053 599.72412" />
    <path d="M387.47053 599.72412 L391.90873 568.14471" />
    <path d="M391.90873 568.14471 L423.48814 572.58291" />
    <path d="M423.89938 608.58199 L418.36178 639.98728" />
    <path d="M418.36178 639.98728 L386.95649 634.44968" />
    <path d="M386.95649 634.44968 L392.49409 603.04439" />
    <path d="M392.49409 603.04439 L423.89938 608.58199" />
    <path d="M424.2906 644.59508 L417.66035 675.78798" />
    <path d="M417.66035 675.78798 L386.46745 669.15772" />
    <path d="M386.46745 669.15772 L393.09771 637.96483" />
    <path d="M393.09771 637.96483 L424.2906 644.59508" />
    <path d="M424.66135 680.62147 L416.94652 711.56397" />
    <path d="M416.94652 711.56397 L386.00402 703.84914" />
    <path d="M386.00402 703.84914 L393.71885 672.90664" />
    <path d="M393.71885 672.90664 L424.66135 680.62147" />
    <path d="M451.38433 34.9836 L462.29128 64.95017" />
    <path d="M462.29128 64.95017 L432.3247 75.85712" />
    <path d="M432.3247 75.85712 L421.41776 45.89054" />
    <path d="M421.41776 45.89054 L451.38433 34.9836" />
    <path d="M452.01316 70.72337 L461.86764 101.05234" />
    <path d="M461.86764 101.05234 L431.53867 110.90681" />
    <path d="M431.53867 110.90681 L421.68419 80.57785" />
    <path d="M421.68419 80.57785 L452.01316 70.72337" />
    <path d="M452.6309 106.4849 L461.42091 137.1393" />
    <path d="M461.42091 137.1393 L430.7665 145.92931" />
    <path d="M430.7665 145.92931 L421.97649 115.27491" />
    <path d="M421.97649 115.27491 L452.6309 106.4849" />
    <path d="M453.23679 142.26778 L460.95163 173.21028" />
    <path d="M460.95163 173.21028 L430.00913 180.92512" />
    <path d="M430.00913 180.92512 L422.29429 149.98261" />
    <path d="M422.29429 149.98261 L453.23679 142.26778" />
    <path d="M453.83012 178.0716 L460.46037 209.2645" />
    <path d="M460.46037 209.2645 L429.26747 215.89475" />
    <path d="M429.26747 215.89475 L422.63722 184.70186" />
    <path d="M422.63722 184.70186 L453.83012 178.0716" />
    <path d="M454.41014 213.8959 L459.94774 245.30119" />
    <path d="M459.94774 245.30119 L428.54245 250.83879" />
    <path d="M428.54245 250.83879 L423.00485 219.4335" />
    <path d="M423.00485 219.4335 L454.41014 213.8959" />
    <path d="M454.97615 249.7402 L459.41435 281.31962" />
    <path d="M459.41435 281.31962 L427.83493 285.75782" />
    <path d="M427.83493 285.75782 L423.39673 254.1784" />
    <path d="M423.39673 254.1784 L454.97615 249.7402" />
    <path d="M455.52747 285.60401 L458.86085 317.31908" />
    <path d="M458.86085 317.31908 L427.14579 320.65247" />
    <path d="M427.14579 320.65247 L423.8124 288.9374" />
    <path d="M423.8124 288.9374 L455.52747 285.60401" />
    <path d="M456.06341 321.4868 L458.28793 353.29888" />
    <path d="M458.28793 353.29888 L426.47585 355.5234" />
    <path d="M426.47585 355.5234 L424.25133 323.71131" />
    <path d="M424.25133 323.71131 L456.06341 321.4868" />
    <path d="M456.58334 357.38801 L457.69628 389.25835" />
    <path d="M457.69628 389.25835 L425.82594 390.37129" />
    <path d="M425.82594 390.37129 L424.713 358.50095" />
    <path d="M424.713 358.50095 L456.58334 357.38801" />
    <path d="M457.08661 393.30709 L457.08661 425.19685" />
    <path d="M457.08661 425.19685 L425.19685 425.19685" />
    <path d="M425.19685 425.19685 L425.19685 393.30709" />
    <path d="M425.19685 393.30709 L457.08661 393.30709" />
    <path d="M457.57262 429.24343 L456.45968 461.11377" />
    <path d="M456.45968 461.11377 L424.58934 460.00083" />
    <path d="M424.58934 460.00083 L425.70228 428.13049" />
    <path d="M425.70228 428.13049 L457.57262 429.24343" />
    <path d="M458.04076 465.19643 L455.81625 497.00851" />
    <path d="M455.81625 497.00851 L424.00416 494.78399" />
    <path d="M424.00416 494.78399 L426.22868 462.97191" />
    <path d="M426.22868 462.97191 L458.04076 465.19643" />
    <path d="M458.49048 501.16545 L455.15709 532.88052" />
    <path d="M455.15709 532.88052 L423.44202 529.54713" />
    <path d="M423.44202 529.54713 L426.77541 497.83206" />
    <path d="M426.77541 497.83206 L458.49048 501.16545" />
    <path d="M458.92121 537.14984 L454.48302 568.72925" />
    <path d="M454.48302 568.72925 L422.9036 564.29105" />
    <path d="M422.9036 564.29105 L427.3418 532.71164" />
    <path d="M427.3418 532.71164 L458.92121 537.14984" />
    <path d="M459.33245 573.14892 L453.79485 604.55421" />
    <path d="M453.79485 604.55421 L422.38956 599.01661" />
    <path d="M422.38956 599.01661 L427.92716 567.61132" />
    <path d="M427.92716 567.61132 L459.33245 573.14892" />
    <path d="M459.72367 609.16201 L453.09342 640.35491" />
    <path d="M453.09342 640.35491 L421.90052 633.72465" />
    <path d="M421.90052 633.72465 L428.53078 602.53176" />
    <path d="M428.53078 602.53176 L459.72367 609.16201" />
    <path d="M460.09442 645.1884 L452.37959 676.1309" />
    <path d="M452.37959 676.1309 L421.43709 668.41607" />
    <path d="M421.43709 668.41607 L429.15192 637.47357" />
    <path d="M429.15192 637.47357 L460.09442 645.1884" />
    <path d="M460.44424 681.22737 L451.65423 711.88178" />
    <path d="M451.65423 711.88178 L420.99982 703.09177" />
    <path d="M420.99982 703.09177 L429.78983 672.43736" />
    <path d="M429.78983 672.43736 L460.44424 681.22737" />
    <path d="M487.44623 35.2903 L497.30071 65.61926" />
    <path d="M497.30071 65.61926 L466.97174 75.47374" />
    <path d="M466.97174 75.47374 L457.11726 45.14478" />
    <path d="M457.11726 45.14478 L487.44623 35.2903" />
    <path d="M488.06397 71.05182 L496.85398 101.70623" />
    <path d="M496.85398 101.70623 L466.19957 110.49624" />
    <path d="M466.19957 110.49624 L457.40956 79.84183" />
    <path d="M457.40956 79.84183 L488.06397 71.05182" />
    <path d="M488.66987 106.83471 L496.3847 137.77721" />
    <path d="M496.3847 137.77721 L465.4422 145.49204" />
    <path d="M465.4422 145.49204 L457.72736 114.54954" />
    <path d="M457.72736 114.54954 L488.66987 106.83471" />
    <path d="M489.26319 142.63853 L495.89344 173.83143" />
    <path d="M495.89344 173.83143 L464.70054 180.46168" />
    <path d="M464.70054 180.46168 L458.07029 149.26878" />
    <path d="M458.07029 149.26878 L489.26319 142.63853" />
    <path d="M489.84321 178.46283 L495.38081 209.86812" />
    <path d="M495.38081 209.86812 L463.97552 215.40572" />
    <path d="M463.97552 215.40572 L458.43792 184.00043" />
    <path d="M458.43792 184.00043 L489.84321 178.46283" />
    <path d="M490.40922 214.30713 L494.84742 245.88655" />
    <path d="M494.84742 245.88655 L463.268 250.32475" />
    <path d="M463.268 250.32475 L458.82981 218.74533" />
    <path d="M458.82981 218.74533 L490.40922 214.30713" />
    <path d="M490.96054 250.17094 L494.29392 281.88601" />
    <path d="M494.29392 281.88601 L462.57886 285.2194" />
    <path d="M462.57886 285.2194 L459.24547 253.50433" />
    <path d="M459.24547 253.50433 L490.96054 250.17094" />
    <path d="M491.49649 286.05372 L493.721 317.86581" />
    <path d="M493.721 317.86581 L461.90892 320.09032" />
    <path d="M461.90892 320.09032 L459.6844 288.27824" />
    <path d="M459.6844 288.27824 L491.49649 286.05372" />
    <path d="M492.01641 321.95494 L493.12935 353.82528" />
    <path d="M493.12935 353.82528 L461.25901 354.93821" />
    <path d="M461.25901 354.93821 L460.14608 323.06788" />
    <path d="M460.14608 323.06788 L492.01641 321.95494" />
    <path d="M492.51969 357.87402 L492.51969 389.76378" />
    <path d="M492.51969 389.76378 L460.62992 389.76378" />
    <path d="M460.62992 389.76378 L460.62992 357.87402" />
    <path d="M460.62992 357.87402 L492.51969 357.87402" />
    <path d="M493.00569 393.81036 L491.89275 425.6807" />
    <path d="M491.89275 425.6807 L460.02242 424.56776" />
    <path d="M460.02242 424.56776 L461.13535 392.69742" />
    <path d="M461.13535 392.69742 L493.00569 393.81036" />
    <path d="M493.47383 429.76336 L491.24932 461.57544" />
    <path d="M491.24932 461.57544 L459.43723 459.35092" />
    <path d="M459.43723 459.35092 L461.66175 427.53884" />
    <path d="M461.66175 427.53884 L493.47383 429.76336" />
    <path d="M493.92355 465.73238 L490.59016 497.44744" />
    <path d="M490.59016 497.44744 L458.87509 494.11406" />
    <path d="M458.87509 494.11406 L462.20848 462.39899" />
    <path d="M462.20848 462.39899 L493.92355 465.73238" />
    <path d="M494.35428 501.71676 L489.91609 533.29618" />
    <path d="M489.91609 533.29618 L458.33667 528.85798" />
    <path d="M458.33667 528.85798 L462.77487 497.27857" />
    <path d="M462.77487 497.27857 L494.35428 501.71676" />
    <path d="M494.76552 537.71585 L489.22792 569.12114" />
    <path d="M489.22792 569.12114 L457.82263 563.58354" />
    <path d="M457.82263 563.58354 L463.36023 532.17825" />
    <path d="M463.36023 532.17825 L494.76552 537.71585" />
    <path d="M495.15675 573.72894 L488.52649 604.92184" />
    <path d="M488.52649 604.92184 L457.3336 598.29158" />
    <path d="M457.3336 598.29158 L463.96385 567.09869" />
    <path d="M463.96385 567.09869 L495.15675 573.72894" />
    <path d="M495.52749 609.75533 L487.81266 640.69783" />
    <path d="M487.81266 640.69783 L456.87016 632.983" />
    <path d="M456.87016 632.983 L464.58499 602.0405" />
    <path d="M464.58499 602.0405 L495.52749 609.75533" />
    <path d="M495.87731 645.7943 L487.0873 676.44871" />
    <path d="M487.0873 676.44871 L456.43289 667.6587" />
    <path d="M456.43289 667.6587 L465.2229 637.00429" />
    <path d="M465.2229 637.00429 L495.87731 645.7943" />
    <path d="M496.20577 681.84511 L486.35129 712.17408" />
    <path d="M486.35129 712.17408 L456.02232 702.3196" />
    <path d="M456.02232 702.3196 L465.8768 671.99063" />
    <path d="M465.8768 671.99063 L496.20577 681.84511" />
    <path d="M523.49704 35.61875 L532.28705 66.27316" />
    <path d="M532.28705 66.27316 L501.63264 75.06317" />
    <path d="M501.63264 75.06317 L492.84263 44.40876" />
    <path d="M492.84263 44.40876 L523.49704 35.61875" />
    <path d="M524.10294 71.40164 L531.81777 102.34414" />
    <path d="M531.81777 102.34414 L500.87527 110.05897" />
    <path d="M500.87527 110.05897 L493.16043 79.11647" />
    <path d="M493.16043 79.11647 L524.10294 71.40164" />
    <path d="M524.69626 107.20546 L531.32651 138.39835" />
    <path d="M531.32651 138.39835 L500.13362 145.02861" />
    <path d="M500.13362 145.02861 L493.50336 113.83571" />
    <path d="M493.50336 113.83571 L524.69626 107.20546" />
    <path d="M525.27628 143.02976 L530.81388 174.43505" />
    <path d="M530.81388 174.43505 L499.40859 179.97264" />
    <path d="M499.40859 179.97264 L493.87099 148.56736" />
    <path d="M493.87099 148.56736 L525.27628 143.02976" />
    <path d="M525.84229 178.87406 L530.28049 210.45348" />
    <path d="M530.28049 210.45348 L498.70107 214.89167" />
    <path d="M498.70107 214.89167 L494.26288 183.31226" />
    <path d="M494.26288 183.31226 L525.84229 178.87406" />
    <path d="M526.39361 214.73787 L529.727 246.45294" />
    <path d="M529.727 246.45294 L498.01193 249.78633" />
    <path d="M498.01193 249.78633 L494.67854 218.07126" />
    <path d="M494.67854 218.07126 L526.39361 214.73787" />
    <path d="M526.92956 250.62065 L529.15407 282.43274" />
    <path d="M529.15407 282.43274 L497.34199 284.65725" />
    <path d="M497.34199 284.65725 L495.11747 252.84517" />
    <path d="M495.11747 252.84517 L526.92956 250.62065" />
    <path d="M527.44948 286.52187 L528.56242 318.39221" />
    <path d="M528.56242 318.39221 L496.69208 319.50514" />
    <path d="M496.69208 319.50514 L495.57915 287.63481" />
    <path d="M495.57915 287.63481 L527.44948 286.52187" />
    <path d="M527.95276 322.44094 L527.95276 354.33071" />
    <path d="M527.95276 354.33071 L496.06299 354.33071" />
    <path d="M496.06299 354.33071 L496.06299 322.44094" />
    <path d="M496.06299 322.44094 L527.95276 322.44094" />
    <path d="M528.43876 358.37729 L527.32582 390.24763" />
    <path d="M527.32582 390.24763 L495.45549 389.13469" />
    <path d="M495.45549 389.13469 L496.56842 357.26435" />
    <path d="M496.56842 357.26435 L528.43876 358.37729" />
    <path d="M528.90691 394.33029 L526.68239 426.14237" />
    <path d="M526.68239 426.14237 L494.87031 423.91785" />
    <path d="M494.87031 423.91785 L497.09482 392.10577" />
    <path d="M497.09482 392.10577 L528.90691 394.33029" />
    <path d="M529.35662 430.29931 L526.02323 462.01437" />
    <path d="M526.02323 462.01437 L494.30816 458.68099" />
    <path d="M494.30816 458.68099 L497.64155 426.96592" />
    <path d="M497.64155 426.96592 L529.35662 430.29931" />
    <path d="M529.78736 466.28369 L525.34916 497.86311" />
    <path d="M525.34916 497.86311 L493.76974 493.42491" />
    <path d="M493.76974 493.42491 L498.20794 461.8455" />
    <path d="M498.20794 461.8455 L529.78736 466.28369" />
    <path d="M530.19859 502.28278 L524.66099 533.68806" />
    <path d="M524.66099 533.68806 L493.2557 528.15046" />
    <path d="M493.2557 528.15046 L498.7933 496.74518" />
    <path d="M498.7933 496.74518 L530.19859 502.28278" />
    <path d="M530.58982 538.29587 L523.95956 569.48876" />
    <path d="M523.95956 569.48876 L492.76667 562.85851" />
    <path d="M492.76667 562.85851 L499.39692 531.66561" />
    <path d="M499.39692 531.66561 L530.58982 538.29587" />
    <path d="M530.96056 574.32226 L523.24573 605.26476" />
    <path d="M523.24573 605.26476 L492.30323 597.54993" />
    <path d="M492.30323 597.54993 L500.01806 566.60743" />
    <path d="M500.01806 566.60743 L530.96056 574.32226" />
    <path d="M531.31038 610.36123 L522.52037 641.01564" />
    <path d="M522.52037 641.01564 L491.86596 632.22563" />
    <path d="M491.86596 632.22563 L500.65597 601.57122" />
    <path d="M500.65597 601.57122 L531.31038 610.36123" />
    <path d="M531.63884 646.41204 L521.78436 676.74101" />
    <path d="M521.78436 676.74101 L491.45539 666.88653" />
    <path d="M491.45539 666.88653 L501.30987 636.55756" />
    <path d="M501.30987 636.55756 L531.63884 646.41204" />
    <path d="M531.94554 682.47393 L521.03859 712.44051" />
    <path d="M521.03859 712.44051 L491.07202 701.53357" />
    <path d="M491.07202 701.53357 L501.97896 671.56699" />
    <path d="M501.97896 671.56699 L531.94554 682.47393" />
    <path d="M559.53601 35.96857 L567.25084 66.91107" />
    <path d="M567.25084 66.91107 L536.30834 74.6259" />
    <path d="M536.30834 74.6259 L528.59351 43.6834" />
    <path d="M528.59351 43.6834 L559.53601 35.96857" />
    <path d="M560.12933 71.77239 L566.75958 102.96528" />
    <path d="M566.75958 102.96528 L535.56669 109.59554" />
    <path d="M535.56669 109.59554 L528.93643 78.40264" />
    <path d="M528.93643 78.40264 L560.12933 71.77239" />
    <path d="M560.70935 107.59669 L566.24695 139.00197" />
    <path d="M566.24695 139.00197 L534.84166 144.53957" />
    <path d="M534.84166 144.53957 L529.30406 113.13429" />
    <path d="M529.30406 113.13429 L560.70935 107.59669" />
    <path d="M561.27536 143.44099 L565.71356 175.02041" />
    <path d="M565.71356 175.02041 L534.13414 179.4586" />
    <path d="M534.13414 179.4586 L529.69595 147.87919" />
    <path d="M529.69595 147.87919 L561.27536 143.44099" />
    <path d="M561.82668 179.3048 L565.16007 211.01987" />
    <path d="M565.16007 211.01987 L533.445 214.35325" />
    <path d="M533.445 214.35325 L530.11161 182.63819" />
    <path d="M530.11161 182.63819 L561.82668 179.3048" />
    <path d="M562.36263 215.18758 L564.58714 246.99967" />
    <path d="M564.58714 246.99967 L532.77506 249.22418" />
    <path d="M532.77506 249.22418 L530.55055 217.4121" />
    <path d="M530.55055 217.4121 L562.36263 215.18758" />
    <path d="M562.88255 251.0888 L563.99549 282.95914" />
    <path d="M563.99549 282.95914 L532.12515 284.07207" />
    <path d="M532.12515 284.07207 L531.01222 252.20174" />
    <path d="M531.01222 252.20174 L562.88255 251.0888" />
    <path d="M563.38583 287.00787 L563.38583 318.89764" />
    <path d="M563.38583 318.89764 L531.49606 318.89764" />
    <path d="M531.49606 318.89764 L531.49606 287.00787" />
    <path d="M531.49606 287.00787 L563.38583 287.00787" />
    <path d="M563.87183 322.94422 L562.75889 354.81455" />
    <path d="M562.75889 354.81455 L530.88856 353.70162" />
    <path d="M530.88856 353.70162 L532.00149 321.83128" />
    <path d="M532.00149 321.83128 L563.87183 322.94422" />
    <path d="M564.33998 358.89722 L562.11546 390.7093" />
    <path d="M562.11546 390.7093 L530.30338 388.48478" />
    <path d="M530.30338 388.48478 L532.52789 356.6727" />
    <path d="M532.52789 356.6727 L564.33998 358.89722" />
    <path d="M564.78969 394.86623 L561.4563 426.5813" />
    <path d="M561.4563 426.5813 L529.74123 423.24792" />
    <path d="M529.74123 423.24792 L533.07462 391.53285" />
    <path d="M533.07462 391.53285 L564.78969 394.86623" />
    <path d="M565.22043 430.85062 L560.78223 462.43004" />
    <path d="M560.78223 462.43004 L529.20281 457.99184" />
    <path d="M529.20281 457.99184 L533.64101 426.41243" />
    <path d="M533.64101 426.41243 L565.22043 430.85062" />
    <path d="M565.63166 466.84971 L560.09406 498.25499" />
    <path d="M560.09406 498.25499 L528.68877 492.71739" />
    <path d="M528.68877 492.71739 L534.22637 461.31211" />
    <path d="M534.22637 461.31211 L565.63166 466.84971" />
    <path d="M566.02289 502.8628 L559.39263 534.05569" />
    <path d="M559.39263 534.05569 L528.19974 527.42544" />
    <path d="M528.19974 527.42544 L534.82999 496.23254" />
    <path d="M534.82999 496.23254 L566.02289 502.8628" />
    <path d="M566.39364 538.88919 L558.6788 569.83169" />
    <path d="M558.6788 569.83169 L527.7363 562.11686" />
    <path d="M527.7363 562.11686 L535.45113 531.17436" />
    <path d="M535.45113 531.17436 L566.39364 538.88919" />
    <path d="M566.74345 574.92816 L557.95344 605.58257" />
    <path d="M557.95344 605.58257 L527.29903 596.79256" />
    <path d="M527.29903 596.79256 L536.08904 566.13815" />
    <path d="M536.08904 566.13815 L566.74345 574.92816" />
    <path d="M567.07191 610.97897 L557.21743 641.30794" />
    <path d="M557.21743 641.30794 L526.88846 631.45346" />
    <path d="M526.88846 631.45346 L536.74294 601.12449" />
    <path d="M536.74294 601.12449 L567.07191 610.97897" />
    <path d="M567.37861 647.04086 L556.47166 677.00744" />
    <path d="M556.47166 677.00744 L526.50509 666.1005" />
    <path d="M526.50509 666.1005 L537.41203 636.13392" />
    <path d="M537.41203 636.13392 L567.37861 647.04086" />
    <path d="M567.66317 683.11308 L555.71706 712.68075" />
    <path d="M555.71706 712.68075 L526.14938 700.73464" />
    <path d="M526.14938 700.73464 L538.0955 671.16696" />
    <path d="M538.0955 671.16696 L567.66317 683.11308" />
    <path d="M595.5624 36.33932 L602.19265 67.53221" />
    <path d="M602.19265 67.53221 L570.99976 74.16247" />
    <path d="M570.99976 74.16247 L564.3695 42.96957" />
    <path d="M564.3695 42.96957 L595.5624 36.33932" />
    <path d="M596.14242 72.16362 L601.68002 103.5689" />
    <path d="M601.68002 103.5689 L570.27473 109.1065" />
    <path d="M570.27473 109.1065 L564.73713 77.70122" />
    <path d="M564.73713 77.70122 L596.14242 72.16362" />
    <path d="M596.70843 108.00792 L601.14663 139.58734" />
    <path d="M601.14663 139.58734 L569.56722 144.02553" />
    <path d="M569.56722 144.02553 L565.12902 112.44612" />
    <path d="M565.12902 112.44612 L596.70843 108.00792" />
    <path d="M597.25975 143.87173 L600.59314 175.5868" />
    <path d="M600.59314 175.5868 L568.87807 178.92018" />
    <path d="M568.87807 178.92018 L565.54468 147.20512" />
    <path d="M565.54468 147.20512 L597.25975 143.87173" />
    <path d="M597.7957 179.75451 L600.02022 211.56659" />
    <path d="M600.02022 211.56659 L568.20813 213.79111" />
    <path d="M568.20813 213.79111 L565.98362 181.97903" />
    <path d="M565.98362 181.97903 L597.7957 179.75451" />
    <path d="M598.31563 215.65573 L599.42856 247.52607" />
    <path d="M599.42856 247.52607 L567.55822 248.639" />
    <path d="M567.55822 248.639 L566.44529 216.76866" />
    <path d="M566.44529 216.76866 L598.31563 215.65573" />
    <path d="M598.8189 251.5748 L598.8189 283.46457" />
    <path d="M598.8189 283.46457 L566.92913 283.46457" />
    <path d="M566.92913 283.46457 L566.92913 251.5748" />
    <path d="M566.92913 251.5748 L598.8189 251.5748" />
    <path d="M599.3049 287.51115 L598.19197 319.38148" />
    <path d="M598.19197 319.38148 L566.32163 318.26855" />
    <path d="M566.32163 318.26855 L567.43456 286.39821" />
    <path d="M567.43456 286.39821 L599.3049 287.51115" />
    <path d="M599.77305 323.46414 L597.54853 355.27623" />
    <path d="M597.54853 355.27623 L565.73645 353.05171" />
    <path d="M565.73645 353.05171 L567.96096 321.23963" />
    <path d="M567.96096 321.23963 L599.77305 323.46414" />
    <path d="M600.22276 359.43316 L596.88937 391.14823" />
    <path d="M596.88937 391.14823 L565.1743 387.81484" />
    <path d="M565.1743 387.81484 L568.50769 356.09978" />
    <path d="M568.50769 356.09978 L600.22276 359.43316" />
    <path d="M600.6535 395.41755 L596.2153 426.99697" />
    <path d="M596.2153 426.99697 L564.63588 422.55877" />
    <path d="M564.63588 422.55877 L569.07408 390.97935" />
    <path d="M569.07408 390.97935 L600.6535 395.41755" />
    <path d="M601.06473 431.41664 L595.52713 462.82192" />
    <path d="M595.52713 462.82192 L564.12184 457.28432" />
    <path d="M564.12184 457.28432 L569.65944 425.87904" />
    <path d="M569.65944 425.87904 L601.06473 431.41664" />
    <path d="M601.45596 467.42973 L594.8257 498.62262" />
    <path d="M594.8257 498.62262 L563.63281 491.99237" />
    <path d="M563.63281 491.99237 L570.26306 460.79947" />
    <path d="M570.26306 460.79947 L601.45596 467.42973" />
    <path d="M601.82671 503.45612 L594.11187 534.39862" />
    <path d="M594.11187 534.39862 L563.16937 526.68379" />
    <path d="M563.16937 526.68379 L570.8842 495.74129" />
    <path d="M570.8842 495.74129 L601.82671 503.45612" />
    <path d="M602.17652 539.49509 L593.38651 570.1495" />
    <path d="M593.38651 570.1495 L562.7321 561.35949" />
    <path d="M562.7321 561.35949 L571.52211 530.70508" />
    <path d="M571.52211 530.70508 L602.17652 539.49509" />
    <path d="M602.50498 575.5459 L592.6505 605.87486" />
    <path d="M592.6505 605.87486 L562.32153 596.02039" />
    <path d="M562.32153 596.02039 L572.17601 565.69142" />
    <path d="M572.17601 565.69142 L602.50498 575.5459" />
    <path d="M602.81168 611.60779 L591.90474 641.57437" />
    <path d="M591.90474 641.57437 L561.93816 630.66743" />
    <path d="M561.93816 630.66743 L572.8451 600.70085" />
    <path d="M572.8451 600.70085 L602.81168 611.60779" />
    <path d="M603.09624 647.68001 L591.15013 677.24768" />
    <path d="M591.15013 677.24768 L561.58245 665.30157" />
    <path d="M561.58245 665.30157 L573.52857 635.73389" />
    <path d="M573.52857 635.73389 L603.09624 647.68001" />
    <path d="M603.35833 683.76176 L590.38759 712.89451" />
    <path d="M590.38759 712.89451 L561.25484 699.92378" />
    <path d="M561.25484 699.92378 L574.22558 670.79103" />
    <path d="M574.22558 670.79103 L603.35833 683.76176" />
    <path d="M631.57549 36.73055 L637.11309 68.13583" />
    <path d="M637.11309 68.13583 L605.7078 73.67343" />
    <path d="M605.7078 73.67343 L600.1702 42.26815" />
    <path d="M600.1702 42.26815 L631.57549 36.73055" />
    <path d="M632.1415 72.57485 L636.5797 104.15426" />
    <path d="M636.5797 104.15426 L605.00029 108.59246" />
    <path d="M605.00029 108.59246 L600.56209 77.01305" />
    <path d="M600.56209 77.01305 L632.1415 72.57485" />
    <path d="M632.69282 108.43866 L636.02621 140.15372" />
    <path d="M636.02621 140.15372 L604.31114 143.48711" />
    <path d="M604.31114 143.48711 L600.97775 111.77204" />
    <path d="M600.97775 111.77204 L632.69282 108.43866" />
    <path d="M633.22877 144.32144 L635.45329 176.13352" />
    <path d="M635.45329 176.13352 L603.6412 178.35804" />
    <path d="M603.6412 178.35804 L601.41669 146.54596" />
    <path d="M601.41669 146.54596 L633.22877 144.32144" />
    <path d="M633.7487 180.22266 L634.86163 212.09299" />
    <path d="M634.86163 212.09299 L602.9913 213.20593" />
    <path d="M602.9913 213.20593 L601.87836 181.33559" />
    <path d="M601.87836 181.33559 L633.7487 180.22266" />
    <path d="M634.25197 216.14173 L634.25197 248.0315" />
    <path d="M634.25197 248.0315 L602.3622 248.0315" />
    <path d="M602.3622 248.0315 L602.3622 216.14173" />
    <path d="M602.3622 216.14173 L634.25197 216.14173" />
    <path d="M634.73797 252.07808 L633.62504 283.94841" />
    <path d="M633.62504 283.94841 L601.7547 282.83548" />
    <path d="M601.7547 282.83548 L602.86764 250.96514" />
    <path d="M602.86764 250.96514 L634.73797 252.07808" />
    <path d="M635.20612 288.03107 L632.9816 319.84316" />
    <path d="M632.9816 319.84316 L601.16952 317.61864" />
    <path d="M601.16952 317.61864 L603.39404 285.80656" />
    <path d="M603.39404 285.80656 L635.20612 288.03107" />
    <path d="M635.65583 324.00009 L632.32244 355.71516" />
    <path d="M632.32244 355.71516 L600.60738 352.38177" />
    <path d="M600.60738 352.38177 L603.94076 320.66671" />
    <path d="M603.94076 320.66671 L635.65583 324.00009" />
    <path d="M636.08657 359.98448 L631.64837 391.5639" />
    <path d="M631.64837 391.5639 L600.06896 387.1257" />
    <path d="M600.06896 387.1257 L604.50715 355.54628" />
    <path d="M604.50715 355.54628 L636.08657 359.98448" />
    <path d="M636.4978 395.98357 L630.9602 427.38885" />
    <path d="M630.9602 427.38885 L599.55491 421.85125" />
    <path d="M599.55491 421.85125 L605.09251 390.44597" />
    <path d="M605.09251 390.44597 L636.4978 395.98357" />
    <path d="M636.88903 431.99666 L630.25877 463.18955" />
    <path d="M630.25877 463.18955 L599.06588 456.5593" />
    <path d="M599.06588 456.5593 L605.69613 425.3664" />
    <path d="M605.69613 425.3664 L636.88903 431.99666" />
    <path d="M637.25978 468.02305 L629.54495 498.96555" />
    <path d="M629.54495 498.96555 L598.60244 491.25072" />
    <path d="M598.60244 491.25072 L606.31728 460.30822" />
    <path d="M606.31728 460.30822 L637.25978 468.02305" />
    <path d="M637.60959 504.06202 L628.81958 534.71643" />
    <path d="M628.81958 534.71643 L598.16517 525.92642" />
    <path d="M598.16517 525.92642 L606.95518 495.27201" />
    <path d="M606.95518 495.27201 L637.60959 504.06202" />
    <path d="M637.93805 540.11283 L628.08357 570.44179" />
    <path d="M628.08357 570.44179 L597.7546 560.58731" />
    <path d="M597.7546 560.58731 L607.60908 530.25835" />
    <path d="M607.60908 530.25835 L637.93805 540.11283" />
    <path d="M638.24475 576.17472 L627.33781 606.1413" />
    <path d="M627.33781 606.1413 L597.37123 595.23435" />
    <path d="M597.37123 595.23435 L608.27817 565.26778" />
    <path d="M608.27817 565.26778 L638.24475 576.17472" />
    <path d="M638.52931 612.24694 L626.5832 641.81461" />
    <path d="M626.5832 641.81461 L597.01552 629.86849" />
    <path d="M597.01552 629.86849 L608.96164 600.30082" />
    <path d="M608.96164 600.30082 L638.52931 612.24694" />
    <path d="M638.7914 648.32869 L625.82066 677.46144" />
    <path d="M625.82066 677.46144 L596.68792 664.49071" />
    <path d="M596.68792 664.49071 L609.65865 635.35796" />
    <path d="M609.65865 635.35796 L638.7914 648.32869" />
    <path d="M639.03069 684.4192 L625.05114 713.08153" />
    <path d="M625.05114 713.08153 L596.38881 699.10198" />
    <path d="M596.38881 699.10198 L610.36836 670.43965" />
    <path d="M610.36836 670.43965 L639.03069 684.4192" />
    <path d="M667.57457 37.14178 L672.01277 68.72119" />
    <path d="M672.01277 68.72119 L640.43336 73.15939" />
    <path d="M640.43336 73.15939 L635.99516 41.57998" />
    <path d="M635.99516 41.57998 L667.57457 37.14178" />
    <path d="M668.12589 73.00559 L671.45928 104.72065" />
    <path d="M671.45928 104.72065 L639.74421 108.05404" />
    <path d="M639.74421 108.05404 L636.41082 76.33897" />
    <path d="M636.41082 76.33897 L668.12589 73.00559" />
    <path d="M668.66184 108.88837 L670.88636 140.70045" />
    <path d="M670.88636 140.70045 L639.07428 142.92497" />
    <path d="M639.07428 142.92497 L636.84976 111.11289" />
    <path d="M636.84976 111.11289 L668.66184 108.88837" />
    <path d="M669.18177 144.78959 L670.2947 176.65992" />
    <path d="M670.2947 176.65992 L638.42437 177.77286" />
    <path d="M638.42437 177.77286 L637.31143 145.90252" />
    <path d="M637.31143 145.90252 L669.18177 144.78959" />
    <path d="M669.68504 180.70866 L669.68504 212.59843" />
    <path d="M669.68504 212.59843 L637.79528 212.59843" />
    <path d="M637.79528 212.59843 L637.79528 180.70866" />
    <path d="M637.79528 180.70866 L669.68504 180.70866" />
    <path d="M670.17104 216.645 L669.05811 248.51534" />
    <path d="M669.05811 248.51534 L637.18777 247.40241" />
    <path d="M637.18777 247.40241 L638.30071 215.53207" />
    <path d="M638.30071 215.53207 L670.17104 216.645" />
    <path d="M670.63919 252.598 L668.41467 284.41008" />
    <path d="M668.41467 284.41008 L636.60259 282.18557" />
    <path d="M636.60259 282.18557 L638.82711 250.37349" />
    <path d="M638.82711 250.37349 L670.63919 252.598" />
    <path d="M671.0889 288.56702 L667.75551 320.28209" />
    <path d="M667.75551 320.28209 L636.04045 316.9487" />
    <path d="M636.04045 316.9487 L639.37383 285.23363" />
    <path d="M639.37383 285.23363 L671.0889 288.56702" />
    <path d="M671.51964 324.55141 L667.08144 356.13082" />
    <path d="M667.08144 356.13082 L635.50203 351.69263" />
    <path d="M635.50203 351.69263 L639.94022 320.11321" />
    <path d="M639.94022 320.11321 L671.51964 324.55141" />
    <path d="M671.93087 360.55049 L666.39327 391.95578" />
    <path d="M666.39327 391.95578 L634.98799 386.41818" />
    <path d="M634.98799 386.41818 L640.52558 355.01289" />
    <path d="M640.52558 355.01289 L671.93087 360.55049" />
    <path d="M672.3221 396.56359 L665.69185 427.75648" />
    <path d="M665.69185 427.75648 L634.49895 421.12623" />
    <path d="M634.49895 421.12623 L641.1292 389.93333" />
    <path d="M641.1292 389.93333 L672.3221 396.56359" />
    <path d="M672.69285 432.58998 L664.97802 463.53248" />
    <path d="M664.97802 463.53248 L634.03551 455.81765" />
    <path d="M634.03551 455.81765 L641.75035 424.87515" />
    <path d="M641.75035 424.87515 L672.69285 432.58998" />
    <path d="M673.04266 468.62895 L664.25265 499.28335" />
    <path d="M664.25265 499.28335 L633.59825 490.49334" />
    <path d="M633.59825 490.49334 L642.38826 459.83894" />
    <path d="M642.38826 459.83894 L673.04266 468.62895" />
    <path d="M673.37112 504.67975 L663.51664 535.00872" />
    <path d="M663.51664 535.00872 L633.18767 525.15424" />
    <path d="M633.18767 525.15424 L643.04215 494.82528" />
    <path d="M643.04215 494.82528 L673.37112 504.67975" />
    <path d="M673.67782 540.74165 L662.77088 570.70823" />
    <path d="M662.77088 570.70823 L632.8043 559.80128" />
    <path d="M632.8043 559.80128 L643.71124 529.83471" />
    <path d="M643.71124 529.83471 L673.67782 540.74165" />
    <path d="M673.96238 576.81387 L662.01627 606.38154" />
    <path d="M662.01627 606.38154 L632.44859 594.43542" />
    <path d="M632.44859 594.43542 L644.39471 564.86775" />
    <path d="M644.39471 564.86775 L673.96238 576.81387" />
    <path d="M674.22447 612.89562 L661.25374 642.02837" />
    <path d="M661.25374 642.02837 L632.12099 629.05764" />
    <path d="M632.12099 629.05764 L645.09172 599.92489" />
    <path d="M645.09172 599.92489 L674.22447 612.89562" />
    <path d="M674.46376 648.98613 L660.48421 677.64846" />
    <path d="M660.48421 677.64846 L631.82188 663.66891" />
    <path d="M631.82188 663.66891 L645.80143 635.00658" />
    <path d="M645.80143 635.00658 L674.46376 648.98613" />
    <path d="M674.67996 685.08459 L659.70862 713.24158" />
    <path d="M659.70862 713.24158 L631.55163 698.27024" />
    <path d="M631.55163 698.27024 L646.52297 670.11325" />
    <path d="M646.52297 670.11325 L674.67996 685.08459" />
    <path d="M703.55896 37.57251 L706.89235 69.28758" />
    <path d="M706.89235 69.28758 L675.17728 72.62097" />
    <path d="M675.17728 72.62097 L671.84389 40.9059" />
    <path d="M671.84389 40.9059 L703.55896 37.57251" />
    <path d="M704.09491 73.4553 L706.31943 105.26738" />
    <path d="M706.31943 105.26738 L674.50735 107.4919" />
    <path d="M674.50735 107.4919 L672.28283 75.67982" />
    <path d="M672.28283 75.67982 L704.09491 73.4553" />
    <path d="M704.61484 109.35652 L705.72777 141.22685" />
    <path d="M705.72777 141.22685 L673.85744 142.33979" />
    <path d="M673.85744 142.33979 L672.7445 110.46945" />
    <path d="M672.7445 110.46945 L704.61484 109.35652" />
    <path d="M705.11811 145.27559 L705.11811 177.16535" />
    <path d="M705.11811 177.16535 L673.22835 177.16535" />
    <path d="M673.22835 177.16535 L673.22835 145.27559" />
    <path d="M673.22835 145.27559 L705.11811 145.27559" />
    <path d="M705.60411 181.21193 L704.49118 213.08227" />
    <path d="M704.49118 213.08227 L672.62084 211.96933" />
    <path d="M672.62084 211.96933 L673.73378 180.099" />
    <path d="M673.73378 180.099 L705.60411 181.21193" />
    <path d="M706.07226 217.16493 L703.84774 248.97701" />
    <path d="M703.84774 248.97701 L672.03566 246.7525" />
    <path d="M672.03566 246.7525 L674.26018 214.94041" />
    <path d="M674.26018 214.94041 L706.07226 217.16493" />
    <path d="M706.52197 253.13395 L703.18859 284.84902" />
    <path d="M703.18859 284.84902 L671.47352 281.51563" />
    <path d="M671.47352 281.51563 L674.80691 249.80056" />
    <path d="M674.80691 249.80056 L706.52197 253.13395" />
    <path d="M706.95271 289.11834 L702.51451 320.69775" />
    <path d="M702.51451 320.69775 L670.9351 316.25956" />
    <path d="M670.9351 316.25956 L675.37329 284.68014" />
    <path d="M675.37329 284.68014 L706.95271 289.11834" />
    <path d="M707.36394 325.11742 L701.82634 356.52271" />
    <path d="M701.82634 356.52271 L670.42106 350.98511" />
    <path d="M670.42106 350.98511 L675.95866 319.57982" />
    <path d="M675.95866 319.57982 L707.36394 325.11742" />
    <path d="M707.75517 361.13051 L701.12492 392.32341" />
    <path d="M701.12492 392.32341 L669.93202 385.69316" />
    <path d="M669.93202 385.69316 L676.56228 354.50026" />
    <path d="M676.56228 354.50026 L707.75517 361.13051" />
    <path d="M708.12592 397.15691 L700.41109 428.09941" />
    <path d="M700.41109 428.09941 L669.46859 420.38458" />
    <path d="M669.46859 420.38458 L677.18342 389.44207" />
    <path d="M677.18342 389.44207 L708.12592 397.15691" />
    <path d="M708.47573 433.19588 L699.68572 463.85028" />
    <path d="M699.68572 463.85028 L669.03132 455.06027" />
    <path d="M669.03132 455.06027 L677.82133 424.40587" />
    <path d="M677.82133 424.40587 L708.47573 433.19588" />
    <path d="M708.80419 469.24668 L698.94971 499.57565" />
    <path d="M698.94971 499.57565 L668.62074 489.72117" />
    <path d="M668.62074 489.72117 L678.47522 459.3922" />
    <path d="M678.47522 459.3922 L708.80419 469.24668" />
    <path d="M709.11089 505.30858 L698.20395 535.27515" />
    <path d="M698.20395 535.27515 L668.23737 524.36821" />
    <path d="M668.23737 524.36821 L679.14431 494.40164" />
    <path d="M679.14431 494.40164 L709.11089 505.30858" />
    <path d="M709.39546 541.38079 L697.44934 570.94847" />
    <path d="M697.44934 570.94847 L667.88167 559.00235" />
    <path d="M667.88167 559.00235 L679.82778 529.43468" />
    <path d="M679.82778 529.43468 L709.39546 541.38079" />
    <path d="M709.65754 577.46255 L696.68681 606.5953" />
    <path d="M696.68681 606.5953 L667.55406 593.62457" />
    <path d="M667.55406 593.62457 L680.52479 564.49182" />
    <path d="M680.52479 564.49182 L709.65754 577.46255" />
    <path d="M709.89683 613.55306 L695.91728 642.21539" />
    <path d="M695.91728 642.21539 L667.25495 628.23584" />
    <path d="M667.25495 628.23584 L681.2345 599.57351" />
    <path d="M681.2345 599.57351 L709.89683 613.55306" />
    <path d="M710.11303 649.65152 L695.14169 677.80851" />
    <path d="M695.14169 677.80851 L666.9847 662.83717" />
    <path d="M666.9847 662.83717 L681.95604 634.68018" />
    <path d="M681.95604 634.68018 L710.11303 649.65152" />
    <path d="M710.30587 685.75712 L694.36099 713.37447" />
    <path d="M694.36099 713.37447 L666.74364 697.42958" />
    <path d="M666.74364 697.42958 L682.68853 669.81224" />
    <path d="M682.68853 669.81224 L710.30587 685.75712" />
  </g>
</svg>