<?xml version="1.0" standalone="no"?>
<!DOCTYPE svg PUBLIC "-//W3C//DTD SVG 1.1//EN" 
    "http://www.w3.org/Graphics/SVG/1.1/DTD/svg11.dtd">
<svg width="21cm" height="29.7cm"
    xmlns="http://www.w3.org/2000/svg" version="1.1" viewBox="0 0 744.09449 1052.3622">
  <g fill="none" stroke="black" stroke-width="0.03cm">
    <path d="M35.43307 35.43307 L35.43307 35.43307" />
    <path d="M35.43307 35.43307 L708.66142 36.83704" />
    <path d="M35.43307 35.43307 L708.66142 54.66317" />
    <path d="M35.43307 35.43307 L708.66142 72.51629" />
    <path d="M35.43307 35.43307 L708.66142 90.42156" />
    <path d="M35.43307 35.43307 L708.66142 108.40445" />
    <path d="M35.43307 35.43307 L708.66142 126.49084" />
    <path d="M35.43307 35.43307 L708.66142 144.70725" />
    <path d="M35.43307 35.43307 L708.66142 163.0809" />
    <path d="M35.43307 35.43307 L708.66142 181.63996" />
    <path d="M35.43307 35.43307 L708.66142 200.41369" />
    <path d="M35.43307 35.43307 L708.66142 219.43263" />
    <path d="M35.43307 35.43307 L708.66142 238.72884" />
    <path d="M35.43307 35.43307 L708.66142 258.33609" />
    <path d="M35.43307 35.43307 L708.66142 278.29015" />
    <path d="M35.43307 35.43307 L708.66142 298.62906" />
    <path d="M35.43307 35.43307 L708.66142 319.39343" />
    <path d="M35.43307 35.43307 L708.66142 340.62682" />
    <path d="M35.43307 35.43307 L708.66142 362.37613" />
    <path d="M35.43307 35.43307 L708.66142 384.69203" />
    <path d="M35.43307 35.43307 L708.66142 407.62952" />
    <path d="M35.43307 35.43307 L708.66142 431.2485" />
    <path d="M35.43307 35.43307 L708.66142 455.61445" />
    <path d="M35.43307 35.43307 L708.66142 480.79924" />
    <path d="M35.43307 35.43307 L708.66142 506.882" />
    <path d="M35.43307 35.43307 L708.66142 533.95025" />
    <path d="M35.43307 35.43307 L708.66142 562.10113" />
    <path d="M35.43307 35.43307 L708.66142 591.44285" />
    <path d="M35.43307 35.43307 L708.66142 622.09648" />
    <path d="M35.43307 35.43307 L708.66142 654.19804" />
    <path d="M35.43307 35.43307 L708.66142 687.90096" />
    <path d="M35.43307 35.43307 L694.2586 708.66142" />
    <path d="M35.43307 35.43307 L660.24431 708.66142" />
    <path d="M35.43307 35.43307 L627.86159 708.66142" />
    <path d="M35.43307 35.43307 L596.95349 708.66142" />
    <path d="M35.43307 35.43307 L567.38103 708.66142" />
    <path d="M35.43307 35.43307 L539.02056 708.66142" />
    <path d="M35.43307 35.43307 L511.76166 708.66142" />
    <path d="M35.43307 35.43307 L485.50526 708.66142" />
    <path d="M35.43307 35.43307 L460.16222 708.66142" />
    <path d="M35.43307 35.43307 L435.65191 708.66142" />
    <path d="M35.43307 35.43307 L411.90124 708.66142" />
    <path d="M35.43307 35.43307 L388.8436 708.66142" />
    <path d="M35.43307 35.43307 L366.41814 708.66142" />
    <path d="M35.43307 35.43307 L344.56901 708.66142" />
    <path d="M35.43307 35.43307 L323.24477 708.66142" />
    <path d="M35.43307 35.43307 L302.39787 708.66142" />
    <path d="M35.43307 35.43307 L281.98418 708.66142" />
    <path d="M35.43307 35.43307 L261.96257 708.66142" />
    <path d="M35.43307 35.43307 L242.29455 708.66142" />
    <path d="M35.43307 35.43307 L222.94398 708.66142" />
    <path d="M35.43307 35.43307 L203.87671 708.66142" />
    <path d="M35.43307 35.43307 L185.06041 708.66142" />
    <path d="M35.43307 35.43307 L166.46427 708.66142" />
    <path d="M35.43307 35.43307 L148.05881 708.66142" />
    <path d="M35.43307 35.43307 L129.81568 708.66142" />
    <path d="M35.43307 35.43307 L111.70748 708.66142" />
    <path d="M35.43307 35.43307 L93.70759 708.66142" />
    <path d="M35.43307 35.43307 L75.79003 708.66142" />
    <path d="M35.43307 35.43307 L57.92925 708.66142" />
  </g>
</svg>