<?xml version="1.0" standalone="no"?>
<!DOCTYPE svg PUBLIC "-//W3C//DTD SVG 1.1//EN" 
    "http://www.w3.org/Graphics/SVG/1.1/DTD/svg11.dtd">
<svg width="21cm" height="29.7cm"
    xmlns="http://www.w3.org/2000/svg" version="1.1" viewBox="0 0 744.09449 1052.3622">
  <g fill="none" stroke="black" stroke-width="0.03cm">
    <path d="M248.0315 248.0315 L336.61417 490.74803" />
    <path d="M336.61417 490.74803 L496.06299 248.0315" />
    <path d="M267.73633 240.05815 L339.17217 488.36266" />
    <path d="M339.17217 488.36266 L515.16363 257.35996" />
    <path d="M287.94935 233.47877 L341.89034 486.16153" />
    <path d="M341.89034 486.16153 L533.56702 267.99809" />
    <path d="M308.57209 228.32541 L344.75542 484.15538" />
    <path d="M344.75542 484.15538 L551.18351 279.89406" />
    <path d="M329.50408 224.62317 L347.75347 482.35397" />
    <path d="M347.75347 482.35397 L567.92725 292.98991" />
    <path d="M350.64333 222.39009 L350.86987 480.76608" />
    <path d="M350.86987 480.76608 L583.7167 307.22185" />
    <path d="M371.88686 221.63704 L354.08945 479.39945" />
    <path d="M354.08945 479.39945 L598.4749 322.52054" />
    <path d="M393.13117 222.36771 L357.39652 478.26074" />
    <path d="M357.39652 478.26074 L612.12998 338.81144" />
    <path d="M414.27276 224.57852 L360.77496 477.35549" />
    <path d="M360.77496 477.35549 L624.6154 356.01519" />
    <path d="M435.20863 228.25872 L364.20832 476.68811" />
    <path d="M364.20832 476.68811 L635.87033 374.04797" />
    <path d="M455.83679 233.39036 L367.67988 476.26186" />
    <path d="M367.67988 476.26186 L645.83994 392.82193" />
    <path d="M476.05673 239.94844 L371.17271 476.0788" />
    <path d="M371.17271 476.0788 L654.47566 412.2456" />
    <path d="M495.76995 247.90103 L374.6698 476.13985" />
    <path d="M374.6698 476.13985 L661.73542 432.22435" />
    <path d="M514.88041 257.20936 L378.15411 476.44468" />
    <path d="M378.15411 476.44468 L667.58384 452.66085" />
    <path d="M533.29499 267.8281 L381.60867 476.99183" />
    <path d="M381.60867 476.99183 L671.99244 473.45553" />
    <path d="M550.924 279.70551 L385.01665 477.77863" />
    <path d="M385.01665 477.77863 L674.93974 494.50709" />
    <path d="M567.68153 292.78372 L388.36144 478.80123" />
    <path d="M388.36144 478.80123 L676.41138 515.71296" />
    <path d="M583.48595 306.99903 L391.62675 480.05467" />
    <path d="M391.62675 480.05467 L676.40019 536.96983" />
    <path d="M598.26027 322.28216 L394.79668 481.53283" />
    <path d="M394.79668 481.53283 L674.90621 558.17413" />
    <path d="M611.93249 338.55867 L397.85577 483.22851" />
    <path d="M397.85577 483.22851 L671.93674 579.22257" />
    <path d="M624.43602 355.74926 L400.78912 485.13345" />
    <path d="M400.78912 485.13345 L667.50624 600.0126" />
    <path d="M635.70994 373.77017 L403.58244 487.23837" />
    <path d="M403.58244 487.23837 L661.63629 620.44293" />
    <path d="M645.69932 392.53362 L406.22213 489.53302" />
    <path d="M406.22213 489.53302 L654.3555 640.41402" />
    <path d="M654.3555 411.94818 L408.69533 492.00621" />
    <path d="M408.69533 492.00621 L645.69932 659.82858" />
    <path d="M661.63629 431.91928 L410.98997 494.6459" />
    <path d="M410.98997 494.6459 L635.70994 678.59203" />
    <path d="M667.50624 452.3496 L413.0949 497.43923" />
    <path d="M413.0949 497.43923 L624.43602 696.61294" />
    <path d="M671.93674 473.13963 L414.99984 500.37258" />
    <path d="M414.99984 500.37258 L611.93249 713.80353" />
    <path d="M674.90621 494.18807 L416.69552 503.43167" />
    <path d="M416.69552 503.43167 L598.26027 730.08004" />
    <path d="M676.40019 515.39238 L418.17368 506.60159" />
    <path d="M418.17368 506.60159 L583.48595 745.36318" />
    <path d="M676.41138 536.64925 L419.42711 509.86691" />
    <path d="M419.42711 509.86691 L567.68153 759.57848" />
    <path d="M674.93974 557.85512 L420.44972 513.2117" />
    <path d="M420.44972 513.2117 L550.924 772.65669" />
    <path d="M671.99244 578.90667 L421.23651 516.61968" />
    <path d="M421.23651 516.61968 L533.29499 784.5341" />
    <path d="M667.58384 599.70136 L421.78366 520.07424" />
    <path d="M421.78366 520.07424 L514.88041 795.15284" />
    <path d="M661.73542 620.13786 L422.0885 523.55855" />
    <path d="M422.0885 523.55855 L495.76995 804.46118" />
    <path d="M654.47566 640.11661 L422.14954 527.05564" />
    <path d="M422.14954 527.05564 L476.05673 812.41376" />
    <path d="M645.83994 659.54028 L421.96649 530.54847" />
    <path d="M421.96649 530.54847 L455.83679 818.97185" />
    <path d="M635.87033 678.31423 L421.54024 534.02002" />
    <path d="M421.54024 534.02002 L435.20863 824.10349" />
    <path d="M624.6154 696.34701 L420.87286 537.45338" />
    <path d="M420.87286 537.45338 L414.27276 827.78368" />
    <path d="M612.12998 713.55076 L419.96761 540.83183" />
    <path d="M419.96761 540.83183 L393.13117 829.99449" />
    <path d="M598.4749 729.84166 L418.82889 544.1389" />
    <path d="M418.82889 544.1389 L371.88686 830.72516" />
    <path d="M583.7167 745.14035 L417.46226 547.35847" />
    <path d="M417.46226 547.35847 L350.64333 829.97212" />
    <path d="M567.92725 759.37229 L415.87438 550.47488" />
    <path d="M415.87438 550.47488 L329.50408 827.73904" />
    <path d="M551.18351 772.46815 L414.07297 553.47293" />
    <path d="M414.07297 553.47293 L308.57209 824.0368" />
    <path d="M533.56702 784.36412 L412.06681 556.33801" />
    <path d="M412.06681 556.33801 L287.94935 818.88343" />
    <path d="M515.16363 795.00225 L409.86569 559.05617" />
    <path d="M409.86569 559.05617 L267.73633 812.30405" />
  </g>
</svg>