<?xml version="1.0" standalone="no"?>
<!DOCTYPE svg PUBLIC "-//W3C//DTD SVG 1.1//EN" 
    "http://www.w3.org/Graphics/SVG/1.1/DTD/svg11.dtd">
<svg width="2480px" height="3508px"
    xmlns="http://www.w3.org/2000/svg" version="1.1" viewBox="0 0 2480 3508">
  <g fill="none" stroke="black" stroke-width="1.06299px">
    <path d="M50 564 L2430 564" />
    <path d="M2430 564 L2430 2944" />
    <path d="M2430 2944 L50 2944" />
    <path d="M50 2944 L50 564" />
    <path d="M57.4 571.4 L2417.6 576.4" />
    <path d="M2417.6 576.4 L2417.6 2931.6" />
    <path d="M2417.6 2931.6 L62.4 2931.6" />
    <path d="M62.4 2931.6 L57.4 571.4" />
    <path d="M64.8 578.8 L2405.2000000000003 588.8" />
    <path d="M2405.2000000000003 588.8 L2405.2000000000003 2919.2" />
    <path d="M2405.2000000000003 2919.2 L74.8 2919.2" />
    <path d="M74.8 2919.2 L64.8 578.8" />
    <path d="M72.2 586.2 L2392.7999999999997 601.2" />
    <path d="M2392.7999999999997 601.2 L2392.7999999999997 2906.8" />
    <path d="M2392.7999999999997 2906.8 L87.2 2906.8" />
    <path d="M87.2 2906.8 L72.2 586.2" />
    <path d="M79.6 593.6 L2380.4 613.6" />
    <path d="M2380.4 613.6 L2380.4 2894.4" />
    <path d="M2380.4 2894.4 L99.6 2894.4" />
    <path d="M99.6 2894.4 L79.6 593.6" />
    <path d="M87 601 L2368 626" />
    <path d="M2368 626 L2368 2882" />
    <path d="M2368 2882 L112 2882" />
    <path d="M112 2882 L87 601" />
    <path d="M94.4 608.4 L2355.6 638.4" />
    <path d="M2355.6 638.4 L2355.6 2869.6" />
    <path d="M2355.6 2869.6 L124.4 2869.6" />
    <path d="M124.4 2869.6 L94.4 608.4" />
    <path d="M101.80000000000001 615.8 L2343.2000000000003 650.8" />
    <path d="M2343.2000000000003 650.8 L2343.2000000000003 2857.2" />
    <path d="M2343.2000000000003 2857.2 L136.8 2857.2" />
    <path d="M136.8 2857.2 L101.80000000000001 615.8" />
    <path d="M109.19999999999999 623.2 L2330.7999999999997 663.2" />
    <path d="M2330.7999999999997 663.2 L2330.7999999999997 2844.8" />
    <path d="M2330.7999999999997 2844.8 L149.2 2844.8" />
    <path d="M149.2 2844.8 L109.19999999999999 623.2" />
    <path d="M116.60000000000002 630.6 L2318.4 675.6" />
    <path d="M2318.4 675.6 L2318.4 2832.4" />
    <path d="M2318.4 2832.4 L161.60000000000002 2832.4" />
    <path d="M161.60000000000002 2832.4 L116.60000000000002 630.6" />
    <path d="M124 638 L2306 688" />
    <path d="M2306 688 L2306 2820" />
    <path d="M2306 2820 L174 2820" />
    <path d="M174 2820 L124 638" />
    <path d="M131.4 645.4 L2293.6 700.4" />
    <path d="M2293.6 700.4 L2293.6 2807.6" />
    <path d="M2293.6 2807.6 L186.4 2807.6" />
    <path d="M186.4 2807.6 L131.4 645.4" />
    <path d="M138.8 652.8 L2281.2000000000003 712.8" />
    <path d="M2281.2000000000003 712.8 L2281.2000000000003 2795.2" />
    <path d="M2281.2000000000003 2795.2 L198.8 2795.2" />
    <path d="M198.8 2795.2 L138.8 652.8" />
    <path d="M146.20000000000002 660.2 L2268.7999999999997 725.2" />
    <path d="M2268.7999999999997 725.2 L2268.7999999999997 2782.8" />
    <path d="M2268.7999999999997 2782.8 L211.20000000000002 2782.8" />
    <path d="M211.20000000000002 2782.8 L146.20000000000002 660.2" />
    <path d="M153.6 667.6 L2256.4 737.6" />
    <path d="M2256.4 737.6 L2256.4 2770.4" />
    <path d="M2256.4 2770.4 L223.6 2770.4" />
    <path d="M223.6 2770.4 L153.6 667.6" />
    <path d="M161 675 L2244 750" />
    <path d="M2244 750 L2244 2758" />
    <path d="M2244 2758 L236 2758" />
    <path d="M236 2758 L161 675" />
    <path d="M168.4 682.4 L2231.6 762.4" />
    <path d="M2231.6 762.4 L2231.6 2745.6" />
    <path d="M2231.6 2745.6 L248.4 2745.6" />
    <path d="M248.4 2745.6 L168.4 682.4" />
    <path d="M175.8 689.8 L2219.2000000000003 774.8" />
    <path d="M2219.2000000000003 774.8 L2219.2000000000003 2733.2" />
    <path d="M2219.2000000000003 2733.2 L260.8 2733.2" />
    <path d="M260.8 2733.2 L175.8 689.8" />
    <path d="M183.20000000000005 697.2 L2206.8 787.2" />
    <path d="M2206.8 787.2 L2206.8 2720.8" />
    <path d="M2206.8 2720.8 L273.20000000000005 2720.8" />
    <path d="M273.20000000000005 2720.8 L183.20000000000005 697.2" />
    <path d="M190.60000000000002 704.6 L2194.4 799.6" />
    <path d="M2194.4 799.6 L2194.4 2708.4" />
    <path d="M2194.4 2708.4 L285.6 2708.4" />
    <path d="M285.6 2708.4 L190.60000000000002 704.6" />
    <path d="M198 712 L2182 812" />
    <path d="M2182 812 L2182 2696" />
    <path d="M2182 2696 L298 2696" />
    <path d="M298 2696 L198 712" />
    <path d="M205.40000000000003 719.4000000000001 L2169.6 824.4000000000001" />
    <path d="M2169.6 824.4000000000001 L2169.6 2683.6" />
    <path d="M2169.6 2683.6 L310.40000000000003 2683.6" />
    <path d="M310.40000000000003 2683.6 L205.40000000000003 719.4000000000001" />
    <path d="M212.8 726.8 L2157.2000000000003 836.8" />
    <path d="M2157.2000000000003 836.8 L2157.2000000000003 2671.2" />
    <path d="M2157.2000000000003 2671.2 L322.8 2671.2" />
    <path d="M322.8 2671.2 L212.8 726.8" />
    <path d="M220.2 734.2 L2144.7999999999997 849.2" />
    <path d="M2144.7999999999997 849.2 L2144.7999999999997 2658.8" />
    <path d="M2144.7999999999997 2658.8 L335.2 2658.8" />
    <path d="M335.2 2658.8 L220.2 734.2" />
    <path d="M227.60000000000002 741.6 L2132.4 861.6" />
    <path d="M2132.4 861.6 L2132.4 2646.4" />
    <path d="M2132.4 2646.4 L347.6 2646.4" />
    <path d="M347.6 2646.4 L227.60000000000002 741.6" />
    <path d="M235 749 L2120 874" />
    <path d="M2120 874 L2120 2634" />
    <path d="M2120 2634 L360 2634" />
    <path d="M360 2634 L235 749" />
    <path d="M242.40000000000003 756.4000000000001 L2107.6 886.4000000000001" />
    <path d="M2107.6 886.4000000000001 L2107.6 2621.6" />
    <path d="M2107.6 2621.6 L372.40000000000003 2621.6" />
    <path d="M372.40000000000003 2621.6 L242.40000000000003 756.4000000000001" />
    <path d="M249.8 763.8 L2095.2000000000003 898.8" />
    <path d="M2095.2000000000003 898.8 L2095.2000000000003 2609.2" />
    <path d="M2095.2000000000003 2609.2 L384.8 2609.2" />
    <path d="M384.8 2609.2 L249.8 763.8" />
    <path d="M257.2 771.2 L2082.7999999999997 911.2" />
    <path d="M2082.7999999999997 911.2 L2082.7999999999997 2596.8" />
    <path d="M2082.7999999999997 2596.8 L397.2 2596.8" />
    <path d="M397.2 2596.8 L257.2 771.2" />
    <path d="M264.6 778.6 L2070.4 923.6" />
    <path d="M2070.4 923.6 L2070.4 2584.4" />
    <path d="M2070.4 2584.4 L409.6 2584.4" />
    <path d="M409.6 2584.4 L264.6 778.6" />
    <path d="M272 786 L2058 936" />
    <path d="M2058 936 L2058 2572" />
    <path d="M2058 2572 L422 2572" />
    <path d="M422 2572 L272 786" />
    <path d="M279.40000000000003 793.4000000000001 L2045.6 948.4000000000001" />
    <path d="M2045.6 948.4000000000001 L2045.6 2559.6" />
    <path d="M2045.6 2559.6 L434.40000000000003 2559.6" />
    <path d="M434.40000000000003 2559.6 L279.40000000000003 793.4000000000001" />
    <path d="M286.8 800.8 L2033.2 960.8" />
    <path d="M2033.2 960.8 L2033.2 2547.2" />
    <path d="M2033.2 2547.2 L446.8 2547.2" />
    <path d="M446.8 2547.2 L286.8 800.8" />
    <path d="M294.2 808.2 L2020.8 973.2" />
    <path d="M2020.8 973.2 L2020.8 2534.8" />
    <path d="M2020.8 2534.8 L459.2 2534.8" />
    <path d="M459.2 2534.8 L294.2 808.2" />
    <path d="M301.6 815.6 L2008.4 985.6" />
    <path d="M2008.4 985.6 L2008.4 2522.4" />
    <path d="M2008.4 2522.4 L471.6 2522.4" />
    <path d="M471.6 2522.4 L301.6 815.6" />
    <path d="M309 823 L1996 998" />
    <path d="M1996 998 L1996 2510" />
    <path d="M1996 2510 L484 2510" />
    <path d="M484 2510 L309 823" />
    <path d="M316.40000000000003 830.4000000000001 L1983.6 1010.4000000000001" />
    <path d="M1983.6 1010.4000000000001 L1983.6 2497.6" />
    <path d="M1983.6 2497.6 L496.40000000000003 2497.6" />
    <path d="M496.40000000000003 2497.6 L316.40000000000003 830.4000000000001" />
    <path d="M323.8 837.8 L1971.2 1022.8" />
    <path d="M1971.2 1022.8 L1971.2 2485.2" />
    <path d="M1971.2 2485.2 L508.8 2485.2" />
    <path d="M508.8 2485.2 L323.8 837.8" />
    <path d="M331.20000000000005 845.2 L1958.8 1035.2" />
    <path d="M1958.8 1035.2 L1958.8 2472.8" />
    <path d="M1958.8 2472.8 L521.2 2472.8" />
    <path d="M521.2 2472.8 L331.20000000000005 845.2" />
    <path d="M338.6 852.5999999999999 L1946.4 1047.6" />
    <path d="M1946.4 1047.6 L1946.4 2460.3999999999996" />
    <path d="M1946.4 2460.3999999999996 L533.6 2460.3999999999996" />
    <path d="M533.6 2460.3999999999996 L338.6 852.5999999999999" />
    <path d="M346 860 L1934 1060" />
    <path d="M1934 1060 L1934 2448" />
    <path d="M1934 2448 L546 2448" />
    <path d="M546 2448 L346 860" />
    <path d="M353.4000000000001 867.4000000000001 L1921.6 1072.4" />
    <path d="M1921.6 1072.4 L1921.6 2435.6" />
    <path d="M1921.6 2435.6 L558.4000000000001 2435.6" />
    <path d="M558.4000000000001 2435.6 L353.4000000000001 867.4000000000001" />
    <path d="M360.80000000000007 874.8000000000002 L1909.1999999999998 1084.8000000000002" />
    <path d="M1909.1999999999998 1084.8000000000002 L1909.1999999999998 2423.2" />
    <path d="M1909.1999999999998 2423.2 L570.8000000000001 2423.2" />
    <path d="M570.8000000000001 2423.2 L360.80000000000007 874.8000000000002" />
    <path d="M368.20000000000005 882.2 L1896.8 1097.2" />
    <path d="M1896.8 1097.2 L1896.8 2410.8" />
    <path d="M1896.8 2410.8 L583.2 2410.8" />
    <path d="M583.2 2410.8 L368.20000000000005 882.2" />
    <path d="M375.6 889.5999999999999 L1884.4 1109.6" />
    <path d="M1884.4 1109.6 L1884.4 2398.3999999999996" />
    <path d="M1884.4 2398.3999999999996 L595.6 2398.3999999999996" />
    <path d="M595.6 2398.3999999999996 L375.6 889.5999999999999" />
    <path d="M383 897 L1872 1122" />
    <path d="M1872 1122 L1872 2386" />
    <path d="M1872 2386 L608 2386" />
    <path d="M608 2386 L383 897" />
    <path d="M390.4 904.4000000000001 L1859.6 1134.4" />
    <path d="M1859.6 1134.4 L1859.6 2373.6000000000004" />
    <path d="M1859.6 2373.6000000000004 L620.4 2373.6000000000004" />
    <path d="M620.4 2373.6000000000004 L390.4 904.4000000000001" />
    <path d="M397.80000000000007 911.8000000000002 L1847.1999999999998 1146.8000000000002" />
    <path d="M1847.1999999999998 1146.8000000000002 L1847.1999999999998 2361.2" />
    <path d="M1847.1999999999998 2361.2 L632.8000000000001 2361.2" />
    <path d="M632.8000000000001 2361.2 L397.80000000000007 911.8000000000002" />
    <path d="M405.20000000000005 919.2 L1834.8 1159.2" />
    <path d="M1834.8 1159.2 L1834.8 2348.8" />
    <path d="M1834.8 2348.8 L645.2 2348.8" />
    <path d="M645.2 2348.8 L405.20000000000005 919.2" />
    <path d="M412.6 926.5999999999999 L1822.4 1171.6" />
    <path d="M1822.4 1171.6 L1822.4 2336.3999999999996" />
    <path d="M1822.4 2336.3999999999996 L657.6 2336.3999999999996" />
    <path d="M657.6 2336.3999999999996 L412.6 926.5999999999999" />
    <path d="M420 934 L1810 1184" />
    <path d="M1810 1184 L1810 2324" />
    <path d="M1810 2324 L670 2324" />
    <path d="M670 2324 L420 934" />
    <path d="M427.4 941.4000000000001 L1797.6 1196.4" />
    <path d="M1797.6 1196.4 L1797.6 2311.6000000000004" />
    <path d="M1797.6 2311.6000000000004 L682.4 2311.6000000000004" />
    <path d="M682.4 2311.6000000000004 L427.4 941.4000000000001" />
    <path d="M434.80000000000007 948.8000000000002 L1785.1999999999998 1208.8000000000002" />
    <path d="M1785.1999999999998 1208.8000000000002 L1785.1999999999998 2299.2" />
    <path d="M1785.1999999999998 2299.2 L694.8000000000001 2299.2" />
    <path d="M694.8000000000001 2299.2 L434.80000000000007 948.8000000000002" />
    <path d="M442.20000000000005 956.2 L1772.8 1221.2" />
    <path d="M1772.8 1221.2 L1772.8 2286.8" />
    <path d="M1772.8 2286.8 L707.2 2286.8" />
    <path d="M707.2 2286.8 L442.20000000000005 956.2" />
    <path d="M449.6 963.5999999999999 L1760.4 1233.6" />
    <path d="M1760.4 1233.6 L1760.4 2274.3999999999996" />
    <path d="M1760.4 2274.3999999999996 L719.6 2274.3999999999996" />
    <path d="M719.6 2274.3999999999996 L449.6 963.5999999999999" />
    <path d="M457 971 L1748 1246" />
    <path d="M1748 1246 L1748 2262" />
    <path d="M1748 2262 L732 2262" />
    <path d="M732 2262 L457 971" />
    <path d="M464.4 978.4000000000001 L1735.6 1258.4" />
    <path d="M1735.6 1258.4 L1735.6 2249.6000000000004" />
    <path d="M1735.6 2249.6000000000004 L744.4 2249.6000000000004" />
    <path d="M744.4 2249.6000000000004 L464.4 978.4000000000001" />
    <path d="M471.80000000000007 985.8000000000002 L1723.1999999999998 1270.8000000000002" />
    <path d="M1723.1999999999998 1270.8000000000002 L1723.1999999999998 2237.2" />
    <path d="M1723.1999999999998 2237.2 L756.8000000000001 2237.2" />
    <path d="M756.8000000000001 2237.2 L471.80000000000007 985.8000000000002" />
    <path d="M479.20000000000005 993.2 L1710.8 1283.2" />
    <path d="M1710.8 1283.2 L1710.8 2224.8" />
    <path d="M1710.8 2224.8 L769.2 2224.8" />
    <path d="M769.2 2224.8 L479.20000000000005 993.2" />
    <path d="M486.6 1000.5999999999999 L1698.4 1295.6" />
    <path d="M1698.4 1295.6 L1698.4 2212.3999999999996" />
    <path d="M1698.4 2212.3999999999996 L781.6 2212.3999999999996" />
    <path d="M781.6 2212.3999999999996 L486.6 1000.5999999999999" />
    <path d="M494 1008 L1686 1308" />
    <path d="M1686 1308 L1686 2200" />
    <path d="M1686 2200 L794 2200" />
    <path d="M794 2200 L494 1008" />
    <path d="M501.4 1015.4000000000001 L1673.6 1320.4" />
    <path d="M1673.6 1320.4 L1673.6 2187.6000000000004" />
    <path d="M1673.6 2187.6000000000004 L806.4 2187.6000000000004" />
    <path d="M806.4 2187.6000000000004 L501.4 1015.4000000000001" />
    <path d="M508.80000000000007 1022.8000000000002 L1661.1999999999998 1332.8000000000002" />
    <path d="M1661.1999999999998 1332.8000000000002 L1661.1999999999998 2175.2" />
    <path d="M1661.1999999999998 2175.2 L818.8000000000001 2175.2" />
    <path d="M818.8000000000001 2175.2 L508.80000000000007 1022.8000000000002" />
    <path d="M516.2 1030.2 L1648.8 1345.2" />
    <path d="M1648.8 1345.2 L1648.8 2162.8" />
    <path d="M1648.8 2162.8 L831.2 2162.8" />
    <path d="M831.2 2162.8 L516.2 1030.2" />
    <path d="M523.6 1037.6 L1636.4 1357.6" />
    <path d="M1636.4 1357.6 L1636.4 2150.3999999999996" />
    <path d="M1636.4 2150.3999999999996 L843.6 2150.3999999999996" />
    <path d="M843.6 2150.3999999999996 L523.6 1037.6" />
    <path d="M531 1045 L1624 1370" />
    <path d="M1624 1370 L1624 2138" />
    <path d="M1624 2138 L856 2138" />
    <path d="M856 2138 L531 1045" />
    <path d="M538.4 1052.4 L1611.6 1382.4" />
    <path d="M1611.6 1382.4 L1611.6 2125.6000000000004" />
    <path d="M1611.6 2125.6000000000004 L868.4 2125.6000000000004" />
    <path d="M868.4 2125.6000000000004 L538.4 1052.4" />
    <path d="M545.8000000000001 1059.8000000000002 L1599.1999999999998 1394.8000000000002" />
    <path d="M1599.1999999999998 1394.8000000000002 L1599.1999999999998 2113.2" />
    <path d="M1599.1999999999998 2113.2 L880.8000000000001 2113.2" />
    <path d="M880.8000000000001 2113.2 L545.8000000000001 1059.8000000000002" />
    <path d="M553.2 1067.2 L1586.8 1407.2" />
    <path d="M1586.8 1407.2 L1586.8 2100.8" />
    <path d="M1586.8 2100.8 L893.2 2100.8" />
    <path d="M893.2 2100.8 L553.2 1067.2" />
    <path d="M560.6 1074.6 L1574.4 1419.6" />
    <path d="M1574.4 1419.6 L1574.4 2088.3999999999996" />
    <path d="M1574.4 2088.3999999999996 L905.6 2088.3999999999996" />
    <path d="M905.6 2088.3999999999996 L560.6 1074.6" />
    <path d="M568 1082 L1562 1432" />
    <path d="M1562 1432 L1562 2076" />
    <path d="M1562 2076 L918 2076" />
    <path d="M918 2076 L568 1082" />
    <path d="M575.4 1089.4 L1549.6 1444.4" />
    <path d="M1549.6 1444.4 L1549.6 2063.6000000000004" />
    <path d="M1549.6 2063.6000000000004 L930.4 2063.6000000000004" />
    <path d="M930.4 2063.6000000000004 L575.4 1089.4" />
    <path d="M582.8000000000001 1096.8000000000002 L1537.1999999999998 1456.8000000000002" />
    <path d="M1537.1999999999998 1456.8000000000002 L1537.1999999999998 2051.2" />
    <path d="M1537.1999999999998 2051.2 L942.8000000000001 2051.2" />
    <path d="M942.8000000000001 2051.2 L582.8000000000001 1096.8000000000002" />
    <path d="M590.2 1104.2 L1524.8 1469.2" />
    <path d="M1524.8 1469.2 L1524.8 2038.8" />
    <path d="M1524.8 2038.8 L955.2 2038.8" />
    <path d="M955.2 2038.8 L590.2 1104.2" />
    <path d="M597.6 1111.6 L1512.4 1481.6" />
    <path d="M1512.4 1481.6 L1512.4 2026.3999999999999" />
    <path d="M1512.4 2026.3999999999999 L967.6 2026.3999999999999" />
    <path d="M967.6 2026.3999999999999 L597.6 1111.6" />
    <path d="M605 1119 L1500 1494" />
    <path d="M1500 1494 L1500 2014" />
    <path d="M1500 2014 L980 2014" />
    <path d="M980 2014 L605 1119" />
    <path d="M612.4 1126.4 L1487.6 1506.4" />
    <path d="M1487.6 1506.4 L1487.6 2001.6000000000001" />
    <path d="M1487.6 2001.6000000000001 L992.4 2001.6000000000001" />
    <path d="M992.4 2001.6000000000001 L612.4 1126.4" />
    <path d="M619.8000000000001 1133.8000000000002 L1475.1999999999998 1518.8000000000002" />
    <path d="M1475.1999999999998 1518.8000000000002 L1475.1999999999998 1989.2" />
    <path d="M1475.1999999999998 1989.2 L1004.8000000000001 1989.2" />
    <path d="M1004.8000000000001 1989.2 L619.8000000000001 1133.8000000000002" />
    <path d="M627.2 1141.2 L1462.8 1531.2" />
    <path d="M1462.8 1531.2 L1462.8 1976.8" />
    <path d="M1462.8 1976.8 L1017.2 1976.8" />
    <path d="M1017.2 1976.8 L627.2 1141.2" />
    <path d="M634.5999999999999 1148.6 L1450.4 1543.6" />
    <path d="M1450.4 1543.6 L1450.4 1964.4" />
    <path d="M1450.4 1964.4 L1029.6 1964.4" />
    <path d="M1029.6 1964.4 L634.5999999999999 1148.6" />
    <path d="M642 1156 L1438 1556" />
    <path d="M1438 1556 L1438 1952" />
    <path d="M1438 1952 L1042 1952" />
    <path d="M1042 1952 L642 1156" />
    <path d="M649.4000000000001 1163.4 L1425.6 1568.4" />
    <path d="M1425.6 1568.4 L1425.6 1939.6" />
    <path d="M1425.6 1939.6 L1054.4 1939.6" />
    <path d="M1054.4 1939.6 L649.4000000000001 1163.4" />
    <path d="M656.8000000000002 1170.8000000000002 L1413.1999999999998 1580.8000000000002" />
    <path d="M1413.1999999999998 1580.8000000000002 L1413.1999999999998 1927.1999999999998" />
    <path d="M1413.1999999999998 1927.1999999999998 L1066.8000000000002 1927.1999999999998" />
    <path d="M1066.8000000000002 1927.1999999999998 L656.8000000000002 1170.8000000000002" />
    <path d="M664.2 1178.2 L1400.8 1593.2" />
    <path d="M1400.8 1593.2 L1400.8 1914.8" />
    <path d="M1400.8 1914.8 L1079.2 1914.8" />
    <path d="M1079.2 1914.8 L664.2 1178.2" />
    <path d="M671.6000000000001 1185.6000000000001 L1388.3999999999999 1605.6000000000001" />
    <path d="M1388.3999999999999 1605.6000000000001 L1388.3999999999999 1902.3999999999999" />
    <path d="M1388.3999999999999 1902.3999999999999 L1091.6000000000001 1902.3999999999999" />
    <path d="M1091.6000000000001 1902.3999999999999 L671.6000000000001 1185.6000000000001" />
    <path d="M679 1193 L1376 1618" />
    <path d="M1376 1618 L1376 1890" />
    <path d="M1376 1890 L1104 1890" />
    <path d="M1104 1890 L679 1193" />
    <path d="M686.4000000000001 1200.4 L1363.6 1630.4" />
    <path d="M1363.6 1630.4 L1363.6 1877.6" />
    <path d="M1363.6 1877.6 L1116.4 1877.6" />
    <path d="M1116.4 1877.6 L686.4000000000001 1200.4" />
    <path d="M693.8 1207.8 L1351.2 1642.8" />
    <path d="M1351.2 1642.8 L1351.2 1865.2" />
    <path d="M1351.2 1865.2 L1128.8 1865.2" />
    <path d="M1128.8 1865.2 L693.8 1207.8" />
    <path d="M701.2 1215.2 L1338.8 1655.2" />
    <path d="M1338.8 1655.2 L1338.8 1852.8" />
    <path d="M1338.8 1852.8 L1141.2 1852.8" />
    <path d="M1141.2 1852.8 L701.2 1215.2" />
    <path d="M708.6000000000001 1222.6000000000001 L1326.3999999999999 1667.6000000000001" />
    <path d="M1326.3999999999999 1667.6000000000001 L1326.3999999999999 1840.3999999999999" />
    <path d="M1326.3999999999999 1840.3999999999999 L1153.6000000000001 1840.3999999999999" />
    <path d="M1153.6000000000001 1840.3999999999999 L708.6000000000001 1222.6000000000001" />
    <path d="M716 1230 L1314 1680" />
    <path d="M1314 1680 L1314 1828" />
    <path d="M1314 1828 L1166 1828" />
    <path d="M1166 1828 L716 1230" />
    <path d="M723.4000000000001 1237.4 L1301.6 1692.4" />
    <path d="M1301.6 1692.4 L1301.6 1815.6" />
    <path d="M1301.6 1815.6 L1178.4 1815.6" />
    <path d="M1178.4 1815.6 L723.4000000000001 1237.4" />
    <path d="M730.8 1244.8 L1289.2 1704.8" />
    <path d="M1289.2 1704.8 L1289.2 1803.2" />
    <path d="M1289.2 1803.2 L1190.8 1803.2" />
    <path d="M1190.8 1803.2 L730.8 1244.8" />
    <path d="M738.2 1252.2 L1276.8 1717.2" />
    <path d="M1276.8 1717.2 L1276.8 1790.8" />
    <path d="M1276.8 1790.8 L1203.2 1790.8" />
    <path d="M1203.2 1790.8 L738.2 1252.2" />
    <path d="M745.6000000000001 1259.6000000000001 L1264.3999999999999 1729.6000000000001" />
    <path d="M1264.3999999999999 1729.6000000000001 L1264.3999999999999 1778.3999999999999" />
    <path d="M1264.3999999999999 1778.3999999999999 L1215.6000000000001 1778.3999999999999" />
    <path d="M1215.6000000000001 1778.3999999999999 L745.6000000000001 1259.6000000000001" />
    <path d="M753 1267 L1252 1742" />
    <path d="M1252 1742 L1252 1766" />
    <path d="M1252 1766 L1228 1766" />
    <path d="M1228 1766 L753 1267" />
    <path d="M760.4000000000001 1274.4 L1239.6 1754.4" />
    <path d="M1239.6 1754.4 L1239.6 1753.6" />
    <path d="M1239.6 1753.6 L1240.4 1753.6" />
    <path d="M1240.4 1753.6 L760.4000000000001 1274.4" />
    <path d="M767.8 1281.8 L1227.2 1766.8" />
    <path d="M1227.2 1766.8 L1227.2 1741.2" />
    <path d="M1227.2 1741.2 L1252.8 1741.2" />
    <path d="M1252.8 1741.2 L767.8 1281.8" />
    <path d="M775.2 1289.2 L1214.8 1779.2" />
    <path d="M1214.8 1779.2 L1214.8 1728.8" />
    <path d="M1214.8 1728.8 L1265.2 1728.8" />
    <path d="M1265.2 1728.8 L775.2 1289.2" />
    <path d="M782.6000000000001 1296.6000000000001 L1202.3999999999999 1791.6000000000001" />
    <path d="M1202.3999999999999 1791.6000000000001 L1202.3999999999999 1716.3999999999999" />
    <path d="M1202.3999999999999 1716.3999999999999 L1277.6000000000001 1716.3999999999999" />
    <path d="M1277.6000000000001 1716.3999999999999 L782.6000000000001 1296.6000000000001" />
  </g>
</svg>