<?xml version="1.0" encoding="UTF-8" standalone="no"?>
<svg
   width="21cm"
   height="29.7cm"
   version="1.1"
   viewBox="0 0 744.09449 1052.3622"
   id="svg69"
   sodipodi:docname="2022.01.07-16.03.58-1.svg.2022_01_07_18_46_50.0.svg"
   xmlns:inkscape="http://www.inkscape.org/namespaces/inkscape"
   xmlns:sodipodi="http://sodipodi.sourceforge.net/DTD/sodipodi-0.dtd"
   xmlns="http://www.w3.org/2000/svg"
   xmlns:svg="http://www.w3.org/2000/svg">
  <defs
     id="defs73" />
  <sodipodi:namedview
     id="namedview71"
     pagecolor="#ffffff"
     bordercolor="#666666"
     borderopacity="1.0"
     inkscape:pageshadow="2"
     inkscape:pageopacity="0.0"
     inkscape:pagecheckerboard="0"
     inkscape:document-units="cm"
     showgrid="false"
     inkscape:zoom="0.64052327"
     inkscape:cx="203.73967"
     inkscape:cy="598.72922"
     inkscape:window-width="1312"
     inkscape:window-height="969"
     inkscape:window-x="0"
     inkscape:window-y="23"
     inkscape:window-maximized="0"
     inkscape:current-layer="layer1" />
  <g
     inkscape:groupmode="layer"
     id="layer1"
     inkscape:label="1 black"
     style="display:inline">
    <g
       fill="none"
       stroke="#000000"
       stroke-width="0.03cm"
       id="g5977"
       transform="translate(0.40087941,0.40087941)">
      <path
         d="M 0,0 35.43307,35.43307"
         id="path5915" />
      <path
         d="m 364.64213,527.23915 -0.0399,-0.33262 -0.0351,-0.66861 0.005,-0.33498"
         id="path5917" />
      <path
         d="m 371.8581,507.48127 1.0641,0.0188 2.0772,0.21019 1.99958,0.4295 1.91043,0.63568 1.80977,0.82877 1.69758,1.00872 1.57385,1.17557 1.4386,1.3293 1.29183,1.46991 1.13353,1.59741 0.96371,1.7118 0.78235,1.81307 0.58947,1.90121 0.38507,1.97626 0.16914,2.03818 -0.0583,2.08699 -0.11806,1.0577"
         id="path5919" />
      <path
         d="m 398.49597,540.17205 -1.0614,1.85221 -2.41394,3.36432 -2.75999,2.90931 -3.05547,2.4524 -3.30037,1.99365 -3.4947,1.533 -3.63845,1.07049 -3.73162,0.6061 -3.77422,0.13983 -3.76624,-0.32829 -3.70768,-0.79831 -3.59856,-1.27019 -3.43885,-1.74395 -3.22857,-2.21959 -2.96772,-2.69708 -2.65628,-3.17647 -1.19555,-1.76859 v 0 l -1.03124,-1.77447 -1.66927,-3.69446 -1.14396,-3.84297 -0.61743,-3.93683 -0.0897,-3.97606 0.43935,-3.96066 0.96958,-3.89062 1.50104,-3.76596 0.95021,-1.81915"
         id="path5921" />
      <path
         d="m 378.44276,566.8227 -1.46172,0.20476 -2.89258,0.25596 -2.84686,0.0568 -2.79568,-0.1355 -2.73902,-0.32109 -2.67691,-0.49991 -2.60932,-0.67196 -2.53626,-0.83724 -3.65546,-1.55098 -4.56723,-2.58334 -4.1766,-3.12269 -3.74222,-3.60795 -3.26411,-4.03905 -2.74226,-4.41605 -2.17666,-4.73892 -1.56733,-5.00766 -0.74931,-3.89955 -0.28635,-2.65549 -0.1094,-2.69223 0.073,-2.7222 0.26087,-2.74542 0.45421,-2.76186 0.65302,-2.77153 0.85729,-2.77445 0.50696,-1.38621 v 0 l 0.55353,-1.36827 1.22462,-2.63302 1.37421,-2.49388 1.51519,-2.35337 1.64758,-2.21152 1.77138,-2.06832 1.8866,-1.92376 1.99321,-1.77784 3.17092,-2.39023 4.52084,-2.66367 4.79264,-2.05569 4.99568,-1.43689 5.12998,-0.80727 5.19554,-0.16684 5.19235,0.48441 5.12043,1.14648 3.75176,1.30085 2.44289,1.07977 2.38625,1.25136 2.321,1.42432 2.24716,1.59863 2.16473,1.77429 2.07372,1.9513 1.97409,2.12966 0.94701,1.13214"
         id="path5923" />
      <path
         d="m 401.43774,569.51699 -1.57232,1.02798 -3.19231,1.86237 -3.24757,1.60831 -3.29287,1.35906 -3.32821,1.11465 -3.35359,0.87506 -3.369,0.6403 -3.37444,0.41036 -3.36994,0.18527 -3.35545,-0.035 -3.33102,-0.25046 -3.29661,-0.46108 -3.25225,-0.66687 -3.19792,-0.86784 -3.13363,-1.06397 -3.05937,-1.25528 -2.97516,-1.44176 -2.88098,-1.62341 -2.77683,-1.80023 -2.66273,-1.97223 -2.53867,-2.1394 -2.40463,-2.30174 -2.26064,-2.45925 -2.10668,-2.61194 -1.94276,-2.75979 -1.76888,-2.90282 -1.58503,-3.04101 -1.39123,-3.17439 -1.18745,-3.30294 -0.97372,-3.42665 -0.75002,-3.54554 -0.51637,-3.65959 -0.16744,-1.87107 v 0 l -0.0923,-1.62035 -0.0343,-3.22784 0.16306,-3.20389 0.35685,-3.17185 0.54709,-3.13169 0.73374,-3.08341 0.91682,-3.02703 1.09633,-2.96253 1.27227,-2.88991 1.44464,-2.80919 1.61344,-2.72034 1.77866,-2.62339 1.94031,-2.51833 2.0984,-2.40514 2.2529,-2.28386 2.40384,-2.15444 1.2574,-1.02616"
         id="path5925" />
      <path
         d="m 313.83316,500.61008 0.95256,-2.07267 2.07919,-3.97712 2.30014,-3.75158 2.50773,-3.52458 2.70195,-3.29611 2.88283,-3.06615 3.05032,-2.83473 3.20446,-2.60184 3.34524,-2.36748 3.47266,-2.13164 3.5867,-1.89432 3.6874,-1.65555 3.77472,-1.4153 3.84868,-1.17357 3.90929,-0.93038 3.95652,-0.6857 3.99041,-0.43957 4.01091,-0.19195 4.01807,0.0571 4.01185,0.30769 3.99228,0.55971 3.95934,0.81322 3.91305,1.06819 3.85338,1.32463 3.78036,1.58255 3.69397,1.84194 3.59422,2.1028 3.48111,2.36512 3.35463,2.62894 3.2148,2.89421 3.0616,3.16096 2.89503,3.42917 1.38088,1.81564 v 0 l 1.31871,1.86127 2.40469,3.78919 2.0989,3.86777 1.79851,3.93405 1.50353,3.98802 1.21395,4.02967 0.92979,4.05902 0.65103,4.07607 0.37767,4.0808 0.10973,4.07323 -0.15282,4.05334 -0.40995,4.02115 -0.66167,3.97665 -0.908,3.91985 -1.14892,3.85073 -1.38442,3.7693 -1.61453,3.67557 -1.83922,3.56953 -2.05851,3.45119 -2.27239,3.32052 -2.48087,3.17756 -2.68394,3.02228 -2.8816,2.8547 -3.07386,2.67481 -3.2607,2.48262 -3.44215,2.2781 -3.61819,2.06129 -3.78882,1.83216 -3.95404,1.59073 -4.11385,1.33699 -4.26827,1.07094 -4.41727,0.79259 -2.26283,0.28806"
         id="path5927" />
      <path
         d="m 302.7281,498.06762 1.0505,-2.46948 2.31135,-4.74697 2.57877,-4.48918 2.83053,-4.22921 3.06663,-3.96705 3.28705,-3.70272 3.49181,-3.4362 3.68092,-3.1675 3.85435,-2.89663 4.01211,-2.62357 4.15422,-2.34834 4.28067,-2.07092 4.39143,-1.79132 4.48655,-1.50954 4.56599,-1.22558 4.62977,-0.93945 4.67789,-0.65112 4.71034,-0.36063 4.72713,-0.0679 4.72824,0.22691 4.71371,0.52396 4.6835,0.82318 4.63762,1.12458 4.57609,1.42816 4.49888,1.73393 4.40602,2.04187 4.29748,2.35199 4.17329,2.6643 4.03343,2.97878 3.8779,3.29544 3.70672,3.61429 3.51985,3.93532 1.68496,2.08873 v 0 l 1.61339,2.14449 2.95532,4.37518 2.59836,4.47787 2.24733,4.56591 1.90226,4.6393 1.56312,4.69803 1.22993,4.7421 0.90268,4.77152 0.58138,4.78628 0.26602,4.78638 -0.0434,4.77183 -0.34686,4.74262 -0.64439,4.69876 -0.93597,4.64023 -1.22161,4.56706 -1.5013,4.47922 -1.77506,4.37673 -2.04286,4.25959 -2.30472,4.12778 -2.56064,3.98133 -2.81061,3.82021 -3.05464,3.64443 -3.29273,3.45401 -3.52487,3.24893 -3.75106,3.02918 -3.97132,2.79479 -4.18563,2.54574 -4.39399,2.28203 -4.59642,2.00366 -4.79289,1.71064 -4.98342,1.40296 -5.16801,1.08062 -2.65137,0.41486"
         id="path5929" />
      <path
         d="m 332.94985,602.80654 -3.02111,-1.61814 -5.82799,-3.58463 -5.52045,-4.03313 -5.18666,-4.46245 -2.45996,-2.38623"
         id="path5931" />
      <path
         d="m 414.24504,613.79252 -2.56003,1.18889 -5.16073,2.13629 -5.20593,1.81838 -5.24033,1.50532 -5.26393,1.19715 -5.27672,0.89385 -5.2787,0.59541 -5.26988,0.30186 -5.25025,0.0132 -5.21981,-0.27064 -5.17857,-0.54959 -5.12651,-0.82367 -5.06366,-1.09286 -4.99,-1.35718 -4.90553,-1.61664 -4.81025,-1.87122 -4.70417,-2.12093 -4.58728,-2.36577 -4.45958,-2.60573 -4.32109,-2.84082 -4.17177,-3.07104 -4.01166,-3.2964 -3.84073,-3.51686 -3.65901,-3.73247 -3.46647,-3.94321 -3.26313,-4.14906 -3.04899,-4.35005 -2.82402,-4.54616 -2.58827,-4.7374 -2.3417,-4.92378 -2.08433,-5.10527 -1.81614,-5.28189 -0.80413,-2.70566"
         id="path5933" />
      <path
         d="m 271.12551,565.92233 -1.36434,-3.64424 -2.31581,-7.29702 -1.77722,-7.29345 -1.25291,-7.27193 -0.74289,-7.23246 -0.24713,-7.17505 0.23434,-7.09969 0.70153,-7.00639 1.15445,-6.89514 1.59309,-6.76594 2.01745,-6.6188 2.42754,-6.45371 2.82334,-6.27068 3.20486,-6.0697 3.57212,-5.85078 3.92509,-5.6139 4.26377,-5.35909 4.5882,-5.08633 4.89833,-4.79561 5.19419,-4.48696 5.47577,-4.16037 5.74307,-3.81581 5.9961,-3.45333 6.23484,-3.07288 6.45932,-2.6745 6.6695,-2.25817 6.86542,-1.8239 7.04705,-1.37168 7.2144,-0.9015 7.36749,-0.4134 7.50628,0.0927 7.63081,0.61666 3.85764,0.51045 v 0 l 2.75178,0.44709 5.42077,1.09242 5.30563,1.35036 5.18479,1.60064 5.05829,1.84331 4.92607,2.07831 4.78818,2.30568 4.64459,2.52541 4.49533,2.7375 4.34035,2.94194 4.17971,3.13874 4.01336,3.32791 3.84134,3.50942 3.66361,3.6833 3.48021,3.84953 3.2911,4.00813 3.09633,4.15908 2.89584,4.30239 2.68968,4.43806 2.47783,4.56609 2.26029,4.68647 2.03705,4.79921 1.80813,4.90432 1.57352,5.00177 1.33322,5.09159 1.08724,5.17377 0.83555,5.2483 0.57819,5.3152 0.31514,5.37445 0.0464,5.42605 -0.22804,5.47002 -0.50817,5.50635 -0.3609,2.76441"
         id="path5935" />
      <path
         d="m 444.61535,621.35662 -3.45803,2.54534 -7.04941,4.65497 -7.20773,4.08213 -7.34271,3.51905 -7.45434,2.96572 -7.54262,2.42215 -7.60755,1.88834 -7.64913,1.36428 -7.66737,0.84998 -7.66224,0.34543 -7.63378,-0.14937 -7.58197,-0.6344 -7.5068,-1.10968 -7.40829,-1.57521 -7.28643,-2.03097 -7.14121,-2.47699 -6.97265,-2.91325 -6.78074,-3.33976 -6.56549,-3.7565 -6.32687,-4.16349 -6.06491,-4.56073 -5.77961,-4.94822 -5.47096,-5.32593 -5.13894,-5.69391 -4.78359,-6.05212 -4.40489,-6.40058 -4.00284,-6.73929 -3.57743,-7.06823 -3.12868,-7.38743 -2.65658,-7.69686 -2.16113,-7.99654 -1.64233,-8.28647 -0.61932,-4.24891 v 0 l -0.47532,-4.26742 -0.50662,-8.43244 0.0686,-8.28315 0.62377,-8.1185 1.15878,-7.93851 1.67366,-7.74317 2.16843,-7.5325 2.64306,-7.30649 3.09758,-7.06512 3.53198,-6.80841 3.94624,-6.53637 4.34039,-6.24897 4.71441,-5.94624 5.06832,-5.62817 5.40209,-5.29474 5.71574,-4.94597 6.00928,-4.58187 6.28268,-4.20242 6.53597,-3.80762 6.76913,-3.39749 6.98216,-2.97201 7.17508,-2.53118 7.34788,-2.07501 7.50054,-1.60351 7.63309,-1.11665 7.74551,-0.61445 7.83781,-0.0969 7.90998,0.43597 7.96204,0.9842 7.99397,1.54776 8.00577,2.12668 7.99746,2.72093 3.98932,1.58811"
         id="path5937" />
      <path
         d="m 327.58401,649.30411 -3.59477,-1.35631 -6.9905,-2.98447 -6.72049,-3.33404 -6.44494,-3.66814 -6.16387,-3.98676 -5.87726,-4.28989 -5.58512,-4.57756 -5.28746,-4.84974 -4.98426,-5.10645 -4.67552,-5.34768 -4.36127,-5.57344 -4.04148,-5.7837 -3.71615,-5.97851 -3.3853,-6.15782 -3.04892,-6.32167 -2.707,-6.47003 -2.35956,-6.60292 -2.00658,-6.72032 -1.64807,-6.82226 -1.28403,-6.90872 -0.91446,-6.97969 -0.53936,-7.03519 -0.15873,-7.07521 0.22743,-7.09975 0.61912,-7.10882 1.01635,-7.10241 1.4191,-7.08052 1.82739,-7.04316 2.24121,-6.99031 2.66055,-6.92199 3.08544,-6.83819 3.51584,-6.73892 1.92105,-3.32739"
         id="path5939" />
      <path
         d="m 417.256,660.92517 -4.86079,1.53994 -9.70495,2.53904 -9.66399,1.83448 -9.60052,1.14981 -9.51453,0.48504 -9.40601,-0.15984 -9.27496,-0.78482 -9.1214,-1.38992 -8.94531,-1.97512 -8.74671,-2.54043 -8.52557,-3.08584 -8.28191,-3.61136 -8.01574,-4.117 -7.72704,-4.60272 -7.41582,-5.06857 -7.08207,-5.51452 -6.7258,-5.94057 -6.34701,-6.34674 -5.9457,-6.733 -5.52187,-7.09938 -5.07551,-7.44587 -4.60662,-7.77245 -4.11523,-8.07916 -3.6013,-8.36595 -3.06485,-8.63287 -2.50587,-8.87989 -1.92439,-9.10701 -1.32037,-9.31424 -0.69383,-9.50158 -0.0448,-9.66903 0.62681,-9.81658 1.32092,-9.94424 0.92779,-5.01378 v 0 l 1.06936,-4.8443 2.62089,-9.49695 3.24459,-9.22065 3.84531,-8.91945 4.42302,-8.59337 4.97774,-8.24238 5.50946,-7.86651 6.01819,-7.46573 6.5039,-7.04008 6.96663,-6.58952 7.40637,-6.11407 7.82309,-5.61373 8.21683,-5.08849 8.58757,-4.53837 8.9353,-3.96334 9.26005,-3.36342 4.74461,-1.44897"
         id="path5941" />
      <path
         d="m 507.59165,597.89478 -1.31068,2.4274 -2.72069,4.7461 -2.84974,4.60102 -2.97476,4.45578 -3.09571,4.3104 -3.21262,4.16487 -3.32548,4.01919 -3.43429,3.87336 -5.3466,5.53627 -7.47182,6.86989 -7.83416,6.28387 -8.16409,5.69665 -8.46163,5.10823 -8.72677,4.51862 -8.9595,3.9278 -9.15984,3.3358 -9.32777,2.74258 -9.46331,2.14818 -9.56644,1.55257 -9.63718,0.95577 -9.67551,0.35776 -9.68145,-0.24143 -9.65497,-0.84183 -9.59612,-1.44343 -9.50484,-2.04622 -9.38118,-2.65021 -9.22511,-3.2554 -9.03665,-3.86179 -8.81577,-4.46938 -8.56251,-5.07816 -8.27685,-5.68814 -7.95877,-6.29932 -5.74086,-5.1263 -3.71096,-3.60915 -3.61323,-3.76262 -3.51143,-3.91623 -3.40559,-4.07001 -3.2957,-4.22392 -3.18176,-4.378 -3.06376,-4.53221 -1.48637,-2.32398 v 0 l -2.32577,-3.82782 -4.2921,-7.81275 -3.81101,-8.0041 -3.32774,-8.17372 -2.84226,-8.3216 -2.35458,-8.44773 -1.86472,-8.55213 -1.37266,-8.63477 -0.87839,-8.69569 -0.38194,-8.73485 0.11672,-8.75228 0.61756,-8.74796 1.12061,-8.72191 1.62586,-8.67411 2.13329,-8.60457 2.64292,-8.51329 1.51327,-4.21561"
         id="path5943" />
      <path
         d="m 533.8185,495.97624 0.81483,4.74825 1.21026,9.54966 0.64968,9.59998 0.0874,9.62564 -0.16765,4.81474"
         id="path5945" />
      <path
         d="m 547.80473,529.42422 -0.0851,3.16122 -0.328,6.2626 -0.53508,6.18095 -0.73809,6.09705 -0.93703,6.0109 -1.13192,5.9225 -1.32273,5.83186 -1.50949,5.73896 -1.69216,5.64382 -1.87079,5.54643 -2.04534,5.44679 -2.21582,5.3449 -2.38225,5.24076 -2.5446,5.13438 -2.7029,5.02575 -2.85711,4.91487 -3.00728,4.80173 -3.15337,4.68636 -3.2954,4.56874 -3.43336,4.44886 -3.56726,4.32673 -3.69709,4.20237 -3.82285,4.07575 -3.94456,3.94687 -6.13612,5.67378 -8.5695,7.09301 -8.98312,6.53707 -9.36421,5.96315 -9.71278,5.37123 -10.02883,4.76133 -10.31234,4.13345 -10.56333,3.48757 -8.06765,2.18101 -5.43992,1.2428 -5.48438,1.07121 -5.52477,0.89738 -5.56109,0.7213 -5.59334,0.54297 -5.62154,0.36239 -5.64566,0.17956 -5.66571,-0.006 -5.68172,-0.19283 -5.69364,-0.38241 -5.7015,-0.57423 -5.7053,-0.7683 -5.70503,-0.96462 -5.70069,-1.16318 -5.6923,-1.36399 -5.67983,-1.56706 -5.66329,-1.77236 -5.6427,-1.97993 -5.61804,-2.18973 -5.58931,-2.40179 -5.55651,-2.61609 -5.51966,-2.83264 -5.47873,-3.05145 -2.72275,-1.60847 v 0 l -2.42139,-1.48499 -4.76798,-3.08556 -4.66522,-3.23753 -4.55881,-3.38699 -2.23835,-1.74874"
         id="path5947" />
      <path
         d="m 470.00551,366.88225 4.5958,2.91637 8.84087,6.1508 8.37046,6.55595 7.89672,6.93839 7.41967,7.29809 6.93931,7.63507 6.45563,7.94934 5.96863,8.24087 5.47831,8.50969 4.98468,8.75579 4.48774,8.97915 3.98747,9.1798 3.4839,9.35773 2.977,9.51293 2.46678,9.6454 1.95326,9.75517 1.43642,9.8422 0.91625,9.90651 0.39278,9.9481 -0.13401,9.96696 -0.66413,9.96311 -1.19755,9.93653 -1.73429,9.88722 -2.27435,9.8152 -2.81773,9.72045 -3.36441,9.60298 -3.91442,9.46279 -4.46775,9.29987 -5.02438,9.11423 -5.58434,8.90587 -6.14761,8.67479 -6.7142,8.42098 -3.57061,4.10821"
         id="path5949" />
      <path
         d="m 386.3128,723.89547 -3.55886,0.22655 -7.06662,0.26973 -6.99602,0.0289 -6.92247,-0.20769 -6.846,-0.43989 -6.76658,-0.66776 -6.68422,-0.89129 -6.59893,-1.11048 -6.51068,-1.32534 -6.41951,-1.53586 -6.3254,-1.74205 -6.22834,-1.94389 -6.12835,-2.1414 -6.02542,-2.33457 -5.91955,-2.52341 -5.81073,-2.70791 -5.69899,-2.88807 -5.58429,-3.0639 -5.46667,-3.23538 -5.3461,-3.40254 -5.2226,-3.56535 -5.09614,-3.72383 -4.96676,-3.87797 -4.83444,-4.02778 -4.69917,-4.17324 -4.56098,-4.31438 -4.41982,-4.45117 -4.27575,-4.58362 -4.12873,-4.71175 -3.97877,-4.83553 -3.82586,-4.95498 -3.67003,-5.07009 -3.51126,-5.18086 -3.34953,-5.2873 -3.18488,-5.3894 -3.01729,-5.48716 -2.84675,-5.58059 -2.67328,-5.66968 -2.49686,-5.75443 -2.31752,-5.83484 -2.13522,-5.91093 -1.94999,-5.98266 -1.76182,-6.05007 -1.57072,-6.11314 -1.37666,-6.17188 -1.17968,-6.22626 -0.97975,-6.27633 -0.77689,-6.32204 -0.57108,-6.36343 -0.36234,-6.40048 -0.15066,-6.43319 0.064,-6.46156 0.28153,-6.48561 0.50203,-6.5053 0.72547,-6.52066 0.95184,-6.53169 1.18117,-6.53838 1.41342,-6.54074 1.64863,-6.53875 1.88675,-6.53243 2.12783,-6.52177 2.37185,-6.50678 2.6188,-6.48744 2.86869,-6.46378 1.52898,-3.22166 v 0 l 1.58323,-3.19535 3.29972,-6.25473 3.47302,-6.07316 3.6411,-5.89119 3.80396,-5.70887 3.96159,-5.52615 4.11399,-5.34306 4.26117,-5.15959 4.40312,-4.97575 4.53985,-4.79153 4.67135,-4.60693 4.79763,-4.42196 4.91868,-4.23661 5.03451,-4.05087 5.14511,-3.86478 5.25049,-3.67829 5.35063,-3.49143 5.44556,-3.30419 5.53526,-3.11658 5.61973,-2.92859 5.69899,-2.74023 5.773,-2.55147 5.8418,-2.36236 5.90538,-2.17286 5.96372,-1.98298 6.01685,-1.79273 6.06474,-1.6021 6.10741,-1.41109 6.14485,-1.21971 6.17708,-1.02794 6.20407,-0.83581 6.22584,-0.6433 6.24239,-0.4504 6.2537,-0.25714 6.2598,-0.0635 6.26066,0.13053 6.25631,0.32494 6.24672,0.51971 6.23192,0.71487 6.21188,0.91039 6.18662,1.10631 6.15614,1.30259 6.12042,1.49925 6.07949,1.69629 6.03333,1.89371 5.98195,2.0915 5.92533,2.28967 5.8635,2.48822 5.79643,2.68715 5.72415,2.88644 5.64663,3.08612 5.5639,3.28618 5.47593,3.48661 5.38274,3.68742 5.28432,3.88861 5.18069,4.09017 5.07182,4.29211 4.95773,4.49443 4.83841,4.69712 4.71388,4.9002 4.5841,5.10364 4.44911,5.30747 4.3089,5.51167 4.16345,5.71625 2.02555,2.93496"
         id="path5951" />
      <path
         d="m 466.31888,713.21497 -5.07893,2.47477 -10.30598,4.51714 -10.48376,3.93982 -10.63788,3.36152 -10.76837,2.78223 -10.87519,2.20199 -10.95837,1.62076 -11.01788,1.03856 -11.05376,0.45538 -11.06598,-0.12876 -11.05455,-0.71389 -11.01946,-1.29999 -10.96073,-1.88706 -10.87833,-2.4751 -10.77231,-3.06413 -10.64261,-3.65412 -5.26528,-2.04862"
         id="path5953" />
      <path
         d="m 449.92261,319.70988 5.52977,2.1692 10.78107,4.72798 10.40272,5.23057 10.01593,5.71285 9.6207,6.17485 9.21702,6.61658 8.80491,7.03801 8.38434,7.43916 7.95533,7.82002 7.51789,8.1806 7.07199,8.5209 6.61766,8.84091 6.15488,9.14063 5.68365,9.42008 5.20399,9.67923 4.71588,9.9181 4.21933,10.13669 3.71433,10.33499 3.20089,10.51301 2.679,10.67073 2.14868,10.80819 1.60991,10.92535 1.0627,11.02223 0.50704,11.09882 -0.0571,11.15512 -0.62961,11.19115 -1.21059,11.20689 -1.80002,11.20235 -2.3979,11.17751 -3.00421,11.13239 -3.61898,11.067 -4.24218,10.98131 -2.35743,5.45218"
         id="path5955" />
      <path
         d="m 195.87318,375.39794 2.73925,-3.14627 5.58895,-6.09919 5.73121,-5.84231 5.86744,-5.58655 5.99765,-5.33193 6.12184,-5.07843 6.23999,-4.82604 6.35213,-4.57478 6.45824,-4.32465 6.55832,-4.07563 6.65238,-3.82774 6.74041,-3.58098 6.82243,-3.33534 6.89841,-3.09081 6.96837,-2.84742 7.03231,-2.60514 7.09022,-2.36399 7.1421,-2.12396 7.18796,-1.88506 7.2278,-1.64728 7.26161,-1.41062 7.2894,-1.17508 7.31116,-0.94067 7.3269,-0.70738 7.33661,-0.47521 7.34029,-0.24417 7.33796,-0.0143 7.32959,0.21454 7.31521,0.44222 7.2948,0.66877 7.26836,0.8942 7.23589,1.1185 7.19741,1.34169 7.1529,1.56374 7.10237,1.78468 7.0458,2.00449 6.98321,2.22318 6.91461,2.44074 6.83997,2.65719 6.75931,2.87251 6.67262,3.0867 6.57991,3.29978 6.48118,3.51173 6.37642,3.72256 6.26563,3.93226 6.14883,4.14084 6.02599,4.3483 5.89713,4.55463 5.76225,4.75985 5.62134,4.96393 5.4744,5.1669 5.32145,5.36874 5.16246,5.56947 4.99746,5.76906 4.82642,5.96753 4.64937,6.16488 4.46628,6.36111 4.27718,6.55621 4.08204,6.7502 3.88089,6.94305 3.6737,7.13479 3.4605,7.32539 3.24127,7.51489 3.01601,7.70325 1.42165,3.92191 v 0 l 1.86959,5.51655 3.31018,11.12547 2.7392,11.23094 2.16945,11.31517 1.60092,11.37817 1.03363,11.41992 0.46757,11.44044 -0.0973,11.4397 -0.66088,11.41774 -1.22325,11.37454 -1.78439,11.31009 -2.34432,11.2244 -2.903,11.11747 -3.46046,10.98931 -4.0167,10.8399 -4.57169,10.66926 -2.49358,5.26399"
         id="path5957" />
      <path
         d="m 612.64296,561.05645 -0.66397,4.32278 -1.53418,8.53615 -1.80416,8.38827 -2.0682,8.238 -2.32626,8.08535 -2.57835,7.93033 -2.82448,7.77292 -3.06464,7.61313 -3.29883,7.45096 -3.52705,7.28641 -3.74931,7.11948 -3.9656,6.95017 -4.17591,6.77847 -4.38027,6.60439 -4.57866,6.42794 -4.77107,6.2491 -4.95752,6.06788 -5.138,5.88428 -5.31252,5.6983 -5.48107,5.50993 -5.64364,5.3192 -5.80025,5.12606 -5.9509,4.93057 -6.09558,4.73267 -6.23428,4.53241 -6.36702,4.32976 -6.4938,4.12473 -6.6146,3.91732 -6.72944,3.70752 -6.83831,3.49535 -6.94122,3.2808 -7.03814,3.06386 -7.12912,2.84454 -7.21411,2.62285 -7.29315,2.39876 -7.36621,2.17231 -7.43331,1.94347 -7.49443,1.71224 -7.5496,1.47864 -7.59879,1.24265 -7.64201,1.00429 -7.67928,0.76354 -7.71056,0.52041 -7.73589,0.27491 -7.75524,0.027 -7.76864,-0.22326 -7.77605,-0.47591 -7.7775,-0.73094 -7.77299,-0.98836 -7.7625,-1.24816 -7.74605,-1.51033 -7.72364,-1.77489 -7.69525,-2.04183 -7.6609,-2.31115 -7.62057,-2.58285 -7.57428,-2.85694 -7.52203,-3.1334 -7.46381,-3.41224 -7.39961,-3.69347 -7.32945,-3.97707 -7.25333,-4.26307 -7.17123,-4.55143 -7.08317,-4.84219 -6.98913,-5.13531 -3.45745,-2.67833 v 0 l -3.41165,-2.73641 -6.62544,-5.59671 -6.36237,-5.75658 -6.10021,-5.91012 -5.839,-6.05727 -5.57869,-6.19809 -5.3193,-6.33253 -5.06085,-6.46062 -4.80331,-6.58235 -4.54669,-6.69772 -4.29099,-6.80674 -4.03622,-6.90938 -3.78237,-7.00569 -3.52944,-7.09562 -3.27743,-7.1792 -3.02634,-7.25642 -2.77618,-7.32728 -2.52694,-7.39178 -2.27861,-7.44992 -2.03121,-7.50171 -1.78474,-7.54714 -1.53917,-7.5862 -1.29455,-7.61891 -1.05083,-7.64526 -0.80804,-7.66525 -0.56617,-7.67889 -0.32522,-7.68615 -0.0852,-7.68708 0.15391,-7.68163 0.39209,-7.66982 0.62935,-7.65167 0.8657,-7.62714 1.10111,-7.59627 1.3356,-7.55903 1.56918,-7.51543 1.80183,-7.46548 2.03357,-7.40916 2.26437,-7.3465 2.49426,-7.27746 2.72323,-7.20207 2.95126,-7.12032 3.1784,-7.03222 3.40459,-6.93775 3.62987,-6.83693 3.85423,-6.72974 4.07766,-6.61621 4.30017,-6.4963 4.52177,-6.37004 4.74244,-6.23743 4.96219,-6.09844 5.18101,-5.95312 5.39892,-5.80142 5.6159,-5.64336 5.83196,-5.47896 6.0471,-5.30818 6.26132,-5.13106 6.47462,-4.94757 6.68699,-4.75772 6.89845,-4.56152 7.10897,-4.35895 7.31859,-4.15004 7.52727,-3.93475 7.73504,-3.71311 7.94188,-3.48511 4.04822,-1.65507"
         id="path5959" />
      <path
         d="m 487.06307,299.34312 4.92477,2.56427 9.62157,5.4125 9.31267,5.78032 8.99786,6.13519 8.67714,6.47712 8.35053,6.8061 8.01798,7.12212 7.67955,7.42521 7.33519,7.71535 6.98493,7.99253 6.62877,8.25677 6.26668,8.50806 5.89869,8.7464 5.5248,8.9718 5.14499,9.18424 4.75927,9.38374 4.36765,9.57029 3.97011,9.7439 3.56667,9.90455 3.15732,10.05225 2.74206,10.18702 2.32088,10.30882 1.89381,10.41769 1.46082,10.51361 1.02191,10.59657 0.57712,10.66658 0.12639,10.72366 -0.33023,10.76778 -0.79277,10.79896 -1.26121,10.81718 -1.73556,10.82247 -2.21583,10.81479 -1.28985,5.40047"
         id="path5961" />
      <path
         d="m 275.84963,773.69564 -3.37344,-1.33765 -6.67583,-2.80636 -6.57885,-2.97876 -6.47916,-3.14838 -6.37677,-3.31519 -6.27166,-3.47921 -6.16386,-3.64045 -6.05335,-3.79887 -5.94013,-3.95451 -5.82421,-4.10736 -5.70558,-4.2574 -5.58424,-4.40466 -5.46021,-4.54913 -5.33346,-4.69078 -5.20401,-4.82966 -5.07185,-4.96574 -4.93699,-5.09903 -4.79943,-5.22951 -4.65915,-5.3572 -4.51617,-5.48211 -4.37049,-5.60421 -4.2221,-5.72352 -4.071,-5.84004 -3.91721,-5.95377 -3.76069,-6.06469 -3.60148,-6.17282 -3.43957,-6.27817 -3.27494,-6.38071 -3.10762,-6.48046 -2.93757,-6.57741 -2.76484,-6.67158 -2.5894,-6.76295 -1.22805,-3.41486"
         id="path5963" />
      <path
         d="m 601.68635,680.6752 -2.81413,4.1075 -5.78586,8.00096 -5.98991,7.71601 -6.18666,7.43158 -6.3761,7.14763 -6.55826,6.86419 -6.73311,6.58125 -6.90067,6.29881 -7.06093,6.01688 -7.21389,5.73544 -7.35956,5.45451 -7.49792,5.17408 -7.62899,4.89415 -7.75276,4.61471 -7.86923,4.3358 -7.97842,4.05736 -8.08028,3.77945 -8.17488,3.50202 -8.26215,3.2251 -8.34214,2.94868 -8.41483,2.67276 -8.48022,2.39735 -8.53831,2.12243 -8.58911,1.84802 -8.6326,1.5741 -8.66881,1.3007 -8.69771,1.02779 -8.71931,0.75538 -8.73363,0.48347 -8.74063,0.21207 -8.74034,-0.0588 -8.73276,-0.32923 -8.71788,-0.59914 -8.69569,-0.86853 -8.66622,-1.13742 -8.62945,-1.40583 -8.58537,-1.67371 -8.534,-1.94111 -8.47533,-2.208 -8.40936,-2.47438 -8.3361,-2.74028 -8.25554,-3.00566 -8.16769,-3.27054 -8.07252,-3.53493 -7.97008,-3.79881 -7.86032,-4.06219 -7.74327,-4.32506 -7.61892,-4.58744 -7.48729,-4.84932 -7.34834,-5.11069 -7.2021,-5.37157 -7.04856,-5.63193 -6.88773,-5.89181 -6.7196,-6.15117 -6.54417,-6.41003 -6.36144,-6.66841 -6.17141,-6.92626 -5.9741,-7.18363 -5.76947,-7.44048 -5.55756,-7.69685 -5.33834,-7.9527 -5.11183,-8.20805 -4.87802,-8.46292 -4.63691,-8.71726 -2.22576,-4.45385 v 0 l -1.97526,-4.11948 -3.72785,-8.27079 -3.43338,-8.309 -3.14183,-8.3421 -2.85319,-8.37009 -2.56747,-8.393 -2.28465,-8.41079 -2.00477,-8.42348 -1.72778,-8.43107 -1.45372,-8.43356 -1.18256,-8.43094 -0.91433,-8.42323 -0.64901,-8.4104 -0.3866,-8.39248 -0.1271,-8.36946 0.12947,-8.34133 0.38314,-8.3081 0.63388,-8.26976 0.88173,-8.22633 1.12664,-8.17779 1.36865,-8.12415 1.60775,-8.06541 1.84392,-8.00156 2.07718,-7.93262 2.30753,-7.85856 2.53497,-7.77941 2.75949,-7.69516 2.98109,-7.6058 3.19978,-7.51134 3.41556,-7.41177 3.62842,-7.30711 3.83837,-7.19734 4.0454,-7.08247 4.24952,-6.9625 4.45072,-6.83742 4.64902,-6.70724 4.84438,-6.57197 5.03685,-6.43158 5.2264,-6.28609 5.41302,-6.13551 5.59675,-5.97982 5.77754,-5.81902 5.95544,-5.65313 6.1304,-5.48213 6.30247,-5.30603 6.47161,-5.12482 6.63784,-4.93853 6.80116,-4.74711 6.96156,-4.5506 7.11905,-4.34899 7.27361,-4.14227 7.42528,-3.93046 7.57402,-3.71353 7.71985,-3.49152 7.86276,-3.26438 8.00276,-3.03216 8.13985,-2.79483 8.27402,-2.5524 8.40528,-2.30485 8.53362,-2.05223 8.65904,-1.79448 8.78156,-1.53163 8.90116,-1.2637 9.01784,-0.99064 4.55177,-0.39133"
         id="path5965" />
      <path
         d="m 457.15423,251.05156 5.83685,1.87315 11.48518,4.09006 11.22661,4.53816 10.95939,4.97398 10.68354,5.39754 10.39905,5.8088 10.10593,6.20779 9.80415,6.59449 9.49374,6.96893 9.1747,7.33107 8.84701,7.68095 8.51068,8.01853 8.16572,8.34385 7.81212,8.65688 7.44987,8.95763 7.07899,9.2461 6.69946,9.5223 6.31131,9.78621 5.9145,10.03785 5.50906,10.2772 5.09499,10.50428 4.67227,10.71907 4.2409,10.92159 3.80092,11.11183 3.35227,11.28979 2.895,11.45547 2.42909,11.60887 1.95453,11.74999 1.47135,11.87883 0.9795,11.99539 0.47904,12.09967 -0.0301,12.19168 -0.20866,6.1265"
         id="path5967" />
      <path
         d="m 613.40788,703.02347 -2.55659,3.43891 -5.22761,6.73365 -5.37655,6.54114 -5.52113,6.34829 -5.66135,6.15511 -5.79719,5.96158 -5.92867,5.76772 -6.05578,5.57351 -6.17854,5.37896 -6.29691,5.18408 -6.41094,4.98886 -6.52058,4.79329 -6.62587,4.59739 -6.72679,4.40115 -6.82334,4.20456 -6.91553,4.00764 -7.00334,3.81038 -7.08681,3.61277 -7.16589,3.41484 -7.24062,3.21655 -7.31097,3.01793 -7.37697,2.81897 -7.43859,2.61967 -7.49585,2.42003 -7.54874,2.22005 -7.59727,2.01973 -7.64143,1.81908 -7.68123,1.61807 -7.71666,1.41674 -7.74772,1.21505 -7.77442,1.01304 -7.79675,0.81069 -7.81472,0.60798 -7.82832,0.40495 -7.83755,0.20157 -7.84242,-0.002 -7.84292,-0.2062 -7.83906,-0.4106 -7.83083,-0.61533 -7.81823,-0.8204 -7.80128,-1.02582 -7.77994,-1.23157 -7.75425,-1.43767 -7.72419,-1.6441 -7.68977,-1.85087 -7.65098,-2.05799 -7.60781,-2.26544 -7.5603,-2.47323 -7.50841,-2.68136 -7.45215,-2.88984 -7.39153,-3.09864 -7.32654,-3.3078 -7.25719,-3.51728 -7.18347,-3.72712 -7.10539,-3.93729 -7.02294,-4.14779 -6.93612,-4.35865 -6.84494,-4.56983 -6.74939,-4.78136 -6.64947,-4.99323 -6.5452,-5.20544 -6.43654,-5.41799 -6.32354,-5.63087 -6.20616,-5.8441 -3.0577,-3.00212"
         id="path5969" />
      <path
         d="m 675.14387,459.09069 0.97006,4.54331 1.73473,9.12251 1.46036,9.16518 1.18538,9.20166 0.90979,9.23195 0.63359,9.25604 0.35679,9.27394 0.0794,9.28564 -0.0645,4.64527"
         id="path5971" />
      <path
         d="m 396.6916,205.47305 5.76549,0.49211 11.40487,1.26619 11.23365,1.63576 11.05878,1.99767 10.88021,2.3519 10.69798,2.69847 10.51208,3.03738 10.32249,3.36861 10.12924,3.69219 9.93232,4.00809 9.73171,4.31634 9.52744,4.6169 9.31948,4.90982 9.10787,5.19506 8.89256,5.47263 8.6736,5.74255 8.45095,6.00479 8.22463,6.25936 7.99463,6.50628 7.76097,6.74552 7.52363,6.9771 7.28262,7.20102 7.03792,7.41726 6.78957,7.62585 6.53752,7.82676 6.28182,8.02 6.02243,8.20559 5.75937,8.38351 5.49264,8.55376 5.22223,8.71634 4.94816,8.87126 4.67039,9.01852 4.38898,9.1581 4.10386,9.29002 3.8151,9.41427 3.52264,9.53086 3.22652,9.63979 2.92672,9.74104 2.62325,9.83463 2.3161,9.92055 2.00528,9.99882 1.69079,10.0694 1.37263,10.13233 1.05078,10.18759 0.72526,10.23518 0.39608,10.27511 0.0632,10.30737 -0.27332,10.33196 -0.61354,10.34889 -0.95742,10.35816 -1.30497,10.35975 -1.65622,10.35369 -2.01112,10.33995 -2.36969,10.31854 -2.73196,10.28948 -3.09788,10.25275 -3.46749,10.20835 -3.84076,10.15628 -4.21771,10.09654 -4.59834,10.02916 -4.98263,9.95408 -5.37061,9.87136 -5.76225,9.78096 -6.15757,9.68289 -3.22818,4.80228 v 0 l -3.50497,5.01693 -7.2863,9.8205 -7.64728,9.528 -7.99919,9.22583 -8.34209,8.91401 -8.67593,8.59252 -9.00073,8.26137 -9.3165,7.92057 -4.77384,3.82946"
         id="path5973" />
      <path
         d="m 604.34213,287.7609 4.75158,4.72286 9.17063,9.67739 8.72514,9.97412 8.27707,10.25624 7.82644,10.52377 7.37323,10.7767 6.91746,11.01502 6.4591,11.23875 5.99818,11.44787 5.53469,11.6424 5.06862,11.82232 4.59999,11.98765 4.12879,12.13838 3.655,12.2745 3.17866,12.39603 2.69973,12.50295 2.21825,12.59528 1.73418,12.673 1.24755,12.73613 0.75834,12.78465 0.26656,12.81858 -0.22778,12.8379 -0.72471,12.84263 -1.22419,12.83276 -1.72626,12.80828 -2.23089,12.7692 -2.7381,12.71553 -3.24787,12.64725 -3.76022,12.56438 -4.27514,12.46691 -4.79263,12.35482 -5.31269,12.22816 -2.85217,6.06201"
         id="path5975" />
    </g>
    <g
       fill="none"
       stroke="#000000"
       stroke-width="0.03cm"
       id="g189"
       transform="translate(0.40087941,0.40087941)">
      <path
         d="M 0,0 35.43307,35.43307"
         id="path127" />
      <path
         d="m 364.64213,527.23915 -0.0399,-0.33262 -0.0351,-0.66861 0.005,-0.33498"
         id="path129" />
      <path
         d="m 371.8581,507.48127 1.0641,0.0188 2.0772,0.21019 1.99958,0.4295 1.91043,0.63568 1.80977,0.82877 1.69758,1.00872 1.57385,1.17557 1.4386,1.3293 1.29183,1.46991 1.13353,1.59741 0.96371,1.7118 0.78235,1.81307 0.58947,1.90121 0.38507,1.97626 0.16914,2.03818 -0.0583,2.08699 -0.11806,1.0577"
         id="path131" />
      <path
         d="m 398.49597,540.17205 -1.0614,1.85221 -2.41394,3.36432 -2.75999,2.90931 -3.05547,2.4524 -3.30037,1.99365 -3.4947,1.533 -3.63845,1.07049 -3.73162,0.6061 -3.77422,0.13983 -3.76624,-0.32829 -3.70768,-0.79831 -3.59856,-1.27019 -3.43885,-1.74395 -3.22857,-2.21959 -2.96772,-2.69708 -2.65628,-3.17647 -1.19555,-1.76859 v 0 l -1.03124,-1.77447 -1.66927,-3.69446 -1.14396,-3.84297 -0.61743,-3.93683 -0.0897,-3.97606 0.43935,-3.96066 0.96958,-3.89062 1.50104,-3.76596 0.95021,-1.81915"
         id="path133" />
      <path
         d="m 378.44276,566.8227 -1.46172,0.20476 -2.89258,0.25596 -2.84686,0.0568 -2.79568,-0.1355 -2.73902,-0.32109 -2.67691,-0.49991 -2.60932,-0.67196 -2.53626,-0.83724 -3.65546,-1.55098 -4.56723,-2.58334 -4.1766,-3.12269 -3.74222,-3.60795 -3.26411,-4.03905 -2.74226,-4.41605 -2.17666,-4.73892 -1.56733,-5.00766 -0.74931,-3.89955 -0.28635,-2.65549 -0.1094,-2.69223 0.073,-2.7222 0.26087,-2.74542 0.45421,-2.76186 0.65302,-2.77153 0.85729,-2.77445 0.50696,-1.38621 v 0 l 0.55353,-1.36827 1.22462,-2.63302 1.37421,-2.49388 1.51519,-2.35337 1.64758,-2.21152 1.77138,-2.06832 1.8866,-1.92376 1.99321,-1.77784 3.17092,-2.39023 4.52084,-2.66367 4.79264,-2.05569 4.99568,-1.43689 5.12998,-0.80727 5.19554,-0.16684 5.19235,0.48441 5.12043,1.14648 3.75176,1.30085 2.44289,1.07977 2.38625,1.25136 2.321,1.42432 2.24716,1.59863 2.16473,1.77429 2.07372,1.9513 1.97409,2.12966 0.94701,1.13214"
         id="path135" />
      <path
         d="m 401.43774,569.51699 -1.57232,1.02798 -3.19231,1.86237 -3.24757,1.60831 -3.29287,1.35906 -3.32821,1.11465 -3.35359,0.87506 -3.369,0.6403 -3.37444,0.41036 -3.36994,0.18527 -3.35545,-0.035 -3.33102,-0.25046 -3.29661,-0.46108 -3.25225,-0.66687 -3.19792,-0.86784 -3.13363,-1.06397 -3.05937,-1.25528 -2.97516,-1.44176 -2.88098,-1.62341 -2.77683,-1.80023 -2.66273,-1.97223 -2.53867,-2.1394 -2.40463,-2.30174 -2.26064,-2.45925 -2.10668,-2.61194 -1.94276,-2.75979 -1.76888,-2.90282 -1.58503,-3.04101 -1.39123,-3.17439 -1.18745,-3.30294 -0.97372,-3.42665 -0.75002,-3.54554 -0.51637,-3.65959 -0.16744,-1.87107 v 0 l -0.0923,-1.62035 -0.0343,-3.22784 0.16306,-3.20389 0.35685,-3.17185 0.54709,-3.13169 0.73374,-3.08341 0.91682,-3.02703 1.09633,-2.96253 1.27227,-2.88991 1.44464,-2.80919 1.61344,-2.72034 1.77866,-2.62339 1.94031,-2.51833 2.0984,-2.40514 2.2529,-2.28386 2.40384,-2.15444 1.2574,-1.02616"
         id="path137" />
      <path
         d="m 313.83316,500.61008 0.95256,-2.07267 2.07919,-3.97712 2.30014,-3.75158 2.50773,-3.52458 2.70195,-3.29611 2.88283,-3.06615 3.05032,-2.83473 3.20446,-2.60184 3.34524,-2.36748 3.47266,-2.13164 3.5867,-1.89432 3.6874,-1.65555 3.77472,-1.4153 3.84868,-1.17357 3.90929,-0.93038 3.95652,-0.6857 3.99041,-0.43957 4.01091,-0.19195 4.01807,0.0571 4.01185,0.30769 3.99228,0.55971 3.95934,0.81322 3.91305,1.06819 3.85338,1.32463 3.78036,1.58255 3.69397,1.84194 3.59422,2.1028 3.48111,2.36512 3.35463,2.62894 3.2148,2.89421 3.0616,3.16096 2.89503,3.42917 1.38088,1.81564 v 0 l 1.31871,1.86127 2.40469,3.78919 2.0989,3.86777 1.79851,3.93405 1.50353,3.98802 1.21395,4.02967 0.92979,4.05902 0.65103,4.07607 0.37767,4.0808 0.10973,4.07323 -0.15282,4.05334 -0.40995,4.02115 -0.66167,3.97665 -0.908,3.91985 -1.14892,3.85073 -1.38442,3.7693 -1.61453,3.67557 -1.83922,3.56953 -2.05851,3.45119 -2.27239,3.32052 -2.48087,3.17756 -2.68394,3.02228 -2.8816,2.8547 -3.07386,2.67481 -3.2607,2.48262 -3.44215,2.2781 -3.61819,2.06129 -3.78882,1.83216 -3.95404,1.59073 -4.11385,1.33699 -4.26827,1.07094 -4.41727,0.79259 -2.26283,0.28806"
         id="path139" />
      <path
         d="m 302.7281,498.06762 1.0505,-2.46948 2.31135,-4.74697 2.57877,-4.48918 2.83053,-4.22921 3.06663,-3.96705 3.28705,-3.70272 3.49181,-3.4362 3.68092,-3.1675 3.85435,-2.89663 4.01211,-2.62357 4.15422,-2.34834 4.28067,-2.07092 4.39143,-1.79132 4.48655,-1.50954 4.56599,-1.22558 4.62977,-0.93945 4.67789,-0.65112 4.71034,-0.36063 4.72713,-0.0679 4.72824,0.22691 4.71371,0.52396 4.6835,0.82318 4.63762,1.12458 4.57609,1.42816 4.49888,1.73393 4.40602,2.04187 4.29748,2.35199 4.17329,2.6643 4.03343,2.97878 3.8779,3.29544 3.70672,3.61429 3.51985,3.93532 1.68496,2.08873 v 0 l 1.61339,2.14449 2.95532,4.37518 2.59836,4.47787 2.24733,4.56591 1.90226,4.6393 1.56312,4.69803 1.22993,4.7421 0.90268,4.77152 0.58138,4.78628 0.26602,4.78638 -0.0434,4.77183 -0.34686,4.74262 -0.64439,4.69876 -0.93597,4.64023 -1.22161,4.56706 -1.5013,4.47922 -1.77506,4.37673 -2.04286,4.25959 -2.30472,4.12778 -2.56064,3.98133 -2.81061,3.82021 -3.05464,3.64443 -3.29273,3.45401 -3.52487,3.24893 -3.75106,3.02918 -3.97132,2.79479 -4.18563,2.54574 -4.39399,2.28203 -4.59642,2.00366 -4.79289,1.71064 -4.98342,1.40296 -5.16801,1.08062 -2.65137,0.41486"
         id="path141" />
      <path
         d="m 332.94985,602.80654 -3.02111,-1.61814 -5.82799,-3.58463 -5.52045,-4.03313 -5.18666,-4.46245 -2.45996,-2.38623"
         id="path143" />
      <path
         d="m 414.24504,613.79252 -2.56003,1.18889 -5.16073,2.13629 -5.20593,1.81838 -5.24033,1.50532 -5.26393,1.19715 -5.27672,0.89385 -5.2787,0.59541 -5.26988,0.30186 -5.25025,0.0132 -5.21981,-0.27064 -5.17857,-0.54959 -5.12651,-0.82367 -5.06366,-1.09286 -4.99,-1.35718 -4.90553,-1.61664 -4.81025,-1.87122 -4.70417,-2.12093 -4.58728,-2.36577 -4.45958,-2.60573 -4.32109,-2.84082 -4.17177,-3.07104 -4.01166,-3.2964 -3.84073,-3.51686 -3.65901,-3.73247 -3.46647,-3.94321 -3.26313,-4.14906 -3.04899,-4.35005 -2.82402,-4.54616 -2.58827,-4.7374 -2.3417,-4.92378 -2.08433,-5.10527 -1.81614,-5.28189 -0.80413,-2.70566"
         id="path145" />
      <path
         d="m 271.12551,565.92233 -1.36434,-3.64424 -2.31581,-7.29702 -1.77722,-7.29345 -1.25291,-7.27193 -0.74289,-7.23246 -0.24713,-7.17505 0.23434,-7.09969 0.70153,-7.00639 1.15445,-6.89514 1.59309,-6.76594 2.01745,-6.6188 2.42754,-6.45371 2.82334,-6.27068 3.20486,-6.0697 3.57212,-5.85078 3.92509,-5.6139 4.26377,-5.35909 4.5882,-5.08633 4.89833,-4.79561 5.19419,-4.48696 5.47577,-4.16037 5.74307,-3.81581 5.9961,-3.45333 6.23484,-3.07288 6.45932,-2.6745 6.6695,-2.25817 6.86542,-1.8239 7.04705,-1.37168 7.2144,-0.9015 7.36749,-0.4134 7.50628,0.0927 7.63081,0.61666 3.85764,0.51045 v 0 l 2.75178,0.44709 5.42077,1.09242 5.30563,1.35036 5.18479,1.60064 5.05829,1.84331 4.92607,2.07831 4.78818,2.30568 4.64459,2.52541 4.49533,2.7375 4.34035,2.94194 4.17971,3.13874 4.01336,3.32791 3.84134,3.50942 3.66361,3.6833 3.48021,3.84953 3.2911,4.00813 3.09633,4.15908 2.89584,4.30239 2.68968,4.43806 2.47783,4.56609 2.26029,4.68647 2.03705,4.79921 1.80813,4.90432 1.57352,5.00177 1.33322,5.09159 1.08724,5.17377 0.83555,5.2483 0.57819,5.3152 0.31514,5.37445 0.0464,5.42605 -0.22804,5.47002 -0.50817,5.50635 -0.3609,2.76441"
         id="path147" />
      <path
         d="m 444.61535,621.35662 -3.45803,2.54534 -7.04941,4.65497 -7.20773,4.08213 -7.34271,3.51905 -7.45434,2.96572 -7.54262,2.42215 -7.60755,1.88834 -7.64913,1.36428 -7.66737,0.84998 -7.66224,0.34543 -7.63378,-0.14937 -7.58197,-0.6344 -7.5068,-1.10968 -7.40829,-1.57521 -7.28643,-2.03097 -7.14121,-2.47699 -6.97265,-2.91325 -6.78074,-3.33976 -6.56549,-3.7565 -6.32687,-4.16349 -6.06491,-4.56073 -5.77961,-4.94822 -5.47096,-5.32593 -5.13894,-5.69391 -4.78359,-6.05212 -4.40489,-6.40058 -4.00284,-6.73929 -3.57743,-7.06823 -3.12868,-7.38743 -2.65658,-7.69686 -2.16113,-7.99654 -1.64233,-8.28647 -0.61932,-4.24891 v 0 l -0.47532,-4.26742 -0.50662,-8.43244 0.0686,-8.28315 0.62377,-8.1185 1.15878,-7.93851 1.67366,-7.74317 2.16843,-7.5325 2.64306,-7.30649 3.09758,-7.06512 3.53198,-6.80841 3.94624,-6.53637 4.34039,-6.24897 4.71441,-5.94624 5.06832,-5.62817 5.40209,-5.29474 5.71574,-4.94597 6.00928,-4.58187 6.28268,-4.20242 6.53597,-3.80762 6.76913,-3.39749 6.98216,-2.97201 7.17508,-2.53118 7.34788,-2.07501 7.50054,-1.60351 7.63309,-1.11665 7.74551,-0.61445 7.83781,-0.0969 7.90998,0.43597 7.96204,0.9842 7.99397,1.54776 8.00577,2.12668 7.99746,2.72093 3.98932,1.58811"
         id="path149" />
      <path
         d="m 327.58401,649.30411 -3.59477,-1.35631 -6.9905,-2.98447 -6.72049,-3.33404 -6.44494,-3.66814 -6.16387,-3.98676 -5.87726,-4.28989 -5.58512,-4.57756 -5.28746,-4.84974 -4.98426,-5.10645 -4.67552,-5.34768 -4.36127,-5.57344 -4.04148,-5.7837 -3.71615,-5.97851 -3.3853,-6.15782 -3.04892,-6.32167 -2.707,-6.47003 -2.35956,-6.60292 -2.00658,-6.72032 -1.64807,-6.82226 -1.28403,-6.90872 -0.91446,-6.97969 -0.53936,-7.03519 -0.15873,-7.07521 0.22743,-7.09975 0.61912,-7.10882 1.01635,-7.10241 1.4191,-7.08052 1.82739,-7.04316 2.24121,-6.99031 2.66055,-6.92199 3.08544,-6.83819 3.51584,-6.73892 1.92105,-3.32739"
         id="path151" />
      <path
         d="m 417.256,660.92517 -4.86079,1.53994 -9.70495,2.53904 -9.66399,1.83448 -9.60052,1.14981 -9.51453,0.48504 -9.40601,-0.15984 -9.27496,-0.78482 -9.1214,-1.38992 -8.94531,-1.97512 -8.74671,-2.54043 -8.52557,-3.08584 -8.28191,-3.61136 -8.01574,-4.117 -7.72704,-4.60272 -7.41582,-5.06857 -7.08207,-5.51452 -6.7258,-5.94057 -6.34701,-6.34674 -5.9457,-6.733 -5.52187,-7.09938 -5.07551,-7.44587 -4.60662,-7.77245 -4.11523,-8.07916 -3.6013,-8.36595 -3.06485,-8.63287 -2.50587,-8.87989 -1.92439,-9.10701 -1.32037,-9.31424 -0.69383,-9.50158 -0.0448,-9.66903 0.62681,-9.81658 1.32092,-9.94424 0.92779,-5.01378 v 0 l 1.06936,-4.8443 2.62089,-9.49695 3.24459,-9.22065 3.84531,-8.91945 4.42302,-8.59337 4.97774,-8.24238 5.50946,-7.86651 6.01819,-7.46573 6.5039,-7.04008 6.96663,-6.58952 7.40637,-6.11407 7.82309,-5.61373 8.21683,-5.08849 8.58757,-4.53837 8.9353,-3.96334 9.26005,-3.36342 4.74461,-1.44897"
         id="path153" />
      <path
         d="m 507.59165,597.89478 -1.31068,2.4274 -2.72069,4.7461 -2.84974,4.60102 -2.97476,4.45578 -3.09571,4.3104 -3.21262,4.16487 -3.32548,4.01919 -3.43429,3.87336 -5.3466,5.53627 -7.47182,6.86989 -7.83416,6.28387 -8.16409,5.69665 -8.46163,5.10823 -8.72677,4.51862 -8.9595,3.9278 -9.15984,3.3358 -9.32777,2.74258 -9.46331,2.14818 -9.56644,1.55257 -9.63718,0.95577 -9.67551,0.35776 -9.68145,-0.24143 -9.65497,-0.84183 -9.59612,-1.44343 -9.50484,-2.04622 -9.38118,-2.65021 -9.22511,-3.2554 -9.03665,-3.86179 -8.81577,-4.46938 -8.56251,-5.07816 -8.27685,-5.68814 -7.95877,-6.29932 -5.74086,-5.1263 -3.71096,-3.60915 -3.61323,-3.76262 -3.51143,-3.91623 -3.40559,-4.07001 -3.2957,-4.22392 -3.18176,-4.378 -3.06376,-4.53221 -1.48637,-2.32398 v 0 l -2.32577,-3.82782 -4.2921,-7.81275 -3.81101,-8.0041 -3.32774,-8.17372 -2.84226,-8.3216 -2.35458,-8.44773 -1.86472,-8.55213 -1.37266,-8.63477 -0.87839,-8.69569 -0.38194,-8.73485 0.11672,-8.75228 0.61756,-8.74796 1.12061,-8.72191 1.62586,-8.67411 2.13329,-8.60457 2.64292,-8.51329 1.51327,-4.21561"
         id="path155" />
      <path
         d="m 533.8185,495.97624 0.81483,4.74825 1.21026,9.54966 0.64968,9.59998 0.0874,9.62564 -0.16765,4.81474"
         id="path157" />
      <path
         d="m 547.80473,529.42422 -0.0851,3.16122 -0.328,6.2626 -0.53508,6.18095 -0.73809,6.09705 -0.93703,6.0109 -1.13192,5.9225 -1.32273,5.83186 -1.50949,5.73896 -1.69216,5.64382 -1.87079,5.54643 -2.04534,5.44679 -2.21582,5.3449 -2.38225,5.24076 -2.5446,5.13438 -2.7029,5.02575 -2.85711,4.91487 -3.00728,4.80173 -3.15337,4.68636 -3.2954,4.56874 -3.43336,4.44886 -3.56726,4.32673 -3.69709,4.20237 -3.82285,4.07575 -3.94456,3.94687 -6.13612,5.67378 -8.5695,7.09301 -8.98312,6.53707 -9.36421,5.96315 -9.71278,5.37123 -10.02883,4.76133 -10.31234,4.13345 -10.56333,3.48757 -8.06765,2.18101 -5.43992,1.2428 -5.48438,1.07121 -5.52477,0.89738 -5.56109,0.7213 -5.59334,0.54297 -5.62154,0.36239 -5.64566,0.17956 -5.66571,-0.006 -5.68172,-0.19283 -5.69364,-0.38241 -5.7015,-0.57423 -5.7053,-0.7683 -5.70503,-0.96462 -5.70069,-1.16318 -5.6923,-1.36399 -5.67983,-1.56706 -5.66329,-1.77236 -5.6427,-1.97993 -5.61804,-2.18973 -5.58931,-2.40179 -5.55651,-2.61609 -5.51966,-2.83264 -5.47873,-3.05145 -2.72275,-1.60847 v 0 l -2.42139,-1.48499 -4.76798,-3.08556 -4.66522,-3.23753 -4.55881,-3.38699 -2.23835,-1.74874"
         id="path159" />
      <path
         d="m 470.00551,366.88225 4.5958,2.91637 8.84087,6.1508 8.37046,6.55595 7.89672,6.93839 7.41967,7.29809 6.93931,7.63507 6.45563,7.94934 5.96863,8.24087 5.47831,8.50969 4.98468,8.75579 4.48774,8.97915 3.98747,9.1798 3.4839,9.35773 2.977,9.51293 2.46678,9.6454 1.95326,9.75517 1.43642,9.8422 0.91625,9.90651 0.39278,9.9481 -0.13401,9.96696 -0.66413,9.96311 -1.19755,9.93653 -1.73429,9.88722 -2.27435,9.8152 -2.81773,9.72045 -3.36441,9.60298 -3.91442,9.46279 -4.46775,9.29987 -5.02438,9.11423 -5.58434,8.90587 -6.14761,8.67479 -6.7142,8.42098 -3.57061,4.10821"
         id="path161" />
      <path
         d="m 386.3128,723.89547 -3.55886,0.22655 -7.06662,0.26973 -6.99602,0.0289 -6.92247,-0.20769 -6.846,-0.43989 -6.76658,-0.66776 -6.68422,-0.89129 -6.59893,-1.11048 -6.51068,-1.32534 -6.41951,-1.53586 -6.3254,-1.74205 -6.22834,-1.94389 -6.12835,-2.1414 -6.02542,-2.33457 -5.91955,-2.52341 -5.81073,-2.70791 -5.69899,-2.88807 -5.58429,-3.0639 -5.46667,-3.23538 -5.3461,-3.40254 -5.2226,-3.56535 -5.09614,-3.72383 -4.96676,-3.87797 -4.83444,-4.02778 -4.69917,-4.17324 -4.56098,-4.31438 -4.41982,-4.45117 -4.27575,-4.58362 -4.12873,-4.71175 -3.97877,-4.83553 -3.82586,-4.95498 -3.67003,-5.07009 -3.51126,-5.18086 -3.34953,-5.2873 -3.18488,-5.3894 -3.01729,-5.48716 -2.84675,-5.58059 -2.67328,-5.66968 -2.49686,-5.75443 -2.31752,-5.83484 -2.13522,-5.91093 -1.94999,-5.98266 -1.76182,-6.05007 -1.57072,-6.11314 -1.37666,-6.17188 -1.17968,-6.22626 -0.97975,-6.27633 -0.77689,-6.32204 -0.57108,-6.36343 -0.36234,-6.40048 -0.15066,-6.43319 0.064,-6.46156 0.28153,-6.48561 0.50203,-6.5053 0.72547,-6.52066 0.95184,-6.53169 1.18117,-6.53838 1.41342,-6.54074 1.64863,-6.53875 1.88675,-6.53243 2.12783,-6.52177 2.37185,-6.50678 2.6188,-6.48744 2.86869,-6.46378 1.52898,-3.22166 v 0 l 1.58323,-3.19535 3.29972,-6.25473 3.47302,-6.07316 3.6411,-5.89119 3.80396,-5.70887 3.96159,-5.52615 4.11399,-5.34306 4.26117,-5.15959 4.40312,-4.97575 4.53985,-4.79153 4.67135,-4.60693 4.79763,-4.42196 4.91868,-4.23661 5.03451,-4.05087 5.14511,-3.86478 5.25049,-3.67829 5.35063,-3.49143 5.44556,-3.30419 5.53526,-3.11658 5.61973,-2.92859 5.69899,-2.74023 5.773,-2.55147 5.8418,-2.36236 5.90538,-2.17286 5.96372,-1.98298 6.01685,-1.79273 6.06474,-1.6021 6.10741,-1.41109 6.14485,-1.21971 6.17708,-1.02794 6.20407,-0.83581 6.22584,-0.6433 6.24239,-0.4504 6.2537,-0.25714 6.2598,-0.0635 6.26066,0.13053 6.25631,0.32494 6.24672,0.51971 6.23192,0.71487 6.21188,0.91039 6.18662,1.10631 6.15614,1.30259 6.12042,1.49925 6.07949,1.69629 6.03333,1.89371 5.98195,2.0915 5.92533,2.28967 5.8635,2.48822 5.79643,2.68715 5.72415,2.88644 5.64663,3.08612 5.5639,3.28618 5.47593,3.48661 5.38274,3.68742 5.28432,3.88861 5.18069,4.09017 5.07182,4.29211 4.95773,4.49443 4.83841,4.69712 4.71388,4.9002 4.5841,5.10364 4.44911,5.30747 4.3089,5.51167 4.16345,5.71625 2.02555,2.93496"
         id="path163" />
      <path
         d="m 466.31888,713.21497 -5.07893,2.47477 -10.30598,4.51714 -10.48376,3.93982 -10.63788,3.36152 -10.76837,2.78223 -10.87519,2.20199 -10.95837,1.62076 -11.01788,1.03856 -11.05376,0.45538 -11.06598,-0.12876 -11.05455,-0.71389 -11.01946,-1.29999 -10.96073,-1.88706 -10.87833,-2.4751 -10.77231,-3.06413 -10.64261,-3.65412 -5.26528,-2.04862"
         id="path165" />
      <path
         d="m 449.92261,319.70988 5.52977,2.1692 10.78107,4.72798 10.40272,5.23057 10.01593,5.71285 9.6207,6.17485 9.21702,6.61658 8.80491,7.03801 8.38434,7.43916 7.95533,7.82002 7.51789,8.1806 7.07199,8.5209 6.61766,8.84091 6.15488,9.14063 5.68365,9.42008 5.20399,9.67923 4.71588,9.9181 4.21933,10.13669 3.71433,10.33499 3.20089,10.51301 2.679,10.67073 2.14868,10.80819 1.60991,10.92535 1.0627,11.02223 0.50704,11.09882 -0.0571,11.15512 -0.62961,11.19115 -1.21059,11.20689 -1.80002,11.20235 -2.3979,11.17751 -3.00421,11.13239 -3.61898,11.067 -4.24218,10.98131 -2.35743,5.45218"
         id="path167" />
      <path
         d="m 195.87318,375.39794 2.73925,-3.14627 5.58895,-6.09919 5.73121,-5.84231 5.86744,-5.58655 5.99765,-5.33193 6.12184,-5.07843 6.23999,-4.82604 6.35213,-4.57478 6.45824,-4.32465 6.55832,-4.07563 6.65238,-3.82774 6.74041,-3.58098 6.82243,-3.33534 6.89841,-3.09081 6.96837,-2.84742 7.03231,-2.60514 7.09022,-2.36399 7.1421,-2.12396 7.18796,-1.88506 7.2278,-1.64728 7.26161,-1.41062 7.2894,-1.17508 7.31116,-0.94067 7.3269,-0.70738 7.33661,-0.47521 7.34029,-0.24417 7.33796,-0.0143 7.32959,0.21454 7.31521,0.44222 7.2948,0.66877 7.26836,0.8942 7.23589,1.1185 7.19741,1.34169 7.1529,1.56374 7.10237,1.78468 7.0458,2.00449 6.98321,2.22318 6.91461,2.44074 6.83997,2.65719 6.75931,2.87251 6.67262,3.0867 6.57991,3.29978 6.48118,3.51173 6.37642,3.72256 6.26563,3.93226 6.14883,4.14084 6.02599,4.3483 5.89713,4.55463 5.76225,4.75985 5.62134,4.96393 5.4744,5.1669 5.32145,5.36874 5.16246,5.56947 4.99746,5.76906 4.82642,5.96753 4.64937,6.16488 4.46628,6.36111 4.27718,6.55621 4.08204,6.7502 3.88089,6.94305 3.6737,7.13479 3.4605,7.32539 3.24127,7.51489 3.01601,7.70325 1.42165,3.92191 v 0 l 1.86959,5.51655 3.31018,11.12547 2.7392,11.23094 2.16945,11.31517 1.60092,11.37817 1.03363,11.41992 0.46757,11.44044 -0.0973,11.4397 -0.66088,11.41774 -1.22325,11.37454 -1.78439,11.31009 -2.34432,11.2244 -2.903,11.11747 -3.46046,10.98931 -4.0167,10.8399 -4.57169,10.66926 -2.49358,5.26399"
         id="path169" />
      <path
         d="m 612.64296,561.05645 -0.66397,4.32278 -1.53418,8.53615 -1.80416,8.38827 -2.0682,8.238 -2.32626,8.08535 -2.57835,7.93033 -2.82448,7.77292 -3.06464,7.61313 -3.29883,7.45096 -3.52705,7.28641 -3.74931,7.11948 -3.9656,6.95017 -4.17591,6.77847 -4.38027,6.60439 -4.57866,6.42794 -4.77107,6.2491 -4.95752,6.06788 -5.138,5.88428 -5.31252,5.6983 -5.48107,5.50993 -5.64364,5.3192 -5.80025,5.12606 -5.9509,4.93057 -6.09558,4.73267 -6.23428,4.53241 -6.36702,4.32976 -6.4938,4.12473 -6.6146,3.91732 -6.72944,3.70752 -6.83831,3.49535 -6.94122,3.2808 -7.03814,3.06386 -7.12912,2.84454 -7.21411,2.62285 -7.29315,2.39876 -7.36621,2.17231 -7.43331,1.94347 -7.49443,1.71224 -7.5496,1.47864 -7.59879,1.24265 -7.64201,1.00429 -7.67928,0.76354 -7.71056,0.52041 -7.73589,0.27491 -7.75524,0.027 -7.76864,-0.22326 -7.77605,-0.47591 -7.7775,-0.73094 -7.77299,-0.98836 -7.7625,-1.24816 -7.74605,-1.51033 -7.72364,-1.77489 -7.69525,-2.04183 -7.6609,-2.31115 -7.62057,-2.58285 -7.57428,-2.85694 -7.52203,-3.1334 -7.46381,-3.41224 -7.39961,-3.69347 -7.32945,-3.97707 -7.25333,-4.26307 -7.17123,-4.55143 -7.08317,-4.84219 -6.98913,-5.13531 -3.45745,-2.67833 v 0 l -3.41165,-2.73641 -6.62544,-5.59671 -6.36237,-5.75658 -6.10021,-5.91012 -5.839,-6.05727 -5.57869,-6.19809 -5.3193,-6.33253 -5.06085,-6.46062 -4.80331,-6.58235 -4.54669,-6.69772 -4.29099,-6.80674 -4.03622,-6.90938 -3.78237,-7.00569 -3.52944,-7.09562 -3.27743,-7.1792 -3.02634,-7.25642 -2.77618,-7.32728 -2.52694,-7.39178 -2.27861,-7.44992 -2.03121,-7.50171 -1.78474,-7.54714 -1.53917,-7.5862 -1.29455,-7.61891 -1.05083,-7.64526 -0.80804,-7.66525 -0.56617,-7.67889 -0.32522,-7.68615 -0.0852,-7.68708 0.15391,-7.68163 0.39209,-7.66982 0.62935,-7.65167 0.8657,-7.62714 1.10111,-7.59627 1.3356,-7.55903 1.56918,-7.51543 1.80183,-7.46548 2.03357,-7.40916 2.26437,-7.3465 2.49426,-7.27746 2.72323,-7.20207 2.95126,-7.12032 3.1784,-7.03222 3.40459,-6.93775 3.62987,-6.83693 3.85423,-6.72974 4.07766,-6.61621 4.30017,-6.4963 4.52177,-6.37004 4.74244,-6.23743 4.96219,-6.09844 5.18101,-5.95312 5.39892,-5.80142 5.6159,-5.64336 5.83196,-5.47896 6.0471,-5.30818 6.26132,-5.13106 6.47462,-4.94757 6.68699,-4.75772 6.89845,-4.56152 7.10897,-4.35895 7.31859,-4.15004 7.52727,-3.93475 7.73504,-3.71311 7.94188,-3.48511 4.04822,-1.65507"
         id="path171" />
      <path
         d="m 487.06307,299.34312 4.92477,2.56427 9.62157,5.4125 9.31267,5.78032 8.99786,6.13519 8.67714,6.47712 8.35053,6.8061 8.01798,7.12212 7.67955,7.42521 7.33519,7.71535 6.98493,7.99253 6.62877,8.25677 6.26668,8.50806 5.89869,8.7464 5.5248,8.9718 5.14499,9.18424 4.75927,9.38374 4.36765,9.57029 3.97011,9.7439 3.56667,9.90455 3.15732,10.05225 2.74206,10.18702 2.32088,10.30882 1.89381,10.41769 1.46082,10.51361 1.02191,10.59657 0.57712,10.66658 0.12639,10.72366 -0.33023,10.76778 -0.79277,10.79896 -1.26121,10.81718 -1.73556,10.82247 -2.21583,10.81479 -1.28985,5.40047"
         id="path173" />
      <path
         d="m 275.84963,773.69564 -3.37344,-1.33765 -6.67583,-2.80636 -6.57885,-2.97876 -6.47916,-3.14838 -6.37677,-3.31519 -6.27166,-3.47921 -6.16386,-3.64045 -6.05335,-3.79887 -5.94013,-3.95451 -5.82421,-4.10736 -5.70558,-4.2574 -5.58424,-4.40466 -5.46021,-4.54913 -5.33346,-4.69078 -5.20401,-4.82966 -5.07185,-4.96574 -4.93699,-5.09903 -4.79943,-5.22951 -4.65915,-5.3572 -4.51617,-5.48211 -4.37049,-5.60421 -4.2221,-5.72352 -4.071,-5.84004 -3.91721,-5.95377 -3.76069,-6.06469 -3.60148,-6.17282 -3.43957,-6.27817 -3.27494,-6.38071 -3.10762,-6.48046 -2.93757,-6.57741 -2.76484,-6.67158 -2.5894,-6.76295 -1.22805,-3.41486"
         id="path175" />
      <path
         d="m 601.68635,680.6752 -2.81413,4.1075 -5.78586,8.00096 -5.98991,7.71601 -6.18666,7.43158 -6.3761,7.14763 -6.55826,6.86419 -6.73311,6.58125 -6.90067,6.29881 -7.06093,6.01688 -7.21389,5.73544 -7.35956,5.45451 -7.49792,5.17408 -7.62899,4.89415 -7.75276,4.61471 -7.86923,4.3358 -7.97842,4.05736 -8.08028,3.77945 -8.17488,3.50202 -8.26215,3.2251 -8.34214,2.94868 -8.41483,2.67276 -8.48022,2.39735 -8.53831,2.12243 -8.58911,1.84802 -8.6326,1.5741 -8.66881,1.3007 -8.69771,1.02779 -8.71931,0.75538 -8.73363,0.48347 -8.74063,0.21207 -8.74034,-0.0588 -8.73276,-0.32923 -8.71788,-0.59914 -8.69569,-0.86853 -8.66622,-1.13742 -8.62945,-1.40583 -8.58537,-1.67371 -8.534,-1.94111 -8.47533,-2.208 -8.40936,-2.47438 -8.3361,-2.74028 -8.25554,-3.00566 -8.16769,-3.27054 -8.07252,-3.53493 -7.97008,-3.79881 -7.86032,-4.06219 -7.74327,-4.32506 -7.61892,-4.58744 -7.48729,-4.84932 -7.34834,-5.11069 -7.2021,-5.37157 -7.04856,-5.63193 -6.88773,-5.89181 -6.7196,-6.15117 -6.54417,-6.41003 -6.36144,-6.66841 -6.17141,-6.92626 -5.9741,-7.18363 -5.76947,-7.44048 -5.55756,-7.69685 -5.33834,-7.9527 -5.11183,-8.20805 -4.87802,-8.46292 -4.63691,-8.71726 -2.22576,-4.45385 v 0 l -1.97526,-4.11948 -3.72785,-8.27079 -3.43338,-8.309 -3.14183,-8.3421 -2.85319,-8.37009 -2.56747,-8.393 -2.28465,-8.41079 -2.00477,-8.42348 -1.72778,-8.43107 -1.45372,-8.43356 -1.18256,-8.43094 -0.91433,-8.42323 -0.64901,-8.4104 -0.3866,-8.39248 -0.1271,-8.36946 0.12947,-8.34133 0.38314,-8.3081 0.63388,-8.26976 0.88173,-8.22633 1.12664,-8.17779 1.36865,-8.12415 1.60775,-8.06541 1.84392,-8.00156 2.07718,-7.93262 2.30753,-7.85856 2.53497,-7.77941 2.75949,-7.69516 2.98109,-7.6058 3.19978,-7.51134 3.41556,-7.41177 3.62842,-7.30711 3.83837,-7.19734 4.0454,-7.08247 4.24952,-6.9625 4.45072,-6.83742 4.64902,-6.70724 4.84438,-6.57197 5.03685,-6.43158 5.2264,-6.28609 5.41302,-6.13551 5.59675,-5.97982 5.77754,-5.81902 5.95544,-5.65313 6.1304,-5.48213 6.30247,-5.30603 6.47161,-5.12482 6.63784,-4.93853 6.80116,-4.74711 6.96156,-4.5506 7.11905,-4.34899 7.27361,-4.14227 7.42528,-3.93046 7.57402,-3.71353 7.71985,-3.49152 7.86276,-3.26438 8.00276,-3.03216 8.13985,-2.79483 8.27402,-2.5524 8.40528,-2.30485 8.53362,-2.05223 8.65904,-1.79448 8.78156,-1.53163 8.90116,-1.2637 9.01784,-0.99064 4.55177,-0.39133"
         id="path177" />
      <path
         d="m 457.15423,251.05156 5.83685,1.87315 11.48518,4.09006 11.22661,4.53816 10.95939,4.97398 10.68354,5.39754 10.39905,5.8088 10.10593,6.20779 9.80415,6.59449 9.49374,6.96893 9.1747,7.33107 8.84701,7.68095 8.51068,8.01853 8.16572,8.34385 7.81212,8.65688 7.44987,8.95763 7.07899,9.2461 6.69946,9.5223 6.31131,9.78621 5.9145,10.03785 5.50906,10.2772 5.09499,10.50428 4.67227,10.71907 4.2409,10.92159 3.80092,11.11183 3.35227,11.28979 2.895,11.45547 2.42909,11.60887 1.95453,11.74999 1.47135,11.87883 0.9795,11.99539 0.47904,12.09967 -0.0301,12.19168 -0.20866,6.1265"
         id="path179" />
      <path
         d="m 613.40788,703.02347 -2.55659,3.43891 -5.22761,6.73365 -5.37655,6.54114 -5.52113,6.34829 -5.66135,6.15511 -5.79719,5.96158 -5.92867,5.76772 -6.05578,5.57351 -6.17854,5.37896 -6.29691,5.18408 -6.41094,4.98886 -6.52058,4.79329 -6.62587,4.59739 -6.72679,4.40115 -6.82334,4.20456 -6.91553,4.00764 -7.00334,3.81038 -7.08681,3.61277 -7.16589,3.41484 -7.24062,3.21655 -7.31097,3.01793 -7.37697,2.81897 -7.43859,2.61967 -7.49585,2.42003 -7.54874,2.22005 -7.59727,2.01973 -7.64143,1.81908 -7.68123,1.61807 -7.71666,1.41674 -7.74772,1.21505 -7.77442,1.01304 -7.79675,0.81069 -7.81472,0.60798 -7.82832,0.40495 -7.83755,0.20157 -7.84242,-0.002 -7.84292,-0.2062 -7.83906,-0.4106 -7.83083,-0.61533 -7.81823,-0.8204 -7.80128,-1.02582 -7.77994,-1.23157 -7.75425,-1.43767 -7.72419,-1.6441 -7.68977,-1.85087 -7.65098,-2.05799 -7.60781,-2.26544 -7.5603,-2.47323 -7.50841,-2.68136 -7.45215,-2.88984 -7.39153,-3.09864 -7.32654,-3.3078 -7.25719,-3.51728 -7.18347,-3.72712 -7.10539,-3.93729 -7.02294,-4.14779 -6.93612,-4.35865 -6.84494,-4.56983 -6.74939,-4.78136 -6.64947,-4.99323 -6.5452,-5.20544 -6.43654,-5.41799 -6.32354,-5.63087 -6.20616,-5.8441 -3.0577,-3.00212"
         id="path181" />
      <path
         d="m 675.14387,459.09069 0.97006,4.54331 1.73473,9.12251 1.46036,9.16518 1.18538,9.20166 0.90979,9.23195 0.63359,9.25604 0.35679,9.27394 0.0794,9.28564 -0.0645,4.64527"
         id="path183" />
      <path
         d="m 396.6916,205.47305 5.76549,0.49211 11.40487,1.26619 11.23365,1.63576 11.05878,1.99767 10.88021,2.3519 10.69798,2.69847 10.51208,3.03738 10.32249,3.36861 10.12924,3.69219 9.93232,4.00809 9.73171,4.31634 9.52744,4.6169 9.31948,4.90982 9.10787,5.19506 8.89256,5.47263 8.6736,5.74255 8.45095,6.00479 8.22463,6.25936 7.99463,6.50628 7.76097,6.74552 7.52363,6.9771 7.28262,7.20102 7.03792,7.41726 6.78957,7.62585 6.53752,7.82676 6.28182,8.02 6.02243,8.20559 5.75937,8.38351 5.49264,8.55376 5.22223,8.71634 4.94816,8.87126 4.67039,9.01852 4.38898,9.1581 4.10386,9.29002 3.8151,9.41427 3.52264,9.53086 3.22652,9.63979 2.92672,9.74104 2.62325,9.83463 2.3161,9.92055 2.00528,9.99882 1.69079,10.0694 1.37263,10.13233 1.05078,10.18759 0.72526,10.23518 0.39608,10.27511 0.0632,10.30737 -0.27332,10.33196 -0.61354,10.34889 -0.95742,10.35816 -1.30497,10.35975 -1.65622,10.35369 -2.01112,10.33995 -2.36969,10.31854 -2.73196,10.28948 -3.09788,10.25275 -3.46749,10.20835 -3.84076,10.15628 -4.21771,10.09654 -4.59834,10.02916 -4.98263,9.95408 -5.37061,9.87136 -5.76225,9.78096 -6.15757,9.68289 -3.22818,4.80228 v 0 l -3.50497,5.01693 -7.2863,9.8205 -7.64728,9.528 -7.99919,9.22583 -8.34209,8.91401 -8.67593,8.59252 -9.00073,8.26137 -9.3165,7.92057 -4.77384,3.82946"
         id="path185" />
      <path
         d="m 604.34213,287.7609 4.75158,4.72286 9.17063,9.67739 8.72514,9.97412 8.27707,10.25624 7.82644,10.52377 7.37323,10.7767 6.91746,11.01502 6.4591,11.23875 5.99818,11.44787 5.53469,11.6424 5.06862,11.82232 4.59999,11.98765 4.12879,12.13838 3.655,12.2745 3.17866,12.39603 2.69973,12.50295 2.21825,12.59528 1.73418,12.673 1.24755,12.73613 0.75834,12.78465 0.26656,12.81858 -0.22778,12.8379 -0.72471,12.84263 -1.22419,12.83276 -1.72626,12.80828 -2.23089,12.7692 -2.7381,12.71553 -3.24787,12.64725 -3.76022,12.56438 -4.27514,12.46691 -4.79263,12.35482 -5.31269,12.22816 -2.85217,6.06201"
         id="path187" />
    </g>
    <g
       fill="none"
       stroke="#000000"
       stroke-width="0.03cm"
       id="g361"
       transform="translate(0.40087941,0.40087941)">
      <path
         d="M 0,0 35.43307,35.43307"
         id="path299" />
      <path
         d="m 368.52718,527.44518 -0.14449,-0.50771 -0.0734,-0.99872 0.18676,-0.94427 0.41423,-0.85119 0.60901,-0.71947 0.77108,-0.54914 0.90045,-0.34016 0.99713,-0.0926 0.5246,0.0586 v 0 l 0.7132,0.20296 1.19852,0.76643 0.81691,1.13872 0.34197,1.38091 -0.0363,0.74063"
         id="path301" />
      <path
         d="m 373.62338,541.05848 -0.4527,0.041 -0.90788,0.0407 -0.45455,-3.6e-4"
         id="path303" />
      <path
         d="m 349.87152,512.26394 1.04584,-1.5477 2.32375,-2.77982 2.59634,-2.36041 2.82466,-1.94263 3.00872,-1.52648 3.14854,-1.11197 3.24411,-0.6991 3.29541,-0.28784 3.30246,0.12178 3.26526,0.52976 3.18381,0.93612 3.05809,1.34084 2.88813,1.74393 2.67392,2.14539 2.41544,2.54521 2.11272,2.94341 0.929,1.62052 v 0 l 0.79523,1.63058 1.22297,3.30611 0.75043,3.33658 0.29884,3.33171 -0.13182,3.29148 -0.54154,3.21591 -0.93032,3.105 -1.29816,2.95872 -1.64507,2.77711 -1.97102,2.56014 -2.27605,2.30783 -2.56013,2.02016 -2.82328,1.69716 -3.06548,1.3388 -3.28675,0.9451 -3.48708,0.51604 -1.81212,0.0861"
         id="path305" />
      <path
         d="m 407.42131,514.03396 0.5363,1.69136 0.82763,3.44167 0.49818,3.50059 0.16539,3.53592 -0.0431,1.77383"
         id="path307" />
      <path
         d="m 420.16989,519.23024 0.26297,2.16179 0.23441,4.34587 -0.0289,2.17753"
         id="path309" />
      <path
         d="m 389.13806,468.83103 1.68269,0.52773 3.28075,1.18565 3.1655,1.35337 3.04731,1.5141 2.92617,1.66782 2.80212,1.81453 2.6751,1.95425 2.54518,2.08696 2.41229,2.21267 2.27649,2.33137 3.15366,3.70429 3.70213,5.28916 3.10603,5.63789 2.48644,5.93059 1.84336,6.16728 1.17678,6.34792 0.43102,4.84578 0.0668,3.25779 -0.11305,3.27143 -0.29585,3.27808 -0.48157,3.27771 -0.67025,3.27034 -0.86184,3.25597 -1.05639,3.2346 -1.25386,3.20622 -1.45427,3.17083 -0.80321,1.56996"
         id="path311" />
      <path
         d="m 320.68182,477.07365 1.79268,-1.81273 3.70386,-3.38225 3.84971,-3.06092 3.98097,-2.74316 4.09762,-2.42897 4.19968,-2.11832 4.28715,-1.81125 4.36001,-1.50774 4.41827,-1.20778 4.46196,-0.91139 4.49102,-0.61857 4.50551,-0.3293 4.50539,-0.0436 4.49067,0.23855 4.46136,0.51713 4.41746,0.79216 4.35895,1.06361 4.28584,1.33151 4.19815,1.59584 4.09586,1.85662 3.97896,2.11383 3.84748,2.36748 3.70139,2.61756 3.5407,2.8641 3.36543,3.10706 3.17556,3.34646 2.97108,3.5823 2.75201,3.81459 2.51835,4.0433 2.27008,4.26846 2.00723,4.49005 1.72977,4.70809 0.75628,2.43469 v 0 l 0.49854,1.7912 0.85136,3.5871 0.65974,3.5886 0.47133,3.5844 0.28612,3.57448 0.1041,3.55884 -0.17809,5.29643 -0.84461,6.95385 -1.51499,6.78843 -2.15975,6.57729 -2.77891,6.32043 -3.37242,6.01787 -3.94033,5.66956 -4.48262,5.27556 -4.99927,4.83582 -5.49032,4.35038 -4.42457,2.9167 -3.08982,1.76895 -3.19816,1.62187 -3.30331,1.46908 -3.40526,1.31057 -3.504,1.14635 -1.78802,0.5098"
         id="path313" />
      <path
         d="m 453.76459,516.54551 0.23015,2.20747 0.2812,4.42633 0.0423,4.43343 -0.19665,4.43089 -0.18798,2.21146"
         id="path315" />
      <path
         d="m 283.17125,555.23352 -0.98823,-3.20567 -1.62072,-6.39763 -1.15743,-6.36708 -0.70732,-6.32183 -0.27042,-6.26185 0.15327,-6.18715 0.56376,-6.09775 0.96106,-5.99363 1.34514,-5.8748 1.71603,-5.74124 2.07371,-5.59297 2.41819,-5.42999 2.74947,-5.25229 3.06755,-5.05988 3.37241,-4.85275 3.6641,-4.63091 3.94255,-4.39435 4.20783,-4.14307 4.45989,-3.87708 4.69875,-3.59638 4.92441,-3.30096 5.13687,-2.99082 5.33613,-2.66598 5.52217,-2.32641 5.69503,-1.97212 5.85467,-1.60313 6.00112,-1.21942 6.13436,-0.82099 6.2544,-0.40785 6.36124,0.02 6.45487,0.46258 6.53531,0.91987 3.29369,0.63602 v 0 l 2.79955,0.6333 5.47141,1.49633 5.29639,1.79269 5.11566,2.07712 4.92922,2.34965 4.73707,2.61024 4.5392,2.85892 4.33564,3.09567 4.12635,3.3205 3.91136,3.53341 3.69066,3.7344 3.46424,3.92346 3.23211,4.10061 2.99429,4.26584 2.75073,4.41913 2.50148,4.56052 2.24652,4.68997 1.98583,4.80751 1.71945,4.91313 1.44735,5.00682 1.16954,5.08859 0.88603,5.15844 0.59679,5.21637 0.30185,5.26238 0.001,5.29646 -0.30516,5.31862 -0.61723,5.32887 -0.93501,5.32719 -1.25851,5.31358 -1.58771,5.28807 -1.92262,5.25062 -2.26324,5.20125 -1.26114,2.57839"
         id="path317" />
      <path
         d="m 419.144,432.64449 2.20917,1.14496 4.30491,2.42637 4.15139,2.60259 3.99515,2.7719 3.83619,2.93433 3.6745,3.08985 3.51009,3.23848 3.34296,3.38021 3.17309,3.51506 3.00052,3.64299 2.82521,3.76404 2.64719,3.87819 2.46643,3.98545 2.28296,4.08581 2.09676,4.17927 1.90785,4.26584 1.71619,4.34552 1.52183,4.41829 1.32474,4.48417 1.12493,4.54316 0.92238,4.59524 0.71713,4.64045 0.50914,4.67874 0.29844,4.71014 0.085,4.73465 -0.13115,4.75226 -0.35003,4.76298 -0.57163,4.7668 -0.79596,4.76372 -1.023,4.75375 -1.25277,4.73688 -1.48527,4.71313 -0.83067,2.34549"
         id="path319" />
      <path
         d="m 314.5786,626.8815 -3.18449,-1.8826 -6.10936,-4.00215 -5.7616,-4.30306 -5.41195,-4.58591 -5.06042,-4.85073 -4.70698,-5.09752 -4.35167,-5.32626 -3.99444,-5.53697 -3.63535,-5.72964 -3.27434,-5.90427 -2.91146,-6.06086 -2.54668,-6.19942 -2.18,-6.31993 -1.81144,-6.42242 -1.44099,-6.50685 -1.06863,-6.57325 -0.6944,-6.62162 -0.31827,-6.65195 0.0598,-6.66423 0.43967,-6.65848 0.82147,-6.6347 1.20516,-6.59287 1.59076,-6.533 1.97824,-6.4551 2.3676,-6.35916 2.75887,-6.24518 3.15203,-6.11316 3.54707,-5.96311 3.94401,-5.79502 4.34284,-5.60888 4.74356,-5.40471 5.14618,-5.18251 2.72466,-2.50229"
         id="path321" />
      <path
         d="m 428.32827,412.14833 4.0563,2.08801 7.76097,4.5088 7.29065,4.93016 6.81859,5.32469 6.34477,5.6924 5.86921,6.03326 5.39189,6.3473 4.91283,6.63451 4.43201,6.89489 3.94945,7.12844 3.46514,7.33516 2.97907,7.51505 2.49126,7.66812 2.0017,7.79434 1.51039,7.89375 1.01732,7.96631 0.52251,8.01206 0.0259,8.03097 -0.47236,8.02305 -0.97242,7.9883 -1.47424,7.92673 -1.97779,7.83832 -2.4831,7.72308 -2.99017,7.58101 -3.49897,7.41211 -4.00953,7.21639 -4.52184,6.99383 -5.0359,6.74445 -5.55171,6.46823 -6.06927,6.16518 -6.58858,5.83531 -7.10963,5.47859 -3.75076,2.59716 v 0 l -2.42838,1.58174 -4.96109,2.99506 -2.53077,1.41216"
         id="path323" />
      <path
         d="m 508.47766,549.36252 -0.91428,4.8798 -2.28507,9.49655 -2.87088,9.13732 -3.42925,8.76793 -3.96019,8.38834 -4.4637,7.99858 -4.93979,7.59865 -5.38843,7.18853 -5.80964,6.76823 -6.20343,6.33777 -6.56978,5.89712 -6.9087,5.44628 -7.22019,4.98529 -7.50424,4.51409 -7.76087,4.03274 -7.99006,3.54119 -8.19182,3.03948 -8.36615,2.52757 -8.51305,2.0055 -8.63251,1.47325 -8.72455,0.93082 -8.78915,0.3782 -8.82632,-0.18458 -8.83606,-0.75755 -8.81836,-1.34069 -8.77324,-1.93402 -8.70068,-2.53752 -8.60069,-3.1512 -8.47328,-3.77506 -8.31842,-4.40909 -8.13613,-5.05331 -7.92642,-5.7077 -3.87599,-3.10243 v 0 l -3.76889,-3.23169 -7.08172,-6.72721 -6.47772,-7.05491 -5.87861,-7.35378 -5.28442,-7.6238 -4.69513,-7.86497 -4.11073,-8.0773 -3.53123,-8.26078 -2.95665,-8.41542 -2.38695,-8.54121 -1.82216,-8.63815 -1.26227,-8.70626 -0.70729,-8.7455 -0.1572,-8.75592 0.38798,-8.73747 0.92827,-8.6902 1.46365,-8.61406 1.99413,-8.50909 2.51971,-8.37526 3.04038,-8.2126 3.55617,-8.02109 4.06704,-7.80073 4.57301,-7.55153 5.07408,-7.27347 5.57026,-6.96658 6.06153,-6.63084 6.5479,-6.26625 7.02936,-5.87282 7.50593,-5.45054 7.9776,-4.99941 8.44436,-4.51945 8.90622,-4.01063 4.62478,-1.80549"
         id="path325" />
      <path
         d="m 472.377,415.20369 3.01444,2.79962 5.74371,5.78191 5.36345,6.01234 4.98312,6.22699 4.60271,6.42586 4.22224,6.60896 3.8417,6.77626 3.46109,6.9278 3.08042,7.06356 2.69967,7.18353 2.31887,7.28773 1.93799,7.37616 1.55704,7.44879 1.17602,7.50566 0.79495,7.54674 0.4138,7.57205 0.0326,7.58158 -0.34871,7.57532 -0.73006,7.5533 -1.11148,7.51549 -1.49297,7.4619 -1.87452,7.39253 -2.25615,7.30739 -2.63784,7.20647 -3.0196,7.08977 -3.40143,6.95729 -3.78332,6.80903 -4.16529,6.645 -4.54731,6.46517 -4.92942,6.26959 -5.31158,6.05821 -5.69382,5.83107 -2.99026,2.82541"
         id="path327" />
      <path
         d="m 299.21924,382.78887 2.59057,-1.2883 5.20056,-2.42337 5.22348,-2.22102 5.24284,-2.02098 5.25865,-1.82327 5.27088,-1.62786 5.27956,-1.43479 5.28467,-1.24404 5.28622,-1.05559 5.28422,-0.86947 5.27864,-0.68568 5.26952,-0.50419 7.87935,-0.42109 10.4406,0.0521 10.33995,0.73625 10.21083,1.40185 10.05319,2.0489 9.86706,2.67741 9.65245,3.28734 9.40934,3.87872 9.13773,4.45155 8.83764,5.00582 8.50903,5.54152 8.15195,6.05869 7.76637,6.55728 7.35229,7.03733 6.90972,7.49881 6.43866,7.94174 5.9391,8.3661 5.41105,8.77193 4.85449,9.15918 4.26946,9.52788 2.80102,7.37671 1.66969,5.02336 1.50739,5.10509 1.34154,5.18452 1.17213,5.26161 0.99916,5.33639 0.82262,5.40885 0.64253,5.47898 0.45887,5.54681 0.27165,5.6123 0.0809,5.67549 -0.11348,5.73635 -0.13073,2.89027 v 0 l -0.21651,3.37473 -0.63992,6.69604 -0.91139,6.61968 -1.17762,6.53713 -1.43861,6.44841 -1.69435,6.35352 -1.94486,6.25244 -2.19012,6.14519 -2.43013,6.03177 -2.66491,5.91216 -2.89444,5.78639 -3.11872,5.65443 -3.33776,5.51631 -3.55157,5.37199 -3.76012,5.22152 -3.96344,5.06485 -4.1615,4.90202 -4.35434,4.73301 -4.54191,4.55782 -4.72426,4.37645 -4.90135,4.18892 -5.07321,3.99519 -5.23982,3.79531 -5.40118,3.58924 -5.55731,3.37699 -5.70819,3.15857 -5.85383,2.93397 -5.99423,2.7032 -6.12937,2.46625 -6.25928,2.22312 -6.38395,1.97382 -6.50337,1.71834 -3.29483,0.76143"
         id="path329" />
      <path
         d="m 469.46344,667.99203 -2.56586,1.73085 -5.17389,3.30197 -5.22668,3.09059 -5.27538,2.88119 -5.31996,2.67375 -5.36044,2.46825 -5.39682,2.26472 -5.4291,2.06315 -5.45727,1.86353 -5.48134,1.66588 -5.5013,1.47019 -5.51716,1.27644 -5.52893,1.08466 -5.53657,0.89484 -5.54013,0.70698 -5.53957,0.52107 -5.53492,0.33713 -5.52615,0.15514 -5.5133,-0.0249 -5.49632,-0.20296 -8.20369,-0.63404 -10.84058,-1.45036 -10.69883,-2.12738 -10.52427,-2.78875 -10.31687,-3.43445 -10.07665,-4.06447 -9.8036,-4.67882 -9.49771,-5.27752 -9.159,-5.86055 -8.78747,-6.42789 -8.38309,-6.97959 -7.94589,-7.5156 -5.65276,-5.97904 -3.61478,-4.14538 -3.48702,-4.27056 -3.35515,-4.3938 -3.21917,-4.51507 -3.0791,-4.63439 -2.93491,-4.75174 -2.78664,-4.86715 -2.63424,-4.98058 -2.47775,-5.09207 -2.31716,-5.20159 -2.15246,-5.30916 -1.98365,-5.41476 -1.81075,-5.51842 -1.63374,-5.6201 -1.45263,-5.71983 -1.26741,-5.81761 -1.07809,-5.91342 -0.88466,-6.00727 -0.68714,-6.09918 -0.26821,-3.08343 v 0 l -0.2731,-4.1108 -0.25051,-8.22349 0.14244,-8.21439 0.53381,-8.1913 0.92359,-8.15423 1.31179,-8.10318 1.69841,-8.03815 2.08343,-7.95915 1.18562,-3.94557"
         id="path331" />
      <path
         d="m 225.60088,415.99708 2.00438,-2.61767 4.1055,-5.08832 4.23045,-4.89277 4.35061,-4.6978 4.46596,-4.50343 4.5765,-4.30964 4.68223,-4.11644 4.78315,-3.92383 4.87927,-3.73179 4.97057,-3.54036 5.05708,-3.3495 5.13876,-3.15923 5.21565,-2.96954 5.28773,-2.78046 5.35499,-2.59194 5.41745,-2.40402 5.47511,-2.21669 5.52794,-2.02994 5.57599,-1.84378 5.61921,-1.6582 5.65763,-1.47322 5.69125,-1.28881 5.72005,-1.105 5.74405,-0.92177 5.76323,-0.73913 5.77762,-0.55707 5.78719,-0.3756 5.79195,-0.19473 5.79191,-0.0144 5.78706,0.16528 5.7774,0.3444 5.76293,0.52294 5.74366,0.70088 5.71958,0.87824 5.69068,1.05502 5.65699,1.23121 5.61848,1.4068 5.57517,1.58183 5.52704,1.75625 5.47412,1.93009 5.41637,2.10334 5.35383,2.27601 5.28648,2.4481 5.21431,2.61958 5.13735,2.7905 5.05556,2.96082 4.96899,3.13055 4.87758,3.29969 4.78139,3.46826 4.68038,3.63624 4.57456,3.80362 4.46393,3.97042 4.3485,4.13663 4.22826,4.30226 4.10322,4.46731 3.97335,4.63175 3.83869,4.79563 3.69922,4.9589 3.55493,5.1216 3.40585,5.2837 3.25195,5.44523 3.09325,5.60616 2.92974,5.7665 2.76141,5.92627 1.31609,3.02286 v 0 l 1.16476,2.80226 2.18306,5.6416 1.98823,5.68715 1.79393,5.72806 1.60019,5.76431 1.40699,5.79592 1.21433,5.82287 1.02221,5.84518 0.83064,5.86284 0.63961,5.87585 0.44912,5.88422 0.25919,5.88792 0.0698,5.88699 -0.11907,5.88141 -0.30738,5.87117 -0.49515,5.85628 -0.68238,5.83676 -0.86905,5.81257 -1.0552,5.78374 -1.24078,5.75027 -1.42584,5.71214 -1.61034,5.66936 -1.79431,5.62193 -1.97773,5.56986 -2.1606,5.51313 -2.34294,5.45177 -2.52473,5.38574 -2.70597,5.31507 -2.88667,5.23975 -3.06684,5.15978 -3.24645,5.07517 -3.42552,4.9859 -1.77974,2.45802"
         id="path333" />
      <path
         d="m 509.50616,388.59222 3.5921,3.68478 6.85953,7.61726 6.42042,7.93135 5.97383,8.22606 5.51978,8.50138 5.05823,8.75733 4.58923,8.99388 4.11273,9.21105 3.62877,9.40884 3.13732,9.58725 2.63841,9.74626 2.13202,9.8859 1.61814,10.00615 1.0968,10.10702 0.56798,10.1885 0.0317,10.25059 -0.18761,5.14253"
         id="path335" />
      <path
         d="m 311.00045,722.6228 -3.52452,-1.12805 -6.93024,-2.41395 -6.77086,-2.61997 -6.61027,-2.8207 -6.44849,-3.01613 -6.2855,-3.20624 -6.12133,-3.39106 -5.95594,-3.57057 -5.78937,-3.74478 -5.62159,-3.91369 -5.45262,-4.0773 -5.28244,-4.2356 -5.11107,-4.38859 -4.9385,-4.5363 -4.76473,-4.67868 -4.58976,-4.81578 -4.4136,-4.94757 -4.23623,-5.07405 -4.05766,-5.19523 -3.87791,-5.31111 -3.69694,-5.42168 -3.51478,-5.52696 -3.33142,-5.62693 -3.14687,-5.7216 -2.9611,-5.81096 -2.77416,-5.89502 -2.586,-5.97379 -2.39665,-6.04723 -2.2061,-6.11539 -2.01435,-6.17824 -1.8214,-6.23579 -1.62726,-6.28803 -1.43191,-6.33498 -1.23537,-6.37661 -1.03762,-6.41294 -0.83869,-6.44398 -0.63854,-6.46971 -0.43721,-6.49014 -0.23467,-6.50526 -0.0309,-6.51508 0.174,-6.5196 0.38013,-6.51881 0.58746,-6.51273 0.796,-6.50133 1.00572,-6.48464 1.21665,-6.46265 1.42877,-6.43535 1.6421,-6.40274 1.85662,-6.36484 2.07234,-6.32163 2.28926,-6.27312 2.50738,-6.21931 2.7267,-6.16019 2.94722,-6.09577 3.16893,-6.02605 3.39184,-5.95102 3.61596,-5.87069 3.84126,-5.78507 4.06778,-5.69412 4.29548,-5.5979 4.52439,-5.49635 4.7545,-5.38951 4.98579,-5.27736 5.21831,-5.15992 2.69671,-2.53426 v 0 l 2.73918,-2.48829 5.55566,-4.79479 5.65439,-4.55375 5.74794,-4.31431 5.83628,-4.07649 5.91944,-3.84029 5.99741,-3.60569 6.07018,-3.37272 6.13776,-3.14135 6.20015,-2.91159 6.25735,-2.68346 6.30936,-2.45693 6.35617,-2.23202 6.39779,-2.00872 6.43423,-1.78703 6.46546,-1.56696 6.49152,-1.3485 6.51237,-1.13166 6.52803,-0.91643 6.53851,-0.7028 6.54379,-0.49081 6.54388,-0.28041 6.53877,-0.0716 6.52849,0.13554 6.51299,0.34108 6.49232,0.54502 6.46645,0.74735 6.43538,0.94806 6.39913,1.14716 6.35769,1.34464 6.31105,1.54051 6.25923,1.73477 6.2022,1.92742 6.13999,2.11844 6.07259,2.30787 5.99999,2.49566 5.92221,2.68186 5.83922,2.86644 5.75106,3.0494 5.65769,3.23075 5.55914,3.41048 5.45539,3.58861 5.34646,3.76512 5.23232,3.94002 5.11301,4.1133 4.98849,4.28497 4.85879,4.45503 4.72389,4.62347 4.5838,4.7903 4.43852,4.95552 4.28805,5.11912 4.13239,5.28111 3.97153,5.44148 3.80548,5.60025 3.63425,5.7574 3.45781,5.91293 3.2762,6.06686 3.08937,6.21916 2.89738,6.36986 2.70017,6.51895 2.49779,6.66641 2.2902,6.81227 2.07743,6.95651 1.85947,7.09914 0.84638,3.60255"
         id="path337" />
      <path
         d="m 155.30367,535.15168 -0.12841,-3.90038 -0.0579,-7.73869 0.20316,-7.65339 0.45943,-7.56501 0.71085,-7.47357 0.95744,-7.37905 1.19917,-7.28147 1.43608,-7.18081 1.66812,-7.07708 1.89535,-6.9703 2.11771,-6.86043 2.33524,-6.7475 2.54793,-6.6315 2.75577,-6.51243 2.95877,-6.39028 3.15694,-6.26508 3.35025,-6.1368 3.53872,-6.00544 3.72236,-5.87103 3.90114,-5.73354 4.07509,-5.59299 4.2442,-5.44936 4.40846,-5.30266 4.56789,-5.15289 4.72246,-5.00006 4.87219,-4.84415 5.01709,-4.68518 5.15714,-4.52314 5.29235,-4.35802 5.42272,-4.18984 5.54824,-4.01859 5.66892,-3.84427 5.78477,-3.66687 5.89576,-3.48642 6.00191,-3.30288 6.10323,-3.11629 6.1997,-2.92661 6.29132,-2.73388 6.37811,-2.53807 6.46006,-2.33919 6.53716,-2.13724 6.60941,-1.93223 6.67683,-1.72414 6.73941,-1.51299 6.79713,-1.29876 6.85003,-1.08147 6.89807,-0.8611 6.94128,-0.63767 6.97964,-0.41117 7.01317,-0.18159 7.04183,0.051 7.06568,0.28676 7.08467,0.52554 7.09881,0.76739 7.10813,1.01231 7.11259,1.2603 7.11222,1.51135 7.107,1.76549 7.09694,2.02268 7.08203,2.28295 7.06229,2.54629 7.0377,2.81269 7.00827,3.08217 6.974,3.35471 3.47263,1.78052 v 0 l 3.44203,1.83899 6.73088,3.81916 6.52645,4.00264 6.32178,4.18038 6.11687,4.3524 5.91173,4.51869 5.70634,4.67925 5.50073,4.83408 5.29488,4.98319 5.08878,5.12656 4.88245,5.26421 4.67588,5.39613 4.46909,5.52232 4.26204,5.64278 4.05476,5.75752 3.84725,5.86652 3.6395,5.9698 3.43151,6.06735 3.22328,6.15916 3.01482,6.24527 2.80612,6.32562 2.59718,6.40027 2.38801,6.46916 2.17859,6.53235 1.96895,6.5898 1.75907,6.64153 1.54894,6.68751 1.33858,6.72779 1.12798,6.76232 0.91715,6.79113 0.70608,6.81421 0.49477,6.83157 0.28323,6.84318 0.0714,6.84909 -0.14058,6.84925 -0.35283,6.8437 -0.56532,6.8324 -0.77806,6.81539 -0.99102,6.79264 -1.20423,6.76416 -1.41767,6.72997 -1.63135,6.69003 -1.84527,6.64438 -2.05941,6.59299 -2.27381,6.53587 -2.48844,6.47304 -2.7033,6.40445 -2.9184,6.33016 -3.13374,6.25013 -3.34931,6.16438 -3.56513,6.07288 -3.78118,5.97568 -3.99746,5.87273 -4.21399,5.76406 -4.43075,5.64967 -4.64774,5.52953 -4.86499,5.40368 -5.08245,5.2721 -5.30016,5.13479 -5.51811,4.99175 -5.7363,4.84298 -5.95471,4.68848 -6.17337,4.52825 -6.39227,4.36231 -3.27829,2.11713"
         id="path339" />
      <path
         d="m 361.07681,298.2954 4.10112,-0.16268 8.13838,-0.11579 8.05051,0.15942 7.95938,0.42957 7.86499,0.69464 7.76733,0.95464 7.66642,1.20957 7.56224,1.45943 7.4548,1.70421 7.34409,1.94394 7.23013,2.17858 7.11289,2.40815 6.99241,2.63266 6.86865,2.85209 6.74164,3.06646 6.61135,3.27574 6.47782,3.47997 6.34101,3.67911 6.20094,3.8732 6.05761,4.0622 5.91103,4.24614 5.76117,4.425 5.60805,4.5988 5.45167,4.76753 5.29203,4.93117 5.12913,5.08976 4.96296,5.24327 4.79354,5.39171 4.62084,5.53508 4.44488,5.67338 4.26568,5.80661 4.08319,5.93476 3.89745,6.05785 3.70844,6.17587 3.51618,6.2888 3.32066,6.39668 3.12186,6.49949 2.9198,6.59721 2.71449,6.68987 2.50591,6.77747 2.29407,6.85998 2.07897,6.93743 1.8606,7.00981 1.63897,7.07711 1.41408,7.13934 1.18592,7.19651 0.95451,7.24861 0.71983,7.29562 0.48189,7.33758 0.24069,7.37446 -0.004,7.40626 -0.25151,7.433 -0.5025,7.45468 -0.75675,7.47126 -1.01427,7.4828 -1.27505,7.48924 -1.53909,7.49064 -1.8064,7.48694 -2.07695,7.47819 -2.35079,7.46435 -2.62788,7.44546 -2.90823,7.42148 -3.19185,7.39245 -3.47873,7.35833 -1.84796,3.66479 v 0 l -1.86133,3.53877 -3.89173,6.95183 -4.11227,6.78125 -4.32698,6.60709 -4.53582,6.42937 -4.73882,6.24807 -4.93595,6.06321 -5.12724,5.87476 -5.31267,5.68275 -5.49224,5.48717 -5.66598,5.28801 -5.83384,5.08529 -5.99586,4.87899 -6.15203,4.66912 -6.30234,4.45568 -6.4468,4.23867 -6.5854,4.01808 -6.71816,3.79394 -6.84505,3.5662 -6.9661,3.33492 -7.08129,3.10004 -7.19063,2.8616 -7.29412,2.61959 -7.39174,2.37401 -7.48352,2.12485 -7.56945,1.87213 -7.64952,1.61584 -7.72374,1.35596 -7.7921,1.09253 -7.85462,0.82551 -7.91127,0.55494 -7.96208,0.28077 -3.99826,0.0365"
         id="path341" />
      <path
         d="m 477.67267,311.37583 3.72673,1.87081 7.30015,3.8938 7.09531,4.09188 6.8899,4.28416 6.68395,4.47063 6.47745,4.65129 6.2704,4.82614 6.0628,4.9952 5.85465,5.15844 5.64595,5.31587 5.4367,5.4675 5.22691,5.61332 5.01655,5.75334 4.80566,5.88754 4.59421,6.01595 4.38221,6.13854 4.16966,6.25533 3.95657,6.36631 3.74293,6.47148 3.52872,6.57086 3.31399,6.66441 3.09868,6.75216 2.88285,6.83411 2.66645,6.91026 2.4495,6.98058 2.23201,7.04512 2.01397,7.10383 1.79538,7.15674 1.57624,7.20385 1.35654,7.24515 1.1363,7.28065 0.91552,7.31032 0.69417,7.33421 0.47228,7.35228 0.24984,7.36455 0.0269,7.371 -0.19669,7.37166 -0.42077,7.3665 -0.64542,7.35553 -0.8706,7.33877 -1.09633,7.3162 -1.32263,7.28781 -1.54946,7.25362 -1.77684,7.21363 -2.00479,7.16783 -2.23326,7.11621 -2.46231,7.0588 -2.69188,6.99558 -2.92202,6.92654 -3.15271,6.85171 -3.38393,6.77107 -3.61572,6.68462 -3.84806,6.59235 -4.08093,6.4943 -4.31437,6.39043 -4.54835,6.28074 -4.78287,6.16527 -5.01796,6.04397 -5.25359,5.91687 -5.48977,5.78397 -5.7265,5.64526 -5.96378,5.50074 -6.2016,5.35042 -6.43999,5.19428 -3.30955,2.53678"
         id="path343" />
      <path
         d="m 502.48592,740.14693 -3.86889,2.31392 -7.78642,4.39218 -7.84646,4.08058 -7.90067,3.77218 -7.94907,3.46693 -7.99167,3.16487 -8.02844,2.86598 -8.05941,2.57026 -8.08456,2.27772 -8.10389,1.98834 -8.11742,1.70215 -8.12514,1.41912 -8.12703,1.13927 -8.12312,0.8626 -8.11339,0.5891 -8.09786,0.31876 -8.0765,0.0516 -8.04934,-0.21237 -8.01635,-0.47318 -7.97757,-0.73082 -7.93296,-0.98528 -7.88255,-1.23656 -7.82631,-1.48468 -7.76428,-1.72962 -7.69641,-1.97139 -7.62275,-2.20998 -7.54327,-2.4454 -7.45797,-2.67764 -7.36686,-2.90672 -7.26994,-3.13262 -7.16721,-3.35534 -7.05866,-3.57489 -6.9443,-3.79127 -6.82413,-4.00448 -6.69815,-4.2145 -6.56634,-4.42136 -6.42874,-4.62505 -6.28531,-4.82556 -6.13607,-5.02289 -5.98102,-5.21705 -5.82016,-5.40805 -5.65348,-5.59586 -5.48099,-5.7805 -5.3027,-5.96197 -5.11857,-6.14027 -4.92865,-6.31538 -4.73291,-6.48733 -4.53135,-6.65611 -4.32398,-6.82171 -4.11081,-6.98413 -3.89181,-7.14339 -3.66701,-7.29947 -3.43639,-7.45237 -3.19996,-7.6021 -2.95771,-7.74866 -2.70965,-7.89205 -2.45579,-8.03226 -2.1961,-8.1693 -1.9306,-8.30316 -1.6593,-8.43385 -1.38217,-8.56137 -1.09924,-8.68571 -0.81048,-8.80688 -0.51593,-8.92488 -0.14569,-4.50569 v 0 l -0.0695,-4.50752 0.0895,-8.93933 0.38934,-8.83552 0.68353,-8.72827 0.97209,-8.61757 1.25497,-8.50342 1.53221,-8.38582 1.8038,-8.26478 2.06971,-8.14029 2.33,-8.01236 2.5846,-7.88096 2.83357,-7.74614 3.07688,-7.60785 3.31453,-7.46613 3.54653,-7.32095 3.77286,-7.17233 3.99356,-7.02026 4.20859,-6.86474 4.41797,-6.70578 4.62168,-6.54337 4.81976,-6.37751 5.01217,-6.2082 5.19893,-6.03545 5.38003,-5.85925 5.55548,-5.6796 5.72527,-5.4965 5.88941,-5.30996 6.04789,-5.11997 6.20073,-4.92653 6.34789,-4.72965 6.48942,-4.52931 6.62528,-4.32553 6.75548,-4.11831 6.88005,-3.90763 6.99894,-3.69351 7.11218,-3.47594 7.21978,-3.25493 7.32171,-3.03046 7.41799,-2.80254 7.50861,-2.57119 7.59358,-2.33639 7.6729,-2.09813 7.74656,-1.85642 7.81456,-1.61128 7.87691,-1.36269 7.93361,-1.11064 7.98465,-0.85515 8.03003,-0.59621 8.06977,-0.33383 8.10384,-0.068 8.13226,0.20129 8.15503,0.47401 8.17214,0.75018 8.18359,1.02981 8.18939,1.31288 8.18955,1.59939 8.18403,1.88936 8.17287,2.18277 8.15605,2.47963 8.13357,2.77993 8.10545,3.08369 8.07167,3.39089 8.03223,3.70154 7.98713,4.01563 3.97489,2.12668"
         id="path345" />
      <path
         d="m 395.59189,786.93129 -3.92473,0.32466 -7.85202,0.4716 -7.85111,0.23533 -7.84497,-1.7e-4 -7.83362,-0.23487 -7.81704,-0.46879 -7.79525,-0.70192 -7.76824,-0.93426 -7.73601,-1.16583 -7.69857,-1.3966 -7.6559,-1.62659 -7.60802,-1.85578 -7.55492,-2.0842 -7.4966,-2.31183 -7.43306,-2.53867 -7.36431,-2.76473 -3.65474,-1.46689"
         id="path347" />
      <path
         d="m 253.31151,772.0429 -6.01201,-2.99363 -11.7102,-6.3709 -11.28537,-6.86591 -10.85288,-7.34106 -10.41271,-7.79641 -9.96487,-8.2319 -9.50934,-8.64757 -9.04616,-9.0434 -8.57529,-9.41941 -8.09676,-9.77558 -7.61054,-10.11191 -7.11666,-10.42841 -6.6151,-10.72509 -6.10586,-11.00192 -5.58896,-11.25893 -5.06438,-11.4961 -4.53213,-11.71344 -3.99219,-11.91094 -3.4446,-12.08862 -2.88932,-12.24646 -2.32637,-12.38446 -1.75575,-12.50264 -1.17746,-12.60098 -0.59148,-12.67949 0.0022,-12.73817 0.60347,-12.77701 1.21247,-12.79602 1.82913,-12.79519 2.45347,-12.77455 3.08548,-12.73405 3.72516,-12.67373 4.37253,-12.59357 2.43142,-6.26054"
         id="path349" />
      <path
         d="m 562.28622,737.3879 -3.82835,3.3901 -7.76031,6.52764 -7.89251,6.19287 -8.01755,5.86039 -8.13547,5.53026 -8.24622,5.20242 -8.34984,4.87693 -8.44631,4.55374 -8.53563,4.23287 -8.61781,3.91433 -8.69285,3.5981 -8.76073,3.28421 -8.82148,2.97262 -8.87508,2.66335 -8.92153,2.35641 -8.96084,2.05179 -8.993,1.74949 -9.01802,1.44951 -9.03589,1.15184 -9.04661,0.8565 -9.0502,0.56348 -9.04664,0.27278 -9.03593,-0.0156 -9.01807,-0.30167 -8.99307,-0.5854 -8.96093,-0.86683 -8.92165,-1.14592 -8.8752,-1.42271 -8.82163,-1.69716 -8.7609,-1.9693 -8.69303,-2.23913 -8.61802,-2.50662 -8.53585,-2.7718 -8.44655,-3.03466 -8.3501,-3.2952 -8.2465,-3.55342 -8.13576,-3.80931 -8.01787,-4.06289 -7.89284,-4.31415 -7.76066,-4.56309 -7.62134,-4.8097 -7.47488,-5.054 -7.32126,-5.29598 -7.1605,-5.53564 -6.9926,-5.77297 -6.81755,-6.00798 -6.63535,-6.24068 -6.44602,-6.47106 -6.24953,-6.69911 -6.04591,-6.92485 -5.83513,-7.14826 -5.6172,-7.36936 -5.39215,-7.58813 -5.15993,-7.80458 -4.92058,-8.01872 -4.67408,-8.23053 -4.42043,-8.44003 -4.15964,-8.6472 -3.8917,-8.85205 -3.61663,-9.05459 -3.33439,-9.25479 -3.04502,-9.45269 -2.74851,-9.64826 -2.44484,-9.84152 -1.10632,-4.9925 v 0 l -1.02173,-5.01049 -1.77296,-9.98445 -1.41692,-9.93155 -1.06647,-9.87361 -0.72161,-9.81064 -0.38232,-9.74265 -0.04862,-9.66964 0.2795,-9.59158 0.60204,-9.50852 0.919,-9.4204 1.23037,-9.32728 1.53616,-9.22912 1.83638,-9.12594 2.131,-9.01772 2.42006,-8.90447 2.70351,-8.78621 2.9814,-8.66291 3.2537,-8.53459 3.52042,-8.40123 3.78156,-8.26285 4.03711,-8.11945 4.28709,-7.971 4.53147,-7.81754 4.77029,-7.65905 5.00351,-7.49553 5.23116,-7.32698 5.45322,-7.15341 5.6697,-6.9748 5.8806,-6.79117 6.08592,-6.60251 6.28565,-6.40882 6.47981,-6.21011 6.66838,-6.00637 6.85136,-5.79759 7.02878,-5.5838 7.2006,-5.36497 7.36684,-5.14112 7.5275,-4.91223 7.68259,-4.67833 7.83208,-4.43939 7.97599,-4.19542 8.11433,-3.94643 8.24708,-3.69241 8.37425,-3.43336 8.49584,-3.16928 8.61185,-2.90018 8.72226,-2.62605 8.82711,-2.34688 8.92637,-2.0627 9.02004,-1.77348 9.10814,-1.47924 9.19066,-1.17997 9.26759,-0.87567 9.33893,-0.56634 9.4047,-0.25198 9.46489,0.0674 9.5195,0.39181 9.56851,0.72124 9.61195,1.05572 9.64981,1.3952 9.68209,1.73973 9.70878,2.08928 9.72989,2.44385 9.74543,2.80346 4.87679,1.53815"
         id="path351" />
      <path
         d="m 167.48601,739.39148 -3.80434,-3.7123 -7.35471,-7.55112 -7.01764,-7.71352 -6.68243,-7.86832 -6.34909,-8.01555 -6.01761,-8.15518 -5.68801,-8.28725 -5.36025,-8.41172 -5.03437,-8.52861 -4.71035,-8.63792 -4.3882,-8.73964 -4.06791,-8.83378 -3.74948,-8.92035 -3.43292,-8.99931 -3.11823,-9.07072 -2.80539,-9.13452 -2.49443,-9.19074 -2.18533,-9.23939 -1.87809,-9.28045 -1.57271,-9.31392 -1.26921,-9.33982 -0.96757,-9.35813 -0.66778,-9.36885 -0.36987,-9.372 -0.07382,-9.36756 0.22037,-9.35553 0.51269,-9.33593 0.80314,-9.30874 1.09174,-9.27397 1.37846,-9.23161 1.66333,-9.18168 1.94632,-9.12415 2.22746,-9.05905 2.50673,-8.98635 2.78413,-8.90609 3.05967,-8.81824 3.33335,-8.72279 3.60515,-8.61978 3.87511,-8.50917 4.14318,-8.39098 4.40941,-8.26522 4.67375,-8.13186 4.93625,-7.99092 5.19686,-7.8424 5.45563,-7.6863 5.71252,-7.52262 5.96755,-7.35134 6.22071,-7.1725 6.47202,-6.98605 6.72145,-6.79204 6.96902,-6.59044 7.21473,-6.38125 7.45858,-6.16448 7.70055,-5.94013 7.94066,-5.7082 8.17891,-5.46868 8.4153,-5.22157 8.64981,-4.9669 8.88248,-4.70462 9.11326,-4.43478 9.34218,-4.15734 9.56925,-3.87232 9.79445,-3.57973 10.01777,-3.27954 5.09206,-1.52483 v 0 l 5.11711,-1.43851 10.21682,-2.5938 10.18892,-2.2207 10.15538,-1.85299 10.11622,-1.4907 10.0714,-1.13381 10.02097,-0.78234 9.96489,-0.43625 9.90317,-0.0956 9.83584,0.23968 9.76285,0.56953 9.68424,0.89398 9.59998,1.21302 9.5101,1.52666 9.41458,1.83489 9.31342,2.13772 9.20664,2.43513 9.09421,2.72715 8.97614,3.01375 8.85246,3.29495 8.72312,3.57074 8.58816,3.84113 8.44755,4.10611 8.30133,4.36568 8.14945,4.61985 7.99195,4.86862 7.82881,5.11196 7.66003,5.34991 7.48562,5.58246 7.30558,5.80959 7.1199,6.03132 6.92859,6.24764 6.73163,6.45856 6.52906,6.66407 6.32083,6.86417 6.10698,7.05887 5.88749,7.24816 5.66236,7.43205 5.43161,7.61052 5.19521,7.7836 4.95318,7.95126 4.70552,8.11352 4.45223,8.27038 4.19328,8.42182 3.92872,8.56786 3.65852,8.70849 3.38267,8.84373 3.10121,8.97354 2.81409,9.09796 2.52135,9.21697 2.22298,9.33057 1.91896,9.43876 1.60931,9.54155 1.29403,9.63894 0.97311,9.73092 0.64656,9.81748 0.31437,9.89865 -0.0235,9.97441 -0.36691,10.04475 -0.71601,10.10971 -1.07073,10.16924 -1.43109,10.22337 -1.79709,10.2721 -2.16872,10.31542 -1.22549,5.17227"
         id="path353" />
      <path
         d="m 98.33487,664.53601 -2.44724,-4.94488 -4.60223,-9.92622 -4.21626,-9.96919 -3.83472,-10.00537 -3.45762,-10.03478 -3.08496,-10.05741 -2.71673,-10.07323 -2.35294,-10.0823 -1.99359,-10.08456 -1.63868,-10.08005 -1.28819,-10.06875 -0.94215,-10.05067 -0.60054,-10.0258 -0.26337,-9.99416 0.06936,-9.95572 0.39766,-9.91051 0.72152,-9.8585 1.04095,-9.79973 1.35593,-9.73415 1.66649,-9.66181 1.9726,-9.58267 2.27428,-9.49676 2.57152,-9.40405 2.86433,-9.30457 3.1527,-9.1983 3.43663,-9.08524 3.71613,-8.96541 3.99119,-8.83879 4.26181,-8.70539 4.528,-8.5652 4.78975,-8.41822 5.04706,-8.26448 5.29994,-8.10393 5.54838,-7.93662 5.79238,-7.7625 6.03196,-7.58162 6.26708,-7.39395 6.49778,-7.19948 6.72404,-6.99825 6.94586,-6.79023 7.16325,-6.57541 7.37619,-6.35383 7.58471,-6.12545 7.78878,-5.89029 7.98843,-5.64835 8.18363,-5.39963 8.37439,-5.14411 8.56072,-4.88182 8.74262,-4.61275 8.92007,-4.33688 9.0931,-4.05424 9.26168,-3.76481 9.42582,-3.4686 9.58554,-3.16561 9.74081,-2.85582 9.89166,-2.53927 10.03805,-2.21592 10.18002,-1.88578 10.31754,-1.54888 10.45064,-1.20517 10.5793,-0.8547 10.70351,-0.49743 10.8233,-0.13338 10.93864,0.23745 5.51119,0.2599 v 0 l 5.50601,0.35307 10.89747,0.97746 10.7417,1.33321 10.58227,1.68172 10.41919,2.023 10.25244,2.35705 10.08205,2.68386 9.90799,3.00344 9.73028,3.31578 9.54892,3.62089 9.36389,3.91877 9.17521,4.20941 8.98287,4.49281 8.78688,4.76899 8.58722,5.03793 8.38393,5.29964 8.17695,5.55411 7.96634,5.80135 7.75206,6.04135 7.53413,6.27413 7.31253,6.49966 7.08729,6.71796 6.85839,6.92903 6.62583,7.13286 6.38961,7.32947 6.14974,7.51883 5.9062,7.70097 5.65903,7.87586 5.40818,8.04353 5.15368,8.20396 4.89552,8.35716 4.63371,8.50312 4.36825,8.64185 4.09912,8.77335 3.82633,8.89761 3.5499,9.01463 3.2698,9.12443 2.98605,9.22698 2.69864,9.32232 2.40758,9.4104 2.11286,9.49126 1.81447,9.56489 1.51244,9.63127 1.20675,9.69043 0.89741,9.74236 0.5844,9.78704 0.26773,9.82449 -0.0526,9.85471 -0.37655,9.87771 -0.70419,9.89345 -1.03547,9.90197 -1.37042,9.90325 -1.70901,9.89731 -2.05128,9.88412 -2.39719,9.86371 -2.74676,9.83605 -3.09998,9.80117 -3.45687,9.75904 -3.81741,9.7097 -4.18161,9.65311 -4.54946,9.58928 -4.92096,9.51823 -5.29614,9.43994 -5.67496,9.35442 -2.98068,4.64288"
         id="path355" />
      <path
         d="m 612.32697,734.35069 -3.78133,4.29074 -7.71248,8.31549 -7.9054,7.96215 -8.09005,7.61041 -8.26646,7.26026 -8.43461,6.91168 -8.59452,6.56471 -8.74617,6.21933 -8.88958,5.87552 -9.02473,5.53332 -9.15164,5.1927 -9.27028,4.85366 -9.3807,4.51623 -9.48284,4.18038 -9.57675,3.84611 -9.6624,3.51345 -9.7398,3.18236 -9.80895,2.85287 -9.86985,2.52496 -9.9225,2.19865 -9.9669,1.87392 -10.00305,1.55079 -10.03095,1.22925 -10.05059,0.90929 -10.062,0.59092 -10.06514,0.27414 -10.06004,-0.041 -10.04668,-0.35464 -10.02508,-0.66666 -9.99523,-0.97707 -9.95712,-1.2859 -9.91077,-1.59314 -9.85616,-1.8988 -9.79331,-2.20285 -9.7222,-2.50533 -9.64284,-2.80621 -9.55524,-3.1055 -9.45937,-3.40321 -9.35527,-3.69933 -9.24291,-3.99384 -9.12231,-4.28679 -8.99344,-4.57813 -8.85633,-4.86789 -8.71097,-5.15605 -8.55737,-5.44263 -8.3955,-5.72762 -8.22539,-6.01102 -8.04703,-6.29283 -7.86041,-6.57305 -7.66555,-6.85168 -7.46244,-7.12873 -7.25108,-7.40417 -7.03146,-7.67803 -6.8036,-7.95031 -6.56748,-8.221 -6.32312,-8.49008 -6.0705,-8.75759 -5.80964,-9.02351 -5.54052,-9.28783 -5.26315,-9.55057 -4.97754,-9.81171 -4.68366,-10.07127 -4.38155,-10.32924 -4.07118,-10.58562 -1.91663,-5.38846 v 0 l -1.93974,-5.78186 -3.54197,-11.65923 -3.08993,-11.77557 -2.6355,-11.87872 -2.17866,-11.96869 -1.71943,-12.04547 -1.25779,-12.10907 -0.79376,-12.15949 -0.22211,-6.09453"
         id="path357" />
      <path
         d="m 43.5038,506.47578 0.40445,-5.90719 1.09956,-11.6902 1.48062,-11.52138 1.85388,-11.34868 2.21938,-11.17207 2.57708,-10.99157 2.92702,-10.8072 3.26916,-10.61893 3.60354,-10.42676 3.93012,-10.23071 4.24894,-10.03077 4.55997,-9.82693 4.86321,-9.61921 5.15869,-9.40759 5.44637,-9.19209 5.72628,-8.97269 5.99841,-8.74941 6.26276,-8.52223 6.51933,-8.29116 6.76812,-8.0562 7.00913,-7.81736 7.24235,-7.57461 7.4678,-7.32799 7.68547,-7.07746 7.89536,-6.82306 8.09746,-6.56475 8.29179,-6.30256 8.47834,-6.03648 8.65711,-5.76651 8.82809,-5.49264 8.9913,-5.21489 9.14673,-4.93324 9.29437,-4.64771 9.43424,-4.35829 9.56632,-4.06497 9.69063,-3.76776 9.80716,-3.46666 9.9159,-3.16168 10.01687,-2.8528 10.11005,-2.54003 10.19546,-2.22338 10.27308,-1.90282 10.34292,-1.57838 10.405,-1.25005 10.45927,-0.91783 10.50578,-0.58172 10.54451,-0.24172 10.57544,0.10217 10.59862,0.44996 10.61399,0.80163 10.6216,1.1572 10.62142,1.51665 10.61347,1.88 10.59773,2.24723 10.57421,2.61835 10.54291,2.99338 10.50384,3.37228 10.45698,3.75508 10.40234,4.14177 10.33992,4.53235 10.26973,4.92681 10.19175,5.32518 10.10598,5.72742 10.01245,6.13357 4.96872,3.2203 v 0 l 4.91355,3.30387 9.57423,6.79735 9.2375,7.04293 8.9013,7.27985 8.56561,7.50807 8.23044,7.72761 7.8958,7.93847 7.56168,8.14064 7.22807,8.33414 6.89499,8.51894 6.56243,8.69507 6.23039,8.86252 5.89888,9.02127 5.56787,9.17135 5.23739,9.31274 4.90744,9.44545 4.578,9.56948 4.24909,9.68483 3.92069,9.79148 3.59282,9.88946 3.26546,9.97876 2.93863,10.05937 2.61232,10.1313 2.28653,10.19454 1.96126,10.24911 1.63652,10.29499 1.31228,10.33218 0.98857,10.3607 0.66539,10.38052 0.34272,10.39168 0.0206,10.39413 -0.30105,10.38792 -0.62215,10.37302 -0.94273,10.34943 -1.2628,10.31717 -1.58234,10.27621 -1.90135,10.22658 -2.21986,10.16826 -2.53784,10.10126 -2.85529,10.02558 -3.17223,9.94121 -3.48865,9.84816 -3.80455,9.74643 -4.11991,9.63602 -4.43478,9.51691 -4.7491,9.38913 -5.06292,9.25267 -5.37621,9.10752 -5.68898,8.95369 -6.00123,8.79117 -6.31296,8.61998 -6.62417,8.44009 -6.93486,8.25154 -7.24502,8.05428 -7.55467,7.84836 -7.8638,7.63374 -8.1724,7.41045 -8.48048,7.17847 -8.78805,6.93781 -9.09509,6.68846 -9.40161,6.43044 -9.70761,6.16372 -10.01309,5.88833 -10.31805,5.60425 -5.27323,2.69289"
         id="path359" />
    </g>
  </g>
  <g
     inkscape:groupmode="layer"
     id="layer2"
     inkscape:label="2 blue"
     style="display:inline" />
  <g
     inkscape:groupmode="layer"
     id="layer3"
     inkscape:label="3 red"
     style="display:inline" />
  <g
     transform="matrix(90,0,0,90,0,-4e-6)"
     inkscape:groupmode="layer"
     inkscape:label="% Preview"
     id="g612"
     style="display:inline">
    <g
       inkscape:groupmode="layer"
       inkscape:label="% Pen-up transit"
       id="g606">
      <path
         style="fill:none;stroke:#ff9f9f;stroke-width:0.008268;stroke-linecap:round;stroke-linejoin:round"
         d=""
         desc="pen-up transit"
         id="path604" />
    </g>
    <g
       inkscape:groupmode="layer"
       inkscape:label="% Pen-down drawing"
       id="g610">
      <path
         style="fill:none;stroke:#0000ff;stroke-width:0.008268;stroke-linecap:round;stroke-linejoin:round"
         d=""
         desc="pen-down drawing"
         id="path608" />
    </g>
  </g>
  <WCB
     layer="0"
     node="0"
     lastpath="0"
     lastpathnc="0"
     lastknownposx="0"
     lastknownposy="0"
     pausedposx="0"
     pausedposy="0"
     randseed="0"
     row="0"
     application="Axidraw" />
</svg>
