<?xml version="1.0" standalone="no"?>
<!DOCTYPE svg PUBLIC "-//W3C//DTD SVG 1.1//EN" 
    "http://www.w3.org/Graphics/SVG/1.1/DTD/svg11.dtd">
<svg width="21cm" height="29.7cm"
    xmlns="http://www.w3.org/2000/svg" version="1.1" viewBox="0 0 744.09449 1052.3622">
  <g fill="none" stroke="black" stroke-width="0.03cm">
    <path d="M35.43307 12.40157 L177.16535 12.40157" />
    <path d="M35.43307 12.40157 L35.43307 154.13386" />
    <path d="M35.43307 26.5748 L177.16535 26.5748" />
    <path d="M49.6063 12.40157 L49.6063 154.13386" />
    <path d="M35.43307 40.74803 L177.16535 40.74803" />
    <path d="M63.77953 12.40157 L63.77953 154.13386" />
    <path d="M35.43307 54.92126 L177.16535 54.92126" />
    <path d="M77.95276 12.40157 L77.95276 154.13386" />
    <path d="M35.43307 69.09449 L177.16535 69.09449" />
    <path d="M92.12598 12.40157 L92.12598 154.13386" />
    <path d="M35.43307 83.26772 L177.16535 83.26772" />
    <path d="M106.29921 12.40157 L106.29921 154.13386" />
    <path d="M35.43307 97.44094 L177.16535 97.44094" />
    <path d="M120.47244 12.40157 L120.47244 154.13386" />
    <path d="M35.43307 111.61417 L177.16535 111.61417" />
    <path d="M134.64567 12.40157 L134.64567 154.13386" />
    <path d="M35.43307 125.7874 L177.16535 125.7874" />
    <path d="M148.8189 12.40157 L148.8189 154.13386" />
    <path d="M35.43307 139.96063 L177.16535 139.96063" />
    <path d="M162.99213 12.40157 L162.99213 154.13386" />
    <path d="M35.43307 154.13386 L177.16535 154.13386" />
    <path d="M177.16535 12.40157 L177.16535 154.13386" />
    <path d="M35.43307 189.56693 L177.16535 189.56693" />
    <path d="M35.43307 189.56693 L35.43307 331.29921" />
    <path d="M35.43307 203.74016 L177.16535 203.74016" />
    <path d="M49.6063 189.56693 L49.6063 331.29921" />
    <path d="M35.43307 217.91339 L177.16535 217.91339" />
    <path d="M63.77953 189.56693 L63.77953 331.29921" />
    <path d="M35.43307 232.08661 L177.16535 232.08661" />
    <path d="M77.95276 189.56693 L77.95276 331.29921" />
    <path d="M35.43307 246.25984 L177.16535 246.25984" />
    <path d="M92.12598 189.56693 L92.12598 331.29921" />
    <path d="M35.43307 260.43307 L177.16535 260.43307" />
    <path d="M106.29921 189.56693 L106.29921 331.29921" />
    <path d="M35.43307 274.6063 L177.16535 274.6063" />
    <path d="M120.47244 189.56693 L120.47244 331.29921" />
    <path d="M35.43307 288.77953 L177.16535 288.77953" />
    <path d="M134.64567 189.56693 L134.64567 331.29921" />
    <path d="M35.43307 302.95276 L177.16535 302.95276" />
    <path d="M148.8189 189.56693 L148.8189 331.29921" />
    <path d="M35.43307 317.12598 L177.16535 317.12598" />
    <path d="M162.99213 189.56693 L162.99213 331.29921" />
    <path d="M35.43307 331.29921 L177.16535 331.29921" />
    <path d="M177.16535 189.56693 L177.16535 331.29921" />
    <path d="M35.43307 366.73228 L177.16535 366.73228" />
    <path d="M35.43307 366.73228 L35.43307 508.46457" />
    <path d="M35.43307 380.90551 L177.16535 380.90551" />
    <path d="M49.6063 366.73228 L49.6063 508.46457" />
    <path d="M35.43307 395.07874 L177.16535 395.07874" />
    <path d="M63.77953 366.73228 L63.77953 508.46457" />
    <path d="M35.43307 409.25197 L177.16535 409.25197" />
    <path d="M77.95276 366.73228 L77.95276 508.46457" />
    <path d="M35.43307 423.4252 L177.16535 423.4252" />
    <path d="M92.12598 366.73228 L92.12598 508.46457" />
    <path d="M35.43307 437.59843 L177.16535 437.59843" />
    <path d="M106.29921 366.73228 L106.29921 508.46457" />
    <path d="M35.43307 451.77165 L177.16535 451.77165" />
    <path d="M120.47244 366.73228 L120.47244 508.46457" />
    <path d="M35.43307 465.94488 L177.16535 465.94488" />
    <path d="M134.64567 366.73228 L134.64567 508.46457" />
    <path d="M35.43307 480.11811 L177.16535 480.11811" />
    <path d="M148.8189 366.73228 L148.8189 508.46457" />
    <path d="M35.43307 494.29134 L177.16535 494.29134" />
    <path d="M162.99213 366.73228 L162.99213 508.46457" />
    <path d="M35.43307 508.46457 L177.16535 508.46457" />
    <path d="M177.16535 366.73228 L177.16535 508.46457" />
    <path d="M35.43307 543.89764 L177.16535 543.89764" />
    <path d="M35.43307 543.89764 L35.43307 685.62992" />
    <path d="M35.43307 558.07087 L177.16535 558.07087" />
    <path d="M49.6063 543.89764 L49.6063 685.62992" />
    <path d="M35.43307 572.24409 L177.16535 572.24409" />
    <path d="M63.77953 543.89764 L63.77953 685.62992" />
    <path d="M35.43307 586.41732 L177.16535 586.41732" />
    <path d="M77.95276 543.89764 L77.95276 685.62992" />
    <path d="M35.43307 600.59055 L177.16535 600.59055" />
    <path d="M92.12598 543.89764 L92.12598 685.62992" />
    <path d="M35.43307 614.76378 L177.16535 614.76378" />
    <path d="M106.29921 543.89764 L106.29921 685.62992" />
    <path d="M35.43307 628.93701 L177.16535 628.93701" />
    <path d="M120.47244 543.89764 L120.47244 685.62992" />
    <path d="M35.43307 643.11024 L177.16535 643.11024" />
    <path d="M134.64567 543.89764 L134.64567 685.62992" />
    <path d="M35.43307 657.28346 L177.16535 657.28346" />
    <path d="M148.8189 543.89764 L148.8189 685.62992" />
    <path d="M35.43307 671.45669 L177.16535 671.45669" />
    <path d="M162.99213 543.89764 L162.99213 685.62992" />
    <path d="M35.43307 685.62992 L177.16535 685.62992" />
    <path d="M177.16535 543.89764 L177.16535 685.62992" />
    <path d="M35.43307 721.06299 L177.16535 721.06299" />
    <path d="M35.43307 721.06299 L35.43307 862.79528" />
    <path d="M35.43307 735.23622 L177.16535 735.23622" />
    <path d="M49.6063 721.06299 L49.6063 862.79528" />
    <path d="M35.43307 749.40945 L177.16535 749.40945" />
    <path d="M63.77953 721.06299 L63.77953 862.79528" />
    <path d="M35.43307 763.58268 L177.16535 763.58268" />
    <path d="M77.95276 721.06299 L77.95276 862.79528" />
    <path d="M35.43307 777.75591 L177.16535 777.75591" />
    <path d="M92.12598 721.06299 L92.12598 862.79528" />
    <path d="M35.43307 791.92913 L177.16535 791.92913" />
    <path d="M106.29921 721.06299 L106.29921 862.79528" />
    <path d="M35.43307 806.10236 L177.16535 806.10236" />
    <path d="M120.47244 721.06299 L120.47244 862.79528" />
    <path d="M35.43307 820.27559 L177.16535 820.27559" />
    <path d="M134.64567 721.06299 L134.64567 862.79528" />
    <path d="M35.43307 834.44882 L177.16535 834.44882" />
    <path d="M148.8189 721.06299 L148.8189 862.79528" />
    <path d="M35.43307 848.62205 L177.16535 848.62205" />
    <path d="M162.99213 721.06299 L162.99213 862.79528" />
    <path d="M35.43307 862.79528 L177.16535 862.79528" />
    <path d="M177.16535 721.06299 L177.16535 862.79528" />
    <path d="M35.43307 898.22835 L177.16535 898.22835" />
    <path d="M35.43307 898.22835 L35.43307 1039.96063" />
    <path d="M35.43307 912.40157 L177.16535 912.40157" />
    <path d="M49.6063 898.22835 L49.6063 1039.96063" />
    <path d="M35.43307 926.5748 L177.16535 926.5748" />
    <path d="M63.77953 898.22835 L63.77953 1039.96063" />
    <path d="M35.43307 940.74803 L177.16535 940.74803" />
    <path d="M77.95276 898.22835 L77.95276 1039.96063" />
    <path d="M35.43307 954.92126 L177.16535 954.92126" />
    <path d="M92.12598 898.22835 L92.12598 1039.96063" />
    <path d="M35.43307 969.09449 L177.16535 969.09449" />
    <path d="M106.29921 898.22835 L106.29921 1039.96063" />
    <path d="M35.43307 983.26772 L177.16535 983.26772" />
    <path d="M120.47244 898.22835 L120.47244 1039.96063" />
    <path d="M35.43307 997.44094 L177.16535 997.44094" />
    <path d="M134.64567 898.22835 L134.64567 1039.96063" />
    <path d="M35.43307 1011.61417 L177.16535 1011.61417" />
    <path d="M148.8189 898.22835 L148.8189 1039.96063" />
    <path d="M35.43307 1025.7874 L177.16535 1025.7874" />
    <path d="M162.99213 898.22835 L162.99213 1039.96063" />
    <path d="M35.43307 1039.96063 L177.16535 1039.96063" />
    <path d="M177.16535 898.22835 L177.16535 1039.96063" />
    <path d="M212.59843 12.40157 L354.33071 12.40157" />
    <path d="M212.59843 12.40157 L212.59843 154.13386" />
    <path d="M212.59843 26.5748 L354.33071 26.5748" />
    <path d="M226.77165 12.40157 L226.77165 154.13386" />
    <path d="M212.59843 40.74803 L354.33071 40.74803" />
    <path d="M240.94488 12.40157 L240.94488 154.13386" />
    <path d="M212.59843 54.92126 L354.33071 54.92126" />
    <path d="M255.11811 12.40157 L255.11811 154.13386" />
    <path d="M212.59843 69.09449 L354.33071 69.09449" />
    <path d="M269.29134 12.40157 L269.29134 154.13386" />
    <path d="M212.59843 83.26772 L354.33071 83.26772" />
    <path d="M283.46457 12.40157 L283.46457 154.13386" />
    <path d="M212.59843 97.44094 L354.33071 97.44094" />
    <path d="M297.6378 12.40157 L297.6378 154.13386" />
    <path d="M212.59843 111.61417 L354.33071 111.61417" />
    <path d="M311.81102 12.40157 L311.81102 154.13386" />
    <path d="M212.59843 125.7874 L354.33071 125.7874" />
    <path d="M325.98425 12.40157 L325.98425 154.13386" />
    <path d="M212.59843 139.96063 L354.33071 139.96063" />
    <path d="M340.15748 12.40157 L340.15748 154.13386" />
    <path d="M212.59843 154.13386 L354.33071 154.13386" />
    <path d="M354.33071 12.40157 L354.33071 154.13386" />
    <path d="M212.59843 189.56693 L354.33071 189.56693" />
    <path d="M212.59843 189.56693 L212.59843 331.29921" />
    <path d="M212.59843 203.74016 L354.33071 203.74016" />
    <path d="M226.77165 189.56693 L226.77165 331.29921" />
    <path d="M212.59843 217.91339 L354.33071 217.91339" />
    <path d="M240.94488 189.56693 L240.94488 331.29921" />
    <path d="M212.59843 232.08661 L354.33071 232.08661" />
    <path d="M255.11811 189.56693 L255.11811 331.29921" />
    <path d="M212.59843 246.25984 L354.33071 246.25984" />
    <path d="M269.29134 189.56693 L269.29134 331.29921" />
    <path d="M212.59843 260.43307 L354.33071 260.43307" />
    <path d="M283.46457 189.56693 L283.46457 331.29921" />
    <path d="M212.59843 274.6063 L354.33071 274.6063" />
    <path d="M297.6378 189.56693 L297.6378 331.29921" />
    <path d="M212.59843 288.77953 L354.33071 288.77953" />
    <path d="M311.81102 189.56693 L311.81102 331.29921" />
    <path d="M212.59843 302.95276 L354.33071 302.95276" />
    <path d="M325.98425 189.56693 L325.98425 331.29921" />
    <path d="M212.59843 317.12598 L354.33071 317.12598" />
    <path d="M340.15748 189.56693 L340.15748 331.29921" />
    <path d="M212.59843 331.29921 L354.33071 331.29921" />
    <path d="M354.33071 189.56693 L354.33071 331.29921" />
    <path d="M212.59843 366.73228 L354.33071 366.73228" />
    <path d="M212.59843 366.73228 L212.59843 508.46457" />
    <path d="M212.59843 380.90551 L354.33071 380.90551" />
    <path d="M226.77165 366.73228 L226.77165 508.46457" />
    <path d="M212.59843 395.07874 L354.33071 395.07874" />
    <path d="M240.94488 366.73228 L240.94488 508.46457" />
    <path d="M212.59843 409.25197 L354.33071 409.25197" />
    <path d="M255.11811 366.73228 L255.11811 508.46457" />
    <path d="M212.59843 423.4252 L354.33071 423.4252" />
    <path d="M269.29134 366.73228 L269.29134 508.46457" />
    <path d="M212.59843 437.59843 L354.33071 437.59843" />
    <path d="M283.46457 366.73228 L283.46457 508.46457" />
    <path d="M212.59843 451.77165 L354.33071 451.77165" />
    <path d="M297.6378 366.73228 L297.6378 508.46457" />
    <path d="M212.59843 465.94488 L354.33071 465.94488" />
    <path d="M311.81102 366.73228 L311.81102 508.46457" />
    <path d="M212.59843 480.11811 L354.33071 480.11811" />
    <path d="M325.98425 366.73228 L325.98425 508.46457" />
    <path d="M212.59843 494.29134 L354.33071 494.29134" />
    <path d="M340.15748 366.73228 L340.15748 508.46457" />
    <path d="M212.59843 508.46457 L354.33071 508.46457" />
    <path d="M354.33071 366.73228 L354.33071 508.46457" />
    <path d="M212.59843 543.89764 L354.33071 543.89764" />
    <path d="M212.59843 543.89764 L212.59843 685.62992" />
    <path d="M212.59843 558.07087 L354.33071 558.07087" />
    <path d="M226.77165 543.89764 L226.77165 685.62992" />
    <path d="M212.59843 572.24409 L354.33071 572.24409" />
    <path d="M240.94488 543.89764 L240.94488 685.62992" />
    <path d="M212.59843 586.41732 L354.33071 586.41732" />
    <path d="M255.11811 543.89764 L255.11811 685.62992" />
    <path d="M212.59843 600.59055 L354.33071 600.59055" />
    <path d="M269.29134 543.89764 L269.29134 685.62992" />
    <path d="M212.59843 614.76378 L354.33071 614.76378" />
    <path d="M283.46457 543.89764 L283.46457 685.62992" />
    <path d="M212.59843 628.93701 L354.33071 628.93701" />
    <path d="M297.6378 543.89764 L297.6378 685.62992" />
    <path d="M212.59843 643.11024 L354.33071 643.11024" />
    <path d="M311.81102 543.89764 L311.81102 685.62992" />
    <path d="M212.59843 657.28346 L354.33071 657.28346" />
    <path d="M325.98425 543.89764 L325.98425 685.62992" />
    <path d="M212.59843 671.45669 L354.33071 671.45669" />
    <path d="M340.15748 543.89764 L340.15748 685.62992" />
    <path d="M212.59843 685.62992 L354.33071 685.62992" />
    <path d="M354.33071 543.89764 L354.33071 685.62992" />
    <path d="M212.59843 721.06299 L354.33071 721.06299" />
    <path d="M212.59843 721.06299 L212.59843 862.79528" />
    <path d="M212.59843 735.23622 L354.33071 735.23622" />
    <path d="M226.77165 721.06299 L226.77165 862.79528" />
    <path d="M212.59843 749.40945 L354.33071 749.40945" />
    <path d="M240.94488 721.06299 L240.94488 862.79528" />
    <path d="M212.59843 763.58268 L354.33071 763.58268" />
    <path d="M255.11811 721.06299 L255.11811 862.79528" />
    <path d="M212.59843 777.75591 L354.33071 777.75591" />
    <path d="M269.29134 721.06299 L269.29134 862.79528" />
    <path d="M212.59843 791.92913 L354.33071 791.92913" />
    <path d="M283.46457 721.06299 L283.46457 862.79528" />
    <path d="M212.59843 806.10236 L354.33071 806.10236" />
    <path d="M297.6378 721.06299 L297.6378 862.79528" />
    <path d="M212.59843 820.27559 L354.33071 820.27559" />
    <path d="M311.81102 721.06299 L311.81102 862.79528" />
    <path d="M212.59843 834.44882 L354.33071 834.44882" />
    <path d="M325.98425 721.06299 L325.98425 862.79528" />
    <path d="M212.59843 848.62205 L354.33071 848.62205" />
    <path d="M340.15748 721.06299 L340.15748 862.79528" />
    <path d="M212.59843 862.79528 L354.33071 862.79528" />
    <path d="M354.33071 721.06299 L354.33071 862.79528" />
    <path d="M212.59843 898.22835 L354.33071 898.22835" />
    <path d="M212.59843 898.22835 L212.59843 1039.96063" />
    <path d="M212.59843 912.40157 L354.33071 912.40157" />
    <path d="M226.77165 898.22835 L226.77165 1039.96063" />
    <path d="M212.59843 926.5748 L354.33071 926.5748" />
    <path d="M240.94488 898.22835 L240.94488 1039.96063" />
    <path d="M212.59843 940.74803 L354.33071 940.74803" />
    <path d="M255.11811 898.22835 L255.11811 1039.96063" />
    <path d="M212.59843 954.92126 L354.33071 954.92126" />
    <path d="M269.29134 898.22835 L269.29134 1039.96063" />
    <path d="M212.59843 969.09449 L354.33071 969.09449" />
    <path d="M283.46457 898.22835 L283.46457 1039.96063" />
    <path d="M212.59843 983.26772 L354.33071 983.26772" />
    <path d="M297.6378 898.22835 L297.6378 1039.96063" />
    <path d="M212.59843 997.44094 L354.33071 997.44094" />
    <path d="M311.81102 898.22835 L311.81102 1039.96063" />
    <path d="M212.59843 1011.61417 L354.33071 1011.61417" />
    <path d="M325.98425 898.22835 L325.98425 1039.96063" />
    <path d="M212.59843 1025.7874 L354.33071 1025.7874" />
    <path d="M340.15748 898.22835 L340.15748 1039.96063" />
    <path d="M212.59843 1039.96063 L354.33071 1039.96063" />
    <path d="M354.33071 898.22835 L354.33071 1039.96063" />
    <path d="M389.76378 12.40157 L531.49606 12.40157" />
    <path d="M389.76378 12.40157 L389.76378 154.13386" />
    <path d="M389.76378 26.5748 L531.49606 26.5748" />
    <path d="M403.93701 12.40157 L403.93701 154.13386" />
    <path d="M389.76378 40.74803 L531.49606 40.74803" />
    <path d="M418.11024 12.40157 L418.11024 154.13386" />
    <path d="M389.76378 54.92126 L531.49606 54.92126" />
    <path d="M432.28346 12.40157 L432.28346 154.13386" />
    <path d="M389.76378 69.09449 L531.49606 69.09449" />
    <path d="M446.45669 12.40157 L446.45669 154.13386" />
    <path d="M389.76378 83.26772 L531.49606 83.26772" />
    <path d="M460.62992 12.40157 L460.62992 154.13386" />
    <path d="M389.76378 97.44094 L531.49606 97.44094" />
    <path d="M474.80315 12.40157 L474.80315 154.13386" />
    <path d="M389.76378 111.61417 L531.49606 111.61417" />
    <path d="M488.97638 12.40157 L488.97638 154.13386" />
    <path d="M389.76378 125.7874 L531.49606 125.7874" />
    <path d="M503.14961 12.40157 L503.14961 154.13386" />
    <path d="M389.76378 139.96063 L531.49606 139.96063" />
    <path d="M517.32283 12.40157 L517.32283 154.13386" />
    <path d="M389.76378 154.13386 L531.49606 154.13386" />
    <path d="M531.49606 12.40157 L531.49606 154.13386" />
    <path d="M389.76378 189.56693 L531.49606 189.56693" />
    <path d="M389.76378 189.56693 L389.76378 331.29921" />
    <path d="M389.76378 203.74016 L531.49606 203.74016" />
    <path d="M403.93701 189.56693 L403.93701 331.29921" />
    <path d="M389.76378 217.91339 L531.49606 217.91339" />
    <path d="M418.11024 189.56693 L418.11024 331.29921" />
    <path d="M389.76378 232.08661 L531.49606 232.08661" />
    <path d="M432.28346 189.56693 L432.28346 331.29921" />
    <path d="M389.76378 246.25984 L531.49606 246.25984" />
    <path d="M446.45669 189.56693 L446.45669 331.29921" />
    <path d="M389.76378 260.43307 L531.49606 260.43307" />
    <path d="M460.62992 189.56693 L460.62992 331.29921" />
    <path d="M389.76378 274.6063 L531.49606 274.6063" />
    <path d="M474.80315 189.56693 L474.80315 331.29921" />
    <path d="M389.76378 288.77953 L531.49606 288.77953" />
    <path d="M488.97638 189.56693 L488.97638 331.29921" />
    <path d="M389.76378 302.95276 L531.49606 302.95276" />
    <path d="M503.14961 189.56693 L503.14961 331.29921" />
    <path d="M389.76378 317.12598 L531.49606 317.12598" />
    <path d="M517.32283 189.56693 L517.32283 331.29921" />
    <path d="M389.76378 331.29921 L531.49606 331.29921" />
    <path d="M531.49606 189.56693 L531.49606 331.29921" />
    <path d="M389.76378 366.73228 L531.49606 366.73228" />
    <path d="M389.76378 366.73228 L389.76378 508.46457" />
    <path d="M389.76378 380.90551 L531.49606 380.90551" />
    <path d="M403.93701 366.73228 L403.93701 508.46457" />
    <path d="M389.76378 395.07874 L531.49606 395.07874" />
    <path d="M418.11024 366.73228 L418.11024 508.46457" />
    <path d="M389.76378 409.25197 L531.49606 409.25197" />
    <path d="M432.28346 366.73228 L432.28346 508.46457" />
    <path d="M389.76378 423.4252 L531.49606 423.4252" />
    <path d="M446.45669 366.73228 L446.45669 508.46457" />
    <path d="M389.76378 437.59843 L531.49606 437.59843" />
    <path d="M460.62992 366.73228 L460.62992 508.46457" />
    <path d="M389.76378 451.77165 L531.49606 451.77165" />
    <path d="M474.80315 366.73228 L474.80315 508.46457" />
    <path d="M389.76378 465.94488 L531.49606 465.94488" />
    <path d="M488.97638 366.73228 L488.97638 508.46457" />
    <path d="M389.76378 480.11811 L531.49606 480.11811" />
    <path d="M503.14961 366.73228 L503.14961 508.46457" />
    <path d="M389.76378 494.29134 L531.49606 494.29134" />
    <path d="M517.32283 366.73228 L517.32283 508.46457" />
    <path d="M389.76378 508.46457 L531.49606 508.46457" />
    <path d="M531.49606 366.73228 L531.49606 508.46457" />
    <path d="M389.76378 543.89764 L531.49606 543.89764" />
    <path d="M389.76378 543.89764 L389.76378 685.62992" />
    <path d="M389.76378 558.07087 L531.49606 558.07087" />
    <path d="M403.93701 543.89764 L403.93701 685.62992" />
    <path d="M389.76378 572.24409 L531.49606 572.24409" />
    <path d="M418.11024 543.89764 L418.11024 685.62992" />
    <path d="M389.76378 586.41732 L531.49606 586.41732" />
    <path d="M432.28346 543.89764 L432.28346 685.62992" />
    <path d="M389.76378 600.59055 L531.49606 600.59055" />
    <path d="M446.45669 543.89764 L446.45669 685.62992" />
    <path d="M389.76378 614.76378 L531.49606 614.76378" />
    <path d="M460.62992 543.89764 L460.62992 685.62992" />
    <path d="M389.76378 628.93701 L531.49606 628.93701" />
    <path d="M474.80315 543.89764 L474.80315 685.62992" />
    <path d="M389.76378 643.11024 L531.49606 643.11024" />
    <path d="M488.97638 543.89764 L488.97638 685.62992" />
    <path d="M389.76378 657.28346 L531.49606 657.28346" />
    <path d="M503.14961 543.89764 L503.14961 685.62992" />
    <path d="M389.76378 671.45669 L531.49606 671.45669" />
    <path d="M517.32283 543.89764 L517.32283 685.62992" />
    <path d="M389.76378 685.62992 L531.49606 685.62992" />
    <path d="M531.49606 543.89764 L531.49606 685.62992" />
    <path d="M389.76378 721.06299 L531.49606 721.06299" />
    <path d="M389.76378 721.06299 L389.76378 862.79528" />
    <path d="M389.76378 735.23622 L531.49606 735.23622" />
    <path d="M403.93701 721.06299 L403.93701 862.79528" />
    <path d="M389.76378 749.40945 L531.49606 749.40945" />
    <path d="M418.11024 721.06299 L418.11024 862.79528" />
    <path d="M389.76378 763.58268 L531.49606 763.58268" />
    <path d="M432.28346 721.06299 L432.28346 862.79528" />
    <path d="M389.76378 777.75591 L531.49606 777.75591" />
    <path d="M446.45669 721.06299 L446.45669 862.79528" />
    <path d="M389.76378 791.92913 L531.49606 791.92913" />
    <path d="M460.62992 721.06299 L460.62992 862.79528" />
    <path d="M389.76378 806.10236 L531.49606 806.10236" />
    <path d="M474.80315 721.06299 L474.80315 862.79528" />
    <path d="M389.76378 820.27559 L531.49606 820.27559" />
    <path d="M488.97638 721.06299 L488.97638 862.79528" />
    <path d="M389.76378 834.44882 L531.49606 834.44882" />
    <path d="M503.14961 721.06299 L503.14961 862.79528" />
    <path d="M389.76378 848.62205 L531.49606 848.62205" />
    <path d="M517.32283 721.06299 L517.32283 862.79528" />
    <path d="M389.76378 862.79528 L531.49606 862.79528" />
    <path d="M531.49606 721.06299 L531.49606 862.79528" />
    <path d="M389.76378 898.22835 L531.49606 898.22835" />
    <path d="M389.76378 898.22835 L389.76378 1039.96063" />
    <path d="M389.76378 912.40157 L531.49606 912.40157" />
    <path d="M403.93701 898.22835 L403.93701 1039.96063" />
    <path d="M389.76378 926.5748 L531.49606 926.5748" />
    <path d="M418.11024 898.22835 L418.11024 1039.96063" />
    <path d="M389.76378 940.74803 L531.49606 940.74803" />
    <path d="M432.28346 898.22835 L432.28346 1039.96063" />
    <path d="M389.76378 954.92126 L531.49606 954.92126" />
    <path d="M446.45669 898.22835 L446.45669 1039.96063" />
    <path d="M389.76378 969.09449 L531.49606 969.09449" />
    <path d="M460.62992 898.22835 L460.62992 1039.96063" />
    <path d="M389.76378 983.26772 L531.49606 983.26772" />
    <path d="M474.80315 898.22835 L474.80315 1039.96063" />
    <path d="M389.76378 997.44094 L531.49606 997.44094" />
    <path d="M488.97638 898.22835 L488.97638 1039.96063" />
    <path d="M389.76378 1011.61417 L531.49606 1011.61417" />
    <path d="M503.14961 898.22835 L503.14961 1039.96063" />
    <path d="M389.76378 1025.7874 L531.49606 1025.7874" />
    <path d="M517.32283 898.22835 L517.32283 1039.96063" />
    <path d="M389.76378 1039.96063 L531.49606 1039.96063" />
    <path d="M531.49606 898.22835 L531.49606 1039.96063" />
    <path d="M566.92913 12.40157 L708.66142 12.40157" />
    <path d="M566.92913 12.40157 L566.92913 154.13386" />
    <path d="M566.92913 26.5748 L708.66142 26.5748" />
    <path d="M581.10236 12.40157 L581.10236 154.13386" />
    <path d="M566.92913 40.74803 L708.66142 40.74803" />
    <path d="M595.27559 12.40157 L595.27559 154.13386" />
    <path d="M566.92913 54.92126 L708.66142 54.92126" />
    <path d="M609.44882 12.40157 L609.44882 154.13386" />
    <path d="M566.92913 69.09449 L708.66142 69.09449" />
    <path d="M623.62205 12.40157 L623.62205 154.13386" />
    <path d="M566.92913 83.26772 L708.66142 83.26772" />
    <path d="M637.79528 12.40157 L637.79528 154.13386" />
    <path d="M566.92913 97.44094 L708.66142 97.44094" />
    <path d="M651.9685 12.40157 L651.9685 154.13386" />
    <path d="M566.92913 111.61417 L708.66142 111.61417" />
    <path d="M666.14173 12.40157 L666.14173 154.13386" />
    <path d="M566.92913 125.7874 L708.66142 125.7874" />
    <path d="M680.31496 12.40157 L680.31496 154.13386" />
    <path d="M566.92913 139.96063 L708.66142 139.96063" />
    <path d="M694.48819 12.40157 L694.48819 154.13386" />
    <path d="M566.92913 154.13386 L708.66142 154.13386" />
    <path d="M708.66142 12.40157 L708.66142 154.13386" />
    <path d="M566.92913 189.56693 L708.66142 189.56693" />
    <path d="M566.92913 189.56693 L566.92913 331.29921" />
    <path d="M566.92913 203.74016 L708.66142 203.74016" />
    <path d="M581.10236 189.56693 L581.10236 331.29921" />
    <path d="M566.92913 217.91339 L708.66142 217.91339" />
    <path d="M595.27559 189.56693 L595.27559 331.29921" />
    <path d="M566.92913 232.08661 L708.66142 232.08661" />
    <path d="M609.44882 189.56693 L609.44882 331.29921" />
    <path d="M566.92913 246.25984 L708.66142 246.25984" />
    <path d="M623.62205 189.56693 L623.62205 331.29921" />
    <path d="M566.92913 260.43307 L708.66142 260.43307" />
    <path d="M637.79528 189.56693 L637.79528 331.29921" />
    <path d="M566.92913 274.6063 L708.66142 274.6063" />
    <path d="M651.9685 189.56693 L651.9685 331.29921" />
    <path d="M566.92913 288.77953 L708.66142 288.77953" />
    <path d="M666.14173 189.56693 L666.14173 331.29921" />
    <path d="M566.92913 302.95276 L708.66142 302.95276" />
    <path d="M680.31496 189.56693 L680.31496 331.29921" />
    <path d="M566.92913 317.12598 L708.66142 317.12598" />
    <path d="M694.48819 189.56693 L694.48819 331.29921" />
    <path d="M566.92913 331.29921 L708.66142 331.29921" />
    <path d="M708.66142 189.56693 L708.66142 331.29921" />
    <path d="M566.92913 366.73228 L708.66142 366.73228" />
    <path d="M566.92913 366.73228 L566.92913 508.46457" />
    <path d="M566.92913 380.90551 L708.66142 380.90551" />
    <path d="M581.10236 366.73228 L581.10236 508.46457" />
    <path d="M566.92913 395.07874 L708.66142 395.07874" />
    <path d="M595.27559 366.73228 L595.27559 508.46457" />
    <path d="M566.92913 409.25197 L708.66142 409.25197" />
    <path d="M609.44882 366.73228 L609.44882 508.46457" />
    <path d="M566.92913 423.4252 L708.66142 423.4252" />
    <path d="M623.62205 366.73228 L623.62205 508.46457" />
    <path d="M566.92913 437.59843 L708.66142 437.59843" />
    <path d="M637.79528 366.73228 L637.79528 508.46457" />
    <path d="M566.92913 451.77165 L708.66142 451.77165" />
    <path d="M651.9685 366.73228 L651.9685 508.46457" />
    <path d="M566.92913 465.94488 L708.66142 465.94488" />
    <path d="M666.14173 366.73228 L666.14173 508.46457" />
    <path d="M566.92913 480.11811 L708.66142 480.11811" />
    <path d="M680.31496 366.73228 L680.31496 508.46457" />
    <path d="M566.92913 494.29134 L708.66142 494.29134" />
    <path d="M694.48819 366.73228 L694.48819 508.46457" />
    <path d="M566.92913 508.46457 L708.66142 508.46457" />
    <path d="M708.66142 366.73228 L708.66142 508.46457" />
    <path d="M566.92913 543.89764 L708.66142 543.89764" />
    <path d="M566.92913 543.89764 L566.92913 685.62992" />
    <path d="M566.92913 558.07087 L708.66142 558.07087" />
    <path d="M581.10236 543.89764 L581.10236 685.62992" />
    <path d="M566.92913 572.24409 L708.66142 572.24409" />
    <path d="M595.27559 543.89764 L595.27559 685.62992" />
    <path d="M566.92913 586.41732 L708.66142 586.41732" />
    <path d="M609.44882 543.89764 L609.44882 685.62992" />
    <path d="M566.92913 600.59055 L708.66142 600.59055" />
    <path d="M623.62205 543.89764 L623.62205 685.62992" />
    <path d="M566.92913 614.76378 L708.66142 614.76378" />
    <path d="M637.79528 543.89764 L637.79528 685.62992" />
    <path d="M566.92913 628.93701 L708.66142 628.93701" />
    <path d="M651.9685 543.89764 L651.9685 685.62992" />
    <path d="M566.92913 643.11024 L708.66142 643.11024" />
    <path d="M666.14173 543.89764 L666.14173 685.62992" />
    <path d="M566.92913 657.28346 L708.66142 657.28346" />
    <path d="M680.31496 543.89764 L680.31496 685.62992" />
    <path d="M566.92913 671.45669 L708.66142 671.45669" />
    <path d="M694.48819 543.89764 L694.48819 685.62992" />
    <path d="M566.92913 685.62992 L708.66142 685.62992" />
    <path d="M708.66142 543.89764 L708.66142 685.62992" />
    <path d="M566.92913 721.06299 L708.66142 721.06299" />
    <path d="M566.92913 721.06299 L566.92913 862.79528" />
    <path d="M566.92913 735.23622 L708.66142 735.23622" />
    <path d="M581.10236 721.06299 L581.10236 862.79528" />
    <path d="M566.92913 749.40945 L708.66142 749.40945" />
    <path d="M595.27559 721.06299 L595.27559 862.79528" />
    <path d="M566.92913 763.58268 L708.66142 763.58268" />
    <path d="M609.44882 721.06299 L609.44882 862.79528" />
    <path d="M566.92913 777.75591 L708.66142 777.75591" />
    <path d="M623.62205 721.06299 L623.62205 862.79528" />
    <path d="M566.92913 791.92913 L708.66142 791.92913" />
    <path d="M637.79528 721.06299 L637.79528 862.79528" />
    <path d="M566.92913 806.10236 L708.66142 806.10236" />
    <path d="M651.9685 721.06299 L651.9685 862.79528" />
    <path d="M566.92913 820.27559 L708.66142 820.27559" />
    <path d="M666.14173 721.06299 L666.14173 862.79528" />
    <path d="M566.92913 834.44882 L708.66142 834.44882" />
    <path d="M680.31496 721.06299 L680.31496 862.79528" />
    <path d="M566.92913 848.62205 L708.66142 848.62205" />
    <path d="M694.48819 721.06299 L694.48819 862.79528" />
    <path d="M566.92913 862.79528 L708.66142 862.79528" />
    <path d="M708.66142 721.06299 L708.66142 862.79528" />
    <path d="M566.92913 898.22835 L708.66142 898.22835" />
    <path d="M566.92913 898.22835 L566.92913 1039.96063" />
    <path d="M566.92913 912.40157 L708.66142 912.40157" />
    <path d="M581.10236 898.22835 L581.10236 1039.96063" />
    <path d="M566.92913 926.5748 L708.66142 926.5748" />
    <path d="M595.27559 898.22835 L595.27559 1039.96063" />
    <path d="M566.92913 940.74803 L708.66142 940.74803" />
    <path d="M609.44882 898.22835 L609.44882 1039.96063" />
    <path d="M566.92913 954.92126 L708.66142 954.92126" />
    <path d="M623.62205 898.22835 L623.62205 1039.96063" />
    <path d="M566.92913 969.09449 L708.66142 969.09449" />
    <path d="M637.79528 898.22835 L637.79528 1039.96063" />
    <path d="M566.92913 983.26772 L708.66142 983.26772" />
    <path d="M651.9685 898.22835 L651.9685 1039.96063" />
    <path d="M566.92913 997.44094 L708.66142 997.44094" />
    <path d="M666.14173 898.22835 L666.14173 1039.96063" />
    <path d="M566.92913 1011.61417 L708.66142 1011.61417" />
    <path d="M680.31496 898.22835 L680.31496 1039.96063" />
    <path d="M566.92913 1025.7874 L708.66142 1025.7874" />
    <path d="M694.48819 898.22835 L694.48819 1039.96063" />
    <path d="M566.92913 1039.96063 L708.66142 1039.96063" />
    <path d="M708.66142 898.22835 L708.66142 1039.96063" />
  </g>
</svg>