<?xml version="1.0" standalone="no"?>
<!DOCTYPE svg PUBLIC "-//W3C//DTD SVG 1.1//EN" 
    "http://www.w3.org/Graphics/SVG/1.1/DTD/svg11.dtd">
<svg width="21cm" height="29.7cm"
    xmlns="http://www.w3.org/2000/svg" version="1.1" viewBox="0 0 744.09449 1052.3622">
  <g fill="none" stroke="black" stroke-width="0.03cm">
    <path d="M35.43307 36.86951 L40.1196 35.43307 L40.1196 35.43307 L35.43307 36.86951 L35.43307 36.86951" />
    <path d="M35.43307 44.28153 L64.30199 35.43307 L64.30199 35.43307 L35.43307 44.28153 L35.43307 44.28153" />
    <path d="M35.43307 51.69355 L70.86614 40.83315 L70.86614 40.83315 L35.43307 51.69355 L35.43307 51.69355" />
    <path d="M35.43307 59.10557 L70.86614 48.24517 L70.86614 48.24517 L35.43307 59.10557 L35.43307 59.10557" />
    <path d="M35.43307 66.51759 L70.86614 55.65719 L70.86614 55.65719 L35.43307 66.51759 L35.43307 66.51759" />
    <path d="M45.42792 70.86614 L70.86614 63.06921 L70.86614 63.06921 L45.42792 70.86614 L45.42792 70.86614" />
    <path d="M69.61032 70.86614 L70.86614 70.48123 L70.86614 70.48123 L69.61032 70.86614 L69.61032 70.86614" />
    <path d="M35.43307 35.43307 L35.53472 35.43307 L36.30895 35.43307 L37.75793 35.43307 L39.77786 35.43307 L43.65119 35.43307 L49.84506 35.43307 L56.45416 35.43307 L62.64802 35.43307 L66.52135 35.43307 L68.54128 35.43307 L69.99026 35.43307 L70.7645 35.43307 L70.86614 35.43307 L70.86614 35.43307 L70.86614 35.53472 L70.86614 36.30895 L70.86614 37.75793 L70.86614 39.77786 L70.86614 43.65119 L70.86614 49.84506 L70.86614 56.45416 L70.86614 62.64802 L70.86614 66.52135 L70.86614 68.54128 L70.86614 69.99026 L70.86614 70.7645 L70.86614 70.86614 L70.86614 70.86614 L70.7645 70.86614 L69.99026 70.86614 L68.54128 70.86614 L66.52135 70.86614 L62.64802 70.86614 L56.45416 70.86614 L49.84506 70.86614 L43.65119 70.86614 L39.77786 70.86614 L37.75793 70.86614 L36.30895 70.86614 L35.53472 70.86614 L35.43307 70.86614 L35.43307 70.86614 L35.43307 70.7645 L35.43307 69.99026 L35.43307 68.54128 L35.43307 66.52135 L35.43307 62.64802 L35.43307 56.45416 L35.43307 49.84506 L35.43307 43.65119 L35.43307 39.77786 L35.43307 37.75793 L35.43307 36.30895 L35.43307 35.53472 L35.43307 35.43307" />
    <path d="M37.31373 106.29921 L35.43307 99.78888 L35.43307 99.78888 L37.31373 106.29921 L37.31373 106.29921" />
    <path d="M44.6901 106.29921 L35.43307 74.2539 L35.43307 74.2539 L44.6901 106.29921 L44.6901 106.29921" />
    <path d="M52.06647 106.29921 L41.83081 70.86614 L41.83081 70.86614 L52.06647 106.29921 L52.06647 106.29921" />
    <path d="M59.44284 106.29921 L49.20718 70.86614 L49.20718 70.86614 L59.44284 106.29921 L59.44284 106.29921" />
    <path d="M66.81922 106.29921 L56.58355 70.86614 L56.58355 70.86614 L66.81922 106.29921 L66.81922 106.29921" />
    <path d="M70.86614 94.77358 L63.95992 70.86614 L63.95992 70.86614 L70.86614 94.77358 L70.86614 94.77358" />
    <path d="M35.43307 70.86614 L35.53472 70.86614 L36.30895 70.86614 L37.75793 70.86614 L39.77786 70.86614 L43.65119 70.86614 L49.84506 70.86614 L56.45416 70.86614 L62.64802 70.86614 L66.52135 70.86614 L68.54128 70.86614 L69.99026 70.86614 L70.7645 70.86614 L70.86614 70.86614 L70.86614 70.86614 L70.86614 70.96779 L70.86614 71.74202 L70.86614 73.191 L70.86614 75.21093 L70.86614 79.08426 L70.86614 85.27813 L70.86614 91.88723 L70.86614 98.08109 L70.86614 101.95442 L70.86614 103.97435 L70.86614 105.42333 L70.86614 106.19757 L70.86614 106.29921 L70.86614 106.29921 L70.7645 106.29921 L69.99026 106.29921 L68.54128 106.29921 L66.52135 106.29921 L62.64802 106.29921 L56.45416 106.29921 L49.84506 106.29921 L43.65119 106.29921 L39.77786 106.29921 L37.75793 106.29921 L36.30895 106.29921 L35.53472 106.29921 L35.43307 106.29921 L35.43307 106.29921 L35.43307 106.19757 L35.43307 105.42333 L35.43307 103.97435 L35.43307 101.95442 L35.43307 98.08109 L35.43307 91.88723 L35.43307 85.27813 L35.43307 79.08426 L35.43307 75.21093 L35.43307 73.191 L35.43307 71.74202 L35.43307 70.96779 L35.43307 70.86614" />
    <path d="M35.43307 108.17873 L36.93612 106.29921 L36.93612 106.29921 L35.43307 108.17873 L35.43307 108.17873" />
    <path d="M35.43307 119.52545 L46.01008 106.29921 L46.01008 106.29921 L35.43307 119.52545 L35.43307 119.52545" />
    <path d="M35.43307 130.87217 L55.08405 106.29921 L55.08405 106.29921 L35.43307 130.87217 L35.43307 130.87217" />
    <path d="M35.82221 141.73228 L64.15801 106.29921 L64.15801 106.29921 L35.82221 141.73228 L35.82221 141.73228" />
    <path d="M44.89617 141.73228 L70.86614 109.25761 L70.86614 109.25761 L44.89617 141.73228 L44.89617 141.73228" />
    <path d="M53.97014 141.73228 L70.86614 120.60433 L70.86614 120.60433 L53.97014 141.73228 L53.97014 141.73228" />
    <path d="M63.0441 141.73228 L70.86614 131.95105 L70.86614 131.95105 L63.0441 141.73228 L63.0441 141.73228" />
    <path d="M35.43307 106.29921 L35.53472 106.29921 L36.30895 106.29921 L37.75793 106.29921 L39.77786 106.29921 L43.65119 106.29921 L49.84506 106.29921 L56.45416 106.29921 L62.64802 106.29921 L66.52135 106.29921 L68.54128 106.29921 L69.99026 106.29921 L70.7645 106.29921 L70.86614 106.29921 L70.86614 106.29921 L70.86614 106.40086 L70.86614 107.17509 L70.86614 108.62408 L70.86614 110.644 L70.86614 114.51733 L70.86614 120.7112 L70.86614 127.3203 L70.86614 133.51416 L70.86614 137.38749 L70.86614 139.40742 L70.86614 140.8564 L70.86614 141.63064 L70.86614 141.73228 L70.86614 141.73228 L70.7645 141.73228 L69.99026 141.73228 L68.54128 141.73228 L66.52135 141.73228 L62.64802 141.73228 L56.45416 141.73228 L49.84506 141.73228 L43.65119 141.73228 L39.77786 141.73228 L37.75793 141.73228 L36.30895 141.73228 L35.53472 141.73228 L35.43307 141.73228 L35.43307 141.73228 L35.43307 141.63064 L35.43307 140.8564 L35.43307 139.40742 L35.43307 137.38749 L35.43307 133.51416 L35.43307 127.3203 L35.43307 120.7112 L35.43307 114.51733 L35.43307 110.644 L35.43307 108.62408 L35.43307 107.17509 L35.43307 106.40086 L35.43307 106.29921" />
    <path d="M37.30331 177.16535 L35.43307 173.73027 L35.43307 173.73027 L37.30331 177.16535 L37.30331 177.16535" />
    <path d="M45.37219 177.16535 L35.43307 158.9101 L35.43307 158.9101 L45.37219 177.16535 L45.37219 177.16535" />
    <path d="M53.44107 177.16535 L35.43307 144.08993 L35.43307 144.08993 L53.44107 177.16535 L53.44107 177.16535" />
    <path d="M61.50994 177.16535 L42.21832 141.73228 L42.21832 141.73228 L61.50994 177.16535 L61.50994 177.16535" />
    <path d="M69.57882 177.16535 L50.2872 141.73228 L50.2872 141.73228 L69.57882 177.16535 L69.57882 177.16535" />
    <path d="M70.86614 164.70962 L58.35607 141.73228 L58.35607 141.73228 L70.86614 164.70962 L70.86614 164.70962" />
    <path d="M70.86614 149.88945 L66.42495 141.73228 L66.42495 141.73228 L70.86614 149.88945 L70.86614 149.88945" />
    <path d="M35.43307 141.73228 L35.53472 141.73228 L36.30895 141.73228 L37.75793 141.73228 L39.77786 141.73228 L43.65119 141.73228 L49.84506 141.73228 L56.45416 141.73228 L62.64802 141.73228 L66.52135 141.73228 L68.54128 141.73228 L69.99026 141.73228 L70.7645 141.73228 L70.86614 141.73228 L70.86614 141.73228 L70.86614 141.83393 L70.86614 142.60816 L70.86614 144.05715 L70.86614 146.07707 L70.86614 149.9504 L70.86614 156.14427 L70.86614 162.75337 L70.86614 168.94723 L70.86614 172.82056 L70.86614 174.84049 L70.86614 176.28948 L70.86614 177.06371 L70.86614 177.16535 L70.86614 177.16535 L70.7645 177.16535 L69.99026 177.16535 L68.54128 177.16535 L66.52135 177.16535 L62.64802 177.16535 L56.45416 177.16535 L49.84506 177.16535 L43.65119 177.16535 L39.77786 177.16535 L37.75793 177.16535 L36.30895 177.16535 L35.53472 177.16535 L35.43307 177.16535 L35.43307 177.16535 L35.43307 177.06371 L35.43307 176.28948 L35.43307 174.84049 L35.43307 172.82056 L35.43307 168.94723 L35.43307 162.75337 L35.43307 156.14427 L35.43307 149.9504 L35.43307 146.07707 L35.43307 144.05715 L35.43307 142.60816 L35.43307 141.83393 L35.43307 141.73228" />
    <path d="M63.70345 177.16535 L70.86614 183.14254 L70.86614 183.14254 L63.70345 177.16535 L63.70345 177.16535" />
    <path d="M52.64284 177.16535 L70.86614 192.37248 L70.86614 192.37248 L52.64284 177.16535 L52.64284 177.16535" />
    <path d="M41.58223 177.16535 L70.86614 201.60243 L70.86614 201.60243 L41.58223 177.16535 L41.58223 177.16535" />
    <path d="M35.43307 181.2639 L70.86614 210.83237 L70.86614 210.83237 L35.43307 181.2639 L35.43307 181.2639" />
    <path d="M35.43307 190.49384 L61.92186 212.59843 L61.92186 212.59843 L35.43307 190.49384 L35.43307 190.49384" />
    <path d="M35.43307 199.72379 L50.86126 212.59843 L50.86126 212.59843 L35.43307 199.72379 L35.43307 199.72379" />
    <path d="M35.43307 208.95373 L39.80065 212.59843 L39.80065 212.59843 L35.43307 208.95373 L35.43307 208.95373" />
    <path d="M35.43307 177.16535 L35.53472 177.16535 L36.30895 177.16535 L37.75793 177.16535 L39.77786 177.16535 L43.65119 177.16535 L49.84506 177.16535 L56.45416 177.16535 L62.64802 177.16535 L66.52135 177.16535 L68.54128 177.16535 L69.99026 177.16535 L70.7645 177.16535 L70.86614 177.16535 L70.86614 177.16535 L70.86614 177.267 L70.86614 178.04123 L70.86614 179.49022 L70.86614 181.51014 L70.86614 185.38347 L70.86614 191.57734 L70.86614 198.18644 L70.86614 204.38031 L70.86614 208.25364 L70.86614 210.27356 L70.86614 211.72255 L70.86614 212.49678 L70.86614 212.59843 L70.86614 212.59843 L70.7645 212.59843 L69.99026 212.59843 L68.54128 212.59843 L66.52135 212.59843 L62.64802 212.59843 L56.45416 212.59843 L49.84506 212.59843 L43.65119 212.59843 L39.77786 212.59843 L37.75793 212.59843 L36.30895 212.59843 L35.53472 212.59843 L35.43307 212.59843 L35.43307 212.59843 L35.43307 212.49678 L35.43307 211.72255 L35.43307 210.27356 L35.43307 208.25364 L35.43307 204.38031 L35.43307 198.18644 L35.43307 191.57734 L35.43307 185.38347 L35.43307 181.51014 L35.43307 179.49022 L35.43307 178.04123 L35.43307 177.267 L35.43307 177.16535" />
    <path d="M35.43307 214.14122 L39.12751 212.59843 L39.12751 212.59843 L35.43307 214.14122 L35.43307 214.14122" />
    <path d="M35.43307 221.82092 L57.51769 212.59843 L57.51769 212.59843 L35.43307 221.82092 L35.43307 221.82092" />
    <path d="M35.43307 229.50063 L70.86614 214.70384 L70.86614 214.70384 L35.43307 229.50063 L35.43307 229.50063" />
    <path d="M35.43307 237.18034 L70.86614 222.38355 L70.86614 222.38355 L35.43307 237.18034 L35.43307 237.18034" />
    <path d="M35.43307 244.86004 L70.86614 230.06326 L70.86614 230.06326 L35.43307 244.86004 L35.43307 244.86004" />
    <path d="M46.22875 248.0315 L70.86614 237.74296 L70.86614 237.74296 L46.22875 248.0315 L46.22875 248.0315" />
    <path d="M64.61893 248.0315 L70.86614 245.42267 L70.86614 245.42267 L64.61893 248.0315 L64.61893 248.0315" />
    <path d="M35.43307 212.59843 L35.53472 212.59843 L36.30895 212.59843 L37.75793 212.59843 L39.77786 212.59843 L43.65119 212.59843 L49.84506 212.59843 L56.45416 212.59843 L62.64802 212.59843 L66.52135 212.59843 L68.54128 212.59843 L69.99026 212.59843 L70.7645 212.59843 L70.86614 212.59843 L70.86614 212.59843 L70.86614 212.70007 L70.86614 213.4743 L70.86614 214.92329 L70.86614 216.94322 L70.86614 220.81654 L70.86614 227.01041 L70.86614 233.61951 L70.86614 239.81338 L70.86614 243.68671 L70.86614 245.70663 L70.86614 247.15562 L70.86614 247.92985 L70.86614 248.0315 L70.86614 248.0315 L70.7645 248.0315 L69.99026 248.0315 L68.54128 248.0315 L66.52135 248.0315 L62.64802 248.0315 L56.45416 248.0315 L49.84506 248.0315 L43.65119 248.0315 L39.77786 248.0315 L37.75793 248.0315 L36.30895 248.0315 L35.53472 248.0315 L35.43307 248.0315 L35.43307 248.0315 L35.43307 247.92985 L35.43307 247.15562 L35.43307 245.70663 L35.43307 243.68671 L35.43307 239.81338 L35.43307 233.61951 L35.43307 227.01041 L35.43307 220.81654 L35.43307 216.94322 L35.43307 214.92329 L35.43307 213.4743 L35.43307 212.70007 L35.43307 212.59843" />
    <path d="M64.04954 248.0315 L70.86614 249.39882 L70.86614 249.39882 L64.04954 248.0315 L64.04954 248.0315" />
    <path d="M35.43307 249.51915 L70.86614 256.6266 L70.86614 256.6266 L35.43307 249.51915 L35.43307 249.51915" />
    <path d="M35.43307 256.74692 L70.86614 263.85437 L70.86614 263.85437 L35.43307 256.74692 L35.43307 256.74692" />
    <path d="M35.43307 263.9747 L70.86614 271.08215 L70.86614 271.08215 L35.43307 263.9747 L35.43307 263.9747" />
    <path d="M35.43307 271.20247 L70.86614 278.30993 L70.86614 278.30993 L35.43307 271.20247 L35.43307 271.20247" />
    <path d="M35.43307 278.43025 L60.53086 283.46457 L60.53086 283.46457 L35.43307 278.43025 L35.43307 278.43025" />
    <path d="M35.43307 248.0315 L35.53472 248.0315 L36.30895 248.0315 L37.75793 248.0315 L39.77786 248.0315 L43.65119 248.0315 L49.84506 248.0315 L56.45416 248.0315 L62.64802 248.0315 L66.52135 248.0315 L68.54128 248.0315 L69.99026 248.0315 L70.7645 248.0315 L70.86614 248.0315 L70.86614 248.0315 L70.86614 248.13314 L70.86614 248.90737 L70.86614 250.35636 L70.86614 252.37629 L70.86614 256.24962 L70.86614 262.44348 L70.86614 269.05258 L70.86614 275.24645 L70.86614 279.11978 L70.86614 281.1397 L70.86614 282.58869 L70.86614 283.36292 L70.86614 283.46457 L70.86614 283.46457 L70.7645 283.46457 L69.99026 283.46457 L68.54128 283.46457 L66.52135 283.46457 L62.64802 283.46457 L56.45416 283.46457 L49.84506 283.46457 L43.65119 283.46457 L39.77786 283.46457 L37.75793 283.46457 L36.30895 283.46457 L35.53472 283.46457 L35.43307 283.46457 L35.43307 283.46457 L35.43307 283.36292 L35.43307 282.58869 L35.43307 281.1397 L35.43307 279.11978 L35.43307 275.24645 L35.43307 269.05258 L35.43307 262.44348 L35.43307 256.24962 L35.43307 252.37629 L35.43307 250.35636 L35.43307 248.90737 L35.43307 248.13314 L35.43307 248.0315" />
    <path d="M106.29921 69.70303 L99.87465 70.86614 L99.87465 70.86614 L106.29921 69.70303 L106.29921 69.70303" />
    <path d="M106.29921 62.50121 L70.86614 68.91609 L70.86614 68.91609 L106.29921 62.50121 L106.29921 62.50121" />
    <path d="M106.29921 55.2994 L70.86614 61.71427 L70.86614 61.71427 L106.29921 55.2994 L106.29921 55.2994" />
    <path d="M106.29921 48.09759 L70.86614 54.51246 L70.86614 54.51246 L106.29921 48.09759 L106.29921 48.09759" />
    <path d="M106.29921 40.89577 L70.86614 47.31064 L70.86614 47.31064 L106.29921 40.89577 L106.29921 40.89577" />
    <path d="M96.69308 35.43307 L70.86614 40.10883 L70.86614 40.10883 L96.69308 35.43307 L96.69308 35.43307" />
    <path d="M70.86614 35.43307 L70.96779 35.43307 L71.74202 35.43307 L73.191 35.43307 L75.21093 35.43307 L79.08426 35.43307 L85.27813 35.43307 L91.88723 35.43307 L98.08109 35.43307 L101.95442 35.43307 L103.97435 35.43307 L105.42333 35.43307 L106.19757 35.43307 L106.29921 35.43307 L106.29921 35.43307 L106.29921 35.53472 L106.29921 36.30895 L106.29921 37.75793 L106.29921 39.77786 L106.29921 43.65119 L106.29921 49.84506 L106.29921 56.45416 L106.29921 62.64802 L106.29921 66.52135 L106.29921 68.54128 L106.29921 69.99026 L106.29921 70.7645 L106.29921 70.86614 L106.29921 70.86614 L106.19757 70.86614 L105.42333 70.86614 L103.97435 70.86614 L101.95442 70.86614 L98.08109 70.86614 L91.88723 70.86614 L85.27813 70.86614 L79.08426 70.86614 L75.21093 70.86614 L73.191 70.86614 L71.74202 70.86614 L70.96779 70.86614 L70.86614 70.86614 L70.86614 70.86614 L70.86614 70.7645 L70.86614 69.99026 L70.86614 68.54128 L70.86614 66.52135 L70.86614 62.64802 L70.86614 56.45416 L70.86614 49.84506 L70.86614 43.65119 L70.86614 39.77786 L70.86614 37.75793 L70.86614 36.30895 L70.86614 35.53472 L70.86614 35.43307" />
    <path d="M76.97627 106.29921 L70.86614 83.42627 L70.86614 83.42627 L76.97627 106.29921 L76.97627 106.29921" />
    <path d="M84.31138 106.29921 L74.84602 70.86614 L74.84602 70.86614 L84.31138 106.29921 L84.31138 106.29921" />
    <path d="M91.64648 106.29921 L82.18113 70.86614 L82.18113 70.86614 L91.64648 106.29921 L91.64648 106.29921" />
    <path d="M98.98159 106.29921 L89.51624 70.86614 L89.51624 70.86614 L98.98159 106.29921 L98.98159 106.29921" />
    <path d="M106.29921 106.23374 L96.85135 70.86614 L96.85135 70.86614 L106.29921 106.23374 L106.29921 106.23374" />
    <path d="M106.29921 78.77514 L104.18645 70.86614 L104.18645 70.86614 L106.29921 78.77514 L106.29921 78.77514" />
    <path d="M70.86614 70.86614 L70.96779 70.86614 L71.74202 70.86614 L73.191 70.86614 L75.21093 70.86614 L79.08426 70.86614 L85.27813 70.86614 L91.88723 70.86614 L98.08109 70.86614 L101.95442 70.86614 L103.97435 70.86614 L105.42333 70.86614 L106.19757 70.86614 L106.29921 70.86614 L106.29921 70.86614 L106.29921 70.96779 L106.29921 71.74202 L106.29921 73.191 L106.29921 75.21093 L106.29921 79.08426 L106.29921 85.27813 L106.29921 91.88723 L106.29921 98.08109 L106.29921 101.95442 L106.29921 103.97435 L106.29921 105.42333 L106.29921 106.19757 L106.29921 106.29921 L106.29921 106.29921 L106.19757 106.29921 L105.42333 106.29921 L103.97435 106.29921 L101.95442 106.29921 L98.08109 106.29921 L91.88723 106.29921 L85.27813 106.29921 L79.08426 106.29921 L75.21093 106.29921 L73.191 106.29921 L71.74202 106.29921 L70.96779 106.29921 L70.86614 106.29921 L70.86614 106.29921 L70.86614 106.19757 L70.86614 105.42333 L70.86614 103.97435 L70.86614 101.95442 L70.86614 98.08109 L70.86614 91.88723 L70.86614 85.27813 L70.86614 79.08426 L70.86614 75.21093 L70.86614 73.191 L70.86614 71.74202 L70.86614 70.96779 L70.86614 70.86614" />
    <path d="M70.86614 108.276 L72.43277 106.29921 L72.43277 106.29921 L70.86614 108.276 L70.86614 108.276" />
    <path d="M70.86614 119.68559 L81.47501 106.29921 L81.47501 106.29921 L70.86614 119.68559 L70.86614 119.68559" />
    <path d="M70.86614 131.09518 L90.51725 106.29921 L90.51725 106.29921 L70.86614 131.09518 L70.86614 131.09518" />
    <path d="M71.47835 141.73228 L99.55949 106.29921 L99.55949 106.29921 L71.47835 141.73228 L71.47835 141.73228" />
    <path d="M80.52059 141.73228 L106.29921 109.20455 L106.29921 109.20455 L80.52059 141.73228 L80.52059 141.73228" />
    <path d="M89.56283 141.73228 L106.29921 120.61415 L106.29921 120.61415 L89.56283 141.73228 L89.56283 141.73228" />
    <path d="M98.60507 141.73228 L106.29921 132.02374 L106.29921 132.02374 L98.60507 141.73228 L98.60507 141.73228" />
    <path d="M70.86614 106.29921 L70.96779 106.29921 L71.74202 106.29921 L73.191 106.29921 L75.21093 106.29921 L79.08426 106.29921 L85.27813 106.29921 L91.88723 106.29921 L98.08109 106.29921 L101.95442 106.29921 L103.97435 106.29921 L105.42333 106.29921 L106.19757 106.29921 L106.29921 106.29921 L106.29921 106.29921 L106.29921 106.40086 L106.29921 107.17509 L106.29921 108.62408 L106.29921 110.644 L106.29921 114.51733 L106.29921 120.7112 L106.29921 127.3203 L106.29921 133.51416 L106.29921 137.38749 L106.29921 139.40742 L106.29921 140.8564 L106.29921 141.63064 L106.29921 141.73228 L106.29921 141.73228 L106.19757 141.73228 L105.42333 141.73228 L103.97435 141.73228 L101.95442 141.73228 L98.08109 141.73228 L91.88723 141.73228 L85.27813 141.73228 L79.08426 141.73228 L75.21093 141.73228 L73.191 141.73228 L71.74202 141.73228 L70.96779 141.73228 L70.86614 141.73228 L70.86614 141.73228 L70.86614 141.63064 L70.86614 140.8564 L70.86614 139.40742 L70.86614 137.38749 L70.86614 133.51416 L70.86614 127.3203 L70.86614 120.7112 L70.86614 114.51733 L70.86614 110.644 L70.86614 108.62408 L70.86614 107.17509 L70.86614 106.40086 L70.86614 106.29921" />
    <path d="M96.97842 141.73228 L106.29921 142.70337 L106.29921 142.70337 L96.97842 141.73228 L96.97842 141.73228" />
    <path d="M70.86614 146.13675 L106.29921 149.82834 L106.29921 149.82834 L70.86614 146.13675 L70.86614 146.13675" />
    <path d="M70.86614 153.26172 L106.29921 156.95331 L106.29921 156.95331 L70.86614 153.26172 L70.86614 153.26172" />
    <path d="M70.86614 160.3867 L106.29921 164.07828 L106.29921 164.07828 L70.86614 160.3867 L70.86614 160.3867" />
    <path d="M70.86614 167.51167 L106.29921 171.20325 L106.29921 171.20325 L70.86614 167.51167 L70.86614 167.51167" />
    <path d="M70.86614 174.63664 L95.13761 177.16535 L95.13761 177.16535 L70.86614 174.63664 L70.86614 174.63664" />
    <path d="M70.86614 141.73228 L70.96779 141.73228 L71.74202 141.73228 L73.191 141.73228 L75.21093 141.73228 L79.08426 141.73228 L85.27813 141.73228 L91.88723 141.73228 L98.08109 141.73228 L101.95442 141.73228 L103.97435 141.73228 L105.42333 141.73228 L106.19757 141.73228 L106.29921 141.73228 L106.29921 141.73228 L106.29921 141.83393 L106.29921 142.60816 L106.29921 144.05715 L106.29921 146.07707 L106.29921 149.9504 L106.29921 156.14427 L106.29921 162.75337 L106.29921 168.94723 L106.29921 172.82056 L106.29921 174.84049 L106.29921 176.28948 L106.29921 177.06371 L106.29921 177.16535 L106.29921 177.16535 L106.19757 177.16535 L105.42333 177.16535 L103.97435 177.16535 L101.95442 177.16535 L98.08109 177.16535 L91.88723 177.16535 L85.27813 177.16535 L79.08426 177.16535 L75.21093 177.16535 L73.191 177.16535 L71.74202 177.16535 L70.96779 177.16535 L70.86614 177.16535 L70.86614 177.16535 L70.86614 177.06371 L70.86614 176.28948 L70.86614 174.84049 L70.86614 172.82056 L70.86614 168.94723 L70.86614 162.75337 L70.86614 156.14427 L70.86614 149.9504 L70.86614 146.07707 L70.86614 144.05715 L70.86614 142.60816 L70.86614 141.83393 L70.86614 141.73228" />
    <path d="M106.29921 207.83093 L91.04577 212.59843 L91.04577 212.59843 L106.29921 207.83093 L106.29921 207.83093" />
    <path d="M106.29921 200.40624 L70.86614 211.48092 L70.86614 211.48092 L106.29921 200.40624 L106.29921 200.40624" />
    <path d="M106.29921 192.98155 L70.86614 204.05623 L70.86614 204.05623 L106.29921 192.98155 L106.29921 192.98155" />
    <path d="M106.29921 185.55685 L70.86614 196.63154 L70.86614 196.63154 L106.29921 185.55685 L106.29921 185.55685" />
    <path d="M106.29921 178.13216 L70.86614 189.20685 L70.86614 189.20685 L106.29921 178.13216 L106.29921 178.13216" />
    <path d="M85.63744 177.16535 L70.86614 181.78216 L70.86614 181.78216 L85.63744 177.16535 L85.63744 177.16535" />
    <path d="M70.86614 177.16535 L70.96779 177.16535 L71.74202 177.16535 L73.191 177.16535 L75.21093 177.16535 L79.08426 177.16535 L85.27813 177.16535 L91.88723 177.16535 L98.08109 177.16535 L101.95442 177.16535 L103.97435 177.16535 L105.42333 177.16535 L106.19757 177.16535 L106.29921 177.16535 L106.29921 177.16535 L106.29921 177.267 L106.29921 178.04123 L106.29921 179.49022 L106.29921 181.51014 L106.29921 185.38347 L106.29921 191.57734 L106.29921 198.18644 L106.29921 204.38031 L106.29921 208.25364 L106.29921 210.27356 L106.29921 211.72255 L106.29921 212.49678 L106.29921 212.59843 L106.29921 212.59843 L106.19757 212.59843 L105.42333 212.59843 L103.97435 212.59843 L101.95442 212.59843 L98.08109 212.59843 L91.88723 212.59843 L85.27813 212.59843 L79.08426 212.59843 L75.21093 212.59843 L73.191 212.59843 L71.74202 212.59843 L70.96779 212.59843 L70.86614 212.59843 L70.86614 212.59843 L70.86614 212.49678 L70.86614 211.72255 L70.86614 210.27356 L70.86614 208.25364 L70.86614 204.38031 L70.86614 198.18644 L70.86614 191.57734 L70.86614 185.38347 L70.86614 181.51014 L70.86614 179.49022 L70.86614 178.04123 L70.86614 177.267 L70.86614 177.16535" />
    <path d="M70.86614 214.63437 L84.04555 212.59843 L84.04555 212.59843 L70.86614 214.63437 L70.86614 214.63437" />
    <path d="M70.86614 221.80504 L106.29921 216.33137 L106.29921 216.33137 L70.86614 221.80504 L70.86614 221.80504" />
    <path d="M70.86614 228.97572 L106.29921 223.50204 L106.29921 223.50204 L70.86614 228.97572 L70.86614 228.97572" />
    <path d="M70.86614 236.14639 L106.29921 230.67271 L106.29921 230.67271 L70.86614 236.14639 L70.86614 236.14639" />
    <path d="M70.86614 243.31706 L106.29921 237.84338 L106.29921 237.84338 L70.86614 243.31706 L70.86614 243.31706" />
    <path d="M86.76625 248.0315 L106.29921 245.01406 L106.29921 245.01406 L86.76625 248.0315 L86.76625 248.0315" />
    <path d="M70.86614 212.59843 L70.96779 212.59843 L71.74202 212.59843 L73.191 212.59843 L75.21093 212.59843 L79.08426 212.59843 L85.27813 212.59843 L91.88723 212.59843 L98.08109 212.59843 L101.95442 212.59843 L103.97435 212.59843 L105.42333 212.59843 L106.19757 212.59843 L106.29921 212.59843 L106.29921 212.59843 L106.29921 212.70007 L106.29921 213.4743 L106.29921 214.92329 L106.29921 216.94322 L106.29921 220.81654 L106.29921 227.01041 L106.29921 233.61951 L106.29921 239.81338 L106.29921 243.68671 L106.29921 245.70663 L106.29921 247.15562 L106.29921 247.92985 L106.29921 248.0315 L106.29921 248.0315 L106.19757 248.0315 L105.42333 248.0315 L103.97435 248.0315 L101.95442 248.0315 L98.08109 248.0315 L91.88723 248.0315 L85.27813 248.0315 L79.08426 248.0315 L75.21093 248.0315 L73.191 248.0315 L71.74202 248.0315 L70.96779 248.0315 L70.86614 248.0315 L70.86614 248.0315 L70.86614 247.92985 L70.86614 247.15562 L70.86614 245.70663 L70.86614 243.68671 L70.86614 239.81338 L70.86614 233.61951 L70.86614 227.01041 L70.86614 220.81654 L70.86614 216.94322 L70.86614 214.92329 L70.86614 213.4743 L70.86614 212.70007 L70.86614 212.59843" />
    <path d="M106.29921 276.22592 L83.80832 283.46457 L83.80832 283.46457 L106.29921 276.22592 L106.29921 276.22592" />
    <path d="M106.29921 268.78131 L70.86614 280.18537 L70.86614 280.18537 L106.29921 268.78131 L106.29921 268.78131" />
    <path d="M106.29921 261.3367 L70.86614 272.74076 L70.86614 272.74076 L106.29921 261.3367 L106.29921 261.3367" />
    <path d="M106.29921 253.89209 L70.86614 265.29615 L70.86614 265.29615 L106.29921 253.89209 L106.29921 253.89209" />
    <path d="M101.37759 248.0315 L70.86614 257.85154 L70.86614 257.85154 L101.37759 248.0315 L101.37759 248.0315" />
    <path d="M78.24676 248.0315 L70.86614 250.40693 L70.86614 250.40693 L78.24676 248.0315 L78.24676 248.0315" />
    <path d="M70.86614 248.0315 L70.96779 248.0315 L71.74202 248.0315 L73.191 248.0315 L75.21093 248.0315 L79.08426 248.0315 L85.27813 248.0315 L91.88723 248.0315 L98.08109 248.0315 L101.95442 248.0315 L103.97435 248.0315 L105.42333 248.0315 L106.19757 248.0315 L106.29921 248.0315 L106.29921 248.0315 L106.29921 248.13314 L106.29921 248.90737 L106.29921 250.35636 L106.29921 252.37629 L106.29921 256.24962 L106.29921 262.44348 L106.29921 269.05258 L106.29921 275.24645 L106.29921 279.11978 L106.29921 281.1397 L106.29921 282.58869 L106.29921 283.36292 L106.29921 283.46457 L106.29921 283.46457 L106.19757 283.46457 L105.42333 283.46457 L103.97435 283.46457 L101.95442 283.46457 L98.08109 283.46457 L91.88723 283.46457 L85.27813 283.46457 L79.08426 283.46457 L75.21093 283.46457 L73.191 283.46457 L71.74202 283.46457 L70.96779 283.46457 L70.86614 283.46457 L70.86614 283.46457 L70.86614 283.36292 L70.86614 282.58869 L70.86614 281.1397 L70.86614 279.11978 L70.86614 275.24645 L70.86614 269.05258 L70.86614 262.44348 L70.86614 256.24962 L70.86614 252.37629 L70.86614 250.35636 L70.86614 248.90737 L70.86614 248.13314 L70.86614 248.0315" />
    <path d="M141.73228 70.3732 L140.7556 70.86614 L140.7556 70.86614 L141.73228 70.3732 L141.73228 70.3732" />
    <path d="M141.73228 62.43515 L125.02759 70.86614 L125.02759 70.86614 L141.73228 62.43515 L141.73228 62.43515" />
    <path d="M141.73228 54.49709 L109.29959 70.86614 L109.29959 70.86614 L141.73228 54.49709 L141.73228 54.49709" />
    <path d="M141.73228 46.55904 L106.29921 64.44241 L106.29921 64.44241 L141.73228 46.55904 L141.73228 46.55904" />
    <path d="M141.73228 38.62098 L106.29921 56.50435 L106.29921 56.50435 L141.73228 38.62098 L141.73228 38.62098" />
    <path d="M132.32063 35.43307 L106.29921 48.5663 L106.29921 48.5663 L132.32063 35.43307 L132.32063 35.43307" />
    <path d="M116.59263 35.43307 L106.29921 40.62825 L106.29921 40.62825 L116.59263 35.43307 L116.59263 35.43307" />
    <path d="M106.29921 35.43307 L106.40086 35.43307 L107.17509 35.43307 L108.62408 35.43307 L110.644 35.43307 L114.51733 35.43307 L120.7112 35.43307 L127.3203 35.43307 L133.51416 35.43307 L137.38749 35.43307 L139.40742 35.43307 L140.8564 35.43307 L141.63064 35.43307 L141.73228 35.43307 L141.73228 35.43307 L141.73228 35.53472 L141.73228 36.30895 L141.73228 37.75793 L141.73228 39.77786 L141.73228 43.65119 L141.73228 49.84506 L141.73228 56.45416 L141.73228 62.64802 L141.73228 66.52135 L141.73228 68.54128 L141.73228 69.99026 L141.73228 70.7645 L141.73228 70.86614 L141.73228 70.86614 L141.63064 70.86614 L140.8564 70.86614 L139.40742 70.86614 L137.38749 70.86614 L133.51416 70.86614 L127.3203 70.86614 L120.7112 70.86614 L114.51733 70.86614 L110.644 70.86614 L108.62408 70.86614 L107.17509 70.86614 L106.40086 70.86614 L106.29921 70.86614 L106.29921 70.86614 L106.29921 70.7645 L106.29921 69.99026 L106.29921 68.54128 L106.29921 66.52135 L106.29921 62.64802 L106.29921 56.45416 L106.29921 49.84506 L106.29921 43.65119 L106.29921 39.77786 L106.29921 37.75793 L106.29921 36.30895 L106.29921 35.53472 L106.29921 35.43307" />
    <path d="M109.24819 106.29921 L106.29921 71.58357 L106.29921 71.58357 L109.24819 106.29921 L109.24819 106.29921" />
    <path d="M116.36033 106.29921 L113.35041 70.86614 L113.35041 70.86614 L116.36033 106.29921 L116.36033 106.29921" />
    <path d="M123.47246 106.29921 L120.46254 70.86614 L120.46254 70.86614 L123.47246 106.29921 L123.47246 106.29921" />
    <path d="M130.5846 106.29921 L127.57468 70.86614 L127.57468 70.86614 L130.5846 106.29921 L130.5846 106.29921" />
    <path d="M137.69674 106.29921 L134.68682 70.86614 L134.68682 70.86614 L137.69674 106.29921 L137.69674 106.29921" />
    <path d="M106.29921 70.86614 L106.40086 70.86614 L107.17509 70.86614 L108.62408 70.86614 L110.644 70.86614 L114.51733 70.86614 L120.7112 70.86614 L127.3203 70.86614 L133.51416 70.86614 L137.38749 70.86614 L139.40742 70.86614 L140.8564 70.86614 L141.63064 70.86614 L141.73228 70.86614 L141.73228 70.86614 L141.73228 70.96779 L141.73228 71.74202 L141.73228 73.191 L141.73228 75.21093 L141.73228 79.08426 L141.73228 85.27813 L141.73228 91.88723 L141.73228 98.08109 L141.73228 101.95442 L141.73228 103.97435 L141.73228 105.42333 L141.73228 106.19757 L141.73228 106.29921 L141.73228 106.29921 L141.63064 106.29921 L140.8564 106.29921 L139.40742 106.29921 L137.38749 106.29921 L133.51416 106.29921 L127.3203 106.29921 L120.7112 106.29921 L114.51733 106.29921 L110.644 106.29921 L108.62408 106.29921 L107.17509 106.29921 L106.40086 106.29921 L106.29921 106.29921 L106.29921 106.29921 L106.29921 106.19757 L106.29921 105.42333 L106.29921 103.97435 L106.29921 101.95442 L106.29921 98.08109 L106.29921 91.88723 L106.29921 85.27813 L106.29921 79.08426 L106.29921 75.21093 L106.29921 73.191 L106.29921 71.74202 L106.29921 70.96779 L106.29921 70.86614" />
    <path d="M141.73228 133.28335 L129.62893 141.73228 L129.62893 141.73228 L141.73228 133.28335 L141.73228 133.28335" />
    <path d="M141.73228 124.64088 L117.24835 141.73228 L117.24835 141.73228 L141.73228 124.64088 L141.73228 124.64088" />
    <path d="M141.73228 115.99842 L106.29921 140.73304 L106.29921 140.73304 L141.73228 115.99842 L141.73228 115.99842" />
    <path d="M141.73228 107.35596 L106.29921 132.09058 L106.29921 132.09058 L141.73228 107.35596 L141.73228 107.35596" />
    <path d="M130.86552 106.29921 L106.29921 123.44812 L106.29921 123.44812 L130.86552 106.29921 L130.86552 106.29921" />
    <path d="M118.48494 106.29921 L106.29921 114.80565 L106.29921 114.80565 L118.48494 106.29921 L118.48494 106.29921" />
    <path d="M106.29921 106.29921 L106.40086 106.29921 L107.17509 106.29921 L108.62408 106.29921 L110.644 106.29921 L114.51733 106.29921 L120.7112 106.29921 L127.3203 106.29921 L133.51416 106.29921 L137.38749 106.29921 L139.40742 106.29921 L140.8564 106.29921 L141.63064 106.29921 L141.73228 106.29921 L141.73228 106.29921 L141.73228 106.40086 L141.73228 107.17509 L141.73228 108.62408 L141.73228 110.644 L141.73228 114.51733 L141.73228 120.7112 L141.73228 127.3203 L141.73228 133.51416 L141.73228 137.38749 L141.73228 139.40742 L141.73228 140.8564 L141.73228 141.63064 L141.73228 141.73228 L141.73228 141.73228 L141.63064 141.73228 L140.8564 141.73228 L139.40742 141.73228 L137.38749 141.73228 L133.51416 141.73228 L127.3203 141.73228 L120.7112 141.73228 L114.51733 141.73228 L110.644 141.73228 L108.62408 141.73228 L107.17509 141.73228 L106.40086 141.73228 L106.29921 141.73228 L106.29921 141.73228 L106.29921 141.63064 L106.29921 140.8564 L106.29921 139.40742 L106.29921 137.38749 L106.29921 133.51416 L106.29921 127.3203 L106.29921 120.7112 L106.29921 114.51733 L106.29921 110.644 L106.29921 108.62408 L106.29921 107.17509 L106.29921 106.40086 L106.29921 106.29921" />
    <path d="M137.60321 141.73228 L141.73228 146.00142 L141.73228 146.00142 L137.60321 141.73228 L137.60321 141.73228" />
    <path d="M127.74425 141.73228 L141.73228 156.19479 L141.73228 156.19479 L127.74425 141.73228 L127.74425 141.73228" />
    <path d="M117.88529 141.73228 L141.73228 166.38817 L141.73228 166.38817 L117.88529 141.73228 L117.88529 141.73228" />
    <path d="M108.02633 141.73228 L141.73228 176.58155 L141.73228 176.58155 L108.02633 141.73228 L108.02633 141.73228" />
    <path d="M106.29921 150.13996 L132.43798 177.16535 L132.43798 177.16535 L106.29921 150.13996 L106.29921 150.13996" />
    <path d="M106.29921 160.33334 L122.57902 177.16535 L122.57902 177.16535 L106.29921 160.33334 L106.29921 160.33334" />
    <path d="M106.29921 170.52671 L112.72006 177.16535 L112.72006 177.16535 L106.29921 170.52671 L106.29921 170.52671" />
    <path d="M106.29921 141.73228 L106.40086 141.73228 L107.17509 141.73228 L108.62408 141.73228 L110.644 141.73228 L114.51733 141.73228 L120.7112 141.73228 L127.3203 141.73228 L133.51416 141.73228 L137.38749 141.73228 L139.40742 141.73228 L140.8564 141.73228 L141.63064 141.73228 L141.73228 141.73228 L141.73228 141.73228 L141.73228 141.83393 L141.73228 142.60816 L141.73228 144.05715 L141.73228 146.07707 L141.73228 149.9504 L141.73228 156.14427 L141.73228 162.75337 L141.73228 168.94723 L141.73228 172.82056 L141.73228 174.84049 L141.73228 176.28948 L141.73228 177.06371 L141.73228 177.16535 L141.73228 177.16535 L141.63064 177.16535 L140.8564 177.16535 L139.40742 177.16535 L137.38749 177.16535 L133.51416 177.16535 L127.3203 177.16535 L120.7112 177.16535 L114.51733 177.16535 L110.644 177.16535 L108.62408 177.16535 L107.17509 177.16535 L106.40086 177.16535 L106.29921 177.16535 L106.29921 177.16535 L106.29921 177.06371 L106.29921 176.28948 L106.29921 174.84049 L106.29921 172.82056 L106.29921 168.94723 L106.29921 162.75337 L106.29921 156.14427 L106.29921 149.9504 L106.29921 146.07707 L106.29921 144.05715 L106.29921 142.60816 L106.29921 141.83393 L106.29921 141.73228" />
    <path d="M139.93221 177.16535 L141.73228 179.87839 L141.73228 179.87839 L139.93221 177.16535 L139.93221 177.16535" />
    <path d="M131.42763 177.16535 L141.73228 192.69633 L141.73228 192.69633 L131.42763 177.16535 L131.42763 177.16535" />
    <path d="M122.92304 177.16535 L141.73228 205.51427 L141.73228 205.51427 L122.92304 177.16535 L122.92304 177.16535" />
    <path d="M114.41845 177.16535 L137.92797 212.59843 L137.92797 212.59843 L114.41845 177.16535 L114.41845 177.16535" />
    <path d="M106.29921 177.74614 L129.42338 212.59843 L129.42338 212.59843 L106.29921 177.74614 L106.29921 177.74614" />
    <path d="M106.29921 190.56408 L120.91879 212.59843 L120.91879 212.59843 L106.29921 190.56408 L106.29921 190.56408" />
    <path d="M106.29921 203.38203 L112.41421 212.59843 L112.41421 212.59843 L106.29921 203.38203 L106.29921 203.38203" />
    <path d="M106.29921 177.16535 L106.40086 177.16535 L107.17509 177.16535 L108.62408 177.16535 L110.644 177.16535 L114.51733 177.16535 L120.7112 177.16535 L127.3203 177.16535 L133.51416 177.16535 L137.38749 177.16535 L139.40742 177.16535 L140.8564 177.16535 L141.63064 177.16535 L141.73228 177.16535 L141.73228 177.16535 L141.73228 177.267 L141.73228 178.04123 L141.73228 179.49022 L141.73228 181.51014 L141.73228 185.38347 L141.73228 191.57734 L141.73228 198.18644 L141.73228 204.38031 L141.73228 208.25364 L141.73228 210.27356 L141.73228 211.72255 L141.73228 212.49678 L141.73228 212.59843 L141.73228 212.59843 L141.63064 212.59843 L140.8564 212.59843 L139.40742 212.59843 L137.38749 212.59843 L133.51416 212.59843 L127.3203 212.59843 L120.7112 212.59843 L114.51733 212.59843 L110.644 212.59843 L108.62408 212.59843 L107.17509 212.59843 L106.40086 212.59843 L106.29921 212.59843 L106.29921 212.59843 L106.29921 212.49678 L106.29921 211.72255 L106.29921 210.27356 L106.29921 208.25364 L106.29921 204.38031 L106.29921 198.18644 L106.29921 191.57734 L106.29921 185.38347 L106.29921 181.51014 L106.29921 179.49022 L106.29921 178.04123 L106.29921 177.267 L106.29921 177.16535" />
    <path d="M141.73228 237.99364 L133.26258 248.0315 L133.26258 248.0315 L141.73228 237.99364 L141.73228 237.99364" />
    <path d="M141.73228 227.00464 L123.99033 248.0315 L123.99033 248.0315 L141.73228 227.00464 L141.73228 227.00464" />
    <path d="M141.73228 216.01564 L114.71807 248.0315 L114.71807 248.0315 L141.73228 216.01564 L141.73228 216.01564" />
    <path d="M135.34339 212.59843 L106.29921 247.0201 L106.29921 247.0201 L135.34339 212.59843 L135.34339 212.59843" />
    <path d="M126.07114 212.59843 L106.29921 236.0311 L106.29921 236.0311 L126.07114 212.59843 L126.07114 212.59843" />
    <path d="M116.79888 212.59843 L106.29921 225.0421 L106.29921 225.0421 L116.79888 212.59843 L116.79888 212.59843" />
    <path d="M107.52663 212.59843 L106.29921 214.0531 L106.29921 214.0531 L107.52663 212.59843 L107.52663 212.59843" />
    <path d="M106.29921 212.59843 L106.40086 212.59843 L107.17509 212.59843 L108.62408 212.59843 L110.644 212.59843 L114.51733 212.59843 L120.7112 212.59843 L127.3203 212.59843 L133.51416 212.59843 L137.38749 212.59843 L139.40742 212.59843 L140.8564 212.59843 L141.63064 212.59843 L141.73228 212.59843 L141.73228 212.59843 L141.73228 212.70007 L141.73228 213.4743 L141.73228 214.92329 L141.73228 216.94322 L141.73228 220.81654 L141.73228 227.01041 L141.73228 233.61951 L141.73228 239.81338 L141.73228 243.68671 L141.73228 245.70663 L141.73228 247.15562 L141.73228 247.92985 L141.73228 248.0315 L141.73228 248.0315 L141.63064 248.0315 L140.8564 248.0315 L139.40742 248.0315 L137.38749 248.0315 L133.51416 248.0315 L127.3203 248.0315 L120.7112 248.0315 L114.51733 248.0315 L110.644 248.0315 L108.62408 248.0315 L107.17509 248.0315 L106.40086 248.0315 L106.29921 248.0315 L106.29921 248.0315 L106.29921 247.92985 L106.29921 247.15562 L106.29921 245.70663 L106.29921 243.68671 L106.29921 239.81338 L106.29921 233.61951 L106.29921 227.01041 L106.29921 220.81654 L106.29921 216.94322 L106.29921 214.92329 L106.29921 213.4743 L106.29921 212.70007 L106.29921 212.59843" />
    <path d="M110.43557 283.46457 L106.29921 283.11969 L106.29921 283.11969 L110.43557 283.46457 L110.43557 283.46457" />
    <path d="M141.73228 278.96279 L106.29921 276.00849 L106.29921 276.00849 L141.73228 278.96279 L141.73228 278.96279" />
    <path d="M141.73228 271.85159 L106.29921 268.89728 L106.29921 268.89728 L141.73228 271.85159 L141.73228 271.85159" />
    <path d="M141.73228 264.74038 L106.29921 261.78608 L106.29921 261.78608 L141.73228 264.74038 L141.73228 264.74038" />
    <path d="M141.73228 257.62918 L106.29921 254.67488 L106.29921 254.67488 L141.73228 257.62918 L141.73228 257.62918" />
    <path d="M141.73228 250.51798 L111.91016 248.0315 L111.91016 248.0315 L141.73228 250.51798 L141.73228 250.51798" />
    <path d="M106.29921 248.0315 L106.40086 248.0315 L107.17509 248.0315 L108.62408 248.0315 L110.644 248.0315 L114.51733 248.0315 L120.7112 248.0315 L127.3203 248.0315 L133.51416 248.0315 L137.38749 248.0315 L139.40742 248.0315 L140.8564 248.0315 L141.63064 248.0315 L141.73228 248.0315 L141.73228 248.0315 L141.73228 248.13314 L141.73228 248.90737 L141.73228 250.35636 L141.73228 252.37629 L141.73228 256.24962 L141.73228 262.44348 L141.73228 269.05258 L141.73228 275.24645 L141.73228 279.11978 L141.73228 281.1397 L141.73228 282.58869 L141.73228 283.36292 L141.73228 283.46457 L141.73228 283.46457 L141.63064 283.46457 L140.8564 283.46457 L139.40742 283.46457 L137.38749 283.46457 L133.51416 283.46457 L127.3203 283.46457 L120.7112 283.46457 L114.51733 283.46457 L110.644 283.46457 L108.62408 283.46457 L107.17509 283.46457 L106.40086 283.46457 L106.29921 283.46457 L106.29921 283.46457 L106.29921 283.36292 L106.29921 282.58869 L106.29921 281.1397 L106.29921 279.11978 L106.29921 275.24645 L106.29921 269.05258 L106.29921 262.44348 L106.29921 256.24962 L106.29921 252.37629 L106.29921 250.35636 L106.29921 248.90737 L106.29921 248.13314 L106.29921 248.0315" />
    <path d="M141.73228 39.77026 L151.24178 35.43307 L151.24178 35.43307 L141.73228 39.77026 L141.73228 39.77026" />
    <path d="M141.73228 47.55914 L168.3193 35.43307 L168.3193 35.43307 L141.73228 47.55914 L141.73228 47.55914" />
    <path d="M141.73228 55.34803 L177.16535 39.18736 L177.16535 39.18736 L141.73228 55.34803 L141.73228 55.34803" />
    <path d="M141.73228 63.13692 L177.16535 46.97625 L177.16535 46.97625 L141.73228 63.13692 L141.73228 63.13692" />
    <path d="M141.86311 70.86614 L177.16535 54.76514 L177.16535 54.76514 L141.86311 70.86614 L141.86311 70.86614" />
    <path d="M158.94064 70.86614 L177.16535 62.55403 L177.16535 62.55403 L158.94064 70.86614 L158.94064 70.86614" />
    <path d="M176.01816 70.86614 L177.16535 70.34292 L177.16535 70.34292 L176.01816 70.86614 L176.01816 70.86614" />
    <path d="M141.73228 35.43307 L141.83393 35.43307 L142.60816 35.43307 L144.05715 35.43307 L146.07707 35.43307 L149.9504 35.43307 L156.14427 35.43307 L162.75337 35.43307 L168.94723 35.43307 L172.82056 35.43307 L174.84049 35.43307 L176.28948 35.43307 L177.06371 35.43307 L177.16535 35.43307 L177.16535 35.43307 L177.16535 35.53472 L177.16535 36.30895 L177.16535 37.75793 L177.16535 39.77786 L177.16535 43.65119 L177.16535 49.84506 L177.16535 56.45416 L177.16535 62.64802 L177.16535 66.52135 L177.16535 68.54128 L177.16535 69.99026 L177.16535 70.7645 L177.16535 70.86614 L177.16535 70.86614 L177.06371 70.86614 L176.28948 70.86614 L174.84049 70.86614 L172.82056 70.86614 L168.94723 70.86614 L162.75337 70.86614 L156.14427 70.86614 L149.9504 70.86614 L146.07707 70.86614 L144.05715 70.86614 L142.60816 70.86614 L141.83393 70.86614 L141.73228 70.86614 L141.73228 70.86614 L141.73228 70.7645 L141.73228 69.99026 L141.73228 68.54128 L141.73228 66.52135 L141.73228 62.64802 L141.73228 56.45416 L141.73228 49.84506 L141.73228 43.65119 L141.73228 39.77786 L141.73228 37.75793 L141.73228 36.30895 L141.73228 35.53472 L141.73228 35.43307" />
    <path d="M148.36157 106.29921 L141.73228 87.61465 L141.73228 87.61465 L148.36157 106.29921 L148.36157 106.29921" />
    <path d="M155.88101 106.29921 L143.30934 70.86614 L143.30934 70.86614 L155.88101 106.29921 L155.88101 106.29921" />
    <path d="M163.40045 106.29921 L150.82878 70.86614 L150.82878 70.86614 L163.40045 106.29921 L163.40045 106.29921" />
    <path d="M170.91989 106.29921 L158.34822 70.86614 L158.34822 70.86614 L170.91989 106.29921 L170.91989 106.29921" />
    <path d="M177.16535 102.70852 L165.86766 70.86614 L165.86766 70.86614 L177.16535 102.70852 L177.16535 102.70852" />
    <path d="M177.16535 81.51509 L173.3871 70.86614 L173.3871 70.86614 L177.16535 81.51509 L177.16535 81.51509" />
    <path d="M141.73228 70.86614 L141.83393 70.86614 L142.60816 70.86614 L144.05715 70.86614 L146.07707 70.86614 L149.9504 70.86614 L156.14427 70.86614 L162.75337 70.86614 L168.94723 70.86614 L172.82056 70.86614 L174.84049 70.86614 L176.28948 70.86614 L177.06371 70.86614 L177.16535 70.86614 L177.16535 70.86614 L177.16535 70.96779 L177.16535 71.74202 L177.16535 73.191 L177.16535 75.21093 L177.16535 79.08426 L177.16535 85.27813 L177.16535 91.88723 L177.16535 98.08109 L177.16535 101.95442 L177.16535 103.97435 L177.16535 105.42333 L177.16535 106.19757 L177.16535 106.29921 L177.16535 106.29921 L177.06371 106.29921 L176.28948 106.29921 L174.84049 106.29921 L172.82056 106.29921 L168.94723 106.29921 L162.75337 106.29921 L156.14427 106.29921 L149.9504 106.29921 L146.07707 106.29921 L144.05715 106.29921 L142.60816 106.29921 L141.83393 106.29921 L141.73228 106.29921 L141.73228 106.29921 L141.73228 106.19757 L141.73228 105.42333 L141.73228 103.97435 L141.73228 101.95442 L141.73228 98.08109 L141.73228 91.88723 L141.73228 85.27813 L141.73228 79.08426 L141.73228 75.21093 L141.73228 73.191 L141.73228 71.74202 L141.73228 70.96779 L141.73228 70.86614" />
    <path d="M177.16535 132.83209 L173.10315 141.73228 L173.10315 141.73228 L177.16535 132.83209 L177.16535 132.83209" />
    <path d="M177.16535 115.76471 L165.31329 141.73228 L165.31329 141.73228 L177.16535 115.76471 L177.16535 115.76471" />
    <path d="M173.69572 106.29921 L157.52344 141.73228 L157.52344 141.73228 L173.69572 106.29921 L173.69572 106.29921" />
    <path d="M165.90587 106.29921 L149.73359 141.73228 L149.73359 141.73228 L165.90587 106.29921 L165.90587 106.29921" />
    <path d="M158.11602 106.29921 L141.94373 141.73228 L141.94373 141.73228 L158.11602 106.29921 L158.11602 106.29921" />
    <path d="M150.32616 106.29921 L141.73228 125.12819 L141.73228 125.12819 L150.32616 106.29921 L150.32616 106.29921" />
    <path d="M142.53631 106.29921 L141.73228 108.06082 L141.73228 108.06082 L142.53631 106.29921 L142.53631 106.29921" />
    <path d="M141.73228 106.29921 L141.83393 106.29921 L142.60816 106.29921 L144.05715 106.29921 L146.07707 106.29921 L149.9504 106.29921 L156.14427 106.29921 L162.75337 106.29921 L168.94723 106.29921 L172.82056 106.29921 L174.84049 106.29921 L176.28948 106.29921 L177.06371 106.29921 L177.16535 106.29921 L177.16535 106.29921 L177.16535 106.40086 L177.16535 107.17509 L177.16535 108.62408 L177.16535 110.644 L177.16535 114.51733 L177.16535 120.7112 L177.16535 127.3203 L177.16535 133.51416 L177.16535 137.38749 L177.16535 139.40742 L177.16535 140.8564 L177.16535 141.63064 L177.16535 141.73228 L177.16535 141.73228 L177.06371 141.73228 L176.28948 141.73228 L174.84049 141.73228 L172.82056 141.73228 L168.94723 141.73228 L162.75337 141.73228 L156.14427 141.73228 L149.9504 141.73228 L146.07707 141.73228 L144.05715 141.73228 L142.60816 141.73228 L141.83393 141.73228 L141.73228 141.73228 L141.73228 141.73228 L141.73228 141.63064 L141.73228 140.8564 L141.73228 139.40742 L141.73228 137.38749 L141.73228 133.51416 L141.73228 127.3203 L141.73228 120.7112 L141.73228 114.51733 L141.73228 110.644 L141.73228 108.62408 L141.73228 107.17509 L141.73228 106.40086 L141.73228 106.29921" />
    <path d="M177.16535 167.51294 L168.68513 177.16535 L168.68513 177.16535 L177.16535 167.51294 L177.16535 167.51294" />
    <path d="M177.16535 156.77593 L159.25203 177.16535 L159.25203 177.16535 L177.16535 156.77593 L177.16535 156.77593" />
    <path d="M177.16535 146.03893 L149.81893 177.16535 L149.81893 177.16535 L177.16535 146.03893 L177.16535 146.03893" />
    <path d="M171.5159 141.73228 L141.73228 175.63279 L141.73228 175.63279 L171.5159 141.73228 L171.5159 141.73228" />
    <path d="M162.0828 141.73228 L141.73228 164.89578 L141.73228 164.89578 L162.0828 141.73228 L162.0828 141.73228" />
    <path d="M152.64971 141.73228 L141.73228 154.15878 L141.73228 154.15878 L152.64971 141.73228 L152.64971 141.73228" />
    <path d="M143.21661 141.73228 L141.73228 143.42178 L141.73228 143.42178 L143.21661 141.73228 L143.21661 141.73228" />
    <path d="M141.73228 141.73228 L141.83393 141.73228 L142.60816 141.73228 L144.05715 141.73228 L146.07707 141.73228 L149.9504 141.73228 L156.14427 141.73228 L162.75337 141.73228 L168.94723 141.73228 L172.82056 141.73228 L174.84049 141.73228 L176.28948 141.73228 L177.06371 141.73228 L177.16535 141.73228 L177.16535 141.73228 L177.16535 141.83393 L177.16535 142.60816 L177.16535 144.05715 L177.16535 146.07707 L177.16535 149.9504 L177.16535 156.14427 L177.16535 162.75337 L177.16535 168.94723 L177.16535 172.82056 L177.16535 174.84049 L177.16535 176.28948 L177.16535 177.06371 L177.16535 177.16535 L177.16535 177.16535 L177.06371 177.16535 L176.28948 177.16535 L174.84049 177.16535 L172.82056 177.16535 L168.94723 177.16535 L162.75337 177.16535 L156.14427 177.16535 L149.9504 177.16535 L146.07707 177.16535 L144.05715 177.16535 L142.60816 177.16535 L141.83393 177.16535 L141.73228 177.16535 L141.73228 177.16535 L141.73228 177.06371 L141.73228 176.28948 L141.73228 174.84049 L141.73228 172.82056 L141.73228 168.94723 L141.73228 162.75337 L141.73228 156.14427 L141.73228 149.9504 L141.73228 146.07707 L141.73228 144.05715 L141.73228 142.60816 L141.73228 141.83393 L141.73228 141.73228" />
    <path d="M141.73228 188.82882 L145.63863 177.16535 L145.63863 177.16535 L141.73228 188.82882 L141.73228 188.82882" />
    <path d="M141.73228 211.14303 L153.11215 177.16535 L153.11215 177.16535 L141.73228 211.14303 L141.73228 211.14303" />
    <path d="M148.71836 212.59843 L160.58566 177.16535 L160.58566 177.16535 L148.71836 212.59843 L148.71836 212.59843" />
    <path d="M156.19187 212.59843 L168.05917 177.16535 L168.05917 177.16535 L156.19187 212.59843 L156.19187 212.59843" />
    <path d="M163.66538 212.59843 L175.53269 177.16535 L175.53269 177.16535 L163.66538 212.59843 L163.66538 212.59843" />
    <path d="M171.1389 212.59843 L177.16535 194.6048 L177.16535 194.6048 L171.1389 212.59843 L171.1389 212.59843" />
    <path d="M141.73228 177.16535 L141.83393 177.16535 L142.60816 177.16535 L144.05715 177.16535 L146.07707 177.16535 L149.9504 177.16535 L156.14427 177.16535 L162.75337 177.16535 L168.94723 177.16535 L172.82056 177.16535 L174.84049 177.16535 L176.28948 177.16535 L177.06371 177.16535 L177.16535 177.16535 L177.16535 177.16535 L177.16535 177.267 L177.16535 178.04123 L177.16535 179.49022 L177.16535 181.51014 L177.16535 185.38347 L177.16535 191.57734 L177.16535 198.18644 L177.16535 204.38031 L177.16535 208.25364 L177.16535 210.27356 L177.16535 211.72255 L177.16535 212.49678 L177.16535 212.59843 L177.16535 212.59843 L177.06371 212.59843 L176.28948 212.59843 L174.84049 212.59843 L172.82056 212.59843 L168.94723 212.59843 L162.75337 212.59843 L156.14427 212.59843 L149.9504 212.59843 L146.07707 212.59843 L144.05715 212.59843 L142.60816 212.59843 L141.83393 212.59843 L141.73228 212.59843 L141.73228 212.59843 L141.73228 212.49678 L141.73228 211.72255 L141.73228 210.27356 L141.73228 208.25364 L141.73228 204.38031 L141.73228 198.18644 L141.73228 191.57734 L141.73228 185.38347 L141.73228 181.51014 L141.73228 179.49022 L141.73228 178.04123 L141.73228 177.267 L141.73228 177.16535" />
    <path d="M156.55897 248.0315 L141.73228 240.84801 L141.73228 240.84801 L156.55897 248.0315 L156.55897 248.0315" />
    <path d="M172.81201 248.0315 L141.73228 232.97345 L141.73228 232.97345 L172.81201 248.0315 L172.81201 248.0315" />
    <path d="M177.16535 242.26612 L141.73228 225.09889 L141.73228 225.09889 L177.16535 242.26612 L177.16535 242.26612" />
    <path d="M177.16535 234.39157 L141.73228 217.22434 L141.73228 217.22434 L177.16535 234.39157 L177.16535 234.39157" />
    <path d="M177.16535 226.51701 L148.43747 212.59843 L148.43747 212.59843 L177.16535 226.51701 L177.16535 226.51701" />
    <path d="M177.16535 218.64245 L164.69052 212.59843 L164.69052 212.59843 L177.16535 218.64245 L177.16535 218.64245" />
    <path d="M141.73228 212.59843 L141.83393 212.59843 L142.60816 212.59843 L144.05715 212.59843 L146.07707 212.59843 L149.9504 212.59843 L156.14427 212.59843 L162.75337 212.59843 L168.94723 212.59843 L172.82056 212.59843 L174.84049 212.59843 L176.28948 212.59843 L177.06371 212.59843 L177.16535 212.59843 L177.16535 212.59843 L177.16535 212.70007 L177.16535 213.4743 L177.16535 214.92329 L177.16535 216.94322 L177.16535 220.81654 L177.16535 227.01041 L177.16535 233.61951 L177.16535 239.81338 L177.16535 243.68671 L177.16535 245.70663 L177.16535 247.15562 L177.16535 247.92985 L177.16535 248.0315 L177.16535 248.0315 L177.06371 248.0315 L176.28948 248.0315 L174.84049 248.0315 L172.82056 248.0315 L168.94723 248.0315 L162.75337 248.0315 L156.14427 248.0315 L149.9504 248.0315 L146.07707 248.0315 L144.05715 248.0315 L142.60816 248.0315 L141.83393 248.0315 L141.73228 248.0315 L141.73228 248.0315 L141.73228 247.92985 L141.73228 247.15562 L141.73228 245.70663 L141.73228 243.68671 L141.73228 239.81338 L141.73228 233.61951 L141.73228 227.01041 L141.73228 220.81654 L141.73228 216.94322 L141.73228 214.92329 L141.73228 213.4743 L141.73228 212.70007 L141.73228 212.59843" />
    <path d="M142.15321 283.46457 L141.73228 282.86323 L141.73228 282.86323 L142.15321 283.46457 L142.15321 283.46457" />
    <path d="M150.80346 283.46457 L141.73228 270.50546 L141.73228 270.50546 L150.80346 283.46457 L150.80346 283.46457" />
    <path d="M159.45372 283.46457 L141.73228 258.14769 L141.73228 258.14769 L159.45372 283.46457 L159.45372 283.46457" />
    <path d="M168.10397 283.46457 L143.30135 248.0315 L143.30135 248.0315 L168.10397 283.46457 L168.10397 283.46457" />
    <path d="M176.75423 283.46457 L151.95161 248.0315 L151.95161 248.0315 L176.75423 283.46457 L176.75423 283.46457" />
    <path d="M177.16535 271.69414 L160.60186 248.0315 L160.60186 248.0315 L177.16535 271.69414 L177.16535 271.69414" />
    <path d="M177.16535 259.33637 L169.25212 248.0315 L169.25212 248.0315 L177.16535 259.33637 L177.16535 259.33637" />
    <path d="M141.73228 248.0315 L141.83393 248.0315 L142.60816 248.0315 L144.05715 248.0315 L146.07707 248.0315 L149.9504 248.0315 L156.14427 248.0315 L162.75337 248.0315 L168.94723 248.0315 L172.82056 248.0315 L174.84049 248.0315 L176.28948 248.0315 L177.06371 248.0315 L177.16535 248.0315 L177.16535 248.0315 L177.16535 248.13314 L177.16535 248.90737 L177.16535 250.35636 L177.16535 252.37629 L177.16535 256.24962 L177.16535 262.44348 L177.16535 269.05258 L177.16535 275.24645 L177.16535 279.11978 L177.16535 281.1397 L177.16535 282.58869 L177.16535 283.36292 L177.16535 283.46457 L177.16535 283.46457 L177.06371 283.46457 L176.28948 283.46457 L174.84049 283.46457 L172.82056 283.46457 L168.94723 283.46457 L162.75337 283.46457 L156.14427 283.46457 L149.9504 283.46457 L146.07707 283.46457 L144.05715 283.46457 L142.60816 283.46457 L141.83393 283.46457 L141.73228 283.46457 L141.73228 283.46457 L141.73228 283.36292 L141.73228 282.58869 L141.73228 281.1397 L141.73228 279.11978 L141.73228 275.24645 L141.73228 269.05258 L141.73228 262.44348 L141.73228 256.24962 L141.73228 252.37629 L141.73228 250.35636 L141.73228 248.90737 L141.73228 248.13314 L141.73228 248.0315" />
    <path d="M177.16535 39.8981 L181.95184 35.43307 L181.95184 35.43307 L177.16535 39.8981 L177.16535 39.8981" />
    <path d="M177.16535 49.58939 L192.34086 35.43307 L192.34086 35.43307 L177.16535 49.58939 L177.16535 49.58939" />
    <path d="M177.16535 59.28068 L202.72988 35.43307 L202.72988 35.43307 L177.16535 59.28068 L177.16535 59.28068" />
    <path d="M177.16535 68.97197 L212.59843 35.91859 L212.59843 35.91859 L177.16535 68.97197 L177.16535 68.97197" />
    <path d="M185.52384 70.86614 L212.59843 45.60988 L212.59843 45.60988 L185.52384 70.86614 L185.52384 70.86614" />
    <path d="M195.91285 70.86614 L212.59843 55.30117 L212.59843 55.30117 L195.91285 70.86614 L195.91285 70.86614" />
    <path d="M206.30187 70.86614 L212.59843 64.99247 L212.59843 64.99247 L206.30187 70.86614 L206.30187 70.86614" />
    <path d="M177.16535 35.43307 L177.267 35.43307 L178.04123 35.43307 L179.49022 35.43307 L181.51014 35.43307 L185.38347 35.43307 L191.57734 35.43307 L198.18644 35.43307 L204.38031 35.43307 L208.25364 35.43307 L210.27356 35.43307 L211.72255 35.43307 L212.49678 35.43307 L212.59843 35.43307 L212.59843 35.43307 L212.59843 35.53472 L212.59843 36.30895 L212.59843 37.75793 L212.59843 39.77786 L212.59843 43.65119 L212.59843 49.84506 L212.59843 56.45416 L212.59843 62.64802 L212.59843 66.52135 L212.59843 68.54128 L212.59843 69.99026 L212.59843 70.7645 L212.59843 70.86614 L212.59843 70.86614 L212.49678 70.86614 L211.72255 70.86614 L210.27356 70.86614 L208.25364 70.86614 L204.38031 70.86614 L198.18644 70.86614 L191.57734 70.86614 L185.38347 70.86614 L181.51014 70.86614 L179.49022 70.86614 L178.04123 70.86614 L177.267 70.86614 L177.16535 70.86614 L177.16535 70.86614 L177.16535 70.7645 L177.16535 69.99026 L177.16535 68.54128 L177.16535 66.52135 L177.16535 62.64802 L177.16535 56.45416 L177.16535 49.84506 L177.16535 43.65119 L177.16535 39.77786 L177.16535 37.75793 L177.16535 36.30895 L177.16535 35.53472 L177.16535 35.43307" />
    <path d="M181.08558 106.29921 L177.16535 105.12875 L177.16535 105.12875 L181.08558 106.29921 L181.08558 106.29921" />
    <path d="M205.85604 106.29921 L177.16535 97.73301 L177.16535 97.73301 L205.85604 106.29921 L205.85604 106.29921" />
    <path d="M212.59843 100.91655 L177.16535 90.33727 L177.16535 90.33727 L212.59843 100.91655 L212.59843 100.91655" />
    <path d="M212.59843 93.52082 L177.16535 82.94153 L177.16535 82.94153 L212.59843 93.52082 L212.59843 93.52082" />
    <path d="M212.59843 86.12508 L177.16535 75.54579 L177.16535 75.54579 L212.59843 86.12508 L212.59843 86.12508" />
    <path d="M212.59843 78.72934 L186.26231 70.86614 L186.26231 70.86614 L212.59843 78.72934 L212.59843 78.72934" />
    <path d="M212.59843 71.3336 L211.03277 70.86614 L211.03277 70.86614 L212.59843 71.3336 L212.59843 71.3336" />
    <path d="M177.16535 70.86614 L177.267 70.86614 L178.04123 70.86614 L179.49022 70.86614 L181.51014 70.86614 L185.38347 70.86614 L191.57734 70.86614 L198.18644 70.86614 L204.38031 70.86614 L208.25364 70.86614 L210.27356 70.86614 L211.72255 70.86614 L212.49678 70.86614 L212.59843 70.86614 L212.59843 70.86614 L212.59843 70.96779 L212.59843 71.74202 L212.59843 73.191 L212.59843 75.21093 L212.59843 79.08426 L212.59843 85.27813 L212.59843 91.88723 L212.59843 98.08109 L212.59843 101.95442 L212.59843 103.97435 L212.59843 105.42333 L212.59843 106.19757 L212.59843 106.29921 L212.59843 106.29921 L212.49678 106.29921 L211.72255 106.29921 L210.27356 106.29921 L208.25364 106.29921 L204.38031 106.29921 L198.18644 106.29921 L191.57734 106.29921 L185.38347 106.29921 L181.51014 106.29921 L179.49022 106.29921 L178.04123 106.29921 L177.267 106.29921 L177.16535 106.29921 L177.16535 106.29921 L177.16535 106.19757 L177.16535 105.42333 L177.16535 103.97435 L177.16535 101.95442 L177.16535 98.08109 L177.16535 91.88723 L177.16535 85.27813 L177.16535 79.08426 L177.16535 75.21093 L177.16535 73.191 L177.16535 71.74202 L177.16535 70.96779 L177.16535 70.86614" />
    <path d="M210.61913 106.29921 L212.59843 110.2873 L212.59843 110.2873 L210.61913 106.29921 L210.61913 106.29921" />
    <path d="M202.70774 106.29921 L212.59843 126.22798 L212.59843 126.22798 L202.70774 106.29921 L202.70774 106.29921" />
    <path d="M194.79635 106.29921 L212.38185 141.73228 L212.38185 141.73228 L194.79635 106.29921 L194.79635 106.29921" />
    <path d="M186.88496 106.29921 L204.47046 141.73228 L204.47046 141.73228 L186.88496 106.29921 L186.88496 106.29921" />
    <path d="M178.97357 106.29921 L196.55907 141.73228 L196.55907 141.73228 L178.97357 106.29921 L178.97357 106.29921" />
    <path d="M177.16535 118.59652 L188.64768 141.73228 L188.64768 141.73228 L177.16535 118.59652 L177.16535 118.59652" />
    <path d="M177.16535 134.5372 L180.73629 141.73228 L180.73629 141.73228 L177.16535 134.5372 L177.16535 134.5372" />
    <path d="M177.16535 106.29921 L177.267 106.29921 L178.04123 106.29921 L179.49022 106.29921 L181.51014 106.29921 L185.38347 106.29921 L191.57734 106.29921 L198.18644 106.29921 L204.38031 106.29921 L208.25364 106.29921 L210.27356 106.29921 L211.72255 106.29921 L212.49678 106.29921 L212.59843 106.29921 L212.59843 106.29921 L212.59843 106.40086 L212.59843 107.17509 L212.59843 108.62408 L212.59843 110.644 L212.59843 114.51733 L212.59843 120.7112 L212.59843 127.3203 L212.59843 133.51416 L212.59843 137.38749 L212.59843 139.40742 L212.59843 140.8564 L212.59843 141.63064 L212.59843 141.73228 L212.59843 141.73228 L212.49678 141.73228 L211.72255 141.73228 L210.27356 141.73228 L208.25364 141.73228 L204.38031 141.73228 L198.18644 141.73228 L191.57734 141.73228 L185.38347 141.73228 L181.51014 141.73228 L179.49022 141.73228 L178.04123 141.73228 L177.267 141.73228 L177.16535 141.73228 L177.16535 141.73228 L177.16535 141.63064 L177.16535 140.8564 L177.16535 139.40742 L177.16535 137.38749 L177.16535 133.51416 L177.16535 127.3203 L177.16535 120.7112 L177.16535 114.51733 L177.16535 110.644 L177.16535 108.62408 L177.16535 107.17509 L177.16535 106.40086 L177.16535 106.29921" />
    <path d="M177.16535 152.91342 L183.07922 141.73228 L183.07922 141.73228 L177.16535 152.91342 L177.16535 152.91342" />
    <path d="M177.16535 168.07052 L191.09603 141.73228 L191.09603 141.73228 L177.16535 168.07052 L177.16535 168.07052" />
    <path d="M180.37177 177.16535 L199.11284 141.73228 L199.11284 141.73228 L180.37177 177.16535 L180.37177 177.16535" />
    <path d="M188.38858 177.16535 L207.12964 141.73228 L207.12964 141.73228 L188.38858 177.16535 L188.38858 177.16535" />
    <path d="M196.40539 177.16535 L212.59843 146.54975 L212.59843 146.54975 L196.40539 177.16535 L196.40539 177.16535" />
    <path d="M204.42219 177.16535 L212.59843 161.70684 L212.59843 161.70684 L204.42219 177.16535 L204.42219 177.16535" />
    <path d="M212.439 177.16535 L212.59843 176.86394 L212.59843 176.86394 L212.439 177.16535 L212.439 177.16535" />
    <path d="M177.16535 141.73228 L177.267 141.73228 L178.04123 141.73228 L179.49022 141.73228 L181.51014 141.73228 L185.38347 141.73228 L191.57734 141.73228 L198.18644 141.73228 L204.38031 141.73228 L208.25364 141.73228 L210.27356 141.73228 L211.72255 141.73228 L212.49678 141.73228 L212.59843 141.73228 L212.59843 141.73228 L212.59843 141.83393 L212.59843 142.60816 L212.59843 144.05715 L212.59843 146.07707 L212.59843 149.9504 L212.59843 156.14427 L212.59843 162.75337 L212.59843 168.94723 L212.59843 172.82056 L212.59843 174.84049 L212.59843 176.28948 L212.59843 177.06371 L212.59843 177.16535 L212.59843 177.16535 L212.49678 177.16535 L211.72255 177.16535 L210.27356 177.16535 L208.25364 177.16535 L204.38031 177.16535 L198.18644 177.16535 L191.57734 177.16535 L185.38347 177.16535 L181.51014 177.16535 L179.49022 177.16535 L178.04123 177.16535 L177.267 177.16535 L177.16535 177.16535 L177.16535 177.16535 L177.16535 177.06371 L177.16535 176.28948 L177.16535 174.84049 L177.16535 172.82056 L177.16535 168.94723 L177.16535 162.75337 L177.16535 156.14427 L177.16535 149.9504 L177.16535 146.07707 L177.16535 144.05715 L177.16535 142.60816 L177.16535 141.83393 L177.16535 141.73228" />
    <path d="M201.12623 177.16535 L212.59843 181.69999 L212.59843 181.69999 L201.12623 177.16535 L201.12623 177.16535" />
    <path d="M181.848 177.16535 L212.59843 189.32012 L212.59843 189.32012 L181.848 177.16535 L181.848 177.16535" />
    <path d="M177.16535 182.93457 L212.59843 196.94026 L212.59843 196.94026 L177.16535 182.93457 L177.16535 182.93457" />
    <path d="M177.16535 190.55471 L212.59843 204.5604 L212.59843 204.5604 L177.16535 190.55471 L177.16535 190.55471" />
    <path d="M177.16535 198.17484 L212.59843 212.18053 L212.59843 212.18053 L177.16535 198.17484 L177.16535 198.17484" />
    <path d="M177.16535 205.79498 L194.37743 212.59843 L194.37743 212.59843 L177.16535 205.79498 L177.16535 205.79498" />
    <path d="M177.16535 177.16535 L177.267 177.16535 L178.04123 177.16535 L179.49022 177.16535 L181.51014 177.16535 L185.38347 177.16535 L191.57734 177.16535 L198.18644 177.16535 L204.38031 177.16535 L208.25364 177.16535 L210.27356 177.16535 L211.72255 177.16535 L212.49678 177.16535 L212.59843 177.16535 L212.59843 177.16535 L212.59843 177.267 L212.59843 178.04123 L212.59843 179.49022 L212.59843 181.51014 L212.59843 185.38347 L212.59843 191.57734 L212.59843 198.18644 L212.59843 204.38031 L212.59843 208.25364 L212.59843 210.27356 L212.59843 211.72255 L212.59843 212.49678 L212.59843 212.59843 L212.59843 212.59843 L212.49678 212.59843 L211.72255 212.59843 L210.27356 212.59843 L208.25364 212.59843 L204.38031 212.59843 L198.18644 212.59843 L191.57734 212.59843 L185.38347 212.59843 L181.51014 212.59843 L179.49022 212.59843 L178.04123 212.59843 L177.267 212.59843 L177.16535 212.59843 L177.16535 212.59843 L177.16535 212.49678 L177.16535 211.72255 L177.16535 210.27356 L177.16535 208.25364 L177.16535 204.38031 L177.16535 198.18644 L177.16535 191.57734 L177.16535 185.38347 L177.16535 181.51014 L177.16535 179.49022 L177.16535 178.04123 L177.16535 177.267 L177.16535 177.16535" />
    <path d="M206.27541 212.59843 L212.59843 218.87214 L212.59843 218.87214 L206.27541 212.59843 L206.27541 212.59843" />
    <path d="M196.21396 212.59843 L212.59843 228.85512 L212.59843 228.85512 L196.21396 212.59843 L196.21396 212.59843" />
    <path d="M186.15252 212.59843 L212.59843 238.83811 L212.59843 238.83811 L186.15252 212.59843 L186.15252 212.59843" />
    <path d="M177.16535 213.66433 L211.80262 248.0315 L211.80262 248.0315 L177.16535 213.66433 L177.16535 213.66433" />
    <path d="M177.16535 223.64732 L201.74117 248.0315 L201.74117 248.0315 L177.16535 223.64732 L177.16535 223.64732" />
    <path d="M177.16535 233.63031 L191.67973 248.0315 L191.67973 248.0315 L177.16535 233.63031 L177.16535 233.63031" />
    <path d="M177.16535 243.61329 L181.61828 248.0315 L181.61828 248.0315 L177.16535 243.61329 L177.16535 243.61329" />
    <path d="M177.16535 212.59843 L177.267 212.59843 L178.04123 212.59843 L179.49022 212.59843 L181.51014 212.59843 L185.38347 212.59843 L191.57734 212.59843 L198.18644 212.59843 L204.38031 212.59843 L208.25364 212.59843 L210.27356 212.59843 L211.72255 212.59843 L212.49678 212.59843 L212.59843 212.59843 L212.59843 212.59843 L212.59843 212.70007 L212.59843 213.4743 L212.59843 214.92329 L212.59843 216.94322 L212.59843 220.81654 L212.59843 227.01041 L212.59843 233.61951 L212.59843 239.81338 L212.59843 243.68671 L212.59843 245.70663 L212.59843 247.15562 L212.59843 247.92985 L212.59843 248.0315 L212.59843 248.0315 L212.49678 248.0315 L211.72255 248.0315 L210.27356 248.0315 L208.25364 248.0315 L204.38031 248.0315 L198.18644 248.0315 L191.57734 248.0315 L185.38347 248.0315 L181.51014 248.0315 L179.49022 248.0315 L178.04123 248.0315 L177.267 248.0315 L177.16535 248.0315 L177.16535 248.0315 L177.16535 247.92985 L177.16535 247.15562 L177.16535 245.70663 L177.16535 243.68671 L177.16535 239.81338 L177.16535 233.61951 L177.16535 227.01041 L177.16535 220.81654 L177.16535 216.94322 L177.16535 214.92329 L177.16535 213.4743 L177.16535 212.70007 L177.16535 212.59843" />
    <path d="M177.16535 256.62709 L188.88508 248.0315 L188.88508 248.0315 L177.16535 256.62709 L177.16535 256.62709" />
    <path d="M177.16535 265.41541 L200.86756 248.0315 L200.86756 248.0315 L177.16535 265.41541 L177.16535 265.41541" />
    <path d="M177.16535 274.20373 L212.59843 248.21604 L212.59843 248.21604 L177.16535 274.20373 L177.16535 274.20373" />
    <path d="M177.16535 282.99204 L212.59843 257.00436 L212.59843 257.00436 L177.16535 282.99204 L177.16535 282.99204" />
    <path d="M188.50357 283.46457 L212.59843 265.79267 L212.59843 265.79267 L188.50357 283.46457 L188.50357 283.46457" />
    <path d="M200.48605 283.46457 L212.59843 274.58099 L212.59843 274.58099 L200.48605 283.46457 L200.48605 283.46457" />
    <path d="M212.46854 283.46457 L212.59843 283.3693 L212.59843 283.3693 L212.46854 283.46457 L212.46854 283.46457" />
    <path d="M177.16535 248.0315 L177.267 248.0315 L178.04123 248.0315 L179.49022 248.0315 L181.51014 248.0315 L185.38347 248.0315 L191.57734 248.0315 L198.18644 248.0315 L204.38031 248.0315 L208.25364 248.0315 L210.27356 248.0315 L211.72255 248.0315 L212.49678 248.0315 L212.59843 248.0315 L212.59843 248.0315 L212.59843 248.13314 L212.59843 248.90737 L212.59843 250.35636 L212.59843 252.37629 L212.59843 256.24962 L212.59843 262.44348 L212.59843 269.05258 L212.59843 275.24645 L212.59843 279.11978 L212.59843 281.1397 L212.59843 282.58869 L212.59843 283.36292 L212.59843 283.46457 L212.59843 283.46457 L212.49678 283.46457 L211.72255 283.46457 L210.27356 283.46457 L208.25364 283.46457 L204.38031 283.46457 L198.18644 283.46457 L191.57734 283.46457 L185.38347 283.46457 L181.51014 283.46457 L179.49022 283.46457 L178.04123 283.46457 L177.267 283.46457 L177.16535 283.46457 L177.16535 283.46457 L177.16535 283.36292 L177.16535 282.58869 L177.16535 281.1397 L177.16535 279.11978 L177.16535 275.24645 L177.16535 269.05258 L177.16535 262.44348 L177.16535 256.24962 L177.16535 252.37629 L177.16535 250.35636 L177.16535 248.90737 L177.16535 248.13314 L177.16535 248.0315" />
  </g>
</svg>