<?xml version="1.0" standalone="no"?>
<!DOCTYPE svg PUBLIC "-//W3C//DTD SVG 1.1//EN" 
    "http://www.w3.org/Graphics/SVG/1.1/DTD/svg11.dtd">
<svg width="2480px" height="3508px"
    xmlns="http://www.w3.org/2000/svg" version="1.1" viewBox="0 0 2480 3508">
  <g fill="none" stroke="black" stroke-width="1.06299px">
    <path d="M620 1134 L1860 1134" />
    <path d="M1860 1134 L1860 2374" />
    <path d="M1860 2374 L620 2374" />
    <path d="M620 2374 L620 1134" />
    <path d="M636.4252950967714 1139.6218441497845 L1856.3788412350605 1150.2682174578008" />
    <path d="M1856.3788412350605 1150.2682174578008 L1845.7324679270441 2370.2217635960897" />
    <path d="M1845.7324679270441 2370.2217635960897 L625.7789217887552 2359.5753902880733" />
    <path d="M625.7789217887552 2359.5753902880733 L636.4252950967714 1139.6218441497845" />
    <path d="M652.8797115715914 1145.308537215109 L1852.6969457592609 1166.2514249398491" />
    <path d="M1852.6969457592609 1166.2514249398491 L1831.7540580345208 2366.068659127519" />
    <path d="M1831.7540580345208 2366.068659127519 L631.9368238468512 2345.1257714027784" />
    <path d="M631.9368238468512 2345.1257714027784 L652.8797115715914 1145.308537215109" />
    <path d="M669.3626075960389 1151.0602533841234 L1848.9582510671964 1181.9490523874138" />
    <path d="M1848.9582510671964 1181.9490523874138 L1818.0694520639063 2361.5446958585712" />
    <path d="M1818.0694520639063 2361.5446958585712 L638.4738085927486 2330.655896855281" />
    <path d="M638.4738085927486 2330.655896855281 L669.3626075960389 1151.0602533841234" />
    <path d="M685.8733405249776 1156.8771605874963 L1845.1666998671287 1197.3605767623976" />
    <path d="M1845.1666998671287 1197.3605767623976 L1804.6832836922276 2356.653936104549" />
    <path d="M1804.6832836922276 2356.653936104549 L645.3899243500765 2316.1705199296475" />
    <path d="M645.3899243500765 2316.1705199296475 L685.8733405249776 1156.8771605874963" />
    <path d="M702.4112669568391 1162.7594204974757 L1841.3262395601569 1212.485522093959" />
    <path d="M1841.3262395601569 1212.485522093959 L1791.600137963674 2351.400494697277" />
    <path d="M1791.600137963674 2351.400494697277 L652.6851653603561 2301.6743931007936" />
    <path d="M652.6851653603561 2301.6743931007936 L702.4112669568391 1162.7594204974757" />
    <path d="M718.9757427938592 1168.707188527524 L1837.4408217189819 1227.3234595196213" />
    <path d="M1837.4408217189819 1227.3234595196213 L1778.8245507268848 2345.788538444744" />
    <path d="M1778.8245507268848 2345.788538444744 L660.3594718017621 2287.172267452647" />
    <path d="M660.3594718017621 2287.172267452647 L718.9757427938592 1168.707188527524" />
    <path d="M735.5661233022628 1174.7206138325282 L1833.5144015663163 1241.874007320871" />
    <path d="M1833.5144015663163 1241.874007320871 L1766.3610080779738 2339.8222855849244" />
    <path d="M1766.3610080779738 2339.8222855849244 L668.4127298139202 2272.6688920965817" />
    <path d="M668.4127298139202 2272.6688920965817 L735.5661233022628 1174.7206138325282" />
    <path d="M752.1817631723923 1180.799839309583 L1829.5509374530025 1256.1368309532381" />
    <path d="M1829.5509374530025 1256.1368309532381 L1754.213945809347 2333.5060052338486" />
    <path d="M1754.213945809347 2333.5060052338486 L676.8447715287369 2258.169013590193" />
    <path d="M676.8447715287369 2258.169013590193 L752.1817631723923 1180.799839309583" />
    <path d="M768.8220165787721 1186.9450015993457 L1825.5543903358875 1270.1116430708612" />
    <path d="M1825.5543903358875 1270.1116430708612 L1742.387748864372 2326.8440168279767" />
    <path d="M1742.387748864372 2326.8440168279767 L685.6553751072565 2243.677375356461" />
    <path d="M685.6553751072565 2243.677375356461 L768.8220165787721 1186.9450015993457" />
    <path d="M785.4862372401067 1193.1562310879638 L1821.528723255522 1283.7982035455284" />
    <path d="M1821.528723255522 1283.7982035455284 L1730.8867507979576 2319.8406895609437" />
    <path d="M1730.8867507979576 2319.8406895609437 L694.8442647825422 2229.1987171033793" />
    <path d="M694.8442647825422 2229.1987171033793 L785.4862372401067 1193.1562310879638" />
    <path d="M802.1737784792045 1199.4336519095718 L1817.477900813727 1297.1963194802001" />
    <path d="M1817.477900813727 1297.1963194802001 L1719.7152332430985 2312.5004418147228" />
    <path d="M1719.7152332430985 2312.5004418147228 L704.4111109085761 2214.737774244094" />
    <path d="M704.4111109085761 2214.737774244094 L802.1737784792045 1199.4336519095718" />
    <path d="M818.8839932828231 1205.7773819493564 L1813.4058886510966 1310.3058452170098" />
    <path d="M1813.4058886510966 1310.3058452170098 L1708.877425383443 2304.827740585283" />
    <path d="M1708.877425383443 2304.827740585283 L714.3555300151696 2200.2992773176297" />
    <path d="M714.3555300151696 2200.2992773176297 L818.8839932828231 1205.7773819493564" />
    <path d="M835.6162343614308 1212.187532847192 L1809.3166529244863 1323.1266823397405" />
    <path d="M1809.3166529244863 1323.1266823397405 L1698.3775034319378 2296.8271009027962" />
    <path d="M1698.3775034319378 2296.8271009027962 L724.6770848688822 2185.8879514102478" />
    <path d="M724.6770848688822 2185.8879514102478 L835.6162343614308 1212.187532847192" />
    <path d="M852.3698542088782 1218.6642100018396 L1805.2141597845473 1335.658779670781" />
    <path d="M1805.2141597845473 1335.658779670781 L1688.2195901156058 2288.50308524645" />
    <path d="M1688.2195901156058 2288.50308524645 L735.3752845399367 2171.5085155775087" />
    <path d="M735.3752845399367 2171.5085155775087 L852.3698542088782 1218.6642100018396" />
    <path d="M869.1442051619758 1225.2075125757135 L1801.1023748533576 1347.902133262562" />
    <path d="M1801.1023748533576 1347.902133262562 L1678.4077541665092 2279.8603029539436" />
    <path d="M1678.4077541665092 2279.8603029539436 L746.4495844751274 2157.1656822670952" />
    <path d="M746.4495844751274 2157.1656822670952 L869.1442051619758 1225.2075125757135" />
    <path d="M885.938639459971 1231.817533500212 L1796.9852627022158 1359.8567863834721" />
    <path d="M1796.9852627022158 1359.8567863834721 L1668.9460098189556 2270.903409625717" />
    <path d="M1668.9460098189556 2270.903409625717 L757.8993865767109 2142.8641567424565" />
    <path d="M757.8993865767109 2142.8641567424565 L885.938639459971 1231.817533500212" />
    <path d="M902.7525093039194 1238.4943594816089 L1792.8667863296446 1371.5228294982585" />
    <path d="M1792.8667863296446 1371.5228294982585 L1659.838316312995 2261.6371065239837" />
    <path d="M1659.838316312995 2261.6371065239837 L769.7240392872698 2128.6086365073343" />
    <path d="M769.7240392872698 2128.6086365073343 L902.7525093039194 1238.4943594816089" />
    <path d="M919.585166915946 1245.238071007508 L1788.7509066396674 1382.9004002429112" />
    <path d="M1788.7509066396674 1382.9004002429112 L1651.088577404264 2252.0661399666324" />
    <path d="M1651.088577404264 2252.0661399666324 L781.9228376805429 2114.4038107312294" />
    <path d="M781.9228376805429 2114.4038107312294 L919.585166915946 1245.238071007508" />
    <path d="M936.4359645983911 1252.0487423538566 L1784.6415819204103 1393.9896833940393" />
    <path d="M1784.6415819204103 1393.9896833940393 L1642.7006408802274 2242.1953007160582" />
    <path d="M1642.7006408802274 2242.1953007160582 L794.4950235582083 2100.2543596758755" />
    <path d="M794.4950235582083 2100.2543596758755 L936.4359645983911 1252.0487423538566" />
    <path d="M953.3042547928335 1258.926441592517 L1780.5427673230881 1404.7909108327385" />
    <path d="M1780.5427673230881 1404.7909108327385 L1634.6782980828666 2232.0294233629934" />
    <path d="M1634.6782980828666 2232.0294233629934 L807.439785552612 2086.1649541227716" />
    <path d="M807.439785552612 2086.1649541227716 L953.3042547928335 1258.926441592517" />
    <path d="M970.1893901389875 1265.871230599395 L1776.4584143414304 1415.3043615029558" />
    <path d="M1776.4584143414304 1415.3043615029558 L1627.0252834378693 2221.5733857053983" />
    <path d="M1627.0252834378693 2221.5733857053983 L820.7562592354266 2072.1402548018377" />
    <path d="M820.7562592354266 2072.1402548018377 L970.1893901389875 1265.871230599395" />
    <path d="M987.0907235334707 1272.8831650631232 L1772.392470291602 1425.5303613643591" />
    <path d="M1772.392470291602 1425.5303613643591 L1619.745273990366 2210.8321081224904" />
    <path d="M1619.745273990366 2210.8321081224904 L834.4435272322349 2058.1849118212544" />
    <path d="M834.4435272322349 2058.1849118212544 L987.0907235334707 1272.8831650631232" />
    <path d="M1004.0076081884315 1279.962294494298 L1768.3488777926786 1435.4692833397119" />
    <path d="M1768.3488777926786 1435.4692833397119 L1612.8418889472648 2199.810552943959" />
    <path d="M1612.8418889472648 2199.810552943959 L848.5006193430177 2044.3035640985452" />
    <path d="M848.5006193430177 2044.3035640985452 L1004.0076081884315 1279.962294494298" />
    <path d="M1020.9393976900365 1287.1086622352673 L1764.3315742477287 1445.1215472567644" />
    <path d="M1764.3315742477287 1445.1215472567644 L1606.3186892262315 2188.5137238144566" />
    <path d="M1606.3186892262315 2188.5137238144566 L862.9265126685393 2030.5008387929595" />
    <path d="M862.9265126685393 2030.5008387929595 L1020.9393976900365 1287.1086622352673" />
    <path d="M1037.885446056811 1294.3223054704686 L1760.3444913255616 1454.4876197846645" />
    <path d="M1760.3444913255616 1454.4876197846645 L1600.1791770113655 2176.946665053415" />
    <path d="M1600.1791770113655 2176.946665053415 L877.7201317426147 2016.781350739219" />
    <path d="M877.7201317426147 2016.781350739219 L1037.885446056811 1294.3223054704686" />
    <path d="M1054.8451077978261 1301.6032552373144 L1756.3915544431954 1463.5680143648974" />
    <path d="M1756.3915544431954 1463.5680143648974 L1594.4267953156127 2165.1144610102665" />
    <path d="M1594.4267953156127 2165.1144610102665 L892.8803486702433 2003.1497018826838" />
    <path d="M892.8803486702433 2003.1497018826838 L1054.8451077978261 1301.6032552373144" />
    <path d="M1071.8177379707297 1308.951536437626 L1752.4766822491033 1472.3632911367597" />
    <path d="M1752.4766822491033 1472.3632911367597 L1589.0649275499695 2153.0222354151333" />
    <path d="M1589.0649275499695 2153.0222354151333 L908.4059832715959 1989.6104807159995" />
    <path d="M908.4059832715959 1989.6104807159995 L1071.8177379707297 1308.951536437626" />
    <path d="M1088.8026922396134 1316.3671678496069 L1748.603786107291 1480.8740568573808" />
    <path d="M1748.603786107291 1480.8740568573808 L1584.0968970995168 2140.6751507250583" />
    <path d="M1584.0968970995168 2140.6751507250583 L924.2958032318394 1976.1682617172844" />
    <path d="M924.2958032318394 1976.1682617172844 L1088.8026922396134 1316.3671678496069" />
    <path d="M1105.7993269327133 1323.8501621403634 L1744.7767695822643 1489.100964816295" />
    <path d="M1744.7767695822643 1489.100964816295 L1579.525966906333 2128.078407465846" />
    <path d="M1579.525966906333 2128.078407465846 L940.5485242567819 1962.8276047899146" />
    <path d="M940.5485242567819 1962.8276047899146 L1105.7993269327133 1323.8501621403634" />
    <path d="M1122.806999099937 1331.4005258789625 L1740.9995279249406 1497.0447147445757" />
    <path d="M1740.9995279249406 1497.0447147445757 L1575.3553390593274 2115.2372435695793" />
    <path d="M1575.3553390593274 2115.2372435695793 L957.1628102343236 1949.5930547039661" />
    <path d="M957.1628102343236 1949.5930547039661 L1122.806999099937 1331.4005258789625" />
    <path d="M1139.8250665702144 1339.0182595500278 L1737.2759475595606 1504.7060527185472" />
    <path d="M1737.2759475595606 1504.7060527185472 L1571.5881543910414 2102.156933707893" />
    <path d="M1571.5881543910414 2102.156933707893 L974.1372734016951 1936.469140539374" />
    <path d="M974.1372734016951 1936.469140539374 L1139.8250665702144 1339.0182595500278" />
    <path d="M1156.8528880086642 1346.703357567873 L1733.6099055716554 1512.0857710580726" />
    <path d="M1733.6099055716554 1512.0857710580726 L1568.227492081456 2088.842788621064" />
    <path d="M1568.227492081456 2088.842788621064 L991.4704745184646 1923.4603751308643" />
    <path d="M991.4704745184646 1923.4603751308643 L1156.8528880086642 1346.703357567873" />
    <path d="M1173.8898229735732 1354.455808291168 L1730.0052691971252 1519.184708219443" />
    <path d="M1730.0052691971252 1519.184708219443 L1565.2763692688502 2075.3001544429953" />
    <path d="M1565.2763692688502 2075.3001544429953 L1009.1609230452981 1910.57125451472" />
    <path d="M1009.1609230452981 1910.57125451472 L1173.8898229735732 1354.455808291168" />
    <path d="M1190.935231973185 1362.2755940381376 L1726.465895312485 1526.00374868287" />
    <path d="M1726.465895312485 1526.00374868287 L1562.7377406677522 2061.53441202217" />
    <path d="M1562.7377406677522 2061.53441202217 L1027.2070773284524 1897.8062573774373" />
    <path d="M1027.2070773284524 1897.8062573774373 L1190.935231973185 1362.2755940381376" />
    <path d="M1207.988476522287 1370.1626911022875 L1722.9956299263295 1532.543822834595" />
    <path d="M1722.9956299263295 1532.543822834595 L1560.6144981940222 2047.5509762386375" />
    <path d="M1560.6144981940222 2047.5509762386375 L1045.6073447899796 1885.16984450633" />
    <path d="M1045.6073447899796 1885.16984450633 L1207.988476522287 1370.1626911022875" />
    <path d="M1225.0489191985996 1378.1170697686612 L1719.5983076720795 1538.8059068436337" />
    <path d="M1719.5983076720795 1538.8059068436337 L1558.9094705971067 2033.3552953171136" />
    <path d="M1558.9094705971067 2033.3552953171136 L1064.3600821236269 1872.6664582421408" />
    <path d="M1064.3600821236269 1872.6664582421408 L1225.0489191985996 1378.1170697686612" />
    <path d="M1242.1159236989547 1386.138694330617 L1716.2777513020542 1544.7910225331632" />
    <path d="M1716.2777513020542 1544.7910225331632 L1557.6254230995082 2018.952850136263" />
    <path d="M1557.6254230995082 2018.952850136263 L1083.4635954964085 1860.3005219337167" />
    <path d="M1083.4635954964085 1860.3005219337167 L1242.1159236989547 1386.138694330617" />
    <path d="M1259.188854895263 1394.2275231071326 L1713.0377711829349 1550.5002372465676" />
    <path d="M1713.0377711829349 1550.5002372465676 L1556.7650570434996 2004.3491535342396" />
    <path d="M1556.7650570434996 2004.3491535342396 L1102.9161407558277 1848.0764393948045" />
    <path d="M1102.9161407558277 1848.0764393948045 L1259.188854895263 1394.2275231071326" />
    <path d="M1276.267078890265 1402.3835084606235 L1709.8821647926673 1555.934663708158" />
    <path d="M1709.8821647926673 1555.934663708158 L1556.3310095451327 1989.5497496105602" />
    <path d="M1556.3310095451327 1989.5497496105602 L1122.7159236427306 1835.9985943630254" />
    <path d="M1122.7159236427306 1835.9985943630254 L1276.267078890265 1402.3835084606235" />
    <path d="M1293.349963073061 1410.6065968152852 L1706.8147162188607 1561.0954598785795" />
    <path d="M1706.8147162188607 1561.0954598785795 L1556.3258531555664 1974.5602130243792" />
    <path d="M1556.3258531555664 1974.5602130243792 L1142.8611000097667 1824.071349961085" />
    <path d="M1142.8611000097667 1824.071349961085 L1293.349963073061 1410.6065968152852" />
    <path d="M1310.4368761744095 1418.8967286759462 L1703.8391956587363 1565.9838288049225" />
    <path d="M1703.8391956587363 1565.9838288049225 L1556.75209552976 1959.3861482892494" />
    <path d="M1556.75209552976 1959.3861482892494 L1163.3497760454331 1812.2990481602733" />
    <path d="M1163.3497760454331 1812.2990481602733 L1310.4368761744095 1418.8967286759462" />
    <path d="M1327.527188321801 1427.253838647434 L1700.9593589206816 1570.6010184655538" />
    <path d="M1700.9593589206816 1570.6010184655538 L1557.6121791025616 1944.0331890644347" />
    <path d="M1557.6121791025616 1944.0331890644347 L1184.1800085036807 1800.6860092463146" />
    <path d="M1184.1800085036807 1800.6860092463146 L1327.527188321801 1427.253838647434" />
    <path d="M1344.6202710942912 1435.6778554544521 L1698.1789469274606 1574.948321609685" />
    <path d="M1698.1789469274606 1574.948321609685 L1558.9084807722277 1928.5069974428545" />
    <path d="M1558.9084807722277 1928.5069974428545 L1205.3498049390582 1789.2365312876216" />
    <path d="M1205.3498049390582 1789.2365312876216 L1344.6202710942912 1435.6778554544521" />
    <path d="M1361.7154975770957 1444.168701961965 L1695.5016852211393 1579.0270755916933" />
    <path d="M1695.5016852211393 1579.0270755916933 L1560.643311591411 1912.813263235737" />
    <path d="M1560.643311591411 1912.813263235737 L1226.8571239473674 1777.9548896060087" />
    <path d="M1226.8571239473674 1777.9548896060087 L1361.7154975770957 1444.168701961965" />
  </g>
</svg>