<?xml version="1.0" standalone="no"?>
<!DOCTYPE svg PUBLIC "-//W3C//DTD SVG 1.1//EN" 
    "http://www.w3.org/Graphics/SVG/1.1/DTD/svg11.dtd">
<svg width="21cm" height="29.7cm"
    xmlns="http://www.w3.org/2000/svg" version="1.1" viewBox="0 0 744.09449 1052.3622">
  <g fill="none" stroke="black" stroke-width="0.03cm">
    <path d="M650.81659 307.46232 L655.40884 313.44412 L664.16199 325.62339 L672.33989 338.07484 L679.9424 350.77999 L686.96938 363.72039 L693.42069 376.87756 L699.29618 390.23305 L704.59571 403.76838 L709.31915 417.46509 L713.46635 431.30471 L717.03717 445.26878 L720.03147 459.33883 L722.44911 473.49639 L724.28994 487.72301 L725.55383 502.0002 L726.24063 516.30951 L726.35021 530.63247 L725.88242 544.95061 L724.83711 559.24547 L723.21416 573.49858 L721.01341 587.69147 L718.23473 601.80569 L714.87798 615.82275 L710.94301 629.72421 L706.42968 643.49158 L701.33785 657.10641 L695.66738 670.55023 L689.41813 683.80456 L682.58996 696.85096 L675.18272 709.67094 L667.19628 722.24605 L658.6305 734.55782 L654.1303 740.60917" />
    <path d="M397.30485 208.28528 L403.01966 208.78799 L414.32352 210.07265 L425.45668 211.72327 L436.41553 213.73224 L447.19644 216.09196 L457.79579 218.7948 L468.20995 221.83317 L478.43531 225.19945 L488.46824 228.88603 L498.30512 232.8853 L507.94232 237.18966 L517.37622 241.79149 L526.60321 246.68318 L535.61965 251.85712 L544.42193 257.30571 L553.00642 263.02133 L561.36949 268.99638 L569.50754 275.22324 L577.41692 281.6943 L585.09403 288.40196 L592.53524 295.3386 L599.73692 302.49662 L606.69545 309.8684 L613.40721 317.44633 L619.86858 325.22281 L626.07594 333.19023 L632.02565 341.34097 L637.71411 349.66742 L643.13768 358.16199 L648.29274 366.81704 L653.17568 375.62499 L657.78286 384.57821 L662.11067 393.6691 L666.15548 402.89004 L669.91367 412.23343 L673.38161 421.69166 L676.55569 431.25711 L679.43229 440.92218 L682.00777 450.67926 L684.27852 460.52074 L686.24091 470.439 L687.89132 480.42645 L689.22613 490.47546 L690.24171 500.57843 L690.93445 510.72774 L691.30071 520.9158 L691.33689 531.13498 L691.03934 541.37769 L690.40446 551.6363 L689.42862 561.90321 L688.10819 572.17082 L686.43956 582.4315 L684.4191 592.67765 L682.04318 602.90166 L679.30819 613.09593 L676.2105 623.25283 L672.7465 633.36476 L668.91254 643.42412 L664.70503 653.42328 L660.12032 663.35465 L655.1548 673.2106 L649.80485 682.98354 L644.06684 692.66586 L637.93716 702.24993 L634.7243 707.00275 L634.7243 707.00275 L632.19915 710.61735 L627.01234 717.72428 L621.64701 724.66612 L616.10732 731.44042 L610.39744 738.04474 L604.52153 744.47661 L598.48376 750.73358 L592.28829 756.81321 L585.93928 762.71304 L579.4409 768.43062 L572.79731 773.96349 L566.01269 779.30921 L559.09119 784.46532 L552.03697 789.42938 L544.85421 794.19892 L537.54706 798.7715 L530.1197 803.14466 L522.57628 807.31596 L514.92097 811.28293 L507.15794 815.04314 L499.29135 818.59412 L491.32537 821.93342 L483.26415 825.05859 L475.11187 827.96719 L466.87269 830.65675 L458.55077 833.12483 L450.15027 835.36897 L441.67537 837.38673 L433.13023 839.17564 L424.51901 840.73326 L415.84587 842.05714 L407.11499 843.14482 L402.72919 843.59931" />
    <path d="M90.36635 557.93068 L89.83805 552.85868 L89.0464 542.77716 L88.60298 532.78267 L88.50176 522.87966 L88.73672 513.07258 L89.30183 503.36587 L90.19107 493.76399 L91.3984 484.27138 L92.9178 474.8925 L94.74323 465.63178 L96.86868 456.49369 L99.28812 447.48267 L101.99551 438.60317 L104.98483 429.85963 L108.25005 421.25652 L111.78514 412.79827 L115.58409 404.48933 L119.64085 396.33416 L123.9494 388.33719 L128.50372 380.5029 L133.29777 372.83571 L138.32553 365.34008 L143.58097 358.02046 L149.05807 350.8813 L154.75079 343.92704 L160.65311 337.16214 L166.759 330.59104 L173.06243 324.2182 L179.55738 318.04806 L186.23782 312.08507 L193.09771 306.33368 L200.13104 300.79834 L207.33177 295.4835 L214.69388 290.39361 L222.21134 285.53311 L229.87812 280.90646 L237.6882 276.5181 L245.63554 272.37248 L253.71412 268.47406 L261.91791 264.82728 L270.24089 261.43658 L278.67703 258.30643 L287.22029 255.44126 L295.86465 252.84553 L304.60409 250.52369 L313.43257 248.48018 L322.34407 246.71945 L331.33256 245.24596 L340.39202 244.06415 L349.51641 243.17847 L358.69971 242.59337 L367.93588 242.3133 L377.21892 242.3427 L386.54277 242.68603 L395.90142 243.34774 L405.28885 244.33227 L414.69901 245.64407 L424.12589 247.2876 L433.56346 249.2673 L443.00569 251.58761 L452.44654 254.253 L461.88001 257.2679 L471.30004 260.63678 L480.70063 264.36406 L485.39175 266.3635 L485.39175 266.3635 L488.86436 267.90555 L495.71576 271.11052 L502.4411 274.47393 L509.0392 277.99251 L515.50885 281.66299 L521.8489 285.48211 L528.05813 289.44661 L534.13539 293.55321 L540.07947 297.79865 L545.88919 302.17967 L551.56338 306.69299 L557.10083 311.33536 L562.50038 316.1035 L567.76084 320.99414 L572.88102 326.00404 L577.85973 331.1299 L582.6958 336.36848 L587.38804 341.7165 L591.93526 347.1707 L596.33628 352.72782 L600.58991 358.38457 L604.69497 364.13771 L610.57141 372.94098 L617.87561 384.98552 L624.56421 397.35678 L630.62774 410.02863 L636.05672 422.97496 L640.84167 436.16961 L644.97312 449.58647 L648.44159 463.19941 L651.2376 476.98229 L653.35169 490.90898 L654.48404 501.43266 L655.0209 508.47979 L655.38194 515.54816 L655.566 522.63453 L655.57186 529.73562 L655.39837 536.84816 L655.04432 543.9689 L654.50854 551.09457 L653.78984 558.22189 L652.88703 565.3476 L651.79894 572.46844 L650.52437 579.58114 L649.06214 586.68243 L647.41108 593.76905 L645.56999 600.83773 L643.53768 607.8852 L641.31298 614.90821 L638.89471 621.90347 L636.28166 628.86774 L633.47267 635.79773 L630.46655 642.69018 L627.26211 649.54184 L625.58515 652.95134" />
    <path d="M614.5889 578.07684 L613.61845 582.43204 L611.47508 591.01701 L609.06693 599.43303 L606.40025 607.67811 L603.48128 615.75021 L600.31624 623.64732 L596.91139 631.36742 L593.27294 638.9085 L589.40715 646.26854 L585.32025 653.44553 L581.01848 660.43743 L576.50806 667.24225 L571.79525 673.85795 L566.88628 680.28253 L561.78738 686.51396 L556.50479 692.55023 L551.04475 698.38932 L545.41349 704.02922 L539.61726 709.4679 L533.66229 714.70335 L527.55482 719.73355 L521.30108 724.55649 L514.90731 729.17014 L508.37975 733.5725 L501.72464 737.76153 L494.9482 741.73524 L488.05669 745.49159 L481.05634 749.02857 L473.95338 752.34416 L466.75405 755.43636 L459.46459 758.30313 L452.09123 760.94246 L444.64022 763.35234 L437.11779 765.53074 L429.53017 767.47566 L421.88361 769.18507 L414.18434 770.65695 L406.4386 771.88929 L398.65262 772.88008 L390.83264 773.62728 L382.98491 774.1289 L375.11565 774.3829 L367.2311 774.38728 L359.33751 774.14001 L351.4411 773.63907 L343.54812 772.88246 L335.6648 771.86815 L327.79738 770.59413 L319.9521 769.05837 L312.13519 767.25887 L304.35289 765.19359 L296.61144 762.86054 L288.91707 760.25769 L281.27602 757.38301 L273.69454 754.2345 L266.17885 750.81014 L258.73519 747.10791 L251.36981 743.1258 L244.08893 738.86177 L236.89879 734.31383 L229.80564 729.47995 L222.81571 724.35811 L215.93523 718.9463 L209.17045 713.2425 L205.83339 710.28047 L205.83339 710.28047 L202.5469 707.26243 L196.18379 701.11374 L190.09937 694.82021 L184.29226 688.38826 L178.76111 681.8243 L173.50453 675.13475 L168.52115 668.326 L163.8096 661.40448 L159.36851 654.37658 L155.19652 647.24873 L151.29224 640.02733 L147.6543 632.71879 L144.28134 625.32953 L141.17198 617.86594 L138.32485 610.33445 L135.73858 602.74146 L133.4118 595.09338 L131.34314 587.39662 L129.53121 579.6576 L127.97467 571.88272 L126.67212 564.07839 L125.62221 556.25102 L124.82355 548.40703 L124.27478 540.55282 L123.97452 532.6948 L123.92141 524.83939 L124.11407 516.99299 L124.55113 509.16201 L125.23122 501.35287 L126.15297 493.57198 L127.315 485.82573 L128.71595 478.12055 L130.35444 470.46285 L132.2291 462.85903 L134.33856 455.3155 L136.68145 447.83868 L139.2564 440.43497 L142.06203 433.11079 L145.09698 425.87255 L148.35986 418.72664 L151.84932 411.6795 L155.56398 404.73752 L159.50246 397.90712 L163.6634 391.1947 L168.04543 384.60667 L172.64716 378.14946 L177.46724 371.82946 L182.50429 365.65308 L187.75693 359.62675 L193.22381 353.75686 L198.90353 348.04982 L204.79474 342.51206 L210.89606 337.14997 L217.20613 331.96996 L223.72356 326.97846 L230.44699 322.18186 L237.37504 317.58658 L244.50635 313.19903 L251.83954 309.02561 L259.37324 305.07275 L267.10608 301.34684 L275.03669 297.8543 L283.16369 294.60153 L291.48572 291.59496 L295.71944 290.186" />
    <path d="M191.00243 637.63004 L189.02511 634.35627 L185.27023 627.76656 L181.77946 621.12479 L178.55016 614.43588 L175.57963 607.70478 L172.86521 600.93645 L170.40423 594.13581 L168.19402 587.30781 L166.2319 580.4574 L164.51522 573.58952 L163.04128 566.70911 L161.80743 559.82111 L160.81099 552.93048 L160.0493 546.04215 L159.51967 539.16106 L159.21945 532.29216 L159.14595 525.4404 L159.29651 518.6107 L159.66846 511.80803 L160.25912 505.03732 L161.06583 498.30352 L162.08591 491.61156 L163.31669 484.9664 L164.7555 478.37297 L166.39968 471.83622 L168.24654 465.36109 L170.29342 458.95252 L172.53765 452.61547 L174.97655 446.35486 L177.60746 440.17565 L180.4277 434.08278 L183.43461 428.08119 L186.6255 422.17582 L189.99772 416.37162 L193.54859 410.67354 L197.27544 405.0865 L201.17559 399.61547 L205.24638 394.26537 L209.48514 389.04116 L213.88919 383.94778 L218.45586 378.99017 L223.18249 374.17327 L228.06639 369.50203 L233.10491 364.98139 L238.29537 360.6163 L243.63509 356.41169 L249.12142 352.37251 L254.75166 348.50371 L260.52317 344.81022 L266.43326 341.297 L272.47926 337.96897 L278.6585 334.8311 L284.96831 331.88831 L291.40603 329.14556 L297.96897 326.60778 L304.65447 324.27993 L311.45985 322.16694 L318.38246 320.27375 L325.4196 318.60531 L332.56862 317.16657 L339.82685 315.96247 L347.1916 314.99794 L354.66022 314.27794 L362.23002 313.8074 L366.05203 313.66723 L366.05203 313.66723 L369.87587 313.5917 L377.46016 313.63473 L384.95749 313.93253 L392.36491 314.48032 L399.67947 315.27331 L406.89824 316.30673 L414.01825 317.57578 L421.03658 319.07568 L427.95026 320.80164 L434.75637 322.74889 L441.45194 324.91263 L448.03405 327.28808 L454.49973 329.87046 L460.84605 332.65497 L467.07006 335.63685 L473.16881 338.8113 L479.13936 342.17353 L484.97877 345.71876 L490.68408 349.44221 L496.25236 353.3391 L501.68065 357.40463 L506.96601 361.63402 L512.1055 366.02249 L517.09617 370.56526 L521.93508 375.25753 L526.61928 380.09452 L531.14581 385.07145 L535.51175 390.18354 L539.71414 395.426 L543.75004 400.79403 L547.6165 406.28287 L551.31058 411.88772 L554.82933 417.60381 L558.1698 423.42633 L561.32906 429.35052 L564.30415 435.37158 L567.09213 441.48473 L569.69005 447.68518 L572.09497 453.96816 L574.30394 460.32887 L576.31402 466.76253 L578.12227 473.26435 L579.72572 479.82956 L581.12145 486.45337 L582.30651 493.13098 L583.27794 499.85762 L584.03281 506.62851 L584.56817 513.43885 L584.88107 520.28386 L584.96857 527.15876 L584.82772 534.05876 L584.45558 540.97908 L583.8492 547.91493 L583.00564 554.86153 L581.92195 561.81409 L580.59518 568.76783 L579.02239 575.71797 L577.20064 582.65971 L575.12697 589.58827 L572.79845 596.49888 L570.21212 603.38674 L567.36505 610.24707 L564.25428 617.07508 L560.87688 623.86599 L559.08726 627.24604" />
    <path d="M321.65128 696.02753 L316.35724 694.36634 L305.99479 690.57443 L295.95152 686.1746 L286.24938 681.18858 L276.91035 675.63813 L267.95637 669.545 L259.40943 662.93092 L251.29147 655.81765 L243.62447 648.22692 L236.43039 640.18049 L229.73119 631.7001 L223.54884 622.80749 L217.9053 613.52441 L212.82254 603.87261 L208.32251 593.87383 L204.42719 583.54981 L202.71315 578.27264" />
    <path d="M317.73227 395.26921 L322.46112 393.40029 L331.93977 390.20166 L341.42651 387.70678 L350.89758 385.89741 L360.32917 384.75534 L369.69751 384.26232 L378.97881 384.40014 L388.14929 385.15055 L397.18517 386.49535 L406.06264 388.41628 L414.75794 390.89514 L423.24728 393.91368 L431.50687 397.45368 L439.51293 401.49692 L447.24167 406.02515 L454.66931 411.02016 L461.77206 416.46371 L468.52614 422.33758 L474.90776 428.62353 L480.89314 435.30335 L486.45849 442.35879 L491.58004 449.77163 L496.23398 457.52365 L500.39655 465.59661 L504.04395 473.97228 L507.1524 482.63244 L509.69811 491.55885 L511.65731 500.7333 L513.00619 510.13754 L513.72099 519.75336 L513.77792 529.56252 L513.15318 539.54679 L512.57776 544.5989 L512.57776 544.5989 L512.09299 547.98499 L510.89171 554.66963 L509.38808 561.23188 L507.5901 567.66499 L505.50578 573.96219 L503.14312 580.11672 L500.51011 586.12182 L497.61477 591.97072 L494.46508 597.65667 L491.06905 603.17289 L487.43468 608.51263 L483.56997 613.66912 L479.48292 618.6356 L475.18153 623.40531 L470.67381 627.97149 L465.96775 632.32736 L461.07136 636.46618 L455.99263 640.38117 L450.73956 644.06557 L445.32016 647.51262 L439.74243 650.71557 L434.01437 653.66763 L428.14398 656.36206 L422.13925 658.79209 L416.0082 660.95095 L409.75882 662.83188 L403.39911 664.42813 L396.93707 665.73292 L390.3807 666.7395 L383.73801 667.4411 L377.01699 667.83096 L370.22565 667.90232 L366.80611 667.81645" />
    <path d="M478.32956 528.07606 L478.19713 531.88734 L477.55527 539.36268 L476.42715 546.63267 L474.83243 553.68641 L472.79078 560.51301 L470.32185 567.10159 L467.44531 573.44126 L464.18081 579.52112 L460.54802 585.3303 L456.5666 590.85789 L452.2562 596.09302 L447.6365 601.02479 L442.72716 605.64232 L437.54782 609.93471 L432.11816 613.89108 L426.45784 617.50054 L420.58651 620.75219 L414.52384 623.63516 L408.2895 626.13855 L401.90313 628.25148 L395.3844 629.96304 L388.75298 631.26237 L382.02852 632.13856 L375.23069 632.58073 L368.37915 632.57798 L361.49355 632.11944 L354.59356 631.19421 L347.69884 629.79141 L340.82906 627.90014 L334.00386 625.50951 L327.24292 622.60864 L320.5659 619.18664 L317.265 617.27681 L317.265 617.27681 L314.03056 615.25648 L307.87765 610.96294 L302.14572 606.35097 L296.83436 601.44304 L291.94317 596.26161 L287.47176 590.82916 L283.41972 585.16817 L279.78665 579.3011 L276.57215 573.25042 L273.77582 567.03861 L271.39727 560.68814 L269.43608 554.22148 L267.89186 547.66109 L266.7642 541.02946 L266.05272 534.34905 L265.757 527.64234 L265.87664 520.9318 L266.41125 514.23989 L267.36043 507.58909 L268.72377 501.00187 L270.50087 494.5007 L272.69133 488.10806 L275.29476 481.84642 L278.31074 475.73824 L281.73889 469.806 L285.5788 464.07216 L289.83006 458.55921 L294.49229 453.28962 L299.56507 448.28584 L305.04801 443.57036 L310.94071 439.16565 L317.24276 435.09418 L320.54717 433.19043" />
    <path d="M327.64952 581.41562 L326.13456 580.16381 L323.2369 577.56471 L320.51593 574.84467 L317.97207 572.01133 L315.60574 569.07231 L313.41739 566.03525 L311.40743 562.90779 L309.5763 559.69756 L307.92442 556.41218 L306.45222 553.0593 L305.16013 549.64655 L304.04858 546.18157 L303.11798 542.67198 L302.36878 539.12542 L301.8014 535.54952 L301.41627 531.95192 L301.21382 528.34025 L301.19446 524.72215 L301.35864 521.10524 L301.70678 517.49717 L302.2393 513.90556 L302.95664 510.33805 L303.85923 506.80228 L304.94748 503.30587 L306.22183 499.85646 L307.68271 496.46169 L309.33055 493.12919 L311.16577 489.86658 L313.18879 486.68151 L315.40006 483.58161 L317.79999 480.57452 L320.38902 477.66786 L321.75458 476.25458" />
    <path d="M369.02966 490.87676 L371.55433 490.7467 L376.45158 490.99448 L381.11748 491.87846 L385.51777 493.34949 L389.61816 495.3584 L393.38437 497.85603 L396.78212 500.79322 L399.77714 504.1208 L402.33515 507.78961 L404.42186 511.75049 L406.00301 515.95427 L407.04432 520.35179 L407.51149 524.89389 L407.37027 529.5314 L406.58636 534.21516 L405.1255 538.896 L404.13049 541.21997 L404.13049 541.21997 L403.13021 543.19145 L400.77351 546.92488 L399.42399 548.67591" />
  </g>
</svg>