<?xml version="1.0" standalone="no"?>
<!DOCTYPE svg PUBLIC "-//W3C//DTD SVG 1.1//EN" 
    "http://www.w3.org/Graphics/SVG/1.1/DTD/svg11.dtd">
<svg width="5in" height="7in"
    xmlns="http://www.w3.org/2000/svg" version="1.1" viewBox="0 0 450 630">
  <g fill="none" stroke="black" stroke-width="0.01181in">
    <path d="M56.25 56.25 L56.25 56.68775" />
    <path d="M56.25 61.18775 L56.25 123.75" />
    <path d="M63 56.25 L63 88.63811" />
    <path d="M63 93.13811 L63 123.75" />
    <path d="M69.75 56.25 L69.75 123.75" />
    <path d="M76.5 56.25 L76.5 118.32974" />
    <path d="M76.5 122.82974 L76.5 123.75" />
    <path d="M83.25 56.25 L83.25 94.42541" />
    <path d="M83.25 98.92541 L83.25 123.75" />
    <path d="M90 56.25 L90 78.60153" />
    <path d="M90 83.10153 L90 96.19378" />
    <path d="M90 100.69378 L90 123.75" />
    <path d="M96.75 56.25 L96.75 84.7682" />
    <path d="M96.75 89.2682 L96.75 123.75" />
    <path d="M103.5 56.25 L103.5 79.26347" />
    <path d="M103.5 83.76347 L103.5 123.75" />
    <path d="M110.25 56.25 L110.25 88.54184" />
    <path d="M110.25 93.04184 L110.25 123.75" />
    <path d="M117 56.25 L117 57.11631" />
    <path d="M117 61.61631 L117 109.56176" />
    <path d="M117 114.06176 L117 123.75" />
    <path d="M123.75 56.25 L123.75 61.43084" />
    <path d="M123.75 65.93084 L123.75 93.79881" />
    <path d="M123.75 98.29881 L123.75 113.51078" />
    <path d="M123.75 118.01078 L123.75 123.75" />
    <path d="M56.25 146.25 L56.25 183.80733" />
    <path d="M56.25 188.30733 L56.25 202.19358" />
    <path d="M56.25 206.69358 L56.25 213.75" />
    <path d="M63 146.25 L63 213.75" />
    <path d="M69.75 146.25 L69.75 147.27253" />
    <path d="M69.75 151.77253 L69.75 151.78957" />
    <path d="M69.75 156.28957 L69.75 187.32574" />
    <path d="M69.75 191.82574 L69.75 213.75" />
    <path d="M76.5 146.25 L76.5 201.70654" />
    <path d="M76.5 206.20654 L76.5 213.75" />
    <path d="M83.25 146.25 L83.25 203.22663" />
    <path d="M83.25 207.72663 L83.25 213.75" />
    <path d="M90 146.25 L90 205.735" />
    <path d="M90 210.235 L90 213.75" />
    <path d="M96.75 146.25 L96.75 147.26622" />
    <path d="M96.75 151.76622 L96.75 155.13187" />
    <path d="M96.75 159.63187 L96.75 165.19917" />
    <path d="M96.75 169.69917 L96.75 213.75" />
    <path d="M103.5 146.25 L103.5 206.60421" />
    <path d="M103.5 211.10421 L103.5 213.75" />
    <path d="M110.25 146.25 L110.25 156.57303" />
    <path d="M110.25 161.07303 L110.25 181.54793" />
    <path d="M110.25 186.04793 L110.25 213.75" />
    <path d="M117 146.25 L117 154.46354" />
    <path d="M117 158.96354 L117 213.75" />
    <path d="M123.75 146.25 L123.75 199.01348" />
    <path d="M123.75 203.51348 L123.75 213.75" />
    <path d="M56.25 236.25 L56.25 245.9121" />
    <path d="M56.25 250.4121 L56.25 303.75" />
    <path d="M63 236.25 L63 287.15955" />
    <path d="M63 291.65955 L63 303.75" />
    <path d="M69.75 236.25 L69.75 294.37499" />
    <path d="M69.75 298.87499 L69.75 303.75" />
    <path d="M76.5 236.25 L76.5 260.25325" />
    <path d="M76.5 264.75325 L76.5 303.75" />
    <path d="M83.25 236.25 L83.25 293.98506" />
    <path d="M83.25 298.48506 L83.25 303.75" />
    <path d="M90 236.25 L90 245.85713" />
    <path d="M90 250.35713 L90 281.34456" />
    <path d="M90 285.84456 L90 303.75" />
    <path d="M96.75 236.25 L96.75 303.75" />
    <path d="M103.5 236.25 L103.5 272.15569" />
    <path d="M103.5 276.65569 L103.5 303.75" />
    <path d="M110.25 236.25 L110.25 277.42959" />
    <path d="M110.25 281.92959 L110.25 286.15752" />
    <path d="M110.25 290.65752 L110.25 303.75" />
    <path d="M117 236.25 L117 269.42705" />
    <path d="M117 273.92705 L117 303.75" />
    <path d="M123.75 236.25 L123.75 303.75" />
    <path d="M56.25 326.25 L56.25 347.56985" />
    <path d="M56.25 352.06985 L56.25 393.75" />
    <path d="M63 326.25 L63 388.27253" />
    <path d="M63 392.77253 L63 393.75" />
    <path d="M69.75 326.25 L69.75 328.64477" />
    <path d="M69.75 333.14477 L69.75 369.68765" />
    <path d="M69.75 374.18765 L69.75 393.75" />
    <path d="M76.5 326.25 L76.5 379.00799" />
    <path d="M76.5 383.50799 L76.5 393.75" />
    <path d="M83.25 326.25 L83.25 358.44711" />
    <path d="M83.25 362.94711 L83.25 393.75" />
    <path d="M90 326.25 L90 377.4061" />
    <path d="M90 381.9061 L90 393.75" />
    <path d="M96.75 326.25 L96.75 341.94083" />
    <path d="M96.75 346.44083 L96.75 352.80104" />
    <path d="M96.75 357.30104 L96.75 386.28713" />
    <path d="M96.75 390.78713 L96.75 393.75" />
    <path d="M103.5 326.25 L103.5 345.16897" />
    <path d="M103.5 349.66897 L103.5 368.39379" />
    <path d="M103.5 372.89379 L103.5 380.5594" />
    <path d="M103.5 385.0594 L103.5 393.75" />
    <path d="M110.25 326.25 L110.25 374.59337" />
    <path d="M110.25 379.09337 L110.25 393.75" />
    <path d="M117 326.25 L117 345.3942" />
    <path d="M117 349.8942 L117 382.46582" />
    <path d="M117 386.96582 L117 393.75" />
    <path d="M123.75 326.25 L123.75 369.9033" />
    <path d="M123.75 374.4033 L123.75 393.75" />
    <path d="M56.25 416.25 L56.25 448.57829" />
    <path d="M56.25 453.07829 L56.25 456.1582" />
    <path d="M56.25 460.6582 L56.25 483.75" />
    <path d="M63 416.25 L63 421.60249" />
    <path d="M63 426.10249 L63 466.4386" />
    <path d="M63 470.9386 L63 483.75" />
    <path d="M69.75 416.25 L69.75 439.3266" />
    <path d="M69.75 443.8266 L69.75 455.57158" />
    <path d="M69.75 460.07158 L69.75 483.75" />
    <path d="M76.5 416.25 L76.5 483.75" />
    <path d="M83.25 416.25 L83.25 457.67494" />
    <path d="M83.25 462.17494 L83.25 483.75" />
    <path d="M90 416.25 L90 443.99548" />
    <path d="M90 448.49548 L90 483.75" />
    <path d="M96.75 416.25 L96.75 472.28338" />
    <path d="M96.75 476.78338 L96.75 483.75" />
    <path d="M103.5 416.25 L103.5 459.32155" />
    <path d="M103.5 463.82155 L103.5 483.75" />
    <path d="M110.25 416.25 L110.25 474.07344" />
    <path d="M110.25 478.57344 L110.25 483.75" />
    <path d="M117 416.25 L117 429.26473" />
    <path d="M117 433.76473 L117 473.36555" />
    <path d="M117 477.86555 L117 483.75" />
    <path d="M123.75 416.25 L123.75 472.46784" />
    <path d="M123.75 476.96784 L123.75 483.75" />
    <path d="M56.25 506.25 L56.25 573.75" />
    <path d="M63 506.25 L63 539.8528" />
    <path d="M63 544.3528 L63 573.75" />
    <path d="M69.75 506.25 L69.75 573.75" />
    <path d="M76.5 506.25 L76.5 547.7783" />
    <path d="M76.5 552.2783 L76.5 573.75" />
    <path d="M83.25 506.25 L83.25 515.79176" />
    <path d="M83.25 520.29176 L83.25 553.62034" />
    <path d="M83.25 558.12034 L83.25 573.75" />
    <path d="M90 506.25 L90 561.95422" />
    <path d="M90 566.45422 L90 573.75" />
    <path d="M96.75 506.25 L96.75 545.76001" />
    <path d="M96.75 550.26001 L96.75 563.41425" />
    <path d="M96.75 567.91425 L96.75 573.75" />
    <path d="M103.5 506.25 L103.5 529.80464" />
    <path d="M103.5 534.30464 L103.5 573.75" />
    <path d="M110.25 506.25 L110.25 539.16646" />
    <path d="M110.25 543.66646 L110.25 573.75" />
    <path d="M117 506.25 L117 511.95593" />
    <path d="M117 516.45593 L117 556.62442" />
    <path d="M117 561.12442 L117 573.75" />
    <path d="M123.75 506.25 L123.75 518.81377" />
    <path d="M123.75 523.31377 L123.75 565.2641" />
    <path d="M123.75 569.7641 L123.75 573.75" />
    <path d="M146.25 56.25 L146.25 72.49674" />
    <path d="M146.25 76.99674 L146.25 107.04491" />
    <path d="M146.25 111.54491 L146.25 123.75" />
    <path d="M153 56.25 L153 61.44034" />
    <path d="M153 65.94034 L153 74.28851" />
    <path d="M153 78.78851 L153 96.39659" />
    <path d="M153 100.89659 L153 123.75" />
    <path d="M159.75 56.25 L159.75 101.92366" />
    <path d="M159.75 106.42366 L159.75 123.75" />
    <path d="M166.5 56.25 L166.5 118.30841" />
    <path d="M166.5 122.80841 L166.5 123.75" />
    <path d="M173.25 56.25 L173.25 117.05979" />
    <path d="M173.25 121.55979 L173.25 123.75" />
    <path d="M180 56.25 L180 66.65471" />
    <path d="M180 71.15471 L180 123.75" />
    <path d="M186.75 56.25 L186.75 123.75" />
    <path d="M193.5 56.25 L193.5 99.72569" />
    <path d="M193.5 104.22569 L193.5 123.75" />
    <path d="M200.25 56.25 L200.25 71.50436" />
    <path d="M200.25 76.00436 L200.25 86.0049" />
    <path d="M200.25 90.5049 L200.25 123.75" />
    <path d="M207 56.25 L207 88.57334" />
    <path d="M207 93.07334 L207 114.45187" />
    <path d="M207 118.95187 L207 123.75" />
    <path d="M213.75 56.25 L213.75 99.8095" />
    <path d="M213.75 104.3095 L213.75 123.75" />
    <path d="M146.25 146.25 L146.25 189.5161" />
    <path d="M146.25 194.0161 L146.25 213.75" />
    <path d="M153 146.25 L153 148.93276" />
    <path d="M153 153.43276 L153 213.75" />
    <path d="M159.75 146.25 L159.75 185.39294" />
    <path d="M159.75 189.89294 L159.75 213.75" />
    <path d="M166.5 146.25 L166.5 160.02794" />
    <path d="M166.5 164.52794 L166.5 166.16044" />
    <path d="M166.5 170.66044 L166.5 183.3543" />
    <path d="M166.5 187.8543 L166.5 205.57817" />
    <path d="M166.5 210.07817 L166.5 213.75" />
    <path d="M173.25 146.25 L173.25 200.60795" />
    <path d="M173.25 205.10795 L173.25 213.75" />
    <path d="M180 146.25 L180 213.75" />
    <path d="M186.75 146.25 L186.75 197.60844" />
    <path d="M186.75 202.10844 L186.75 208.29132" />
    <path d="M186.75 212.79132 L186.75 213.75" />
    <path d="M193.5 146.25 L193.5 200.73776" />
    <path d="M193.5 205.23776 L193.5 213.75" />
    <path d="M200.25 146.25 L200.25 203.15987" />
    <path d="M200.25 207.65987 L200.25 213.75" />
    <path d="M207 146.25 L207 188.73909" />
    <path d="M207 193.23909 L207 213.75" />
    <path d="M213.75 146.25 L213.75 197.60962" />
    <path d="M213.75 202.10962 L213.75 213.75" />
    <path d="M146.25 236.25 L146.25 258.45375" />
    <path d="M146.25 262.95375 L146.25 303.75" />
    <path d="M153 236.25 L153 253.91474" />
    <path d="M153 258.41474 L153 292.8368" />
    <path d="M153 297.3368 L153 303.75" />
    <path d="M159.75 236.25 L159.75 269.97605" />
    <path d="M159.75 274.47605 L159.75 303.75" />
    <path d="M166.5 236.25 L166.5 274.98022" />
    <path d="M166.5 279.48022 L166.5 303.75" />
    <path d="M173.25 236.25 L173.25 247.52426" />
    <path d="M173.25 252.02426 L173.25 265.36195" />
    <path d="M173.25 269.86195 L173.25 303.75" />
    <path d="M180 236.25 L180 283.07549" />
    <path d="M180 287.57549 L180 303.75" />
    <path d="M186.75 236.25 L186.75 283.80352" />
    <path d="M186.75 288.30352 L186.75 297.94053" />
    <path d="M186.75 302.44053 L186.75 303.75" />
    <path d="M193.5 236.25 L193.5 272.57595" />
    <path d="M193.5 277.07595 L193.5 303.75" />
    <path d="M200.25 236.25 L200.25 270.23089" />
    <path d="M200.25 274.73089 L200.25 303.75" />
    <path d="M207 236.25 L207 270.76759" />
    <path d="M207 275.26759 L207 286.03652" />
    <path d="M207 290.53652 L207 290.55121" />
    <path d="M207 295.05121 L207 303.75" />
    <path d="M213.75 236.25 L213.75 270.07167" />
    <path d="M213.75 274.57167 L213.75 303.75" />
    <path d="M146.25 326.25 L146.25 367.02245" />
    <path d="M146.25 371.52245 L146.25 393.75" />
    <path d="M153 326.25 L153 339.40194" />
    <path d="M153 343.90194 L153 349.16148" />
    <path d="M153 353.66148 L153 393.75" />
    <path d="M159.75 326.25 L159.75 353.25062" />
    <path d="M159.75 357.75062 L159.75 393.75" />
    <path d="M166.5 326.25 L166.5 364.14941" />
    <path d="M166.5 368.64941 L166.5 376.64701" />
    <path d="M166.5 381.14701 L166.5 393.75" />
    <path d="M173.25 326.25 L173.25 343.15241" />
    <path d="M173.25 347.65241 L173.25 393.75" />
    <path d="M180 326.25 L180 372.39355" />
    <path d="M180 376.89355 L180 393.75" />
    <path d="M186.75 326.25 L186.75 354.49637" />
    <path d="M186.75 358.99637 L186.75 366.15296" />
    <path d="M186.75 370.65296 L186.75 393.75" />
    <path d="M193.5 326.25 L193.5 374.65962" />
    <path d="M193.5 379.15962 L193.5 393.75" />
    <path d="M200.25 326.25 L200.25 386.53217" />
    <path d="M200.25 391.03217 L200.25 393.75" />
    <path d="M207 326.25 L207 366.49108" />
    <path d="M207 370.99108 L207 393.75" />
    <path d="M213.75 326.25 L213.75 351.42494" />
    <path d="M213.75 355.92494 L213.75 375.95149" />
    <path d="M213.75 380.45149 L213.75 393.75" />
    <path d="M146.25 416.25 L146.25 455.5925" />
    <path d="M146.25 460.0925 L146.25 483.75" />
    <path d="M153 416.25 L153 446.37269" />
    <path d="M153 450.87269 L153 477.53935" />
    <path d="M153 482.03935 L153 483.75" />
    <path d="M159.75 416.25 L159.75 428.00494" />
    <path d="M159.75 432.50494 L159.75 456.24063" />
    <path d="M159.75 460.74063 L159.75 471.17258" />
    <path d="M159.75 475.67258 L159.75 483.75" />
    <path d="M166.5 416.25 L166.5 423.63736" />
    <path d="M166.5 428.13736 L166.5 483.75" />
    <path d="M173.25 416.25 L173.25 442.80605" />
    <path d="M173.25 447.30605 L173.25 467.19375" />
    <path d="M173.25 471.69375 L173.25 483.75" />
    <path d="M180 416.25 L180 478.01274" />
    <path d="M180 482.51274 L180 483.75" />
    <path d="M186.75 416.25 L186.75 451.42223" />
    <path d="M186.75 455.92223 L186.75 483.75" />
    <path d="M193.5 416.25 L193.5 453.75935" />
    <path d="M193.5 458.25935 L193.5 475.8111" />
    <path d="M193.5 480.3111 L193.5 483.75" />
    <path d="M200.25 416.25 L200.25 446.33991" />
    <path d="M200.25 450.83991 L200.25 483.75" />
    <path d="M207 416.25 L207 451.73202" />
    <path d="M207 456.23202 L207 461.58037" />
    <path d="M207 466.08037 L207 483.75" />
    <path d="M213.75 416.25 L213.75 444.53852" />
    <path d="M213.75 449.03852 L213.75 467.10165" />
    <path d="M213.75 471.60165 L213.75 471.76058" />
    <path d="M213.75 476.26058 L213.75 483.75" />
    <path d="M146.25 506.25 L146.25 559.39747" />
    <path d="M146.25 563.89747 L146.25 565.96542" />
    <path d="M146.25 570.46542 L146.25 573.75" />
    <path d="M153 506.25 L153 530.86887" />
    <path d="M153 535.36887 L153 540.62548" />
    <path d="M153 545.12548 L153 573.75" />
    <path d="M159.75 506.25 L159.75 507.47282" />
    <path d="M159.75 511.97282 L159.75 551.07247" />
    <path d="M159.75 555.57247 L159.75 573.75" />
    <path d="M166.5 506.25 L166.5 564.74282" />
    <path d="M166.5 569.24282 L166.5 573.75" />
    <path d="M173.25 506.25 L173.25 515.69652" />
    <path d="M173.25 520.19652 L173.25 573.75" />
    <path d="M180 506.25 L180 530.64162" />
    <path d="M180 535.14162 L180 561.60385" />
    <path d="M180 566.10385 L180 573.75" />
    <path d="M186.75 506.25 L186.75 512.75796" />
    <path d="M186.75 517.25796 L186.75 564.60427" />
    <path d="M186.75 569.10427 L186.75 573.75" />
    <path d="M193.5 506.25 L193.5 521.89724" />
    <path d="M193.5 526.39724 L193.5 528.19849" />
    <path d="M193.5 532.69849 L193.5 573.75" />
    <path d="M200.25 506.25 L200.25 518.72137" />
    <path d="M200.25 523.22137 L200.25 573.75" />
    <path d="M207 506.25 L207 547.07062" />
    <path d="M207 551.57062 L207 573.75" />
    <path d="M213.75 506.25 L213.75 525.76116" />
    <path d="M213.75 530.26116 L213.75 573.75" />
    <path d="M236.25 56.25 L236.25 108.97002" />
    <path d="M236.25 113.47002 L236.25 123.75" />
    <path d="M243 56.25 L243 102.76757" />
    <path d="M243 107.26757 L243 118.20576" />
    <path d="M243 122.70576 L243 123.75" />
    <path d="M249.75 56.25 L249.75 85.64911" />
    <path d="M249.75 90.14911 L249.75 114.29164" />
    <path d="M249.75 118.79164 L249.75 123.75" />
    <path d="M256.5 56.25 L256.5 104.76677" />
    <path d="M256.5 109.26677 L256.5 123.75" />
    <path d="M263.25 56.25 L263.25 97.26756" />
    <path d="M263.25 101.76756 L263.25 123.75" />
    <path d="M270 56.25 L270 65.97345" />
    <path d="M270 70.47345 L270 123.75" />
    <path d="M276.75 56.25 L276.75 101.51387" />
    <path d="M276.75 106.01387 L276.75 123.75" />
    <path d="M283.5 56.25 L283.5 104.23553" />
    <path d="M283.5 108.73553 L283.5 123.75" />
    <path d="M290.25 56.25 L290.25 109.94605" />
    <path d="M290.25 114.44605 L290.25 123.75" />
    <path d="M297 56.25 L297 99.37461" />
    <path d="M297 103.87461 L297 123.75" />
    <path d="M303.75 56.25 L303.75 109.10471" />
    <path d="M303.75 113.60471 L303.75 123.75" />
    <path d="M236.25 146.25 L236.25 180.8942" />
    <path d="M236.25 185.3942 L236.25 213.75" />
    <path d="M243 146.25 L243 174.72147" />
    <path d="M243 179.22147 L243 213.75" />
    <path d="M249.75 146.25 L249.75 154.38771" />
    <path d="M249.75 158.88771 L249.75 184.77278" />
    <path d="M249.75 189.27278 L249.75 213.75" />
    <path d="M256.5 146.25 L256.5 194.31149" />
    <path d="M256.5 198.81149 L256.5 213.75" />
    <path d="M263.25 146.25 L263.25 164.01878" />
    <path d="M263.25 168.51878 L263.25 213.75" />
    <path d="M270 146.25 L270 175.10875" />
    <path d="M270 179.60875 L270 213.75" />
    <path d="M276.75 146.25 L276.75 158.42672" />
    <path d="M276.75 162.92672 L276.75 196.40721" />
    <path d="M276.75 200.90721 L276.75 213.75" />
    <path d="M283.5 146.25 L283.5 168.73496" />
    <path d="M283.5 173.23496 L283.5 208.54718" />
    <path d="M283.5 213.04718 L283.5 213.75" />
    <path d="M290.25 146.25 L290.25 207.68987" />
    <path d="M290.25 212.18987 L290.25 213.75" />
    <path d="M297 146.25 L297 213.75" />
    <path d="M303.75 146.25 L303.75 168.65464" />
    <path d="M303.75 173.15464 L303.75 213.75" />
    <path d="M236.25 236.25 L236.25 244.05415" />
    <path d="M236.25 248.55415 L236.25 263.46527" />
    <path d="M236.25 267.96527 L236.25 292.76219" />
    <path d="M236.25 297.26219 L236.25 303.75" />
    <path d="M243 236.25 L243 253.84391" />
    <path d="M243 258.34391 L243 303.75" />
    <path d="M249.75 236.25 L249.75 274.86422" />
    <path d="M249.75 279.36422 L249.75 303.75" />
    <path d="M256.5 236.25 L256.5 236.94512" />
    <path d="M256.5 241.44512 L256.5 284.02913" />
    <path d="M256.5 288.52913 L256.5 303.75" />
    <path d="M263.25 236.25 L263.25 289.1809" />
    <path d="M263.25 293.6809 L263.25 303.75" />
    <path d="M270 236.25 L270 296.49387" />
    <path d="M270 300.99387 L270 303.75" />
    <path d="M276.75 236.25 L276.75 245.55143" />
    <path d="M276.75 250.05143 L276.75 260.89019" />
    <path d="M276.75 265.39019 L276.75 303.75" />
    <path d="M283.5 236.25 L283.5 268.73685" />
    <path d="M283.5 273.23685 L283.5 294.31206" />
    <path d="M283.5 298.81206 L283.5 303.75" />
    <path d="M290.25 236.25 L290.25 295.53016" />
    <path d="M290.25 300.03016 L290.25 303.75" />
    <path d="M297 236.25 L297 292.59724" />
    <path d="M297 297.09724 L297 303.75" />
    <path d="M303.75 236.25 L303.75 268.33652" />
    <path d="M303.75 272.83652 L303.75 299.12156" />
    <path d="M303.75 303.62156 L303.75 303.75" />
    <path d="M236.25 326.25 L236.25 367.81348" />
    <path d="M236.25 372.31348 L236.25 393.75" />
    <path d="M243 326.25 L243 383.81456" />
    <path d="M243 388.31456 L243 393.75" />
    <path d="M249.75 326.25 L249.75 393.75" />
    <path d="M256.5 326.25 L256.5 329.44913" />
    <path d="M256.5 333.94913 L256.5 343.89382" />
    <path d="M256.5 348.39382 L256.5 375.60925" />
    <path d="M256.5 380.10925 L256.5 386.61271" />
    <path d="M256.5 391.11271 L256.5 393.75" />
    <path d="M263.25 326.25 L263.25 387.84011" />
    <path d="M263.25 392.34011 L263.25 393.75" />
    <path d="M270 326.25 L270 377.26216" />
    <path d="M270 381.76216 L270 388.97982" />
    <path d="M270 393.47982 L270 393.75" />
    <path d="M276.75 326.25 L276.75 393.75" />
    <path d="M283.5 326.25 L283.5 334.24132" />
    <path d="M283.5 338.74132 L283.5 393.75" />
    <path d="M290.25 326.25 L290.25 380.20911" />
    <path d="M290.25 384.70911 L290.25 393.75" />
    <path d="M297 326.25 L297 393.75" />
    <path d="M303.75 326.25 L303.75 334.09061" />
    <path d="M303.75 338.59061 L303.75 342.43286" />
    <path d="M303.75 346.93286 L303.75 393.75" />
    <path d="M236.25 416.25 L236.25 457.42259" />
    <path d="M236.25 461.92259 L236.25 483.75" />
    <path d="M243 416.25 L243 449.62637" />
    <path d="M243 454.12637 L243 483.75" />
    <path d="M249.75 416.25 L249.75 450.9027" />
    <path d="M249.75 455.4027 L249.75 483.75" />
    <path d="M256.5 416.25 L256.5 458.84512" />
    <path d="M256.5 463.34512 L256.5 483.75" />
    <path d="M263.25 416.25 L263.25 462.3387" />
    <path d="M263.25 466.8387 L263.25 483.75" />
    <path d="M270 416.25 L270 431.40228" />
    <path d="M270 435.90228 L270 454.42233" />
    <path d="M270 458.92233 L270 475.06329" />
    <path d="M270 479.56329 L270 483.75" />
    <path d="M276.75 416.25 L276.75 430.52376" />
    <path d="M276.75 435.02376 L276.75 437.14874" />
    <path d="M276.75 441.64874 L276.75 451.72783" />
    <path d="M276.75 456.22783 L276.75 483.75" />
    <path d="M283.5 416.25 L283.5 442.43356" />
    <path d="M283.5 446.93356 L283.5 483.75" />
    <path d="M290.25 416.25 L290.25 439.83019" />
    <path d="M290.25 444.33019 L290.25 483.75" />
    <path d="M297 416.25 L297 477.44316" />
    <path d="M297 481.94316 L297 483.75" />
    <path d="M303.75 416.25 L303.75 454.79746" />
    <path d="M303.75 459.29746 L303.75 483.75" />
    <path d="M236.25 506.25 L236.25 516.86548" />
    <path d="M236.25 521.36548 L236.25 573.75" />
    <path d="M243 506.25 L243 535.77561" />
    <path d="M243 540.27561 L243 573.75" />
    <path d="M249.75 506.25 L249.75 533.21127" />
    <path d="M249.75 537.71127 L249.75 573.75" />
    <path d="M256.5 506.25 L256.5 562.34166" />
    <path d="M256.5 566.84166 L256.5 573.75" />
    <path d="M263.25 506.25 L263.25 565.82785" />
    <path d="M263.25 570.32785 L263.25 573.75" />
    <path d="M270 506.25 L270 522.99999" />
    <path d="M270 527.49999 L270 573.75" />
    <path d="M276.75 506.25 L276.75 529.48677" />
    <path d="M276.75 533.98677 L276.75 573.75" />
    <path d="M283.5 506.25 L283.5 573.75" />
    <path d="M290.25 506.25 L290.25 573.75" />
    <path d="M297 506.25 L297 506.44597" />
    <path d="M297 510.94597 L297 549.66189" />
    <path d="M297 554.16189 L297 573.75" />
    <path d="M303.75 506.25 L303.75 573.75" />
    <path d="M326.25 56.25 L326.25 86.16422" />
    <path d="M326.25 90.66422 L326.25 123.75" />
    <path d="M333 56.25 L333 69.89009" />
    <path d="M333 74.39009 L333 114.43099" />
    <path d="M333 118.93099 L333 123.75" />
    <path d="M339.75 56.25 L339.75 118.68275" />
    <path d="M339.75 123.18275 L339.75 123.75" />
    <path d="M346.5 56.25 L346.5 84.74247" />
    <path d="M346.5 89.24247 L346.5 123.75" />
    <path d="M353.25 56.25 L353.25 71.57015" />
    <path d="M353.25 76.07015 L353.25 123.75" />
    <path d="M360 56.25 L360 57.23783" />
    <path d="M360 61.73783 L360 83.32524" />
    <path d="M360 87.82524 L360 123.75" />
    <path d="M366.75 56.25 L366.75 78.9075" />
    <path d="M366.75 83.4075 L366.75 101.089" />
    <path d="M366.75 105.589 L366.75 123.75" />
    <path d="M373.5 56.25 L373.5 113.28274" />
    <path d="M373.5 117.78274 L373.5 123.75" />
    <path d="M380.25 56.25 L380.25 83.00934" />
    <path d="M380.25 87.50934 L380.25 123.75" />
    <path d="M387 56.25 L387 123.75" />
    <path d="M393.75 56.25 L393.75 92.78448" />
    <path d="M393.75 97.28448 L393.75 123.75" />
    <path d="M326.25 146.25 L326.25 193.28107" />
    <path d="M326.25 197.78107 L326.25 213.75" />
    <path d="M333 146.25 L333 213.75" />
    <path d="M339.75 146.25 L339.75 197.67749" />
    <path d="M339.75 202.17749 L339.75 213.75" />
    <path d="M346.5 146.25 L346.5 191.19522" />
    <path d="M346.5 195.69522 L346.5 213.75" />
    <path d="M353.25 146.25 L353.25 178.79746" />
    <path d="M353.25 183.29746 L353.25 192.19186" />
    <path d="M353.25 196.69186 L353.25 213.75" />
    <path d="M360 146.25 L360 158.89041" />
    <path d="M360 163.39041 L360 207.33469" />
    <path d="M360 211.83469 L360 213.75" />
    <path d="M366.75 146.25 L366.75 155.46856" />
    <path d="M366.75 159.96856 L366.75 192.28488" />
    <path d="M366.75 196.78488 L366.75 213.75" />
    <path d="M373.5 146.25 L373.5 213.75" />
    <path d="M380.25 146.25 L380.25 154.75831" />
    <path d="M380.25 159.25831 L380.25 180.32587" />
    <path d="M380.25 184.82587 L380.25 213.75" />
    <path d="M387 146.25 L387 172.58443" />
    <path d="M387 177.08443 L387 195.65408" />
    <path d="M387 200.15408 L387 204.16147" />
    <path d="M387 208.66147 L387 213.75" />
    <path d="M393.75 146.25 L393.75 182.62202" />
    <path d="M393.75 187.12202 L393.75 213.75" />
    <path d="M326.25 236.25 L326.25 293.36507" />
    <path d="M326.25 297.86507 L326.25 303.75" />
    <path d="M333 236.25 L333 258.55198" />
    <path d="M333 263.05198 L333 279.36822" />
    <path d="M333 283.86822 L333 303.75" />
    <path d="M339.75 236.25 L339.75 263.89984" />
    <path d="M339.75 268.39984 L339.75 303.75" />
    <path d="M346.5 236.25 L346.5 296.83001" />
    <path d="M346.5 301.33001 L346.5 303.75" />
    <path d="M353.25 236.25 L353.25 250.32527" />
    <path d="M353.25 254.82527 L353.25 271.69965" />
    <path d="M353.25 276.19965 L353.25 303.75" />
    <path d="M360 236.25 L360 276.51006" />
    <path d="M360 281.01006 L360 303.75" />
    <path d="M366.75 236.25 L366.75 250.05507" />
    <path d="M366.75 254.55507 L366.75 303.75" />
    <path d="M373.5 236.25 L373.5 265.43275" />
    <path d="M373.5 269.93275 L373.5 303.75" />
    <path d="M380.25 236.25 L380.25 240.90077" />
    <path d="M380.25 245.40077 L380.25 265.22623" />
    <path d="M380.25 269.72623 L380.25 303.75" />
    <path d="M387 236.25 L387 303.75" />
    <path d="M393.75 236.25 L393.75 267.55209" />
    <path d="M393.75 272.05209 L393.75 303.75" />
    <path d="M326.25 326.25 L326.25 375.13671" />
    <path d="M326.25 379.63671 L326.25 393.75" />
    <path d="M333 326.25 L333 346.73506" />
    <path d="M333 351.23506 L333 365.24248" />
    <path d="M333 369.74248 L333 379.68534" />
    <path d="M333 384.18534 L333 393.75" />
    <path d="M339.75 326.25 L339.75 374.67642" />
    <path d="M339.75 379.17642 L339.75 393.75" />
    <path d="M346.5 326.25 L346.5 368.18777" />
    <path d="M346.5 372.68777 L346.5 393.75" />
    <path d="M353.25 326.25 L353.25 351.60326" />
    <path d="M353.25 356.10326 L353.25 393.75" />
    <path d="M360 326.25 L360 360.51326" />
    <path d="M360 365.01326 L360 372.89835" />
    <path d="M360 377.39835 L360 393.75" />
    <path d="M366.75 326.25 L366.75 360.97965" />
    <path d="M366.75 365.47965 L366.75 393.75" />
    <path d="M373.5 326.25 L373.5 393.75" />
    <path d="M380.25 326.25 L380.25 383.2931" />
    <path d="M380.25 387.7931 L380.25 393.75" />
    <path d="M387 326.25 L387 357.091" />
    <path d="M387 361.591 L387 393.75" />
    <path d="M393.75 326.25 L393.75 333.94666" />
    <path d="M393.75 338.44666 L393.75 341.37178" />
    <path d="M393.75 345.87178 L393.75 354.38487" />
    <path d="M393.75 358.88487 L393.75 381.24281" />
    <path d="M393.75 385.74281 L393.75 393.75" />
    <path d="M326.25 416.25 L326.25 427.01003" />
    <path d="M326.25 431.51003 L326.25 483.75" />
    <path d="M333 416.25 L333 451.63839" />
    <path d="M333 456.13839 L333 465.82272" />
    <path d="M333 470.32272 L333 471.95796" />
    <path d="M333 476.45796 L333 483.75" />
    <path d="M339.75 416.25 L339.75 430.82659" />
    <path d="M339.75 435.32659 L339.75 454.4985" />
    <path d="M339.75 458.9985 L339.75 483.75" />
    <path d="M346.5 416.25 L346.5 416.57777" />
    <path d="M346.5 421.07777 L346.5 468.13882" />
    <path d="M346.5 472.63882 L346.5 483.75" />
    <path d="M353.25 416.25 L353.25 450.0415" />
    <path d="M353.25 454.5415 L353.25 483.75" />
    <path d="M360 416.25 L360 438.34433" />
    <path d="M360 442.84433 L360 483.75" />
    <path d="M366.75 416.25 L366.75 427.1969" />
    <path d="M366.75 431.6969 L366.75 448.29076" />
    <path d="M366.75 452.79076 L366.75 483.75" />
    <path d="M373.5 416.25 L373.5 483.75" />
    <path d="M380.25 416.25 L380.25 472.55851" />
    <path d="M380.25 477.05851 L380.25 483.75" />
    <path d="M387 416.25 L387 461.77955" />
    <path d="M387 466.27955 L387 483.75" />
    <path d="M393.75 416.25 L393.75 470.83955" />
    <path d="M393.75 475.33955 L393.75 483.75" />
    <path d="M326.25 506.25 L326.25 545.46082" />
    <path d="M326.25 549.96082 L326.25 573.75" />
    <path d="M333 506.25 L333 535.75489" />
    <path d="M333 540.25489 L333 563.84844" />
    <path d="M333 568.34844 L333 573.75" />
    <path d="M339.75 506.25 L339.75 550.79952" />
    <path d="M339.75 555.29952 L339.75 560.97347" />
    <path d="M339.75 565.47347 L339.75 573.75" />
    <path d="M346.5 506.25 L346.5 533.65497" />
    <path d="M346.5 538.15497 L346.5 573.75" />
    <path d="M353.25 506.25 L353.25 557.40822" />
    <path d="M353.25 561.90822 L353.25 573.75" />
    <path d="M360 506.25 L360 555.61097" />
    <path d="M360 560.11097 L360 573.75" />
    <path d="M366.75 506.25 L366.75 547.36445" />
    <path d="M366.75 551.86445 L366.75 559.18761" />
    <path d="M366.75 563.68761 L366.75 573.75" />
    <path d="M373.5 506.25 L373.5 517.16065" />
    <path d="M373.5 521.66065 L373.5 551.09736" />
    <path d="M373.5 555.59736 L373.5 573.75" />
    <path d="M380.25 506.25 L380.25 549.01621" />
    <path d="M380.25 553.51621 L380.25 573.75" />
    <path d="M387 506.25 L387 559.49531" />
    <path d="M387 563.99531 L387 573.75" />
    <path d="M393.75 506.25 L393.75 532.72398" />
    <path d="M393.75 537.22398 L393.75 550.11082" />
    <path d="M393.75 554.61082 L393.75 563.02013" />
    <path d="M393.75 567.52013 L393.75 573.75" />
  </g>
</svg>