<?xml version="1.0" standalone="no"?>
<!DOCTYPE svg PUBLIC "-//W3C//DTD SVG 1.1//EN" 
    "http://www.w3.org/Graphics/SVG/1.1/DTD/svg11.dtd">
<svg width="2480px" height="3508px"
    xmlns="http://www.w3.org/2000/svg" version="1.1" viewBox="0 0 2480 3508">
  <g fill="none" stroke="black" stroke-width="1.06299px">
    <path d="M620 1134 L1860 1134" />
    <path d="M1860 1134 L1860 2374" />
    <path d="M1860 2374 L620 2374" />
    <path d="M620 2374 L620 1134" />
    <path d="M628.0555765227109 1112.4963301002483 L1867.3002020263896 1155.7717060113496" />
    <path d="M1867.3002020263896 1155.7717060113496 L1824.0248261152883 2395.0163315150285" />
    <path d="M1824.0248261152883 2395.0163315150285 L584.7802006116096 2351.740955603927" />
    <path d="M584.7802006116096 2351.740955603927 L628.0555765227109 1112.4963301002483" />
    <path d="M636.8567130626166 1091.286895221481 L1873.8361353847986 1177.7849226641963" />
    <path d="M1873.8361353847986 1177.7849226641963 L1787.3381079420833 2414.764344986378" />
    <path d="M1787.3381079420833 2414.764344986378 L550.3586856199012 2328.266317543663" />
    <path d="M550.3586856199012 2328.266317543663 L636.8567130626166 1091.286895221481" />
    <path d="M646.3926867905543 1070.3975357930349 L1879.5998370472132 1200.012830244925" />
    <path d="M1879.5998370472132 1200.012830244925 L1749.9845425953229 2433.219980501584" />
    <path d="M1749.9845425953229 2433.219980501584 L516.777392338664 2303.6046860496936" />
    <path d="M516.777392338664 2303.6046860496936 L646.3926867905543 1070.3975357930349" />
    <path d="M656.6518795914408 1049.853702281614 L1884.584284830988 1222.428347472095" />
    <path d="M1884.584284830988 1222.428347472095 L1712.009639640507 2450.3607527116424" />
    <path d="M1712.009639640507 2450.3607527116424 L484.0772344009596 2277.7861075211613" />
    <path d="M484.0772344009596 2277.7861075211613 L656.6518795914408 1049.853702281614" />
    <path d="M667.6217922191557 1029.6804241838174 L1888.7834059542938 1245.004164490811" />
    <path d="M1888.7834059542938 1245.004164490811 L1673.4596656473 2466.165778225949" />
    <path d="M1673.4596656473 2466.165778225949 L452.2980519121621 2250.8420379189556" />
    <path d="M452.2980519121621 2250.8420379189556 L667.6217922191557 1029.6804241838174" />
    <path d="M679.2890595249474 1009.9022795315519 L1892.1920844348665 1267.7127761455736" />
    <path d="M1892.1920844348665 1267.7127761455736 L1634.3815878208452 2480.6158010554927" />
    <path d="M1634.3815878208452 2480.6158010554927 L421.4785629109259 2222.805304441471" />
    <path d="M421.4785629109259 2222.805304441471 L679.2890595249474 1009.9022795315519" />
    <path d="M691.6394667408091 990.5433649474868 L1894.8061673230445 1290.5265154910749" />
    <path d="M1894.8061673230445 1290.5265154910749 L1594.8230167794568 2493.6932160733104" />
    <path d="M1594.8230167794568 2493.6932160733104 L391.65631619722114 2193.7100655297227" />
    <path d="M391.65631619722114 2193.7100655297227 L691.6394667408091 990.5433649474868" />
    <path d="M704.6579667979821 971.6272662870304 L1896.6224697614975 1313.4175875001092" />
    <path d="M1896.6224697614975 1313.4175875001092 L1554.8321485484184 2505.382090463625" />
    <path d="M1554.8321485484184 2505.382090463625 L362.86764558490313 2163.5917692505454" />
    <path d="M362.86764558490313 2163.5917692505454 L704.6579667979821 971.6272662870304" />
    <path d="M718.3286986594933 953.1770299025989 L1897.6387788654836 1336.3581029275335" />
    <path d="M1897.6387788654836 1336.3581029275335 L1514.457705840549 2515.668183133524" />
    <path d="M1514.457705840549 2515.668183133524 L335.1476256345585 2132.487110108589" />
    <path d="M335.1476256345585 2132.487110108589 L718.3286986594933 953.1770299025989" />
    <path d="M732.6350066443839 935.2151345651855 L1897.8538564189103 1359.3201122890148" />
    <path d="M1897.8538564189103 1359.3201122890148 L1473.7488786950812 2524.5389620635415" />
    <path d="M1473.7488786950812 2524.5389620635415 L308.53002892055474 2100.433984339712" />
    <path d="M308.53002892055474 2100.433984339712 L732.6350066443839 935.2151345651855" />
    <path d="M747.5594607200925 917.7634640774413 L1897.2674403829087 1382.2756399131722" />
    <path d="M1897.2674403829087 1382.2756399131722 L1432.7552645471778 2531.9836195759885" />
    <path d="M1432.7552645471778 2531.9836195759885 L283.0472848843616 2067.4714437402577" />
    <path d="M283.0472848843616 2067.4714437402577 L747.5594607200925 917.7634640774413" />
    <path d="M763.0838777382635 900.8432806116317 L1895.8802452150885 1405.196718025624" />
    <path d="M1895.8802452150885 1405.196718025624 L1391.5268078010963 2537.993085502449" />
    <path d="M1391.5268078010963 2537.993085502449 L258.7304403242713 2033.6396480884569" />
    <path d="M258.7304403242713 2033.6396480884569 L763.0838777382635 900.8432806116317" />
    <path d="M779.1893435881135 884.4751988049552 L1893.6939609990804 1428.0554208234112" />
    <path d="M1893.6939609990804 1428.0554208234112 L1350.1137389806245 2542.560038234378" />
    <path d="M1350.1137389806245 2542.560038234378 L235.60912156965753 1998.9798162159223" />
    <path d="M235.60912156965753 1998.9798162159223 L779.1893435881135 884.4751988049552" />
    <path d="M795.8562362403612 868.6791606437838 L1890.7112513854308 1450.8238984982884" />
    <path d="M1890.7112513854308 1450.8238984982884 L1308.5665135309262 2545.678913643358" />
    <path d="M1308.5665135309262 2545.678913643358 L213.71149838585666 1963.5341757888532" />
    <path d="M213.71149838585666 1963.5341757888532 L795.8562362403612 868.6791606437838" />
    <path d="M813.064249653648 853.4744111674236 L1886.935750346352 1473.4744111674233" />
    <path d="M1886.935750346352 1473.4744111674233 L1266.935750346352 2547.3459118601277" />
    <path d="M1266.935750346352 2547.3459118601277 L193.06424965364795 1927.3459118601274" />
    <path d="M193.06424965364795 1927.3459118601274 L813.064249653648 853.4744111674236" />
    <path d="M830.792418514321 838.8794750209993 L1882.372057748289 1495.9793626701733" />
    <path d="M1882.372057748289 1495.9793626701733 L1225.272170099115 2547.5590019041415" />
    <path d="M1225.272170099115 2547.5590019041415 L173.69253086514686 1890.4591142549675" />
    <path d="M173.69253086514686 1890.4591142549675 L830.792418514321 838.8794750209993" />
    <path d="M849.0191437794385 824.9121338860277 L1877.02573374769 1518.311334189754" />
    <path d="M1877.02573374769 1518.311334189754 L1183.626533443964 2546.3179241580056" />
    <path d="M1183.626533443964 2546.3179241580056 L155.61994347571226 1852.9187238542793" />
    <path d="M155.61994347571226 1852.9187238542793 L849.0191437794385 824.9121338860277" />
    <path d="M867.7222189918767 811.5894048161782 L1870.9032920168115 1540.443117658845" />
    <path d="M1870.9032920168115 1540.443117658845 L1142.0495791741448 2543.6241906837795" />
    <path d="M1142.0495791741448 2543.6241906837795 L138.8685061492099 1814.770477841113" />
    <path d="M138.8685061492099 1814.770477841113 L867.7222189918767 811.5894048161782" />
    <path d="M886.8788573354773 798.927519504613 L1864.0121918078125 1562.3477489084294" />
    <path d="M1864.0121918078125 1562.3477489084294 L1100.5919624039961 2539.481083380764" />
    <path d="M1100.5919624039961 2539.481083380764 L123.45862793166089 1776.0608539769482" />
    <path d="M123.45862793166089 1776.0608539769482 L886.8788573354773 798.927519504613" />
    <path d="M906.4657193972722 786.9419045081704 L1856.3608288648052 1583.998540519479" />
    <path d="M1856.3608288648052 1583.998540519479 L1059.3041928534963 2533.893649987012" />
    <path d="M1059.3041928534963 2533.893649987012 L109.40908338596364 1736.8370139757035" />
    <path d="M109.40908338596364 1736.8370139757035 L906.4657193972722 786.9419045081704" />
    <path d="M926.4589416029644 775.6471624524811 L1847.9585251949334 1605.3691143374654" />
    <path d="M1847.9585251949334 1605.3691143374654 L1018.2365733099491 2526.8686979294343" />
    <path d="M1018.2365733099491 2526.8686979294343 L96.73698971798012 1697.14674604445" />
    <path d="M96.73698971798012 1697.14674604445 L926.4589416029644 775.6471624524811" />
    <path d="M946.8341652910157 765.0570542409184 L1838.8155177109431 1626.433433610075" />
    <path d="M1838.8155177109431 1626.433433610075 L977.4391383417865 2518.4147860300027" />
    <path d="M977.4391383417865 2518.4147860300027 L85.45778592185911 1657.038406660846" />
    <path d="M85.45778592185911 1657.038406660846 L946.8341652910157 765.0570542409184" />
    <path d="M967.5665663899249 755.1844822890569 L1828.9429457590816 1647.1658347089842" />
    <path d="M1828.9429457590816 1647.1658347089842 L936.9615933391542 2508.542214078141" />
    <path d="M936.9615933391542 2508.542214078141 L75.58521396999754 1616.5608616582135" />
    <path d="M75.58521396999754 1616.5608616582135 L967.5665663899249 755.1844822890569" />
    <path d="M988.6308856625346 746.0414748050667 L1818.352837547519 1667.5410583970356" />
    <path d="M1818.352837547519 1667.5410583970356 L896.85325395555 2497.26301028202" />
    <path d="M896.85325395555 2497.26301028202 L67.13130207056565 1575.763426690051" />
    <path d="M67.13130207056565 1575.763426690051 L988.6308856625346 746.0414748050667" />
    <path d="M1010.0014594805208 737.6391711351949 L1807.0580954918296 1687.5342806027277" />
    <path d="M1807.0580954918296 1687.5342806027277 L857.1629860242967 2484.5909166140364" />
    <path d="M857.1629860242967 2484.5909166140364 L60.10635001298806 1534.6958071465037" />
    <path d="M60.10635001298806 1534.6958071465037 L1010.0014594805208 737.6391711351949" />
    <path d="M1031.6522510915706 729.9878081921876 L1795.072480495387 1707.1211426645227" />
    <path d="M1795.072480495387 1707.1211426645227 L817.9391460230518 2470.541372068339" />
    <path d="M817.9391460230518 2470.541372068339 L54.5189166192356 1493.4080375960039" />
    <path d="M54.5189166192356 1493.4080375960039 L1031.6522510915706 729.9878081921876" />
    <path d="M1053.556882341155 723.0967079831885 L1782.410595183822 1726.2777810081232" />
    <path d="M1782.410595183822 1726.2777810081232 L779.2295221588872 2455.1314938507903" />
    <path d="M779.2295221588872 2455.1314938507903 L50.375809316220284 1451.9504208258554" />
    <path d="M50.375809316220284 1451.9504208258554 L1053.556882341155 723.0967079831885" />
    <path d="M1075.688665810246 716.9742662523099 L1769.0878661139723 1744.9808562205615" />
    <path d="M1769.0878661139723 1744.9808562205615 L741.0812761457207 2438.3800565242877" />
    <path d="M741.0812761457207 2438.3800565242877 L47.68207584199445 1410.373466556036" />
    <path d="M47.68207584199445 1410.373466556036 L1075.688665810246 716.9742662523099" />
    <path d="M1098.0206373298267 711.6279422517108 L1755.1205249790007 1763.207581485679" />
    <path d="M1755.1205249790007 1763.207581485679 L703.5408857450325 2420.307469134853" />
    <path d="M703.5408857450325 2420.307469134853 L46.440998095858504 1368.727829900885" />
    <path d="M46.440998095858504 1368.727829900885 L1098.0206373298267 711.6279422517108" />
    <path d="M1120.5255888325764 707.0642496536481 L1740.5255888325764 1780.935750346352" />
    <path d="M1740.5255888325764 1780.935750346352 L666.6540881398728 2400.935750346352" />
    <path d="M666.6540881398728 2400.935750346352 L46.654088139872556 1327.0642496536482" />
    <path d="M46.654088139872556 1327.0642496536482 L1120.5255888325764 707.0642496536481" />
    <path d="M1143.1761015017116 703.2887486145694 L1725.3208393562163 1798.1437637596387" />
    <path d="M1725.3208393562163 1798.1437637596387 L630.4658242111469 2380.2885016141436" />
    <path d="M630.4658242111469 2380.2885016141436 L48.321086356642354 1285.433486469074" />
    <path d="M48.321086356642354 1285.433486469074 L1143.1761015017116 703.2887486145694" />
    <path d="M1165.9445791765888 700.3060390009194 L1709.5248011950448 1814.8106564118866" />
    <path d="M1709.5248011950448 1814.8106564118866 L595.0201837840776 2358.3908784303426" />
    <path d="M595.0201837840776 2358.3908784303426 L51.439961765621774 1243.8862610193755" />
    <path d="M51.439961765621774 1243.8862610193755 L1165.9445791765888 700.3060390009194" />
    <path d="M1188.8032819743762 698.1197547849115 L1693.1567193883684 1830.9161222617365" />
    <path d="M1693.1567193883684 1830.9161222617365 L560.3603519115433 2335.2695596757285" />
    <path d="M560.3603519115433 2335.2695596757285 L56.00691449755095 1202.4731921989037" />
    <path d="M56.00691449755095 1202.4731921989037 L1188.8032819743762 698.1197547849115" />
    <path d="M1211.7243600868278 696.7325596170912 L1676.2365359225587 1846.4405392799076" />
    <path d="M1676.2365359225587 1846.4405392799076 L526.5285562597422 2310.9527151156385" />
    <path d="M526.5285562597422 2310.9527151156385 L62.01638042401146 1161.2447354528222" />
    <path d="M62.01638042401146 1161.2447354528222 L1211.7243600868278 696.7325596170912" />
    <path d="M1234.6798877109852 696.1461435810897 L1658.7848654348145 1861.364993355616" />
    <path d="M1658.7848654348145 1861.364993355616 L493.56601566028814 2285.4699710794453" />
    <path d="M493.56601566028814 2285.4699710794453 L69.46103793645875 1120.251121304919" />
    <path d="M69.46103793645875 1120.251121304919 L1234.6798877109852 696.1461435810897" />
    <path d="M1257.6418970724662 696.3612211345164 L1640.8229700974011 1875.6713013405067" />
    <path d="M1640.8229700974011 1875.6713013405067 L461.51288989141085 2258.8523743654414" />
    <path d="M461.51288989141085 2258.8523743654414 L78.33181686647595 1079.5422941594513" />
    <path d="M78.33181686647595 1079.5422941594513 L1257.6418970724662 696.3612211345164" />
    <path d="M1280.5824124998908 697.3775302385026 L1622.3727337129696 1889.3420332020178" />
    <path d="M1622.3727337129696 1889.3420332020178 L430.40823074945433 2231.132354415097" />
    <path d="M430.40823074945433 2231.132354415097 L88.61790953637524 1039.1678514515816" />
    <path d="M88.61790953637524 1039.1678514515816 L1280.5824124998908 697.3775302385026" />
    <path d="M1303.4734845089254 699.1938326769554 L1603.4566350525133 1902.360533259191" />
    <path d="M1603.4566350525133 1902.360533259191 L400.28993447027756 2202.3436838027787" />
    <path d="M400.28993447027756 2202.3436838027787 L100.3067839266896 999.1769832205432" />
    <path d="M100.3067839266896 999.1769832205432 L1303.4734845089254 699.1938326769554" />
    <path d="M1326.2872238544264 701.8079155651335 L1584.0977204684482 1914.7109404750524" />
    <path d="M1584.0977204684482 1914.7109404750524 L371.19469555852913 2172.521437089074" />
    <path d="M371.19469555852913 2172.521437089074 L113.38419894450749 959.6184121791551" />
    <path d="M113.38419894450749 959.6184121791551 L1326.2872238544264 701.8079155651335" />
    <path d="M1348.995835509189 705.2165940457063 L1564.3195758161826 1926.3782077808441" />
    <path d="M1564.3195758161826 1926.3782077808441 L343.1579620810446 2141.701948087838" />
    <path d="M343.1579620810446 2141.701948087838 L127.834221774051 920.5403343527" />
    <path d="M127.834221774051 920.5403343527 L1348.995835509189 705.2165940457063" />
    <path d="M1371.571652527905 709.415715169012 L1544.146297718386 1937.3481204085592" />
    <path d="M1544.146297718386 1937.3481204085592 L316.2138924788387 2109.9227655990403" />
    <path d="M316.2138924788387 2109.9227655990403 L143.63924728835764 881.9903603594931" />
    <path d="M143.63924728835764 881.9903603594931 L1371.571652527905 709.415715169012" />
    <path d="M1393.987169755075 714.4001629527868 L1523.6024642069651 1947.6073132094457" />
    <path d="M1523.6024642069651 1947.6073132094457 L290.39531395030644 2077.222607661336" />
    <path d="M290.39531395030644 2077.222607661336 L160.7800194984161 844.0154574046771" />
    <path d="M160.7800194984161 844.0154574046771 L1393.987169755075 714.4001629527868" />
    <path d="M1416.2150773358037 720.1638646152014 L1502.713104778519 1957.1432869373834" />
    <path d="M1502.713104778519 1957.1432869373834 L265.73368245633696 2043.6413143800987" />
    <path d="M265.73368245633696 2043.6413143800987 L179.23565501362168 806.6618920579167" />
    <path d="M179.23565501362168 806.6618920579167 L1416.2150773358037 720.1638646152014" />
    <path d="M1438.2282939886504 726.6997979736104 L1481.5036698997517 1965.944423477289" />
    <path d="M1481.5036698997517 1965.944423477289 L242.2590443960729 2009.2197993883906" />
    <path d="M242.2590443960729 2009.2197993883906 L198.98366848497153 769.9751738847118" />
    <path d="M198.98366848497153 769.9751738847118 L1438.2282939886504 726.6997979736104" />
  </g>
</svg>