<?xml version="1.0" standalone="no"?>
<!DOCTYPE svg PUBLIC "-//W3C//DTD SVG 1.1//EN" 
    "http://www.w3.org/Graphics/SVG/1.1/DTD/svg11.dtd">
<svg width="8.5in" height="11in"
    xmlns="http://www.w3.org/2000/svg" version="1.1" viewBox="0 0 765 990">
  <g fill="none" stroke="black" stroke-width="0.01181in">
    <path d="M45 45 L45 79.04447" />
    <path d="M45 88.04447 L45 117.57514" />
    <path d="M45 126.57514 L45 148.85995" />
    <path d="M45 157.85995 L45 177.70774" />
    <path d="M45 186.70774 L45 190.95265" />
    <path d="M45 199.95265 L45 208.77691" />
    <path d="M45 217.77691 L45 235.12788" />
    <path d="M45 244.12788 L45 261.3299" />
    <path d="M45 270.3299 L45 277.29696" />
    <path d="M45 286.29696 L45 291.17101" />
    <path d="M45 300.17101 L45 310.37086" />
    <path d="M45 319.37086 L45 346.36842" />
    <path d="M45 355.36842 L45 390.75771" />
    <path d="M45 399.75771 L45 425.55321" />
    <path d="M45 434.55321 L45 471.21928" />
    <path d="M45 480.21928 L45 491.4016" />
    <path d="M51.75 45 L51.75 78.63099" />
    <path d="M51.75 87.63099 L51.75 131.12923" />
    <path d="M51.75 140.12923 L51.75 142.20492" />
    <path d="M51.75 151.20492 L51.75 160.76949" />
    <path d="M51.75 169.76949 L51.75 200.29644" />
    <path d="M51.75 209.29644 L51.75 245.86196" />
    <path d="M51.75 254.86196 L51.75 254.95984" />
    <path d="M51.75 263.95984 L51.75 294.54281" />
    <path d="M51.75 303.54281 L51.75 308.81251" />
    <path d="M51.75 317.81251 L51.75 354.14277" />
    <path d="M51.75 363.14277 L51.75 395.49732" />
    <path d="M51.75 404.49732 L51.75 443.34214" />
    <path d="M51.75 452.34214 L51.75 463.1096" />
    <path d="M51.75 472.1096 L51.75 481.10195" />
    <path d="M51.75 490.10195 L51.75 523.8033" />
    <path d="M58.5 45 L58.5 84.26226" />
    <path d="M58.5 93.26226 L58.5 102.12856" />
    <path d="M58.5 111.12856 L58.5 125.93291" />
    <path d="M58.5 134.93291 L58.5 171.66762" />
    <path d="M58.5 180.66762 L58.5 210.90323" />
    <path d="M58.5 219.90323 L58.5 221.24512" />
    <path d="M58.5 230.24512 L58.5 273.25692" />
    <path d="M58.5 282.25692 L58.5 300.00394" />
    <path d="M58.5 309.00394 L58.5 320.15521" />
    <path d="M58.5 329.15521 L58.5 333.11526" />
    <path d="M58.5 342.11526 L58.5 349.93088" />
    <path d="M58.5 358.93088 L58.5 387.84685" />
    <path d="M58.5 396.84685 L58.5 428.48512" />
    <path d="M58.5 437.48512 L58.5 440.28215" />
    <path d="M58.5 449.28215 L58.5 452.19269" />
    <path d="M58.5 461.19269 L58.5 467.52062" />
    <path d="M58.5 476.52062 L58.5 519.5532" />
    <path d="M65.25 45 L65.25 48.02138" />
    <path d="M65.25 57.02138 L65.25 89.88128" />
    <path d="M65.25 98.88128 L65.25 113.52151" />
    <path d="M65.25 122.52151 L65.25 140.62038" />
    <path d="M65.25 149.62038 L65.25 191.1974" />
    <path d="M65.25 200.1974 L65.25 202.59082" />
    <path d="M65.25 211.59082 L65.25 248.76863" />
    <path d="M65.25 257.76863 L65.25 295.91632" />
    <path d="M65.25 304.91632 L65.25 338.42025" />
    <path d="M65.25 347.42025 L65.25 353.26051" />
    <path d="M65.25 362.26051 L65.25 377.80254" />
    <path d="M65.25 386.80254 L65.25 391.07204" />
    <path d="M65.25 400.07204 L65.25 404.40309" />
    <path d="M65.25 413.40309 L65.25 421.46071" />
    <path d="M65.25 430.46071 L65.25 469.70944" />
    <path d="M65.25 478.70944 L65.25 497.1503" />
    <path d="M72 45 L72 50.8891" />
    <path d="M72 59.8891 L72 92.62027" />
    <path d="M72 101.62027 L72 102.35766" />
    <path d="M72 111.35766 L72 145.69305" />
    <path d="M72 154.69305 L72 192.12099" />
    <path d="M72 201.12099 L72 203.59399" />
    <path d="M72 212.59399 L72 219.41028" />
    <path d="M72 228.41028 L72 235.95633" />
    <path d="M72 244.95633 L72 266.29931" />
    <path d="M72 275.29931 L72 300.70854" />
    <path d="M72 309.70854 L72 314.03854" />
    <path d="M72 323.03854 L72 345.42822" />
    <path d="M72 354.42822 L72 384.74997" />
    <path d="M72 393.74997 L72 417.74882" />
    <path d="M72 426.74882 L72 446.27871" />
    <path d="M72 455.27871 L72 483.8017" />
    <path d="M72 492.8017 L72 505.91849" />
    <path d="M78.75 45 L78.75 72.15422" />
    <path d="M78.75 81.15422 L78.75 109.81943" />
    <path d="M78.75 118.81943 L78.75 155.70087" />
    <path d="M78.75 164.70087 L78.75 187.59659" />
    <path d="M78.75 196.59659 L78.75 218.67536" />
    <path d="M78.75 227.67536 L78.75 240.97111" />
    <path d="M78.75 249.97111 L78.75 252.07964" />
    <path d="M78.75 261.07964 L78.75 282.01392" />
    <path d="M78.75 291.01392 L78.75 333.07535" />
    <path d="M78.75 342.07535 L78.75 366.41493" />
    <path d="M78.75 375.41493 L78.75 412.5525" />
    <path d="M78.75 421.5525 L78.75 448.04738" />
    <path d="M78.75 457.04738 L78.75 480.48486" />
    <path d="M78.75 489.48486 L78.75 516.06731" />
    <path d="M85.5 45 L85.5 64.39651" />
    <path d="M85.5 73.39651 L85.5 90.05358" />
    <path d="M85.5 99.05358 L85.5 110.90118" />
    <path d="M85.5 119.90118 L85.5 152.59125" />
    <path d="M85.5 161.59125 L85.5 163.96815" />
    <path d="M85.5 172.96815 L85.5 206.99267" />
    <path d="M85.5 215.99267 L85.5 241.44699" />
    <path d="M85.5 250.44699 L85.5 288.81856" />
    <path d="M85.5 297.81856 L85.5 302.99197" />
    <path d="M85.5 311.99197 L85.5 312.27654" />
    <path d="M85.5 321.27654 L85.5 363.49105" />
    <path d="M85.5 372.49105 L85.5 397.08206" />
    <path d="M85.5 406.08206 L85.5 450.23771" />
    <path d="M85.5 459.23771 L85.5 493.50338" />
    <path d="M92.25 45 L92.25 63.67864" />
    <path d="M92.25 72.67864 L92.25 108.36273" />
    <path d="M92.25 117.36273 L92.25 133.84475" />
    <path d="M92.25 142.84475 L92.25 187.48131" />
    <path d="M92.25 196.48131 L92.25 220.84048" />
    <path d="M92.25 229.84048 L92.25 246.58314" />
    <path d="M92.25 255.58314 L92.25 282.84713" />
    <path d="M92.25 291.84713 L92.25 322.25822" />
    <path d="M92.25 331.25822 L92.25 371.06439" />
    <path d="M92.25 380.06439 L92.25 383.85663" />
    <path d="M92.25 392.85663 L92.25 427.35373" />
    <path d="M92.25 436.35373 L92.25 480.56033" />
    <path d="M92.25 489.56033 L92.25 502.38796" />
    <path d="M99 45 L99 55.03526" />
    <path d="M99 64.03526 L99 79.03694" />
    <path d="M99 88.03694 L99 95.52243" />
    <path d="M99 104.52243 L99 109.18056" />
    <path d="M99 118.18056 L99 151.83209" />
    <path d="M99 160.83209 L99 179.02397" />
    <path d="M99 188.02397 L99 227.04066" />
    <path d="M99 236.04066 L99 240.41459" />
    <path d="M99 249.41459 L99 265.27134" />
    <path d="M99 274.27134 L99 288.04646" />
    <path d="M99 297.04646 L99 312.51361" />
    <path d="M99 321.51361 L99 357.13357" />
    <path d="M99 366.13357 L99 394.48057" />
    <path d="M99 403.48057 L99 431.03188" />
    <path d="M99 440.03188 L99 482.95307" />
    <path d="M99 491.95307 L99 528.4999" />
    <path d="M105.75 45 L105.75 69.83211" />
    <path d="M105.75 78.83211 L105.75 94.78657" />
    <path d="M105.75 103.78657 L105.75 139.37396" />
    <path d="M105.75 148.37396 L105.75 154.38701" />
    <path d="M105.75 163.38701 L105.75 193.30706" />
    <path d="M105.75 202.30706 L105.75 215.94219" />
    <path d="M105.75 224.94219 L105.75 247.0799" />
    <path d="M105.75 256.0799 L105.75 282.48943" />
    <path d="M105.75 291.48943 L105.75 304.73609" />
    <path d="M105.75 313.73609 L105.75 354.97426" />
    <path d="M105.75 363.97426 L105.75 399.24609" />
    <path d="M105.75 408.24609 L105.75 447.20437" />
    <path d="M105.75 456.20437 L105.75 466.59535" />
    <path d="M105.75 475.59535 L105.75 475.6638" />
    <path d="M105.75 484.6638 L105.75 507.33672" />
    <path d="M112.5 45 L112.5 82.58678" />
    <path d="M112.5 91.58678 L112.5 109.53152" />
    <path d="M112.5 118.53152 L112.5 138.60921" />
    <path d="M112.5 147.60921 L112.5 173.56434" />
    <path d="M112.5 182.56434 L112.5 214.92762" />
    <path d="M112.5 223.92762 L112.5 231.58205" />
    <path d="M112.5 240.58205 L112.5 267.50261" />
    <path d="M112.5 276.50261 L112.5 321.14328" />
    <path d="M112.5 330.14328 L112.5 372.86019" />
    <path d="M112.5 381.86019 L112.5 411.52653" />
    <path d="M112.5 420.52653 L112.5 452.60465" />
    <path d="M112.5 461.60465 L112.5 486.67893" />
    <path d="M119.25 45 L119.25 52.1642" />
    <path d="M119.25 61.1642 L119.25 81.85846" />
    <path d="M119.25 90.85846 L119.25 129.37248" />
    <path d="M119.25 138.37248 L119.25 155.39393" />
    <path d="M119.25 164.39393 L119.25 167.31442" />
    <path d="M119.25 176.31442 L119.25 202.47765" />
    <path d="M119.25 211.47765 L119.25 236.44367" />
    <path d="M119.25 245.44367 L119.25 267.20803" />
    <path d="M119.25 276.20803 L119.25 298.32183" />
    <path d="M119.25 307.32183 L119.25 311.44509" />
    <path d="M119.25 320.44509 L119.25 360.54722" />
    <path d="M119.25 369.54722 L119.25 377.20593" />
    <path d="M119.25 386.20593 L119.25 391.37797" />
    <path d="M119.25 400.37797 L119.25 418.13639" />
    <path d="M119.25 427.13639 L119.25 467.6561" />
    <path d="M119.25 476.6561 L119.25 515.72245" />
    <path d="M126 45 L126 78.91486" />
    <path d="M126 87.91486 L126 115.54032" />
    <path d="M126 124.54032 L126 130.87877" />
    <path d="M126 139.87877 L126 150.23569" />
    <path d="M126 159.23569 L126 184.93794" />
    <path d="M126 193.93794 L126 222.13402" />
    <path d="M126 231.13402 L126 274.1052" />
    <path d="M126 283.1052 L126 289.5025" />
    <path d="M126 298.5025 L126 321.37862" />
    <path d="M126 330.37862 L126 364.24117" />
    <path d="M126 373.24117 L126 416.78207" />
    <path d="M126 425.78207 L126 444.63665" />
    <path d="M126 453.63665 L126 487.72091" />
    <path d="M132.75 45 L132.75 69.00376" />
    <path d="M132.75 78.00376 L132.75 85.71917" />
    <path d="M132.75 94.71917 L132.75 105.27063" />
    <path d="M132.75 114.27063 L132.75 155.38225" />
    <path d="M132.75 164.38225 L132.75 199.16455" />
    <path d="M132.75 208.16455 L132.75 213.50373" />
    <path d="M132.75 222.50373 L132.75 222.65829" />
    <path d="M132.75 231.65829 L132.75 268.27872" />
    <path d="M132.75 277.27872 L132.75 280.03067" />
    <path d="M132.75 289.03067 L132.75 292.41218" />
    <path d="M132.75 301.41218 L132.75 337.22176" />
    <path d="M132.75 346.22176 L132.75 373.10095" />
    <path d="M132.75 382.10095 L132.75 392.75329" />
    <path d="M132.75 401.75329 L132.75 412.15047" />
    <path d="M132.75 421.15047 L132.75 464.73382" />
    <path d="M132.75 473.73382 L132.75 513.81627" />
    <path d="M139.5 45 L139.5 55.13223" />
    <path d="M139.5 64.13223 L139.5 73.69716" />
    <path d="M139.5 82.69716 L139.5 97.60933" />
    <path d="M139.5 106.60933 L139.5 145.65877" />
    <path d="M139.5 154.65877 L139.5 159.542" />
    <path d="M139.5 168.542 L139.5 187.73816" />
    <path d="M139.5 196.73816 L139.5 197.38334" />
    <path d="M139.5 206.38334 L139.5 243.05077" />
    <path d="M139.5 252.05077 L139.5 265.42289" />
    <path d="M139.5 274.42289 L139.5 316.53841" />
    <path d="M139.5 325.53841 L139.5 327.68148" />
    <path d="M139.5 336.68148 L139.5 367.31966" />
    <path d="M139.5 376.31966 L139.5 404.14061" />
    <path d="M139.5 413.14061 L139.5 433.12481" />
    <path d="M139.5 442.12481 L139.5 471.02781" />
    <path d="M139.5 480.02781 L139.5 487.87796" />
    <path d="M146.25 45 L146.25 53.69733" />
    <path d="M146.25 62.69733 L146.25 83.2223" />
    <path d="M146.25 92.2223 L146.25 129.79595" />
    <path d="M146.25 138.79595 L146.25 172.46096" />
    <path d="M146.25 181.46096 L146.25 191.0399" />
    <path d="M146.25 200.0399 L146.25 208.51182" />
    <path d="M146.25 217.51182 L146.25 231.40339" />
    <path d="M146.25 240.40339 L146.25 251.8439" />
    <path d="M146.25 260.8439 L146.25 283.36516" />
    <path d="M146.25 292.36516 L146.25 318.68419" />
    <path d="M146.25 327.68419 L146.25 340.22539" />
    <path d="M146.25 349.22539 L146.25 391.78716" />
    <path d="M146.25 400.78716 L146.25 445.5351" />
    <path d="M146.25 454.5351 L146.25 469.77628" />
    <path d="M146.25 478.77628 L146.25 518.45129" />
    <path d="M153 45 L153 48.85972" />
    <path d="M153 57.85972 L153 66.02272" />
    <path d="M153 75.02272 L153 98.63017" />
    <path d="M153 107.63017 L153 140.72553" />
    <path d="M153 149.72553 L153 176.13826" />
    <path d="M153 185.13826 L153 209.43466" />
    <path d="M153 218.43466 L153 226.46175" />
    <path d="M153 235.46175 L153 239.22069" />
    <path d="M153 248.22069 L153 292.39283" />
    <path d="M153 301.39283 L153 306.94487" />
    <path d="M153 315.94487 L153 356.85376" />
    <path d="M153 365.85376 L153 395.75408" />
    <path d="M153 404.75408 L153 408.21685" />
    <path d="M153 417.21685 L153 441.58171" />
    <path d="M153 450.58171 L153 486.63034" />
    <path d="M159.75 45 L159.75 72.70822" />
    <path d="M159.75 81.70822 L159.75 108.04962" />
    <path d="M159.75 117.04962 L159.75 156.50025" />
    <path d="M159.75 165.50025 L159.75 196.39885" />
    <path d="M159.75 205.39885 L159.75 240.88708" />
    <path d="M159.75 249.88708 L159.75 271.91547" />
    <path d="M159.75 280.91547 L159.75 314.45916" />
    <path d="M159.75 323.45916 L159.75 345.52995" />
    <path d="M159.75 354.52995 L159.75 375.66707" />
    <path d="M159.75 384.66707 L159.75 423.03294" />
    <path d="M159.75 432.03294 L159.75 456.15768" />
    <path d="M159.75 465.15768 L159.75 476.69797" />
    <path d="M159.75 485.69797 L159.75 519.18648" />
    <path d="M166.5 45 L166.5 47.05914" />
    <path d="M166.5 56.05914 L166.5 67.00739" />
    <path d="M166.5 76.00739 L166.5 105.93518" />
    <path d="M166.5 114.93518 L166.5 157.07464" />
    <path d="M166.5 166.07464 L166.5 177.97374" />
    <path d="M166.5 186.97374 L166.5 219.42549" />
    <path d="M166.5 228.42549 L166.5 252.21662" />
    <path d="M166.5 261.21662 L166.5 279.30962" />
    <path d="M166.5 288.30962 L166.5 302.82817" />
    <path d="M166.5 311.82817 L166.5 355.0854" />
    <path d="M166.5 364.0854 L166.5 377.06178" />
    <path d="M166.5 386.06178 L166.5 423.48947" />
    <path d="M166.5 432.48947 L166.5 461.06643" />
    <path d="M166.5 470.06643 L166.5 490.27981" />
    <path d="M173.25 45 L173.25 63.7051" />
    <path d="M173.25 72.7051 L173.25 102.82247" />
    <path d="M173.25 111.82247 L173.25 125.4313" />
    <path d="M173.25 134.4313 L173.25 169.42903" />
    <path d="M173.25 178.42903 L173.25 219.75353" />
    <path d="M173.25 228.75353 L173.25 234.33613" />
    <path d="M173.25 243.33613 L173.25 270.35971" />
    <path d="M173.25 279.35971 L173.25 298.98536" />
    <path d="M173.25 307.98536 L173.25 317.49083" />
    <path d="M173.25 326.49083 L173.25 343.05965" />
    <path d="M173.25 352.05965 L173.25 356.41122" />
    <path d="M173.25 365.41122 L173.25 394.05352" />
    <path d="M173.25 403.05352 L173.25 421.72533" />
    <path d="M173.25 430.72533 L173.25 445.72014" />
    <path d="M173.25 454.72014 L173.25 482.72181" />
    <path d="M173.25 491.72181 L173.25 523.57121" />
    <path d="M180 45 L180 69.86269" />
    <path d="M180 78.86269 L180 79.73903" />
    <path d="M180 88.73903 L180 112.79967" />
    <path d="M180 121.79967 L180 160.76382" />
    <path d="M180 169.76382 L180 178.17552" />
    <path d="M180 187.17552 L180 208.58576" />
    <path d="M180 217.58576 L180 252.21955" />
    <path d="M180 261.21955 L180 280.1222" />
    <path d="M180 289.1222 L180 320.16212" />
    <path d="M180 329.16212 L180 330.16393" />
    <path d="M180 339.16393 L180 368.56538" />
    <path d="M180 377.56538 L180 396.69395" />
    <path d="M180 405.69395 L180 408.93942" />
    <path d="M180 417.93942 L180 437.72653" />
    <path d="M180 446.72653 L180 448.67727" />
    <path d="M180 457.67727 L180 489.72369" />
    <path d="M186.75 45 L186.75 77.74379" />
    <path d="M186.75 86.74379 L186.75 97.44722" />
    <path d="M186.75 106.44722 L186.75 120.03052" />
    <path d="M186.75 129.03052 L186.75 131.38944" />
    <path d="M186.75 140.38944 L186.75 181.33306" />
    <path d="M186.75 190.33306 L186.75 210.17434" />
    <path d="M186.75 219.17434 L186.75 260.58702" />
    <path d="M186.75 269.58702 L186.75 285.94391" />
    <path d="M186.75 294.94391 L186.75 326.59586" />
    <path d="M186.75 335.59586 L186.75 352.22766" />
    <path d="M186.75 361.22766 L186.75 403.63206" />
    <path d="M186.75 412.63206 L186.75 431.8771" />
    <path d="M186.75 440.8771 L186.75 461.23457" />
    <path d="M186.75 470.23457 L186.75 470.94724" />
    <path d="M186.75 479.94724 L186.75 519.29177" />
    <path d="M193.5 45 L193.5 78.06979" />
    <path d="M193.5 87.06979 L193.5 99.04576" />
    <path d="M193.5 108.04576 L193.5 121.94858" />
    <path d="M193.5 130.94858 L193.5 143.53861" />
    <path d="M193.5 152.53861 L193.5 195.47702" />
    <path d="M193.5 204.47702 L193.5 245.508" />
    <path d="M193.5 254.508 L193.5 282.51785" />
    <path d="M193.5 291.51785 L193.5 304.04278" />
    <path d="M193.5 313.04278 L193.5 345.12517" />
    <path d="M193.5 354.12517 L193.5 360.93314" />
    <path d="M193.5 369.93314 L193.5 391.21695" />
    <path d="M193.5 400.21695 L193.5 444.26941" />
    <path d="M193.5 453.26941 L193.5 469.60956" />
    <path d="M193.5 478.60956 L193.5 482.4981" />
    <path d="M193.5 491.4981 L193.5 518.46996" />
    <path d="M200.25 45 L200.25 60.35136" />
    <path d="M200.25 69.35136 L200.25 106.18244" />
    <path d="M200.25 115.18244 L200.25 131.87375" />
    <path d="M200.25 140.87375 L200.25 179.61321" />
    <path d="M200.25 188.61321 L200.25 225.60275" />
    <path d="M200.25 234.60275 L200.25 239.60999" />
    <path d="M200.25 248.60999 L200.25 287.0216" />
    <path d="M200.25 296.0216 L200.25 317.40024" />
    <path d="M200.25 326.40024 L200.25 345.00461" />
    <path d="M200.25 354.00461 L200.25 390.15115" />
    <path d="M200.25 399.15115 L200.25 430.84299" />
    <path d="M200.25 439.84299 L200.25 464.23111" />
    <path d="M200.25 473.23111 L200.25 515.11115" />
    <path d="M207 45 L207 82.54175" />
    <path d="M207 91.54175 L207 132.14639" />
    <path d="M207 141.14639 L207 158.29017" />
    <path d="M207 167.29017 L207 204.08783" />
    <path d="M207 213.08783 L207 236.05735" />
    <path d="M207 245.05735 L207 288.49503" />
    <path d="M207 297.49503 L207 330.94962" />
    <path d="M207 339.94962 L207 354.01053" />
    <path d="M207 363.01053 L207 364.35978" />
    <path d="M207 373.35978 L207 415.84049" />
    <path d="M207 424.84049 L207 425.31231" />
    <path d="M207 434.31231 L207 436.76393" />
    <path d="M207 445.76393 L207 479.99925" />
    <path d="M207 488.99925 L207 519.63573" />
    <path d="M213.75 45 L213.75 61.69572" />
    <path d="M213.75 70.69572 L213.75 110.27813" />
    <path d="M213.75 119.27813 L213.75 163.01313" />
    <path d="M213.75 172.01313 L213.75 188.50735" />
    <path d="M213.75 197.50735 L213.75 219.64386" />
    <path d="M213.75 228.64386 L213.75 267.62867" />
    <path d="M213.75 276.62867 L213.75 297.60581" />
    <path d="M213.75 306.60581 L213.75 336.19244" />
    <path d="M213.75 345.19244 L213.75 351.87852" />
    <path d="M213.75 360.87852 L213.75 384.45684" />
    <path d="M213.75 393.45684 L213.75 418.16282" />
    <path d="M213.75 427.16282 L213.75 428.47254" />
    <path d="M213.75 437.47254 L213.75 471.10547" />
    <path d="M213.75 480.10547 L213.75 498.43894" />
  </g>
</svg>