<?xml version="1.0" standalone="no"?>
<!DOCTYPE svg PUBLIC "-//W3C//DTD SVG 1.1//EN" 
    "http://www.w3.org/Graphics/SVG/1.1/DTD/svg11.dtd">
<svg width="21cm" height="29.7cm"
    xmlns="http://www.w3.org/2000/svg" version="1.1" viewBox="0 0 744.09449 1052.3622">
  <g fill="none" stroke="black" stroke-width="0.03cm">
    <path d="M248.0315 248.0315 L345.47244 499.6063" />
    <path d="M267.73633 240.05815 L347.39094 497.81727" />
    <path d="M287.94935 233.47877 L349.42956 496.16643" />
    <path d="M308.57209 228.32541 L351.57838 494.66181" />
    <path d="M329.50408 224.62317 L353.82691 493.31075" />
    <path d="M350.64333 222.39009 L356.16422 492.11984" />
    <path d="M371.88686 221.63704 L358.5789 491.09487" />
    <path d="M393.13117 222.36771 L361.0592 490.24083" />
    <path d="M414.27276 224.57852 L363.59303 489.56189" />
    <path d="M435.20863 228.25872 L366.16805 489.06136" />
    <path d="M455.83679 233.39036 L368.77172 488.74167" />
    <path d="M476.05673 239.94844 L371.39134 488.60438" />
    <path d="M495.76995 247.90103 L374.01416 488.65016" />
    <path d="M514.88041 257.20936 L376.62739 488.87879" />
    <path d="M533.29499 267.8281 L379.21831 489.28915" />
    <path d="M550.924 279.70551 L381.7743 489.87925" />
    <path d="M567.68153 292.78372 L384.28289 490.6462" />
    <path d="M583.48595 306.99903 L386.73188 491.58628" />
    <path d="M598.26027 322.28216 L389.10932 492.6949" />
    <path d="M611.93249 338.55867 L391.40364 493.96666" />
    <path d="M624.43602 355.74926 L393.60365 495.39536" />
    <path d="M635.70994 373.77017 L395.69864 496.97406" />
    <path d="M645.69932 392.53362 L397.67841 498.69504" />
    <path d="M654.3555 411.94818 L399.53331 500.54994" />
    <path d="M661.63629 431.91928 L401.25429 502.5297" />
    <path d="M667.50624 452.3496 L402.83298 504.6247" />
    <path d="M671.93674 473.13963 L404.26169 506.82471" />
    <path d="M674.90621 494.18807 L405.53345 509.11903" />
    <path d="M676.40019 515.39238 L406.64207 511.49647" />
    <path d="M676.41138 536.64925 L407.58215 513.94545" />
    <path d="M674.93974 557.85512 L408.3491 516.45405" />
    <path d="M671.99244 578.90667 L408.9392 519.01003" />
    <path d="M667.58384 599.70136 L409.34956 521.60095" />
    <path d="M661.73542 620.13786 L409.57819 524.21419" />
    <path d="M654.47566 640.11661 L409.62397 526.83701" />
    <path d="M645.83994 659.54028 L409.48668 529.45663" />
    <path d="M635.87033 678.31423 L409.16699 532.06029" />
    <path d="M624.6154 696.34701 L408.66646 534.63531" />
    <path d="M612.12998 713.55076 L407.98752 537.16915" />
    <path d="M598.4749 729.84166 L407.13348 539.64945" />
    <path d="M583.7167 745.14035 L406.10851 542.06413" />
    <path d="M567.92725 759.37229 L404.91759 544.40143" />
    <path d="M551.18351 772.46815 L403.56654 546.64997" />
    <path d="M533.56702 784.36412 L402.06192 548.79878" />
    <path d="M515.16363 795.00225 L400.41108 550.83741" />
    <path d="M496.06299 804.33071 L398.62205 552.75591" />
    <path d="M476.35816 812.30405 L396.70355 554.54494" />
    <path d="M456.14514 818.88343 L394.66493 556.19578" />
    <path d="M435.5224 824.0368 L392.51611 557.70039" />
    <path d="M414.59041 827.73904 L390.26758 559.05145" />
    <path d="M393.45116 829.97212 L387.93027 560.24237" />
    <path d="M372.20763 830.72516 L385.51559 561.26734" />
    <path d="M350.96332 829.99449 L383.03529 562.12138" />
    <path d="M329.82173 827.78368 L380.50146 562.80031" />
    <path d="M308.88586 824.10349 L377.92643 563.30085" />
    <path d="M288.2577 818.97185 L375.32277 563.62054" />
    <path d="M268.03776 812.41376 L372.70315 563.75783" />
    <path d="M248.32454 804.46118 L370.08033 563.71204" />
    <path d="M229.21408 795.15284 L367.4671 563.48342" />
    <path d="M210.7995 784.5341 L364.87618 563.07305" />
    <path d="M193.17049 772.65669 L362.32019 562.48296" />
    <path d="M176.41296 759.57848 L359.8116 561.716" />
    <path d="M160.60854 745.36318 L357.36261 560.77593" />
    <path d="M145.83422 730.08004 L354.98517 559.66731" />
    <path d="M132.16199 713.80353 L352.69085 558.39555" />
    <path d="M119.65846 696.61294 L350.49084 556.96684" />
    <path d="M108.38455 678.59203 L348.39584 555.38815" />
    <path d="M98.39517 659.82858 L346.41608 553.66716" />
    <path d="M89.73899 640.41402 L344.56118 551.81227" />
    <path d="M82.45819 620.44293 L342.8402 549.8325" />
    <path d="M76.58825 600.0126 L341.26151 547.73751" />
    <path d="M72.15774 579.22257 L339.8328 545.53749" />
    <path d="M69.18827 558.17413 L338.56104 543.24318" />
    <path d="M67.6943 536.96983 L337.45242 540.86573" />
    <path d="M67.68311 515.71296 L336.51234 538.41675" />
    <path d="M69.15474 494.50709 L335.74539 535.90816" />
    <path d="M72.10204 473.45553 L335.15529 533.35217" />
    <path d="M76.51064 452.66085 L334.74493 530.76125" />
    <path d="M82.35907 432.22435 L334.5163 528.14802" />
    <path d="M89.61883 412.2456 L334.47052 525.5252" />
    <path d="M98.25455 392.82193 L334.60781 522.90558" />
    <path d="M108.22416 374.04797 L334.9275 520.30191" />
    <path d="M119.47909 356.01519 L335.42803 517.72689" />
    <path d="M131.96451 338.81144 L336.10697 515.19306" />
    <path d="M145.61958 322.52054 L336.96101 512.71276" />
    <path d="M160.37779 307.22185 L337.98598 510.29807" />
    <path d="M176.16723 292.98991 L339.1769 507.96077" />
    <path d="M192.91098 279.89406 L340.52795 505.71223" />
    <path d="M210.52747 267.99809 L342.03257 503.56342" />
    <path d="M228.93086 257.35996 L343.68341 501.5248" />
  </g>
</svg>