<?xml version="1.0" standalone="no"?>
<!DOCTYPE svg PUBLIC "-//W3C//DTD SVG 1.1//EN" 
    "http://www.w3.org/Graphics/SVG/1.1/DTD/svg11.dtd">
<svg width="2480px" height="3508px"
    xmlns="http://www.w3.org/2000/svg" version="1.1" viewBox="0 0 2480 3508">
  <g fill="none" stroke="black" stroke-width="1.06299px">
    <path d="M100 102.737438947825 L275.521898348233 100" />
    <path d="M100 115.06895389395015 L2380 118.4266388937744" />
    <path d="M100 133.09065498247554 L2380 116.41922085536467" />
    <path d="M100 148.19370385858582 L2380 122.56861477948411" />
    <path d="M100 123.0577464872943 L2380 144.82730660621164" />
    <path d="M100 165.02306190030427 L2380 147.58143864526926" />
    <path d="M100 163.31393978724736 L2380 156.13326996182997" />
    <path d="M100 192.59982569458248 L2380 157.9562057986749" />
    <path d="M100 199.74451246227414 L2380 174.6926304545057" />
    <path d="M100 215.3576506157299 L2380 189.38856584838197" />
    <path d="M100 235.91554753512355 L2380 240.7162680898603" />
    <path d="M100 203.61828685561244 L2380 208.8401577589325" />
    <path d="M100 252.22667197176625 L2380 260.42886762168393" />
    <path d="M100 264.3927182842627 L2380 259.6197567791429" />
    <path d="M100 248.60225409808086 L2380 269.8821734254143" />
    <path d="M100 264.6476894828801 L2380 263.5644371952643" />
    <path d="M100 263.2001308712666 L2380 262.8107526138789" />
    <path d="M100 288.2916873100379 L2380 310.8706165645766" />
    <path d="M100 308.8849125279838 L2380 291.60422368824237" />
    <path d="M100 340.5155124468155 L2380 320.6911287166523" />
    <path d="M100 340.9175747702509 L2380 327.6009649563957" />
    <path d="M100 358.34459448231 L2380 348.55730577330337" />
    <path d="M100 335.3605077626011 L2380 360.37723246016765" />
    <path d="M100 365.1771109297929 L2380 377.68815251032703" />
    <path d="M100 402.7048086601482 L2380 387.6260020905948" />
    <path d="M100 414.2117459286129 L2380 379.0329484947475" />
    <path d="M100 389.6214214055528 L2380 411.80391239583497" />
    <path d="M100 431.0720124436747 L2380 403.9809902411638" />
    <path d="M100 403.38143713068746 L2380 418.764585279995" />
    <path d="M100 459.20446329503716 L2380 440.8589268522131" />
    <path d="M100 471.3330093682432 L2380 444.02837873381947" />
    <path d="M100 472.0109288502086 L2380 463.274953894276" />
    <path d="M100 469.9835312055784 L2380 450.9046722203988" />
    <path d="M100 491.64936461750375 L2380 471.3774708282225" />
    <path d="M100 483.45750928598176 L2380 478.9671939976595" />
    <path d="M100 516.609314601592 L2380 506.71711829529966" />
    <path d="M100 500.33660866473195 L2380 501.4336902400975" />
    <path d="M100 554.5245188344741 L2380 532.9852735239716" />
    <path d="M100 555.4171936819384 L2380 552.2445439519618" />
    <path d="M100 538.7935541868142 L2380 553.702603044179" />
    <path d="M100 554.8829215633225 L2380 564.7621739182571" />
    <path d="M100 584.0579345422735 L2380 589.2592917008718" />
    <path d="M100 609.8355428877236 L2380 594.8263731544996" />
    <path d="M100 618.203899041227 L2380 603.0624667223078" />
    <path d="M100 605.5215265441601 L2380 635.7667624511519" />
    <path d="M100 634.5274075212275 L2380 641.7438483730235" />
    <path d="M100 656.8885595519349 L2380 641.0809152528955" />
    <path d="M100 640.7006095079861 L2380 642.7127358361714" />
    <path d="M100 653.1364901699075 L2380 642.565939228989" />
    <path d="M100 687.9114348588514 L2380 651.220311948808" />
    <path d="M100 697.2711370420627 L2380 673.4413659779165" />
    <path d="M100 687.031412058711 L2380 683.4609801008643" />
    <path d="M100 694.3431905763023 L2380 704.7213824822564" />
    <path d="M100 742.1427366188593 L2380 705.4354999048905" />
    <path d="M100 723.1250259487572 L2380 730.727408504494" />
    <path d="M100 723.2409034205965 L2380 718.3471490760237" />
    <path d="M100 764.1124995374443 L2380 752.1766488324057" />
    <path d="M100 762.0741007031689 L2380 768.2115042056648" />
    <path d="M100 760.3185422545192 L2380 792.8896114509945" />
    <path d="M100 807.2957699920911 L2380 790.5833570888418" />
    <path d="M100 792.739516146572 L2380 792.2329114221533" />
    <path d="M100 792.3083042813225 L2380 816.5074279996063" />
    <path d="M100 844.6739101648897 L2380 836.4577075650567" />
    <path d="M100 826.8244444496664 L2380 827.3763971133276" />
    <path d="M100 845.3697003049983 L2380 860.9970384812026" />
    <path d="M100 870.5946614460152 L2380 878.6452520228319" />
    <path d="M100 880.1490235010925 L2380 859.0268728317516" />
    <path d="M100 892.9323182696905 L2380 869.8585427248963" />
    <path d="M100 884.5904571134288 L2380 911.9203715294557" />
    <path d="M100 887.6778583611236 L2380 919.5784451399625" />
    <path d="M100 938.157297092081 L2380 920.5083902187716" />
    <path d="M100 926.5187401390372 L2380 942.4694137093805" />
    <path d="M100 929.9779571034576 L2380 925.0240006089158" />
    <path d="M100 964.3808440560147 L2380 948.7382337793526" />
    <path d="M100 964.111234565863 L2380 955.0915268242388" />
    <path d="M100 962.6352544527422 L2380 955.6723181215027" />
    <path d="M100 964.7026632903796 L2380 994.46548190337" />
    <path d="M100 997.9127505359323 L2380 1000.0160121288471" />
    <path d="M100 996.3092645292227 L2380 1020.4692058522855" />
    <path d="M100 1036.4433859701398 L2380 1043.0234288827558" />
    <path d="M100 1023.46298577795 L2380 1043.7390057965538" />
    <path d="M100 1064.8642607167444 L2380 1061.8204672319312" />
    <path d="M100 1037.697431039321 L2380 1074.75014196126" />
    <path d="M100 1079.1496090455992 L2380 1061.208774467314" />
    <path d="M100 1070.2447664722818 L2380 1071.9260510534991" />
    <path d="M100 1115.6117565696002 L2380 1108.5512639169349" />
    <path d="M100 1124.3689263736176 L2380 1113.6058043175187" />
    <path d="M100 1101.6491619590379 L2380 1109.8481067109963" />
    <path d="M100 1120.3053418638433 L2380 1122.3383009998656" />
    <path d="M100 1154.14464636951 L2380 1156.203990294843" />
    <path d="M100 1134.0512517358109 L2380 1132.8150961058432" />
    <path d="M100 1148.0789518535414 L2380 1186.122719596753" />
    <path d="M100 1189.5642590548919 L2380 1192.3861008028036" />
    <path d="M100 1206.4930486565981 L2380 1168.4513602978864" />
    <path d="M100 1184.3762746613295 L2380 1213.7091554576768" />
    <path d="M100 1187.1211374198242 L2380 1192.4691822025839" />
    <path d="M100 1198.3263284397356 L2380 1225.5995108868774" />
    <path d="M100 1244.3162384819027 L2380 1221.5920439165761" />
    <path d="M100 1267.6431120528152 L2380 1230.4573723025137" />
    <path d="M100 1235.9150517205237 L2380 1242.813332728071" />
    <path d="M100 1265.5963190579728 L2380 1274.4861347238198" />
    <path d="M100 1277.3314084692347 L2380 1275.6542925108743" />
    <path d="M100 1300.7339456863951 L2380 1280.2203940875868" />
    <path d="M100 1317.820730966613 L2380 1281.7463374390109" />
    <path d="M100 1317.214289648883 L2380 1313.9007857529718" />
    <path d="M100 1335.0479919819363 L2380 1321.9180186577566" />
    <path d="M100 1349.0490260723916 L2380 1325.1072555489473" />
    <path d="M100 1340.0814762858283 L2380 1371.644021828377" />
    <path d="M100 1384.4767203907945 L2380 1346.6685664570791" />
    <path d="M100 1371.7174846599244 L2380 1375.7002264144062" />
    <path d="M100 1408.6304833161378 L2380 1373.750644077855" />
    <path d="M100 1379.750550931529 L2380 1388.263773330794" />
    <path d="M100 1405.3510329766705 L2380 1394.170356265434" />
    <path d="M100 1419.9413071615488 L2380 1408.5367614433817" />
    <path d="M100 1415.38023344387 L2380 1414.5467315739734" />
    <path d="M100 1429.6517307085305 L2380 1431.9229995852868" />
    <path d="M100 1468.3777804362508 L2380 1461.7392572742785" />
    <path d="M100 1483.7983348812693 L2380 1478.4141804631893" />
    <path d="M100 1481.5578889600745 L2380 1459.860389798837" />
    <path d="M100 1485.3770894690322 L2380 1480.1850845149186" />
    <path d="M100 1507.2891353613443 L2380 1515.0172641315567" />
    <path d="M100 1502.3054614576813 L2380 1512.2423814474437" />
    <path d="M100 1521.549819958444 L2380 1503.7403037205177" />
    <path d="M100 1539.3302544876915 L2380 1535.5659262927481" />
    <path d="M100 1536.9133209380996 L2380 1529.0594724323118" />
    <path d="M100 1565.7400202370554 L2380 1558.991047509305" />
    <path d="M100 1587.727672796926 L2380 1591.7427808131824" />
    <path d="M100 1607.933316266902 L2380 1590.3427456425127" />
    <path d="M100 1597.084786029332 L2380 1573.8598176878688" />
    <path d="M100 1604.151907331011 L2380 1588.7553538607133" />
    <path d="M100 1609.2167328291648 L2380 1638.0496949985475" />
    <path d="M100 1630.9962958114459 L2380 1647.372933354994" />
    <path d="M100 1625.2387208881396 L2380 1619.0341150049987" />
    <path d="M100 1662.7468422698466 L2380 1659.309436654159" />
    <path d="M100 1650.6339102892177 L2380 1671.5647469305184" />
    <path d="M100 1687.5744092269556 L2380 1658.2122200848714" />
    <path d="M100 1699.3282886662655 L2380 1677.1394629521596" />
    <path d="M100 1697.062806730017 L2380 1713.068743540002" />
    <path d="M100 1700.7147269470229 L2380 1723.6031229691548" />
    <path d="M100 1736.9743732130542 L2380 1719.2352083981598" />
    <path d="M100 1723.3518748931388 L2380 1758.6193508221183" />
    <path d="M100 1743.4231672957249 L2380 1733.2071070206127" />
    <path d="M100 1777.9115537944494 L2380 1771.5451394656343" />
    <path d="M100 1748.5492341608635 L2380 1749.66245714808" />
    <path d="M100 1760.066686139044 L2380 1768.0070444928763" />
    <path d="M100 1780.3341115793176 L2380 1807.9377319312364" />
    <path d="M100 1825.718422162825 L2380 1802.7386486926657" />
    <path d="M100 1794.9564040046075 L2380 1813.1116199858523" />
    <path d="M100 1807.5162879386903 L2380 1830.042232128187" />
    <path d="M100 1843.5840751792875 L2380 1845.7571883272701" />
    <path d="M100 1866.594249072475 L2380 1865.4653690127843" />
    <path d="M100 1868.2435821519846 L2380 1869.642163425765" />
    <path d="M100 1860.6094218805067 L2380 1862.829280474182" />
    <path d="M100 1890.684537761668 L2380 1905.6991539617225" />
    <path d="M100 1876.6016677144419 L2380 1875.5674518424046" />
    <path d="M100 1915.0435190324445 L2380 1932.4030162307934" />
    <path d="M100 1905.574906540773 L2380 1939.6807558577702" />
    <path d="M100 1943.7695257561431 L2380 1936.1608880909905" />
    <path d="M100 1958.9058870765973 L2380 1945.8737750928822" />
    <path d="M100 1939.3444022312367 L2380 1979.6680964018185" />
    <path d="M100 1973.872091189489 L2380 1993.8786704992294" />
    <path d="M100 1958.253684816264 L2380 1980.654974399799" />
    <path d="M100 2007.755129752615 L2380 1984.2975013112477" />
    <path d="M100 1997.0823854413109 L2380 1995.1601354491627" />
    <path d="M100 2037.3990204303116 L2380 2010.967483485448" />
    <path d="M100 2018.4848054097433 L2380 2033.4716797973624" />
    <path d="M100 2040.4862298600283 L2380 2052.5022569914804" />
    <path d="M100 2058.2287513142246 L2380 2052.93218232827" />
    <path d="M100 2058.7645766667433 L2380 2077.148004544253" />
    <path d="M100 2060.085820556857 L2380 2089.2950846033573" />
    <path d="M100 2080.6663311829025 L2380 2074.3166444478898" />
    <path d="M100 2107.503599899707 L2380 2077.6830755050337" />
    <path d="M100 2109.735534842954 L2380 2122.9577857671934" />
    <path d="M100 2137.0168896870923 L2380 2100.237973098061" />
    <path d="M100 2144.8185364254095 L2380 2157.673728810892" />
    <path d="M100 2144.6183579692865 L2380 2154.8375814719284" />
    <path d="M100 2179.7361702296034 L2380 2137.542903725231" />
    <path d="M100 2158.08197653155 L2380 2178.084493645609" />
    <path d="M100 2191.4600766548983 L2380 2160.507893435307" />
    <path d="M100 2183.3096196255788 L2380 2184.52302489647" />
    <path d="M100 2197.5295573353455 L2380 2201.195342497423" />
    <path d="M100 2219.4884888251045 L2380 2200.9959816133137" />
    <path d="M100 2219.9675473898933 L2380 2246.865423943879" />
    <path d="M100 2236.004882269481 L2380 2256.9225707800247" />
    <path d="M100 2254.395986683503 L2380 2260.629034224894" />
    <path d="M100 2245.1975185242804 L2380 2262.826222849264" />
    <path d="M100 2260.499210924655 L2380 2253.284163887119" />
    <path d="M100 2274.9679418704523 L2380 2295.6898185159266" />
    <path d="M100 2290.7460489031414 L2380 2298.7402847432186" />
    <path d="M100 2327.8203920851274 L2380 2299.8059576015526" />
    <path d="M100 2305.4262234756516 L2380 2338.578283181634" />
    <path d="M100 2323.239817507492 L2380 2351.771474357615" />
    <path d="M100 2338.41329532936 L2380 2334.283084905527" />
    <path d="M100 2342.161114076544 L2380 2338.7677499485662" />
    <path d="M100 2345.154975610631 L2380 2368.722073427754" />
    <path d="M100 2372.2835186766238 L2380 2384.0913040451264" />
    <path d="M100 2385.776078097826 L2380 2404.0236854527943" />
    <path d="M100 2394.9287723548337 L2380 2399.9292251144816" />
    <path d="M100 2405.9537349414377 L2380 2437.874065682895" />
    <path d="M100 2408.359553974273 L2380 2423.3692716666205" />
    <path d="M100 2435.7518007226404 L2380 2437.5083832005757" />
    <path d="M100 2438.779711361652 L2380 2450.7675918845366" />
    <path d="M100 2464.4262759250432 L2380 2471.057278309016" />
    <path d="M100 2493.871734840796 L2380 2477.147096989496" />
    <path d="M100 2498.0804264334292 L2380 2482.782797716211" />
    <path d="M100 2507.9624467399626 L2380 2520.5338290144937" />
    <path d="M100 2499.2002790961446 L2380 2501.3926554587256" />
    <path d="M100 2513.223171548891 L2380 2541.165127194457" />
    <path d="M100 2523.7682889481252 L2380 2515.1577319070425" />
    <path d="M100 2540.8985695638903 L2380 2537.1010570642006" />
    <path d="M100 2536.1222375875705 L2380 2531.214448021767" />
    <path d="M100 2579.314440710398 L2380 2558.17013266688" />
    <path d="M100 2583.6956520577087 L2380 2565.8706461420684" />
    <path d="M100 2574.7281961915987 L2380 2591.6729771186706" />
    <path d="M100 2584.126836868992 L2380 2620.8137554230775" />
    <path d="M100 2608.3257443068114 L2380 2622.5423358443472" />
    <path d="M100 2636.191844714157 L2380 2610.0571012423584" />
    <path d="M100 2659.515291545052 L2380 2647.2337608627304" />
    <path d="M100 2631.004922682951 L2380 2626.1263286196195" />
    <path d="M100 2679.1517177486817 L2380 2681.02458550966" />
    <path d="M100 2658.8916558982155 L2380 2692.9002938516364" />
    <path d="M100 2696.6333437792564 L2380 2682.8038681878124" />
    <path d="M100 2706.3165073453897 L2380 2712.574563522245" />
    <path d="M100 2727.9879923528 L2380 2708.045216368865" />
    <path d="M100 2730.988102409717 L2380 2719.153564532147" />
    <path d="M100 2737.40355349283 L2380 2715.632796803761" />
    <path d="M100 2757.025066167001 L2380 2724.7407783505723" />
    <path d="M100 2746.8725028023805 L2380 2729.7389905640252" />
    <path d="M100 2770.9427742126436 L2380 2749.772233701565" />
    <path d="M100 2770.6760451138675 L2380 2786.6447461686075" />
    <path d="M100 2810.699235520528 L2380 2802.9752983364506" />
    <path d="M100 2805.296613599607 L2380 2817.511120924784" />
    <path d="M100 2792.1042978254395 L2380 2797.614948782815" />
    <path d="M100 2830.612358937197 L2380 2817.941616789375" />
    <path d="M100 2844.0517767793117 L2380 2853.3288671469036" />
    <path d="M100 2846.674658875187 L2380 2865.126067406458" />
    <path d="M100 2848.1008971166048 L2380 2863.2385062483927" />
    <path d="M100 2887.9370655947687 L2380 2864.333798933" />
    <path d="M100 2866.6811832505578 L2380 2865.262068198379" />
    <path d="M100 2877.1584559659855 L2380 2905.698014521491" />
    <path d="M100 2925.22482518805 L2380 2927.1851615386486" />
    <path d="M100 2912.449915810714 L2380 2896.8830124091483" />
    <path d="M100 2906.3157538272276 L2380 2929.6765617310916" />
    <path d="M100 2934.6350702513914 L2380 2958.6032842786344" />
    <path d="M100 2965.5541347766093 L2380 2940.6261314149474" />
    <path d="M100 2985.404505770924 L2380 2949.0173097869542" />
    <path d="M100 2961.0300083548955 L2380 2993.9309395107625" />
    <path d="M100 2968.1408283548867 L2380 2974.097041847982" />
    <path d="M100 2981.5320128214144 L2380 2991.514357924473" />
    <path d="M100 3028.2678026517824 L2380 2989.836256938786" />
    <path d="M100 3015.281876013281 L2380 3044.613443785475" />
    <path d="M100 3049.053500246814 L2380 3047.1458998515823" />
    <path d="M100 3048.9508882058635 L2380 3048.2188022961905" />
    <path d="M100 3067.649079587041 L2380 3079.919013552349" />
    <path d="M100 3079.6380945188307 L2380 3076.0258090157604" />
    <path d="M100 3064.769109363336 L2380 3075.777723088088" />
    <path d="M100 3097.185604445354 L2380 3072.0970388718583" />
    <path d="M100 3126.7081449586713 L2380 3082.5333764748175" />
    <path d="M100 3117.645025134206 L2380 3140.0987007508047" />
    <path d="M100 3129.91027018588 L2380 3125.936947775851" />
    <path d="M100 3159.1642460918024 L2380 3158.4349393493953" />
    <path d="M100 3159.5064335421807 L2380 3144.694958334491" />
    <path d="M100 3142.9031422974563 L2380 3166.9879467321666" />
    <path d="M100 3182.5601992434063 L2380 3172.126192342074" />
    <path d="M100 3206.533908550871 L2380 3184.0467362961467" />
    <path d="M100 3177.9812026071213 L2380 3173.9879200521914" />
    <path d="M100 3218.0597926103655 L2380 3214.293314333418" />
    <path d="M100 3203.3173622568374 L2380 3210.378158401599" />
    <path d="M100 3226.8930264614346 L2380 3214.744385583187" />
    <path d="M100 3251.5420621207163 L2380 3265.1109580609036" />
    <path d="M100 3266.764310953174 L2380 3261.2928609850487" />
    <path d="M100 3282.1581076992697 L2380 3273.9861886522353" />
    <path d="M100 3300.7059912920918 L2380 3284.0342536203707" />
    <path d="M100 3280.2476723442496 L2380 3270.7738971742147" />
    <path d="M100 3298.3108304092584 L2380 3311.6081591345037" />
    <path d="M100 3304.701154872469 L2380 3294.179937067582" />
    <path d="M100 3329.7819526587655 L2380 3332.1868720781968" />
    <path d="M100 3340.120524221642 L2380 3358.836389887671" />
    <path d="M100 3335.714749593782 L2380 3350.431239776046" />
    <path d="M100 3381.026837550975 L2380 3364.23028483836" />
    <path d="M100 3386.1967262480816 L2380 3384.1800330248398" />
    <path d="M100 3406.5192529438514 L2380 3392.3849517810004" />
    <path d="M100 3398.5774854893652 L2380 3407.6093601000525" />
    <path d="M100 3393.579939684471 L2380 3402.815930486819" />
  </g>
</svg>