<?xml version="1.0" standalone="no"?>
<!DOCTYPE svg PUBLIC "-//W3C//DTD SVG 1.1//EN" 
    "http://www.w3.org/Graphics/SVG/1.1/DTD/svg11.dtd">
<svg width="10cm" height="15cm"
    xmlns="http://www.w3.org/2000/svg" version="1.1" viewBox="0 0 354.33071 531.49606">
  <g fill="none" stroke="black" stroke-width="0.03cm">
    <path d="M72.5106 58.33737 L44.89325 74.28225" />
    <path d="M44.89325 74.28225 L28.94837 46.6649" />
    <path d="M28.94837 46.6649 L56.56571 30.72002" />
    <path d="M56.56571 30.72002 L72.5106 58.33737" />
    <path d="M72.31775 94.44297 L44.16076 109.4143" />
    <path d="M44.16076 109.4143 L29.18942 81.25731" />
    <path d="M29.18942 81.25731 L57.34641 66.28598" />
    <path d="M57.34641 66.28598 L72.31775 94.44297" />
    <path d="M72.10155 130.54143 L43.43922 144.52098" />
    <path d="M43.43922 144.52098 L29.45967 115.85865" />
    <path d="M29.45967 115.85865 L58.122 101.8791" />
    <path d="M58.122 101.8791 L72.10155 130.54143" />
    <path d="M71.86227 166.63194 L42.72952 179.60267" />
    <path d="M42.72952 179.60267 L29.75878 150.46992" />
    <path d="M29.75878 150.46992 L58.89153 137.49919" />
    <path d="M58.89153 137.49919 L71.86227 166.63194" />
    <path d="M71.60018 202.71369 L42.03251 214.65981" />
    <path d="M42.03251 214.65981 L30.08639 185.09214" />
    <path d="M30.08639 185.09214 L59.65406 173.14602" />
    <path d="M59.65406 173.14602 L71.60018 202.71369" />
    <path d="M71.31561 238.78591 L41.34904 249.69285" />
    <path d="M41.34904 249.69285 L30.4421 219.72628" />
    <path d="M30.4421 219.72628 L60.40867 208.81933" />
    <path d="M60.40867 208.81933 L71.31561 238.78591" />
    <path d="M71.00892 274.8478 L40.67995 284.70228" />
    <path d="M40.67995 284.70228 L30.82547 254.37332" />
    <path d="M30.82547 254.37332 L61.15444 244.51884" />
    <path d="M61.15444 244.51884 L71.00892 274.8478" />
    <path d="M70.68046 310.89861 L40.02605 319.68862" />
    <path d="M40.02605 319.68862 L31.23604 289.03421" />
    <path d="M31.23604 289.03421 L61.89045 280.2442" />
    <path d="M61.89045 280.2442 L70.68046 310.89861" />
    <path d="M70.33064 346.93758 L39.38814 354.65241" />
    <path d="M39.38814 354.65241 L31.67331 323.70991" />
    <path d="M31.67331 323.70991 L62.61581 315.99508" />
    <path d="M62.61581 315.99508 L70.33064 346.93758" />
    <path d="M69.9599 382.96397 L38.767 389.59423" />
    <path d="M38.767 389.59423 L32.13674 358.40133" />
    <path d="M32.13674 358.40133 L63.32964 351.77108" />
    <path d="M63.32964 351.77108 L69.9599 382.96397" />
    <path d="M69.56867 418.97706 L38.16338 424.51466" />
    <path d="M38.16338 424.51466 L32.62578 393.10938" />
    <path d="M32.62578 393.10938 L64.03107 387.57178" />
    <path d="M64.03107 387.57178 L69.56867 418.97706" />
    <path d="M69.15743 454.97615 L37.57802 459.41435" />
    <path d="M37.57802 459.41435 L33.13982 427.83493" />
    <path d="M33.13982 427.83493 L64.71924 423.39673" />
    <path d="M64.71924 423.39673 L69.15743 454.97615" />
    <path d="M68.7267 490.96054 L37.01163 494.29392" />
    <path d="M37.01163 494.29392 L33.67824 462.57886" />
    <path d="M33.67824 462.57886 L65.39331 459.24547" />
    <path d="M65.39331 459.24547 L68.7267 490.96054" />
    <path d="M107.75082 59.0099 L79.59383 73.98123" />
    <path d="M79.59383 73.98123 L64.6225 45.82424" />
    <path d="M64.6225 45.82424 L92.77949 30.85291" />
    <path d="M92.77949 30.85291 L107.75082 59.0099" />
    <path d="M107.53462 95.10836 L78.87229 109.08791" />
    <path d="M78.87229 109.08791 L64.89274 80.42558" />
    <path d="M64.89274 80.42558 L93.55507 66.44603" />
    <path d="M93.55507 66.44603 L107.53462 95.10836" />
    <path d="M107.29534 131.19887 L78.16259 144.1696" />
    <path d="M78.16259 144.1696 L65.19185 115.03685" />
    <path d="M65.19185 115.03685 L94.3246 102.06612" />
    <path d="M94.3246 102.06612 L107.29534 131.19887" />
    <path d="M107.03325 167.28062 L77.46558 179.22674" />
    <path d="M77.46558 179.22674 L65.51946 149.65906" />
    <path d="M65.51946 149.65906 L95.08713 137.71295" />
    <path d="M95.08713 137.71295 L107.03325 167.28062" />
    <path d="M106.74868 203.35284 L76.78211 214.25978" />
    <path d="M76.78211 214.25978 L65.87517 184.2932" />
    <path d="M65.87517 184.2932 L95.84174 173.38626" />
    <path d="M95.84174 173.38626 L106.74868 203.35284" />
    <path d="M106.44199 239.41473 L76.11302 249.26921" />
    <path d="M76.11302 249.26921 L66.25854 218.94024" />
    <path d="M66.25854 218.94024 L96.58751 209.08577" />
    <path d="M96.58751 209.08577 L106.44199 239.41473" />
    <path d="M106.11353 275.46554 L75.45912 284.25555" />
    <path d="M75.45912 284.25555 L66.66911 253.60114" />
    <path d="M66.66911 253.60114 L97.32352 244.81113" />
    <path d="M97.32352 244.81113 L106.11353 275.46554" />
    <path d="M105.76371 311.50451 L74.82121 319.21934" />
    <path d="M74.82121 319.21934 L67.10638 288.27684" />
    <path d="M67.10638 288.27684 L98.04888 280.56201" />
    <path d="M98.04888 280.56201 L105.76371 311.50451" />
    <path d="M105.39297 347.5309 L74.20007 354.16116" />
    <path d="M74.20007 354.16116 L67.56982 322.96826" />
    <path d="M67.56982 322.96826 L98.76271 316.33801" />
    <path d="M98.76271 316.33801 L105.39297 347.5309" />
    <path d="M105.00174 383.54399 L73.59645 389.08159" />
    <path d="M73.59645 389.08159 L68.05885 357.67631" />
    <path d="M68.05885 357.67631 L99.46414 352.13871" />
    <path d="M99.46414 352.13871 L105.00174 383.54399" />
    <path d="M104.5905 419.54308 L73.01109 423.98128" />
    <path d="M73.01109 423.98128 L68.57289 392.40186" />
    <path d="M68.57289 392.40186 L100.15231 387.96366" />
    <path d="M100.15231 387.96366 L104.5905 419.54308" />
    <path d="M104.15977 455.52747 L72.4447 458.86085" />
    <path d="M72.4447 458.86085 L69.11131 427.14579" />
    <path d="M69.11131 427.14579 L100.82638 423.8124" />
    <path d="M100.82638 423.8124 L104.15977 455.52747" />
    <path d="M103.71005 491.49649 L71.89797 493.721" />
    <path d="M71.89797 493.721 L69.67346 461.90892" />
    <path d="M69.67346 461.90892 L101.48554 459.6844" />
    <path d="M101.48554 459.6844 L103.71005 491.49649" />
    <path d="M142.9677 59.67529 L114.30537 73.65484" />
    <path d="M114.30537 73.65484 L100.32581 44.99251" />
    <path d="M100.32581 44.99251 L128.98814 31.01296" />
    <path d="M128.98814 31.01296 L142.9677 59.67529" />
    <path d="M142.72841 95.76579 L113.59566 108.73653" />
    <path d="M113.59566 108.73653 L100.62492 79.60378" />
    <path d="M100.62492 79.60378 L129.75767 66.63305" />
    <path d="M129.75767 66.63305 L142.72841 95.76579" />
    <path d="M142.46632 131.84755 L112.89865 143.79367" />
    <path d="M112.89865 143.79367 L100.95253 114.22599" />
    <path d="M100.95253 114.22599 L130.52021 102.27988" />
    <path d="M130.52021 102.27988 L142.46632 131.84755" />
    <path d="M142.18176 167.91977 L112.21518 178.82671" />
    <path d="M112.21518 178.82671 L101.30824 148.86013" />
    <path d="M101.30824 148.86013 L131.27481 137.95319" />
    <path d="M131.27481 137.95319 L142.18176 167.91977" />
    <path d="M141.87506 203.98166 L111.54609 213.83614" />
    <path d="M111.54609 213.83614 L101.69161 183.50717" />
    <path d="M101.69161 183.50717 L132.02058 173.65269" />
    <path d="M132.02058 173.65269 L141.87506 203.98166" />
    <path d="M141.5466 240.03247 L110.89219 248.82248" />
    <path d="M110.89219 248.82248 L102.10218 218.16807" />
    <path d="M102.10218 218.16807 L132.75659 209.37806" />
    <path d="M132.75659 209.37806 L141.5466 240.03247" />
    <path d="M141.19679 276.07144 L110.25428 283.78627" />
    <path d="M110.25428 283.78627 L102.53945 252.84377" />
    <path d="M102.53945 252.84377 L133.48195 245.12894" />
    <path d="M133.48195 245.12894 L141.19679 276.07144" />
    <path d="M140.82604 312.09783 L109.63314 318.72809" />
    <path d="M109.63314 318.72809 L103.00289 287.53519" />
    <path d="M103.00289 287.53519 L134.19578 280.90494" />
    <path d="M134.19578 280.90494 L140.82604 312.09783" />
    <path d="M140.43481 348.11092 L109.02952 353.64852" />
    <path d="M109.02952 353.64852 L103.49192 322.24324" />
    <path d="M103.49192 322.24324 L134.89721 316.70564" />
    <path d="M134.89721 316.70564 L140.43481 348.11092" />
    <path d="M140.02358 384.11001 L108.44416 388.5482" />
    <path d="M108.44416 388.5482 L104.00596 356.96879" />
    <path d="M104.00596 356.96879 L135.58538 352.53059" />
    <path d="M135.58538 352.53059 L140.02358 384.11001" />
    <path d="M139.59284 420.0944 L107.87777 423.42778" />
    <path d="M107.87777 423.42778 L104.54438 391.71271" />
    <path d="M104.54438 391.71271 L136.25945 388.37933" />
    <path d="M136.25945 388.37933 L139.59284 420.0944" />
    <path d="M139.14313 456.06341 L107.33104 458.28793" />
    <path d="M107.33104 458.28793 L105.10653 426.47585" />
    <path d="M105.10653 426.47585 L136.91861 424.25133" />
    <path d="M136.91861 424.25133 L139.14313 456.06341" />
    <path d="M138.67498 492.01641 L106.80464 493.12935" />
    <path d="M106.80464 493.12935 L105.69171 461.25901" />
    <path d="M105.69171 461.25901 L137.56204 460.14608" />
    <path d="M137.56204 460.14608 L138.67498 492.01641" />
    <path d="M178.16148 60.33272 L149.02873 73.30346" />
    <path d="M149.02873 73.30346 L136.05799 44.17071" />
    <path d="M136.05799 44.17071 L165.19074 31.19997" />
    <path d="M165.19074 31.19997 L178.16148 60.33272" />
    <path d="M177.89939 96.41448 L148.33172 108.3606" />
    <path d="M148.33172 108.3606 L136.3856 78.79292" />
    <path d="M136.3856 78.79292 L165.95328 66.84681" />
    <path d="M165.95328 66.84681 L177.89939 96.41448" />
    <path d="M177.61483 132.4867 L147.64825 143.39364" />
    <path d="M147.64825 143.39364 L136.74131 113.42706" />
    <path d="M136.74131 113.42706 L166.70788 102.52012" />
    <path d="M166.70788 102.52012 L177.61483 132.4867" />
    <path d="M177.30813 168.54859 L146.97916 178.40307" />
    <path d="M146.97916 178.40307 L137.12468 148.0741" />
    <path d="M137.12468 148.0741 L167.45365 138.21962" />
    <path d="M167.45365 138.21962 L177.30813 168.54859" />
    <path d="M176.97967 204.5994 L146.32526 213.38941" />
    <path d="M146.32526 213.38941 L137.53525 182.735" />
    <path d="M137.53525 182.735 L168.18966 173.94499" />
    <path d="M168.18966 173.94499 L176.97967 204.5994" />
    <path d="M176.62986 240.63837 L145.68735 248.3532" />
    <path d="M145.68735 248.3532 L137.97252 217.4107" />
    <path d="M137.97252 217.4107 L168.91502 209.69587" />
    <path d="M168.91502 209.69587 L176.62986 240.63837" />
    <path d="M176.25911 276.66476 L145.06621 283.29502" />
    <path d="M145.06621 283.29502 L138.43596 252.10212" />
    <path d="M138.43596 252.10212 L169.62885 245.47186" />
    <path d="M169.62885 245.47186 L176.25911 276.66476" />
    <path d="M175.86788 312.67785 L144.46259 318.21545" />
    <path d="M144.46259 318.21545 L138.92499 286.81017" />
    <path d="M138.92499 286.81017 L170.33028 281.27257" />
    <path d="M170.33028 281.27257 L175.86788 312.67785" />
    <path d="M175.45665 348.67694 L143.87723 353.11513" />
    <path d="M143.87723 353.11513 L139.43903 321.53572" />
    <path d="M139.43903 321.53572 L171.01845 317.09752" />
    <path d="M171.01845 317.09752 L175.45665 348.67694" />
    <path d="M175.02591 384.66132 L143.31084 387.99471" />
    <path d="M143.31084 387.99471 L139.97745 356.27964" />
    <path d="M139.97745 356.27964 L171.69252 352.94626" />
    <path d="M171.69252 352.94626 L175.02591 384.66132" />
    <path d="M174.5762 420.63034 L142.76411 422.85486" />
    <path d="M142.76411 422.85486 L140.5396 391.04278" />
    <path d="M140.5396 391.04278 L172.35168 388.81826" />
    <path d="M172.35168 388.81826 L174.5762 420.63034" />
    <path d="M174.10805 456.58334 L142.23771 457.69628" />
    <path d="M142.23771 457.69628 L141.12478 425.82594" />
    <path d="M141.12478 425.82594 L172.99512 424.713" />
    <path d="M172.99512 424.713 L174.10805 456.58334" />
    <path d="M173.62205 492.51969 L141.73228 492.51969" />
    <path d="M141.73228 492.51969 L141.73228 460.62992" />
    <path d="M141.73228 460.62992 L173.62205 460.62992" />
    <path d="M173.62205 460.62992 L173.62205 492.51969" />
    <path d="M213.33246 60.98141 L183.76479 72.92753" />
    <path d="M183.76479 72.92753 L171.81867 43.35985" />
    <path d="M171.81867 43.35985 L201.38635 31.41374" />
    <path d="M201.38635 31.41374 L213.33246 60.98141" />
    <path d="M213.0479 97.05363 L183.08132 107.96057" />
    <path d="M183.08132 107.96057 L172.17438 77.99399" />
    <path d="M172.17438 77.99399 L202.14096 67.08705" />
    <path d="M202.14096 67.08705 L213.0479 97.05363" />
    <path d="M212.7412 133.11552 L182.41223 142.97" />
    <path d="M182.41223 142.97 L172.55775 112.64103" />
    <path d="M172.55775 112.64103 L202.88672 102.78655" />
    <path d="M202.88672 102.78655 L212.7412 133.11552" />
    <path d="M212.41274 169.16633 L181.75833 177.95634" />
    <path d="M181.75833 177.95634 L172.96832 147.30193" />
    <path d="M172.96832 147.30193 L203.62273 138.51192" />
    <path d="M203.62273 138.51192 L212.41274 169.16633" />
    <path d="M212.06293 205.2053 L181.12043 212.92013" />
    <path d="M181.12043 212.92013 L173.40559 181.97763" />
    <path d="M173.40559 181.97763 L204.34809 174.2628" />
    <path d="M204.34809 174.2628 L212.06293 205.2053" />
    <path d="M211.69218 241.23169 L180.49928 247.86194" />
    <path d="M180.49928 247.86194 L173.86903 216.66905" />
    <path d="M173.86903 216.66905 L205.06192 210.03879" />
    <path d="M205.06192 210.03879 L211.69218 241.23169" />
    <path d="M211.30095 277.24478 L179.89566 282.78238" />
    <path d="M179.89566 282.78238 L174.35806 251.37709" />
    <path d="M174.35806 251.37709 L205.76335 245.83949" />
    <path d="M205.76335 245.83949 L211.30095 277.24478" />
    <path d="M210.88972 313.24387 L179.3103 317.68206" />
    <path d="M179.3103 317.68206 L174.87211 286.10265" />
    <path d="M174.87211 286.10265 L206.45152 281.66445" />
    <path d="M206.45152 281.66445 L210.88972 313.24387" />
    <path d="M210.45898 349.22825 L178.74391 352.56164" />
    <path d="M178.74391 352.56164 L175.41053 320.84657" />
    <path d="M175.41053 320.84657 L207.12559 317.51319" />
    <path d="M207.12559 317.51319 L210.45898 349.22825" />
    <path d="M210.00927 385.19727 L178.19719 387.42179" />
    <path d="M178.19719 387.42179 L175.97267 355.60971" />
    <path d="M175.97267 355.60971 L207.78475 353.38519" />
    <path d="M207.78475 353.38519 L210.00927 385.19727" />
    <path d="M209.54112 421.15027 L177.67079 422.26321" />
    <path d="M177.67079 422.26321 L176.55785 390.39287" />
    <path d="M176.55785 390.39287 L208.42819 389.27993" />
    <path d="M208.42819 389.27993 L209.54112 421.15027" />
    <path d="M209.05512 457.08661 L177.16535 457.08661" />
    <path d="M177.16535 457.08661 L177.16535 425.19685" />
    <path d="M177.16535 425.19685 L209.05512 425.19685" />
    <path d="M209.05512 425.19685 L209.05512 457.08661" />
    <path d="M208.55185 493.00569 L176.68151 491.89275" />
    <path d="M176.68151 491.89275 L177.79444 460.02242" />
    <path d="M177.79444 460.02242 L209.66478 461.13535" />
    <path d="M209.66478 461.13535 L208.55185 493.00569" />
    <path d="M248.48097 61.62055 L218.51439 72.5275" />
    <path d="M218.51439 72.5275 L207.60745 42.56092" />
    <path d="M207.60745 42.56092 L237.57403 31.65398" />
    <path d="M237.57403 31.65398 L248.48097 61.62055" />
    <path d="M248.17427 97.68245 L217.8453 107.53693" />
    <path d="M217.8453 107.53693 L207.99082 77.20796" />
    <path d="M207.99082 77.20796 L238.31979 67.35348" />
    <path d="M238.31979 67.35348 L248.17427 97.68245" />
    <path d="M247.84581 133.73326 L217.1914 142.52327" />
    <path d="M217.1914 142.52327 L208.40139 111.86886" />
    <path d="M208.40139 111.86886 L239.0558 103.07885" />
    <path d="M239.0558 103.07885 L247.84581 133.73326" />
    <path d="M247.496 169.77223 L216.5535 177.48706" />
    <path d="M216.5535 177.48706 L208.83866 146.54456" />
    <path d="M208.83866 146.54456 L239.78117 138.82973" />
    <path d="M239.78117 138.82973 L247.496 169.77223" />
    <path d="M247.12525 205.79862 L215.93235 212.42887" />
    <path d="M215.93235 212.42887 L209.3021 181.23598" />
    <path d="M209.3021 181.23598 L240.495 174.60572" />
    <path d="M240.495 174.60572 L247.12525 205.79862" />
    <path d="M246.73402 241.81171 L215.32873 247.34931" />
    <path d="M215.32873 247.34931 L209.79114 215.94402" />
    <path d="M209.79114 215.94402 L241.19642 210.40642" />
    <path d="M241.19642 210.40642 L246.73402 241.81171" />
    <path d="M246.32279 277.81079 L214.74337 282.24899" />
    <path d="M214.74337 282.24899 L210.30518 250.66958" />
    <path d="M210.30518 250.66958 L241.88459 246.23138" />
    <path d="M241.88459 246.23138 L246.32279 277.81079" />
    <path d="M245.89205 313.79518 L214.17698 317.12857" />
    <path d="M214.17698 317.12857 L210.8436 285.4135" />
    <path d="M210.8436 285.4135 L242.55866 282.08011" />
    <path d="M242.55866 282.08011 L245.89205 313.79518" />
    <path d="M245.44234 349.7642 L213.63026 351.98872" />
    <path d="M213.63026 351.98872 L211.40574 320.17664" />
    <path d="M211.40574 320.17664 L243.21782 317.95212" />
    <path d="M243.21782 317.95212 L245.44234 349.7642" />
    <path d="M244.97419 385.7172 L213.10386 386.83014" />
    <path d="M213.10386 386.83014 L211.99092 354.9598" />
    <path d="M211.99092 354.9598 L243.86126 353.84686" />
    <path d="M243.86126 353.84686 L244.97419 385.7172" />
    <path d="M244.48819 421.65354 L212.59843 421.65354" />
    <path d="M212.59843 421.65354 L212.59843 389.76378" />
    <path d="M212.59843 389.76378 L244.48819 389.76378" />
    <path d="M244.48819 389.76378 L244.48819 421.65354" />
    <path d="M243.98492 457.57262 L212.11458 456.45968" />
    <path d="M212.11458 456.45968 L213.22752 424.58934" />
    <path d="M213.22752 424.58934 L245.09785 425.70228" />
    <path d="M245.09785 425.70228 L243.98492 457.57262" />
    <path d="M243.46499 493.47383 L211.65291 491.24932" />
    <path d="M211.65291 491.24932 L213.87742 459.43723" />
    <path d="M213.87742 459.43723 L245.68951 461.66175" />
    <path d="M245.68951 461.66175 L243.46499 493.47383" />
    <path d="M283.60734 62.24938 L253.27837 72.10386" />
    <path d="M253.27837 72.10386 L243.42389 41.77489" />
    <path d="M243.42389 41.77489 L273.75286 31.92041" />
    <path d="M273.75286 31.92041 L283.60734 62.24938" />
    <path d="M283.27888 98.30019 L252.62448 107.0902" />
    <path d="M252.62448 107.0902 L243.83447 76.43579" />
    <path d="M243.83447 76.43579 L274.48887 67.64578" />
    <path d="M274.48887 67.64578 L283.27888 98.30019" />
    <path d="M282.92907 134.33916 L251.98657 142.05399" />
    <path d="M251.98657 142.05399 L244.27174 111.11149" />
    <path d="M244.27174 111.11149 L275.21424 103.39666" />
    <path d="M275.21424 103.39666 L282.92907 134.33916" />
    <path d="M282.55832 170.36555 L251.36542 176.9958" />
    <path d="M251.36542 176.9958 L244.73517 145.80291" />
    <path d="M244.73517 145.80291 L275.92807 139.17265" />
    <path d="M275.92807 139.17265 L282.55832 170.36555" />
    <path d="M282.16709 206.37864 L250.76181 211.91624" />
    <path d="M250.76181 211.91624 L245.22421 180.51095" />
    <path d="M245.22421 180.51095 L276.62949 174.97335" />
    <path d="M276.62949 174.97335 L282.16709 206.37864" />
    <path d="M281.75586 242.37772 L250.17644 246.81592" />
    <path d="M250.17644 246.81592 L245.73825 215.23651" />
    <path d="M245.73825 215.23651 L277.31766 210.79831" />
    <path d="M277.31766 210.79831 L281.75586 242.37772" />
    <path d="M281.32512 278.36211 L249.61005 281.6955" />
    <path d="M249.61005 281.6955 L246.27667 249.98043" />
    <path d="M246.27667 249.98043 L277.99174 246.64704" />
    <path d="M277.99174 246.64704 L281.32512 278.36211" />
    <path d="M280.87541 314.33113 L249.06333 316.55565" />
    <path d="M249.06333 316.55565 L246.83881 284.74357" />
    <path d="M246.83881 284.74357 L278.65089 282.51905" />
    <path d="M278.65089 282.51905 L280.87541 314.33113" />
    <path d="M280.40726 350.28413 L248.53693 351.39707" />
    <path d="M248.53693 351.39707 L247.42399 319.52673" />
    <path d="M247.42399 319.52673 L279.29433 318.41379" />
    <path d="M279.29433 318.41379 L280.40726 350.28413" />
    <path d="M279.92126 386.22047 L248.0315 386.22047" />
    <path d="M248.0315 386.22047 L248.0315 354.33071" />
    <path d="M248.0315 354.33071 L279.92126 354.33071" />
    <path d="M279.92126 354.33071 L279.92126 386.22047" />
    <path d="M279.41799 422.13955 L247.54765 421.02661" />
    <path d="M247.54765 421.02661 L248.66059 389.15627" />
    <path d="M248.66059 389.15627 L280.53092 390.26921" />
    <path d="M280.53092 390.26921 L279.41799 422.13955" />
    <path d="M278.89806 458.04076 L247.08598 455.81625" />
    <path d="M247.08598 455.81625 L249.3105 424.00416" />
    <path d="M249.3105 424.00416 L281.12258 426.22868" />
    <path d="M281.12258 426.22868 L278.89806 458.04076" />
    <path d="M278.36211 493.92355 L246.64704 490.59016" />
    <path d="M246.64704 490.59016 L249.98043 458.87509" />
    <path d="M249.98043 458.87509 L281.6955 462.20848" />
    <path d="M281.6955 462.20848 L278.36211 493.92355" />
    <path d="M318.71196 62.86712 L288.05755 71.65713" />
    <path d="M288.05755 71.65713 L279.26754 41.00272" />
    <path d="M279.26754 41.00272 L309.92194 32.21271" />
    <path d="M309.92194 32.21271 L318.71196 62.86712" />
    <path d="M318.36214 98.90609 L287.41964 106.62092" />
    <path d="M287.41964 106.62092 L279.70481 75.67842" />
    <path d="M279.70481 75.67842 L310.64731 67.96358" />
    <path d="M310.64731 67.96358 L318.36214 98.90609" />
    <path d="M317.99139 134.93248 L286.7985 141.56273" />
    <path d="M286.7985 141.56273 L280.16824 110.36984" />
    <path d="M280.16824 110.36984 L311.36114 103.73958" />
    <path d="M311.36114 103.73958 L317.99139 134.93248" />
    <path d="M317.60016 170.94557 L286.19488 176.48317" />
    <path d="M286.19488 176.48317 L280.65728 145.07788" />
    <path d="M280.65728 145.07788 L312.06256 139.54028" />
    <path d="M312.06256 139.54028 L317.60016 170.94557" />
    <path d="M317.18893 206.94465 L285.60952 211.38285" />
    <path d="M285.60952 211.38285 L281.17132 179.80344" />
    <path d="M281.17132 179.80344 L312.75073 175.36524" />
    <path d="M312.75073 175.36524 L317.18893 206.94465" />
    <path d="M316.75819 242.92904 L285.04313 246.26243" />
    <path d="M285.04313 246.26243 L281.70974 214.54736" />
    <path d="M281.70974 214.54736 L313.42481 211.21397" />
    <path d="M313.42481 211.21397 L316.75819 242.92904" />
    <path d="M316.30848 278.89806 L284.4964 281.12258" />
    <path d="M284.4964 281.12258 L282.27188 249.3105" />
    <path d="M282.27188 249.3105 L314.08396 247.08598" />
    <path d="M314.08396 247.08598 L316.30848 278.89806" />
    <path d="M315.84034 314.85106 L283.97 315.96399" />
    <path d="M283.97 315.96399 L282.85706 284.09366" />
    <path d="M282.85706 284.09366 L314.7274 282.98072" />
    <path d="M314.7274 282.98072 L315.84034 314.85106" />
    <path d="M315.35433 350.7874 L283.46457 350.7874" />
    <path d="M283.46457 350.7874 L283.46457 318.89764" />
    <path d="M283.46457 318.89764 L315.35433 318.89764" />
    <path d="M315.35433 318.89764 L315.35433 350.7874" />
    <path d="M314.85106 386.70648 L282.98072 385.59354" />
    <path d="M282.98072 385.59354 L284.09366 353.7232" />
    <path d="M284.09366 353.7232 L315.96399 354.83614" />
    <path d="M315.96399 354.83614 L314.85106 386.70648" />
    <path d="M314.33113 422.60769 L282.51905 420.38317" />
    <path d="M282.51905 420.38317 L284.74357 388.57109" />
    <path d="M284.74357 388.57109 L316.55565 390.79561" />
    <path d="M316.55565 390.79561 L314.33113 422.60769" />
    <path d="M313.79518 458.49048 L282.08011 455.15709" />
    <path d="M282.08011 455.15709 L285.4135 423.44202" />
    <path d="M285.4135 423.44202 L317.12857 426.77541" />
    <path d="M317.12857 426.77541 L313.79518 458.49048" />
    <path d="M313.24387 494.35428 L281.66445 489.91609" />
    <path d="M281.66445 489.91609 L286.10265 458.33667" />
    <path d="M286.10265 458.33667 L317.68206 462.77487" />
    <path d="M317.68206 462.77487 L313.24387 494.35428" />
  </g>
</svg>