<?xml version="1.0" standalone="no"?>
<!DOCTYPE svg PUBLIC "-//W3C//DTD SVG 1.1//EN" 
    "http://www.w3.org/Graphics/SVG/1.1/DTD/svg11.dtd">
<svg width="2480px" height="3508px"
    xmlns="http://www.w3.org/2000/svg" version="1.1" viewBox="0 0 2480 3508">
  <g fill="none" stroke="black" stroke-width="1.06299px">
    <path d="M511 1025 L1969 1025" />
    <path d="M1969 1025 L1969 2483" />
    <path d="M1969 2483 L511 2483" />
    <path d="M511 2483 L511 1025" />
    <path d="M523.8338345237704 1012.3882259382111 L1981.6117740617888 1037.8338345237703" />
    <path d="M1981.6117740617888 1037.8338345237703 L1956.1661654762297 2495.6117740617888" />
    <path d="M1956.1661654762297 2495.6117740617888 L498.3882259382111 2470.1661654762297" />
    <path d="M498.3882259382111 2470.1661654762297 L523.8338345237704 1012.3882259382111" />
    <path d="M536.8858201992024 1000.0023540069559 L1993.997645993044 1050.8858201992025" />
    <path d="M1993.997645993044 1050.8858201992025 L1943.1141798007975 2507.997645993044" />
    <path d="M1943.1141798007975 2507.997645993044 L486.0023540069559 2457.1141798007975" />
    <path d="M486.0023540069559 2457.1141798007975 L536.8858201992024 1000.0023540069559" />
    <path d="M550.1519812650217 987.8461570628097 L2006.1538429371903 1064.1519812650217" />
    <path d="M2006.1538429371903 1064.1519812650217 L1929.8480187349783 2520.1538429371903" />
    <path d="M1929.8480187349783 2520.1538429371903 L473.84615706280965 2443.8480187349783" />
    <path d="M473.84615706280965 2443.8480187349783 L550.1519812650217 987.8461570628097" />
    <path d="M563.6282767200555 975.9233380011208 L2018.0766619988792 1077.6282767200555" />
    <path d="M2018.0766619988792 1077.6282767200555 L1916.3717232799445 2532.076661998879" />
    <path d="M1916.3717232799445 2532.076661998879 L461.9233380011208 2430.3717232799445" />
    <path d="M461.9233380011208 2430.3717232799445 L563.6282767200555 975.9233380011208" />
    <path d="M577.3106015541603 964.2375286280746 L2029.7624713719254 1091.3106015541603" />
    <path d="M2029.7624713719254 1091.3106015541603 L1902.6893984458397 2543.762471371925" />
    <path d="M1902.6893984458397 2543.762471371925 L450.23752862807464 2416.6893984458397" />
    <path d="M450.23752862807464 2416.6893984458397 L577.3106015541603 964.2375286280746" />
    <path d="M591.1947879986482 952.7922885544093 L2041.2077114455906 1105.1947879986483" />
    <path d="M2041.2077114455906 1105.1947879986483 L1888.8052120013517 2555.2077114455906" />
    <path d="M1888.8052120013517 2555.2077114455906 L438.7922885544093 2402.8052120013517" />
    <path d="M438.7922885544093 2402.8052120013517 L591.1947879986482 952.7922885544093" />
    <path d="M605.2766067958288 941.5911041111239 L2052.408895888876 1119.2766067958287" />
    <path d="M2052.408895888876 1119.2766067958287 L1874.7233932041713 2566.408895888876" />
    <path d="M1874.7233932041713 2566.408895888876 L427.59110411112385 2388.7233932041713" />
    <path d="M427.59110411112385 2388.7233932041713 L605.2766067958288 941.5911041111239" />
    <path d="M619.5517684872829 930.6373872875075 L2063.3626127124926 1133.551768487283" />
    <path d="M2063.3626127124926 1133.551768487283 L1860.448231512717 2577.3626127124926" />
    <path d="M1860.448231512717 2577.3626127124926 L416.6373872875075 2374.448231512717" />
    <path d="M416.6373872875075 2374.448231512717 L619.5517684872829 930.6373872875075" />
    <path d="M634.0159247204729 919.9344746918164 L2074.0655253081836 1148.0159247204729" />
    <path d="M2074.0655253081836 1148.0159247204729 L1845.9840752795271 2588.0655253081836" />
    <path d="M1845.9840752795271 2588.0655253081836 L405.9344746918164 2359.984075279527" />
    <path d="M405.9344746918164 2359.984075279527 L634.0159247204729 919.9344746918164" />
    <path d="M648.6646695732926 909.4856265349082 L2084.514373465092 1162.6646695732925" />
    <path d="M2084.514373465092 1162.6646695732925 L1831.3353304267075 2598.514373465092" />
    <path d="M1831.3353304267075 2598.514373465092 L395.4856265349082 2345.3353304267075" />
    <path d="M395.4856265349082 2345.3353304267075 L648.6646695732926 909.4856265349082" />
    <path d="M663.4935408961541 899.2940256371518 L2094.7059743628483 1177.4935408961542" />
    <path d="M2094.7059743628483 1177.4935408961542 L1816.5064591038458 2608.7059743628483" />
    <path d="M1816.5064591038458 2608.7059743628483 L385.2940256371518 2330.506459103846" />
    <path d="M385.2940256371518 2330.506459103846 L663.4935408961541 899.2940256371518" />
    <path d="M678.4980216712022 889.3627764589091 L2104.637223541091 1192.4980216712022" />
    <path d="M2104.637223541091 1192.4980216712022 L1801.5019783287978 2618.637223541091" />
    <path d="M1801.5019783287978 2618.637223541091 L375.36277645890914 2315.501978328798" />
    <path d="M375.36277645890914 2315.501978328798 L678.4980216712022 889.3627764589091" />
    <path d="M693.6735413882411 879.694904154886 L2114.305095845114 1207.6735413882411" />
    <path d="M2114.305095845114 1207.6735413882411 L1786.3264586117589 2628.305095845114" />
    <path d="M1786.3264586117589 2628.305095845114 L365.694904154886 2300.326458611759" />
    <path d="M365.694904154886 2300.326458611759 L693.6735413882411 879.694904154886" />
    <path d="M709.0154774369563 870.2933536526408 L2123.7066463473593 1223.0154774369562" />
    <path d="M2123.7066463473593 1223.0154774369562 L1770.9845225630438 2637.7066463473593" />
    <path d="M1770.9845225630438 2637.7066463473593 L356.2933536526408 2284.984522563044" />
    <path d="M356.2933536526408 2284.984522563044 L709.0154774369563 870.2933536526408" />
    <path d="M724.5191565150068 861.1609887555315 L2132.8390112444686 1238.5191565150067" />
    <path d="M2132.8390112444686 1238.5191565150067 L1755.4808434849933 2646.8390112444686" />
    <path d="M1755.4808434849933 2646.8390112444686 L347.16098875553155 2269.4808434849933" />
    <path d="M347.16098875553155 2269.4808434849933 L724.5191565150068 861.1609887555315" />
    <path d="M740.1798560515579 852.3005912703732 L2141.699408729627 1254.1798560515579" />
    <path d="M2141.699408729627 1254.1798560515579 L1739.8201439484421 2655.699408729627" />
    <path d="M1739.8201439484421 2655.699408729627 L338.30059127037316 2253.820143948442" />
    <path d="M338.30059127037316 2253.820143948442 L740.1798560515579 852.3005912703732" />
    <path d="M755.9928056458223 843.714860160072 L2150.285139839928 1269.9928056458223" />
    <path d="M2150.285139839928 1269.9928056458223 L1724.0071943541777 2664.285139839928" />
    <path d="M1724.0071943541777 2664.285139839928 L329.714860160072 2238.007194354178" />
    <path d="M329.714860160072 2238.007194354178 L755.9928056458223 843.714860160072" />
    <path d="M771.9531885201696 835.4064107214964 L2158.5935892785037 1285.9531885201695" />
    <path d="M2158.5935892785037 1285.9531885201695 L1708.0468114798305 2672.5935892785037" />
    <path d="M1708.0468114798305 2672.5935892785037 L321.4064107214964 2222.0468114798305" />
    <path d="M321.4064107214964 2222.0468114798305 L771.9531885201696 835.4064107214964" />
    <path d="M788.0561429873652 827.3777737888307 L2166.622226211169 1302.056142987365" />
    <path d="M2166.622226211169 1302.056142987365 L1691.943857012635 2680.622226211169" />
    <path d="M1691.943857012635 2680.622226211169 L313.3777737888307 2205.943857012635" />
    <path d="M313.3777737888307 2205.943857012635 L788.0561429873652 827.3777737888307" />
    <path d="M804.2967639314852 819.6313949626604 L2174.36860503734 1318.2967639314852" />
    <path d="M2174.36860503734 1318.2967639314852 L1675.7032360685148 2688.36860503734" />
    <path d="M1675.7032360685148 2688.36860503734 L305.63139496266035 2189.703236068515" />
    <path d="M305.63139496266035 2189.703236068515 L804.2967639314852 819.6313949626604" />
    <path d="M820.6701043020637 812.1696338650161 L2181.8303661349837 1334.6701043020637" />
    <path d="M2181.8303661349837 1334.6701043020637 L1659.3298956979363 2695.8303661349837" />
    <path d="M1659.3298956979363 2695.8303661349837 L298.16963386501607 2173.329895697936" />
    <path d="M298.16963386501607 2173.329895697936 L820.6701043020637 812.1696338650161" />
    <path d="M837.1711766210119 804.9947634206121 L2189.005236579388 1351.171176621012" />
    <path d="M2189.005236579388 1351.171176621012 L1642.828823378988 2703.005236579388" />
    <path d="M1642.828823378988 2703.005236579388 L290.9947634206121 2156.828823378988" />
    <path d="M290.9947634206121 2156.828823378988 L837.1711766210119 804.9947634206121" />
    <path d="M853.7949545018514 798.1089691644904 L2195.89103083551 1367.7949545018514" />
    <path d="M2195.89103083551 1367.7949545018514 L1626.2050454981486 2709.89103083551" />
    <path d="M1626.2050454981486 2709.89103083551 L284.1089691644904 2140.2050454981486" />
    <path d="M284.1089691644904 2140.2050454981486 L853.7949545018514 798.1089691644904" />
    <path d="M870.5363741808023 791.5143485762856 L2202.4856514237144 1384.5363741808023" />
    <path d="M2202.4856514237144 1384.5363741808023 L1609.4636258191977 2716.4856514237144" />
    <path d="M1609.4636258191977 2716.4856514237144 L277.51434857628556 2123.4636258191977" />
    <path d="M277.51434857628556 2123.4636258191977 L870.5363741808023 791.5143485762856" />
    <path d="M887.3903360592521 785.2129104413123 L2208.7870895586875 1401.3903360592521" />
    <path d="M2208.7870895586875 1401.3903360592521 L1592.6096639407479 2722.7870895586875" />
    <path d="M1592.6096639407479 2722.7870895586875 L271.21291044131226 2106.609663940748" />
    <path d="M271.21291044131226 2106.609663940748 L887.3903360592521 785.2129104413123" />
    <path d="M904.3517062571447 779.2065742386698 L2214.79342576133 1418.3517062571445" />
    <path d="M2214.79342576133 1418.3517062571445 L1575.6482937428555 2728.79342576133" />
    <path d="M1575.6482937428555 2728.79342576133 L265.20657423866976 2089.6482937428555" />
    <path d="M265.20657423866976 2089.6482937428555 L904.3517062571447 779.2065742386698" />
    <path d="M921.4153181768094 773.4971695565501 L2220.50283044345 1435.4153181768093" />
    <path d="M2220.50283044345 1435.4153181768093 L1558.5846818231907 2734.50283044345" />
    <path d="M1558.5846818231907 2734.50283044345 L259.49716955655015 2072.5846818231907" />
    <path d="M259.49716955655015 2072.5846818231907 L921.4153181768094 773.4971695565501" />
    <path d="M938.5759740767567 768.0864355349279 L2225.9135644650723 1452.5759740767567" />
    <path d="M2225.9135644650723 1452.5759740767567 L1541.4240259232433 2739.9135644650723" />
    <path d="M1541.4240259232433 2739.9135644650723 L254.0864355349279 2055.4240259232433" />
    <path d="M254.0864355349279 2055.4240259232433 L938.5759740767567 768.0864355349279" />
    <path d="M955.8284466549603 762.9760203358007 L2231.023979664199 1469.8284466549603" />
    <path d="M2231.023979664199 1469.8284466549603 L1524.1715533450397 2745.023979664199" />
    <path d="M1524.1715533450397 2745.023979664199 L248.97602033580074 2038.1715533450397" />
    <path d="M248.97602033580074 2038.1715533450397 L955.8284466549603 762.9760203358007" />
    <path d="M973.167480641144 758.1674806411443 L2235.8325193588557 1487.167480641144" />
    <path d="M2235.8325193588557 1487.167480641144 L1506.832519358856 2749.8325193588557" />
    <path d="M1506.832519358856 2749.8325193588557 L244.16748064114427 2020.832519358856" />
    <path d="M244.16748064114427 2020.832519358856 L973.167480641144 758.1674806411443" />
    <path d="M990.5877943975895 753.6622811787306 L2240.3377188212694 1504.5877943975895" />
    <path d="M2240.3377188212694 1504.5877943975895 L1489.4122056024105 2754.3377188212694" />
    <path d="M1489.4122056024105 2754.3377188212694 L239.6622811787306 2003.4122056024105" />
    <path d="M239.6622811787306 2003.4122056024105 L990.5877943975895 753.6622811787306" />
    <path d="M1008.0840815279719 749.4617942759592 L2244.538205724041 1522.0840815279719" />
    <path d="M2244.538205724041 1522.0840815279719 L1471.9159184720281 2758.538205724041" />
    <path d="M1471.9159184720281 2758.538205724041 L235.46179427595916 1985.9159184720281" />
    <path d="M235.46179427595916 1985.9159184720281 L1008.0840815279719 749.4617942759592" />
    <path d="M1025.6510124937406 745.5672994418312 L2248.432700558169 1539.6510124937406" />
    <path d="M2248.432700558169 1539.6510124937406 L1454.3489875062594 2762.432700558169" />
    <path d="M1454.3489875062594 2762.432700558169 L231.5672994418312 1968.3489875062594" />
    <path d="M231.5672994418312 1968.3489875062594 L1025.6510124937406 745.5672994418312" />
    <path d="M1043.2832362375493 741.9799829772002 L2252.0200170228 1557.2832362375493" />
    <path d="M2252.0200170228 1557.2832362375493 L1436.7167637624507 2766.0200170228" />
    <path d="M1436.7167637624507 2766.0200170228 L227.97998297720017 1950.7167637624507" />
    <path d="M227.97998297720017 1950.7167637624507 L1043.2832362375493 741.9799829772002" />
    <path d="M1060.9753818132376 738.7009376134124 L2255.2990623865876 1574.9753818132376" />
    <path d="M2255.2990623865876 1574.9753818132376 L1419.0246181867624 2769.2990623865876" />
    <path d="M1419.0246181867624 2769.2990623865876 L224.7009376134124 1933.0246181867624" />
    <path d="M224.7009376134124 1933.0246181867624 L1060.9753818132376 738.7009376134124" />
    <path d="M1078.7220600218761 735.7311621794504 L2258.2688378205494 1592.7220600218761" />
    <path d="M2258.2688378205494 1592.7220600218761 L1401.2779399781239 2772.2688378205494" />
    <path d="M1401.2779399781239 2772.2688378205494 L221.7311621794504 1915.2779399781239" />
    <path d="M221.7311621794504 1915.2779399781239 L1078.7220600218761 735.7311621794504" />
    <path d="M1096.5178650533667 733.0715612976803 L2260.92843870232 1610.5178650533667" />
    <path d="M2260.92843870232 1610.5178650533667 L1383.4821349466333 2774.92843870232" />
    <path d="M1383.4821349466333 2774.92843870232 L219.07156129768032 1897.4821349466333" />
    <path d="M219.07156129768032 1897.4821349466333 L1096.5178650533667 733.0715612976803" />
    <path d="M1114.3573761331045 730.7229451082948 L2263.277054891705 1628.3573761331045" />
    <path d="M2263.277054891705 1628.3573761331045 L1365.6426238668955 2777.277054891705" />
    <path d="M1365.6426238668955 2777.277054891705 L216.72294510829477 1879.6426238668955" />
    <path d="M216.72294510829477 1879.6426238668955 L1114.3573761331045 730.7229451082948" />
    <path d="M1132.2351591731997 728.6860290225368 L2265.313970977463 1646.2351591731997" />
    <path d="M2265.313970977463 1646.2351591731997 L1347.7648408268003 2779.313970977463" />
    <path d="M1347.7648408268003 2779.313970977463 L214.6860290225368 1861.7648408268003" />
    <path d="M214.6860290225368 1861.7648408268003 L1132.2351591731997 728.6860290225368" />
    <path d="M1150.145768427752 726.9614335047779 L2267.038566495222 1664.145768427752" />
    <path d="M2267.038566495222 1664.145768427752 L1329.854231572248 2781.038566495222" />
    <path d="M1329.854231572248 2781.038566495222 L212.96143350477792 1843.854231572248" />
    <path d="M212.96143350477792 1843.854231572248 L1150.145768427752 726.9614335047779" />
    <path d="M1168.083748151679 725.5496838835195 L2268.4503161164803 1682.083748151679" />
    <path d="M2268.4503161164803 1682.083748151679 L1311.916251848321 2782.4503161164803" />
    <path d="M1311.916251848321 2782.4503161164803 L211.5496838835195 1825.916251848321" />
    <path d="M211.5496838835195 1825.916251848321 L1168.083748151679 725.5496838835195" />
    <path d="M1186.0436342625871 724.451210191372 L2269.548789808628 1700.0436342625871" />
    <path d="M2269.548789808628 1700.0436342625871 L1293.9563657374129 2783.548789808628" />
    <path d="M1293.9563657374129 2783.548789808628 L210.45121019137196 1807.9563657374129" />
    <path d="M210.45121019137196 1807.9563657374129 L1186.0436342625871 724.451210191372" />
    <path d="M1204.019956005186 723.6663470340634 L2270.3336529659364 1718.019956005186" />
    <path d="M2270.3336529659364 1718.019956005186 L1275.980043994814 2784.3336529659364" />
    <path d="M1275.980043994814 2784.3336529659364 L209.6663470340634 1789.980043994814" />
    <path d="M209.6663470340634 1789.980043994814 L1204.019956005186 723.6663470340634" />
    <path d="M1222.0072376177322 723.1953334885143 L2270.8046665114857 1736.0072376177322" />
    <path d="M2270.8046665114857 1736.0072376177322 L1257.9927623822678 2784.8046665114857" />
    <path d="M1257.9927623822678 2784.8046665114857 L209.19533348851428 1771.9927623822678" />
    <path d="M209.19533348851428 1771.9927623822678 L1222.0072376177322 723.1953334885143" />
    <path d="M1240 723.0383130300138 L2270.961686969986 1754" />
    <path d="M2270.961686969986 1754 L1240 2784.961686969986" />
    <path d="M1240 2784.961686969986 L209.0383130300138 1754" />
    <path d="M209.0383130300138 1754 L1240 723.0383130300138" />
    <path d="M1257.9927623822675 723.1953334885143 L2270.8046665114857 1771.9927623822675" />
    <path d="M2270.8046665114857 1771.9927623822675 L1222.0072376177325 2784.8046665114857" />
    <path d="M1222.0072376177325 2784.8046665114857 L209.19533348851428 1736.0072376177325" />
    <path d="M209.19533348851428 1736.0072376177325 L1257.9927623822675 723.1953334885143" />
    <path d="M1275.980043994814 723.6663470340634 L2270.3336529659364 1789.980043994814" />
    <path d="M2270.3336529659364 1789.980043994814 L1204.019956005186 2784.3336529659364" />
    <path d="M1204.019956005186 2784.3336529659364 L209.6663470340634 1718.019956005186" />
    <path d="M209.6663470340634 1718.019956005186 L1275.980043994814 723.6663470340634" />
    <path d="M1293.9563657374129 724.451210191372 L2269.548789808628 1807.9563657374129" />
    <path d="M2269.548789808628 1807.9563657374129 L1186.0436342625871 2783.548789808628" />
    <path d="M1186.0436342625871 2783.548789808628 L210.45121019137196 1700.0436342625871" />
    <path d="M210.45121019137196 1700.0436342625871 L1293.9563657374129 724.451210191372" />
    <path d="M1311.9162518483208 725.5496838835195 L2268.4503161164803 1825.9162518483208" />
    <path d="M2268.4503161164803 1825.9162518483208 L1168.0837481516792 2782.4503161164803" />
    <path d="M1168.0837481516792 2782.4503161164803 L211.5496838835195 1682.0837481516792" />
    <path d="M211.5496838835195 1682.0837481516792 L1311.9162518483208 725.5496838835195" />
    <path d="M1329.854231572248 726.9614335047777 L2267.0385664952223 1843.854231572248" />
    <path d="M2267.0385664952223 1843.854231572248 L1150.145768427752 2781.0385664952223" />
    <path d="M1150.145768427752 2781.0385664952223 L212.9614335047777 1664.145768427752" />
    <path d="M212.9614335047777 1664.145768427752 L1329.854231572248 726.9614335047777" />
    <path d="M1347.7648408268 728.6860290225368 L2265.313970977463 1861.7648408268" />
    <path d="M2265.313970977463 1861.7648408268 L1132.2351591732 2779.313970977463" />
    <path d="M1132.2351591732 2779.313970977463 L214.6860290225368 1646.2351591732" />
    <path d="M214.6860290225368 1646.2351591732 L1347.7648408268 728.6860290225368" />
    <path d="M1365.6426238668955 730.7229451082948 L2263.277054891705 1879.6426238668955" />
    <path d="M2263.277054891705 1879.6426238668955 L1114.3573761331045 2777.277054891705" />
    <path d="M1114.3573761331045 2777.277054891705 L216.72294510829477 1628.3573761331045" />
    <path d="M216.72294510829477 1628.3573761331045 L1365.6426238668955 730.7229451082948" />
    <path d="M1383.4821349466333 733.0715612976802 L2260.92843870232 1897.4821349466333" />
    <path d="M2260.92843870232 1897.4821349466333 L1096.5178650533667 2774.92843870232" />
    <path d="M1096.5178650533667 2774.92843870232 L219.0715612976802 1610.5178650533667" />
    <path d="M219.0715612976802 1610.5178650533667 L1383.4821349466333 733.0715612976802" />
    <path d="M1401.2779399781236 735.7311621794504 L2258.2688378205494 1915.2779399781236" />
    <path d="M2258.2688378205494 1915.2779399781236 L1078.7220600218764 2772.2688378205494" />
    <path d="M1078.7220600218764 2772.2688378205494 L221.7311621794504 1592.7220600218764" />
    <path d="M221.7311621794504 1592.7220600218764 L1401.2779399781236 735.7311621794504" />
    <path d="M1419.0246181867624 738.7009376134124 L2255.2990623865876 1933.0246181867624" />
    <path d="M2255.2990623865876 1933.0246181867624 L1060.9753818132376 2769.2990623865876" />
    <path d="M1060.9753818132376 2769.2990623865876 L224.7009376134124 1574.9753818132376" />
    <path d="M224.7009376134124 1574.9753818132376 L1419.0246181867624 738.7009376134124" />
    <path d="M1436.7167637624507 741.9799829772002 L2252.0200170228 1950.7167637624507" />
    <path d="M2252.0200170228 1950.7167637624507 L1043.2832362375493 2766.0200170228" />
    <path d="M1043.2832362375493 2766.0200170228 L227.97998297720017 1557.2832362375493" />
    <path d="M227.97998297720017 1557.2832362375493 L1436.7167637624507 741.9799829772002" />
    <path d="M1454.3489875062594 745.5672994418312 L2248.432700558169 1968.3489875062594" />
    <path d="M2248.432700558169 1968.3489875062594 L1025.6510124937406 2762.432700558169" />
    <path d="M1025.6510124937406 2762.432700558169 L231.5672994418312 1539.6510124937406" />
    <path d="M231.5672994418312 1539.6510124937406 L1454.3489875062594 745.5672994418312" />
    <path d="M1471.9159184720281 749.4617942759592 L2244.538205724041 1985.9159184720281" />
    <path d="M2244.538205724041 1985.9159184720281 L1008.0840815279719 2758.538205724041" />
    <path d="M1008.0840815279719 2758.538205724041 L235.46179427595916 1522.0840815279719" />
    <path d="M235.46179427595916 1522.0840815279719 L1471.9159184720281 749.4617942759592" />
    <path d="M1489.4122056024105 753.6622811787306 L2240.3377188212694 2003.4122056024105" />
    <path d="M2240.3377188212694 2003.4122056024105 L990.5877943975895 2754.3377188212694" />
    <path d="M990.5877943975895 2754.3377188212694 L239.6622811787306 1504.5877943975895" />
    <path d="M239.6622811787306 1504.5877943975895 L1489.4122056024105 753.6622811787306" />
    <path d="M1506.8325193588557 758.1674806411443 L2235.8325193588557 2020.8325193588557" />
    <path d="M2235.8325193588557 2020.8325193588557 L973.1674806411443 2749.8325193588557" />
    <path d="M973.1674806411443 2749.8325193588557 L244.16748064114427 1487.1674806411443" />
    <path d="M244.16748064114427 1487.1674806411443 L1506.8325193588557 758.1674806411443" />
    <path d="M1524.1715533450397 762.9760203358007 L2231.023979664199 2038.1715533450397" />
    <path d="M2231.023979664199 2038.1715533450397 L955.8284466549603 2745.023979664199" />
    <path d="M955.8284466549603 2745.023979664199 L248.97602033580074 1469.8284466549603" />
    <path d="M248.97602033580074 1469.8284466549603 L1524.1715533450397 762.9760203358007" />
    <path d="M1541.4240259232433 768.0864355349279 L2225.9135644650723 2055.4240259232433" />
    <path d="M2225.9135644650723 2055.4240259232433 L938.5759740767567 2739.9135644650723" />
    <path d="M938.5759740767567 2739.9135644650723 L254.0864355349279 1452.5759740767567" />
    <path d="M254.0864355349279 1452.5759740767567 L1541.4240259232433 768.0864355349279" />
    <path d="M1558.5846818231905 773.4971695565503 L2220.50283044345 2072.5846818231903" />
    <path d="M2220.50283044345 2072.5846818231903 L921.4153181768095 2734.50283044345" />
    <path d="M921.4153181768095 2734.50283044345 L259.49716955655026 1435.4153181768095" />
    <path d="M259.49716955655026 1435.4153181768095 L1558.5846818231905 773.4971695565503" />
    <path d="M1575.6482937428555 779.2065742386698 L2214.79342576133 2089.6482937428555" />
    <path d="M2214.79342576133 2089.6482937428555 L904.3517062571447 2728.79342576133" />
    <path d="M904.3517062571447 2728.79342576133 L265.20657423866976 1418.3517062571445" />
    <path d="M265.20657423866976 1418.3517062571445 L1575.6482937428555 779.2065742386698" />
    <path d="M1592.6096639407479 785.2129104413123 L2208.7870895586875 2106.609663940748" />
    <path d="M2208.7870895586875 2106.609663940748 L887.3903360592521 2722.7870895586875" />
    <path d="M887.3903360592521 2722.7870895586875 L271.21291044131226 1401.3903360592521" />
    <path d="M271.21291044131226 1401.3903360592521 L1592.6096639407479 785.2129104413123" />
    <path d="M1609.4636258191977 791.5143485762856 L2202.4856514237144 2123.4636258191977" />
    <path d="M2202.4856514237144 2123.4636258191977 L870.5363741808023 2716.4856514237144" />
    <path d="M870.5363741808023 2716.4856514237144 L277.51434857628556 1384.5363741808023" />
    <path d="M277.51434857628556 1384.5363741808023 L1609.4636258191977 791.5143485762856" />
    <path d="M1626.2050454981486 798.1089691644904 L2195.89103083551 2140.2050454981486" />
    <path d="M2195.89103083551 2140.2050454981486 L853.7949545018514 2709.89103083551" />
    <path d="M853.7949545018514 2709.89103083551 L284.1089691644904 1367.7949545018514" />
    <path d="M284.1089691644904 1367.7949545018514 L1626.2050454981486 798.1089691644904" />
    <path d="M1642.828823378988 804.9947634206121 L2189.005236579388 2156.828823378988" />
    <path d="M2189.005236579388 2156.828823378988 L837.1711766210119 2703.005236579388" />
    <path d="M837.1711766210119 2703.005236579388 L290.9947634206121 1351.171176621012" />
    <path d="M290.9947634206121 1351.171176621012 L1642.828823378988 804.9947634206121" />
    <path d="M1659.329895697936 812.1696338650158 L2181.830366134984 2173.329895697936" />
    <path d="M2181.830366134984 2173.329895697936 L820.6701043020639 2695.830366134984" />
    <path d="M820.6701043020639 2695.830366134984 L298.16963386501584 1334.670104302064" />
    <path d="M298.16963386501584 1334.670104302064 L1659.329895697936 812.1696338650158" />
    <path d="M1675.7032360685146 819.6313949626604 L2174.36860503734 2189.7032360685143" />
    <path d="M2174.36860503734 2189.7032360685143 L804.2967639314854 2688.36860503734" />
    <path d="M804.2967639314854 2688.36860503734 L305.63139496266035 1318.2967639314854" />
    <path d="M305.63139496266035 1318.2967639314854 L1675.7032360685146 819.6313949626604" />
    <path d="M1691.9438570126347 827.3777737888308 L2166.622226211169 2205.943857012635" />
    <path d="M2166.622226211169 2205.943857012635 L788.0561429873653 2680.622226211169" />
    <path d="M788.0561429873653 2680.622226211169 L313.37777378883084 1302.0561429873653" />
    <path d="M313.37777378883084 1302.0561429873653 L1691.9438570126347 827.3777737888308" />
    <path d="M1708.0468114798302 835.4064107214963 L2158.5935892785037 2222.0468114798305" />
    <path d="M2158.5935892785037 2222.0468114798305 L771.9531885201698 2672.5935892785037" />
    <path d="M771.9531885201698 2672.5935892785037 L321.4064107214963 1285.9531885201698" />
    <path d="M321.4064107214963 1285.9531885201698 L1708.0468114798302 835.4064107214963" />
    <path d="M1724.0071943541777 843.714860160072 L2150.285139839928 2238.007194354178" />
    <path d="M2150.285139839928 2238.007194354178 L755.9928056458223 2664.285139839928" />
    <path d="M755.9928056458223 2664.285139839928 L329.714860160072 1269.9928056458223" />
    <path d="M329.714860160072 1269.9928056458223 L1724.0071943541777 843.714860160072" />
    <path d="M1739.8201439484421 852.3005912703732 L2141.699408729627 2253.820143948442" />
    <path d="M2141.699408729627 2253.820143948442 L740.1798560515579 2655.699408729627" />
    <path d="M740.1798560515579 2655.699408729627 L338.30059127037316 1254.1798560515579" />
    <path d="M338.30059127037316 1254.1798560515579 L1739.8201439484421 852.3005912703732" />
    <path d="M1755.4808434849933 861.1609887555315 L2132.8390112444686 2269.4808434849933" />
    <path d="M2132.8390112444686 2269.4808434849933 L724.5191565150068 2646.8390112444686" />
    <path d="M724.5191565150068 2646.8390112444686 L347.16098875553155 1238.5191565150067" />
    <path d="M347.16098875553155 1238.5191565150067 L1755.4808434849933 861.1609887555315" />
    <path d="M1770.9845225630438 870.2933536526408 L2123.7066463473593 2284.984522563044" />
    <path d="M2123.7066463473593 2284.984522563044 L709.0154774369563 2637.7066463473593" />
    <path d="M709.0154774369563 2637.7066463473593 L356.2933536526408 1223.0154774369562" />
    <path d="M356.2933536526408 1223.0154774369562 L1770.9845225630438 870.2933536526408" />
    <path d="M1786.3264586117589 879.694904154886 L2114.305095845114 2300.326458611759" />
    <path d="M2114.305095845114 2300.326458611759 L693.6735413882411 2628.305095845114" />
    <path d="M693.6735413882411 2628.305095845114 L365.694904154886 1207.6735413882411" />
    <path d="M365.694904154886 1207.6735413882411 L1786.3264586117589 879.694904154886" />
    <path d="M1801.5019783287976 889.3627764589091 L2104.637223541091 2315.5019783287976" />
    <path d="M2104.637223541091 2315.5019783287976 L678.4980216712024 2618.637223541091" />
    <path d="M678.4980216712024 2618.637223541091 L375.36277645890914 1192.4980216712024" />
    <path d="M375.36277645890914 1192.4980216712024 L1801.5019783287976 889.3627764589091" />
    <path d="M1816.5064591038458 899.2940256371517 L2094.7059743628483 2330.506459103846" />
    <path d="M2094.7059743628483 2330.506459103846 L663.4935408961542 2608.7059743628483" />
    <path d="M663.4935408961542 2608.7059743628483 L385.29402563715166 1177.4935408961542" />
    <path d="M385.29402563715166 1177.4935408961542 L1816.5064591038458 899.2940256371517" />
    <path d="M1831.3353304267073 909.4856265349081 L2084.514373465092 2345.3353304267075" />
    <path d="M2084.514373465092 2345.3353304267075 L648.6646695732927 2598.514373465092" />
    <path d="M648.6646695732927 2598.514373465092 L395.4856265349081 1162.6646695732927" />
    <path d="M395.4856265349081 1162.6646695732927 L1831.3353304267073 909.4856265349081" />
    <path d="M1845.9840752795271 919.9344746918163 L2074.0655253081836 2359.984075279527" />
    <path d="M2074.0655253081836 2359.984075279527 L634.015924720473 2588.0655253081836" />
    <path d="M634.015924720473 2588.0655253081836 L405.93447469181626 1148.0159247204729" />
    <path d="M405.93447469181626 1148.0159247204729 L1845.9840752795271 919.9344746918163" />
    <path d="M1860.448231512717 930.6373872875074 L2063.3626127124926 2374.448231512717" />
    <path d="M2063.3626127124926 2374.448231512717 L619.551768487283 2577.3626127124926" />
    <path d="M619.551768487283 2577.3626127124926 L416.6373872875074 1133.551768487283" />
    <path d="M416.6373872875074 1133.551768487283 L1860.448231512717 930.6373872875074" />
    <path d="M1874.7233932041713 941.5911041111239 L2052.408895888876 2388.7233932041713" />
    <path d="M2052.408895888876 2388.7233932041713 L605.2766067958288 2566.408895888876" />
    <path d="M605.2766067958288 2566.408895888876 L427.59110411112385 1119.2766067958287" />
    <path d="M427.59110411112385 1119.2766067958287 L1874.7233932041713 941.5911041111239" />
    <path d="M1888.805212001352 952.7922885544094 L2041.2077114455906 2402.8052120013517" />
    <path d="M2041.2077114455906 2402.8052120013517 L591.194787998648 2555.2077114455906" />
    <path d="M591.194787998648 2555.2077114455906 L438.7922885544094 1105.194787998648" />
    <path d="M438.7922885544094 1105.194787998648 L1888.805212001352 952.7922885544094" />
    <path d="M1902.6893984458397 964.2375286280746 L2029.7624713719254 2416.6893984458397" />
    <path d="M2029.7624713719254 2416.6893984458397 L577.3106015541603 2543.762471371925" />
    <path d="M577.3106015541603 2543.762471371925 L450.23752862807464 1091.3106015541603" />
    <path d="M450.23752862807464 1091.3106015541603 L1902.6893984458397 964.2375286280746" />
    <path d="M1916.3717232799445 975.9233380011209 L2018.076661998879 2430.3717232799445" />
    <path d="M2018.076661998879 2430.3717232799445 L563.6282767200554 2532.076661998879" />
    <path d="M563.6282767200554 2532.076661998879 L461.9233380011209 1077.6282767200555" />
    <path d="M461.9233380011209 1077.6282767200555 L1916.3717232799445 975.9233380011209" />
    <path d="M1929.8480187349783 987.8461570628095 L2006.1538429371903 2443.8480187349783" />
    <path d="M2006.1538429371903 2443.8480187349783 L550.1519812650218 2520.1538429371903" />
    <path d="M550.1519812650218 2520.1538429371903 L473.84615706280954 1064.1519812650217" />
    <path d="M473.84615706280954 1064.1519812650217 L1929.8480187349783 987.8461570628095" />
    <path d="M1943.1141798007975 1000.0023540069559 L1993.997645993044 2457.1141798007975" />
    <path d="M1993.997645993044 2457.1141798007975 L536.8858201992024 2507.997645993044" />
    <path d="M536.8858201992024 2507.997645993044 L486.0023540069559 1050.8858201992025" />
    <path d="M486.0023540069559 1050.8858201992025 L1943.1141798007975 1000.0023540069559" />
    <path d="M1956.1661654762295 1012.388225938211 L1981.611774061789 2470.1661654762293" />
    <path d="M1981.611774061789 2470.1661654762293 L523.8338345237705 2495.611774061789" />
    <path d="M523.8338345237705 2495.611774061789 L498.388225938211 1037.8338345237705" />
    <path d="M498.388225938211 1037.8338345237705 L1956.1661654762295 1012.388225938211" />
  </g>
</svg>