<?xml version="1.0" standalone="no"?>
<!DOCTYPE svg PUBLIC "-//W3C//DTD SVG 1.1//EN" 
    "http://www.w3.org/Graphics/SVG/1.1/DTD/svg11.dtd">
<svg width="8.5in" height="11in"
    xmlns="http://www.w3.org/2000/svg" version="1.1" viewBox="0 0 765 990">
  <g fill="none" stroke="black" stroke-width="0.01181in">
    <path d="M45 45 L45 47.18692" />
    <path d="M45 56.18692 L45 57.31728" />
    <path d="M45 66.31728 L45 69.07229" />
    <path d="M45 78.07229 L45 108.22861" />
    <path d="M45 117.22861 L45 151.22035" />
    <path d="M45 160.22035 L45 180.99191" />
    <path d="M45 189.99191 L45 215.84746" />
    <path d="M45 224.84746 L45 258.25033" />
    <path d="M45 267.25033 L45 302.4043" />
    <path d="M45 311.4043 L45 337.18545" />
    <path d="M45 346.18545 L45 383.33382" />
    <path d="M45 392.33382 L45 420.93357" />
    <path d="M45 429.93357 L45 459.25271" />
    <path d="M45 468.25271 L45 478.30417" />
    <path d="M45 487.30417 L45 518.6714" />
    <path d="M51.75 45 L51.75 64.46381" />
    <path d="M51.75 73.46381 L51.75 114.22284" />
    <path d="M51.75 123.22284 L51.75 165.04156" />
    <path d="M51.75 174.04156 L51.75 216.01548" />
    <path d="M51.75 225.01548 L51.75 247.43518" />
    <path d="M51.75 256.43518 L51.75 293.8608" />
    <path d="M51.75 302.8608 L51.75 347.68776" />
    <path d="M51.75 356.68776 L51.75 357.43432" />
    <path d="M51.75 366.43432 L51.75 377.40016" />
    <path d="M51.75 386.40016 L51.75 414.22998" />
    <path d="M51.75 423.22998 L51.75 447.10077" />
    <path d="M51.75 456.10077 L51.75 464.96974" />
    <path d="M51.75 473.96974 L51.75 501.78772" />
    <path d="M58.5 45 L58.5 87.52231" />
    <path d="M58.5 96.52231 L58.5 138.86685" />
    <path d="M58.5 147.86685 L58.5 181.51759" />
    <path d="M58.5 190.51759 L58.5 220.74939" />
    <path d="M58.5 229.74939 L58.5 264.02196" />
    <path d="M58.5 273.02196 L58.5 291.36367" />
    <path d="M58.5 300.36367 L58.5 344.59753" />
    <path d="M58.5 353.59753 L58.5 386.70544" />
    <path d="M58.5 395.70544 L58.5 409.79523" />
    <path d="M58.5 418.79523 L58.5 438.21918" />
    <path d="M58.5 447.21918 L58.5 485.81734" />
    <path d="M58.5 494.81734 L58.5 526.30275" />
    <path d="M65.25 45 L65.25 74.10487" />
    <path d="M65.25 83.10487 L65.25 127.37605" />
    <path d="M65.25 136.37605 L65.25 141.04574" />
    <path d="M65.25 150.04574 L65.25 156.48646" />
    <path d="M65.25 165.48646 L65.25 178.74217" />
    <path d="M65.25 187.74217 L65.25 225.73602" />
    <path d="M65.25 234.73602 L65.25 275.12197" />
    <path d="M65.25 284.12197 L65.25 318.61471" />
    <path d="M65.25 327.61471 L65.25 340.45147" />
    <path d="M65.25 349.45147 L65.25 387.80131" />
    <path d="M65.25 396.80131 L65.25 398.64236" />
    <path d="M65.25 407.64236 L65.25 441.10523" />
    <path d="M65.25 450.10523 L65.25 470.38064" />
    <path d="M65.25 479.38064 L65.25 492.82625" />
    <path d="M72 45 L72 84.72208" />
    <path d="M72 93.72208 L72 101.61945" />
    <path d="M72 110.61945 L72 141.96672" />
    <path d="M72 150.96672 L72 179.07569" />
    <path d="M72 188.07569 L72 194.08307" />
    <path d="M72 203.08307 L72 222.86949" />
    <path d="M72 231.86949 L72 236.99386" />
    <path d="M72 245.99386 L72 259.83054" />
    <path d="M72 268.83054 L72 313.29644" />
    <path d="M72 322.29644 L72 346.73546" />
    <path d="M72 355.73546 L72 363.26614" />
    <path d="M72 372.26614 L72 379.25033" />
    <path d="M72 388.25033 L72 429.76336" />
    <path d="M72 438.76336 L72 480.99304" />
    <path d="M72 489.99304 L72 497.27436" />
    <path d="M78.75 45 L78.75 55.59457" />
    <path d="M78.75 64.59457 L78.75 107.76639" />
    <path d="M78.75 116.76639 L78.75 148.00981" />
    <path d="M78.75 157.00981 L78.75 162.12741" />
    <path d="M78.75 171.12741 L78.75 188.13675" />
    <path d="M78.75 197.13675 L78.75 201.21008" />
    <path d="M78.75 210.21008 L78.75 231.04748" />
    <path d="M78.75 240.04748 L78.75 242.49243" />
    <path d="M78.75 251.49243 L78.75 288.55143" />
    <path d="M78.75 297.55143 L78.75 329.17722" />
    <path d="M78.75 338.17722 L78.75 344.22875" />
    <path d="M78.75 353.22875 L78.75 392.66163" />
    <path d="M78.75 401.66163 L78.75 405.51318" />
    <path d="M78.75 414.51318 L78.75 446.90782" />
    <path d="M78.75 455.90782 L78.75 490.09959" />
    <path d="M85.5 45 L85.5 76.85124" />
    <path d="M85.5 85.85124 L85.5 115.36331" />
    <path d="M85.5 124.36331 L85.5 133.9391" />
    <path d="M85.5 142.9391 L85.5 178.91938" />
    <path d="M85.5 187.91938 L85.5 216.61259" />
    <path d="M85.5 225.61259 L85.5 253.11499" />
    <path d="M85.5 262.11499 L85.5 264.60035" />
    <path d="M85.5 273.60035 L85.5 317.41488" />
    <path d="M85.5 326.41488 L85.5 346.05858" />
    <path d="M85.5 355.05858 L85.5 355.84424" />
    <path d="M85.5 364.84424 L85.5 366.0149" />
    <path d="M85.5 375.0149 L85.5 419.01888" />
    <path d="M85.5 428.01888 L85.5 468.68887" />
    <path d="M85.5 477.68887 L85.5 478.98663" />
    <path d="M85.5 487.98663 L85.5 504.36885" />
    <path d="M92.25 45 L92.25 62.55419" />
    <path d="M92.25 71.55419 L92.25 90.34597" />
    <path d="M92.25 99.34597 L92.25 129.62301" />
    <path d="M92.25 138.62301 L92.25 174.57419" />
    <path d="M92.25 183.57419 L92.25 209.73042" />
    <path d="M92.25 218.73042 L92.25 219.08488" />
    <path d="M92.25 228.08488 L92.25 270.77848" />
    <path d="M92.25 279.77848 L92.25 299.20887" />
    <path d="M92.25 308.20887 L92.25 311.24663" />
    <path d="M92.25 320.24663 L92.25 346.91588" />
    <path d="M92.25 355.91588 L92.25 378.39624" />
    <path d="M92.25 387.39624 L92.25 411.1739" />
    <path d="M92.25 420.1739 L92.25 441.40565" />
    <path d="M92.25 450.40565 L92.25 493.87384" />
    <path d="M99 45 L99 67.45696" />
    <path d="M99 76.45696 L99 121.20194" />
    <path d="M99 130.20194 L99 134.24535" />
    <path d="M99 143.24535 L99 163.20684" />
    <path d="M99 172.20684 L99 199.18319" />
    <path d="M99 208.18319 L99 246.97506" />
    <path d="M99 255.97506 L99 279.73978" />
    <path d="M99 288.73978 L99 326.69641" />
    <path d="M99 335.69641 L99 362.79939" />
    <path d="M99 371.79939 L99 380.38387" />
    <path d="M99 389.38387 L99 407.91682" />
    <path d="M99 416.91682 L99 436.58898" />
    <path d="M99 445.58898 L99 458.17822" />
    <path d="M99 467.17822 L99 481.91484" />
    <path d="M99 490.91484 L99 502.79345" />
    <path d="M105.75 45 L105.75 74.91869" />
    <path d="M105.75 83.91869 L105.75 86.51079" />
    <path d="M105.75 95.51079 L105.75 140.0475" />
    <path d="M105.75 149.0475 L105.75 170.71748" />
    <path d="M105.75 179.71748 L105.75 194.0235" />
    <path d="M105.75 203.0235 L105.75 218.25026" />
    <path d="M105.75 227.25026 L105.75 244.0536" />
    <path d="M105.75 253.0536 L105.75 259.47838" />
    <path d="M105.75 268.47838 L105.75 308.98203" />
    <path d="M105.75 317.98203 L105.75 353.86868" />
    <path d="M105.75 362.86868 L105.75 404.73381" />
    <path d="M105.75 413.73381 L105.75 443.04978" />
    <path d="M105.75 452.04978 L105.75 468.6895" />
    <path d="M105.75 477.6895 L105.75 516.04659" />
    <path d="M112.5 45 L112.5 68.40527" />
    <path d="M112.5 77.40527 L112.5 100.28926" />
    <path d="M112.5 109.28926 L112.5 141.15633" />
    <path d="M112.5 150.15633 L112.5 164.05415" />
    <path d="M112.5 173.05415 L112.5 182.95899" />
    <path d="M112.5 191.95899 L112.5 231.40544" />
    <path d="M112.5 240.40544 L112.5 255.97197" />
    <path d="M112.5 264.97197 L112.5 270.21381" />
    <path d="M112.5 279.21381 L112.5 299.77699" />
    <path d="M112.5 308.77699 L112.5 332.52113" />
    <path d="M112.5 341.52113 L112.5 367.30106" />
    <path d="M112.5 376.30106 L112.5 388.67932" />
    <path d="M112.5 397.67932 L112.5 427.0816" />
    <path d="M112.5 436.0816 L112.5 454.85456" />
    <path d="M112.5 463.85456 L112.5 489.45369" />
    <path d="M119.25 45 L119.25 88.24468" />
    <path d="M119.25 97.24468 L119.25 100.14872" />
    <path d="M119.25 109.14872 L119.25 123.26602" />
    <path d="M119.25 132.26602 L119.25 141.10147" />
    <path d="M119.25 150.10147 L119.25 171.03364" />
    <path d="M119.25 180.03364 L119.25 217.73919" />
    <path d="M119.25 226.73919 L119.25 232.55566" />
    <path d="M119.25 241.55566 L119.25 245.64717" />
    <path d="M119.25 254.64717 L119.25 265.10173" />
    <path d="M119.25 274.10173 L119.25 307.25016" />
    <path d="M119.25 316.25016 L119.25 327.43726" />
    <path d="M119.25 336.43726 L119.25 355.71681" />
    <path d="M119.25 364.71681 L119.25 394.96665" />
    <path d="M119.25 403.96665 L119.25 443.46382" />
    <path d="M119.25 452.46382 L119.25 455.8619" />
    <path d="M119.25 464.8619 L119.25 466.24419" />
    <path d="M119.25 475.24419 L119.25 510.50831" />
    <path d="M126 45 L126 86.62344" />
    <path d="M126 95.62344 L126 111.8989" />
    <path d="M126 120.8989 L126 151.5959" />
    <path d="M126 160.5959 L126 180.80418" />
    <path d="M126 189.80418 L126 209.23747" />
    <path d="M126 218.23747 L126 232.81326" />
    <path d="M126 241.81326 L126 257.63793" />
    <path d="M126 266.63793 L126 304.39039" />
    <path d="M126 313.39039 L126 323.71572" />
    <path d="M126 332.71572 L126 371.14673" />
    <path d="M126 380.14673 L126 412.03569" />
    <path d="M126 421.03569 L126 457.44474" />
    <path d="M126 466.44474 L126 480.7511" />
    <path d="M126 489.7511 L126 516.75424" />
  </g>
</svg>