<?xml version="1.0" standalone="no"?>
<!DOCTYPE svg PUBLIC "-//W3C//DTD SVG 1.1//EN" 
    "http://www.w3.org/Graphics/SVG/1.1/DTD/svg11.dtd">
<svg width="21cm" height="29.7cm"
    xmlns="http://www.w3.org/2000/svg" version="1.1" viewBox="0 0 744.09449 1052.3622">
  <g fill="none" stroke="black" stroke-width="0.03cm">
    <path d="M0 0 L35.43307 35.43307" />
    <path d="M376.67893 515.9612 L377.88933 516.59884 L379.9627 518.21747 L381.55374 520.21028 L382.63952 522.47691 L383.1971 524.91704 L383.20357 527.43031 L382.63599 529.91638 L381.47143 532.2749 L380.65812 533.37498" />
    <path d="M386.14095 543.6443 L384.86175 544.60716 L382.20322 546.21238 L379.4407 547.40165 L376.6096 548.18865 L373.74534 548.58703 L370.88332 548.61045 L368.05896 548.27257 L365.30769 547.58706 L362.6649 546.56758 L360.16603 545.22778 L357.84647 543.58134 L355.74164 541.6419 L353.88697 539.42314 L352.31785 536.93871 L351.06972 534.20228 L350.17797 531.22751 L349.87681 529.65501 L349.87681 529.65501 L349.69619 528.20829 L349.6101 525.36663 L349.87293 522.61111 L350.46306 519.96225 L351.35891 517.44055 L352.53888 515.06655 L353.98138 512.86075 L355.66481 510.84367 L357.56758 509.03583 L359.66811 507.45774 L361.94478 506.12992 L364.37602 505.07289 L366.94022 504.30716 L369.6158 503.85324 L372.38115 503.73167 L375.21469 503.96294 L376.65028 504.21731" />
    <path d="M389.58563 497.44965 L390.78608 498.21746 L393.06185 499.88311 L395.16662 501.71132 L397.09541 503.68914 L398.84321 505.80359 L400.40504 508.0417 L401.77592 510.39051 L402.95085 512.83705 L403.92483 515.36834 L404.69289 517.97143 L405.25003 520.63335 L405.59127 523.34112 L405.7116 526.08178 L405.60605 528.84237 L405.26962 531.6099 L404.69732 534.37142 L404.32117 535.74588" />
    <path d="M398.66315 490.04279 L400.50202 491.47074 L403.89673 494.5491 L406.91014 497.89721 L409.53754 501.48283 L411.77422 505.27371 L413.61547 509.23763 L415.05658 513.34232 L416.09284 517.55556 L416.71953 521.84511 L416.93195 526.17871 L416.72539 530.52413 L416.09514 534.84912 L415.03648 539.12145 L413.54471 543.30888 L411.61511 547.37915 L409.24298 551.30004 L407.88949 553.19438" />
    <path d="M428.09532 528.64846 L427.97282 530.65745 L427.53096 534.59255 L426.83538 538.4126 L425.89661 542.11211 L424.72518 545.68562 L423.3316 549.12764 L421.7264 552.43271 L419.92011 555.59535 L417.92325 558.61009 L415.74633 561.47146 L413.39989 564.17398 L410.89445 566.71218 L408.24054 569.08058 L405.44866 571.27372 L402.52936 573.28611 L399.49315 575.11229 L396.35055 576.74678 L393.1121 578.18411 L389.78831 579.41881 L386.3897 580.4454 L382.92681 581.2584 L379.41015 581.85235 L375.85024 582.22177 L372.25762 582.36119 L368.6428 582.26514 L365.01632 581.92814 L361.38868 581.34471 L357.77041 580.50939 L354.17205 579.4167 L350.60411 578.06117 L347.07711 576.43732 L343.60159 574.53969 L341.88641 573.48649 L341.88641 573.48649 L340.20783 572.3759 L337.02086 570.02568 L334.06039 567.51327 L331.3259 564.85052 L328.81687 562.04927 L326.53278 559.12139 L324.47311 556.07871 L322.63732 552.9331 L321.02491 549.69639 L319.63535 546.38044 L318.46812 542.99711 L317.5227 539.55824 L316.79856 536.07567 L316.29518 532.56127 L316.01205 529.02688 L315.94864 525.48436 L316.10442 521.94555 L316.47889 518.4223 L317.07151 514.92646 L317.88176 511.46989 L318.90912 508.06443 L320.15308 504.72194 L321.6131 501.45426 L323.28867 498.27325 L325.17926 495.19075 L327.28436 492.21862 L329.60344 489.36871 L332.13598 486.65286 L334.88146 484.08293 L337.83936 481.67077 L341.00915 479.42822 L344.39031 477.36715 L346.16 476.40836" />
    <path d="M348.39802 463.14874 L350.67338 462.33866 L355.22526 460.9748 L359.76949 459.94516 L364.29511 459.24069 L368.7911 458.85236 L373.24648 458.77111 L377.65025 458.98791 L381.99142 459.49372 L386.259 460.2795 L390.44198 461.33619 L394.52938 462.65478 L398.51021 464.2262 L402.37346 466.04142 L406.10815 468.09141 L409.70328 470.3671 L413.14786 472.85948 L416.43089 475.55949 L419.54139 478.45809 L422.46834 481.54624 L425.20078 484.8149 L427.72769 488.25503 L430.03808 491.85759 L432.12097 495.61353 L433.96535 499.51382 L435.56023 503.54941 L436.89463 507.71125 L437.95754 511.99032 L438.73797 516.37757 L439.22493 520.86395 L439.40743 525.44043 L439.27446 530.09796 L438.81504 534.8275 L438.45948 537.21645 L438.45948 537.21645 L437.91272 540.1134 L436.44983 545.79458 L434.508 551.30144 L432.10342 556.60513 L429.25233 561.67679 L425.97095 566.48756 L422.27549 571.00861 L418.18218 575.21106 L415.9914 577.1838" />
    <path d="M360.22659 448.53239 L362.56628 448.21095 L367.21566 447.77793 L371.81864 447.61875 L376.3675 447.72627 L380.85455 448.09332 L385.27209 448.71275 L389.61242 449.57739 L393.86783 450.68008 L398.03062 452.01368 L402.0931 453.57101 L406.04757 455.34493 L409.88631 457.32828 L413.60164 459.51388 L417.18585 461.8946 L420.63124 464.46326 L423.9301 467.21272 L427.07475 470.13581 L430.05747 473.22537 L432.87057 476.47425 L435.50634 479.87529 L437.95709 483.42132 L440.21512 487.1052 L442.27271 490.91976 L444.12218 494.85784 L445.75582 498.91229 L447.16593 503.07595 L448.34481 507.34166 L449.28476 511.70226 L449.97807 516.1506 L450.41706 520.6795 L450.59401 525.28183 L450.50122 529.95041 L450.35127 532.30732" />
    <path d="M288.98989 492.13683 L290.26146 489.17815 L293.05618 483.4921 L296.17065 478.11659 L299.58608 473.05417 L303.28365 468.30738 L307.24455 463.87877 L311.44998 459.77089 L315.88114 455.98628 L320.51921 452.52749 L325.34539 449.39707 L330.34086 446.59757 L335.48683 444.13152 L340.76449 442.00149 L346.15502 440.21001 L351.63963 438.75962 L357.19949 437.65289 L362.81582 436.89235 L368.46979 436.48056 L374.1426 436.42005 L379.81545 436.71338 L385.46953 437.36309 L391.08602 438.37173 L396.64613 439.74185 L402.13105 441.47598 L407.52196 443.57669 L412.80006 446.04651 L417.94655 448.888 L422.94261 452.1037 L427.76944 455.69615 L432.40823 459.66791 L436.84018 464.02151 L441.04647 468.75952 L443.05912 471.27346 L443.05912 471.27346 L444.98563 473.85402 L448.51254 479.11734 L451.61063 484.5023 L454.2871 489.99136 L456.54916 495.56694 L458.40399 501.21149 L459.85881 506.90744 L460.92079 512.63724 L461.59716 518.38332 L461.89509 524.12812 L461.8218 529.85408 L461.38447 535.54365 L460.59031 541.17925 L459.44651 546.74333 L457.96027 552.21833 L456.1388 557.58668 L453.98928 562.83083 L451.51892 567.93321 L448.73491 572.87626 L445.64446 577.64243 L442.25476 582.21415 L438.573 586.57386 L434.60639 590.70399 L430.36213 594.587 L425.84741 598.20531 L421.06942 601.54137 L416.03538 604.57762 L410.75248 607.29648 L405.2279 609.68042 L399.46887 611.71185 L393.48256 613.37323 L387.27618 614.64698 L384.09271 615.13301" />
    <path d="M395.41324 624.42493 L392.59819 625.0522 L386.94629 626.06072 L381.27629 626.74361 L375.60135 627.10376 L369.93464 627.14407 L364.28933 626.86744 L358.67858 626.27676 L353.11556 625.37493 L347.61344 624.16484 L342.18537 622.64939 L336.84453 620.83147 L331.60408 618.71399 L326.47718 616.29983 L321.47702 613.59189 L316.61674 610.59306 L311.90951 607.30625 L309.61741 605.55575" />
    <path d="M259.86799 523.79025 L260.0218 519.76775 L260.72679 511.87951 L261.94429 504.20983 L263.65352 496.77013 L265.83367 489.57181 L268.46396 482.62632 L271.5236 475.94506 L274.99178 469.53946 L278.84772 463.42094 L283.07063 457.60093 L287.6397 452.09084 L292.53414 446.90209 L297.73317 442.04611 L303.21599 437.53431 L308.96181 433.37813 L314.94982 429.58897 L321.15925 426.17826 L327.56929 423.15743 L334.15915 420.5379 L340.90804 418.33107 L347.79516 416.54839 L354.79973 415.20126 L361.90095 414.30112 L369.07802 413.85937 L376.31015 413.88745 L383.57655 414.39677 L390.85643 415.39875 L398.12899 416.90482 L405.37343 418.9264 L412.56897 421.47491 L419.69481 424.56177 L426.73016 428.1984 L430.20741 430.22645 L430.20741 430.22645 L433.6141 432.3709 L440.09301 436.92555 L446.1264 441.81478 L451.71476 447.01487 L456.8586 452.5021 L461.55843 458.25274 L465.81475 464.24309 L469.62807 470.44943 L472.9989 476.84803 L475.92773 483.41518 L478.41507 490.12716 L480.46143 496.96024 L482.06732 503.89073 L483.23324 510.89488 L483.9597 517.949 L484.2472 525.02935 L484.09624 532.11222 L483.50734 539.1739 L482.48099 546.19065 L481.01771 553.13877 L479.118 559.99454 L476.78236 566.73424 L474.0113 573.33415 L470.80533 579.77055 L467.16495 586.01972 L463.09067 592.05795 L458.58298 597.86151 L453.64241 603.40669 L448.26945 608.66978 L442.4646 613.62705 L436.22838 618.25478 L429.56129 622.52925 L426.06633 624.52661" />
    <path d="M249.46698 511.76385 L250.05848 507.37554 L251.66013 498.8124 L253.79997 490.54247 L256.45403 482.57607 L259.59836 474.92353 L263.20897 467.59515 L267.2619 460.60127 L271.73319 453.95219 L276.59885 447.65824 L281.83492 441.72974 L287.41744 436.177 L293.32243 431.01034 L299.52593 426.24009 L306.00396 421.87656 L312.73255 417.93007 L319.68774 414.41093 L326.84556 411.32947 L334.18204 408.69601 L341.6732 406.52087 L349.29508 404.81436 L357.02372 403.5868 L364.83513 402.84851 L372.70535 402.60982 L380.61042 402.88103 L388.52636 403.67247 L396.42921 404.99446 L404.29498 406.85731 L412.09973 409.27135 L419.81947 412.24689 L427.43023 415.79426 L434.90805 419.92376 L442.22897 424.64573 L445.82309 427.23211 L445.82309 427.23211 L449.32772 429.93852 L455.94279 435.60715 L462.03484 441.59527 L467.60691 447.87696 L472.66205 454.4263 L477.2033 461.21737 L481.23372 468.22425 L484.75634 475.42103 L487.77423 482.7818 L490.29043 490.28062 L492.30798 497.8916 L493.82994 505.5888 L494.85936 513.34631 L495.39927 521.13821 L495.45274 528.93859 L495.0228 536.72153 L494.11251 544.46111 L492.72492 552.13141 L490.86307 559.70652 L488.53001 567.16052 L485.72879 574.4675 L482.46246 581.60152 L478.73406 588.53669 L474.54665 595.24707 L469.90327 601.70675 L464.80697 607.88982 L459.26081 613.77036 L453.26782 619.32244 L446.83105 624.52016 L439.95356 629.3376 L432.6384 633.74883 L424.8886 637.72794 L420.85167 639.54736" />
    <path d="M505.6937 509.80792 L506.08341 513.38411 L506.57537 520.55621 L506.68387 527.74179 L506.40867 534.92547 L506.12711 538.5118" />
    <path d="M228.35885 551.29238 L227.92898 548.70374 L227.20727 543.55028 L226.46425 535.88427 L226.09186 525.79571 L226.40441 515.87705 L227.37825 506.14808 L228.98971 496.62858 L231.21514 487.33835 L234.03089 478.29717 L237.41331 469.52483 L241.33873 461.04112 L245.7835 452.86583 L250.72397 445.01874 L256.13648 437.51964 L261.99737 430.38832 L268.28299 423.64458 L274.96969 417.30819 L282.0338 411.39895 L289.45168 405.93664 L297.19966 400.94105 L305.2541 396.43197 L313.59133 392.42919 L322.1877 388.9525 L331.01956 386.02168 L340.06325 383.65653 L349.29512 381.87682 L358.6915 380.70236 L368.22875 380.15292 L377.8832 380.2483 L387.63121 381.00828 L397.44912 382.45266 L407.31326 384.60121 L414.72749 386.68665 L419.67244 388.3073 L422.14444 389.18766 L422.14444 389.18766 L425.65158 390.52057 L432.50298 393.4255 L439.13268 396.63955 L445.53524 400.1511 L451.70524 403.94851 L457.63722 408.02016 L463.32576 412.35442 L468.76542 416.93966 L473.95075 421.76424 L478.87633 426.81655 L483.53672 432.08495 L487.92648 437.55782 L492.04017 443.22351 L495.87236 449.07042 L499.4176 455.0869 L502.67048 461.26132 L505.62553 467.58207 L508.27734 474.0375 L510.62046 480.616 L512.64946 487.30592 L514.3589 494.09565 L515.74334 500.97355 L516.79735 507.928 L517.51548 514.94736 L517.89231 522.02001 L517.92239 529.13432 L517.6003 536.27865 L516.92058 543.44138 L515.87782 550.61089 L514.46656 557.77553 L512.68137 564.92369 L510.51682 572.04373 L509.29058 575.58958" />
    <path d="M231.44666 456.12626 L232.72827 453.60764 L235.39592 448.67927 L238.19936 443.89624 L241.13445 439.25883 L244.19705 434.76727 L247.383 430.42183 L250.68817 426.22276 L254.10842 422.17032 L257.63959 418.26476 L261.27755 414.50633 L266.92565 409.14513 L274.79152 402.5142 L283.00994 396.47639 L291.54776 391.03374 L300.37184 386.18828 L309.44901 381.94205 L318.74614 378.29708 L328.23006 375.25542 L337.86763 372.8191 L347.6257 370.99015 L357.47112 369.77061 L367.37073 369.16252 L377.29139 369.16791 L387.19995 369.78882 L397.06325 371.02729 L406.84814 372.88535 L416.52148 375.36504 L426.05011 378.46839 L435.40088 382.19744 L444.54064 386.55424 L453.43624 391.5408 L462.05453 397.15918 L468.31633 401.78881 L472.38693 405.07373 L476.36956 408.51775 L480.26007 412.12113 L484.05432 415.88411 L487.74816 419.80695 L491.33745 423.88991 L494.81804 428.13323 L498.1858 432.53719 L501.43658 437.10202 L503.01681 439.44485 L503.01681 439.44485 L504.55719 441.81406 L507.49146 446.5885 L510.23196 451.40787 L512.78054 456.26844 L515.13904 461.1665 L517.30933 466.09834 L519.29324 471.06023 L521.09264 476.04847 L522.70936 481.05934 L524.14528 486.08912 L525.96417 493.66112 L527.77379 503.78863 L528.89347 513.92489 L529.33804 524.04019 L529.12229 534.10479 L528.26104 544.08897 L526.76911 553.963 L524.66131 563.69715 L521.95244 573.26169 L518.65732 582.6269 L514.79077 591.76306 L510.36758 600.64042 L505.40258 609.22927 L499.91058 617.49987 L493.90639 625.4225 L487.40481 632.96744 L480.42067 640.10495 L472.96877 646.80531 L465.06393 653.03879 L456.72096 658.77566 L447.95467 663.98619 L438.77986 668.64066 L431.63959 671.74872 L426.75946 673.6315 L421.78554 675.35855 L416.71967 676.92614 L411.56371 678.33057 L406.31951 679.56811 L400.98892 680.63505 L395.57379 681.52767 L390.07597 682.24226 L384.49732 682.7751 L381.67826 682.9722" />
    <path d="M204.13615 537.71972 L203.95412 534.6974 L203.74561 528.6967 L203.74141 522.75663 L203.93783 516.8797 L204.33118 511.06837 L204.91777 505.32513 L205.69391 499.65247 L206.65592 494.05286 L207.80009 488.52879 L209.12273 483.08275 L210.62017 477.71722 L212.2887 472.43467 L214.12464 467.2376 L216.12429 462.12848 L218.28397 457.1098 L220.59998 452.18404 L223.06864 447.35369 L225.68624 442.62122 L229.88386 435.71149 L235.96758 426.8643 L242.58067 418.45334 L249.69361 410.49849 L257.27688 403.01961 L265.30095 396.03657 L273.73629 389.56922 L282.55338 383.63743 L291.72269 378.26107 L301.2147 373.45999 L310.99988 369.25406 L321.0487 365.66315 L331.33165 362.70712 L341.81919 360.40583 L349.80135 359.12148 L355.17135 358.4802 L360.57589 358.01379 L366.01127 357.72471 L371.47382 357.61546 L376.95984 357.68852 L382.46563 357.94636 L387.98751 358.39148 L393.52178 359.02636 L399.06477 359.85348 L404.61276 360.87532 L410.16208 362.09436 L415.70904 363.5131 L421.24993 365.134 L426.78108 366.95956 L432.29879 368.99226 L437.79937 371.23457 L443.27913 373.68899 L446.01005 374.99652 L446.01005 374.99652 L448.71847 376.35004 L454.01949 379.16981 L459.16584 382.13621 L464.15721 385.24478 L468.99329 388.4911 L473.67378 391.87072 L478.19838 395.37921 L482.56678 399.01213 L486.77868 402.76505 L490.83376 406.63351 L494.73174 410.6131 L498.47229 414.69936 L502.05512 418.88787 L505.47992 423.17418 L508.74638 427.55385 L511.85421 432.02246 L514.80309 436.57555 L517.59272 441.2087 L521.47792 448.29881 L526.09795 457.99106 L530.07551 467.92364 L533.40814 478.06105 L536.0934 488.3678 L538.12886 498.80836 L539.51208 509.34726 L540.24062 519.94898 L540.31203 530.57802 L539.72388 541.19888 L538.47373 551.77605 L536.55914 562.27405 L533.97767 572.65736 L530.72687 582.89048 L527.84807 590.4454 L525.71843 595.4166 L523.42009 600.33027 L520.95274 605.18199 L518.31608 609.96732 L515.50981 614.68182 L512.53361 619.32106 L509.38718 623.88059 L506.07023 628.35597 L502.58243 632.74277 L498.92349 637.03656 L495.09311 641.23289 L491.09097 645.32733 L486.91678 649.31543 L482.57022 653.19277 L478.051 656.9549 L473.35881 660.59738 L468.49334 664.11578 L465.99553 665.82707" />
    <path d="M522.17973 427.74137 L523.85677 430.34761 L527.06391 435.62556 L530.07496 440.9865 L532.88972 446.42525 L535.50797 451.93665 L537.9295 457.51555 L540.15411 463.15677 L542.18157 468.85516 L544.01169 474.60556 L545.64426 480.40279 L547.07905 486.2417 L548.31586 492.11712 L549.35448 498.0239 L550.1947 503.95686 L550.83631 509.91084 L551.2791 515.88069 L551.52286 521.86123 L551.56737 527.84731 L551.41243 533.83376 L551.05783 539.81542 L550.50335 545.78712 L549.74879 551.74371 L548.79394 557.68002 L547.63858 563.59088 L546.28251 569.47114 L544.72551 575.31563 L542.96737 581.11918 L541.00788 586.87664 L538.84684 592.58284 L536.48404 598.23262 L533.91925 603.82081 L531.15227 609.34226 L529.6929 612.07634" />
    <path d="M521.26819 644.99996 L519.22717 647.52117 L515.05579 652.42574 L510.76892 657.14686 L506.3709 661.68497 L501.8661 666.04051 L497.25885 670.21392 L492.55351 674.20564 L487.75443 678.01611 L482.86595 681.64577 L477.89243 685.09505 L472.8382 688.3644 L467.70764 691.45425 L462.50507 694.36504 L457.23485 697.09722 L451.90134 699.65121 L446.50888 702.02747 L441.06181 704.22642 L435.56449 706.24851 L430.02128 708.09418 L424.4365 709.76386 L418.81453 711.25799 L413.1597 712.57702 L404.62537 714.2282 L393.17186 715.82099 L381.66522 716.72125 L370.14024 716.9325 L358.63172 716.45824 L347.17446 715.30199 L335.80324 713.46726 L324.55286 710.95756 L313.45811 707.77639 L302.55379 703.92728 L294.52145 700.60422 L289.24419 698.18194 L284.0341 695.59465 L278.89555 692.84278 L273.83287 689.92679 L268.85042 686.84709 L263.95254 683.60414 L259.14359 680.19838 L254.42791 676.63023 L249.80986 672.90015 L245.29378 669.00856 L240.88402 664.95591 L236.58494 660.74264 L232.40087 656.36919 L228.33618 651.83599 L224.3952 647.14349 L220.58229 642.29212 L216.9018 637.28232 L213.35808 632.11453 L209.95547 626.78919 L206.69833 621.30675 L203.591 615.66762 L202.09488 612.78945" />
    <path d="M302.39429 336.6033 L305.81521 335.37915 L312.65865 333.12478 L319.5008 331.12616 L326.33756 329.37987 L333.16484 327.88248 L339.97852 326.63058 L346.77452 325.62075 L353.54874 324.84957 L360.29706 324.31362 L367.01541 324.00948 L373.69966 323.93374 L380.34574 324.08298 L386.94953 324.45377 L393.50694 325.0427 L400.01387 325.84635 L406.46621 326.86131 L412.85987 328.08414 L419.19076 329.51144 L425.45476 331.13978 L431.64779 332.96576 L437.76574 334.98594 L443.8045 337.1969 L449.76 339.59524 L455.62811 342.17754 L461.40475 344.94036 L467.08581 347.8803 L472.6672 350.99393 L478.14482 354.27785 L483.51456 357.72862 L488.77233 361.34283 L493.91402 365.11706 L498.93554 369.0479 L503.8328 373.13192 L508.60168 377.36571 L513.23809 381.74584 L517.73793 386.2689 L522.0971 390.93147 L526.31151 395.73013 L530.37704 400.66146 L534.28961 405.72205 L538.04512 410.90847 L541.63945 416.2173 L545.06852 421.64514 L548.32823 427.18855 L551.41447 432.84412 L554.32315 438.60844 L557.05017 444.47807 L559.59142 450.44962 L561.94281 456.51964 L564.10025 462.68474 L566.05962 468.94148 L567.81683 475.28645 L569.36778 481.71623 L570.70837 488.22741 L571.8345 494.81655 L572.74208 501.48026 L573.427 508.21509 L573.88516 515.01765 L574.11247 521.8845 L574.10482 528.81224 L573.85811 535.79744 L573.36826 542.83668 L572.63115 549.92654 L571.64268 557.06361 L571.05291 560.64878 L571.05291 560.64878 L570.05555 565.98047 L567.63808 576.53496 L564.66423 586.92631 L561.14276 597.13295 L557.0824 607.13336 L552.49192 616.90597 L547.38006 626.42924 L541.75557 635.68162 L538.75382 640.19949" />
    <path d="M579.49415 575.32702 L578.57851 579.05132 L576.57558 586.38832 L574.3483 593.57519 L571.90207 600.6103 L569.24228 607.49204 L566.37432 614.21879 L563.30361 620.78894 L560.03553 627.20086 L556.57548 633.45295 L552.92886 639.54358 L549.10107 645.47114 L545.09751 651.23402 L540.92357 656.83059 L536.58464 662.25924 L532.08614 667.51835 L527.43345 672.60632 L522.63197 677.52151 L517.6871 682.26232 L512.60424 686.82712 L507.38879 691.21431 L502.04614 695.42226 L496.58168 699.44936 L491.00083 703.29399 L485.30897 706.95453 L479.5115 710.42938 L473.61383 713.71691 L467.62134 716.8155 L461.53944 719.72355 L455.37352 722.43943 L449.12897 724.96152 L442.81121 727.28822 L436.42563 729.4179 L429.97761 731.34894 L423.47257 733.07974 L416.91589 734.60867 L410.31298 735.93413 L403.66923 737.05448 L396.99005 737.96812 L390.28082 738.67342 L383.54694 739.16878 L376.79382 739.45258 L370.02685 739.52319 L363.25143 739.37901 L356.47296 739.01842 L349.69682 738.43979 L342.92843 737.64152 L336.17318 736.62198 L329.43646 735.37957 L322.72367 733.91266 L316.04022 732.21964 L309.39149 730.29889 L302.78289 728.1488 L296.21982 725.76774 L289.70766 723.15411 L283.25182 720.30628 L276.8577 717.22264 L270.53069 713.90158 L264.27619 710.34147 L258.0996 706.5407 L252.00632 702.49765 L246.00174 698.21071 L240.09126 693.67827 L234.28028 688.89869 L228.5742 683.87038 L225.76218 681.26243 L225.76218 681.26243 L221.75576 677.38313 L214.08257 669.34874 L206.86945 660.96352 L200.125 652.24777 L193.85782 643.22174 L188.07652 633.90572 L182.78971 624.31998 L178.00599 614.4848 L173.73396 604.42046 L169.98225 594.14722 L166.75945 583.68537 L164.07416 573.05518 L161.935 562.27693 L160.35058 551.37089 L159.32949 540.35734 L158.88035 529.25655 L158.87294 523.67978" />
    <path d="M234.74281 348.67873 L237.95679 346.23575 L244.45143 341.55473 L251.03039 337.14507 L257.68818 333.00452 L264.4193 329.13085 L271.21828 325.5218 L278.07962 322.17512 L284.99783 319.08857 L291.96743 316.2599 L298.98293 313.68685 L306.03884 311.36718 L313.12967 309.29864 L320.24994 307.47899 L327.39415 305.90597 L334.55682 304.57734 L341.73245 303.49085 L348.91557 302.64425 L356.10068 302.03529 L363.2823 301.66172 L370.45493 301.5213 L377.61308 301.61178 L384.75128 301.9309 L391.86403 302.47643 L398.94584 303.2461 L405.99122 304.23768 L412.9947 305.44892 L419.95077 306.87756 L426.85395 308.52137 L433.69875 310.37808 L440.47968 312.44545 L447.19126 314.72124 L453.828 317.2032 L460.38441 319.88907 L466.85499 322.77661 L473.23427 325.86357 L479.51675 329.14771 L485.69695 332.62677 L491.76937 336.2985 L497.72854 340.16067 L503.56895 344.21101 L509.28513 348.44728 L514.87158 352.86724 L520.32282 357.46863 L525.63335 362.2492 L530.7977 367.20672 L535.81037 372.33892 L540.66586 377.64357 L545.35871 383.11841 L549.88341 388.76119 L554.23448 394.56967 L558.40643 400.54159 L562.39377 406.67472 L566.19101 412.9668 L569.79267 419.41558 L573.19326 426.01882 L576.38728 432.77426 L579.36926 439.67966 L582.1337 446.73277 L584.67511 453.93135 L586.98801 461.27313 L589.0669 468.75589 L590.9063 476.37735 L592.50073 484.13529 L593.84469 492.02745 L594.42103 496.02316 L594.42103 496.02316 L594.82349 499.15618 L595.4953 505.43077 L595.98989 511.71367 L596.30759 518.00119 L596.44875 524.28962 L596.41369 530.57528 L596.0314 539.99047 L594.90803 552.49981 L593.60669 561.83247 L592.52128 568.0238 L591.26198 574.18647 L589.82911 580.31678 L588.22301 586.41103 L586.44402 592.46553 L585.48979 595.47672" />
    <path d="M145.50411 461.37627 L146.70434 457.31083 L149.28865 449.31188 L152.11304 441.4901 L155.17146 433.847 L158.45787 426.3841 L161.96623 419.10289 L165.69051 412.00489 L169.62465 405.09162 L173.76262 398.36458 L178.09837 391.82528 L182.62587 385.47524 L187.33907 379.31595 L192.23193 373.34895 L197.29841 367.57572 L202.53247 361.99779 L207.92806 356.61667 L213.47915 351.43386 L219.17969 346.45088 L225.02365 341.66923 L231.00497 337.09043 L237.11762 332.71599 L243.35556 328.54742 L249.71275 324.58622 L256.18313 320.83391 L262.76068 317.292 L269.43936 313.962 L276.21311 310.84541 L283.0759 307.94376 L290.02168 305.25855 L297.04442 302.79128 L304.13808 300.54348 L311.2966 298.51665 L318.51396 296.7123 L325.7841 295.13195 L333.101 293.77709 L340.45859 292.64925 L347.85086 291.74993 L355.27174 291.08065 L362.71521 290.64291 L370.17521 290.43822 L377.64571 290.4681 L385.12067 290.73405 L392.59405 291.23759 L400.0598 291.98023 L407.51188 292.96347 L414.94425 294.18883 L422.35087 295.65781 L429.7257 297.37194 L437.06269 299.33271 L444.35581 301.54164 L451.59901 304.00023 L458.78625 306.71001 L465.91149 309.67248 L472.96869 312.88914 L479.95181 316.36152 L486.8548 320.09111 L493.67162 324.07944 L500.39624 328.32801 L507.02261 332.83833 L513.54469 337.61192 L519.95643 342.65027 L526.2518 347.95491 L532.42476 353.52734 L538.46925 359.36908 L541.44144 362.39141 L541.44144 362.39141 L544.07164 365.1541 L549.167 370.7617 L554.04309 376.47504 L558.7008 382.28945 L563.14102 388.20025 L567.36465 394.20277 L571.37258 400.29234 L575.16571 406.46429 L578.74494 412.71393 L582.11115 419.03661 L585.26524 425.42764 L588.20812 431.88236 L590.94067 438.39609 L593.46379 444.96416 L595.77837 451.5819 L597.88531 458.24463 L599.78551 464.94768 L601.47986 471.68638 L602.96925 478.45606 L604.25458 485.25204 L605.33675 492.06965 L606.21665 498.90422 L606.89517 505.75107 L607.37322 512.60554 L607.65168 519.46295 L607.73145 526.31862 L607.61343 533.16789 L607.29851 540.00608 L606.78759 546.82852 L606.08156 553.63054 L605.18131 560.40746 L604.08775 567.15461 L602.80176 573.86732 L601.32425 580.54092 L599.65611 587.17073 L597.79823 593.75208 L595.7515 600.2803 L593.51683 606.75072 L591.09511 613.15866 L588.48723 619.49945 L585.69409 625.76841 L582.71659 631.96089 L579.55561 638.07219 L576.21206 644.09765 L572.68682 650.0326 L568.98081 655.87237 L565.0949 661.61227 L561.02999 667.24765 L556.78699 672.77382 L552.36678 678.18611 L547.77026 683.47986 L542.99833 688.65038 L538.05187 693.69301 L532.93179 698.60307 L527.63899 703.3759 L522.17435 708.00681 L516.53877 712.49113 L510.73315 716.8242 L504.75837 721.00134 L498.61535 725.01788 L492.30497 728.86914 L485.82812 732.55045 L479.18571 736.05714 L472.37862 739.38453 L468.91361 740.97954" />
    <path d="M488.6605 743.75055 L484.72889 745.81522 L476.83068 749.7101 L468.89044 753.29524 L460.91372 756.57408 L452.90605 759.55006 L444.87298 762.22661 L436.82006 764.60717 L428.75282 766.69519 L420.67682 768.4941 L412.5976 770.00734 L404.5207 771.23835 L396.45166 772.19056 L388.39603 772.86742 L380.35936 773.27237 L372.34718 773.40885 L364.36505 773.28028 L356.4185 772.89012 L348.51309 772.2418 L340.65435 771.33876 L332.84782 770.18443 L325.09906 768.78227 L317.41361 767.13569 L309.79701 765.24816 L302.2548 763.1231 L294.79253 760.76394 L287.41575 758.17415 L280.12999 755.35713 L272.9408 752.31635 L265.85373 749.05524 L258.87433 745.57723 L252.00812 741.88577 L245.26066 737.98429 L238.6375 733.87623 L232.14417 729.56504 L225.78622 725.05414 L219.5692 720.34698 L213.49865 715.447 L207.58011 710.35764 L201.81912 705.08233 L196.22124 699.62452 L190.79201 693.98764 L185.53696 688.17513 L180.46165 682.19043 L175.57161 676.03698 L170.8724 669.71821 L166.36955 663.23758 L162.06862 656.59851 L157.97514 649.80444 L154.09465 642.85882 L150.43271 635.76507 L146.99486 628.52665 L143.78664 621.14699 L140.81359 613.62953 L138.08126 605.9777 L135.5952 598.19495 L133.36094 590.28471 L131.38404 582.25043 L129.67003 574.09554 L128.22446 565.82348 L127.05287 557.43769 L126.16082 548.9416 L125.55383 540.33867 L125.23746 531.63232 L125.21726 522.82599 L125.31995 518.38642 L125.31995 518.38642 L125.45211 514.94399 L125.85465 508.10063 L126.43931 501.31437 L127.20351 494.5874 L128.14466 487.92187 L129.26019 481.31995 L130.54751 474.7838 L132.00404 468.31561 L133.62719 461.91752 L135.41438 455.59172 L138.39709 446.24327 L142.92406 434.05187 L148.06069 422.18858 L153.7863 410.67075 L160.08024 399.5157 L166.92184 388.74077 L174.29042 378.36329 L182.16533 368.40061 L190.52588 358.87004 L199.35143 349.78893 L208.62129 341.17461 L218.3148 333.04441 L228.41129 325.41567 L238.8901 318.30573 L249.73056 311.73191 L260.912 305.71155 L272.41376 300.26199 L284.21516 295.40056 L296.29554 291.1446 L308.63423 287.51143 L321.21056 284.5184 L334.00387 282.18283 L343.72882 280.87305 L350.26915 280.21435 L356.85211 279.72976 L363.4751 279.42146 L370.13554 279.29161 L376.83085 279.34238 L383.55844 279.57593 L390.31574 279.99443 L397.10016 280.60006 L403.90911 281.39496 L407.32197 281.86407" />
    <path d="M176.00691 358.34559 L179.05593 354.84454 L185.27688 348.05764 L191.6561 341.55664 L198.1869 335.34029 L204.86256 329.40734 L211.67639 323.75654 L218.62168 318.38663 L225.69172 313.29636 L232.87981 308.48449 L240.17925 303.94976 L247.58332 299.69093 L255.08533 295.70673 L262.67857 291.99593 L270.35633 288.55727 L278.11191 285.38949 L285.93861 282.49136 L293.82972 279.86161 L301.77853 277.499 L309.77834 275.40227 L317.82245 273.57018 L325.90415 272.00147 L334.01673 270.69489 L342.1535 269.6492 L350.30774 268.86313 L358.47275 268.33545 L366.64183 268.0649 L374.80827 268.05022 L382.96536 268.29017 L391.10641 268.7835 L399.2247 269.52896 L407.31354 270.52529 L415.36621 271.77124 L423.37601 273.26557 L431.33625 275.00702 L439.2402 276.99434 L447.08117 279.22628 L454.85246 281.70159 L462.54735 284.41902 L470.15914 287.37731 L477.68114 290.57523 L485.10662 294.01151 L492.4289 297.68491 L499.64125 301.59417 L506.73699 305.73804 L513.7094 310.11528 L520.55178 314.72462 L527.25742 319.56483 L533.81962 324.63465 L540.23168 329.93283 L546.48688 335.45812 L552.57853 341.20926 L558.49992 347.18501 L564.24434 353.38412 L569.8051 359.80533 L575.17548 366.44739 L580.34877 373.30906 L585.31829 380.38908 L590.07731 387.6862 L594.61914 395.19917 L598.93707 402.92674 L603.0244 410.86766 L606.87441 419.02068 L610.48042 427.38455 L613.8357 435.95801 L615.41723 440.32294 L615.41723 440.32294 L616.75915 444.22586 L619.25156 452.08237 L621.48829 460.00125 L623.46883 467.97629 L625.19264 476.00127 L626.6592 484.06996 L627.86797 492.17616 L628.81844 500.31364 L629.51007 508.47618 L629.94235 516.65757 L630.11473 524.85158 L630.0267 533.052 L629.67772 541.25261 L629.06728 549.44719 L628.19484 557.62952 L627.05988 565.79338 L626.39378 569.86645" />
    <path d="M312.62169 788.83378 L307.62755 787.65372 L297.71484 785.01023 L287.91178 781.99167 L278.22905 778.60133 L273.43614 776.76776" />
    <path d="M133.46432 673.71099 L130.84669 669.39666 L125.87489 660.71188 L121.25144 651.95768 L116.97284 643.14061 L113.03557 634.26719 L109.43613 625.34395 L106.171 616.37742 L103.23667 607.37413 L100.62963 598.34061 L98.34637 589.28339 L96.38338 580.20899 L94.73715 571.12395 L93.40415 562.0348 L92.3809 552.94806 L91.66386 543.87027 L91.24954 534.80796 L91.13442 525.76765 L91.31499 516.75587 L91.78773 507.77915 L92.54915 498.84403 L93.59571 489.95703 L94.92393 481.12468 L96.53027 472.35351 L98.41124 463.65006 L100.56332 455.02084 L102.983 446.47239 L105.66676 438.01124 L108.61111 429.64392 L111.81252 421.37696 L115.26748 413.21688 L118.97249 405.17022 L122.92403 397.24351 L127.1186 389.44327 L131.55267 381.77604 L136.22274 374.24834 L141.1253 366.86671 L146.25684 359.63766 L151.61384 352.56775 L157.19279 345.66348 L162.99019 338.93139 L169.00252 332.37802 L175.22627 326.00988 L181.65793 319.83352 L188.29399 313.85546 L195.13094 308.08222 L202.16526 302.52034 L209.39344 297.17635 L216.81198 292.05678 L224.41736 287.16815 L232.20607 282.517 L240.17461 278.10986 L248.31945 273.95325 L256.63708 270.0537 L265.12401 266.41775 L273.77671 263.05192 L282.59167 259.96274 L291.56538 257.15675 L300.69434 254.64047 L309.97503 252.42043 L319.40393 250.50316 L328.97755 248.89518 L338.69236 247.60304 L348.54485 246.63326 L358.53152 245.99237 L363.57408 245.79729 L363.57408 245.79729 L367.76879 245.70087 L376.11163 245.69015 L384.38984 245.91933 L392.60044 246.38491 L400.74042 247.08338 L408.80681 248.01125 L416.79662 249.16501 L424.70684 250.54115 L432.53449 252.13618 L440.27657 253.94658 L447.93011 255.96886 L455.4921 258.19951 L462.95956 260.63502 L470.32949 263.2719 L477.59891 266.10664 L484.76481 269.13573 L491.82422 272.35568 L498.77414 275.76297 L505.61158 279.35411 L512.33355 283.12558 L518.93706 287.0739 L525.41911 291.19555 L531.77672 295.48702 L538.00689 299.94483 L544.10664 304.56545 L550.07297 309.3454 L555.90289 314.28116 L561.59342 319.36923 L567.14155 324.6061 L572.5443 329.98829 L577.79869 335.51227 L582.9017 341.17454 L587.85037 346.97161 L592.64169 352.89997 L597.27268 358.95611 L601.74033 365.13654 L606.04168 371.43774 L610.17371 377.85621 L614.13344 384.38846 L617.91788 391.03097 L621.52405 397.78024 L624.94894 404.63277 L628.18956 411.58506 L631.24294 418.6336 L634.10606 425.77489 L636.77596 433.00542 L639.24962 440.32169 L641.52407 447.7202 L643.59631 455.19744 L645.46335 462.74991 L647.12219 470.37411 L648.56986 478.06652 L649.80335 485.82366 L650.81968 493.64201 L651.61586 501.51807 L652.18889 509.44833 L652.53578 517.4293 L652.65355 525.45747 L652.5392 533.52934 L652.18974 541.64139 L651.60217 549.79014 L650.77352 557.97207 L649.70079 566.18368 L648.38098 574.42147 L647.62749 578.54908" />
    <path d="M330.63432 814.95904 L325.44577 814.17013 L315.19962 812.34465 L305.13043 810.1949 L295.24108 807.72804 L285.53444 804.95123 L276.01336 801.87163 L266.68074 798.49639 L257.53942 794.83267 L248.59227 790.88763 L239.84218 786.66842 L231.292 782.1822 L222.9446 777.43612 L214.80285 772.43735 L206.86963 767.19305 L199.14779 761.71035 L191.6402 755.99644 L184.34974 750.05845 L177.27927 743.90355 L170.43166 737.5389 L163.80978 730.97165 L157.41649 724.20895 L151.25467 717.25798 L145.32718 710.12587 L139.6369 702.81979 L134.18668 695.3469 L128.9794 687.71436 L124.01792 679.92931 L119.30512 671.99892 L114.84386 663.93034 L110.63701 655.73073 L106.68744 647.40725 L102.99802 638.96705 L99.57161 630.4173 L96.41108 621.76514 L93.5193 613.01773 L90.89914 604.18224 L88.55347 595.26582 L86.48516 586.27562 L84.69707 577.2188 L83.19207 568.10252 L81.97303 558.93394 L81.04282 549.72021 L80.40431 540.46849 L80.06036 531.18593 L80.01384 521.8797 L80.26763 512.55695 L80.82458 503.22483 L81.68757 493.89051 L82.85947 484.56114 L84.34314 475.24388 L86.14146 465.94588 L88.25728 456.6743 L90.69348 447.4363 L93.45293 438.23903 L96.53849 429.08966 L99.95304 419.99533 L103.69944 410.96321 L107.78055 402.00045 L112.19926 393.11421 L116.95842 384.31165 L122.0609 375.59991 L127.50958 366.98617 L133.30732 358.47758 L139.45698 350.08128 L142.66468 345.92749 L142.66468 345.92749 L145.5025 342.37358 L151.34226 335.40104 L154.34312 331.98368" />
    <path d="M331.81397 225.9118 L337.22165 225.23371 L347.97618 224.16204 L358.64551 223.4644 L369.22476 223.13447 L379.70904 223.1659 L390.09346 223.55234 L400.37314 224.28746 L410.54317 225.36492 L420.59868 226.77838 L430.53478 228.52149 L440.34657 230.58791 L450.02916 232.97131 L459.57768 235.66534 L468.98723 238.66365 L478.25292 241.95992 L487.36986 245.5478 L496.33317 249.42095 L505.13795 253.57302 L513.77931 257.99768 L522.25238 262.68859 L530.55225 267.63939 L538.67404 272.84377 L546.61287 278.29536 L554.36383 283.98784 L561.92205 289.91485 L569.28264 296.07007 L576.4407 302.44714 L583.39135 309.03973 L590.12969 315.8415 L596.65085 322.84611 L602.94993 330.0472 L609.02204 337.43846 L614.86229 345.01352 L620.4658 352.76606 L625.82767 360.68973 L630.94302 368.77818 L635.80696 377.02509 L640.4146 385.4241 L644.76105 393.96889 L648.84142 402.65309 L652.65082 411.47039 L656.18437 420.41442 L659.43718 429.47886 L662.40435 438.65737 L665.081 447.94359 L667.46224 457.33119 L669.54317 466.81384 L671.31893 476.38518 L672.7846 486.03888 L673.93531 495.76859 L674.76616 505.56798 L675.27227 515.43071 L675.44875 525.35043 L675.29071 535.3208 L674.79325 545.33548 L673.9515 555.38814 L672.76057 565.47242 L671.21555 575.582 L669.31157 585.71052 L667.04374 595.85164 L664.40717 605.99904 L661.39696 616.14636 L658.00824 626.28726 L654.2361 636.41541 L652.20473 641.47271 L652.20473 641.47271 L650.01534 646.65641 L645.37113 656.85565 L640.38038 666.82562 L635.05196 676.56023 L629.39472 686.05339 L623.41752 695.29902 L617.12922 704.29104 L610.53869 713.02336 L603.65477 721.4899 L596.48634 729.68456 L589.04224 737.60128 L581.33134 745.23395 L573.36249 752.5765 L565.14456 759.62285 L556.68641 766.3669 L547.99689 772.80257 L539.08486 778.92378 L529.95918 784.72444 L520.62871 790.19847 L511.10232 795.33978 L501.38885 800.14229 L491.49717 804.59991 L481.43614 808.70656 L471.21461 812.45616 L460.84145 815.84261 L450.32551 818.85983 L439.67566 821.50175 L428.90075 823.76227 L418.00964 825.6353 L407.0112 827.11477 L395.91427 828.19459 L384.72772 828.86868 L379.10361 829.05167" />
    <path d="M61.89882 576.30865 L61.04425 570.72175 L59.63174 559.60303 L58.60936 548.56214 L57.9707 537.60433 L57.7093 526.73484 L57.81874 515.95891 L58.29257 505.28179 L59.12437 494.70873 L60.30769 484.24498 L61.83609 473.89577 L63.70315 463.66636 L65.90242 453.56199 L68.42747 443.5879 L71.27186 433.74935 L74.42916 424.05157 L77.89293 414.49982 L81.65673 405.09934 L85.71413 395.85537 L90.05868 386.77316 L94.68397 377.85796 L99.58354 369.11502 L104.75096 360.54957 L110.1798 352.16686 L115.86361 343.97215 L121.79597 335.97067 L127.97044 328.16767 L134.38058 320.5684 L141.01994 313.1781 L147.88211 306.00203 L154.96064 299.04541 L162.24909 292.31351 L169.74103 285.81156 L177.43003 279.54482 L185.30964 273.51852 L193.37342 267.73791 L201.61496 262.20825 L210.02779 256.93477 L218.6055 251.92272 L227.34165 247.17735 L236.22979 242.7039 L245.26349 238.50762 L254.43632 234.59375 L263.74183 230.96754 L273.1736 227.63424 L282.72519 224.59909 L292.39015 221.86734 L302.16206 219.44422 L312.03448 217.335 L322.00096 215.54492 L332.05508 214.07921 L342.1904 212.94313 L352.40048 212.14192 L362.67889 211.68083 L373.01919 211.5651 L383.41494 211.79998 L393.8597 212.39072 L404.34705 213.34255 L414.87054 214.66074 L425.42374 216.35051 L436.00021 218.41713 L446.59351 220.86582 L457.19721 223.70185 L467.80488 226.93045 L478.41007 230.55688 L483.70973 232.52091 L483.70973 232.52091 L488.97541 234.57428 L499.31076 238.91037 L509.38363 243.54542 L519.19271 248.47122 L528.73667 253.67959 L538.01418 259.16233 L547.02391 264.91124 L555.76455 270.91813 L564.23477 277.17479 L572.43325 283.67303 L580.35865 290.40465 L588.00966 297.36147 L595.38494 304.53527 L602.48318 311.91786 L609.30305 319.50105 L615.84323 327.27663 L622.10239 335.23642 L628.0792 343.37221 L633.77234 351.67582 L639.18049 360.13903 L644.30232 368.75365 L649.1365 377.5115 L653.68172 386.40436 L657.93664 395.42405 L661.89995 404.56236 L665.57031 413.8111 L668.9464 423.16208 L672.0269 432.60709 L674.81048 442.13794 L677.29582 451.74643 L679.4816 461.42437 L681.36648 471.16356 L682.94914 480.95579 L684.22826 490.79288 L685.20252 500.66663 L685.87059 510.56884 L686.23113 520.49131 L686.28284 530.42585 L686.02438 540.36426 L685.45443 550.29834 L684.57167 560.21989 L683.37476 570.12073 L681.86239 579.99264 L680.03323 589.82745 L677.88596 599.61694 L675.41924 609.35292 L672.63176 619.0272 L669.5222 628.63157 L666.08921 638.15784 L662.33149 647.59782 L658.24771 656.94331 L653.83654 666.1861 L649.09665 675.31801 L644.02672 684.33083 L638.62544 693.21637 L632.89146 701.96644 L626.82347 710.57283 L620.42015 719.02735 L613.68016 727.3218 L606.60219 735.44798 L599.1849 743.3977 L591.42698 751.16277 L583.32709 758.73497 L574.88392 766.10612 L570.53319 769.71374" />
    <path d="M301.28338 208.57516 L306.7617 207.40139 L317.68724 205.33923 L328.5668 203.65302 L339.39495 202.33728 L350.16628 201.38655 L360.87539 200.79536 L371.51684 200.55823 L382.08524 200.66971 L392.57514 201.12432 L402.98116 201.91659 L413.29786 203.04106 L423.51983 204.49225 L433.64165 206.2647 L443.65791 208.35294 L453.5632 210.7515 L463.35209 213.45491 L473.01916 216.45771 L482.55902 219.75441 L491.96623 223.33957 L501.23538 227.2077 L510.36106 231.35334 L519.33784 235.77101 L528.16032 240.45526 L536.82307 245.40061 L545.32069 250.6016 L553.64775 256.05275 L561.79883 261.74859 L569.76853 267.68366 L577.55143 273.8525 L585.1421 280.24962 L592.53514 286.86956 L599.72512 293.70686 L606.70664 300.75604 L613.47427 308.01164 L620.0226 315.46818 L626.34621 323.1202 L632.43969 330.96223 L638.29762 338.9888 L643.91458 347.19445 L649.28516 355.5737 L654.40395 364.12108 L659.26551 372.83113 L663.86445 381.69838 L668.19534 390.71735 L672.25277 399.88259 L676.03132 409.18862 L679.52557 418.62997 L682.73011 428.20118 L685.63953 437.89677 L688.2484 447.71128 L690.55131 457.63924 L692.54284 467.67517 L694.21759 477.81362 L695.57012 488.04911 L696.59503 498.37618 L697.2869 508.78935 L697.64031 519.28315 L697.64985 529.85213 L697.3101 540.4908 L696.61564 551.1937 L695.56107 561.95537 L694.14095 572.77033 L692.34988 583.63311 L690.18245 594.53825 L688.9559 600.005" />
  </g>
</svg>