<?xml version="1.0" standalone="no"?>
<!DOCTYPE svg PUBLIC "-//W3C//DTD SVG 1.1//EN" 
    "http://www.w3.org/Graphics/SVG/1.1/DTD/svg11.dtd">
<svg width="21cm" height="29.7cm"
    xmlns="http://www.w3.org/2000/svg" version="1.1" viewBox="0 0 744.09449 1052.3622">
  <g fill="none" stroke="black" stroke-width="0.03cm">
    <path d="M35.43307 35.43307 L35.43307 35.43307" />
    <path d="M708.66142 42.77763 L35.43307 35.43307" />
    <path d="M708.66142 66.5607 L35.43307 35.43307" />
    <path d="M708.66142 90.42156 L35.43307 35.43307" />
    <path d="M708.66142 114.42045 L35.43307 35.43307" />
    <path d="M708.66142 138.619 L35.43307 35.43307" />
    <path d="M708.66142 163.0809 L35.43307 35.43307" />
    <path d="M708.66142 187.87254 L35.43307 35.43307" />
    <path d="M708.66142 213.06379 L35.43307 35.43307" />
    <path d="M708.66142 238.72884 L35.43307 35.43307" />
    <path d="M708.66142 264.94708 L35.43307 35.43307" />
    <path d="M708.66142 291.80421 L35.43307 35.43307" />
    <path d="M708.66142 319.39343 L35.43307 35.43307" />
    <path d="M708.66142 347.81685 L35.43307 35.43307" />
    <path d="M708.66142 377.18714 L35.43307 35.43307" />
    <path d="M708.66142 407.62952 L35.43307 35.43307" />
    <path d="M708.66142 439.28408 L35.43307 35.43307" />
    <path d="M708.66142 472.3086 L35.43307 35.43307" />
    <path d="M708.66142 506.882 L35.43307 35.43307" />
    <path d="M708.66142 543.20848 L35.43307 35.43307" />
    <path d="M708.66142 581.52277 L35.43307 35.43307" />
    <path d="M708.66142 622.09648 L35.43307 35.43307" />
    <path d="M708.66142 665.24629 L35.43307 35.43307" />
    <path d="M705.98936 708.66142 L35.43307 35.43307" />
    <path d="M660.24431 708.66142 L35.43307 35.43307" />
    <path d="M617.40225 708.66142 L35.43307 35.43307" />
    <path d="M577.09803 708.66142 L35.43307 35.43307" />
    <path d="M539.02056 708.66142 L35.43307 35.43307" />
    <path d="M502.90273 708.66142 L35.43307 35.43307" />
    <path d="M468.51355 708.66142 L35.43307 35.43307" />
    <path d="M435.65191 708.66142 L35.43307 35.43307" />
    <path d="M404.14147 708.66142 L35.43307 35.43307" />
    <path d="M373.8266 708.66142 L35.43307 35.43307" />
    <path d="M344.56901 708.66142 L35.43307 35.43307" />
    <path d="M316.24501 708.66142 L35.43307 35.43307" />
    <path d="M288.7432 708.66142 L35.43307 35.43307" />
    <path d="M261.96257 708.66142 L35.43307 35.43307" />
    <path d="M235.81081 708.66142 L35.43307 35.43307" />
    <path d="M210.20302 708.66142 L35.43307 35.43307" />
    <path d="M185.06041 708.66142 L35.43307 35.43307" />
    <path d="M160.30935 708.66142 L35.43307 35.43307" />
    <path d="M135.88039 708.66142 L35.43307 35.43307" />
    <path d="M111.70748 708.66142 L35.43307 35.43307" />
    <path d="M87.72719 708.66142 L35.43307 35.43307" />
    <path d="M63.87809 708.66142 L35.43307 35.43307" />
  </g>
</svg>