<?xml version="1.0" standalone="no"?>
<!DOCTYPE svg PUBLIC "-//W3C//DTD SVG 1.1//EN" 
    "http://www.w3.org/Graphics/SVG/1.1/DTD/svg11.dtd">
<svg width="21cm" height="29.7cm"
    xmlns="http://www.w3.org/2000/svg" version="1.1" viewBox="0 0 744.09449 1052.3622">
  <g fill="none" stroke="black" stroke-width="0.03cm">
    <path d="M248.0315 248.0315 L442.91339 526.1811" />
    <path d="M255.53287 245.81875 L430.5373 536.88507" />
    <path d="M263.17032 244.13466 L417.44469 546.69965" />
    <path d="M270.90664 242.98744 L403.69934 555.57703" />
    <path d="M278.70415 242.38267 L389.36822 563.47396" />
    <path d="M286.52484 242.3233 L374.52115 570.35196" />
    <path d="M294.33063 242.80962 L359.23046 576.17753" />
    <path d="M302.08348 243.83926 L343.57064 580.92229" />
    <path d="M309.74562 245.4072 L327.618 584.56311" />
    <path d="M317.27972 247.5058 L311.45024 587.08226" />
    <path d="M324.64908 250.12485 L295.14614 588.46747" />
    <path d="M331.81779 253.25158 L278.78513 588.71199" />
    <path d="M338.75092 256.87075 L262.44692 587.81463" />
    <path d="M345.41471 260.96474 L246.2111 585.77976" />
    <path d="M351.77669 265.5136 L230.15678 582.61729" />
    <path d="M357.80585 270.49516 L214.36217 578.34263" />
    <path d="M363.47283 275.88517 L198.90422 572.97661" />
    <path d="M368.75002 281.65735 L183.85824 566.54537" />
    <path d="M373.6117 287.78359 L169.29752 559.08024" />
    <path d="M378.0342 294.23404 L155.29302 550.61759" />
    <path d="M381.99597 300.97728 L141.91296 541.19865" />
    <path d="M385.4777 307.98045 L129.22253 530.86931" />
    <path d="M388.46243 315.20943 L117.28354 519.67989" />
    <path d="M390.93562 322.62901 L106.15418 507.6849" />
    <path d="M392.88523 330.20304 L95.88865 494.94279" />
    <path d="M394.30174 337.89461 L86.53697 481.51563" />
    <path d="M395.17827 345.66626 L78.1447 467.46884" />
    <path d="M395.51055 353.48012 L70.75274 452.87085" />
    <path d="M395.29694 361.29812 L64.39708 437.79279" />
    <path d="M394.5385 369.08218 L59.10869 422.3081" />
  </g>
</svg>