<?xml version="1.0" standalone="no"?>
<!DOCTYPE svg PUBLIC "-//W3C//DTD SVG 1.1//EN" 
    "http://www.w3.org/Graphics/SVG/1.1/DTD/svg11.dtd">
<svg width="21cm" height="29.7cm"
    xmlns="http://www.w3.org/2000/svg" version="1.1" viewBox="0 0 744.09449 1052.3622">
  <g fill="none" stroke="black" stroke-width="0.03cm">
    <path d="M0 0 L35.43307 35.43307" />
    <path d="M375.78899 524.4238 L375.95273 524.82607 L376.14834 525.66162 L376.16759 526.51514 L376.00986 527.35865 L375.86442 527.7679" />
    <path d="M357.06906 533.18641 L356.60565 532.1015 L355.92578 529.91652 L355.56183 527.73045 L355.49778 525.56623 L355.71761 523.44677 L356.20531 521.39501 L356.94486 519.43388 L357.92025 517.5863 L359.11545 515.87522 L360.51445 514.32354 L362.10125 512.95421 L363.85981 511.79016 L365.77412 510.8543 L367.82818 510.16958 L370.00595 509.75892 L372.29143 509.64525 L373.46956 509.70695 L373.46956 509.70695 L375.15722 509.93941 L378.33298 510.88204 L381.1916 512.40034 L383.67183 514.42077 L385.7124 516.86983 L387.25204 519.67396 L388.2295 522.75966 L388.58351 526.05339 L388.50757 527.75529" />
    <path d="M389.18564 502.86532 L390.64834 504.01448 L393.31141 506.55415 L395.60946 509.38243 L397.52415 512.45955 L399.03717 515.74571 L400.13021 519.20113 L400.78495 522.78603 L400.98306 526.46062 L400.90516 528.31912" />
    <path d="M408.66775 507.00254 L409.62882 508.96166 L411.22476 512.98939 L412.38383 517.13384 L413.10374 521.35986 L413.38221 525.63229 L413.21694 529.916 L412.60564 534.17583 L411.54602 538.37665 L410.84737 540.44394" />
    <path d="M418.5182 553.17101 L417.52186 554.82159 L415.39893 557.96497 L413.11179 560.898 L410.67179 563.62071 L408.09031 566.13314 L405.3787 568.43531 L402.54832 570.52725 L399.61055 572.40898 L396.57674 574.08055 L393.45825 575.54198 L390.26644 576.7933 L387.01268 577.83453 L383.70834 578.66571 L380.36476 579.28686 L376.99332 579.69802 L373.60538 579.89921 L370.2123 579.89047 L366.82544 579.67182 L363.45616 579.24329 L360.11584 578.60492 L356.81582 577.75672 L353.56747 576.69873 L350.38215 575.43099 L347.27124 573.95351 L344.24608 572.26633 L341.31804 570.36948 L338.49848 568.26298 L335.79877 565.94687 L333.23027 563.42117 L330.80434 560.68592 L328.53234 557.74114 L326.42564 554.58686 L325.43782 552.93117 L325.43782 552.93117 L324.50655 551.24303 L322.84577 547.83283 L321.44926 544.38559 L320.31132 540.91114 L319.42623 537.41929 L318.7883 533.91989 L318.39182 530.42274 L318.23107 526.93768 L318.30036 523.47454 L318.59397 520.04313 L319.1062 516.65329 L319.83135 513.31484 L320.7637 510.0376 L321.89755 506.83141 L323.22719 503.70607 L324.74693 500.67143 L326.45104 497.73731 L328.33383 494.91353 L330.38958 492.20991 L332.61259 489.63629 L334.99716 487.20249 L337.53758 484.91833 L340.22814 482.79364 L343.06313 480.83825 L346.03685 479.06197 L349.14359 477.47464 L352.37765 476.08609 L355.73332 474.90612 L359.20489 473.94458 L362.78665 473.21129 L366.4729 472.71607 L370.25794 472.46875 L372.18571 472.44112" />
    <path d="M401.29605 585.50425 L399.15034 586.51745 L394.83288 588.29337 L390.49039 589.74181 L386.1345 590.87054 L381.77682 591.68733 L377.429 592.19995 L373.10264 592.41617 L368.80939 592.34376 L364.56087 591.99049 L360.36871 591.36413 L356.24452 590.47245 L352.19995 589.32322 L348.24661 587.92422 L344.39614 586.28321 L340.66016 584.40796 L337.05029 582.30624 L333.57817 579.98582 L330.25543 577.45448 L327.09368 574.71999 L324.10456 571.79011 L321.29969 568.67261 L318.6907 565.37526 L316.28921 561.90585 L314.10687 558.27212 L312.15528 554.48187 L310.44608 550.54285 L308.9909 546.46283 L307.80135 542.24959 L306.88908 537.9109 L306.2657 533.45453 L305.94285 528.88825 L305.93215 524.21982 L306.04749 521.84973 L306.04749 521.84973 L306.24289 519.4849 L306.86362 514.85791 L307.78048 510.37298 L308.98092 506.0363 L310.4524 501.85405 L312.18237 497.83241 L314.15829 493.97757 L316.36763 490.29571 L318.79783 486.79302 L321.43636 483.47568 L324.27066 480.34987 L327.28821 477.42178 L330.47645 474.69759 L333.82285 472.18349 L337.31485 469.88566 L340.93993 467.81028 L344.68552 465.96355 L348.5391 464.35164 L352.48812 462.98073 L356.52003 461.85701 L360.6223 460.98668 L364.78238 460.3759 L368.98772 460.03086 L373.22579 459.95775 L377.48405 460.16276 L381.74994 460.65206 L386.01093 461.43184 L390.25447 462.50828 L394.46802 463.88758 L398.63904 465.5759 L402.75498 467.57945 L406.80331 469.90439 L408.7982 471.18932" />
    <path d="M321.42169 586.23195 L319.29833 584.37955 L315.31172 580.52724 L311.66949 576.49186 L308.36873 572.28976 L305.40652 567.93729 L302.77992 563.4508 L300.48603 558.84664 L298.52191 554.14115 L296.88465 549.35068 L295.57133 544.49158 L294.57902 539.58019 L293.90481 534.63287 L293.54576 529.66595 L293.49897 524.6958 L293.7615 519.73875 L294.33045 514.81116 L295.20287 509.92937 L296.37586 505.10972 L297.8465 500.36857 L299.61185 495.72227 L301.66901 491.18716 L304.01504 486.77958 L306.64703 482.5159 L309.56205 478.41244 L312.75719 474.48557 L316.22952 470.75163 L319.97612 467.22697 L323.99407 463.92793 L328.28045 460.87086 L332.83233 458.07211 L337.6468 455.54803 L342.72093 453.31496 L345.35446 452.31266 L345.35446 452.31266 L348.02036 451.39998 L353.34987 449.87363 L358.66573 448.73706 L363.95523 447.97957 L369.20569 447.59045 L374.4044 447.55899 L379.53867 447.8745 L384.5958 448.52627 L389.5631 449.5036 L394.42787 450.79578 L399.1774 452.39211 L403.79902 454.28189 L408.28001 456.4544 L412.60769 458.89895 L416.76935 461.60484 L420.7523 464.56135 L424.54385 467.75779 L428.13129 471.18345 L431.50192 474.82763 L434.64306 478.67963 L437.54201 482.72873 L440.18606 486.96424 L442.56253 491.37546 L444.65871 495.95167 L446.46191 500.68217 L447.95944 505.55627 L449.13859 510.56325 L449.98666 515.69242 L450.49098 520.93307 L450.63882 526.27449 L450.41751 531.70598 L449.81433 537.21684 L449.36558 539.99869" />
    <path d="M363.55874 435.63323 L366.81191 435.38366 L373.2289 435.21905 L379.5175 435.4874 L385.66656 436.17303 L391.66498 437.26026 L397.50161 438.7334 L403.16534 440.57677 L408.64503 442.7747 L413.92956 445.31149 L419.00781 448.17147 L423.86864 451.33895 L428.50094 454.79825 L432.89357 458.53369 L437.0354 462.52959 L440.91532 466.77026 L444.52218 471.24002 L447.84488 475.92319 L450.87228 480.80408 L453.59325 485.86702 L455.99666 491.09632 L458.0714 496.4763 L459.80633 501.99127 L461.19033 507.62556 L462.21227 513.36348 L462.86102 519.18935 L463.12546 525.08748 L462.99446 531.0422 L462.45689 537.03782 L461.50163 543.05866 L460.11755 549.08903 L458.29353 555.11326 L456.01843 561.11566 L454.70825 564.10378 L454.70825 564.10378 L453.30369 567.02673 L450.19708 572.69545 L446.70713 578.1126 L442.84975 583.25979 L438.64091 588.11863 L434.09651 592.6707 L429.23251 596.89762 L424.06484 600.78099 L421.37211 602.5881" />
    <path d="M302.22551 602.37438 L299.66588 599.94716 L294.81615 594.85321 L290.33648 589.45707 L286.23972 583.77936 L282.53872 577.84071 L279.24633 571.66172 L276.37539 565.26301 L273.93875 558.6652 L272.88731 555.29807" />
    <path d="M433.68778 624.15075 L430.13615 626.30242 L422.94225 630.1745 L415.64556 633.48108 L408.2677 636.23359 L400.83033 638.44345 L393.35509 640.12208 L385.86362 641.2809 L378.37757 641.93134 L370.91857 642.08482 L363.50828 641.75276 L356.16834 640.94658 L348.92039 639.67771 L341.78607 637.95756 L334.78703 635.79757 L327.94491 633.20914 L321.28136 630.20371 L314.81802 626.7927 L308.57653 622.98753 L302.57853 618.79963 L296.84568 614.2404 L291.39961 609.32128 L286.26197 604.0537 L281.4544 598.44906 L276.99854 592.5188 L272.91604 586.27433 L269.22855 579.72709 L265.9577 572.88848 L263.12514 565.76994 L260.75251 558.38288 L258.86146 550.73873 L257.47363 542.84892 L256.61067 534.72485 L256.38278 530.57855 L256.38278 530.57855 L256.31308 527.99446 L256.34446 522.85636 L256.60006 517.76295 L257.0757 512.71973 L257.76722 507.73218 L258.67044 502.8058 L259.78117 497.94609 L261.09525 493.15855 L262.6085 488.44866 L264.31674 483.82193 L266.2158 479.28385 L268.30151 474.8399 L270.56969 470.4956 L273.01615 466.25643 L275.63674 462.12789 L278.42727 458.11548 L281.38357 454.22468 L284.50146 450.461 L287.77676 446.82993 L291.20531 443.33696 L294.78292 439.9876 L298.50543 436.78732 L302.36865 433.74164 L306.36841 430.85604 L310.50053 428.13603 L314.76085 425.58709 L319.14518 423.21471 L323.64935 421.02441 L328.26918 419.02166 L333.0005 417.21198 L337.83914 415.60084 L342.78091 414.19375 L345.28917 413.56844" />
    <path d="M281.95203 435.04838 L285.27568 431.87187 L292.12423 425.9633 L299.21936 420.64137 L306.53493 415.89891 L314.04482 411.72875 L321.72288 408.12374 L329.543 405.07671 L337.47903 402.58051 L345.50485 400.62796 L353.59433 399.21191 L361.72134 398.32519 L369.85974 397.96064 L377.9834 398.1111 L386.06619 398.7694 L394.08199 399.92839 L402.00465 401.58091 L409.80805 403.71978 L417.46607 406.33784 L424.95255 409.42794 L432.24139 412.98292 L439.30643 416.9956 L446.12157 421.45883 L452.66065 426.36544 L458.89755 431.70828 L464.80615 437.48018 L470.3603 443.67397 L475.53388 450.2825 L480.30076 457.2986 L484.6348 464.71511 L488.50988 472.52487 L491.89986 480.72071 L494.77861 489.29548 L496.01811 493.72272 L496.01811 493.72272 L496.91959 497.38492 L498.39467 504.76483 L499.4322 512.20262 L500.03179 519.67892 L500.193 527.17433 L499.91543 534.66949 L499.19865 542.14502 L498.04226 549.58153 L497.29907 553.2791" />
    <path d="M298.41203 406.46272 L302.75108 403.89399 L311.5339 399.28128 L320.43456 395.35648 L329.42692 392.10545 L338.48484 389.51406 L347.58219 387.56816 L356.69281 386.25363 L365.79059 385.55632 L374.84936 385.4621 L383.843 385.95683 L392.74537 387.02637 L401.53033 388.65659 L410.17173 390.83336 L418.64345 393.54253 L426.91933 396.76996 L434.97324 400.50153 L442.77905 404.7231 L450.31061 409.42052 L457.54178 414.57966 L464.44643 420.18639 L470.99841 426.22656 L477.17158 432.68605 L482.93982 439.55071 L488.27697 446.80641 L493.1569 454.43901 L497.55347 462.43438 L501.44053 470.77837 L504.79196 479.45685 L507.58161 488.45569 L509.78335 497.76075 L511.37103 507.35789 L512.31851 517.23297 L512.54401 522.27033 L512.54401 522.27033 L512.59961 527.09457 L512.24299 536.59308 L511.28099 545.8793 L509.73569 554.93847 L507.62917 563.7558 L504.98348 572.31654 L501.82071 580.60592 L498.16294 588.60916 L494.03222 596.3115 L489.45065 603.69818 L484.44028 610.75441 L479.0232 617.46544 L473.22148 623.81649 L467.05718 629.7928 L460.55239 635.3796 L453.72918 640.56212 L446.60962 645.32558 L439.21578 649.65523 L431.56974 653.5363 L423.69356 656.95401 L415.60934 659.89359 L407.33913 662.34028 L398.90501 664.27931 L390.32905 665.69592 L381.63333 666.57532 L372.83993 666.90276 L363.9709 666.66347 L355.04833 665.84267 L346.0943 664.4256 L337.13087 662.39748 L328.18011 659.74356 L319.2641 656.44907 L314.82603 654.55699" />
    <path d="M268.95673 413.19044 L271.005 411.35312 L275.15818 407.81402 L279.38364 404.45461 L283.67753 401.27365 L288.036 398.26994 L292.4552 395.44224 L296.93127 392.78933 L301.46036 390.30998 L308.34498 386.91372 L317.6741 382.98144 L327.14594 379.72139 L336.72971 377.12378 L346.39456 375.17883 L356.10969 373.87674 L365.84426 373.20773 L375.56747 373.16199 L385.24848 373.72974 L394.85648 374.9012 L404.36064 376.66656 L413.73015 379.01604 L422.93418 381.93984 L431.9419 385.42818 L440.72251 389.47127 L449.24518 394.05931 L457.47908 399.18251 L465.3934 404.83109 L472.95731 410.99524 L480.13999 417.66519 L486.91062 424.83113 L493.23839 432.48328 L499.09246 440.61186 L504.44202 449.20705 L508.10456 455.95378 L510.37254 460.59233 L512.49706 465.34202 L514.47426 470.20164 L516.30029 475.16996 L517.97129 480.24575 L519.48342 485.4278 L520.83282 490.71488 L521.44529 493.39743 L521.44529 493.39743 L522.13442 496.71053 L523.2878 503.33803 L524.14463 509.96065 L524.70893 516.57046 L524.98467 523.15952 L524.97585 529.71988 L524.68645 536.24362 L524.12047 542.72279 L523.2819 549.14946 L522.17472 555.51569 L520.80293 561.81354 L519.17052 568.03507 L517.28147 574.17235 L515.13979 580.21743 L512.74944 586.16238 L510.11444 591.99927 L507.23876 597.72015 L504.1264 603.31709 L500.78134 608.78214 L497.20759 614.10738 L493.40912 619.28486 L489.38992 624.30664 L485.154 629.16479 L480.70533 633.85137 L476.04791 638.35844 L471.18572 642.67807 L466.12277 646.80231 L460.86303 650.72323 L455.41049 654.4329 L449.76916 657.92336 L443.94301 661.18669 L437.93604 664.21495 L434.866 665.63844" />
    <path d="M466.873 661.64375 L464.51539 663.2655 L459.75929 666.36746 L454.95174 669.28201 L450.09637 672.01069 L445.19683 674.55507 L440.25677 676.91668 L435.27982 679.0971 L430.26965 681.09787 L422.70003 683.76558 L412.52491 686.70827 L402.28245 688.96034 L392.0018 690.53422 L381.71213 691.44234 L371.44258 691.69714 L361.22232 691.31104 L351.0805 690.29648 L341.04629 688.66589 L331.14882 686.4317 L321.41727 683.60633 L311.88079 680.20223 L302.56853 676.23182 L293.50965 671.70754 L284.73331 666.64181 L276.26866 661.04707 L268.14487 654.93574 L260.39107 648.32027 L253.03645 641.21307 L246.11014 633.62659 L239.64131 625.57325 L233.65911 617.06548 L228.1927 608.11572 L223.27123 598.7364 L219.95529 591.42748 L217.93014 586.42711 L216.05764 581.32633 L214.34141 576.12672 L212.78511 570.82981 L211.39238 565.43716 L210.16686 559.95034 L209.1122 554.37088 L208.65009 551.5469" />
    <path d="M469.36686 674.9294 L465.94704 677.11152 L458.97172 681.23368 L451.82515 685.02899 L444.51894 688.49258 L437.06471 691.61958 L429.47407 694.40513 L421.75863 696.84435 L413.92999 698.93236 L409.97686 699.84315" />
    <path d="M227.61427 402.49204 L229.86129 399.91264 L234.44587 394.91243 L239.14704 390.12289 L243.95987 385.54312 L248.87941 381.17218 L253.90072 377.00915 L259.01887 373.05311 L264.22892 369.30314 L269.52591 365.75831 L274.90493 362.41771 L280.36101 359.2804 L285.88923 356.34548 L291.48464 353.61201 L297.1423 351.07907 L302.85728 348.74574 L308.62463 346.61111 L314.43941 344.67423 L320.29668 342.9342 L326.1915 341.3901 L332.11893 340.04099 L338.07403 338.88595 L344.05186 337.92407 L350.04748 337.15442 L356.05596 336.57609 L362.07234 336.18813 L368.09168 335.98964 L374.10906 335.9797 L380.11953 336.15737 L386.11814 336.52174 L392.09996 337.07188 L398.06005 337.80688 L403.99347 338.7258 L409.89527 339.82773 L415.76052 341.11175 L421.58428 342.57693 L427.3616 344.22235 L433.08754 346.04709 L438.75718 348.05022 L444.36555 350.23083 L449.90773 352.58798 L455.37878 355.12077 L460.77375 357.82825 L466.08771 360.70953 L471.3157 363.76366 L476.4528 366.98973 L481.49407 370.38682 L486.43455 373.954 L491.26932 377.69035 L495.99343 381.59495 L500.60194 385.66688 L505.08992 389.90521 L509.45241 394.30902 L513.68449 398.8774 L517.7812 403.6094 L521.73762 408.50413 L525.5488 413.56064 L529.20979 418.77803 L532.71567 424.15536 L536.06148 429.69171 L539.24229 435.38617 L542.25317 441.23781 L545.08916 447.2457 L547.74532 453.40893 L550.21673 459.72658 L551.3816 462.94301 L551.3816 462.94301 L552.48015 466.14912 L554.50163 472.60604 L556.28867 479.11729 L557.84092 485.67655 L559.15803 492.27747 L560.23965 498.91373 L561.08541 505.57899 L561.69498 512.26692 L562.06799 518.97119 L562.2041 525.68547 L562.10296 532.40342 L561.7642 539.1187 L561.18748 545.825 L560.37244 552.51596 L559.31874 559.18527 L558.02602 565.82659 L557.28992 569.13477" />
    <path d="M170.88992 502.39239 L171.34846 498.77738 L172.43969 491.63399 L173.75904 484.60786 L175.30158 477.70113 L177.0624 470.91589 L179.03659 464.25427 L181.21922 457.71837 L183.60537 451.31031 L186.19012 445.03221 L188.96857 438.88617 L191.93578 432.87432 L195.08684 426.99876 L198.41684 421.26161 L201.92084 415.66498 L205.59394 410.21099 L209.43122 404.90175 L213.42775 399.73937 L217.57863 394.72597 L221.87892 389.86366 L226.32372 385.15455 L230.9081 380.60077 L235.62714 376.20441 L240.47593 371.9676 L245.44955 367.89245 L250.54308 363.98108 L255.7516 360.23559 L261.07019 356.6581 L266.49394 353.25073 L272.01792 350.01559 L277.63722 346.95479 L283.34692 344.07044 L289.1421 341.36466 L295.01784 338.83957 L300.96923 336.49727 L306.99134 334.33988 L313.07925 332.36952 L319.22806 330.5883 L325.43283 328.99832 L331.68865 327.60171 L337.99061 326.40059 L344.33378 325.39705 L350.71324 324.59322 L357.12409 323.99121 L363.56139 323.59314 L370.02023 323.40111 L376.49569 323.41724 L382.98286 323.64365 L389.47681 324.08245 L395.97263 324.73575 L402.46539 325.60567 L408.95018 326.69431 L415.42209 328.0038 L421.87618 329.53625 L428.30755 331.29377 L434.71128 333.27847 L441.08244 335.49247 L447.41612 337.93789 L453.7074 340.61683 L459.95136 343.5314 L466.14309 346.68374 L472.27765 350.07594 L478.35015 353.71012 L484.35565 357.58839 L490.28924 361.71288 L493.22753 363.86811 L493.22753 363.86811 L496.12896 366.07272 L501.7697 370.58945 L507.19483 375.24509 L512.40497 380.03435 L517.40074 384.95188 L522.18278 389.99239 L526.75172 395.15055 L531.10819 400.42105 L535.25281 405.79856 L539.18621 411.27778 L542.90902 416.85339 L546.42188 422.52007 L549.7254 428.27251 L552.82022 434.10538 L555.70696 440.01337 L558.38626 445.99117 L560.85874 452.03346 L563.12504 458.13492 L565.18578 464.29024 L567.04158 470.4941 L568.69309 476.74118 L570.14092 483.02617 L571.38571 489.34375 L572.42808 495.68861 L573.26867 502.05542 L573.90809 508.43888 L574.34699 514.83366 L574.58599 521.23444 L574.62572 527.63593 L574.4668 534.03278 L574.10987 540.4197 L573.55555 546.79136 L572.80447 553.14245 L571.85727 559.46765 L570.71457 565.76164 L569.37699 572.01911 L567.84518 578.23475 L566.11975 584.40322 L564.20133 590.51923 L562.09056 596.57745 L559.78807 602.57256 L557.29447 608.49926 L554.6104 614.35221 L551.7365 620.12612 L548.67338 625.81565 L545.42167 631.4155 L541.98201 636.92035 L538.35503 642.32487 L534.54135 647.62377 L530.54159 652.81171 L526.3564 657.88338 L521.9864 662.83347 L517.43221 667.65666 L512.69447 672.34763 L507.77381 676.90106 L502.67084 681.31165 L497.38621 685.57407 L491.92054 689.68301 L486.27446 693.63315 L480.4486 697.41917 L474.44359 701.03577 L468.26005 704.47761 L461.89861 707.73939 L455.35991 710.81579 L452.02428 712.28281" />
    <path d="M311.77665 319.84272 L315.49765 318.7899 L322.92734 316.8903 L330.33719 315.26219 L337.7231 313.90162 L345.08095 312.80468 L352.40664 311.96743 L359.69607 311.38595 L366.94513 311.05631 L374.14972 310.9746 L381.30572 311.13687 L388.40903 311.53921 L395.45554 312.17768 L402.44116 313.04837 L409.36177 314.14734 L416.21326 315.47068 L422.99153 317.01444 L429.69248 318.77471 L436.312 320.74757 L442.84598 322.92908 L449.29031 325.31532 L455.6409 327.90235 L461.89363 330.68627 L468.04439 333.66313 L474.08909 336.82902 L480.02361 340.18001 L485.84385 343.71216 L491.5457 347.42156 L497.12506 351.30428 L502.57782 355.35639 L507.89988 359.57396 L513.08712 363.95308 L518.13544 368.4898 L523.04074 373.18022 L527.79891 378.02039 L532.40585 383.0064 L536.85744 388.13432 L541.14958 393.40022 L545.27817 398.80017 L549.2391 404.33026 L553.02826 409.98654 L556.64155 415.76511 L560.07485 421.66202 L563.32408 427.67336 L566.38511 433.7952 L569.25384 440.0236 L571.92617 446.35466 L574.39799 452.78443 L576.66519 459.30899 L578.72367 465.92442 L580.56932 472.6268 L582.19804 479.41218 L583.60572 486.27666 L584.78825 493.21629 L585.74152 500.22716 L586.46144 507.30534 L586.94389 514.4469 L587.18477 521.64792 L587.17998 528.90447 L586.92539 536.21262 L586.41692 543.56845 L585.65046 550.96804 L584.62189 558.40744 L583.32711 565.88275 L581.76202 573.39003 L580.87682 577.15443 L580.87682 577.15443 L579.37395 582.95883 L575.88634 594.42842 L573.90364 600.08691" />
    <path d="M494.02275 718.05488 L490.55257 720.21992 L483.56405 724.33704 L476.51576 728.17253 L469.41303 731.72916 L462.26118 735.00973 L455.06555 738.01701 L447.83146 740.75377 L440.56423 743.2228 L433.26921 745.42688 L425.9517 747.36879 L418.61705 749.05131 L411.27057 750.47722 L403.9176 751.64929 L396.56345 752.57031 L389.21347 753.24306 L381.87298 753.67032 L374.5473 753.85486 L367.24176 753.79947 L359.96169 753.50692 L352.71241 752.98001 L345.49926 752.22149 L338.32756 751.23417 L331.20264 750.02081 L324.12982 748.58419 L317.11444 746.9271 L310.16181 745.05232 L303.27727 742.96262 L296.46615 740.66078 L289.73376 738.14959 L283.08545 735.43182 L276.52653 732.51026 L270.06234 729.38768 L263.6982 726.06687 L257.43944 722.5506 L251.29138 718.84165 L245.25935 714.9428 L239.34869 710.85684 L233.56471 706.58654 L227.91275 702.13468 L222.39813 697.50405 L217.02618 692.69741 L211.80222 687.71756 L206.73159 682.56727 L201.81961 677.24932 L197.07161 671.7665 L192.49292 666.12157 L188.08886 660.31733 L183.86476 654.35654 L179.82595 648.242 L175.97775 641.97647 L172.3255 635.56275 L168.87452 629.0036 L165.63013 622.30182 L162.59767 615.46017 L159.78246 608.48145 L157.18983 601.36842 L154.82511 594.12387 L152.69361 586.75058 L150.80069 579.25133 L149.15165 571.6289 L147.75182 563.88606 L146.60654 556.0256 L145.72113 548.0503 L145.10091 539.96294 L144.89192 535.8781 L144.89192 535.8781 L144.7363 531.01053 L144.73732 521.29587 L145.1515 511.61891 L145.97502 501.99213 L147.20406 492.42804 L148.83479 482.93911 L150.86339 473.53783 L153.28603 464.23669 L156.0989 455.04819 L159.29818 445.9848 L162.88003 437.05902 L166.84063 428.28333 L171.17617 419.67022 L175.88282 411.23219 L180.95675 402.98171 L186.39415 394.93128 L189.24795 390.98499" />
    <path d="M607.76709 482.3311 L608.50631 486.51018 L609.7614 494.89773 L610.71845 503.31785 L611.37709 511.76258 L611.73701 520.224 L611.79785 528.69416 L611.55929 537.16513 L611.02099 545.62897 L610.63933 549.85573" />
    <path d="M515.55752 318.83558 L518.44355 320.86227 L524.10283 325.01155 L529.61143 329.28583 L534.96891 333.68166 L540.17485 338.19562 L545.22883 342.82426 L550.13043 347.56414 L554.87922 352.41183 L559.47477 357.3639 L563.91668 362.41689 L568.2045 367.56738 L572.33782 372.81192 L576.31622 378.14708 L580.13927 383.56942 L585.58164 391.85887 L592.29047 403.18452 L598.3703 414.797 L603.81772 426.66882 L608.62937 438.77246 L612.80185 451.08044 L616.33178 463.56523 L619.21577 476.19935 L621.45044 488.95528 L623.0324 501.80553 L623.95826 514.72259 L624.22464 527.67895 L623.82815 540.64712 L622.76541 553.59958 L621.03303 566.50885 L618.62763 579.3474 L615.54581 592.08775 L611.7842 604.70238 L608.51484 614.06431 L606.12107 620.25199 L603.55544 626.39276 L600.81753 632.4832 L597.90693 638.51987 L594.8232 644.49932 L591.56593 650.41812 L588.13468 656.27284 L584.52904 662.06002 L580.74859 667.77624 L576.79289 673.41806 L572.66154 678.98204 L568.3541 684.46474 L563.87014 689.86273 L561.56184 692.52888" />
    <path d="M529.53819 738.76582 L525.69004 741.5666 L517.92016 746.92497 L510.05756 751.96142 L502.10863 756.67873 L494.0798 761.07969 L485.97747 765.16707 L477.80807 768.94368 L469.578 772.41228 L461.29368 775.57566 L452.96152 778.43662 L444.58794 780.99792 L436.17935 783.26237 L427.74216 785.23273 L419.28279 786.9118 L410.80766 788.30236 L402.32317 789.4072 L393.83574 790.2291 L385.35178 790.77084 L376.87771 791.03521 L368.41994 791.025 L359.98489 790.74298 L351.57897 790.19194 L343.20859 789.37468 L334.88017 788.29396 L326.60011 786.95258 L318.37485 785.35332 L310.21078 783.49896 L302.11432 781.3923 L294.0919 779.03611 L286.14991 776.43317 L278.29477 773.58628 L270.53291 770.49822 L262.87072 767.17177 L255.31463 763.60972 L247.87106 759.81485 L240.5464 755.78994 L233.34708 751.53778 L226.27952 747.06116 L219.35012 742.36286 L212.5653 737.44566 L205.93147 732.31235 L199.45505 726.96571 L193.14245 721.40853 L187.00008 715.64359 L181.03436 709.67368 L175.25171 703.50158 L169.65853 697.13007 L164.26124 690.56194 L159.06626 683.79998 L154.07999 676.84697 L149.30886 669.70569 L144.75927 662.37893 L140.43764 654.86947 L136.35039 647.18009 L132.50392 639.31359 L128.90465 631.27275 L125.559 623.06034 L122.47338 614.67916 L119.6542 606.13199 L117.10788 597.42162 L114.84083 588.55082 L112.85946 579.52238 L111.17019 570.33909 L109.77944 561.00374 L109.19801 556.27991 L109.19801 556.27991 L108.69654 551.54692 L107.94099 542.13882 L107.5106 532.81138 L107.39975 523.56875 L107.60282 514.4151 L108.11421 505.35459 L108.92828 496.39138 L110.03941 487.52963 L111.442 478.7735 L113.13042 470.12716 L115.09906 461.59478 L117.34229 453.1805 L119.85449 444.8885 L122.63006 436.72294 L125.66337 428.68797 L128.94879 420.78777 L132.48072 413.02649 L136.25354 405.4083 L140.26162 397.93735 L144.49935 390.61782 L148.96111 383.45386 L153.64129 376.44963 L158.53425 369.60931 L163.63439 362.93704 L168.93609 356.43699 L174.43372 350.11334 L180.12167 343.97022 L185.99432 338.01182 L192.04606 332.24229 L198.27126 326.66579 L204.66431 321.28649 L211.21958 316.10855 L217.93146 311.13613 L224.79434 306.37339 L231.80258 301.8245 L238.95058 297.49361 L246.23271 293.3849 L253.64336 289.50252 L261.17691 285.85063 L268.82774 282.43341 L276.59024 279.255 L284.45877 276.31957 L292.42773 273.63129 L300.4915 271.19431 L308.64445 269.01281 L316.88097 267.09093 L325.19545 265.43285 L333.58226 264.04273 L342.03578 262.92472 L350.5504 262.08299 L359.1205 261.52171 L367.74045 261.24503 L376.40465 261.25712 L385.10747 261.56214 L393.84329 262.16425 L402.6065 263.06762 L411.39148 264.2764 L420.19261 265.79477 L429.00426 267.62687 L437.82083 269.77688 L446.63669 272.24896 L455.44623 275.04726 L464.24383 278.17595 L473.02386 281.6392 L477.40553 283.49758" />
    <path d="M593.16648 692.9679 L590.13251 696.92025 L583.91865 704.60259 L577.5163 711.98917 L570.93272 719.08089 L564.17517 725.87864 L557.25092 732.38332 L550.16723 738.59583 L542.93138 744.51706 L535.55062 750.1479 L528.03222 755.48925 L520.38345 760.54201 L512.61156 765.30707 L504.72383 769.78533 L496.72752 773.97768 L488.6299 777.88502 L480.43822 781.50824 L472.15977 784.84824 L463.80179 787.90592 L455.37155 790.68216 L446.87633 793.17788 L438.32338 795.39395 L429.71997 797.33128 L421.07336 798.99076 L412.39083 800.37329 L403.67963 801.47977 L394.94703 802.31108 L386.2003 802.86812 L377.4467 803.1518 L368.69349 803.16299 L359.94794 802.90261 L351.21732 802.37155 L342.50889 801.57069 L333.82991 800.50095 L325.18765 799.1632 L316.58938 797.55836 L308.04236 795.6873 L299.55386 793.55094 L291.13113 791.15015 L282.78146 788.48585 L274.51209 785.55892 L266.33029 782.37027 L258.24334 778.92078 L250.2585 775.21135 L242.38302 771.24287 L234.62418 767.01625 L226.98924 762.53238 L219.48546 757.79215 L212.12012 752.79646 L204.90047 747.54621 L197.83379 742.04228 L190.92733 736.28558 L184.18835 730.277 L177.62414 724.01743 L171.24195 717.50778 L165.04904 710.74893 L159.05268 703.74178 L153.26014 696.48724 L147.67868 688.98618 L142.31556 681.23952 L137.17806 673.24814 L132.27343 665.01294 L127.60895 656.53482 L123.19187 647.81466 L119.02946 638.85337 L117.04602 634.28258 L117.04602 634.28258 L115.13519 629.66 L111.57783 620.35244 L108.37168 610.96915 L105.51527 601.51907 L103.00713 592.01116 L100.8458 582.45437 L99.02981 572.85764 L97.5577 563.22993 L96.42799 553.58019 L95.63923 543.91737 L95.18995 534.25042 L95.07868 524.58829 L95.30395 514.93993 L95.8643 505.31429 L96.75826 495.72032 L97.98437 486.16697 L99.54116 476.6632 L101.42716 467.21795 L103.64091 457.84017 L106.18094 448.53882 L109.04579 439.32284 L112.23398 430.20119 L115.74406 421.18281 L119.57456 412.27666 L123.724 403.49168 L128.19093 394.83683 L132.97388 386.32106 L138.07138 377.95331 L143.48197 369.74255 L149.20418 361.69771 L155.23654 353.82776 L161.57759 346.14163 L164.86341 342.3703" />
    <path d="M661.331 519.11353 L661.37734 521.37063 L661.41717 525.8855 L661.41067 528.14307" />
    <path d="M167.40658 304.39668 L171.42741 300.74912 L179.58226 293.72077 L187.88171 287.04613 L196.31815 280.72283 L204.88395 274.74849 L213.57151 269.12075 L222.37321 263.83723 L231.28144 258.89556 L240.28858 254.29336 L249.38701 250.02828 L258.56913 246.09793 L267.82731 242.49993 L277.15395 239.23193 L286.54142 236.29155 L295.98212 233.67641 L305.46843 231.38415 L314.99273 229.41239 L324.54741 227.75876 L334.12485 226.42088 L343.71745 225.3964 L353.31758 224.68292 L362.91763 224.27809 L372.50999 224.17953 L382.08704 224.38486 L391.64117 224.89172 L401.16476 225.69774 L410.6502 226.80053 L420.08987 228.19774 L429.47616 229.88698 L438.80145 231.86589 L448.05814 234.13209 L457.2386 236.68321 L466.33521 239.51689 L475.34038 242.63074 L484.24648 246.02239 L493.04589 249.68948 L501.731 253.62963 L510.2942 257.84047 L518.72788 262.31963 L527.02441 267.06473 L535.17618 272.07341 L543.17558 277.34329 L551.015 282.872 L558.68682 288.65716 L566.18342 294.69641 L573.49719 300.98737 L580.62052 307.52768 L587.54578 314.31495 L594.26538 321.34682 L600.77168 328.62092 L607.05709 336.13487 L613.11397 343.8863 L618.93472 351.87284 L624.51173 360.09211 L629.83737 368.54175 L634.90404 377.21939 L639.70412 386.12264 L644.22999 395.24915 L648.47404 404.59653 L652.42866 414.16242 L656.08623 423.94444 L659.43913 433.94022 L662.47976 444.14739 L665.20049 454.56357 L666.43852 459.84931 L666.43852 459.84931 L667.43369 464.43123 L669.20566 473.61202 L670.68788 482.81021 L671.88204 492.01963 L672.78981 501.23409 L673.4129 510.44739 L673.75298 519.65334 L673.81175 528.84576 L673.59089 538.01846 L673.0921 547.16525 L672.31704 556.27994 L671.26743 565.35634 L669.94493 574.38826 L668.35125 583.36952 L666.48806 592.29392 L664.35705 601.15527 L661.95992 609.94739 L659.29834 618.66408 L656.37402 627.29917 L653.18862 635.84645 L649.74385 644.29974 L646.04138 652.65285 L642.08292 660.8996 L637.87013 669.03378 L633.40472 677.04922 L628.68836 684.93973 L623.72275 692.69911 L618.50958 700.32118 L613.05052 707.79974 L607.34727 715.12861 L601.40152 722.3016 L595.21495 729.31253 L592.03188 732.75528" />
    <path d="M61.45407 573.47482 L60.65054 567.88034 L59.33961 556.7492 L58.41808 545.69943 L57.87949 534.73625 L57.71735 523.86482 L57.92517 513.09034 L58.49647 502.41799 L59.42476 491.85297 L60.70357 481.40045 L62.3264 471.06563 L64.28678 460.8537 L66.57821 450.76982 L69.19422 440.81921 L72.12833 431.00704 L75.37404 421.33849 L78.92487 411.81876 L82.77434 402.45304 L86.91597 393.2465 L91.34327 384.20434 L96.04976 375.33174 L101.02895 366.63389 L106.27436 358.11598 L111.77951 349.78319 L117.53791 341.64072 L123.54308 333.69373 L129.78853 325.94744 L136.26778 318.40701 L142.97435 311.07764 L149.90175 303.96451 L157.0435 297.07282 L164.39311 290.40774 L171.94411 283.97447 L179.69 277.77819 L187.6243 271.82408 L195.74053 266.11734 L204.03221 260.66316 L212.49284 255.46671 L221.11595 250.53319 L229.89506 245.86777 L238.82367 241.47566 L247.89531 237.36204 L257.10349 233.53208 L266.44173 229.99099 L275.90354 226.74394 L285.48244 223.79612 L295.17194 221.15273 L304.96557 218.81894 L314.85683 216.79994 L324.83924 215.10093 L334.90633 213.72708 L345.0516 212.68358 L355.26857 211.97563 L365.55076 211.6084 L375.89168 211.58709 L386.28485 211.91687 L396.72379 212.60295 L407.20201 213.6505 L417.71302 215.06471 L428.25035 216.85077 L438.80751 219.01386 L449.37802 221.55918 L459.95538 224.4919 L470.53313 227.81722 L481.10477 231.54032 L486.38627 233.55266 L486.38627 233.55266 L491.63299 235.65403 L501.92832 240.0843 L511.95845 244.81112 L521.72215 249.82628 L531.21815 255.12157 L540.44521 260.68879 L549.40209 266.51972 L558.08752 272.60616 L566.50026 278.93989 L574.63906 285.51272 L582.50267 292.31642 L590.08984 299.3428 L597.39932 306.58364 L604.42986 314.03073 L611.18021 321.67587 L617.64912 329.51085 L623.83534 337.52745 L629.73762 345.71748 L635.35471 354.07271 L640.68536 362.58495 L645.72833 371.24598 L650.48235 380.0476 L654.94618 388.98159 L659.11857 398.03975 L662.99828 407.21387 L666.58404 416.49574 L669.87462 425.87715 L672.86875 435.34989 L675.5652 444.90576 L677.96271 454.53654 L680.06003 464.23403 L681.85591 473.99002 L683.3491 483.7963 L684.53836 493.64466 L685.42242 503.52689 L686.00005 513.43478 L686.26999 523.36013 L686.23099 533.29473 L685.8818 543.23036 L685.22117 553.15883 L684.24786 563.07191 L682.96061 572.9614 L681.35816 582.8191 L679.43929 592.63679 L677.20272 602.40627 L674.64722 612.11932 L671.77153 621.76775 L668.5744 631.34333 L665.05458 640.83786 L661.21083 650.24314 L657.04188 659.55095 L652.54651 668.75308 L647.72344 677.84133 L642.57144 686.80749 L637.08925 695.64335 L631.27562 704.34069 L625.12931 712.89132 L618.64906 721.28702 L611.83362 729.51959 L604.68174 737.58081 L597.19218 745.46248 L589.36369 753.15639 L581.195 760.65432 L572.68488 767.94808 L568.30139 771.51583" />
    <path d="M316.70928 204.32894 L322.50751 203.38242 L334.04981 201.79828 L345.51529 200.62047 L356.89841 199.84235 L368.19367 199.4573 L379.39554 199.45868 L390.4985 199.83985 L401.49704 200.59417 L412.38563 201.71502 L423.15876 203.19575 L433.8109 205.02974 L444.33653 207.21033 L454.73014 209.73091 L464.98621 212.58483 L475.09921 215.76547 L485.06362 219.26617 L494.87394 223.08032 L504.52463 227.20126 L514.01017 231.62238 L523.32505 236.33702 L532.46376 241.33857 L541.42075 246.62038 L550.19053 252.17581 L558.76756 257.99823 L567.14634 264.08101 L575.32133 270.41751 L583.28702 277.00109 L591.03789 283.82513 L598.56842 290.88298 L605.87309 298.16801 L612.94638 305.67358 L619.78277 313.39306 L626.37674 321.31981 L632.72278 329.4472 L638.81535 337.76859 L644.64895 346.27735 L650.21805 354.96684 L655.51713 363.83043 L660.54067 372.86147 L665.28316 382.05335 L669.73907 391.39941 L673.90289 400.89303 L677.76909 410.52756 L681.33215 420.29639 L684.58656 430.19286 L687.52679 440.21034 L690.14733 450.3422 L692.44265 460.58181 L694.40724 470.92252 L696.03557 481.3577 L697.32213 491.88072 L698.2614 502.48494 L698.84786 513.16373 L699.07598 523.91045 L698.94025 534.71846 L698.43515 545.58114 L697.55515 556.49183 L696.29475 567.44392 L694.64841 578.43076 L692.61062 589.44572 L690.17586 600.48216 L687.33861 611.53345 L684.09335 622.59296 L680.43457 633.65404 L678.44837 639.18309 L678.44837 639.18309 L676.17928 645.15508 L671.29775 656.949 L665.96435 668.53222 L660.18621 679.892 L653.97044 691.01561 L647.32417 701.89029 L640.25452 712.50331 L632.7686 722.84192 L628.87177 727.90434" />
    <path d="M265.04174 204.53719 L270.84409 202.66119 L282.4414 199.23462 L294.02326 196.23701 L305.58299 193.66241 L317.11388 191.50487 L328.60924 189.75845 L340.06235 188.41719 L351.46653 187.47516 L362.81508 186.9264 L374.10128 186.76496 L385.31846 186.98489 L396.4599 187.58026 L407.5189 188.54511 L418.48877 189.87349 L429.36281 191.55945 L440.13431 193.59705 L450.79658 195.98034 L461.34292 198.70337 L471.76663 201.7602 L482.06101 205.14487 L492.21936 208.85144 L502.23498 212.87396 L512.10116 217.20648 L521.81122 221.84306 L531.35845 226.77774 L540.73616 232.00459 L549.93763 237.51764 L558.95618 243.31096 L567.7851 249.37859 L576.4177 255.71459 L584.84727 262.31301 L593.06711 269.1679 L601.07053 276.27331 L608.85083 283.6233 L616.4013 291.21192 L623.71525 299.03323 L630.78597 307.08126 L637.60678 315.35008 L644.17096 323.83373 L650.47182 332.52628 L656.50266 341.42177 L662.25678 350.51425 L667.72747 359.79777 L672.90805 369.2664 L677.79181 378.91417 L682.37206 388.73515 L686.64208 398.72338 L690.59519 408.87292 L694.22468 419.17782 L697.52385 429.63213 L700.486 440.2299 L703.10445 450.96519 L705.37247 461.83205 L707.28338 472.82452 L708.83048 483.93667 L710.00706 495.16254 L710.80643 506.49619 L711.22189 517.93167 L711.24673 529.46303 L710.87426 541.08432 L710.09779 552.7896 L708.9106 564.57291 L707.306 576.42831 L705.27729 588.34986 L704.1018 594.33357 L704.1018 594.33357 L703.21608 598.51514 L701.2908 606.82757 L699.16225 615.06969 L696.83265 623.23826 L694.30421 631.33005 L691.57916 639.34181 L688.65971 647.27031 L685.54808 655.1123 L682.2465 662.86456 L678.75718 670.52384 L675.08234 678.08691 L671.22421 685.55052 L667.18499 692.91145 L662.96692 700.16644 L658.5722 707.31226 L654.00306 714.34568 L649.26173 721.26345 L644.35041 728.06234 L639.27133 734.73911 L634.0267 741.29052 L628.61875 747.71333 L623.0497 754.00431 L617.32176 760.16021 L611.43716 766.1778 L605.39811 772.05384 L599.20683 777.78509 L592.86555 783.36832 L586.37648 788.80028 L579.74184 794.07773 L572.96385 799.19745 L566.04473 804.15619 L558.98671 808.9507 L555.4063 811.28537" />
    <path d="M584.48067 246.29094 L588.35902 249.27622 L595.95434 255.37258 L603.33416 261.6327 L610.4981 268.05183 L617.44577 274.62521 L624.17677 281.34808 L630.69072 288.21568 L636.98723 295.22326 L643.06591 302.36604 L648.92637 309.63928 L654.56821 317.03821 L659.99105 324.55809 L665.1945 332.19413 L670.17818 339.9416 L674.94168 347.79573 L679.48462 355.75175 L683.80661 363.80492 L687.90726 371.95047 L691.78618 380.18365 L695.44299 388.49969 L698.87728 396.89384 L702.08868 405.36134 L705.07678 413.89743 L707.84121 422.49734 L710.38158 431.15633 L712.69748 439.86963 L714.78854 448.63248 L716.65436 457.44013 L718.29456 466.28782 L719.70874 475.17078 L720.89651 484.08426 L721.85749 493.0235 L722.59128 501.98374 L723.09749 510.96022 L723.37575 519.94818 L723.42564 528.94287 L723.2468 537.93952 L722.83882 546.93338 L722.20131 555.91969 L721.33389 564.89369 L720.23617 573.85061 L718.90776 582.78571 L717.34826 591.69422 L715.55729 600.57138 L713.53446 609.41244 L711.27938 618.21263 L708.79166 626.9672 L706.0709 635.67138 L703.11672 644.32043 L699.92874 652.90957 L696.50655 661.43406 L692.84977 669.88913 L688.95802 678.27002 L684.83089 686.57198 L680.468 694.79024 L675.86897 702.92006 L671.0334 710.95665 L665.96089 718.89528 L660.65107 726.73118 L655.10355 734.45959 L649.31792 742.07576 L643.29381 749.57491 L637.03082 756.95231 L630.52856 764.20318 L627.18759 767.77968" />
    <path d="M74.69768 316.61302 L78.51284 311.29586 L86.34415 300.94727 L94.43545 290.97894 L102.77717 281.39 L111.35973 272.17958 L120.17357 263.34682 L129.20909 254.89085 L138.45674 246.81079 L147.90692 239.1058 L157.55008 231.77499 L167.37663 224.81749 L177.377 218.23245 L187.54161 212.019 L197.86088 206.17626 L208.32525 200.70338 L218.92514 195.59947 L229.65097 190.86368 L240.49317 186.49514 L251.44215 182.49298 L262.48836 178.85634 L273.62221 175.58434 L284.83412 172.67612 L296.11453 170.13081 L307.45385 167.94755 L318.84251 166.12546 L330.27094 164.66368 L341.72956 163.56135 L353.20879 162.81759 L364.69907 162.43154 L376.19081 162.40233 L387.67445 162.72909 L399.14039 163.41096 L410.57908 164.44706 L421.98093 165.83654 L433.33638 167.57852 L444.63584 169.67214 L455.86973 172.11653 L467.0285 174.91082 L478.10255 178.05415 L489.08231 181.54564 L499.95822 185.38443 L510.72069 189.56966 L521.36014 194.10045 L531.86702 198.97594 L542.23173 204.19526 L552.4447 209.75755 L562.49636 215.66193 L572.37714 221.90754 L582.07745 228.49351 L591.58773 235.41897 L600.89839 242.68307 L609.99987 250.28492 L618.88259 258.22366 L627.53696 266.49843 L635.95343 275.10836 L644.12241 284.05258 L652.03432 293.33022 L659.6796 302.94042 L667.04866 312.88231 L674.13194 323.15502 L680.91985 333.75768 L687.40282 344.68943 L693.57128 355.9494 L699.41565 367.53672 L702.21331 373.45287 L702.21331 373.45287 L704.73314 379.01641 L709.46923 390.17841 L713.80407 401.3812 L717.74191 412.61795 L721.28702 423.88179 L724.44363 435.16586 L727.21601 446.46331 L729.60839 457.76728 L731.62503 469.07092 L733.27019 480.36736 L734.5481 491.64974 L735.46302 502.91122 L736.01921 514.14493 L736.22091 525.34401 L736.07237 536.50161 L735.57784 547.61087 L734.74157 558.66494 L733.56782 569.65694 L732.06083 580.58004 L730.22485 591.42737 L728.06414 602.19207 L725.58294 612.86728 L722.7855 623.44616 L719.67609 633.92183 L716.25893 644.28745 L712.53829 654.53615 L708.51842 664.66108 L704.20357 674.65538 L699.59798 684.51219 L694.70591 694.22466 L689.5316 703.78593 L684.07932 713.18913 L678.3533 722.42743 L672.3578 731.49394 L666.09707 740.38183 L659.57536 749.08422 L652.79692 757.59427 L645.76599 765.90512 L638.48684 774.0099 L630.96371 781.90177 L623.20085 789.57385 L615.20251 797.01931 L606.97294 804.23127 L598.5164 811.20289 L589.83712 817.92729 L580.93937 824.39764 L571.8274 830.60706 L562.50544 836.5487 L552.97776 842.21571 L543.24861 847.60122 L533.32222 852.69839 L523.20287 857.50034 L512.89479 862.00023 L502.40223 866.19119 L491.72945 870.06638 L480.88069 873.61892 L469.86022 876.84197 L458.67227 879.72867 L447.32109 882.27215 L435.81095 884.46557 L424.14608 886.30206 L412.33074 887.77477 L400.36918 888.87684 L388.26564 889.60141 L382.16197 889.81999" />
  </g>
</svg>