<?xml version="1.0" standalone="no"?>
<!DOCTYPE svg PUBLIC "-//W3C//DTD SVG 1.1//EN" 
    "http://www.w3.org/Graphics/SVG/1.1/DTD/svg11.dtd">
<svg width="2480px" height="3508px"
    xmlns="http://www.w3.org/2000/svg" version="1.1" viewBox="0 0 2480 3508">
  <g fill="none" stroke="black" stroke-width="1.06299px">
    <path d="M0 514 L2480 514" />
    <path d="M2480 514 L2480 2994" />
    <path d="M2480 2994 L0 2994" />
    <path d="M0 2994 L0 514" />
    <path d="M12.4 526.4 L2467.6 526.4" />
    <path d="M2467.6 526.4 L2467.6 2981.6" />
    <path d="M2467.6 2981.6 L12.4 2981.6" />
    <path d="M12.4 2981.6 L12.4 526.4" />
    <path d="M24.8 538.8 L2455.2000000000003 538.8" />
    <path d="M2455.2000000000003 538.8 L2455.2000000000003 2969.2" />
    <path d="M2455.2000000000003 2969.2 L24.8 2969.2" />
    <path d="M24.8 2969.2 L24.8 538.8" />
    <path d="M37.2 551.2 L2442.7999999999997 551.2" />
    <path d="M2442.7999999999997 551.2 L2442.7999999999997 2956.8" />
    <path d="M2442.7999999999997 2956.8 L37.2 2956.8" />
    <path d="M37.2 2956.8 L37.2 551.2" />
    <path d="M49.6 563.6 L2430.4 563.6" />
    <path d="M2430.4 563.6 L2430.4 2944.4" />
    <path d="M2430.4 2944.4 L49.6 2944.4" />
    <path d="M49.6 2944.4 L49.6 563.6" />
    <path d="M62 576 L2418 576" />
    <path d="M2418 576 L2418 2932" />
    <path d="M2418 2932 L62 2932" />
    <path d="M62 2932 L62 576" />
    <path d="M74.4 588.4 L2405.6 588.4" />
    <path d="M2405.6 588.4 L2405.6 2919.6" />
    <path d="M2405.6 2919.6 L74.4 2919.6" />
    <path d="M74.4 2919.6 L74.4 588.4" />
    <path d="M86.8 600.8 L2393.2000000000003 600.8" />
    <path d="M2393.2000000000003 600.8 L2393.2000000000003 2907.2" />
    <path d="M2393.2000000000003 2907.2 L86.8 2907.2" />
    <path d="M86.8 2907.2 L86.8 600.8" />
    <path d="M99.2 613.2 L2380.7999999999997 613.2" />
    <path d="M2380.7999999999997 613.2 L2380.7999999999997 2894.8" />
    <path d="M2380.7999999999997 2894.8 L99.2 2894.8" />
    <path d="M99.2 2894.8 L99.2 613.2" />
    <path d="M111.60000000000001 625.6 L2368.4 625.6" />
    <path d="M2368.4 625.6 L2368.4 2882.4" />
    <path d="M2368.4 2882.4 L111.60000000000001 2882.4" />
    <path d="M111.60000000000001 2882.4 L111.60000000000001 625.6" />
    <path d="M124 638 L2356 638" />
    <path d="M2356 638 L2356 2870" />
    <path d="M2356 2870 L124 2870" />
    <path d="M124 2870 L124 638" />
    <path d="M136.4 650.4 L2343.6 650.4" />
    <path d="M2343.6 650.4 L2343.6 2857.6" />
    <path d="M2343.6 2857.6 L136.4 2857.6" />
    <path d="M136.4 2857.6 L136.4 650.4" />
    <path d="M148.8 662.8 L2331.2000000000003 662.8" />
    <path d="M2331.2000000000003 662.8 L2331.2000000000003 2845.2" />
    <path d="M2331.2000000000003 2845.2 L148.8 2845.2" />
    <path d="M148.8 2845.2 L148.8 662.8" />
    <path d="M161.20000000000002 675.2 L2318.7999999999997 675.2" />
    <path d="M2318.7999999999997 675.2 L2318.7999999999997 2832.8" />
    <path d="M2318.7999999999997 2832.8 L161.20000000000002 2832.8" />
    <path d="M161.20000000000002 2832.8 L161.20000000000002 675.2" />
    <path d="M173.6 687.6 L2306.4 687.6" />
    <path d="M2306.4 687.6 L2306.4 2820.4" />
    <path d="M2306.4 2820.4 L173.6 2820.4" />
    <path d="M173.6 2820.4 L173.6 687.6" />
    <path d="M186 700 L2294 700" />
    <path d="M2294 700 L2294 2808" />
    <path d="M2294 2808 L186 2808" />
    <path d="M186 2808 L186 700" />
    <path d="M198.4 712.4 L2281.6 712.4" />
    <path d="M2281.6 712.4 L2281.6 2795.6" />
    <path d="M2281.6 2795.6 L198.4 2795.6" />
    <path d="M198.4 2795.6 L198.4 712.4" />
    <path d="M210.8 724.8 L2269.2000000000003 724.8" />
    <path d="M2269.2000000000003 724.8 L2269.2000000000003 2783.2" />
    <path d="M2269.2000000000003 2783.2 L210.8 2783.2" />
    <path d="M210.8 2783.2 L210.8 724.8" />
    <path d="M223.20000000000002 737.2 L2256.7999999999997 737.2" />
    <path d="M2256.7999999999997 737.2 L2256.7999999999997 2770.8" />
    <path d="M2256.7999999999997 2770.8 L223.20000000000002 2770.8" />
    <path d="M223.20000000000002 2770.8 L223.20000000000002 737.2" />
    <path d="M235.6 749.6 L2244.4 749.6" />
    <path d="M2244.4 749.6 L2244.4 2758.4" />
    <path d="M2244.4 2758.4 L235.6 2758.4" />
    <path d="M235.6 2758.4 L235.6 749.6" />
    <path d="M248 762 L2232 762" />
    <path d="M2232 762 L2232 2746" />
    <path d="M2232 2746 L248 2746" />
    <path d="M248 2746 L248 762" />
    <path d="M260.40000000000003 774.4000000000001 L2219.6 774.4000000000001" />
    <path d="M2219.6 774.4000000000001 L2219.6 2733.6" />
    <path d="M2219.6 2733.6 L260.40000000000003 2733.6" />
    <path d="M260.40000000000003 2733.6 L260.40000000000003 774.4000000000001" />
    <path d="M272.8 786.8 L2207.2000000000003 786.8" />
    <path d="M2207.2000000000003 786.8 L2207.2000000000003 2721.2" />
    <path d="M2207.2000000000003 2721.2 L272.8 2721.2" />
    <path d="M272.8 2721.2 L272.8 786.8" />
    <path d="M285.2 799.2 L2194.7999999999997 799.2" />
    <path d="M2194.7999999999997 799.2 L2194.7999999999997 2708.8" />
    <path d="M2194.7999999999997 2708.8 L285.2 2708.8" />
    <path d="M285.2 2708.8 L285.2 799.2" />
    <path d="M297.6 811.6 L2182.4 811.6" />
    <path d="M2182.4 811.6 L2182.4 2696.4" />
    <path d="M2182.4 2696.4 L297.6 2696.4" />
    <path d="M297.6 2696.4 L297.6 811.6" />
    <path d="M310 824 L2170 824" />
    <path d="M2170 824 L2170 2684" />
    <path d="M2170 2684 L310 2684" />
    <path d="M310 2684 L310 824" />
    <path d="M322.40000000000003 836.4000000000001 L2157.6 836.4000000000001" />
    <path d="M2157.6 836.4000000000001 L2157.6 2671.6" />
    <path d="M2157.6 2671.6 L322.40000000000003 2671.6" />
    <path d="M322.40000000000003 2671.6 L322.40000000000003 836.4000000000001" />
    <path d="M334.8 848.8 L2145.2000000000003 848.8" />
    <path d="M2145.2000000000003 848.8 L2145.2000000000003 2659.2" />
    <path d="M2145.2000000000003 2659.2 L334.8 2659.2" />
    <path d="M334.8 2659.2 L334.8 848.8" />
    <path d="M347.2 861.2 L2132.7999999999997 861.2" />
    <path d="M2132.7999999999997 861.2 L2132.7999999999997 2646.8" />
    <path d="M2132.7999999999997 2646.8 L347.2 2646.8" />
    <path d="M347.2 2646.8 L347.2 861.2" />
    <path d="M359.6 873.6 L2120.4 873.6" />
    <path d="M2120.4 873.6 L2120.4 2634.4" />
    <path d="M2120.4 2634.4 L359.6 2634.4" />
    <path d="M359.6 2634.4 L359.6 873.6" />
    <path d="M372 886 L2108 886" />
    <path d="M2108 886 L2108 2622" />
    <path d="M2108 2622 L372 2622" />
    <path d="M372 2622 L372 886" />
    <path d="M384.40000000000003 898.4000000000001 L2095.6 898.4000000000001" />
    <path d="M2095.6 898.4000000000001 L2095.6 2609.6" />
    <path d="M2095.6 2609.6 L384.40000000000003 2609.6" />
    <path d="M384.40000000000003 2609.6 L384.40000000000003 898.4000000000001" />
    <path d="M396.8 910.8 L2083.2000000000003 910.8" />
    <path d="M2083.2000000000003 910.8 L2083.2000000000003 2597.2" />
    <path d="M2083.2000000000003 2597.2 L396.8 2597.2" />
    <path d="M396.8 2597.2 L396.8 910.8" />
    <path d="M409.2 923.2 L2070.7999999999997 923.2" />
    <path d="M2070.7999999999997 923.2 L2070.7999999999997 2584.8" />
    <path d="M2070.7999999999997 2584.8 L409.2 2584.8" />
    <path d="M409.2 2584.8 L409.2 923.2" />
    <path d="M421.6 935.6 L2058.4 935.6" />
    <path d="M2058.4 935.6 L2058.4 2572.4" />
    <path d="M2058.4 2572.4 L421.6 2572.4" />
    <path d="M421.6 2572.4 L421.6 935.6" />
    <path d="M434 948 L2046 948" />
    <path d="M2046 948 L2046 2560" />
    <path d="M2046 2560 L434 2560" />
    <path d="M434 2560 L434 948" />
    <path d="M446.40000000000003 960.4000000000001 L2033.6 960.4000000000001" />
    <path d="M2033.6 960.4000000000001 L2033.6 2547.6" />
    <path d="M2033.6 2547.6 L446.40000000000003 2547.6" />
    <path d="M446.40000000000003 2547.6 L446.40000000000003 960.4000000000001" />
    <path d="M458.8 972.8 L2021.2 972.8" />
    <path d="M2021.2 972.8 L2021.2 2535.2" />
    <path d="M2021.2 2535.2 L458.8 2535.2" />
    <path d="M458.8 2535.2 L458.8 972.8" />
    <path d="M471.2 985.2 L2008.8 985.2" />
    <path d="M2008.8 985.2 L2008.8 2522.8" />
    <path d="M2008.8 2522.8 L471.2 2522.8" />
    <path d="M471.2 2522.8 L471.2 985.2" />
    <path d="M483.6 997.6 L1996.4 997.6" />
    <path d="M1996.4 997.6 L1996.4 2510.4" />
    <path d="M1996.4 2510.4 L483.6 2510.4" />
    <path d="M483.6 2510.4 L483.6 997.6" />
    <path d="M496 1010 L1984 1010" />
    <path d="M1984 1010 L1984 2498" />
    <path d="M1984 2498 L496 2498" />
    <path d="M496 2498 L496 1010" />
    <path d="M508.40000000000003 1022.4000000000001 L1971.6 1022.4000000000001" />
    <path d="M1971.6 1022.4000000000001 L1971.6 2485.6" />
    <path d="M1971.6 2485.6 L508.40000000000003 2485.6" />
    <path d="M508.40000000000003 2485.6 L508.40000000000003 1022.4000000000001" />
    <path d="M520.8000000000001 1034.8000000000002 L1959.1999999999998 1034.8000000000002" />
    <path d="M1959.1999999999998 1034.8000000000002 L1959.1999999999998 2473.2" />
    <path d="M1959.1999999999998 2473.2 L520.8000000000001 2473.2" />
    <path d="M520.8000000000001 2473.2 L520.8000000000001 1034.8000000000002" />
    <path d="M533.2 1047.2 L1946.8 1047.2" />
    <path d="M1946.8 1047.2 L1946.8 2460.8" />
    <path d="M1946.8 2460.8 L533.2 2460.8" />
    <path d="M533.2 2460.8 L533.2 1047.2" />
    <path d="M545.6 1059.6 L1934.4 1059.6" />
    <path d="M1934.4 1059.6 L1934.4 2448.3999999999996" />
    <path d="M1934.4 2448.3999999999996 L545.6 2448.3999999999996" />
    <path d="M545.6 2448.3999999999996 L545.6 1059.6" />
    <path d="M558 1072 L1922 1072" />
    <path d="M1922 1072 L1922 2436" />
    <path d="M1922 2436 L558 2436" />
    <path d="M558 2436 L558 1072" />
    <path d="M570.4 1084.4 L1909.6 1084.4" />
    <path d="M1909.6 1084.4 L1909.6 2423.6000000000004" />
    <path d="M1909.6 2423.6000000000004 L570.4 2423.6000000000004" />
    <path d="M570.4 2423.6000000000004 L570.4 1084.4" />
    <path d="M582.8000000000001 1096.8000000000002 L1897.1999999999998 1096.8000000000002" />
    <path d="M1897.1999999999998 1096.8000000000002 L1897.1999999999998 2411.2" />
    <path d="M1897.1999999999998 2411.2 L582.8000000000001 2411.2" />
    <path d="M582.8000000000001 2411.2 L582.8000000000001 1096.8000000000002" />
    <path d="M595.2 1109.2 L1884.8 1109.2" />
    <path d="M1884.8 1109.2 L1884.8 2398.8" />
    <path d="M1884.8 2398.8 L595.2 2398.8" />
    <path d="M595.2 2398.8 L595.2 1109.2" />
    <path d="M607.6 1121.6 L1872.4 1121.6" />
    <path d="M1872.4 1121.6 L1872.4 2386.3999999999996" />
    <path d="M1872.4 2386.3999999999996 L607.6 2386.3999999999996" />
    <path d="M607.6 2386.3999999999996 L607.6 1121.6" />
    <path d="M620 1134 L1860 1134" />
    <path d="M1860 1134 L1860 2374" />
    <path d="M1860 2374 L620 2374" />
    <path d="M620 2374 L620 1134" />
    <path d="M632.4 1146.4 L1847.6 1146.4" />
    <path d="M1847.6 1146.4 L1847.6 2361.6000000000004" />
    <path d="M1847.6 2361.6000000000004 L632.4 2361.6000000000004" />
    <path d="M632.4 2361.6000000000004 L632.4 1146.4" />
    <path d="M644.8000000000001 1158.8000000000002 L1835.1999999999998 1158.8000000000002" />
    <path d="M1835.1999999999998 1158.8000000000002 L1835.1999999999998 2349.2" />
    <path d="M1835.1999999999998 2349.2 L644.8000000000001 2349.2" />
    <path d="M644.8000000000001 2349.2 L644.8000000000001 1158.8000000000002" />
    <path d="M657.2 1171.2 L1822.8 1171.2" />
    <path d="M1822.8 1171.2 L1822.8 2336.8" />
    <path d="M1822.8 2336.8 L657.2 2336.8" />
    <path d="M657.2 2336.8 L657.2 1171.2" />
    <path d="M669.6 1183.6 L1810.4 1183.6" />
    <path d="M1810.4 1183.6 L1810.4 2324.3999999999996" />
    <path d="M1810.4 2324.3999999999996 L669.6 2324.3999999999996" />
    <path d="M669.6 2324.3999999999996 L669.6 1183.6" />
    <path d="M682 1196 L1798 1196" />
    <path d="M1798 1196 L1798 2312" />
    <path d="M1798 2312 L682 2312" />
    <path d="M682 2312 L682 1196" />
    <path d="M694.4 1208.4 L1785.6 1208.4" />
    <path d="M1785.6 1208.4 L1785.6 2299.6000000000004" />
    <path d="M1785.6 2299.6000000000004 L694.4 2299.6000000000004" />
    <path d="M694.4 2299.6000000000004 L694.4 1208.4" />
    <path d="M706.8000000000001 1220.8000000000002 L1773.1999999999998 1220.8000000000002" />
    <path d="M1773.1999999999998 1220.8000000000002 L1773.1999999999998 2287.2" />
    <path d="M1773.1999999999998 2287.2 L706.8000000000001 2287.2" />
    <path d="M706.8000000000001 2287.2 L706.8000000000001 1220.8000000000002" />
    <path d="M719.2 1233.2 L1760.8 1233.2" />
    <path d="M1760.8 1233.2 L1760.8 2274.8" />
    <path d="M1760.8 2274.8 L719.2 2274.8" />
    <path d="M719.2 2274.8 L719.2 1233.2" />
    <path d="M731.6 1245.6 L1748.4 1245.6" />
    <path d="M1748.4 1245.6 L1748.4 2262.3999999999996" />
    <path d="M1748.4 2262.3999999999996 L731.6 2262.3999999999996" />
    <path d="M731.6 2262.3999999999996 L731.6 1245.6" />
    <path d="M744 1258 L1736 1258" />
    <path d="M1736 1258 L1736 2250" />
    <path d="M1736 2250 L744 2250" />
    <path d="M744 2250 L744 1258" />
    <path d="M756.4 1270.4 L1723.6 1270.4" />
    <path d="M1723.6 1270.4 L1723.6 2237.6000000000004" />
    <path d="M1723.6 2237.6000000000004 L756.4 2237.6000000000004" />
    <path d="M756.4 2237.6000000000004 L756.4 1270.4" />
    <path d="M768.8000000000001 1282.8000000000002 L1711.1999999999998 1282.8000000000002" />
    <path d="M1711.1999999999998 1282.8000000000002 L1711.1999999999998 2225.2" />
    <path d="M1711.1999999999998 2225.2 L768.8000000000001 2225.2" />
    <path d="M768.8000000000001 2225.2 L768.8000000000001 1282.8000000000002" />
    <path d="M781.2 1295.2 L1698.8 1295.2" />
    <path d="M1698.8 1295.2 L1698.8 2212.8" />
    <path d="M1698.8 2212.8 L781.2 2212.8" />
    <path d="M781.2 2212.8 L781.2 1295.2" />
    <path d="M793.6 1307.6 L1686.4 1307.6" />
    <path d="M1686.4 1307.6 L1686.4 2200.3999999999996" />
    <path d="M1686.4 2200.3999999999996 L793.6 2200.3999999999996" />
    <path d="M793.6 2200.3999999999996 L793.6 1307.6" />
    <path d="M806 1320 L1674 1320" />
    <path d="M1674 1320 L1674 2188" />
    <path d="M1674 2188 L806 2188" />
    <path d="M806 2188 L806 1320" />
    <path d="M818.4 1332.4 L1661.6 1332.4" />
    <path d="M1661.6 1332.4 L1661.6 2175.6000000000004" />
    <path d="M1661.6 2175.6000000000004 L818.4 2175.6000000000004" />
    <path d="M818.4 2175.6000000000004 L818.4 1332.4" />
    <path d="M830.8000000000001 1344.8000000000002 L1649.1999999999998 1344.8000000000002" />
    <path d="M1649.1999999999998 1344.8000000000002 L1649.1999999999998 2163.2" />
    <path d="M1649.1999999999998 2163.2 L830.8000000000001 2163.2" />
    <path d="M830.8000000000001 2163.2 L830.8000000000001 1344.8000000000002" />
    <path d="M843.2 1357.2 L1636.8 1357.2" />
    <path d="M1636.8 1357.2 L1636.8 2150.8" />
    <path d="M1636.8 2150.8 L843.2 2150.8" />
    <path d="M843.2 2150.8 L843.2 1357.2" />
    <path d="M855.6 1369.6 L1624.4 1369.6" />
    <path d="M1624.4 1369.6 L1624.4 2138.3999999999996" />
    <path d="M1624.4 2138.3999999999996 L855.6 2138.3999999999996" />
    <path d="M855.6 2138.3999999999996 L855.6 1369.6" />
    <path d="M868 1382 L1612 1382" />
    <path d="M1612 1382 L1612 2126" />
    <path d="M1612 2126 L868 2126" />
    <path d="M868 2126 L868 1382" />
    <path d="M880.4 1394.4 L1599.6 1394.4" />
    <path d="M1599.6 1394.4 L1599.6 2113.6000000000004" />
    <path d="M1599.6 2113.6000000000004 L880.4 2113.6000000000004" />
    <path d="M880.4 2113.6000000000004 L880.4 1394.4" />
    <path d="M892.8000000000001 1406.8000000000002 L1587.1999999999998 1406.8000000000002" />
    <path d="M1587.1999999999998 1406.8000000000002 L1587.1999999999998 2101.2" />
    <path d="M1587.1999999999998 2101.2 L892.8000000000001 2101.2" />
    <path d="M892.8000000000001 2101.2 L892.8000000000001 1406.8000000000002" />
    <path d="M905.2 1419.2 L1574.8 1419.2" />
    <path d="M1574.8 1419.2 L1574.8 2088.8" />
    <path d="M1574.8 2088.8 L905.2 2088.8" />
    <path d="M905.2 2088.8 L905.2 1419.2" />
    <path d="M917.6 1431.6 L1562.4 1431.6" />
    <path d="M1562.4 1431.6 L1562.4 2076.3999999999996" />
    <path d="M1562.4 2076.3999999999996 L917.6 2076.3999999999996" />
    <path d="M917.6 2076.3999999999996 L917.6 1431.6" />
    <path d="M930 1444 L1550 1444" />
    <path d="M1550 1444 L1550 2064" />
    <path d="M1550 2064 L930 2064" />
    <path d="M930 2064 L930 1444" />
    <path d="M942.4 1456.4 L1537.6 1456.4" />
    <path d="M1537.6 1456.4 L1537.6 2051.6000000000004" />
    <path d="M1537.6 2051.6000000000004 L942.4 2051.6000000000004" />
    <path d="M942.4 2051.6000000000004 L942.4 1456.4" />
    <path d="M954.8000000000001 1468.8000000000002 L1525.1999999999998 1468.8000000000002" />
    <path d="M1525.1999999999998 1468.8000000000002 L1525.1999999999998 2039.2" />
    <path d="M1525.1999999999998 2039.2 L954.8000000000001 2039.2" />
    <path d="M954.8000000000001 2039.2 L954.8000000000001 1468.8000000000002" />
    <path d="M967.2 1481.2 L1512.8 1481.2" />
    <path d="M1512.8 1481.2 L1512.8 2026.8" />
    <path d="M1512.8 2026.8 L967.2 2026.8" />
    <path d="M967.2 2026.8 L967.2 1481.2" />
    <path d="M979.6 1493.6 L1500.4 1493.6" />
    <path d="M1500.4 1493.6 L1500.4 2014.3999999999999" />
    <path d="M1500.4 2014.3999999999999 L979.6 2014.3999999999999" />
    <path d="M979.6 2014.3999999999999 L979.6 1493.6" />
    <path d="M992 1506 L1488 1506" />
    <path d="M1488 1506 L1488 2002" />
    <path d="M1488 2002 L992 2002" />
    <path d="M992 2002 L992 1506" />
    <path d="M1004.4 1518.4 L1475.6 1518.4" />
    <path d="M1475.6 1518.4 L1475.6 1989.6000000000001" />
    <path d="M1475.6 1989.6000000000001 L1004.4 1989.6000000000001" />
    <path d="M1004.4 1989.6000000000001 L1004.4 1518.4" />
    <path d="M1016.8000000000001 1530.8000000000002 L1463.1999999999998 1530.8000000000002" />
    <path d="M1463.1999999999998 1530.8000000000002 L1463.1999999999998 1977.2" />
    <path d="M1463.1999999999998 1977.2 L1016.8000000000001 1977.2" />
    <path d="M1016.8000000000001 1977.2 L1016.8000000000001 1530.8000000000002" />
    <path d="M1029.2 1543.2 L1450.8 1543.2" />
    <path d="M1450.8 1543.2 L1450.8 1964.8" />
    <path d="M1450.8 1964.8 L1029.2 1964.8" />
    <path d="M1029.2 1964.8 L1029.2 1543.2" />
    <path d="M1041.6000000000001 1555.6000000000001 L1438.3999999999999 1555.6000000000001" />
    <path d="M1438.3999999999999 1555.6000000000001 L1438.3999999999999 1952.3999999999999" />
    <path d="M1438.3999999999999 1952.3999999999999 L1041.6000000000001 1952.3999999999999" />
    <path d="M1041.6000000000001 1952.3999999999999 L1041.6000000000001 1555.6000000000001" />
    <path d="M1054 1568 L1426 1568" />
    <path d="M1426 1568 L1426 1940" />
    <path d="M1426 1940 L1054 1940" />
    <path d="M1054 1940 L1054 1568" />
    <path d="M1066.4 1580.4 L1413.6 1580.4" />
    <path d="M1413.6 1580.4 L1413.6 1927.6" />
    <path d="M1413.6 1927.6 L1066.4 1927.6" />
    <path d="M1066.4 1927.6 L1066.4 1580.4" />
    <path d="M1078.8 1592.8 L1401.2 1592.8" />
    <path d="M1401.2 1592.8 L1401.2 1915.2" />
    <path d="M1401.2 1915.2 L1078.8 1915.2" />
    <path d="M1078.8 1915.2 L1078.8 1592.8" />
    <path d="M1091.2 1605.2 L1388.8 1605.2" />
    <path d="M1388.8 1605.2 L1388.8 1902.8" />
    <path d="M1388.8 1902.8 L1091.2 1902.8" />
    <path d="M1091.2 1902.8 L1091.2 1605.2" />
    <path d="M1103.6000000000001 1617.6000000000001 L1376.3999999999999 1617.6000000000001" />
    <path d="M1376.3999999999999 1617.6000000000001 L1376.3999999999999 1890.3999999999999" />
    <path d="M1376.3999999999999 1890.3999999999999 L1103.6000000000001 1890.3999999999999" />
    <path d="M1103.6000000000001 1890.3999999999999 L1103.6000000000001 1617.6000000000001" />
    <path d="M1116 1630 L1364 1630" />
    <path d="M1364 1630 L1364 1878" />
    <path d="M1364 1878 L1116 1878" />
    <path d="M1116 1878 L1116 1630" />
    <path d="M1128.4 1642.4 L1351.6 1642.4" />
    <path d="M1351.6 1642.4 L1351.6 1865.6" />
    <path d="M1351.6 1865.6 L1128.4 1865.6" />
    <path d="M1128.4 1865.6 L1128.4 1642.4" />
    <path d="M1140.8 1654.8 L1339.2 1654.8" />
    <path d="M1339.2 1654.8 L1339.2 1853.2" />
    <path d="M1339.2 1853.2 L1140.8 1853.2" />
    <path d="M1140.8 1853.2 L1140.8 1654.8" />
    <path d="M1153.2 1667.2 L1326.8 1667.2" />
    <path d="M1326.8 1667.2 L1326.8 1840.8" />
    <path d="M1326.8 1840.8 L1153.2 1840.8" />
    <path d="M1153.2 1840.8 L1153.2 1667.2" />
    <path d="M1165.6000000000001 1679.6000000000001 L1314.3999999999999 1679.6000000000001" />
    <path d="M1314.3999999999999 1679.6000000000001 L1314.3999999999999 1828.3999999999999" />
    <path d="M1314.3999999999999 1828.3999999999999 L1165.6000000000001 1828.3999999999999" />
    <path d="M1165.6000000000001 1828.3999999999999 L1165.6000000000001 1679.6000000000001" />
    <path d="M1178 1692 L1302 1692" />
    <path d="M1302 1692 L1302 1816" />
    <path d="M1302 1816 L1178 1816" />
    <path d="M1178 1816 L1178 1692" />
    <path d="M1190.4 1704.4 L1289.6 1704.4" />
    <path d="M1289.6 1704.4 L1289.6 1803.6" />
    <path d="M1289.6 1803.6 L1190.4 1803.6" />
    <path d="M1190.4 1803.6 L1190.4 1704.4" />
    <path d="M1202.8 1716.8 L1277.2 1716.8" />
    <path d="M1277.2 1716.8 L1277.2 1791.2" />
    <path d="M1277.2 1791.2 L1202.8 1791.2" />
    <path d="M1202.8 1791.2 L1202.8 1716.8" />
    <path d="M1215.2 1729.2 L1264.8 1729.2" />
    <path d="M1264.8 1729.2 L1264.8 1778.8" />
    <path d="M1264.8 1778.8 L1215.2 1778.8" />
    <path d="M1215.2 1778.8 L1215.2 1729.2" />
    <path d="M1227.6000000000001 1741.6000000000001 L1252.3999999999999 1741.6000000000001" />
    <path d="M1252.3999999999999 1741.6000000000001 L1252.3999999999999 1766.3999999999999" />
    <path d="M1252.3999999999999 1766.3999999999999 L1227.6000000000001 1766.3999999999999" />
    <path d="M1227.6000000000001 1766.3999999999999 L1227.6000000000001 1741.6000000000001" />
  </g>
</svg>