<?xml version="1.0" standalone="no"?>
<!DOCTYPE svg PUBLIC "-//W3C//DTD SVG 1.1//EN" 
    "http://www.w3.org/Graphics/SVG/1.1/DTD/svg11.dtd">
<svg width="21cm" height="29.7cm"
    xmlns="http://www.w3.org/2000/svg" version="1.1" viewBox="0 0 744.09449 1052.3622">
  <g fill="none" stroke="black" stroke-width="0.03cm">
    <path d="M381.76228 880.3786 L376.23227 880.48876 L365.24033 880.46 L354.34254 880.10341 L343.54294 879.4241 L332.84557 878.42715 L322.25447 877.11768 L311.77368 875.50078 L301.40725 873.58156 L291.15921 871.36511 L281.03361 868.85655 L271.03449 866.06097 L261.16589 862.98347 L251.43185 859.62916 L241.83642 856.00314 L232.38363 852.11051 L223.07753 847.95637 L213.92215 843.54582 L204.92155 838.88397 L196.07975 833.97592 L187.40081 828.82676 L178.88876 823.44161 L170.54765 817.82555 L162.38151 811.98371 L154.3944 805.92116 L146.59034 799.64303 L138.97338 793.15441 L131.54757 786.4604 L124.31694 779.5661 L117.28554 772.47662 L110.4574 765.19705 L103.83657 757.73251 L97.4271 750.08808 L91.23301 742.26888 L85.25836 734.28 L79.50718 726.12655 L73.98352 717.81363 L68.69142 709.34633 L63.63491 700.72977 L58.81805 691.96905 L54.24487 683.06926 L49.91941 674.0355 L45.84572 664.87289 L42.02783 655.58652 L38.4698 646.18149 L35.17565 636.6629 L32.14943 627.03587 L29.39519 617.30548 L26.91696 607.47684 L24.71879 597.55505 L22.80471 587.54522 L21.17877 577.45244 L19.84501 567.28183 L18.80747 557.03847 L18.0702 546.72747 L17.63723 536.35394 L17.51261 525.92297 L17.70037 515.43966 L18.20457 504.90913 L19.02923 494.33647 L20.17841 483.72678 L21.65614 473.08516 L23.46646 462.41672 L25.61342 451.72656 L28.10106 441.01978 L29.4739 435.66175" />
    <path d="M85.60497 666.34717 L82.97632 660.84261 L78.04681 649.71062 L73.55596 638.42558 L69.50577 627.00047 L65.8982 615.44824 L62.73522 603.78186 L60.01882 592.01429 L57.75097 580.1585 L55.93364 568.22746 L54.5688 556.23413 L53.65844 544.19147 L53.20453 532.11244 L53.20903 520.01002 L53.67393 507.89717 L54.6012 495.78685 L55.99282 483.69202 L56.86338 477.65447" />
    <path d="M642.47117 611.16969 L640.90117 616.02143 L637.5442 625.56054 L633.90403 634.8791 L629.98798 643.97549 L625.80335 652.84809 L621.35745 661.49526 L616.65761 669.91537 L611.71113 678.10681 L606.52533 686.06793 L601.10751 693.79711 L595.465 701.29273 L589.6051 708.55315 L583.53512 715.57675 L577.26239 722.3619 L570.7942 728.90696 L564.13788 735.21032 L557.30074 741.27034 L550.29008 747.0854 L543.11323 752.65386 L535.77749 757.9741 L528.29018 763.04449 L520.65861 767.86341 L512.89009 772.42921 L504.99193 776.74029 L496.97145 780.79499 L488.83596 784.59171 L480.59277 788.12881 L472.2492 791.40466 L463.81256 794.41764 L455.29015 797.1661 L446.6893 799.64844 L438.01732 801.86302 L429.28151 803.8082 L420.48919 805.48237 L411.64768 806.8839 L402.76428 808.01115 L393.84631 808.86249 L384.90108 809.43631 L375.93591 809.73097 L366.9581 809.74484 L357.97497 809.47629 L348.99383 808.9237 L340.02199 808.08544 L331.06677 806.95988 L322.13548 805.54539 L313.23544 803.84034 L304.37394 801.84311 L295.55832 799.55206 L286.79587 796.96558 L278.09391 794.08202 L269.45976 790.89976 L260.90073 787.41718 L252.42413 783.63264 L244.03727 779.54452 L235.74746 775.15119 L227.56202 770.45102 L219.48827 765.44238 L211.5335 760.12364 L203.70504 754.49318 L196.0102 748.54936 L188.45629 742.29057 L181.05062 735.71516 L173.80051 728.82152 L166.71327 721.60801 L163.23301 717.8808 L163.23301 717.8808 L159.81627 714.09527 L153.23365 706.4185 L146.98362 698.60674 L141.06394 690.66714 L135.47237 682.60684 L130.20664 674.433 L125.26453 666.15276 L120.64378 657.77327 L116.34215 649.30167 L112.35739 640.74511 L108.68725 632.11074 L105.32949 623.40571 L102.28186 614.63716 L99.54212 605.81223 L97.10802 596.93809 L94.97731 588.02187 L93.14775 579.07072 L91.61709 570.09178 L90.38309 561.09221 L89.44349 552.07916 L88.79606 543.05976 L88.43855 534.04116 L88.3687 525.03053 L88.58428 516.03499 L89.08304 507.06169 L89.86273 498.11779 L90.92111 489.21043 L92.25593 480.34676 L93.86494 471.53393 L95.74589 462.77908 L97.89655 454.08935 L100.31467 445.4719 L102.99799 436.93388 L105.94427 428.48242 L109.15128 420.12469 L112.61675 411.86781 L116.33844 403.71895 L120.31412 395.68525 L124.54153 387.77385 L129.01842 379.9919 L133.74255 372.34656 L138.71168 364.84496 L143.92355 357.49425 L149.37592 350.30159 L155.06655 343.27411 L160.99319 336.41896 L167.15359 329.7433 L173.54551 323.25427 L180.1667 316.95901 L187.01491 310.86467 L194.0879 304.97841 L201.38342 299.30736 L208.89923 293.85868 L216.63308 288.6395 L224.58272 283.65699 L232.7459 278.91827 L241.12039 274.43051 L249.70394 270.20085 L258.49429 266.23644 L267.4892 262.54442 L276.68643 259.13194 L286.08373 256.00614 L295.67886 253.17418 L305.46956 250.64321 L310.43755 249.49282" />
    <path d="M589.46567 645.54966 L587.51809 649.0331 L583.49018 655.86158 L579.28938 662.50502 L574.92056 668.96284 L570.38864 675.23449 L565.69851 681.31939 L560.85506 687.21698 L555.86319 692.92667 L550.7278 698.44791 L545.45378 703.78012 L540.04604 708.92273 L534.50946 713.87518 L528.84895 718.63689 L523.0694 723.20729 L517.17571 727.58582 L511.17277 731.7719 L505.06549 735.76497 L498.85876 739.56445 L492.55747 743.16977 L486.16652 746.58038 L479.69082 749.79568 L473.13525 752.81513 L466.50471 755.63814 L459.8041 758.26414 L453.03832 760.69258 L446.21227 762.92287 L439.33083 764.95444 L432.39891 766.78674 L425.4214 768.41918 L418.40321 769.8512 L411.34922 771.08223 L404.26434 772.1117 L397.15345 772.93904 L390.02147 773.56367 L382.87328 773.98504 L375.71378 774.20256 L368.54787 774.21568 L361.38044 774.02381 L354.21639 773.6264 L347.06063 773.02287 L339.91804 772.21264 L332.79352 771.19516 L325.69197 769.96985 L318.61828 768.53614 L311.57736 766.89347 L304.5741 765.04126 L297.61339 762.97894 L290.70014 760.70594 L283.83923 758.22169 L277.03557 755.52563 L270.29406 752.61718 L263.61958 749.49578 L257.01704 746.16085 L250.49134 742.61183 L244.04736 738.84814 L237.69002 734.86921 L231.42419 730.67448 L225.25479 726.26338 L219.1867 721.63533 L213.22483 716.78977 L207.37407 711.72613 L201.63932 706.44383 L196.02547 700.94231 L190.53743 695.22099 L187.84211 692.27773" />
    <path d="M552.6621 638.3255 L550.09665 642.35672 L544.73407 650.19475 L539.07277 657.73013 L533.12498 664.95877 L526.90294 671.87657 L520.41888 678.47943 L513.68503 684.76324 L506.71363 690.72391 L499.51691 696.35735 L492.1071 701.65944 L484.49645 706.6261 L476.69718 711.25321 L468.72152 715.53669 L460.58172 719.47243 L452.29001 723.05634 L443.85861 726.28431 L435.29977 729.15224 L426.62572 731.65604 L417.84869 733.79161 L408.98091 735.55484 L400.03463 736.94163 L391.02207 737.9479 L381.95546 738.56953 L372.84705 738.80243 L363.70907 738.6425 L354.55374 738.08564 L345.39331 737.12775 L336.24001 735.76473 L327.10607 733.99248 L318.00372 731.80691 L308.94521 729.2039 L299.94276 726.17937 L295.46638 724.50776" />
    <path d="M255.59157 659.69379 L252.10142 656.5691 L245.42774 650.11059 L239.16357 643.38721 L233.30978 636.41575 L227.86721 629.21301 L222.83673 621.79575 L218.21917 614.18078 L214.01541 606.38487 L210.22629 598.42481 L206.85267 590.31739 L203.89541 582.07939 L201.35534 573.7276 L199.23334 565.2788 L197.53026 556.74977 L196.24694 548.15731 L195.38425 539.5182 L194.94304 530.84922 L194.92416 522.16717 L195.32846 513.48881 L196.15681 504.83095 L197.41005 496.21036 L199.08904 487.64384 L201.19464 479.14816 L203.7277 470.74011 L206.68906 462.43649 L210.0796 454.25406 L213.90015 446.20962 L218.15158 438.31996 L222.83474 430.60186 L227.95049 423.0721 L233.49967 415.74748 L239.48315 408.64476 L242.63801 405.18187" />
    <path d="M259.07922 440.58749 L262.21805 436.58716 L268.78595 429.04139 L275.71608 422.09905 L282.9787 415.7564 L290.54407 410.00971 L298.38247 404.85525 L306.46415 400.28929 L314.75939 396.30811 L323.23846 392.90797 L331.8716 390.08514 L340.62911 387.8359 L349.48123 386.1565 L358.39824 385.04323 L367.3504 384.49234 L376.30798 384.50012 L385.24125 385.06283 L394.12047 386.17674 L402.91591 387.83812 L411.59783 390.04325 L420.1365 392.78838 L428.50219 396.06979 L436.66516 399.88375 L444.59569 404.22654 L452.26403 409.09441 L459.64045 414.48364 L466.69522 420.39051 L473.3986 426.81127 L479.72087 433.7422 L485.63229 441.17957 L491.10311 449.11965 L496.10362 457.55871 L500.60408 466.49302 L502.6575 471.14473 L502.6575 471.14473 L504.54609 475.84666 L507.78786 485.27499 L510.33062 494.71615 L512.19222 504.14643 L513.39055 513.5421 L513.94346 522.87941 L513.86882 532.13465 L513.1845 541.28408 L511.90836 550.30397 L510.05826 559.1706 L507.65208 567.86024 L504.70768 576.34914 L501.24291 584.6136 L497.27566 592.62987 L492.82378 600.37422 L487.90514 607.82293 L482.53761 614.95227 L476.73905 621.73851 L470.52732 628.15791 L463.9203 634.18675 L456.93584 639.8013 L449.59182 644.97782 L441.9061 649.6926 L433.89654 653.92189 L425.58101 657.64198 L416.97738 660.82912 L408.1035 663.45959 L398.97726 665.50967 L389.61651 666.95561 L380.03911 667.7737 L370.26294 667.9402 L360.30586 667.43138 L355.26506 666.91631" />
    <path d="M368.75744 632.4294 L364.94823 632.24694 L357.48196 631.50702 L350.2274 630.28358 L343.1952 628.59642 L336.39599 626.46534 L329.84038 623.91014 L323.53902 620.95063 L317.50252 617.60662 L311.74153 613.89789 L306.26667 609.84426 L301.08857 605.46553 L296.21786 600.78149 L291.66516 595.81196 L287.44112 590.57673 L283.55636 585.09561 L280.02151 579.3884 L276.8472 573.4749 L274.04405 567.37491 L271.62271 561.10824 L269.59379 554.69469 L267.96793 548.15406 L266.75576 541.50616 L265.96791 534.77078 L265.615 527.96773 L265.70767 521.11681 L266.25655 514.23782 L267.27227 507.35057 L268.76545 500.47486 L270.74673 493.63049 L273.22673 486.83727 L276.21609 480.11498 L279.72544 473.48345 L281.67842 470.2079 L281.67842 470.2079 L283.74104 467.00025 L288.11496 460.90423 L292.80177 455.23333 L297.779 449.98684 L303.02418 445.16409 L308.51485 440.76437 L314.22854 436.78698 L320.14279 433.23123 L326.23513 430.09643 L332.48311 427.38187 L338.86426 425.08687 L345.35611 423.21073 L351.93619 421.75275 L358.58205 420.71224 L365.27123 420.0885 L371.98124 419.88083 L378.68964 420.08855 L385.37395 420.71094 L392.01172 421.74733 L398.58048 423.19701 L405.05776 425.05929 L411.4211 427.33348 L417.64803 430.01886 L423.7161 433.11476 L429.60284 436.62048 L435.28577 440.53531 L440.74245 444.85857 L445.9504 449.58956 L450.88716 454.72759 L455.53026 460.27195 L459.85725 466.22195 L463.84565 472.5769 L465.70587 475.90601" />
    <path d="M410.08386 585.9743 L407.91596 587.30243 L403.52337 589.69494 L399.06611 591.74155 L394.55749 593.44918 L390.01077 594.82476 L385.43926 595.87522 L380.85622 596.60748 L376.27496 597.02847 L371.70875 597.14512 L367.17089 596.96436 L362.67465 596.49311 L358.23332 595.7383 L353.86019 594.70686 L349.56855 593.40572 L345.37168 591.8418 L341.28286 590.02204 L337.31539 587.95335 L333.48254 585.64266 L329.79761 583.09691 L326.27387 580.32302 L322.92462 577.32792 L319.76315 574.11853 L316.80273 570.70179 L314.05665 567.08461 L311.5382 563.27393 L309.26066 559.27668 L307.23732 555.09978 L305.48147 550.75016 L304.0064 546.23474 L302.82538 541.56046 L301.9517 536.73424 L301.39865 531.76301 L301.24651 529.22518 L301.24651 529.22518 L301.18734 527.18274 L301.2402 523.13921 L301.51615 519.15563 L302.00894 515.23777 L302.71236 511.39138 L303.62017 507.62224 L304.72615 503.93609 L306.02406 500.3387 L307.50768 496.83585 L309.17076 493.43328 L311.0071 490.13676 L313.01045 486.95206 L315.17458 483.88493 L317.49327 480.94115 L319.96028 478.12647 L322.56939 475.44665 L325.31436 472.90746 L328.18897 470.51467 L331.18699 468.27403 L334.30218 466.1913 L337.52832 464.27225 L340.85918 462.52265 L344.28853 460.94825 L347.81013 459.55481 L351.41776 458.34811 L355.10519 457.3339 L358.86618 456.51795 L362.69452 455.90601 L366.58396 455.50386 L370.52828 455.31725 L374.52125 455.35194 L378.55664 455.61371 L380.5883 455.83154" />
    <path d="M363.99593 560.68732 L362.70269 560.35993 L360.17786 559.56794 L357.74122 558.59939 L355.39996 557.46191 L353.16126 556.16314 L351.03232 554.71072 L349.02033 553.11231 L347.13246 551.37553 L345.37591 549.50803 L343.75787 547.51746 L342.28552 545.41145 L340.96606 543.19765 L339.80667 540.8837 L338.81454 538.47724 L337.99685 535.98592 L337.3608 533.41737 L337.11314 532.10652" />
  </g>
</svg>