<?xml version="1.0" standalone="no"?>
<!DOCTYPE svg PUBLIC "-//W3C//DTD SVG 1.1//EN" 
    "http://www.w3.org/Graphics/SVG/1.1/DTD/svg11.dtd">
<svg width="21cm" height="29.7cm"
    xmlns="http://www.w3.org/2000/svg" version="1.1" viewBox="0 0 744.09449 1052.3622">
  <g fill="none" stroke="black" stroke-width="0.03cm">
    <path d="M0 0 L744.09449 0" />
    <path d="M0 0 L744.09449 11.68917" />
    <path d="M0 0 L744.09449 23.38411" />
    <path d="M0 0 L744.09449 35.09061" />
    <path d="M0 0 L744.09449 46.81446" />
    <path d="M0 0 L744.09449 58.56151" />
    <path d="M0 0 L744.09449 70.33764" />
    <path d="M0 0 L744.09449 82.1488" />
    <path d="M0 0 L744.09449 94.00099" />
    <path d="M0 0 L744.09449 105.90033" />
    <path d="M0 0 L744.09449 117.85299" />
    <path d="M0 0 L744.09449 129.86528" />
    <path d="M0 0 L744.09449 141.94362" />
    <path d="M0 0 L744.09449 154.09456" />
    <path d="M0 0 L744.09449 166.32482" />
    <path d="M0 0 L744.09449 178.64128" />
    <path d="M0 0 L744.09449 191.05099" />
    <path d="M0 0 L744.09449 203.56122" />
    <path d="M0 0 L744.09449 216.17943" />
    <path d="M0 0 L744.09449 228.91335" />
    <path d="M0 0 L744.09449 241.77096" />
    <path d="M0 0 L744.09449 254.76049" />
    <path d="M0 0 L744.09449 267.8905" />
    <path d="M0 0 L744.09449 281.16988" />
    <path d="M0 0 L744.09449 294.60785" />
    <path d="M0 0 L744.09449 308.21403" />
    <path d="M0 0 L744.09449 321.99844" />
    <path d="M0 0 L744.09449 335.97154" />
    <path d="M0 0 L744.09449 350.14429" />
    <path d="M0 0 L744.09449 364.52813" />
    <path d="M0 0 L744.09449 379.13508" />
    <path d="M0 0 L744.09449 393.97775" />
    <path d="M0 0 L744.09449 409.06941" />
    <path d="M0 0 L744.09449 424.424" />
    <path d="M0 0 L744.09449 440.05625" />
    <path d="M0 0 L744.09449 455.98169" />
    <path d="M0 0 L744.09449 472.21672" />
    <path d="M0 0 L744.09449 488.77872" />
    <path d="M0 0 L744.09449 505.68609" />
    <path d="M0 0 L744.09449 522.95837" />
    <path d="M0 0 L744.09449 540.61629" />
    <path d="M0 0 L744.09449 558.68194" />
    <path d="M0 0 L744.09449 577.17885" />
    <path d="M0 0 L744.09449 596.1321" />
    <path d="M0 0 L744.09449 615.5685" />
    <path d="M0 0 L744.09449 635.51673" />
    <path d="M0 0 L744.09449 656.00754" />
    <path d="M0 0 L744.09449 677.07389" />
    <path d="M0 0 L744.09449 698.75123" />
    <path d="M0 0 L744.09449 721.07772" />
    <path d="M0 0 L744.09449 744.09449" />
    <path d="M0 0 L744.09449 767.84595" />
    <path d="M0 0 L744.09449 792.38015" />
    <path d="M0 0 L744.09449 817.74917" />
    <path d="M0 0 L744.09449 844.00952" />
    <path d="M0 0 L744.09449 871.22271" />
    <path d="M0 0 L744.09449 899.45573" />
    <path d="M0 0 L744.09449 928.78174" />
    <path d="M0 0 L744.09449 959.28083" />
    <path d="M0 0 L744.09449 991.04081" />
    <path d="M0 0 L744.09449 1024.1582" />
    <path d="M0 0 L739.61255 1052.3622" />
    <path d="M0 0 L715.18462 1052.3622" />
    <path d="M0 0 L691.27276 1052.3622" />
    <path d="M0 0 L667.84936 1052.3622" />
    <path d="M0 0 L644.88839 1052.3622" />
    <path d="M0 0 L622.36527 1052.3622" />
    <path d="M0 0 L600.2568 1052.3622" />
    <path d="M0 0 L578.54102 1052.3622" />
    <path d="M0 0 L557.19711 1052.3622" />
    <path d="M0 0 L536.20533 1052.3622" />
    <path d="M0 0 L515.54692 1052.3622" />
    <path d="M0 0 L495.20406 1052.3622" />
    <path d="M0 0 L475.15976 1052.3622" />
    <path d="M0 0 L455.39779 1052.3622" />
    <path d="M0 0 L435.9027 1052.3622" />
    <path d="M0 0 L416.65967 1052.3622" />
    <path d="M0 0 L397.65454 1052.3622" />
    <path d="M0 0 L378.87371 1052.3622" />
    <path d="M0 0 L360.30412 1052.3622" />
    <path d="M0 0 L341.93321 1052.3622" />
    <path d="M0 0 L323.74889 1052.3622" />
    <path d="M0 0 L305.73948 1052.3622" />
    <path d="M0 0 L287.89372 1052.3622" />
    <path d="M0 0 L270.20069 1052.3622" />
    <path d="M0 0 L252.64981 1052.3622" />
    <path d="M0 0 L235.23082 1052.3622" />
    <path d="M0 0 L217.93374 1052.3622" />
    <path d="M0 0 L200.74883 1052.3622" />
    <path d="M0 0 L183.66661 1052.3622" />
    <path d="M0 0 L166.6778 1052.3622" />
    <path d="M0 0 L149.77332 1052.3622" />
    <path d="M0 0 L132.94426 1052.3622" />
    <path d="M0 0 L116.18187 1052.3622" />
    <path d="M0 0 L99.47752 1052.3622" />
    <path d="M0 0 L82.8227 1052.3622" />
    <path d="M0 0 L66.20902 1052.3622" />
    <path d="M0 0 L49.62814 1052.3622" />
    <path d="M0 0 L33.07181 1052.3622" />
    <path d="M0 0 L16.53183 1052.3622" />
  </g>
</svg>