<?xml version="1.0" standalone="no"?>
<!DOCTYPE svg PUBLIC "-//W3C//DTD SVG 1.1//EN" 
    "http://www.w3.org/Graphics/SVG/1.1/DTD/svg11.dtd">
<svg width="2480px" height="3508px"
    xmlns="http://www.w3.org/2000/svg" version="1.1" viewBox="0 0 2480 3508">
  <g fill="none" stroke="black" stroke-width="1.06299px">
    <path d="M206.66666666666663 1134 L1446.6666666666665 1134" />
    <path d="M1446.6666666666665 1134 L1446.6666666666665 2374" />
    <path d="M1446.6666666666665 2374 L206.66666666666663 2374" />
    <path d="M206.66666666666663 2374 L206.66666666666663 1134" />
    <path d="M410.07460660870765 989.4570701328964 L1634.8081489466786 1183.4358067827827" />
    <path d="M1634.8081489466786 1183.4358067827827 L1440.8294122967923 2408.1693491207534" />
    <path d="M1440.8294122967923 2408.1693491207534 L216.09586995882148 2214.190612470867" />
    <path d="M216.09586995882148 2214.190612470867 L410.07460660870765 989.4570701328964" />
    <path d="M633.5897531830458 878.5137158574664 L1812.899833389036 1261.694788882401" />
    <path d="M1812.899833389036 1261.694788882401 L1429.7187603641014 2441.0048690883914" />
    <path d="M1429.7187603641014 2441.0048690883914 L250.4086801581111 2057.823796063457" />
    <path d="M250.4086801581111 2057.823796063457 L633.5897531830458 878.5137158574664" />
    <path d="M871.7084216767784 803.9017307558536 L1976.5565116703544 1366.8499504328915" />
    <path d="M1976.5565116703544 1366.8499504328915 L1413.6082919933165 2471.6980404264677" />
    <path d="M1413.6082919933165 2471.6980404264677 L308.7602019997404 1908.7498207494298" />
    <path d="M308.7602019997404 1908.7498207494298 L871.7084216767784 803.9017307558536" />
    <path d="M1118.5673402010375 767.4583095242415 L2121.7484132259724 1496.3120223669082" />
    <path d="M2121.7484132259724 1496.3120223669082 L1392.8947003833055 2499.493095391843" />
    <path d="M1392.8947003833055 2499.493095391843 L389.7136273583707 1770.6393825491764" />
    <path d="M389.7136273583707 1770.6393825491764 L1118.5673402010375 767.4583095242415" />
    <path d="M1368.088022903976 770.0808101421337 L2244.900431575295 1646.8932188134524" />
    <path d="M2244.900431575295 1646.8932188134524 L1368.088022903976 2523.7056274847714" />
    <path d="M1368.088022903976 2523.7056274847714 L491.2756142326572 1646.8932188134527" />
    <path d="M491.2756142326572 1646.8932188134527 L1368.088022903976 770.0808101421337" />
    <path d="M1614.1264424657797 811.7046579407365 L2342.9801553084462 1814.885730965671" />
    <path d="M2342.9801553084462 1814.885730965671 L1339.7990822835118 2543.739443808338" />
    <path d="M1339.7990822835118 2543.739443808338 L610.945369440845 1540.5583707834032" />
    <path d="M610.945369440845 1540.5583707834032 L1614.1264424657797 811.7046579407365" />
    <path d="M1850.6243164421376 891.3049356456177 L2413.5725361191753 1996.1530256391939" />
    <path d="M2413.5725361191753 1996.1530256391939 L1308.7244461255996 2559.101245316232" />
    <path d="M1308.7244461255996 2559.101245316232 L745.7762264485615 1454.2531553226559" />
    <path d="M745.7762264485615 1454.2531553226559 L1850.6243164421376 891.3049356456177" />
    <path d="M2071.7582822843074 1006.9216202415078 L2454.9393553092423 2186.231700447498" />
    <path d="M2454.9393553092423 2186.231700447498 L1275.629275103252 2569.4127734724325" />
    <path d="M1275.629275103252 2569.4127734724325 L892.4482020783171 1390.1026932664424" />
    <path d="M892.4482020783171 1390.1026932664424 L2071.7582822843074 1006.9216202415078" />
    <path d="M2272.0832878516994 1155.7078452438777 L2466.0620245015853 2380.4413875818486" />
    <path d="M2466.0620245015853 2380.4413875818486 L1241.3284821636146 2574.420124231735" />
    <path d="M1241.3284821636146 2574.420124231735 L1047.3497455137283 1349.686581893764" />
    <path d="M1047.3497455137283 1349.686581893764 L2272.0832878516994 1155.7078452438777" />
  </g>
</svg>