<?xml version="1.0" standalone="no"?>
<!DOCTYPE svg PUBLIC "-//W3C//DTD SVG 1.1//EN" 
    "http://www.w3.org/Graphics/SVG/1.1/DTD/svg11.dtd">
<svg width="8.5in" height="11in"
    xmlns="http://www.w3.org/2000/svg" version="1.1" viewBox="0 0 765 990">
  <g fill="none" stroke="black" stroke-width="0.01181in">
    <path d="M45 45 L45 75.91847" />
    <path d="M45 84.91847 L45 93.06133" />
    <path d="M45 102.06133 L45 119.20194" />
    <path d="M45 128.20194 L45 136.48585" />
    <path d="M45 145.48585 L45 175.95887" />
    <path d="M45 184.95887 L45 191.10802" />
    <path d="M45 200.10802 L45 232.43787" />
    <path d="M45 241.43787 L45 253.66585" />
    <path d="M45 262.66585 L45 269.26867" />
    <path d="M45 278.26867 L45 279.00299" />
    <path d="M45 288.00299 L45 331.02638" />
    <path d="M45 340.02638 L45 357.15265" />
    <path d="M45 366.15265 L45 395.94527" />
    <path d="M45 404.94527 L45 431.80908" />
    <path d="M45 440.80908 L45 462.42205" />
    <path d="M45 471.42205 L45 502.53469" />
    <path d="M51.75 45 L51.75 80.83004" />
    <path d="M51.75 89.83004 L51.75 108.72743" />
    <path d="M51.75 117.72743 L51.75 154.49028" />
    <path d="M51.75 163.49028 L51.75 197.38958" />
    <path d="M51.75 206.38958 L51.75 219.64236" />
    <path d="M51.75 228.64236 L51.75 272.19925" />
    <path d="M51.75 281.19925 L51.75 322.57986" />
    <path d="M51.75 331.57986 L51.75 375.46502" />
    <path d="M51.75 384.46502 L51.75 390.99322" />
    <path d="M51.75 399.99322 L51.75 413.9506" />
    <path d="M51.75 422.9506 L51.75 463.01019" />
    <path d="M51.75 472.01019 L51.75 497.86339" />
    <path d="M58.5 45 L58.5 82.02588" />
    <path d="M58.5 91.02588 L58.5 105.48484" />
    <path d="M58.5 114.48484 L58.5 159.38547" />
    <path d="M58.5 168.38547 L58.5 177.94537" />
    <path d="M58.5 186.94537 L58.5 216.40168" />
    <path d="M58.5 225.40168 L58.5 225.52146" />
    <path d="M58.5 234.52146 L58.5 262.24694" />
    <path d="M58.5 271.24694 L58.5 295.57885" />
    <path d="M58.5 304.57885 L58.5 328.09725" />
    <path d="M58.5 337.09725 L58.5 350.59912" />
    <path d="M58.5 359.59912 L58.5 380.18271" />
    <path d="M58.5 389.18271 L58.5 413.82169" />
    <path d="M58.5 422.82169 L58.5 457.77477" />
    <path d="M58.5 466.77477 L58.5 471.57849" />
    <path d="M58.5 480.57849 L58.5 486.87527" />
    <path d="M65.25 45 L65.25 82.83832" />
    <path d="M65.25 91.83832 L65.25 133.14993" />
    <path d="M65.25 142.14993 L65.25 156.9064" />
    <path d="M65.25 165.9064 L65.25 177.65948" />
    <path d="M65.25 186.65948 L65.25 189.88188" />
    <path d="M65.25 198.88188 L65.25 230.3068" />
    <path d="M65.25 239.3068 L65.25 279.18164" />
    <path d="M65.25 288.18164 L65.25 298.85785" />
    <path d="M65.25 307.85785 L65.25 314.49701" />
    <path d="M65.25 323.49701 L65.25 339.59852" />
    <path d="M65.25 348.59852 L65.25 367.2847" />
    <path d="M65.25 376.2847 L65.25 400.90061" />
    <path d="M65.25 409.90061 L65.25 438.38036" />
    <path d="M65.25 447.38036 L65.25 458.78282" />
    <path d="M65.25 467.78282 L65.25 482.15697" />
    <path d="M65.25 491.15697 L65.25 517.39944" />
    <path d="M72 45 L72 66.44372" />
    <path d="M72 75.44372 L72 80.50246" />
    <path d="M72 89.50246 L72 94.0446" />
    <path d="M72 103.0446 L72 140.11321" />
    <path d="M72 149.11321 L72 158.15926" />
    <path d="M72 167.15926 L72 199.17572" />
    <path d="M72 208.17572 L72 245.36738" />
    <path d="M72 254.36738 L72 256.74549" />
    <path d="M72 265.74549 L72 309.0156" />
    <path d="M72 318.0156 L72 339.75169" />
    <path d="M72 348.75169 L72 392.64053" />
    <path d="M72 401.64053 L72 440.99333" />
    <path d="M72 449.99333 L72 453.75247" />
    <path d="M72 462.75247 L72 482.22331" />
    <path d="M72 491.22331 L72 523.89565" />
    <path d="M78.75 45 L78.75 56.57284" />
    <path d="M78.75 65.57284 L78.75 108.9703" />
    <path d="M78.75 117.9703 L78.75 132.08927" />
    <path d="M78.75 141.08927 L78.75 176.02918" />
    <path d="M78.75 185.02918 L78.75 188.70757" />
    <path d="M78.75 197.70757 L78.75 209.56718" />
    <path d="M78.75 218.56718 L78.75 229.29925" />
    <path d="M78.75 238.29925 L78.75 251.35859" />
    <path d="M78.75 260.35859 L78.75 261.99335" />
    <path d="M78.75 270.99335 L78.75 298.84486" />
    <path d="M78.75 307.84486 L78.75 309.04344" />
    <path d="M78.75 318.04344 L78.75 353.08145" />
    <path d="M78.75 362.08145 L78.75 392.30931" />
    <path d="M78.75 401.30931 L78.75 445.34516" />
    <path d="M78.75 454.34516 L78.75 497.29808" />
    <path d="M85.5 45 L85.5 49.6383" />
    <path d="M85.5 58.6383 L85.5 89.3615" />
    <path d="M85.5 98.3615 L85.5 109.34999" />
    <path d="M85.5 118.34999 L85.5 159.30176" />
    <path d="M85.5 168.30176 L85.5 212.50902" />
    <path d="M85.5 221.50902 L85.5 232.27137" />
    <path d="M85.5 241.27137 L85.5 260.88215" />
    <path d="M85.5 269.88215 L85.5 280.31795" />
    <path d="M85.5 289.31795 L85.5 301.53873" />
    <path d="M85.5 310.53873 L85.5 338.28147" />
    <path d="M85.5 347.28147 L85.5 367.99679" />
    <path d="M85.5 376.99679 L85.5 407.00594" />
    <path d="M85.5 416.00594 L85.5 422.22308" />
    <path d="M85.5 431.22308 L85.5 458.94289" />
    <path d="M85.5 467.94289 L85.5 479.57231" />
    <path d="M85.5 488.57231 L85.5 497.80132" />
    <path d="M92.25 45 L92.25 47.055" />
    <path d="M92.25 56.055 L92.25 69.68028" />
    <path d="M92.25 78.68028 L92.25 102.6292" />
    <path d="M92.25 111.6292 L92.25 140.40727" />
    <path d="M92.25 149.40727 L92.25 186.64142" />
    <path d="M92.25 195.64142 L92.25 204.87838" />
    <path d="M92.25 213.87838 L92.25 230.91515" />
    <path d="M92.25 239.91515 L92.25 262.4382" />
    <path d="M92.25 271.4382 L92.25 276.07328" />
    <path d="M92.25 285.07328 L92.25 285.59293" />
    <path d="M92.25 294.59293 L92.25 339.2604" />
    <path d="M92.25 348.2604 L92.25 377.50543" />
    <path d="M92.25 386.50543 L92.25 395.22564" />
    <path d="M92.25 404.22564 L92.25 443.50343" />
    <path d="M92.25 452.50343 L92.25 486.99191" />
    <path d="M99 45 L99 65.81599" />
    <path d="M99 74.81599 L99 107.95333" />
    <path d="M99 116.95333 L99 122.2123" />
    <path d="M99 131.2123 L99 157.03557" />
    <path d="M99 166.03557 L99 186.97323" />
    <path d="M99 195.97323 L99 204.11605" />
    <path d="M99 213.11605 L99 239.5547" />
    <path d="M99 248.5547 L99 280.2333" />
    <path d="M99 289.2333 L99 330.82969" />
    <path d="M99 339.82969 L99 374.86227" />
    <path d="M99 383.86227 L99 393.73368" />
    <path d="M99 402.73368 L99 416.14428" />
    <path d="M99 425.14428 L99 429.11788" />
    <path d="M99 438.11788 L99 470.45864" />
    <path d="M99 479.45864 L99 487.23306" />
    <path d="M105.75 45 L105.75 65.66248" />
    <path d="M105.75 74.66248 L105.75 93.11741" />
    <path d="M105.75 102.11741 L105.75 129.43019" />
    <path d="M105.75 138.43019 L105.75 171.87534" />
    <path d="M105.75 180.87534 L105.75 192.55936" />
    <path d="M105.75 201.55936 L105.75 202.67945" />
    <path d="M105.75 211.67945 L105.75 242.23369" />
    <path d="M105.75 251.23369 L105.75 275.44353" />
    <path d="M105.75 284.44353 L105.75 317.07023" />
    <path d="M105.75 326.07023 L105.75 336.67759" />
    <path d="M105.75 345.67759 L105.75 350.18878" />
    <path d="M105.75 359.18878 L105.75 372.63318" />
    <path d="M105.75 381.63318 L105.75 426.21126" />
    <path d="M105.75 435.21126 L105.75 449.26805" />
    <path d="M105.75 458.26805 L105.75 482.12984" />
    <path d="M105.75 491.12984 L105.75 503.79411" />
    <path d="M112.5 45 L112.5 75.43041" />
    <path d="M112.5 84.43041 L112.5 109.79582" />
    <path d="M112.5 118.79582 L112.5 142.39692" />
    <path d="M112.5 151.39692 L112.5 180.13186" />
    <path d="M112.5 189.13186 L112.5 219.70377" />
    <path d="M112.5 228.70377 L112.5 233.8573" />
    <path d="M112.5 242.8573 L112.5 271.89343" />
    <path d="M112.5 280.89343 L112.5 282.77371" />
    <path d="M112.5 291.77371 L112.5 313.96481" />
    <path d="M112.5 322.96481 L112.5 332.2558" />
    <path d="M112.5 341.2558 L112.5 358.72876" />
    <path d="M112.5 367.72876 L112.5 403.91183" />
    <path d="M112.5 412.91183 L112.5 424.33848" />
    <path d="M112.5 433.33848 L112.5 464.34336" />
    <path d="M112.5 473.34336 L112.5 499.83763" />
    <path d="M119.25 45 L119.25 83.3491" />
    <path d="M119.25 92.3491 L119.25 103.48517" />
    <path d="M119.25 112.48517 L119.25 146.0744" />
    <path d="M119.25 155.0744 L119.25 184.49778" />
    <path d="M119.25 193.49778 L119.25 205.27694" />
    <path d="M119.25 214.27694 L119.25 220.96097" />
    <path d="M119.25 229.96097 L119.25 274.28253" />
    <path d="M119.25 283.28253 L119.25 309.13732" />
    <path d="M119.25 318.13732 L119.25 354.67569" />
    <path d="M119.25 363.67569 L119.25 385.33465" />
    <path d="M119.25 394.33465 L119.25 413.8979" />
    <path d="M119.25 422.8979 L119.25 446.3425" />
    <path d="M119.25 455.3425 L119.25 458.91128" />
    <path d="M119.25 467.91128 L119.25 497.87809" />
    <path d="M126 45 L126 68.07587" />
    <path d="M126 77.07587 L126 113.13642" />
    <path d="M126 122.13642 L126 152.54454" />
    <path d="M126 161.54454 L126 177.18419" />
    <path d="M126 186.18419 L126 210.83262" />
    <path d="M126 219.83262 L126 257.79746" />
    <path d="M126 266.79746 L126 282.09365" />
    <path d="M126 291.09365 L126 331.70385" />
    <path d="M126 340.70385 L126 364.93178" />
    <path d="M126 373.93178 L126 407.69717" />
    <path d="M126 416.69717 L126 458.93802" />
    <path d="M126 467.93802 L126 504.76128" />
    <path d="M132.75 45 L132.75 49.93815" />
    <path d="M132.75 58.93815 L132.75 75.97553" />
    <path d="M132.75 84.97553 L132.75 104.54827" />
    <path d="M132.75 113.54827 L132.75 155.35466" />
    <path d="M132.75 164.35466 L132.75 191.18835" />
    <path d="M132.75 200.18835 L132.75 207.61601" />
    <path d="M132.75 216.61601 L132.75 232.02337" />
    <path d="M132.75 241.02337 L132.75 260.31995" />
    <path d="M132.75 269.31995 L132.75 272.32443" />
    <path d="M132.75 281.32443 L132.75 310.4567" />
    <path d="M132.75 319.4567 L132.75 341.25511" />
    <path d="M132.75 350.25511 L132.75 373.89279" />
    <path d="M132.75 382.89279 L132.75 389.41489" />
    <path d="M132.75 398.41489 L132.75 401.25078" />
    <path d="M132.75 410.25078 L132.75 439.43879" />
    <path d="M132.75 448.43879 L132.75 455.82355" />
    <path d="M132.75 464.82355 L132.75 502.80668" />
    <path d="M139.5 45 L139.5 68.97853" />
    <path d="M139.5 77.97853 L139.5 92.90542" />
    <path d="M139.5 101.90542 L139.5 140.745" />
    <path d="M139.5 149.745 L139.5 194.21981" />
    <path d="M139.5 203.21981 L139.5 203.52314" />
    <path d="M139.5 212.52314 L139.5 222.84012" />
    <path d="M139.5 231.84012 L139.5 270.43947" />
    <path d="M139.5 279.43947 L139.5 286.63679" />
    <path d="M139.5 295.63679 L139.5 338.9368" />
    <path d="M139.5 347.9368 L139.5 373.51577" />
    <path d="M139.5 382.51577 L139.5 425.43476" />
    <path d="M139.5 434.43476 L139.5 447.08627" />
    <path d="M139.5 456.08627 L139.5 491.12646" />
    <path d="M146.25 45 L146.25 82.30772" />
    <path d="M146.25 91.30772 L146.25 115.92406" />
    <path d="M146.25 124.92406 L146.25 130.85903" />
    <path d="M146.25 139.85903 L146.25 143.67403" />
    <path d="M146.25 152.67403 L146.25 183.55337" />
    <path d="M146.25 192.55337 L146.25 200.51418" />
    <path d="M146.25 209.51418 L146.25 241.07423" />
    <path d="M146.25 250.07423 L146.25 266.71675" />
    <path d="M146.25 275.71675 L146.25 275.90108" />
    <path d="M146.25 284.90108 L146.25 328.25334" />
    <path d="M146.25 337.25334 L146.25 341.28844" />
    <path d="M146.25 350.28844 L146.25 351.81777" />
    <path d="M146.25 360.81777 L146.25 373.51825" />
    <path d="M146.25 382.51825 L146.25 402.96163" />
    <path d="M146.25 411.96163 L146.25 439.98578" />
    <path d="M146.25 448.98578 L146.25 487.21183" />
    <path d="M153 45 L153 72.7223" />
    <path d="M153 81.7223 L153 85.47852" />
    <path d="M153 94.47852 L153 121.15998" />
    <path d="M153 130.15998 L153 156.13503" />
    <path d="M153 165.13503 L153 198.94211" />
    <path d="M153 207.94211 L153 242.86125" />
    <path d="M153 251.86125 L153 253.96937" />
    <path d="M153 262.96937 L153 276.43185" />
    <path d="M153 285.43185 L153 289.24916" />
    <path d="M153 298.24916 L153 304.71523" />
    <path d="M153 313.71523 L153 355.43757" />
    <path d="M153 364.43757 L153 380.68447" />
    <path d="M153 389.68447 L153 426.23227" />
    <path d="M153 435.23227 L153 476.87304" />
    <path d="M153 485.87304 L153 525.25675" />
    <path d="M159.75 45 L159.75 48.21979" />
    <path d="M159.75 57.21979 L159.75 100.30092" />
    <path d="M159.75 109.30092 L159.75 120.81471" />
    <path d="M159.75 129.81471 L159.75 140.85056" />
    <path d="M159.75 149.85056 L159.75 194.45576" />
    <path d="M159.75 203.45576 L159.75 226.0087" />
    <path d="M159.75 235.0087 L159.75 255.78065" />
    <path d="M159.75 264.78065 L159.75 276.1701" />
    <path d="M159.75 285.1701 L159.75 304.61098" />
    <path d="M159.75 313.61098 L159.75 317.96585" />
    <path d="M159.75 326.96585 L159.75 347.15372" />
    <path d="M159.75 356.15372 L159.75 386.16441" />
    <path d="M159.75 395.16441 L159.75 430.69882" />
    <path d="M159.75 439.69882 L159.75 460.85891" />
    <path d="M159.75 469.85891 L159.75 485.42482" />
    <path d="M159.75 494.42482 L159.75 513.77807" />
    <path d="M166.5 45 L166.5 53.33881" />
    <path d="M166.5 62.33881 L166.5 92.0054" />
    <path d="M166.5 101.0054 L166.5 137.76799" />
    <path d="M166.5 146.76799 L166.5 169.094" />
    <path d="M166.5 178.094 L166.5 210.79393" />
    <path d="M166.5 219.79393 L166.5 221.89341" />
    <path d="M166.5 230.89341 L166.5 233.71274" />
    <path d="M166.5 242.71274 L166.5 255.32088" />
    <path d="M166.5 264.32088 L166.5 291.75788" />
    <path d="M166.5 300.75788 L166.5 339.53985" />
    <path d="M166.5 348.53985 L166.5 354.65939" />
    <path d="M166.5 363.65939 L166.5 389.7606" />
    <path d="M166.5 398.7606 L166.5 417.01438" />
    <path d="M166.5 426.01438 L166.5 450.08154" />
    <path d="M166.5 459.08154 L166.5 461.57748" />
    <path d="M166.5 470.57748 L166.5 498.48978" />
    <path d="M173.25 45 L173.25 48.41568" />
    <path d="M173.25 57.41568 L173.25 71.09291" />
    <path d="M173.25 80.09291 L173.25 105.30239" />
    <path d="M173.25 114.30239 L173.25 148.97224" />
    <path d="M173.25 157.97224 L173.25 174.46628" />
    <path d="M173.25 183.46628 L173.25 201.31442" />
    <path d="M173.25 210.31442 L173.25 223.05071" />
    <path d="M173.25 232.05071 L173.25 261.94067" />
    <path d="M173.25 270.94067 L173.25 272.58568" />
    <path d="M173.25 281.58568 L173.25 319.71396" />
    <path d="M173.25 328.71396 L173.25 332.13202" />
    <path d="M173.25 341.13202 L173.25 349.37918" />
    <path d="M173.25 358.37918 L173.25 395.00583" />
    <path d="M173.25 404.00583 L173.25 435.84341" />
    <path d="M173.25 444.84341 L173.25 478.8829" />
    <path d="M173.25 487.8829 L173.25 496.90009" />
    <path d="M180 45 L180 63.13535" />
    <path d="M180 72.13535 L180 82.34141" />
    <path d="M180 91.34141 L180 124.79085" />
    <path d="M180 133.79085 L180 155.99341" />
    <path d="M180 164.99341 L180 205.46779" />
    <path d="M180 214.46779 L180 257.78333" />
    <path d="M180 266.78333 L180 286.50014" />
    <path d="M180 295.50014 L180 307.71777" />
    <path d="M180 316.71777 L180 356.18339" />
    <path d="M180 365.18339 L180 367.47777" />
    <path d="M180 376.47777 L180 417.3267" />
    <path d="M180 426.3267 L180 434.55006" />
    <path d="M180 443.55006 L180 482.4669" />
    <path d="M180 491.4669 L180 514.96395" />
    <path d="M186.75 45 L186.75 69.35783" />
    <path d="M186.75 78.35783 L186.75 103.22916" />
    <path d="M186.75 112.22916 L186.75 125.10978" />
    <path d="M186.75 134.10978 L186.75 135.0062" />
    <path d="M186.75 144.0062 L186.75 154.15815" />
    <path d="M186.75 163.15815 L186.75 176.6151" />
    <path d="M186.75 185.6151 L186.75 227.32856" />
    <path d="M186.75 236.32856 L186.75 261.22289" />
    <path d="M186.75 270.22289 L186.75 282.9953" />
    <path d="M186.75 291.9953 L186.75 323.87292" />
    <path d="M186.75 332.87292 L186.75 333.0004" />
    <path d="M186.75 342.0004 L186.75 370.07072" />
    <path d="M186.75 379.07072 L186.75 403.82491" />
    <path d="M186.75 412.82491 L186.75 452.08591" />
    <path d="M186.75 461.08591 L186.75 485.66713" />
    <path d="M186.75 494.66713 L186.75 529.00355" />
    <path d="M193.5 45 L193.5 79.45345" />
    <path d="M193.5 88.45345 L193.5 133.36451" />
    <path d="M193.5 142.36451 L193.5 169.79985" />
    <path d="M193.5 178.79985 L193.5 203.46477" />
    <path d="M193.5 212.46477 L193.5 247.2933" />
    <path d="M193.5 256.2933 L193.5 265.57937" />
    <path d="M193.5 274.57937 L193.5 283.47293" />
    <path d="M193.5 292.47293 L193.5 312.83548" />
    <path d="M193.5 321.83548 L193.5 351.68184" />
    <path d="M193.5 360.68184 L193.5 400.24871" />
    <path d="M193.5 409.24871 L193.5 436.23124" />
    <path d="M193.5 445.23124 L193.5 486.91738" />
    <path d="M200.25 45 L200.25 78.76681" />
    <path d="M200.25 87.76681 L200.25 131.10503" />
    <path d="M200.25 140.10503 L200.25 185.09628" />
    <path d="M200.25 194.09628 L200.25 205.40954" />
    <path d="M200.25 214.40954 L200.25 258.68853" />
    <path d="M200.25 267.68853 L200.25 288.43234" />
    <path d="M200.25 297.43234 L200.25 322.92181" />
    <path d="M200.25 331.92181 L200.25 376.46176" />
    <path d="M200.25 385.46176 L200.25 407.00136" />
    <path d="M200.25 416.00136 L200.25 445.81419" />
    <path d="M200.25 454.81419 L200.25 483.32441" />
    <path d="M200.25 492.32441 L200.25 531.02196" />
    <path d="M207 45 L207 54.37413" />
    <path d="M207 63.37413 L207 91.34727" />
    <path d="M207 100.34727 L207 128.46491" />
    <path d="M207 137.46491 L207 164.49194" />
    <path d="M207 173.49194 L207 186.22973" />
    <path d="M207 195.22973 L207 199.77343" />
    <path d="M207 208.77343 L207 211.66428" />
    <path d="M207 220.66428 L207 257.23607" />
    <path d="M207 266.23607 L207 282.96403" />
    <path d="M207 291.96403 L207 325.13002" />
    <path d="M207 334.13002 L207 374.09972" />
    <path d="M207 383.09972 L207 426.49716" />
    <path d="M207 435.49716 L207 454.88029" />
    <path d="M207 463.88029 L207 482.95059" />
    <path d="M207 491.95059 L207 519.03295" />
    <path d="M213.75 45 L213.75 82.26008" />
    <path d="M213.75 91.26008 L213.75 131.69497" />
    <path d="M213.75 140.69497 L213.75 182.97146" />
    <path d="M213.75 191.97146 L213.75 221.733" />
    <path d="M213.75 230.733 L213.75 243.09307" />
    <path d="M213.75 252.09307 L213.75 258.80458" />
    <path d="M213.75 267.80458 L213.75 275.1379" />
    <path d="M213.75 284.1379 L213.75 297.50757" />
    <path d="M213.75 306.50757 L213.75 318.65912" />
    <path d="M213.75 327.65912 L213.75 338.61426" />
    <path d="M213.75 347.61426 L213.75 355.10193" />
    <path d="M213.75 364.10193 L213.75 367.01721" />
    <path d="M213.75 376.01721 L213.75 399.17098" />
    <path d="M213.75 408.17098 L213.75 425.46995" />
    <path d="M213.75 434.46995 L213.75 463.61071" />
    <path d="M213.75 472.61071 L213.75 482.67936" />
    <path d="M213.75 491.67936 L213.75 512.22609" />
  </g>
</svg>