<?xml version="1.0" standalone="no"?>
<!DOCTYPE svg PUBLIC "-//W3C//DTD SVG 1.1//EN" 
    "http://www.w3.org/Graphics/SVG/1.1/DTD/svg11.dtd">
<svg width="21cm" height="29.7cm"
    xmlns="http://www.w3.org/2000/svg" version="1.1" viewBox="0 0 744.09449 1052.3622">
  <g fill="none" stroke="black" stroke-width="0.03cm">
    <path d="M35.27914 35.58835 L70.71086 35.27914" />
    <path d="M70.71086 35.27914 L71.02007 70.71086" />
    <path d="M71.02007 70.71086 L35.58835 71.02007" />
    <path d="M35.58835 71.02007 L35.27914 35.58835" />
    <path d="M35.27914 78.10803 L70.71086 77.79883" />
    <path d="M70.71086 77.79883 L71.02007 113.23055" />
    <path d="M71.02007 113.23055 L35.58835 113.53976" />
    <path d="M35.58835 113.53976 L35.27914 78.10803" />
    <path d="M35.27914 120.62772 L70.71086 120.31851" />
    <path d="M70.71086 120.31851 L71.02007 155.75023" />
    <path d="M71.02007 155.75023 L35.58835 156.05944" />
    <path d="M35.58835 156.05944 L35.27914 120.62772" />
    <path d="M35.27914 163.1474 L70.71086 162.8382" />
    <path d="M70.71086 162.8382 L71.02007 198.26992" />
    <path d="M71.02007 198.26992 L35.58835 198.57913" />
    <path d="M35.58835 198.57913 L35.27914 163.1474" />
    <path d="M35.27914 205.66709 L70.71086 205.35788" />
    <path d="M70.71086 205.35788 L71.02007 240.7896" />
    <path d="M71.02007 240.7896 L35.58835 241.09881" />
    <path d="M35.58835 241.09881 L35.27914 205.66709" />
    <path d="M35.27914 248.18677 L70.71086 247.87757" />
    <path d="M70.71086 247.87757 L71.02007 283.30929" />
    <path d="M71.02007 283.30929 L35.58835 283.6185" />
    <path d="M35.58835 283.6185 L35.27914 248.18677" />
    <path d="M35.27914 290.70646 L70.71086 290.39725" />
    <path d="M70.71086 290.39725 L71.02007 325.82897" />
    <path d="M71.02007 325.82897 L35.58835 326.13818" />
    <path d="M35.58835 326.13818 L35.27914 290.70646" />
    <path d="M35.27914 333.22614 L70.71086 332.91694" />
    <path d="M70.71086 332.91694 L71.02007 368.34866" />
    <path d="M71.02007 368.34866 L35.58835 368.65787" />
    <path d="M35.58835 368.65787 L35.27914 333.22614" />
    <path d="M35.27914 375.74583 L70.71086 375.43662" />
    <path d="M70.71086 375.43662 L71.02007 410.86834" />
    <path d="M71.02007 410.86834 L35.58835 411.17755" />
    <path d="M35.58835 411.17755 L35.27914 375.74583" />
    <path d="M35.27914 418.26551 L70.71086 417.95631" />
    <path d="M70.71086 417.95631 L71.02007 453.38803" />
    <path d="M71.02007 453.38803 L35.58835 453.69724" />
    <path d="M35.58835 453.69724 L35.27914 418.26551" />
    <path d="M35.27914 460.7852 L70.71086 460.47599" />
    <path d="M70.71086 460.47599 L71.02007 495.90771" />
    <path d="M71.02007 495.90771 L35.58835 496.21692" />
    <path d="M35.58835 496.21692 L35.27914 460.7852" />
    <path d="M35.27914 503.30488 L70.71086 502.99568" />
    <path d="M70.71086 502.99568 L71.02007 538.4274" />
    <path d="M71.02007 538.4274 L35.58835 538.73661" />
    <path d="M35.58835 538.73661 L35.27914 503.30488" />
    <path d="M35.27914 545.82457 L70.71086 545.51536" />
    <path d="M70.71086 545.51536 L71.02007 580.94708" />
    <path d="M71.02007 580.94708 L35.58835 581.25629" />
    <path d="M35.58835 581.25629 L35.27914 545.82457" />
    <path d="M35.27914 588.34425 L70.71086 588.03505" />
    <path d="M70.71086 588.03505 L71.02007 623.46677" />
    <path d="M71.02007 623.46677 L35.58835 623.77598" />
    <path d="M35.58835 623.77598 L35.27914 588.34425" />
    <path d="M35.27914 630.86394 L70.71086 630.55473" />
    <path d="M70.71086 630.55473 L71.02007 665.98645" />
    <path d="M71.02007 665.98645 L35.58835 666.29566" />
    <path d="M35.58835 666.29566 L35.27914 630.86394" />
    <path d="M35.27914 673.38363 L70.71086 673.07442" />
    <path d="M70.71086 673.07442 L71.02007 708.50614" />
    <path d="M71.02007 708.50614 L35.58835 708.81535" />
    <path d="M35.58835 708.81535 L35.27914 673.38363" />
    <path d="M35.27914 715.90331 L70.71086 715.5941" />
    <path d="M70.71086 715.5941 L71.02007 751.02582" />
    <path d="M71.02007 751.02582 L35.58835 751.33503" />
    <path d="M35.58835 751.33503 L35.27914 715.90331" />
    <path d="M35.27914 758.423 L70.71086 758.11379" />
    <path d="M70.71086 758.11379 L71.02007 793.54551" />
    <path d="M71.02007 793.54551 L35.58835 793.85472" />
    <path d="M35.58835 793.85472 L35.27914 758.423" />
    <path d="M35.27914 800.94268 L70.71086 800.63347" />
    <path d="M70.71086 800.63347 L71.02007 836.06519" />
    <path d="M71.02007 836.06519 L35.58835 836.3744" />
    <path d="M35.58835 836.3744 L35.27914 800.94268" />
    <path d="M35.27914 843.46237 L70.71086 843.15316" />
    <path d="M70.71086 843.15316 L71.02007 878.58488" />
    <path d="M71.02007 878.58488 L35.58835 878.89409" />
    <path d="M35.58835 878.89409 L35.27914 843.46237" />
    <path d="M35.27914 885.98205 L70.71086 885.67284" />
    <path d="M70.71086 885.67284 L71.02007 921.10456" />
    <path d="M71.02007 921.10456 L35.58835 921.41377" />
    <path d="M35.58835 921.41377 L35.27914 885.98205" />
    <path d="M35.27914 928.50174 L70.71086 928.19253" />
    <path d="M70.71086 928.19253 L71.02007 963.62425" />
    <path d="M71.02007 963.62425 L35.58835 963.93346" />
    <path d="M35.58835 963.93346 L35.27914 928.50174" />
    <path d="M77.79883 35.58835 L113.23055 35.27914" />
    <path d="M113.23055 35.27914 L113.53976 70.71086" />
    <path d="M113.53976 70.71086 L78.10803 71.02007" />
    <path d="M78.10803 71.02007 L77.79883 35.58835" />
    <path d="M77.84919 78.05693 L113.28165 77.84919" />
    <path d="M113.28165 77.84919 L113.48939 113.28165" />
    <path d="M113.48939 113.28165 L78.05693 113.48939" />
    <path d="M78.05693 113.48939 L77.84919 78.05693" />
    <path d="M77.90214 120.5232 L113.33507 120.42183" />
    <path d="M113.33507 120.42183 L113.43644 155.85475" />
    <path d="M113.43644 155.85475 L78.00351 155.95612" />
    <path d="M78.00351 155.95612 L77.90214 120.5232" />
    <path d="M77.94403 163.00086 L113.3771 162.9834" />
    <path d="M113.3771 162.9834 L113.39455 198.41647" />
    <path d="M113.39455 198.41647 L77.96149 198.43392" />
    <path d="M77.96149 198.43392 L77.94403 163.00086" />
    <path d="M77.90014 205.56458 L113.33305 205.45919" />
    <path d="M113.33305 205.45919 L113.43844 240.89211" />
    <path d="M113.43844 240.89211 L78.00553 240.9975" />
    <path d="M78.00553 240.9975 L77.90014 205.56458" />
    <path d="M77.8316 248.15348 L113.26384 247.91034" />
    <path d="M113.26384 247.91034 L113.50698 283.34258" />
    <path d="M113.50698 283.34258 L78.07474 283.58572" />
    <path d="M78.07474 283.58572 L77.8316 248.15348" />
    <path d="M77.89819 290.60592 L113.33109 290.49661" />
    <path d="M113.33109 290.49661 L113.44039 325.92952" />
    <path d="M113.44039 325.92952 L78.00749 326.03882" />
    <path d="M78.00749 326.03882 L77.89819 290.60592" />
    <path d="M78.33477 332.69692 L113.75977 333.45288" />
    <path d="M113.75977 333.45288 L113.00381 368.87788" />
    <path d="M113.00381 368.87788 L77.57881 368.12192" />
    <path d="M77.57881 368.12192 L78.33477 332.69692" />
    <path d="M78.24497 375.30308 L113.6733 375.88277" />
    <path d="M113.6733 375.88277 L113.09361 411.3111" />
    <path d="M113.09361 411.3111 L77.66528 410.7314" />
    <path d="M77.66528 410.7314 L78.24497 375.30308" />
    <path d="M78.31122 417.75888 L113.73718 418.4687" />
    <path d="M113.73718 418.4687 L113.02736 453.89466" />
    <path d="M113.02736 453.89466 L77.6014 453.18484" />
    <path d="M77.6014 453.18484 L78.31122 417.75888" />
    <path d="M78.25634 460.33145 L113.6843 460.93351" />
    <path d="M113.6843 460.93351 L113.08224 496.36146" />
    <path d="M113.08224 496.36146 L77.65428 495.75941" />
    <path d="M77.65428 495.75941 L78.25634 460.33145" />
    <path d="M78.12493 502.97909 L113.55634 503.32178" />
    <path d="M113.55634 503.32178 L113.21365 538.75319" />
    <path d="M113.21365 538.75319 L77.78224 538.4105" />
    <path d="M77.78224 538.4105 L78.12493 502.97909" />
    <path d="M78.05381 545.56881 L113.4863 545.77034" />
    <path d="M113.4863 545.77034 L113.28478 581.20284" />
    <path d="M113.28478 581.20284 L77.85228 581.00131" />
    <path d="M77.85228 581.00131 L78.05381 545.56881" />
    <path d="M78.41903 587.73466 L113.84014 588.65525" />
    <path d="M113.84014 588.65525 L112.91955 624.07636" />
    <path d="M112.91955 624.07636 L77.49844 623.15577" />
    <path d="M77.49844 623.15577 L78.41903 587.73466" />
    <path d="M78.54293 630.13753 L113.95696 631.29883" />
    <path d="M113.95696 631.29883 L112.79566 666.71287" />
    <path d="M112.79566 666.71287 L77.38162 665.55156" />
    <path d="M77.38162 665.55156 L78.54293 630.13753" />
    <path d="M78.36289 672.82749 L113.78668 673.63848" />
    <path d="M113.78668 673.63848 L112.97569 709.06227" />
    <path d="M112.97569 709.06227 L77.5519 708.25128" />
    <path d="M77.5519 708.25128 L78.36289 672.82749" />
    <path d="M79.05859 714.70728 L114.42658 716.85386" />
    <path d="M114.42658 716.85386 L112.27999 752.22185" />
    <path d="M112.27999 752.22185 L76.912 750.07527" />
    <path d="M76.912 750.07527 L79.05859 714.70728" />
    <path d="M79.08022 757.20783 L114.44571 759.39518" />
    <path d="M114.44571 759.39518 L112.25836 794.76067" />
    <path d="M112.25836 794.76067 L76.89287 792.57332" />
    <path d="M76.89287 792.57332 L79.08022 757.20783" />
    <path d="M78.65649 800.11057 L114.06266 801.49114" />
    <path d="M114.06266 801.49114 L112.68209 836.8973" />
    <path d="M112.68209 836.8973 L77.27593 835.51674" />
    <path d="M77.27593 835.51674 L78.65649 800.11057" />
    <path d="M77.8323 843.42837 L113.26454 843.18663" />
    <path d="M113.26454 843.18663 L113.50629 878.61887" />
    <path d="M113.50629 878.61887 L78.07404 878.86062" />
    <path d="M78.07404 878.86062 L77.8323 843.42837" />
    <path d="M78.42539 885.36642 L113.84617 886.2994" />
    <path d="M113.84617 886.2994 L112.91319 921.72019" />
    <path d="M112.91319 921.72019 L77.49241 920.78721" />
    <path d="M77.49241 920.78721 L78.42539 885.36642" />
    <path d="M78.50364 927.8122 L113.92009 928.89734" />
    <path d="M113.92009 928.89734 L112.83495 964.31379" />
    <path d="M112.83495 964.31379 L77.4185 963.22865" />
    <path d="M77.4185 963.22865 L78.50364 927.8122" />
    <path d="M120.31851 35.58835 L155.75023 35.27914" />
    <path d="M155.75023 35.27914 L156.05944 70.71086" />
    <path d="M156.05944 70.71086 L120.62772 71.02007" />
    <path d="M120.62772 71.02007 L120.31851 35.58835" />
    <path d="M120.41336 78.01203 L155.84624 77.89368" />
    <path d="M155.84624 77.89368 L155.96459 113.32655" />
    <path d="M155.96459 113.32655 L120.53171 113.4449" />
    <path d="M120.53171 113.4449 L120.41336 78.01203" />
    <path d="M120.53588 120.40923 L155.96872 120.53588" />
    <path d="M155.96872 120.53588 L155.84208 155.96872" />
    <path d="M155.84208 155.96872 L120.40923 155.84208" />
    <path d="M120.40923 155.84208 L120.53588 120.40923" />
    <path d="M120.36995 163.09521 L155.80243 162.88964" />
    <path d="M155.80243 162.88964 L156.008 198.32211" />
    <path d="M156.008 198.32211 L120.57552 198.52768" />
    <path d="M120.57552 198.52768 L120.36995 163.09521" />
    <path d="M120.71195 205.2755 L156.14182 205.75132" />
    <path d="M156.14182 205.75132 L155.66601 241.18119" />
    <path d="M155.66601 241.18119 L120.23613 240.70538" />
    <path d="M120.23613 240.70538 L120.71195 205.2755" />
    <path d="M120.60475 247.90017 L156.03684 248.16381" />
    <path d="M156.03684 248.16381 L155.7732 283.5959" />
    <path d="M155.7732 283.5959 L120.34111 283.33226" />
    <path d="M120.34111 283.33226 L120.60475 247.90017" />
    <path d="M120.82624 290.20431 L156.25239 290.90498" />
    <path d="M156.25239 290.90498 L155.55171 326.33113" />
    <path d="M155.55171 326.33113 L120.12557 325.63045" />
    <path d="M120.12557 325.63045 L120.82624 290.20431" />
    <path d="M120.76792 332.78023 L156.19614 333.36635" />
    <path d="M156.19614 333.36635 L155.61003 368.79457" />
    <path d="M155.61003 368.79457 L120.18181 368.20846" />
    <path d="M120.18181 368.20846 L120.76792 332.78023" />
    <path d="M120.6681 375.39703 L156.09904 375.78621" />
    <path d="M156.09904 375.78621 L155.70985 411.21715" />
    <path d="M155.70985 411.21715 L120.27892 410.82796" />
    <path d="M120.27892 410.82796 L120.6681 375.39703" />
    <path d="M121.36111 417.26407 L156.75168 418.9989" />
    <path d="M156.75168 418.9989 L155.01685 454.38948" />
    <path d="M155.01685 454.38948 L119.62627 452.65464" />
    <path d="M119.62627 452.65464 L121.36111 417.26407" />
    <path d="M120.32278 460.78085 L155.75458 460.48026" />
    <path d="M155.75458 460.48026 L156.05517 495.91206" />
    <path d="M156.05517 495.91206 L120.62337 496.21265" />
    <path d="M120.62337 496.21265 L120.32278 460.78085" />
    <path d="M121.98785 501.75398 L157.30113 504.66501" />
    <path d="M157.30113 504.66501 L154.39011 539.9783" />
    <path d="M154.39011 539.9783 L119.07682 537.06727" />
    <path d="M119.07682 537.06727 L121.98785 501.75398" />
    <path d="M120.3966 545.74546 L155.82935 545.59345" />
    <path d="M155.82935 545.59345 L155.98135 581.0262" />
    <path d="M155.98135 581.0262 L120.54861 581.1782" />
    <path d="M120.54861 581.1782 L120.3966 545.74546" />
    <path d="M120.71933 587.94548 L156.14901 588.43587" />
    <path d="M156.14901 588.43587 L155.65862 623.86554" />
    <path d="M155.65862 623.86554 L120.22894 623.37516" />
    <path d="M120.22894 623.37516 L120.71933 587.94548" />
    <path d="M121.12178 630.08229 L156.53188 631.358" />
    <path d="M156.53188 631.358 L155.25617 666.7681" />
    <path d="M155.25617 666.7681 L119.84607 665.49239" />
    <path d="M119.84607 665.49239 L121.12178 630.08229" />
    <path d="M122.39331 671.49628 L157.63758 675.14922" />
    <path d="M157.63758 675.14922 L153.98464 710.39349" />
    <path d="M153.98464 710.39349 L118.74037 706.74055" />
    <path d="M118.74037 706.74055 L122.39331 671.49628" />
    <path d="M122.22702 714.15221 L157.50134 717.50261" />
    <path d="M157.50134 717.50261 L154.15093 752.77693" />
    <path d="M154.15093 752.77693 L118.87661 749.42652" />
    <path d="M118.87661 749.42652 L122.22702 714.15221" />
    <path d="M120.80676 757.93959 L156.23364 758.60204" />
    <path d="M156.23364 758.60204 L155.57119 794.02891" />
    <path d="M155.57119 794.02891 L120.14432 793.36647" />
    <path d="M120.14432 793.36647 L120.80676 757.93959" />
    <path d="M122.56578 798.91651 L157.7764 802.88074" />
    <path d="M157.7764 802.88074 L153.81217 838.09136" />
    <path d="M153.81217 838.09136 L118.60155 834.12713" />
    <path d="M118.60155 834.12713 L122.56578 798.91651" />
    <path d="M122.97658 841.11547 L158.09712 845.81123" />
    <path d="M158.09712 845.81123 L153.40137 880.93177" />
    <path d="M153.40137 880.93177 L118.28083 876.23602" />
    <path d="M118.28083 876.23602 L122.97658 841.11547" />
    <path d="M120.33621 885.96406 L155.76822 885.69054" />
    <path d="M155.76822 885.69054 L156.04175 921.12255" />
    <path d="M156.04175 921.12255 L120.60973 921.39608" />
    <path d="M120.60973 921.39608 L120.33621 885.96406" />
    <path d="M121.0334 927.80272 L156.44925 928.90742" />
    <path d="M156.44925 928.90742 L155.34455 964.32326" />
    <path d="M155.34455 964.32326 L119.92871 963.21857" />
    <path d="M119.92871 963.21857 L121.0334 927.80272" />
    <path d="M162.8382 35.58835 L198.26992 35.27914" />
    <path d="M198.26992 35.27914 L198.57913 70.71086" />
    <path d="M198.57913 70.71086 L163.1474 71.02007" />
    <path d="M163.1474 71.02007 L162.8382 35.58835" />
    <path d="M162.85401 78.09195 L198.286 77.81464" />
    <path d="M198.286 77.81464 L198.56331 113.24663" />
    <path d="M198.56331 113.24663 L163.13132 113.52394" />
    <path d="M163.13132 113.52394 L162.85401 78.09195" />
    <path d="M163.09548 120.36969 L198.52795 120.5758" />
    <path d="M198.52795 120.5758 L198.32184 156.00827" />
    <path d="M198.32184 156.00827 L162.88937 155.80216" />
    <path d="M162.88937 155.80216 L163.09548 120.36969" />
    <path d="M162.91073 163.07389 L198.34343 162.91073" />
    <path d="M198.34343 162.91073 L198.50659 198.34343" />
    <path d="M198.50659 198.34343 L163.07389 198.50659" />
    <path d="M163.07389 198.50659 L162.91073 163.07389" />
    <path d="M163.45197 205.0636 L198.87341 205.97166" />
    <path d="M198.87341 205.97166 L197.96535 241.39309" />
    <path d="M197.96535 241.39309 L162.54392 240.48503" />
    <path d="M162.54392 240.48503 L163.45197 205.0636" />
    <path d="M163.60777 247.43654 L199.02015 248.64714" />
    <path d="M199.02015 248.64714 L197.80955 284.05952" />
    <path d="M197.80955 284.05952 L162.39717 282.84892" />
    <path d="M162.39717 282.84892 L163.60777 247.43654" />
    <path d="M163.45355 290.10147 L198.8749 291.01261" />
    <path d="M198.8749 291.01261 L197.96377 326.43396" />
    <path d="M197.96377 326.43396 L162.54242 325.52283" />
    <path d="M162.54242 325.52283 L163.45355 290.10147" />
    <path d="M164.48511 331.69427 L199.80179 334.56385" />
    <path d="M199.80179 334.56385 L196.93221 369.88053" />
    <path d="M196.93221 369.88053 L161.61553 367.01095" />
    <path d="M161.61553 367.01095 L164.48511 331.69427" />
    <path d="M164.30059 374.37229 L199.64346 376.89902" />
    <path d="M199.64346 376.89902 L197.11673 412.24188" />
    <path d="M197.11673 412.24188 L161.77386 409.71515" />
    <path d="M161.77386 409.71515 L164.30059 374.37229" />
    <path d="M162.95152 418.15094 L198.38449 418.06963" />
    <path d="M198.38449 418.06963 L198.46581 453.5026" />
    <path d="M198.46581 453.5026 L163.03283 453.58392" />
    <path d="M163.03283 453.58392 L162.95152 418.15094" />
    <path d="M163.13564 460.48756 L198.56756 460.77344" />
    <path d="M198.56756 460.77344 L198.28168 496.20536" />
    <path d="M198.28168 496.20536 L162.84976 495.91948" />
    <path d="M162.84976 495.91948 L163.13564 460.48756" />
    <path d="M163.64081 502.52385 L199.05096 503.79829" />
    <path d="M199.05096 503.79829 L197.77651 539.20844" />
    <path d="M197.77651 539.20844 L162.36637 537.93399" />
    <path d="M162.36637 537.93399 L163.64081 502.52385" />
    <path d="M164.55767 544.23128 L199.86321 547.23484" />
    <path d="M199.86321 547.23484 L196.85965 582.54038" />
    <path d="M196.85965 582.54038 L161.55411 579.53682" />
    <path d="M161.55411 579.53682 L164.55767 544.23128" />
    <path d="M163.80462 587.41214 L199.20203 589.00147" />
    <path d="M199.20203 589.00147 L197.6127 624.39888" />
    <path d="M197.6127 624.39888 L162.21529 622.80955" />
    <path d="M162.21529 622.80955 L163.80462 587.41214" />
    <path d="M163.79223 629.94316 L199.1907 631.50877" />
    <path d="M199.1907 631.50877 L197.62509 666.90723" />
    <path d="M197.62509 666.90723 L162.22662 665.34162" />
    <path d="M162.22662 665.34162 L163.79223 629.94316" />
    <path d="M163.3416 672.88564 L198.76791 673.57782" />
    <path d="M198.76791 673.57782 L198.07572 709.00413" />
    <path d="M198.07572 709.00413 L162.64941 708.31194" />
    <path d="M162.64941 708.31194 L163.3416 672.88564" />
    <path d="M164.32678 714.50711 L199.66612 717.08269" />
    <path d="M199.66612 717.08269 L197.09054 752.42203" />
    <path d="M197.09054 752.42203 L161.7512 749.84644" />
    <path d="M161.7512 749.84644 L164.32678 714.50711" />
    <path d="M163.92143 757.38479 L199.30813 759.19702" />
    <path d="M199.30813 759.19702 L197.49589 794.58372" />
    <path d="M197.49589 794.58372 L162.1092 792.77148" />
    <path d="M162.1092 792.77148 L163.92143 757.38479" />
    <path d="M165.24151 798.79307 L200.41953 803.03678" />
    <path d="M200.41953 803.03678 L196.17582 838.21481" />
    <path d="M196.17582 838.21481 L160.99779 833.97109" />
    <path d="M160.99779 833.97109 L165.24151 798.79307" />
    <path d="M167.36595 839.81694 L201.91534 847.68091" />
    <path d="M201.91534 847.68091 L194.05137 882.2303" />
    <path d="M194.05137 882.2303 L159.50198 874.36633" />
    <path d="M159.50198 874.36633 L167.36595 839.81694" />
    <path d="M163.64034 885.20145 L199.05051 886.47498" />
    <path d="M199.05051 886.47498 L197.77699 921.88516" />
    <path d="M197.77699 921.88516 L162.36681 920.61163" />
    <path d="M162.36681 920.61163 L163.64034 885.20145" />
    <path d="M165.26971 926.33002 L200.44163 930.62404" />
    <path d="M200.44163 930.62404 L196.14761 965.79596" />
    <path d="M196.14761 965.79596 L160.97569 961.50194" />
    <path d="M160.97569 961.50194 L165.26971 926.33002" />
    <path d="M205.35788 35.58835 L240.7896 35.27914" />
    <path d="M240.7896 35.27914 L241.09881 70.71086" />
    <path d="M241.09881 70.71086 L205.66709 71.02007" />
    <path d="M205.66709 71.02007 L205.35788 35.58835" />
    <path d="M205.44966 78.01512 L240.88251 77.89061" />
    <path d="M240.88251 77.89061 L241.00703 113.32346" />
    <path d="M241.00703 113.32346 L205.57418 113.44798" />
    <path d="M205.57418 113.44798 L205.44966 78.01512" />
    <path d="M205.97598 120.02012 L241.3972 120.93661" />
    <path d="M241.3972 120.93661 L240.48071 156.35783" />
    <path d="M240.48071 156.35783 L205.05949 155.44134" />
    <path d="M205.05949 155.44134 L205.97598 120.02012" />
    <path d="M205.40924 163.09529 L240.84172 162.88956" />
    <path d="M240.84172 162.88956 L241.04745 198.32203" />
    <path d="M241.04745 198.32203 L205.61498 198.52776" />
    <path d="M205.61498 198.52776 L205.40924 163.09529" />
    <path d="M206.45937 204.61242 L241.84427 206.45937" />
    <path d="M241.84427 206.45937 L239.99732 241.84427" />
    <path d="M239.99732 241.84427 L204.61242 239.99732" />
    <path d="M204.61242 239.99732 L206.45937 204.61242" />
    <path d="M206.85058 246.78702 L242.18936 249.37026" />
    <path d="M242.18936 249.37026 L239.60611 284.70904" />
    <path d="M239.60611 284.70904 L204.26733 282.1258" />
    <path d="M204.26733 282.1258 L206.85058 246.78702" />
    <path d="M206.3023 289.79449 L241.70157 291.34167" />
    <path d="M241.70157 291.34167 L240.1544 326.74094" />
    <path d="M240.1544 326.74094 L204.75512 325.19377" />
    <path d="M204.75512 325.19377 L206.3023 289.79449" />
    <path d="M205.91462 332.67701 L241.33873 333.47368" />
    <path d="M241.33873 333.47368 L240.54207 368.89779" />
    <path d="M240.54207 368.89779 L205.11796 368.10113" />
    <path d="M205.11796 368.10113 L205.91462 332.67701" />
    <path d="M206.09502 375.02593 L241.5095 376.17376" />
    <path d="M241.5095 376.17376 L240.36167 411.58824" />
    <path d="M240.36167 411.58824 L204.94719 410.44041" />
    <path d="M204.94719 410.44041 L206.09502 375.02593" />
    <path d="M206.98806 416.74787 L242.30724 419.58649" />
    <path d="M242.30724 419.58649 L239.46863 454.90567" />
    <path d="M239.46863 454.90567 L204.14945 452.06706" />
    <path d="M204.14945 452.06706 L206.98806 416.74787" />
    <path d="M207.71887 458.66887 L242.90594 462.83698" />
    <path d="M242.90594 462.83698 L238.73782 498.02405" />
    <path d="M238.73782 498.02405 L203.55076 493.85593" />
    <path d="M203.55076 493.85593 L207.71887 458.66887" />
    <path d="M207.09152 501.69966 L242.39483 504.72932" />
    <path d="M242.39483 504.72932 L239.36517 540.03263" />
    <path d="M239.36517 540.03263 L204.06186 537.00297" />
    <path d="M204.06186 537.00297 L207.09152 501.69966" />
    <path d="M208.87084 542.8526 L243.76157 549.02832" />
    <path d="M243.76157 549.02832 L237.58585 583.91905" />
    <path d="M237.58585 583.91905 L202.69512 577.74333" />
    <path d="M202.69512 577.74333 L208.87084 542.8526" />
    <path d="M209.67648 584.83187 L244.30199 592.35365" />
    <path d="M244.30199 592.35365 L236.78021 626.97915" />
    <path d="M236.78021 626.97915 L202.15471 619.45737" />
    <path d="M202.15471 619.45737 L209.67648 584.83187" />
    <path d="M208.04521 628.49473 L243.15882 633.24206" />
    <path d="M243.15882 633.24206 L238.41148 668.35567" />
    <path d="M238.41148 668.35567 L203.29788 663.60833" />
    <path d="M203.29788 663.60833 L208.04521 628.49473" />
    <path d="M207.46276 671.47188 L242.70134 675.1793" />
    <path d="M242.70134 675.1793 L238.99393 710.41788" />
    <path d="M238.99393 710.41788 L203.75535 706.71046" />
    <path d="M203.75535 706.71046 L207.46276 671.47188" />
    <path d="M206.88162 714.47679 L242.21612 717.11784" />
    <path d="M242.21612 717.11784 L239.57508 752.45234" />
    <path d="M239.57508 752.45234 L204.24057 749.8113" />
    <path d="M204.24057 749.8113 L206.88162 714.47679" />
    <path d="M206.03178 757.76258 L241.45002 758.78769" />
    <path d="M241.45002 758.78769 L240.42491 794.20593" />
    <path d="M240.42491 794.20593 L205.00667 793.18082" />
    <path d="M205.00667 793.18082 L206.03178 757.76258" />
    <path d="M210.78643 796.75653 L244.97576 806.06202" />
    <path d="M244.97576 806.06202 L235.67027 840.25135" />
    <path d="M235.67027 840.25135 L201.48093 830.94586" />
    <path d="M201.48093 830.94586 L210.78643 796.75653" />
    <path d="M208.79306 840.54501 L243.70696 846.58834" />
    <path d="M243.70696 846.58834 L237.66363 881.50224" />
    <path d="M237.66363 881.50224 L202.74973 875.45891" />
    <path d="M202.74973 875.45891 L208.79306 840.54501" />
    <path d="M210.89006 881.73693 L245.03472 891.20502" />
    <path d="M245.03472 891.20502 L235.56663 925.34968" />
    <path d="M235.56663 925.34968 L201.42197 915.88159" />
    <path d="M201.42197 915.88159 L210.89006 881.73693" />
    <path d="M206.02637 927.84643 L241.44491 928.86101" />
    <path d="M241.44491 928.86101 L240.43033 964.27955" />
    <path d="M240.43033 964.27955 L205.01178 963.26497" />
    <path d="M205.01178 963.26497 L206.02637 927.84643" />
    <path d="M247.87757 35.58835 L283.30929 35.27914" />
    <path d="M283.30929 35.27914 L283.6185 70.71086" />
    <path d="M283.6185 70.71086 L248.18677 71.02007" />
    <path d="M248.18677 71.02007 L247.87757 35.58835" />
    <path d="M247.89981 78.08543 L283.33189 77.82107" />
    <path d="M283.33189 77.82107 L283.59626 113.25315" />
    <path d="M283.59626 113.25315 L248.16417 113.51752" />
    <path d="M248.16417 113.51752 L247.89981 78.08543" />
    <path d="M248.40338 120.10821 L283.8288 120.84432" />
    <path d="M283.8288 120.84432 L283.09268 156.26975" />
    <path d="M283.09268 156.26975 L247.66726 155.53363" />
    <path d="M247.66726 155.53363 L248.40338 120.10821" />
    <path d="M248.2292 162.79661 L283.66008 163.18983" />
    <path d="M283.66008 163.18983 L283.26687 198.62071" />
    <path d="M283.26687 198.62071 L247.83598 198.2275" />
    <path d="M247.83598 198.2275 L248.2292 162.79661" />
    <path d="M248.59787 204.96299 L284.01339 206.07819" />
    <path d="M284.01339 206.07819 L282.89819 241.4937" />
    <path d="M282.89819 241.4937 L247.48267 240.37851" />
    <path d="M247.48267 240.37851 L248.59787 204.96299" />
    <path d="M247.96291 248.10035 L283.39572 247.96291" />
    <path d="M283.39572 247.96291 L283.53315 283.39572" />
    <path d="M283.53315 283.39572 L248.10035 283.53315" />
    <path d="M248.10035 283.53315 L247.96291 248.10035" />
    <path d="M250.11624 288.68715 L285.3286 292.63593" />
    <path d="M285.3286 292.63593 L281.37982 327.84828" />
    <path d="M281.37982 327.84828 L246.16747 323.8995" />
    <path d="M246.16747 323.8995 L250.11624 288.68715" />
    <path d="M249.98298 331.31397 L285.22146 335.02235" />
    <path d="M285.22146 335.02235 L281.51308 370.26083" />
    <path d="M281.51308 370.26083 L246.2746 366.55245" />
    <path d="M246.2746 366.55245 L249.98298 331.31397" />
    <path d="M251.05112 373.01541 L286.0397 378.61017" />
    <path d="M286.0397 378.61017 L280.44494 413.59876" />
    <path d="M280.44494 413.59876 L245.45636 408.004" />
    <path d="M245.45636 408.004 L251.05112 373.01541" />
    <path d="M249.13064 417.07541 L284.4994 419.20938" />
    <path d="M284.4994 419.20938 L282.36542 454.57814" />
    <path d="M282.36542 454.57814 L246.99667 452.44416" />
    <path d="M246.99667 452.44416 L249.13064 417.07541" />
    <path d="M251.55475 457.69938 L286.39511 464.15317" />
    <path d="M286.39511 464.15317 L279.94131 498.99354" />
    <path d="M279.94131 498.99354 L245.10095 492.53974" />
    <path d="M245.10095 492.53974 L251.55475 457.69938" />
    <path d="M249.89269 501.46616 L285.14802 505.0108" />
    <path d="M285.14802 505.0108 L281.60337 540.26613" />
    <path d="M281.60337 540.26613 L246.34805 536.72148" />
    <path d="M246.34805 536.72148 L249.89269 501.46616" />
    <path d="M251.66328 542.66456 L286.4693 549.30108" />
    <path d="M286.4693 549.30108 L279.83278 584.1071" />
    <path d="M279.83278 584.1071 L245.02676 577.47058" />
    <path d="M245.02676 577.47058 L251.66328 542.66456" />
    <path d="M249.64175 586.71335 L284.94019 589.79923" />
    <path d="M284.94019 589.79923 L281.85431 625.09767" />
    <path d="M281.85431 625.09767 L246.55587 622.01179" />
    <path d="M246.55587 622.01179 L249.64175 586.71335" />
    <path d="M250.48298 628.5574 L285.61583 633.16015" />
    <path d="M285.61583 633.16015 L281.01308 668.293" />
    <path d="M281.01308 668.293 L245.88023 663.69025" />
    <path d="M245.88023 663.69025 L250.48298 628.5574" />
    <path d="M254.07275 668.77646 L287.91646 679.2696" />
    <path d="M287.91646 679.2696 L277.42331 713.11331" />
    <path d="M277.42331 713.11331 L243.57961 702.62016" />
    <path d="M243.57961 702.62016 L254.07275 668.77646" />
    <path d="M252.18791 712.39624 L286.81636 719.90445" />
    <path d="M286.81636 719.90445 L279.30815 754.53289" />
    <path d="M279.30815 754.53289 L244.6797 747.02469" />
    <path d="M244.6797 747.02469 L252.18791 712.39624" />
    <path d="M254.33145 753.6815 L288.05079 764.56767" />
    <path d="M288.05079 764.56767 L277.16461 798.28701" />
    <path d="M277.16461 798.28701 L243.44528 787.40083" />
    <path d="M243.44528 787.40083 L254.33145 753.6815" />
    <path d="M249.69859 799.26422 L284.98775 802.4545" />
    <path d="M284.98775 802.4545 L281.79747 837.74366" />
    <path d="M281.79747 837.74366 L246.50831 834.55337" />
    <path d="M246.50831 834.55337 L249.69859 799.26422" />
    <path d="M251.43787 840.45738 L286.31428 846.71346" />
    <path d="M286.31428 846.71346 L280.0582 881.58987" />
    <path d="M280.0582 881.58987 L245.18179 875.33379" />
    <path d="M245.18179 875.33379 L251.43787 840.45738" />
    <path d="M248.90784 884.99178 L284.29956 886.70311" />
    <path d="M284.29956 886.70311 L282.58823 922.09483" />
    <path d="M282.58823 922.09483 L247.19651 920.3835" />
    <path d="M247.19651 920.3835 L248.90784 884.99178" />
    <path d="M256.41543 922.81103 L289 936.73039" />
    <path d="M289 936.73039 L275.08063 969.31496" />
    <path d="M275.08063 969.31496 L242.49607 955.39559" />
    <path d="M242.49607 955.39559 L256.41543 922.81103" />
    <path d="M290.39725 35.58835 L325.82897 35.27914" />
    <path d="M325.82897 35.27914 L326.13818 70.71086" />
    <path d="M326.13818 70.71086 L290.70646 71.02007" />
    <path d="M290.70646 71.02007 L290.39725 35.58835" />
    <path d="M290.84558 77.66317 L326.27383 78.24715" />
    <path d="M326.27383 78.24715 L325.68986 113.67541" />
    <path d="M325.68986 113.67541 L290.2616 113.09143" />
    <path d="M290.2616 113.09143 L290.84558 77.66317" />
    <path d="M290.98684 120.04724 L326.40945 120.9081" />
    <path d="M326.40945 120.9081 L325.54859 156.33071" />
    <path d="M325.54859 156.33071 L290.12598 155.46985" />
    <path d="M290.12598 155.46985 L290.98684 120.04724" />
    <path d="M290.92207 162.62884 L326.34754 163.36302" />
    <path d="M326.34754 163.36302 L325.61336 198.78848" />
    <path d="M325.61336 198.78848 L290.18789 198.0543" />
    <path d="M290.18789 198.0543 L290.92207 162.62884" />
    <path d="M290.50298 205.56014 L325.93592 205.46361" />
    <path d="M325.93592 205.46361 L326.03245 240.89655" />
    <path d="M326.03245 240.89655 L290.59951 240.99308" />
    <path d="M290.59951 240.99308 L290.50298 205.56014" />
    <path d="M290.99954 247.59421 L326.42154 248.47986" />
    <path d="M326.42154 248.47986 L325.53589 283.90186" />
    <path d="M325.53589 283.90186 L290.11389 283.01621" />
    <path d="M290.11389 283.01621 L290.99954 247.59421" />
    <path d="M291.42222 289.72101 L326.81443 291.42222" />
    <path d="M326.81443 291.42222 L325.11322 326.81443" />
    <path d="M325.11322 326.81443 L289.72101 325.11322" />
    <path d="M289.72101 325.11322 L291.42222 289.72101" />
    <path d="M291.14346 332.49775 L326.55736 333.66315" />
    <path d="M326.55736 333.66315 L325.39197 369.07705" />
    <path d="M325.39197 369.07705 L289.97807 367.91166" />
    <path d="M289.97807 367.91166 L291.14346 332.49775" />
    <path d="M292.00789 374.24484 L327.32997 377.04726" />
    <path d="M327.32997 377.04726 L324.52754 412.36934" />
    <path d="M324.52754 412.36934 L289.20547 409.56691" />
    <path d="M289.20547 409.56691 L292.00789 374.24484" />
    <path d="M293.72093 415.4272 L328.66728 421.27999" />
    <path d="M328.66728 421.27999 L322.8145 456.22634" />
    <path d="M322.8145 456.22634 L287.86815 450.37356" />
    <path d="M287.86815 450.37356 L293.72093 415.4272" />
    <path d="M294.96282 457.11603 L329.49814 465.04156" />
    <path d="M329.49814 465.04156 L321.57261 499.57688" />
    <path d="M321.57261 499.57688 L287.03729 491.65135" />
    <path d="M287.03729 491.65135 L294.96282 457.11603" />
    <path d="M290.87819 502.82853 L326.30533 503.47661" />
    <path d="M326.30533 503.47661 L325.65725 538.90376" />
    <path d="M325.65725 538.90376 L290.2301 538.25567" />
    <path d="M290.2301 538.25567 L290.87819 502.82853" />
    <path d="M295.39604 541.88999 L329.76356 550.51415" />
    <path d="M329.76356 550.51415 L321.1394 584.88167" />
    <path d="M321.1394 584.88167 L286.77188 576.25751" />
    <path d="M286.77188 576.25751 L295.39604 541.88999" />
    <path d="M296.41505 583.83142 L330.34181 594.05284" />
    <path d="M330.34181 594.05284 L320.12039 627.9796" />
    <path d="M320.12039 627.9796 L286.19363 617.75818" />
    <path d="M286.19363 617.75818 L296.41505 583.83142" />
    <path d="M297.53818 625.7839 L330.90901 637.69566" />
    <path d="M330.90901 637.69566 L318.99725 671.06649" />
    <path d="M318.99725 671.06649 L285.62642 659.15473" />
    <path d="M285.62642 659.15473 L297.53818 625.7839" />
    <path d="M290.96091 672.82788 L326.38472 673.63808" />
    <path d="M326.38472 673.63808 L325.57452 709.06188" />
    <path d="M325.57452 709.06188 L290.15072 708.25169" />
    <path d="M290.15072 708.25169 L290.96091 672.82788" />
    <path d="M296.88263 711.14572 L330.58657 722.07948" />
    <path d="M330.58657 722.07948 L319.65281 755.78342" />
    <path d="M319.65281 755.78342 L285.94887 744.84966" />
    <path d="M285.94887 744.84966 L296.88263 711.14572" />
    <path d="M295.40798 754.48127 L329.7707 763.12451" />
    <path d="M329.7707 763.12451 L321.12746 797.48724" />
    <path d="M321.12746 797.48724 L286.76473 788.84399" />
    <path d="M286.76473 788.84399 L295.40798 754.48127" />
    <path d="M297.99284 795.65272 L331.11894 808.22906" />
    <path d="M331.11894 808.22906 L318.54259 841.35516" />
    <path d="M318.54259 841.35516 L285.4165 828.77881" />
    <path d="M285.4165 828.77881 L297.99284 795.65272" />
    <path d="M296.42732 838.94295 L330.34839 849.18322" />
    <path d="M330.34839 849.18322 L320.10812 883.1043" />
    <path d="M320.10812 883.1043 L286.18704 872.86402" />
    <path d="M286.18704 872.86402 L296.42732 838.94295" />
    <path d="M298.85048 880.32549 L331.48553 894.12607" />
    <path d="M331.48553 894.12607 L317.68496 926.76112" />
    <path d="M317.68496 926.76112 L285.0499 912.96055" />
    <path d="M285.0499 912.96055 L298.85048 880.32549" />
    <path d="M294.259 925.29024 L329.04046 932.05427" />
    <path d="M329.04046 932.05427 L322.27644 966.83574" />
    <path d="M322.27644 966.83574 L287.49497 960.07171" />
    <path d="M287.49497 960.07171 L294.259 925.29024" />
    <path d="M332.91694 35.58835 L368.34866 35.27914" />
    <path d="M368.34866 35.27914 L368.65787 70.71086" />
    <path d="M368.65787 70.71086 L333.22614 71.02007" />
    <path d="M333.22614 71.02007 L332.91694 35.58835" />
    <path d="M333.04025 77.98343 L368.47327 77.92214" />
    <path d="M368.47327 77.92214 L368.53455 113.35516" />
    <path d="M368.53455 113.35516 L333.10154 113.41644" />
    <path d="M333.10154 113.41644 L333.04025 77.98343" />
    <path d="M333.7216 119.84477 L369.13161 121.12318" />
    <path d="M369.13161 121.12318 L367.8532 156.53318" />
    <path d="M367.8532 156.53318 L332.4432 155.25477" />
    <path d="M332.4432 155.25477 L333.7216 119.84477" />
    <path d="M333.6319 162.44832 L369.04774 163.55316" />
    <path d="M369.04774 163.55316 L367.9429 198.969" />
    <path d="M367.9429 198.969 L332.52706 197.86416" />
    <path d="M332.52706 197.86416 L333.6319 162.44832" />
    <path d="M335.02484 203.7529 L370.26284 207.46578" />
    <path d="M370.26284 207.46578 L366.54996 242.70379" />
    <path d="M366.54996 242.70379 L331.31196 238.99091" />
    <path d="M331.31196 238.99091 L335.02484 203.7529" />
    <path d="M333.30242 247.80293 L368.73251 248.26305" />
    <path d="M368.73251 248.26305 L368.27238 283.69314" />
    <path d="M368.27238 283.69314 L332.8423 283.23301" />
    <path d="M332.8423 283.23301 L333.30242 247.80293" />
    <path d="M334.99671 288.81507 L370.24004 292.47702" />
    <path d="M370.24004 292.47702 L366.57809 327.72036" />
    <path d="M366.57809 327.72036 L331.33476 324.05841" />
    <path d="M331.33476 324.05841 L334.99671 288.81507" />
    <path d="M335.09985 331.25148 L370.32332 335.09985" />
    <path d="M370.32332 335.09985 L366.47495 370.32332" />
    <path d="M366.47495 370.32332 L331.25148 366.47495" />
    <path d="M331.25148 366.47495 L335.09985 331.25148" />
    <path d="M336.22553 372.91829 L371.1762 378.74522" />
    <path d="M371.1762 378.74522 L365.34927 413.69589" />
    <path d="M365.34927 413.69589 L330.3986 407.86896" />
    <path d="M330.3986 407.86896 L336.22553 372.91829" />
    <path d="M334.94527 416.416 L370.19817 419.98464" />
    <path d="M370.19817 419.98464 L366.62954 455.23754" />
    <path d="M366.62954 455.23754 L331.37663 451.66891" />
    <path d="M331.37663 451.66891 L334.94527 416.416" />
    <path d="M333.40515 460.30182 L368.83203 460.96421" />
    <path d="M368.83203 460.96421 L368.16965 496.39109" />
    <path d="M368.16965 496.39109 L332.74277 495.7287" />
    <path d="M332.74277 495.7287 L333.40515 460.30182" />
    <path d="M338.77917 498.87629 L372.77726 508.85791" />
    <path d="M372.77726 508.85791 L362.79563 542.856" />
    <path d="M362.79563 542.856 L328.79755 532.87437" />
    <path d="M328.79755 532.87437 L338.77917 498.87629" />
    <path d="M333.2999 545.44318 L368.73005 545.89833" />
    <path d="M368.73005 545.89833 L368.2749 581.32847" />
    <path d="M368.2749 581.32847 L332.84475 580.87333" />
    <path d="M332.84475 580.87333 L333.2999 545.44318" />
    <path d="M337.60083 584.60139 L372.09153 592.71894" />
    <path d="M372.09153 592.71894 L363.97397 627.20964" />
    <path d="M363.97397 627.20964 L329.48328 619.09208" />
    <path d="M329.48328 619.09208 L337.60083 584.60139" />
    <path d="M334.8295 629.10949 L370.10311 632.4673" />
    <path d="M370.10311 632.4673 L366.7453 667.74091" />
    <path d="M366.7453 667.74091 L331.47169 664.3831" />
    <path d="M331.47169 664.3831 L334.8295 629.10949" />
    <path d="M338.13526 669.31909 L372.41319 678.29274" />
    <path d="M372.41319 678.29274 L363.43954 712.57067" />
    <path d="M363.43954 712.57067 L329.16161 703.59702" />
    <path d="M329.16161 703.59702 L338.13526 669.31909" />
    <path d="M335.409 713.68438 L370.56759 718.08616" />
    <path d="M370.56759 718.08616 L366.16581 753.24476" />
    <path d="M366.16581 753.24476 L331.00721 748.84297" />
    <path d="M331.00721 748.84297 L335.409 713.68438" />
    <path d="M336.69441 755.26858 L371.50307 761.89126" />
    <path d="M371.50307 761.89126 L364.88039 796.69992" />
    <path d="M364.88039 796.69992 L330.07173 790.07724" />
    <path d="M330.07173 790.07724 L336.69441 755.26858" />
    <path d="M335.56482 798.60358 L370.68776 803.28136" />
    <path d="M370.68776 803.28136 L366.00998 838.4043" />
    <path d="M366.00998 838.4043 L330.88704 833.72652" />
    <path d="M330.88704 833.72652 L335.56482 798.60358" />
    <path d="M334.86137 841.68162 L370.1294 845.09759" />
    <path d="M370.1294 845.09759 L366.71343 880.36562" />
    <path d="M366.71343 880.36562 L331.4454 876.94965" />
    <path d="M331.4454 876.94965 L334.86137 841.68162" />
    <path d="M342.54299 879.88362 L374.44709 895.2989" />
    <path d="M374.44709 895.2989 L359.03181 927.203" />
    <path d="M359.03181 927.203 L327.12771 911.78771" />
    <path d="M327.12771 911.78771 L342.54299 879.88362" />
    <path d="M333.1407 928.2769 L368.57349 928.41629" />
    <path d="M368.57349 928.41629 L368.4341 963.84909" />
    <path d="M368.4341 963.84909 L333.00131 963.7097" />
    <path d="M333.00131 963.7097 L333.1407 928.2769" />
    <path d="M375.43662 35.58835 L410.86834 35.27914" />
    <path d="M410.86834 35.27914 L411.17755 70.71086" />
    <path d="M411.17755 70.71086 L375.74583 71.02007" />
    <path d="M375.74583 71.02007 L375.43662 35.58835" />
    <path d="M375.47401 78.07007 L410.90631 77.83622" />
    <path d="M410.90631 77.83622 L411.14016 113.26852" />
    <path d="M411.14016 113.26852 L375.70786 113.50237" />
    <path d="M375.70786 113.50237 L375.47401 78.07007" />
    <path d="M376.21459 119.86965 L411.62641 121.09648" />
    <path d="M411.62641 121.09648 L410.39959 156.5083" />
    <path d="M410.39959 156.5083 L374.98776 155.28148" />
    <path d="M374.98776 155.28148 L376.21459 119.86965" />
    <path d="M375.80223 162.78295 L411.2328 163.2038" />
    <path d="M411.2328 163.2038 L410.81194 198.63438" />
    <path d="M410.81194 198.63438 L375.38137 198.21352" />
    <path d="M375.38137 198.21352 L375.80223 162.78295" />
    <path d="M376.04385 205.06983 L411.4656 205.96511" />
    <path d="M411.4656 205.96511 L410.57033 241.38686" />
    <path d="M410.57033 241.38686 L375.14857 240.49159" />
    <path d="M375.14857 240.49159 L376.04385 205.06983" />
    <path d="M376.74868 246.94456 L412.11056 249.18963" />
    <path d="M412.11056 249.18963 L409.86549 284.5515" />
    <path d="M409.86549 284.5515 L374.50362 282.30644" />
    <path d="M374.50362 282.30644 L376.74868 246.94456" />
    <path d="M378.30269 288.20234 L413.37246 293.26332" />
    <path d="M413.37246 293.26332 L408.31148 328.33309" />
    <path d="M408.31148 328.33309 L373.24171 323.27211" />
    <path d="M373.24171 323.27211 L378.30269 288.20234" />
    <path d="M376.90898 331.84398 L412.25051 334.38929" />
    <path d="M412.25051 334.38929 L409.70519 369.73083" />
    <path d="M409.70519 369.73083 L374.36366 367.18551" />
    <path d="M374.36366 367.18551 L376.90898 331.84398" />
    <path d="M379.47002 372.4196 L414.19457 379.47002" />
    <path d="M414.19457 379.47002 L407.14415 414.19457" />
    <path d="M407.14415 414.19457 L372.4196 407.14415" />
    <path d="M372.4196 407.14415 L379.47002 372.4196" />
    <path d="M375.68414 418.01714 L411.11671 418.20382" />
    <path d="M411.11671 418.20382 L410.93004 453.6364" />
    <path d="M410.93004 453.6364 L375.49746 453.44972" />
    <path d="M375.49746 453.44972 L375.68414 418.01714" />
    <path d="M380.84731 456.60927 L415.04427 465.88668" />
    <path d="M415.04427 465.88668 L405.76686 500.08364" />
    <path d="M405.76686 500.08364 L371.5699 490.80623" />
    <path d="M371.5699 490.80623 L380.84731 456.60927" />
    <path d="M382.15684 498.42904 L415.74418 509.7159" />
    <path d="M415.74418 509.7159 L404.45733 543.30324" />
    <path d="M404.45733 543.30324 L370.86999 532.01639" />
    <path d="M370.86999 532.01639 L382.15684 498.42904" />
    <path d="M381.60557 541.23124 L415.46167 551.68431" />
    <path d="M415.46167 551.68431 L405.00861 585.54041" />
    <path d="M405.00861 585.54041 L371.1525 575.08735" />
    <path d="M371.1525 575.08735 L381.60557 541.23124" />
    <path d="M381.93662 583.57921 L415.63339 594.53505" />
    <path d="M415.63339 594.53505 L404.67755 628.23181" />
    <path d="M404.67755 628.23181 L370.98078 617.27598" />
    <path d="M370.98078 617.27598 L381.93662 583.57921" />
    <path d="M377.37547 629.0878 L412.64448 632.49358" />
    <path d="M412.64448 632.49358 L409.2387 667.76259" />
    <path d="M409.2387 667.76259 L373.96969 664.35681" />
    <path d="M373.96969 664.35681 L377.37547 629.0878" />
    <path d="M380.11258 669.64567 L414.60629 677.75037" />
    <path d="M414.60629 677.75037 L406.50159 712.24409" />
    <path d="M406.50159 712.24409 L372.00788 704.13939" />
    <path d="M372.00788 704.13939 L380.11258 669.64567" />
    <path d="M376.46245 714.91708 L411.85457 716.61993" />
    <path d="M411.85457 716.61993 L410.15173 752.01205" />
    <path d="M410.15173 752.01205 L374.7596 750.30921" />
    <path d="M374.7596 750.30921 L376.46245 714.91708" />
    <path d="M379.04194 755.38675 L413.90458 761.71911" />
    <path d="M413.90458 761.71911 L407.57223 796.58175" />
    <path d="M407.57223 796.58175 L372.70959 790.2494" />
    <path d="M372.70959 790.2494 L379.04194 755.38675" />
    <path d="M379.21766 797.78584 L414.02518 804.41451" />
    <path d="M414.02518 804.41451 L407.39651 839.22203" />
    <path d="M407.39651 839.22203 L372.58899 832.59336" />
    <path d="M372.58899 832.59336 L379.21766 797.78584" />
    <path d="M382.93303 838.21726 L416.11345 850.64957" />
    <path d="M416.11345 850.64957 L403.68114 883.82999" />
    <path d="M403.68114 883.82999 L370.50072 871.39768" />
    <path d="M370.50072 871.39768 L382.93303 838.21726" />
    <path d="M382.02087 881.1743 L415.67609 892.25709" />
    <path d="M415.67609 892.25709 L404.5933 925.91232" />
    <path d="M404.5933 925.91232 L370.93808 914.82953" />
    <path d="M370.93808 914.82953 L382.02087 881.1743" />
    <path d="M385.83672 922.14762 L417.22245 938.59262" />
    <path d="M417.22245 938.59262 L400.77746 969.97836" />
    <path d="M400.77746 969.97836 L369.39172 953.53336" />
    <path d="M369.39172 953.53336 L385.83672 922.14762" />
    <path d="M417.95631 35.58835 L453.38803 35.27914" />
    <path d="M453.38803 35.27914 L453.69724 70.71086" />
    <path d="M453.69724 70.71086 L418.26551 71.02007" />
    <path d="M418.26551 71.02007 L417.95631 35.58835" />
    <path d="M418.44502 77.62418 L453.87188 78.28754" />
    <path d="M453.87188 78.28754 L453.20852 113.7144" />
    <path d="M453.20852 113.7144 L417.78166 113.05104" />
    <path d="M417.78166 113.05104 L418.44502 77.62418" />
    <path d="M418.39251 120.1946 L453.82115 120.75471" />
    <path d="M453.82115 120.75471 L453.26104 156.18336" />
    <path d="M453.26104 156.18336 L417.83239 155.62324" />
    <path d="M417.83239 155.62324 L418.39251 120.1946" />
    <path d="M418.30339 162.80106 L453.73438 163.18528" />
    <path d="M453.73438 163.18528 L453.35015 198.61627" />
    <path d="M453.35015 198.61627 L417.91917 198.23204" />
    <path d="M417.91917 198.23204 L418.30339 162.80106" />
    <path d="M420.60858 203.32463 L455.73049 208.01015" />
    <path d="M455.73049 208.01015 L451.04496 243.13206" />
    <path d="M451.04496 243.13206 L415.92306 238.44654" />
    <path d="M415.92306 238.44654 L420.60858 203.32463" />
    <path d="M420.66846 245.79867 L455.77613 250.58972" />
    <path d="M455.77613 250.58972 L450.98508 285.69739" />
    <path d="M450.98508 285.69739 L415.87741 280.90634" />
    <path d="M415.87741 280.90634 L420.66846 245.79867" />
    <path d="M418.36669 290.29839 L453.7961 290.80763" />
    <path d="M453.7961 290.80763 L453.28686 326.23704" />
    <path d="M453.28686 326.23704 L417.85745 325.7278" />
    <path d="M417.85745 325.7278 L418.36669 290.29839" />
    <path d="M421.68588 330.1044 L456.50977 336.64651" />
    <path d="M456.50977 336.64651 L449.96767 371.4704" />
    <path d="M449.96767 371.4704 L415.14377 364.9283" />
    <path d="M415.14377 364.9283 L421.68588 330.1044" />
    <path d="M419.09885 374.65426 L454.4796 376.57916" />
    <path d="M454.4796 376.57916 L452.55469 411.95991" />
    <path d="M452.55469 411.95991 L417.17395 410.03501" />
    <path d="M417.17395 410.03501 L419.09885 374.65426" />
    <path d="M423.11868 414.23382 L457.41973 423.11868" />
    <path d="M457.41973 423.11868 L448.53486 457.41973" />
    <path d="M448.53486 457.41973 L414.23382 448.53486" />
    <path d="M414.23382 448.53486 L423.11868 414.23382" />
    <path d="M418.59378 460.15923 L454.014 461.11347" />
    <path d="M454.014 461.11347 L453.05976 496.53369" />
    <path d="M453.05976 496.53369 L417.63954 495.57945" />
    <path d="M417.63954 495.57945 L418.59378 460.15923" />
    <path d="M421.02019 500.65435 L456.03856 506.05956" />
    <path d="M456.03856 506.05956 L450.63335 541.07793" />
    <path d="M450.63335 541.07793 L415.61498 535.67272" />
    <path d="M415.61498 535.67272 L421.02019 500.65435" />
    <path d="M426.69133 540.0557 L459.1569 554.25038" />
    <path d="M459.1569 554.25038 L444.96222 586.71596" />
    <path d="M444.96222 586.71596 L412.49664 572.52127" />
    <path d="M412.49664 572.52127 L426.69133 540.0557" />
    <path d="M424.56296 583.52521 L458.20707 594.6417" />
    <path d="M458.20707 594.6417 L447.09058 628.28581" />
    <path d="M447.09058 628.28581 L413.44647 617.16932" />
    <path d="M413.44647 617.16932 L424.56296 583.52521" />
    <path d="M427.29559 624.86739 L459.38458 639.89401" />
    <path d="M459.38458 639.89401 L444.35796 671.983" />
    <path d="M444.35796 671.983 L412.26897 656.95638" />
    <path d="M412.26897 656.95638 L427.29559 624.86739" />
    <path d="M423.93763 668.89042 L457.88124 679.05574" />
    <path d="M457.88124 679.05574 L447.71592 712.99935" />
    <path d="M447.71592 712.99935 L413.77231 702.83403" />
    <path d="M413.77231 702.83403 L423.93763 668.89042" />
    <path d="M428.98988 709.36046 L459.93088 726.62767" />
    <path d="M459.93088 726.62767 L442.66366 757.56868" />
    <path d="M442.66366 757.56868 L411.72266 740.30146" />
    <path d="M411.72266 740.30146 L428.98988 709.36046" />
    <path d="M429.16619 751.83083 L459.9802 769.32367" />
    <path d="M459.9802 769.32367 L442.48735 800.13768" />
    <path d="M442.48735 800.13768 L411.67335 782.64483" />
    <path d="M411.67335 782.64483 L429.16619 751.83083" />
    <path d="M425.21462 795.80738 L458.52332 807.89178" />
    <path d="M458.52332 807.89178 L446.43892 841.20049" />
    <path d="M446.43892 841.20049 L413.13022 829.11609" />
    <path d="M413.13022 829.11609 L425.21462 795.80738" />
    <path d="M418.25693 843.16159 L453.6888 843.45379" />
    <path d="M453.6888 843.45379 L453.39661 878.88565" />
    <path d="M453.39661 878.88565 L417.96474 878.59346" />
    <path d="M417.96474 878.59346 L418.25693 843.16159" />
    <path d="M434.12203 878.5464 L460.82367 901.83857" />
    <path d="M460.82367 901.83857 L437.53151 928.54021" />
    <path d="M437.53151 928.54021 L410.82987 905.24804" />
    <path d="M410.82987 905.24804 L434.12203 878.5464" />
    <path d="M422.26063 924.99854 L456.89122 932.49685" />
    <path d="M456.89122 932.49685 L449.39292 967.12744" />
    <path d="M449.39292 967.12744 L414.76232 959.62914" />
    <path d="M414.76232 959.62914 L422.26063 924.99854" />
    <path d="M460.47599 35.58835 L495.90771 35.27914" />
    <path d="M495.90771 35.27914 L496.21692 70.71086" />
    <path d="M496.21692 70.71086 L460.7852 71.02007" />
    <path d="M460.7852 71.02007 L460.47599 35.58835" />
    <path d="M460.56637 78.01654 L495.99921 77.8892" />
    <path d="M495.99921 77.8892 L496.12654 113.32205" />
    <path d="M496.12654 113.32205 L460.6937 113.44938" />
    <path d="M460.6937 113.44938 L460.56637 78.01654" />
    <path d="M460.76831 120.33512 L496.20031 120.61083" />
    <path d="M496.20031 120.61083 L495.9246 156.04283" />
    <path d="M495.9246 156.04283 L460.4926 155.76712" />
    <path d="M460.4926 155.76712 L460.76831 120.33512" />
    <path d="M461.32041 162.32756 L496.72756 163.68261" />
    <path d="M496.72756 163.68261 L495.37251 199.08976" />
    <path d="M495.37251 199.08976 L459.96536 197.73471" />
    <path d="M459.96536 197.73471 L461.32041 162.32756" />
    <path d="M462.99842 203.42458 L498.15022 207.88031" />
    <path d="M498.15022 207.88031 L493.69449 243.03211" />
    <path d="M493.69449 243.03211 L458.54269 238.57638" />
    <path d="M458.54269 238.57638 L462.99842 203.42458" />
    <path d="M460.50348 248.15884 L495.93565 247.90506" />
    <path d="M495.93565 247.90506 L496.18943 283.33722" />
    <path d="M496.18943 283.33722 L460.75727 283.591" />
    <path d="M460.75727 283.591 L460.50348 248.15884" />
    <path d="M461.83584 289.42227 L497.1919 291.7571" />
    <path d="M497.1919 291.7571 L494.85707 327.11316" />
    <path d="M494.85707 327.11316 L459.50101 324.77833" />
    <path d="M459.50101 324.77833 L461.83584 289.42227" />
    <path d="M460.86482 332.83905 L496.29481 333.30576" />
    <path d="M496.29481 333.30576 L495.8281 368.73576" />
    <path d="M495.8281 368.73576 L460.3981 368.26904" />
    <path d="M460.3981 368.26904 L460.86482 332.83905" />
    <path d="M461.40551 374.84752 L496.80602 376.36614" />
    <path d="M496.80602 376.36614 L495.2874 411.76665" />
    <path d="M495.2874 411.76665 L459.88689 410.24803" />
    <path d="M459.88689 410.24803 L461.40551 374.84752" />
    <path d="M466.86294 413.55841 L500.61482 424.34325" />
    <path d="M500.61482 424.34325 L489.82998 458.09514" />
    <path d="M489.82998 458.09514 L456.07809 447.31029" />
    <path d="M456.07809 447.31029 L466.86294 413.55841" />
    <path d="M467.27097 455.87237 L500.82055 467.27097" />
    <path d="M500.82055 467.27097 L489.42195 500.82055" />
    <path d="M489.42195 500.82055 L455.87237 489.42195" />
    <path d="M455.87237 489.42195 L467.27097 455.87237" />
    <path d="M468.87049 497.67224 L501.54036 511.39017" />
    <path d="M501.54036 511.39017 L487.82243 544.06005" />
    <path d="M487.82243 544.06005 L455.15255 530.34211" />
    <path d="M455.15255 530.34211 L468.87049 497.67224" />
    <path d="M461.71583 544.6462 L497.08608 546.7552" />
    <path d="M497.08608 546.7552 L494.97708 582.12545" />
    <path d="M494.97708 582.12545 L459.60683 580.01645" />
    <path d="M459.60683 580.01645 L461.71583 544.6462" />
    <path d="M470.23539 582.19978 L502.05219 597.79444" />
    <path d="M502.05219 597.79444 L486.45753 629.61125" />
    <path d="M486.45753 629.61125 L454.64072 614.01658" />
    <path d="M454.64072 614.01658 L470.23539 582.19978" />
    <path d="M461.81684 629.59642 L497.17523 631.89558" />
    <path d="M497.17523 631.89558 L494.87608 667.25397" />
    <path d="M494.87608 667.25397 L459.51768 664.95482" />
    <path d="M459.51768 664.95482 L461.81684 629.59642" />
    <path d="M468.32537 667.98124 L501.3101 680.92379" />
    <path d="M501.3101 680.92379 L488.36755 713.90853" />
    <path d="M488.36755 713.90853 L455.38281 700.96597" />
    <path d="M455.38281 700.96597 L468.32537 667.98124" />
    <path d="M463.38532 713.36691 L498.44411 718.50343" />
    <path d="M498.44411 718.50343 L493.30759 753.56222" />
    <path d="M493.30759 753.56222 L458.2488 748.4257" />
    <path d="M458.2488 748.4257 L463.38532 713.36691" />
    <path d="M474.05975 751.29872 L503.03199 771.69755" />
    <path d="M503.03199 771.69755 L482.63316 800.66978" />
    <path d="M482.63316 800.66978 L453.66093 780.27096" />
    <path d="M453.66093 780.27096 L474.05975 751.29872" />
    <path d="M473.88664 793.84909 L503.0013 814.04412" />
    <path d="M503.0013 814.04412 L482.80627 843.15878" />
    <path d="M482.80627 843.15878 L453.69161 822.96375" />
    <path d="M453.69161 822.96375 L473.88664 793.84909" />
    <path d="M477.24045 835.99308 L503.377 859.91762" />
    <path d="M503.377 859.91762 L479.45246 886.05416" />
    <path d="M479.45246 886.05416 L453.31592 862.12962" />
    <path d="M453.31592 862.12962 L477.24045 835.99308" />
    <path d="M470.05296 879.90078 L501.98899 895.24982" />
    <path d="M501.98899 895.24982 L486.63995 927.18584" />
    <path d="M486.63995 927.18584 L454.70393 911.8368" />
    <path d="M454.70393 911.8368 L470.05296 879.90078" />
    <path d="M467.82381 923.3248 L501.08465 935.54035" />
    <path d="M501.08465 935.54035 L488.8691 968.80118" />
    <path d="M488.8691 968.80118 L455.60827 956.58564" />
    <path d="M455.60827 956.58564 L467.82381 923.3248" />
    <path d="M502.99568 35.58835 L538.4274 35.27914" />
    <path d="M538.4274 35.27914 L538.73661 70.71086" />
    <path d="M538.73661 70.71086 L503.30488 71.02007" />
    <path d="M503.30488 71.02007 L502.99568 35.58835" />
    <path d="M503.10359 77.99889 L538.53655 77.90674" />
    <path d="M538.53655 77.90674 L538.62869 113.3397" />
    <path d="M538.62869 113.3397 L503.19574 113.43184" />
    <path d="M503.19574 113.43184 L503.10359 77.99889" />
    <path d="M504.17887 119.49978 L539.55534 121.5017" />
    <path d="M539.55534 121.5017 L537.55342 156.87817" />
    <path d="M537.55342 156.87817 L502.17694 154.87625" />
    <path d="M502.17694 154.87625 L504.17887 119.49978" />
    <path d="M504.54127 161.70209 L539.87271 164.38379" />
    <path d="M539.87271 164.38379 L537.19102 199.71523" />
    <path d="M537.19102 199.71523 L501.85957 197.03354" />
    <path d="M501.85957 197.03354 L504.54127 161.70209" />
    <path d="M504.3648 204.37478 L539.71971 206.727" />
    <path d="M539.71971 206.727 L537.36749 242.08191" />
    <path d="M537.36749 242.08191 L502.01258 239.72969" />
    <path d="M502.01258 239.72969 L504.3648 204.37478" />
    <path d="M505.29168 246.12184 L540.49233 250.17357" />
    <path d="M540.49233 250.17357 L536.44061 285.37422" />
    <path d="M536.44061 285.37422 L501.23995 281.3225" />
    <path d="M501.23995 281.3225 L505.29168 246.12184" />
    <path d="M503.75907 289.96199 L539.17186 291.16065" />
    <path d="M539.17186 291.16065 L537.97321 326.57344" />
    <path d="M537.97321 326.57344 L502.56042 325.37478" />
    <path d="M502.56042 325.37478 L503.75907 289.96199" />
    <path d="M507.57868 329.54606 L542.10748 337.49994" />
    <path d="M542.10748 337.49994 L534.15361 372.02874" />
    <path d="M534.15361 372.02874 L499.6248 364.07486" />
    <path d="M499.6248 364.07486 L507.57868 329.54606" />
    <path d="M504.70006 374.16527 L540.00795 377.141" />
    <path d="M540.00795 377.141 L537.03223 412.4489" />
    <path d="M537.03223 412.4489 L501.72433 409.47317" />
    <path d="M501.72433 409.47317 L504.70006 374.16527" />
    <path d="M509.91974 413.28953 L543.40339 424.88037" />
    <path d="M543.40339 424.88037 L531.81255 458.36402" />
    <path d="M531.81255 458.36402 L498.3289 446.77318" />
    <path d="M498.3289 446.77318 L509.91974 413.28953" />
    <path d="M504.78229 459.13549 L540.0771 462.26261" />
    <path d="M540.0771 462.26261 L536.94999 497.55742" />
    <path d="M536.94999 497.55742 L501.65518 494.43031" />
    <path d="M501.65518 494.43031 L504.78229 459.13549" />
    <path d="M512.1988 497.35809 L544.37419 512.1988" />
    <path d="M544.37419 512.1988 L529.53348 544.37419" />
    <path d="M529.53348 544.37419 L497.35809 529.53348" />
    <path d="M497.35809 529.53348 L512.1988 497.35809" />
    <path d="M504.71736 544.22942 L540.02255 547.23704" />
    <path d="M540.02255 547.23704 L537.01493 582.54224" />
    <path d="M537.01493 582.54224 L501.70973 579.53461" />
    <path d="M501.70973 579.53461 L504.71736 544.22942" />
    <path d="M508.09408 584.35033 L542.42132 593.13345" />
    <path d="M542.42132 593.13345 L533.6382 627.46069" />
    <path d="M533.6382 627.46069 L499.31096 618.67757" />
    <path d="M499.31096 618.67757 L508.09408 584.35033" />
    <path d="M503.40255 630.45928 L538.83206 630.9616" />
    <path d="M538.83206 630.9616 L538.32974 666.39111" />
    <path d="M538.32974 666.39111 L502.90023 665.88879" />
    <path d="M502.90023 665.88879 L503.40255 630.45928" />
    <path d="M503.506 672.87899 L538.93204 673.58474" />
    <path d="M538.93204 673.58474 L538.22629 709.01078" />
    <path d="M538.22629 709.01078 L502.80025 708.30503" />
    <path d="M502.80025 708.30503 L503.506 672.87899" />
    <path d="M506.42162 712.99246 L541.33825 719.02005" />
    <path d="M541.33825 719.02005 L535.31066 753.93667" />
    <path d="M535.31066 753.93667 L500.39403 747.90908" />
    <path d="M500.39403 747.90908 L506.42162 712.99246" />
    <path d="M504.57042 756.95268 L539.89771 759.68853" />
    <path d="M539.89771 759.68853 L537.16187 795.01582" />
    <path d="M537.16187 795.01582 L501.83457 792.27998" />
    <path d="M501.83457 792.27998 L504.57042 756.95268" />
    <path d="M517.88067 793.62748 L545.7426 815.51847" />
    <path d="M545.7426 815.51847 L523.85161 843.3804" />
    <path d="M523.85161 843.3804 L495.98968 821.48941" />
    <path d="M495.98968 821.48941 L517.88067 793.62748" />
    <path d="M523.41771 836.09892 L545.79084 863.57519" />
    <path d="M545.79084 863.57519 L518.31457 885.94832" />
    <path d="M518.31457 885.94832 L495.94144 858.47205" />
    <path d="M495.94144 858.47205 L523.41771 836.09892" />
    <path d="M517.52315 878.71237 L545.69708 900.20032" />
    <path d="M545.69708 900.20032 L524.20913 928.37425" />
    <path d="M524.20913 928.37425 L496.0352 906.8863" />
    <path d="M496.0352 906.8863 L517.52315 878.71237" />
    <path d="M511.24598 922.92852 L544.00061 936.44283" />
    <path d="M544.00061 936.44283 L530.4863 969.19746" />
    <path d="M530.4863 969.19746 L497.73167 955.68315" />
    <path d="M497.73167 955.68315 L511.24598 922.92852" />
    <path d="M545.51536 35.58835 L580.94708 35.27914" />
    <path d="M580.94708 35.27914 L581.25629 70.71086" />
    <path d="M581.25629 70.71086 L545.82457 71.02007" />
    <path d="M545.82457 71.02007 L545.51536 35.58835" />
    <path d="M545.84701 77.77681 L581.27831 78.13047" />
    <path d="M581.27831 78.13047 L580.92465 113.56178" />
    <path d="M580.92465 113.56178 L545.49334 113.20811" />
    <path d="M545.49334 113.20811 L545.84701 77.77681" />
    <path d="M546.69878 119.49957 L582.07523 121.50193" />
    <path d="M582.07523 121.50193 L580.07287 156.87838" />
    <path d="M580.07287 156.87838 L544.69643 154.87602" />
    <path d="M544.69643 154.87602 L546.69878 119.49957" />
    <path d="M547.9001 161.01238 L583.08211 165.22293" />
    <path d="M583.08211 165.22293 L578.87156 200.40494" />
    <path d="M578.87156 200.40494 L543.68955 196.19439" />
    <path d="M543.68955 196.19439 L547.9001 161.01238" />
    <path d="M547.68529 203.70287 L582.91131 207.52781" />
    <path d="M582.91131 207.52781 L579.08636 242.75383" />
    <path d="M579.08636 242.75383 L543.86035 238.92888" />
    <path d="M543.86035 238.92888 L547.68529 203.70287" />
    <path d="M547.57826 246.3091 L582.82476 249.94047" />
    <path d="M582.82476 249.94047 L579.19339 285.18697" />
    <path d="M579.19339 285.18697 L543.94689 281.5556" />
    <path d="M543.94689 281.5556 L547.57826 246.3091" />
    <path d="M548.20134 288.33828 L583.31526 293.08323" />
    <path d="M583.31526 293.08323 L578.57032 328.19715" />
    <path d="M578.57032 328.19715 L543.45639 323.45221" />
    <path d="M543.45639 323.45221 L548.20134 288.33828" />
    <path d="M547.38726 331.50536 L582.66787 334.78884" />
    <path d="M582.66787 334.78884 L579.38439 370.06945" />
    <path d="M579.38439 370.06945 L544.10378 366.78597" />
    <path d="M544.10378 366.78597 L547.38726 331.50536" />
    <path d="M547.18776 374.19233 L582.50058 377.10902" />
    <path d="M582.50058 377.10902 L579.58389 412.42184" />
    <path d="M579.58389 412.42184 L544.27107 409.50515" />
    <path d="M544.27107 409.50515 L547.18776 374.19233" />
    <path d="M553.74298 412.70175 L586.51085 426.18393" />
    <path d="M586.51085 426.18393 L573.02867 458.9518" />
    <path d="M573.02867 458.9518 L540.2608 445.46962" />
    <path d="M540.2608 445.46962 L553.74298 412.70175" />
    <path d="M550.11754 457.09313 L584.63915 465.07817" />
    <path d="M584.63915 465.07817 L576.65412 499.59978" />
    <path d="M576.65412 499.59978 L542.1325 491.61475" />
    <path d="M542.1325 491.61475 L550.11754 457.09313" />
    <path d="M547.1435 501.78898 L582.46299 504.62382" />
    <path d="M582.46299 504.62382 L579.62815 539.9433" />
    <path d="M579.62815 539.9433 L544.30867 537.10847" />
    <path d="M544.30867 537.10847 L547.1435 501.78898" />
    <path d="M558.42767 538.82635 L587.9453 558.42767" />
    <path d="M587.9453 558.42767 L568.34398 587.9453" />
    <path d="M568.34398 587.9453 L538.82635 568.34398" />
    <path d="M538.82635 568.34398 L558.42767 538.82635" />
    <path d="M560.33212 581.03734 L588.254 602.85181" />
    <path d="M588.254 602.85181 L566.43953 630.77369" />
    <path d="M566.43953 630.77369 L538.51765 608.95921" />
    <path d="M538.51765 608.95921 L560.33212 581.03734" />
    <path d="M556.38329 624.36869 L587.44234 641.42266" />
    <path d="M587.44234 641.42266 L570.38837 672.48171" />
    <path d="M570.38837 672.48171 L539.32932 655.42774" />
    <path d="M539.32932 655.42774 L556.38329 624.36869" />
    <path d="M560.69343 666.035 L588.29571 688.25249" />
    <path d="M588.29571 688.25249 L566.07822 715.85477" />
    <path d="M566.07822 715.85477 L538.47594 693.63727" />
    <path d="M538.47594 693.63727 L560.69343 666.035" />
    <path d="M555.10212 709.81861 L587.03179 725.18086" />
    <path d="M587.03179 725.18086 L571.66954 757.11053" />
    <path d="M571.66954 757.11053 L539.73987 741.74828" />
    <path d="M539.73987 741.74828 L555.10212 709.81861" />
    <path d="M562.73768 750.93767 L588.43241 775.3361" />
    <path d="M588.43241 775.3361 L564.03398 801.03083" />
    <path d="M564.03398 801.03083 L538.33925 776.6324" />
    <path d="M538.33925 776.6324 L562.73768 750.93767" />
    <path d="M545.95183 800.5093 L581.38047 801.06994" />
    <path d="M581.38047 801.06994 L580.81982 836.49858" />
    <path d="M580.81982 836.49858 L545.39118 835.93793" />
    <path d="M545.39118 835.93793 L545.95183 800.5093" />
    <path d="M564.17389 835.98105 L588.42839 861.81169" />
    <path d="M588.42839 861.81169 L562.59776 886.06619" />
    <path d="M562.59776 886.06619 L538.34326 860.23555" />
    <path d="M538.34326 860.23555 L564.17389 835.98105" />
    <path d="M562.20435 878.51621 L588.41292 902.36183" />
    <path d="M588.41292 902.36183 L564.56731 928.5704" />
    <path d="M564.56731 928.5704 L538.35873 904.72479" />
    <path d="M538.35873 904.72479 L562.20435 878.51621" />
    <path d="M545.64498 928.3708 L581.07801 928.32214" />
    <path d="M581.07801 928.32214 L581.12668 963.75518" />
    <path d="M581.12668 963.75518 L545.69364 963.80384" />
    <path d="M545.69364 963.80384 L545.64498 928.3708" />
    <path d="M588.03505 35.58835 L623.46677 35.27914" />
    <path d="M623.46677 35.27914 L623.77598 70.71086" />
    <path d="M623.77598 70.71086 L588.34425 71.02007" />
    <path d="M588.34425 71.02007 L588.03505 35.58835" />
    <path d="M588.55915 77.59016 L623.98464 78.32293" />
    <path d="M623.98464 78.32293 L623.25188 113.74842" />
    <path d="M623.25188 113.74842 L587.82638 113.01565" />
    <path d="M587.82638 113.01565 L588.55915 77.59016" />
    <path d="M588.62108 120.05063 L624.04386 120.90455" />
    <path d="M624.04386 120.90455 L623.18994 156.32733" />
    <path d="M623.18994 156.32733 L587.76716 155.47341" />
    <path d="M587.76716 155.47341 L588.62108 120.05063" />
    <path d="M590.48535 160.961 L625.65317 165.2885" />
    <path d="M625.65317 165.2885 L621.32567 200.45632" />
    <path d="M621.32567 200.45632 L586.15785 196.12882" />
    <path d="M586.15785 196.12882 L590.48535 160.961" />
    <path d="M588.4621 205.24283 L623.89103 205.78494" />
    <path d="M623.89103 205.78494 L623.34892 241.21386" />
    <path d="M623.34892 241.21386 L587.92 240.67176" />
    <path d="M587.92 240.67176 L588.4621 205.24283" />
    <path d="M593.60663 243.91941 L627.73413 253.44915" />
    <path d="M627.73413 253.44915 L618.20439 287.57665" />
    <path d="M618.20439 287.57665 L584.07689 278.04691" />
    <path d="M584.07689 278.04691 L593.60663 243.91941" />
    <path d="M590.54041 288.47719 L625.69604 292.90261" />
    <path d="M625.69604 292.90261 L621.27062 328.05824" />
    <path d="M621.27062 328.05824 L586.11499 323.63282" />
    <path d="M586.11499 323.63282 L590.54041 288.47719" />
    <path d="M590.16569 331.29357 L625.39934 335.04758" />
    <path d="M625.39934 335.04758 L621.64533 370.28123" />
    <path d="M621.64533 370.28123 L586.41168 366.52722" />
    <path d="M586.41168 366.52722 L590.16569 331.29357" />
    <path d="M595.35475 370.58193 L628.63067 382.75633" />
    <path d="M628.63067 382.75633 L616.45627 416.03224" />
    <path d="M616.45627 416.03224 L583.18036 403.85785" />
    <path d="M583.18036 403.85785 L595.35475 370.58193" />
    <path d="M588.28584 418.0139 L623.71838 418.2071" />
    <path d="M623.71838 418.2071 L623.52519 453.63964" />
    <path d="M623.52519 453.63964 L588.09264 453.44645" />
    <path d="M588.09264 453.44645 L588.28584 418.0139" />
    <path d="M599.6833 454.07641 L630.17556 472.12425" />
    <path d="M630.17556 472.12425 L612.12772 502.61651" />
    <path d="M612.12772 502.61651 L581.63546 484.56866" />
    <path d="M581.63546 484.56866 L599.6833 454.07641" />
    <path d="M599.85327 496.55315 L630.2185 514.8139" />
    <path d="M630.2185 514.8139 L611.95776 545.17913" />
    <path d="M611.95776 545.17913 L581.59252 526.91839" />
    <path d="M581.59252 526.91839 L599.85327 496.55315" />
    <path d="M592.03042 542.52359 L626.76775 549.51074" />
    <path d="M626.76775 549.51074 L619.7806 584.24807" />
    <path d="M619.7806 584.24807 L585.04327 577.26092" />
    <path d="M585.04327 577.26092 L592.03042 542.52359" />
    <path d="M590.25057 586.34346 L625.46757 590.25057" />
    <path d="M625.46757 590.25057 L621.56046 625.46757" />
    <path d="M621.56046 625.46757 L586.34346 621.56046" />
    <path d="M586.34346 621.56046 L590.25057 586.34346" />
    <path d="M592.79387 627.07488 L627.25583 635.31356" />
    <path d="M627.25583 635.31356 L619.01715 669.77552" />
    <path d="M619.01715 669.77552 L584.55519 661.53684" />
    <path d="M584.55519 661.53684 L592.79387 627.07488" />
    <path d="M601.97208 666.2006 L630.64979 687.01145" />
    <path d="M630.64979 687.01145 L609.83894 715.68916" />
    <path d="M609.83894 715.68916 L581.16123 694.87831" />
    <path d="M581.16123 694.87831 L601.97208 666.2006" />
    <path d="M603.51937 708.52348 L630.84659 731.07843" />
    <path d="M630.84659 731.07843 L608.29165 758.40565" />
    <path d="M608.29165 758.40565 L580.96443 735.8507" />
    <path d="M580.96443 735.8507 L603.51937 708.52348" />
    <path d="M597.71794 752.30483 L629.58493 767.79668" />
    <path d="M629.58493 767.79668 L614.09309 799.66367" />
    <path d="M614.09309 799.66367 L582.22609 784.17183" />
    <path d="M582.22609 784.17183 L597.71794 752.30483" />
    <path d="M603.4995 793.56476 L630.84469 816.09793" />
    <path d="M630.84469 816.09793 L608.31152 843.44311" />
    <path d="M608.31152 843.44311 L580.96634 820.90995" />
    <path d="M580.96634 820.90995 L603.4995 793.56476" />
    <path d="M590.16152 841.53317 L625.39597 845.27963" />
    <path d="M625.39597 845.27963 L621.64951 880.51408" />
    <path d="M621.64951 880.51408 L586.41505 876.76762" />
    <path d="M586.41505 876.76762 L590.16152 841.53317" />
    <path d="M600.07341 879.17657 L630.27225 897.7112" />
    <path d="M630.27225 897.7112 L611.73761 927.91004" />
    <path d="M611.73761 927.91004 L581.53878 909.37541" />
    <path d="M581.53878 909.37541 L600.07341 879.17657" />
    <path d="M592.94813 924.6187 L627.3498 933.10561" />
    <path d="M627.3498 933.10561 L618.8629 967.50728" />
    <path d="M618.8629 967.50728 L584.46122 959.02038" />
    <path d="M584.46122 959.02038 L592.94813 924.6187" />
    <path d="M630.55473 35.58835 L665.98645 35.27914" />
    <path d="M665.98645 35.27914 L666.29566 70.71086" />
    <path d="M666.29566 70.71086 L630.86394 71.02007" />
    <path d="M630.86394 71.02007 L630.55473 35.58835" />
    <path d="M631.30787 77.37316 L666.72133 78.55196" />
    <path d="M666.72133 78.55196 L665.54252 113.96542" />
    <path d="M665.54252 113.96542 L630.12907 112.78662" />
    <path d="M630.12907 112.78662 L631.30787 77.37316" />
    <path d="M632.73258 118.65713 L667.95705 122.49636" />
    <path d="M667.95705 122.49636 L664.11781 157.72083" />
    <path d="M664.11781 157.72083 L628.89335 153.88159" />
    <path d="M628.89335 153.88159 L632.73258 118.65713" />
    <path d="M631.08898 162.61981 L666.51405 163.37244" />
    <path d="M666.51405 163.37244 L665.76142 198.79752" />
    <path d="M665.76142 198.79752 L630.33634 198.04488" />
    <path d="M630.33634 198.04488 L631.08898 162.61981" />
    <path d="M630.73885 205.48167 L666.17187 205.542" />
    <path d="M666.17187 205.542 L666.11154 240.97502" />
    <path d="M666.11154 240.97502 L630.67852 240.91469" />
    <path d="M630.67852 240.91469 L630.73885 205.48167" />
    <path d="M631.34476 247.41746 L666.75577 248.66759" />
    <path d="M666.75577 248.66759 L665.50563 284.0786" />
    <path d="M665.50563 284.0786 L630.09462 282.82847" />
    <path d="M630.09462 282.82847 L631.34476 247.41746" />
    <path d="M636.86139 286.04094 L670.65197 296.70391" />
    <path d="M670.65197 296.70391 L659.98901 330.49449" />
    <path d="M659.98901 330.49449 L626.19842 319.83153" />
    <path d="M626.19842 319.83153 L636.86139 286.04094" />
    <path d="M630.91058 332.87122 L666.34138 333.27279" />
    <path d="M666.34138 333.27279 L665.93981 368.70358" />
    <path d="M665.93981 368.70358 L630.50902 368.30202" />
    <path d="M630.50902 368.30202 L630.91058 332.87122" />
    <path d="M640.24019 369.62678 L672.1055 385.12208" />
    <path d="M672.1055 385.12208 L656.6102 416.98739" />
    <path d="M656.6102 416.98739 L624.74489 401.49209" />
    <path d="M624.74489 401.49209 L640.24019 369.62678" />
    <path d="M637.00875 413.52395 L670.72802 424.41033" />
    <path d="M670.72802 424.41033 L659.84164 458.1296" />
    <path d="M659.84164 458.1296 L626.12237 447.24322" />
    <path d="M626.12237 447.24322 L637.00875 413.52395" />
    <path d="M631.21312 460.13944 L666.63222 461.13438" />
    <path d="M666.63222 461.13438 L665.63727 496.55348" />
    <path d="M665.63727 496.55348 L630.21818 495.55853" />
    <path d="M630.21818 495.55853 L631.21312 460.13944" />
    <path d="M637.12514 498.50412 L670.78722 509.56609" />
    <path d="M670.78722 509.56609 L659.72525 543.22816" />
    <path d="M659.72525 543.22816 L626.06318 532.1662" />
    <path d="M626.06318 532.1662 L637.12514 498.50412" />
    <path d="M633.82834 543.02206 L668.78896 548.78897" />
    <path d="M668.78896 548.78897 L663.02206 583.74959" />
    <path d="M663.02206 583.74959 L628.06143 577.98269" />
    <path d="M628.06143 577.98269 L633.82834 543.02206" />
    <path d="M648.31314 580.8508 L673.47991 605.79345" />
    <path d="M673.47991 605.79345 L648.53726 630.96023" />
    <path d="M648.53726 630.96023 L623.37048 606.01757" />
    <path d="M623.37048 606.01757 L648.31314 580.8508" />
    <path d="M648.48453 623.3703 L673.48009 648.48453" />
    <path d="M673.48009 648.48453 L648.36587 673.48009" />
    <path d="M648.36587 673.48009 L623.3703 648.36587" />
    <path d="M623.3703 648.36587 L648.48453 623.3703" />
    <path d="M633.52563 670.80154 L668.56854 676.04531" />
    <path d="M668.56854 676.04531 L663.32477 711.08822" />
    <path d="M663.32477 711.08822 L628.28186 705.84445" />
    <path d="M628.28186 705.84445 L633.52563 670.80154" />
    <path d="M638.36545 710.51783 L671.37194 723.40482" />
    <path d="M671.37194 723.40482 L658.48494 756.41131" />
    <path d="M658.48494 756.41131 L625.47846 743.52431" />
    <path d="M625.47846 743.52431 L638.36545 710.51783" />
    <path d="M632.92653 756.29815 L668.1113 760.48559" />
    <path d="M668.1113 760.48559 L663.92386 795.67036" />
    <path d="M663.92386 795.67036 L628.73909 791.48292" />
    <path d="M628.73909 791.48292 L632.92653 756.29815" />
    <path d="M642.33154 794.20129 L672.72784 812.41028" />
    <path d="M672.72784 812.41028 L654.51886 842.80658" />
    <path d="M654.51886 842.80658 L624.12255 824.5976" />
    <path d="M624.12255 824.5976 L642.33154 794.20129" />
    <path d="M633.61743 840.8127 L668.63611 846.21585" />
    <path d="M668.63611 846.21585 L663.23297 881.23454" />
    <path d="M663.23297 881.23454 L628.21428 875.83139" />
    <path d="M628.21428 875.83139 L633.61743 840.8127" />
    <path d="M655.74027 879.57998 L672.38852 910.85838" />
    <path d="M672.38852 910.85838 L641.11012 927.50663" />
    <path d="M641.11012 927.50663 L624.46187 896.22824" />
    <path d="M624.46187 896.22824 L655.74027 879.57998" />
    <path d="M654.48291 921.75136 L672.73683 952.12071" />
    <path d="M672.73683 952.12071 L642.36748 970.37462" />
    <path d="M642.36748 970.37462 L624.11357 940.00528" />
    <path d="M624.11357 940.00528 L654.48291 921.75136" />
    <path d="M673.07442 35.58835 L708.50614 35.27914" />
    <path d="M708.50614 35.27914 L708.81535 70.71086" />
    <path d="M708.81535 70.71086 L673.38363 71.02007" />
    <path d="M673.38363 71.02007 L673.07442 35.58835" />
    <path d="M673.84576 77.35615 L709.25803 78.57017" />
    <path d="M709.25803 78.57017 L708.04401 113.98243" />
    <path d="M708.04401 113.98243 L672.63174 112.76841" />
    <path d="M672.63174 112.76841 L673.84576 77.35615" />
    <path d="M673.42925 120.27379 L708.86007 120.67335" />
    <path d="M708.86007 120.67335 L708.46051 156.10417" />
    <path d="M708.46051 156.10417 L673.02969 155.7046" />
    <path d="M673.02969 155.7046 L673.42925 120.27379" />
    <path d="M676.25223 160.4139 L711.23964 166.01601" />
    <path d="M711.23964 166.01601 L705.63753 201.00342" />
    <path d="M705.63753 201.00342 L670.65012 195.40131" />
    <path d="M670.65012 195.40131 L676.25223 160.4139" />
    <path d="M673.20748 205.5327 L708.64052 205.49094" />
    <path d="M708.64052 205.49094 L708.68229 240.92399" />
    <path d="M708.68229 240.92399 L673.24924 240.96575" />
    <path d="M673.24924 240.96575 L673.20748 205.5327" />
    <path d="M673.13845 248.12185 L708.57106 247.9416" />
    <path d="M708.57106 247.9416 L708.75131 283.37421" />
    <path d="M708.75131 283.37421 L673.3187 283.55446" />
    <path d="M673.3187 283.55446 L673.13845 248.12185" />
    <path d="M679.65108 285.90253 L713.31006 296.97392" />
    <path d="M713.31006 296.97392 L702.23868 330.6329" />
    <path d="M702.23868 330.6329 L668.5797 319.56151" />
    <path d="M668.5797 319.56151 L679.65108 285.90253" />
    <path d="M675.64488 330.9465 L710.78578 335.4874" />
    <path d="M710.78578 335.4874 L706.24488 370.6283" />
    <path d="M706.24488 370.6283 L671.10398 366.0874" />
    <path d="M671.10398 366.0874 L675.64488 330.9465" />
    <path d="M680.44747 370.55724 L713.69473 382.80967" />
    <path d="M713.69473 382.80967 L701.4423 416.05693" />
    <path d="M701.4423 416.05693 L668.19504 403.8045" />
    <path d="M668.19504 403.8045 L680.44747 370.55724" />
    <path d="M676.50783 415.3494 L711.42226 421.38972" />
    <path d="M711.42226 421.38972 L705.38193 456.30415" />
    <path d="M705.38193 456.30415 L670.46751 450.26382" />
    <path d="M670.46751 450.26382 L676.50783 415.3494" />
    <path d="M682.2983 454.83076 L714.46058 469.69987" />
    <path d="M714.46058 469.69987 L699.59147 501.86215" />
    <path d="M699.59147 501.86215 L667.42919 486.99304" />
    <path d="M667.42919 486.99304 L682.2983 454.83076" />
    <path d="M676.50654 500.38968 L711.42134 506.4278" />
    <path d="M711.42134 506.4278 L705.38323 541.3426" />
    <path d="M705.38323 541.3426 L670.46842 535.30449" />
    <path d="M670.46842 535.30449 L676.50654 500.38968" />
    <path d="M683.244 539.54369 L714.78702 555.68494" />
    <path d="M714.78702 555.68494 L698.64577 587.22797" />
    <path d="M698.64577 587.22797 L667.10274 571.08671" />
    <path d="M667.10274 571.08671 L683.244 539.54369" />
    <path d="M675.96125 585.82463 L711.02577 590.92188" />
    <path d="M711.02577 590.92188 L705.92852 625.9864" />
    <path d="M705.92852 625.9864 L670.864 620.88915" />
    <path d="M670.864 620.88915 L675.96125 585.82463" />
    <path d="M691.36518 623.37376 L715.99632 648.8455" />
    <path d="M715.99632 648.8455 L690.52458 673.47664" />
    <path d="M690.52458 673.47664 L665.89344 648.0049" />
    <path d="M665.89344 648.0049 L691.36518 623.37376" />
    <path d="M690.27523 665.89887 L715.9909 690.27523" />
    <path d="M715.9909 690.27523 L691.61454 715.9909" />
    <path d="M691.61454 715.9909 L665.89887 691.61454" />
    <path d="M665.89887 691.61454 L690.27523 665.89887" />
    <path d="M679.32837 711.26529 L713.14416 721.84806" />
    <path d="M713.14416 721.84806 L702.56139 755.66384" />
    <path d="M702.56139 755.66384 L668.7456 745.08108" />
    <path d="M668.7456 745.08108 L679.32837 711.26529" />
    <path d="M684.38611 751.80298 L715.12615 769.42548" />
    <path d="M715.12615 769.42548 L697.50366 800.16552" />
    <path d="M697.50366 800.16552 L666.76361 782.54303" />
    <path d="M666.76361 782.54303 L684.38611 751.80298" />
    <path d="M680.85691 795.56959 L713.87922 808.41596" />
    <path d="M713.87922 808.41596 L701.03285 841.43828" />
    <path d="M701.03285 841.43828 L668.01054 828.59191" />
    <path d="M668.01054 828.59191 L680.85691 795.56959" />
    <path d="M687.69241 836.18066 L715.78784 857.77115" />
    <path d="M715.78784 857.77115 L694.19735 885.86658" />
    <path d="M694.19735 885.86658 L666.10192 864.27609" />
    <path d="M666.10192 864.27609 L687.69241 836.18066" />
    <path d="M685.0489 879.19195 L715.29624 897.64733" />
    <path d="M715.29624 897.64733 L696.84086 927.89467" />
    <path d="M696.84086 927.89467 L666.59352 909.43929" />
    <path d="M666.59352 909.43929 L685.0489 879.19195" />
    <path d="M685.48652 921.60982 L715.39805 940.60463" />
    <path d="M715.39805 940.60463 L696.40324 970.51616" />
    <path d="M696.40324 970.51616 L666.49171 951.52135" />
    <path d="M666.49171 951.52135 L685.48652 921.60982" />
  </g>
</svg>