<?xml version="1.0" standalone="no"?>
<!DOCTYPE svg PUBLIC "-//W3C//DTD SVG 1.1//EN" 
    "http://www.w3.org/Graphics/SVG/1.1/DTD/svg11.dtd">
<svg width="2480px" height="3508px"
    xmlns="http://www.w3.org/2000/svg" version="1.1" viewBox="0 0 2480 3508">
  <g fill="none" stroke="black" stroke-width="1.06299px">
    <path d="M500 1014 L1740 1014" />
    <path d="M1740 1014 L1740 2254" />
    <path d="M1740 2254 L500 2254" />
    <path d="M500 2254 L500 1014" />
    <path d="M523.6091070471736 991.1211836115436 L1762.9972419006808 1030.0705248684226" />
    <path d="M1762.9972419006808 1030.0705248684226 L1724.0479006438018 2269.45865972193" />
    <path d="M1724.0479006438018 2269.45865972193 L484.6597657902945 2230.509318465051" />
    <path d="M484.6597657902945 2230.509318465051 L523.6091070471736 991.1211836115436" />
    <path d="M547.9252054147709 968.9952365113871 L1785.4783486658275 1046.8554807277355" />
    <path d="M1785.4783486658275 1046.8554807277355 L1707.6181044494792 2284.4086239787925" />
    <path d="M1707.6181044494792 2284.4086239787925 L470.06496119842234 2206.548379762444" />
    <path d="M470.06496119842234 2206.548379762444 L547.9252054147709 968.9952365113871" />
    <path d="M572.9242980494214 947.6439943380203 L1807.4211341572407 1064.338302852978" />
    <path d="M1807.4211341572407 1064.338302852978 L1690.7268256422828 2298.835138960797" />
    <path d="M1690.7268256422828 2298.835138960797 L456.2299895344637 2182.1408304458396" />
    <path d="M456.2299895344637 2182.1408304458396 L572.9242980494214 947.6439943380203" />
    <path d="M598.5817138648715 927.0885281897013 L1828.8039434948241 1082.5017378094385" />
    <path d="M1828.8039434948241 1082.5017378094385 L1673.3907338750869 2312.7239674393913" />
    <path d="M1673.3907338750869 2312.7239674393913 L443.1685042451343 2157.3107578196536" />
    <path d="M443.1685042451343 2157.3107578196536 L598.5817138648715 927.0885281897013" />
    <path d="M624.872132089369 907.3491238298272 L1849.6056744273396 1101.3278604797135" />
    <path d="M1849.6056744273396 1101.3278604797135 L1655.6269377774533 2326.061402817684" />
    <path d="M1655.6269377774533 2326.061402817684 L430.8933954394827 2132.082666167798" />
    <path d="M430.8933954394827 2132.082666167798 L624.872132089369 907.3491238298272" />
    <path d="M651.7696072542066 888.4452616673342 L1869.8057981577806 1120.7980917536327" />
    <path d="M1869.8057981577806 1120.7980917536327 L1637.452968071482 2338.8342826572066" />
    <path d="M1637.452968071482 2338.8342826572066 L419.4167771679081 2106.481452570908" />
    <path d="M419.4167771679081 2106.481452570908 L651.7696072542066 888.4452616673342" />
    <path d="M679.2475947987684 870.3955975318854 L1889.3843796028152 1140.8932168635984" />
    <path d="M1889.3843796028152 1140.8932168635984 L1618.8867602711025 2351.030001667645" />
    <path d="M1618.8867602711025 2351.030001667645 L408.7499754670556 2080.532382335932" />
    <path d="M408.7499754670556 2080.532382335932 L679.2475947987684 870.3955975318854" />
    <path d="M707.2789772668056 853.2179442628204 L1908.322097066308 1161.5934043472403" />
    <path d="M1908.322097066308 1161.5934043472403 L1599.946636981888 2362.636524146743" />
    <path d="M1599.946636981888 2362.636524146743 L398.9035171823856 2054.261064062323" />
    <path d="M398.9035171823856 2054.261064062323 L707.2789772668056 853.2179442628204" />
    <path d="M735.8360910680918 836.9292541300325 L1926.6002613075011 1182.8782256186769" />
    <path d="M1926.6002613075011 1182.8782256186769 L1580.6512898188569 2373.6423958580863" />
    <path d="M1580.6512898188569 2373.6423958580863 L389.88711957944747 2027.6934243694418" />
    <path d="M389.88711957944747 2027.6934243694418 L735.8360910680918 836.9292541300325" />
    <path d="M764.8907537790475 821.5456021041254 L1944.200833985038 1204.7266751290601" />
    <path d="M1944.200833985038 1204.7266751290601 L1561.0197609601032 2384.0367553350507" />
    <path d="M1561.0197609601032 2384.0367553350507 L381.7096807541127 2000.8556823101158" />
    <path d="M381.7096807541127 2000.8556823101158 L764.8907537790475 821.5456021041254" />
    <path d="M794.4142919553889 807.0821699923575 L1961.1064454586285 1227.117191096519" />
    <path d="M1961.1064454586285 1227.117191096519 L1541.0714243544671 2393.8093445997583" />
    <path d="M1541.0714243544671 2393.8093445997583 L374.3792708512275 1973.7743234955972" />
    <path d="M374.3792708512275 1973.7743234955972 L794.4142919553889 807.0821699923575" />
    <path d="M824.3775694293556 793.5532314560323 L1977.3004119307875 1250.027676785033" />
    <path d="M1977.3004119307875 1250.027676785033 L1520.8259666017866 2402.9505192864644" />
    <path d="M1520.8259666017866 2402.9505192864644 L367.90312410035494 1946.476073957464" />
    <path d="M367.90312410035494 1946.476073957464 L824.3775694293556 793.5532314560323" />
    <path d="M854.7510160635916 780.9721379241164 L1992.766751911728 1273.4355223112443" />
    <path d="M1992.766751911728 1273.4355223112443 L1500.3033675246002 2411.451258159381" />
    <path d="M1500.3033675246002 2411.451258159381 L362.28763167646366 1918.987873772253" />
    <path d="M362.28763167646366 1918.987873772253 L854.7510160635916 780.9721379241164" />
    <path d="M885.5046569332993 769.3513054169917 L2007.4902019911635 1297.3176269576818" />
    <path d="M2007.4902019911635 1297.3176269576818 L1479.5238804504734 2419.303172015546" />
    <path d="M1479.5238804504734 2419.303172015546 L357.53833539260927 1891.336850474856" />
    <path d="M357.53833539260927 1891.336850474856 L885.5046569332993 769.3513054169917" />
    <path d="M916.6081419078723 758.7022022933431 L2021.4562319014485 1321.650421970381" />
    <path d="M2021.4562319014485 1321.650421970381 L1458.5080122244105 2426.4985119639573" />
    <path d="M1458.5080122244105 2426.4985119639573 L353.65992223083435 1863.5502922869193" />
    <path d="M353.65992223083435 1863.5502922869193 L916.6081419078723 758.7022022933431" />
    <path d="M948.0307756028103 749.0353379322717 L2034.6510588572012 1346.4098938183986" />
    <path d="M2034.6510588572012 1346.4098938183986 L1437.276502971074 2433.0301770727892" />
    <path d="M1437.276502971074 2433.0301770727892 L350.6562197166834 1835.6556211866625" />
    <path d="M350.6562197166834 1835.6556211866625 L948.0307756028103 749.0353379322717" />
    <path d="M979.7415476723565 740.3602523618069 L2047.0616611572466 1371.5716078922674" />
    <path d="M2047.0616611572466 1371.5716078922674 L1415.8503056267862 2438.8917213771574" />
    <path d="M1415.8503056267862 2438.8917213771574 L348.5301921418961 1807.680365846697" />
    <path d="M348.5301921418961 1807.680365846697 L979.7415476723565 740.3602523618069" />
    <path d="M1011.7091634129663 732.6855068440514 L2058.675791035465 1397.1107326180072" />
    <path d="M2058.675791035465 1397.1107326180072 L1394.250565261509 2444.077360240506" />
    <path d="M1394.250565261509 2444.077360240506 L347.28393763901045 1779.65213446655" />
    <path d="M347.28393763901045 1779.65213446655 L1011.7091634129663 732.6855068440514" />
    <path d="M1043.9020746474007 726.0186754262477 L2069.4819867478573 1423.0020639628895" />
    <path d="M2069.4819867478573 1423.0020639628895 L1372.4985982112157 2448.5819760633462" />
    <path d="M1372.4985982112157 2448.5819760633462 L346.9186861107589 1751.5985875267043" />
    <path d="M346.9186861107589 1751.5985875267043 L1043.9020746474007 726.0186754262477" />
    <path d="M1076.288510858969 720.3663374661087 L2079.469583883904 1449.2200503087756" />
    <path d="M2079.469583883904 1449.2200503087756 L1350.6158710412371 2452.4011233337105" />
    <path d="M1350.6158710412371 2452.4011233337105 L347.43479801630235 1723.5474104910436" />
    <path d="M347.43479801630235 1723.5474104910436 L1076.288510858969 720.3663374661087" />
    <path d="M1108.8365105451917 715.7340711387865 L2088.628725891048 1475.7388176684772" />
    <path d="M2088.628725891048 1475.7388176684772 L1328.623979361357 2455.5310330143334" />
    <path d="M1328.623979361357 2455.5310330143334 L348.8317640155009 1695.5262864846427" />
    <path d="M348.8317640155009 1695.5262864846427 L1108.8365105451917 715.7340711387865" />
    <path d="M1141.5139527599465 712.1264479318857 L2096.950373801925 1502.532195220261" />
    <path d="M2096.950373801925 1502.532195220261 L1306.5446265135497 2457.9686162622393" />
    <path d="M1306.5446265135497 2457.9686162622393 L351.1082054715712 1667.5628689738642" />
    <path d="M351.1082054715712 1667.5628689738642 L1141.5139527599465 712.1264479318857" />
    <path d="M1174.2885888129622 709.5470281339576 L2104.426315154732 1529.5737411352857" />
    <path d="M2104.426315154732 1529.5737411352857 L1284.399602153404 2459.7114674770555" />
    <path d="M1284.399602153404 2459.7114674770555 L354.261875811634 1639.6847544757275" />
    <path d="M354.261875811634 1639.6847544757275 L1174.2885888129622 709.5470281339576" />
    <path d="M1207.128074095385 707.9983573209258 L2111.0491720979353 1556.8367686724998" />
    <path d="M2111.0491720979353 1556.8367686724998 L1262.2107607463613 2460.75786667505" />
    <path d="M1262.2107607463613 2460.75786667505 L358.28966274381105 1611.919455323476" />
    <path d="M358.28966274381105 1611.919455323476 L1207.128074095385 707.9983573209258" />
    <path d="M1240 707.4819638439099 L2116.8124086713187 1584.2943725152286" />
    <path d="M2116.8124086713187 1584.2943725152286 L1240 2461.106781186548" />
    <path d="M1240 2461.106781186548 L363.18759132868104 1584.2943725152286" />
    <path d="M363.18759132868104 1584.2943725152286 L1240 707.4819638439099" />
    <path d="M1272.8719259046147 707.9983573209261 L2121.7103372561887 1611.919455323476" />
    <path d="M2121.7103372561887 1611.919455323476 L1217.7892392536387 2460.75786667505" />
    <path d="M1217.7892392536387 2460.75786667505 L368.9508279020647 1556.8367686725" />
    <path d="M368.9508279020647 1556.8367686725 L1272.8719259046147 707.9983573209261" />
    <path d="M1305.7114111870378 709.5470281339576 L2125.738124188366 1639.6847544757275" />
    <path d="M2125.738124188366 1639.6847544757275 L1195.600397846596 2459.7114674770555" />
    <path d="M1195.600397846596 2459.7114674770555 L375.57368484526785 1529.5737411352857" />
    <path d="M375.57368484526785 1529.5737411352857 L1305.7114111870378 709.5470281339576" />
    <path d="M1338.4860472400535 712.1264479318857 L2128.891794528429 1667.5628689738642" />
    <path d="M2128.891794528429 1667.5628689738642 L1173.4553734864503 2457.9686162622393" />
    <path d="M1173.4553734864503 2457.9686162622393 L383.049626198075 1502.532195220261" />
    <path d="M383.049626198075 1502.532195220261 L1338.4860472400535 712.1264479318857" />
    <path d="M1371.1634894548083 715.7340711387865 L2131.168235984499 1695.5262864846427" />
    <path d="M2131.168235984499 1695.5262864846427 L1151.376020638643 2455.5310330143334" />
    <path d="M1151.376020638643 2455.5310330143334 L391.3712741089522 1475.7388176684774" />
    <path d="M391.3712741089522 1475.7388176684774 L1371.1634894548083 715.7340711387865" />
    <path d="M1403.7114891410308 720.3663374661087 L2132.565201983698 1723.5474104910436" />
    <path d="M2132.565201983698 1723.5474104910436 L1129.384128958763 2452.4011233337105" />
    <path d="M1129.384128958763 2452.4011233337105 L400.53041611609615 1449.2200503087756" />
    <path d="M400.53041611609615 1449.2200503087756 L1403.7114891410308 720.3663374661087" />
    <path d="M1436.0979253525988 726.0186754262477 L2133.081313889241 1751.5985875267043" />
    <path d="M2133.081313889241 1751.5985875267043 L1107.5014017887845 2448.5819760633462" />
    <path d="M1107.5014017887845 2448.5819760633462 L410.5180132521424 1423.0020639628897" />
    <path d="M410.5180132521424 1423.0020639628897 L1436.0979253525988 726.0186754262477" />
    <path d="M1468.2908365870337 732.6855068440514 L2132.71606236099 1779.65213446655" />
    <path d="M2132.71606236099 1779.65213446655 L1085.749434738491 2444.077360240506" />
    <path d="M1085.749434738491 2444.077360240506 L421.32420896453493 1397.1107326180072" />
    <path d="M421.32420896453493 1397.1107326180072 L1468.2908365870337 732.6855068440514" />
    <path d="M1500.2584523276435 740.3602523618069 L2131.469807858104 1807.680365846697" />
    <path d="M2131.469807858104 1807.680365846697 L1064.1496943732138 2438.8917213771574" />
    <path d="M1064.1496943732138 2438.8917213771574 L432.9383388427534 1371.5716078922674" />
    <path d="M432.9383388427534 1371.5716078922674 L1500.2584523276435 740.3602523618069" />
    <path d="M1531.96922439719 749.0353379322717 L2129.343780283317 1835.6556211866625" />
    <path d="M2129.343780283317 1835.6556211866625 L1042.7234970289257 2433.0301770727892" />
    <path d="M1042.7234970289257 2433.0301770727892 L445.3489411427988 1346.4098938183984" />
    <path d="M445.3489411427988 1346.4098938183984 L1531.96922439719 749.0353379322717" />
    <path d="M1563.3918580921274 758.7022022933431 L2126.3400777691654 1863.550292286919" />
    <path d="M2126.3400777691654 1863.550292286919 L1021.4919877755896 2426.4985119639573" />
    <path d="M1021.4919877755896 2426.4985119639573 L458.5437680985515 1321.650421970381" />
    <path d="M458.5437680985515 1321.650421970381 L1563.3918580921274 758.7022022933431" />
    <path d="M1594.4953430667006 769.3513054169917 L2122.461664607391 1891.336850474856" />
    <path d="M2122.461664607391 1891.336850474856 L1000.4761195495265 2419.303172015546" />
    <path d="M1000.4761195495265 2419.303172015546 L472.50979800883647 1297.3176269576818" />
    <path d="M472.50979800883647 1297.3176269576818 L1594.4953430667006 769.3513054169917" />
    <path d="M1625.2489839364082 780.9721379241162 L2117.7123683235363 1918.9878737722527" />
    <path d="M2117.7123683235363 1918.9878737722527 L979.6966324753998 2411.451258159381" />
    <path d="M979.6966324753998 2411.451258159381 L487.2332480882717 1273.4355223112443" />
    <path d="M487.2332480882717 1273.4355223112443 L1625.2489839364082 780.9721379241162" />
    <path d="M1655.6224305706444 793.5532314560323 L2112.096875899645 1946.476073957464" />
    <path d="M2112.096875899645 1946.476073957464 L959.1740333982132 2402.9505192864644" />
    <path d="M959.1740333982132 2402.9505192864644 L502.6995880692126 1250.0276767850328" />
    <path d="M502.6995880692126 1250.0276767850328 L1655.6224305706444 793.5532314560323" />
    <path d="M1685.5857080446112 807.0821699923575 L2105.6207291487726 1973.7743234955972" />
    <path d="M2105.6207291487726 1973.7743234955972 L938.9285756455329 2393.8093445997583" />
    <path d="M938.9285756455329 2393.8093445997583 L518.8935545413717 1227.1171910965186" />
    <path d="M518.8935545413717 1227.1171910965186 L1685.5857080446112 807.0821699923575" />
    <path d="M1715.1092462209524 821.5456021041252 L2098.290319245887 2000.8556823101158" />
    <path d="M2098.290319245887 2000.8556823101158 L918.980239039897 2384.0367553350507" />
    <path d="M918.980239039897 2384.0367553350507 L535.7991660149621 1204.7266751290601" />
    <path d="M535.7991660149621 1204.7266751290601 L1715.1092462209524 821.5456021041252" />
    <path d="M1744.1639089319083 836.9292541300325 L2090.1128804205528 2027.6934243694418" />
    <path d="M2090.1128804205528 2027.6934243694418 L899.3487101811431 2373.6423958580863" />
    <path d="M899.3487101811431 2373.6423958580863 L553.3997386924989 1182.8782256186769" />
    <path d="M553.3997386924989 1182.8782256186769 L1744.1639089319083 836.9292541300325" />
    <path d="M1772.7210227331943 853.2179442628203 L2081.0964828176147 2054.261064062323" />
    <path d="M2081.0964828176147 2054.261064062323 L880.0533630181119 2362.636524146743" />
    <path d="M880.0533630181119 2362.636524146743 L571.6779029336917 1161.5934043472405" />
    <path d="M571.6779029336917 1161.5934043472405 L1772.7210227331943 853.2179442628203" />
    <path d="M1800.7524052012318 870.3955975318855 L2071.2500245329443 2080.532382335932" />
    <path d="M2071.2500245329443 2080.532382335932 L861.1132397288975 2351.0300016676447" />
    <path d="M861.1132397288975 2351.0300016676447 L590.6156203971849 1140.8932168635981" />
    <path d="M590.6156203971849 1140.8932168635981 L1800.7524052012318 870.3955975318855" />
    <path d="M1828.2303927457933 888.4452616673342 L2060.583222832092 2106.481452570908" />
    <path d="M2060.583222832092 2106.481452570908 L842.5470319285179 2338.8342826572066" />
    <path d="M842.5470319285179 2338.8342826572066 L610.1942018422195 1120.7980917536327" />
    <path d="M610.1942018422195 1120.7980917536327 L1828.2303927457933 888.4452616673342" />
    <path d="M1855.127867910631 907.3491238298272 L2049.1066045605176 2132.082666167798" />
    <path d="M2049.1066045605176 2132.082666167798 L824.3730622225465 2326.061402817684" />
    <path d="M824.3730622225465 2326.061402817684 L630.3943255726603 1101.3278604797135" />
    <path d="M630.3943255726603 1101.3278604797135 L1855.127867910631 907.3491238298272" />
    <path d="M1881.4182861351285 927.0885281897013 L2036.8314957548657 2157.3107578196536" />
    <path d="M2036.8314957548657 2157.3107578196536 L806.6092661249131 2312.7239674393913" />
    <path d="M806.6092661249131 2312.7239674393913 L651.1960565051759 1082.5017378094385" />
    <path d="M651.1960565051759 1082.5017378094385 L1881.4182861351285 927.0885281897013" />
    <path d="M1907.0757019505784 947.6439943380201 L2023.7700104655364 2182.140830445839" />
    <path d="M2023.7700104655364 2182.140830445839 L789.2731743577173 2298.8351389607974" />
    <path d="M789.2731743577173 2298.8351389607974 L672.5788658427592 1064.3383028529781" />
    <path d="M672.5788658427592 1064.3383028529781 L1907.0757019505784 947.6439943380201" />
    <path d="M1932.074794585229 968.9952365113871 L2009.9350388015778 2206.548379762444" />
    <path d="M2009.9350388015778 2206.548379762444 L772.3818955505209 2284.4086239787925" />
    <path d="M772.3818955505209 2284.4086239787925 L694.5216513341724 1046.8554807277355" />
    <path d="M694.5216513341724 1046.8554807277355 L1932.074794585229 968.9952365113871" />
    <path d="M1956.3908929528266 991.1211836115438 L1995.3402342097056 2230.509318465051" />
    <path d="M1995.3402342097056 2230.509318465051 L755.9520993561982 2269.45865972193" />
    <path d="M755.9520993561982 2269.45865972193 L717.0027580993193 1030.0705248684226" />
    <path d="M717.0027580993193 1030.0705248684226 L1956.3908929528266 991.1211836115438" />
  </g>
</svg>