<?xml version="1.0" standalone="no"?>
<!DOCTYPE svg PUBLIC "-//W3C//DTD SVG 1.1//EN" 
    "http://www.w3.org/Graphics/SVG/1.1/DTD/svg11.dtd">
<svg width="8.5in" height="11in"
    xmlns="http://www.w3.org/2000/svg" version="1.1" viewBox="0 0 765 990">
  <g fill="none" stroke="black" stroke-width="0.01181in">
    <path d="M45 45 L45 49.83122" />
    <path d="M45 58.83122 L45 69.74427" />
    <path d="M45 78.74427 L45 122.20472" />
    <path d="M45 131.20472 L45 171.52804" />
    <path d="M45 180.52804 L45 216.32132" />
    <path d="M45 225.32132 L45 231.58759" />
    <path d="M45 240.58759 L45 254.19726" />
    <path d="M45 263.19726 L45 283.21242" />
    <path d="M45 292.21242 L45 329.29022" />
    <path d="M45 338.29022 L45 350.6796" />
    <path d="M45 359.6796 L45 364.4128" />
    <path d="M45 373.4128 L45 375.74812" />
    <path d="M45 384.74812 L45 393.04125" />
    <path d="M45 402.04125 L45 404.46612" />
    <path d="M45 413.46612 L45 456.04486" />
    <path d="M45 465.04486 L45 496.38142" />
    <path d="M51.75 45 L51.75 45.97651" />
    <path d="M51.75 54.97651 L51.75 66.18709" />
    <path d="M51.75 75.18709 L51.75 101.61659" />
    <path d="M51.75 110.61659 L51.75 138.01898" />
    <path d="M51.75 147.01898 L51.75 165.22524" />
    <path d="M51.75 174.22524 L51.75 213.32367" />
    <path d="M51.75 222.32367 L51.75 237.12148" />
    <path d="M51.75 246.12148 L51.75 266.12663" />
    <path d="M51.75 275.12663 L51.75 305.9756" />
    <path d="M51.75 314.9756 L51.75 355.4241" />
    <path d="M51.75 364.4241 L51.75 402.48229" />
    <path d="M51.75 411.48229 L51.75 436.9734" />
    <path d="M51.75 445.9734 L51.75 472.99364" />
    <path d="M51.75 481.99364 L51.75 486.22226" />
    <path d="M58.5 45 L58.5 59.06095" />
    <path d="M58.5 68.06095 L58.5 100.95958" />
    <path d="M58.5 109.95958 L58.5 152.68831" />
    <path d="M58.5 161.68831 L58.5 162.32754" />
    <path d="M58.5 171.32754 L58.5 204.97471" />
    <path d="M58.5 213.97471 L58.5 240.29495" />
    <path d="M58.5 249.29495 L58.5 267.91889" />
    <path d="M58.5 276.91889 L58.5 282.55033" />
    <path d="M58.5 291.55033 L58.5 329.239" />
    <path d="M58.5 338.239 L58.5 360.31649" />
    <path d="M58.5 369.31649 L58.5 411.33915" />
    <path d="M58.5 420.33915 L58.5 456.83324" />
    <path d="M58.5 465.83324 L58.5 506.85791" />
    <path d="M65.25 45 L65.25 78.52288" />
    <path d="M65.25 87.52288 L65.25 106.28607" />
    <path d="M65.25 115.28607 L65.25 137.97816" />
    <path d="M65.25 146.97816 L65.25 148.14702" />
    <path d="M65.25 157.14702 L65.25 167.14534" />
    <path d="M65.25 176.14534 L65.25 205.99323" />
    <path d="M65.25 214.99323 L65.25 246.5713" />
    <path d="M65.25 255.5713 L65.25 257.26699" />
    <path d="M65.25 266.26699 L65.25 298.11266" />
    <path d="M65.25 307.11266 L65.25 321.87538" />
    <path d="M65.25 330.87538 L65.25 370.33515" />
    <path d="M65.25 379.33515 L65.25 423.23504" />
    <path d="M65.25 432.23504 L65.25 436.99668" />
    <path d="M65.25 445.99668 L65.25 461.67611" />
    <path d="M65.25 470.67611 L65.25 488.11058" />
    <path d="M72 45 L72 73.12843" />
    <path d="M72 82.12843 L72 121.80806" />
    <path d="M72 130.80806 L72 139.11753" />
    <path d="M72 148.11753 L72 153.89259" />
    <path d="M72 162.89259 L72 166.66241" />
    <path d="M72 175.66241 L72 186.93292" />
    <path d="M72 195.93292 L72 240.73915" />
    <path d="M72 249.73915 L72 276.01933" />
    <path d="M72 285.01933 L72 293.93893" />
    <path d="M72 302.93893 L72 313.57681" />
    <path d="M72 322.57681 L72 347.61833" />
    <path d="M72 356.61833 L72 386.11267" />
    <path d="M72 395.11267 L72 423.3571" />
    <path d="M72 432.3571 L72 468.72052" />
    <path d="M72 477.72052 L72 518.26889" />
    <path d="M78.75 45 L78.75 74.32032" />
    <path d="M78.75 83.32032 L78.75 112.27424" />
    <path d="M78.75 121.27424 L78.75 155.98932" />
    <path d="M78.75 164.98932 L78.75 195.82533" />
    <path d="M78.75 204.82533 L78.75 232.67589" />
    <path d="M78.75 241.67589 L78.75 249.85216" />
    <path d="M78.75 258.85216 L78.75 298.2817" />
    <path d="M78.75 307.2817 L78.75 316.9494" />
    <path d="M78.75 325.9494 L78.75 362.37128" />
    <path d="M78.75 371.37128 L78.75 375.28272" />
    <path d="M78.75 384.28272 L78.75 399.745" />
    <path d="M78.75 408.745 L78.75 444.69728" />
    <path d="M78.75 453.69728 L78.75 471.03343" />
    <path d="M78.75 480.03343 L78.75 514.69235" />
    <path d="M85.5 45 L85.5 68.4527" />
    <path d="M85.5 77.4527 L85.5 82.56898" />
    <path d="M85.5 91.56898 L85.5 135.77274" />
    <path d="M85.5 144.77274 L85.5 156.39745" />
    <path d="M85.5 165.39745 L85.5 206.90866" />
    <path d="M85.5 215.90866 L85.5 258.36707" />
    <path d="M85.5 267.36707 L85.5 304.59923" />
    <path d="M85.5 313.59923 L85.5 331.38636" />
    <path d="M85.5 340.38636 L85.5 354.74601" />
    <path d="M85.5 363.74601 L85.5 393.66037" />
    <path d="M85.5 402.66037 L85.5 407.45249" />
    <path d="M85.5 416.45249 L85.5 460.49792" />
    <path d="M85.5 469.49792 L85.5 499.87161" />
    <path d="M92.25 45 L92.25 75.74114" />
    <path d="M92.25 84.74114 L92.25 116.86752" />
    <path d="M92.25 125.86752 L92.25 170.32803" />
    <path d="M92.25 179.32803 L92.25 193.69732" />
    <path d="M92.25 202.69732 L92.25 238.3437" />
    <path d="M92.25 247.3437 L92.25 261.25777" />
    <path d="M92.25 270.25777 L92.25 272.5477" />
    <path d="M92.25 281.5477 L92.25 294.39119" />
    <path d="M92.25 303.39119 L92.25 338.22439" />
    <path d="M92.25 347.22439 L92.25 363.1924" />
    <path d="M92.25 372.1924 L92.25 399.23382" />
    <path d="M92.25 408.23382 L92.25 445.91468" />
    <path d="M92.25 454.91468 L92.25 459.31841" />
    <path d="M92.25 468.31841 L92.25 494.43716" />
    <path d="M99 45 L99 61.19432" />
    <path d="M99 70.19432 L99 106.93046" />
    <path d="M99 115.93046 L99 150.72058" />
    <path d="M99 159.72058 L99 196.79929" />
    <path d="M99 205.79929 L99 208.23715" />
    <path d="M99 217.23715 L99 244.6751" />
    <path d="M99 253.6751 L99 258.85642" />
    <path d="M99 267.85642 L99 271.35192" />
    <path d="M99 280.35192 L99 285.38558" />
    <path d="M99 294.38558 L99 334.16407" />
    <path d="M99 343.16407 L99 359.55928" />
    <path d="M99 368.55928 L99 399.20391" />
    <path d="M99 408.20391 L99 408.68811" />
    <path d="M99 417.68811 L99 451.51776" />
    <path d="M99 460.51776 L99 505.08718" />
    <path d="M105.75 45 L105.75 61.27489" />
    <path d="M105.75 70.27489 L105.75 106.29733" />
    <path d="M105.75 115.29733 L105.75 117.40747" />
    <path d="M105.75 126.40747 L105.75 162.76013" />
    <path d="M105.75 171.76013 L105.75 194.23326" />
    <path d="M105.75 203.23326 L105.75 244.0599" />
    <path d="M105.75 253.0599 L105.75 267.29144" />
    <path d="M105.75 276.29144 L105.75 296.32095" />
    <path d="M105.75 305.32095 L105.75 331.74559" />
    <path d="M105.75 340.74559 L105.75 375.85714" />
    <path d="M105.75 384.85714 L105.75 387.22474" />
    <path d="M105.75 396.22474 L105.75 411.92281" />
    <path d="M105.75 420.92281 L105.75 440.69239" />
    <path d="M105.75 449.69239 L105.75 485.15234" />
    <path d="M105.75 494.15234 L105.75 506.52228" />
    <path d="M112.5 45 L112.5 74.90941" />
    <path d="M112.5 83.90941 L112.5 125.58169" />
    <path d="M112.5 134.58169 L112.5 163.41707" />
    <path d="M112.5 172.41707 L112.5 204.36227" />
    <path d="M112.5 213.36227 L112.5 243.33138" />
    <path d="M112.5 252.33138 L112.5 263.99419" />
    <path d="M112.5 272.99419 L112.5 313.40644" />
    <path d="M112.5 322.40644 L112.5 333.27319" />
    <path d="M112.5 342.27319 L112.5 370.93457" />
    <path d="M112.5 379.93457 L112.5 397.48163" />
    <path d="M112.5 406.48163 L112.5 443.24292" />
    <path d="M112.5 452.24292 L112.5 469.01026" />
    <path d="M112.5 478.01026 L112.5 487.46938" />
    <path d="M119.25 45 L119.25 79.12113" />
    <path d="M119.25 88.12113 L119.25 130.46667" />
    <path d="M119.25 139.46667 L119.25 146.06579" />
    <path d="M119.25 155.06579 L119.25 189.19837" />
    <path d="M119.25 198.19837 L119.25 228.3303" />
    <path d="M119.25 237.3303 L119.25 276.70651" />
    <path d="M119.25 285.70651 L119.25 327.35257" />
    <path d="M119.25 336.35257 L119.25 359.78456" />
    <path d="M119.25 368.78456 L119.25 411.50391" />
    <path d="M119.25 420.50391 L119.25 443.21089" />
    <path d="M119.25 452.21089 L119.25 478.88466" />
    <path d="M119.25 487.88466 L119.25 498.27839" />
    <path d="M126 45 L126 47.72537" />
    <path d="M126 56.72537 L126 87.04919" />
    <path d="M126 96.04919 L126 123.26188" />
    <path d="M126 132.26188 L126 133.70092" />
    <path d="M126 142.70092 L126 181.81669" />
    <path d="M126 190.81669 L126 214.17651" />
    <path d="M126 223.17651 L126 258.08849" />
    <path d="M126 267.08849 L126 299.0019" />
    <path d="M126 308.0019 L126 317.70069" />
    <path d="M126 326.70069 L126 343.2201" />
    <path d="M126 352.2201 L126 371.29204" />
    <path d="M126 380.29204 L126 394.17544" />
    <path d="M126 403.17544 L126 420.49609" />
    <path d="M126 429.49609 L126 456.90543" />
    <path d="M126 465.90543 L126 503.40619" />
  </g>
</svg>