<?xml version="1.0" standalone="no"?>
<!DOCTYPE svg PUBLIC "-//W3C//DTD SVG 1.1//EN" 
    "http://www.w3.org/Graphics/SVG/1.1/DTD/svg11.dtd">
<svg width="21cm" height="29.7cm"
    xmlns="http://www.w3.org/2000/svg" version="1.1" viewBox="0 0 744.09449 1052.3622">
  <g fill="none" stroke="black" stroke-width="0.03cm">
    <path d="M0 0 L744.09449 0" />
    <path d="M0 0 L744.09449 11.68917" />
    <path d="M0 0 L744.09449 23.38411" />
    <path d="M0 0 L744.09449 35.09061" />
    <path d="M0 0 L744.09449 46.81446" />
    <path d="M0 0 L744.09449 58.56151" />
    <path d="M0 0 L744.09449 70.33764" />
    <path d="M0 0 L744.09449 82.1488" />
    <path d="M0 0 L744.09449 94.00099" />
    <path d="M0 0 L744.09449 105.90033" />
    <path d="M0 0 L744.09449 117.85299" />
    <path d="M0 0 L744.09449 129.86528" />
    <path d="M0 0 L744.09449 141.94362" />
    <path d="M0 0 L744.09449 154.09456" />
    <path d="M0 0 L744.09449 166.32482" />
    <path d="M0 0 L744.09449 178.64128" />
    <path d="M0 0 L744.09449 191.05099" />
    <path d="M0 0 L744.09449 203.56122" />
    <path d="M0 0 L744.09449 216.17943" />
    <path d="M0 0 L744.09449 228.91335" />
    <path d="M0 0 L744.09449 241.77096" />
    <path d="M0 0 L744.09449 254.76049" />
    <path d="M0 0 L744.09449 267.8905" />
    <path d="M0 0 L744.09449 281.16988" />
    <path d="M0 0 L744.09449 294.60785" />
    <path d="M0 0 L744.09449 308.21403" />
    <path d="M0 0 L744.09449 321.99844" />
    <path d="M0 0 L744.09449 335.97154" />
    <path d="M0 0 L744.09449 350.14429" />
    <path d="M0 0 L744.09449 364.52813" />
    <path d="M0 0 L744.09449 379.13508" />
    <path d="M0 0 L744.09449 393.97775" />
    <path d="M0 0 L744.09449 409.06941" />
    <path d="M0 0 L744.09449 424.424" />
    <path d="M0 0 L744.09449 440.05625" />
    <path d="M0 0 L744.09449 455.98169" />
    <path d="M0 0 L744.09449 472.21672" />
    <path d="M0 0 L744.09449 488.77872" />
    <path d="M0 0 L744.09449 505.68609" />
    <path d="M0 0 L744.09449 522.95837" />
    <path d="M0 0 L744.09449 540.61629" />
    <path d="M0 0 L744.09449 558.68194" />
    <path d="M0 0 L744.09449 577.17885" />
    <path d="M0 0 L744.09449 596.1321" />
    <path d="M0 0 L744.09449 615.5685" />
    <path d="M0 0 L744.09449 635.51673" />
    <path d="M0 0 L744.09449 656.00754" />
    <path d="M0 0 L744.09449 677.07389" />
    <path d="M0 0 L744.09449 698.75123" />
    <path d="M0 0 L744.09449 721.07772" />
    <path d="M0 0 L744.09449 744.09449" />
    <path d="M0 0 L721.07772 744.09449" />
    <path d="M0 0 L698.75123 744.09449" />
    <path d="M0 0 L677.07389 744.09449" />
    <path d="M0 0 L656.00754 744.09449" />
    <path d="M0 0 L635.51673 744.09449" />
    <path d="M0 0 L615.5685 744.09449" />
    <path d="M0 0 L596.1321 744.09449" />
    <path d="M0 0 L577.17885 744.09449" />
    <path d="M0 0 L558.68194 744.09449" />
    <path d="M0 0 L540.61629 744.09449" />
    <path d="M0 0 L522.95837 744.09449" />
    <path d="M0 0 L505.68609 744.09449" />
    <path d="M0 0 L488.77872 744.09449" />
    <path d="M0 0 L472.21672 744.09449" />
    <path d="M0 0 L455.98169 744.09449" />
    <path d="M0 0 L440.05625 744.09449" />
    <path d="M0 0 L424.424 744.09449" />
    <path d="M0 0 L409.06941 744.09449" />
    <path d="M0 0 L393.97775 744.09449" />
    <path d="M0 0 L379.13508 744.09449" />
    <path d="M0 0 L364.52813 744.09449" />
    <path d="M0 0 L350.14429 744.09449" />
    <path d="M0 0 L335.97154 744.09449" />
    <path d="M0 0 L321.99844 744.09449" />
    <path d="M0 0 L308.21403 744.09449" />
    <path d="M0 0 L294.60785 744.09449" />
    <path d="M0 0 L281.16988 744.09449" />
    <path d="M0 0 L267.8905 744.09449" />
    <path d="M0 0 L254.76049 744.09449" />
    <path d="M0 0 L241.77096 744.09449" />
    <path d="M0 0 L228.91335 744.09449" />
    <path d="M0 0 L216.17943 744.09449" />
    <path d="M0 0 L203.56122 744.09449" />
    <path d="M0 0 L191.05099 744.09449" />
    <path d="M0 0 L178.64128 744.09449" />
    <path d="M0 0 L166.32482 744.09449" />
    <path d="M0 0 L154.09456 744.09449" />
    <path d="M0 0 L141.94362 744.09449" />
    <path d="M0 0 L129.86528 744.09449" />
    <path d="M0 0 L117.85299 744.09449" />
    <path d="M0 0 L105.90033 744.09449" />
    <path d="M0 0 L94.00099 744.09449" />
    <path d="M0 0 L82.1488 744.09449" />
    <path d="M0 0 L70.33764 744.09449" />
    <path d="M0 0 L58.56151 744.09449" />
    <path d="M0 0 L46.81446 744.09449" />
    <path d="M0 0 L35.09061 744.09449" />
    <path d="M0 0 L23.38411 744.09449" />
    <path d="M0 0 L11.68917 744.09449" />
  </g>
</svg>