<?xml version="1.0" standalone="no"?>
<!DOCTYPE svg PUBLIC "-//W3C//DTD SVG 1.1//EN" 
    "http://www.w3.org/Graphics/SVG/1.1/DTD/svg11.dtd">
<svg width="21cm" height="29.7cm"
    xmlns="http://www.w3.org/2000/svg" version="1.1" viewBox="0 0 744.09449 1052.3622">
  <g fill="none" stroke="black" stroke-width="0.03cm">
    <path d="M0 0 L35.43307 35.43307" />
    <path d="M376.90786 516.06807 L378.0439 516.69547 L380.00132 518.25879 L381.52118 520.16133 L382.58184 522.31652 L383.16169 524.6378 L383.23911 527.03861 L382.79246 529.43237 L381.80013 531.73253 L381.09257 532.82046" />
    <path d="M394.47448 525.39683 L394.48079 525.60479 L394.48762 526.02084 L394.48814 526.2289" />
    <path d="M347.59086 503.05155 L349.29909 501.36344 L352.92872 498.44353 L356.79645 496.12104 L360.84689 494.38278 L365.02465 493.21554 L369.27435 492.60613 L373.54059 492.54134 L377.768 493.00799 L381.90119 493.99287 L385.88477 495.48279 L389.66335 497.46454 L393.18155 499.92494 L396.38399 502.85078 L399.21527 506.22886 L401.62002 510.04599 L403.54284 514.28897 L404.30622 516.56603 L404.30622 516.56603 L404.81859 518.48419 L405.49571 522.31389 L405.7256 526.11097 L405.52771 529.84683 L404.92154 533.49288 L403.92656 537.02054 L402.56224 540.40121 L400.84806 543.60631 L398.8035 546.60725 L396.44804 549.37544 L393.80116 551.88229 L390.88233 554.09922 L387.71103 555.99763 L384.30673 557.54894 L380.68892 558.72456 L376.87707 559.49591 L374.90447 559.72104" />
    <path d="M396.97174 488.85613 L398.16287 489.67844 L400.43587 491.40889 L403.5719 494.20562 L407.24183 498.27201 L410.32588 502.67109 L412.8226 507.34513 L414.7305 512.2364 L416.04812 517.28716 L416.77397 522.43968 L416.90659 527.63623 L416.4445 532.81907 L415.38623 537.93046 L413.73031 542.91268 L411.47525 547.70799 L408.6196 552.25866 L405.16187 556.50695 L402.17258 559.46 L399.9908 561.30414 L398.84317 562.18614" />
    <path d="M426.87099 514.27177 L427.3532 516.76164 L427.977 521.78371 L428.14578 526.83646 L427.85849 531.88897 L427.5435 534.40546" />
    <path d="M305.36849 516.89092 L305.74218 514.50474 L306.71536 509.85366 L307.97862 505.36875 L309.51877 501.05535 L311.32261 496.91882 L313.37696 492.9645 L315.66862 489.19773 L318.1844 485.62388 L320.91112 482.24828 L323.83557 479.07629 L326.94458 476.11325 L330.22494 473.36451 L333.66346 470.83541 L337.24696 468.53131 L340.96224 466.45756 L344.79611 464.61949 L348.73538 463.02247 L352.76686 461.67183 L356.87736 460.57293 L361.05368 459.73111 L365.28264 459.15172 L369.55104 458.84011 L373.84569 458.80162 L378.1534 459.04162 L382.46098 459.56543 L386.75524 460.37842 L391.02298 461.48592 L395.25102 462.89329 L399.42617 464.60587 L403.53522 466.62902 L407.56499 468.96808 L411.5023 471.62839 L413.43215 473.08069 L413.43215 473.08069 L415.68123 474.91201 L419.89035 478.81155 L423.70825 483.00333 L427.12792 487.45901 L430.14236 492.15026 L432.74455 497.04874 L434.92748 502.1261 L436.68415 507.35402 L438.00753 512.70414 L438.89063 518.14814 L439.32644 523.65766 L439.30793 529.20439 L438.82812 534.75996 L437.87997 540.29605 L436.45649 545.78432 L434.55066 551.19643 L433.41468 553.86506" />
    <path d="M372.58494 604.72257 L369.76727 604.69422 L364.2338 604.35637 L358.84316 603.65559 L353.60375 602.60622 L348.52397 601.22257 L343.61221 599.51896 L338.87689 597.50973 L334.32641 595.20919 L329.96916 592.63167 L325.81354 589.7915 L321.86797 586.70301 L318.14083 583.3805 L314.64054 579.83832 L311.37549 576.09077 L308.35408 572.1522 L305.58472 568.03692 L303.07581 563.75926 L300.83575 559.33354 L298.87294 554.77408 L297.19578 550.09522 L295.81268 545.31127 L294.73203 540.43657 L293.96224 535.48542 L293.51171 530.47217 L293.38883 525.41113 L293.60202 520.31663 L294.15968 515.20299 L295.07019 510.08454 L296.34198 504.9756 L297.98343 499.8905 L300.00295 494.84355 L302.40894 489.8491 L303.75949 487.37603 L303.75949 487.37603 L305.35634 484.69161 L308.84905 479.54364 L312.72255 474.70643 L316.95537 470.19952 L321.526 466.04246 L326.41296 462.25479 L331.59478 458.85605 L337.04996 455.86578 L339.87334 454.52993" />
    <path d="M396.2787 439.74979 L400.02816 440.88891 L407.28245 443.61645 L414.19093 446.91568 L420.73003 450.75379 L426.87618 455.09797 L432.60581 459.91542 L437.89536 465.17331 L442.72127 470.83885 L447.05995 476.87922 L450.88785 483.2616 L454.1814 489.95319 L456.91703 496.92118 L459.07117 504.13275 L460.62025 511.55509 L461.54072 519.1554 L461.80899 526.90087 L461.69119 530.81778" />
    <path d="M427.04496 441.48712 L428.86045 442.69381 L432.39194 445.20763 L435.78929 447.85105 L439.05074 450.61891 L442.17453 453.506 L445.15887 456.50715 L449.37009 461.2114 L454.48054 467.83455 L459.00145 474.82064 L462.91868 482.1282 L466.21811 489.71575 L468.8856 497.54185 L470.90701 505.56501 L472.26822 513.74378 L472.95508 522.03668 L472.95347 530.40225 L472.49196 536.69918 L471.96177 540.89825 L471.25151 545.09216 L470.35942 549.27572 L469.28372 553.44377 L468.02266 557.59111 L467.32206 559.65539" />
    <path d="M360.29519 414.59352 L364.30505 414.23964 L372.21927 413.94586 L379.98121 414.18802 L387.57691 414.94696 L394.99243 416.20346 L402.21383 417.93836 L409.22714 420.13244 L416.01842 422.76653 L422.57373 425.82144 L428.87912 429.27797 L434.92063 433.11694 L440.68432 437.31915 L446.15624 441.86542 L451.32245 446.73655 L456.16898 451.91336 L460.6819 457.37665 L464.84726 463.10724 L468.65111 469.08593 L472.0795 475.29354 L475.11847 481.71088 L477.75409 488.31875 L479.97241 495.09797 L481.75947 502.02935 L483.10132 509.09369 L483.98403 516.2718 L484.39363 523.54451 L484.31619 530.89261 L483.73775 538.29691 L482.64437 545.73824 L481.02209 553.19739 L478.85697 560.65517 L476.13507 568.09241 L474.56096 571.79732 L474.56096 571.79732 L472.7399 575.68872 L468.69545 583.18723 L464.13926 590.29136 L459.10092 596.9827 L453.61005 603.24287 L447.69626 609.05347 L441.38917 614.39611 L434.71838 619.25238 L427.71351 623.6039 L420.40418 627.43226 L412.81998 630.71907 L404.99054 633.44595 L396.94547 635.59448 L388.71438 637.14628 L380.32688 638.08295 L371.81258 638.38609 L367.51713 638.29434" />
    <path d="M481.29186 583.62146 L479.16517 587.5053 L474.59763 594.92354 L469.63294 601.87498 L464.29717 608.35859 L458.61641 614.37334 L452.61673 619.91819 L446.3242 624.99212 L439.7649 629.59409 L432.9649 633.72307 L425.95028 637.37804 L418.74712 640.55795 L411.38148 643.26179 L403.87946 645.48851 L396.26712 647.23709 L388.57053 648.50649 L380.81578 649.29569 L373.02894 649.60365 L365.23609 649.42934 L357.46329 648.77173 L349.73663 647.62979 L342.08219 646.00249 L334.52603 643.88879 L327.09423 641.28767 L319.81288 638.19809 L312.70803 634.61903 L305.80578 630.54944 L299.1322 625.98831 L292.71335 620.9346 L286.57532 615.38727 L280.74419 609.3453 L275.24603 602.80765 L270.1069 595.7733 L267.68013 592.06953 L267.68013 592.06953 L265.70133 588.82585 L262.06583 582.19986 L258.86119 575.40607 L256.08901 568.46489 L253.75092 561.39676 L251.84855 554.22209 L250.38352 546.9613 L249.35744 539.63483 L248.77194 532.26308 L248.62864 524.86649 L248.92917 517.46548 L249.67514 510.08046 L250.86818 502.73187 L252.50991 495.44012 L254.60196 488.22564 L257.14593 481.10885 L258.58791 477.59347" />
    <path d="M350.12248 393.33246 L354.90116 392.62658 L364.36125 391.71814 L373.6766 391.46244 L382.82915 391.83749 L391.80084 392.82127 L400.57361 394.39177 L409.12941 396.52699 L417.45017 399.20493 L425.51783 402.40356 L433.31435 406.1009 L440.82165 410.27492 L448.02168 414.90362 L454.89639 419.965 L461.4277 425.43704 L467.59757 431.29774 L473.38794 437.52509 L478.78074 444.09708 L483.75791 450.99171 L488.30141 458.18697 L492.39316 465.66085 L496.01512 473.39134 L499.14922 481.35644 L501.7774 489.53414 L503.88161 497.90242 L505.44378 506.43929 L506.44586 515.12274 L506.86978 523.93075 L506.6975 532.84133 L505.91095 541.83245 L504.49207 550.88213 L502.4228 559.96834 L499.68509 569.06908 L498.05992 573.61802 L498.05992 573.61802 L496.8298 576.76539 L494.13909 582.95293 L491.14668 588.9886 L487.85932 594.86166 L484.28374 600.56138 L480.42665 606.07704 L476.29481 611.39791 L471.89493 616.51325 L469.59659 618.99049" />
    <path d="M499.65536 455.51924 L501.86031 459.65665 L505.85612 468.11107 L509.29392 476.7818 L512.16661 485.64104 L514.4671 494.66101 L516.18832 503.81392 L517.32318 513.072 L517.86458 522.40745 L517.91052 527.09551" />
    <path d="M494.73297 428.07699 L497.9016 432.17588 L503.79095 440.62198 L509.07894 449.37298 L513.76058 458.39745 L517.83089 467.66396 L521.28487 477.14109 L524.11753 486.79741 L526.32388 496.6015 L527.89894 506.52193 L528.83771 516.52727 L529.1352 526.58609 L528.78643 536.66698 L527.78641 546.73851 L526.13014 556.76924 L523.81264 566.72775 L520.82892 576.58262 L519.08566 581.46137" />
    <path d="M305.32371 680.69727 L301.48549 678.98272 L293.96937 675.28257 L286.6758 671.2301 L279.61534 666.83624 L272.79855 662.1119 L266.23597 657.06801 L259.93815 651.71549 L253.91566 646.06526 L248.17905 640.12825 L242.73886 633.91537 L237.60566 627.43755 L232.78999 620.70571 L228.30241 613.73078 L224.15347 606.52367 L220.35373 599.09531 L216.91374 591.45661 L215.33195 587.5618" />
    <path d="M226.24564 630.92859 L223.67674 627.25713 L218.83388 619.75437 L214.38733 612.05163 L210.34075 604.16465 L206.69778 596.10919 L203.4621 587.901 L200.63737 579.55582 L198.22723 571.0894 L196.23536 562.51748 L194.66541 553.85582 L193.52103 545.12017 L192.8059 536.32627 L192.52367 527.48987 L192.678 518.62673 L193.27254 509.75258 L194.31097 500.88317 L194.99778 496.45517" />
    <path d="M249.10826 672.02629 L246.50334 669.79255 L241.45187 665.23301 L236.61082 660.55487 L231.97929 655.76309 L227.5564 650.86263 L223.34127 645.85845 L219.33301 640.75553 L215.53073 635.55881 L211.93355 630.27327 L208.54057 624.90386 L205.35092 619.45555 L202.3637 613.93331 L199.57803 608.34208 L196.99302 602.68685 L194.60779 596.97256 L192.42145 591.20418 L190.43311 585.38668 L188.64189 579.52502 L187.04689 573.62416 L185.64724 567.68906 L184.44205 561.72468 L183.43042 555.736 L182.61148 549.72796 L181.98434 543.70554 L181.54811 537.6737 L181.30189 531.63739 L181.24482 525.60159 L181.376 519.57125 L181.69454 513.55134 L182.19955 507.54682 L182.89016 501.56265 L183.76547 495.60379 L184.8246 489.67522 L186.06666 483.78188 L187.49077 477.92875 L189.09603 472.12079 L190.88156 466.36295 L192.84648 460.66021 L194.9899 455.01752 L197.31093 449.43984 L199.80868 443.93215 L202.48227 438.4994 L205.33081 433.14656 L208.35342 427.87858 L211.5492 422.70043 L214.91728 417.61708 L218.45676 412.63348 L222.16676 407.7546 L226.0464 402.9854 L230.09478 398.33085 L234.31102 393.7959 L238.69423 389.38553 L243.24352 385.10468 L247.95802 380.95833 L252.83683 376.95144 L257.87906 373.08897 L263.08384 369.37588 L268.45026 365.81714 L273.97746 362.4177 L279.66453 359.18254 L285.5106 356.11661 L291.51477 353.22488 L297.67616 350.51231 L303.99389 347.98386 L307.2111 346.79023 L307.2111 346.79023 L310.44804 345.65117 L316.92245 343.55624 L323.39436 341.70283 L329.85993 340.0877 L336.3153 338.7076 L342.7566 337.55928 L349.18 336.63948 L355.58163 335.94497 L361.95763 335.47249 L368.30416 335.21879 L374.61736 335.18062 L380.89338 335.35474 L387.12836 335.73789 L393.31844 336.32683 L399.45977 337.1183 L405.5485 338.10906 L411.58077 339.29586 L417.55273 340.67544 L423.46053 342.24457 L429.3003 343.99999 L435.0682 345.93845 L440.76036 348.0567 L446.37294 350.35149 L451.90209 352.81958 L457.34393 355.45771 L462.69463 358.26264 L467.95033 361.23111 L473.10717 364.35988 L478.16129 367.6457 L483.10885 371.08532 L487.94599 374.67549 L492.66885 378.41296 L497.27359 382.29448 L501.75633 386.3168 L506.11324 390.47668 L510.34046 394.77086 L514.43412 399.1961 L518.39038 403.74914 L522.20539 408.42674 L525.87528 413.22564 L529.39621 418.1426 L532.76431 423.17438 L535.97574 428.31771 L539.02664 433.56935 L541.91316 438.92606 L544.63143 444.38457 L547.17761 449.94166 L549.54784 455.59405 L551.73827 461.33851 L553.74504 467.17179 L555.5643 473.09063 L557.1922 479.09179 L558.62487 485.17202 L559.85847 491.32807 L560.88913 497.55668 L561.71301 503.85462 L562.32625 510.21863 L562.725 516.64547 L562.9054 523.13187 L562.8636 529.67461 L562.59574 536.27041 L562.09796 542.91605 L561.36642 549.60825 L560.39726 556.34379 L559.82237 559.72679" />
    <path d="M540.22275 414.3407 L541.9798 417.02875 L545.35495 422.4701 L548.54449 427.99465 L551.54801 433.59784 L554.36511 439.27508 L556.99539 445.02181 L559.43844 450.83345 L561.69385 456.70544 L563.76123 462.6332 L565.64018 468.61216 L567.33027 474.63776 L568.83113 480.70541 L570.14233 486.81054 L571.26347 492.94859 L572.19416 499.11499 L572.93398 505.30515 L573.48254 511.51452 L573.83942 517.73852 L574.00424 523.97257 L573.97657 530.21211 L573.75602 536.45257 L573.34219 542.68937 L572.73467 548.91794 L571.93305 555.13371 L570.93694 561.33211 L569.74592 567.50857 L568.3596 573.65852 L566.77757 579.77737 L564.99943 585.86058 L563.02477 591.90355 L560.85319 597.90172 L558.48429 603.85053 L557.22572 606.80498" />
    <path d="M171.95634 599.75536 L170.66325 596.14472 L168.28178 588.92171 L166.17025 581.69998 L164.32508 574.48388 L162.74264 567.27772 L161.41933 560.08584 L160.35155 552.91256 L159.53567 545.76221 L158.96811 538.63912 L158.64525 531.54762 L158.56348 524.49204 L158.71919 517.4767 L159.10878 510.50593 L159.72864 503.58406 L160.57517 496.71542 L161.64475 489.90433 L162.93377 483.15513 L164.43864 476.47214 L166.15574 469.85969 L168.08146 463.32211 L170.21221 456.86373 L172.54436 450.48887 L175.07432 444.20186 L177.79847 438.00704 L180.71321 431.90872 L183.81493 425.91124 L187.10002 420.01893 L190.56488 414.2361 L194.2059 408.5671 L198.01946 403.01625 L202.00197 397.58788 L206.14982 392.28631 L210.4594 387.11587 L214.92709 382.0809 L219.5493 377.18572 L224.32241 372.43465 L229.24282 367.83203 L234.30693 363.38218 L239.51111 359.08944 L244.85178 354.95812 L250.32531 350.99257 L255.9281 347.1971 L261.65654 343.57604 L267.50703 340.13373 L273.47596 336.87449 L279.55972 333.80264 L285.75471 330.92253 L292.05731 328.23846 L298.46392 325.75478 L304.97093 323.47581 L311.57473 321.40588 L318.27172 319.54932 L325.05829 317.91045 L331.93083 316.49361 L338.88574 315.30311 L345.9194 314.3433 L353.02821 313.61849 L360.20856 313.13302 L367.45684 312.89121 L374.76945 312.8974 L382.14278 313.1559 L389.57322 313.67105 L397.05717 314.44718 L404.59101 315.48861 L408.37552 316.11017 L408.37552 316.11017 L412.14897 316.79564 L419.59502 318.34473 L426.90498 320.12696 L434.0769 322.13704 L441.10883 324.36969 L447.99884 326.81961 L454.74497 329.48152 L461.34529 332.35013 L467.79785 335.42015 L474.1007 338.68629 L480.2519 342.14327 L486.24951 345.78579 L492.09158 349.60857 L497.77616 353.60632 L503.30132 357.77375 L508.6651 362.10558 L513.86557 366.59651 L518.90077 371.24126 L523.76877 376.03453 L528.46762 380.97105 L532.99537 386.04552 L537.35008 391.25265 L541.52981 396.58716 L545.53261 402.04376 L549.35654 407.61716 L552.99965 413.30207 L556.46 419.0932 L559.73564 424.98526 L562.82463 430.97298 L565.72502 437.05105 L568.43488 443.21419 L570.95225 449.45712 L573.27519 455.77453 L575.40176 462.16116 L577.33001 468.6117 L579.05799 475.12087 L580.58377 481.68338 L581.9054 488.29395 L583.02093 494.94728 L583.92843 501.63808 L584.62593 508.36108 L585.11151 515.11097 L585.38321 521.88248 L585.4391 528.67031 L585.27722 535.46918 L584.89564 542.27379 L584.2924 549.07886 L583.46557 555.87911 L582.41319 562.66923 L581.13333 569.44395 L579.62404 576.19798 L577.88338 582.92603 L575.90939 589.6228 L573.70015 596.28302 L571.25369 602.90139 L568.56809 609.47262 L565.64138 615.99144 L562.47164 622.45254 L559.05691 628.85064 L555.39525 635.18046 L551.48471 641.4367 L547.32335 647.61407 L542.90924 653.70729 L538.24041 659.71108 L535.80987 662.67778" />
    <path d="M180.28311 409.6216 L182.40908 406.18967 L186.79664 399.49328 L191.36011 393.02006 L196.09356 386.76989 L200.99105 380.74262 L206.04665 374.93812 L211.25444 369.35627 L216.60849 363.99691 L222.10287 358.85993 L227.73164 353.94519 L233.48889 349.25255 L239.36867 344.78188 L245.36507 340.53305 L251.47214 336.50592 L257.68397 332.70036 L263.99461 329.11623 L270.39815 325.75341 L276.88866 322.61175 L283.46019 319.69113 L290.10683 316.9914 L296.82265 314.51244 L303.60171 312.25412 L310.43809 310.21629 L317.32585 308.39883 L324.25907 306.8016 L331.23182 305.42447 L338.23816 304.2673 L345.27218 303.32996 L352.32793 302.61232 L359.3995 302.11424 L366.48095 301.83558 L373.56634 301.77622 L380.64976 301.93603 L387.72527 302.31486 L394.78695 302.91258 L401.82886 303.72907 L408.84507 304.76417 L415.82966 306.01778 L422.77669 307.48974 L429.68024 309.17992 L436.53438 311.0882 L443.33317 313.21443 L450.07069 315.55848 L456.74101 318.12023 L463.3382 320.89953 L469.85632 323.89625 L476.28946 327.11027 L482.63168 330.54143 L488.87705 334.18962 L495.01964 338.05469 L501.05353 342.13652 L506.97278 346.43496 L512.77146 350.94989 L518.44364 355.68118 L523.9834 360.62868 L529.38481 365.79227 L534.64193 371.1718 L539.74884 376.76715 L544.69961 382.57819 L549.4883 388.60478 L554.109 394.84678 L558.55576 401.30406 L562.82266 407.97649 L566.90377 414.86393 L568.8728 418.38825 L568.8728 418.38825 L570.70766 421.80469 L574.18095 428.67169 L577.3945 435.58028 L580.35094 442.5258 L583.05289 449.50356 L585.50298 456.5089 L587.70382 463.53715 L589.65804 470.58363 L591.36826 477.64367 L592.83711 484.7126 L594.06721 491.78575 L595.06117 498.85844 L595.82162 505.92601 L596.35119 512.98378 L596.6525 520.02708 L596.72816 527.05124 L596.58081 534.05158 L596.21306 541.02344 L595.62753 547.96214 L594.82686 554.86302 L593.81365 561.72139 L592.59054 568.53259 L591.16015 575.29195 L589.52509 581.99479 L587.688 588.63644 L585.65148 595.21224 L583.41818 601.7175 L580.9907 608.14756 L578.37167 614.49774 L575.56372 620.76337 L572.56946 626.93979 L569.39152 633.02232 L566.03252 639.00628 L562.49509 644.88701 L558.78184 650.65983 L554.8954 656.32007 L550.83839 661.86307 L546.61343 667.28414 L542.22314 672.57862 L537.67016 677.74183 L532.95709 682.7691 L528.08657 687.65577 L523.06122 692.39715 L517.88365 696.98858 L512.55649 701.42539 L507.08236 705.7029 L501.46389 709.81644 L495.7037 713.76134 L489.8044 717.53293 L483.76863 721.12654 L477.59901 724.53749 L471.29815 727.76111 L464.86868 730.79273 L458.31322 733.62769 L451.6344 736.26129 L444.83484 738.68889 L437.91715 740.90579 L430.88397 742.90734 L423.73791 744.68886 L416.4816 746.24567 L409.11766 747.57311 L401.64871 748.66651 L394.07738 749.52119 L386.40628 750.13247 L382.53414 750.34539" />
    <path d="M200.0345 687.2186 L197.16375 684.09976 L191.6299 677.77217 L186.37142 671.32968 L181.38648 664.77824 L176.67329 658.12382 L172.23003 651.37238 L168.05489 644.52986 L164.14607 637.60224 L160.50175 630.59547 L157.12013 623.51551 L153.9994 616.36832 L151.13774 609.15986 L148.53336 601.89608 L146.18444 594.58295 L144.08916 587.22642 L142.24573 579.83246 L140.65234 572.40702 L139.30717 564.95606 L138.20841 557.48554 L137.35426 550.00142 L136.74291 542.50966 L136.37254 535.01621 L136.24136 527.52704 L136.34754 520.0481 L136.68929 512.58536 L137.26479 505.14477 L138.07223 497.73229 L139.10981 490.35389 L140.37571 483.01551 L141.86813 475.72312 L143.58525 468.48267 L145.52528 461.30014 L147.68639 454.18146 L150.06678 447.13261 L152.66464 440.15955 L155.47817 433.26822 L158.50554 426.4646 L161.74497 419.75464 L165.19462 413.14429 L168.8527 406.63952 L172.7174 400.24629 L176.78691 393.97055 L181.05942 387.81827 L185.53311 381.7954 L190.20619 375.9079 L195.07683 370.16174 L200.14324 364.56286 L205.40361 359.11723 L210.85612 353.83081 L216.49896 348.70956 L222.33033 343.75943 L228.34842 338.98638 L234.55141 334.39638 L240.93751 329.99539 L247.50489 325.78935 L254.25176 321.78423 L261.1763 317.98599 L268.2767 314.40059 L275.55116 311.03399 L282.99786 307.89214 L290.615 304.981 L298.40077 302.30654 L306.35335 299.87472 L314.47094 297.69148 L318.59105 296.69495 L318.59105 296.69495 L322.72743 295.76823 L330.9742 294.13957 L339.18281 292.80683 L347.34898 291.76547 L355.46848 291.01093 L363.53703 290.53868 L371.55039 290.34416 L379.50429 290.42283 L387.39449 290.77014 L395.21673 291.38156 L402.96674 292.25252 L410.64028 293.37848 L418.23309 294.75491 L425.74091 296.37725 L433.15948 298.24095 L440.48456 300.34148 L447.71188 302.67428 L454.83718 305.2348 L461.85622 308.01851 L468.76474 311.02086 L475.55847 314.23729 L482.23317 317.66327 L488.78457 321.29425 L495.20843 325.12567 L501.50048 329.15301 L507.65647 333.3717 L513.67214 337.7772 L519.54324 342.36497 L525.26551 347.13047 L530.8347 352.06913 L536.24655 357.17643 L541.49679 362.44781 L546.58119 367.87872 L551.49548 373.46462 L556.2354 379.20097 L560.7967 385.08322 L565.17512 391.10682 L569.36641 397.26722 L573.36631 403.55988 L577.17056 409.98026 L580.77491 416.5238 L584.1751 423.18597 L587.36688 429.96221 L590.346 436.84797 L593.10818 443.83873 L595.64918 450.92991 L597.96475 458.11699 L600.05062 465.39541 L601.90254 472.76064 L603.51625 480.20811 L604.8875 487.73329 L606.01204 495.33163 L606.8856 502.99858 L607.50393 510.7296 L607.86277 518.52014 L607.95787 526.36566 L607.78497 534.2616 L607.33982 542.20343 L606.61815 550.1866 L605.61572 558.20656 L604.32827 566.25876 L602.75154 574.33866 L600.88127 582.44171 L598.71321 590.56337 L597.51618 594.62976" />
    <path d="M600.30392 432.19171 L601.58521 435.36567 L604.01266 441.75851 L606.2594 448.20805 L608.32478 454.71042 L610.20814 461.2618 L611.90882 467.85831 L613.42617 474.49612 L614.75951 481.17138 L615.90819 487.88024 L616.87156 494.61884 L617.64895 501.38335 L618.2397 508.16991 L618.64317 514.97466 L618.85868 521.79377 L618.88557 528.62339 L618.7232 535.45966 L618.57083 538.87908" />
    <path d="M589.17814 665.66137 L586.98968 669.01097 L582.47192 675.5879 L577.77034 681.99958 L572.88969 688.24334 L567.83471 694.3165 L562.61016 700.21638 L557.2208 705.94031 L551.67136 711.48562 L545.9666 716.84962 L540.11127 722.02964 L534.11012 727.023 L527.9679 731.82704 L521.68936 736.43907 L515.27925 740.85641 L508.74231 745.0764 L502.08331 749.09635 L495.30699 752.91359 L488.4181 756.52544 L481.42139 759.92924 L474.32161 763.12229 L467.12351 766.10193 L459.83185 768.86548 L452.45136 771.41027 L444.98681 773.73361 L437.44293 775.83284 L429.82449 777.70527 L422.13623 779.34824 L414.38291 780.75906 L406.56926 781.93506 L398.70005 782.87356 L390.78002 783.57189 L382.81392 784.02737 L378.81508 784.16321" />
    <path d="M484.17574 771.01783 L479.7543 772.99768 L470.88932 776.69971 L461.99969 780.06164 L453.09123 783.08759 L444.16973 785.78167 L435.24099 788.14802 L426.31082 790.19075 L417.38502 791.91399 L408.4694 793.32185 L399.56974 794.41846 L390.69186 795.20795 L381.84155 795.69443 L373.02462 795.88203 L364.24687 795.77487 L355.51411 795.37707 L346.83212 794.69275 L338.20673 793.72603 L329.64371 792.48105 L321.14889 790.96191 L312.72806 789.17274 L304.38702 787.11767 L296.13157 784.80082 L287.96752 782.2263 L279.90067 779.39824 L271.93682 776.32077 L264.08177 772.99799 L256.34132 769.43405 L248.72128 765.63306 L241.22744 761.59913 L233.86562 757.3364 L226.6416 752.84898 L219.5612 748.14101 L212.63021 743.21659 L205.85443 738.07985 L199.23968 732.73492 L192.79174 727.18591 L186.51642 721.43695 L180.41953 715.49216 L174.50686 709.35566 L168.78422 703.03158 L163.25741 696.52404 L157.93223 689.83715 L152.81448 682.97504 L147.90997 675.94184 L143.22449 668.74167 L138.76384 661.37864 L134.53384 653.85688 L130.54028 646.18051 L126.78896 638.35365 L123.28569 630.38044 L120.03626 622.26497 L117.04649 614.0114 L114.32216 605.62382 L111.86909 597.10636 L109.69306 588.46316 L107.7999 579.69832 L106.19539 570.81598 L104.88534 561.82024 L103.87556 552.71525 L103.17183 543.50511 L102.77997 534.19394 L102.70578 524.78589 L102.95506 515.28505 L103.5336 505.69556 L103.94817 500.86886 L103.94817 500.86886 L104.54083 495.22691 L106.07749 484.01438 L108.07749 472.90819 L110.53473 461.92174 L113.44309 451.06843 L116.79644 440.36165 L120.58868 429.8148 L124.81367 419.44127 L129.46531 409.25448 L134.53747 399.2678 L140.02405 389.49464 L145.91892 379.94841 L152.21595 370.64248 L158.90905 361.59027 L165.99208 352.80516 L173.45894 344.30056 L177.33439 340.15764" />
    <path d="M621.08327 655.28545 L618.92933 659.35839 L614.43777 667.37001 L609.70618 675.19941 L604.74042 682.84276 L599.54636 690.29625 L594.12986 697.55605 L588.49678 704.61834 L582.65299 711.47928 L576.60434 718.13507 L570.3567 724.58187 L563.91592 730.81586 L557.28788 736.83322 L550.47843 742.63012 L543.49344 748.20274 L536.33877 753.54726 L529.02027 758.65985 L521.54382 763.53668 L513.91527 768.17394 L506.14049 772.5678 L498.22534 776.71444 L490.17568 780.61003 L481.99738 784.25075 L473.69628 787.63277 L465.27827 790.75228 L456.74919 793.60544 L448.11492 796.18843 L439.38131 798.49744 L430.55422 800.52863 L421.63953 802.27818 L412.64308 803.74227 L403.57075 804.91708 L394.42839 805.79877 L389.83278 806.12851" />
    <path d="M136.77831 698.68112 L133.71099 694.42261 L127.84488 685.82581 L122.33426 677.12851 L117.17601 668.33778 L112.36703 659.46065 L107.90421 650.5042 L103.78445 641.47548 L100.00465 632.38155 L96.56169 623.22946 L93.45247 614.02627 L90.67389 604.77904 L88.22284 595.49483 L86.09622 586.18069 L84.29091 576.84368 L82.80383 567.49085 L81.63185 558.12928 L80.77187 548.766 L80.2208 539.40808 L79.97551 530.06258 L80.03292 520.73655 L80.38991 511.43705 L81.04337 502.17114 L81.99021 492.94587 L83.22731 483.76831 L84.75158 474.6455 L86.5599 465.58451 L88.64917 456.5924 L91.01629 447.67621 L93.65815 438.84301 L96.57164 430.09986 L99.75366 421.45381 L103.2011 412.91192 L106.91086 404.48124 L110.87983 396.16884 L115.10492 387.98177 L119.583 379.92709 L124.31098 372.01185 L129.28575 364.24311 L134.50421 356.62794 L139.96325 349.17338 L145.65976 341.88649 L151.59064 334.77434 L157.75279 327.84397 L164.1431 321.10245 L170.75846 314.55683 L177.59576 308.21417 L184.65192 302.08153 L191.9238 296.16596 L199.40833 290.47452 L207.10237 285.01427 L215.00284 279.79227 L223.10663 274.81557 L231.41062 270.09123 L239.91172 265.6263 L248.60682 261.42785 L257.49282 257.50293 L266.5666 253.8586 L275.82507 250.50192 L285.26512 247.43994 L294.88364 244.67972 L304.67753 242.22831 L314.64367 240.09278 L324.77898 238.28019 L335.08034 236.79758 L340.29232 236.18222 L340.29232 236.18222 L345.51395 235.65509 L355.89205 234.8733 L366.17944 234.44961 L376.37157 234.3778 L386.46388 234.65167 L396.4518 235.26498 L406.33078 236.21152 L416.09626 237.48508 L425.74368 239.07944 L435.26848 240.98837 L444.66611 243.20566 L453.932 245.7251 L463.06159 248.54046 L472.05033 251.64552 L480.89366 255.03408 L489.58701 258.6999 L498.12584 262.63678 L506.50557 266.8385 L514.72165 271.29883 L522.76953 276.01155 L530.64464 280.97047 L538.34242 286.16934 L545.85831 291.60196 L553.18777 297.2621 L560.32621 303.14356 L567.2691 309.24011 L574.01187 315.54553 L580.54995 322.0536 L586.8788 328.75812 L592.99384 335.65285 L598.89053 342.73158 L604.56431 349.9881 L610.01061 357.41619 L615.22487 365.00962 L620.20254 372.76219 L624.93906 380.66766 L629.42987 388.71983 L633.6704 396.91248 L637.65611 405.23938 L641.38243 413.69433 L644.8448 422.2711 L648.03867 430.96347 L650.95947 439.76523 L653.60264 448.67016 L655.96364 457.67204 L658.03789 466.76465 L659.82083 475.94178 L661.30792 485.1972 L662.49459 494.5247 L663.37628 503.91807 L663.94843 513.37108 L664.20649 522.87751 L664.14589 532.43115 L663.76208 542.02579 L663.05049 551.65519 L662.00658 561.31315 L660.62577 570.99344 L658.90351 580.68985 L656.83524 590.39616 L654.4164 600.10615 L651.64243 609.81361 L648.50878 619.51231 L645.01088 629.19604 L641.14418 638.85859 L639.0711 643.67997" />
    <path d="M359.175 828.86027 L353.73205 828.58267 L342.95577 827.75799 L332.32875 826.57992 L321.8547 825.05555 L311.53732 823.19199 L301.38032 820.99633 L291.38741 818.47567 L281.56228 815.63711 L271.90865 812.48775 L262.43021 809.03468 L253.13068 805.285 L244.01376 801.24581 L235.08316 796.9242 L226.34257 792.32729 L217.79571 787.46215 L209.44627 782.3359 L201.29798 776.95562 L193.35452 771.32843 L185.61961 765.4614 L178.09694 759.36165 L170.79024 753.03627 L163.70319 746.49236 L156.83951 739.73702 L150.2029 732.77734 L143.79707 725.62042 L137.62571 718.27336 L131.69255 710.74325 L126.00127 703.03721 L120.55559 695.16231 L115.35921 687.12567 L110.41584 678.93438 L105.72918 670.59553 L101.30294 662.11623 L97.14082 653.50357 L93.24653 644.76466 L89.62376 635.90658 L86.27624 626.93644 L83.20766 617.86133 L80.42173 608.68835 L77.92215 599.42461 L75.71262 590.07719 L73.79687 580.6532 L72.17857 571.15973 L70.86146 561.60388 L69.84922 551.99275 L69.14556 542.33344 L68.7542 532.63305 L68.67882 522.89867 L68.92315 513.1374 L69.49088 503.35633 L70.38572 493.56258 L71.61137 483.76323 L73.17155 473.96538 L75.06995 464.17613 L77.31027 454.40258 L79.89624 444.65183 L82.83154 434.93097 L86.11989 425.2471 L89.76499 415.60732 L93.77054 406.01873 L98.14026 396.48842 L102.87784 387.0235 L107.98699 377.63106 L113.47142 368.3182 L116.35552 363.69383 L116.35552 363.69383 L119.31741 359.11889 L125.41974 350.1987 L131.75349 341.58447 L138.31065 333.27586 L145.08323 325.27253 L152.06323 317.57414 L159.24264 310.18035 L166.61347 303.09082 L174.16772 296.30521 L181.89738 289.82318 L189.79446 283.64439 L197.85096 277.7685 L206.05889 272.19517 L214.41023 266.92406 L222.89699 261.95483 L231.51117 257.28713 L240.24477 252.92064 L249.0898 248.855 L258.03824 245.08988 L267.08211 241.62494 L276.21341 238.45984 L285.42412 235.59423 L294.70627 233.02778 L304.05183 230.76015 L313.45282 228.79099 L322.90124 227.11997 L332.38908 225.74675 L341.90835 224.67098 L351.45105 223.89233 L361.00917 223.41046 L370.57473 223.22502 L380.13971 223.33568 L389.69612 223.74209 L399.23596 224.44392 L408.75123 225.44082 L418.23393 226.73246 L427.67607 228.31849 L437.06963 230.19857 L446.40663 232.37237 L455.67906 234.83954 L464.87892 237.59975 L473.99822 240.65265 L483.02895 243.9979 L491.96311 247.63517 L500.79271 251.56411 L509.50975 255.78438 L518.10622 260.29564 L526.57413 265.09756 L534.90547 270.18979 L543.09226 275.57199 L551.12648 281.24382 L559.00014 287.20494 L566.70524 293.45502 L574.23377 299.9937 L581.57775 306.82066 L588.72917 313.93555 L595.68003 321.33802 L602.42233 329.02775 L608.94808 337.00439 L615.24926 345.2676 L621.31789 353.81703 L627.14596 362.65236 L632.72548 371.77323 L638.04844 381.17932 L640.61121 385.98921" />
    <path d="M682.69635 573.10607 L681.80496 578.68722 L679.75652 589.70651 L677.36031 600.53262 L674.62405 611.16251 L671.55549 621.59314 L668.16234 631.82149 L664.45235 641.84453 L660.43323 651.65922 L656.11272 661.26254 L651.49856 670.65144 L646.59846 679.82291 L641.42016 688.77391 L635.9714 697.5014 L630.25989 706.00237 L624.29338 714.27377 L618.07959 722.31258 L611.62625 730.11576 L604.94109 737.68029 L598.03185 745.00313 L590.90624 752.08126 L583.57201 758.91163 L576.03689 765.49122 L568.3086 771.817 L560.39487 777.88594 L552.30343 783.69501 L544.04203 789.24117 L535.61837 794.5214 L527.0402 799.53266 L518.31525 804.27192 L509.45124 808.73616 L500.45591 812.92233 L491.33698 816.82741 L482.10219 820.44838 L472.75927 823.78219 L463.31594 826.82581 L453.77994 829.57622 L444.159 832.03039 L434.46085 834.18528 L424.69321 836.03786 L414.86382 837.5851 L404.98042 838.82397 L395.05072 839.75144 L385.08246 840.36448 L375.08337 840.66005 L365.06118 840.63513 L355.02362 840.28669 L344.97842 839.61168 L334.93331 838.6071 L324.89602 837.26989 L314.87428 835.59703 L304.87583 833.5855 L294.90839 831.23225 L284.97969 828.53426 L275.09746 825.48849 L265.26943 822.09192 L255.50334 818.34152 L245.80691 814.23425 L236.18787 809.76708 L226.65396 804.93698 L217.2129 799.74092 L207.87243 794.17587 L198.64027 788.2388 L189.52416 781.92668 L180.53182 775.23647 L176.08448 771.74863 L176.08448 771.74863 L173.01944 769.27115 L166.99479 764.21149 L161.11214 759.01484 L155.37321 753.68437 L149.77973 748.2232 L144.33341 742.63448 L139.03598 736.92135 L133.88916 731.08697 L128.89467 725.13447 L124.05422 719.06699 L119.36955 712.88769 L114.84237 706.5997 L110.4744 700.20616 L106.26736 693.71023 L102.22297 687.11504 L98.34297 680.42374 L94.62905 673.63947 L91.08295 666.76537 L87.7064 659.8046 L84.50109 652.76028 L81.46877 645.63557 L78.61115 638.43361 L75.92995 631.15755 L73.42689 623.81052 L71.1037 616.39567 L68.96208 608.91614 L67.00378 601.37508 L65.23049 593.77564 L63.64396 586.12094 L62.24589 578.41415 L61.03801 570.6584 L60.02204 562.85683 L59.58656 558.93985" />
    <path d="M55.87697 603.10586 L54.54126 597.40655 L52.18058 586.04075 L50.22906 574.72365 L48.68046 563.4612 L47.52858 552.25932 L46.76718 541.12396 L46.39005 530.06106 L46.39097 519.07656 L46.76371 508.17639 L47.50207 497.3665 L48.59981 486.65281 L50.05072 476.04128 L51.84858 465.53784 L53.98717 455.14843 L56.46027 444.87898 L59.26165 434.73544 L62.3851 424.72375 L65.8244 414.84983 L69.57333 405.11964 L73.62567 395.53911 L77.97519 386.11418 L82.61569 376.85079 L87.54093 367.75488 L92.74469 358.83238 L98.22077 350.08923 L103.96293 341.53138 L109.96496 333.16476 L116.22064 324.99531 L122.72375 317.02896 L129.46806 309.27167 L136.44737 301.72936 L143.65544 294.40798 L151.08605 287.31346 L158.733 280.45174 L166.59005 273.82877 L174.65099 267.45047 L182.90959 261.3228 L191.35965 255.45168 L199.99493 249.84305 L208.80921 244.50286 L217.79629 239.43705 L226.94993 234.65154 L236.26392 230.15229 L245.73204 225.94523 L255.34806 222.03629 L265.10577 218.43142 L274.99895 215.13656 L285.02137 212.15764 L295.16682 209.50061 L305.42908 207.17139 L315.80192 205.17594 L326.27913 203.52018 L336.85449 202.21007 L347.52177 201.25153 L358.27476 200.6505 L369.10724 200.41293 L380.01298 200.54475 L390.98577 201.0519 L402.01939 201.94033 L413.10761 203.21596 L424.24422 204.88473 L435.42299 206.9526 L446.63771 209.42549 L457.88216 212.30934 L463.51359 213.90723 L463.51359 213.90723 L469.11719 215.60013 L480.1406 219.23863 L490.91726 223.20711 L501.44513 227.49721 L511.72218 232.10058 L521.74638 237.00887 L531.5157 242.21372 L541.0281 247.70676 L550.28155 253.47966 L559.27401 259.52404 L568.00346 265.83155 L576.46786 272.39384 L584.66518 279.20256 L592.59338 286.24934 L600.25044 293.52582 L607.63431 301.02366 L614.74296 308.7345 L621.57437 316.64998 L628.1265 324.76174 L634.39731 333.06143 L640.38478 341.54069 L646.08687 350.19118 L651.50154 359.00452 L656.62677 367.97236 L661.46052 377.08635 L666.00075 386.33814 L670.24544 395.71936 L674.19255 405.22167 L677.84006 414.83669 L681.18591 424.55609 L684.22809 434.37149 L686.96456 444.27456 L689.39329 454.25692 L691.51224 464.31022 L693.31937 474.42612 L694.81267 484.59624 L695.99009 494.81225 L696.8496 505.06577 L697.38917 515.34845 L697.60677 525.65194 L697.50036 535.96788 L697.0679 546.28792 L696.30738 556.6037 L695.21674 566.90686 L693.79397 577.18905 L692.03702 587.44191 L689.94387 597.65708 L687.51248 607.82621 L684.74081 617.94095 L681.62684 627.99293 L678.16853 637.97381 L674.36385 647.87521 L670.21077 657.6888 L665.70725 667.40621 L660.85126 677.01908 L655.64076 686.51907 L650.07373 695.89781 L644.14813 705.14695 L637.86192 714.25813 L631.21308 723.223 L624.19957 732.03319 L616.81936 740.68036 L609.07042 749.15615 L600.9507 757.4522 L596.75117 761.53021" />
  </g>
</svg>