<?xml version="1.0" standalone="no"?>
<!DOCTYPE svg PUBLIC "-//W3C//DTD SVG 1.1//EN" 
    "http://www.w3.org/Graphics/SVG/1.1/DTD/svg11.dtd">
<svg width="2480px" height="3508px"
    xmlns="http://www.w3.org/2000/svg" version="1.1" viewBox="0 0 2480 3508">
  <g fill="none" stroke="black" stroke-width="1.06299px">
    <path d="M620 1134 L1860 1134" />
    <path d="M1860 1134 L1860 2374" />
    <path d="M1860 2374 L620 2374" />
    <path d="M620 2374 L620 1134" />
    <path d="M655.9751738847117 1112.9836684849718 L1895.2197993883904 1156.259044396073" />
    <path d="M1895.2197993883904 1156.259044396073 L1851.944423477289 2395.503669899752" />
    <path d="M1851.944423477289 2395.503669899752 L612.6997979736104 2352.2282939886504" />
    <path d="M612.6997979736104 2352.2282939886504 L655.9751738847117 1112.9836684849718" />
    <path d="M692.6618920579168 1093.2356550136217 L1929.6413143800987 1179.733682456337" />
    <path d="M1929.6413143800987 1179.733682456337 L1843.1432869373834 2416.7131047785188" />
    <path d="M1843.1432869373834 2416.7131047785188 L606.1638646152014 2330.2150773358035" />
    <path d="M606.1638646152014 2330.2150773358035 L692.6618920579168 1093.2356550136217" />
    <path d="M730.0154574046771 1074.780019498416 L1963.222607661336 1204.3953139503064" />
    <path d="M1963.222607661336 1204.3953139503064 L1833.6073132094457 2437.602464206965" />
    <path d="M1833.6073132094457 2437.602464206965 L600.4001629527868 2307.987169755075" />
    <path d="M600.4001629527868 2307.987169755075 L730.0154574046771 1074.780019498416" />
    <path d="M767.9903603594931 1057.6392472883576 L1995.9227655990403 1230.2138924788387" />
    <path d="M1995.9227655990403 1230.2138924788387 L1823.3481204085592 2458.146297718386" />
    <path d="M1823.3481204085592 2458.146297718386 L595.415715169012 2285.571652527905" />
    <path d="M595.415715169012 2285.571652527905 L767.9903603594931 1057.6392472883576" />
    <path d="M806.5403343526999 1041.834221774051 L2027.701948087838 1257.1579620810446" />
    <path d="M2027.701948087838 1257.1579620810446 L1812.3782077808441 2478.319575816183" />
    <path d="M1812.3782077808441 2478.319575816183 L591.2165940457063 2262.995835509189" />
    <path d="M591.2165940457063 2262.995835509189 L806.5403343526999 1041.834221774051" />
    <path d="M845.6184121791549 1027.3841989445073 L2058.521437089074 1285.194695558529" />
    <path d="M2058.521437089074 1285.194695558529 L1800.7109404750527 2498.097720468448" />
    <path d="M1800.7109404750527 2498.097720468448 L587.8079155651334 2240.2872238544264" />
    <path d="M587.8079155651334 2240.2872238544264 L845.6184121791549 1027.3841989445073" />
    <path d="M885.1769832205433 1014.3067839266896 L2088.3436838027787 1314.2899344702776" />
    <path d="M2088.3436838027787 1314.2899344702776 L1788.360533259191 2517.4566350525133" />
    <path d="M1788.360533259191 2517.4566350525133 L585.1938326769554 2217.473484508925" />
    <path d="M585.1938326769554 2217.473484508925 L885.1769832205433 1014.3067839266896" />
    <path d="M925.1678514515816 1002.6179095363752 L2117.132354415097 1344.4082307494543" />
    <path d="M2117.132354415097 1344.4082307494543 L1775.3420332020178 2536.3727337129694" />
    <path d="M1775.3420332020178 2536.3727337129694 L583.3775302385026 2194.582412499891" />
    <path d="M583.3775302385026 2194.582412499891 L925.1678514515816 1002.6179095363752" />
    <path d="M965.5422941594512 992.331816866476 L2144.8523743654414 1375.5128898914109" />
    <path d="M2144.8523743654414 1375.5128898914109 L1761.6713013405067 2554.822970097401" />
    <path d="M1761.6713013405067 2554.822970097401 L582.3612211345164 2171.6418970724662" />
    <path d="M582.3612211345164 2171.6418970724662 L965.5422941594512 992.331816866476" />
    <path d="M1006.2511213049188 983.4610379364588 L2171.4699710794453 1407.566015660288" />
    <path d="M2171.4699710794453 1407.566015660288 L1747.3649933556162 2572.7848654348145" />
    <path d="M1747.3649933556162 2572.7848654348145 L582.1461435810896 2148.6798877109854" />
    <path d="M582.1461435810896 2148.6798877109854 L1006.2511213049188 983.4610379364588" />
    <path d="M1047.2447354528222 976.0163804240115 L2196.9527151156385 1440.5285562597423" />
    <path d="M2196.9527151156385 1440.5285562597423 L1732.4405392799076 2590.2365359225587" />
    <path d="M1732.4405392799076 2590.2365359225587 L582.7325596170912 2125.724360086828" />
    <path d="M582.7325596170912 2125.724360086828 L1047.2447354528222 976.0163804240115" />
    <path d="M1088.4731921989037 970.006914497551 L2221.2695596757285 1474.3603519115431" />
    <path d="M2221.2695596757285 1474.3603519115431 L1716.9161222617365 2607.1567193883684" />
    <path d="M1716.9161222617365 2607.1567193883684 L584.1197547849115 2102.803281974376" />
    <path d="M584.1197547849115 2102.803281974376 L1088.4731921989037 970.006914497551" />
    <path d="M1129.8862610193755 965.4399617656218 L2244.3908784303426 1509.0201837840777" />
    <path d="M2244.3908784303426 1509.0201837840777 L1700.8106564118866 2623.524801195045" />
    <path d="M1700.8106564118866 2623.524801195045 L586.3060390009194 2079.944579176589" />
    <path d="M586.3060390009194 2079.944579176589 L1129.8862610193755 965.4399617656218" />
    <path d="M1171.4334864690738 962.3210863566421 L2266.2885016141436 1544.4658242111468" />
    <path d="M2266.2885016141436 1544.4658242111468 L1684.1437637596387 2639.3208393562163" />
    <path d="M1684.1437637596387 2639.3208393562163 L589.2887486145693 2057.176101501712" />
    <path d="M589.2887486145693 2057.176101501712 L1171.4334864690738 962.3210863566421" />
    <path d="M1213.064249653648 960.6540881398726 L2286.935750346352 1580.6540881398726" />
    <path d="M2286.935750346352 1580.6540881398726 L1666.935750346352 2654.5255888325764" />
    <path d="M1666.935750346352 2654.5255888325764 L593.064249653648 2034.5255888325767" />
    <path d="M593.064249653648 2034.5255888325767 L1213.064249653648 960.6540881398726" />
    <path d="M1254.727829900885 960.4409980958585 L2306.307469134853 1617.5408857450325" />
    <path d="M2306.307469134853 1617.5408857450325 L1649.207581485679 2669.120524979001" />
    <path d="M1649.207581485679 2669.120524979001 L597.6279422517108 2012.0206373298267" />
    <path d="M597.6279422517108 2012.0206373298267 L1254.727829900885 960.4409980958585" />
    <path d="M1296.373466556036 961.6820758419944 L2324.3800565242877 1655.0812761457207" />
    <path d="M2324.3800565242877 1655.0812761457207 L1630.9808562205615 2683.0878661139723" />
    <path d="M1630.9808562205615 2683.0878661139723 L602.9742662523099 1989.688665810246" />
    <path d="M602.9742662523099 1989.688665810246 L1296.373466556036 961.6820758419944" />
    <path d="M1337.9504208258552 964.3758093162203 L2341.1314938507903 1693.229522158887" />
    <path d="M2341.1314938507903 1693.229522158887 L1612.2777810081234 2696.410595183822" />
    <path d="M1612.2777810081234 2696.410595183822 L609.0967079831885 1967.556882341155" />
    <path d="M609.0967079831885 1967.556882341155 L1337.9504208258552 964.3758093162203" />
    <path d="M1379.4080375960039 968.5189166192356 L2356.541372068339 1731.9391460230518" />
    <path d="M2356.541372068339 1731.9391460230518 L1593.1211426645227 2709.072480495387" />
    <path d="M1593.1211426645227 2709.072480495387 L615.9878081921876 1945.6522510915706" />
    <path d="M615.9878081921876 1945.6522510915706 L1379.4080375960039 968.5189166192356" />
    <path d="M1420.6958071465037 974.1063500129881 L2370.5909166140364 1771.1629860242965" />
    <path d="M2370.5909166140364 1771.1629860242965 L1573.534280602728 2721.0580954918296" />
    <path d="M1573.534280602728 2721.0580954918296 L623.6391711351949 1924.001459480521" />
    <path d="M623.6391711351949 1924.001459480521 L1420.6958071465037 974.1063500129881" />
    <path d="M1461.763426690051 981.1313020705657 L2383.26301028202 1810.85325395555" />
    <path d="M2383.26301028202 1810.85325395555 L1553.5410583970356 2732.352837547519" />
    <path d="M1553.5410583970356 2732.352837547519 L632.0414748050667 1902.6308856625346" />
    <path d="M632.0414748050667 1902.6308856625346 L1461.763426690051 981.1313020705657" />
    <path d="M1502.5608616582135 989.5852139699975 L2394.542214078141 1850.961593339154" />
    <path d="M2394.542214078141 1850.961593339154 L1533.1658347089842 2742.9429457590813" />
    <path d="M1533.1658347089842 2742.9429457590813 L641.1844822890569 1881.566566389925" />
    <path d="M641.1844822890569 1881.566566389925 L1502.5608616582135 989.5852139699975" />
    <path d="M1543.0384066608458 999.4577859218589 L2404.4147860300027 1891.4391383417865" />
    <path d="M2404.4147860300027 1891.4391383417865 L1512.433433610075 2752.815517710943" />
    <path d="M1512.433433610075 2752.815517710943 L651.0570542409184 1860.8341652910158" />
    <path d="M651.0570542409184 1860.8341652910158 L1543.0384066608458 999.4577859218589" />
    <path d="M1583.14674604445 1010.7369897179801 L2412.8686979294343 1932.236573309949" />
    <path d="M2412.8686979294343 1932.236573309949 L1491.3691143374654 2761.9585251949334" />
    <path d="M1491.3691143374654 2761.9585251949334 L661.6471624524811 1840.4589416029644" />
    <path d="M661.6471624524811 1840.4589416029644 L1583.14674604445 1010.7369897179801" />
    <path d="M1622.8370139757033 1023.4090833859634 L2419.893649987012 1973.3041928534963" />
    <path d="M2419.893649987012 1973.3041928534963 L1469.9985405194793 2770.360828864805" />
    <path d="M1469.9985405194793 2770.360828864805 L672.9419045081704 1820.4657193972723" />
    <path d="M672.9419045081704 1820.4657193972723 L1622.8370139757033 1023.4090833859634" />
    <path d="M1662.0608539769482 1037.4586279316609 L2425.481083380764 2014.5919624039961" />
    <path d="M2425.481083380764 2014.5919624039961 L1448.3477489084294 2778.0121918078125" />
    <path d="M1448.3477489084294 2778.0121918078125 L684.927519504613 1800.8788573354773" />
    <path d="M684.927519504613 1800.8788573354773 L1662.0608539769482 1037.4586279316609" />
    <path d="M1700.7704778411128 1052.86850614921 L2429.6241906837795 2056.0495791741446" />
    <path d="M2429.6241906837795 2056.0495791741446 L1426.443117658845 2784.9032920168115" />
    <path d="M1426.443117658845 2784.9032920168115 L697.5894048161781 1781.7222189918768" />
    <path d="M697.5894048161781 1781.7222189918768 L1700.7704778411128 1052.86850614921" />
    <path d="M1738.9187238542793 1069.6199434757123 L2432.3179241580056 2097.626533443964" />
    <path d="M2432.3179241580056 2097.626533443964 L1404.311334189754 2791.02573374769" />
    <path d="M1404.311334189754 2791.02573374769 L710.9121338860277 1763.0191437794385" />
    <path d="M710.9121338860277 1763.0191437794385 L1738.9187238542793 1069.6199434757123" />
    <path d="M1776.4591142549675 1087.6925308651469 L2433.5590019041415 2139.272170099115" />
    <path d="M2433.5590019041415 2139.272170099115 L1381.9793626701733 2796.372057748289" />
    <path d="M1381.9793626701733 2796.372057748289 L724.8794750209993 1744.792418514321" />
    <path d="M724.8794750209993 1744.792418514321 L1776.4591142549675 1087.6925308651469" />
    <path d="M1813.3459118601272 1107.064249653648 L2433.3459118601277 2180.9357503463516" />
    <path d="M2433.3459118601277 2180.9357503463516 L1359.4744111674236 2800.935750346352" />
    <path d="M1359.4744111674236 2800.935750346352 L739.4744111674235 1727.064249653648" />
    <path d="M739.4744111674235 1727.064249653648 L1813.3459118601272 1107.064249653648" />
    <path d="M1849.5341757888532 1127.7114983858567 L2431.6789136433576 2222.566513530926" />
    <path d="M2431.6789136433576 2222.566513530926 L1336.8238984982884 2804.711251385431" />
    <path d="M1336.8238984982884 2804.711251385431 L754.6791606437837 1709.8562362403613" />
    <path d="M754.6791606437837 1709.8562362403613 L1849.5341757888532 1127.7114983858567" />
    <path d="M1884.9798162159223 1149.6091215696574 L2428.560038234378 2264.1137389806245" />
    <path d="M2428.560038234378 2264.1137389806245 L1314.0554208234112 2807.6939609990804" />
    <path d="M1314.0554208234112 2807.6939609990804 L770.4751988049552 1693.1893435881134" />
    <path d="M770.4751988049552 1693.1893435881134 L1884.9798162159223 1149.6091215696574" />
    <path d="M1919.6396480884569 1172.7304403242713 L2423.993085502449 2305.5268078010963" />
    <path d="M2423.993085502449 2305.5268078010963 L1291.1967180256238 2809.8802452150885" />
    <path d="M1291.1967180256238 2809.8802452150885 L786.8432806116317 1677.0838777382635" />
    <path d="M786.8432806116317 1677.0838777382635 L1919.6396480884569 1172.7304403242713" />
    <path d="M1953.4714437402577 1197.0472848843615 L2417.9836195759885 2346.755264547178" />
    <path d="M2417.9836195759885 2346.755264547178 L1268.2756399131722 2811.2674403829087" />
    <path d="M1268.2756399131722 2811.2674403829087 L803.7634640774413 1661.5594607200924" />
    <path d="M803.7634640774413 1661.5594607200924 L1953.4714437402577 1197.0472848843615" />
    <path d="M1986.433984339712 1222.5300289205547 L2410.5389620635415 2387.7488786950807" />
    <path d="M2410.5389620635415 2387.7488786950807 L1245.3201122890148 2811.8538564189103" />
    <path d="M1245.3201122890148 2811.8538564189103 L821.2151345651855 1646.635006644384" />
    <path d="M821.2151345651855 1646.635006644384 L1986.433984339712 1222.5300289205547" />
    <path d="M2018.4871101085891 1249.1476256345584 L2401.668183133524 2428.457705840549" />
    <path d="M2401.668183133524 2428.457705840549 L1222.3581029275338 2811.638778865484" />
    <path d="M1222.3581029275338 2811.638778865484 L839.1770299025989 1632.3286986594933" />
    <path d="M839.1770299025989 1632.3286986594933 L2018.4871101085891 1249.1476256345584" />
    <path d="M2049.5917692505454 1276.8676455849031 L2391.382090463625 2468.8321485484184" />
    <path d="M2391.382090463625 2468.8321485484184 L1199.4175875001092 2810.6224697614975" />
    <path d="M1199.4175875001092 2810.6224697614975 L857.6272662870304 1618.6579667979822" />
    <path d="M857.6272662870304 1618.6579667979822 L2049.5917692505454 1276.8676455849031" />
    <path d="M2079.7100655297227 1305.6563161972213 L2379.6932160733104 2508.823016779457" />
    <path d="M2379.6932160733104 2508.823016779457 L1176.5265154910746 2808.8061673230445" />
    <path d="M1176.5265154910746 2808.8061673230445 L876.5433649474868 1605.639466740809" />
    <path d="M876.5433649474868 1605.639466740809 L2079.7100655297227 1305.6563161972213" />
    <path d="M2108.805304441471 1335.478562910926 L2366.6158010554927 2548.3815878208447" />
    <path d="M2366.6158010554927 2548.3815878208447 L1153.7127761455736 2806.1920844348665" />
    <path d="M1153.7127761455736 2806.1920844348665 L895.9022795315519 1593.2890595249476" />
    <path d="M895.9022795315519 1593.2890595249476 L2108.805304441471 1335.478562910926" />
    <path d="M2136.8420379189556 1366.298051912162 L2352.165778225949 2587.4596656473" />
    <path d="M2352.165778225949 2587.4596656473 L1131.004164490811 2802.783405954294" />
    <path d="M1131.004164490811 2802.783405954294 L915.6804241838174 1581.6217922191559" />
    <path d="M915.6804241838174 1581.6217922191559 L2136.8420379189556 1366.298051912162" />
    <path d="M2163.7861075211613 1398.0772344009597 L2336.3607527116424 2626.009639640507" />
    <path d="M2336.3607527116424 2626.009639640507 L1108.428347472095 2798.584284830988" />
    <path d="M1108.428347472095 2798.584284830988 L935.853702281614 1570.6518795914408" />
    <path d="M935.853702281614 1570.6518795914408 L2163.7861075211613 1398.0772344009597" />
    <path d="M2189.6046860496936 1430.777392338664 L2319.219980501584 2663.984542595323" />
    <path d="M2319.219980501584 2663.984542595323 L1086.012830244925 2793.5998370472134" />
    <path d="M1086.012830244925 2793.5998370472134 L956.3975357930348 1560.3926867905543" />
    <path d="M956.3975357930348 1560.3926867905543 L2189.6046860496936 1430.777392338664" />
    <path d="M2214.266317543663 1464.3586856199013 L2300.764344986378 2701.3381079420833" />
    <path d="M2300.764344986378 2701.3381079420833 L1063.7849226641963 2787.8361353847986" />
    <path d="M1063.7849226641963 2787.8361353847986 L977.286895221481 1550.8567130626166" />
    <path d="M977.286895221481 1550.8567130626166 L2214.266317543663 1464.3586856199013" />
    <path d="M2237.740955603927 1498.7802006116094 L2281.0163315150285 2738.0248261152883" />
    <path d="M2281.0163315150285 2738.0248261152883 L1041.7717060113496 2781.3002020263893" />
    <path d="M1041.7717060113496 2781.3002020263893 L998.4963301002483 1542.055576522711" />
    <path d="M998.4963301002483 1542.055576522711 L2237.740955603927 1498.7802006116094" />
  </g>
</svg>