<?xml version="1.0" standalone="no"?>
<!DOCTYPE svg PUBLIC "-//W3C//DTD SVG 1.1//EN" 
    "http://www.w3.org/Graphics/SVG/1.1/DTD/svg11.dtd">
<svg width="21cm" height="29.7cm"
    xmlns="http://www.w3.org/2000/svg" version="1.1" viewBox="0 0 744.09449 1052.3622">
  <g fill="none" stroke="black" stroke-width="0.03cm">
    <path d="M0 0 L35.43307 35.43307" />
    <path d="M363.00242 517.6964 L363.62923 517.07191 L364.96208 515.99073 L366.38354 515.12929 L367.87319 514.48281 L369.4106 514.04652 L370.97535 513.81563 L372.54702 513.78537 L374.10517 513.95096 L375.62939 514.30761 L377.09924 514.85056 L378.49431 515.57501 L379.79416 516.47619 L380.97838 517.54933 L382.02654 518.78963 L382.91821 520.19233 L383.63297 521.75264 L383.91762 522.5904 L383.91762 522.5904 L384.25885 524.00705 L384.43988 526.81076 L384.00057 529.50407 L382.99877 532.00187 L381.49233 534.21899 L379.53908 536.07032 L377.19689 537.4707 L374.52359 538.33501 L373.08085 538.53953" />
    <path d="M382.20645 503.55398 L383.77305 504.3212 L386.64915 506.10902 L389.17862 508.20119 L391.35685 510.55753 L393.17922 513.13787 L394.64114 515.90205 L395.73798 518.80987 L396.46514 521.82118 L396.818 524.8958 L396.79196 527.99355 L396.3824 531.07426 L395.58472 534.09776 L394.3943 537.02387 L392.80654 539.81243 L390.81682 542.42325 L388.42052 544.81616 L387.06847 545.91835" />
    <path d="M334.9789 529.3638 L334.88722 528.0322 L334.84042 525.40662 L335.09951 521.57074 L336.02581 516.67118 L337.56862 512.05029 L339.67633 507.74407 L342.29732 503.78855 L345.38 500.21972 L348.87275 497.07361 L352.72397 494.38622 L356.88205 492.19357 L361.29538 490.53167 L365.91236 489.43653 L370.68137 488.94416 L375.55081 489.09058 L380.46907 489.91179 L384.15877 490.9922 L386.60694 491.9421 L387.82512 492.48763 L387.82512 492.48763 L389.02416 493.07403 L391.32138 494.34628 L394.5138 496.48861 L398.29379 499.74059 L401.5242 503.38715 L404.19964 507.36558 L406.31473 511.61319 L407.86408 516.06728 L408.84232 520.66515 L409.24405 525.34409 L409.06391 530.04142 L408.29649 534.69443 L406.93642 539.24042 L404.97832 543.61669 L402.4168 547.76054 L399.24647 551.60928 L396.46597 554.26444 L394.41924 555.90967 L393.33771 556.69188" />
    <path d="M333.74278 557.70178 L333.27268 557.12167 L332.359 555.9406 L331.91556 555.33986" />
    <path d="M369.56451 464.22295 L371.7885 464.17147 L376.16347 464.29302 L380.43526 464.70468 L384.59686 465.39536 L388.64127 466.35398 L392.56149 467.56946 L396.3505 469.03072 L400.0013 470.72667 L403.50689 472.64623 L406.86027 474.77832 L410.05442 477.11185 L413.08236 479.63575 L415.93706 482.33894 L418.61153 485.21032 L421.09876 488.23882 L423.39175 491.41335 L425.48348 494.72283 L427.36697 498.15619 L429.0352 501.70233 L430.48117 505.35018 L431.69788 509.08865 L432.67831 512.90666 L433.41547 516.79312 L433.90235 520.73697 L434.13194 524.7271 L434.09725 528.75245 L433.79126 532.80192 L433.20697 536.86444 L432.33739 540.92892 L431.17549 544.98428 L429.71429 549.01944 L427.94676 553.02332 L426.94594 555.01007 L426.94594 555.01007 L425.75339 557.17508 L423.11541 561.35238 L421.67314 563.35969" />
    <path d="M301.58239 502.27565 L302.48264 499.76253 L304.50314 494.91474 L306.80413 490.30748 L309.37017 485.94381 L312.18584 481.82681 L315.23572 477.95954 L318.50436 474.34509 L321.97633 470.98652 L325.63622 467.8869 L329.46859 465.04931 L333.458 462.47682 L337.58904 460.1725 L341.84627 458.13942 L346.21425 456.38065 L350.67757 454.89927 L355.22079 453.69835 L359.82848 452.78096 L364.48521 452.15018 L369.17556 451.80907 L373.88409 451.7607 L378.59537 452.00816 L383.29397 452.5545 L387.96446 453.40281 L392.59142 454.55615 L397.15942 456.0176 L401.65302 457.79023 L406.05679 459.87711 L410.35531 462.28131 L414.53314 465.00591 L418.57486 468.05398 L422.46503 471.42858 L426.18823 475.1328 L427.9824 477.10947 L427.9824 477.10947 L430.30693 479.89105 L434.48541 485.69174 L438.03745 491.77128 L440.96428 498.08425 L443.26709 504.58521 L444.94709 511.22871 L446.00551 517.96932 L446.44354 524.7616 L446.26241 531.56013 L445.46331 538.31945 L444.04746 544.99414 L442.01608 551.53876 L439.37037 557.90787 L436.11154 564.05603 L432.2408 569.93781 L427.75936 575.50776 L425.29001 578.16161" />
    <path d="M458.65556 520.25207 L458.78623 522.64537 L458.84918 527.4373 L458.78141 529.8332" />
    <path d="M294.57099 588.15344 L292.23954 585.12144 L287.9689 578.85481 L284.22322 572.34414 L281.00486 565.62076 L278.31614 558.716 L276.15941 551.6612 L274.53702 544.4877 L273.4513 537.22684 L272.9046 529.90994 L272.89926 522.56835 L273.43761 515.23341 L274.52201 507.93644 L276.15478 500.70879 L278.33828 493.58179 L281.07484 486.58678 L284.36681 479.7551 L286.2218 476.4103" />
    <path d="M342.81424 633.89904 L339.26016 632.87386 L332.35489 630.52083 L325.72529 627.77944 L319.37754 624.66795 L313.31783 621.2046 L307.55233 617.40765 L302.08723 613.29534 L296.92871 608.88592 L292.08295 604.19765 L287.55613 599.24876 L283.35444 594.05752 L279.48405 588.64217 L275.95115 583.02096 L272.76191 577.21214 L269.92253 571.23396 L267.43918 565.10467 L265.31803 558.84252 L263.56529 552.46575 L262.18712 545.99262 L261.1897 539.44138 L260.57923 532.83028 L260.36187 526.17756 L260.54382 519.50147 L261.13125 512.82027 L262.13035 506.1522 L263.54729 499.51552 L265.38826 492.92847 L267.65944 486.4093 L270.36701 479.97627 L273.51715 473.64761 L277.11605 467.44159 L281.16989 461.37644 L283.36933 458.4024" />
    <path d="M314.51246 416.31912 L318.43257 414.34894 L326.33384 410.86406 L334.29855 407.97544 L342.30517 405.6698 L350.33215 403.93385 L358.35795 402.7543 L366.36103 402.11788 L374.31985 402.0113 L382.21287 402.42127 L390.01854 403.33453 L397.71533 404.73778 L405.2817 406.61773 L412.69609 408.96111 L419.93697 411.75464 L426.98281 414.98503 L433.81205 418.63899 L440.40316 422.70325 L446.7346 427.16453 L452.78482 432.00953 L458.53228 437.22497 L463.95544 442.79758 L469.03277 448.71407 L473.74271 454.96116 L478.06373 461.52556 L481.97429 468.39399 L485.45284 475.55317 L488.47785 482.98982 L491.02776 490.69064 L493.08105 498.64237 L494.61617 506.83171 L495.61158 515.24539 L496.04573 523.87011 L496.04561 528.25747" />
    <path d="M496.79897 581.37795 L496.0417 583.05869 L494.45946 586.38855 L493.63469 588.03721" />
    <path d="M411.55155 382.70123 L414.97121 383.68623 L421.68869 385.88072 L428.23889 388.36699 L434.61603 391.13601 L440.81432 394.17874 L446.82798 397.48616 L452.65122 401.04924 L458.27827 404.85894 L463.70334 408.90624 L468.92065 413.1821 L473.92441 417.6775 L478.70884 422.3834 L483.26815 427.29077 L487.59657 432.39058 L491.68831 437.6738 L495.53758 443.1314 L499.13861 448.75435 L502.4856 454.53362 L505.57278 460.46018 L508.39437 466.52499 L510.94457 472.71903 L513.2176 479.03326 L515.20769 485.45866 L516.90905 491.98619 L518.31589 498.60683 L519.42243 505.31153 L520.22289 512.09128 L520.71149 518.93704 L520.88244 525.83978 L520.72995 532.79047 L520.24825 539.78007 L519.43155 546.79957 L518.89577 550.3177" />
    <path d="M311.76338 376.65553 L314.46237 375.59383 L319.86645 373.62512 L325.27586 371.86048 L330.68724 370.29731 L336.09723 368.93296 L341.50248 367.76481 L346.89964 366.79024 L352.28534 366.00662 L357.65624 365.41133 L363.00897 365.00173 L368.34018 364.77521 L373.64652 364.72914 L381.55204 364.99262 L391.97436 365.951 L402.23677 367.5839 L412.31244 369.87032 L422.17451 372.78926 L431.79614 376.31972 L441.15049 380.44067 L450.2107 385.13112 L458.94995 390.37007 L467.34136 396.1365 L475.35812 402.40941 L482.97336 409.16779 L490.16024 416.39065 L496.89192 424.05696 L503.14154 432.14573 L508.88228 440.63596 L514.08727 449.50662 L518.72968 458.73673 L522.78265 468.30526 L526.21935 478.19123 L528.3763 485.80137 L529.60769 490.96306 L530.66991 496.19229 L531.55961 501.48643 L532.27343 506.84286 L532.80801 512.25895 L533.15999 517.73209 L533.32603 523.25963 L533.30277 528.83896 L533.08684 534.46745 L532.6749 540.14248 L532.06359 545.86141 L531.68212 548.73653 L531.68212 548.73653 L531.16218 552.15413 L529.91262 558.91432 L528.38861 565.56949 L526.59632 572.1137 L524.54192 578.54098 L522.23158 584.84536 L519.67147 591.0209 L516.86776 597.06161 L513.82662 602.96155 L510.55423 608.71475 L507.05674 614.31525 L503.34034 619.75709 L499.41118 625.03431 L495.27545 630.14094 L490.9393 635.07102 L486.40892 639.8186 L481.69047 644.37771 L476.79012 648.74238 L471.71403 652.90667 L466.46839 656.8646 L461.05936 660.61021 L455.4931 664.13755 L449.7758 667.44065 L443.91362 670.51355 L437.91272 673.35028 L431.77929 675.94489 L425.51948 678.29142 L419.13948 680.3839 L412.64544 682.21637 L406.04355 683.78288 L399.33996 685.07745 L392.54085 686.09412 L389.10741 686.49639" />
    <path d="M201.71568 559.82297 L201.19708 557.08155 L200.29288 551.57904 L199.56627 546.05389 L199.01752 540.51041 L198.64692 534.95289 L198.45477 529.38562 L198.44135 523.81292 L198.60694 518.23907 L198.75695 515.45307" />
    <path d="M207.41665 612.79263 L205.88364 609.81791 L202.99448 603.84345 L200.33898 597.83913 L197.91451 591.80908 L195.71845 585.75748 L193.74817 579.68848 L192.00105 573.60624 L190.47447 567.51491 L189.1658 561.41866 L188.07242 555.32163 L187.19171 549.228 L186.52104 543.14192 L186.05779 537.06753 L185.79934 531.00902 L185.74305 524.97052 L185.88632 518.9562 L186.22651 512.97022 L186.761 507.01673 L187.48716 501.0999 L188.40239 495.22388 L189.50404 489.39282 L190.7895 483.61089 L192.25614 477.88225 L193.90134 472.21104 L195.72248 466.60144 L197.71693 461.05759 L199.88207 455.58366 L202.21528 450.18381 L204.71392 444.86218 L207.37539 439.62294 L210.19705 434.47026 L213.17628 429.40827 L216.31046 424.44115 L219.59696 419.57305 L223.03317 414.80813 L226.61645 410.15054 L230.34418 405.60445 L234.21374 401.17402 L238.22251 396.86339 L242.36787 392.67673 L246.64718 388.6182 L251.05782 384.69195 L255.59718 380.90214 L260.26263 377.25293 L265.05154 373.74848 L269.9613 370.39295 L274.98927 367.19049 L280.13283 364.14526 L285.38937 361.26142 L290.75625 358.54312 L296.23085 355.99454 L301.81056 353.61981 L307.49274 351.42311 L313.27478 349.40858 L319.15404 347.58039 L325.12791 345.9427 L331.19376 344.49965 L337.34897 343.25542 L343.59092 342.21416 L349.91697 341.38002 L356.32452 340.75716 L362.81092 340.34975 L369.37357 340.16194 L376.00984 340.19788 L379.35476 340.30107 L379.35476 340.30107 L384.60751 340.58 L394.97583 341.56113 L405.15016 343.09288 L415.11722 345.15879 L424.86372 347.74242 L434.3764 350.8273 L443.64195 354.39698 L452.64711 358.43501 L461.37859 362.92494 L469.82311 367.85029 L477.96739 373.19464 L485.79815 378.9415 L493.3021 385.07444 L500.46596 391.577 L507.27645 398.43272 L513.72029 405.62515 L519.7842 413.13783 L525.4549 420.95431 L530.7191 429.05813 L535.56352 437.43284 L539.97489 446.06198 L543.93991 454.9291 L547.44531 464.01774 L550.47781 473.31145 L553.02412 482.79377 L555.07096 492.44826 L556.60505 502.25844 L557.61312 512.20788 L558.08187 522.2801 L557.99803 532.45867 L557.34831 542.72712 L556.11943 553.069 L555.28366 558.26234" />
    <path d="M566.96394 489.03219 L567.96538 494.73841 L569.46552 506.21657 L570.29357 517.75778 L570.44741 529.33253 L570.27085 535.12327" />
    <path d="M580.31555 558.92617 L579.8119 561.98728 L578.68033 568.05225 L576.67768 577.00347 L573.45259 588.6566 L569.61428 599.97528 L565.18558 610.94603 L560.18935 621.55536 L554.64843 631.78979 L548.58566 641.63583 L542.02388 651.08001 L534.98593 660.10884 L527.49467 668.70884 L519.57292 676.86653 L511.24355 684.56842 L502.52938 691.80103 L493.45327 698.55087 L484.03805 704.80447 L474.30657 710.54834 L464.28167 715.769 L453.9862 720.45296 L443.44299 724.58675 L432.6749 728.15687 L421.70477 731.14985 L410.55543 733.55221 L399.24973 735.35045 L387.81052 736.53111 L376.26064 737.08069 L364.62292 736.98571 L352.92023 736.23269 L341.17539 734.80814 L329.41125 732.69859 L317.65065 729.89055 L308.84628 727.31803 L302.9897 725.37771 L300.06638 724.33933" />
    <path d="M223.44608 359.60202 L226.46529 356.95417 L232.58412 351.85716 L238.8055 347.02357 L245.12383 342.45153 L251.53351 338.13921 L258.02894 334.08475 L264.60451 330.28629 L271.25463 326.74201 L277.97368 323.45003 L284.75607 320.40852 L291.59619 317.61563 L298.48845 315.0695 L305.42724 312.7683 L312.40695 310.71016 L319.42198 308.89324 L326.46674 307.31569 L333.53562 305.97567 L340.62301 304.87132 L347.72332 304.00079 L354.83094 303.36224 L361.94027 302.95381 L369.04571 302.77366 L376.14165 302.81994 L383.22249 303.0908 L390.28263 303.58438 L397.31647 304.29885 L404.31841 305.23235 L411.28283 306.38304 L418.20415 307.74906 L425.07675 309.32856 L431.89504 311.1197 L438.65341 313.12063 L445.34626 315.32949 L451.96799 317.74445 L458.51299 320.36364 L464.97567 323.18522 L471.35041 326.20735 L477.63163 329.42817 L483.8137 332.84584 L489.89104 336.4585 L495.85804 340.2643 L501.7091 344.2614 L507.43861 348.44795 L513.04098 352.8221 L518.51059 357.382 L523.84186 362.1258 L529.02917 367.05166 L534.06692 372.15771 L538.94951 377.44212 L543.67134 382.90304 L548.2268 388.53861 L552.6103 394.34699 L556.81623 400.32632 L560.83898 406.47477 L564.67297 412.79047 L568.31257 419.27159 L571.7522 425.91627 L574.98624 432.72266 L578.0091 439.68891 L580.81517 446.81318 L583.39885 454.09362 L585.75454 461.52837 L587.87664 469.1156 L589.75954 476.85344 L590.60954 480.77826 L590.60954 480.77826 L591.39305 484.7169 L592.74777 492.56446 L593.82309 500.36913 L594.62342 508.12699 L595.15317 515.8341 L595.41672 523.48653 L595.41849 531.08037 L595.16288 538.61168 L594.65428 546.07654 L593.89711 553.47102 L592.89577 560.79119 L591.65465 568.03312 L590.17816 575.19288 L588.4707 582.26656 L586.53668 589.25022 L584.3805 596.13993 L582.00656 602.93177 L579.41926 609.62181 L576.623 616.20612 L573.6222 622.68078 L570.42124 629.04185 L567.02453 635.28542 L563.43649 641.40754 L559.66149 647.4043 L555.70396 653.27177 L551.56829 659.00602 L547.25889 664.60312 L542.78016 670.05915 L538.13649 675.37018 L533.3323 680.53228 L528.37198 685.54152 L523.25994 690.39397 L518.00059 695.08572 L512.59831 699.61283 L507.05752 703.97137 L501.38262 708.15742 L495.57801 712.16704 L489.64809 715.99632 L483.59727 719.64133 L477.42994 723.09813 L471.15052 726.3628 L464.7634 729.43141 L458.27298 732.30004 L451.68367 734.96476 L444.99988 737.42163 L438.22599 739.66674 L431.36643 741.69616 L424.42558 743.50595 L417.40785 745.09219 L410.31764 746.45096 L403.15936 747.57832 L395.93741 748.47035 L388.65619 749.12313 L381.3201 749.53271 L373.93355 749.69519 L366.50093 749.60662 L359.02666 749.26308 L351.51513 748.66065 L343.97075 747.79539 L336.39791 746.66339 L328.80103 745.2607 L321.1845 743.58342 L313.55272 741.62759 L305.91011 739.38931 L302.08611 738.16302" />
    <path d="M560.0232 384.10189 L562.31596 387.18711 L566.73562 393.44716 L570.93348 399.82193 L574.90875 406.30573 L578.66065 412.89284 L582.18839 419.57754 L585.4912 426.35413 L588.5683 433.21689 L591.4189 440.16012 L594.04221 447.1781 L596.43747 454.26511 L598.60388 461.41546 L600.54067 468.62342 L602.24705 475.88329 L603.72224 483.18936 L604.96546 490.5359 L605.97593 497.91722 L606.75286 505.3276 L607.29547 512.76133 L607.60299 520.2127 L607.67463 527.67599 L607.5096 535.1455 L607.10713 542.61551 L606.46644 550.08032 L605.58674 557.5342 L604.46725 564.97146 L603.10718 572.38637 L601.50577 579.77323 L599.66221 587.12633 L597.57575 594.43995 L595.24558 601.70838 L592.67093 608.92592 L591.29168 612.51381" />
    <path d="M584.38831 654.36416 L582.05012 658.16448 L577.22326 665.58048 L572.20123 672.75041 L566.99058 679.67439 L561.59787 686.35256 L556.02966 692.78504 L550.29249 698.97195 L544.39291 704.91344 L538.3375 710.60961 L532.13278 716.06061 L525.78533 721.26656 L519.3017 726.22759 L512.68843 730.94383 L505.95209 735.41539 L499.09923 739.64242 L492.1364 743.62504 L485.07015 747.36338 L477.90704 750.85756 L470.65362 754.10772 L463.31645 757.11397 L455.90209 759.87646 L448.41707 762.3953 L440.86797 764.67063 L433.26133 766.70257 L425.60371 768.49125 L417.90166 770.0368 L410.16173 771.33935 L402.39048 772.39902 L394.59447 773.21595 L386.78024 773.79025 L378.95435 774.12206 L371.12336 774.21151 L363.29381 774.05872 L355.47227 773.66382 L347.66529 773.02695 L339.87942 772.14822 L332.12121 771.02776 L324.39722 769.66571 L316.714 768.06219 L309.07811 766.21733 L301.4961 764.13126 L293.97452 761.8041 L286.51994 759.23599 L279.13889 756.42704 L271.83795 753.3774 L264.62365 750.08718 L257.50256 746.55651 L250.48122 742.78553 L243.5662 738.77436 L236.76405 734.52313 L230.08131 730.03196 L223.52455 725.30098 L217.10032 720.33033 L210.81517 715.12013 L204.67566 709.67051 L198.68833 703.98159 L192.85976 698.0535 L187.19647 691.88638 L181.70505 685.48034 L176.39202 678.83552 L171.26396 671.95205 L166.32741 664.83005 L161.58894 657.46965 L157.05508 649.87098 L154.86693 645.98233 L154.86693 645.98233 L152.74485 642.05724 L148.73584 634.16905 L145.03751 626.23488 L141.64649 618.26034 L138.55938 610.25103 L135.7728 602.21258 L133.28336 594.15058 L131.08767 586.07066 L129.18234 577.97843 L127.56399 569.87949 L126.22923 561.77946 L125.17467 553.68396 L124.39693 545.59858 L123.89261 537.52896 L123.65832 529.48069 L123.69069 521.45939 L123.98632 513.47067 L124.54183 505.52014 L125.35382 497.61342 L126.41891 489.75612 L127.73371 481.95385 L129.29483 474.21222 L131.09889 466.53684 L133.1425 458.93332 L135.42227 451.40729 L137.93481 443.96434 L140.67673 436.61009 L143.64465 429.35016 L146.83518 422.19015 L150.24494 415.13568 L153.87052 408.19235 L157.70856 401.36579 L161.75565 394.6616 L166.00841 388.0854 L170.46345 381.64279 L175.11739 375.33939 L179.96683 369.18081 L185.0084 363.17266 L190.2387 357.32056 L195.65434 351.63012 L201.25193 346.10694 L207.0281 340.75664 L212.97945 335.58484 L219.10259 330.59714 L225.39413 325.79916 L231.85069 321.1965 L238.46888 316.79479 L245.24532 312.59962 L252.1766 308.61663 L259.25936 304.8514 L266.49019 301.30957 L273.86571 297.99674 L281.38254 294.91851 L289.03728 292.08052 L296.82655 289.48835 L304.74696 287.14764 L312.79513 285.06399 L320.96765 283.243 L329.26116 281.6903 L337.67225 280.4115 L346.19754 279.41221 L354.83365 278.69803 L363.57718 278.27459 L372.42475 278.14749 L376.88649 278.19682" />
    <path d="M570.89817 694.35867 L567.84257 697.91023 L561.60603 704.79692 L555.20803 711.39607 L548.65534 717.70889 L541.95474 723.7366 L535.113 729.48042 L528.1369 734.94159 L521.0332 740.12131 L513.80868 745.02081 L506.47012 749.64131 L499.02428 753.98404 L491.47795 758.05021 L483.83789 761.84105 L476.11089 765.35777 L468.30371 768.60161 L460.42312 771.57377 L452.47591 774.27549 L444.46884 776.70798 L436.40868 778.87247 L428.30223 780.77017 L420.15623 782.40231 L411.97748 783.77012 L403.77274 784.8748 L395.54878 785.71759 L387.31239 786.2997 L379.07033 786.62236 L370.82938 786.68679 L362.59631 786.49421 L354.3779 786.04584 L346.18092 785.3429 L338.01213 784.38662 L329.87833 783.17821 L321.78628 781.7189 L313.74275 780.00991 L305.75452 778.05245 L297.82836 775.84777 L289.97104 773.39706 L282.18934 770.70156 L274.49004 767.76249 L266.8799 764.58106 L259.36571 761.15851 L251.95423 757.49605 L244.65223 753.5949 L237.4665 749.45628 L230.4038 745.08142 L223.47091 740.47154 L216.6746 735.62786 L210.02165 730.5516 L203.51883 725.24398 L197.17291 719.70623 L190.99067 713.93956 L184.97888 707.9452 L179.14432 701.72437 L173.49375 695.27828 L168.03396 688.60817 L162.77171 681.71526 L157.71378 674.60076 L152.86695 667.26589 L148.23798 659.71188 L143.83365 651.93996 L139.66074 643.95133 L135.72602 635.74723 L132.03626 627.32887 L128.59823 618.69747 L126.97574 614.30227 L126.97574 614.30227 L125.65569 610.54434 L123.1976 603.01801 L120.98018 595.4809 L119.00097 587.93683 L117.25756 580.38964 L115.7475 572.84315 L114.46836 565.30117 L113.4177 557.76755 L112.5931 550.2461 L111.99211 542.74065 L111.6123 535.25503 L111.45124 527.79306 L111.50649 520.35856 L111.77562 512.95536 L112.2562 505.58729 L112.94578 498.25818 L113.84194 490.97184 L114.94224 483.7321 L116.24424 476.5428 L117.74552 469.40774 L119.44363 462.33077 L121.33615 455.31571 L123.42063 448.36637 L125.69464 441.48659 L128.15576 434.68019 L130.80154 427.951 L133.62955 421.30285 L136.63735 414.73955 L139.82252 408.26493 L143.18261 401.88283 L146.71519 395.59705 L150.41784 389.41144 L154.2881 383.32982 L158.32355 377.356 L162.52176 371.49382 L166.88029 365.74711 L171.3967 360.11968 L176.06856 354.61536 L180.89344 349.23799 L185.8689 343.99137 L190.99251 338.87935 L196.26183 333.90574 L201.67443 329.07437 L207.22787 324.38907 L212.91972 319.85366 L218.74754 315.47197 L224.70891 311.24782 L230.80138 307.18503 L237.02253 303.28744 L243.36991 299.55887 L249.84109 296.00314 L256.43364 292.62409 L263.14512 289.42553 L269.9731 286.41128 L276.91515 283.58519 L283.96883 280.95107 L291.1317 278.51274 L298.40133 276.27404 L305.77529 274.23878 L313.25114 272.4108 L320.82645 270.79392 L328.49878 269.39196 L336.2657 268.20875 L344.12477 267.24812 L348.08811 266.85246" />
    <path d="M372.7162 799.01493 L367.80808 798.98546 L358.07955 798.67965 L348.47101 798.04985 L338.98608 797.10232 L329.62837 795.84328 L320.40151 794.27896 L311.30912 792.41562 L302.35482 790.25947 L293.54223 787.81676 L284.87497 785.09372 L276.35666 782.09659 L267.99093 778.83161 L259.78138 775.305 L251.73165 771.52301 L243.84536 767.49188 L236.12612 763.21783 L228.57755 758.7071 L221.20328 753.96593 L214.00693 749.00056 L206.99211 743.81722 L200.16246 738.42215 L193.52158 732.82157 L187.0731 727.02174 L180.82064 721.02888 L174.76782 714.84923 L168.91827 708.48903 L163.27559 701.95451 L157.84342 695.2519 L152.62537 688.38745 L147.62507 681.36739 L142.84613 674.19795 L138.29218 666.88538 L133.96683 659.4359 L129.87371 651.85575 L126.01644 644.15118 L122.39863 636.3284 L119.02392 628.39367 L115.89591 620.35321 L113.01823 612.21326 L110.39451 603.98006 L108.02835 595.65985 L105.92339 587.25885 L104.08325 578.78331 L102.51153 570.23946 L101.21187 561.63353 L100.18789 552.97177 L99.4432 544.26041 L98.98142 535.50568 L98.80619 526.71382 L98.92111 517.89107 L99.32981 509.04366 L100.03591 500.17782 L101.04302 491.2998 L102.35478 482.41583 L103.9748 473.53214 L105.9067 464.65497 L108.15411 455.79056 L110.72063 446.94515 L113.6099 438.12496 L116.82554 429.33623 L120.37116 420.58521 L124.25038 411.87812 L128.46684 403.2212 L133.02413 394.62069 L135.43173 390.34354 L135.43173 390.34354 L137.91132 386.10771 L143.04042 377.83546 L148.39011 369.82912 L153.95317 362.0887 L159.72238 354.6142 L165.69055 347.40567 L171.85045 340.4631 L178.19487 333.78652 L184.71662 327.37595 L191.40847 321.2314 L198.26321 315.35289 L205.27364 309.74045 L212.43254 304.39408 L219.73271 299.3138 L227.16692 294.49964 L234.72798 289.9516 L242.40866 285.66971 L250.20177 281.65399 L258.10008 277.90445 L266.0964 274.42112 L274.1835 271.204 L282.35417 268.25311 L290.60122 265.56848 L298.91741 263.15012 L307.29556 260.99805 L315.72843 259.11229 L324.20883 257.49285 L332.72954 256.13976 L341.28336 255.05302 L349.86306 254.23266 L358.46144 253.67869 L367.0713 253.39114 L375.68541 253.37002 L384.29657 253.61535 L392.89757 254.12714 L401.48119 254.90542 L410.04023 255.95019 L418.56747 257.26149 L427.05571 258.83932 L435.49773 260.68371 L443.88633 262.79467 L452.21429 265.17222 L460.47439 267.81637 L468.65944 270.72715 L476.76222 273.90458 L484.77552 277.34866 L492.69213 281.05942 L500.50483 285.03688 L508.20642 289.28105 L515.78969 293.79195 L523.24743 298.5696 L530.57242 303.61401 L537.75745 308.92522 L544.79531 314.50322 L551.6788 320.34804 L558.4007 326.4597 L564.95381 332.83821 L571.3309 339.4836 L577.52477 346.39587 L583.52821 353.57506 L589.33401 361.02117 L594.93496 368.73422 L600.32385 376.71423 L605.49346 384.96122 L607.99378 389.18484" />
    <path d="M107.16683 420.36017 L109.11074 415.61132 L113.20378 406.29504 L117.56421 397.22156 L122.18459 388.39196 L127.05745 379.80732 L132.17532 371.46872 L137.53075 363.37723 L143.11627 355.53393 L148.92443 347.9399 L154.94777 340.59623 L161.17882 333.50398 L167.61012 326.66423 L174.23421 320.07807 L181.04363 313.74657 L188.03092 307.67082 L195.18862 301.85188 L202.50926 296.29083 L209.98539 290.98876 L217.60955 285.94675 L225.37427 281.16586 L233.27209 276.64719 L241.29555 272.3918 L249.4372 268.40078 L257.68956 264.6752 L266.04519 261.21615 L274.49661 258.0247 L283.03637 255.10192 L291.657 252.4489 L300.35105 250.06672 L309.11106 247.95645 L317.92955 246.11917 L326.79908 244.55596 L335.71218 243.2679 L344.66139 242.25607 L353.63925 241.52154 L362.6383 241.06539 L371.65107 240.88871 L380.67011 240.99256 L389.68795 241.37803 L398.69714 242.0462 L407.69021 242.99814 L416.6597 244.23493 L425.59816 245.75765 L434.49811 247.56738 L443.3521 249.6652 L452.15267 252.05218 L460.89236 254.7294 L469.5637 257.69795 L478.15924 260.95889 L486.67151 264.51332 L495.09306 268.36229 L503.41642 272.50691 L511.63412 276.94823 L519.73872 281.68735 L527.72275 286.72533 L535.57874 292.06326 L543.29924 297.70222 L550.87679 303.64328 L558.30392 309.88752 L565.57318 316.43602 L572.6771 323.28986 L579.60822 330.45012 L586.35908 337.91787 L592.92222 345.69419 L596.13106 349.6984 L596.13106 349.6984 L599.27174 353.7563 L605.29335 361.95912 L610.971 370.2721 L616.30747 378.68827 L621.30556 387.2006 L625.96806 395.80211 L630.29778 404.4858 L634.29752 413.24465 L637.97006 422.07168 L641.3182 430.95988 L644.34474 439.90225 L647.05249 448.89179 L649.44422 457.9215 L651.52275 466.98438 L653.29087 476.07343 L654.75137 485.18165 L655.90705 494.30204 L656.76071 503.42759 L657.31515 512.55131 L657.57315 521.6662 L657.53753 530.76525 L657.21107 539.84147 L656.59657 548.88785 L655.69684 557.89739 L654.51465 566.8631 L653.05282 575.77798 L651.31414 584.63501 L649.3014 593.42721 L647.01741 602.14757 L644.46495 610.78909 L641.64684 619.34477 L638.56585 627.80761 L635.22479 636.17061 L631.62646 644.42677 L627.77365 652.56909 L623.66917 660.59057 L619.31579 668.4842 L614.71633 676.24299 L609.87359 683.85994 L604.79034 691.32804 L599.4694 698.6403 L593.91356 705.78971 L588.12562 712.76928 L582.10837 719.572 L575.86461 726.19088 L569.39714 732.6189 L562.70875 738.84908 L555.80225 744.87441 L548.68042 750.68789 L541.34606 756.28253 L533.80197 761.65131 L526.05096 766.78724 L518.0958 771.68332 L509.93931 776.33255 L501.58427 780.72793 L493.03349 784.86245 L484.28976 788.72912 L475.35588 792.32094 L466.23464 795.63091 L456.92884 798.65202 L447.44129 801.37727 L437.77476 803.79967 L427.93207 805.91221 L417.91601 807.7079 L412.84384 808.48473" />
    <path d="M394.28309 229.37506 L399.61897 229.82021 L410.17454 230.97165 L420.57233 232.46537 L430.80894 234.29428 L440.88095 236.45129 L450.78495 238.92932 L460.51752 241.72127 L470.07526 244.82007 L479.45474 248.21863 L488.65256 251.90986 L497.66531 255.88666 L506.48956 260.14196 L515.12191 264.66867 L523.55894 269.45969 L531.79724 274.50795 L539.8334 279.80635 L547.664 285.34782 L555.28563 291.12525 L562.69488 297.13156 L569.88834 303.35967 L576.86258 309.8025 L583.6142 316.45294 L590.13978 323.30392 L596.43592 330.34834 L602.49919 337.57913 L608.32619 344.98919 L613.9135 352.57143 L619.25771 360.31877 L624.3554 368.22413 L629.20316 376.28041 L633.79759 384.48053 L638.13525 392.8174 L642.21275 401.28393 L646.02667 409.87303 L649.5736 418.57763 L652.85011 427.39062 L655.85281 436.30493 L658.57827 445.31347 L661.02309 454.40915 L663.18384 463.58488 L665.05712 472.83357 L666.63952 482.14815 L667.92761 491.52151 L668.91799 500.94658 L669.60725 510.41626 L669.99196 519.92348 L670.06873 529.46114 L669.83412 539.02215 L669.28474 548.59943 L668.41717 558.18589 L667.22799 567.77444 L665.71379 577.358 L663.87116 586.92948 L661.69668 596.4818 L659.18694 606.00785 L656.33854 615.50057 L653.14805 624.95285 L649.61206 634.35762 L645.72716 643.70778 L641.48993 652.99626 L636.89697 662.21595 L631.94485 671.35978 L626.63018 680.42066 L620.94952 689.39149 L617.97089 693.84093 L617.97089 693.84093 L614.30881 699.09039 L606.67069 709.3211 L598.62561 719.18573 L590.18752 728.67406 L581.37038 737.77589 L572.18817 746.48099 L562.65483 754.77917 L552.78434 762.66021 L542.59066 770.1139 L532.08774 777.13004 L521.28956 783.69841 L510.21007 789.8088 L498.86324 795.45101 L487.26303 800.61482 L475.42341 805.29003 L463.35833 809.46642 L457.24561 811.36437" />
    <path d="M251.54374 240.51816 L256.70088 238.39387 L267.03162 234.44256 L277.37886 230.8835 L287.73607 227.71174 L298.09671 224.92233 L308.45427 222.51034 L318.80219 220.47081 L329.13395 218.7988 L339.44301 217.48935 L349.72285 216.53754 L359.96692 215.9384 L370.16871 215.687 L380.32166 215.77839 L390.41926 216.20762 L400.45496 216.96975 L410.42223 218.05982 L420.31455 219.47291 L430.12537 221.20405 L439.84817 223.2483 L449.47641 225.60072 L459.00356 228.25636 L468.42309 231.21027 L477.72846 234.45752 L486.91314 237.99315 L495.9706 241.81221 L504.8943 245.90977 L513.67771 250.28087 L522.3143 254.92057 L530.79753 259.82393 L539.12088 264.98599 L547.2778 270.40181 L555.26177 276.06646 L563.06626 281.97497 L570.68472 288.1224 L578.11063 294.50381 L585.33746 301.11426 L592.35866 307.94879 L599.16771 315.00246 L605.75808 322.27033 L612.12323 329.74744 L618.25663 337.42886 L624.15175 345.30964 L629.80205 353.38482 L635.201 361.64947 L640.34206 370.09864 L645.21871 378.72738 L649.82441 387.53075 L654.15263 396.5038 L658.19683 405.64159 L661.95049 414.93917 L665.40706 424.39159 L668.56003 433.9939 L671.40284 443.74117 L673.92897 453.62845 L676.13189 463.65078 L678.00507 473.80323 L679.54196 484.08085 L680.73605 494.47869 L681.58078 504.9918 L682.06964 515.61525 L682.19609 526.34408 L681.9536 537.17335 L681.33563 548.09811 L680.33565 559.11342 L679.69036 564.65348 L679.69036 564.65348 L678.99764 569.8374 L677.35329 580.15027 L675.36654 590.38306 L673.04074 600.52765 L670.37926 610.57594 L667.38547 620.5198 L664.06272 630.35112 L660.41438 640.06178 L656.44381 649.64368 L652.15437 659.08868 L647.54944 668.38869 L642.63236 677.53558 L637.40651 686.52123 L631.87524 695.33753 L626.04192 703.97637 L619.90992 712.42963 L616.73296 716.58413" />
    <path d="M353.4364 848.0845 L348.89821 847.79 L339.84107 847.0096 L330.81399 845.97476 L321.82232 844.68639 L312.87138 843.14542 L303.96653 841.35277 L295.11308 839.30935 L286.31639 837.01608 L281.94099 835.77604" />
    <path d="M689.38408 419.33146 L691.21965 424.94622 L694.58681 436.24885 L697.54826 447.63993 L700.10352 459.10862 L702.25212 470.6441 L703.99358 482.23555 L705.32741 493.87215 L706.25315 505.54306 L706.77031 517.23746 L706.8784 528.94453 L706.57696 540.65343 L705.86551 552.35336 L704.74356 564.03347 L703.21064 575.68296 L701.26626 587.29098 L698.90996 598.84671 L697.57718 604.60159" />
    <path d="M519.81709 840.41435 L514.14185 843.02479 L502.75951 847.91374 L491.34097 852.36448 L479.89376 856.38225 L468.42541 859.97228 L456.94347 863.13981 L445.45546 865.8901 L433.96892 868.22836 L422.49138 870.15986 L411.03039 871.68981 L399.59346 872.82347 L388.18815 873.56607 L376.82198 873.92286 L365.50248 873.89906 L354.2372 873.49993 L343.03367 872.7307 L331.89941 871.59661 L320.84198 870.1029 L309.86889 868.25481 L298.98769 866.05758 L288.20591 863.51645 L277.53108 860.63665 L266.97074 857.42343 L256.53243 853.88203 L246.22367 850.01769 L236.05201 845.83564 L226.02497 841.34113 L216.1501 836.5394 L206.43492 831.43568 L196.88697 826.03521 L187.51379 820.34324 L178.32292 814.365 L169.32187 808.10573 L160.5182 801.57068 L151.91943 794.76508 L143.5331 787.69417 L135.36674 780.36319 L127.4279 772.77738 L119.72409 764.94198 L112.26286 756.86223 L105.05175 748.54337 L98.09828 739.99064 L91.40999 731.20928 L84.99442 722.20453 L78.8591 712.98162 L73.01157 703.5458 L67.45936 693.9023 L62.21 684.05637 L57.27102 674.01325 L52.64998 663.77817 L48.35439 653.35638 L44.39179 642.75311 L40.76973 631.9736 L37.49572 621.02309 L34.57731 609.90683 L32.02203 598.63005 L29.83742 587.19799 L28.03101 575.6159 L26.61034 563.889 L25.58293 552.02254 L24.95633 540.02177 L24.73807 527.89191 L24.93568 515.63821 L25.5567 503.26591 L26.02835 497.03692 L26.02835 497.03692 L26.39356 492.9812 L27.26136 484.91204 L28.31054 476.90097 L29.539 468.95003 L30.94459 461.06127 L32.5252 453.23677 L34.2787 445.47855 L36.20296 437.78869 L38.29585 430.16922 L40.55526 422.62221 L42.97906 415.1497 L45.56511 407.75376 L48.3113 400.43642 L51.2155 393.19975 L55.86342 382.50048 L62.59384 368.53627 L69.91803 354.93167 L77.819 341.70311 L86.27973 328.86699 L95.28322 316.43975 L104.81247 304.43781 L114.85046 292.8776 L125.38021 281.77552 L136.3847 271.14801 L147.84692 261.01149 L159.74987 251.38238 L172.07655 242.2771 L184.80995 233.71208 L197.93307 225.70374 L211.4289 218.26849 L225.28043 211.42277 L239.47067 205.183 L250.32539 200.9107 L257.65886 198.26041 L265.06744 195.77084 L272.549 193.44405 L280.10142 191.2821 L287.72258 189.28702 L295.41034 187.46088 L303.16258 185.80573 L310.97718 184.32361 L318.85201 183.0166 L326.78495 181.88672 L334.77386 180.93605 L342.81663 180.16663 L350.91113 179.58051 L354.97711 179.35684" />
    <path d="M29.10238 634.50389 L27.62064 629.69595 L24.86247 620.03077 L22.37846 610.30469 L20.16907 600.52354 L18.23481 590.69314 L16.57616 580.81931 L15.19359 570.90786 L14.08759 560.96463 L13.25865 550.99543 L12.70724 541.00608 L12.43387 531.00241 L12.43899 520.99023 L12.72311 510.97537 L13.28671 500.96365 L14.13027 490.96088 L15.25427 480.9729 L15.92158 475.98626" />
  </g>
</svg>