<?xml version="1.0" standalone="no"?>
<!DOCTYPE svg PUBLIC "-//W3C//DTD SVG 1.1//EN" 
    "http://www.w3.org/Graphics/SVG/1.1/DTD/svg11.dtd">
<svg width="21cm" height="29.7cm"
    xmlns="http://www.w3.org/2000/svg" version="1.1" viewBox="0 0 744.09449 1052.3622">
  <g fill="none" stroke="black" stroke-width="0.03cm">
    <path d="M0 0 L35.43307 35.43307" />
    <path d="M364.75152 524.5296 L365.05354 523.51798 L366.00321 521.75461 L367.33315 520.36272 L368.94671 519.37233 L370.7472 518.81343 L372.63795 518.71603 L374.5223 519.11016 L376.30358 520.0258 L377.12535 520.68857 L377.12535 520.68857 L377.81263 521.41122 L378.83434 523.01634 L379.39801 524.763 L379.51856 526.56538 L379.21087 528.33763 L378.48986 529.9939 L377.37043 531.44836 L375.86748 532.61517 L374.97685 533.06387" />
    <path d="M388.47285 517.24136 L389.18444 518.69532 L390.21232 521.73703 L390.70399 524.89829 L390.64847 528.1085 L390.41207 529.7099" />
    <path d="M342.30566 522.90701 L342.61082 520.79416 L343.61704 516.77753 L345.11249 513.05662 L347.05083 509.65176 L349.38575 506.58333 L352.07089 503.87169 L355.05992 501.53718 L358.3065 499.60017 L361.76431 498.08101 L365.387 497.00006 L369.12824 496.37767 L372.9417 496.23422 L376.78103 496.59004 L380.5999 497.46551 L384.35197 498.88096 L387.99092 500.85678 L389.75349 502.06118 L389.75349 502.06118 L391.19893 503.19192 L393.84489 505.68305 L396.14986 508.45078 L398.09647 511.45961 L399.66738 514.67403 L400.84524 518.05856 L401.6127 521.57767 L401.9524 525.19588 L401.95643 527.03105" />
    <path d="M412.71086 519.92711 L412.89837 521.29972 L413.1341 524.05685 L413.18398 526.82203 L413.04785 529.58586 L412.90998 530.96434" />
    <path d="M423.97058 519.41595 L424.20283 521.53406 L424.40797 525.78809 L424.38061 527.91873" />
    <path d="M334.2891 475.0237 L336.14706 473.70032 L339.93019 471.2861 L343.79267 469.17749 L347.72218 467.36909 L351.7064 465.85553 L355.73301 464.63145 L359.78968 463.69145 L363.8641 463.03018 L367.94394 462.64224 L372.01687 462.52227 L376.07059 462.66489 L380.09276 463.06473 L384.07106 463.71641 L387.99318 464.61454 L391.84678 465.75377 L395.61956 467.12871 L399.29918 468.73399 L402.87332 470.56423 L406.32967 472.61405 L409.6559 474.87809 L412.83969 477.35095 L415.86871 480.02728 L418.73065 482.9017 L421.41318 485.96882 L423.90399 489.22327 L426.19074 492.65968 L428.26112 496.27267 L430.10281 500.05687 L431.70348 504.00689 L433.05081 508.11738 L434.13248 512.38294 L434.93617 516.7982 L435.22992 519.06029 L435.22992 519.06029 L435.44703 521.33102 L435.64623 525.81442 L435.54111 530.21373 L435.14247 534.52099 L434.46114 538.7282 L433.50793 542.82739 L432.29365 546.81057 L430.82912 550.66975 L429.12517 554.39696 L427.19259 557.98422 L425.04222 561.42353 L422.68487 564.70691 L420.13135 567.82638 L417.39248 570.77397 L414.47908 573.54167 L411.40196 576.12152 L408.17194 578.50553 L404.79983 580.68571 L401.29646 582.65408 L397.67263 584.40266 L393.93917 585.92347 L390.10689 587.20852 L386.18661 588.24982 L382.18914 589.0394 L378.1253 589.56928 L374.0059 589.83146 L369.84177 589.81796 L365.64371 589.52081 L361.42255 588.93202 L357.18911 588.0436 L352.95419 586.84758 L348.72861 585.33596 L346.6227 584.45931" />
    <path d="M372.74754 451.38123 L374.70286 451.42458 L378.57393 451.65934 L382.38825 452.08738 L386.14104 452.70374 L389.82754 453.50348 L393.44297 454.48162 L396.98254 455.63321 L400.44149 456.9533 L403.81504 458.43694 L407.09841 460.07915 L410.28682 461.875 L413.37551 463.81952 L416.35969 465.90775 L419.23458 468.13475 L423.33158 471.72457 L428.36717 476.95039 L431.80267 481.17762 L433.92158 484.13308 L435.89777 487.19261 L437.72648 490.35125 L439.40291 493.60403 L440.92231 496.94601 L442.27988 500.37223 L443.47087 503.87773 L444.49048 507.45756 L445.33394 511.10675 L445.99649 514.82036 L446.47333 518.59342 L446.75971 522.42099 L446.85083 526.29809 L446.82168 528.25368" />
    <path d="M434.47743 585.36332 L432.31665 587.56685 L427.85039 591.68008 L423.20594 595.40509 L418.40097 598.74612 L413.45317 601.70741 L408.38025 604.29319 L403.19987 606.50769 L397.92973 608.35517 L392.58753 609.83984 L387.19093 610.96595 L381.75764 611.73774 L376.30535 612.15944 L370.85173 612.23528 L365.41448 611.96952 L360.01128 611.36637 L354.65983 610.43009 L349.3778 609.1649 L344.1829 607.57504 L339.0928 605.66475 L334.12519 603.43827 L329.29777 600.89983 L324.62821 598.05366 L320.13421 594.90402 L315.83346 591.45512 L311.74364 587.71122 L307.88244 583.67654 L304.26755 579.35533 L300.91666 574.75181 L297.84745 569.87023 L295.07761 564.71482 L292.62483 559.28983 L290.5068 553.59948 L289.57884 550.65612 L289.57884 550.65612 L288.94416 548.40874 L287.86457 543.90902 L287.03429 539.40895 L286.44888 534.91609 L286.10387 530.43797 L285.99482 525.98215 L286.11726 521.55616 L286.46673 517.16756 L287.0388 512.8239 L287.82898 508.53271 L288.83284 504.30154 L290.04591 500.13794 L291.46375 496.04946 L293.08188 492.04363 L294.89586 488.12802 L296.90124 484.31016 L299.09355 480.59759 L301.46833 476.99787 L304.02114 473.51854 L306.74752 470.16715 L309.64301 466.95124 L312.70316 463.87836 L315.9235 460.95605 L319.29959 458.19186 L322.82697 455.59334 L326.50118 453.16803 L330.31776 450.92348 L334.27227 448.86723 L338.36023 447.00683 L342.57721 445.34983 L346.91874 443.90376 L351.38036 442.67619 L353.65482 442.14669" />
    <path d="M451.3375 582.47914 L449.26996 585.28919 L444.92615 590.60351 L440.32112 595.51171 L435.47532 600.01571 L430.40924 604.11745 L425.14334 607.81884 L419.69809 611.12182 L414.09396 614.02832 L408.35143 616.54025 L402.49095 618.65954 L396.53301 620.38813 L390.49807 621.72793 L384.4066 622.68088 L378.27908 623.24889 L372.13596 623.4339 L365.99773 623.23783 L359.88485 622.66261 L353.8178 621.71017 L347.81703 620.38242 L341.90303 618.6813 L336.09627 616.60874 L330.4172 614.16665 L324.88631 611.35697 L319.52406 608.18161 L314.35092 604.64252 L309.38737 600.74161 L304.65387 596.48081 L300.1709 591.86205 L295.95891 586.88725 L292.0384 581.55834 L288.42981 575.87724 L285.15363 569.84589 L283.64659 566.69946 L283.64659 566.69946 L282.01314 562.92922 L279.254 555.27942 L277.16443 547.51631 L275.73555 539.67881 L274.95848 531.80584 L274.82431 523.93634 L275.32418 516.10923 L276.44918 508.36344 L278.19043 500.73788 L280.53904 493.27149 L283.48613 486.00318 L287.02279 478.97189 L291.14015 472.21655 L295.82932 465.77607 L301.08141 459.68938 L306.88753 453.9954 L309.99557 451.30785" />
    <path d="M464.85016 470.03682 L466.52016 472.89453 L469.57994 478.72474 L472.26514 484.69338 L474.57463 490.78294 L476.50728 496.97591 L478.06198 503.25477 L479.23759 509.60201 L480.03298 516.00011 L480.44702 522.43155 L480.4786 528.87882 L480.12657 535.3244 L479.38982 541.75079 L478.26721 548.14045 L476.75762 554.47588 L474.85992 560.73956 L472.57298 566.91398 L471.2832 569.96224" />
    <path d="M410.9385 639.37111 L407.12014 640.61516 L399.483 642.70299 L391.85936 644.26802 L384.26608 645.32329 L376.72005 645.88187 L369.23812 645.95682 L361.83716 645.56119 L354.53406 644.70803 L347.34567 643.41041 L340.28887 641.68138 L333.38052 639.534 L326.63749 636.98133 L320.07667 634.03641 L313.7149 630.71232 L307.56907 627.02209 L301.65605 622.9788 L295.9927 618.5955 L290.59589 613.88524 L285.48249 608.86109 L280.66938 603.53609 L276.17342 597.92331 L272.01148 592.0358 L268.20043 585.88662 L264.75714 579.48882 L261.69849 572.85547 L259.04133 565.99961 L256.80254 558.93431 L254.999 551.67263 L253.64756 544.22761 L252.7651 536.61231 L252.3685 528.8398 L252.47461 520.92313 L252.72145 516.91482" />
    <path d="M291.74014 629.55916 L289.00007 627.37122 L283.72127 622.79835 L278.71659 617.97349 L273.99281 612.90945 L269.55672 607.61903 L265.41512 602.11505 L261.57479 596.4103 L258.04253 590.51759 L254.82512 584.44974 L251.92936 578.21953 L249.36204 571.83979 L247.12994 565.32331 L245.23986 558.68291 L243.69859 551.93138 L242.51291 545.08154 L241.68962 538.14619 L241.416 534.65045" />
    <path d="M404.43062 664.56865 L401.45641 665.23142 L395.50277 666.36075 L389.54788 667.23108 L383.5986 667.8456 L377.66181 668.20747 L371.74435 668.31985 L365.85311 668.18591 L359.99494 667.80882 L354.17672 667.19175 L348.4053 666.33787 L342.68756 665.25034 L337.03035 663.93233 L331.44055 662.387 L325.92501 660.61753 L320.49061 658.62709 L315.14422 656.41883 L309.89268 653.99594 L304.74288 651.36157 L299.70168 648.51889 L294.77594 645.47107 L289.97252 642.22128 L285.2983 638.77268 L280.76014 635.12845 L276.3649 631.29175 L272.11945 627.26575 L268.03066 623.05362 L264.10539 618.65851 L260.35051 614.08361 L256.77288 609.33208 L253.37936 604.40708 L250.17683 599.31179 L247.17215 594.04936 L245.74615 591.35647" />
    <path d="M465.58786 647.69361 L463.44957 649.31171 L459.12878 652.41571 L452.54368 656.74371 L443.58808 661.90924 L434.45778 666.39309 L425.18093 670.20608 L415.78573 673.35903 L406.30035 675.86277 L396.75297 677.7281 L387.17175 678.96584 L377.58488 679.58683 L368.02053 679.60187 L358.50689 679.02178 L349.07211 677.85739 L339.74439 676.11951 L330.5519 673.81896 L321.52281 670.96657 L312.68529 667.57314 L304.06754 663.6495 L295.69771 659.20647 L287.604 654.25487 L279.81456 648.80552 L272.35759 642.86923 L265.26125 636.45682 L258.55373 629.57912 L252.26319 622.24694 L246.41782 614.4711 L241.04579 606.26242 L236.17527 597.63172 L231.83445 588.58982 L228.0515 579.14754 L224.85459 569.31569 L222.85845 561.69267 L221.7255 556.49454 L221.21969 553.86116" />
    <path d="M265.38671 651.5039 L263.09743 649.51891 L258.63868 645.43207 L254.34242 641.19364 L250.21191 636.8087 L246.25043 632.28233 L242.46127 627.61961 L238.84769 622.82562 L235.41298 617.90544 L232.16042 612.86415 L229.09327 607.70682 L226.21481 602.43854 L223.52833 597.06439 L221.0371 591.58944 L218.7444 586.01878 L216.6535 580.35747 L214.76768 574.61061 L213.9027 571.70669" />
    <path d="M497.33587 402.87672 L500.8141 406.51339 L507.422 414.04192 L513.55886 421.89204 L519.2171 430.04138 L524.38914 438.46755 L529.0674 447.14818 L533.24432 456.06088 L536.91231 465.18327 L540.0638 474.49298 L542.69122 483.96763 L544.78698 493.58484 L546.34352 503.32222 L547.35325 513.1574 L547.8086 523.068 L547.70199 533.03164 L547.02586 543.02594 L546.47185 548.02759" />
    <path d="M545.98959 457.50792 L547.22658 460.72767 L549.51729 467.22049 L551.56319 473.77867 L553.3637 480.39533 L554.91826 487.06357 L556.22628 493.77654 L557.2872 500.52733 L558.10044 507.30908 L558.66545 514.11491 L558.98163 520.93792 L559.04843 527.77125 L558.86527 534.608 L558.43158 541.44131 L557.7468 548.26429 L556.81034 555.07005 L555.62163 561.85173 L554.93251 565.23138" />
    <path d="M217.96471 401.46923 L220.2316 398.7164 L224.8643 393.37337 L229.6246 388.24651 L234.5073 383.335 L239.50726 378.63801 L244.61927 374.15474 L249.83818 369.88435 L255.15881 365.82604 L260.57598 361.97898 L266.08452 358.34236 L271.67925 354.91536 L277.355 351.69716 L283.10659 348.68693 L288.92886 345.88388 L294.81662 343.28716 L300.76469 340.89598 L306.76792 338.7095 L312.82111 336.72691 L318.9191 334.9474 L325.05672 333.37013 L331.22878 331.99431 L337.43011 330.8191 L343.65553 329.84369 L349.89989 329.06725 L356.15799 328.48899 L362.42466 328.10806 L368.69473 327.92366 L374.96302 327.93497 L381.22437 328.14116 L387.47359 328.54143 L393.70551 329.13495 L399.91495 329.9209 L406.09675 330.89846 L412.24572 332.06683 L418.35669 333.42517 L424.42449 334.97268 L430.44394 336.70852 L436.40987 338.63189 L442.3171 340.74197 L448.16046 343.03793 L453.93477 345.51897 L459.63486 348.18425 L465.25555 351.03297 L470.79168 354.0643 L476.23806 357.27742 L481.58951 360.67152 L486.84088 364.24579 L491.98697 367.99939 L497.02262 371.93152 L501.94265 376.04135 L506.74189 380.32806 L511.41516 384.79085 L515.95728 389.42888 L520.36309 394.24135 L524.62741 399.22743 L528.74506 404.3863 L532.71087 409.71715 L536.51966 415.21915 L540.16626 420.8915 L543.64549 426.73337 L546.95219 432.74394 L550.08117 438.92239 L553.02726 445.26791 L555.78529 451.77968 L557.09216 455.09765 L557.09216 455.09765 L558.62451 459.22123 L561.39952 467.5139 L563.7913 475.85806 L565.80346 484.24268 L567.43962 492.65674 L568.7034 501.08918 L569.59843 509.52899 L570.12832 517.96513 L570.29669 526.38655 L570.10715 534.78224 L569.56334 543.14115 L568.66887 551.45225 L567.42735 559.70451 L565.84241 567.8869 L563.91766 575.98837 L561.65673 583.9979 L559.06323 591.90445 L556.14079 599.697 L552.89302 607.3645 L549.32354 614.89591 L545.43598 622.28022 L541.23394 629.50638 L536.72105 636.56337 L531.90094 643.44013 L526.77721 650.12565 L521.35349 656.60889 L515.6334 662.87882 L509.62055 668.9244 L503.31857 674.73459 L496.73108 680.29837 L489.86169 685.6047 L482.71402 690.64254 L479.03696 693.05734" />
    <path d="M290.77571 333.14291 L294.26065 331.71027 L301.2415 329.04583 L308.23332 326.64639 L315.23169 324.5086 L322.2322 322.6291 L329.23045 321.00457 L336.22201 319.63166 L343.20247 318.50701 L350.16744 317.62729 L357.11249 316.98915 L364.03321 316.58926 L370.9252 316.42425 L377.78404 316.4908 L384.60532 316.78555 L391.38463 317.30516 L398.11756 318.04628 L404.7997 319.00558 L411.42664 320.17971 L417.99396 321.56532 L424.49726 323.15906 L430.93212 324.95761 L437.29413 326.9576 L443.57888 329.1557 L449.78197 331.54856 L455.89897 334.13284 L461.92549 336.90519 L467.8571 339.86227 L473.6894 343.00074 L479.41797 346.31724 L485.03841 349.80844 L490.5463 353.47099 L495.93723 357.30155 L501.20679 361.29677 L506.35058 365.45331 L511.36417 369.76783 L516.24316 374.23697 L520.98314 378.8574 L525.57969 383.62577 L530.02841 388.53874 L534.32488 393.59296 L538.46469 398.78508 L542.44344 404.11177 L546.25671 409.56969 L549.90008 415.15547 L553.36916 420.86579 L556.65952 426.69729 L559.76676 432.64663 L562.68646 438.71048 L565.41421 444.88547 L567.94561 451.16828 L570.27625 457.55555 L572.4017 464.04394 L574.31756 470.6301 L576.01942 477.3107 L577.50287 484.08239 L578.7635 490.94181 L579.79689 497.88564 L580.59864 504.91052 L581.16433 512.01311 L581.48955 519.19007 L581.56989 526.43805 L581.40095 533.75371 L580.9783 541.13369 L580.29754 548.57467 L579.85899 552.31699 L579.85899 552.31699 L579.33631 556.18347 L578.08221 563.85188 L576.55382 571.42946 L574.75601 578.9105 L572.69362 586.28931 L570.37153 593.56017 L567.79458 600.71738 L564.96762 607.75523 L561.89553 614.66802 L558.58315 621.45005 L555.03534 628.09561 L551.25696 634.599 L547.25286 640.95451 L543.0279 647.15643 L538.58694 653.19907 L533.93483 659.07671 L529.07643 664.78366 L524.0166 670.3142 L518.76019 675.66263 L513.31206 680.82325 L507.67706 685.79036 L501.86006 690.55824 L495.86591 695.1212 L489.69946 699.47352 L483.36558 703.60951 L476.86911 707.52346 L470.21492 711.20966 L463.40787 714.66241 L456.4528 717.876 L449.35457 720.84474 L442.11805 723.5629 L434.74809 726.0248 L431.01458 727.15787" />
    <path d="M254.1412 339.65201 L257.51462 337.55937 L264.30766 333.58089 L271.15801 329.87589 L278.0605 326.44168 L285.00998 323.27552 L292.00127 320.37473 L299.02921 317.73657 L306.08864 315.35835 L313.17439 313.23735 L320.28131 311.37086 L327.40422 309.75616 L334.53797 308.39055 L341.67739 307.27132 L348.81732 306.39575 L355.95259 305.76114 L363.07805 305.36477 L370.18851 305.20393 L377.27884 305.2759 L384.34385 305.57799 L391.37839 306.10747 L398.37729 306.86164 L405.33539 307.83778 L412.24753 309.03318 L419.10854 310.44514 L425.91325 312.07094 L432.65652 313.90787 L439.33316 315.95321 L445.93802 318.20426 L452.46594 320.65831 L458.91175 323.31265 L465.27028 326.16455 L471.53638 329.21132 L477.70488 332.45024 L483.77061 335.87859 L489.72842 339.49368 L495.57314 343.29278 L501.2996 347.27319 L506.90265 351.4322 L512.37711 355.76708 L517.71783 360.27514 L522.91965 364.95366 L527.97739 369.79993 L532.88589 374.81124 L537.64 379.98487 L542.23454 385.31812 L546.66436 390.80827 L550.92429 396.45262 L555.00917 402.24845 L558.91383 408.19305 L562.63311 414.28371 L566.16185 420.51772 L569.49487 426.89237 L572.62703 433.40494 L575.55316 440.05273 L578.26808 446.83301 L580.76665 453.7431 L583.04369 460.78026 L585.09404 467.94179 L586.91254 475.22498 L588.49403 482.62712 L589.83333 490.14549 L590.9253 497.77739 L591.76475 505.5201 L592.34654 513.37092 L592.5392 517.33602 L592.5392 517.33602 L592.68497 522.40432 L592.63227 532.47867 L592.1279 542.4607 L591.18064 552.33921 L589.7993 562.10301 L587.99268 571.74089 L585.76958 581.24166 L583.13878 590.59413 L580.1091 599.7871 L576.68932 608.80936 L572.88825 617.64973 L568.71468 626.29702 L564.17741 634.74001 L559.28523 642.96752 L554.04696 650.96835 L548.47138 658.7313 L542.56728 666.24517 L536.34348 673.49878 L529.80877 680.48092 L522.97194 687.1804 L515.84179 693.58601 L508.42712 699.68657 L500.73673 705.47088 L492.77941 710.92774 L484.56397 716.04596 L476.0992 720.81433 L467.39389 725.22166 L458.45686 729.25676 L449.29688 732.90843 L439.92277 736.16546 L430.34332 739.01668 L420.56732 741.45087 L415.60837 742.50809" />
    <path d="M209.71937 360.58362 L212.72301 357.68869 L218.82343 352.10108 L225.04311 346.78179 L231.37617 341.72918 L237.8167 336.9416 L244.35878 332.41741 L250.99653 328.15495 L257.72403 324.15259 L264.53538 320.40868 L271.42468 316.92157 L278.38603 313.68962 L285.41351 310.71119 L292.50123 307.98462 L299.64328 305.50828 L306.83377 303.28052 L314.06678 301.29969 L321.33641 299.56415 L328.63676 298.07225 L335.96192 296.82235 L343.30599 295.8128 L350.66307 295.04196 L358.02726 294.50818 L365.39264 294.20982 L372.75333 294.14523 L380.1034 294.31277 L387.43696 294.71079 L394.74811 295.33765 L402.03094 296.1917 L409.27954 297.27129 L416.48802 298.57479 L423.65048 300.10054 L430.76099 301.84691 L437.81368 303.81224 L444.80262 305.99489 L451.72191 308.39321 L458.56566 311.00557 L465.32796 313.83031 L472.0029 316.8658 L478.58458 320.11037 L485.0671 323.5624 L491.44455 327.22023 L497.71104 331.08223 L503.86065 335.14673 L509.88748 339.41211 L515.78563 343.87671 L521.5492 348.53889 L527.17227 353.397 L532.64896 358.4494 L537.97335 363.69445 L543.13954 369.13049 L548.14163 374.75589 L552.97371 380.569 L557.62988 386.56816 L562.10424 392.75175 L566.39087 399.11811 L570.48389 405.6656 L574.37738 412.39257 L578.06545 419.29737 L581.54218 426.37837 L584.80167 433.63392 L587.83802 441.06237 L590.64534 448.66207 L593.2177 456.43139 L595.54921 464.36867 L596.6228 468.39978 L596.6228 468.39978 L597.9215 473.7015 L600.13331 484.31537 L601.83706 494.93127 L603.04 505.53495 L603.74938 516.11214 L603.97244 526.64858 L603.71643 537.13 L602.98861 547.54215 L601.79621 557.87075 L600.14648 568.10155 L598.04668 578.22029 L595.50405 588.2127 L592.52584 598.06452 L589.11929 607.76149 L585.29166 617.28934 L581.05019 626.63381 L576.40213 635.78065 L571.35472 644.71558 L565.91522 653.42434 L560.09087 661.89267 L553.88893 670.10632 L547.31662 678.05101 L540.38122 685.71248 L533.08996 693.07647 L525.45008 700.12872 L517.46885 706.85497 L509.1535 713.24095 L500.51129 719.2724 L491.54946 724.93506 L482.27525 730.21467 L472.69593 735.09696 L462.81873 739.56766 L457.77069 741.64422" />
    <path d="M283.17483 299.89747 L287.25897 298.33316 L295.43436 295.43789 L303.61501 292.85042 L311.79589 290.56674 L319.972 288.58286 L328.13829 286.89475 L336.28975 285.49843 L344.42134 284.38988 L352.52806 283.5651 L360.60487 283.02008 L368.64674 282.75083 L376.64866 282.75333 L384.6056 283.02358 L392.51254 283.55758 L400.36445 284.35132 L408.1563 285.4008 L415.88307 286.702 L423.53975 288.25094 L431.12129 290.04359 L438.62269 292.07596 L446.03891 294.34405 L453.36493 296.84384 L460.59573 299.57133 L467.72627 302.52252 L474.75155 305.69341 L481.66653 309.07998 L488.46618 312.67824 L495.1455 316.48417 L501.69944 320.49378 L508.12298 324.70306 L514.41111 329.108 L520.5588 333.7046 L526.56102 338.48885 L532.41274 343.45675 L538.10895 348.6043 L543.64462 353.92749 L549.01473 359.42231 L554.21424 365.08477 L559.23814 370.91085 L564.08141 376.89655 L568.73901 383.03786 L573.20592 389.33079 L577.47712 395.77132 L581.54759 402.35546 L585.4123 409.07919 L589.06623 415.93851 L592.50434 422.92942 L595.72162 430.04791 L598.71305 437.28998 L601.4736 444.65162 L603.99823 452.12883 L606.28194 459.7176 L608.3197 467.41393 L610.10647 475.21381 L611.63724 483.11324 L612.90699 491.10822 L613.91068 499.19473 L614.6433 507.36878 L615.09981 515.62636 L615.2752 523.96346 L615.16444 532.37608 L614.76251 540.86021 L614.06438 549.41186 L613.06503 558.02701 L612.45082 562.35714 L612.45082 562.35714 L611.58578 567.70069 L609.5028 578.31029 L606.95355 588.80392 L603.94319 599.16644 L600.47684 609.3827 L596.55967 619.43754 L592.19679 629.31581 L587.39336 639.00237 L584.82804 643.76902" />
    <path d="M299.28854 282.47989 L303.68356 281.2081 L312.46049 278.9084 L321.21585 276.93003 L329.94476 275.26837 L338.64234 273.91881 L347.3037 272.87673 L355.92395 272.13751 L364.49821 271.69654 L373.02158 271.5492 L381.4892 271.69087 L389.89616 272.11694 L398.23759 272.8228 L406.5086 273.80382 L414.7043 275.05538 L422.81981 276.57288 L430.85024 278.3517 L438.7907 280.38722 L446.63632 282.67481 L454.3822 285.20988 L462.02346 287.9878 L469.55521 291.00395 L476.97257 294.25371 L484.27065 297.73248 L491.44457 301.43563 L498.48943 305.35855 L505.40037 309.49663 L512.17248 313.84524 L518.80088 318.39976 L525.28069 323.15559 L531.60703 328.10811 L537.77499 333.2527 L543.77971 338.58474 L549.6163 344.09961 L555.27986 349.79271 L560.76552 355.65941 L566.06838 361.6951 L571.18357 367.89516 L576.10619 374.25498 L580.83136 380.76993 L585.3542 387.43541 L589.66982 394.24679 L593.77332 401.19946 L597.65984 408.2888 L601.32448 415.5102 L604.76236 422.85905 L607.96858 430.33071 L610.93827 437.92058 L613.66654 445.62404 L616.1485 453.43648 L618.37927 461.35328 L620.35397 469.36981 L622.06769 477.48148 L623.51557 485.68365 L624.69272 493.97171 L625.59424 502.34105 L626.21526 510.78705 L626.55088 519.30509 L626.59623 527.89056 L626.34641 536.53884 L625.79655 545.24531 L624.94174 554.00536 L623.77712 562.81438 L622.29779 571.66773 L620.49887 580.56082 L619.47804 585.02082 L619.47804 585.02082 L618.48602 589.04687 L616.31362 597.0226 L613.89359 604.8927 L611.23014 612.65258 L608.32748 620.29768 L605.18981 627.82343 L601.82134 635.22527 L598.22628 642.49863 L594.40884 649.63893 L590.37323 656.6416 L586.12365 663.50209 L581.66432 670.21582 L576.99943 676.77821 L572.13321 683.18471 L567.06985 689.43075 L561.81357 695.51175 L556.36858 701.42314 L550.73908 707.16036 L544.92928 712.71885 L538.94338 718.09402 L532.78561 723.28131 L526.46016 728.27616 L519.97125 733.07399 L513.32308 737.67024 L506.51986 742.06033 L499.56579 746.2397 L492.4651 750.20378 L485.22198 753.948 L477.84064 757.46779 L470.3253 760.75858 L462.68016 763.81581 L454.90942 766.63491 L450.97827 767.95373" />
    <path d="M106.5392 521.39472 L106.66569 516.6192 L107.15716 507.15847 L107.9615 497.82094 L109.07258 488.61003 L110.48424 479.52914 L112.19036 470.58165 L114.18479 461.77098 L116.46139 453.10051 L119.01402 444.57366 L121.83654 436.19381 L124.92281 427.96438 L128.26669 419.88874 L131.86204 411.97031 L135.70272 404.21249 L139.78259 396.61867 L144.09551 389.19225 L148.63534 381.93663 L153.39593 374.85522 L158.37115 367.9514 L163.55487 361.22858 L168.94092 354.69016 L174.52319 348.33953 L180.29552 342.1801 L186.25178 336.21526 L192.38583 330.44842 L198.69152 324.88296 L205.16272 319.5223 L211.79329 314.36983 L218.57708 309.42895 L225.50796 304.70306 L232.57978 300.19555 L239.78641 295.90983 L247.1217 291.84929 L254.57952 288.01734 L262.15372 284.41737 L269.83816 281.05279 L277.62671 277.92698 L285.51322 275.04336 L293.49156 272.40531 L301.55558 270.01625 L309.69914 267.87956 L317.9161 265.99864 L326.20033 264.37691 L334.54567 263.01774 L342.946 261.92455 L351.39518 261.10073 L359.88705 260.54968 L368.41548 260.27481 L376.97434 260.2795 L385.55747 260.56716 L394.15875 261.14119 L402.77202 262.00498 L411.39116 263.16194 L420.01001 264.61546 L428.62244 266.36895 L437.22232 268.4258 L445.80349 270.78941 L454.35982 273.46318 L462.88517 276.45051 L471.3734 279.7548 L479.81836 283.37944 L488.21392 287.32784 L496.55394 291.6034 L504.83228 296.20951 L508.9464 298.63759 L508.9464 298.63759 L513.01887 301.13489 L520.96637 306.29088 L528.65073 311.65622 L536.07208 317.2239 L543.23053 322.98688 L550.12622 328.93817 L556.75927 335.07073 L563.12982 341.37755 L569.23797 347.85162 L575.08387 354.48592 L580.66764 361.27343 L585.9894 368.20713 L591.04929 375.28001 L595.84742 382.48505 L600.38393 389.81523 L604.65894 397.26353 L608.67257 404.82295 L612.42496 412.48645 L615.91623 420.24703 L619.14651 428.09767 L622.11592 436.03134 L624.82459 444.04104 L627.27265 452.11974 L629.46022 460.26044 L631.38743 468.4561 L633.05441 476.69972 L634.46127 484.98427 L635.60816 493.30274 L636.4952 501.64812 L637.1225 510.01338 L637.49021 518.39151 L637.59843 526.7755 L637.44732 535.15831 L637.03697 543.53295 L636.36754 551.89238 L635.43913 560.2296 L634.25188 568.53758 L632.80592 576.80931 L631.10137 585.03778 L629.13835 593.21595 L626.917 601.33683 L624.43743 609.39339 L621.69979 617.37861 L618.70418 625.28547 L615.45075 633.10697 L611.93961 640.83607 L608.1709 648.46577 L604.14473 655.98905 L599.86124 663.39889 L595.32055 670.68827 L590.52279 677.85018 L585.46809 684.8776 L580.15656 691.76351 L574.58835 698.5009 L568.76357 705.08274 L562.68235 711.50202 L556.34482 717.75173 L549.7511 723.82485 L542.90132 729.71435 L535.79561 735.41323 L528.43409 740.91446 L520.8169 746.21103 L512.94414 751.29592 L504.81597 756.16211 L500.65613 758.511" />
    <path d="M630.43248 426.98624 L632.4986 432.54531 L636.2623 443.76086 L639.53421 455.09304 L642.31393 466.52592 L644.60102 478.0436 L646.39506 489.63018 L647.69563 501.26973 L648.5023 512.94636 L648.81464 524.64414 L648.63224 536.34718 L647.95466 548.03955 L646.78149 559.70535 L645.11229 571.32868 L642.94664 582.89361 L640.28412 594.38424 L637.1243 605.78465 L635.35777 611.44606" />
    <path d="M287.54865 250.8641 L292.5142 249.38593 L302.43255 246.70585 L312.32928 244.38981 L322.19879 242.43261 L332.03553 240.82909 L341.83393 239.57404 L351.5884 238.66228 L361.29338 238.08864 L370.94329 237.84792 L380.53256 237.93494 L390.05563 238.34452 L399.50691 239.07146 L408.88084 240.11059 L418.17184 241.45673 L427.37435 243.10467 L436.48278 245.04925 L445.49157 247.28528 L454.39515 249.80756 L463.18793 252.61092 L471.86436 255.69018 L480.41886 259.04013 L488.84585 262.65561 L497.13977 266.53143 L505.29504 270.6624 L513.30608 275.04333 L521.16734 279.66905 L528.87323 284.53436 L536.41818 289.63408 L543.79662 294.96304 L551.00299 300.51603 L558.03169 306.28788 L564.87718 312.2734 L571.53386 318.46741 L577.99617 324.86473 L584.25855 331.46016 L590.3154 338.24852 L596.16117 345.22463 L601.79028 352.38331 L607.19716 359.71936 L612.37624 367.2276 L617.32194 374.90286 L622.02869 382.73994 L626.49092 390.73365 L630.70306 398.87882 L634.65954 407.17026 L638.35478 415.60278 L641.78321 424.1712 L644.93926 432.87033 L647.81735 441.69499 L650.41192 450.64 L652.7174 459.70017 L654.7282 468.87031 L656.43876 478.14524 L657.84351 487.51977 L658.93687 496.98872 L659.71327 506.54691 L660.16714 516.18915 L660.29291 525.91025 L660.085 535.70504 L659.53785 545.56832 L658.64587 555.49491 L657.40351 565.47962 L655.80518 575.51727 L653.84531 585.60268 L652.72806 590.66168 L652.72806 590.66168 L651.76585 594.71554 L649.66645 602.7777 L647.335 610.77493 L644.77295 618.70222 L643.4059 622.63806" />
    <path d="M353.38745 227.55091 L358.76237 227.26066 L369.43238 226.9562 L379.99234 227.01428 L390.43786 227.42831 L400.76457 228.19172 L410.9681 229.29791 L421.04408 230.74029 L430.98813 232.51228 L440.79587 234.60728 L450.46294 237.0187 L459.98496 239.73997 L469.35756 242.76449 L478.57636 246.08566 L487.637 249.69691 L496.53509 253.59165 L505.26627 257.76328 L513.82616 262.20521 L522.21039 266.91087 L530.41458 271.87365 L538.43436 277.08698 L546.26536 282.54426 L553.90321 288.23891 L561.34353 294.16433 L568.58194 300.31394 L575.61409 306.68115 L582.43558 313.25937 L589.04205 320.04201 L595.42912 327.02248 L601.59243 334.1942 L607.52759 341.55058 L613.23024 349.08502 L618.696 356.79094 L623.9205 364.66176 L628.89936 372.69087 L633.62821 380.8717 L638.10269 389.19766 L642.3184 397.66215 L646.27099 406.25859 L649.95608 414.98039 L653.36929 423.82097 L656.50625 432.77372 L659.36259 441.83207 L661.93393 450.98942 L664.21591 460.23919 L666.20414 469.57479 L667.89426 478.98963 L669.28189 488.47713 L670.36266 498.03068 L671.13219 507.64371 L671.58611 517.30962 L671.72005 527.02184 L671.52964 536.77376 L671.0105 546.5588 L670.15825 556.37038 L668.96853 566.20189 L667.43696 576.04677 L665.55917 585.8984 L663.33078 595.75022 L660.74743 605.59563 L657.80473 615.42803 L654.49832 625.24085 L650.82382 635.02749 L646.77685 644.78137 L642.35305 654.4959 L639.99847 659.33634 L639.99847 659.33634 L638.18059 662.93353 L634.40418 670.04572 L630.44253 677.04552 L626.29835 683.92955 L621.97437 690.69441 L617.47328 697.33673 L612.79783 703.85311 L607.95071 710.24016 L602.93464 716.4945 L597.75235 722.61274 L592.40655 728.5915 L586.89995 734.42738 L581.23528 740.11699 L575.41525 745.65696 L569.44257 751.0439 L563.31996 756.2744 L560.20329 758.82994" />
    <path d="M519.76036 253.14351 L523.42246 255.15593 L530.63203 259.30487 L537.68792 263.61621 L544.58914 268.08622 L551.33471 272.71119 L557.92364 277.48739 L564.35493 282.4111 L570.62759 287.47862 L576.74064 292.68621 L582.69308 298.03016 L588.48392 303.50676 L594.11217 309.11228 L599.57685 314.843 L604.87696 320.6952 L610.01151 326.66518 L614.9795 332.7492 L619.77996 338.94355 L624.41189 345.24452 L628.8743 351.64837 L633.1662 358.1514 L637.2866 364.74989 L641.23451 371.44011 L645.00893 378.21834 L648.60889 385.08088 L652.03338 392.024 L655.28141 399.04397 L658.35201 406.1371 L661.24417 413.29964 L663.9569 420.52789 L666.48923 427.81813 L668.84014 435.16664 L671.00867 442.56969 L672.9938 450.02358 L674.79456 457.52458 L676.40996 465.06897 L677.839 472.65304 L679.08069 480.27306 L680.13404 487.92532 L680.99807 495.6061 L681.67178 503.31168 L682.15418 511.03834 L682.44428 518.78236 L682.54109 526.54003 L682.44363 534.30763 L682.15089 542.08143 L681.66189 549.85772 L680.97565 557.63277 L680.09116 565.40288 L679.00744 573.16432 L677.7235 580.91338 L676.23834 588.64633 L674.55099 596.35945 L672.66044 604.04904 L670.56571 611.71136 L668.2658 619.3427 L665.75973 626.93934 L663.04651 634.49757 L660.12514 642.01366 L656.99464 649.48389 L653.65401 656.90456 L650.10227 664.27193 L646.33842 671.58229 L642.36148 678.83192 L638.17044 686.0171 L635.99434 689.58436" />
    <path d="M387.98958 204.92288 L393.76629 205.25854 L405.20128 206.21513 L416.47515 207.54579 L427.584 209.24297 L438.52397 211.29909 L449.29116 213.7066 L459.88171 216.45792 L470.29172 219.5455 L480.51732 222.96177 L490.55462 226.69918 L500.39976 230.75014 L510.04884 235.1071 L519.49798 239.76251 L528.74331 244.70878 L537.78095 249.93837 L546.60701 255.4437 L555.21762 261.21721 L563.60889 267.25135 L571.77695 273.53853 L579.71791 280.07121 L587.42789 286.84182 L594.90302 293.84279 L602.13941 301.06656 L609.13318 308.50557 L615.88045 316.15225 L622.37735 323.99903 L628.61998 332.03837 L634.60448 340.26269 L640.32695 348.66442 L645.78353 357.23601 L650.97032 365.96989 L655.88346 374.85849 L660.51905 383.89426 L664.87322 393.06963 L668.94209 402.37704 L672.72178 411.80891 L676.20841 421.3577 L679.39809 431.01583 L682.28695 440.77574 L684.8711 450.62987 L687.14667 460.57066 L689.10978 470.59053 L690.75654 480.68193 L692.08307 490.83729 L693.0855 501.04906 L693.75995 511.30965 L694.10252 521.61152 L694.10935 531.9471 L693.77656 542.30882 L693.10025 552.68912 L692.07656 563.08044 L690.7016 573.47522 L688.97149 583.86588 L686.88235 594.24487 L684.4303 604.60462 L681.61147 614.93756 L678.42196 625.23615 L674.8579 635.4928 L670.91541 645.69996 L666.59061 655.85007 L661.87962 665.93556 L656.77855 675.94886 L651.28353 685.88241 L645.39068 695.72866 L642.29386 700.61668 L642.29386 700.61668 L640.0466 704.05001 L635.42585 710.82325 L630.6391 717.46955 L625.68914 723.98607 L620.57876 730.36999 L615.31073 736.61847 L609.88784 742.72868 L604.31287 748.6978 L598.5886 754.52299 L592.71781 760.20141 L586.70329 765.73025 L580.54782 771.10666 L574.25417 776.32781 L567.82514 781.39088 L561.2635 786.29304 L554.57204 791.03144 L551.1785 793.33835" />
    <path d="M611.32894 294.77372 L616.01693 299.72072 L625.04102 309.84289 L633.5942 320.25644 L641.67438 330.94593 L649.27948 341.89595 L656.40741 353.09108 L663.05609 364.5159 L669.22342 376.15499 L674.90734 387.99294 L680.10574 400.01432 L684.81654 412.20372 L689.03767 424.54572 L692.76702 437.02489 L696.00252 449.62582 L698.74208 462.33308 L700.98361 475.13127 L702.72504 488.00496 L703.96426 500.93873 L704.69921 513.91716 L704.92778 526.92484 L704.6479 539.94634 L703.85748 552.96624 L702.55444 565.96913 L700.73668 578.93959 L698.40213 591.8622 L695.54869 604.72153 L692.17428 617.50218 L688.27682 630.18871 L683.85422 642.76572 L678.9044 655.21778 L673.42526 667.52947 L667.41473 679.68537 L664.20953 685.70009" />
  </g>
</svg>