<?xml version="1.0" standalone="no"?>
<!DOCTYPE svg PUBLIC "-//W3C//DTD SVG 1.1//EN" 
    "http://www.w3.org/Graphics/SVG/1.1/DTD/svg11.dtd">
<svg width="2480px" height="3508px"
    xmlns="http://www.w3.org/2000/svg" version="1.1" viewBox="0 0 2480 3508">
  <g fill="none" stroke="black" stroke-width="1.06299px">
    <path d="M100 614 L2380 614" />
    <path d="M2380 614 L2380 2894" />
    <path d="M2380 2894 L100 2894" />
    <path d="M100 2894 L100 614" />
    <path d="M131.7598747959746 606.3837553921758 L2387.6162446078242 645.7598747959746" />
    <path d="M2387.6162446078242 645.7598747959746 L2348.2401252040254 2901.6162446078242" />
    <path d="M2348.2401252040254 2901.6162446078242 L92.38375539217577 2862.2401252040254" />
    <path d="M92.38375539217577 2862.2401252040254 L131.7598747959746 606.3837553921758" />
    <path d="M163.43477710061688 599.5251406619536 L2394.4748593380464 677.4347771006169" />
    <path d="M2394.4748593380464 677.4347771006169 L2316.565222899383 2908.4748593380464" />
    <path d="M2316.565222899383 2908.4748593380464 L85.52514066195363 2830.565222899383" />
    <path d="M85.52514066195363 2830.565222899383 L163.43477710061688 599.5251406619536" />
    <path d="M195.0080012496071 593.4188082914413 L2400.5811917085584 709.0080012496071" />
    <path d="M2400.5811917085584 709.0080012496071 L2284.9919987503927 2914.581191708559" />
    <path d="M2284.9919987503927 2914.581191708559 L79.41880829144134 2798.991998750393" />
    <path d="M79.41880829144134 2798.991998750393 L195.0080012496071 593.4188082914413" />
    <path d="M226.46300341425047 588.0590595780855 L2405.9409404219145 740.4630034142505" />
    <path d="M2405.9409404219145 740.4630034142505 L2253.5369965857494 2919.9409404219145" />
    <path d="M2253.5369965857494 2919.9409404219145 L74.05905957808545 2767.5369965857494" />
    <path d="M74.05905957808545 2767.5369965857494 L226.46300341425047 588.0590595780855" />
    <path d="M257.78340875071353 583.4398486730242 L2410.5601513269758 771.7834087507135" />
    <path d="M2410.5601513269758 771.7834087507135 L2222.2165912492865 2924.5601513269758" />
    <path d="M2222.2165912492865 2924.5601513269758 L69.43984867302424 2736.2165912492865" />
    <path d="M69.43984867302424 2736.2165912492865 L257.78340875071353 583.4398486730242" />
    <path d="M288.9530184572777 579.5547867616488 L2414.4452132383512 802.9530184572777" />
    <path d="M2414.4452132383512 802.9530184572777 L2191.0469815427223 2928.4452132383512" />
    <path d="M2191.0469815427223 2928.4452132383512 L65.55478676164876 2705.0469815427223" />
    <path d="M65.55478676164876 2705.0469815427223 L288.9530184572777 579.5547867616488" />
    <path d="M319.9558167368343 576.3971463843957 L2417.6028536156045 833.9558167368343" />
    <path d="M2417.6028536156045 833.9558167368343 L2160.044183263166 2931.602853615604" />
    <path d="M2160.044183263166 2931.602853615604 L62.39714638439568 2674.0441832631655" />
    <path d="M62.39714638439568 2674.0441832631655 L319.9558167368343 576.3971463843957" />
    <path d="M350.77597766188376 573.9598658957311 L2420.040134104269 864.7759776618838" />
    <path d="M2420.040134104269 864.7759776618838 L2129.224022338116 2934.040134104269" />
    <path d="M2129.224022338116 2934.040134104269 L59.9598658957309 2643.2240223381164" />
    <path d="M59.9598658957309 2643.2240223381164 L350.77597766188376 573.9598658957311" />
    <path d="M381.3978719393366 572.2355540592275 L2421.7644459407725 895.3978719393366" />
    <path d="M2421.7644459407725 895.3978719393366 L2098.6021280606633 2935.7644459407725" />
    <path d="M2098.6021280606633 2935.7644459407725 L58.235554059227525 2612.6021280606633" />
    <path d="M58.235554059227525 2612.6021280606633 L381.3978719393366 572.2355540592275" />
    <path d="M411.8060735724714 571.2164947765998 L2422.7835052234004 925.8060735724714" />
    <path d="M2422.7835052234004 925.8060735724714 L2068.193926427529 2936.7835052234004" />
    <path d="M2068.193926427529 2936.7835052234004 L57.2164947765998 2582.193926427529" />
    <path d="M57.2164947765998 2582.193926427529 L411.8060735724714 571.2164947765998" />
    <path d="M441.9853664174336 570.894651948491 L2423.1053480515093 955.9853664174336" />
    <path d="M2423.1053480515093 955.9853664174336 L2038.0146335825661 2937.105348051509" />
    <path d="M2038.0146335825661 2937.105348051509 L56.894651948490946 2552.014633582566" />
    <path d="M56.894651948490946 2552.014633582566 L441.9853664174336 570.894651948491" />
    <path d="M471.92075063171853 571.2616744647794 L2422.738325535221 985.9207506317186" />
    <path d="M2422.738325535221 985.9207506317186 L2008.0792493682818 2936.7383255352206" />
    <path d="M2008.0792493682818 2936.7383255352206 L57.26167446477939 2522.079249368281" />
    <path d="M57.26167446477939 2522.079249368281 L471.92075063171853 571.2616744647794" />
    <path d="M501.59744901211786 572.3089013220974 L2421.691098677902 1015.5974490121179" />
    <path d="M2421.691098677902 1015.5974490121179 L1978.4025509878818 2935.6910986779026" />
    <path d="M1978.4025509878818 2935.6910986779026 L58.30890132209743 2492.402550987882" />
    <path d="M58.30890132209743 2492.402550987882 L501.59744901211786 572.3089013220974" />
    <path d="M531.0009132196617 574.0273668662285 L2419.9726331337715 1045.0009132196617" />
    <path d="M2419.9726331337715 1045.0009132196617 L1948.9990867803385 2933.9726331337715" />
    <path d="M1948.9990867803385 2933.9726331337715 L60.027366866228476 2462.9990867803385" />
    <path d="M60.027366866228476 2462.9990867803385 L531.0009132196617 574.0273668662285" />
    <path d="M560.1168298891346 576.4078061569871 L2417.592193843013 1074.1168298891346" />
    <path d="M2417.592193843013 1074.1168298891346 L1919.8831701108654 2931.592193843013" />
    <path d="M1919.8831701108654 2931.592193843013 L62.407806156987135 2433.8831701108656" />
    <path d="M62.407806156987135 2433.8831701108656 L560.1168298891346 576.4078061569871" />
    <path d="M588.9311266207948 579.44066045315 L2414.55933954685 1102.9311266207947" />
    <path d="M2414.55933954685 1102.9311266207947 L1891.0688733792051 2928.55933954685" />
    <path d="M1891.0688733792051 2928.55933954685 L65.44066045315003 2405.068873379205" />
    <path d="M65.44066045315003 2405.068873379205 L588.9311266207948 579.44066045315" />
    <path d="M617.4299778519719 583.1160828149514 L2410.8839171850486 1131.429977851972" />
    <path d="M2410.8839171850486 1131.429977851972 L1862.5700221480283 2924.8839171850486" />
    <path d="M1862.5700221480283 2924.8839171850486 L69.11608281495137 2376.570022148028" />
    <path d="M69.11608281495137 2376.570022148028 L617.4299778519719 583.1160828149514" />
    <path d="M645.5998106062732 587.4239438216207 L2406.5760561783795 1159.5998106062734" />
    <path d="M2406.5760561783795 1159.5998106062734 L1834.400189393727 2920.5760561783795" />
    <path d="M1834.400189393727 2920.5760561783795 L73.42394382162047 2348.400189393727" />
    <path d="M73.42394382162047 2348.400189393727 L645.5998106062732 587.4239438216207" />
    <path d="M673.4273101181799 592.3538374013888 L2401.646162598611 1187.42731011818" />
    <path d="M2401.646162598611 1187.42731011818 L1806.5726898818202 2915.646162598611" />
    <path d="M1806.5726898818202 2915.646162598611 L78.35383740138877 2320.57268988182" />
    <path d="M78.35383740138877 2320.57268988182 L673.4273101181799 592.3538374013888" />
    <path d="M700.8994253308638 597.8950867713575 L2396.1049132286425 1214.8994253308638" />
    <path d="M2396.1049132286425 1214.8994253308638 L1779.1005746691362 2910.1049132286425" />
    <path d="M1779.1005746691362 2910.1049132286425 L83.89508677135746 2293.100574669136" />
    <path d="M83.89508677135746 2293.100574669136 L700.8994253308638 597.8950867713575" />
    <path d="M728.0033742651124 604.036750484569 L2389.963249515431 1242.0033742651124" />
    <path d="M2389.963249515431 1242.0033742651124 L1751.9966257348874 2903.963249515431" />
    <path d="M1751.9966257348874 2903.963249515431 L90.03675048456898 2265.9966257348874" />
    <path d="M90.03675048456898 2265.9966257348874 L728.0033742651124 604.036750484569" />
    <path d="M754.7266492573012 610.7676285815933 L2383.2323714184067 1268.7266492573012" />
    <path d="M2383.2323714184067 1268.7266492573012 L1725.2733507426992 2897.2323714184067" />
    <path d="M1725.2733507426992 2897.2323714184067 L96.76762858159327 2239.2733507426988" />
    <path d="M96.76762858159327 2239.2733507426988 L754.7266492573012 610.7676285815933" />
    <path d="M781.0570220644088 618.0762688438931 L2375.9237311561064 1295.0570220644088" />
    <path d="M2375.9237311561064 1295.0570220644088 L1698.942977935591 2889.9237311561074" />
    <path d="M1698.942977935591 2889.9237311561074 L104.0762688438931 2212.9429779355914" />
    <path d="M104.0762688438931 2212.9429779355914 L781.0570220644088 618.0762688438931" />
    <path d="M806.9825488341255 625.9509731461981 L2368.049026853802 1320.9825488341255" />
    <path d="M2368.049026853802 1320.9825488341255 L1673.0174511658745 2882.049026853802" />
    <path d="M1673.0174511658745 2882.049026853802 L111.95097314619807 2187.0174511658747" />
    <path d="M111.95097314619807 2187.0174511658747 L806.9825488341255 625.9509731461981" />
    <path d="M832.4915749381616 634.3798039050832 L2359.6201960949165 1346.4915749381616" />
    <path d="M2359.6201960949165 1346.4915749381616 L1647.5084250618384 2873.6201960949165" />
    <path d="M1647.5084250618384 2873.6201960949165 L120.37980390508324 2161.5084250618384" />
    <path d="M120.37980390508324 2161.5084250618384 L832.4915749381616 634.3798039050832" />
    <path d="M857.5727396669195 643.3505906209043 L2350.6494093790957 1371.5727396669195" />
    <path d="M2350.6494093790957 1371.5727396669195 L1622.4272603330805 2864.6494093790957" />
    <path d="M1622.4272603330805 2864.6494093790957 L129.3505906209043 2136.4272603330805" />
    <path d="M129.3505906209043 2136.4272603330805 L857.5727396669195 643.3505906209043" />
    <path d="M882.2149807837501 652.8509365102163 L2341.149063489784 1396.2149807837502" />
    <path d="M2341.149063489784 1396.2149807837502 L1597.7850192162502 2855.1490634897837" />
    <path d="M1597.7850192162502 2855.1490634897837 L138.85093651021634 2111.7850192162496" />
    <path d="M138.85093651021634 2111.7850192162496 L882.2149807837501 652.8509365102163" />
    <path d="M906.4075389370744 662.8682252257611 L2331.1317747742387 1420.4075389370744" />
    <path d="M2331.1317747742387 1420.4075389370744 L1573.5924610629254 2845.131774774239" />
    <path d="M1573.5924610629254 2845.131774774239 L148.86822522576085 2087.592461062926" />
    <path d="M148.86822522576085 2087.592461062926 L906.4075389370744 662.8682252257611" />
    <path d="M930.1399619287076 673.389627661081 L2320.610372338919 1444.1399619287076" />
    <path d="M2320.610372338919 1444.1399619287076 L1549.8600380712924 2834.610372338919" />
    <path d="M1549.8600380712924 2834.610372338919 L159.38962766108102 2063.8600380712924" />
    <path d="M159.38962766108102 2063.8600380712924 L930.1399619287076 673.389627661081" />
    <path d="M953.4021088367845 684.4021088367845 L2309.5978911632155 1467.4021088367845" />
    <path d="M2309.5978911632155 1467.4021088367845 L1526.5978911632155 2823.5978911632155" />
    <path d="M1526.5978911632155 2823.5978911632155 L170.40210883678446 2040.5978911632155" />
    <path d="M170.40210883678446 2040.5978911632155 L953.4021088367845 684.4021088367845" />
    <path d="M976.184153991744 695.8924348654587 L2298.1075651345413 1490.184153991744" />
    <path d="M2298.1075651345413 1490.184153991744 L1503.815846008256 2812.1075651345413" />
    <path d="M1503.815846008256 2812.1075651345413 L181.89243486545865 2017.815846008256" />
    <path d="M181.89243486545865 2017.815846008256 L976.184153991744 695.8924348654587" />
    <path d="M998.4765908038905 707.8471799921922 L2286.152820007808 1512.4765908038905" />
    <path d="M2286.152820007808 1512.4765908038905 L1481.5234091961097 2800.1528200078073" />
    <path d="M1481.5234091961097 2800.1528200078073 L193.8471799921922 1995.5234091961092" />
    <path d="M193.8471799921922 1995.5234091961092 L998.4765908038905 707.8471799921922" />
    <path d="M1020.2702354411144 720.2527337076549 L2273.747266292345 1534.2702354411144" />
    <path d="M2273.747266292345 1534.2702354411144 L1459.7297645588856 2787.7472662923456" />
    <path d="M1459.7297645588856 2787.7472662923456 L206.2527337076549 1973.7297645588858" />
    <path d="M206.2527337076549 1973.7297645588858 L1020.2702354411144 720.2527337076549" />
    <path d="M1041.5562303554098 733.0953079306352 L2260.904692069365 1555.5562303554098" />
    <path d="M2260.904692069365 1555.5562303554098 L1438.4437696445905 2774.904692069365" />
    <path d="M1438.4437696445905 2774.904692069365 L219.09530793063504 1952.4437696445905" />
    <path d="M219.09530793063504 1952.4437696445905 L1041.5562303554098 733.0953079306352" />
    <path d="M1062.3260476568962 746.3609442569327 L2247.6390557430673 1576.3260476568962" />
    <path d="M2247.6390557430673 1576.3260476568962 L1417.6739523431038 2761.6390557430673" />
    <path d="M1417.6739523431038 2761.6390557430673 L232.36094425693273 1931.6739523431038" />
    <path d="M232.36094425693273 1931.6739523431038 L1062.3260476568962 746.3609442569327" />
    <path d="M1082.5714923341113 760.0355212714637 L2233.964478728536 1596.5714923341113" />
    <path d="M2233.964478728536 1596.5714923341113 L1397.4285076658887 2747.964478728536" />
    <path d="M1397.4285076658887 2747.964478728536 L246.03552127146372 1911.4285076658887" />
    <path d="M246.03552127146372 1911.4285076658887 L1082.5714923341113 760.0355212714637" />
    <path d="M1102.2847053193973 774.104761920421 L2219.895238079579 1616.2847053193973" />
    <path d="M2219.895238079579 1616.2847053193973 L1377.7152946806027 2733.895238079579" />
    <path d="M1377.7152946806027 2733.895238079579 L260.1047619204211 1891.7152946806025" />
    <path d="M260.1047619204211 1891.7152946806025 L1102.2847053193973 774.104761920421" />
    <path d="M1121.4581663982844 788.554240940309 L2205.445759059691 1635.4581663982844" />
    <path d="M2205.445759059691 1635.4581663982844 L1358.5418336017153 2719.445759059691" />
    <path d="M1358.5418336017153 2719.445759059691 L274.5542409403088 1872.5418336017158" />
    <path d="M274.5542409403088 1872.5418336017158 L1121.4581663982844 788.554240940309" />
    <path d="M1140.0846969618185 803.3693923406482 L2190.630607659352 1654.0846969618185" />
    <path d="M2190.630607659352 1654.0846969618185 L1339.9153030381817 2704.6306076593514" />
    <path d="M1339.9153030381817 2704.6306076593514 L289.3693923406486 1853.9153030381813" />
    <path d="M289.3693923406486 1853.9153030381813 L1140.0846969618185 803.3693923406482" />
    <path d="M1158.1574626008605 818.5355169371364 L2175.4644830628636 1672.1574626008605" />
    <path d="M2175.4644830628636 1672.1574626008605 L1321.8425373991395 2689.4644830628636" />
    <path d="M1321.8425373991395 2689.4644830628636 L304.53551693713644 1835.8425373991395" />
    <path d="M304.53551693713644 1835.8425373991395 L1158.1574626008605 818.5355169371364" />
    <path d="M1175.6699755414402 834.0377899320207 L2159.9622100679794 1689.6699755414402" />
    <path d="M2159.9622100679794 1689.6699755414402 L1304.3300244585598 2673.9622100679794" />
    <path d="M1304.3300244585598 2673.9622100679794 L320.0377899320207 1818.3300244585598" />
    <path d="M320.0377899320207 1818.3300244585598 L1175.6699755414402 834.0377899320207" />
    <path d="M1192.6160969203133 849.8612685384311 L2144.138731461569 1706.6160969203133" />
    <path d="M2144.138731461569 1706.6160969203133 L1287.383903079687 2658.1387314615686" />
    <path d="M1287.383903079687 2658.1387314615686 L335.8612685384312 1801.3839030796867" />
    <path d="M335.8612685384312 1801.3839030796867 L1192.6160969203133 849.8612685384311" />
    <path d="M1208.990038899943 865.9908996454075 L2128.0091003545926 1722.990038899943" />
    <path d="M2128.0091003545926 1722.990038899943 L1271.009961100057 2642.0091003545926" />
    <path d="M1271.009961100057 2642.0091003545926 L351.99089964540735 1785.0099611000571" />
    <path d="M351.99089964540735 1785.0099611000571 L1208.990038899943 865.9908996454075" />
    <path d="M1224.7863666221815 882.4115275203294 L2111.5884724796706 1738.7863666221813" />
    <path d="M2111.5884724796706 1738.7863666221813 L1255.213633377819 2625.5884724796706" />
    <path d="M1255.213633377819 2625.5884724796706 L368.41152752032974 1769.2136333778185" />
    <path d="M368.41152752032974 1769.2136333778185 L1224.7863666221815 882.4115275203294" />
    <path d="M1240 899.1079015454641 L2094.8920984545357 1754" />
    <path d="M2094.8920984545357 1754 L1240 2608.8920984545357" />
    <path d="M1240 2608.8920984545357 L385.1079015454641 1754" />
    <path d="M385.1079015454641 1754 L1240 899.1079015454641" />
    <path d="M1254.6262153466828 916.0646839853136 L2077.9353160146866 1768.6262153466828" />
    <path d="M2077.9353160146866 1768.6262153466828 L1225.3737846533168 2591.9353160146866" />
    <path d="M1225.3737846533168 2591.9353160146866 L402.0646839853132 1739.3737846533174" />
    <path d="M402.0646839853132 1739.3737846533174 L1254.6262153466828 916.0646839853136" />
    <path d="M1268.6606468419593 933.2664577814551 L2060.733542218545 1782.6606468419595" />
    <path d="M2060.733542218545 1782.6606468419595 L1211.3393531580405 2574.733542218545" />
    <path d="M1211.3393531580405 2574.733542218545 L419.2664577814551 1725.3393531580405" />
    <path d="M419.2664577814551 1725.3393531580405 L1268.6606468419593 933.2664577814551" />
    <path d="M1282.0992878346233 950.6977343715397 L2043.3022656284602 1796.0992878346233" />
    <path d="M2043.3022656284602 1796.0992878346233 L1197.9007121653765 2557.30226562846" />
    <path d="M1197.9007121653765 2557.30226562846 L436.6977343715396 1711.900712165377" />
    <path d="M436.6977343715396 1711.900712165377 L1282.0992878346233 950.6977343715397" />
    <path d="M1294.9384919812483 968.3429615291248 L2025.6570384708752 1808.9384919812483" />
    <path d="M2025.6570384708752 1808.9384919812483 L1185.0615080187522 2539.657038470875" />
    <path d="M1185.0615080187522 2539.657038470875 L454.342961529125 1699.0615080187517" />
    <path d="M454.342961529125 1699.0615080187517 L1294.9384919812483 968.3429615291248" />
    <path d="M1307.1749742206791 986.186531220993 L2007.813468779007 1821.1749742206791" />
    <path d="M2007.813468779007 1821.1749742206791 L1172.8250257793209 2521.813468779007" />
    <path d="M1172.8250257793209 2521.813468779007 L472.18653122099295 1686.8250257793209" />
    <path d="M472.18653122099295 1686.8250257793209 L1307.1749742206791 986.186531220993" />
    <path d="M1318.8058115840427 1004.2127874786206 L1989.7872125213794 1832.8058115840427" />
    <path d="M1989.7872125213794 1832.8058115840427 L1161.194188415957 2503.78721252138" />
    <path d="M1161.194188415957 2503.78721252138 L490.21278747862016 1675.1941884159573" />
    <path d="M490.21278747862016 1675.1941884159573 L1318.8058115840427 1004.2127874786206" />
    <path d="M1329.8284438400904 1022.4060342804437 L1971.5939657195563 1843.8284438400904" />
    <path d="M1971.5939657195563 1843.8284438400904 L1150.1715561599096 2485.5939657195563" />
    <path d="M1150.1715561599096 2485.5939657195563 L508.4060342804437 1664.1715561599096" />
    <path d="M508.4060342804437 1664.1715561599096 L1329.8284438400904 1022.4060342804437" />
    <path d="M1340.240673975748 1040.7505434415757 L1953.2494565584243 1854.240673975748" />
    <path d="M1953.2494565584243 1854.240673975748 L1139.7593260242518 2467.2494565584248" />
    <path d="M1139.7593260242518 2467.2494565584248 L526.7505434415755 1653.759326024252" />
    <path d="M526.7505434415755 1653.759326024252 L1340.240673975748 1040.7505434415757" />
    <path d="M1350.0406685118228 1059.230562507625 L1934.7694374923751 1864.0406685118228" />
    <path d="M1934.7694374923751 1864.0406685118228 L1129.9593314881777 2448.769437492375" />
    <path d="M1129.9593314881777 2448.769437492375 L545.2305625076253 1643.9593314881772" />
    <path d="M545.2305625076253 1643.9593314881772 L1350.0406685118228 1059.230562507625" />
    <path d="M1359.2269576538727 1077.8303226492617 L1916.1696773507383 1873.2269576538727" />
    <path d="M1916.1696773507383 1873.2269576538727 L1120.7730423461273 2430.1696773507383" />
    <path d="M1120.7730423461273 2430.1696773507383 L563.8303226492617 1634.7730423461273" />
    <path d="M563.8303226492617 1634.7730423461273 L1359.2269576538727 1077.8303226492617" />
    <path d="M1367.798435278322 1096.5340465541867 L1897.4659534458133 1881.798435278322" />
    <path d="M1897.4659534458133 1881.798435278322 L1112.2015647216776 2411.4659534458133" />
    <path d="M1112.2015647216776 2411.4659534458133 L582.5340465541863 1626.201564721678" />
    <path d="M582.5340465541863 1626.201564721678 L1367.798435278322 1096.5340465541867" />
    <path d="M1375.7543587539642 1115.3259563131598 L1878.67404368684 1889.7543587539642" />
    <path d="M1878.67404368684 1889.7543587539642 L1104.2456412460358 2392.67404368684" />
    <path d="M1104.2456412460358 2392.67404368684 L601.3259563131598 1618.2456412460356" />
    <path d="M601.3259563131598 1618.2456412460356 L1375.7543587539642 1115.3259563131598" />
    <path d="M1383.094348599065 1134.1902812967442 L1859.8097187032558 1897.094348599065" />
    <path d="M1859.8097187032558 1897.094348599065 L1096.905651400935 2373.8097187032563" />
    <path d="M1096.905651400935 2373.8097187032563 L620.1902812967439 1610.9056514009353" />
    <path d="M620.1902812967439 1610.9056514009353 L1383.094348599065 1134.1902812967442" />
    <path d="M1389.8183879743424 1153.1112660194322 L1840.8887339805678 1903.8183879743424" />
    <path d="M1840.8887339805678 1903.8183879743424 L1090.181612025658 2354.888733980568" />
    <path d="M1090.181612025658 2354.888733980568 L639.1112660194326 1604.1816120256576" />
    <path d="M639.1112660194326 1604.1816120256576 L1389.8183879743424 1153.1112660194322" />
    <path d="M1395.9268220121708 1172.0731779878292 L1821.9268220121708 1909.9268220121708" />
    <path d="M1821.9268220121708 1909.9268220121708 L1084.0731779878292 2335.9268220121708" />
    <path d="M1084.0731779878292 2335.9268220121708 L658.0731779878291 1598.0731779878292" />
    <path d="M658.0731779878291 1598.0731779878292 L1395.9268220121708 1172.0731779878292" />
    <path d="M1401.4203569824156 1191.060315529568 L1802.939684470432 1915.4203569824156" />
    <path d="M1802.939684470432 1915.4203569824156 L1078.579643017584 2316.939684470432" />
    <path d="M1078.579643017584 2316.939684470432 L677.0603155295677 1592.5796430175847" />
    <path d="M677.0603155295677 1592.5796430175847 L1401.4203569824156 1191.060315529568" />
    <path d="M1406.300059295375 1210.0570155996545 L1783.9429844003455 1920.300059295375" />
    <path d="M1783.9429844003455 1920.300059295375 L1073.699940704625 2297.9429844003453" />
    <path d="M1073.699940704625 2297.9429844003453 L696.0570155996545 1587.6999407046249" />
    <path d="M696.0570155996545 1587.6999407046249 L1406.300059295375 1210.0570155996545" />
    <path d="M1410.5673543423748 1229.047661560935 L1764.952338439065 1924.5673543423748" />
    <path d="M1764.952338439065 1924.5673543423748 L1069.432645657625 2278.952338439065" />
    <path d="M1069.432645657625 2278.952338439065 L715.0476615609348 1583.4326456576252" />
    <path d="M715.0476615609348 1583.4326456576252 L1410.5673543423748 1229.047661560935" />
    <path d="M1414.224025174618 1248.0166909354084 L1745.9833090645918 1928.224025174618" />
    <path d="M1745.9833090645918 1928.224025174618 L1065.7759748253825 2259.9833090645916" />
    <path d="M1065.7759748253825 2259.9833090645916 L734.0166909354086 1579.775974825382" />
    <path d="M734.0166909354086 1579.775974825382 L1414.224025174618 1248.0166909354084" />
    <path d="M1417.2722110209659 1266.9486031231015 L1727.0513968768985 1931.2722110209659" />
    <path d="M1727.0513968768985 1931.2722110209659 L1062.7277889790341 2241.0513968768983" />
    <path d="M1062.7277889790341 2241.0513968768983 L752.9486031231015 1576.7277889790341" />
    <path d="M752.9486031231015 1576.7277889790341 L1417.2722110209659 1266.9486031231015" />
    <path d="M1419.7144056453874 1285.827967085255 L1708.1720329147447 1933.7144056453874" />
    <path d="M1708.1720329147447 1933.7144056453874 L1060.2855943546122 2222.172032914745" />
    <path d="M1060.2855943546122 2222.172032914745 L771.8279670852546 1574.2855943546126" />
    <path d="M771.8279670852546 1574.2855943546126 L1419.7144056453874 1285.827967085255" />
    <path d="M1421.5534555448771 1304.6394289885748 L1689.3605710114252 1935.5534555448771" />
    <path d="M1689.3605710114252 1935.5534555448771 L1058.4465444551229 2203.3605710114252" />
    <path d="M1058.4465444551229 2203.3605710114252 L790.6394289885748 1572.4465444551229" />
    <path d="M790.6394289885748 1572.4465444551229 L1421.5534555448771 1304.6394289885748" />
    <path d="M1422.7925579887096 1323.367719807323 L1670.632280192677 1936.7925579887096" />
    <path d="M1670.632280192677 1936.7925579887096 L1057.2074420112901 2184.632280192677" />
    <path d="M1057.2074420112901 2184.632280192677 L809.3677198073228 1571.2074420112906" />
    <path d="M809.3677198073228 1571.2074420112906 L1422.7925579887096 1323.367719807323" />
    <path d="M1423.4352588999614 1341.997662880046 L1652.002337119954 1937.4352588999614" />
    <path d="M1652.002337119954 1937.4352588999614 L1056.564741100039 2166.002337119954" />
    <path d="M1056.564741100039 2166.002337119954 L827.9976628800464 1570.5647411000386" />
    <path d="M827.9976628800464 1570.5647411000386 L1423.4352588999614 1341.997662880046" />
    <path d="M1423.4854505802937 1360.514181417746 L1633.485818582254 1937.4854505802937" />
    <path d="M1633.485818582254 1937.4854505802937 L1056.5145494197063 2147.485818582254" />
    <path d="M1056.5145494197063 2147.485818582254 L846.5141814177458 1570.5145494197063" />
    <path d="M846.5141814177458 1570.5145494197063 L1423.4854505802937 1360.514181417746" />
    <path d="M1422.9473692790514 1378.9023059603346 L1615.0976940396652 1936.9473692790514" />
    <path d="M1615.0976940396652 1936.9473692790514 L1057.0526307209482 2129.0976940396654" />
    <path d="M1057.0526307209482 2129.0976940396654 L864.9023059603344 1571.0526307209486" />
    <path d="M864.9023059603344 1571.0526307209486 L1422.9473692790514 1378.9023059603346" />
    <path d="M1421.8255926078023 1397.1471817782276 L1596.8528182217724 1935.8255926078023" />
    <path d="M1596.8528182217724 1935.8255926078023 L1058.1744073921975 2110.8528182217724" />
    <path d="M1058.1744073921975 2110.8528182217724 L883.1471817782274 1572.1744073921977" />
    <path d="M883.1471817782274 1572.1744073921977 L1421.8255926078023 1397.1471817782276" />
    <path d="M1420.125036801493 1415.2340762159502 L1578.7659237840498 1934.125036801493" />
    <path d="M1578.7659237840498 1934.125036801493 L1059.874963198507 2092.76592378405" />
    <path d="M1059.874963198507 2092.76592378405 L901.23407621595 1573.874963198507" />
    <path d="M901.23407621595 1573.874963198507 L1420.125036801493 1415.2340762159502" />
    <path d="M1417.8509538274704 1433.1483859746704 L1560.8516140253296 1931.8509538274704" />
    <path d="M1560.8516140253296 1931.8509538274704 L1062.1490461725298 2074.8516140253296" />
    <path d="M1062.1490461725298 2074.8516140253296 L919.1483859746706 1576.1490461725296" />
    <path d="M919.1483859746706 1576.1490461725296 L1417.8509538274704 1433.1483859746704" />
    <path d="M1415.0089283436705 1450.8756443305817 L1543.1243556694183 1929.0089283436705" />
    <path d="M1543.1243556694183 1929.0089283436705 L1064.9910716563295 2057.124355669418" />
    <path d="M1064.9910716563295 2057.124355669418 L936.8756443305817 1578.9910716563295" />
    <path d="M936.8756443305817 1578.9910716563295 L1415.0089283436705 1450.8756443305817" />
    <path d="M1411.604874507343 1468.4015282860935 L1525.5984717139063 1925.604874507343" />
    <path d="M1525.5984717139063 1925.604874507343 L1068.3951254926567 2039.5984717139063" />
    <path d="M1068.3951254926567 2039.5984717139063 L954.4015282860934 1582.395125492657" />
    <path d="M954.4015282860934 1582.395125492657 L1411.604874507343 1468.4015282860935" />
    <path d="M1407.6450326357344 1485.7118656508205 L1508.2881343491795 1921.6450326357344" />
    <path d="M1508.2881343491795 1921.6450326357344 L1072.3549673642653 2022.2881343491795" />
    <path d="M1072.3549673642653 2022.2881343491795 L971.7118656508203 1586.3549673642656" />
    <path d="M971.7118656508203 1586.3549673642656 L1407.6450326357344 1485.7118656508205" />
    <path d="M1403.1359657202186 1502.7926420493786 L1491.2073579506214 1917.1359657202186" />
    <path d="M1491.2073579506214 1917.1359657202186 L1076.8640342797814 2005.2073579506214" />
    <path d="M1076.8640342797814 2005.2073579506214 L988.7926420493786 1590.8640342797814" />
    <path d="M988.7926420493786 1590.8640342797814 L1403.1359657202186 1502.7926420493786" />
    <path d="M1398.0845557954167 1519.6300078530405 L1474.3699921469595 1912.0845557954167" />
    <path d="M1474.3699921469595 1912.0845557954167 L1081.9154442045833 1988.3699921469595" />
    <path d="M1081.9154442045833 1988.3699921469595 L1005.6300078530405 1595.9154442045833" />
    <path d="M1005.6300078530405 1595.9154442045833 L1398.0845557954167 1519.6300078530405" />
    <path d="M1392.4980001649121 1536.210285032322 L1457.789714967678 1906.4980001649121" />
    <path d="M1457.789714967678 1906.4980001649121 L1087.5019998350879 1971.789714967678" />
    <path d="M1087.5019998350879 1971.789714967678 L1022.210285032322 1601.5019998350879" />
    <path d="M1022.210285032322 1601.5019998350879 L1392.4980001649121 1536.210285032322" />
    <path d="M1386.383807485219 1552.5199739276118 L1441.4800260723882 1900.383807485219" />
    <path d="M1441.4800260723882 1900.383807485219 L1093.616192514781 1955.4800260723882" />
    <path d="M1093.616192514781 1955.4800260723882 L1038.5199739276118 1607.616192514781" />
    <path d="M1038.5199739276118 1607.616192514781 L1386.383807485219 1552.5199739276118" />
    <path d="M1379.749793709723 1568.5457599349916 L1425.4542400650084 1893.749793709723" />
    <path d="M1425.4542400650084 1893.749793709723 L1100.250206290277 1939.4542400650084" />
    <path d="M1100.250206290277 1939.4542400650084 L1054.5457599349916 1614.250206290277" />
    <path d="M1054.5457599349916 1614.250206290277 L1379.749793709723 1568.5457599349916" />
    <path d="M1372.6040778943693 1584.2745201044227 L1409.7254798955773 1886.6040778943693" />
    <path d="M1409.7254798955773 1886.6040778943693 L1107.3959221056307 1923.7254798955773" />
    <path d="M1107.3959221056307 1923.7254798955773 L1070.2745201044227 1621.3959221056307" />
    <path d="M1070.2745201044227 1621.3959221056307 L1372.6040778943693 1584.2745201044227" />
    <path d="M1364.9550778669272 1599.6933296475158 L1394.3066703524842 1878.9550778669272" />
    <path d="M1394.3066703524842 1878.9550778669272 L1115.0449221330728 1908.3066703524842" />
    <path d="M1115.0449221330728 1908.3066703524842 L1085.6933296475158 1629.0449221330728" />
    <path d="M1085.6933296475158 1629.0449221330728 L1364.9550778669272 1599.6933296475158" />
    <path d="M1356.8115057617151 1614.7894683521367 L1379.2105316478633 1870.8115057617151" />
    <path d="M1379.2105316478633 1870.8115057617151 L1123.1884942382849 1893.2105316478633" />
    <path d="M1123.1884942382849 1893.2105316478633 L1100.7894683521367 1637.1884942382849" />
    <path d="M1100.7894683521367 1637.1884942382849 L1356.8115057617151 1614.7894683521367" />
    <path d="M1348.1823634217303 1629.5504269011396 L1364.4495730988604 1862.1823634217303" />
    <path d="M1364.4495730988604 1862.1823634217303 L1131.8176365782697 1878.4495730988604" />
    <path d="M1131.8176365782697 1878.4495730988604 L1115.5504269011396 1645.8176365782697" />
    <path d="M1115.5504269011396 1645.8176365782697 L1348.1823634217303 1629.5504269011396" />
    <path d="M1339.0769376701678 1643.9639130925598 L1350.0360869074402 1853.0769376701678" />
    <path d="M1350.0360869074402 1853.0769376701678 L1140.9230623298322 1864.0360869074402" />
    <path d="M1140.9230623298322 1864.0360869074402 L1129.9639130925598 1654.9230623298322" />
    <path d="M1129.9639130925598 1654.9230623298322 L1339.0769376701678 1643.9639130925598" />
    <path d="M1329.50479545338 1658.017857958636 L1335.982142041364 1843.50479545338" />
    <path d="M1335.982142041364 1843.50479545338 L1150.49520454662 1849.982142041364" />
    <path d="M1150.49520454662 1849.982142041364 L1144.017857958636 1664.49520454662" />
    <path d="M1144.017857958636 1664.49520454662 L1329.50479545338 1658.017857958636" />
    <path d="M1319.4757788573756 1671.7004217810718 L1322.2995782189282 1833.4757788573756" />
    <path d="M1322.2995782189282 1833.4757788573756 L1160.5242211426244 1836.2995782189282" />
    <path d="M1160.5242211426244 1836.2995782189282 L1157.7004217810718 1674.5242211426244" />
    <path d="M1157.7004217810718 1674.5242211426244 L1319.4757788573756 1671.7004217810718" />
    <path d="M1309 1685 L1309 1823" />
    <path d="M1309 1823 L1171 1823" />
    <path d="M1171 1823 L1171 1685" />
    <path d="M1171 1685 L1309 1685" />
    <path d="M1298.0878358009988 1697.905229014139 L1296.094770985861 1812.0878358009988" />
    <path d="M1296.094770985861 1812.0878358009988 L1181.9121641990012 1810.094770985861" />
    <path d="M1181.9121641990012 1810.094770985861 L1183.905229014139 1695.9121641990012" />
    <path d="M1183.905229014139 1695.9121641990012 L1298.0878358009988 1697.905229014139" />
    <path d="M1286.749922632216 1710.4049918696899 L1283.5950081303101 1800.749922632216" />
    <path d="M1283.5950081303101 1800.749922632216 L1193.250077367784 1797.5950081303101" />
    <path d="M1193.250077367784 1797.5950081303101 L1196.4049918696899 1707.250077367784" />
    <path d="M1196.4049918696899 1707.250077367784 L1286.749922632216 1710.4049918696899" />
    <path d="M1274.9971508502174 1722.4884238355628 L1271.5115761644372 1788.9971508502174" />
    <path d="M1271.5115761644372 1788.9971508502174 L1205.0028491497826 1785.5115761644372" />
    <path d="M1205.0028491497826 1785.5115761644372 L1208.4884238355628 1719.0028491497826" />
    <path d="M1208.4884238355628 1719.0028491497826 L1274.9971508502174 1722.4884238355628" />
    <path d="M1262.8406592136844 1734.1449178625642 L1259.8550821374358 1776.8406592136844" />
    <path d="M1259.8550821374358 1776.8406592136844 L1217.1593407863156 1773.8550821374358" />
    <path d="M1217.1593407863156 1773.8550821374358 L1220.1449178625642 1731.1593407863156" />
    <path d="M1220.1449178625642 1731.1593407863156 L1262.8406592136844 1734.1449178625642" />
    <path d="M1250.2918291879744 1745.364129924231 L1248.635870075769 1764.2918291879744" />
    <path d="M1248.635870075769 1764.2918291879744 L1229.7081708120256 1762.635870075769" />
    <path d="M1229.7081708120256 1762.635870075769 L1231.364129924231 1743.7081708120256" />
    <path d="M1231.364129924231 1743.7081708120256 L1250.2918291879744 1745.364129924231" />
    <path d="M1237.3622791392736 1756.1359842370416 L1237.8640157629584 1751.3622791392736" />
    <path d="M1237.8640157629584 1751.3622791392736 L1242.6377208607264 1751.8640157629584" />
    <path d="M1242.6377208607264 1751.8640157629584 L1242.1359842370416 1756.6377208607264" />
    <path d="M1242.1359842370416 1756.6377208607264 L1237.3622791392736 1756.1359842370416" />
    <path d="M1224.0638584208355 1766.4506783577772 L1227.5493216422228 1738.0638584208355" />
    <path d="M1227.5493216422228 1738.0638584208355 L1255.9361415791645 1741.5493216422228" />
    <path d="M1255.9361415791645 1741.5493216422228 L1252.4506783577772 1769.9361415791645" />
    <path d="M1252.4506783577772 1769.9361415791645 L1224.0638584208355 1766.4506783577772" />
    <path d="M1210.408641353817 1776.2986881558754 L1217.7013118441246 1724.408641353817" />
    <path d="M1217.7013118441246 1724.408641353817 L1269.591358646183 1731.7013118441246" />
    <path d="M1269.591358646183 1731.7013118441246 L1262.2986881558754 1783.591358646183" />
    <path d="M1262.2986881558754 1783.591358646183 L1210.408641353817 1776.2986881558754" />
    <path d="M1196.4089211052924 1785.6707726586421 L1208.3292273413579 1710.4089211052924" />
    <path d="M1208.3292273413579 1710.4089211052924 L1283.5910788947076 1722.3292273413579" />
    <path d="M1283.5910788947076 1722.3292273413579 L1271.6707726586421 1797.5910788947076" />
    <path d="M1271.6707726586421 1797.5910788947076 L1196.4089211052924 1785.6707726586421" />
  </g>
</svg>