<?xml version="1.0" standalone="no"?>
<!DOCTYPE svg PUBLIC "-//W3C//DTD SVG 1.1//EN" 
    "http://www.w3.org/Graphics/SVG/1.1/DTD/svg11.dtd">
<svg width="2480px" height="3508px"
    xmlns="http://www.w3.org/2000/svg" version="1.1" viewBox="0 0 2480 3508">
  <g fill="none" stroke="black" stroke-width="1.06299px">
    <path d="M206.66666666666663 206.66666666666663 L1446.6666666666665 549.3333333333333" />
    <path d="M1446.6666666666665 549.3333333333333 L1446.6666666666665 1789.3333333333333" />
    <path d="M1446.6666666666665 1789.3333333333333 L2066.6666666666665 2409.333333333333" />
    <path d="M2066.6666666666665 2409.333333333333 L206.66666666666663 206.66666666666663" />
    <path d="M224.16763008332396 211.90516960828313 L1461.438115524998 564.3001047298997" />
    <path d="M1461.438115524998 564.3001047298997 L1451.699278422996 1804.261860209439" />
    <path d="M1451.699278422996 1804.261860209439 L2066.8107376117646 2429.1121565002095" />
    <path d="M2066.8107376117646 2429.1121565002095 L224.16763008332396 211.90516960828313" />
    <path d="M241.54745163027985 217.35857072686213 L1476.0121018420218 579.4600369239021" />
    <path d="M1476.0121018420218 579.4600369239021 L1456.5350283753642 1819.307061201161" />
    <path d="M1456.5350283753642 1819.307061201161 L2066.720003780665 2448.9691100731197" />
    <path d="M2066.720003780665 2448.9691100731197 L241.54745163027985 217.35857072686213" />
    <path d="M258.80384017285996 223.02528549818146 L1490.3865075601968 594.8109466465595" />
    <path d="M1490.3865075601968 594.8109466465595 L1461.1723991665203 1834.4667601168803" />
    <path d="M1461.1723991665203 1834.4667601168803 L2066.3932517048424 2468.9017210488787" />
    <path d="M2066.3932517048424 2468.9017210488787 L258.80384017285996 223.02528549818146" />
    <path d="M275.9345220306286 228.90370670390382 L1504.5592367733639 610.3506293127735" />
    <path d="M1504.5592367733639 610.3506293127735 L1465.6098955164848 1849.7387641662808" />
    <path d="M1465.6098955164848 1849.7387641662808 L2065.8292923147987 2488.907502221474" />
    <path d="M2065.8292923147987 2488.907502221474 L275.9345220306286 228.90370670390382" />
    <path d="M292.9372411922312 234.9922046082977 L1518.52821593062 626.0768592346972" />
    <path d="M1518.52821593062 626.0768592346972 L1469.846044389375 1865.1208641731937" />
    <path d="M1469.846044389375 1865.1208641731937 L2065.026961088001 2508.983952413064" />
    <path d="M2065.026961088001 2508.983952413064 L292.9372411922312 234.9922046082977" />
    <path d="M309.8097595285343 241.2891271369284 L1532.291394038206 641.9873898371872" />
    <path d="M1532.291394038206 641.9873898371872 L1473.879395158249 1880.61083479003" />
    <path d="M1473.879395158249 1880.61083479003 L2063.9851181946924 2529.1285567064297" />
    <path d="M2063.9851181946924 2529.1285567064297 L309.8097595285343 241.2891271369284" />
    <path d="M326.54985700404734 247.792800057308 L1545.8467428593829 658.079953875125" />
    <path d="M1545.8467428593829 658.079953875125 L1477.7085197679503 1896.206434713792" />
    <path d="M1477.7085197679503 1896.206434713792 L2062.702648641567 2549.3387866788416" />
    <path d="M2062.702648641567 2549.3387866788416 L326.54985700404734 247.792800057308" />
    <path d="M343.15533188660726 254.50152716148295 L1559.192257112286 674.352263652586" />
    <path d="M1559.192257112286 674.352263652586 L1481.3320128959372 1911.9054069036429" />
    <path d="M1481.3320128959372 1911.9054069036429 L2061.1784624132915 2569.612100637345" />
    <path d="M2061.1784624132915 2569.612100637345 L343.15533188660726 254.50152716148295" />
    <path d="M359.62400095530825 261.4135904505499 L1572.3259546657364 690.8020112438385" />
    <path d="M1572.3259546657364 690.8020112438385 L1484.74849211109 1927.7054788000132" />
    <path d="M1484.74849211109 1927.7054788000132 L2059.4114946118543 2589.945943855424" />
    <path d="M2059.4114946118543 2589.945943855424 L359.62400095530825 261.4135904505499" />
    <path d="M375.953699706661 268.5272503210756 L1585.245876732998 707.426868716155" />
    <path d="M1585.245876732998 707.426868716155 L1487.9565980304703 1943.6043625452337" />
    <path d="M1487.9565980304703 1943.6043625452337 L2057.400705593746 2610.337748811037" />
    <path d="M2057.400705593746 2610.337748811037 L375.953699706661 268.5272503210756" />
    <path d="M392.14228255896256 275.84074575341117 L1597.9500880634546 724.2244883544172" />
    <path d="M1597.9500880634546 724.2244883544172 L1490.9549944740295 1959.5997552056645" />
    <path d="M1490.9549944740295 1959.5997552056645 L2055.145081104941 2630.7849354260006" />
    <path d="M2055.145081104941 2630.7849354260006 L392.14228255896256 275.84074575341117" />
    <path d="M408.1876230548614 283.3522945018807 L1610.436677132203 741.1925028874939" />
    <path d="M1610.436677132203 741.1925028874939 L1493.7423686172451 1975.689338995313" />
    <path d="M1493.7423686172451 1975.689338995313 L2052.6436324136757 2651.2849113067014" />
    <path d="M2052.6436324136757 2651.2849113067014 L408.1876230548614 283.3522945018807" />
    <path d="M424.08761406209896 291.06009328682785 L1622.7037563275358 758.3285257163748" />
    <path d="M1622.7037563275358 758.3285257163748 L1496.3174311416738 1991.8707815009157" />
    <path d="M1496.3174311416738 1991.8707815009157 L2049.8953964410134 2671.835071986117" />
    <path d="M2049.8953964410134 2671.835071986117 L424.08761406209896 291.06009328682785" />
    <path d="M439.8401679724136 298.96231798850374 L1634.7494621363048 775.6301511440414" />
    <path d="M1634.7494621363048 775.6301511440414 L1498.6789163834087 2008.1417359084642" />
    <path d="M1498.6789163834087 2008.1417359084642 L2046.8994358891723 2692.432801167123" />
    <path d="M2046.8994358891723 2692.432801167123 L439.8401679724136 298.96231798850374" />
    <path d="M455.44321689858737 307.05712384277945 L1646.5719553271433 793.0949546070528" />
    <path d="M1646.5719553271433 793.0949546070528 L1500.8255824794246 2024.4998412311616" />
    <path d="M1500.8255824794246 2024.4998412311616 L2043.6548393676198 2713.0754709670746" />
    <path d="M2043.6548393676198 2713.0754709670746 L455.44321689858737 307.05712384277945" />
    <path d="M470.8947128696217 315.3426456386658 L1658.1694211315391 810.7204929088307" />
    <path d="M1658.1694211315391 810.7204929088307 L1502.756211511802 2040.9427225387833" />
    <path d="M1502.756211511802 2040.9427225387833 L2040.1607215169097 2733.760442163628" />
    <path d="M2040.1607215169097 2733.760442163628 L470.8947128696217 315.3426456386658" />
    <path d="M486.1926280240251 323.8169979176221 L1669.540069422735 828.504304454621" />
    <path d="M1669.540069422735 828.504304454621 L1504.4696096498103 2057.4679911884296" />
    <path d="M1504.4696096498103 2057.4679911884296 L2036.4162231302525 2754.4850644417966" />
    <path d="M2036.4162231302525 2754.4850644417966 L486.1926280240251 323.8169979176221" />
    <path d="M501.334954801196 332.47827517463793 L1680.682134892449 846.4439094881141" />
    <path d="M1680.682134892449 846.4439094881141 L1505.9646072898463 2074.073245056645" />
    <path d="M1505.9646072898463 2074.073245056645 L2032.420511272811 2775.246676642212" />
    <path d="M2032.420511272811 2775.246676642212 L501.334954801196 332.47827517463793" />
    <path d="M516.3197061308855 341.3245520610692 L1691.5938772253921 864.5368103297039" />
    <path d="M1691.5938772253921 864.5368103297039 L1507.2400591932076 2090.7560687728896" />
    <path d="M1507.2400591932076 2090.7560687728896 L2028.1727793987084 2796.0426070105746" />
    <path d="M2028.1727793987084 2796.0426070105746 L516.3197061308855 341.3245520610692" />
    <path d="M531.1449156207249 350.35388358921125 L1702.2735812715764 882.7804916163648" />
    <path d="M1702.2735812715764 882.7804916163648 L1508.2948446216901 2107.5140339543354" />
    <path d="M1508.2948446216901 2107.5140339543354 L2023.6722474657327 2816.870173448264" />
    <path d="M2023.6722474657327 2816.870173448264 L531.1449156207249 350.35388358921125" />
    <path d="M545.808637741801 359.56430533859066 L1712.7195572163914 901.1724205431263" />
    <path d="M1712.7195572163914 901.1724205431263 L1509.1278674710015 2124.344699441981" />
    <path d="M1509.1278674710015 2124.344699441981 L2018.9181620477339 2837.7266837641027" />
    <path d="M2018.9181620477339 2837.7266837641027 L545.808637741801 359.56430533859066" />
    <path d="M560.3089480122652 368.9538336639573 L1722.9301407484404 919.7100471061277" />
    <path d="M1722.9301407484404 919.7100471061277 L1509.7380564019725 2141.2456115380473" />
    <path d="M1509.7380564019725 2141.2456115380473 L2013.9097964446987 2858.609435927241" />
    <path d="M2013.9097964446987 2858.609435927241 L560.3089480122652 368.9538336639573" />
    <path d="M574.64394317896 378.5204659049616 L1732.903693225117 938.3908043472279" />
    <path d="M1732.903693225117 938.3908043472279 L1510.1243649695584 2158.2143042446523" />
    <path d="M1510.1243649695584 2158.2143042446523 L2008.6464507904916 2879.515718321144" />
    <path d="M2008.6464507904916 2879.515718321144 L574.64394317896 378.5204659049616" />
    <path d="M588.8117413970485 388.26218059749215 L1742.6386018359142 957.2121086001547" />
    <path d="M1742.6386018359142 957.2121086001547 L1510.2857717496156 2175.248299503729" />
    <path d="M1510.2857717496156 2175.248299503729 L2003.1274521582536 2900.4428099986644" />
    <path d="M2003.1274521582536 2900.4428099986644 L588.8117413970485 388.26218059749215" />
    <path d="M602.8104824076321 398.17693768666356 L1752.1332797634445 976.1713597381696" />
    <path d="M1752.1332797634445 976.1713597381696 L1510.2212804634455 2192.3451074381755" />
    <path d="M1510.2212804634455 2192.3451074381755 L1997.3521546634488 2921.3879809381774" />
    <path d="M1997.3521546634488 2921.3879809381774 L602.8104824076321 398.17693768666356" />
    <path d="M616.6383277133403 408.2626787414281 L1761.3861663421649 995.2659414232285" />
    <path d="M1761.3861663421649 995.2659414232285 L1509.9299201000895 2209.502226594218" />
    <path d="M1509.9299201000895 2209.502226594218 L1991.3199395645465 2942.3484923007504" />
    <path d="M1991.3199395645465 2942.3484923007504 L616.6383277133403 408.2626787414281" />
    <path d="M630.293460751881 418.5173271707979 L1770.3957272147873 1014.4932213566185" />
    <path d="M1770.3957272147873 1014.4932213566185 L1509.410745036368 2226.7171441849587" />
    <path d="M1509.410745036368 2226.7171441849587 L1985.0302153613288 2963.3215966883386" />
    <path d="M1985.0302153613288 2963.3215966883386 L630.293460751881 418.5173271707979" />
    <path d="M643.7740870675322 428.93878844165715 L1779.1604544863635 1033.8505515310474" />
    <path d="M1779.1604544863635 1033.8505515310474 L1508.662835154651 2243.987336335094" />
    <path d="M1508.662835154651 2243.987336335094 L1978.482417890818 2984.304538402974" />
    <path d="M1978.482417890818 2984.304538402974 L643.7740870675322 428.93878844165715" />
    <path d="M657.0784344805668 439.52495029814384 L1787.6788668760337 1053.3352684841673" />
    <path d="M1787.6788668760337 1053.3352684841673 L1507.685295958345 2261.3102683267803" />
    <path d="M1507.685295958345 2261.3102683267803 L1971.6760104208074 3005.2945537069313" />
    <path d="M1971.6760104208074 3005.2945537069313 L657.0784344805668 439.52495029814384" />
    <path d="M670.2047532545901 450.2736829825832 L1795.9495098664188 1072.9446935535098" />
    <path d="M1795.9495098664188 1072.9446935535098 L1506.4772586850959 2278.6833948466283" />
    <path d="M1506.4772586850959 2278.6833948466283 L1964.6104837409944 3026.288871083849" />
    <path d="M1964.6104837409944 3026.288871083849 L670.2047532545901 450.2736829825832" />
    <path d="M683.1513162617816 461.1828394579559 L1803.970955850653 1092.676133132811" />
    <path d="M1803.970955850653 1092.676133132811 L1505.0378804176853 2296.1041602338037" />
    <path d="M1505.0378804176853 2296.1041602338037 L1957.2853562516975 3047.2847115007835" />
    <path d="M1957.2853562516975 3047.2847115007835 L683.1513162617816 461.1828394579559" />
    <path d="M695.916419146024 472.2502556318766 L1811.7418042770362 1112.5268789297074" />
    <path d="M1811.7418042770362 1112.5268789297074 L1503.3663441926165 2313.56999872921" />
    <path d="M1503.3663441926165 2313.56999872921 L1949.7001740501578 3068.2792886711713" />
    <path d="M1949.7001740501578 3068.2792886711713 L695.916419146024 472.2502556318766" />
    <path d="M708.498380483906 483.4737505820676 L1819.2606817912974 1132.494208224777" />
    <path d="M1819.2606817912974 1132.494208224777 L1501.4618591063818 2331.078334725742" />
    <path d="M1501.4618591063818 2331.078334725742 L1941.8545110144064 3089.269809318682" />
    <path d="M1941.8545110144064 3089.269809318682 L708.498380483906 483.4737505820676" />
    <path d="M720.8955419435887 494.85112678330654 L1826.526242376457 1152.5753841319079" />
    <path d="M1826.526242376457 1152.5753841319079 L1499.3236604193949 2348.626583019577" />
    <path d="M1499.3236604193949 2348.626583019577 L1933.7479688846984 3110.2534734419432" />
    <path d="M1933.7479688846984 3110.2534734419432 L720.8955419435887 494.85112678330654" />
    <path d="M733.1062684415174 506.38017033582867 L1833.5371674902744 1172.7676558599705" />
    <path d="M1833.5371674902744 1172.7676558599705 L1496.9510096575823 2366.212149062493" />
    <path d="M1496.9510096575823 2366.212149062493 L1925.380177342498 3131.2274745801005" />
    <path d="M1925.380177342498 3131.2274745801005 L733.1062684415174 506.38017033582867" />
    <path d="M745.1289482969703 518.0586511951626 L1840.2921662002705 1193.0682589757728" />
    <path d="M1840.2921662002705 1193.0682589757728 L1494.343194711626 2383.832429215182" />
    <path d="M1494.343194711626 2383.832429215182 L1916.7507940870087 3152.189000079209" />
    <path d="M1916.7507940870087 3152.189000079209 L745.1289482969703 518.0586511951626" />
    <path d="M756.9619933844285 529.8843234033825 L1846.7899753163122 1213.4744156682737" />
    <path d="M1846.7899753163122 1213.4744156682737 L1491.4995299338425 2401.484811001549" />
    <path d="M1491.4995299338425 2401.484811001549 L1907.8595049092455 3173.1352313594225" />
    <path d="M1907.8595049092455 3173.1352313594225 L756.9619933844285 529.8843234033825" />
    <path d="M768.6038392837565 541.8549253217533 L1853.0293595207495 1233.983335014038" />
    <path d="M1853.0293595207495 1233.983335014038 L1488.4193562326927 2419.1666733639668" />
    <path d="M1488.4193562326927 2419.1666733639668 L1898.7060237636292 3194.0633441829605" />
    <path d="M1898.7060237636292 3194.0633441829605 L768.6038392837565 541.8549253217533" />
    <path d="M780.0529454281775 553.9681798647513 L1859.009111496092 1254.5922132439036" />
    <path d="M1859.009111496092 1254.5922132439036 L1485.102041164917 2436.875386919465" />
    <path d="M1485.102041164917 2436.875386919465 L1889.2900928371105 3214.970508922833" />
    <path d="M1889.2900928371105 3214.970508922833 L780.0529454281775 553.9681798647513" />
    <path d="M791.3077952500366 566.2217947354385 L1864.7280520502113 1275.2982340108458" />
    <path d="M1864.7280520502113 1275.2982340108458 L1481.5469790252769 2454.608314216836" />
    <path d="M1481.5469790252769 2454.608314216836 L1879.6114826158046 3235.853890832299" />
    <path d="M1879.6114826158046 3235.853890832299 L791.3077952500366 566.2217947354385" />
    <path d="M802.366896324334 578.6134626621713 L1870.1850302390694 1296.098568659011" />
    <path d="M1870.1850302390694 1296.098568659011 L1477.7535909339026 2472.3628099946363" />
    <path d="M1477.7535909339026 2472.3628099946363 L1869.669991949132 3256.7106503150326" />
    <path d="M1869.669991949132 3256.7106503150326 L802.366896324334 578.6134626621713" />
    <path d="M813.22878051002 591.1408616366223 L1875.3789234869437 1316.9903764938995" />
    <path d="M1875.3789234869437 1316.9903764938995 L1473.7213249212386 2490.136221440055" />
    <path d="M1473.7213249212386 2490.136221440055 L1859.465448111464 3277.5379431959864" />
    <path d="M1859.465448111464 3277.5379431959864 L813.22878051002 591.1408616366223" />
    <path d="M823.8920040890393 603.8016551530936 L1880.3086377041586 1337.970805053676" />
    <path d="M1880.3086377041586 1337.970805053676 L1469.4496560105704 2507.925888448636" />
    <path d="M1469.4496560105704 2507.925888448636 L1848.9977068612566 3298.3329209929097" />
    <path d="M1848.9977068612566 3298.3329209929097 L823.8920040890393 603.8016551530936" />
    <path d="M834.3551479031116 616.5934924491057 L1884.973107402298 1359.0369903815815" />
    <path d="M1884.973107402298 1359.0369903815815 L1464.938086298137 2525.729143884821" />
    <path d="M1464.938086298137 2525.729143884821 L1838.2666524976758 3319.0927311885216" />
    <path d="M1838.2666524976758 3319.0927311885216 L834.3551479031116 616.5934924491057" />
    <path d="M844.616817488239 629.5140087472327 L1889.3712958068986 1380.1860572994283" />
    <path d="M1889.3712958068986 1380.1860572994283 L1460.1861450308074 2543.543313843308" />
    <path d="M1460.1861450308074 2543.543313843308 L1827.2721979147018 3339.814517503294" />
    <path d="M1827.2721979147018 3339.814517503294 L844.616817488239 629.5140087472327" />
    <path d="M854.6756432069278 642.5608254981722 L1893.5021949676043 1401.4151196821522" />
    <path d="M1893.5021949676043 1401.4151196821522 L1455.1933886813256 2561.3657179111874" />
    <path d="M1455.1933886813256 2561.3657179111874 L1816.014284652704 3360.4954201688442" />
    <path d="M1816.014284652704 3360.4954201688442 L854.6756432069278 642.5608254981722" />
    <path d="M864.530280378114 655.7315506250227 L1897.3648258657854 1422.7212807333985" />
    <path d="M1897.3648258657854 1422.7212807333985 L1449.95940102111 2579.193669430835" />
    <path d="M1449.95940102111 2579.193669430835 L1804.4928829474902 3381.1325762018914" />
    <path d="M1804.4928829474902 3381.1325762018914 L864.530280378114 655.7315506250227" />
    <path d="M874.1794094047826 669.023778768749 L1900.9582385195981 1444.1016332621239" />
    <path d="M1900.9582385195981 1444.1016332621239 L1444.4837931905975 2597.0244757635555" />
    <path d="M1444.4837931905975 2597.0244757635555 L1792.7079917768128 3401.7231196787716" />
    <path d="M1792.7079917768128 3401.7231196787716 L874.1794094047826 669.023778768749" />
    <path d="M883.6217358992681 682.4350915348161 L1904.2815120864875 1465.5532599601818" />
    <path d="M1904.2815120864875 1465.5532599601818 L1438.7662037671366 2614.855438553931" />
    <path d="M1438.7662037671366 2614.855438553931 L1780.6596389043361 3422.264182010482" />
    <path d="M1780.6596389043361 3422.264182010482 L883.6217358992681 682.4350915348161" />
  </g>
</svg>