<?xml version="1.0" standalone="no"?>
<!DOCTYPE svg PUBLIC "-//W3C//DTD SVG 1.1//EN" 
    "http://www.w3.org/Graphics/SVG/1.1/DTD/svg11.dtd">
<svg width="2480px" height="3508px"
    xmlns="http://www.w3.org/2000/svg" version="1.1" viewBox="0 0 2480 3508">
  <g fill="none" stroke="black" stroke-width="1.06299px">
    <path d="M206.66666666666663 206.66666666666663 L1446.6666666666665 549.3333333333333" />
    <path d="M1446.6666666666665 549.3333333333333 L1446.6666666666665 1789.3333333333333" />
    <path d="M1446.6666666666665 1789.3333333333333 L206.66666666666663 1789.3333333333333" />
    <path d="M206.66666666666663 1789.3333333333333 L206.66666666666663 206.66666666666663" />
    <path d="M220.82925273895387 214.0141167030181 L1459.3222881844247 562.0880249430757" />
    <path d="M1459.3222881844247 562.0880249430757 L1453.9117846713389 1802.0762210367864" />
    <path d="M1453.9117846713389 1802.0762210367864 L213.92358857762827 1796.6657175237006" />
    <path d="M213.92358857762827 1796.6657175237006 L220.82925273895387 214.0141167030181" />
    <path d="M234.91572695796435 221.46663922581683 L1471.8782187267605 574.9411622137898" />
    <path d="M1471.8782187267605 574.9411622137898 L1461.0573147087769 1814.8939468133622" />
    <path d="M1461.0573147087769 1814.8939468133622 L221.10453010920457 1804.0730427953786" />
    <path d="M221.10453010920457 1804.0730427953786 L234.91572695796435 221.46663922581683" />
    <path d="M248.9254428675431 229.02370909554952 L1484.3338409768644 587.892117186043" />
    <path d="M1484.3338409768644 587.892117186043 L1468.102742468397 1827.7858833778118" />
    <path d="M1468.102742468397 1827.7858833778118 L228.20897627662862 1811.5547848693445" />
    <path d="M228.20897627662862 1811.5547848693445 L248.9254428675431 229.02370909554952" />
    <path d="M262.85775714876 236.6847975354118 L1496.6885412035092 600.9402583912334" />
    <path d="M1496.6885412035092 600.9402583912334 L1475.0475572212777 1840.7514003851586" />
    <path d="M1475.0475572212777 1840.7514003851586 L235.2364152273526 1819.110416402927" />
    <path d="M235.2364152273526 1819.110416402927 L262.85775714876 236.6847975354118" />
    <path d="M276.71202963932785 244.4493721487031 L1508.9417092799054 614.084950870941" />
    <path d="M1508.9417092799054 614.084950870941 L1481.8912518370498 1853.7898644500283" />
    <path d="M1481.8912518370498 1853.7898644500283 L242.18633825796246 1826.7394070071725" />
    <path d="M242.18633825796246 1826.7394070071725 L276.71202963932785 244.4493721487031" />
    <path d="M290.48762335292804 252.3168969363213 L1521.0927387024544 627.3255561963749" />
    <path d="M1521.0927387024544 627.3255561963749 L1488.6333228006918 1866.900639166066" />
    <path d="M1488.6333228006918 1866.900639166066 L249.05823983100083 1834.4412232643033" />
    <path d="M249.05823983100083 1834.4412232643033 L290.48762335292804 252.3168969363213" />
    <path d="M304.18390449844287 260.28683231435855 L1533.1410266094008 640.6614324879188" />
    <path d="M1533.1410266094008 640.6614324879188 L1495.2732702292208 1880.0830851254427" />
    <path d="M1495.2732702292208 1880.0830851254427 L255.85161759169694 1842.2153287452627" />
    <path d="M255.85161759169694 1842.2153287452627 L304.18390449844287 260.28683231435855" />
    <path d="M317.8002424990958 268.35863513179424 L1545.0859737993842 654.0919344347723" />
    <path d="M1545.0859737993842 654.0919344347723 L1501.8105978882827 1893.336559938451" />
    <path d="M1501.8105978882827 1893.336559938451 L262.56597238460427 1850.0611840273496" />
    <path d="M262.56597238460427 1850.0611840273496 L317.8002424990958 268.35863513179424" />
    <path d="M331.33601001149736 276.5317586882894 L1556.9269847498863 667.6164133146888" />
    <path d="M1556.9269847498863 667.6164133146888 L1508.244813208641 1906.6604182531853" />
    <path d="M1508.244813208641 1906.6604182531853 L269.20080827014476 1857.9782467119403" />
    <path d="M269.20080827014476 1857.9782467119403 L331.33601001149736 276.5317586882894" />
    <path d="M344.79058294459713 284.80565275207596 L1568.6634676355789 681.2342170138091" />
    <path d="M1568.6634676355789 681.2342170138091 L1514.5754273025623 1920.0540117753128" />
    <path d="M1514.5754273025623 1920.0540117753128 L275.75563254105873 1865.9659714422962" />
    <path d="M275.75563254105873 1865.9659714422962 L344.79058294459713 284.80565275207596" />
    <path d="M358.16334047854104 293.1797635779466 L1580.294834346566 694.9446900465895" />
    <path d="M1580.294834346566 694.9446900465895 L1520.8019549800995 1933.5166892879283" />
    <path d="M1520.8019549800995 1933.5166892879283 L282.22995573876074 1874.0238099214619" />
    <path d="M282.22995573876074 1874.0238099214619 L358.16334047854104 293.1797635779466" />
    <path d="M371.45366508343375 301.6535339253404 L1591.820500506523 708.7471735758247" />
    <path d="M1591.820500506523 708.7471735758247 L1526.9239147652727 1947.0477966714964" />
    <path d="M1526.9239147652727 1947.0477966714964 L288.62329166960126 1882.151210930246" />
    <path d="M288.62329166960126 1882.151210930246 L371.45366508343375 301.6535339253404" />
    <path d="M384.66094253800475 310.2264030765259 L1603.239885490733 722.6410054327655" />
    <path d="M1603.239885490733 722.6410054327655 L1532.940828912145 1960.646676923878" />
    <path d="M1532.940828912145 1960.646676923878 L294.9351574210326 1890.34762034529" />
    <path d="M294.9351574210326 1890.34762034529 L384.66094253800475 310.2264030765259" />
    <path d="M397.78456194817943 318.8978068548795 L1614.5524124440167 736.6255201373283" />
    <path d="M1614.5524124440167 736.6255201373283 L1538.8522234207942 1974.3126701804433" />
    <path d="M1538.8522234207942 1974.3126701804433 L301.1650733776793 1898.6124811572208" />
    <path d="M301.1650733776793 1898.6124811572208 L397.78456194817943 318.8978068548795" />
    <path d="M410.8239157655526 327.66717764326097 L1625.7575082985586 750.7000489183997" />
    <path d="M1625.7575082985586 750.7000489183997 L1544.657628053181 1988.0451137342682" />
    <path d="M1544.657628053181 1988.0451137342682 L307.3125632373128 1906.9452334888906" />
    <path d="M307.3125632373128 1906.9452334888906 L410.8239157655526 327.66717764326097" />
    <path d="M423.7783998057654 336.53394440248337 L1636.8546037916271 764.8639197342318" />
    <path d="M1636.8546037916271 764.8639197342318 L1550.3565763489116 2001.8433420564138" />
    <path d="M1550.3565763489116 2001.8433420564138 L313.3771540267297 1915.3453146136985" />
    <path d="M313.3771540267297 1915.3453146136985 L423.7783998057654 336.53394440248337" />
    <path d="M436.64741326678455 345.49753268987797 L1647.8431334831898 779.1164572929301" />
    <path d="M1647.8431334831898 779.1164572929301 L1555.9486056408948 2015.7066868162924" />
    <path d="M1555.9486056408948 2015.7066868162924 L319.35837611753266 1923.8121589739972" />
    <path d="M319.35837611753266 1923.8121589739972 L436.64741326678455 345.49753268987797" />
    <path d="M449.43035874708363 354.5573646779534 L1658.7225357734205 793.4569830730329" />
    <path d="M1658.7225357734205 793.4569830730329 L1561.433257070893 2029.6344769021116" />
    <path d="M1561.433257070893 2029.6344769021116 L325.2557632418144 1932.345198199584" />
    <path d="M325.2557632418144 1932.345198199584 L449.43035874708363 354.5573646779534" />
    <path d="M462.1266422637258 363.71285917314833 L1669.4922529201012 807.8848153441813" />
    <path d="M1669.4922529201012 807.8848153441813 L1566.8100756049678 2043.6260384414056" />
    <path d="M1566.8100756049678 2043.6260384414056 L331.0688525077437 1940.9438611262722" />
    <path d="M331.0688525077437 1940.9438611262722 L462.1266422637258 363.71285917314833" />
    <path d="M474.73567327034743 372.96343163467895 L1680.1517310559143 822.3992691878798" />
    <path d="M1680.1517310559143 822.3992691878798 L1572.078610048818 2057.6806948216445" />
    <path d="M1572.078610048818 2057.6806948216445 L336.7971844150538 1949.6075738145482" />
    <path d="M336.7971844150538 1949.6075738145482 L474.73567327034743 372.96343163467895" />
    <path d="M487.25686467504283 382.30849419347624 L1690.7004202056307 836.9996565183459" />
    <path d="M1690.7004202056307 836.9996565183459 L1577.2384130630116 2071.797766710926" />
    <path d="M1577.2384130630116 2071.797766710926 L342.4403028704313 1958.3357595683076" />
    <path d="M342.4403028704313 1958.3357595683076 L487.25686467504283 382.30849419347624" />
    <path d="M499.68963285814806 391.74745567121886 L1701.1377743031862 851.6852861034498" />
    <path d="M1701.1377743031862 851.6852861034498 L1582.2890411781086 2085.976572078752" />
    <path d="M1582.2890411781086 2085.976572078752 L347.99775520280696 1967.1278389536737" />
    <path d="M347.99775520280696 1967.1278389536737 L499.68963285814806 391.74745567121886" />
    <path d="M512.0333976899257 401.27972159945557 L1711.4632512086514 866.4554635857426" />
    <path d="M1711.4632512086514 866.4554635857426 L1587.2300548096766 2100.216426216873" />
    <path d="M1587.2300548096766 2100.216426216873 L353.46909217854625 1975.9832298178985" />
    <path d="M353.46909217854625 1975.9832298178985 L512.0333976899257 401.27972159945557" />
    <path d="M524.287582548147 410.9046942388195 L1721.6763127250897 881.3094915035714" />
    <path d="M1721.6763127250897 881.3094915035714 L1592.0610182731994 2114.5166417602304" />
    <path d="M1592.0610182731994 2114.5166417602304 L358.8538680165408 1984.90134730834" />
    <path d="M358.8538680165408 1984.90134730834 L524.287582548147 410.9046942388195" />
    <path d="M536.4516143355752 420.62177259833334 L1731.7764246153115 896.2466693122842" />
    <path d="M1731.7764246153115 896.2466693122842 L1596.7814997988753 2128.8765287079605" />
    <path d="M1596.7814997988753 2128.8765287079605 L364.15164040319917 1993.8816038915245" />
    <path d="M364.15164040319917 1993.8816038915245 L536.4516143355752 420.62177259833334" />
    <path d="M548.5249234973443 430.43035245480473 L1741.7630566185098 911.2662934055197" />
    <path d="M1741.7630566185098 911.2662934055197 L1601.3910715463057 2143.295394444488" />
    <path d="M1601.3910715463057 2143.295394444488 L369.3619705073373 2002.9234093722835" />
    <path d="M369.3619705073373 2002.9234093722835 L548.5249234973443 430.43035245480473" />
    <path d="M560.506944038238 440.3298263723111 L1751.6356824667942 926.3676571365845" />
    <path d="M1751.6356824667942 926.3676571365845 L1605.8893096190754 2157.772543760693" />
    <path d="M1605.8893096190754 2157.772543760693 L374.48442299496696 2012.0261709129743" />
    <path d="M374.48442299496696 2012.0261709129743 L560.506944038238 440.3298263723111" />
    <path d="M572.3971135398644 450.31958372177405 L1761.3937799016064 941.5500508399165" />
    <path d="M1761.3937799016064 941.5500508399165 L1610.2757940792235 2172.3072788751556" />
    <path d="M1610.2757940792235 2172.3072788751556 L379.5185660439845 2021.1892930527727" />
    <path d="M379.5185660439845 2021.1892930527727 L572.3971135398644 450.31958372177405" />
    <path d="M584.1948731777288 460.39901070062115 L1771.036830690031 956.8127618526323" />
    <path d="M1771.036830690031 956.8127618526323 L1614.5501089616023 2186.898899455479" />
    <path d="M1614.5501089616023 2186.898899455479 L384.46397135875566 2030.4121777270498" />
    <path d="M384.46397135875566 2030.4121777270498 L584.1948731777288 460.39901070062115" />
    <path d="M595.8996677382015 470.56749035253847 L1780.5643206409886 972.1550745361614" />
    <path d="M1780.5643206409886 972.1550745361614 L1618.7118422881244 2201.546702639686" />
    <path d="M1618.7118422881244 2201.546702639686 L389.3202141845999 2039.6942242868222" />
    <path d="M389.3202141845999 2039.6942242868222 L595.8996677382015 470.56749035253847" />
    <path d="M607.510945635383 480.8244025873074 L1789.975739621321 987.5762702979621" />
    <path d="M1789.975739621321 987.5762702979621 L1622.7605860819044 2216.2499830576958" />
    <path d="M1622.7605860819044 2216.2499830576958 L394.0868733221708 2049.0348295182794" />
    <path d="M394.0868733221708 2049.0348295182794 L607.510945635383 480.8244025873074" />
    <path d="M619.0281589278643 491.1691242007312 L1799.2705815717622 1003.0756276133236" />
    <path d="M1799.2705815717622 1003.0756276133236 L1626.6959363812812 2231.0080328528707" />
    <path d="M1626.6959363812812 2231.0080328528707 L398.76353114173406 2058.4333876623896" />
    <path d="M398.76353114173406 2058.4333876623896 L619.0281589278643 491.1691242007312" />
    <path d="M630.4507633353817 501.6010288946467 L1808.4483445227952 1018.6524220472492" />
    <path d="M1808.4483445227952 1018.6524220472492 L1630.517493253733 2245.82014170364" />
    <path d="M1630.517493253733 2245.82014170364 L403.34977359734194 2067.8892904345776" />
    <path d="M403.34977359734194 2067.8892904345776 L630.4507633353817 501.6010288946467" />
    <path d="M641.7782182553675 512.119487297022 L1817.5085306103977 1034.3059262764227" />
    <path d="M1817.5085306103977 1034.3059262764227 L1634.2248608096806 2260.685596845199" />
    <path d="M1634.2248608096806 2260.685596845199 L407.8451902409038 2077.4019270444824" />
    <path d="M407.8451902409038 2077.4019270444824 L641.7782182553675 512.119487297022" />
    <path d="M653.0099867793936 522.7238669821411 L1826.4506460916718 1050.035410111257" />
    <path d="M1826.4506460916718 1050.035410111257 L1637.8176472161754 2275.60368309128" />
    <path d="M1637.8176472161754 2275.60368309128 L412.24937423615205 2086.9706842157834" />
    <path d="M412.24937423615205 2086.9706842157834 L653.0099867793936 522.7238669821411" />
    <path d="M664.1455357095099 533.4135324908702 L1835.2742013603615 1065.8401405180236" />
    <path d="M1835.2742013603615 1065.8401405180236 L1641.2954647104752 2290.5736828559943" />
    <path d="M1641.2954647104752 2290.5736828559943 L416.56192237250457 2096.594946206108" />
    <path d="M416.56192237250457 2096.594946206108 L664.1455357095099 533.4135324908702" />
    <path d="M675.1843355744763 544.1878453510126 L1843.9787109622525 1081.7193816410631" />
    <path d="M1843.9787109622525 1081.7193816410631 L1644.6579296135083 2305.5948761757504" />
    <path d="M1644.6579296135083 2305.5948761757504 L420.78243507882087 2106.274094827006" />
    <path d="M420.78243507882087 2106.274094827006 L675.1843355744763 544.1878453510126" />
    <path d="M686.125860645886 555.0461640977438 L1852.5636936104606 1097.6723948250753" />
    <path d="M1852.5636936104606 1097.6723948250753 L1647.9046623432205 2320.666540731242" />
    <path d="M1647.9046623432205 2320.666540731242 L424.9105164370535 2116.007509464002" />
    <path d="M424.9105164370535 2116.007509464002 L686.125860645886 555.0461640977438" />
    <path d="M696.9695889541836 565.9878442941318 L1861.0286722006008 1113.6984386374902" />
    <path d="M1861.0286722006008 1113.6984386374902 L1651.03528742781 2335.7879518695063" />
    <path d="M1651.03528742781 2335.7879518695063 L428.94577419579394 2125.794567096716" />
    <path d="M428.94577419579394 2125.794567096716 L696.9695889541836 565.9878442941318" />
    <path d="M707.7150023045737 577.0122385517395 L1869.3731738258434 1129.7967688909164" />
    <path d="M1869.3731738258434 1129.7967688909164 L1654.0494335188498 2350.958382626054" />
    <path d="M1654.0494335188498 2350.958382626054 L432.88781978371196 2135.6346423190607" />
    <path d="M432.88781978371196 2135.6346423190607 L707.7150023045737 577.0122385517395" />
    <path d="M718.361586292822 588.1186965513098 L1877.5967297918528 1145.9666386656693" />
    <path d="M1877.5967297918528 1145.9666386656693 L1656.9467334042893 2366.17710374707" />
    <path d="M1656.9467334042893 2366.17710374707 L436.7362683228886 2145.527107359506" />
    <path d="M436.7362683228886 2145.527107359506 L718.361586292822 588.1186965513098" />
    <path d="M728.9088303209477 599.3065650635311 L1885.698875631609 1162.2072983323758" />
    <path d="M1885.698875631609 1162.2072983323758 L1659.7268240213461 2381.4433837116794" />
    <path d="M1659.7268240213461 2381.4433837116794 L440.4907386420424 2155.4713321014165" />
    <path d="M440.4907386420424 2155.4713321014165 L728.9088303209477 599.3065650635311" />
    <path d="M739.3562276128057 610.5751879698855 L1893.6791511201113 1178.5179955746578" />
    <path d="M1893.6791511201113 1178.5179955746578 L1662.3893464692806 2396.7564887542894" />
    <path d="M1662.3893464692806 2396.7564887542894 L444.15085328964847 2165.4666841034586" />
    <path d="M444.15085328964847 2165.4666841034586 L739.3562276128057 610.5751879698855" />
    <path d="M749.7032752295612 621.9239062835762 L1901.5371002889683 1194.8979754118914" />
    <path d="M1901.5371002889683 1194.8979754118914 L1664.933946022053 2412.1156828869944" />
    <path d="M1664.933946022053 2412.1156828869944 L447.7162385469497 2175.5125286200787" />
    <path d="M447.7162385469497 2175.5125286200787 L749.7032752295612 621.9239062835762" />
    <path d="M759.9494740850525 633.3520581705353 L1909.272271440865 1211.3464802220412" />
    <path d="M1909.272271440865 1211.3464802220412 L1667.360272140866 2427.5202279220466" />
    <path d="M1667.360272140866 2427.5202279220466 L451.18652444086024 2185.608228622048" />
    <path d="M451.18652444086024 2185.608228622048 L759.9494740850525 633.3520581705353" />
    <path d="M770.094328961045 644.8589789705114 L1916.884217163914 1227.8627497645734" />
    <path d="M1916.884217163914 1227.8627497645734 L1669.6679784865896 2442.969383494402" />
    <path d="M1669.6679784865896 2442.969383494402 L454.56134475676095 2195.7531448170776" />
    <path d="M454.56134475676095 2195.7531448170776 L770.094328961045 644.8589789705114" />
    <path d="M780.1373485223731 656.444001218235 L1924.3724943458897 1244.4460212034392" />
    <path d="M1924.3724943458897 1244.4460212034392 L1671.8567229320695 2458.462407084323" />
    <path d="M1671.8567229320695 2458.462407084323 L457.84033705118566 2205.9466356705025" />
    <path d="M457.84033705118566 2205.9466356705025 L780.1373485223731 656.444001218235" />
    <path d="M790.0780453319724 668.1064546646635 L1931.736664188339 1261.0955291301357" />
    <path d="M1931.736664188339 1261.0955291301357 L1673.9261675743178 2473.998554040055" />
    <path d="M1673.9261675743178 2473.998554040055 L461.0231426643986 2216.188057426033" />
    <path d="M461.0231426643986 2216.188057426033 L790.0780453319724 668.1064546646635" />
    <path d="M799.9159358657986 679.8456662983024 L1938.9762922205782 1277.8105055868405" />
    <path d="M1938.9762922205782 1277.8105055868405 L1675.875978746585 2489.577077600562" />
    <path d="M1675.875978746585 2489.577077600562 L464.1094067328631 2226.476764126569" />
    <path d="M464.1094067328631 2226.476764126569 L799.9159358657986 679.8456662983024" />
    <path d="M809.6505405276368 691.6609603666051 L1946.0909483135642 1294.5901800896165" />
    <path d="M1946.0909483135642 1294.5901800896165 L1677.7058270303169 2505.197228918334" />
    <path d="M1677.7058270303169 2505.197228918334 L467.09877820159943 2236.8121076350862" />
    <path d="M467.09877820159943 2236.8121076350862 L809.6505405276368 691.6609603666051" />
    <path d="M819.2813836637964 703.5516583974481 L1953.0802066936512 1311.4337796516932" />
    <path d="M1953.0802066936512 1311.4337796516932 L1679.4153872669897 2520.8582570822487" />
    <path d="M1679.4153872669897 2520.8582570822487 L469.99090983643407 2247.1934376555873" />
    <path d="M469.99090983643407 2247.1934376555873 L819.2813836637964 703.5516583974481" />
    <path d="M828.807993577694 715.5170792206827 L1959.9436459562212 1328.3405288068159" />
    <path d="M1959.9436459562212 1328.3405288068159 L1681.0043385698286 2536.5594091405073" />
    <path d="M1681.0043385698286 2536.5594091405073 L472.78545823613706 2257.620101754115" />
    <path d="M472.78545823613706 2257.620101754115 L828.807993577694 715.5170792206827" />
    <path d="M838.2299025443241 727.556538989762 L1966.6808490791996 1345.309649632669" />
    <path d="M1966.6808490791996 1345.309649632669 L1682.472364335406 2552.299930123625" />
    <path d="M1682.472364335406 2552.299930123625 L475.48208384445 2268.0914453798314" />
    <path d="M475.48208384445 2268.0914453798314 L838.2299025443241 727.556538989762" />
    <path d="M847.5466468246152 739.6693512034428 L1973.291403436444 1362.3403617743693" />
    <path d="M1973.291403436444 1362.3403617743693 L1683.8191522551215 2568.0790630674883" />
    <path d="M1683.8191522551215 2568.0790630674883 L478.0804509620023 2278.606811886166" />
    <path d="M478.0804509620023 2278.606811886166 L847.5466468246152 739.6693512034428" />
    <path d="M856.7577666796724 751.8548267275619 L1979.7749008110145 1379.4318824680274" />
    <path d="M1979.7749008110145 1379.4318824680274 L1685.04439432656 2583.8960490364716" />
    <path d="M1685.04439432656 2583.8960490364716 L480.5802277581158 2289.1655425520166" />
    <path d="M480.5802277581158 2289.1655425520166 L856.7577666796724 751.8548267275619" />
    <path d="M865.8628063849063 764.1122738168854 L1986.1309374083226 1396.5834265643814" />
    <path d="M1986.1309374083226 1396.5834265643814 L1686.1477868647344 2599.7501271466167" />
    <path d="M1686.1477868647344 2599.7501271466167 L482.981086282499 2299.7669766030285" />
    <path d="M482.981086282499 2299.7669766030285 L865.8628063849063 764.1122738168854" />
    <path d="M874.8613142440469 776.4409981370313 L1992.359113869154 1413.7942065524974" />
    <path d="M1992.359113869154 1413.7942065524974 L1687.1290305132025 2615.6405345888725" />
    <path d="M1687.1290305132025 2615.6405345888725 L485.28270247682724 2310.4104512329213" />
    <path d="M485.28270247682724 2310.4104512329213 L874.8613142440469 776.4409981370313" />
    <path d="M883.7528426030419 788.8403027864664 L1998.4590352825735 1431.0634325835385" />
    <path d="M1998.4590352825735 1431.0634325835385 L1687.9878302550662 2631.566506652392" />
    <path d="M1687.9878302550662 2631.566506652392 L487.4847561862127 2321.0953016248845" />
    <path d="M487.4847561862127 2321.0953016248845 L883.7528426030419 788.8403027864664" />
    <path d="M892.5369478638416 801.3094883185713 L2004.4303111987037 1448.3903124946034" />
    <path d="M2004.4303111987037 1448.3903124946034 L1688.7238954238496 2647.5272767478928" />
    <path d="M1688.7238954238496 2647.5272767478928 L489.58693117056 2331.820860973038" />
    <path d="M489.58693117056 2331.820860973038 L892.5369478638416 801.3094883185713" />
    <path d="M901.2131904980661 813.8478527637808 L2010.2725556413802 1465.7740518326273" />
    <path d="M2010.2725556413802 1465.7740518326273 L1689.3369397142546 2663.5220764310716" />
    <path d="M1689.3369397142546 2663.5220764310716 L491.58891511581 2342.586460503946" />
    <path d="M491.58891511581 2342.586460503946 L901.2131904980661 813.8478527637808" />
    <path d="M909.7811350605576 826.4546916517921 L2015.9853871206865 1483.213853878354" />
    <path d="M2015.9853871206865 1483.213853878354 L1689.8266811927979 2679.5501354260823" />
    <path d="M1689.8266811927979 2679.5501354260823 L493.4903996450696 2353.3914294981932" />
    <path d="M493.4903996450696 2353.3914294981932 L909.7811350605576 826.4546916517921" />
    <path d="M918.240350202816 839.1292980338451 L2021.5684286453593 1500.7089196703719" />
    <path d="M2021.5684286453593 1500.7089196703719 L1690.192842308321 2695.6106816490637" />
    <path d="M1690.192842308321 2695.6106816490637 L495.2910803296282 2364.235095312026" />
    <path d="M495.2910803296282 2364.235095312026 L918.240350202816 839.1292980338451" />
    <path d="M926.5904086863178 851.8709625050708 L2027.021307735075 1518.2584480292126" />
    <path d="M2027.021307735075 1518.2584480292126 L1690.4351499023828 2711.702941231735" />
    <path d="M1690.4351499023828 2711.702941231735 L496.9906566998604 2375.116783399043" />
    <path d="M496.9906566998604 2375.116783399043 L926.5904086863178 851.8709625050708" />
    <path d="M934.830887395718 864.6789732269091 L2032.3436564326084 1535.8616355815186" />
    <path d="M2032.3436564326084 1535.8616355815186 L1690.5533352195293 2727.8261385450337" />
    <path d="M1690.5533352195293 2727.8261385450337 L498.58883225601414 2386.0358173319546" />
    <path d="M498.58883225601414 2386.0358173319546 L934.830887395718 864.6789732269091" />
    <path d="M942.9613673519347 877.552615949596 L2037.5351113158663 1553.517676784271" />
    <path d="M2037.5351113158663 1553.517676784271 L1690.5471339174362 2743.9794962228225" />
    <path d="M1690.5471339174362 2743.9794962228225 L500.0853144788846 2396.991518824392" />
    <path d="M500.0853144788846 2396.991518824392 L942.9613673519347 877.552615949596" />
    <path d="M950.9814337251149 890.4911740347171 L2042.595313509797 1571.225763949082" />
    <path d="M2042.595313509797 1571.225763949082 L1690.416286076933 2760.1622351856413" />
    <path d="M1690.416286076933 2760.1622351856413 L501.4798148403734 2407.983207752777" />
    <path d="M501.4798148403734 2407.983207752777 L950.9814337251149 890.4911740347171" />
    <path d="M958.8906758474841 903.4939284778288 L2047.5239086981728 1588.9850872665493" />
    <path d="M2047.5239086981728 1588.9850872665493 L1690.1605362119021 2776.373574664519" />
    <path d="M1690.1605362119021 2776.373574664519 L502.7720488139322 2419.010202178248" />
    <path d="M502.7720488139322 2419.010202178248 L958.8906758474841 903.4939284778288" />
    <path d="M966.6886872260757 916.5601579311463 L2052.3205471352485 1606.7948348306732" />
    <path d="M2052.3205471352485 1606.7948348306732 L1689.779633279055 2792.6127322248367" />
    <path d="M1689.779633279055 2792.6127322248367 L503.961735884891 2430.071818368643" />
    <path d="M503.961735884891 2430.071818368643 L966.6886872260757 916.5601579311463" />
    <path d="M974.375065555342 929.6891387262971 L2056.984883657291 1624.6541926633342" />
    <path d="M2056.984883657291 1624.6541926633342 L1689.2733306875834 2808.8789237902456" />
    <path d="M1689.2733306875834 2808.8789237902456 L505.04859956067185 2441.1673708205376" />
    <path d="M505.04859956067185 2441.1673708205376 L974.375065555342 929.6891387262971" />
    <path d="M981.9494127296472 942.8801448971409 L2061.5165776939843 1642.562344738832" />
    <path d="M2061.5165776939843 1642.562344738832 L1688.641386308686 2825.171363666633" />
    <path d="M1688.641386308686 2825.171363666633 L506.03236738088435 2452.2961722813343" />
    <path d="M506.03236738088435 2452.2961722813343 L981.9494127296472 942.8801448971409" />
    <path d="M989.4113348556391 956.1324482026525 L2065.915293279706 1660.5184730084827" />
    <path d="M2065.915293279706 1660.5184730084827 L1687.8835624849726 2841.4892645661475" />
    <path d="M1687.8835624849726 2841.4892645661475 L506.91277092730746 2463.457533771414" />
    <path d="M506.91277092730746 2463.457533771414 L989.4113348556391 956.1324482026525" />
    <path d="M996.7604422645026 969.4453181498708 L2070.180699064678 1678.521757425278" />
    <path d="M2070.180699064678 1678.521757425278 L1686.999626039743 2857.831837631268" />
    <path d="M1686.999626039743 2857.831837631268 L507.68954583375256 2474.6507646063337" />
    <path d="M507.68954583375256 2474.6507646063337 L996.7604422645026 969.4453181498708" />
    <path d="M1003.9963495240921 982.818022016909 L2074.3124683259884 1696.5713759686016" />
    <path d="M2074.3124683259884 1696.5713759686016 L1685.989348286139 2874.1982924589292" />
    <path d="M1685.989348286139 2874.1982924589292 L508.3624317958113 2485.8751724190797" />
    <path d="M508.3624317958113 2485.8751724190797 L1003.9963495240921 982.818022016909" />
    <path d="M1011.1186754509445 996.2498248760306 L2078.3102789784866 1714.6665046690025" />
    <path d="M2078.3102789784866 1714.6665046690025 L1684.8525050361725 2890.5878371246895" />
    <path d="M1684.8525050361725 2890.5878371246895 L508.9311725804853 2497.130063182375" />
    <path d="M508.9311725804853 2497.130063182375 L1011.1186754509445 996.2498248760306" />
    <path d="M1018.1270431221694 1009.7399896167851 L2082.1738135855503 1732.8063176330284" />
    <path d="M2082.1738135855503 1732.8063176330284 L1683.58887660963 2906.9996782069593" />
    <path d="M1683.58887660963 2906.9996782069593 L509.3955160356991 2508.414741231039" />
    <path d="M509.3955160356991 2508.414741231039 L1018.1270431221694 1009.7399896167851" />
    <path d="M1025.0210798872213 1023.287776969207 L2085.902759369722 1750.9899870681138" />
    <path d="M2085.902759369722 1750.9899870681138 L1682.1982478428476 2923.4330208112665" />
    <path d="M1682.1982478428476 2923.4330208112665 L509.75521409969485 2519.728509284392" />
    <path d="M509.75521409969485 2519.728509284392 L1025.0210798872213 1023.287776969207" />
    <path d="M1031.800417379548 1036.8924455270749 L2089.4968082232185 1769.2166833075253" />
    <path d="M2089.4968082232185 1769.2166833075253 L1680.6804080973625 2939.8870685945776" />
    <path d="M1680.6804080973625 2939.8870685945776 L510.01002281031003 2531.070668468721" />
    <path d="M510.01002281031003 2531.070668468721 L1031.800417379548 1036.8924455270749" />
    <path d="M1038.4646915281173 1050.553251771232 L2092.955656718313 1787.4855748353611" />
    <path d="M2092.955656718313 1787.4855748353611 L1679.0351512684374 2956.361023789662" />
    <path d="M1679.0351512684374 2956.361023789662 L510.159702314136 2542.440518339786" />
    <path d="M510.159702314136 2542.440518339786 L1038.4646915281173 1050.553251771232" />
    <path d="M1045.013542568824 1064.2694500929656 L2096.279006117584 1805.7958283116072" />
    <path d="M2096.279006117584 1805.7958283116072 L1677.2622757934582 2972.8540872295066" />
    <path d="M1677.2622757934582 2972.8540872295066 L510.2040168755587 2553.837356905381" />
    <path d="M510.2040168755587 2553.837356905381 L1045.013542568824 1064.2694500929656" />
    <path d="M1051.4466150557723 1078.0402928174458 L2099.466562384036 1824.1466085972463" />
    <path d="M2099.466562384036 1824.1466085972463 L1675.361584660207 2989.3654583717725" />
    <path d="M1675.361584660207 2989.3654583717725 L510.1427348856807 2565.2604806479435" />
    <path d="M510.1427348856807 2565.2604806479435 L1051.4466150557723 1078.0402928174458" />
    <path d="M1057.7635578724357 1091.8650302272245 L2102.5180361910952 1842.5370787794202" />
    <path d="M2102.5180361910952 1842.5370787794202 L1673.332885415004 3005.8943353233003" />
    <path d="M1673.332885415004 3005.8943353233003 L509.9756288711237 2576.709184547209" />
    <path d="M509.9756288711237 2576.709184547209 L1057.7635578724357 1091.8650302272245" />
    <path d="M1063.9640242426967 1105.7429105857886 L2105.4331429324657 1860.9664001966457" />
    <path d="M2105.4331429324657 1860.9664001966457 L1671.175990170726 3022.439914864659" />
    <path d="M1671.175990170726 3022.439914864659 L509.702475502713 2588.182762102919" />
    <path d="M509.702475502713 2588.182762102919 L1063.9640242426967 1105.7429105857886" />
    <path d="M1070.0476717417594 1119.6731801611759 L2108.2116027318634 1879.4337324640837" />
    <path d="M2108.2116027318634 1879.4337324640837 L1668.8907156146956 3039.001392474738" />
    <path d="M1668.8907156146956 3039.001392474738 L509.3230556040411 2599.68050535757" />
    <path d="M509.3230556040411 2599.68050535757 L1070.0476717417594 1119.6731801611759" />
    <path d="M1076.0141623069412 1133.6550832496425 L2110.853140452615 1897.9382334988559" />
    <path d="M2110.853140452615 1897.9382334988559 L1666.476883016443 3055.5779623553863" />
    <path d="M1666.476883016443 3055.5779623553863 L508.83715415991253 2611.2017049192136" />
    <path d="M508.83715415991253 2611.2017049192136 L1076.0141623069412 1133.6550832496425" />
    <path d="M1081.8631622483406 1147.6878621993892 L2113.357485707129 1916.4790595454183" />
    <path d="M2113.357485707129 1916.4790595454183 L1663.934318235339 3072.1688174560877" />
    <path d="M1663.934318235339 3072.1688174560877 L508.2445603246689 2622.7456499842983" />
    <path d="M508.2445603246689 2622.7456499842983 L1081.8631622483406 1147.6878621993892" />
    <path d="M1087.5943422593803 1161.7707574343433 L2115.7243728662315 1935.0553652009792" />
    <path d="M2115.7243728662315 1935.0553652009792 L1661.2628517281032 3088.7731494986892" />
    <path d="M1661.2628517281032 3088.7731494986892 L507.54506743039246 2634.3116283605605" />
    <path d="M507.54506743039246 2634.3116283605605 L1087.5943422593803 1161.7707574343433" />
    <path d="M1093.2073774272258 1175.903007477994 L2117.9535410683748 1953.6663034409703" />
    <path d="M2117.9535410683748 1953.6663034409703 L1658.462318556178 3105.3901490021562" />
    <path d="M1658.462318556178 3105.3901490021562 L506.7384729949917 2645.898926489959" />
    <path d="M506.7384729949917 2645.898926489959 L1093.2073774272258 1175.903007477994" />
    <path d="M1098.70194724308 1190.0838489772825 L2120.0447342287107 1972.311025644566" />
    <path d="M2120.0447342287107 1972.311025644566 L1655.5325583929798 3122.019005307382" />
    <path d="M1655.5325583929798 3122.019005307382 L505.8245787301633 2657.506829471651" />
    <path d="M505.8245787301633 2657.506829471651 L1098.70194724308 1190.0838489772825" />
    <path d="M1104.077735612353 1204.3125167265468 L2121.9977010480347 1990.98868162025" />
    <path d="M2121.9977010480347 1990.98868162025 L1652.4734155310182 3138.658906602032" />
    <path d="M1652.4734155310182 3138.658906602032 L504.80319054923586 2669.134621085015" />
    <path d="M504.80319054923586 2669.134621085015 L1104.077735612353 1204.3125167265468" />
  </g>
</svg>