<?xml version="1.0" standalone="no"?>
<!DOCTYPE svg PUBLIC "-//W3C//DTD SVG 1.1//EN" 
    "http://www.w3.org/Graphics/SVG/1.1/DTD/svg11.dtd">
<svg width="21cm" height="29.7cm"
    xmlns="http://www.w3.org/2000/svg" version="1.1" viewBox="0 0 744.09449 1052.3622">
  <g fill="none" stroke="black" stroke-width="0.03cm">
    <path d="M248.0315 248.0315 L336.61417 490.74803" />
    <path d="M336.61417 490.74803 L496.06299 248.0315" />
    <path d="M257.81432 243.87285 L337.87235 489.53302" />
    <path d="M337.87235 489.53302 L505.69473 252.52902" />
    <path d="M267.73633 240.05815 L339.17217 488.36266" />
    <path d="M339.17217 488.36266 L515.16363 257.35996" />
    <path d="M277.78542 236.59205 L340.51204 487.23837" />
    <path d="M340.51204 487.23837 L524.45817 262.5184" />
    <path d="M287.94935 233.47877 L341.89034 486.16153" />
    <path d="M341.89034 486.16153 L533.56702 267.99809" />
    <path d="M298.21575 230.7221 L343.30537 485.13345" />
    <path d="M343.30537 485.13345 L542.47909 273.79232" />
    <path d="M308.57209 228.32541 L344.75542 484.15538" />
    <path d="M344.75542 484.15538 L551.18351 279.89406" />
    <path d="M319.00577 226.2916 L346.23872 483.22851" />
    <path d="M346.23872 483.22851 L559.66967 286.29585" />
    <path d="M329.50408 224.62317 L347.75347 482.35397" />
    <path d="M347.75347 482.35397 L567.92725 292.98991" />
    <path d="M340.05421 223.32213 L349.29781 481.53283" />
    <path d="M349.29781 481.53283 L575.94618 299.96808" />
    <path d="M350.64333 222.39009 L350.86987 480.76608" />
    <path d="M350.86987 480.76608 L583.7167 307.22185" />
    <path d="M361.25852 221.82816 L352.46773 480.05467" />
    <path d="M352.46773 480.05467 L591.22932 314.7424" />
    <path d="M371.88686 221.63704 L354.08945 479.39945" />
    <path d="M354.08945 479.39945 L598.4749 322.52054" />
    <path d="M382.51539 221.81697 L355.73305 478.80123" />
    <path d="M355.73305 478.80123 L605.44462 330.54682" />
    <path d="M393.13117 222.36771 L357.39652 478.26074" />
    <path d="M357.39652 478.26074 L612.12998 338.81144" />
    <path d="M403.72126 223.2886 L359.07784 477.77863" />
    <path d="M359.07784 477.77863 L618.52284 347.30435" />
    <path d="M414.27276 224.57852 L360.77496 477.35549" />
    <path d="M360.77496 477.35549 L624.6154 356.01519" />
    <path d="M424.77282 226.2359 L362.48582 476.99183" />
    <path d="M362.48582 476.99183 L630.40024 364.93335" />
    <path d="M435.20863 228.25872 L364.20832 476.68811" />
    <path d="M364.20832 476.68811 L635.87033 374.04797" />
    <path d="M445.5675 230.6445 L365.94038 476.44468" />
    <path d="M365.94038 476.44468 L641.01898 383.34794" />
    <path d="M455.83679 233.39036 L367.67988 476.26186" />
    <path d="M367.67988 476.26186 L645.83994 392.82193" />
    <path d="M466.004 236.49293 L369.42469 476.13985" />
    <path d="M369.42469 476.13985 L650.32732 402.45839" />
    <path d="M476.05673 239.94844 L371.17271 476.0788" />
    <path d="M371.17271 476.0788 L654.47566 412.2456" />
    <path d="M485.98275 243.75269 L372.92178 476.0788" />
    <path d="M372.92178 476.0788 L658.2799 422.17161" />
    <path d="M495.76995 247.90103 L374.6698 476.13985" />
    <path d="M374.6698 476.13985 L661.73542 432.22435" />
    <path d="M505.40642 252.38841 L376.41461 476.26186" />
    <path d="M376.41461 476.26186 L664.83799 442.39156" />
    <path d="M514.88041 257.20936 L378.15411 476.44468" />
    <path d="M378.15411 476.44468 L667.58384 452.66085" />
    <path d="M524.18037 262.35802 L379.88616 476.68811" />
    <path d="M379.88616 476.68811 L669.96963 463.01971" />
    <path d="M533.29499 267.8281 L381.60867 476.99183" />
    <path d="M381.60867 476.99183 L671.99244 473.45553" />
    <path d="M542.21315 273.61295 L383.31953 477.35549" />
    <path d="M383.31953 477.35549 L673.64982 483.95559" />
    <path d="M550.924 279.70551 L385.01665 477.77863" />
    <path d="M385.01665 477.77863 L674.93974 494.50709" />
    <path d="M559.4169 286.09837 L386.69797 478.26074" />
    <path d="M386.69797 478.26074 L675.86064 505.09718" />
    <path d="M567.68153 292.78372 L388.36144 478.80123" />
    <path d="M388.36144 478.80123 L676.41138 515.71296" />
    <path d="M575.7078 299.75344 L390.00504 479.39945" />
    <path d="M390.00504 479.39945 L676.5913 526.34149" />
    <path d="M583.48595 306.99903 L391.62675 480.05467" />
    <path d="M391.62675 480.05467 L676.40019 536.96983" />
    <path d="M591.00649 314.51165 L393.22462 480.76608" />
    <path d="M393.22462 480.76608 L675.83826 547.58502" />
    <path d="M598.26027 322.28216 L394.79668 481.53283" />
    <path d="M394.79668 481.53283 L674.90621 558.17413" />
    <path d="M605.23843 330.30109 L396.34102 482.35397" />
    <path d="M396.34102 482.35397 L673.60518 568.72427" />
    <path d="M611.93249 338.55867 L397.85577 483.22851" />
    <path d="M397.85577 483.22851 L671.93674 579.22257" />
    <path d="M618.33429 347.04484 L399.33907 484.15538" />
    <path d="M399.33907 484.15538 L669.90294 589.65625" />
    <path d="M624.43602 355.74926 L400.78912 485.13345" />
    <path d="M400.78912 485.13345 L667.50624 600.0126" />
    <path d="M630.23026 364.66132 L402.20415 486.16153" />
    <path d="M402.20415 486.16153 L664.74957 610.27899" />
    <path d="M635.70994 373.77017 L403.58244 487.23837" />
    <path d="M403.58244 487.23837 L661.63629 620.44293" />
    <path d="M640.86839 383.06471 L404.92232 488.36266" />
    <path d="M404.92232 488.36266 L658.17019 630.49202" />
    <path d="M645.69932 392.53362 L406.22213 489.53302" />
    <path d="M406.22213 489.53302 L654.3555 640.41402" />
    <path d="M650.19685 402.16535 L407.48031 490.74803" />
    <path d="M407.48031 490.74803 L650.19685 650.19685" />
    <path d="M654.3555 411.94818 L408.69533 492.00621" />
    <path d="M408.69533 492.00621 L645.69932 659.82858" />
    <path d="M658.17019 421.87019 L409.86569 493.30603" />
    <path d="M409.86569 493.30603 L640.86839 669.29749" />
    <path d="M661.63629 431.91928 L410.98997 494.6459" />
    <path d="M410.98997 494.6459 L635.70994 678.59203" />
    <path d="M664.74957 442.08321 L412.06681 496.02419" />
    <path d="M412.06681 496.02419 L630.23026 687.70088" />
    <path d="M667.50624 452.3496 L413.0949 497.43923" />
    <path d="M413.0949 497.43923 L624.43602 696.61294" />
    <path d="M669.90294 462.70595 L414.07297 498.88928" />
    <path d="M414.07297 498.88928 L618.33429 705.31736" />
    <path d="M671.93674 473.13963 L414.99984 500.37258" />
    <path d="M414.99984 500.37258 L611.93249 713.80353" />
    <path d="M673.60518 483.63794 L415.87438 501.88733" />
    <path d="M415.87438 501.88733 L605.23843 722.06111" />
    <path d="M674.90621 494.18807 L416.69552 503.43167" />
    <path d="M416.69552 503.43167 L598.26027 730.08004" />
    <path d="M675.83826 504.77719 L417.46226 505.00373" />
    <path d="M417.46226 505.00373 L591.00649 737.85055" />
    <path d="M676.40019 515.39238 L418.17368 506.60159" />
    <path d="M418.17368 506.60159 L583.48595 745.36318" />
    <path d="M676.5913 526.02072 L418.82889 508.22331" />
    <path d="M418.82889 508.22331 L575.7078 752.60876" />
    <path d="M676.41138 536.64925 L419.42711 509.86691" />
    <path d="M419.42711 509.86691 L567.68153 759.57848" />
    <path d="M675.86064 547.26503 L419.96761 511.53038" />
    <path d="M419.96761 511.53038 L559.4169 766.26384" />
    <path d="M674.93974 557.85512 L420.44972 513.2117" />
    <path d="M420.44972 513.2117 L550.924 772.65669" />
    <path d="M673.64982 568.40662 L420.87286 514.90882" />
    <path d="M420.87286 514.90882 L542.21315 778.74926" />
    <path d="M671.99244 578.90667 L421.23651 516.61968" />
    <path d="M421.23651 516.61968 L533.29499 784.5341" />
    <path d="M669.96963 589.34249 L421.54024 518.34218" />
    <path d="M421.54024 518.34218 L524.18037 790.00419" />
    <path d="M667.58384 599.70136 L421.78366 520.07424" />
    <path d="M421.78366 520.07424 L514.88041 795.15284" />
    <path d="M664.83799 609.97065 L421.96649 521.81373" />
    <path d="M421.96649 521.81373 L505.40642 799.9738" />
    <path d="M661.73542 620.13786 L422.0885 523.55855" />
    <path d="M422.0885 523.55855 L495.76995 804.46118" />
    <path d="M658.2799 630.19059 L422.14954 525.30656" />
    <path d="M422.14954 525.30656 L485.98275 808.60952" />
    <path d="M654.47566 640.11661 L422.14954 527.05564" />
    <path d="M422.14954 527.05564 L476.05673 812.41376" />
    <path d="M650.32732 649.90381 L422.0885 528.80365" />
    <path d="M422.0885 528.80365 L466.004 815.86928" />
    <path d="M645.83994 659.54028 L421.96649 530.54847" />
    <path d="M421.96649 530.54847 L455.83679 818.97185" />
    <path d="M641.01898 669.01426 L421.78366 532.28797" />
    <path d="M421.78366 532.28797 L445.5675 821.7177" />
    <path d="M635.87033 678.31423 L421.54024 534.02002" />
    <path d="M421.54024 534.02002 L435.20863 824.10349" />
    <path d="M630.40024 687.42885 L421.23651 535.74253" />
    <path d="M421.23651 535.74253 L424.77282 826.1263" />
    <path d="M624.6154 696.34701 L420.87286 537.45338" />
    <path d="M420.87286 537.45338 L414.27276 827.78368" />
    <path d="M618.52284 705.05785 L420.44972 539.15051" />
    <path d="M420.44972 539.15051 L403.72126 829.0736" />
    <path d="M612.12998 713.55076 L419.96761 540.83183" />
    <path d="M419.96761 540.83183 L393.13117 829.99449" />
    <path d="M605.44462 721.81539 L419.42711 542.4953" />
    <path d="M419.42711 542.4953 L382.51539 830.54524" />
    <path d="M598.4749 729.84166 L418.82889 544.1389" />
    <path d="M418.82889 544.1389 L371.88686 830.72516" />
    <path d="M591.22932 737.61981 L418.17368 545.76061" />
    <path d="M418.17368 545.76061 L361.25852 830.53404" />
    <path d="M583.7167 745.14035 L417.46226 547.35847" />
    <path d="M417.46226 547.35847 L350.64333 829.97212" />
    <path d="M575.94618 752.39412 L416.69552 548.93053" />
    <path d="M416.69552 548.93053 L340.05421 829.04007" />
    <path d="M567.92725 759.37229 L415.87438 550.47488" />
    <path d="M415.87438 550.47488 L329.50408 827.73904" />
    <path d="M559.66967 766.06635 L414.99984 551.98962" />
    <path d="M414.99984 551.98962 L319.00577 826.0706" />
    <path d="M551.18351 772.46815 L414.07297 553.47293" />
    <path d="M414.07297 553.47293 L308.57209 824.0368" />
    <path d="M542.47909 778.56988 L413.0949 554.92298" />
    <path d="M413.0949 554.92298 L298.21575 821.6401" />
    <path d="M533.56702 784.36412 L412.06681 556.33801" />
    <path d="M412.06681 556.33801 L287.94935 818.88343" />
    <path d="M524.45817 789.8438 L410.98997 557.7163" />
    <path d="M410.98997 557.7163 L277.78542 815.77015" />
    <path d="M515.16363 795.00225 L409.86569 559.05617" />
    <path d="M409.86569 559.05617 L267.73633 812.30405" />
    <path d="M505.69473 799.83318 L408.69533 560.35599" />
    <path d="M408.69533 560.35599 L257.81432 808.48935" />
  </g>
</svg>