<?xml version="1.0" standalone="no"?>
<!DOCTYPE svg PUBLIC "-//W3C//DTD SVG 1.1//EN" 
    "http://www.w3.org/Graphics/SVG/1.1/DTD/svg11.dtd">
<svg width="21cm" height="29.7cm"
    xmlns="http://www.w3.org/2000/svg" version="1.1" viewBox="0 0 744.09449 1052.3622">
  <g fill="none" stroke="black" stroke-width="0.03cm">
    <path d="M283.46457 35.43307 L283.46457 885.82677" />
    <path d="M297.6378 49.6063 L297.6378 900" />
    <path d="M311.81102 63.77953 L311.81102 914.17323" />
    <path d="M325.98425 77.95276 L325.98425 928.34646" />
    <path d="M340.15748 92.12598 L340.15748 942.51969" />
    <path d="M354.33071 106.29921 L354.33071 956.69291" />
    <path d="M368.50394 120.47244 L368.50394 970.86614" />
    <path d="M382.67717 134.64567 L382.67717 985.03937" />
    <path d="M396.85039 148.8189 L396.85039 999.2126" />
    <path d="M411.02362 162.99213 L411.02362 1013.38583" />
    <path d="M425.19685 177.16535 L425.19685 1027.55906" />
    <path d="M35.43307 212.59843 L531.49606 212.59843" />
    <path d="M49.6063 226.77165 L545.66929 226.77165" />
    <path d="M63.77953 240.94488 L559.84252 240.94488" />
    <path d="M77.95276 255.11811 L574.01575 255.11811" />
    <path d="M92.12598 269.29134 L588.18898 269.29134" />
    <path d="M106.29921 283.46457 L602.3622 283.46457" />
    <path d="M120.47244 297.6378 L616.53543 297.6378" />
    <path d="M134.64567 311.81102 L630.70866 311.81102" />
    <path d="M148.8189 325.98425 L644.88189 325.98425" />
    <path d="M162.99213 340.15748 L659.05512 340.15748" />
    <path d="M35.43307 460.62992 L531.49606 460.62992" />
    <path d="M49.6063 474.80315 L545.66929 474.80315" />
    <path d="M63.77953 488.97638 L559.84252 488.97638" />
    <path d="M77.95276 503.14961 L574.01575 503.14961" />
    <path d="M92.12598 517.32283 L588.18898 517.32283" />
    <path d="M106.29921 531.49606 L602.3622 531.49606" />
    <path d="M120.47244 545.66929 L616.53543 545.66929" />
    <path d="M134.64567 559.84252 L630.70866 559.84252" />
    <path d="M148.8189 574.01575 L644.88189 574.01575" />
    <path d="M162.99213 588.18898 L659.05512 588.18898" />
    <path d="M35.43307 708.66142 L531.49606 708.66142" />
    <path d="M49.6063 722.83465 L545.66929 722.83465" />
    <path d="M63.77953 737.00787 L559.84252 737.00787" />
    <path d="M77.95276 751.1811 L574.01575 751.1811" />
    <path d="M92.12598 765.35433 L588.18898 765.35433" />
    <path d="M106.29921 779.52756 L602.3622 779.52756" />
    <path d="M120.47244 793.70079 L616.53543 793.70079" />
    <path d="M134.64567 807.87402 L630.70866 807.87402" />
    <path d="M148.8189 822.04724 L644.88189 822.04724" />
    <path d="M162.99213 836.22047 L659.05512 836.22047" />
  </g>
</svg>