<?xml version="1.0" standalone="no"?>
<!DOCTYPE svg PUBLIC "-//W3C//DTD SVG 1.1//EN" 
    "http://www.w3.org/Graphics/SVG/1.1/DTD/svg11.dtd">
<svg width="21cm" height="29.7cm"
    xmlns="http://www.w3.org/2000/svg" version="1.1" viewBox="0 0 744.09449 1052.3622">
  <g fill="none" stroke="black" stroke-width="0.03cm">
    <path d="M0 0 L35.43307 35.43307" />
    <path d="M364.64213 527.23915 L364.60219 526.90653 L364.56714 526.23792 L364.5721 525.90294" />
    <path d="M371.8581 507.48127 L372.9222 507.50003 L374.9994 507.71022 L376.99898 508.13972 L378.90941 508.7754 L380.71918 509.60417 L382.41676 510.61289 L383.99061 511.78846 L385.42921 513.11776 L386.72104 514.58767 L387.85457 516.18508 L388.81828 517.89688 L389.60063 519.70995 L390.1901 521.61116 L390.57517 523.58742 L390.74431 525.6256 L390.68598 527.71259 L390.56792 528.77029" />
    <path d="M398.49597 540.17205 L397.43457 542.02426 L395.02063 545.38858 L392.26064 548.29789 L389.20517 550.75029 L385.9048 552.74394 L382.4101 554.27694 L378.77165 555.34743 L375.04003 555.95353 L371.26581 556.09336 L367.49957 555.76507 L363.79189 554.96676 L360.19333 553.69657 L356.75448 551.95262 L353.52591 549.73303 L350.55819 547.03595 L347.90191 543.85948 L346.70636 542.09089 L346.70636 542.09089 L345.67512 540.31642 L344.00585 536.62196 L342.86189 532.77899 L342.24446 528.84216 L342.15481 524.8661 L342.59416 520.90544 L343.56374 517.01482 L345.06478 513.24886 L346.01499 511.42971" />
    <path d="M378.44276 566.8227 L376.98104 567.02746 L374.08846 567.28342 L371.2416 567.34026 L368.44592 567.20476 L365.7069 566.88367 L363.02999 566.38376 L360.42067 565.7118 L357.88441 564.87456 L354.22895 563.32358 L349.66172 560.74024 L345.48512 557.61755 L341.7429 554.0096 L338.47879 549.97055 L335.73653 545.5545 L333.55987 540.81558 L331.99254 535.80792 L331.24323 531.90837 L330.95688 529.25288 L330.84748 526.56065 L330.92048 523.83845 L331.18135 521.09303 L331.63556 518.33117 L332.28858 515.55964 L333.14587 512.78519 L333.65283 511.39898 L333.65283 511.39898 L334.20636 510.03071 L335.43098 507.39769 L336.80519 504.90381 L338.32038 502.55044 L339.96796 500.33892 L341.73934 498.2706 L343.62594 496.34684 L345.61915 494.569 L348.79007 492.17877 L353.31091 489.5151 L358.10355 487.45941 L363.09923 486.02252 L368.22921 485.21525 L373.42475 485.04841 L378.6171 485.53282 L383.73753 486.6793 L387.48929 487.98015 L389.93218 489.05992 L392.31843 490.31128 L394.63943 491.7356 L396.88659 493.33423 L399.05132 495.10852 L401.12504 497.05982 L403.09913 499.18948 L404.04614 500.32162" />
    <path d="M401.43774 569.51699 L399.86542 570.54497 L396.67311 572.40734 L393.42554 574.01565 L390.13267 575.37471 L386.80446 576.48936 L383.45087 577.36442 L380.08187 578.00472 L376.70743 578.41508 L373.33749 578.60035 L369.98204 578.56533 L366.65102 578.31487 L363.35441 577.85379 L360.10216 577.18692 L356.90424 576.31908 L353.77061 575.25511 L350.71124 573.99983 L347.73608 572.55807 L344.8551 570.93466 L342.07827 569.13443 L339.41554 567.1622 L336.87687 565.0228 L334.47224 562.72106 L332.2116 560.26181 L330.10492 557.64987 L328.16216 554.89008 L326.39328 551.98726 L324.80825 548.94625 L323.41702 545.77186 L322.22957 542.46892 L321.25585 539.04227 L320.50583 535.49673 L319.98946 531.83714 L319.82202 529.96607 L319.82202 529.96607 L319.72973 528.34572 L319.69542 525.11788 L319.85848 521.91399 L320.21533 518.74214 L320.76242 515.61045 L321.49616 512.52704 L322.41298 509.50001 L323.50931 506.53748 L324.78158 503.64757 L326.22622 500.83838 L327.83966 498.11804 L329.61832 495.49465 L331.55863 492.97632 L333.65703 490.57118 L335.90993 488.28732 L338.31377 486.13288 L339.57117 485.10672" />
    <path d="M313.83316 500.61008 L314.78572 498.53741 L316.86491 494.56029 L319.16505 490.80871 L321.67278 487.28413 L324.37473 483.98802 L327.25756 480.92187 L330.30788 478.08714 L333.51234 475.4853 L336.85758 473.11782 L340.33024 470.98618 L343.91694 469.09186 L347.60434 467.43631 L351.37906 466.02101 L355.22774 464.84744 L359.13703 463.91706 L363.09355 463.23136 L367.08396 462.79179 L371.09487 462.59984 L375.11294 462.65697 L379.12479 462.96466 L383.11707 463.52437 L387.07641 464.33759 L390.98946 465.40578 L394.84284 466.73041 L398.6232 468.31296 L402.31717 470.1549 L405.91139 472.2577 L409.3925 474.62282 L412.74713 477.25176 L415.96193 480.14597 L419.02353 483.30693 L421.91856 486.7361 L423.29944 488.55174 L423.29944 488.55174 L424.61815 490.41301 L427.02284 494.2022 L429.12174 498.06997 L430.92025 502.00402 L432.42378 505.99204 L433.63773 510.02171 L434.56752 514.08073 L435.21855 518.1568 L435.59622 522.2376 L435.70595 526.31083 L435.55313 530.36417 L435.14318 534.38532 L434.48151 538.36197 L433.57351 542.28182 L432.42459 546.13255 L431.04017 549.90185 L429.42564 553.57742 L427.58642 557.14695 L425.52791 560.59814 L423.25552 563.91866 L420.77465 567.09622 L418.09071 570.1185 L415.20911 572.9732 L412.13525 575.64801 L408.87455 578.13063 L405.4324 580.40873 L401.81421 582.47002 L398.02539 584.30218 L394.07135 585.89291 L389.9575 587.2299 L385.68923 588.30084 L381.27196 589.09343 L379.00913 589.38149" />
    <path d="M302.7281 498.06762 L303.7786 495.59814 L306.08995 490.85117 L308.66872 486.36199 L311.49925 482.13278 L314.56588 478.16573 L317.85293 474.46301 L321.34474 471.02681 L325.02566 467.85931 L328.88001 464.96268 L332.89212 462.33911 L337.04634 459.99077 L341.32701 457.91985 L345.71844 456.12853 L350.20499 454.61899 L354.77098 453.39341 L359.40075 452.45396 L364.07864 451.80284 L368.78898 451.44221 L373.51611 451.37427 L378.24435 451.60118 L382.95806 452.12514 L387.64156 452.94832 L392.27918 454.0729 L396.85527 455.50106 L401.35415 457.23499 L405.76017 459.27686 L410.05765 461.62885 L414.23094 464.29315 L418.26437 467.27193 L422.14227 470.56737 L425.84899 474.18166 L429.36884 478.11698 L431.0538 480.20571 L431.0538 480.20571 L432.66719 482.3502 L435.62251 486.72538 L438.22087 491.20325 L440.4682 495.76916 L442.37046 500.40846 L443.93358 505.10649 L445.16351 509.84859 L446.06619 514.62011 L446.64757 519.40639 L446.91359 524.19277 L446.8702 528.9646 L446.52334 533.70722 L445.87895 538.40598 L444.94298 543.04621 L443.72137 547.61327 L442.22007 552.09249 L440.44501 556.46922 L438.40215 560.72881 L436.09743 564.85659 L433.53679 568.83792 L430.72618 572.65813 L427.67154 576.30256 L424.37881 579.75657 L420.85394 583.0055 L417.10288 586.03468 L413.13156 588.82947 L408.94593 591.37521 L404.55194 593.65724 L399.95552 595.6609 L395.16263 597.37154 L390.17921 598.7745 L385.0112 599.85512 L382.35983 600.26998" />
    <path d="M332.94985 602.80654 L329.92874 601.1884 L324.10075 597.60377 L318.5803 593.57064 L313.39364 589.10819 L310.93368 586.72196" />
    <path d="M414.24504 613.79252 L411.68501 614.98141 L406.52428 617.1177 L401.31835 618.93608 L396.07802 620.4414 L390.81409 621.63855 L385.53737 622.5324 L380.25867 623.12781 L374.98879 623.42967 L369.73854 623.44283 L364.51873 623.17219 L359.34016 622.6226 L354.21365 621.79893 L349.14999 620.70607 L344.15999 619.34889 L339.25446 617.73225 L334.44421 615.86103 L329.74004 613.7401 L325.15276 611.37433 L320.69318 608.7686 L316.37209 605.92778 L312.20032 602.85674 L308.18866 599.56034 L304.34793 596.04348 L300.68892 592.31101 L297.22245 588.3678 L293.95932 584.21874 L290.91033 579.86869 L288.08631 575.32253 L285.49804 570.58513 L283.15634 565.66135 L281.07201 560.55608 L279.25587 555.27419 L278.45174 552.56853" />
    <path d="M271.12551 565.92233 L269.76117 562.27809 L267.44536 554.98107 L265.66814 547.68762 L264.41523 540.41569 L263.67234 533.18323 L263.42521 526.00818 L263.65955 518.90849 L264.36108 511.9021 L265.51553 505.00696 L267.10862 498.24102 L269.12607 491.62222 L271.55361 485.16851 L274.37695 478.89783 L277.58181 472.82813 L281.15393 466.97735 L285.07902 461.36345 L289.34279 456.00436 L293.93099 450.91803 L298.82932 446.12242 L304.02351 441.63546 L309.49928 437.47509 L315.24235 433.65928 L321.23845 430.20595 L327.47329 427.13307 L333.93261 424.45857 L340.60211 422.2004 L347.46753 420.3765 L354.51458 419.00482 L361.72898 418.10332 L369.09647 417.68992 L376.60275 417.78259 L384.23356 418.39925 L388.0912 418.9097 L388.0912 418.9097 L390.84298 419.35679 L396.26375 420.44921 L401.56938 421.79957 L406.75417 423.40021 L411.81246 425.24352 L416.73853 427.32183 L421.52671 429.62751 L426.1713 432.15292 L430.66663 434.89042 L435.00698 437.83236 L439.18669 440.9711 L443.20005 444.29901 L447.04139 447.80843 L450.705 451.49173 L454.18521 455.34126 L457.47631 459.34939 L460.57264 463.50847 L463.46848 467.81086 L466.15816 472.24892 L468.63599 476.81501 L470.89628 481.50148 L472.93333 486.30069 L474.74146 491.20501 L476.31498 496.20678 L477.6482 501.29837 L478.73544 506.47214 L479.57099 511.72044 L480.14918 517.03564 L480.46432 522.41009 L480.5107 527.83614 L480.28266 533.30616 L479.77449 538.81251 L479.41359 541.57692" />
    <path d="M444.61535 621.35662 L441.15732 623.90196 L434.10791 628.55693 L426.90018 632.63906 L419.55747 636.15811 L412.10313 639.12383 L404.56051 641.54598 L396.95296 643.43432 L389.30383 644.7986 L381.63646 645.64858 L373.97422 645.99401 L366.34044 645.84464 L358.75847 645.21024 L351.25167 644.10056 L343.84338 642.52535 L336.55695 640.49438 L329.41574 638.01739 L322.44309 635.10414 L315.66235 631.76438 L309.09686 628.00788 L302.76999 623.84439 L296.70508 619.28366 L290.92547 614.33544 L285.45451 609.00951 L280.31557 603.3156 L275.53198 597.26348 L271.12709 590.8629 L267.12425 584.12361 L263.54682 577.05538 L260.41814 569.66795 L257.76156 561.97109 L255.60043 553.97455 L253.9581 545.68808 L253.33878 541.43917 L253.33878 541.43917 L252.86346 537.17175 L252.35684 528.73931 L252.42548 520.45616 L253.04925 512.33766 L254.20803 504.39915 L255.88169 496.65598 L258.05012 489.12348 L260.69318 481.81699 L263.79076 474.75187 L267.32274 467.94346 L271.26898 461.40709 L275.60937 455.15812 L280.32378 449.21188 L285.3921 443.58371 L290.79419 438.28897 L296.50993 433.343 L302.51921 428.76113 L308.80189 424.55871 L315.33786 420.75109 L322.10699 417.3536 L329.08915 414.38159 L336.26423 411.85041 L343.61211 409.7754 L351.11265 408.17189 L358.74574 407.05524 L366.49125 406.44079 L374.32906 406.34387 L382.23904 406.77984 L390.20108 407.76404 L398.19505 409.3118 L406.20082 411.43848 L414.19828 414.15941 L418.1876 415.74752" />
    <path d="M327.58401 649.30411 L323.98924 647.9478 L316.99874 644.96333 L310.27825 641.62929 L303.83331 637.96115 L297.66944 633.97439 L291.79218 629.6845 L286.20706 625.10694 L280.9196 620.2572 L275.93534 615.15075 L271.25982 609.80307 L266.89855 604.22963 L262.85707 598.44593 L259.14092 592.46742 L255.75562 586.3096 L252.7067 579.98793 L249.9997 573.5179 L247.64014 566.91498 L245.63356 560.19466 L243.98549 553.3724 L242.70146 546.46368 L241.787 539.48399 L241.24764 532.4488 L241.08891 525.37359 L241.31634 518.27384 L241.93546 511.16502 L242.95181 504.06261 L244.37091 496.98209 L246.1983 489.93893 L248.43951 482.94862 L251.10006 476.02663 L254.1855 469.18844 L257.70134 462.44952 L259.62239 459.12213" />
    <path d="M417.256 660.92517 L412.39521 662.46511 L402.69026 665.00415 L393.02627 666.83863 L383.42575 667.98844 L373.91122 668.47348 L364.50521 668.31364 L355.23025 667.52882 L346.10885 666.1389 L337.16354 664.16378 L328.41683 661.62335 L319.89126 658.53751 L311.60935 654.92615 L303.59361 650.80915 L295.86657 646.20643 L288.45075 641.13786 L281.36868 635.62334 L274.64288 629.68277 L268.29587 623.33603 L262.35017 616.60303 L256.8283 609.50365 L251.75279 602.05778 L247.14617 594.28533 L243.03094 586.20617 L239.42964 577.84022 L236.36479 569.20735 L233.85892 560.32746 L231.93453 551.22045 L230.61416 541.90621 L229.92033 532.40463 L229.87556 522.7356 L230.50237 512.91902 L231.82329 502.97478 L232.75108 497.961 L232.75108 497.961 L233.82044 493.1167 L236.44133 483.61975 L239.68592 474.3991 L243.53123 465.47965 L247.95425 456.88628 L252.93199 448.6439 L258.44145 440.77739 L264.45964 433.31166 L270.96354 426.27158 L277.93017 419.68206 L285.33654 413.56799 L293.15963 407.95426 L301.37646 402.86577 L309.96403 398.3274 L318.89933 394.36406 L328.15938 391.00064 L332.90399 389.55167" />
    <path d="M507.59165 597.89478 L506.28097 600.32218 L503.56028 605.06828 L500.71054 609.6693 L497.73578 614.12508 L494.64007 618.43548 L491.42745 622.60035 L488.10197 626.61954 L484.66768 630.4929 L479.32108 636.02917 L471.84926 642.89906 L464.0151 649.18293 L455.85101 654.87958 L447.38938 659.98781 L438.66261 664.50643 L429.70311 668.43423 L420.54327 671.77003 L411.2155 674.51261 L401.75219 676.66079 L392.18575 678.21336 L382.54857 679.16913 L372.87306 679.52689 L363.19161 679.28546 L353.53664 678.44363 L343.94052 677.0002 L334.43568 674.95398 L325.0545 672.30377 L315.82939 669.04837 L306.79274 665.18658 L297.97697 660.7172 L289.41446 655.63904 L281.13761 649.9509 L273.17884 643.65158 L267.43798 638.52528 L263.72702 634.91613 L260.11379 631.15351 L256.60236 627.23728 L253.19677 623.16727 L249.90107 618.94335 L246.71931 614.56535 L243.65555 610.03314 L242.16918 607.70916 L242.16918 607.70916 L239.84341 603.88134 L235.55131 596.06859 L231.7403 588.06449 L228.41256 579.89077 L225.5703 571.56917 L223.21572 563.12144 L221.351 554.56931 L219.97834 545.93454 L219.09995 537.23885 L218.71801 528.504 L218.83473 519.75172 L219.45229 511.00376 L220.5729 502.28185 L222.19876 493.60774 L224.33205 485.00317 L226.97497 476.48988 L228.48824 472.27427" />
    <path d="M533.8185 495.97624 L534.63333 500.72449 L535.84359 510.27415 L536.49327 519.87413 L536.58071 529.49977 L536.41306 534.31451" />
    <path d="M547.80473 529.42422 L547.71965 532.58544 L547.39165 538.84804 L546.85657 545.02899 L546.11848 551.12604 L545.18145 557.13694 L544.04953 563.05944 L542.7268 568.8913 L541.21731 574.63026 L539.52515 580.27408 L537.65436 585.82051 L535.60902 591.2673 L533.3932 596.6122 L531.01095 601.85296 L528.46635 606.98734 L525.76345 612.01309 L522.90634 616.92796 L519.89906 621.72969 L516.74569 626.41605 L513.45029 630.98479 L510.01693 635.43365 L506.44967 639.76038 L502.75258 643.96275 L498.92973 648.0385 L494.98517 651.98537 L488.84905 657.65915 L480.27955 664.75216 L471.29643 671.28923 L461.93222 677.25238 L452.21944 682.62361 L442.19061 687.38494 L431.87827 691.51839 L421.31494 695.00596 L413.24729 697.18697 L407.80737 698.42977 L402.32299 699.50098 L396.79822 700.39836 L391.23713 701.11966 L385.64379 701.66263 L380.02225 702.02502 L374.37659 702.20458 L368.71088 702.19907 L363.02916 702.00624 L357.33552 701.62383 L351.63402 701.0496 L345.92872 700.2813 L340.22369 699.31668 L334.523 698.1535 L328.8307 696.78951 L323.15087 695.22245 L317.48758 693.45009 L311.84488 691.47016 L306.22684 689.28043 L300.63753 686.87864 L295.08102 684.26255 L289.56136 681.42991 L284.08263 678.37846 L281.35988 676.76999 L281.35988 676.76999 L278.93849 675.285 L274.17051 672.19944 L269.50529 668.96191 L264.94648 665.57492 L262.70813 663.82618" />
    <path d="M470.00551 366.88225 L474.60131 369.79862 L483.44218 375.94942 L491.81264 382.50537 L499.70936 389.44376 L507.12903 396.74185 L514.06834 404.37692 L520.52397 412.32626 L526.4926 420.56713 L531.97091 429.07682 L536.95559 437.83261 L541.44333 446.81176 L545.4308 455.99156 L548.9147 465.34929 L551.8917 474.86222 L554.35848 484.50762 L556.31174 494.26279 L557.74816 504.10499 L558.66441 514.0115 L559.05719 523.9596 L558.92318 533.92656 L558.25905 543.88967 L557.0615 553.8262 L555.32721 563.71342 L553.05286 573.52862 L550.23513 583.24907 L546.87072 592.85205 L542.9563 602.31484 L538.48855 611.61471 L533.46417 620.72894 L527.87983 629.63481 L521.73222 638.3096 L515.01802 646.73058 L511.44741 650.83879" />
    <path d="M386.3128 723.89547 L382.75394 724.12202 L375.68732 724.39175 L368.6913 724.4206 L361.76883 724.21291 L354.92283 723.77302 L348.15625 723.10526 L341.47203 722.21397 L334.8731 721.10349 L328.36242 719.77815 L321.94291 718.24229 L315.61751 716.50024 L309.38917 714.55635 L303.26082 712.41495 L297.2354 710.08038 L291.31585 707.55697 L285.50512 704.84906 L279.80613 701.96099 L274.22184 698.89709 L268.75517 695.66171 L263.40907 692.25917 L258.18647 688.69382 L253.09033 684.96999 L248.12357 681.09202 L243.28913 677.06424 L238.58996 672.891 L234.02898 668.57662 L229.60916 664.12545 L225.33341 659.54183 L221.20468 654.83008 L217.22591 649.99455 L213.40005 645.03957 L209.73002 639.96948 L206.21876 634.78862 L202.86923 629.50132 L199.68435 624.11192 L196.66706 618.62476 L193.82031 613.04417 L191.14703 607.37449 L188.65017 601.62006 L186.33265 595.78522 L184.19743 589.87429 L182.24744 583.89163 L180.48562 577.84156 L178.9149 571.72842 L177.53824 565.55654 L176.35856 559.33028 L175.37881 553.05395 L174.60192 546.73191 L174.03084 540.36848 L173.6685 533.968 L173.51784 527.53481 L173.58181 521.07325 L173.86334 514.58764 L174.36537 508.08234 L175.09084 501.56168 L176.04268 495.02999 L177.22385 488.49161 L178.63727 481.95087 L180.2859 475.41212 L182.17265 468.87969 L184.30048 462.35792 L186.67233 455.85114 L189.29113 449.3637 L192.15982 442.89992 L193.6888 439.67826 L193.6888 439.67826 L195.27203 436.48291 L198.57175 430.22818 L202.04477 424.15502 L205.68587 418.26383 L209.48983 412.55496 L213.45142 407.02881 L217.56541 401.68575 L221.82658 396.52616 L226.2297 391.55041 L230.76955 386.75888 L235.4409 382.15195 L240.23853 377.72999 L245.15721 373.49338 L250.19172 369.44251 L255.33683 365.57773 L260.58732 361.89944 L265.93795 358.40801 L271.38351 355.10382 L276.91877 351.98724 L282.5385 349.05865 L288.23749 346.31842 L294.01049 343.76695 L299.85229 341.40459 L305.75767 339.23173 L311.72139 337.24875 L317.73824 335.45602 L323.80298 333.85392 L329.91039 332.44283 L336.05524 331.22312 L342.23232 330.19518 L348.43639 329.35937 L354.66223 328.71607 L360.90462 328.26567 L367.15832 328.00853 L373.41812 327.94505 L379.67878 328.07558 L385.93509 328.40052 L392.18181 328.92023 L398.41373 329.6351 L404.62561 330.54549 L410.81223 331.6518 L416.96837 332.95439 L423.08879 334.45364 L429.16828 336.14993 L435.20161 338.04364 L441.18356 340.13514 L447.10889 342.42481 L452.97239 344.91303 L458.76882 347.60018 L464.49297 350.48662 L470.1396 353.57274 L475.7035 356.85892 L481.17943 360.34553 L486.56217 364.03295 L491.84649 367.92156 L497.02718 372.01173 L502.099 376.30384 L507.05673 380.79827 L511.89514 385.49539 L516.60902 390.39559 L521.19312 395.49923 L525.64223 400.8067 L529.95113 406.31837 L534.11458 412.03462 L536.14013 414.96958" />
    <path d="M466.31888 713.21497 L461.23995 715.68974 L450.93397 720.20688 L440.45021 724.1467 L429.81233 727.50822 L419.04396 730.29045 L408.16877 732.49244 L397.2104 734.1132 L386.19252 735.15176 L375.13876 735.60714 L364.07278 735.47838 L353.01823 734.76449 L341.99877 733.4645 L331.03804 731.57744 L320.15971 729.10234 L309.3874 726.03821 L298.74479 722.38409 L293.47951 720.33547" />
    <path d="M449.92261 319.70988 L455.45238 321.87908 L466.23345 326.60706 L476.63617 331.83763 L486.6521 337.55048 L496.2728 343.72533 L505.48982 350.34191 L514.29473 357.37992 L522.67907 364.81908 L530.6344 372.6391 L538.15229 380.8197 L545.22428 389.3406 L551.84194 398.18151 L557.99682 407.32214 L563.68047 416.74222 L568.88446 426.42145 L573.60034 436.33955 L577.81967 446.47624 L581.534 456.81123 L584.73489 467.32424 L587.41389 477.99497 L589.56257 488.80316 L591.17248 499.72851 L592.23518 510.75074 L592.74222 521.84956 L592.68516 533.00468 L592.05555 544.19583 L590.84496 555.40272 L589.04494 566.60507 L586.64704 577.78258 L583.64283 588.91497 L580.02385 599.98197 L575.78167 610.96328 L573.42424 616.41546" />
    <path d="M195.87318 375.39794 L198.61243 372.25167 L204.20138 366.15248 L209.93259 360.31017 L215.80003 354.72362 L221.79768 349.39169 L227.91952 344.31326 L234.15951 339.48722 L240.51164 334.91244 L246.96988 330.58779 L253.5282 326.51216 L260.18058 322.68442 L266.92099 319.10344 L273.74342 315.7681 L280.64183 312.67729 L287.6102 309.82987 L294.64251 307.22473 L301.73273 304.86074 L308.87483 302.73678 L316.06279 300.85172 L323.29059 299.20444 L330.5522 297.79382 L337.8416 296.61874 L345.15276 295.67807 L352.47966 294.97069 L359.81627 294.49548 L367.15656 294.25131 L374.49452 294.23706 L381.82411 294.4516 L389.13932 294.89382 L396.43412 295.56259 L403.70248 296.45679 L410.93837 297.57529 L418.13578 298.91698 L425.28868 300.48072 L432.39105 302.2654 L439.43685 304.26989 L446.42006 306.49307 L453.33467 308.93381 L460.17464 311.591 L466.93395 314.46351 L473.60657 317.55021 L480.18648 320.84999 L486.66766 324.36172 L493.04408 328.08428 L499.30971 332.01654 L505.45854 336.15738 L511.48453 340.50568 L517.38166 345.06031 L523.14391 349.82016 L528.76525 354.78409 L534.23965 359.95099 L539.5611 365.31973 L544.72356 370.8892 L549.72102 376.65826 L554.54744 382.62579 L559.19681 388.79067 L563.66309 395.15178 L567.94027 401.70799 L572.02231 408.45819 L575.9032 415.40124 L579.5769 422.53603 L583.0374 429.86142 L586.27867 437.37631 L589.29468 445.07956 L590.71633 449.00147 L590.71633 449.00147 L592.58592 454.51802 L595.8961 465.64349 L598.6353 476.87443 L600.80475 488.1896 L602.40567 499.56777 L603.4393 510.98769 L603.90687 522.42813 L603.8096 533.86783 L603.14872 545.28557 L601.92547 556.66011 L600.14108 567.9702 L597.79676 579.1946 L594.89376 590.31207 L591.4333 601.30138 L587.4166 612.14128 L582.84491 622.81054 L580.35133 628.07453" />
    <path d="M612.64296 561.05645 L611.97899 565.37923 L610.44481 573.91538 L608.64065 582.30365 L606.57245 590.54165 L604.24619 598.627 L601.66784 606.55733 L598.84336 614.33025 L595.77872 621.94338 L592.47989 629.39434 L588.95284 636.68075 L585.20353 643.80023 L581.23793 650.7504 L577.06202 657.52887 L572.68175 664.13326 L568.10309 670.5612 L563.33202 676.8103 L558.3745 682.87818 L553.2365 688.76246 L547.92398 694.46076 L542.44291 699.97069 L536.79927 705.28989 L530.99902 710.41595 L525.04812 715.34652 L518.95254 720.07919 L512.71826 724.6116 L506.35124 728.94136 L499.85744 733.06609 L493.24284 736.98341 L486.5134 740.69093 L479.67509 744.18628 L472.73387 747.46708 L465.69573 750.53094 L458.56661 753.37548 L451.3525 755.99833 L444.05935 758.39709 L436.69314 760.5694 L429.25983 762.51287 L421.7654 764.22511 L414.2158 765.70375 L406.61701 766.9464 L398.975 767.95069 L391.29572 768.71423 L383.58516 769.23464 L375.84927 769.50955 L368.09403 769.53656 L360.32539 769.3133 L352.54934 768.83739 L344.77184 768.10645 L336.99885 767.11809 L329.23635 765.86993 L321.4903 764.3596 L313.76666 762.58471 L306.07141 760.54288 L298.41051 758.23173 L290.78994 755.64888 L283.21566 752.79194 L275.69363 749.65854 L268.22982 746.2463 L260.83021 742.55283 L253.50076 738.57576 L246.24743 734.31269 L239.0762 729.76126 L231.99303 724.91907 L225.0039 719.78376 L221.54645 717.10543 L221.54645 717.10543 L218.1348 714.36902 L211.50936 708.77231 L205.14699 703.01573 L199.04678 697.10561 L193.20778 691.04834 L187.62909 684.85025 L182.30979 678.51772 L177.24894 672.0571 L172.44563 665.47475 L167.89894 658.77703 L163.60795 651.97029 L159.57173 645.06091 L155.78936 638.05522 L152.25992 630.9596 L148.98249 623.7804 L145.95615 616.52398 L143.17997 609.1967 L140.65303 601.80492 L138.37442 594.355 L136.34321 586.85329 L134.55847 579.30615 L133.0193 571.71995 L131.72475 564.10104 L130.67392 556.45578 L129.86588 548.79053 L129.29971 541.11164 L128.97449 533.42549 L128.8893 525.73841 L129.04321 518.05678 L129.4353 510.38696 L130.06465 502.73529 L130.93035 495.10815 L132.03146 487.51188 L133.36706 479.95285 L134.93624 472.43742 L136.73807 464.97194 L138.77164 457.56278 L141.03601 450.21628 L143.53027 442.93882 L146.2535 435.73675 L149.20476 428.61643 L152.38316 421.58421 L155.78775 414.64646 L159.41762 407.80953 L163.27185 401.07979 L167.34951 394.46358 L171.64968 387.96728 L176.17145 381.59724 L180.91389 375.35981 L185.87608 369.26137 L191.05709 363.30825 L196.45601 357.50683 L202.07191 351.86347 L207.90387 346.38451 L213.95097 341.07633 L220.21229 335.94527 L226.68691 330.9977 L233.3739 326.23998 L240.27235 321.67846 L247.38132 317.31951 L254.69991 313.16947 L262.22718 309.23472 L269.96222 305.52161 L277.9041 302.0365 L281.95232 300.38143" />
    <path d="M487.06307 299.34312 L491.98784 301.90739 L501.60941 307.31989 L510.92208 313.10021 L519.91994 319.2354 L528.59708 325.71252 L536.94761 332.51862 L544.96559 339.64074 L552.64514 347.06595 L559.98033 354.7813 L566.96526 362.77383 L573.59403 371.0306 L579.86071 379.53866 L585.7594 388.28506 L591.2842 397.25686 L596.42919 406.4411 L601.18846 415.82484 L605.55611 425.39513 L609.52622 435.13903 L613.09289 445.04358 L616.25021 455.09583 L618.99227 465.28285 L621.31315 475.59167 L623.20696 486.00936 L624.66778 496.52297 L625.68969 507.11954 L626.26681 517.78612 L626.3932 528.50978 L626.06297 539.27756 L625.2702 550.07652 L624.00899 560.8937 L622.27343 571.71617 L620.0576 582.53096 L618.76775 587.93143" />
    <path d="M275.84963 773.69564 L272.47619 772.35799 L265.80036 769.55163 L259.22151 766.57287 L252.74235 763.42449 L246.36558 760.1093 L240.09392 756.63009 L233.93006 752.98964 L227.87671 749.19077 L221.93658 745.23626 L216.11237 741.1289 L210.40679 736.8715 L204.82255 732.46684 L199.36234 727.91771 L194.02888 723.22693 L188.82487 718.39727 L183.75302 713.43153 L178.81603 708.3325 L174.0166 703.10299 L169.35745 697.74579 L164.84128 692.26368 L160.47079 686.65947 L156.24869 680.93595 L152.17769 675.09591 L148.26048 669.14214 L144.49979 663.07745 L140.89831 656.90463 L137.45874 650.62646 L134.1838 644.24575 L131.07618 637.76529 L128.13861 631.18788 L125.37377 624.5163 L122.78437 617.75335 L121.55632 614.33849" />
    <path d="M601.68635 680.6752 L598.87222 684.7827 L593.08636 692.78366 L587.09645 700.49967 L580.90979 707.93125 L574.53369 715.07888 L567.97543 721.94307 L561.24232 728.52432 L554.34165 734.82313 L547.28072 740.84001 L540.06683 746.57545 L532.70727 752.02996 L525.20935 757.20404 L517.58036 762.09819 L509.8276 766.7129 L501.95837 771.0487 L493.97995 775.10606 L485.89967 778.88551 L477.72479 782.38753 L469.46264 785.61263 L461.1205 788.56131 L452.70567 791.23407 L444.22545 793.63142 L435.68714 795.75385 L427.09803 797.60187 L418.46543 799.17597 L409.79662 800.47667 L401.09891 801.50446 L392.3796 802.25984 L383.64597 802.74331 L374.90534 802.95538 L366.165 802.89655 L357.43224 802.56732 L348.71436 801.96818 L340.01867 801.09965 L331.35245 799.96223 L322.723 798.5564 L314.13763 796.88269 L305.60363 794.94158 L297.1283 792.73358 L288.71894 790.2592 L280.38284 787.51892 L272.1273 784.51326 L263.95961 781.24272 L255.88709 777.70779 L247.91701 773.90898 L240.05669 769.84679 L232.31342 765.52173 L224.6945 760.93429 L217.20721 756.08497 L209.85887 750.97428 L202.65677 745.60271 L195.60821 739.97078 L188.72048 734.07897 L182.00088 727.9278 L175.45671 721.51777 L169.09527 714.84936 L162.92386 707.9231 L156.94976 700.73947 L151.18029 693.29899 L145.62273 685.60214 L140.28439 677.64944 L135.17256 669.44139 L130.29454 660.97847 L125.65763 652.26121 L123.43187 647.80736 L123.43187 647.80736 L121.45661 643.68788 L117.72876 635.41709 L114.29538 627.10809 L111.15355 618.76599 L108.30036 610.3959 L105.73289 602.0029 L103.44824 593.59211 L101.44347 585.16863 L99.71569 576.73756 L98.26197 568.304 L97.07941 559.87306 L96.16508 551.44983 L95.51607 543.03943 L95.12947 534.64695 L95.00237 526.27749 L95.13184 517.93616 L95.51498 509.62806 L96.14886 501.3583 L97.03059 493.13197 L98.15723 484.95418 L99.52588 476.83003 L101.13363 468.76462 L102.97755 460.76306 L105.05473 452.83044 L107.36226 444.97188 L109.89723 437.19247 L112.65672 429.49731 L115.63781 421.89151 L118.83759 414.38017 L122.25315 406.9684 L125.88157 399.66129 L129.71994 392.46395 L133.76534 385.38148 L138.01486 378.41898 L142.46558 371.58156 L147.1146 364.87432 L151.95898 358.30235 L156.99583 351.87077 L162.22223 345.58468 L167.63525 339.44917 L173.232 333.46935 L179.00954 327.65033 L184.96498 321.9972 L191.09538 316.51507 L197.39785 311.20904 L203.86946 306.08422 L210.5073 301.14569 L217.30846 296.39858 L224.27002 291.84798 L231.38907 287.49899 L238.66268 283.35672 L246.08796 279.42626 L253.66198 275.71273 L261.38183 272.22121 L269.24459 268.95683 L277.24735 265.92467 L285.3872 263.12984 L293.66122 260.57744 L302.0665 258.27259 L310.60012 256.22036 L319.25916 254.42588 L328.04072 252.89425 L336.94188 251.63055 L345.95972 250.63991 L350.51149 250.24858" />
    <path d="M457.15423 251.05156 L462.99108 252.92471 L474.47626 257.01477 L485.70287 261.55293 L496.66226 266.52691 L507.3458 271.92445 L517.74485 277.73325 L527.85078 283.94104 L537.65493 290.53553 L547.14867 297.50446 L556.32337 304.83553 L565.17038 312.51648 L573.68106 320.53501 L581.84678 328.87886 L589.6589 337.53574 L597.10877 346.49337 L604.18776 355.73947 L610.88722 365.26177 L617.19853 375.04798 L623.11303 385.08583 L628.62209 395.36303 L633.71708 405.86731 L638.38935 416.58638 L642.63025 427.50797 L646.43117 438.6198 L649.78344 449.90959 L652.67844 461.36506 L655.10753 472.97393 L657.06206 484.72392 L658.53341 496.60275 L659.51291 508.59814 L659.99195 520.69781 L659.96188 532.88949 L659.75322 539.01599" />
    <path d="M613.40788 703.02347 L610.85129 706.46238 L605.62368 713.19603 L600.24713 719.73717 L594.726 726.08546 L589.06465 732.24057 L583.26746 738.20215 L577.33879 743.96987 L571.28301 749.54338 L565.10447 754.92234 L558.80756 760.10642 L552.39662 765.09528 L545.87604 769.88857 L539.25017 774.48596 L532.52338 778.88711 L525.70004 783.09167 L518.78451 787.09931 L511.78117 790.90969 L504.69436 794.52246 L497.52847 797.9373 L490.28785 801.15385 L482.97688 804.17178 L475.59991 806.99075 L468.16132 809.61042 L460.66547 812.03045 L453.11673 814.2505 L445.51946 816.27023 L437.87803 818.08931 L430.1968 819.70738 L422.48014 821.12412 L414.73242 822.33917 L406.958 823.35221 L399.16125 824.1629 L391.34653 824.77088 L383.51821 825.17583 L375.68066 825.3774 L367.83824 825.37526 L359.99532 825.16906 L352.15626 824.75846 L344.32543 824.14313 L336.5072 823.32273 L328.70592 822.29691 L320.92598 821.06534 L313.17173 819.62767 L305.44754 817.98357 L297.75777 816.1327 L290.10679 814.07471 L282.49898 811.80927 L274.93868 809.33604 L267.43027 806.65468 L259.97812 803.76484 L252.58659 800.6662 L245.26005 797.3584 L238.00286 793.84112 L230.81939 790.114 L223.714 786.17671 L216.69106 782.02892 L209.75494 777.67027 L202.91 773.10044 L196.16061 768.31908 L189.51114 763.32585 L182.96594 758.12041 L176.5294 752.70242 L170.20586 747.07155 L163.9997 741.22745 L160.942 738.22533" />
    <path d="M675.14387 459.09069 L676.11393 463.634 L677.84866 472.75651 L679.30902 481.92169 L680.4944 491.12335 L681.40419 500.3553 L682.03778 509.61134 L682.39457 518.88528 L682.47394 528.17092 L682.4094 532.81619" />
    <path d="M396.6916 205.47305 L402.45709 205.96516 L413.86196 207.23135 L425.09561 208.86711 L436.15439 210.86478 L447.0346 213.21668 L457.73258 215.91515 L468.24466 218.95253 L478.56715 222.32114 L488.69639 226.01333 L498.62871 230.02142 L508.36042 234.33776 L517.88786 238.95466 L527.20734 243.86448 L536.31521 249.05954 L545.20777 254.53217 L553.88137 260.27472 L562.33232 266.27951 L570.55695 272.53887 L578.55158 279.04515 L586.31255 285.79067 L593.83618 292.76777 L601.1188 299.96879 L608.15672 307.38605 L614.94629 315.0119 L621.48381 322.83866 L627.76563 330.85866 L633.78806 339.06425 L639.54743 347.44776 L645.04007 356.00152 L650.2623 364.71786 L655.21046 373.58912 L659.88085 382.60764 L664.26983 391.76574 L668.37369 401.05576 L672.18879 410.47003 L675.71143 420.00089 L678.93795 429.64068 L681.86467 439.38172 L684.48792 449.21635 L686.80402 459.1369 L688.8093 469.13572 L690.50009 479.20512 L691.87272 489.33745 L692.9235 499.52504 L693.64876 509.76022 L694.04484 520.03533 L694.10805 530.3427 L693.83473 540.67466 L693.22119 551.02355 L692.26377 561.38171 L690.9588 571.74146 L689.30258 582.09515 L687.29146 592.4351 L684.92177 602.75364 L682.18981 613.04312 L679.09193 623.29587 L675.62444 633.50422 L671.78368 643.6605 L667.56597 653.75704 L662.96763 663.7862 L657.985 673.74028 L652.61439 683.61164 L646.85214 693.3926 L640.69457 703.07549 L637.46639 707.87777 L637.46639 707.87777 L633.96142 712.8947 L626.67512 722.7152 L619.02784 732.2432 L611.02865 741.46903 L602.68656 750.38304 L594.01063 758.97556 L585.0099 767.23693 L575.6934 775.1575 L570.91956 778.98696" />
    <path d="M604.34213 287.7609 L609.09371 292.48376 L618.26434 302.16115 L626.98948 312.13527 L635.26655 322.39151 L643.09299 332.91528 L650.46622 343.69198 L657.38368 354.707 L663.84278 365.94575 L669.84096 377.39362 L675.37565 389.03602 L680.44427 400.85834 L685.04426 412.84599 L689.17305 424.98437 L692.82805 437.25887 L696.00671 449.6549 L698.70644 462.15785 L700.92469 474.75313 L702.65887 487.42613 L703.90642 500.16226 L704.66476 512.94691 L704.93132 525.76549 L704.70354 538.60339 L703.97883 551.44602 L702.75464 564.27878 L701.02838 577.08706 L698.79749 589.85626 L696.05939 602.57179 L692.81152 615.21904 L689.0513 627.78342 L684.77616 640.25033 L679.98353 652.60515 L674.67084 664.83331 L671.81867 670.89532" />
  </g>
</svg>