<?xml version="1.0" standalone="no"?>
<!DOCTYPE svg PUBLIC "-//W3C//DTD SVG 1.1//EN" 
    "http://www.w3.org/Graphics/SVG/1.1/DTD/svg11.dtd">
<svg width="2480px" height="3508px"
    xmlns="http://www.w3.org/2000/svg" version="1.1" viewBox="0 0 2480 3508">
  <g fill="none" stroke="black" stroke-width="1.06299px">
    <path d="M620 1134 L1860 1134" />
    <path d="M1860 1134 L1860 2374" />
    <path d="M1860 2374 L620 2374" />
    <path d="M620 2374 L620 1134" />
    <path d="M654.2908114356619 1101.508815054713 L1983.698136373941 1289.5507756988636" />
    <path d="M1892.491184945287 1168.290811435662 L1704.4492243011364 2497.698136373941" />
    <path d="M1825.709188564338 2406.491184945287 L496.3018636260591 2218.4492243011364" />
    <path d="M587.5088150547131 2339.709188564338 L775.5507756988637 1010.3018636260591" />
    <path d="M817.1320321218961 985.8966985211932 L2022.35176692765 1358.114015422137" />
    <path d="M2008.1033014788068 1331.1320321218961 L1635.885984577863 2536.35176692765" />
    <path d="M1662.8679678781039 2522.1033014788068 L457.64823307234997 2149.885984577863" />
    <path d="M471.89669852119323 2176.8679678781036 L844.1140154221371 971.64823307235" />
    <path d="M1235.405594574393 877.1996285135451 L2105.053883752853 1610.8854367854005" />
    <path d="M2116.800371486455 1749.405594574393 L1383.1145632145995 2619.053883752853" />
    <path d="M1244.594405425607 2630.800371486455 L374.9461162471471 1897.1145632145995" />
    <path d="M363.1996285135451 1758.594405425607 L1096.8854367854005 888.9461162471471" />
    <path d="M1050.9017784857951 897.8213605676881 L2113.080216615748 1834.8142026762525" />
    <path d="M2096.1786394323117 1564.9017784857951 L1159.1857973237475 2627.080216615748" />
    <path d="M1429.0982215142049 2610.1786394323117 L366.9197833842519 1673.1857973237475" />
    <path d="M383.8213605676881 1943.0982215142049 L1320.8142026762525 880.9197833842519" />
    <path d="M875.6898409009036 956.4549492491406 L2008.2666861807907 1331.4289421827534" />
    <path d="M2037.5450507508594 1389.6898409009036 L1662.5710578172466 2522.2666861807907" />
    <path d="M1604.3101590990964 2551.5450507508594 L471.73331381920946 2176.5710578172466" />
    <path d="M442.45494924914055 2118.3101590990964 L817.4289421827535 985.7333138192095" />
    <path d="M1428.5704526249278 897.7049664999627 L2073.3287513650716 2026.6961535268338" />
    <path d="M2096.2950335000373 1942.5704526249278 L967.3038464731662 2587.3287513650716" />
    <path d="M1051.4295473750722 2610.2950335000373 L406.67124863492836 1481.3038464731662" />
    <path d="M383.70496649996267 1565.4295473750722 L1512.6961535268338 920.6712486349284" />
    <path d="M678.390825370046 1080.6537777848148 L1916.9730744238552 1196.768040664291" />
    <path d="M1913.3462222151852 1192.390825370046 L1797.231959335709 2430.973074423855" />
    <path d="M1801.609174629954 2427.346222215185 L563.0269255761448 2311.231959335709" />
    <path d="M566.6537777848147 2315.609174629954 L682.768040664291 1077.0269255761448" />
    <path d="M2009.5445059538652 1333.7604809680302 L2068.836652192925 2040.0590917653626" />
    <path d="M1660.2395190319698 2523.544505953865 L953.9409082346374 2582.836652192925" />
    <path d="M470.45549404613473 2174.23951903197 L411.16334780707484 1467.9409082346374" />
    <path d="M819.76048096803 984.4554940461347 L1526.0590917653626 925.1633478070748" />
    <path d="M2111.099780201931 1853.925837160105 L2108.944838208145 1871.1958538149738" />
    <path d="M1140.074162839895 2625.099780201931 L1122.8041461850262 2622.944838208145" />
    <path d="M368.9002197980692 1654.074162839895 L371.05516179185497 1636.8041461850262" />
    <path d="M1339.925837160105 882.9002197980692 L1357.1958538149738 885.055161791855" />
    <path d="M2102.683567296701 1910.7707329709172 L1069.2333401484368 2614.0225275439825" />
    <path d="M1083.2292670290828 2616.683567296701 L379.97747245601727 1583.2333401484368" />
    <path d="M377.31643270329914 1597.2292670290828 L1410.7666598515632 893.9774724560173" />
    <path d="M1396.7707329709172 891.3164327032991 L2100.0225275439825 1924.7666598515632" />
    <path d="M1171.632777367604 879.8570352227662 L1844.5760349096306 2389.0494610760243" />
    <path d="M2114.142964777234 1685.632777367604 L604.9505389239755 2358.576034909631" />
    <path d="M1308.367222632396 2628.142964777234 L635.4239650903694 1118.9505389239755" />
    <path d="M365.85703522276617 1822.367222632396 L1875.0494610760245 1149.4239650903694" />
    <path d="M1848.085045286405 1122.3097454455776 L425.09676331602054 2077.624342165379" />
    <path d="M1871.6902545544224 2362.085045286405 L916.375657834621 939.0967633160205" />
    <path d="M631.9149547135951 2385.6902545544226 L2054.9032366839792 1430.375657834621" />
    <path d="M608.3097454455776 1145.914954713595 L1563.624342165379 2568.9032366839792" />
    <path d="M1899.3924650376093 2331.928695473434 L877.6906778899216 2552.4559819502483" />
    <path d="M662.0713045265662 2413.3924650376093 L441.54401804975157 1391.6906778899215" />
    <path d="M580.6075349623906 1176.071304526566 L1602.3093221100785 955.5440180497516" />
    <path d="M1817.928695473434 1094.6075349623907 L2038.4559819502483 2116.3093221100785" />
    <path d="M1577.380890392599 2563.3047230789507 L2054.1742740648765 1428.5460839827992" />
    <path d="M430.6952769210493 2091.380890392599 L1565.4539160172008 2568.1742740648765" />
    <path d="M902.619109607401 944.6952769210493 L425.8257259351235 2079.4539160172008" />
    <path d="M2049.3047230789507 1416.619109607401 L914.5460839827992 939.8257259351235" />
    <path d="M2116.7520763152834 1764.2857511558134 L2099.5463138971154 1927.1477238252983" />
    <path d="M1229.7142488441866 2630.7520763152834 L1066.8522761747017 2613.5463138971154" />
    <path d="M363.2479236847165 1743.7142488441866 L380.45368610288483 1580.8522761747017" />
    <path d="M1250.2857511558134 877.2479236847165 L1413.1477238252983 894.4536861028848" />
    <path d="M1095.840528287326 889.1196344490628 L363.65640063714477 1725.3312739076953" />
    <path d="M2104.8803655509373 1609.840528287326 L1268.6687260923047 877.6564006371448" />
    <path d="M1384.159471712674 2618.8803655509373 L2116.3435993628555 1782.6687260923047" />
    <path d="M375.1196344490628 1898.159471712674 L1211.3312739076953 2630.3435993628555" />
    <path d="M1628.9576613428949 968.1807219960393 L1150.9632633166489 2626.280035035068" />
    <path d="M2025.8192780039608 2142.957661342895 L367.71996496493193 1664.9632633166489" />
    <path d="M851.042338657105 2539.819278003961 L1329.0367366833511 881.7199649649319" />
    <path d="M454.1807219960393 1365.0423386571051 L2112.280035035068 1843.0367366833511" />
    <path d="M1795.5566304247777 1075.6513946420564 L809.5248712202236 990.1340670627895" />
    <path d="M1918.3486053579436 2309.5566304247777 L2003.8659329372103 1323.5248712202238" />
    <path d="M684.4433695752223 2432.3486053579436 L1670.4751287797762 2517.8659329372103" />
    <path d="M561.6513946420564 1198.4433695752223 L476.13406706278954 2184.4751287797762" />
    <path d="M1059.591498304651 2612.051730675977 L1910.7281813436587 1189.266694136579" />
    <path d="M381.94826932402304 1573.591498304651 L1804.733305863421 2424.7281813436584" />
    <path d="M1420.408501695349 895.948269324023 L569.2718186563413 2318.7333058634213" />
    <path d="M2098.051730675977 1934.408501695349 L675.266694136579 1083.2718186563413" />
    <path d="M2116.2161527449207 1721.6696169387003 L1976.9988568639546 2229.0080893850377" />
    <path d="M1272.3303830612997 2630.2161527449207 L764.9919106149623 2490.9988568639546" />
    <path d="M363.78384725507954 1786.3303830612997 L503.00114313604536 1278.9919106149623" />
    <path d="M1207.6696169387003 877.7838472550795 L1715.0080893850377 1017.0011431360454" />
    <path d="M464.5651135928356 2163.268538911444 L1837.8672548844163 2395.3694298428736" />
    <path d="M830.7314610885562 978.5651135928356 L598.6305701571266 2351.867254884416" />
    <path d="M2015.4348864071644 1344.7314610885562 L642.1327451155837 1112.6305701571266" />
    <path d="M1649.2685389114438 2529.4348864071644 L1881.3694298428734 1156.1327451155837" />
    <path d="M2116.5831014643977 1774.0515891404439 L1747.9760337764485 2468.674995441109" />
    <path d="M1219.9484108595561 2630.5831014643977 L525.3250045588914 2261.9760337764487" />
    <path d="M363.4168985356022 1733.9484108595561 L732.0239662235515 1039.3250045588914" />
    <path d="M1260.0515891404439 877.4168985356022 L1954.6749954411086 1246.0239662235515" />
    <path d="M1111.8013730434968 2621.3898270365335 L2085.4826816485947 1986.290841473143" />
    <path d="M372.61017296346654 1625.8013730434968 L1007.709158526857 2599.4826816485947" />
    <path d="M1368.1986269565032 886.6101729634665 L394.51731835140527 1521.709158526857" />
    <path d="M2107.3898270365335 1882.1986269565032 L1472.290841473143 908.5173183514053" />
    <path d="M1887.1898021834877 1162.4382027634829 L1966.8782851103028 1263.64506871542" />
    <path d="M1831.5617972365171 2401.1898021834877 L1730.35493128458 2480.878285110303" />
    <path d="M592.8101978165123 2345.561797236517 L513.1217148896972 2244.35493128458" />
    <path d="M648.4382027634829 1106.8101978165123 L749.6450687154199 1027.1217148896972" />
    <path d="M2000.8781258211989 1318.2655881769033 L449.5801036659477 2133.5212609054543" />
    <path d="M1675.7344118230967 2514.878125821199 L860.4787390945455 963.5801036659477" />
    <path d="M479.12187417880114 2189.7344118230967 L2030.4198963340523 1374.4787390945455" />
    <path d="M804.2655881769033 993.1218741788011 L1619.5212609054545 2544.4198963340523" />
    <path d="M513.5707220053507 1262.980138821073 L482.65610712200396 2195.8486482047924" />
    <path d="M1731.019861178927 1027.5707220053507 L798.1513517952076 996.656107122004" />
    <path d="M1966.4292779946493 2245.019861178927 L1997.343892877996 1312.1513517952076" />
    <path d="M748.9801388210731 2480.429277994649 L1681.8486482047924 2511.343892877996" />
    <path d="M1576.2920530569834 944.2422244580055 L702.0916485640132 2446.4266065478846" />
    <path d="M2049.7577755419943 2090.2920530569836 L547.5733934521154 1216.0916485640132" />
    <path d="M903.7079469430166 2563.7577755419943 L1777.9083514359868 1061.5733934521154" />
    <path d="M430.24222445800547 1417.7079469430166 L1932.4266065478846 2291.908351435987" />
    <path d="M2116.524531246667 1776.4665556508194 L1127.3097304298246 884.4593723441087" />
    <path d="M1217.5334443491806 2630.524531246667 L2109.5406276558915 1641.3097304298246" />
    <path d="M363.4754687533334 1731.5334443491806 L1352.6902695701754 2623.5406276558915" />
    <path d="M1262.4665556508194 877.4754687533334 L370.4593723441087 1866.6902695701754" />
    <path d="M592.0197066983519 2344.6958096116055 L2057.311190292143 2071.4939656485467" />
    <path d="M649.3041903883945 1106.019706698352 L922.5060343514531 2571.311190292143" />
    <path d="M1887.980293301648 1163.3041903883945 L422.6888097078572 1436.506034351453" />
    <path d="M1830.6958096116055 2401.980293301648 L1557.493965648547 936.6888097078572" />
    <path d="M1840.7248832653122 1115.3063217583276 L1648.0017955950475 977.8978580166029" />
    <path d="M1878.6936782416724 2354.724883265312 L2016.1021419833971 2162.0017955950475" />
    <path d="M639.2751167346879 2392.6936782416724 L831.9982044049525 2530.102141983397" />
    <path d="M601.3063217583275 1153.2751167346878 L463.89785801660287 1345.9982044049525" />
    <path d="M1289.4045847525504 2629.4194349027375 L2055.8263382910072 2075.2901893159624" />
    <path d="M364.5805650972625 1803.4045847525504 L918.7098106840376 2569.8263382910072" />
    <path d="M1190.5954152474496 878.5805650972625 L424.17366170899277 1432.7098106840376" />
    <path d="M2115.4194349027375 1704.5954152474496 L1561.2901893159624 938.1736617089928" />
    <path d="M2028.3050025488906 1370.1051928504455 L2056.92808218793 1435.5215728926837" />
    <path d="M1623.8948071495545 2542.3050025488906 L1558.4784271073163 2570.92808218793" />
    <path d="M451.69499745110943 2137.8948071495547 L423.0719178120696 2072.4784271073163" />
    <path d="M856.1051928504455 965.6949974511094 L921.5215728926837 937.0719178120696" />
    <path d="M2051.2698293135236 2086.6278161032337 L1899.6396823927457 1176.3534909542018" />
    <path d="M907.3721838967663 2565.2698293135236 L1817.6465090457982 2413.6396823927457" />
    <path d="M428.73017068647664 1421.3721838967663 L580.3603176072542 2331.646509045798" />
    <path d="M1572.6278161032337 942.7301706864766 L662.3534909542019 1094.3603176072543" />
    <path d="M2018.572596173964 2157.2675445494388 L1448.0409694709022 902.2259953358478" />
    <path d="M836.7324554505615 2532.572596173964 L2091.774004664152 1962.0409694709022" />
    <path d="M461.42740382603597 1350.7324554505615 L1031.9590305290978 2605.774004664152" />
    <path d="M1643.2675445494385 975.427403826036 L388.22599533584776 1545.9590305290978" />
    <path d="M699.5993376666072 1063.5167459310615 L2098.176649963696 1933.8133405982098" />
    <path d="M1930.4832540689385 1213.5993376666072 L1060.1866594017902 2612.176649963696" />
    <path d="M1780.4006623333928 2444.4832540689385 L381.82335003630396 1574.1866594017902" />
    <path d="M549.5167459310615 2294.4006623333926 L1419.8133405982098 895.823350036304" />
    <path d="M991.0624187924043 913.2681279608155 L876.9661852801527 955.873162103945" />
    <path d="M2080.7318720391845 1505.0624187924043 L2038.126837896055 1390.9661852801528" />
    <path d="M1488.9375812075957 2594.7318720391845 L1603.0338147198472 2552.126837896055" />
    <path d="M399.2681279608155 2002.9375812075957 L441.873162103945 2117.033814719847" />
    <path d="M1750.7039843127468 2466.728167260903 L392.02329536536047 1530.9854076591014" />
    <path d="M527.271832739097 2264.703984312747 L1463.0145923408986 906.0232953653605" />
    <path d="M729.2960156872533 1041.2718327390971 L2087.9767046346396 1977.0145923408986" />
    <path d="M1952.7281672609029 1243.2960156872532 L1016.9854076591013 2601.9767046346396" />
    <path d="M1414.7425916385582 2613.2235021619463 L2036.9853257965165 1388.4669775998063" />
    <path d="M380.77649783805373 1928.7425916385582 L1605.5330224001937 2550.9853257965165" />
    <path d="M1065.2574083614418 894.7764978380537 L443.01467420348354 2119.5330224001937" />
    <path d="M2099.2235021619463 1579.2574083614418 L874.4669775998063 957.0146742034835" />
    <path d="M385.7491351657924 1951.6245428331422 L2064.142384224252 1454.6852316955183" />
    <path d="M1042.3754571668578 899.7491351657924 L1539.3147683044817 2578.142384224252" />
    <path d="M2094.2508648342077 1556.3754571668578 L415.85761577574806 2053.3147683044817" />
    <path d="M1437.6245428331422 2608.2508648342077 L940.6852316955184 929.8576157757481" />
    <path d="M377.2889699625912 1597.3804652931412 L418.03259198414366 2059.236924633464" />
    <path d="M1396.6195347068588 891.2889699625912 L934.7630753665362 932.0325919841437" />
    <path d="M2102.711030037409 1910.6195347068588 L2061.9674080158566 1448.7630753665362" />
    <path d="M1083.3804652931412 2616.711030037409 L1545.2369246334638 2575.9674080158566" />
    <path d="M606.8763521373204 2360.592488015681 L1811.625769697731 1089.1361196323892" />
    <path d="M633.4075119843193 1120.8763521373203 L1904.8638803676108 2325.625769697731" />
    <path d="M1873.1236478626797 1147.4075119843192 L668.3742303022691 2418.863880367611" />
    <path d="M1846.5924880156808 2387.1236478626797 L575.1361196323892 1182.374230302269" />
    <path d="M1001.8401155104939 2597.8482502321995 L412.15204026814774 2042.9078669192127" />
    <path d="M396.1517497678003 1515.840115510494 L951.0921330807872 926.1520402681477" />
    <path d="M1478.159884489506 910.1517497678003 L2067.8479597318524 1465.0921330807873" />
    <path d="M2083.8482502321995 1992.159884489506 L1528.9078669192127 2581.8479597318524" />
    <path d="M1237.446361010061 2630.8086900390012 L2090.0137140742345 1969.1201661530731" />
    <path d="M363.19130996099886 1751.446361010061 L1024.8798338469269 2604.0137140742345" />
    <path d="M1242.553638989939 877.1913099609989 L389.9862859257656 1538.8798338469269" />
    <path d="M2116.8086900390012 1756.553638989939 L1455.1201661530731 903.9862859257656" />
    <path d="M576.7836563110423 1180.4635308336094 L2045.8396134462414 2099.5756319545867" />
    <path d="M1813.5364691663906 1090.7836563110423 L894.4243680454131 2559.8396134462414" />
    <path d="M1903.2163436889577 2327.536469166391 L434.1603865537586 1408.424368045413" />
    <path d="M666.4635308336094 2417.2163436889577 L1585.575631954587 948.1603865537586" />
  </g>
</svg>