<?xml version="1.0" standalone="no"?>
<!DOCTYPE svg PUBLIC "-//W3C//DTD SVG 1.1//EN" 
    "http://www.w3.org/Graphics/SVG/1.1/DTD/svg11.dtd">
<svg width="21cm" height="29.7cm"
    xmlns="http://www.w3.org/2000/svg" version="1.1" viewBox="0 0 744.09449 1052.3622">
  <g fill="none" stroke="black" stroke-width="0.03cm">
    <path d="M35.43307 35.43307 L35.43307 35.43307" />
    <path d="M35.43307 35.43307 L708.66142 42.77763" />
    <path d="M35.43307 35.43307 L708.66142 66.5607" />
    <path d="M35.43307 35.43307 L708.66142 90.42156" />
    <path d="M35.43307 35.43307 L708.66142 114.42045" />
    <path d="M35.43307 35.43307 L708.66142 138.619" />
    <path d="M35.43307 35.43307 L708.66142 163.0809" />
    <path d="M35.43307 35.43307 L708.66142 187.87254" />
    <path d="M35.43307 35.43307 L708.66142 213.06379" />
    <path d="M35.43307 35.43307 L708.66142 238.72884" />
    <path d="M35.43307 35.43307 L708.66142 264.94708" />
    <path d="M35.43307 35.43307 L708.66142 291.80421" />
    <path d="M35.43307 35.43307 L708.66142 319.39343" />
    <path d="M35.43307 35.43307 L708.66142 347.81685" />
    <path d="M35.43307 35.43307 L708.66142 377.18714" />
    <path d="M35.43307 35.43307 L708.66142 407.62952" />
    <path d="M35.43307 35.43307 L708.66142 439.28408" />
    <path d="M35.43307 35.43307 L708.66142 472.3086" />
    <path d="M35.43307 35.43307 L708.66142 506.882" />
    <path d="M35.43307 35.43307 L708.66142 543.20848" />
    <path d="M35.43307 35.43307 L708.66142 581.52277" />
    <path d="M35.43307 35.43307 L708.66142 622.09648" />
    <path d="M35.43307 35.43307 L708.66142 665.24629" />
    <path d="M35.43307 35.43307 L705.98936 708.66142" />
    <path d="M35.43307 35.43307 L660.24431 708.66142" />
    <path d="M35.43307 35.43307 L617.40225 708.66142" />
    <path d="M35.43307 35.43307 L577.09803 708.66142" />
    <path d="M35.43307 35.43307 L539.02056 708.66142" />
    <path d="M35.43307 35.43307 L502.90273 708.66142" />
    <path d="M35.43307 35.43307 L468.51355 708.66142" />
    <path d="M35.43307 35.43307 L435.65191 708.66142" />
    <path d="M35.43307 35.43307 L404.14147 708.66142" />
    <path d="M35.43307 35.43307 L373.8266 708.66142" />
    <path d="M35.43307 35.43307 L344.56901 708.66142" />
    <path d="M35.43307 35.43307 L316.24501 708.66142" />
    <path d="M35.43307 35.43307 L288.7432 708.66142" />
    <path d="M35.43307 35.43307 L261.96257 708.66142" />
    <path d="M35.43307 35.43307 L235.81081 708.66142" />
    <path d="M35.43307 35.43307 L210.20302 708.66142" />
    <path d="M35.43307 35.43307 L185.06041 708.66142" />
    <path d="M35.43307 35.43307 L160.30935 708.66142" />
    <path d="M35.43307 35.43307 L135.88039 708.66142" />
    <path d="M35.43307 35.43307 L111.70748 708.66142" />
    <path d="M35.43307 35.43307 L87.72719 708.66142" />
    <path d="M35.43307 35.43307 L63.87809 708.66142" />
  </g>
</svg>