<?xml version="1.0" encoding="UTF-8" standalone="no"?>
<svg
   width="21cm"
   height="29.7cm"
   version="1.1"
   viewBox="0 0 744.09449 1052.3622"
   id="svg69"
   sodipodi:docname="2022.01.07-16.03.58-1.svg"
   xmlns:inkscape="http://www.inkscape.org/namespaces/inkscape"
   xmlns:sodipodi="http://sodipodi.sourceforge.net/DTD/sodipodi-0.dtd"
   xmlns="http://www.w3.org/2000/svg"
   xmlns:svg="http://www.w3.org/2000/svg">
  <defs
     id="defs73" />
  <sodipodi:namedview
     id="namedview71"
     pagecolor="#ffffff"
     bordercolor="#666666"
     borderopacity="1.0"
     inkscape:pageshadow="2"
     inkscape:pageopacity="0.0"
     inkscape:pagecheckerboard="0"
     inkscape:document-units="cm"
     showgrid="false"
     inkscape:zoom="0.64052327"
     inkscape:cx="436.36198"
     inkscape:cy="579.99454"
     inkscape:window-width="1312"
     inkscape:window-height="969"
     inkscape:window-x="0"
     inkscape:window-y="23"
     inkscape:window-maximized="0"
     inkscape:current-layer="layer3" />
  <g
     inkscape:groupmode="layer"
     id="layer1"
     inkscape:label="1 black"
     style="display:inline">
    <g
       fill="none"
       stroke="#000000"
       stroke-width="0.03cm"
       id="g5977"
       transform="translate(0.40087941,0.40087941)">
      <path
         d="M 0,0 35.43307,35.43307"
         id="path5915" />
      <path
         d="m 364.64213,527.23915 -0.0399,-0.33262 -0.0351,-0.66861 0.005,-0.33498"
         id="path5917" />
      <path
         d="m 371.8581,507.48127 1.0641,0.0188 2.0772,0.21019 1.99958,0.4295 1.91043,0.63568 1.80977,0.82877 1.69758,1.00872 1.57385,1.17557 1.4386,1.3293 1.29183,1.46991 1.13353,1.59741 0.96371,1.7118 0.78235,1.81307 0.58947,1.90121 0.38507,1.97626 0.16914,2.03818 -0.0583,2.08699 -0.11806,1.0577"
         id="path5919" />
      <path
         d="m 398.49597,540.17205 -1.0614,1.85221 -2.41394,3.36432 -2.75999,2.90931 -3.05547,2.4524 -3.30037,1.99365 -3.4947,1.533 -3.63845,1.07049 -3.73162,0.6061 -3.77422,0.13983 -3.76624,-0.32829 -3.70768,-0.79831 -3.59856,-1.27019 -3.43885,-1.74395 -3.22857,-2.21959 -2.96772,-2.69708 -2.65628,-3.17647 -1.19555,-1.76859 v 0 l -1.03124,-1.77447 -1.66927,-3.69446 -1.14396,-3.84297 -0.61743,-3.93683 -0.0897,-3.97606 0.43935,-3.96066 0.96958,-3.89062 1.50104,-3.76596 0.95021,-1.81915"
         id="path5921" />
      <path
         d="m 378.44276,566.8227 -1.46172,0.20476 -2.89258,0.25596 -2.84686,0.0568 -2.79568,-0.1355 -2.73902,-0.32109 -2.67691,-0.49991 -2.60932,-0.67196 -2.53626,-0.83724 -3.65546,-1.55098 -4.56723,-2.58334 -4.1766,-3.12269 -3.74222,-3.60795 -3.26411,-4.03905 -2.74226,-4.41605 -2.17666,-4.73892 -1.56733,-5.00766 -0.74931,-3.89955 -0.28635,-2.65549 -0.1094,-2.69223 0.073,-2.7222 0.26087,-2.74542 0.45421,-2.76186 0.65302,-2.77153 0.85729,-2.77445 0.50696,-1.38621 v 0 l 0.55353,-1.36827 1.22462,-2.63302 1.37421,-2.49388 1.51519,-2.35337 1.64758,-2.21152 1.77138,-2.06832 1.8866,-1.92376 1.99321,-1.77784 3.17092,-2.39023 4.52084,-2.66367 4.79264,-2.05569 4.99568,-1.43689 5.12998,-0.80727 5.19554,-0.16684 5.19235,0.48441 5.12043,1.14648 3.75176,1.30085 2.44289,1.07977 2.38625,1.25136 2.321,1.42432 2.24716,1.59863 2.16473,1.77429 2.07372,1.9513 1.97409,2.12966 0.94701,1.13214"
         id="path5923" />
      <path
         d="m 401.43774,569.51699 -1.57232,1.02798 -3.19231,1.86237 -3.24757,1.60831 -3.29287,1.35906 -3.32821,1.11465 -3.35359,0.87506 -3.369,0.6403 -3.37444,0.41036 -3.36994,0.18527 -3.35545,-0.035 -3.33102,-0.25046 -3.29661,-0.46108 -3.25225,-0.66687 -3.19792,-0.86784 -3.13363,-1.06397 -3.05937,-1.25528 -2.97516,-1.44176 -2.88098,-1.62341 -2.77683,-1.80023 -2.66273,-1.97223 -2.53867,-2.1394 -2.40463,-2.30174 -2.26064,-2.45925 -2.10668,-2.61194 -1.94276,-2.75979 -1.76888,-2.90282 -1.58503,-3.04101 -1.39123,-3.17439 -1.18745,-3.30294 -0.97372,-3.42665 -0.75002,-3.54554 -0.51637,-3.65959 -0.16744,-1.87107 v 0 l -0.0923,-1.62035 -0.0343,-3.22784 0.16306,-3.20389 0.35685,-3.17185 0.54709,-3.13169 0.73374,-3.08341 0.91682,-3.02703 1.09633,-2.96253 1.27227,-2.88991 1.44464,-2.80919 1.61344,-2.72034 1.77866,-2.62339 1.94031,-2.51833 2.0984,-2.40514 2.2529,-2.28386 2.40384,-2.15444 1.2574,-1.02616"
         id="path5925" />
      <path
         d="m 313.83316,500.61008 0.95256,-2.07267 2.07919,-3.97712 2.30014,-3.75158 2.50773,-3.52458 2.70195,-3.29611 2.88283,-3.06615 3.05032,-2.83473 3.20446,-2.60184 3.34524,-2.36748 3.47266,-2.13164 3.5867,-1.89432 3.6874,-1.65555 3.77472,-1.4153 3.84868,-1.17357 3.90929,-0.93038 3.95652,-0.6857 3.99041,-0.43957 4.01091,-0.19195 4.01807,0.0571 4.01185,0.30769 3.99228,0.55971 3.95934,0.81322 3.91305,1.06819 3.85338,1.32463 3.78036,1.58255 3.69397,1.84194 3.59422,2.1028 3.48111,2.36512 3.35463,2.62894 3.2148,2.89421 3.0616,3.16096 2.89503,3.42917 1.38088,1.81564 v 0 l 1.31871,1.86127 2.40469,3.78919 2.0989,3.86777 1.79851,3.93405 1.50353,3.98802 1.21395,4.02967 0.92979,4.05902 0.65103,4.07607 0.37767,4.0808 0.10973,4.07323 -0.15282,4.05334 -0.40995,4.02115 -0.66167,3.97665 -0.908,3.91985 -1.14892,3.85073 -1.38442,3.7693 -1.61453,3.67557 -1.83922,3.56953 -2.05851,3.45119 -2.27239,3.32052 -2.48087,3.17756 -2.68394,3.02228 -2.8816,2.8547 -3.07386,2.67481 -3.2607,2.48262 -3.44215,2.2781 -3.61819,2.06129 -3.78882,1.83216 -3.95404,1.59073 -4.11385,1.33699 -4.26827,1.07094 -4.41727,0.79259 -2.26283,0.28806"
         id="path5927" />
      <path
         d="m 302.7281,498.06762 1.0505,-2.46948 2.31135,-4.74697 2.57877,-4.48918 2.83053,-4.22921 3.06663,-3.96705 3.28705,-3.70272 3.49181,-3.4362 3.68092,-3.1675 3.85435,-2.89663 4.01211,-2.62357 4.15422,-2.34834 4.28067,-2.07092 4.39143,-1.79132 4.48655,-1.50954 4.56599,-1.22558 4.62977,-0.93945 4.67789,-0.65112 4.71034,-0.36063 4.72713,-0.0679 4.72824,0.22691 4.71371,0.52396 4.6835,0.82318 4.63762,1.12458 4.57609,1.42816 4.49888,1.73393 4.40602,2.04187 4.29748,2.35199 4.17329,2.6643 4.03343,2.97878 3.8779,3.29544 3.70672,3.61429 3.51985,3.93532 1.68496,2.08873 v 0 l 1.61339,2.14449 2.95532,4.37518 2.59836,4.47787 2.24733,4.56591 1.90226,4.6393 1.56312,4.69803 1.22993,4.7421 0.90268,4.77152 0.58138,4.78628 0.26602,4.78638 -0.0434,4.77183 -0.34686,4.74262 -0.64439,4.69876 -0.93597,4.64023 -1.22161,4.56706 -1.5013,4.47922 -1.77506,4.37673 -2.04286,4.25959 -2.30472,4.12778 -2.56064,3.98133 -2.81061,3.82021 -3.05464,3.64443 -3.29273,3.45401 -3.52487,3.24893 -3.75106,3.02918 -3.97132,2.79479 -4.18563,2.54574 -4.39399,2.28203 -4.59642,2.00366 -4.79289,1.71064 -4.98342,1.40296 -5.16801,1.08062 -2.65137,0.41486"
         id="path5929" />
      <path
         d="m 332.94985,602.80654 -3.02111,-1.61814 -5.82799,-3.58463 -5.52045,-4.03313 -5.18666,-4.46245 -2.45996,-2.38623"
         id="path5931" />
      <path
         d="m 414.24504,613.79252 -2.56003,1.18889 -5.16073,2.13629 -5.20593,1.81838 -5.24033,1.50532 -5.26393,1.19715 -5.27672,0.89385 -5.2787,0.59541 -5.26988,0.30186 -5.25025,0.0132 -5.21981,-0.27064 -5.17857,-0.54959 -5.12651,-0.82367 -5.06366,-1.09286 -4.99,-1.35718 -4.90553,-1.61664 -4.81025,-1.87122 -4.70417,-2.12093 -4.58728,-2.36577 -4.45958,-2.60573 -4.32109,-2.84082 -4.17177,-3.07104 -4.01166,-3.2964 -3.84073,-3.51686 -3.65901,-3.73247 -3.46647,-3.94321 -3.26313,-4.14906 -3.04899,-4.35005 -2.82402,-4.54616 -2.58827,-4.7374 -2.3417,-4.92378 -2.08433,-5.10527 -1.81614,-5.28189 -0.80413,-2.70566"
         id="path5933" />
      <path
         d="m 271.12551,565.92233 -1.36434,-3.64424 -2.31581,-7.29702 -1.77722,-7.29345 -1.25291,-7.27193 -0.74289,-7.23246 -0.24713,-7.17505 0.23434,-7.09969 0.70153,-7.00639 1.15445,-6.89514 1.59309,-6.76594 2.01745,-6.6188 2.42754,-6.45371 2.82334,-6.27068 3.20486,-6.0697 3.57212,-5.85078 3.92509,-5.6139 4.26377,-5.35909 4.5882,-5.08633 4.89833,-4.79561 5.19419,-4.48696 5.47577,-4.16037 5.74307,-3.81581 5.9961,-3.45333 6.23484,-3.07288 6.45932,-2.6745 6.6695,-2.25817 6.86542,-1.8239 7.04705,-1.37168 7.2144,-0.9015 7.36749,-0.4134 7.50628,0.0927 7.63081,0.61666 3.85764,0.51045 v 0 l 2.75178,0.44709 5.42077,1.09242 5.30563,1.35036 5.18479,1.60064 5.05829,1.84331 4.92607,2.07831 4.78818,2.30568 4.64459,2.52541 4.49533,2.7375 4.34035,2.94194 4.17971,3.13874 4.01336,3.32791 3.84134,3.50942 3.66361,3.6833 3.48021,3.84953 3.2911,4.00813 3.09633,4.15908 2.89584,4.30239 2.68968,4.43806 2.47783,4.56609 2.26029,4.68647 2.03705,4.79921 1.80813,4.90432 1.57352,5.00177 1.33322,5.09159 1.08724,5.17377 0.83555,5.2483 0.57819,5.3152 0.31514,5.37445 0.0464,5.42605 -0.22804,5.47002 -0.50817,5.50635 -0.3609,2.76441"
         id="path5935" />
      <path
         d="m 444.61535,621.35662 -3.45803,2.54534 -7.04941,4.65497 -7.20773,4.08213 -7.34271,3.51905 -7.45434,2.96572 -7.54262,2.42215 -7.60755,1.88834 -7.64913,1.36428 -7.66737,0.84998 -7.66224,0.34543 -7.63378,-0.14937 -7.58197,-0.6344 -7.5068,-1.10968 -7.40829,-1.57521 -7.28643,-2.03097 -7.14121,-2.47699 -6.97265,-2.91325 -6.78074,-3.33976 -6.56549,-3.7565 -6.32687,-4.16349 -6.06491,-4.56073 -5.77961,-4.94822 -5.47096,-5.32593 -5.13894,-5.69391 -4.78359,-6.05212 -4.40489,-6.40058 -4.00284,-6.73929 -3.57743,-7.06823 -3.12868,-7.38743 -2.65658,-7.69686 -2.16113,-7.99654 -1.64233,-8.28647 -0.61932,-4.24891 v 0 l -0.47532,-4.26742 -0.50662,-8.43244 0.0686,-8.28315 0.62377,-8.1185 1.15878,-7.93851 1.67366,-7.74317 2.16843,-7.5325 2.64306,-7.30649 3.09758,-7.06512 3.53198,-6.80841 3.94624,-6.53637 4.34039,-6.24897 4.71441,-5.94624 5.06832,-5.62817 5.40209,-5.29474 5.71574,-4.94597 6.00928,-4.58187 6.28268,-4.20242 6.53597,-3.80762 6.76913,-3.39749 6.98216,-2.97201 7.17508,-2.53118 7.34788,-2.07501 7.50054,-1.60351 7.63309,-1.11665 7.74551,-0.61445 7.83781,-0.0969 7.90998,0.43597 7.96204,0.9842 7.99397,1.54776 8.00577,2.12668 7.99746,2.72093 3.98932,1.58811"
         id="path5937" />
      <path
         d="m 327.58401,649.30411 -3.59477,-1.35631 -6.9905,-2.98447 -6.72049,-3.33404 -6.44494,-3.66814 -6.16387,-3.98676 -5.87726,-4.28989 -5.58512,-4.57756 -5.28746,-4.84974 -4.98426,-5.10645 -4.67552,-5.34768 -4.36127,-5.57344 -4.04148,-5.7837 -3.71615,-5.97851 -3.3853,-6.15782 -3.04892,-6.32167 -2.707,-6.47003 -2.35956,-6.60292 -2.00658,-6.72032 -1.64807,-6.82226 -1.28403,-6.90872 -0.91446,-6.97969 -0.53936,-7.03519 -0.15873,-7.07521 0.22743,-7.09975 0.61912,-7.10882 1.01635,-7.10241 1.4191,-7.08052 1.82739,-7.04316 2.24121,-6.99031 2.66055,-6.92199 3.08544,-6.83819 3.51584,-6.73892 1.92105,-3.32739"
         id="path5939" />
      <path
         d="m 417.256,660.92517 -4.86079,1.53994 -9.70495,2.53904 -9.66399,1.83448 -9.60052,1.14981 -9.51453,0.48504 -9.40601,-0.15984 -9.27496,-0.78482 -9.1214,-1.38992 -8.94531,-1.97512 -8.74671,-2.54043 -8.52557,-3.08584 -8.28191,-3.61136 -8.01574,-4.117 -7.72704,-4.60272 -7.41582,-5.06857 -7.08207,-5.51452 -6.7258,-5.94057 -6.34701,-6.34674 -5.9457,-6.733 -5.52187,-7.09938 -5.07551,-7.44587 -4.60662,-7.77245 -4.11523,-8.07916 -3.6013,-8.36595 -3.06485,-8.63287 -2.50587,-8.87989 -1.92439,-9.10701 -1.32037,-9.31424 -0.69383,-9.50158 -0.0448,-9.66903 0.62681,-9.81658 1.32092,-9.94424 0.92779,-5.01378 v 0 l 1.06936,-4.8443 2.62089,-9.49695 3.24459,-9.22065 3.84531,-8.91945 4.42302,-8.59337 4.97774,-8.24238 5.50946,-7.86651 6.01819,-7.46573 6.5039,-7.04008 6.96663,-6.58952 7.40637,-6.11407 7.82309,-5.61373 8.21683,-5.08849 8.58757,-4.53837 8.9353,-3.96334 9.26005,-3.36342 4.74461,-1.44897"
         id="path5941" />
      <path
         d="m 507.59165,597.89478 -1.31068,2.4274 -2.72069,4.7461 -2.84974,4.60102 -2.97476,4.45578 -3.09571,4.3104 -3.21262,4.16487 -3.32548,4.01919 -3.43429,3.87336 -5.3466,5.53627 -7.47182,6.86989 -7.83416,6.28387 -8.16409,5.69665 -8.46163,5.10823 -8.72677,4.51862 -8.9595,3.9278 -9.15984,3.3358 -9.32777,2.74258 -9.46331,2.14818 -9.56644,1.55257 -9.63718,0.95577 -9.67551,0.35776 -9.68145,-0.24143 -9.65497,-0.84183 -9.59612,-1.44343 -9.50484,-2.04622 -9.38118,-2.65021 -9.22511,-3.2554 -9.03665,-3.86179 -8.81577,-4.46938 -8.56251,-5.07816 -8.27685,-5.68814 -7.95877,-6.29932 -5.74086,-5.1263 -3.71096,-3.60915 -3.61323,-3.76262 -3.51143,-3.91623 -3.40559,-4.07001 -3.2957,-4.22392 -3.18176,-4.378 -3.06376,-4.53221 -1.48637,-2.32398 v 0 l -2.32577,-3.82782 -4.2921,-7.81275 -3.81101,-8.0041 -3.32774,-8.17372 -2.84226,-8.3216 -2.35458,-8.44773 -1.86472,-8.55213 -1.37266,-8.63477 -0.87839,-8.69569 -0.38194,-8.73485 0.11672,-8.75228 0.61756,-8.74796 1.12061,-8.72191 1.62586,-8.67411 2.13329,-8.60457 2.64292,-8.51329 1.51327,-4.21561"
         id="path5943" />
      <path
         d="m 533.8185,495.97624 0.81483,4.74825 1.21026,9.54966 0.64968,9.59998 0.0874,9.62564 -0.16765,4.81474"
         id="path5945" />
      <path
         d="m 547.80473,529.42422 -0.0851,3.16122 -0.328,6.2626 -0.53508,6.18095 -0.73809,6.09705 -0.93703,6.0109 -1.13192,5.9225 -1.32273,5.83186 -1.50949,5.73896 -1.69216,5.64382 -1.87079,5.54643 -2.04534,5.44679 -2.21582,5.3449 -2.38225,5.24076 -2.5446,5.13438 -2.7029,5.02575 -2.85711,4.91487 -3.00728,4.80173 -3.15337,4.68636 -3.2954,4.56874 -3.43336,4.44886 -3.56726,4.32673 -3.69709,4.20237 -3.82285,4.07575 -3.94456,3.94687 -6.13612,5.67378 -8.5695,7.09301 -8.98312,6.53707 -9.36421,5.96315 -9.71278,5.37123 -10.02883,4.76133 -10.31234,4.13345 -10.56333,3.48757 -8.06765,2.18101 -5.43992,1.2428 -5.48438,1.07121 -5.52477,0.89738 -5.56109,0.7213 -5.59334,0.54297 -5.62154,0.36239 -5.64566,0.17956 -5.66571,-0.006 -5.68172,-0.19283 -5.69364,-0.38241 -5.7015,-0.57423 -5.7053,-0.7683 -5.70503,-0.96462 -5.70069,-1.16318 -5.6923,-1.36399 -5.67983,-1.56706 -5.66329,-1.77236 -5.6427,-1.97993 -5.61804,-2.18973 -5.58931,-2.40179 -5.55651,-2.61609 -5.51966,-2.83264 -5.47873,-3.05145 -2.72275,-1.60847 v 0 l -2.42139,-1.48499 -4.76798,-3.08556 -4.66522,-3.23753 -4.55881,-3.38699 -2.23835,-1.74874"
         id="path5947" />
      <path
         d="m 470.00551,366.88225 4.5958,2.91637 8.84087,6.1508 8.37046,6.55595 7.89672,6.93839 7.41967,7.29809 6.93931,7.63507 6.45563,7.94934 5.96863,8.24087 5.47831,8.50969 4.98468,8.75579 4.48774,8.97915 3.98747,9.1798 3.4839,9.35773 2.977,9.51293 2.46678,9.6454 1.95326,9.75517 1.43642,9.8422 0.91625,9.90651 0.39278,9.9481 -0.13401,9.96696 -0.66413,9.96311 -1.19755,9.93653 -1.73429,9.88722 -2.27435,9.8152 -2.81773,9.72045 -3.36441,9.60298 -3.91442,9.46279 -4.46775,9.29987 -5.02438,9.11423 -5.58434,8.90587 -6.14761,8.67479 -6.7142,8.42098 -3.57061,4.10821"
         id="path5949" />
      <path
         d="m 386.3128,723.89547 -3.55886,0.22655 -7.06662,0.26973 -6.99602,0.0289 -6.92247,-0.20769 -6.846,-0.43989 -6.76658,-0.66776 -6.68422,-0.89129 -6.59893,-1.11048 -6.51068,-1.32534 -6.41951,-1.53586 -6.3254,-1.74205 -6.22834,-1.94389 -6.12835,-2.1414 -6.02542,-2.33457 -5.91955,-2.52341 -5.81073,-2.70791 -5.69899,-2.88807 -5.58429,-3.0639 -5.46667,-3.23538 -5.3461,-3.40254 -5.2226,-3.56535 -5.09614,-3.72383 -4.96676,-3.87797 -4.83444,-4.02778 -4.69917,-4.17324 -4.56098,-4.31438 -4.41982,-4.45117 -4.27575,-4.58362 -4.12873,-4.71175 -3.97877,-4.83553 -3.82586,-4.95498 -3.67003,-5.07009 -3.51126,-5.18086 -3.34953,-5.2873 -3.18488,-5.3894 -3.01729,-5.48716 -2.84675,-5.58059 -2.67328,-5.66968 -2.49686,-5.75443 -2.31752,-5.83484 -2.13522,-5.91093 -1.94999,-5.98266 -1.76182,-6.05007 -1.57072,-6.11314 -1.37666,-6.17188 -1.17968,-6.22626 -0.97975,-6.27633 -0.77689,-6.32204 -0.57108,-6.36343 -0.36234,-6.40048 -0.15066,-6.43319 0.064,-6.46156 0.28153,-6.48561 0.50203,-6.5053 0.72547,-6.52066 0.95184,-6.53169 1.18117,-6.53838 1.41342,-6.54074 1.64863,-6.53875 1.88675,-6.53243 2.12783,-6.52177 2.37185,-6.50678 2.6188,-6.48744 2.86869,-6.46378 1.52898,-3.22166 v 0 l 1.58323,-3.19535 3.29972,-6.25473 3.47302,-6.07316 3.6411,-5.89119 3.80396,-5.70887 3.96159,-5.52615 4.11399,-5.34306 4.26117,-5.15959 4.40312,-4.97575 4.53985,-4.79153 4.67135,-4.60693 4.79763,-4.42196 4.91868,-4.23661 5.03451,-4.05087 5.14511,-3.86478 5.25049,-3.67829 5.35063,-3.49143 5.44556,-3.30419 5.53526,-3.11658 5.61973,-2.92859 5.69899,-2.74023 5.773,-2.55147 5.8418,-2.36236 5.90538,-2.17286 5.96372,-1.98298 6.01685,-1.79273 6.06474,-1.6021 6.10741,-1.41109 6.14485,-1.21971 6.17708,-1.02794 6.20407,-0.83581 6.22584,-0.6433 6.24239,-0.4504 6.2537,-0.25714 6.2598,-0.0635 6.26066,0.13053 6.25631,0.32494 6.24672,0.51971 6.23192,0.71487 6.21188,0.91039 6.18662,1.10631 6.15614,1.30259 6.12042,1.49925 6.07949,1.69629 6.03333,1.89371 5.98195,2.0915 5.92533,2.28967 5.8635,2.48822 5.79643,2.68715 5.72415,2.88644 5.64663,3.08612 5.5639,3.28618 5.47593,3.48661 5.38274,3.68742 5.28432,3.88861 5.18069,4.09017 5.07182,4.29211 4.95773,4.49443 4.83841,4.69712 4.71388,4.9002 4.5841,5.10364 4.44911,5.30747 4.3089,5.51167 4.16345,5.71625 2.02555,2.93496"
         id="path5951" />
      <path
         d="m 466.31888,713.21497 -5.07893,2.47477 -10.30598,4.51714 -10.48376,3.93982 -10.63788,3.36152 -10.76837,2.78223 -10.87519,2.20199 -10.95837,1.62076 -11.01788,1.03856 -11.05376,0.45538 -11.06598,-0.12876 -11.05455,-0.71389 -11.01946,-1.29999 -10.96073,-1.88706 -10.87833,-2.4751 -10.77231,-3.06413 -10.64261,-3.65412 -5.26528,-2.04862"
         id="path5953" />
      <path
         d="m 449.92261,319.70988 5.52977,2.1692 10.78107,4.72798 10.40272,5.23057 10.01593,5.71285 9.6207,6.17485 9.21702,6.61658 8.80491,7.03801 8.38434,7.43916 7.95533,7.82002 7.51789,8.1806 7.07199,8.5209 6.61766,8.84091 6.15488,9.14063 5.68365,9.42008 5.20399,9.67923 4.71588,9.9181 4.21933,10.13669 3.71433,10.33499 3.20089,10.51301 2.679,10.67073 2.14868,10.80819 1.60991,10.92535 1.0627,11.02223 0.50704,11.09882 -0.0571,11.15512 -0.62961,11.19115 -1.21059,11.20689 -1.80002,11.20235 -2.3979,11.17751 -3.00421,11.13239 -3.61898,11.067 -4.24218,10.98131 -2.35743,5.45218"
         id="path5955" />
      <path
         d="m 195.87318,375.39794 2.73925,-3.14627 5.58895,-6.09919 5.73121,-5.84231 5.86744,-5.58655 5.99765,-5.33193 6.12184,-5.07843 6.23999,-4.82604 6.35213,-4.57478 6.45824,-4.32465 6.55832,-4.07563 6.65238,-3.82774 6.74041,-3.58098 6.82243,-3.33534 6.89841,-3.09081 6.96837,-2.84742 7.03231,-2.60514 7.09022,-2.36399 7.1421,-2.12396 7.18796,-1.88506 7.2278,-1.64728 7.26161,-1.41062 7.2894,-1.17508 7.31116,-0.94067 7.3269,-0.70738 7.33661,-0.47521 7.34029,-0.24417 7.33796,-0.0143 7.32959,0.21454 7.31521,0.44222 7.2948,0.66877 7.26836,0.8942 7.23589,1.1185 7.19741,1.34169 7.1529,1.56374 7.10237,1.78468 7.0458,2.00449 6.98321,2.22318 6.91461,2.44074 6.83997,2.65719 6.75931,2.87251 6.67262,3.0867 6.57991,3.29978 6.48118,3.51173 6.37642,3.72256 6.26563,3.93226 6.14883,4.14084 6.02599,4.3483 5.89713,4.55463 5.76225,4.75985 5.62134,4.96393 5.4744,5.1669 5.32145,5.36874 5.16246,5.56947 4.99746,5.76906 4.82642,5.96753 4.64937,6.16488 4.46628,6.36111 4.27718,6.55621 4.08204,6.7502 3.88089,6.94305 3.6737,7.13479 3.4605,7.32539 3.24127,7.51489 3.01601,7.70325 1.42165,3.92191 v 0 l 1.86959,5.51655 3.31018,11.12547 2.7392,11.23094 2.16945,11.31517 1.60092,11.37817 1.03363,11.41992 0.46757,11.44044 -0.0973,11.4397 -0.66088,11.41774 -1.22325,11.37454 -1.78439,11.31009 -2.34432,11.2244 -2.903,11.11747 -3.46046,10.98931 -4.0167,10.8399 -4.57169,10.66926 -2.49358,5.26399"
         id="path5957" />
      <path
         d="m 612.64296,561.05645 -0.66397,4.32278 -1.53418,8.53615 -1.80416,8.38827 -2.0682,8.238 -2.32626,8.08535 -2.57835,7.93033 -2.82448,7.77292 -3.06464,7.61313 -3.29883,7.45096 -3.52705,7.28641 -3.74931,7.11948 -3.9656,6.95017 -4.17591,6.77847 -4.38027,6.60439 -4.57866,6.42794 -4.77107,6.2491 -4.95752,6.06788 -5.138,5.88428 -5.31252,5.6983 -5.48107,5.50993 -5.64364,5.3192 -5.80025,5.12606 -5.9509,4.93057 -6.09558,4.73267 -6.23428,4.53241 -6.36702,4.32976 -6.4938,4.12473 -6.6146,3.91732 -6.72944,3.70752 -6.83831,3.49535 -6.94122,3.2808 -7.03814,3.06386 -7.12912,2.84454 -7.21411,2.62285 -7.29315,2.39876 -7.36621,2.17231 -7.43331,1.94347 -7.49443,1.71224 -7.5496,1.47864 -7.59879,1.24265 -7.64201,1.00429 -7.67928,0.76354 -7.71056,0.52041 -7.73589,0.27491 -7.75524,0.027 -7.76864,-0.22326 -7.77605,-0.47591 -7.7775,-0.73094 -7.77299,-0.98836 -7.7625,-1.24816 -7.74605,-1.51033 -7.72364,-1.77489 -7.69525,-2.04183 -7.6609,-2.31115 -7.62057,-2.58285 -7.57428,-2.85694 -7.52203,-3.1334 -7.46381,-3.41224 -7.39961,-3.69347 -7.32945,-3.97707 -7.25333,-4.26307 -7.17123,-4.55143 -7.08317,-4.84219 -6.98913,-5.13531 -3.45745,-2.67833 v 0 l -3.41165,-2.73641 -6.62544,-5.59671 -6.36237,-5.75658 -6.10021,-5.91012 -5.839,-6.05727 -5.57869,-6.19809 -5.3193,-6.33253 -5.06085,-6.46062 -4.80331,-6.58235 -4.54669,-6.69772 -4.29099,-6.80674 -4.03622,-6.90938 -3.78237,-7.00569 -3.52944,-7.09562 -3.27743,-7.1792 -3.02634,-7.25642 -2.77618,-7.32728 -2.52694,-7.39178 -2.27861,-7.44992 -2.03121,-7.50171 -1.78474,-7.54714 -1.53917,-7.5862 -1.29455,-7.61891 -1.05083,-7.64526 -0.80804,-7.66525 -0.56617,-7.67889 -0.32522,-7.68615 -0.0852,-7.68708 0.15391,-7.68163 0.39209,-7.66982 0.62935,-7.65167 0.8657,-7.62714 1.10111,-7.59627 1.3356,-7.55903 1.56918,-7.51543 1.80183,-7.46548 2.03357,-7.40916 2.26437,-7.3465 2.49426,-7.27746 2.72323,-7.20207 2.95126,-7.12032 3.1784,-7.03222 3.40459,-6.93775 3.62987,-6.83693 3.85423,-6.72974 4.07766,-6.61621 4.30017,-6.4963 4.52177,-6.37004 4.74244,-6.23743 4.96219,-6.09844 5.18101,-5.95312 5.39892,-5.80142 5.6159,-5.64336 5.83196,-5.47896 6.0471,-5.30818 6.26132,-5.13106 6.47462,-4.94757 6.68699,-4.75772 6.89845,-4.56152 7.10897,-4.35895 7.31859,-4.15004 7.52727,-3.93475 7.73504,-3.71311 7.94188,-3.48511 4.04822,-1.65507"
         id="path5959" />
      <path
         d="m 487.06307,299.34312 4.92477,2.56427 9.62157,5.4125 9.31267,5.78032 8.99786,6.13519 8.67714,6.47712 8.35053,6.8061 8.01798,7.12212 7.67955,7.42521 7.33519,7.71535 6.98493,7.99253 6.62877,8.25677 6.26668,8.50806 5.89869,8.7464 5.5248,8.9718 5.14499,9.18424 4.75927,9.38374 4.36765,9.57029 3.97011,9.7439 3.56667,9.90455 3.15732,10.05225 2.74206,10.18702 2.32088,10.30882 1.89381,10.41769 1.46082,10.51361 1.02191,10.59657 0.57712,10.66658 0.12639,10.72366 -0.33023,10.76778 -0.79277,10.79896 -1.26121,10.81718 -1.73556,10.82247 -2.21583,10.81479 -1.28985,5.40047"
         id="path5961" />
      <path
         d="m 275.84963,773.69564 -3.37344,-1.33765 -6.67583,-2.80636 -6.57885,-2.97876 -6.47916,-3.14838 -6.37677,-3.31519 -6.27166,-3.47921 -6.16386,-3.64045 -6.05335,-3.79887 -5.94013,-3.95451 -5.82421,-4.10736 -5.70558,-4.2574 -5.58424,-4.40466 -5.46021,-4.54913 -5.33346,-4.69078 -5.20401,-4.82966 -5.07185,-4.96574 -4.93699,-5.09903 -4.79943,-5.22951 -4.65915,-5.3572 -4.51617,-5.48211 -4.37049,-5.60421 -4.2221,-5.72352 -4.071,-5.84004 -3.91721,-5.95377 -3.76069,-6.06469 -3.60148,-6.17282 -3.43957,-6.27817 -3.27494,-6.38071 -3.10762,-6.48046 -2.93757,-6.57741 -2.76484,-6.67158 -2.5894,-6.76295 -1.22805,-3.41486"
         id="path5963" />
      <path
         d="m 601.68635,680.6752 -2.81413,4.1075 -5.78586,8.00096 -5.98991,7.71601 -6.18666,7.43158 -6.3761,7.14763 -6.55826,6.86419 -6.73311,6.58125 -6.90067,6.29881 -7.06093,6.01688 -7.21389,5.73544 -7.35956,5.45451 -7.49792,5.17408 -7.62899,4.89415 -7.75276,4.61471 -7.86923,4.3358 -7.97842,4.05736 -8.08028,3.77945 -8.17488,3.50202 -8.26215,3.2251 -8.34214,2.94868 -8.41483,2.67276 -8.48022,2.39735 -8.53831,2.12243 -8.58911,1.84802 -8.6326,1.5741 -8.66881,1.3007 -8.69771,1.02779 -8.71931,0.75538 -8.73363,0.48347 -8.74063,0.21207 -8.74034,-0.0588 -8.73276,-0.32923 -8.71788,-0.59914 -8.69569,-0.86853 -8.66622,-1.13742 -8.62945,-1.40583 -8.58537,-1.67371 -8.534,-1.94111 -8.47533,-2.208 -8.40936,-2.47438 -8.3361,-2.74028 -8.25554,-3.00566 -8.16769,-3.27054 -8.07252,-3.53493 -7.97008,-3.79881 -7.86032,-4.06219 -7.74327,-4.32506 -7.61892,-4.58744 -7.48729,-4.84932 -7.34834,-5.11069 -7.2021,-5.37157 -7.04856,-5.63193 -6.88773,-5.89181 -6.7196,-6.15117 -6.54417,-6.41003 -6.36144,-6.66841 -6.17141,-6.92626 -5.9741,-7.18363 -5.76947,-7.44048 -5.55756,-7.69685 -5.33834,-7.9527 -5.11183,-8.20805 -4.87802,-8.46292 -4.63691,-8.71726 -2.22576,-4.45385 v 0 l -1.97526,-4.11948 -3.72785,-8.27079 -3.43338,-8.309 -3.14183,-8.3421 -2.85319,-8.37009 -2.56747,-8.393 -2.28465,-8.41079 -2.00477,-8.42348 -1.72778,-8.43107 -1.45372,-8.43356 -1.18256,-8.43094 -0.91433,-8.42323 -0.64901,-8.4104 -0.3866,-8.39248 -0.1271,-8.36946 0.12947,-8.34133 0.38314,-8.3081 0.63388,-8.26976 0.88173,-8.22633 1.12664,-8.17779 1.36865,-8.12415 1.60775,-8.06541 1.84392,-8.00156 2.07718,-7.93262 2.30753,-7.85856 2.53497,-7.77941 2.75949,-7.69516 2.98109,-7.6058 3.19978,-7.51134 3.41556,-7.41177 3.62842,-7.30711 3.83837,-7.19734 4.0454,-7.08247 4.24952,-6.9625 4.45072,-6.83742 4.64902,-6.70724 4.84438,-6.57197 5.03685,-6.43158 5.2264,-6.28609 5.41302,-6.13551 5.59675,-5.97982 5.77754,-5.81902 5.95544,-5.65313 6.1304,-5.48213 6.30247,-5.30603 6.47161,-5.12482 6.63784,-4.93853 6.80116,-4.74711 6.96156,-4.5506 7.11905,-4.34899 7.27361,-4.14227 7.42528,-3.93046 7.57402,-3.71353 7.71985,-3.49152 7.86276,-3.26438 8.00276,-3.03216 8.13985,-2.79483 8.27402,-2.5524 8.40528,-2.30485 8.53362,-2.05223 8.65904,-1.79448 8.78156,-1.53163 8.90116,-1.2637 9.01784,-0.99064 4.55177,-0.39133"
         id="path5965" />
      <path
         d="m 457.15423,251.05156 5.83685,1.87315 11.48518,4.09006 11.22661,4.53816 10.95939,4.97398 10.68354,5.39754 10.39905,5.8088 10.10593,6.20779 9.80415,6.59449 9.49374,6.96893 9.1747,7.33107 8.84701,7.68095 8.51068,8.01853 8.16572,8.34385 7.81212,8.65688 7.44987,8.95763 7.07899,9.2461 6.69946,9.5223 6.31131,9.78621 5.9145,10.03785 5.50906,10.2772 5.09499,10.50428 4.67227,10.71907 4.2409,10.92159 3.80092,11.11183 3.35227,11.28979 2.895,11.45547 2.42909,11.60887 1.95453,11.74999 1.47135,11.87883 0.9795,11.99539 0.47904,12.09967 -0.0301,12.19168 -0.20866,6.1265"
         id="path5967" />
      <path
         d="m 613.40788,703.02347 -2.55659,3.43891 -5.22761,6.73365 -5.37655,6.54114 -5.52113,6.34829 -5.66135,6.15511 -5.79719,5.96158 -5.92867,5.76772 -6.05578,5.57351 -6.17854,5.37896 -6.29691,5.18408 -6.41094,4.98886 -6.52058,4.79329 -6.62587,4.59739 -6.72679,4.40115 -6.82334,4.20456 -6.91553,4.00764 -7.00334,3.81038 -7.08681,3.61277 -7.16589,3.41484 -7.24062,3.21655 -7.31097,3.01793 -7.37697,2.81897 -7.43859,2.61967 -7.49585,2.42003 -7.54874,2.22005 -7.59727,2.01973 -7.64143,1.81908 -7.68123,1.61807 -7.71666,1.41674 -7.74772,1.21505 -7.77442,1.01304 -7.79675,0.81069 -7.81472,0.60798 -7.82832,0.40495 -7.83755,0.20157 -7.84242,-0.002 -7.84292,-0.2062 -7.83906,-0.4106 -7.83083,-0.61533 -7.81823,-0.8204 -7.80128,-1.02582 -7.77994,-1.23157 -7.75425,-1.43767 -7.72419,-1.6441 -7.68977,-1.85087 -7.65098,-2.05799 -7.60781,-2.26544 -7.5603,-2.47323 -7.50841,-2.68136 -7.45215,-2.88984 -7.39153,-3.09864 -7.32654,-3.3078 -7.25719,-3.51728 -7.18347,-3.72712 -7.10539,-3.93729 -7.02294,-4.14779 -6.93612,-4.35865 -6.84494,-4.56983 -6.74939,-4.78136 -6.64947,-4.99323 -6.5452,-5.20544 -6.43654,-5.41799 -6.32354,-5.63087 -6.20616,-5.8441 -3.0577,-3.00212"
         id="path5969" />
      <path
         d="m 675.14387,459.09069 0.97006,4.54331 1.73473,9.12251 1.46036,9.16518 1.18538,9.20166 0.90979,9.23195 0.63359,9.25604 0.35679,9.27394 0.0794,9.28564 -0.0645,4.64527"
         id="path5971" />
      <path
         d="m 396.6916,205.47305 5.76549,0.49211 11.40487,1.26619 11.23365,1.63576 11.05878,1.99767 10.88021,2.3519 10.69798,2.69847 10.51208,3.03738 10.32249,3.36861 10.12924,3.69219 9.93232,4.00809 9.73171,4.31634 9.52744,4.6169 9.31948,4.90982 9.10787,5.19506 8.89256,5.47263 8.6736,5.74255 8.45095,6.00479 8.22463,6.25936 7.99463,6.50628 7.76097,6.74552 7.52363,6.9771 7.28262,7.20102 7.03792,7.41726 6.78957,7.62585 6.53752,7.82676 6.28182,8.02 6.02243,8.20559 5.75937,8.38351 5.49264,8.55376 5.22223,8.71634 4.94816,8.87126 4.67039,9.01852 4.38898,9.1581 4.10386,9.29002 3.8151,9.41427 3.52264,9.53086 3.22652,9.63979 2.92672,9.74104 2.62325,9.83463 2.3161,9.92055 2.00528,9.99882 1.69079,10.0694 1.37263,10.13233 1.05078,10.18759 0.72526,10.23518 0.39608,10.27511 0.0632,10.30737 -0.27332,10.33196 -0.61354,10.34889 -0.95742,10.35816 -1.30497,10.35975 -1.65622,10.35369 -2.01112,10.33995 -2.36969,10.31854 -2.73196,10.28948 -3.09788,10.25275 -3.46749,10.20835 -3.84076,10.15628 -4.21771,10.09654 -4.59834,10.02916 -4.98263,9.95408 -5.37061,9.87136 -5.76225,9.78096 -6.15757,9.68289 -3.22818,4.80228 v 0 l -3.50497,5.01693 -7.2863,9.8205 -7.64728,9.528 -7.99919,9.22583 -8.34209,8.91401 -8.67593,8.59252 -9.00073,8.26137 -9.3165,7.92057 -4.77384,3.82946"
         id="path5973" />
      <path
         d="m 604.34213,287.7609 4.75158,4.72286 9.17063,9.67739 8.72514,9.97412 8.27707,10.25624 7.82644,10.52377 7.37323,10.7767 6.91746,11.01502 6.4591,11.23875 5.99818,11.44787 5.53469,11.6424 5.06862,11.82232 4.59999,11.98765 4.12879,12.13838 3.655,12.2745 3.17866,12.39603 2.69973,12.50295 2.21825,12.59528 1.73418,12.673 1.24755,12.73613 0.75834,12.78465 0.26656,12.81858 -0.22778,12.8379 -0.72471,12.84263 -1.22419,12.83276 -1.72626,12.80828 -2.23089,12.7692 -2.7381,12.71553 -3.24787,12.64725 -3.76022,12.56438 -4.27514,12.46691 -4.79263,12.35482 -5.31269,12.22816 -2.85217,6.06201"
         id="path5975" />
    </g>
  </g>
  <g
     inkscape:groupmode="layer"
     id="layer2"
     inkscape:label="2 blue"
     style="display:inline" />
  <g
     inkscape:groupmode="layer"
     id="layer3"
     inkscape:label="3 red"
     style="display:inline" />
  <WCB
     layer="1"
     node="1427"
     lastpath="26"
     lastpathnc="1370"
     lastknownposx="2.366732283464583"
     lastknownposy="3.85531496062993"
     pausedposx="2.366732283464583"
     pausedposy="3.85531496062993"
     randseed="1641594430.932197"
     row="0"
     application="Axidraw" />
</svg>
