<?xml version="1.0" standalone="no"?>
<!DOCTYPE svg PUBLIC "-//W3C//DTD SVG 1.1//EN" 
    "http://www.w3.org/Graphics/SVG/1.1/DTD/svg11.dtd">
<svg width="2480px" height="3508px"
    xmlns="http://www.w3.org/2000/svg" version="1.1" viewBox="0 0 2480 3508">
  <g fill="none" stroke="black" stroke-width="1.06299px">
    <path d="M621.1068006844462 1135.1068006844462 L1869.7614144748775 1143.7614144748775" />
    <path d="M1861.1068006844462 1135.1068006844462 L1869.7614144748775 2383.7614144748777" />
    <path d="M1861.1068006844462 2375.106800684446 L629.7614144748775 2383.7614144748777" />
    <path d="M621.1068006844462 2375.106800684446 L629.7614144748775 1143.7614144748775" />
    <path d="M650.4850386168314 1121.8226013212807 L1890.5551446886352 1165.9831967643727" />
    <path d="M1889.72966412051 1165.0979772323822 L1847.279768777534 2405.2278222680516" />
    <path d="M1846.4542882094088 2404.342602736061 L608.035143273855 2361.95244635695" />
    <path d="M607.2096627057301 2361.0672268249596 L651.3105191849563 1122.7078208532716" />
    <path d="M669.1168638670198 1097.2740759773687 L1905.9430852283215 1183.5958658747315" />
    <path d="M1906.0962861892017 1183.7721034200842 L1819.4450577856062 2420.575288196914" />
    <path d="M1819.5982587464864 2420.7515257422665 L582.4656354634242 2334.0772607541985" />
    <path d="M582.6188364243044 2334.253498299551 L668.9636629061395 1097.0978384320163" />
    <path d="M688.4120193593823 1072.8455711279903 L1923.734032851858 1205.0725041762514" />
    <path d="M1921.6191696160413 1202.4608655798806 L1794.118738399968 2438.2796544329103" />
    <path d="M1792.003875164151 2435.6680158365393 L560.9115881433089 2308.66435998102" />
    <path d="M558.7967249074919 2306.052721384649 L690.5268825951991 1075.4572097243613" />
    <path d="M716.1717509508076 1058.8564346807825 L1948.4925160786615 1237.2546301364482" />
    <path d="M1944.1041561903548 1231.4310798712636 L1775.9178708881805 2465.187035375995" />
    <path d="M1771.5295109998738 2459.363485110811 L547.9854656486332 2292.6123901855144" />
    <path d="M543.5971057603265 2286.78883992033 L720.5601108391143 1064.6799849459671" />
    <path d="M738.2338301437337 1037.403644669148 L1964.0243696923967 1259.3381761500846" />
    <path d="M1959.3954438788717 1252.7273849761416 L1748.700629385403 2480.4997898852225" />
    <path d="M1744.071703571878 2473.88899871128 L527.539015650265 2265.176049578229" />
    <path d="M522.9100898367401 2258.565258404286 L742.8627559572586 1044.014435843091" />
    <path d="M770.0187599445196 1030.2923547884347 L1980.8619978252086 1284.9310575232255" />
    <path d="M1982.9217848544386 1288.1028514024563 L1723.051501211187 2497.8340824331444" />
    <path d="M1725.1112882404168 2501.0058763123757 L510.14847630126815 2240.0235858191227" />
    <path d="M512.208263330498 2243.195379698354 L767.9589729152897 1027.120560909204" />
    <path d="M793.1134512610766 1010.2558859953753 L1997.8064246801214 1312.7791811057332" />
    <path d="M1996.2801518433123 1310.2390365389633 L1697.8232741365332 2515.9458816879687" />
    <path d="M1696.2970012997243 2513.4057371211993 L494.65657355429767 2215.9627311443805" />
    <path d="M493.1303007174886 2213.422586577611 L794.6397240978856 1012.7960305621452" />
    <path d="M817.2510966904991 991.3407899410386 L2008.881993701595 1332.5292700845102" />
    <path d="M2009.2155996540146 1333.1311111541177 L1667.0916724885162 2524.4937730480256" />
    <path d="M1667.4252784409355 2525.095614117633 L475.1271695250007 2182.7034518349465" />
    <path d="M475.46077547742016 2183.305292904554 L816.9174907380797 990.7389488714314" />
    <path d="M843.1764394961016 975.1899113230903 L2023.6840462251694 1360.7212624828376" />
    <path d="M2022.486519702092 1358.370984348025 L1640.5029732002345 2540.0313426888283" />
    <path d="M1639.3054466771573 2537.6810645540154 L461.1928929942442 2156.8502696638934" />
    <path d="M459.9953664711669 2154.4999915290805 L844.3739660191791 977.5401894579029" />
    <path d="M871.0047920371563 962.6872228888182 L2038.9210259750248 1392.5767596182068" />
    <path d="M2036.2236418116827 1386.7922006126473 L1614.8160482511955 2557.7956093927332" />
    <path d="M1612.1186640878536 2552.011050387174 L449.59719847666906 2133.690631668904" />
    <path d="M446.89981431332706 2127.9060726633447 L873.7021762004982 968.4717818943776" />
    <path d="M898.5869110169108 949.6811665959935 L2047.7343221734404 1412.872725789983" />
    <path d="M2048.294890679727 1414.1933424317244 L1583.2221463377098 2562.580705452799" />
    <path d="M1583.782714843996 2563.901322094541 L433.5141666748932 2098.068529617068" />
    <path d="M434.0747351811799 2099.38914625881 L898.0263425106241 948.3605499542521" />
    <path d="M929.7751378147003 945.8366039249341 L2062.8998667769283 1451.0454522538157" />
    <path d="M2062.5715052915257 1450.1900413389264 L1558.546429362936 2583.841819730641" />
    <path d="M1558.218067877533 2582.9864088157515 L425.75006188611087 2079.4883823166488" />
    <path d="M425.421700400708 2078.6329714017593 L930.1034993001032 946.6920148398235" />
    <path d="M954.8610664803564 925.8964076233676 L2069.260411336121 1469.1708959418836" />
    <path d="M2069.3656838913234 1469.4766296418236 L1525.680189317665 2583.6755133528504" />
    <path d="M1525.7854618728675 2583.9812470527904 L411.1755719066979 2040.0952913343945" />
    <path d="M411.2808444619004 2040.4010250343345 L954.7557939251537 925.5906739234276" />
    <path d="M984.0114170211489 916.6990730615801 L2080.119918018117 1502.9437783970002" />
    <path d="M2078.866432166218 1498.8438109160847 L1497.9751801636125 2597.7987935420692" />
    <path d="M1496.7216943117137 2593.6988260611543 L403.12016501854305 2015.6540556875648" />
    <path d="M401.8666791666442 2011.5540882066498 L985.2649028730475 920.7990405424955" />
    <path d="M1014.5271555839408 912.523888912195 L2089.6328180469545 1537.1298433437505" />
    <path d="M2088.398656276645 1532.523888912195 L1469.6328180469548 2611.0013440364546" />
    <path d="M1468.3986562766452 2606.395389604899 L395.7613173542509 1991.001344036455" />
    <path d="M394.52715558394107 1986.3953896048988 L1015.7613173542509 917.1298433437507" />
    <path d="M1043.9493003330026 904.8111242558716 L2097.449363865855 1570.2292834240534" />
    <path d="M2095.5289395669706 1561.9110119050456 L1440.349476216681 2621.8089226580214" />
    <path d="M1438.4290519177966 2613.4906511390136 L388.76983698271306 1964.7090350088474" />
    <path d="M386.8494126838284 1956.3907634898399 L1045.8697246318873 913.1293957748794" />
    <path d="M1074.2166466804154 901.118583898706 L2102.9449458794065 1598.2306563237962" />
    <path d="M2102.223236648667 1594.517784202432 L1409.5457455756805 2626.237246292048" />
    <path d="M1408.824036344941 2622.5243741706836 L381.5391556074287 1932.8380459883217" />
    <path d="M380.8174463766894 1929.1251738669573 L1074.938355911155 904.8314560200699" />
    <path d="M1103.119891983435 889.7730106815305 L2107.479110939775 1626.0652441831148" />
    <path d="M2106.30096500837 1618.6267235241971 L1378.6253980971082 2629.2463172080497" />
    <path d="M1377.4472521657033 2621.807796549132 L375.44432507217357 1900.3926043653832" />
    <path d="M374.2661791407685 1892.9540837064653 L1104.2980379148405 897.2115313404482" />
    <path d="M1133.601559448476 887.4542407521274 L2111.632720704097 1658.1866825113386" />
    <path d="M2110.7348939208114 1650.8744701559435 L1348.2124913002806 2635.320016983674" />
    <path d="M1347.3146645169948 2628.007804628279 L371.07915682794555 1871.899787579858" />
    <path d="M370.1813300446597 1864.5875752244624 L1134.499386231762 894.7664531075225" />
    <path d="M1164.7708941105932 894.1273849941088 L2114.6949309898678 1691.5146628346115" />
    <path d="M2114.666003578126 1691.1840210054172 L1317.638294978559 2641.4097723021446" />
    <path d="M1317.6093675668171 2641.07913047295 L367.74318551102624 1844.353136290836" />
    <path d="M367.7142580992843 1844.0224944616416 L1164.7998215223352 894.4580268233028" />
    <path d="M1194.4101726338806 884.0942724571453 L2115.930888343916 1714.2194491754608" />
    <path d="M2115.9097562258494 1713.8162243421295 L1286.2089364589322 2635.71903276743" />
    <path d="M1286.1878043408651 2635.3158079340983 L364.7093528669632 1805.9970808824453" />
    <path d="M364.68822074889636 1805.5938560491145 L1194.4313047519472 884.4974972904765" />
    <path d="M1224.9013389926927 888.9982902155158 L2116.7418802427 1742.307603062759" />
    <path d="M2116.8826914126203 1750.3746695846723 L1255.3655008735434 2634.288955482686" />
    <path d="M1255.5063120434634 2642.3560220046 L363.3841484536158 1772.9125761135297" />
    <path d="M363.5249596235358 1780.9796426354435 L1224.7605278227722 880.9312236936024" />
    <path d="M1255.201774058232 883.0909474844045 L2116.5831499279284 1774.7860505801457" />
    <path d="M2116.5781534273888 1775.0722999043319 L1224.6017975080008 2636.1624299493023" />
    <path d="M1224.5968010074616 2636.448679273489 L363.22541813884413 1744.1810775293752" />
    <path d="M363.22042163830486 1744.4673268535612 L1255.2067705587715 882.8046981602184" />
    <path d="M1285.2648765769757 890.2947028815815 L2115.292484297846 1805.9620256896076" />
    <path d="M2114.9868284619597 1811.7942864735503 L1193.792900705877 2635.6839775745916" />
    <path d="M1193.4872448699907 2641.516238358535 L364.0709488208927 1714.1843939826229" />
    <path d="M363.7652929850067 1720.0166547665658 L1285.5705324128617 884.4624420976386" />
    <path d="M1315.4996203508836 891.0353905507764 L2112.827668085495 1837.8282498253773" />
    <path d="M2112.5562563621925 1840.9305000183092 L1162.9325586179623 2634.884885836686" />
    <path d="M1162.6611468946596 2637.987136029618 L365.8759226066534 1684.9897763691533" />
    <path d="M365.6045108833507 1688.092026562085 L1315.7710320741862 887.9331403578444" />
    <path d="M1346.6332839762665 885.5415945446935 L2109.0403568622887 1870.9264266837022" />
    <path d="M2110.0535133800827 1862.6749290170287 L1131.907022389954 2634.3466560875186" />
    <path d="M1132.9201789077474 2626.095158420845 L368.4867929861375 1657.213321615183" />
    <path d="M369.49994950393113 1648.9618239485098 L1345.6201274584726 893.7930922113669" />
    <path d="M1377.0183207605232 888.9003697600145 L2104.9428873380284 1897.9478414239693" />
    <path d="M2105.87203360319 1892.081442784949 L1101.7618143130935 2626.8015542666362" />
    <path d="M1102.6909605782553 2620.935155627616 L372.9081014704267 1623.6204812417013" />
    <path d="M373.83724773558856 1617.7540826026814 L1376.0891744953615 894.7667683990344" />
    <path d="M1406.0558936918305 899.7164852321532 L2099.5134657049166 1927.4227787886005" />
    <path d="M2099.455093995557 1927.7230752004048 L1071.5068757366646 2620.8219790923267" />
    <path d="M1071.4485040273055 2621.122275504131 L378.1076754329383 1592.815389124075" />
    <path d="M378.0493037235792 1593.1156855358793 L1406.11426540119 899.4161888203487" />
    <path d="M1434.443949629519 911.770723279215 L2093.7684169985155 1953.7146491263504" />
    <path d="M2091.543837278693 1963.350362513183 L1042.188777764547 2610.8145367755246" />
    <path d="M1039.964198044725 2620.4502501623574 L385.08889011537303 1559.2348975415566" />
    <path d="M382.8643103955509 1568.870610928389 L1436.6685293493415 902.1350098923823" />
    <path d="M1465.7915939372447 911.3342995042408 L2085.6222098210915 1985.8379503244246" />
    <path d="M2085.791593937245 1985.205800196945 L1011.7507091283878 2605.8379503244246" />
    <path d="M1011.920093244541 2605.205800196945 L391.7507091283878 1531.9664496317207" />
    <path d="M391.9200932445409 1531.334299504241 L1465.6222098210915 911.9664496317207" />
    <path d="M1493.974754832289 923.2860081279391 L2074.8919751736626 2022.1560521450688" />
    <path d="M2076.119492686794 2018.1410232730086 L980.0369600285931 2604.3007899995737" />
    <path d="M981.2644775417247 2600.285761127513 L397.8922221740884 1509.4457748545042" />
    <path d="M399.11973968722 1505.4307459824436 L1492.7472373191579 927.3010369999993" />
    <path d="M1523.4126021474967 930.9100379728297 L2065.885880043169 2048.6294545461647" />
    <path d="M2066.9928241659527 2045.414655383797 L951.3812626322017 2592.2096765646206" />
    <path d="M952.4882067549854 2588.994877402253 L407.8010406137457 1477.7050591536536" />
    <path d="M408.90798473652944 1474.490259991286 L1522.305658024713 934.1248371351974" />
    <path d="M1554.141217119906 935.6341505113319 L2054.6286585038793 2078.5017819701084" />
    <path d="M2058.494654533898 2068.4305179881567 L921.8322910270543 2582.8552193841006" />
    <path d="M925.6982870570731 2572.783955402149 L417.47885361306203 1450.0588519072755" />
    <path d="M421.34484964308103 1439.987587925324 L1550.275221089887 945.7054144932833" />
    <path d="M1577.931460595028 957.883369070927 L2044.1394791771231 2103.5961935876558" />
    <path d="M2042.443636430759 2107.5913487337434 L894.4314995143068 2568.1083694233866" />
    <path d="M892.7356567679425 2572.1035245694743 L429.9193236785759 1418.4003897605703" />
    <path d="M428.2234809322117 1422.3955449066577 L1579.6273033413922 953.8882139248394" />
    <path d="M1610.103098483668 960.3113439997428 L2030.688754529905 2133.0774034673655" />
    <path d="M2034.2080762074975 2125.5301937742693 L865.4699047553784 2557.182381191195" />
    <path d="M868.9892264329711 2549.6351714980983 L441.3649270315491 1391.963531416669" />
    <path d="M444.88424870914173 1384.416321723572 L1606.5837768060755 967.8585536928395" />
    <path d="M1631.76832287253 985.1113738062389 L2017.9351980184429 2158.5614874022385" />
    <path d="M2014.949395897465 2164.4214540122293 L838.6251178124522 2541.742560427173" />
    <path d="M835.6393156914744 2547.6025270371642 L455.44404478751744 1362.432480221183" />
    <path d="M452.4582426665395 1368.292446831174 L1634.754124993508 979.251407196248" />
    <path d="M1664.7258085424944 987.7743584930724 L2000.8164278206723 2190.021395937962" />
    <path d="M2006.5161297555733 2179.738861456588 L808.8519248571572 2531.811717151041" />
    <path d="M814.5516267920577 2521.5291826696666 L467.0616036440782 1339.8472141875257" />
    <path d="M472.76130557897875 1329.5646797061515 L1659.0261066075934 998.0568929744468" />
    <path d="M1688.8200623071107 1007.0379790349948 L1985.5189993825506 2215.670528707928" />
    <path d="M1988.8032128506984 2210.204679617231 L782.3522988003152 2515.6536792515158" />
    <path d="M785.6365122684629 2510.1878301608185 L482.36914825672727 1312.4869786692805" />
    <path d="M485.6533617248749 1307.0211295785828 L1685.535848838963 1012.5038281256925" />
    <path d="M1713.1343417370208 1025.4370039816858 L1968.050525050281 2242.79688053775" />
    <path d="M1970.9448383510426 2238.3400288916046 L755.1475001403624 2500.6073771517713" />
    <path d="M758.0418134411237 2496.1505255056263 L497.3370035263406 1287.7043522418523" />
    <path d="M500.2313168271021 1283.2475005957074 L1710.2400284362593 1029.8938556278308" />
    <path d="M1740.1326962238027 1039.7364867814167 L1954.5116379033107 2262.247412793171" />
    <path d="M1955.4564365307965 2260.8981005165547 L733.3500241681725 2477.571153100165" />
    <path d="M734.2948227956587 2476.2218408235485 L518.0262838611789 1256.4095393650268" />
    <path d="M518.9710824886649 1255.0602270884103 L1739.187897596317 1041.085799058033" />
    <path d="M1765.3610059773177 1056.8223975365113 L1936.1374687902733 2287.141071388483" />
    <path d="M1937.9356511677988 2284.7548027760586 L708.2050635507262 2459.715716578964" />
    <path d="M710.0032459282513 2457.3294479665396 L535.630418360245 1231.7833113394167" />
    <path d="M537.4286007377702 1229.3970427269924 L1763.562823599792 1059.2086661489357" />
    <path d="M1791.5308520279973 1072.916119089272 L1920.4984336969324 2306.9231280198537" />
    <path d="M1921.1461464798876 2306.1232693459306 L687.2912834402734 2436.538422471744" />
    <path d="M687.9389962232285 2435.7385637978214 L557.6759889883831 1203.3312722150852" />
    <path d="M558.3237017713382 1202.5314135411622 L1790.883139245042 1073.7159777631948" />
    <path d="M1810.7780749458045 1097.394935047921 L1899.6833743214083 2331.605107790918" />
    <path d="M1897.2761023885198 2334.3743573701026 L662.7039519992264 2418.103135233633" />
    <path d="M660.2966800663379 2420.872384812818 L576.2059245565111 1181.123712911451" />
    <path d="M573.7986526236226 1183.8929624906364 L1813.185346878693 1094.6256854687358" />
    <path d="M1833.0825161234889 1117.996867246461 L1874.3943929886375 2359.347087689183" />
    <path d="M1876.3578920345903 2357.24149275014 L635.1497674849589 2402.6224636002844" />
    <path d="M637.1132665309117 2400.5168686612415 L591.8743915738576 1163.3778380966055" />
    <path d="M593.8378906198103 1161.2722431575623 L1831.1190170775362 1120.102462185504" />
  </g>
</svg>