<?xml version="1.0" standalone="no"?>
<!DOCTYPE svg PUBLIC "-//W3C//DTD SVG 1.1//EN" 
    "http://www.w3.org/Graphics/SVG/1.1/DTD/svg11.dtd">
<svg width="5in" height="7in"
    xmlns="http://www.w3.org/2000/svg" version="1.1" viewBox="0 0 450 630">
  <g fill="none" stroke="black" stroke-width="0.01181in">
    <path d="M55.35 62.74414 L57.15 71.45926" />
    <path d="M57.15 71.45926 L55.35 80.17439" />
    <path d="M55.35 80.17439 L57.15 88.88951" />
    <path d="M57.15 88.88951 L55.35 97.60463" />
    <path d="M55.35 97.60463 L57.15 106.31975" />
    <path d="M57.15 106.31975 L55.35 115.03488" />
    <path d="M55.35 115.03488 L57.15 123.75" />
    <path d="M62.1 56.25 L63.9 63.16257" />
    <path d="M62.1 67.66257 L63.9 76.84787" />
    <path d="M63.9 76.84787 L62.1 86.03316" />
    <path d="M62.1 86.03316 L63.9 95.21846" />
    <path d="M62.1 99.71846 L63.9 107.72897" />
    <path d="M63.9 107.72897 L62.1 115.73949" />
    <path d="M62.1 115.73949 L63.9 123.75" />
    <path d="M68.85 56.25 L70.65 64.88039" />
    <path d="M70.65 64.88039 L68.85 73.51079" />
    <path d="M68.85 73.51079 L70.65 82.14118" />
    <path d="M70.65 82.14118 L68.85 90.77158" />
    <path d="M68.85 90.77158 L70.65 99.40197" />
    <path d="M70.65 99.40197 L68.85 108.03236" />
    <path d="M68.85 108.03236 L70.65 116.66276" />
    <path d="M75.6 56.25 L77.4 65.02923" />
    <path d="M77.4 65.02923 L75.6 73.80846" />
    <path d="M75.6 73.80846 L77.4 82.58769" />
    <path d="M77.4 82.58769 L75.6 91.36691" />
    <path d="M75.6 91.36691 L77.4 100.14614" />
    <path d="M75.6 104.64614 L77.4 114.19807" />
    <path d="M77.4 114.19807 L75.6 123.75" />
    <path d="M82.35 56.25 L84.15 62.35765" />
    <path d="M82.35 66.85765 L84.15 76.45192" />
    <path d="M84.15 76.45192 L82.35 86.0462" />
    <path d="M82.35 86.0462 L84.15 95.64047" />
    <path d="M84.15 95.64047 L82.35 105.23474" />
    <path d="M82.35 115.42143 L84.15 123.75" />
    <path d="M89.1 56.25 L90.9 66.29147" />
    <path d="M90.9 66.29147 L89.1 76.33294" />
    <path d="M89.1 76.33294 L90.9 86.37441" />
    <path d="M90.9 86.37441 L89.1 96.41588" />
    <path d="M89.1 107.94105 L90.9 113.7291" />
    <path d="M89.1 118.2291 L90.9 123.75" />
    <path d="M95.85 56.25 L97.65 65.89286" />
    <path d="M97.65 65.89286 L95.85 75.53571" />
    <path d="M95.85 75.53571 L97.65 85.17857" />
    <path d="M97.65 85.17857 L95.85 94.82143" />
    <path d="M95.85 94.82143 L97.65 104.46429" />
    <path d="M97.65 104.46429 L95.85 114.10714" />
    <path d="M95.85 114.10714 L97.65 123.75" />
    <path d="M102.6 56.25 L104.4 66.41596" />
    <path d="M102.6 70.91596 L104.4 78.31487" />
    <path d="M104.4 78.31487 L102.6 85.71378" />
    <path d="M102.6 97.77898 L104.4 106.43598" />
    <path d="M104.4 106.43598 L102.6 115.09299" />
    <path d="M102.6 115.09299 L104.4 123.75" />
    <path d="M109.35 56.25 L111.15 64.28664" />
    <path d="M111.15 64.28664 L109.35 72.32328" />
    <path d="M109.35 72.32328 L111.15 80.35993" />
    <path d="M109.35 84.85993 L111.15 94.58245" />
    <path d="M111.15 94.58245 L109.35 104.30496" />
    <path d="M109.35 104.30496 L111.15 114.02748" />
    <path d="M111.15 114.02748 L109.35 123.75" />
    <path d="M116.1 56.25 L117.9 65.69279" />
    <path d="M117.9 65.69279 L116.1 75.13558" />
    <path d="M116.1 75.13558 L117.9 84.57837" />
    <path d="M117.9 84.57837 L116.1 94.02116" />
    <path d="M116.1 94.02116 L117.9 103.46395" />
    <path d="M117.9 103.46395 L116.1 112.90674" />
    <path d="M116.1 117.40674 L117.9 123.75" />
    <path d="M122.85 56.25 L124.65 63.25714" />
    <path d="M124.65 63.25714 L122.85 70.26429" />
    <path d="M122.85 74.76429 L124.65 87.21426" />
    <path d="M122.85 91.71426 L124.65 97.07047" />
    <path d="M122.85 101.57047 L124.65 108.97404" />
    <path d="M124.65 108.97404 L122.85 116.37762" />
    <path d="M55.35 146.25 L57.15 154.19094" />
    <path d="M55.35 158.69094 L57.15 165.59577" />
    <path d="M55.35 170.09577 L57.15 179.94144" />
    <path d="M57.15 179.94144 L55.35 189.78712" />
    <path d="M55.35 189.78712 L57.15 199.63279" />
    <path d="M55.35 204.13279 L57.15 213.75" />
    <path d="M62.1 146.25 L63.9 155.54111" />
    <path d="M63.9 155.54111 L62.1 164.83222" />
    <path d="M62.1 164.83222 L63.9 174.12333" />
    <path d="M63.9 174.12333 L62.1 183.41444" />
    <path d="M62.1 183.41444 L63.9 192.70555" />
    <path d="M63.9 192.70555 L62.1 201.99666" />
    <path d="M62.1 206.49666 L63.9 213.75" />
    <path d="M68.85 146.25 L70.65 154.99241" />
    <path d="M70.65 154.99241 L68.85 163.73482" />
    <path d="M68.85 163.73482 L70.65 172.47723" />
    <path d="M70.65 172.47723 L68.85 181.21964" />
    <path d="M68.85 181.21964 L70.65 189.96205" />
    <path d="M70.65 189.96205 L68.85 198.70446" />
    <path d="M68.85 203.20446 L70.65 213.75" />
    <path d="M75.6 146.25 L77.4 156.22868" />
    <path d="M77.4 156.22868 L75.6 166.20736" />
    <path d="M75.6 166.20736 L77.4 176.18603" />
    <path d="M77.4 176.18603 L75.6 186.16471" />
    <path d="M75.6 190.66471 L77.4 198.35981" />
    <path d="M77.4 198.35981 L75.6 206.0549" />
    <path d="M75.6 206.0549 L77.4 213.75" />
    <path d="M82.35 146.25 L84.15 154.17637" />
    <path d="M84.15 154.17637 L82.35 162.10275" />
    <path d="M82.35 166.60275 L84.15 178.5825" />
    <path d="M82.35 183.0825 L84.15 193.305" />
    <path d="M84.15 193.305 L82.35 203.5275" />
    <path d="M82.35 203.5275 L84.15 213.75" />
    <path d="M89.1 146.25 L90.9 155.65741" />
    <path d="M90.9 155.65741 L89.1 165.06482" />
    <path d="M89.1 165.06482 L90.9 174.47223" />
    <path d="M89.1 178.97223 L90.9 187.66667" />
    <path d="M90.9 187.66667 L89.1 196.36112" />
    <path d="M89.1 196.36112 L90.9 205.05556" />
    <path d="M90.9 205.05556 L89.1 213.75" />
    <path d="M95.85 146.25 L97.65 155.94193" />
    <path d="M97.65 155.94193 L95.85 165.63386" />
    <path d="M95.85 165.63386 L97.65 175.32578" />
    <path d="M95.85 179.82578 L97.65 188.30684" />
    <path d="M97.65 188.30684 L95.85 196.78789" />
    <path d="M95.85 196.78789 L97.65 205.26895" />
    <path d="M97.65 205.26895 L95.85 213.75" />
    <path d="M102.6 153.38426 L104.4 161.56612" />
    <path d="M104.4 161.56612 L102.6 169.74798" />
    <path d="M102.6 169.74798 L104.4 177.92984" />
    <path d="M104.4 177.92984 L102.6 186.11169" />
    <path d="M102.6 186.11169 L104.4 194.29355" />
    <path d="M102.6 198.79355 L104.4 206.27178" />
    <path d="M104.4 206.27178 L102.6 213.75" />
    <path d="M109.35 146.25 L111.15 154.6875" />
    <path d="M111.15 154.6875 L109.35 163.125" />
    <path d="M109.35 163.125 L111.15 171.5625" />
    <path d="M111.15 171.5625 L109.35 180" />
    <path d="M109.35 180 L111.15 188.4375" />
    <path d="M111.15 188.4375 L109.35 196.875" />
    <path d="M109.35 196.875 L111.15 205.3125" />
    <path d="M111.15 205.3125 L109.35 213.75" />
    <path d="M116.1 146.25 L117.9 155.89286" />
    <path d="M117.9 155.89286 L116.1 165.53571" />
    <path d="M116.1 165.53571 L117.9 175.17857" />
    <path d="M117.9 175.17857 L116.1 184.82143" />
    <path d="M116.1 184.82143 L117.9 194.46429" />
    <path d="M117.9 194.46429 L116.1 204.10714" />
    <path d="M116.1 204.10714 L117.9 213.75" />
    <path d="M122.85 146.25 L124.65 155.5242" />
    <path d="M124.65 155.5242 L122.85 164.7984" />
    <path d="M122.85 164.7984 L124.65 174.07259" />
    <path d="M122.85 178.57259 L124.65 187.36695" />
    <path d="M124.65 187.36695 L122.85 196.1613" />
    <path d="M122.85 196.1613 L124.65 204.95565" />
    <path d="M124.65 204.95565 L122.85 213.75" />
    <path d="M55.35 236.25 L57.15 244.72129" />
    <path d="M57.15 244.72129 L55.35 253.19259" />
    <path d="M55.35 253.19259 L57.15 261.66388" />
    <path d="M57.15 261.66388 L55.35 270.13518" />
    <path d="M55.35 270.13518 L57.15 278.60647" />
    <path d="M55.35 283.10647 L57.15 293.42824" />
    <path d="M57.15 293.42824 L55.35 303.75" />
    <path d="M62.1 236.25 L63.9 245.50692" />
    <path d="M63.9 245.50692 L62.1 254.76385" />
    <path d="M62.1 259.26385 L63.9 268.16108" />
    <path d="M63.9 268.16108 L62.1 277.05831" />
    <path d="M62.1 277.05831 L63.9 285.95554" />
    <path d="M63.9 285.95554 L62.1 294.85277" />
    <path d="M62.1 294.85277 L63.9 303.75" />
    <path d="M68.85 236.25 L70.65 244.60636" />
    <path d="M70.65 244.60636 L68.85 252.96272" />
    <path d="M68.85 252.96272 L70.65 261.31908" />
    <path d="M70.65 261.31908 L68.85 269.67544" />
    <path d="M68.85 269.67544 L70.65 278.0318" />
    <path d="M70.65 278.0318 L68.85 286.38817" />
    <path d="M68.85 297.02116 L70.65 303.75" />
    <path d="M75.6 236.25 L77.4 245.14201" />
    <path d="M77.4 245.14201 L75.6 254.03402" />
    <path d="M75.6 254.03402 L77.4 262.92603" />
    <path d="M77.4 262.92603 L75.6 271.81803" />
    <path d="M75.6 271.81803 L77.4 280.71004" />
    <path d="M77.4 280.71004 L75.6 289.60205" />
    <path d="M75.6 289.60205 L77.4 298.49406" />
    <path d="M82.35 236.25 L84.15 246.78224" />
    <path d="M82.35 251.28224 L84.15 259.90135" />
    <path d="M84.15 259.90135 L82.35 268.52047" />
    <path d="M82.35 268.52047 L84.15 277.13958" />
    <path d="M82.35 286.36275 L84.15 291.85948" />
    <path d="M82.35 296.35948 L84.15 303.75" />
    <path d="M89.1 236.25 L90.9 245.99683" />
    <path d="M90.9 245.99683 L89.1 255.74367" />
    <path d="M89.1 255.74367 L90.9 265.4905" />
    <path d="M90.9 265.4905 L89.1 275.23733" />
    <path d="M89.1 279.73733 L90.9 287.74156" />
    <path d="M90.9 287.74156 L89.1 295.74578" />
    <path d="M89.1 295.74578 L90.9 303.75" />
    <path d="M95.85 236.25 L97.65 247.34118" />
    <path d="M95.85 251.84118 L97.65 262.14263" />
    <path d="M95.85 266.64263 L97.65 277.52016" />
    <path d="M97.65 277.52016 L95.85 288.3977" />
    <path d="M95.85 292.8977 L97.65 303.75" />
    <path d="M102.6 236.25 L104.4 244.23538" />
    <path d="M104.4 244.23538 L102.6 252.22076" />
    <path d="M102.6 252.22076 L104.4 260.20614" />
    <path d="M104.4 260.20614 L102.6 268.19152" />
    <path d="M102.6 272.69152 L104.4 280.34326" />
    <path d="M104.4 280.34326 L102.6 287.995" />
    <path d="M102.6 292.495 L104.4 303.75" />
    <path d="M109.35 236.25 L111.15 244.95243" />
    <path d="M111.15 244.95243 L109.35 253.65487" />
    <path d="M109.35 253.65487 L111.15 262.3573" />
    <path d="M111.15 262.3573 L109.35 271.05974" />
    <path d="M109.35 271.05974 L111.15 279.76217" />
    <path d="M111.15 279.76217 L109.35 288.46461" />
    <path d="M109.35 288.46461 L111.15 297.16704" />
    <path d="M116.1 236.25 L117.9 244.80392" />
    <path d="M117.9 244.80392 L116.1 253.35784" />
    <path d="M116.1 253.35784 L117.9 261.91176" />
    <path d="M117.9 261.91176 L116.1 270.46567" />
    <path d="M116.1 274.96567 L117.9 284.56045" />
    <path d="M117.9 284.56045 L116.1 294.15522" />
    <path d="M116.1 294.15522 L117.9 303.75" />
    <path d="M122.85 236.25 L124.65 245.89286" />
    <path d="M124.65 245.89286 L122.85 255.53571" />
    <path d="M122.85 255.53571 L124.65 265.17857" />
    <path d="M124.65 265.17857 L122.85 274.82143" />
    <path d="M122.85 274.82143 L124.65 284.46429" />
    <path d="M124.65 284.46429 L122.85 294.10714" />
    <path d="M122.85 294.10714 L124.65 303.75" />
    <path d="M55.35 326.25 L57.15 336.71902" />
    <path d="M57.15 336.71902 L55.35 347.18804" />
    <path d="M55.35 351.68804 L57.15 360.10044" />
    <path d="M57.15 360.10044 L55.35 368.51283" />
    <path d="M55.35 368.51283 L57.15 376.92522" />
    <path d="M57.15 376.92522 L55.35 385.33761" />
    <path d="M55.35 385.33761 L57.15 393.75" />
    <path d="M62.1 326.25 L63.9 336.35134" />
    <path d="M63.9 336.35134 L62.1 346.45267" />
    <path d="M62.1 350.95267 L63.9 359.15872" />
    <path d="M63.9 359.15872 L62.1 367.36477" />
    <path d="M62.1 367.36477 L63.9 375.57082" />
    <path d="M63.9 375.57082 L62.1 383.77686" />
    <path d="M62.1 388.27686 L63.9 393.75" />
    <path d="M68.85 326.25 L70.65 335.28419" />
    <path d="M70.65 335.28419 L68.85 344.31838" />
    <path d="M68.85 344.31838 L70.65 353.35257" />
    <path d="M70.65 353.35257 L68.85 362.38676" />
    <path d="M68.85 362.38676 L70.65 371.42095" />
    <path d="M68.85 375.92095 L70.65 386.36666" />
    <path d="M75.6 326.25 L77.4 335.84523" />
    <path d="M77.4 335.84523 L75.6 345.44046" />
    <path d="M75.6 345.44046 L77.4 355.03568" />
    <path d="M77.4 355.03568 L75.6 364.63091" />
    <path d="M75.6 364.63091 L77.4 374.22614" />
    <path d="M75.6 378.72614 L77.4 386.23807" />
    <path d="M77.4 386.23807 L75.6 393.75" />
    <path d="M82.35 326.25 L84.15 335.69545" />
    <path d="M84.15 335.69545 L82.35 345.1409" />
    <path d="M82.35 345.1409 L84.15 354.58636" />
    <path d="M82.35 359.08636 L84.15 367.75227" />
    <path d="M84.15 367.75227 L82.35 376.41818" />
    <path d="M82.35 376.41818 L84.15 385.08409" />
    <path d="M84.15 385.08409 L82.35 393.75" />
    <path d="M89.1 326.25 L90.9 334.39178" />
    <path d="M90.9 334.39178 L89.1 342.53356" />
    <path d="M89.1 342.53356 L90.9 350.67535" />
    <path d="M90.9 350.67535 L89.1 358.81713" />
    <path d="M89.1 358.81713 L90.9 366.95891" />
    <path d="M89.1 371.45891 L90.9 379.30154" />
    <path d="M90.9 379.30154 L89.1 387.14417" />
    <path d="M95.85 326.25 L97.65 334.61419" />
    <path d="M97.65 334.61419 L95.85 342.97839" />
    <path d="M95.85 342.97839 L97.65 351.34258" />
    <path d="M97.65 351.34258 L95.85 359.70677" />
    <path d="M95.85 359.70677 L97.65 368.07097" />
    <path d="M97.65 368.07097 L95.85 376.43516" />
    <path d="M95.85 376.43516 L97.65 384.79936" />
    <path d="M102.6 326.25 L104.4 334.93723" />
    <path d="M104.4 334.93723 L102.6 343.62447" />
    <path d="M102.6 343.62447 L104.4 352.3117" />
    <path d="M104.4 352.3117 L102.6 360.99894" />
    <path d="M102.6 365.49894 L104.4 374.91596" />
    <path d="M104.4 374.91596 L102.6 384.33298" />
    <path d="M102.6 384.33298 L104.4 393.75" />
    <path d="M109.35 326.25 L111.15 335.57791" />
    <path d="M111.15 335.57791 L109.35 344.90582" />
    <path d="M109.35 344.90582 L111.15 354.23372" />
    <path d="M111.15 354.23372 L109.35 363.56163" />
    <path d="M109.35 363.56163 L111.15 372.88954" />
    <path d="M109.35 377.38954 L111.15 385.56977" />
    <path d="M111.15 385.56977 L109.35 393.75" />
    <path d="M116.1 326.25 L117.9 339.50152" />
    <path d="M116.1 344.00152 L117.9 352.29293" />
    <path d="M117.9 352.29293 L116.1 360.58434" />
    <path d="M116.1 360.58434 L117.9 368.87576" />
    <path d="M117.9 368.87576 L116.1 377.16717" />
    <path d="M116.1 377.16717 L117.9 385.45859" />
    <path d="M117.9 385.45859 L116.1 393.75" />
    <path d="M122.85 326.25 L124.65 334.64153" />
    <path d="M124.65 334.64153 L122.85 343.03306" />
    <path d="M122.85 343.03306 L124.65 351.42459" />
    <path d="M124.65 351.42459 L122.85 359.81611" />
    <path d="M122.85 372.46128 L124.65 383.10564" />
    <path d="M124.65 383.10564 L122.85 393.75" />
    <path d="M55.35 416.25 L57.15 425.56291" />
    <path d="M57.15 425.56291 L55.35 434.87582" />
    <path d="M55.35 434.87582 L57.15 444.18873" />
    <path d="M57.15 444.18873 L55.35 453.50164" />
    <path d="M55.35 458.00164 L57.15 466.65612" />
    <path d="M55.35 471.15612 L57.15 483.75" />
    <path d="M62.1 416.25 L63.9 425.77005" />
    <path d="M63.9 425.77005 L62.1 435.29009" />
    <path d="M62.1 435.29009 L63.9 444.81014" />
    <path d="M63.9 444.81014 L62.1 454.33018" />
    <path d="M62.1 454.33018 L63.9 463.85023" />
    <path d="M62.1 476.77475 L63.9 483.75" />
    <path d="M68.85 416.25 L70.65 425.70594" />
    <path d="M70.65 425.70594 L68.85 435.16188" />
    <path d="M68.85 435.16188 L70.65 444.61782" />
    <path d="M68.85 449.11782 L70.65 457.77586" />
    <path d="M70.65 457.77586 L68.85 466.43391" />
    <path d="M68.85 466.43391 L70.65 475.09195" />
    <path d="M70.65 475.09195 L68.85 483.75" />
    <path d="M75.6 416.25 L77.4 425.55199" />
    <path d="M77.4 425.55199 L75.6 434.85398" />
    <path d="M75.6 439.35398 L77.4 448.23319" />
    <path d="M77.4 448.23319 L75.6 457.11239" />
    <path d="M75.6 457.11239 L77.4 465.99159" />
    <path d="M77.4 465.99159 L75.6 474.8708" />
    <path d="M75.6 474.8708 L77.4 483.75" />
    <path d="M82.35 416.25 L84.15 426.83888" />
    <path d="M82.35 431.33888 L84.15 438.44589" />
    <path d="M84.15 438.44589 L82.35 445.5529" />
    <path d="M82.35 450.0529 L84.15 460.08493" />
    <path d="M84.15 460.08493 L82.35 470.11697" />
    <path d="M82.35 474.61697 L84.15 483.75" />
    <path d="M89.1 416.25 L90.9 426.05525" />
    <path d="M90.9 426.05525 L89.1 435.86049" />
    <path d="M89.1 435.86049 L90.9 445.66574" />
    <path d="M90.9 445.66574 L89.1 455.47099" />
    <path d="M89.1 455.47099 L90.9 465.27623" />
    <path d="M89.1 469.77623 L90.9 476.76312" />
    <path d="M90.9 476.76312 L89.1 483.75" />
    <path d="M95.85 416.25 L97.65 425.07334" />
    <path d="M97.65 425.07334 L95.85 433.89667" />
    <path d="M95.85 433.89667 L97.65 442.72001" />
    <path d="M95.85 447.22001 L97.65 455.98411" />
    <path d="M97.65 455.98411 L95.85 464.74822" />
    <path d="M95.85 464.74822 L97.65 473.51232" />
    <path d="M95.85 478.01232 L97.65 483.75" />
    <path d="M102.6 416.25 L104.4 423.84952" />
    <path d="M104.4 423.84952 L102.6 431.44904" />
    <path d="M102.6 431.44904 L104.4 439.04856" />
    <path d="M102.6 443.54856 L104.4 454.0226" />
    <path d="M104.4 454.0226 L102.6 464.49663" />
    <path d="M102.6 468.99663 L104.4 476.37332" />
    <path d="M104.4 476.37332 L102.6 483.75" />
    <path d="M109.35 416.25 L111.15 424.85898" />
    <path d="M111.15 424.85898 L109.35 433.46797" />
    <path d="M109.35 433.46797 L111.15 442.07695" />
    <path d="M111.15 442.07695 L109.35 450.68593" />
    <path d="M109.35 450.68593 L111.15 459.29491" />
    <path d="M111.15 459.29491 L109.35 467.9039" />
    <path d="M109.35 472.4039 L111.15 483.75" />
    <path d="M116.1 416.25 L117.9 423.45714" />
    <path d="M116.1 427.95714 L117.9 437.25595" />
    <path d="M117.9 437.25595 L116.1 446.55476" />
    <path d="M116.1 446.55476 L117.9 455.85357" />
    <path d="M117.9 455.85357 L116.1 465.15238" />
    <path d="M116.1 465.15238 L117.9 474.45119" />
    <path d="M117.9 474.45119 L116.1 483.75" />
    <path d="M122.85 416.25 L124.65 425.19245" />
    <path d="M124.65 425.19245 L122.85 434.1349" />
    <path d="M122.85 434.1349 L124.65 443.07736" />
    <path d="M124.65 443.07736 L122.85 452.01981" />
    <path d="M122.85 452.01981 L124.65 460.96226" />
    <path d="M124.65 460.96226 L122.85 469.90471" />
    <path d="M122.85 469.90471 L124.65 478.84717" />
    <path d="M55.35 506.25 L57.15 516.18035" />
    <path d="M57.15 516.18035 L55.35 526.1107" />
    <path d="M55.35 526.1107 L57.15 536.04105" />
    <path d="M55.35 540.54105 L57.15 548.84329" />
    <path d="M57.15 548.84329 L55.35 557.14553" />
    <path d="M55.35 557.14553 L57.15 565.44776" />
    <path d="M57.15 565.44776 L55.35 573.75" />
    <path d="M62.1 530.26432 L63.9 538.96146" />
    <path d="M63.9 538.96146 L62.1 547.65859" />
    <path d="M62.1 547.65859 L63.9 556.35573" />
    <path d="M63.9 556.35573 L62.1 565.05286" />
    <path d="M62.1 565.05286 L63.9 573.75" />
    <path d="M68.85 506.25 L70.65 516.27492" />
    <path d="M70.65 516.27492 L68.85 526.29984" />
    <path d="M68.85 530.79984 L70.65 539.38987" />
    <path d="M70.65 539.38987 L68.85 547.9799" />
    <path d="M68.85 547.9799 L70.65 556.56994" />
    <path d="M70.65 556.56994 L68.85 565.15997" />
    <path d="M68.85 565.15997 L70.65 573.75" />
    <path d="M75.6 506.25 L77.4 514.66451" />
    <path d="M77.4 514.66451 L75.6 523.07903" />
    <path d="M75.6 523.07903 L77.4 531.49354" />
    <path d="M77.4 531.49354 L75.6 539.90805" />
    <path d="M75.6 539.90805 L77.4 548.32257" />
    <path d="M77.4 548.32257 L75.6 556.73708" />
    <path d="M75.6 556.73708 L77.4 565.15159" />
    <path d="M82.35 506.25 L84.15 515.73639" />
    <path d="M84.15 515.73639 L82.35 525.22278" />
    <path d="M82.35 525.22278 L84.15 534.70916" />
    <path d="M84.15 534.70916 L82.35 544.19555" />
    <path d="M82.35 544.19555 L84.15 553.68194" />
    <path d="M84.15 553.68194 L82.35 563.16833" />
    <path d="M82.35 567.66833 L84.15 573.75" />
    <path d="M89.1 506.25 L90.9 514.41986" />
    <path d="M90.9 514.41986 L89.1 522.58973" />
    <path d="M89.1 522.58973 L90.9 530.75959" />
    <path d="M90.9 530.75959 L89.1 538.92946" />
    <path d="M89.1 538.92946 L90.9 547.09932" />
    <path d="M89.1 551.59932 L90.9 562.67466" />
    <path d="M90.9 562.67466 L89.1 573.75" />
    <path d="M95.85 506.25 L97.65 514.65409" />
    <path d="M97.65 514.65409 L95.85 523.05818" />
    <path d="M95.85 523.05818 L97.65 531.46227" />
    <path d="M97.65 531.46227 L95.85 539.86636" />
    <path d="M95.85 539.86636 L97.65 548.27045" />
    <path d="M95.85 552.77045 L97.65 563.26022" />
    <path d="M97.65 563.26022 L95.85 573.75" />
    <path d="M102.6 506.25 L104.4 513.835" />
    <path d="M102.6 518.335 L104.4 524.20183" />
    <path d="M102.6 528.70183 L104.4 536.80231" />
    <path d="M104.4 536.80231 L102.6 544.9028" />
    <path d="M102.6 549.4028 L104.4 557.51853" />
    <path d="M104.4 557.51853 L102.6 565.63427" />
    <path d="M102.6 565.63427 L104.4 573.75" />
    <path d="M109.35 506.25 L111.15 519.37909" />
    <path d="M109.35 528.39253 L111.15 537.46402" />
    <path d="M111.15 537.46402 L109.35 546.53552" />
    <path d="M109.35 546.53552 L111.15 555.60701" />
    <path d="M111.15 555.60701 L109.35 564.67851" />
    <path d="M109.35 564.67851 L111.15 573.75" />
    <path d="M116.1 506.25 L117.9 515.86226" />
    <path d="M116.1 520.36226 L117.9 529.51032" />
    <path d="M117.9 529.51032 L116.1 538.65839" />
    <path d="M116.1 538.65839 L117.9 547.80646" />
    <path d="M116.1 552.30646 L117.9 563.02823" />
    <path d="M117.9 563.02823 L116.1 573.75" />
    <path d="M122.85 506.25 L124.65 514.46006" />
    <path d="M124.65 514.46006 L122.85 522.67012" />
    <path d="M122.85 522.67012 L124.65 530.88018" />
    <path d="M124.65 530.88018 L122.85 539.09024" />
    <path d="M122.85 539.09024 L124.65 547.3003" />
    <path d="M122.85 551.8003 L124.65 562.77515" />
    <path d="M124.65 562.77515 L122.85 573.75" />
    <path d="M145.35 56.25 L147.15 65.52138" />
    <path d="M147.15 65.52138 L145.35 74.79276" />
    <path d="M145.35 74.79276 L147.15 84.06414" />
    <path d="M147.15 84.06414 L145.35 93.33551" />
    <path d="M145.35 93.33551 L147.15 102.60689" />
    <path d="M145.35 107.10689 L147.15 115.42845" />
    <path d="M147.15 115.42845 L145.35 123.75" />
    <path d="M152.1 56.25 L153.9 65.05789" />
    <path d="M153.9 65.05789 L152.1 73.86577" />
    <path d="M152.1 73.86577 L153.9 82.67366" />
    <path d="M153.9 82.67366 L152.1 91.48155" />
    <path d="M152.1 91.48155 L153.9 100.28943" />
    <path d="M153.9 100.28943 L152.1 109.09732" />
    <path d="M152.1 109.09732 L153.9 117.90521" />
    <path d="M158.85 56.25 L160.65 64.98687" />
    <path d="M160.65 64.98687 L158.85 73.72374" />
    <path d="M158.85 73.72374 L160.65 82.4606" />
    <path d="M160.65 82.4606 L158.85 91.19747" />
    <path d="M158.85 91.19747 L160.65 99.93434" />
    <path d="M160.65 99.93434 L158.85 108.67121" />
    <path d="M158.85 113.17121 L160.65 123.75" />
    <path d="M165.6 56.25 L167.4 65.72891" />
    <path d="M167.4 65.72891 L165.6 75.20782" />
    <path d="M165.6 75.20782 L167.4 84.68673" />
    <path d="M167.4 84.68673 L165.6 94.16564" />
    <path d="M165.6 98.66564 L167.4 107.02709" />
    <path d="M167.4 107.02709 L165.6 115.38855" />
    <path d="M165.6 115.38855 L167.4 123.75" />
    <path d="M172.35 56.25 L174.15 63.79201" />
    <path d="M174.15 63.79201 L172.35 71.33403" />
    <path d="M172.35 71.33403 L174.15 78.87604" />
    <path d="M172.35 83.37604 L174.15 91.6318" />
    <path d="M174.15 91.6318 L172.35 99.88755" />
    <path d="M172.35 99.88755 L174.15 108.14331" />
    <path d="M174.15 108.14331 L172.35 116.39907" />
    <path d="M179.1 56.25 L180.9 66.27246" />
    <path d="M180.9 66.27246 L179.1 76.29493" />
    <path d="M179.1 76.29493 L180.9 86.31739" />
    <path d="M180.9 86.31739 L179.1 96.33986" />
    <path d="M179.1 100.83986 L180.9 108.47657" />
    <path d="M180.9 108.47657 L179.1 116.11329" />
    <path d="M179.1 116.11329 L180.9 123.75" />
    <path d="M185.85 56.25 L187.65 64.564" />
    <path d="M187.65 64.564 L185.85 72.87801" />
    <path d="M185.85 72.87801 L187.65 81.19201" />
    <path d="M187.65 81.19201 L185.85 89.50602" />
    <path d="M185.85 89.50602 L187.65 97.82002" />
    <path d="M185.85 102.32002 L187.65 113.03501" />
    <path d="M187.65 113.03501 L185.85 123.75" />
    <path d="M192.6 56.25 L194.4 65.80764" />
    <path d="M194.4 65.80764 L192.6 75.36528" />
    <path d="M192.6 75.36528 L194.4 84.92292" />
    <path d="M194.4 84.92292 L192.6 94.48055" />
    <path d="M192.6 94.48055 L194.4 104.03819" />
    <path d="M194.4 104.03819 L192.6 113.59583" />
    <path d="M192.6 118.09583 L194.4 123.75" />
    <path d="M199.35 56.25 L201.15 60.8585" />
    <path d="M199.35 65.3585 L201.15 76.30413" />
    <path d="M201.15 76.30413 L199.35 87.24976" />
    <path d="M199.35 91.74976 L201.15 98.22333" />
    <path d="M199.35 102.72333 L201.15 109.5703" />
    <path d="M201.15 109.5703 L199.35 116.41728" />
    <path d="M206.1 62.73148 L207.9 71.44841" />
    <path d="M207.9 71.44841 L206.1 80.16534" />
    <path d="M206.1 80.16534 L207.9 88.88227" />
    <path d="M207.9 88.88227 L206.1 97.59921" />
    <path d="M206.1 97.59921 L207.9 106.31614" />
    <path d="M207.9 106.31614 L206.1 115.03307" />
    <path d="M206.1 115.03307 L207.9 123.75" />
    <path d="M212.85 63.37659 L214.65 72.56758" />
    <path d="M214.65 72.56758 L212.85 81.75857" />
    <path d="M212.85 81.75857 L214.65 90.94956" />
    <path d="M214.65 90.94956 L212.85 100.14055" />
    <path d="M212.85 100.14055 L214.65 109.33154" />
    <path d="M212.85 113.83154 L214.65 123.75" />
    <path d="M145.35 146.25 L147.15 154.24881" />
    <path d="M147.15 154.24881 L145.35 162.24761" />
    <path d="M145.35 162.24761 L147.15 170.24642" />
    <path d="M145.35 174.74642 L147.15 181.61628" />
    <path d="M147.15 181.61628 L145.35 188.48614" />
    <path d="M145.35 192.98614 L147.15 203.36807" />
    <path d="M147.15 203.36807 L145.35 213.75" />
    <path d="M152.1 146.25 L153.9 153.81792" />
    <path d="M152.1 158.31792 L153.9 167.56587" />
    <path d="M153.9 167.56587 L152.1 176.81382" />
    <path d="M152.1 176.81382 L153.9 186.06177" />
    <path d="M153.9 186.06177 L152.1 195.30972" />
    <path d="M152.1 199.80972 L153.9 205.4281" />
    <path d="M158.85 146.25 L160.65 154.39485" />
    <path d="M158.85 158.89485 L160.65 167.59025" />
    <path d="M160.65 167.59025 L158.85 176.28565" />
    <path d="M158.85 176.28565 L160.65 184.98105" />
    <path d="M160.65 184.98105 L158.85 193.67645" />
    <path d="M158.85 193.67645 L160.65 202.37186" />
    <path d="M158.85 206.87186 L160.65 213.75" />
    <path d="M165.6 146.25 L167.4 155.19333" />
    <path d="M167.4 155.19333 L165.6 164.13666" />
    <path d="M165.6 164.13666 L167.4 173.07999" />
    <path d="M167.4 173.07999 L165.6 182.02332" />
    <path d="M165.6 182.02332 L167.4 190.96665" />
    <path d="M167.4 190.96665 L165.6 199.90998" />
    <path d="M165.6 199.90998 L167.4 208.8533" />
    <path d="M172.35 146.25 L174.15 155.58779" />
    <path d="M174.15 155.58779 L172.35 164.92557" />
    <path d="M172.35 164.92557 L174.15 174.26336" />
    <path d="M174.15 174.26336 L172.35 183.60114" />
    <path d="M172.35 183.60114 L174.15 192.93893" />
    <path d="M174.15 192.93893 L172.35 202.27671" />
    <path d="M172.35 206.77671 L174.15 213.75" />
    <path d="M179.1 146.25 L180.9 155.36746" />
    <path d="M180.9 155.36746 L179.1 164.48493" />
    <path d="M179.1 164.48493 L180.9 173.60239" />
    <path d="M180.9 173.60239 L179.1 182.71986" />
    <path d="M179.1 182.71986 L180.9 191.83732" />
    <path d="M179.1 196.33732 L180.9 205.04366" />
    <path d="M180.9 205.04366 L179.1 213.75" />
    <path d="M185.85 146.25 L187.65 154.5457" />
    <path d="M187.65 154.5457 L185.85 162.84141" />
    <path d="M185.85 162.84141 L187.65 171.13711" />
    <path d="M187.65 171.13711 L185.85 179.43281" />
    <path d="M185.85 179.43281 L187.65 187.72852" />
    <path d="M185.85 192.22852 L187.65 202.98926" />
    <path d="M187.65 202.98926 L185.85 213.75" />
    <path d="M192.6 146.25 L194.4 154.95503" />
    <path d="M194.4 154.95503 L192.6 163.66005" />
    <path d="M192.6 163.66005 L194.4 172.36508" />
    <path d="M194.4 172.36508 L192.6 181.0701" />
    <path d="M192.6 181.0701 L194.4 189.77513" />
    <path d="M194.4 189.77513 L192.6 198.48015" />
    <path d="M192.6 202.98015 L194.4 213.75" />
    <path d="M199.35 146.25 L201.15 155.70904" />
    <path d="M201.15 155.70904 L199.35 165.16807" />
    <path d="M199.35 165.16807 L201.15 174.62711" />
    <path d="M201.15 174.62711 L199.35 184.08614" />
    <path d="M199.35 184.08614 L201.15 193.54518" />
    <path d="M201.15 193.54518 L199.35 203.00421" />
    <path d="M199.35 207.50421 L201.15 213.75" />
    <path d="M206.1 146.25 L207.9 158.92657" />
    <path d="M206.1 163.42657 L207.9 171.81381" />
    <path d="M207.9 171.81381 L206.1 180.20105" />
    <path d="M206.1 180.20105 L207.9 188.58828" />
    <path d="M207.9 188.58828 L206.1 196.97552" />
    <path d="M206.1 196.97552 L207.9 205.36276" />
    <path d="M207.9 205.36276 L206.1 213.75" />
    <path d="M212.85 146.25 L214.65 155.47104" />
    <path d="M214.65 155.47104 L212.85 164.69207" />
    <path d="M212.85 164.69207 L214.65 173.91311" />
    <path d="M214.65 173.91311 L212.85 183.13415" />
    <path d="M212.85 183.13415 L214.65 192.35518" />
    <path d="M212.85 196.85518 L214.65 202.56841" />
    <path d="M212.85 207.06841 L214.65 213.75" />
    <path d="M145.35 236.25 L147.15 244.60853" />
    <path d="M147.15 244.60853 L145.35 252.96705" />
    <path d="M145.35 252.96705 L147.15 261.32558" />
    <path d="M147.15 261.32558 L145.35 269.6841" />
    <path d="M145.35 269.6841 L147.15 278.04263" />
    <path d="M147.15 278.04263 L145.35 286.40115" />
    <path d="M145.35 286.40115 L147.15 294.75968" />
    <path d="M145.35 299.25968 L147.15 303.75" />
    <path d="M152.1 236.25 L153.9 245.55031" />
    <path d="M153.9 245.55031 L152.1 254.85062" />
    <path d="M152.1 254.85062 L153.9 264.15093" />
    <path d="M153.9 264.15093 L152.1 273.45124" />
    <path d="M152.1 273.45124 L153.9 282.75155" />
    <path d="M153.9 282.75155 L152.1 292.05186" />
    <path d="M152.1 296.55186 L153.9 303.75" />
    <path d="M158.85 236.25 L160.65 248.90633" />
    <path d="M158.85 253.40633 L160.65 262.55854" />
    <path d="M160.65 262.55854 L158.85 271.71075" />
    <path d="M158.85 271.71075 L160.65 280.86296" />
    <path d="M160.65 280.86296 L158.85 290.01517" />
    <path d="M158.85 290.01517 L160.65 299.16738" />
    <path d="M165.6 236.25 L167.4 241.20776" />
    <path d="M165.6 245.70776 L167.4 255.27671" />
    <path d="M167.4 255.27671 L165.6 264.84567" />
    <path d="M165.6 264.84567 L167.4 274.41463" />
    <path d="M167.4 274.41463 L165.6 283.98359" />
    <path d="M165.6 283.98359 L167.4 293.55255" />
    <path d="M165.6 298.05255 L167.4 303.75" />
    <path d="M172.35 236.25 L174.15 246.12064" />
    <path d="M172.35 250.62064 L174.15 260.39116" />
    <path d="M172.35 264.89116 L174.15 275.30336" />
    <path d="M174.15 275.30336 L172.35 285.71557" />
    <path d="M172.35 285.71557 L174.15 296.12778" />
    <path d="M179.1 236.25 L180.9 245.03475" />
    <path d="M180.9 245.03475 L179.1 253.81949" />
    <path d="M179.1 253.81949 L180.9 262.60424" />
    <path d="M180.9 262.60424 L179.1 271.38898" />
    <path d="M179.1 271.38898 L180.9 280.17373" />
    <path d="M180.9 280.17373 L179.1 288.95847" />
    <path d="M179.1 293.45847 L180.9 303.75" />
    <path d="M185.85 236.25 L187.65 244.96326" />
    <path d="M187.65 244.96326 L185.85 253.67652" />
    <path d="M185.85 253.67652 L187.65 262.38978" />
    <path d="M187.65 262.38978 L185.85 271.10304" />
    <path d="M185.85 271.10304 L187.65 279.8163" />
    <path d="M187.65 279.8163 L185.85 288.52956" />
    <path d="M185.85 288.52956 L187.65 297.24282" />
    <path d="M192.6 242.43373 L194.4 251.51087" />
    <path d="M194.4 251.51087 L192.6 260.58801" />
    <path d="M192.6 260.58801 L194.4 269.66515" />
    <path d="M194.4 269.66515 L192.6 278.74229" />
    <path d="M192.6 278.74229 L194.4 287.81943" />
    <path d="M194.4 287.81943 L192.6 296.89657" />
    <path d="M199.35 236.25 L201.15 245.43848" />
    <path d="M199.35 249.93848 L201.15 258.53964" />
    <path d="M201.15 258.53964 L199.35 267.1408" />
    <path d="M199.35 267.1408 L201.15 275.74196" />
    <path d="M199.35 280.24196 L201.15 292.51229" />
    <path d="M199.35 297.01229 L201.15 303.75" />
    <path d="M206.1 236.25 L207.9 244.90248" />
    <path d="M207.9 244.90248 L206.1 253.55496" />
    <path d="M206.1 253.55496 L207.9 262.20744" />
    <path d="M207.9 262.20744 L206.1 270.85991" />
    <path d="M206.1 270.85991 L207.9 279.51239" />
    <path d="M207.9 279.51239 L206.1 288.16487" />
    <path d="M206.1 292.66487 L207.9 303.75" />
    <path d="M212.85 243.04168 L214.65 251.34079" />
    <path d="M214.65 251.34079 L212.85 259.6399" />
    <path d="M212.85 264.1399 L214.65 273.38454" />
    <path d="M214.65 273.38454 L212.85 282.62918" />
    <path d="M212.85 287.12918 L214.65 295.43959" />
    <path d="M214.65 295.43959 L212.85 303.75" />
    <path d="M145.35 326.25 L147.15 334.6875" />
    <path d="M147.15 334.6875 L145.35 343.125" />
    <path d="M145.35 343.125 L147.15 351.5625" />
    <path d="M147.15 351.5625 L145.35 360" />
    <path d="M145.35 360 L147.15 368.4375" />
    <path d="M147.15 368.4375 L145.35 376.875" />
    <path d="M145.35 376.875 L147.15 385.3125" />
    <path d="M147.15 385.3125 L145.35 393.75" />
    <path d="M152.1 326.25 L153.9 335.11283" />
    <path d="M153.9 335.11283 L152.1 343.97566" />
    <path d="M152.1 348.47566 L153.9 356.69758" />
    <path d="M153.9 356.69758 L152.1 364.91951" />
    <path d="M152.1 364.91951 L153.9 373.14144" />
    <path d="M153.9 373.14144 L152.1 381.36336" />
    <path d="M152.1 385.86336 L153.9 393.75" />
    <path d="M158.85 326.25 L160.65 335.22821" />
    <path d="M160.65 335.22821 L158.85 344.20642" />
    <path d="M158.85 344.20642 L160.65 353.18462" />
    <path d="M160.65 353.18462 L158.85 362.16283" />
    <path d="M158.85 362.16283 L160.65 371.14104" />
    <path d="M160.65 371.14104 L158.85 380.11925" />
    <path d="M158.85 380.11925 L160.65 389.09746" />
    <path d="M165.6 326.25 L167.4 335.96291" />
    <path d="M167.4 335.96291 L165.6 345.67582" />
    <path d="M165.6 345.67582 L167.4 355.38873" />
    <path d="M167.4 355.38873 L165.6 365.10164" />
    <path d="M165.6 365.10164 L167.4 374.81455" />
    <path d="M165.6 385.94024 L167.4 393.75" />
    <path d="M172.35 331.79993 L174.15 342.1458" />
    <path d="M174.15 342.1458 L172.35 352.49167" />
    <path d="M172.35 352.49167 L174.15 362.83755" />
    <path d="M172.35 367.33755 L174.15 376.1417" />
    <path d="M174.15 376.1417 L172.35 384.94585" />
    <path d="M172.35 384.94585 L174.15 393.75" />
    <path d="M179.1 326.25 L180.9 334.86245" />
    <path d="M180.9 334.86245 L179.1 343.47489" />
    <path d="M179.1 343.47489 L180.9 352.08734" />
    <path d="M180.9 352.08734 L179.1 360.69979" />
    <path d="M179.1 360.69979 L180.9 369.31223" />
    <path d="M179.1 373.81223 L180.9 383.78112" />
    <path d="M180.9 383.78112 L179.1 393.75" />
    <path d="M185.85 326.25 L187.65 336.19248" />
    <path d="M187.65 336.19248 L185.85 346.13496" />
    <path d="M185.85 346.13496 L187.65 356.07744" />
    <path d="M187.65 356.07744 L185.85 366.01992" />
    <path d="M185.85 370.51992 L187.65 378.26328" />
    <path d="M187.65 378.26328 L185.85 386.00664" />
    <path d="M185.85 386.00664 L187.65 393.75" />
    <path d="M192.6 326.25 L194.4 335.143" />
    <path d="M194.4 335.143 L192.6 344.036" />
    <path d="M192.6 344.036 L194.4 352.929" />
    <path d="M194.4 352.929 L192.6 361.822" />
    <path d="M192.6 361.822 L194.4 370.715" />
    <path d="M194.4 370.715 L192.6 379.608" />
    <path d="M192.6 384.108 L194.4 393.75" />
    <path d="M199.35 326.25 L201.15 333.4762" />
    <path d="M201.15 333.4762 L199.35 340.70239" />
    <path d="M199.35 345.20239 L201.15 354.91191" />
    <path d="M201.15 354.91191 L199.35 364.62144" />
    <path d="M199.35 364.62144 L201.15 374.33096" />
    <path d="M201.15 374.33096 L199.35 384.04048" />
    <path d="M199.35 384.04048 L201.15 393.75" />
    <path d="M206.1 326.25 L207.9 332.95721" />
    <path d="M206.1 337.45721 L207.9 346.83934" />
    <path d="M207.9 346.83934 L206.1 356.22147" />
    <path d="M206.1 356.22147 L207.9 365.6036" />
    <path d="M207.9 365.6036 L206.1 374.98574" />
    <path d="M206.1 374.98574 L207.9 384.36787" />
    <path d="M207.9 384.36787 L206.1 393.75" />
    <path d="M212.85 326.25 L214.65 334.6875" />
    <path d="M214.65 334.6875 L212.85 343.125" />
    <path d="M212.85 343.125 L214.65 351.5625" />
    <path d="M214.65 351.5625 L212.85 360" />
    <path d="M212.85 360 L214.65 368.4375" />
    <path d="M214.65 368.4375 L212.85 376.875" />
    <path d="M212.85 376.875 L214.65 385.3125" />
    <path d="M214.65 385.3125 L212.85 393.75" />
    <path d="M145.35 416.25 L147.15 425.94535" />
    <path d="M147.15 425.94535 L145.35 435.6407" />
    <path d="M145.35 435.6407 L147.15 445.33605" />
    <path d="M147.15 445.33605 L145.35 455.0314" />
    <path d="M145.35 455.0314 L147.15 464.72675" />
    <path d="M147.15 464.72675 L145.35 474.4221" />
    <path d="M145.35 478.9221 L147.15 483.75" />
    <path d="M152.1 416.25 L153.9 426.23647" />
    <path d="M153.9 426.23647 L152.1 436.22294" />
    <path d="M152.1 436.22294 L153.9 446.20941" />
    <path d="M153.9 446.20941 L152.1 456.19588" />
    <path d="M152.1 460.69588 L153.9 468.38059" />
    <path d="M153.9 468.38059 L152.1 476.06529" />
    <path d="M152.1 476.06529 L153.9 483.75" />
    <path d="M158.85 416.25 L160.65 424.30007" />
    <path d="M160.65 424.30007 L158.85 432.35013" />
    <path d="M158.85 436.85013 L160.65 445.80647" />
    <path d="M160.65 445.80647 L158.85 454.7628" />
    <path d="M158.85 454.7628 L160.65 463.71913" />
    <path d="M160.65 463.71913 L158.85 472.67546" />
    <path d="M158.85 477.17546 L160.65 483.75" />
    <path d="M165.6 416.25 L167.4 425.89286" />
    <path d="M167.4 425.89286 L165.6 435.53571" />
    <path d="M165.6 435.53571 L167.4 445.17857" />
    <path d="M167.4 445.17857 L165.6 454.82143" />
    <path d="M165.6 454.82143 L167.4 464.46429" />
    <path d="M167.4 464.46429 L165.6 474.10714" />
    <path d="M165.6 474.10714 L167.4 483.75" />
    <path d="M172.35 416.25 L174.15 424.6875" />
    <path d="M174.15 424.6875 L172.35 433.125" />
    <path d="M172.35 433.125 L174.15 441.5625" />
    <path d="M174.15 441.5625 L172.35 450" />
    <path d="M172.35 450 L174.15 458.4375" />
    <path d="M174.15 458.4375 L172.35 466.875" />
    <path d="M172.35 466.875 L174.15 475.3125" />
    <path d="M174.15 475.3125 L172.35 483.75" />
    <path d="M179.1 416.25 L180.9 424.61515" />
    <path d="M180.9 424.61515 L179.1 432.98031" />
    <path d="M179.1 432.98031 L180.9 441.34546" />
    <path d="M180.9 441.34546 L179.1 449.71061" />
    <path d="M179.1 449.71061 L180.9 458.07577" />
    <path d="M180.9 458.07577 L179.1 466.44092" />
    <path d="M179.1 466.44092 L180.9 474.80607" />
    <path d="M179.1 479.30607 L180.9 483.75" />
    <path d="M185.85 416.25 L187.65 426.10315" />
    <path d="M187.65 426.10315 L185.85 435.95631" />
    <path d="M185.85 440.45631 L187.65 449.11505" />
    <path d="M187.65 449.11505 L185.85 457.77378" />
    <path d="M185.85 457.77378 L187.65 466.43252" />
    <path d="M187.65 466.43252 L185.85 475.09126" />
    <path d="M185.85 475.09126 L187.65 483.75" />
    <path d="M192.6 416.25 L194.4 425.568" />
    <path d="M194.4 425.568 L192.6 434.88599" />
    <path d="M192.6 434.88599 L194.4 444.20399" />
    <path d="M192.6 448.70399 L194.4 457.46549" />
    <path d="M194.4 457.46549 L192.6 466.22699" />
    <path d="M192.6 466.22699 L194.4 474.9885" />
    <path d="M194.4 474.9885 L192.6 483.75" />
    <path d="M199.35 416.25 L201.15 425.13335" />
    <path d="M199.35 429.63335 L201.15 437.80335" />
    <path d="M201.15 437.80335 L199.35 445.97334" />
    <path d="M199.35 445.97334 L201.15 454.14334" />
    <path d="M201.15 454.14334 L199.35 462.31333" />
    <path d="M199.35 466.81333 L201.15 475.28167" />
    <path d="M201.15 475.28167 L199.35 483.75" />
    <path d="M206.1 416.25 L207.9 425.80999" />
    <path d="M207.9 425.80999 L206.1 435.36999" />
    <path d="M206.1 435.36999 L207.9 444.92998" />
    <path d="M207.9 444.92998 L206.1 454.48997" />
    <path d="M206.1 454.48997 L207.9 464.04997" />
    <path d="M206.1 468.54997 L207.9 476.14998" />
    <path d="M207.9 476.14998 L206.1 483.75" />
    <path d="M212.85 416.25 L214.65 424.58537" />
    <path d="M214.65 424.58537 L212.85 432.92075" />
    <path d="M212.85 437.42075 L214.65 444.25619" />
    <path d="M214.65 444.25619 L212.85 451.09162" />
    <path d="M212.85 455.59162 L214.65 464.97775" />
    <path d="M214.65 464.97775 L212.85 474.36387" />
    <path d="M212.85 474.36387 L214.65 483.75" />
    <path d="M145.35 506.25 L147.15 515.89286" />
    <path d="M147.15 515.89286 L145.35 525.53571" />
    <path d="M145.35 525.53571 L147.15 535.17857" />
    <path d="M147.15 535.17857 L145.35 544.82143" />
    <path d="M145.35 544.82143 L147.15 554.46429" />
    <path d="M147.15 554.46429 L145.35 564.10714" />
    <path d="M145.35 564.10714 L147.15 573.75" />
    <path d="M152.1 506.25 L153.9 515.25993" />
    <path d="M153.9 515.25993 L152.1 524.26985" />
    <path d="M152.1 524.26985 L153.9 533.27978" />
    <path d="M153.9 533.27978 L152.1 542.28971" />
    <path d="M152.1 542.28971 L153.9 551.29964" />
    <path d="M153.9 551.29964 L152.1 560.30956" />
    <path d="M152.1 564.80956 L153.9 573.75" />
    <path d="M158.85 506.25 L160.65 514.6875" />
    <path d="M160.65 514.6875 L158.85 523.125" />
    <path d="M158.85 523.125 L160.65 531.5625" />
    <path d="M160.65 531.5625 L158.85 540" />
    <path d="M158.85 540 L160.65 548.4375" />
    <path d="M160.65 548.4375 L158.85 556.875" />
    <path d="M158.85 556.875 L160.65 565.3125" />
    <path d="M160.65 565.3125 L158.85 573.75" />
    <path d="M165.6 514.81591 L167.4 524.27117" />
    <path d="M167.4 524.27117 L165.6 533.72642" />
    <path d="M165.6 533.72642 L167.4 543.18168" />
    <path d="M167.4 543.18168 L165.6 552.63693" />
    <path d="M165.6 552.63693 L167.4 562.09218" />
    <path d="M165.6 566.59218 L167.4 573.75" />
    <path d="M172.35 506.25 L174.15 514.76345" />
    <path d="M172.35 519.26345 L174.15 529.1957" />
    <path d="M174.15 529.1957 L172.35 539.12795" />
    <path d="M172.35 539.12795 L174.15 549.0602" />
    <path d="M174.15 549.0602 L172.35 558.99245" />
    <path d="M172.35 563.49245 L174.15 568.61813" />
    <path d="M179.1 506.25 L180.9 514.6875" />
    <path d="M180.9 514.6875 L179.1 523.125" />
    <path d="M179.1 523.125 L180.9 531.5625" />
    <path d="M180.9 531.5625 L179.1 540" />
    <path d="M179.1 540 L180.9 548.4375" />
    <path d="M180.9 548.4375 L179.1 556.875" />
    <path d="M179.1 556.875 L180.9 565.3125" />
    <path d="M180.9 565.3125 L179.1 573.75" />
    <path d="M185.85 506.25 L187.65 517.33933" />
    <path d="M185.85 521.83933 L187.65 530.49111" />
    <path d="M187.65 530.49111 L185.85 539.14289" />
    <path d="M185.85 539.14289 L187.65 547.79466" />
    <path d="M187.65 547.79466 L185.85 556.44644" />
    <path d="M185.85 556.44644 L187.65 565.09822" />
    <path d="M187.65 565.09822 L185.85 573.75" />
    <path d="M192.6 506.25 L194.4 515.57924" />
    <path d="M194.4 515.57924 L192.6 524.90848" />
    <path d="M192.6 524.90848 L194.4 534.23772" />
    <path d="M194.4 534.23772 L192.6 543.56695" />
    <path d="M192.6 543.56695 L194.4 552.89619" />
    <path d="M192.6 557.39619 L194.4 565.5731" />
    <path d="M194.4 565.5731 L192.6 573.75" />
    <path d="M199.35 506.25 L201.15 515.01554" />
    <path d="M201.15 515.01554 L199.35 523.78108" />
    <path d="M199.35 523.78108 L201.15 532.54662" />
    <path d="M201.15 532.54662 L199.35 541.31216" />
    <path d="M199.35 541.31216 L201.15 550.0777" />
    <path d="M199.35 554.5777 L201.15 564.16385" />
    <path d="M201.15 564.16385 L199.35 573.75" />
    <path d="M206.1 506.25 L207.9 515.94353" />
    <path d="M207.9 515.94353 L206.1 525.63707" />
    <path d="M206.1 525.63707 L207.9 535.3306" />
    <path d="M207.9 535.3306 L206.1 545.02414" />
    <path d="M206.1 545.02414 L207.9 554.71767" />
    <path d="M206.1 559.21767 L207.9 566.48383" />
    <path d="M207.9 566.48383 L206.1 573.75" />
    <path d="M212.85 514.68212 L214.65 523.12039" />
    <path d="M214.65 523.12039 L212.85 531.55866" />
    <path d="M212.85 531.55866 L214.65 539.99693" />
    <path d="M214.65 539.99693 L212.85 548.43519" />
    <path d="M212.85 548.43519 L214.65 556.87346" />
    <path d="M214.65 556.87346 L212.85 565.31173" />
    <path d="M212.85 565.31173 L214.65 573.75" />
    <path d="M235.35 56.25 L237.15 65.84758" />
    <path d="M237.15 65.84758 L235.35 75.44517" />
    <path d="M235.35 75.44517 L237.15 85.04275" />
    <path d="M237.15 85.04275 L235.35 94.64033" />
    <path d="M235.35 99.14033 L237.15 107.34355" />
    <path d="M237.15 107.34355 L235.35 115.54678" />
    <path d="M235.35 115.54678 L237.15 123.75" />
    <path d="M242.1 56.25 L243.9 65.06127" />
    <path d="M243.9 65.06127 L242.1 73.87253" />
    <path d="M242.1 73.87253 L243.9 82.6838" />
    <path d="M243.9 82.6838 L242.1 91.49506" />
    <path d="M242.1 91.49506 L243.9 100.30633" />
    <path d="M243.9 100.30633 L242.1 109.11759" />
    <path d="M242.1 109.11759 L243.9 117.92886" />
    <path d="M248.85 56.25 L250.65 64.73243" />
    <path d="M250.65 64.73243 L248.85 73.21486" />
    <path d="M248.85 73.21486 L250.65 81.6973" />
    <path d="M250.65 81.6973 L248.85 90.17973" />
    <path d="M248.85 90.17973 L250.65 98.66216" />
    <path d="M250.65 98.66216 L248.85 107.14459" />
    <path d="M248.85 107.14459 L250.65 115.62702" />
    <path d="M255.6 56.25 L257.4 65.1838" />
    <path d="M257.4 65.1838 L255.6 74.1176" />
    <path d="M255.6 74.1176 L257.4 83.0514" />
    <path d="M257.4 83.0514 L255.6 91.9852" />
    <path d="M255.6 91.9852 L257.4 100.919" />
    <path d="M257.4 100.919 L255.6 109.8528" />
    <path d="M255.6 109.8528 L257.4 118.7866" />
    <path d="M262.35 56.25 L264.15 68.45254" />
    <path d="M262.35 72.95254 L264.15 82.8705" />
    <path d="M264.15 82.8705 L262.35 92.78846" />
    <path d="M262.35 92.78846 L264.15 102.70642" />
    <path d="M264.15 102.70642 L262.35 112.62438" />
    <path d="M262.35 117.12438 L264.15 123.75" />
    <path d="M269.1 56.25 L270.9 64.64255" />
    <path d="M270.9 64.64255 L269.1 73.03509" />
    <path d="M269.1 73.03509 L270.9 81.42764" />
    <path d="M270.9 81.42764 L269.1 89.82019" />
    <path d="M269.1 89.82019 L270.9 98.21273" />
    <path d="M270.9 98.21273 L269.1 106.60528" />
    <path d="M269.1 111.10528 L270.9 123.75" />
    <path d="M275.85 56.25 L277.65 66.37175" />
    <path d="M277.65 66.37175 L275.85 76.4935" />
    <path d="M275.85 80.9935 L277.65 89.92874" />
    <path d="M277.65 89.92874 L275.85 98.86399" />
    <path d="M275.85 98.86399 L277.65 107.79924" />
    <path d="M275.85 112.29924 L277.65 123.75" />
    <path d="M282.6 56.25 L284.4 65.24449" />
    <path d="M284.4 65.24449 L282.6 74.23897" />
    <path d="M282.6 74.23897 L284.4 83.23346" />
    <path d="M284.4 83.23346 L282.6 92.22795" />
    <path d="M282.6 92.22795 L284.4 101.22243" />
    <path d="M284.4 101.22243 L282.6 110.21692" />
    <path d="M282.6 110.21692 L284.4 119.21141" />
    <path d="M289.35 56.25 L291.15 65.22194" />
    <path d="M291.15 65.22194 L289.35 74.19387" />
    <path d="M289.35 74.19387 L291.15 83.16581" />
    <path d="M291.15 83.16581 L289.35 92.13774" />
    <path d="M289.35 92.13774 L291.15 101.10968" />
    <path d="M291.15 101.10968 L289.35 110.08161" />
    <path d="M289.35 110.08161 L291.15 119.05355" />
    <path d="M296.1 56.25 L297.9 64.52852" />
    <path d="M297.9 64.52852 L296.1 72.80704" />
    <path d="M296.1 77.30704 L297.9 86.59563" />
    <path d="M297.9 86.59563 L296.1 95.88422" />
    <path d="M296.1 95.88422 L297.9 105.17282" />
    <path d="M297.9 105.17282 L296.1 114.46141" />
    <path d="M296.1 114.46141 L297.9 123.75" />
    <path d="M302.85 56.25 L304.65 65.99382" />
    <path d="M304.65 65.99382 L302.85 75.73765" />
    <path d="M302.85 75.73765 L304.65 85.48147" />
    <path d="M304.65 85.48147 L302.85 95.22529" />
    <path d="M302.85 95.22529 L304.65 104.96912" />
    <path d="M302.85 109.46912 L304.65 116.60956" />
    <path d="M304.65 116.60956 L302.85 123.75" />
    <path d="M235.35 146.25 L237.15 155.28287" />
    <path d="M237.15 155.28287 L235.35 164.31574" />
    <path d="M235.35 168.81574 L237.15 177.80259" />
    <path d="M237.15 177.80259 L235.35 186.78944" />
    <path d="M235.35 186.78944 L237.15 195.77629" />
    <path d="M237.15 195.77629 L235.35 204.76315" />
    <path d="M235.35 204.76315 L237.15 213.75" />
    <path d="M242.1 146.25 L243.9 154.38356" />
    <path d="M243.9 154.38356 L242.1 162.51713" />
    <path d="M242.1 167.01713 L243.9 176.18254" />
    <path d="M243.9 176.18254 L242.1 185.34795" />
    <path d="M242.1 185.34795 L243.9 194.51336" />
    <path d="M243.9 194.51336 L242.1 203.67877" />
    <path d="M242.1 208.17877 L243.9 213.75" />
    <path d="M248.85 146.25 L250.65 155.89286" />
    <path d="M250.65 155.89286 L248.85 165.53571" />
    <path d="M248.85 165.53571 L250.65 175.17857" />
    <path d="M250.65 175.17857 L248.85 184.82143" />
    <path d="M248.85 184.82143 L250.65 194.46429" />
    <path d="M250.65 194.46429 L248.85 204.10714" />
    <path d="M248.85 204.10714 L250.65 213.75" />
    <path d="M255.6 146.25 L257.4 156.00175" />
    <path d="M257.4 156.00175 L255.6 165.75349" />
    <path d="M255.6 165.75349 L257.4 175.50524" />
    <path d="M257.4 175.50524 L255.6 185.25698" />
    <path d="M255.6 189.75698 L257.4 199.97904" />
    <path d="M255.6 204.47904 L257.4 213.75" />
    <path d="M262.35 146.25 L264.15 155.26156" />
    <path d="M264.15 155.26156 L262.35 164.27312" />
    <path d="M262.35 164.27312 L264.15 173.28468" />
    <path d="M264.15 173.28468 L262.35 182.29625" />
    <path d="M262.35 182.29625 L264.15 191.30781" />
    <path d="M262.35 195.80781 L264.15 204.7789" />
    <path d="M264.15 204.7789 L262.35 213.75" />
    <path d="M269.1 146.25 L270.9 154.6875" />
    <path d="M270.9 154.6875 L269.1 163.125" />
    <path d="M269.1 163.125 L270.9 171.5625" />
    <path d="M270.9 171.5625 L269.1 180" />
    <path d="M269.1 180 L270.9 188.4375" />
    <path d="M270.9 188.4375 L269.1 196.875" />
    <path d="M269.1 196.875 L270.9 205.3125" />
    <path d="M270.9 205.3125 L269.1 213.75" />
    <path d="M275.85 146.25 L277.65 155.40458" />
    <path d="M277.65 155.40458 L275.85 164.55916" />
    <path d="M275.85 164.55916 L277.65 173.71374" />
    <path d="M277.65 173.71374 L275.85 182.86832" />
    <path d="M275.85 187.36832 L277.65 196.16221" />
    <path d="M277.65 196.16221 L275.85 204.95611" />
    <path d="M275.85 204.95611 L277.65 213.75" />
    <path d="M282.6 146.25 L284.4 154.45395" />
    <path d="M284.4 154.45395 L282.6 162.6579" />
    <path d="M282.6 162.6579 L284.4 170.86185" />
    <path d="M284.4 170.86185 L282.6 179.06579" />
    <path d="M282.6 183.56579 L284.4 193.6272" />
    <path d="M284.4 193.6272 L282.6 203.6886" />
    <path d="M282.6 203.6886 L284.4 213.75" />
    <path d="M289.35 146.25 L291.15 154.6875" />
    <path d="M291.15 154.6875 L289.35 163.125" />
    <path d="M289.35 163.125 L291.15 171.5625" />
    <path d="M291.15 171.5625 L289.35 180" />
    <path d="M289.35 180 L291.15 188.4375" />
    <path d="M291.15 188.4375 L289.35 196.875" />
    <path d="M289.35 196.875 L291.15 205.3125" />
    <path d="M291.15 205.3125 L289.35 213.75" />
    <path d="M296.1 146.25 L297.9 154.16324" />
    <path d="M297.9 154.16324 L296.1 162.07649" />
    <path d="M296.1 162.07649 L297.9 169.98973" />
    <path d="M296.1 174.48973 L297.9 184.3048" />
    <path d="M297.9 184.3048 L296.1 194.11987" />
    <path d="M296.1 194.11987 L297.9 203.93493" />
    <path d="M297.9 203.93493 L296.1 213.75" />
    <path d="M302.85 146.25 L304.65 155.34641" />
    <path d="M304.65 155.34641 L302.85 164.44282" />
    <path d="M302.85 164.44282 L304.65 173.53924" />
    <path d="M304.65 173.53924 L302.85 182.63565" />
    <path d="M302.85 182.63565 L304.65 191.73206" />
    <path d="M304.65 191.73206 L302.85 200.82847" />
    <path d="M302.85 205.32847 L304.65 213.75" />
    <path d="M235.35 236.25 L237.15 240.63774" />
    <path d="M235.35 245.13774 L237.15 253.23676" />
    <path d="M237.15 253.23676 L235.35 261.33577" />
    <path d="M235.35 261.33577 L237.15 269.43479" />
    <path d="M237.15 269.43479 L235.35 277.5338" />
    <path d="M235.35 282.0338 L237.15 292.8919" />
    <path d="M237.15 292.8919 L235.35 303.75" />
    <path d="M242.1 236.25 L243.9 244.69616" />
    <path d="M243.9 244.69616 L242.1 253.14231" />
    <path d="M242.1 253.14231 L243.9 261.58847" />
    <path d="M243.9 261.58847 L242.1 270.03462" />
    <path d="M242.1 270.03462 L243.9 278.48078" />
    <path d="M243.9 278.48078 L242.1 286.92694" />
    <path d="M242.1 291.42694 L243.9 303.75" />
    <path d="M248.85 236.25 L250.65 244.6875" />
    <path d="M250.65 244.6875 L248.85 253.125" />
    <path d="M248.85 253.125 L250.65 261.5625" />
    <path d="M250.65 261.5625 L248.85 270" />
    <path d="M248.85 270 L250.65 278.4375" />
    <path d="M250.65 278.4375 L248.85 286.875" />
    <path d="M248.85 286.875 L250.65 295.3125" />
    <path d="M250.65 295.3125 L248.85 303.75" />
    <path d="M255.6 236.25 L257.4 246.73008" />
    <path d="M257.4 246.73008 L255.6 257.21015" />
    <path d="M255.6 257.21015 L257.4 267.69023" />
    <path d="M255.6 272.19023 L257.4 282.71015" />
    <path d="M257.4 282.71015 L255.6 293.23008" />
    <path d="M255.6 293.23008 L257.4 303.75" />
    <path d="M262.35 236.25 L264.15 246.07443" />
    <path d="M264.15 246.07443 L262.35 255.89886" />
    <path d="M262.35 255.89886 L264.15 265.72329" />
    <path d="M262.35 270.22329 L264.15 277.68159" />
    <path d="M264.15 277.68159 L262.35 285.13988" />
    <path d="M262.35 289.63988 L264.15 296.69494" />
    <path d="M264.15 296.69494 L262.35 303.75" />
    <path d="M269.1 236.25 L270.9 244.75668" />
    <path d="M270.9 244.75668 L269.1 253.26336" />
    <path d="M269.1 253.26336 L270.9 261.77004" />
    <path d="M270.9 261.77004 L269.1 270.27672" />
    <path d="M269.1 270.27672 L270.9 278.78341" />
    <path d="M270.9 278.78341 L269.1 287.29009" />
    <path d="M269.1 291.79009 L270.9 303.75" />
    <path d="M275.85 236.25 L277.65 247.0926" />
    <path d="M277.65 247.0926 L275.85 257.93521" />
    <path d="M275.85 262.43521 L277.65 271.79684" />
    <path d="M277.65 271.79684 L275.85 281.15848" />
    <path d="M275.85 285.65848 L277.65 294.70424" />
    <path d="M277.65 294.70424 L275.85 303.75" />
    <path d="M282.6 236.25 L284.4 243.02706" />
    <path d="M282.6 247.52706 L284.4 256.89755" />
    <path d="M284.4 256.89755 L282.6 266.26804" />
    <path d="M282.6 266.26804 L284.4 275.63853" />
    <path d="M284.4 275.63853 L282.6 285.00902" />
    <path d="M282.6 285.00902 L284.4 294.37951" />
    <path d="M284.4 294.37951 L282.6 303.75" />
    <path d="M289.35 236.25 L291.15 246.10006" />
    <path d="M291.15 246.10006 L289.35 255.95013" />
    <path d="M289.35 255.95013 L291.15 265.80019" />
    <path d="M289.35 270.30019 L291.15 278.66264" />
    <path d="M291.15 278.66264 L289.35 287.0251" />
    <path d="M289.35 287.0251 L291.15 295.38755" />
    <path d="M291.15 295.38755 L289.35 303.75" />
    <path d="M296.1 236.25 L297.9 245.403" />
    <path d="M297.9 245.403 L296.1 254.55599" />
    <path d="M296.1 259.05599 L297.9 267.55488" />
    <path d="M297.9 267.55488 L296.1 276.05377" />
    <path d="M296.1 276.05377 L297.9 284.55266" />
    <path d="M296.1 289.05266 L297.9 296.40133" />
    <path d="M297.9 296.40133 L296.1 303.75" />
    <path d="M302.85 242.01399 L304.65 250.87149" />
    <path d="M304.65 250.87149 L302.85 259.72898" />
    <path d="M302.85 259.72898 L304.65 268.58648" />
    <path d="M302.85 273.08648 L304.65 283.30765" />
    <path d="M304.65 283.30765 L302.85 293.52883" />
    <path d="M302.85 293.52883 L304.65 303.75" />
    <path d="M235.35 330.91623 L237.15 339.30598" />
    <path d="M237.15 339.30598 L235.35 347.69573" />
    <path d="M235.35 347.69573 L237.15 356.08548" />
    <path d="M237.15 356.08548 L235.35 364.47523" />
    <path d="M235.35 364.47523 L237.15 372.86498" />
    <path d="M237.15 372.86498 L235.35 381.25474" />
    <path d="M235.35 385.75474 L237.15 393.75" />
    <path d="M242.1 326.25 L243.9 334.61397" />
    <path d="M243.9 334.61397 L242.1 342.97794" />
    <path d="M242.1 342.97794 L243.9 351.34192" />
    <path d="M243.9 351.34192 L242.1 359.70589" />
    <path d="M242.1 359.70589 L243.9 368.06986" />
    <path d="M243.9 368.06986 L242.1 376.43383" />
    <path d="M242.1 380.93383 L243.9 387.4725" />
    <path d="M248.85 326.25 L250.65 335.73764" />
    <path d="M250.65 335.73764 L248.85 345.22528" />
    <path d="M248.85 345.22528 L250.65 354.71292" />
    <path d="M250.65 354.71292 L248.85 364.20056" />
    <path d="M248.85 364.20056 L250.65 373.68819" />
    <path d="M248.85 378.18819 L250.65 385.9691" />
    <path d="M250.65 385.9691 L248.85 393.75" />
    <path d="M255.6 326.25 L257.4 335.16567" />
    <path d="M257.4 335.16567 L255.6 344.08133" />
    <path d="M255.6 344.08133 L257.4 352.997" />
    <path d="M257.4 352.997 L255.6 361.91267" />
    <path d="M255.6 361.91267 L257.4 370.82834" />
    <path d="M257.4 370.82834 L255.6 379.744" />
    <path d="M255.6 379.744 L257.4 388.65967" />
    <path d="M262.35 326.25 L264.15 332.29816" />
    <path d="M262.35 341.70085 L264.15 350.37571" />
    <path d="M264.15 350.37571 L262.35 359.05057" />
    <path d="M262.35 359.05057 L264.15 367.72543" />
    <path d="M264.15 367.72543 L262.35 376.40028" />
    <path d="M262.35 376.40028 L264.15 385.07514" />
    <path d="M264.15 385.07514 L262.35 393.75" />
    <path d="M269.1 326.25 L270.9 333.92351" />
    <path d="M269.1 338.42351 L270.9 347.6446" />
    <path d="M270.9 347.6446 L269.1 356.86568" />
    <path d="M269.1 356.86568 L270.9 366.08676" />
    <path d="M270.9 366.08676 L269.1 375.30784" />
    <path d="M269.1 375.30784 L270.9 384.52892" />
    <path d="M270.9 384.52892 L269.1 393.75" />
    <path d="M275.85 326.25 L277.65 331.20917" />
    <path d="M275.85 335.70917 L277.65 344.71643" />
    <path d="M277.65 344.71643 L275.85 353.72368" />
    <path d="M275.85 353.72368 L277.65 362.73094" />
    <path d="M277.65 362.73094 L275.85 371.7382" />
    <path d="M275.85 371.7382 L277.65 380.74546" />
    <path d="M275.85 385.24546 L277.65 393.75" />
    <path d="M282.6 326.25 L284.4 333.2071" />
    <path d="M284.4 333.2071 L282.6 340.16419" />
    <path d="M282.6 344.66419 L284.4 354.48135" />
    <path d="M284.4 354.48135 L282.6 364.29852" />
    <path d="M282.6 364.29852 L284.4 374.11568" />
    <path d="M284.4 374.11568 L282.6 383.93284" />
    <path d="M282.6 383.93284 L284.4 393.75" />
    <path d="M289.35 326.25 L291.15 339.11662" />
    <path d="M289.35 343.61662 L291.15 353.43376" />
    <path d="M291.15 353.43376 L289.35 363.25091" />
    <path d="M289.35 363.25091 L291.15 373.06806" />
    <path d="M291.15 373.06806 L289.35 382.8852" />
    <path d="M289.35 387.3852 L291.15 393.75" />
    <path d="M296.1 326.25 L297.9 334.37935" />
    <path d="M297.9 334.37935 L296.1 342.5087" />
    <path d="M296.1 342.5087 L297.9 350.63805" />
    <path d="M297.9 350.63805 L296.1 358.7674" />
    <path d="M296.1 358.7674 L297.9 366.89675" />
    <path d="M296.1 371.39675 L297.9 382.57338" />
    <path d="M297.9 382.57338 L296.1 393.75" />
    <path d="M302.85 326.25 L304.65 336.02636" />
    <path d="M304.65 336.02636 L302.85 345.80272" />
    <path d="M302.85 345.80272 L304.65 355.57908" />
    <path d="M304.65 355.57908 L302.85 365.35544" />
    <path d="M302.85 369.85544 L304.65 377.71295" />
    <path d="M304.65 377.71295 L302.85 385.57045" />
    <path d="M235.35 416.25 L237.15 428.21319" />
    <path d="M235.35 438.07728 L237.15 447.21182" />
    <path d="M237.15 447.21182 L235.35 456.34637" />
    <path d="M235.35 456.34637 L237.15 465.48091" />
    <path d="M237.15 465.48091 L235.35 474.61546" />
    <path d="M235.35 474.61546 L237.15 483.75" />
    <path d="M242.1 416.25 L243.9 425.62446" />
    <path d="M243.9 425.62446 L242.1 434.99891" />
    <path d="M242.1 434.99891 L243.9 444.37337" />
    <path d="M243.9 444.37337 L242.1 453.74782" />
    <path d="M242.1 458.24782 L243.9 466.74855" />
    <path d="M243.9 466.74855 L242.1 475.24927" />
    <path d="M242.1 475.24927 L243.9 483.75" />
    <path d="M248.85 416.25 L250.65 425.24997" />
    <path d="M250.65 425.24997 L248.85 434.24994" />
    <path d="M248.85 434.24994 L250.65 443.24991" />
    <path d="M250.65 443.24991 L248.85 452.24988" />
    <path d="M248.85 456.74988 L250.65 465.74992" />
    <path d="M250.65 465.74992 L248.85 474.74996" />
    <path d="M248.85 474.74996 L250.65 483.75" />
    <path d="M255.6 416.25 L257.4 425.94719" />
    <path d="M257.4 425.94719 L255.6 435.64437" />
    <path d="M255.6 435.64437 L257.4 445.34156" />
    <path d="M255.6 449.84156 L257.4 458.31867" />
    <path d="M257.4 458.31867 L255.6 466.79578" />
    <path d="M255.6 466.79578 L257.4 475.27289" />
    <path d="M257.4 475.27289 L255.6 483.75" />
    <path d="M262.35 416.25 L264.15 425.93865" />
    <path d="M264.15 425.93865 L262.35 435.62731" />
    <path d="M262.35 435.62731 L264.15 445.31596" />
    <path d="M264.15 445.31596 L262.35 455.00461" />
    <path d="M262.35 455.00461 L264.15 464.69326" />
    <path d="M264.15 464.69326 L262.35 474.38192" />
    <path d="M262.35 478.88192 L264.15 483.75" />
    <path d="M269.1 416.25 L270.9 424.59913" />
    <path d="M270.9 424.59913 L269.1 432.94827" />
    <path d="M269.1 432.94827 L270.9 441.2974" />
    <path d="M270.9 441.2974 L269.1 449.64654" />
    <path d="M269.1 454.14654 L270.9 464.01436" />
    <path d="M270.9 464.01436 L269.1 473.88218" />
    <path d="M269.1 473.88218 L270.9 483.75" />
    <path d="M275.85 416.25 L277.65 425.61734" />
    <path d="M277.65 425.61734 L275.85 434.98468" />
    <path d="M275.85 434.98468 L277.65 444.35202" />
    <path d="M277.65 444.35202 L275.85 453.71936" />
    <path d="M275.85 458.21936 L277.65 464.82107" />
    <path d="M275.85 469.32107 L277.65 476.53553" />
    <path d="M277.65 476.53553 L275.85 483.75" />
    <path d="M282.6 416.25 L284.4 425.89286" />
    <path d="M284.4 425.89286 L282.6 435.53571" />
    <path d="M282.6 435.53571 L284.4 445.17857" />
    <path d="M284.4 445.17857 L282.6 454.82143" />
    <path d="M282.6 454.82143 L284.4 464.46429" />
    <path d="M284.4 464.46429 L282.6 474.10714" />
    <path d="M282.6 474.10714 L284.4 483.75" />
    <path d="M289.35 416.25 L291.15 428.45952" />
    <path d="M289.35 432.95952 L291.15 439.765" />
    <path d="M289.35 444.265 L291.15 454.13625" />
    <path d="M291.15 454.13625 L289.35 464.0075" />
    <path d="M289.35 464.0075 L291.15 473.87875" />
    <path d="M291.15 473.87875 L289.35 483.75" />
    <path d="M296.1 416.25 L297.9 427.78277" />
    <path d="M296.1 432.28277 L297.9 440.86064" />
    <path d="M297.9 440.86064 L296.1 449.43851" />
    <path d="M296.1 449.43851 L297.9 458.01638" />
    <path d="M297.9 458.01638 L296.1 466.59426" />
    <path d="M296.1 466.59426 L297.9 475.17213" />
    <path d="M297.9 475.17213 L296.1 483.75" />
    <path d="M302.85 416.25 L304.65 425.13722" />
    <path d="M304.65 425.13722 L302.85 434.02444" />
    <path d="M302.85 438.52444 L304.65 447.56955" />
    <path d="M304.65 447.56955 L302.85 456.61466" />
    <path d="M302.85 456.61466 L304.65 465.65977" />
    <path d="M304.65 465.65977 L302.85 474.70489" />
    <path d="M302.85 474.70489 L304.65 483.75" />
    <path d="M235.35 506.25 L237.15 511.51073" />
    <path d="M235.35 516.01073 L237.15 528.57569" />
    <path d="M235.35 533.07569 L237.15 540.96418" />
    <path d="M237.15 540.96418 L235.35 548.85266" />
    <path d="M235.35 548.85266 L237.15 556.74114" />
    <path d="M237.15 556.74114 L235.35 564.62962" />
    <path d="M235.35 569.12962 L237.15 573.75" />
    <path d="M242.1 506.25 L243.9 514.91571" />
    <path d="M243.9 514.91571 L242.1 523.58143" />
    <path d="M242.1 523.58143 L243.9 532.24714" />
    <path d="M243.9 532.24714 L242.1 540.91285" />
    <path d="M242.1 545.41285 L243.9 554.85857" />
    <path d="M243.9 554.85857 L242.1 564.30428" />
    <path d="M242.1 564.30428 L243.9 573.75" />
    <path d="M248.85 506.25 L250.65 513.81816" />
    <path d="M250.65 513.81816 L248.85 521.38631" />
    <path d="M248.85 521.38631 L250.65 528.95447" />
    <path d="M248.85 533.45447 L250.65 543.52835" />
    <path d="M250.65 543.52835 L248.85 553.60224" />
    <path d="M248.85 553.60224 L250.65 563.67612" />
    <path d="M250.65 563.67612 L248.85 573.75" />
    <path d="M255.6 506.25 L257.4 514.29984" />
    <path d="M257.4 514.29984 L255.6 522.34969" />
    <path d="M255.6 522.34969 L257.4 530.39953" />
    <path d="M257.4 530.39953 L255.6 538.44937" />
    <path d="M255.6 542.94937 L257.4 553.21625" />
    <path d="M257.4 553.21625 L255.6 563.48312" />
    <path d="M255.6 563.48312 L257.4 573.75" />
    <path d="M262.35 506.25 L264.15 519.80973" />
    <path d="M262.35 529.51995 L264.15 538.36596" />
    <path d="M264.15 538.36596 L262.35 547.21197" />
    <path d="M262.35 547.21197 L264.15 556.05798" />
    <path d="M264.15 556.05798 L262.35 564.90399" />
    <path d="M262.35 564.90399 L264.15 573.75" />
    <path d="M269.1 506.25 L270.9 511.22786" />
    <path d="M269.1 515.72786 L270.9 526.11297" />
    <path d="M270.9 526.11297 L269.1 536.49808" />
    <path d="M269.1 540.99808 L270.9 549.45358" />
    <path d="M269.1 553.95358 L270.9 563.85179" />
    <path d="M270.9 563.85179 L269.1 573.75" />
    <path d="M275.85 506.25 L277.65 515.91886" />
    <path d="M277.65 515.91886 L275.85 525.58771" />
    <path d="M275.85 525.58771 L277.65 535.25657" />
    <path d="M277.65 535.25657 L275.85 544.92543" />
    <path d="M275.85 544.92543 L277.65 554.59429" />
    <path d="M275.85 559.09429 L277.65 566.42214" />
    <path d="M277.65 566.42214 L275.85 573.75" />
    <path d="M282.6 506.25 L284.4 514.73104" />
    <path d="M284.4 514.73104 L282.6 523.21209" />
    <path d="M282.6 523.21209 L284.4 531.69313" />
    <path d="M284.4 531.69313 L282.6 540.17417" />
    <path d="M282.6 544.67417 L284.4 554.36612" />
    <path d="M284.4 554.36612 L282.6 564.05806" />
    <path d="M282.6 564.05806 L284.4 573.75" />
    <path d="M289.35 506.25 L291.15 515.86001" />
    <path d="M291.15 515.86001 L289.35 525.47002" />
    <path d="M289.35 529.97002 L291.15 538.72602" />
    <path d="M291.15 538.72602 L289.35 547.48201" />
    <path d="M289.35 547.48201 L291.15 556.23801" />
    <path d="M291.15 556.23801 L289.35 564.994" />
    <path d="M289.35 564.994 L291.15 573.75" />
    <path d="M296.1 506.25 L297.9 512.65199" />
    <path d="M296.1 517.15199 L297.9 525.57521" />
    <path d="M297.9 525.57521 L296.1 533.99843" />
    <path d="M296.1 533.99843 L297.9 542.42166" />
    <path d="M297.9 542.42166 L296.1 550.84488" />
    <path d="M296.1 550.84488 L297.9 559.2681" />
    <path d="M297.9 559.2681 L296.1 567.69132" />
    <path d="M302.85 506.25 L304.65 515.07333" />
    <path d="M304.65 515.07333 L302.85 523.89666" />
    <path d="M302.85 523.89666 L304.65 532.71999" />
    <path d="M304.65 532.71999 L302.85 541.54332" />
    <path d="M302.85 541.54332 L304.65 550.36665" />
    <path d="M304.65 550.36665 L302.85 559.18998" />
    <path d="M302.85 559.18998 L304.65 568.01331" />
    <path d="M325.35 56.25 L327.15 65.73188" />
    <path d="M327.15 65.73188 L325.35 75.21376" />
    <path d="M325.35 75.21376 L327.15 84.69563" />
    <path d="M327.15 84.69563 L325.35 94.17751" />
    <path d="M325.35 94.17751 L327.15 103.65939" />
    <path d="M327.15 103.65939 L325.35 113.14127" />
    <path d="M325.35 117.64127 L327.15 123.75" />
    <path d="M332.1 56.25 L333.9 65.1909" />
    <path d="M333.9 65.1909 L332.1 74.13179" />
    <path d="M332.1 74.13179 L333.9 83.07269" />
    <path d="M332.1 87.57269 L333.9 96.61702" />
    <path d="M333.9 96.61702 L332.1 105.66134" />
    <path d="M332.1 105.66134 L333.9 114.70567" />
    <path d="M333.9 114.70567 L332.1 123.75" />
    <path d="M338.85 56.25 L340.65 65.45595" />
    <path d="M340.65 65.45595 L338.85 74.66189" />
    <path d="M338.85 74.66189 L340.65 83.86784" />
    <path d="M340.65 83.86784 L338.85 93.07378" />
    <path d="M338.85 93.07378 L340.65 102.27973" />
    <path d="M338.85 106.77973 L340.65 115.26486" />
    <path d="M340.65 115.26486 L338.85 123.75" />
    <path d="M345.6 56.25 L347.4 66.49385" />
    <path d="M347.4 66.49385 L345.6 76.7377" />
    <path d="M345.6 81.2377 L347.4 89.74016" />
    <path d="M347.4 89.74016 L345.6 98.24262" />
    <path d="M345.6 98.24262 L347.4 106.74508" />
    <path d="M347.4 106.74508 L345.6 115.24754" />
    <path d="M345.6 115.24754 L347.4 123.75" />
    <path d="M352.35 56.25 L354.15 66.21306" />
    <path d="M354.15 66.21306 L352.35 76.17613" />
    <path d="M352.35 76.17613 L354.15 86.13919" />
    <path d="M352.35 90.63919 L354.15 98.12832" />
    <path d="M354.15 98.12832 L352.35 105.61746" />
    <path d="M352.35 110.11746 L354.15 116.93373" />
    <path d="M354.15 116.93373 L352.35 123.75" />
    <path d="M359.1 71.4341 L360.9 80.40953" />
    <path d="M360.9 80.40953 L359.1 89.38496" />
    <path d="M359.1 89.38496 L360.9 98.36039" />
    <path d="M359.1 102.86039 L360.9 113.30519" />
    <path d="M360.9 113.30519 L359.1 123.75" />
    <path d="M365.85 56.25 L367.65 66.22088" />
    <path d="M365.85 70.72088 L367.65 79.55906" />
    <path d="M367.65 79.55906 L365.85 88.39725" />
    <path d="M365.85 88.39725 L367.65 97.23544" />
    <path d="M367.65 97.23544 L365.85 106.07363" />
    <path d="M365.85 106.07363 L367.65 114.91181" />
    <path d="M367.65 114.91181 L365.85 123.75" />
    <path d="M372.6 56.25 L374.4 65.30683" />
    <path d="M374.4 65.30683 L372.6 74.36365" />
    <path d="M372.6 74.36365 L374.4 83.42048" />
    <path d="M374.4 83.42048 L372.6 92.4773" />
    <path d="M372.6 92.4773 L374.4 101.53413" />
    <path d="M374.4 101.53413 L372.6 110.59095" />
    <path d="M372.6 115.09095 L374.4 123.75" />
    <path d="M379.35 56.25 L381.15 66.13453" />
    <path d="M381.15 66.13453 L379.35 76.01906" />
    <path d="M379.35 76.01906 L381.15 85.9036" />
    <path d="M381.15 85.9036 L379.35 95.78813" />
    <path d="M379.35 95.78813 L381.15 105.67266" />
    <path d="M379.35 110.17266 L381.15 116.96133" />
    <path d="M381.15 116.96133 L379.35 123.75" />
    <path d="M386.1 61.52431 L387.9 66.87964" />
    <path d="M386.1 71.37964 L387.9 80.10803" />
    <path d="M387.9 80.10803 L386.1 88.83643" />
    <path d="M386.1 88.83643 L387.9 97.56482" />
    <path d="M387.9 97.56482 L386.1 106.29321" />
    <path d="M386.1 106.29321 L387.9 115.02161" />
    <path d="M387.9 115.02161 L386.1 123.75" />
    <path d="M392.85 61.45175 L394.65 69.62922" />
    <path d="M394.65 69.62922 L392.85 77.80669" />
    <path d="M392.85 77.80669 L394.65 85.98415" />
    <path d="M394.65 85.98415 L392.85 94.16162" />
    <path d="M392.85 94.16162 L394.65 102.33909" />
    <path d="M392.85 106.83909 L394.65 115.29455" />
    <path d="M394.65 115.29455 L392.85 123.75" />
    <path d="M325.35 146.25 L327.15 155.4728" />
    <path d="M327.15 155.4728 L325.35 164.6956" />
    <path d="M325.35 164.6956 L327.15 173.9184" />
    <path d="M327.15 173.9184 L325.35 183.1412" />
    <path d="M325.35 183.1412 L327.15 192.364" />
    <path d="M327.15 192.364 L325.35 201.5868" />
    <path d="M325.35 206.0868 L327.15 213.75" />
    <path d="M332.1 146.25 L333.9 155.127" />
    <path d="M333.9 155.127 L332.1 164.004" />
    <path d="M332.1 164.004 L333.9 172.881" />
    <path d="M333.9 172.881 L332.1 181.758" />
    <path d="M332.1 186.258 L333.9 193.46152" />
    <path d="M333.9 193.46152 L332.1 200.66503" />
    <path d="M332.1 205.16503 L333.9 213.75" />
    <path d="M338.85 146.25 L340.65 155.89286" />
    <path d="M340.65 155.89286 L338.85 165.53571" />
    <path d="M338.85 165.53571 L340.65 175.17857" />
    <path d="M340.65 175.17857 L338.85 184.82143" />
    <path d="M338.85 184.82143 L340.65 194.46429" />
    <path d="M340.65 194.46429 L338.85 204.10714" />
    <path d="M338.85 204.10714 L340.65 213.75" />
    <path d="M345.6 146.25 L347.4 155.83559" />
    <path d="M347.4 155.83559 L345.6 165.42118" />
    <path d="M345.6 165.42118 L347.4 175.00677" />
    <path d="M347.4 175.00677 L345.6 184.59236" />
    <path d="M345.6 184.59236 L347.4 194.17795" />
    <path d="M345.6 198.67795 L347.4 206.21397" />
    <path d="M347.4 206.21397 L345.6 213.75" />
    <path d="M352.35 146.25 L354.15 154.14179" />
    <path d="M354.15 154.14179 L352.35 162.03357" />
    <path d="M352.35 173.93066 L354.15 183.88549" />
    <path d="M354.15 183.88549 L352.35 193.84033" />
    <path d="M352.35 193.84033 L354.15 203.79516" />
    <path d="M354.15 203.79516 L352.35 213.75" />
    <path d="M359.1 146.25 L360.9 155.21141" />
    <path d="M359.1 159.71141 L360.9 168.71784" />
    <path d="M360.9 168.71784 L359.1 177.72427" />
    <path d="M359.1 177.72427 L360.9 186.7307" />
    <path d="M360.9 186.7307 L359.1 195.73714" />
    <path d="M359.1 195.73714 L360.9 204.74357" />
    <path d="M360.9 204.74357 L359.1 213.75" />
    <path d="M365.85 146.25 L367.65 155.89192" />
    <path d="M367.65 155.89192 L365.85 165.53385" />
    <path d="M365.85 165.53385 L367.65 175.17577" />
    <path d="M367.65 175.17577 L365.85 184.81769" />
    <path d="M365.85 184.81769 L367.65 194.45962" />
    <path d="M367.65 194.45962 L365.85 204.10154" />
    <path d="M365.85 208.60154 L367.65 213.75" />
    <path d="M372.6 146.25 L374.4 155.33493" />
    <path d="M374.4 155.33493 L372.6 164.41986" />
    <path d="M372.6 164.41986 L374.4 173.50479" />
    <path d="M374.4 173.50479 L372.6 182.58972" />
    <path d="M372.6 182.58972 L374.4 191.67464" />
    <path d="M374.4 191.67464 L372.6 200.75957" />
    <path d="M372.6 205.25957 L374.4 213.75" />
    <path d="M379.35 146.25 L381.15 159.35869" />
    <path d="M379.35 168.45209 L381.15 177.35459" />
    <path d="M379.35 181.85459 L381.15 189.82844" />
    <path d="M381.15 189.82844 L379.35 197.80229" />
    <path d="M379.35 197.80229 L381.15 205.77615" />
    <path d="M381.15 205.77615 L379.35 213.75" />
    <path d="M386.1 146.25 L387.9 155.08129" />
    <path d="M387.9 155.08129 L386.1 163.91258" />
    <path d="M386.1 168.41258 L387.9 177.48007" />
    <path d="M387.9 177.48007 L386.1 186.54755" />
    <path d="M386.1 186.54755 L387.9 195.61503" />
    <path d="M387.9 195.61503 L386.1 204.68252" />
    <path d="M386.1 204.68252 L387.9 213.75" />
    <path d="M392.85 146.25 L394.65 154.77202" />
    <path d="M394.65 154.77202 L392.85 163.29404" />
    <path d="M392.85 163.29404 L394.65 171.81606" />
    <path d="M392.85 176.31606 L394.65 183.53097" />
    <path d="M392.85 188.03097 L394.65 196.60398" />
    <path d="M394.65 196.60398 L392.85 205.17699" />
    <path d="M392.85 205.17699 L394.65 213.75" />
    <path d="M325.35 243.36555 L327.15 251.9919" />
    <path d="M327.15 251.9919 L325.35 260.61825" />
    <path d="M325.35 260.61825 L327.15 269.2446" />
    <path d="M327.15 269.2446 L325.35 277.87095" />
    <path d="M325.35 277.87095 L327.15 286.4973" />
    <path d="M327.15 286.4973 L325.35 295.12365" />
    <path d="M325.35 295.12365 L327.15 303.75" />
    <path d="M332.1 236.25 L333.9 246.13762" />
    <path d="M333.9 246.13762 L332.1 256.02523" />
    <path d="M332.1 256.02523 L333.9 265.91285" />
    <path d="M333.9 265.91285 L332.1 275.80046" />
    <path d="M332.1 280.30046 L333.9 288.11697" />
    <path d="M333.9 288.11697 L332.1 295.93349" />
    <path d="M332.1 295.93349 L333.9 303.75" />
    <path d="M338.85 236.25 L340.65 243.39058" />
    <path d="M340.65 243.39058 L338.85 250.53117" />
    <path d="M338.85 263.5163 L340.65 273.57472" />
    <path d="M340.65 273.57472 L338.85 283.63315" />
    <path d="M338.85 283.63315 L340.65 293.69157" />
    <path d="M340.65 293.69157 L338.85 303.75" />
    <path d="M345.6 236.25 L347.4 245.83085" />
    <path d="M347.4 245.83085 L345.6 255.41171" />
    <path d="M345.6 255.41171 L347.4 264.99256" />
    <path d="M347.4 264.99256 L345.6 274.57341" />
    <path d="M345.6 279.07341 L347.4 287.29894" />
    <path d="M347.4 287.29894 L345.6 295.52447" />
    <path d="M345.6 295.52447 L347.4 303.75" />
    <path d="M352.35 236.25 L354.15 245.1117" />
    <path d="M354.15 245.1117 L352.35 253.9734" />
    <path d="M352.35 253.9734 L354.15 262.8351" />
    <path d="M354.15 262.8351 L352.35 271.6968" />
    <path d="M352.35 271.6968 L354.15 280.5585" />
    <path d="M354.15 280.5585 L352.35 289.4202" />
    <path d="M352.35 299.08223 L354.15 303.75" />
    <path d="M359.1 236.25 L360.9 245.54421" />
    <path d="M360.9 245.54421 L359.1 254.83842" />
    <path d="M359.1 254.83842 L360.9 264.13262" />
    <path d="M360.9 264.13262 L359.1 273.42683" />
    <path d="M359.1 277.92683 L360.9 285.21356" />
    <path d="M360.9 285.21356 L359.1 292.50028" />
    <path d="M359.1 297.00028 L360.9 303.75" />
    <path d="M365.85 236.25 L367.65 245.49308" />
    <path d="M367.65 245.49308 L365.85 254.73617" />
    <path d="M365.85 254.73617 L367.65 263.97925" />
    <path d="M367.65 263.97925 L365.85 273.22233" />
    <path d="M365.85 273.22233 L367.65 282.46541" />
    <path d="M365.85 293.16912 L367.65 303.75" />
    <path d="M372.6 236.25 L374.4 244.3683" />
    <path d="M374.4 244.3683 L372.6 252.48661" />
    <path d="M372.6 252.48661 L374.4 260.60491" />
    <path d="M374.4 260.60491 L372.6 268.72322" />
    <path d="M372.6 273.22322 L374.4 283.39881" />
    <path d="M374.4 283.39881 L372.6 293.57441" />
    <path d="M372.6 293.57441 L374.4 303.75" />
    <path d="M379.35 236.25 L381.15 241.44306" />
    <path d="M379.35 245.94306 L381.15 255.57755" />
    <path d="M381.15 255.57755 L379.35 265.21204" />
    <path d="M379.35 265.21204 L381.15 274.84653" />
    <path d="M381.15 274.84653 L379.35 284.48102" />
    <path d="M379.35 284.48102 L381.15 294.11551" />
    <path d="M381.15 294.11551 L379.35 303.75" />
    <path d="M386.1 236.25 L387.9 247.24587" />
    <path d="M386.1 251.74587 L387.9 261.05909" />
    <path d="M387.9 261.05909 L386.1 270.37232" />
    <path d="M386.1 270.37232 L387.9 279.68555" />
    <path d="M387.9 279.68555 L386.1 288.99878" />
    <path d="M386.1 288.99878 L387.9 298.31201" />
    <path d="M392.85 236.25 L394.65 245.78944" />
    <path d="M394.65 245.78944 L392.85 255.32888" />
    <path d="M392.85 259.82888 L394.65 268.6131" />
    <path d="M394.65 268.6131 L392.85 277.39733" />
    <path d="M392.85 277.39733 L394.65 286.18155" />
    <path d="M394.65 286.18155 L392.85 294.96578" />
    <path d="M392.85 294.96578 L394.65 303.75" />
    <path d="M325.35 326.25 L327.15 337.48903" />
    <path d="M327.15 337.48903 L325.35 348.72807" />
    <path d="M325.35 353.22807 L327.15 361.33245" />
    <path d="M327.15 361.33245 L325.35 369.43684" />
    <path d="M325.35 369.43684 L327.15 377.54123" />
    <path d="M327.15 377.54123 L325.35 385.64561" />
    <path d="M325.35 385.64561 L327.15 393.75" />
    <path d="M332.1 326.25 L333.9 335.16251" />
    <path d="M333.9 335.16251 L332.1 344.07501" />
    <path d="M332.1 344.07501 L333.9 352.98752" />
    <path d="M333.9 352.98752 L332.1 361.90002" />
    <path d="M332.1 361.90002 L333.9 370.81253" />
    <path d="M333.9 370.81253 L332.1 379.72504" />
    <path d="M332.1 384.22504 L333.9 393.75" />
    <path d="M338.85 326.25 L340.65 339.22974" />
    <path d="M338.85 343.72974 L340.65 352.45959" />
    <path d="M340.65 352.45959 L338.85 361.18944" />
    <path d="M338.85 361.18944 L340.65 369.91929" />
    <path d="M340.65 369.91929 L338.85 378.64914" />
    <path d="M338.85 378.64914 L340.65 387.37899" />
    <path d="M345.6 326.25 L347.4 335.9311" />
    <path d="M347.4 335.9311 L345.6 345.61219" />
    <path d="M345.6 345.61219 L347.4 355.29329" />
    <path d="M347.4 355.29329 L345.6 364.97438" />
    <path d="M345.6 369.47438 L347.4 377.56625" />
    <path d="M347.4 377.56625 L345.6 385.65813" />
    <path d="M345.6 385.65813 L347.4 393.75" />
    <path d="M352.35 326.25 L354.15 334.96002" />
    <path d="M354.15 334.96002 L352.35 343.67004" />
    <path d="M352.35 343.67004 L354.15 352.38006" />
    <path d="M354.15 352.38006 L352.35 361.09008" />
    <path d="M352.35 373.76964 L354.15 383.75982" />
    <path d="M354.15 383.75982 L352.35 393.75" />
    <path d="M359.1 326.25 L360.9 335.89286" />
    <path d="M360.9 335.89286 L359.1 345.53571" />
    <path d="M359.1 345.53571 L360.9 355.17857" />
    <path d="M360.9 355.17857 L359.1 364.82143" />
    <path d="M359.1 364.82143 L360.9 374.46429" />
    <path d="M360.9 374.46429 L359.1 384.10714" />
    <path d="M359.1 384.10714 L360.9 393.75" />
    <path d="M365.85 326.25 L367.65 334.99108" />
    <path d="M367.65 334.99108 L365.85 343.73216" />
    <path d="M365.85 343.73216 L367.65 352.47324" />
    <path d="M367.65 352.47324 L365.85 361.21432" />
    <path d="M365.85 361.21432 L367.65 369.9554" />
    <path d="M367.65 369.9554 L365.85 378.69648" />
    <path d="M365.85 378.69648 L367.65 387.43756" />
    <path d="M372.6 326.25 L374.4 335.62798" />
    <path d="M374.4 335.62798 L372.6 345.00596" />
    <path d="M372.6 345.00596 L374.4 354.38394" />
    <path d="M374.4 354.38394 L372.6 363.76192" />
    <path d="M372.6 363.76192 L374.4 373.13989" />
    <path d="M374.4 373.13989 L372.6 382.51787" />
    <path d="M372.6 387.01787 L374.4 393.75" />
    <path d="M379.35 326.25 L381.15 335.28555" />
    <path d="M381.15 335.28555 L379.35 344.32111" />
    <path d="M379.35 344.32111 L381.15 353.35666" />
    <path d="M381.15 353.35666 L379.35 362.39222" />
    <path d="M379.35 362.39222 L381.15 371.42777" />
    <path d="M379.35 375.92777 L381.15 384.83889" />
    <path d="M381.15 384.83889 L379.35 393.75" />
    <path d="M386.1 326.25 L387.9 335.47709" />
    <path d="M387.9 335.47709 L386.1 344.70418" />
    <path d="M386.1 344.70418 L387.9 353.93126" />
    <path d="M387.9 353.93126 L386.1 363.15835" />
    <path d="M386.1 363.15835 L387.9 372.38544" />
    <path d="M387.9 372.38544 L386.1 381.61253" />
    <path d="M386.1 386.11253 L387.9 393.75" />
    <path d="M392.85 326.25 L394.65 334.65581" />
    <path d="M394.65 334.65581 L392.85 343.06162" />
    <path d="M392.85 343.06162 L394.65 351.46743" />
    <path d="M394.65 351.46743 L392.85 359.87324" />
    <path d="M392.85 364.37324 L394.65 374.1655" />
    <path d="M394.65 374.1655 L392.85 383.95775" />
    <path d="M392.85 383.95775 L394.65 393.75" />
    <path d="M325.35 416.25 L327.15 425.13009" />
    <path d="M327.15 425.13009 L325.35 434.01018" />
    <path d="M325.35 434.01018 L327.15 442.89026" />
    <path d="M325.35 447.39026 L327.15 455.56069" />
    <path d="M327.15 455.56069 L325.35 463.73111" />
    <path d="M325.35 463.73111 L327.15 471.90153" />
    <path d="M325.35 476.40153 L327.15 483.75" />
    <path d="M332.1 416.25 L333.9 425.21815" />
    <path d="M333.9 425.21815 L332.1 434.18629" />
    <path d="M332.1 434.18629 L333.9 443.15444" />
    <path d="M333.9 443.15444 L332.1 452.12259" />
    <path d="M332.1 456.62259 L333.9 465.66506" />
    <path d="M333.9 465.66506 L332.1 474.70753" />
    <path d="M332.1 474.70753 L333.9 483.75" />
    <path d="M338.85 416.25 L340.65 425.44945" />
    <path d="M338.85 429.94945 L340.65 438.03031" />
    <path d="M340.65 438.03031 L338.85 446.11116" />
    <path d="M338.85 456.10749 L340.65 465.32166" />
    <path d="M340.65 465.32166 L338.85 474.53583" />
    <path d="M338.85 474.53583 L340.65 483.75" />
    <path d="M345.6 416.25 L347.4 423.37874" />
    <path d="M347.4 423.37874 L345.6 430.50748" />
    <path d="M345.6 435.00748 L347.4 444.75598" />
    <path d="M347.4 444.75598 L345.6 454.50449" />
    <path d="M345.6 454.50449 L347.4 464.25299" />
    <path d="M347.4 464.25299 L345.6 474.0015" />
    <path d="M345.6 474.0015 L347.4 483.75" />
    <path d="M352.35 416.25 L354.15 425.76448" />
    <path d="M354.15 425.76448 L352.35 435.27896" />
    <path d="M352.35 435.27896 L354.15 444.79343" />
    <path d="M352.35 449.29343 L354.15 457.90758" />
    <path d="M354.15 457.90758 L352.35 466.52172" />
    <path d="M352.35 466.52172 L354.15 475.13586" />
    <path d="M354.15 475.13586 L352.35 483.75" />
    <path d="M359.1 416.25 L360.9 426.04659" />
    <path d="M360.9 426.04659 L359.1 435.84319" />
    <path d="M359.1 435.84319 L360.9 445.63978" />
    <path d="M360.9 445.63978 L359.1 455.43638" />
    <path d="M359.1 455.43638 L360.9 465.23297" />
    <path d="M359.1 469.73297 L360.9 476.74149" />
    <path d="M360.9 476.74149 L359.1 483.75" />
    <path d="M365.85 416.25 L367.65 425.64429" />
    <path d="M367.65 425.64429 L365.85 435.03857" />
    <path d="M365.85 435.03857 L367.65 444.43286" />
    <path d="M367.65 444.43286 L365.85 453.82714" />
    <path d="M365.85 453.82714 L367.65 463.22143" />
    <path d="M367.65 463.22143 L365.85 472.61571" />
    <path d="M365.85 477.11571 L367.65 483.75" />
    <path d="M372.6 416.25 L374.4 425.08078" />
    <path d="M374.4 425.08078 L372.6 433.91155" />
    <path d="M372.6 433.91155 L374.4 442.74233" />
    <path d="M374.4 442.74233 L372.6 451.57311" />
    <path d="M372.6 451.57311 L374.4 460.40389" />
    <path d="M372.6 464.90389 L374.4 474.32694" />
    <path d="M374.4 474.32694 L372.6 483.75" />
    <path d="M379.35 416.25 L381.15 426.32668" />
    <path d="M381.15 426.32668 L379.35 436.40336" />
    <path d="M379.35 436.40336 L381.15 446.48004" />
    <path d="M381.15 446.48004 L379.35 456.55672" />
    <path d="M379.35 461.05672 L381.15 468.62115" />
    <path d="M381.15 468.62115 L379.35 476.18557" />
    <path d="M379.35 476.18557 L381.15 483.75" />
    <path d="M386.1 424.85926 L387.9 433.27222" />
    <path d="M387.9 433.27222 L386.1 441.68519" />
    <path d="M386.1 441.68519 L387.9 450.09815" />
    <path d="M387.9 450.09815 L386.1 458.51111" />
    <path d="M386.1 458.51111 L387.9 466.92407" />
    <path d="M387.9 466.92407 L386.1 475.33704" />
    <path d="M386.1 475.33704 L387.9 483.75" />
    <path d="M392.85 416.25 L394.65 424.89698" />
    <path d="M394.65 424.89698 L392.85 433.54396" />
    <path d="M392.85 433.54396 L394.65 442.19094" />
    <path d="M394.65 442.19094 L392.85 450.83792" />
    <path d="M392.85 450.83792 L394.65 459.48491" />
    <path d="M394.65 459.48491 L392.85 468.13189" />
    <path d="M392.85 468.13189 L394.65 476.77887" />
    <path d="M325.35 510.85879 L327.15 520.85293" />
    <path d="M327.15 520.85293 L325.35 530.84707" />
    <path d="M325.35 530.84707 L327.15 540.84121" />
    <path d="M327.15 540.84121 L325.35 550.83534" />
    <path d="M325.35 555.33534 L327.15 564.54267" />
    <path d="M327.15 564.54267 L325.35 573.75" />
    <path d="M332.1 506.25 L333.9 516.0033" />
    <path d="M333.9 516.0033 L332.1 525.7566" />
    <path d="M332.1 525.7566 L333.9 535.5099" />
    <path d="M333.9 535.5099 L332.1 545.2632" />
    <path d="M332.1 545.2632 L333.9 555.0165" />
    <path d="M332.1 559.5165 L333.9 566.63325" />
    <path d="M333.9 566.63325 L332.1 573.75" />
    <path d="M338.85 506.25 L340.65 514.79041" />
    <path d="M340.65 514.79041 L338.85 523.33082" />
    <path d="M338.85 527.83082 L340.65 537.123" />
    <path d="M340.65 537.123 L338.85 546.41518" />
    <path d="M338.85 546.41518 L340.65 555.70736" />
    <path d="M338.85 560.20736 L340.65 566.97868" />
    <path d="M340.65 566.97868 L338.85 573.75" />
    <path d="M345.6 506.25 L347.4 515.90039" />
    <path d="M347.4 515.90039 L345.6 525.55078" />
    <path d="M345.6 525.55078 L347.4 535.20117" />
    <path d="M347.4 535.20117 L345.6 544.85155" />
    <path d="M345.6 549.35155 L347.4 557.48437" />
    <path d="M347.4 557.48437 L345.6 565.61718" />
    <path d="M345.6 565.61718 L347.4 573.75" />
    <path d="M352.35 506.25 L354.15 515.08193" />
    <path d="M354.15 515.08193 L352.35 523.91385" />
    <path d="M352.35 523.91385 L354.15 532.74578" />
    <path d="M354.15 532.74578 L352.35 541.57771" />
    <path d="M352.35 541.57771 L354.15 550.40963" />
    <path d="M354.15 550.40963 L352.35 559.24156" />
    <path d="M352.35 559.24156 L354.15 568.07349" />
    <path d="M359.1 506.25 L360.9 514.46721" />
    <path d="M360.9 514.46721 L359.1 522.68442" />
    <path d="M359.1 522.68442 L360.9 530.90163" />
    <path d="M360.9 530.90163 L359.1 539.11884" />
    <path d="M359.1 551.7668 L360.9 562.7584" />
    <path d="M360.9 562.7584 L359.1 573.75" />
    <path d="M365.85 506.25 L367.65 514.83307" />
    <path d="M367.65 514.83307 L365.85 523.41614" />
    <path d="M365.85 523.41614 L367.65 531.99922" />
    <path d="M367.65 531.99922 L365.85 540.58229" />
    <path d="M365.85 540.58229 L367.65 549.16536" />
    <path d="M367.65 549.16536 L365.85 557.74843" />
    <path d="M365.85 562.24843 L367.65 573.75" />
    <path d="M372.6 506.25 L374.4 515.54704" />
    <path d="M374.4 515.54704 L372.6 524.84408" />
    <path d="M372.6 524.84408 L374.4 534.14111" />
    <path d="M374.4 534.14111 L372.6 543.43815" />
    <path d="M372.6 543.43815 L374.4 552.73519" />
    <path d="M374.4 552.73519 L372.6 562.03223" />
    <path d="M372.6 566.53223 L374.4 573.75" />
    <path d="M379.35 506.25 L381.15 515.29135" />
    <path d="M381.15 515.29135 L379.35 524.3327" />
    <path d="M379.35 524.3327 L381.15 533.37405" />
    <path d="M381.15 533.37405 L379.35 542.4154" />
    <path d="M379.35 546.9154 L381.15 555.86026" />
    <path d="M381.15 555.86026 L379.35 564.80513" />
    <path d="M379.35 564.80513 L381.15 573.75" />
    <path d="M386.1 506.25 L387.9 514.79116" />
    <path d="M387.9 514.79116 L386.1 523.33232" />
    <path d="M386.1 523.33232 L387.9 531.87349" />
    <path d="M387.9 531.87349 L386.1 540.41465" />
    <path d="M386.1 540.41465 L387.9 548.95581" />
    <path d="M386.1 553.45581 L387.9 564.9097" />
    <path d="M392.85 506.25 L394.65 515.27358" />
    <path d="M394.65 515.27358 L392.85 524.29715" />
    <path d="M392.85 524.29715 L394.65 533.32073" />
    <path d="M394.65 533.32073 L392.85 542.3443" />
    <path d="M392.85 542.3443 L394.65 551.36788" />
    <path d="M392.85 564.73094 L394.65 573.75" />
  </g>
</svg>